{"header":{"PPQ":480,"timeSignature":[4,4],"bpm":120,"name":""},"startTime":0,"duration":480.8625000000005,"tracks":[{"startTime":0,"duration":0,"length":0,"notes":[],"controlChanges":{},"id":0},{"startTime":0.7447916666666666,"duration":480.8302083333359,"length":1731,"notes":[{"name":"C#5","midi":73,"time":0.7447916666666666,"velocity":0.25984251968503935,"duration":0.13541666666666663},{"name":"E5","midi":76,"time":0.7729166666666666,"velocity":0.1732283464566929,"duration":0.14479166666666665},{"name":"F#4","midi":66,"time":0.7812499999999999,"velocity":0.1889763779527559,"duration":0.1395833333333334},{"name":"C#5","midi":73,"time":1.125,"velocity":0.2677165354330709,"duration":0.15104166666666652},{"name":"E5","midi":76,"time":1.1520833333333333,"velocity":0.1732283464566929,"duration":0.12708333333333321},{"name":"F#4","midi":66,"time":1.153125,"velocity":0.2047244094488189,"duration":0.15937500000000004},{"name":"C#5","midi":73,"time":1.528125,"velocity":0.2755905511811024,"duration":0.1322916666666667},{"name":"E5","midi":76,"time":1.540625,"velocity":0.2125984251968504,"duration":0.12395833333333339},{"name":"F#4","midi":66,"time":1.546875,"velocity":0.2204724409448819,"duration":0.15625},{"name":"C#5","midi":73,"time":1.9104166666666667,"velocity":0.2755905511811024,"duration":0.11770833333333353},{"name":"E5","midi":76,"time":1.940625,"velocity":0.2125984251968504,"duration":0.09895833333333326},{"name":"F#4","midi":66,"time":1.9416666666666667,"velocity":0.2283464566929134,"duration":0.11041666666666683},{"name":"C#5","midi":73,"time":2.3041666666666667,"velocity":0.2440944881889764,"duration":0.13749999999999973},{"name":"F#4","midi":66,"time":2.3197916666666667,"velocity":0.1889763779527559,"duration":0.12812499999999982},{"name":"E5","midi":76,"time":2.321875,"velocity":0.2125984251968504,"duration":0.12812499999999982},{"name":"C#5","midi":73,"time":2.692708333333333,"velocity":0.2047244094488189,"duration":0.18854166666666616},{"name":"F#4","midi":66,"time":2.7166666666666663,"velocity":0.2204724409448819,"duration":0.13749999999999973},{"name":"E5","midi":76,"time":2.7343749999999996,"velocity":0.18110236220472442,"duration":0.12187499999999973},{"name":"E5","midi":76,"time":3.091666666666666,"velocity":0.2755905511811024,"duration":0.15833333333333277},{"name":"C#5","midi":73,"time":3.0947916666666657,"velocity":0.28346456692913385,"duration":0.15208333333333313},{"name":"F#4","midi":66,"time":3.103124999999999,"velocity":0.2440944881889764,"duration":0.16666666666666652},{"name":"E5","midi":76,"time":3.487499999999999,"velocity":0.25984251968503935,"duration":0.13749999999999973},{"name":"C#5","midi":73,"time":3.489583333333332,"velocity":0.30708661417322836,"duration":0.13749999999999973},{"name":"F#4","midi":66,"time":3.5010416666666653,"velocity":0.29133858267716534,"duration":0.12291666666666679},{"name":"C#5","midi":73,"time":3.8687499999999986,"velocity":0.33858267716535434,"duration":0.1864583333333325},{"name":"F#4","midi":66,"time":3.8749999999999987,"velocity":0.29133858267716534,"duration":0.14270833333333277},{"name":"E5","midi":76,"time":3.8781249999999985,"velocity":0.2755905511811024,"duration":0.14374999999999938},{"name":"C#5","midi":73,"time":4.264583333333331,"velocity":0.33858267716535434,"duration":0.1885416666666666},{"name":"E5","midi":76,"time":4.2677083333333306,"velocity":0.2992125984251969,"duration":0.15625},{"name":"F#4","midi":66,"time":4.272916666666664,"velocity":0.2755905511811024,"duration":0.16979166666666679},{"name":"C#5","midi":73,"time":4.651041666666664,"velocity":0.29133858267716534,"duration":0.17708333333333304},{"name":"E5","midi":76,"time":4.656249999999997,"velocity":0.2677165354330709,"duration":0.14270833333333321},{"name":"F#4","midi":66,"time":4.667708333333331,"velocity":0.2992125984251969,"duration":0.140625},{"name":"C#5","midi":73,"time":5.031249999999997,"velocity":0.31496062992125984,"duration":0.17708333333333304},{"name":"F#4","midi":66,"time":5.05208333333333,"velocity":0.28346456692913385,"duration":0.17916666666666625},{"name":"E5","midi":76,"time":5.054166666666664,"velocity":0.2992125984251969,"duration":0.15416666666666679},{"name":"C#5","midi":73,"time":5.42083333333333,"velocity":0.3464566929133858,"duration":0.15104166666666607},{"name":"E5","midi":76,"time":5.42395833333333,"velocity":0.2992125984251969,"duration":0.1531249999999993},{"name":"F#4","midi":66,"time":5.426041666666663,"velocity":0.3228346456692913,"duration":0.1552083333333325},{"name":"F#4","midi":66,"time":5.816666666666662,"velocity":0.30708661417322836,"duration":0.1687499999999993},{"name":"C#5","midi":73,"time":5.818749999999995,"velocity":0.3543307086614173,"duration":0.14999999999999947},{"name":"E5","midi":76,"time":5.822916666666662,"velocity":0.29133858267716534,"duration":0.14791666666666625},{"name":"F#4","midi":66,"time":6.219791666666661,"velocity":0.30708661417322836,"duration":0.171875},{"name":"C#5","midi":73,"time":6.2218749999999945,"velocity":0.33858267716535434,"duration":0.140625},{"name":"E5","midi":76,"time":6.230208333333328,"velocity":0.25984251968503935,"duration":0.12916666666666643},{"name":"C#5","midi":73,"time":6.619791666666662,"velocity":0.2992125984251969,"duration":0.07291666666666607},{"name":"F#4","midi":66,"time":6.6385416666666615,"velocity":0.2755905511811024,"duration":0.09791666666666643},{"name":"E5","midi":76,"time":6.651041666666662,"velocity":0.2125984251968504,"duration":0.03854166666666625},{"name":"F#4","midi":66,"time":7.092708333333328,"velocity":0.4409448818897638,"duration":0.15000000000000036},{"name":"D4","midi":62,"time":7.102083333333328,"velocity":0.2677165354330709,"duration":0.16666666666666696},{"name":"D5","midi":74,"time":7.104166666666662,"velocity":0.33858267716535434,"duration":0.1395833333333334},{"name":"D4","midi":62,"time":7.501041666666662,"velocity":0.4330708661417323,"duration":0.1083333333333325},{"name":"D5","midi":74,"time":7.507291666666662,"velocity":0.44881889763779526,"duration":0.1687499999999993},{"name":"F#4","midi":66,"time":7.510416666666662,"velocity":0.4251968503937008,"duration":0.16145833333333304},{"name":"E5","midi":76,"time":7.882291666666661,"velocity":0.4330708661417323,"duration":0.18333333333333268},{"name":"E4","midi":64,"time":7.886458333333327,"velocity":0.41732283464566927,"duration":0.16562499999999947},{"name":"B4","midi":71,"time":7.887499999999994,"velocity":0.5275590551181102,"duration":0.171875},{"name":"B4","midi":71,"time":8.280208333333327,"velocity":0.3779527559055118,"duration":0.12291666666666679},{"name":"E5","midi":76,"time":8.28229166666666,"velocity":0.3858267716535433,"duration":0.1416666666666675},{"name":"E4","midi":64,"time":8.28854166666666,"velocity":0.33858267716535434,"duration":0.05833333333333357},{"name":"A4","midi":69,"time":8.680208333333328,"velocity":0.3228346456692913,"duration":0.3041666666666778},{"name":"E5","midi":76,"time":8.69895833333333,"velocity":0.3543307086614173,"duration":0.26250000000000817},{"name":"F#4","midi":66,"time":8.701041666666663,"velocity":0.4330708661417323,"duration":0.2718750000000085},{"name":"A4","midi":69,"time":9.111458333333339,"velocity":0.14173228346456693,"duration":0.24375000000000036},{"name":"F#4","midi":66,"time":9.116666666666672,"velocity":0.30708661417322836,"duration":0.234375},{"name":"E5","midi":76,"time":9.128125000000006,"velocity":0.29133858267716534,"duration":0.1864583333333325},{"name":"E5","midi":76,"time":9.538541666666672,"velocity":0.2047244094488189,"duration":0.19895833333333357},{"name":"F#4","midi":66,"time":9.550000000000006,"velocity":0.2204724409448819,"duration":0.20104166666666679},{"name":"A4","midi":69,"time":9.55208333333334,"velocity":0.3543307086614173,"duration":0.1750000000000007},{"name":"F#4","midi":66,"time":9.940625000000006,"velocity":0.2440944881889764,"duration":0.21979166666666927},{"name":"A4","midi":69,"time":9.947916666666673,"velocity":0.3543307086614173,"duration":0.20937500000000142},{"name":"E5","midi":76,"time":9.95520833333334,"velocity":0.2047244094488189,"duration":0.19479166666666714},{"name":"F#4","midi":66,"time":10.347916666666675,"velocity":0.23622047244094488,"duration":0.22604166666666536},{"name":"E5","midi":76,"time":10.350000000000009,"velocity":0.25984251968503935,"duration":0.1864583333333325},{"name":"A4","midi":69,"time":10.365625000000009,"velocity":0.33858267716535434,"duration":0.22604166666666536},{"name":"F#4","midi":66,"time":10.75833333333334,"velocity":0.2677165354330709,"duration":0.21458333333333535},{"name":"A4","midi":69,"time":10.765625000000007,"velocity":0.33070866141732286,"duration":0.1572916666666675},{"name":"E5","midi":76,"time":10.781250000000007,"velocity":0.2755905511811024,"duration":0.125},{"name":"E5","midi":76,"time":11.141666666666675,"velocity":0.2677165354330709,"duration":0.17395833333333321},{"name":"F#4","midi":66,"time":11.144791666666675,"velocity":0.23622047244094488,"duration":0.2177083333333325},{"name":"A4","midi":69,"time":11.153125000000008,"velocity":0.3228346456692913,"duration":0.16562500000000036},{"name":"F#4","midi":66,"time":11.556250000000007,"velocity":0.25984251968503935,"duration":0.23020833333333357},{"name":"E5","midi":76,"time":11.560416666666674,"velocity":0.1732283464566929,"duration":0.203125},{"name":"A4","midi":69,"time":11.567708333333341,"velocity":0.33858267716535434,"duration":0.21666666666666679},{"name":"F#4","midi":66,"time":11.973958333333341,"velocity":0.31496062992125984,"duration":0.234375},{"name":"A4","midi":69,"time":11.985416666666675,"velocity":0.31496062992125984,"duration":0.21666666666666679},{"name":"E5","midi":76,"time":11.998958333333341,"velocity":0.2204724409448819,"duration":0.1708333333333325},{"name":"E5","midi":76,"time":12.390625000000007,"velocity":0.2992125984251969,"duration":0.16145833333333393},{"name":"F#4","midi":66,"time":12.395833333333341,"velocity":0.2125984251968504,"duration":0.21354166666666785},{"name":"A4","midi":69,"time":12.398958333333342,"velocity":0.3228346456692913,"duration":0.16979166666666679},{"name":"A4","midi":69,"time":12.817708333333343,"velocity":0.2992125984251969,"duration":0.1416666666666675},{"name":"F#4","midi":66,"time":12.819791666666676,"velocity":0.2047244094488189,"duration":0.17812500000000142},{"name":"E5","midi":76,"time":12.827083333333343,"velocity":0.18110236220472442,"duration":0.125},{"name":"F#4","midi":66,"time":13.236458333333344,"velocity":0.2204724409448819,"duration":0.21250000000000213},{"name":"E5","midi":76,"time":13.239583333333345,"velocity":0.23622047244094488,"duration":0.10833333333333428},{"name":"A4","midi":69,"time":13.246875000000012,"velocity":0.23622047244094488,"duration":0.11666666666666714},{"name":"F#4","midi":66,"time":13.690625000000015,"velocity":0.3700787401574803,"duration":0.23750000000000782},{"name":"D5","midi":74,"time":13.690625000000015,"velocity":0.4094488188976378,"duration":0.22395833333334103},{"name":"D4","midi":62,"time":13.731250000000015,"velocity":0.2677165354330709,"duration":0.1854166666666739},{"name":"F#4","midi":66,"time":14.105208333333357,"velocity":0.4645669291338583,"duration":0.16249999999999787},{"name":"D5","midi":74,"time":14.10729166666669,"velocity":0.3937007874015748,"duration":0.16249999999999787},{"name":"D4","midi":62,"time":14.115625000000023,"velocity":0.2992125984251969,"duration":0.0927083333333325},{"name":"E5","midi":76,"time":14.497916666666688,"velocity":0.5196850393700787,"duration":0.23437500000000355},{"name":"E4","midi":64,"time":14.500000000000021,"velocity":0.4330708661417323,"duration":0.23437500000000355},{"name":"B4","midi":71,"time":14.502083333333355,"velocity":0.47244094488188976,"duration":0.2458333333333389},{"name":"E5","midi":76,"time":14.902083333333362,"velocity":0.47244094488188976,"duration":0.06874999999999964},{"name":"E4","midi":64,"time":14.908333333333362,"velocity":0.4251968503937008,"duration":0.09062499999999929},{"name":"B4","midi":71,"time":14.920833333333361,"velocity":0.4409448818897638,"duration":0.08541666666666714},{"name":"A4","midi":69,"time":15.301041666666695,"velocity":0.3937007874015748,"duration":0.2843750000000078},{"name":"C#5","midi":73,"time":15.310416666666695,"velocity":0.4645669291338583,"duration":0.2666666666666728},{"name":"C#4","midi":61,"time":15.322916666666694,"velocity":0.4409448818897638,"duration":0.2520833333333403},{"name":"C#4","midi":61,"time":15.720833333333369,"velocity":0.4015748031496063,"duration":0.21250000000000213},{"name":"A4","midi":69,"time":15.737500000000036,"velocity":0.3464566929133858,"duration":0.205208333333335},{"name":"C#5","midi":73,"time":15.737500000000036,"velocity":0.36220472440944884,"duration":0.19687500000000213},{"name":"C#4","midi":61,"time":16.14270833333337,"velocity":0.4094488188976378,"duration":0.21562500000000284},{"name":"A4","midi":69,"time":16.144791666666706,"velocity":0.4566929133858268,"duration":0.24687500000000284},{"name":"C#5","midi":73,"time":16.167708333333373,"velocity":0.31496062992125984,"duration":0.18020833333333286},{"name":"C#4","midi":61,"time":16.543750000000042,"velocity":0.3700787401574803,"duration":0.20729166666666288},{"name":"A4","midi":69,"time":16.557291666666707,"velocity":0.3700787401574803,"duration":0.20729166666666288},{"name":"C#5","midi":73,"time":16.56250000000004,"velocity":0.29133858267716534,"duration":0.17916666666666714},{"name":"A4","midi":69,"time":16.946875000000038,"velocity":0.3700787401574803,"duration":0.18229166666666785},{"name":"C#4","midi":61,"time":16.95000000000004,"velocity":0.29133858267716534,"duration":0.203125},{"name":"C#5","midi":73,"time":16.95000000000004,"velocity":0.25196850393700787,"duration":0.21979166666666572},{"name":"C#5","midi":73,"time":17.381250000000037,"velocity":0.28346456692913385,"duration":0.2114583333333364},{"name":"A4","midi":69,"time":17.38750000000004,"velocity":0.2992125984251969,"duration":0.18229166666666785},{"name":"C#4","midi":61,"time":17.389583333333373,"velocity":0.2755905511811024,"duration":0.201041666666665},{"name":"C#4","midi":61,"time":17.792708333333373,"velocity":0.2440944881889764,"duration":0.20625000000000426},{"name":"C#5","midi":73,"time":17.80000000000004,"velocity":0.29133858267716534,"duration":0.1958333333333364},{"name":"A4","midi":69,"time":17.817708333333375,"velocity":0.23622047244094488,"duration":0.15104166666666785},{"name":"C#4","midi":61,"time":18.240625000000044,"velocity":0.18110236220472442,"duration":0.12083333333333712},{"name":"C#5","midi":73,"time":18.24270833333338,"velocity":0.2204724409448819,"duration":0.16979166666666856},{"name":"A4","midi":69,"time":18.24791666666671,"velocity":0.2677165354330709,"duration":0.08020833333333499},{"name":"D5","midi":74,"time":18.735416666666715,"velocity":0.3464566929133858,"duration":0.26458333333333073},{"name":"F#4","midi":66,"time":18.73645833333338,"velocity":0.4251968503937008,"duration":0.2739583333333293},{"name":"D4","midi":62,"time":18.75937500000005,"velocity":0.3228346456692913,"duration":0.23854166666666288},{"name":"F#4","midi":66,"time":19.151041666666707,"velocity":0.3858267716535433,"duration":0.18020833333333286},{"name":"D4","midi":62,"time":19.158333333333374,"velocity":0.3779527559055118,"duration":0.11770833333333286},{"name":"D5","midi":74,"time":19.161458333333375,"velocity":0.4094488188976378,"duration":0.1791666666666636},{"name":"E5","midi":76,"time":19.554166666666706,"velocity":0.4251968503937008,"duration":0.25104166666666217},{"name":"B4","midi":71,"time":19.555208333333372,"velocity":0.5196850393700787,"duration":0.26354166666666146},{"name":"E4","midi":64,"time":19.56250000000004,"velocity":0.4094488188976378,"duration":0.26041666666666075},{"name":"E5","midi":76,"time":19.970833333333367,"velocity":0.48031496062992124,"duration":0.19374999999999787},{"name":"B4","midi":71,"time":19.9822916666667,"velocity":0.5118110236220472,"duration":0.11562499999999787},{"name":"E4","midi":64,"time":19.986458333333367,"velocity":0.4330708661417323,"duration":0.08333333333333215},{"name":"E5","midi":76,"time":20.358333333333366,"velocity":0.3464566929133858,"duration":0.3614583333333279},{"name":"C#5","midi":73,"time":20.3729166666667,"velocity":0.49606299212598426,"duration":0.33958333333332646},{"name":"F#4","midi":66,"time":20.379166666666702,"velocity":0.5039370078740157,"duration":0.3093749999999922},{"name":"C#5","midi":73,"time":20.791666666666693,"velocity":0.15748031496062992,"duration":0.31145833333333783},{"name":"F#4","midi":66,"time":20.803125000000026,"velocity":0.2440944881889764,"duration":0.2562500000000014},{"name":"E5","midi":76,"time":20.810416666666693,"velocity":0.2125984251968504,"duration":0.26666666666666927},{"name":"C#5","midi":73,"time":21.234375000000032,"velocity":0.3779527559055118,"duration":0.252083333333335},{"name":"E5","midi":76,"time":21.253125000000033,"velocity":0.2440944881889764,"duration":0.23541666666666927},{"name":"F#4","midi":66,"time":21.264583333333366,"velocity":0.3543307086614173,"duration":0.24687500000000284},{"name":"F#4","midi":66,"time":21.64270833333337,"velocity":0.15748031496062992,"duration":0.21666666666666856},{"name":"C#5","midi":73,"time":21.660416666666706,"velocity":0.29133858267716534,"duration":0.2083333333333357},{"name":"E5","midi":76,"time":21.66250000000004,"velocity":0.15748031496062992,"duration":0.1999999999999993},{"name":"C#5","midi":73,"time":22.04062500000004,"velocity":0.3228346456692913,"duration":0.2114583333333364},{"name":"F#4","midi":66,"time":22.043750000000042,"velocity":0.2677165354330709,"duration":0.23333333333333428},{"name":"E5","midi":76,"time":22.05104166666671,"velocity":0.31496062992125984,"duration":0.18333333333333357},{"name":"F#4","midi":66,"time":22.453125000000043,"velocity":0.25984251968503935,"duration":0.23020833333333002},{"name":"C#5","midi":73,"time":22.456250000000043,"velocity":0.33070866141732286,"duration":0.20208333333333073},{"name":"E5","midi":76,"time":22.456250000000043,"velocity":0.2677165354330709,"duration":0.19270833333333215},{"name":"F#4","midi":66,"time":22.855208333333373,"velocity":0.3228346456692913,"duration":0.2260416666666707},{"name":"C#5","midi":73,"time":22.857291666666708,"velocity":0.3464566929133858,"duration":0.21979166666666927},{"name":"E5","midi":76,"time":22.872916666666708,"velocity":0.29133858267716534,"duration":0.173958333333335},{"name":"E5","midi":76,"time":23.278125000000042,"velocity":0.2440944881889764,"duration":0.18333333333333357},{"name":"F#4","midi":66,"time":23.279166666666708,"velocity":0.2047244094488189,"duration":0.21250000000000213},{"name":"C#5","midi":73,"time":23.281250000000043,"velocity":0.3464566929133858,"duration":0.19270833333333215},{"name":"E5","midi":76,"time":23.695833333333375,"velocity":0.29133858267716534,"duration":0.185416666666665},{"name":"C#5","midi":73,"time":23.69687500000004,"velocity":0.3700787401574803,"duration":0.1979166666666643},{"name":"F#4","midi":66,"time":23.717708333333373,"velocity":0.2992125984251969,"duration":0.19687499999999858},{"name":"C#5","midi":73,"time":24.09895833333337,"velocity":0.3700787401574803,"duration":0.20729166666666288},{"name":"F#4","midi":66,"time":24.112500000000036,"velocity":0.25984251968503935,"duration":0.20833333333333215},{"name":"E5","midi":76,"time":24.11770833333337,"velocity":0.2440944881889764,"duration":0.1687499999999993},{"name":"F#4","midi":66,"time":24.512500000000035,"velocity":0.28346456692913385,"duration":0.2135416666666643},{"name":"C#5","midi":73,"time":24.512500000000035,"velocity":0.36220472440944884,"duration":0.1999999999999993},{"name":"E5","midi":76,"time":24.5166666666667,"velocity":0.25984251968503935,"duration":0.1687499999999993},{"name":"C#5","midi":73,"time":24.925000000000033,"velocity":0.3228346456692913,"duration":0.11562500000000142},{"name":"F#4","midi":66,"time":24.931250000000034,"velocity":0.30708661417322836,"duration":0.1593750000000007},{"name":"E5","midi":76,"time":24.9322916666667,"velocity":0.3464566929133858,"duration":0.11041666666666927},{"name":"D5","midi":74,"time":25.3385416666667,"velocity":0.4645669291338583,"duration":0.2531249999999936},{"name":"F#4","midi":66,"time":25.355208333333366,"velocity":0.41732283464566927,"duration":0.39895833333332575},{"name":"D4","midi":62,"time":25.3666666666667,"velocity":0.33858267716535434,"duration":0.23541666666666217},{"name":"F#4","midi":66,"time":25.755208333333357,"velocity":0.2283464566929134,"duration":0.17812499999999787},{"name":"D5","midi":74,"time":25.764583333333356,"velocity":0.5118110236220472,"duration":0.1374999999999993},{"name":"D4","midi":62,"time":25.784375000000022,"velocity":0.41732283464566927,"duration":0.0625},{"name":"B4","midi":71,"time":26.155208333333352,"velocity":0.48031496062992124,"duration":0.22812500000000568},{"name":"E5","midi":76,"time":26.16562500000002,"velocity":0.4251968503937008,"duration":0.21979166666667282},{"name":"E4","midi":64,"time":26.167708333333355,"velocity":0.4251968503937008,"duration":0.20104166666666856},{"name":"E5","midi":76,"time":26.562500000000025,"velocity":0.3779527559055118,"duration":0.0625},{"name":"E4","midi":64,"time":26.56458333333336,"velocity":0.4015748031496063,"duration":0.11145833333333144},{"name":"B4","midi":71,"time":26.569791666666692,"velocity":0.4330708661417323,"duration":0.09479166666666572},{"name":"C#5","midi":73,"time":26.96770833333336,"velocity":0.5039370078740157,"duration":0.23541666666666217},{"name":"C#4","midi":61,"time":26.97083333333336,"velocity":0.47244094488188976,"duration":0.23333333333332718},{"name":"A4","midi":69,"time":26.977083333333358,"velocity":0.4330708661417323,"duration":0.2416666666666636},{"name":"A4","midi":69,"time":27.38750000000002,"velocity":0.31496062992125984,"duration":0.22083333333333144},{"name":"C#5","midi":73,"time":27.391666666666687,"velocity":0.3779527559055118,"duration":0.17395833333333144},{"name":"C#4","midi":61,"time":27.395833333333353,"velocity":0.33858267716535434,"duration":0.138541666666665},{"name":"C#4","midi":61,"time":27.78958333333335,"velocity":0.28346456692913385,"duration":0.19895833333333357},{"name":"C#5","midi":73,"time":27.807291666666686,"velocity":0.2440944881889764,"duration":0.1875},{"name":"A4","midi":69,"time":27.82395833333335,"velocity":0.2755905511811024,"duration":0.20937500000000142},{"name":"C#5","midi":73,"time":28.22812500000002,"velocity":0.29133858267716534,"duration":0.1927083333333357},{"name":"A4","midi":69,"time":28.23125000000002,"velocity":0.36220472440944884,"duration":0.2104166666666707},{"name":"C#4","midi":61,"time":28.24166666666669,"velocity":0.2992125984251969,"duration":0.18125000000000213},{"name":"C#5","midi":73,"time":28.621875000000024,"velocity":0.2440944881889764,"duration":0.21354166666666785},{"name":"A4","midi":69,"time":28.630208333333357,"velocity":0.28346456692913385,"duration":0.21250000000000213},{"name":"C#4","midi":61,"time":28.632291666666692,"velocity":0.3464566929133858,"duration":0.21666666666666856},{"name":"C#4","midi":61,"time":29.02395833333336,"velocity":0.25984251968503935,"duration":0.20729166666666643},{"name":"A4","midi":69,"time":29.035416666666695,"velocity":0.31496062992125984,"duration":0.169791666666665},{"name":"C#5","midi":73,"time":29.05208333333336,"velocity":0.23622047244094488,"duration":0.1875},{"name":"C#5","midi":73,"time":29.466666666666693,"velocity":0.2440944881889764,"duration":0.17812499999999787},{"name":"C#4","midi":61,"time":29.471875000000026,"velocity":0.2755905511811024,"duration":0.20520833333333144},{"name":"A4","midi":69,"time":29.47291666666669,"velocity":0.30708661417322836,"duration":0.19687499999999858},{"name":"C#4","midi":61,"time":29.88854166666669,"velocity":0.2677165354330709,"duration":0.1770833333333357},{"name":"C#5","midi":73,"time":29.91041666666669,"velocity":0.29133858267716534,"duration":0.05625000000000213},{"name":"A4","midi":69,"time":29.916666666666693,"velocity":0.2755905511811024,"duration":0.05000000000000071},{"name":"F#3","midi":54,"time":30.47083333333336,"velocity":0.44881889763779526,"duration":0.3052083333333222},{"name":"D3","midi":50,"time":30.475000000000026,"velocity":0.31496062992125984,"duration":0.25208333333332433},{"name":"D4","midi":62,"time":30.48854166666669,"velocity":0.28346456692913385,"duration":0.2593749999999915},{"name":"F#3","midi":54,"time":30.89791666666668,"velocity":0.4409448818897638,"duration":0.1750000000000007},{"name":"D4","midi":62,"time":30.91041666666668,"velocity":0.44881889763779526,"duration":0.18854166666666927},{"name":"D3","midi":50,"time":30.928125000000016,"velocity":0.3779527559055118,"duration":0.12395833333333428},{"name":"E4","midi":64,"time":31.303125000000016,"velocity":0.4330708661417323,"duration":0.2104166666666636},{"name":"B3","midi":59,"time":31.309375000000014,"velocity":0.4881889763779528,"duration":0.21770833333333073},{"name":"E3","midi":52,"time":31.31145833333335,"velocity":0.4566929133858268,"duration":0.22187499999999716},{"name":"E4","midi":64,"time":31.69791666666668,"velocity":0.48031496062992124,"duration":0.18437499999999574},{"name":"B3","midi":59,"time":31.702083333333345,"velocity":0.48031496062992124,"duration":0.11249999999999716},{"name":"E3","midi":52,"time":31.72187500000001,"velocity":0.3858267716535433,"duration":0.06354166666666572},{"name":"F#3","midi":54,"time":32.09270833333334,"velocity":0.48031496062992124,"duration":0.25937499999998437},{"name":"E4","midi":64,"time":32.10208333333334,"velocity":0.5039370078740157,"duration":0.27916666666665435},{"name":"C#4","midi":61,"time":32.10416666666667,"velocity":0.5039370078740157,"duration":0.28854166666665293},{"name":"C#4","midi":61,"time":32.49791666666666,"velocity":0.25984251968503935,"duration":0.265625},{"name":"E4","midi":64,"time":32.52083333333333,"velocity":0.29133858267716534,"duration":0.171875},{"name":"F#3","midi":54,"time":32.555208333333326,"velocity":0.36220472440944884,"duration":0.21458333333333712},{"name":"C#4","midi":61,"time":32.940625,"velocity":0.36220472440944884,"duration":0.2343749999999929},{"name":"E4","midi":64,"time":32.96666666666666,"velocity":0.2755905511811024,"duration":0.1885416666666586},{"name":"F#3","midi":54,"time":32.96874999999999,"velocity":0.31496062992125984,"duration":0.13229166666666003},{"name":"E4","midi":64,"time":33.33749999999999,"velocity":0.33858267716535434,"duration":0.20729166666666288},{"name":"C#4","midi":61,"time":33.33958333333332,"velocity":0.36220472440944884,"duration":0.22500000000000142},{"name":"F#3","midi":54,"time":33.37187499999999,"velocity":0.23622047244094488,"duration":0.1979166666666714},{"name":"C#4","midi":61,"time":33.78854166666666,"velocity":0.31496062992125984,"duration":0.17291666666666572},{"name":"E4","midi":64,"time":33.79166666666666,"velocity":0.2755905511811024,"duration":0.17916666666666714},{"name":"F#3","midi":54,"time":33.798958333333324,"velocity":0.23622047244094488,"duration":0.17604166666666998},{"name":"E4","midi":64,"time":34.18749999999999,"velocity":0.1889763779527559,"duration":0.23749999999999716},{"name":"C#4","midi":61,"time":34.189583333333324,"velocity":0.30708661417322836,"duration":0.22812499999999858},{"name":"F#3","midi":54,"time":34.205208333333324,"velocity":0.2992125984251969,"duration":0.23645833333333144},{"name":"E4","midi":64,"time":34.56874999999999,"velocity":0.14960629921259844,"duration":0.2239583333333357},{"name":"C#4","midi":61,"time":34.578124999999986,"velocity":0.2125984251968504,"duration":0.18541666666666856},{"name":"F#3","midi":54,"time":34.60624999999999,"velocity":0.1732283464566929,"duration":0.18958333333333144},{"name":"E4","midi":64,"time":34.99479166666665,"velocity":0.2125984251968504,"duration":0.20520833333333144},{"name":"F#3","midi":54,"time":35.027083333333316,"velocity":0.1889763779527559,"duration":0.17916666666666714},{"name":"C#4","midi":61,"time":35.031249999999986,"velocity":0.28346456692913385,"duration":0.14166666666666572},{"name":"E4","midi":64,"time":35.40312499999998,"velocity":0.2440944881889764,"duration":0.22291666666666288},{"name":"C#4","midi":61,"time":35.42083333333331,"velocity":0.2992125984251969,"duration":0.19479166666666714},{"name":"F#3","midi":54,"time":35.43541666666665,"velocity":0.2677165354330709,"duration":0.14374999999999716},{"name":"E4","midi":64,"time":35.82708333333331,"velocity":0.30708661417322836,"duration":0.18958333333333854},{"name":"C#4","midi":61,"time":35.84999999999998,"velocity":0.33070866141732286,"duration":0.18333333333333712},{"name":"F#3","midi":54,"time":35.86979166666665,"velocity":0.2440944881889764,"duration":0.1666666666666643},{"name":"E4","midi":64,"time":36.24479166666665,"velocity":0.2677165354330709,"duration":0.1666666666666714},{"name":"C#4","midi":61,"time":36.26041666666665,"velocity":0.28346456692913385,"duration":0.11354166666666998},{"name":"F#3","midi":54,"time":36.28854166666665,"velocity":0.2440944881889764,"duration":0.08020833333333144},{"name":"E4","midi":64,"time":36.68124999999999,"velocity":0.2755905511811024,"duration":0.10625000000000284},{"name":"F#3","midi":54,"time":36.71979166666666,"velocity":0.25196850393700787,"duration":0.125},{"name":"C#4","midi":61,"time":36.722916666666656,"velocity":0.2755905511811024,"duration":0.05104166666666998},{"name":"D4","midi":62,"time":37.09895833333333,"velocity":0.49606299212598426,"duration":0.24791666666664725},{"name":"F#3","midi":54,"time":37.103125,"velocity":0.49606299212598426,"duration":0.3302083333333101},{"name":"D3","midi":50,"time":37.13541666666666,"velocity":0.31496062992125984,"duration":0.2395833333333215},{"name":"F#3","midi":54,"time":37.51666666666664,"velocity":0.2283464566929134,"duration":0.22604166666666714},{"name":"D4","midi":62,"time":37.526041666666636,"velocity":0.5196850393700787,"duration":0.17083333333333428},{"name":"D3","midi":50,"time":37.54479166666663,"velocity":0.3937007874015748,"duration":0.10833333333333428},{"name":"E4","midi":64,"time":37.93854166666664,"velocity":0.5039370078740157,"duration":0.2239583333333215},{"name":"B3","midi":59,"time":37.9427083333333,"velocity":0.4566929133858268,"duration":0.20624999999999005},{"name":"E3","midi":52,"time":37.96249999999996,"velocity":0.5275590551181102,"duration":0.20416666666666572},{"name":"B3","midi":59,"time":38.339583333333294,"velocity":0.4251968503937008,"duration":0.07708333333332718},{"name":"E4","midi":64,"time":38.34270833333329,"velocity":0.4094488188976378,"duration":0.0572916666666643},{"name":"E3","midi":52,"time":38.36041666666662,"velocity":0.3937007874015748,"duration":0.0677083333333286},{"name":"A3","midi":57,"time":38.72604166666662,"velocity":0.5039370078740157,"duration":0.25833333333331154},{"name":"C#4","midi":61,"time":38.72812499999995,"velocity":0.5748031496062992,"duration":0.23749999999998295},{"name":"C#3","midi":49,"time":38.75208333333328,"velocity":0.44881889763779526,"duration":0.20624999999998295},{"name":"A3","midi":57,"time":39.14479166666659,"velocity":0.25196850393700787,"duration":0.2593749999999986},{"name":"C#3","midi":49,"time":39.157291666666595,"velocity":0.3543307086614173,"duration":0.22812499999999858},{"name":"C#4","midi":61,"time":39.15833333333326,"velocity":0.3228346456692913,"duration":0.20104166666666856},{"name":"A3","midi":57,"time":39.58437499999992,"velocity":0.3779527559055118,"duration":0.20624999999999716},{"name":"C#3","midi":49,"time":39.58541666666659,"velocity":0.36220472440944884,"duration":0.20937500000000142},{"name":"C#4","midi":61,"time":39.58749999999992,"velocity":0.30708661417322836,"duration":0.15312500000000284},{"name":"A3","midi":57,"time":39.98958333333326,"velocity":0.33070866141732286,"duration":0.22291666666666288},{"name":"C#3","midi":49,"time":39.998958333333256,"velocity":0.33858267716535434,"duration":0.21249999999999858},{"name":"C#4","midi":61,"time":40.00729166666659,"velocity":0.2440944881889764,"duration":0.18333333333333002},{"name":"C#3","midi":49,"time":40.405208333333256,"velocity":0.3700787401574803,"duration":0.20104166666666856},{"name":"A3","midi":57,"time":40.409374999999926,"velocity":0.3464566929133858,"duration":0.20416666666666572},{"name":"C#4","midi":61,"time":40.41666666666659,"velocity":0.2755905511811024,"duration":0.16354166666666714},{"name":"A3","midi":57,"time":40.81874999999992,"velocity":0.29133858267716534,"duration":0.22187500000000426},{"name":"C#3","midi":49,"time":40.82291666666659,"velocity":0.3779527559055118,"duration":0.20520833333333144},{"name":"C#4","midi":61,"time":40.851041666666596,"velocity":0.2440944881889764,"duration":0.1666666666666643},{"name":"A3","midi":57,"time":41.23958333333326,"velocity":0.2677165354330709,"duration":0.20937500000000142},{"name":"C#4","midi":61,"time":41.26041666666659,"velocity":0.2204724409448819,"duration":0.12812499999999716},{"name":"C#3","midi":49,"time":41.268749999999926,"velocity":0.23622047244094488,"duration":0.1927083333333357},{"name":"A3","midi":57,"time":41.68124999999993,"velocity":0.2204724409448819,"duration":0.04583333333333428},{"name":"C#3","midi":49,"time":41.6854166666666,"velocity":0.2204724409448819,"duration":0.04895833333333144},{"name":"C#4","midi":61,"time":41.704166666666595,"velocity":0.2677165354330709,"duration":0.0520833333333357},{"name":"D4","midi":62,"time":42.10833333333326,"velocity":0.3228346456692913,"duration":0.30624999999997726},{"name":"B3","midi":59,"time":42.11979166666659,"velocity":0.4094488188976378,"duration":0.2833333333333172},{"name":"D3","midi":50,"time":42.132291666666596,"velocity":0.3464566929133858,"duration":0.24374999999998437},{"name":"F#3","midi":54,"time":42.13333333333326,"velocity":0.49606299212598426,"duration":0.2677083333333172},{"name":"F#3","midi":54,"time":42.553124999999895,"velocity":0.4251968503937008,"duration":0.18854166666667282},{"name":"D4","midi":62,"time":42.55416666666656,"velocity":0.48031496062992124,"duration":0.18854166666667282},{"name":"D3","midi":50,"time":42.55729166666656,"velocity":0.3543307086614173,"duration":0.11250000000000426},{"name":"B3","midi":59,"time":42.56145833333323,"velocity":0.4330708661417323,"duration":0.14375000000000426},{"name":"E4","midi":64,"time":42.96458333333323,"velocity":0.48031496062992124,"duration":0.23229166666665435},{"name":"C#4","midi":61,"time":42.96979166666656,"velocity":0.5196850393700787,"duration":0.2354166666666586},{"name":"F#3","midi":54,"time":42.977083333333226,"velocity":0.4409448818897638,"duration":0.25312499999999005},{"name":"E3","midi":52,"time":42.9937499999999,"velocity":0.36220472440944884,"duration":0.2031249999999858},{"name":"C#4","midi":61,"time":43.36249999999988,"velocity":0.5590551181102362,"duration":0.15937499999999005},{"name":"E4","midi":64,"time":43.364583333333215,"velocity":0.4881889763779528,"duration":0.12083333333333002},{"name":"F#3","midi":54,"time":43.37187499999988,"velocity":0.4409448818897638,"duration":0.2187499999999929},{"name":"E3","midi":52,"time":43.37812499999988,"velocity":0.3543307086614173,"duration":0.11666666666666003},{"name":"C#4","midi":61,"time":43.74166666666654,"velocity":0.48031496062992124,"duration":0.31145833333332007},{"name":"F#3","midi":54,"time":43.75104166666654,"velocity":0.49606299212598426,"duration":0.31041666666665435},{"name":"F#3","midi":54,"time":44.19062499999986,"velocity":0.29133858267716534,"duration":0.19374999999999432},{"name":"C#4","midi":61,"time":44.21666666666653,"velocity":0.4015748031496063,"duration":0.19479166666666003},{"name":"F#3","midi":54,"time":44.61458333333319,"velocity":0.33858267716535434,"duration":0.21770833333333428},{"name":"C#4","midi":61,"time":44.61666666666652,"velocity":0.3228346456692913,"duration":0.16041666666666998},{"name":"F#3","midi":54,"time":45.01770833333319,"velocity":0.25984251968503935,"duration":0.18854166666666572},{"name":"C#4","midi":61,"time":45.02604166666652,"velocity":0.33858267716535434,"duration":0.125},{"name":"B3","midi":59,"time":45.43541666666652,"velocity":0.3700787401574803,"duration":0.296875},{"name":"F#3","midi":54,"time":45.44166666666652,"velocity":0.3464566929133858,"duration":0.2979166666666657},{"name":"D4","midi":62,"time":45.45104166666653,"velocity":0.23622047244094488,"duration":0.24374999999999147},{"name":"A#3","midi":58,"time":45.46562499999986,"velocity":0.08661417322834646,"duration":0.1927083333333286},{"name":"D3","midi":50,"time":45.485416666666524,"velocity":0.28346456692913385,"duration":0.23020833333333002},{"name":"D4","midi":62,"time":45.840624999999854,"velocity":0.4330708661417323,"duration":0.21666666666665435},{"name":"B3","midi":59,"time":45.86354166666652,"velocity":0.41732283464566927,"duration":0.1572916666666586},{"name":"F#3","midi":54,"time":45.86666666666652,"velocity":0.4094488188976378,"duration":0.1885416666666586},{"name":"D3","midi":50,"time":45.869791666666515,"velocity":0.3700787401574803,"duration":0.14166666666666572},{"name":"C#4","midi":61,"time":46.247916666666505,"velocity":0.5905511811023622,"duration":0.2708333333333286},{"name":"E4","midi":64,"time":46.24999999999984,"velocity":0.4645669291338583,"duration":0.26145833333333},{"name":"F#3","midi":54,"time":46.2604166666665,"velocity":0.4330708661417323,"duration":0.27812500000000284},{"name":"E3","midi":52,"time":46.2854166666665,"velocity":0.3937007874015748,"duration":0.23750000000000426},{"name":"C#4","midi":61,"time":46.6604166666665,"velocity":0.5196850393700787,"duration":0.2239583333333286},{"name":"E4","midi":64,"time":46.6635416666665,"velocity":0.4645669291338583,"duration":0.12395833333333428},{"name":"F#3","midi":54,"time":46.66458333333316,"velocity":0.29133858267716534,"duration":0.19583333333333286},{"name":"E3","midi":52,"time":46.67812499999983,"velocity":0.4330708661417323,"duration":0.13645833333333002},{"name":"C#4","midi":61,"time":47.059374999999825,"velocity":0.5354330708661418,"duration":0.33020833333332433},{"name":"F#3","midi":54,"time":47.06145833333316,"velocity":0.44881889763779526,"duration":0.41979166666666146},{"name":"A3","midi":57,"time":47.06354166666649,"velocity":0.4566929133858268,"duration":0.33541666666666003},{"name":"F#3","midi":54,"time":47.48124999999982,"velocity":0.11811023622047244,"duration":0.28854166666666714},{"name":"C#4","midi":61,"time":47.51145833333315,"velocity":0.23622047244094488,"duration":0.24687500000000284},{"name":"A3","midi":57,"time":47.51666666666649,"velocity":0.2992125984251969,"duration":0.2854166666666629},{"name":"C#4","midi":61,"time":47.90208333333315,"velocity":0.3228346456692913,"duration":0.32083333333332575},{"name":"F#3","midi":54,"time":47.91249999999982,"velocity":0.4330708661417323,"duration":0.32395833333333},{"name":"A3","midi":57,"time":47.92291666666648,"velocity":0.2992125984251969,"duration":0.31562499999999716},{"name":"A3","midi":57,"time":48.34583333333315,"velocity":0.30708661417322836,"duration":0.3072916666666572},{"name":"F#3","midi":54,"time":48.34791666666648,"velocity":0.2125984251968504,"duration":0.2802083333333272},{"name":"C#4","midi":61,"time":48.34999999999981,"velocity":0.3464566929133858,"duration":0.26874999999999716},{"name":"F#3","midi":54,"time":48.76770833333314,"velocity":0.15748031496062992,"duration":0.30416666666666714},{"name":"C#4","midi":61,"time":48.772916666666475,"velocity":0.2992125984251969,"duration":0.29270833333333},{"name":"A3","midi":57,"time":48.78333333333314,"velocity":0.31496062992125984,"duration":0.2708333333333357},{"name":"F#3","midi":54,"time":49.18124999999981,"velocity":0.15748031496062992,"duration":0.2979166666666657},{"name":"C#4","midi":61,"time":49.188541666666474,"velocity":0.23622047244094488,"duration":0.2718750000000014},{"name":"A3","midi":57,"time":49.208333333333144,"velocity":0.2125984251968504,"duration":0.25},{"name":"C#4","midi":61,"time":49.616666666666475,"velocity":0.33070866141732286,"duration":0.21145833333333997},{"name":"F#3","midi":54,"time":49.620833333333145,"velocity":0.15748031496062992,"duration":0.2500000000000071},{"name":"A3","midi":57,"time":49.64270833333315,"velocity":0.2677165354330709,"duration":0.20520833333333854},{"name":"A3","midi":57,"time":50.029166666666484,"velocity":0.3464566929133858,"duration":0.08020833333333854},{"name":"C#4","midi":61,"time":50.05312499999982,"velocity":0.28346456692913385,"duration":0.0625000000000071},{"name":"F#3","midi":54,"time":50.06770833333315,"velocity":0.2047244094488189,"duration":0.0364583333333357},{"name":"B3","midi":59,"time":50.41145833333316,"velocity":0.36220472440944884,"duration":0.43437499999999574},{"name":"D4","midi":62,"time":50.41770833333316,"velocity":0.4015748031496063,"duration":0.23645833333333144},{"name":"F#3","midi":54,"time":50.44062499999983,"velocity":0.4409448818897638,"duration":0.2854166666666629},{"name":"D3","midi":50,"time":50.447916666666494,"velocity":0.2992125984251969,"duration":0.2562499999999943},{"name":"B3","midi":59,"time":50.845833333333154,"velocity":0.2125984251968504,"duration":0.2614583333333371},{"name":"F#3","midi":54,"time":50.85520833333315,"velocity":0.28346456692913385,"duration":0.2562500000000085},{"name":"D4","midi":62,"time":50.85937499999982,"velocity":0.3779527559055118,"duration":0.23750000000000426},{"name":"D3","midi":50,"time":50.88020833333316,"velocity":0.31496062992125984,"duration":0.22500000000000142},{"name":"D4","midi":62,"time":51.25624999999983,"velocity":0.4330708661417323,"duration":0.26250000000000284},{"name":"B3","midi":59,"time":51.26249999999983,"velocity":0.4094488188976378,"duration":0.2614583333333371},{"name":"D3","midi":50,"time":51.26562499999983,"velocity":0.41732283464566927,"duration":0.25833333333333997},{"name":"F#3","midi":54,"time":51.2697916666665,"velocity":0.48031496062992124,"duration":0.2614583333333371},{"name":"D4","midi":62,"time":51.685416666666505,"velocity":0.4015748031496063,"duration":0.16354166666666003},{"name":"F#3","midi":54,"time":51.68749999999984,"velocity":0.48031496062992124,"duration":0.17812499999999432},{"name":"B3","midi":59,"time":51.69895833333317,"velocity":0.4409448818897638,"duration":0.12916666666666288},{"name":"D3","midi":50,"time":51.7166666666665,"velocity":0.36220472440944884,"duration":0.078125},{"name":"C#4","midi":61,"time":52.08020833333316,"velocity":0.5354330708661418,"duration":0.2770833333333229},{"name":"E4","midi":64,"time":52.08749999999982,"velocity":0.4645669291338583,"duration":0.2562499999999943},{"name":"F#3","midi":54,"time":52.10312499999982,"velocity":0.4251968503937008,"duration":0.28854166666666003},{"name":"E3","midi":52,"time":52.11979166666649,"velocity":0.33070866141732286,"duration":0.2447916666666643},{"name":"E4","midi":64,"time":52.484374999999815,"velocity":0.4094488188976378,"duration":0.31041666666666856},{"name":"C#4","midi":61,"time":52.49270833333315,"velocity":0.47244094488188976,"duration":0.2906249999999986},{"name":"E3","midi":52,"time":52.50312499999981,"velocity":0.3779527559055118,"duration":0.28437500000000426},{"name":"F#3","midi":54,"time":52.50833333333315,"velocity":0.25196850393700787,"duration":0.27291666666666714},{"name":"C#4","midi":61,"time":52.90104166666649,"velocity":0.3543307086614173,"duration":0.2802083333333272},{"name":"E4","midi":64,"time":52.904166666666484,"velocity":0.3228346456692913,"duration":0.26354166666666146},{"name":"F#3","midi":54,"time":52.915624999999814,"velocity":0.25984251968503935,"duration":0.3062500000000057},{"name":"E3","midi":52,"time":52.917708333333145,"velocity":0.3464566929133858,"duration":0.26875000000000426},{"name":"C#4","midi":61,"time":53.326041666666484,"velocity":0.4251968503937008,"duration":0.20416666666666572},{"name":"F#3","midi":54,"time":53.328124999999815,"velocity":0.2204724409448819,"duration":0.18854166666666572},{"name":"E4","midi":64,"time":53.32916666666648,"velocity":0.3779527559055118,"duration":0.13333333333333286},{"name":"E3","midi":52,"time":53.353124999999814,"velocity":0.3228346456692913,"duration":0.10520833333333002},{"name":"F#3","midi":54,"time":53.70624999999982,"velocity":0.44881889763779526,"duration":0.3614583333333172},{"name":"A3","midi":57,"time":53.71249999999982,"velocity":0.4566929133858268,"duration":0.4395833333333101},{"name":"D4","midi":62,"time":53.71458333333315,"velocity":0.4881889763779528,"duration":0.3249999999999815},{"name":"A3","midi":57,"time":54.15208333333313,"velocity":0.11811023622047244,"duration":0.2802083333333272},{"name":"D4","midi":62,"time":54.16354166666646,"velocity":0.18110236220472442,"duration":0.234375},{"name":"F#3","midi":54,"time":54.16562499999979,"velocity":0.25984251968503935,"duration":0.2552083333333357},{"name":"D4","midi":62,"time":54.58749999999979,"velocity":0.2755905511811024,"duration":0.22708333333333286},{"name":"A3","midi":57,"time":54.59895833333312,"velocity":0.3779527559055118,"duration":0.22291666666666998},{"name":"F#3","midi":54,"time":54.60624999999979,"velocity":0.3464566929133858,"duration":0.21145833333333286},{"name":"A3","midi":57,"time":55.00416666666646,"velocity":0.3779527559055118,"duration":0.2239583333333357},{"name":"F#3","midi":54,"time":55.027083333333124,"velocity":0.25196850393700787,"duration":0.21041666666666714},{"name":"D4","midi":62,"time":55.02812499999979,"velocity":0.2677165354330709,"duration":0.20208333333333428},{"name":"D4","midi":62,"time":55.42083333333312,"velocity":0.2440944881889764,"duration":0.19687499999999858},{"name":"A3","midi":57,"time":55.433333333333124,"velocity":0.2992125984251969,"duration":0.20937500000000142},{"name":"F#3","midi":54,"time":55.435416666666455,"velocity":0.3228346456692913,"duration":0.1875},{"name":"A3","midi":57,"time":55.84062499999979,"velocity":0.25984251968503935,"duration":0.23125000000000284},{"name":"F#3","midi":54,"time":55.855208333333124,"velocity":0.2204724409448819,"duration":0.2239583333333357},{"name":"D4","midi":62,"time":55.86979166666646,"velocity":0.2440944881889764,"duration":0.1770833333333357},{"name":"D4","midi":62,"time":56.27083333333313,"velocity":0.2755905511811024,"duration":0.18020833333333286},{"name":"A3","midi":57,"time":56.27916666666646,"velocity":0.31496062992125984,"duration":0.1458333333333357},{"name":"F#3","midi":54,"time":56.291666666666465,"velocity":0.2047244094488189,"duration":0.21770833333332718},{"name":"F#3","midi":54,"time":56.705208333333125,"velocity":0.1968503937007874,"duration":0.16562499999999858},{"name":"A3","midi":57,"time":56.72187499999979,"velocity":0.2047244094488189,"duration":0.06666666666666998},{"name":"D4","midi":62,"time":56.72604166666646,"velocity":0.2125984251968504,"duration":0.08645833333333286},{"name":"G#3","midi":56,"time":57.132291666666454,"velocity":0.28346456692913385,"duration":0.28333333333333144},{"name":"D4","midi":62,"time":57.136458333333124,"velocity":0.1889763779527559,"duration":0.29270833333333},{"name":"E3","midi":52,"time":57.167708333333124,"velocity":0.1732283464566929,"duration":0.2822916666666657},{"name":"D4","midi":62,"time":57.57916666666645,"velocity":0.2047244094488189,"duration":0.18333333333333712},{"name":"G#3","midi":56,"time":57.59895833333312,"velocity":0.12598425196850394,"duration":0.12708333333333144},{"name":"D4","midi":62,"time":58.00624999999979,"velocity":0.25984251968503935,"duration":0.16979166666666146},{"name":"G#3","midi":56,"time":58.00833333333312,"velocity":0.33858267716535434,"duration":0.14374999999999716},{"name":"E3","midi":52,"time":58.01770833333312,"velocity":0.2047244094488189,"duration":0.16458333333333286},{"name":"D4","midi":62,"time":58.41666666666645,"velocity":0.2204724409448819,"duration":0.1614583333333357},{"name":"G#3","midi":56,"time":58.42395833333312,"velocity":0.2755905511811024,"duration":0.14687500000000142},{"name":"E3","midi":52,"time":58.43854166666645,"velocity":0.1889763779527559,"duration":0.17916666666666714},{"name":"D4","midi":62,"time":58.826041666666455,"velocity":0.2047244094488189,"duration":0.1916666666666771},{"name":"G#3","midi":56,"time":58.83333333333312,"velocity":0.2992125984251969,"duration":0.14375000000000426},{"name":"E3","midi":52,"time":58.861458333333125,"velocity":0.2047244094488189,"duration":0.1197916666666714},{"name":"G#3","midi":56,"time":59.23645833333313,"velocity":0.2755905511811024,"duration":0.19687499999999858},{"name":"D4","midi":62,"time":59.2437499999998,"velocity":0.1968503937007874,"duration":0.17604166666666288},{"name":"E3","midi":52,"time":59.2781249999998,"velocity":0.16535433070866143,"duration":0.13437499999999858},{"name":"G#3","midi":56,"time":59.63229166666646,"velocity":0.33070866141732286,"duration":0.19166666666666998},{"name":"D4","midi":62,"time":59.63333333333313,"velocity":0.30708661417322836,"duration":0.18437500000000284},{"name":"E3","midi":52,"time":59.67083333333313,"velocity":0.2204724409448819,"duration":0.12395833333333428},{"name":"G#3","midi":56,"time":60.035416666666464,"velocity":0.33858267716535434,"duration":0.11666666666666003},{"name":"D4","midi":62,"time":60.04583333333313,"velocity":0.2992125984251969,"duration":0.044791666666661456},{"name":"E3","midi":52,"time":60.07291666666646,"velocity":0.2125984251968504,"duration":0.06875000000000142},{"name":"F#3","midi":54,"time":60.45937499999979,"velocity":0.36220472440944884,"duration":0.31562499999998295},{"name":"F#2","midi":42,"time":60.46979166666645,"velocity":0.3779527559055118,"duration":0.2989583333333172},{"name":"C#3","midi":49,"time":60.48854166666645,"velocity":0.3700787401574803,"duration":0.2968749999999858},{"name":"F#2","midi":42,"time":60.88749999999977,"velocity":0.33070866141732286,"duration":0.27916666666666146},{"name":"F#3","midi":54,"time":60.8895833333331,"velocity":0.25196850393700787,"duration":0.28958333333332575},{"name":"C#3","midi":49,"time":60.8989583333331,"velocity":0.3543307086614173,"duration":0.27916666666666146},{"name":"F#3","midi":54,"time":61.27812499999976,"velocity":0.1968503937007874,"duration":0.33541666666666003},{"name":"F#2","midi":42,"time":61.28437499999976,"velocity":0.3543307086614173,"duration":0.2874999999999943},{"name":"C#3","midi":49,"time":61.30312499999976,"velocity":0.4251968503937008,"duration":0.2864583333333286},{"name":"F#3","midi":54,"time":61.715624999999754,"velocity":0.4330708661417323,"duration":0.2749999999999986},{"name":"C#3","midi":49,"time":61.72083333333309,"velocity":0.44881889763779526,"duration":0.28958333333333286},{"name":"F#2","midi":42,"time":61.73020833333309,"velocity":0.4094488188976378,"duration":0.27291666666666714},{"name":"F#2","midi":42,"time":62.12916666666642,"velocity":0.2677165354330709,"duration":0.23229166666666856},{"name":"C#3","midi":49,"time":62.13437499999976,"velocity":0.30708661417322836,"duration":0.234375},{"name":"F#3","midi":54,"time":62.13437499999976,"velocity":0.33070866141732286,"duration":0.21770833333333428},{"name":"F#3","midi":54,"time":62.53958333333309,"velocity":0.4409448818897638,"duration":0.24375000000000568},{"name":"C#3","midi":49,"time":62.54374999999976,"velocity":0.48031496062992124,"duration":0.20000000000000284},{"name":"F#2","midi":42,"time":62.55104166666643,"velocity":0.33070866141732286,"duration":0.234375},{"name":"F#3","midi":54,"time":62.94062499999976,"velocity":0.4330708661417323,"duration":0.2822916666666586},{"name":"C#3","midi":49,"time":62.942708333333094,"velocity":0.4330708661417323,"duration":0.30937499999999574},{"name":"F#2","midi":42,"time":62.95937499999976,"velocity":0.3937007874015748,"duration":0.26145833333333},{"name":"C#3","midi":49,"time":63.378124999999756,"velocity":0.25196850393700787,"duration":0.12083333333333002},{"name":"F#3","midi":54,"time":63.382291666666426,"velocity":0.4094488188976378,"duration":0.09791666666666288},{"name":"F#2","midi":42,"time":63.40104166666642,"velocity":0.4094488188976378,"duration":0.12812499999999716},{"name":"B2","midi":47,"time":63.75416666666642,"velocity":0.4645669291338583,"duration":0.3124999999999858},{"name":"E2","midi":40,"time":63.77708333333309,"velocity":0.4251968503937008,"duration":0.2874999999999872},{"name":"E3","midi":52,"time":63.784374999999756,"velocity":0.3779527559055118,"duration":0.3187499999999801},{"name":"E3","midi":52,"time":64.19166666666639,"velocity":0.1968503937007874,"duration":0.17916666666666003},{"name":"E2","midi":40,"time":64.20312499999973,"velocity":0.30708661417322836,"duration":0.16041666666666288},{"name":"B2","midi":47,"time":64.2135416666664,"velocity":0.28346456692913385,"duration":0.18645833333332007},{"name":"E2","midi":40,"time":64.57083333333306,"velocity":0.3779527559055118,"duration":0.2083333333333286},{"name":"E3","midi":52,"time":64.57708333333305,"velocity":0.3858267716535433,"duration":0.21041666666667425},{"name":"B2","midi":47,"time":64.58124999999971,"velocity":0.3937007874015748,"duration":0.19583333333333997},{"name":"E3","midi":52,"time":64.97187499999973,"velocity":0.31496062992125984,"duration":0.23541666666666572},{"name":"B2","midi":47,"time":64.98124999999973,"velocity":0.3700787401574803,"duration":0.21979166666666572},{"name":"E2","midi":40,"time":64.98333333333306,"velocity":0.33858267716535434,"duration":0.24791666666666856},{"name":"E2","midi":40,"time":65.3729166666664,"velocity":0.2755905511811024,"duration":0.21562499999998863},{"name":"E3","midi":52,"time":65.37708333333306,"velocity":0.29133858267716534,"duration":0.16458333333332575},{"name":"B2","midi":47,"time":65.37916666666639,"velocity":0.1968503937007874,"duration":0.20208333333333428},{"name":"E3","midi":52,"time":65.76562499999972,"velocity":0.2677165354330709,"duration":0.16979166666666856},{"name":"B2","midi":47,"time":65.77187499999971,"velocity":0.3464566929133858,"duration":0.14375000000001137},{"name":"E2","midi":40,"time":65.78020833333305,"velocity":0.2992125984251969,"duration":0.18125000000000568},{"name":"E3","midi":52,"time":66.1416666666664,"velocity":0.2755905511811024,"duration":0.22187499999999716},{"name":"E2","midi":40,"time":66.14687499999972,"velocity":0.33858267716535434,"duration":0.23541666666667993},{"name":"B2","midi":47,"time":66.15624999999973,"velocity":0.29133858267716534,"duration":0.21770833333333428},{"name":"E2","midi":40,"time":66.56354166666641,"velocity":0.29133858267716534,"duration":0.06874999999999432},{"name":"B2","midi":47,"time":66.57083333333307,"velocity":0.3779527559055118,"duration":0.06458333333333144},{"name":"E3","midi":52,"time":66.5729166666664,"velocity":0.31496062992125984,"duration":0.09583333333333144},{"name":"D4","midi":62,"time":67.01354166666637,"velocity":0.3779527559055118,"duration":0.26770833333333144},{"name":"A3","midi":57,"time":67.0218749999997,"velocity":0.4015748031496063,"duration":0.2708333333333428},{"name":"D3","midi":50,"time":67.02916666666636,"velocity":0.3700787401574803,"duration":0.2395833333333428},{"name":"D4","midi":62,"time":67.41249999999971,"velocity":0.3543307086614173,"duration":0.1729166666666515},{"name":"A3","midi":57,"time":67.4187499999997,"velocity":0.3464566929133858,"duration":0.11249999999999716},{"name":"D3","midi":50,"time":67.4406249999997,"velocity":0.3228346456692913,"duration":0.09270833333333428},{"name":"E4","midi":64,"time":67.80729166666636,"velocity":0.49606299212598426,"duration":0.29479166666664014},{"name":"B3","midi":59,"time":67.81666666666636,"velocity":0.49606299212598426,"duration":0.2927083333332945},{"name":"E3","midi":52,"time":67.8312499999997,"velocity":0.4094488188976378,"duration":0.25312499999996874},{"name":"B3","midi":59,"time":68.21562499999966,"velocity":0.3779527559055118,"duration":0.11458333333334281},{"name":"E4","midi":64,"time":68.22604166666633,"velocity":0.4330708661417323,"duration":0.14270833333333144},{"name":"E3","midi":52,"time":68.252083333333,"velocity":0.4330708661417323,"duration":0.07500000000000284},{"name":"F#4","midi":66,"time":68.633333333333,"velocity":0.6220472440944882,"duration":0.29583333333329165},{"name":"D4","midi":62,"time":68.63854166666633,"velocity":0.4251968503937008,"duration":0.37812499999996874},{"name":"F#3","midi":54,"time":68.64479166666632,"velocity":0.5511811023622047,"duration":0.298958333333303},{"name":"D4","midi":62,"time":69.0166666666663,"velocity":0.15748031496062992,"duration":0.7177083333333201},{"name":"F#3","midi":54,"time":69.04895833333296,"velocity":0.2440944881889764,"duration":0.24687500000000284},{"name":"F#4","midi":66,"time":69.0510416666663,"velocity":0.4094488188976378,"duration":0.265625},{"name":"F#4","midi":66,"time":69.46249999999962,"velocity":0.1889763779527559,"duration":0.2645833333333343},{"name":"F#3","midi":54,"time":69.51145833333295,"velocity":0.25984251968503935,"duration":0.18333333333333712},{"name":"F#4","midi":66,"time":69.88645833333295,"velocity":0.2204724409448819,"duration":0.24270833333332575},{"name":"D4","midi":62,"time":69.90416666666628,"velocity":0.1889763779527559,"duration":0.22187499999999716},{"name":"F#3","midi":54,"time":69.94166666666628,"velocity":0.14173228346456693,"duration":0.2083333333333286},{"name":"F#4","midi":66,"time":70.30624999999961,"velocity":0.1968503937007874,"duration":0.24791666666666856},{"name":"D4","midi":62,"time":70.31562499999961,"velocity":0.2204724409448819,"duration":0.25729166666666003},{"name":"F#3","midi":54,"time":70.35208333333294,"velocity":0.23622047244094488,"duration":0.20208333333333428},{"name":"D4","midi":62,"time":70.71666666666627,"velocity":0.2283464566929134,"duration":0.20624999999999716},{"name":"F#4","midi":66,"time":70.73333333333294,"velocity":0.25984251968503935,"duration":0.1927083333333286},{"name":"F#3","midi":54,"time":70.7468749999996,"velocity":0.25196850393700787,"duration":0.18541666666665435},{"name":"D4","midi":62,"time":71.13854166666626,"velocity":0.33070866141732286,"duration":0.22395833333331439},{"name":"F#3","midi":54,"time":71.14479166666625,"velocity":0.28346456692913385,"duration":0.21145833333332575},{"name":"F#4","midi":66,"time":71.14895833333291,"velocity":0.1968503937007874,"duration":0.2083333333333286},{"name":"D4","midi":62,"time":71.54062499999957,"velocity":0.23622047244094488,"duration":0.05833333333333712},{"name":"F#4","midi":66,"time":71.55624999999957,"velocity":0.1889763779527559,"duration":0.09062500000000284},{"name":"F#3","midi":54,"time":71.5645833333329,"velocity":0.2677165354330709,"duration":0.11249999999999716},{"name":"D4","midi":62,"time":71.9864583333329,"velocity":0.4094488188976378,"duration":0.2822916666666373},{"name":"A3","midi":57,"time":71.98854166666624,"velocity":0.44881889763779526,"duration":0.2927083333333087},{"name":"D3","midi":50,"time":71.99062499999957,"velocity":0.4409448818897638,"duration":0.27395833333331154},{"name":"A3","midi":57,"time":72.39687499999954,"velocity":0.2283464566929134,"duration":0.16770833333333712},{"name":"D3","midi":50,"time":72.40729166666621,"velocity":0.29133858267716534,"duration":0.16875000000000284},{"name":"D4","midi":62,"time":72.42499999999954,"velocity":0.2755905511811024,"duration":0.15312500000000284},{"name":"B3","midi":59,"time":72.80937499999955,"velocity":0.49606299212598426,"duration":0.5291666666666686},{"name":"E4","midi":64,"time":72.81874999999955,"velocity":0.5039370078740157,"duration":0.2979166666666657},{"name":"E3","midi":52,"time":72.82083333333289,"velocity":0.4409448818897638,"duration":0.27916666666666856},{"name":"E4","midi":64,"time":73.22291666666622,"velocity":0.2283464566929134,"duration":0.04999999999999716},{"name":"A3","midi":57,"time":73.61145833333288,"velocity":0.4330708661417323,"duration":0.3541666666666572},{"name":"C#4","midi":61,"time":73.62291666666621,"velocity":0.48031496062992124,"duration":0.32499999999998863},{"name":"C#3","midi":49,"time":73.65104166666622,"velocity":0.4645669291338583,"duration":0.2822916666666515},{"name":"A3","midi":57,"time":74.07812499999953,"velocity":0.12598425196850394,"duration":0.2395833333333286},{"name":"C#4","midi":61,"time":74.08958333333287,"velocity":0.2677165354330709,"duration":0.20729166666666288},{"name":"C#3","midi":49,"time":74.1197916666662,"velocity":0.30708661417322836,"duration":0.19062499999999716},{"name":"C#3","midi":49,"time":74.50208333333286,"velocity":0.3228346456692913,"duration":0.24375000000000568},{"name":"A3","midi":57,"time":74.50624999999953,"velocity":0.29133858267716534,"duration":0.24687500000000284},{"name":"C#4","midi":61,"time":74.50833333333286,"velocity":0.3700787401574803,"duration":0.21250000000000568},{"name":"A3","midi":57,"time":74.93645833333287,"velocity":0.31496062992125984,"duration":0.22499999999999432},{"name":"C#3","midi":49,"time":74.94270833333286,"velocity":0.2755905511811024,"duration":0.20416666666666572},{"name":"C#4","midi":61,"time":74.94374999999953,"velocity":0.2992125984251969,"duration":0.19374999999999432},{"name":"A3","midi":57,"time":75.3291666666662,"velocity":0.31496062992125984,"duration":0.23541666666667993},{"name":"C#4","midi":61,"time":75.3416666666662,"velocity":0.2992125984251969,"duration":0.18020833333333997},{"name":"C#3","midi":49,"time":75.35208333333287,"velocity":0.28346456692913385,"duration":0.19479166666667425},{"name":"C#3","midi":49,"time":75.75520833333287,"velocity":0.33858267716535434,"duration":0.2031249999999858},{"name":"A3","midi":57,"time":75.75937499999954,"velocity":0.30708661417322836,"duration":0.2093749999999801},{"name":"C#4","midi":61,"time":75.76458333333287,"velocity":0.2755905511811024,"duration":0.1979166666666572},{"name":"C#3","midi":49,"time":76.16562499999952,"velocity":0.33858267716535434,"duration":0.23125000000001705},{"name":"C#4","midi":61,"time":76.17395833333286,"velocity":0.28346456692913385,"duration":0.19479166666667425},{"name":"A3","midi":57,"time":76.1760416666662,"velocity":0.29133858267716534,"duration":0.1822916666666714},{"name":"C#3","midi":49,"time":76.59270833333288,"velocity":0.25984251968503935,"duration":0.19479166666667425},{"name":"C#4","midi":61,"time":76.60729166666621,"velocity":0.2755905511811024,"duration":0.16979166666666856},{"name":"A3","midi":57,"time":76.62499999999955,"velocity":0.2283464566929134,"duration":0.07916666666666572},{"name":"D4","midi":62,"time":76.99687499999955,"velocity":0.44881889763779526,"duration":0.28958333333331154},{"name":"A3","midi":57,"time":76.99895833333288,"velocity":0.4330708661417323,"duration":0.30104166666664867},{"name":"D3","midi":50,"time":77.00729166666622,"velocity":0.44881889763779526,"duration":0.267708333333303},{"name":"A3","midi":57,"time":77.41249999999953,"velocity":0.2283464566929134,"duration":0.11562499999999432},{"name":"D4","midi":62,"time":77.44479166666619,"velocity":0.29133858267716534,"duration":0.18541666666666856},{"name":"D3","midi":50,"time":77.44583333333286,"velocity":0.33858267716535434,"duration":0.11145833333333144},{"name":"B3","midi":59,"time":77.8104166666662,"velocity":0.5669291338582677,"duration":0.2989583333332746},{"name":"E4","midi":64,"time":77.8135416666662,"velocity":0.5826771653543307,"duration":0.28124999999994316},{"name":"E3","midi":52,"time":77.82395833333285,"velocity":0.48031496062992124,"duration":0.27083333333328596},{"name":"B3","midi":59,"time":78.21041666666613,"velocity":0.31496062992125984,"duration":0.11562499999999432},{"name":"E4","midi":64,"time":78.21562499999946,"velocity":0.4015748031496063,"duration":0.14166666666666572},{"name":"E3","midi":52,"time":78.22499999999947,"velocity":0.3464566929133858,"duration":0.11145833333333144},{"name":"D4","midi":62,"time":78.61041666666613,"velocity":0.5275590551181102,"duration":0.7281249999999915},{"name":"F#4","midi":66,"time":78.61458333333279,"velocity":0.6220472440944882,"duration":0.31354166666667993},{"name":"F#3","midi":54,"time":78.6239583333328,"velocity":0.6062992125984252,"duration":0.29375000000000284},{"name":"F#4","midi":66,"time":79.04479166666613,"velocity":0.3700787401574803,"duration":0.2520833333333172},{"name":"F#3","midi":54,"time":79.09791666666612,"velocity":0.2755905511811024,"duration":0.13229166666666003},{"name":"D4","midi":62,"time":79.45208333333278,"velocity":0.23622047244094488,"duration":0.2291666666666714},{"name":"F#4","midi":66,"time":79.45833333333277,"velocity":0.2992125984251969,"duration":0.21666666666668277},{"name":"F#3","midi":54,"time":79.46770833333278,"velocity":0.31496062992125984,"duration":0.19687500000000568},{"name":"D4","midi":62,"time":79.83437499999945,"velocity":0.2992125984251969,"duration":0.25},{"name":"F#4","midi":66,"time":79.83749999999945,"velocity":0.3700787401574803,"duration":0.24791666666666856},{"name":"F#3","midi":54,"time":79.84479166666611,"velocity":0.4881889763779528,"duration":0.22812500000000568},{"name":"F#4","midi":66,"time":80.23958333333279,"velocity":0.3700787401574803,"duration":0.2500000000000142},{"name":"F#3","midi":54,"time":80.24270833333279,"velocity":0.3937007874015748,"duration":0.2385416666666771},{"name":"D4","midi":62,"time":80.25312499999946,"velocity":0.3937007874015748,"duration":0.24166666666667425},{"name":"F#3","midi":54,"time":80.66354166666613,"velocity":0.31496062992125984,"duration":0.21875},{"name":"F#4","midi":66,"time":80.67291666666614,"velocity":0.30708661417322836,"duration":0.21145833333332575},{"name":"D4","midi":62,"time":80.67499999999947,"velocity":0.4015748031496063,"duration":0.17604166666666288},{"name":"F#4","midi":66,"time":81.06249999999946,"velocity":0.2204724409448819,"duration":0.22708333333332575},{"name":"D4","midi":62,"time":81.06562499999946,"velocity":0.3543307086614173,"duration":0.2302083333333229},{"name":"F#3","midi":54,"time":81.08020833333279,"velocity":0.29133858267716534,"duration":0.203125},{"name":"D4","midi":62,"time":81.47395833333277,"velocity":0.33858267716535434,"duration":0.21666666666665435},{"name":"F#4","midi":66,"time":81.48020833333277,"velocity":0.2440944881889764,"duration":0.23020833333333712},{"name":"F#3","midi":54,"time":81.48645833333276,"velocity":0.29133858267716534,"duration":0.21562500000000284},{"name":"D4","midi":62,"time":81.89166666666611,"velocity":0.31496062992125984,"duration":0.23333333333333428},{"name":"F#3","midi":54,"time":81.89999999999945,"velocity":0.2440944881889764,"duration":0.21458333333333712},{"name":"F#4","midi":66,"time":81.90208333333278,"velocity":0.1732283464566929,"duration":0.21979166666666572},{"name":"D4","midi":62,"time":82.30312499999944,"velocity":0.33858267716535434,"duration":0.19895833333333712},{"name":"F#4","midi":66,"time":82.31354166666611,"velocity":0.2125984251968504,"duration":0.1822916666666714},{"name":"F#3","midi":54,"time":82.32291666666612,"velocity":0.1732283464566929,"duration":0.1822916666666572},{"name":"D4","midi":62,"time":82.69895833333277,"velocity":0.3464566929133858,"duration":0.23229166666666856},{"name":"F#4","midi":66,"time":82.70833333333277,"velocity":0.2677165354330709,"duration":0.1927083333333286},{"name":"F#3","midi":54,"time":82.71145833333277,"velocity":0.30708661417322836,"duration":0.26250000000000284},{"name":"F#3","midi":54,"time":83.07604166666611,"velocity":0.14173228346456693,"duration":0.16770833333333712},{"name":"D4","midi":62,"time":83.08958333333278,"velocity":0.2992125984251969,"duration":0.06979166666666003},{"name":"F#4","midi":66,"time":83.10520833333278,"velocity":0.28346456692913385,"duration":0.11041666666666572},{"name":"A3","midi":57,"time":83.51979166666612,"velocity":0.5118110236220472,"duration":0.309374999999946},{"name":"D4","midi":62,"time":83.51979166666612,"velocity":0.44881889763779526,"duration":0.2874999999999517},{"name":"D3","midi":50,"time":83.53645833333279,"velocity":0.4251968503937008,"duration":0.2729166666666174},{"name":"A3","midi":57,"time":83.97395833333273,"velocity":0.25196850393700787,"duration":0.20624999999999716},{"name":"D3","midi":50,"time":83.98124999999939,"velocity":0.3464566929133858,"duration":0.17499999999999716},{"name":"D4","midi":62,"time":83.98333333333272,"velocity":0.4015748031496063,"duration":0.16041666666666288},{"name":"E4","midi":64,"time":84.37395833333272,"velocity":0.48031496062992124,"duration":0.29166666666661456},{"name":"B3","midi":59,"time":84.37812499999939,"velocity":0.4409448818897638,"duration":0.29687499999994316},{"name":"E3","midi":52,"time":84.38958333333272,"velocity":0.4094488188976378,"duration":0.278124999999946},{"name":"B3","midi":59,"time":84.78437499999933,"velocity":0.23622047244094488,"duration":0.12291666666666856},{"name":"E3","midi":52,"time":84.79270833333267,"velocity":0.23622047244094488,"duration":0.11145833333333144},{"name":"E4","midi":64,"time":84.80104166666601,"velocity":0.3779527559055118,"duration":0.13333333333332575},{"name":"E4","midi":64,"time":85.17708333333267,"velocity":0.3779527559055118,"duration":0.2979166666666373},{"name":"C#4","midi":61,"time":85.18645833333268,"velocity":0.48031496062992124,"duration":0.283333333333303},{"name":"F#3","midi":54,"time":85.22812499999932,"velocity":0.3779527559055118,"duration":0.2510416666666515},{"name":"C#4","midi":61,"time":85.63229166666598,"velocity":0.33070866141732286,"duration":0.20520833333331723},{"name":"E4","midi":64,"time":85.63541666666598,"velocity":0.30708661417322836,"duration":0.21562499999998863},{"name":"F#3","midi":54,"time":85.64270833333264,"velocity":0.28346456692913385,"duration":0.2447916666666572},{"name":"F#3","midi":54,"time":86.04270833333263,"velocity":0.3228346456692913,"duration":0.2552083333333286},{"name":"E4","midi":64,"time":86.05729166666596,"velocity":0.29133858267716534,"duration":0.22187499999999716},{"name":"C#4","midi":61,"time":86.0687499999993,"velocity":0.36220472440944884,"duration":0.20937499999999432},{"name":"F#3","midi":54,"time":86.45833333333262,"velocity":0.28346456692913385,"duration":0.24375000000000568},{"name":"E4","midi":64,"time":86.46666666666596,"velocity":0.25984251968503935,"duration":0.16979166666666856},{"name":"C#4","midi":61,"time":86.47083333333262,"velocity":0.29133858267716534,"duration":0.20208333333333428},{"name":"C#4","midi":61,"time":86.88020833333262,"velocity":0.33070866141732286,"duration":0.22083333333333144},{"name":"F#3","midi":54,"time":86.88229166666595,"velocity":0.2677165354330709,"duration":0.2395833333333286},{"name":"E4","midi":64,"time":86.88749999999928,"velocity":0.2677165354330709,"duration":0.1875},{"name":"C#4","midi":61,"time":87.28749999999928,"velocity":0.4015748031496063,"duration":0.12604166666666572},{"name":"E4","midi":64,"time":87.30312499999928,"velocity":0.4015748031496063,"duration":0.09375},{"name":"F#3","midi":54,"time":87.30416666666595,"velocity":0.3858267716535433,"duration":0.15000000000000568},{"name":"D4","midi":62,"time":87.70208333333262,"velocity":0.4409448818897638,"duration":0.28437499999996874},{"name":"F#3","midi":54,"time":87.70312499999929,"velocity":0.4409448818897638,"duration":0.4187499999999602},{"name":"D3","midi":50,"time":87.71874999999929,"velocity":0.36220472440944884,"duration":0.2874999999999659},{"name":"F#3","midi":54,"time":88.12291666666592,"velocity":0.2125984251968504,"duration":0.18020833333332575},{"name":"D3","midi":50,"time":88.14791666666592,"velocity":0.31496062992125984,"duration":0.10312499999999147},{"name":"D4","midi":62,"time":88.15208333333258,"velocity":0.3779527559055118,"duration":0.15937499999999716},{"name":"B3","midi":59,"time":88.5447916666659,"velocity":0.4409448818897638,"duration":0.3062499999999915},{"name":"E4","midi":64,"time":88.5510416666659,"velocity":0.49606299212598426,"duration":0.2874999999999943},{"name":"E3","midi":52,"time":88.56145833333255,"velocity":0.49606299212598426,"duration":0.296875},{"name":"B3","midi":59,"time":88.95104166666589,"velocity":0.25196850393700787,"duration":0.1354166666666714},{"name":"E3","midi":52,"time":88.95937499999923,"velocity":0.2677165354330709,"duration":0.125},{"name":"E4","midi":64,"time":88.96666666666589,"velocity":0.3543307086614173,"duration":0.22083333333333144},{"name":"E4","midi":64,"time":89.33541666666588,"velocity":0.25196850393700787,"duration":0.3447916666666515},{"name":"C#4","midi":61,"time":89.34374999999922,"velocity":0.4251968503937008,"duration":0.6729166666666515},{"name":"F#3","midi":54,"time":89.34583333333255,"velocity":0.4015748031496063,"duration":0.2979166666666515},{"name":"E4","midi":64,"time":89.77083333333253,"velocity":0.1732283464566929,"duration":0.2552083333333428},{"name":"F#3","midi":54,"time":89.82083333333253,"velocity":0.16535433070866143,"duration":0.20937500000000853},{"name":"E4","midi":64,"time":90.18854166666587,"velocity":0.30708661417322836,"duration":0.2291666666666714},{"name":"C#4","midi":61,"time":90.19895833333254,"velocity":0.33858267716535434,"duration":0.24166666666666003},{"name":"F#3","midi":54,"time":90.23020833333254,"velocity":0.3228346456692913,"duration":0.22291666666666288},{"name":"C#4","midi":61,"time":90.6281249999992,"velocity":0.30708661417322836,"duration":0.21875},{"name":"E4","midi":64,"time":90.63333333333253,"velocity":0.25984251968503935,"duration":0.1875},{"name":"F#3","midi":54,"time":90.63541666666586,"velocity":0.2992125984251969,"duration":0.23541666666667993},{"name":"F#3","midi":54,"time":91.04791666666587,"velocity":0.1968503937007874,"duration":0.22291666666664867},{"name":"E4","midi":64,"time":91.05520833333253,"velocity":0.2677165354330709,"duration":0.16354166666666003},{"name":"C#4","midi":61,"time":91.06145833333252,"velocity":0.31496062992125984,"duration":0.1302083333333286},{"name":"F#3","midi":54,"time":91.46562499999918,"velocity":0.2992125984251969,"duration":0.14270833333333144},{"name":"C#4","midi":61,"time":91.48854166666584,"velocity":0.36220472440944884,"duration":0.04999999999999716},{"name":"E4","midi":64,"time":91.50624999999917,"velocity":0.1889763779527559,"duration":0.040625000000005684},{"name":"A3","midi":57,"time":91.85208333333252,"velocity":0.4566929133858268,"duration":0.2822916666666373},{"name":"D4","midi":62,"time":91.85208333333252,"velocity":0.4409448818897638,"duration":0.2656249999999716},{"name":"D3","midi":50,"time":91.86979166666585,"velocity":0.4251968503937008,"duration":0.2458333333333087},{"name":"D4","midi":62,"time":92.25520833333249,"velocity":0.44881889763779526,"duration":0.2291666666666714},{"name":"A3","midi":57,"time":92.25729166666582,"velocity":0.31496062992125984,"duration":0.21041666666667425},{"name":"D3","midi":50,"time":92.2677083333325,"velocity":0.4645669291338583,"duration":0.18020833333333997},{"name":"E4","midi":64,"time":92.6645833333325,"velocity":0.4566929133858268,"duration":0.30729166666660035},{"name":"B3","midi":59,"time":92.6708333333325,"velocity":0.4645669291338583,"duration":0.2999999999999403},{"name":"E3","midi":52,"time":92.68229166666583,"velocity":0.3937007874015748,"duration":0.25937499999994884},{"name":"B3","midi":59,"time":93.06041666666577,"velocity":0.2677165354330709,"duration":0.16249999999999432},{"name":"E4","midi":64,"time":93.06979166666578,"velocity":0.33858267716535434,"duration":0.10624999999998863},{"name":"E3","midi":52,"time":93.07708333333244,"velocity":0.3937007874015748,"duration":0.0989583333333286},{"name":"A3","midi":57,"time":93.47395833333243,"velocity":0.4330708661417323,"duration":0.42187499999995737},{"name":"C#4","midi":61,"time":93.4749999999991,"velocity":0.49606299212598426,"duration":0.2885416666666316},{"name":"F#3","midi":54,"time":93.4812499999991,"velocity":0.4881889763779528,"duration":0.2822916666666373},{"name":"A3","midi":57,"time":93.89583333333239,"velocity":0.11811023622047244,"duration":0.2770833333333371},{"name":"F#3","midi":54,"time":93.91145833333239,"velocity":0.3464566929133858,"duration":0.25208333333333144},{"name":"C#4","midi":61,"time":93.92291666666573,"velocity":0.3464566929133858,"duration":0.22083333333333144},{"name":"A3","midi":57,"time":94.34999999999907,"velocity":0.36220472440944884,"duration":0.21145833333332575},{"name":"C#4","midi":61,"time":94.35624999999906,"velocity":0.3858267716535433,"duration":0.16041666666666288},{"name":"F#3","midi":54,"time":94.36041666666573,"velocity":0.28346456692913385,"duration":0.20416666666666572},{"name":"A3","midi":57,"time":94.74062499999906,"velocity":0.31496062992125984,"duration":0.26874999999999716},{"name":"C#4","midi":61,"time":94.74374999999905,"velocity":0.33070866141732286,"duration":0.24583333333333712},{"name":"F#3","midi":54,"time":94.75729166666572,"velocity":0.3228346456692913,"duration":0.2666666666666657},{"name":"A3","midi":57,"time":95.17812499999906,"velocity":0.2992125984251969,"duration":0.22604166666666003},{"name":"F#3","midi":54,"time":95.18541666666572,"velocity":0.15748031496062992,"duration":0.23333333333333428},{"name":"C#4","midi":61,"time":95.18749999999905,"velocity":0.3228346456692913,"duration":0.20416666666666572},{"name":"A3","midi":57,"time":95.58333333333239,"velocity":0.4015748031496063,"duration":0.09687500000001137},{"name":"C#4","midi":61,"time":95.60937499999906,"velocity":0.33070866141732286,"duration":0.09791666666667709},{"name":"F#3","midi":54,"time":95.63437499999907,"velocity":0.11811023622047244,"duration":0.03020833333333428},{"name":"B3","midi":59,"time":95.9958333333324,"velocity":0.44881889763779526,"duration":0.3197916666666316},{"name":"D4","midi":62,"time":96.00416666666574,"velocity":0.4251968503937008,"duration":0.26458333333329165},{"name":"F#3","midi":54,"time":96.0270833333324,"velocity":0.4015748031496063,"duration":0.27604166666662877},{"name":"D3","midi":50,"time":96.03229166666573,"velocity":0.23622047244094488,"duration":0.27499999999996305},{"name":"F#3","midi":54,"time":96.42812499999903,"velocity":0.2283464566929134,"duration":0.2812499999999858},{"name":"D4","midi":62,"time":96.43229166666569,"velocity":0.28346456692913385,"duration":0.2395833333333286},{"name":"B3","midi":59,"time":96.43437499999902,"velocity":0.18110236220472442,"duration":0.24062499999999432},{"name":"D3","midi":50,"time":96.4916666666657,"velocity":0.2440944881889764,"duration":0.14791666666666003},{"name":"B3","midi":59,"time":96.83229166666568,"velocity":0.36220472440944884,"duration":0.2927083333333229},{"name":"D4","midi":62,"time":96.83958333333234,"velocity":0.2992125984251969,"duration":0.2749999999999915},{"name":"F#3","midi":54,"time":96.84166666666567,"velocity":0.3700787401574803,"duration":0.3166666666666629},{"name":"D3","midi":50,"time":96.88020833333233,"velocity":0.2440944881889764,"duration":0.2447916666666714},{"name":"D4","midi":62,"time":97.243749999999,"velocity":0.4251968503937008,"duration":0.19375000000002274},{"name":"F#3","midi":54,"time":97.24479166666566,"velocity":0.30708661417322836,"duration":0.21562500000001705},{"name":"B3","midi":59,"time":97.25729166666567,"velocity":0.4330708661417323,"duration":0.16979166666668277},{"name":"D3","midi":50,"time":97.26666666666567,"velocity":0.3543307086614173,"duration":0.13645833333333712},{"name":"E4","midi":64,"time":97.64583333333235,"velocity":0.4251968503937008,"duration":0.30624999999994884},{"name":"F#3","midi":54,"time":97.65208333333234,"velocity":0.3464566929133858,"duration":0.2739583333332831},{"name":"C#4","midi":61,"time":97.659374999999,"velocity":0.4330708661417323,"duration":0.2687499999999545},{"name":"E3","midi":52,"time":97.66458333333233,"velocity":0.3543307086614173,"duration":0.2458333333332945},{"name":"E4","midi":64,"time":98.02916666666563,"velocity":0.25196850393700787,"duration":0.28125},{"name":"C#4","midi":61,"time":98.0333333333323,"velocity":0.31496062992125984,"duration":0.2666666666666657},{"name":"F#3","midi":54,"time":98.05729166666562,"velocity":0.2677165354330709,"duration":0.2812500000000142},{"name":"E3","midi":52,"time":98.09687499999896,"velocity":0.2440944881889764,"duration":0.21145833333333997},{"name":"C#4","midi":61,"time":98.46041666666564,"velocity":0.5511811023622047,"duration":0.2395833333333428},{"name":"F#3","midi":54,"time":98.47916666666563,"velocity":0.4645669291338583,"duration":0.2385416666666771},{"name":"E4","midi":64,"time":98.4895833333323,"velocity":0.3700787401574803,"duration":0.21770833333333428},{"name":"E3","midi":52,"time":98.51666666666564,"velocity":0.2677165354330709,"duration":0.18645833333333428},{"name":"E4","midi":64,"time":98.88229166666565,"velocity":0.4094488188976378,"duration":0.12083333333332291},{"name":"C#4","midi":61,"time":98.88541666666565,"velocity":0.4409448818897638,"duration":0.13124999999999432},{"name":"F#3","midi":54,"time":98.89270833333231,"velocity":0.4409448818897638,"duration":0.20729166666666288},{"name":"E3","midi":52,"time":98.90937499999897,"velocity":0.2992125984251969,"duration":0.15729166666666572},{"name":"D4","midi":62,"time":99.29374999999897,"velocity":0.44881889763779526,"duration":0.30520833333329733},{"name":"F#3","midi":54,"time":99.29479166666563,"velocity":0.41732283464566927,"duration":0.32708333333329165},{"name":"D3","midi":50,"time":99.31770833333229,"velocity":0.36220472440944884,"duration":0.2864583333333002},{"name":"F#3","midi":54,"time":99.71874999999892,"velocity":0.2125984251968504,"duration":0.2927083333333371},{"name":"D4","midi":62,"time":99.73541666666559,"velocity":0.2283464566929134,"duration":0.2854166666666771},{"name":"D3","midi":50,"time":99.76562499999892,"velocity":0.2204724409448819,"duration":0.23749999999999716},{"name":"D4","midi":62,"time":100.15312499999892,"velocity":0.28346456692913385,"duration":0.21145833333333997},{"name":"F#3","midi":54,"time":100.16562499999893,"velocity":0.31496062992125984,"duration":0.22604166666667425},{"name":"D3","midi":50,"time":100.19895833333226,"velocity":0.2283464566929134,"duration":0.16770833333333712},{"name":"D4","midi":62,"time":100.57187499999894,"velocity":0.2677165354330709,"duration":0.18020833333333997},{"name":"F#3","midi":54,"time":100.57395833333227,"velocity":0.31496062992125984,"duration":0.23125000000001705},{"name":"D3","midi":50,"time":100.61354166666561,"velocity":0.1889763779527559,"duration":0.15208333333333712},{"name":"F#3","midi":54,"time":100.95729166666563,"velocity":0.16535433070866143,"duration":0.21979166666667993},{"name":"D4","midi":62,"time":100.98229166666563,"velocity":0.2440944881889764,"duration":0.171875},{"name":"D3","midi":50,"time":101.00520833333229,"velocity":0.1889763779527559,"duration":0.15833333333334565},{"name":"F#3","midi":54,"time":101.36874999999897,"velocity":0.31496062992125984,"duration":0.22083333333333144},{"name":"D4","midi":62,"time":101.37708333333231,"velocity":0.2204724409448819,"duration":0.17916666666666003},{"name":"D3","midi":50,"time":101.42604166666564,"velocity":0.14173228346456693,"duration":0.14999999999999147},{"name":"D4","midi":62,"time":101.8114583333323,"velocity":0.2047244094488189,"duration":0.1510416666666572},{"name":"F#3","midi":54,"time":101.81770833333229,"velocity":0.23622047244094488,"duration":0.17812499999999432},{"name":"D3","midi":50,"time":101.8458333333323,"velocity":0.14173228346456693,"duration":0.1562499999999858},{"name":"F#3","midi":54,"time":102.24479166666562,"velocity":0.25196850393700787,"duration":0.17916666666667425},{"name":"D4","midi":62,"time":102.25104166666561,"velocity":0.1889763779527559,"duration":0.038541666666674246},{"name":"D3","midi":50,"time":102.25937499999895,"velocity":0.14960629921259844,"duration":0.06145833333333428},{"name":"E3","midi":52,"time":102.75416666666563,"velocity":0.14173228346456693,"duration":0.3354166666666316},{"name":"G#3","midi":56,"time":102.75624999999896,"velocity":0.29133858267716534,"duration":0.2822916666666373},{"name":"G#2","midi":44,"time":102.81979166666562,"velocity":0.2204724409448819,"duration":0.2552083333333002},{"name":"E3","midi":52,"time":103.2072916666656,"velocity":0.15748031496062992,"duration":0.23124999999998863},{"name":"G#3","midi":56,"time":103.23020833333226,"velocity":0.33858267716535434,"duration":0.19687499999999147},{"name":"G#2","midi":44,"time":103.24895833333225,"velocity":0.2992125984251969,"duration":0.18854166666666572},{"name":"E3","midi":52,"time":103.61874999999893,"velocity":0.3464566929133858,"duration":0.17291666666666572},{"name":"G#3","midi":56,"time":103.63541666666559,"velocity":0.2992125984251969,"duration":0.1927083333333286},{"name":"G#2","midi":44,"time":103.63958333333225,"velocity":0.2440944881889764,"duration":0.2083333333333286},{"name":"E3","midi":52,"time":104.00729166666558,"velocity":0.3543307086614173,"duration":0.18541666666666856},{"name":"G#3","midi":56,"time":104.02499999999891,"velocity":0.2992125984251969,"duration":0.18437500000000284},{"name":"G#2","midi":44,"time":104.02812499999891,"velocity":0.31496062992125984,"duration":0.21666666666666856},{"name":"E3","midi":52,"time":104.41666666666558,"velocity":0.3543307086614173,"duration":0.15416666666665435},{"name":"G#3","midi":56,"time":104.41874999999891,"velocity":0.3464566929133858,"duration":0.18958333333331723},{"name":"G#2","midi":44,"time":104.42291666666557,"velocity":0.3464566929133858,"duration":0.20104166666665435},{"name":"G#2","midi":44,"time":104.80416666666557,"velocity":0.33858267716535434,"duration":0.24687499999998863},{"name":"G#3","midi":56,"time":104.80833333333223,"velocity":0.3464566929133858,"duration":0.19687499999999147},{"name":"E3","midi":52,"time":104.81041666666556,"velocity":0.3464566929133858,"duration":0.1875},{"name":"G#2","midi":44,"time":105.21874999999889,"velocity":0.2992125984251969,"duration":0.22708333333332575},{"name":"E3","midi":52,"time":105.22604166666555,"velocity":0.29133858267716534,"duration":0.2239583333333286},{"name":"G#3","midi":56,"time":105.22708333333222,"velocity":0.3228346456692913,"duration":0.21666666666666856},{"name":"G#2","midi":44,"time":105.63437499999888,"velocity":0.3700787401574803,"duration":0.16458333333333997},{"name":"G#3","midi":56,"time":105.63541666666555,"velocity":0.41732283464566927,"duration":0.11666666666667425},{"name":"E3","midi":52,"time":105.63749999999888,"velocity":0.4094488188976378,"duration":0.1041666666666714},{"name":"F#3","midi":54,"time":106.03645833333222,"velocity":0.4015748031496063,"duration":0.2874999999999801},{"name":"C#3","midi":49,"time":106.05312499999889,"velocity":0.5196850393700787,"duration":0.28541666666664867},{"name":"F#2","midi":42,"time":106.05624999999888,"velocity":0.3700787401574803,"duration":0.2833333333333172},{"name":"F#2","midi":42,"time":106.49062499999887,"velocity":0.33070866141732286,"duration":0.2541666666666629},{"name":"F#3","midi":54,"time":106.49374999999887,"velocity":0.4251968503937008,"duration":0.22291666666666288},{"name":"C#3","midi":49,"time":106.4958333333322,"velocity":0.4409448818897638,"duration":0.23229166666666856},{"name":"F#3","midi":54,"time":106.90624999999886,"velocity":0.4330708661417323,"duration":0.22708333333333997},{"name":"C#3","midi":49,"time":106.91041666666553,"velocity":0.5196850393700787,"duration":0.21250000000000568},{"name":"F#2","midi":42,"time":106.92291666666553,"velocity":0.3937007874015748,"duration":0.24270833333333997},{"name":"C#3","midi":49,"time":107.3177083333322,"velocity":0.4409448818897638,"duration":0.18541666666666856},{"name":"F#3","midi":54,"time":107.33124999999887,"velocity":0.3779527559055118,"duration":0.15520833333333428},{"name":"F#2","midi":42,"time":107.34687499999887,"velocity":0.3543307086614173,"duration":0.1458333333333286},{"name":"C#3","midi":49,"time":107.73333333333221,"velocity":0.3464566929133858,"duration":0.2072916666666771},{"name":"F#3","midi":54,"time":107.73333333333221,"velocity":0.3464566929133858,"duration":0.1770833333333428},{"name":"F#2","midi":42,"time":107.74999999999888,"velocity":0.28346456692913385,"duration":0.1197916666666714},{"name":"C#3","midi":49,"time":108.13437499999888,"velocity":0.3700787401574803,"duration":0.12499999999998579},{"name":"F#3","midi":54,"time":108.15312499999888,"velocity":0.28346456692913385,"duration":0.16145833333331439},{"name":"F#2","midi":42,"time":108.18958333333221,"velocity":0.2283464566929134,"duration":0.08749999999999147},{"name":"C#3","midi":49,"time":108.53437499999886,"velocity":0.33070866141732286,"duration":0.18541666666666856},{"name":"F#3","midi":54,"time":108.54791666666553,"velocity":0.28346456692913385,"duration":0.1666666666666714},{"name":"F#2","midi":42,"time":108.54999999999886,"velocity":0.2992125984251969,"duration":0.12291666666666856},{"name":"C#3","midi":49,"time":108.94270833333219,"velocity":0.30708661417322836,"duration":0.07604166666666856},{"name":"F#3","midi":54,"time":108.94479166666552,"velocity":0.3228346456692913,"duration":0.078125},{"name":"F#2","midi":42,"time":108.97812499999885,"velocity":0.3228346456692913,"duration":0.08645833333333997},{"name":"E3","midi":52,"time":109.36979166666553,"velocity":0.3779527559055118,"duration":0.26041666666662877},{"name":"B2","midi":47,"time":109.3708333333322,"velocity":0.3700787401574803,"duration":0.26562499999995737},{"name":"E2","midi":40,"time":109.37604166666553,"velocity":0.3858267716535433,"duration":0.23958333333330017},{"name":"B2","midi":47,"time":109.79479166666549,"velocity":0.2204724409448819,"duration":0.14895833333333997},{"name":"E2","midi":40,"time":109.80729166666549,"velocity":0.25984251968503935,"duration":0.1302083333333428},{"name":"E3","midi":52,"time":109.8197916666655,"velocity":0.1732283464566929,"duration":0.16249999999999432},{"name":"E3","midi":52,"time":110.16145833333215,"velocity":0.41732283464566927,"duration":0.24062499999999432},{"name":"B2","midi":47,"time":110.16979166666549,"velocity":0.4251968503937008,"duration":0.23749999999998295},{"name":"E2","midi":40,"time":110.17604166666548,"velocity":0.3779527559055118,"duration":0.22499999999999432},{"name":"E2","midi":40,"time":110.57916666666547,"velocity":0.4251968503937008,"duration":0.23124999999998863},{"name":"B2","midi":47,"time":110.5812499999988,"velocity":0.4094488188976378,"duration":0.21666666666665435},{"name":"E3","midi":52,"time":110.58333333333213,"velocity":0.4330708661417323,"duration":0.2083333333333286},{"name":"E3","midi":52,"time":110.99895833333213,"velocity":0.36220472440944884,"duration":0.2458333333333229},{"name":"E2","midi":40,"time":111.00416666666545,"velocity":0.33858267716535434,"duration":0.23333333333333428},{"name":"B2","midi":47,"time":111.02291666666545,"velocity":0.3937007874015748,"duration":0.21979166666666572},{"name":"E3","midi":52,"time":111.42812499999879,"velocity":0.4251968503937008,"duration":0.24791666666665435},{"name":"B2","midi":47,"time":111.43958333333212,"velocity":0.3937007874015748,"duration":0.26249999999998863},{"name":"E2","midi":40,"time":111.44270833333212,"velocity":0.3464566929133858,"duration":0.23124999999998863},{"name":"E3","midi":52,"time":111.83854166666545,"velocity":0.49606299212598426,"duration":0.2510416666666515},{"name":"B2","midi":47,"time":111.84062499999878,"velocity":0.48031496062992124,"duration":0.3916666666666515},{"name":"E2","midi":40,"time":111.84583333333211,"velocity":0.3779527559055118,"duration":0.24166666666666003},{"name":"B2","midi":47,"time":112.23229166666543,"velocity":0.25196850393700787,"duration":0.11354166666666288},{"name":"E3","midi":52,"time":112.2739583333321,"velocity":0.3779527559055118,"duration":0.008333333333325754},{"name":"E2","midi":40,"time":112.27499999999877,"velocity":0.4251968503937008,"duration":0.022916666666660035},{"name":"D4","midi":62,"time":112.78958333333209,"velocity":0.6062992125984252,"duration":0.2833333333332888},{"name":"D3","midi":50,"time":112.80104166666543,"velocity":0.4566929133858268,"duration":0.2885416666666174},{"name":"F#3","midi":54,"time":112.80624999999876,"velocity":0.5196850393700787,"duration":0.3083333333332803},{"name":"F#3","midi":54,"time":113.2156249999987,"velocity":0.3700787401574803,"duration":0.20833333333331439},{"name":"D4","midi":62,"time":113.21979166666536,"velocity":0.5748031496062992,"duration":0.1677083333333229},{"name":"D3","midi":50,"time":113.22291666666536,"velocity":0.4566929133858268,"duration":0.12812499999999716},{"name":"B3","midi":59,"time":113.59479166666534,"velocity":0.5669291338582677,"duration":0.33749999999993463},{"name":"E4","midi":64,"time":113.59999999999867,"velocity":0.5905511811023622,"duration":0.2979166666666089},{"name":"E3","midi":52,"time":113.60937499999866,"velocity":0.4881889763779528,"duration":0.2874999999999517},{"name":"B3","midi":59,"time":114.00104166666527,"velocity":0.29133858267716534,"duration":0.1458333333333286},{"name":"E4","midi":64,"time":114.01354166666528,"velocity":0.5275590551181102,"duration":0.17812499999999432},{"name":"E3","midi":52,"time":114.03333333333194,"velocity":0.5039370078740157,"duration":0.11145833333333144},{"name":"C#4","midi":61,"time":114.40416666666528,"velocity":0.47244094488188976,"duration":0.3406249999999602},{"name":"F#3","midi":54,"time":114.41249999999862,"velocity":0.5433070866141733,"duration":0.31041666666662593},{"name":"E4","midi":64,"time":114.42916666666528,"velocity":0.48031496062992124,"duration":0.32187499999994884},{"name":"E4","midi":64,"time":114.83749999999857,"velocity":0.25984251968503935,"duration":0.2458333333333229},{"name":"F#3","midi":54,"time":114.85624999999857,"velocity":0.3779527559055118,"duration":0.2291666666666572},{"name":"C#4","midi":61,"time":114.86354166666523,"velocity":0.11023622047244094,"duration":0.23333333333333428},{"name":"E4","midi":64,"time":115.2958333333319,"velocity":0.31496062992125984,"duration":0.22083333333333144},{"name":"C#4","midi":61,"time":115.29791666666523,"velocity":0.31496062992125984,"duration":0.21145833333333997},{"name":"F#3","midi":54,"time":115.30937499999857,"velocity":0.3464566929133858,"duration":0.2291666666666572},{"name":"E4","midi":64,"time":115.6927083333319,"velocity":0.1968503937007874,"duration":0.21250000000000568},{"name":"C#4","midi":61,"time":115.7177083333319,"velocity":0.31496062992125984,"duration":0.12916666666666288},{"name":"F#3","midi":54,"time":115.7208333333319,"velocity":0.1732283464566929,"duration":0.1822916666666714},{"name":"E4","midi":64,"time":116.11041666666523,"velocity":0.25196850393700787,"duration":0.1770833333333286},{"name":"C#4","midi":61,"time":116.12187499999857,"velocity":0.2755905511811024,"duration":0.17812499999999432},{"name":"F#3","midi":54,"time":116.12604166666523,"velocity":0.25196850393700787,"duration":0.19895833333333712},{"name":"C#4","midi":61,"time":116.54479166666523,"velocity":0.2755905511811024,"duration":0.140625},{"name":"E4","midi":64,"time":116.54687499999856,"velocity":0.2440944881889764,"duration":0.17604166666666288},{"name":"F#3","midi":54,"time":116.5520833333319,"velocity":0.2677165354330709,"duration":0.21666666666666856},{"name":"F#3","midi":54,"time":116.95312499999856,"velocity":0.1732283464566929,"duration":0.20624999999999716},{"name":"E4","midi":64,"time":116.97812499999857,"velocity":0.2047244094488189,"duration":0.1458333333333286},{"name":"C#4","midi":61,"time":116.97916666666524,"velocity":0.28346456692913385,"duration":0.14999999999999147},{"name":"E4","midi":64,"time":117.36666666666522,"velocity":0.3228346456692913,"duration":0.08020833333331723},{"name":"C#4","midi":61,"time":117.38645833333189,"velocity":0.25984251968503935,"duration":0.053124999999994316},{"name":"F#3","midi":54,"time":117.38854166666522,"velocity":0.2992125984251969,"duration":0.07291666666665719},{"name":"D4","midi":62,"time":117.78541666666521,"velocity":0.5039370078740157,"duration":0.2979166666666515},{"name":"F#3","midi":54,"time":117.80729166666521,"velocity":0.5669291338582677,"duration":0.6031250000000057},{"name":"D3","midi":50,"time":117.80833333333187,"velocity":0.3700787401574803,"duration":0.2854166666666629},{"name":"D4","midi":62,"time":118.22083333333187,"velocity":0.47244094488188976,"duration":0.19895833333335133},{"name":"D3","midi":50,"time":118.24479166666521,"velocity":0.3543307086614173,"duration":0.14895833333333997},{"name":"E4","midi":64,"time":118.63645833333189,"velocity":0.5433070866141733,"duration":0.28958333333329733},{"name":"E3","midi":52,"time":118.63854166666522,"velocity":0.44881889763779526,"duration":0.267708333333303},{"name":"B3","midi":59,"time":118.64062499999855,"velocity":0.48031496062992124,"duration":0.31562499999996874},{"name":"B3","midi":59,"time":119.03437499999852,"velocity":0.28346456692913385,"duration":0.1302083333333286},{"name":"E4","midi":64,"time":119.04374999999852,"velocity":0.3464566929133858,"duration":0.08645833333332575},{"name":"E3","midi":52,"time":119.06666666666518,"velocity":0.3779527559055118,"duration":0.10416666666665719},{"name":"A3","midi":57,"time":119.44583333333183,"velocity":0.4094488188976378,"duration":0.3187499999999659},{"name":"C#4","midi":61,"time":119.45520833333183,"velocity":0.4409448818897638,"duration":0.28541666666664867},{"name":"C#3","midi":49,"time":119.46874999999848,"velocity":0.48031496062992124,"duration":0.2552083333333286},{"name":"A3","midi":57,"time":119.8864583333318,"velocity":0.11023622047244094,"duration":0.2906249999999915},{"name":"C#4","midi":61,"time":119.9239583333318,"velocity":0.29133858267716534,"duration":0.22708333333332575},{"name":"C#3","midi":49,"time":119.92604166666513,"velocity":0.3700787401574803,"duration":0.234375},{"name":"C#4","midi":61,"time":120.3458333333318,"velocity":0.2125984251968504,"duration":0.23645833333333144},{"name":"A3","midi":57,"time":120.3552083333318,"velocity":0.25984251968503935,"duration":0.27291666666666003},{"name":"C#3","midi":49,"time":120.3770833333318,"velocity":0.3464566929133858,"duration":0.21145833333332575},{"name":"A3","midi":57,"time":120.7770833333318,"velocity":0.25984251968503935,"duration":0.2718749999999943},{"name":"C#4","midi":61,"time":120.7802083333318,"velocity":0.2677165354330709,"duration":0.24166666666666003},{"name":"C#3","midi":49,"time":120.79166666666514,"velocity":0.36220472440944884,"duration":0.20729166666666288},{"name":"C#3","midi":49,"time":121.19479166666513,"velocity":0.33070866141732286,"duration":0.2291666666666572},{"name":"A3","midi":57,"time":121.20104166666512,"velocity":0.36220472440944884,"duration":0.23333333333332007},{"name":"C#4","midi":61,"time":121.20312499999845,"velocity":0.2992125984251969,"duration":0.22499999999999432},{"name":"A3","midi":57,"time":121.63333333333178,"velocity":0.2992125984251969,"duration":0.23541666666667993},{"name":"C#4","midi":61,"time":121.63645833333177,"velocity":0.29133858267716534,"duration":0.2239583333333428},{"name":"C#3","midi":49,"time":121.64479166666511,"velocity":0.2992125984251969,"duration":0.20520833333333144},{"name":"A3","midi":57,"time":122.0802083333318,"velocity":0.2677165354330709,"duration":0.2083333333333286},{"name":"C#4","midi":61,"time":122.09062499999847,"velocity":0.2755905511811024,"duration":0.18437499999998863},{"name":"C#3","midi":49,"time":122.09687499999846,"velocity":0.2125984251968504,"duration":0.1989583333333229},{"name":"A3","midi":57,"time":122.51874999999845,"velocity":0.33858267716535434,"duration":0.08020833333333144},{"name":"C#3","midi":49,"time":122.52604166666511,"velocity":0.2755905511811024,"duration":0.1510416666666714},{"name":"C#4","midi":61,"time":122.52708333333177,"velocity":0.2677165354330709,"duration":0.08437500000000853},{"name":"B3","midi":59,"time":122.92187499999845,"velocity":0.48031496062992124,"duration":0.293749999999946},{"name":"B2","midi":47,"time":122.94166666666511,"velocity":0.3543307086614173,"duration":0.2874999999999517},{"name":"F#3","midi":54,"time":122.94374999999845,"velocity":0.4409448818897638,"duration":0.2718749999999517},{"name":"F#3","midi":54,"time":123.38854166666506,"velocity":0.4330708661417323,"duration":0.24270833333333997},{"name":"B3","midi":59,"time":123.3906249999984,"velocity":0.3937007874015748,"duration":0.2645833333333343},{"name":"B2","midi":47,"time":123.40416666666506,"velocity":0.3464566929133858,"duration":0.23020833333333712},{"name":"B3","midi":59,"time":123.82083333333173,"velocity":0.30708661417322836,"duration":0.21145833333332575},{"name":"F#3","midi":54,"time":123.82291666666507,"velocity":0.36220472440944884,"duration":0.20208333333333428},{"name":"B2","midi":47,"time":123.82708333333173,"velocity":0.36220472440944884,"duration":0.23229166666666856},{"name":"F#3","midi":54,"time":124.23333333333173,"velocity":0.4094488188976378,"duration":0.26250000000000284},{"name":"B3","midi":59,"time":124.24270833333173,"velocity":0.36220472440944884,"duration":0.2291666666666714},{"name":"B2","midi":47,"time":124.25729166666507,"velocity":0.36220472440944884,"duration":0.23125000000000284},{"name":"B3","midi":59,"time":124.66770833333173,"velocity":0.4251968503937008,"duration":0.22812499999999147},{"name":"F#3","midi":54,"time":124.67291666666506,"velocity":0.44881889763779526,"duration":0.2447916666666572},{"name":"B2","midi":47,"time":124.67916666666505,"velocity":0.33070866141732286,"duration":0.2562499999999943},{"name":"F#3","midi":54,"time":125.08958333333172,"velocity":0.4409448818897638,"duration":0.16979166666666856},{"name":"B3","midi":59,"time":125.09166666666505,"velocity":0.3779527559055118,"duration":0.14374999999999716},{"name":"B2","midi":47,"time":125.11249999999838,"velocity":0.4094488188976378,"duration":0.18958333333334565},{"name":"A3","midi":57,"time":125.51354166666506,"velocity":0.4330708661417323,"duration":0.37291666666664014},{"name":"A2","midi":45,"time":125.53437499999839,"velocity":0.4409448818897638,"duration":0.2968749999999716},{"name":"E3","midi":52,"time":125.54166666666505,"velocity":0.3543307086614173,"duration":0.33124999999998295},{"name":"A3","midi":57,"time":125.97395833333171,"velocity":0.2440944881889764,"duration":0.2749999999999915},{"name":"E3","midi":52,"time":125.98333333333171,"velocity":0.11811023622047244,"duration":0.32187499999997726},{"name":"A2","midi":45,"time":126.00520833333171,"velocity":0.2992125984251969,"duration":0.24687499999998863},{"name":"E3","midi":52,"time":126.40312499999835,"velocity":0.14960629921259844,"duration":0.31041666666665435},{"name":"A3","midi":57,"time":126.41458333333169,"velocity":0.3937007874015748,"duration":0.2447916666666572},{"name":"A2","midi":45,"time":126.41770833333169,"velocity":0.36220472440944884,"duration":0.2749999999999915},{"name":"A3","midi":57,"time":126.83541666666501,"velocity":0.4251968503937008,"duration":0.27291666666667425},{"name":"A2","midi":45,"time":126.83854166666501,"velocity":0.3228346456692913,"duration":0.2697916666666771},{"name":"E3","midi":52,"time":126.84687499999835,"velocity":0.29133858267716534,"duration":0.25208333333333144},{"name":"A3","midi":57,"time":127.27604166666502,"velocity":0.41732283464566927,"duration":0.2541666666666629},{"name":"E3","midi":52,"time":127.27812499999835,"velocity":0.4409448818897638,"duration":0.21875},{"name":"A2","midi":45,"time":127.28958333333169,"velocity":0.3464566929133858,"duration":0.20104166666666856},{"name":"A3","midi":57,"time":127.67604166666501,"velocity":0.49606299212598426,"duration":0.11145833333333144},{"name":"E3","midi":52,"time":127.69374999999835,"velocity":0.3700787401574803,"duration":0.15416666666666856},{"name":"A2","midi":45,"time":127.69895833333167,"velocity":0.3464566929133858,"duration":0.09791666666667709},{"name":"G#3","midi":56,"time":128.10312499999836,"velocity":0.4094488188976378,"duration":0.27708333333347923},{"name":"E3","midi":52,"time":128.10624999999837,"velocity":0.3700787401574803,"duration":0.3031250000001364},{"name":"G#2","midi":44,"time":128.11562499999837,"velocity":0.3858267716535433,"duration":0.40208333333347923},{"name":"G#2","midi":44,"time":128.51770833333185,"velocity":0.1732283464566929,"duration":0.3083333333333371},{"name":"G#3","midi":56,"time":128.52395833333185,"velocity":0.3543307086614173,"duration":0.28437500000001137},{"name":"E3","midi":52,"time":128.5291666666652,"velocity":0.25984251968503935,"duration":0.2750000000000057},{"name":"G#2","midi":44,"time":128.99062499999852,"velocity":0.33858267716535434,"duration":0.2760416666666572},{"name":"E3","midi":52,"time":128.99270833333185,"velocity":0.31496062992125984,"duration":0.22291666666666288},{"name":"G#3","midi":56,"time":129.00624999999852,"velocity":0.25984251968503935,"duration":0.2447916666666572},{"name":"G#2","midi":44,"time":129.40104166666518,"velocity":0.31496062992125984,"duration":0.3062500000000057},{"name":"E3","midi":52,"time":129.4041666666652,"velocity":0.33858267716535434,"duration":0.2562499999999943},{"name":"G#3","midi":56,"time":129.4135416666652,"velocity":0.30708661417322836,"duration":0.25312499999998295},{"name":"G#2","midi":44,"time":129.85520833333186,"velocity":0.33858267716535434,"duration":0.27187500000002274},{"name":"E3","midi":52,"time":129.8666666666652,"velocity":0.33858267716535434,"duration":0.26145833333336554},{"name":"G#3","midi":56,"time":129.87395833333187,"velocity":0.3228346456692913,"duration":0.21041666666667425},{"name":"G#3","midi":56,"time":130.26041666666524,"velocity":0.44881889763779526,"duration":0.08645833333332575},{"name":"E3","midi":52,"time":130.26666666666523,"velocity":0.23622047244094488,"duration":0.10104166666667425},{"name":"G#2","midi":44,"time":130.2802083333319,"velocity":0.4251968503937008,"duration":0.16041666666666288},{"name":"E3","midi":52,"time":130.71041666666522,"velocity":0.36220472440944884,"duration":0.2916666666668277},{"name":"E2","midi":40,"time":130.7145833333319,"velocity":0.4094488188976378,"duration":0.30729166666685614},{"name":"B2","midi":47,"time":130.71874999999855,"velocity":0.33858267716535434,"duration":0.29062500000020464},{"name":"E2","midi":40,"time":131.1572916666654,"velocity":0.16535433070866143,"duration":0.2770833333333087},{"name":"B2","midi":47,"time":131.18749999999872,"velocity":0.3228346456692913,"duration":0.19895833333333712},{"name":"E3","midi":52,"time":131.19374999999872,"velocity":0.13385826771653545,"duration":0.23854166666666288},{"name":"E3","midi":52,"time":131.58020833333205,"velocity":0.25984251968503935,"duration":0.22083333333333144},{"name":"E2","midi":40,"time":131.5854166666654,"velocity":0.18110236220472442,"duration":0.21770833333332007},{"name":"B2","midi":47,"time":131.59374999999872,"velocity":0.2755905511811024,"duration":0.19374999999999432},{"name":"E3","midi":52,"time":131.99270833333205,"velocity":0.23622047244094488,"duration":0.21041666666667425},{"name":"B2","midi":47,"time":132.01562499999872,"velocity":0.23622047244094488,"duration":0.18020833333332575},{"name":"E2","midi":40,"time":132.03124999999872,"velocity":0.14960629921259844,"duration":0.1770833333333428},{"name":"E3","midi":52,"time":132.43437499999874,"velocity":0.23622047244094488,"duration":0.20000000000001705},{"name":"E2","midi":40,"time":132.45312499999875,"velocity":0.2125984251968504,"duration":0.19791666666668561},{"name":"B2","midi":47,"time":132.45937499999874,"velocity":0.16535433070866143,"duration":0.13854166666666856},{"name":"E3","midi":52,"time":132.88541666666544,"velocity":0.14960629921259844,"duration":0.14791666666667425},{"name":"E2","midi":40,"time":132.88854166666545,"velocity":0.1889763779527559,"duration":0.17499999999998295},{"name":"B2","midi":47,"time":132.89687499999877,"velocity":0.1732283464566929,"duration":0.11666666666667425},{"name":"E2","midi":40,"time":133.34999999999877,"velocity":0.07086614173228346,"duration":0.18541666666666856},{"name":"E3","midi":52,"time":133.35624999999877,"velocity":0.1732283464566929,"duration":0.109375},{"name":"B2","midi":47,"time":133.3708333333321,"velocity":0.10236220472440945,"duration":0.13750000000001705},{"name":"E2","midi":40,"time":133.77083333333212,"velocity":0.1889763779527559,"duration":0.08333333333334281},{"name":"B2","midi":47,"time":133.77083333333212,"velocity":0.2204724409448819,"duration":0.09479166666667993},{"name":"E3","midi":52,"time":133.80520833333213,"velocity":0.14173228346456693,"duration":0.05833333333333712},{"name":"G3","midi":55,"time":134.18645833333213,"velocity":0.5275590551181102,"duration":0.30000000000026716},{"name":"G2","midi":43,"time":134.19166666666547,"velocity":0.49606299212598426,"duration":0.291666666666913},{"name":"D3","midi":50,"time":134.2031249999988,"velocity":0.49606299212598426,"duration":0.6062500000002728},{"name":"G3","midi":55,"time":134.6270833333324,"velocity":0.3779527559055118,"duration":0.14166666666667993},{"name":"G2","midi":43,"time":134.63749999999905,"velocity":0.4409448818897638,"duration":0.12395833333334849},{"name":"A3","midi":57,"time":135.02187499999908,"velocity":0.5984251968503937,"duration":0.3010416666669471},{"name":"E3","midi":52,"time":135.02916666666576,"velocity":0.5590551181102362,"duration":0.32083333333360997},{"name":"A2","midi":45,"time":135.04374999999914,"velocity":0.5433070866141733,"duration":0.262500000000216},{"name":"A3","midi":57,"time":135.4364583333327,"velocity":0.28346456692913385,"duration":0.09062499999998863},{"name":"A2","midi":45,"time":135.47187499999936,"velocity":0.29133858267716534,"duration":0.01458333333332007},{"name":"F#3","midi":54,"time":135.816666666666,"velocity":0.5748031496062992,"duration":0.3843750000002899},{"name":"B2","midi":47,"time":135.82499999999933,"velocity":0.5590551181102362,"duration":0.35625000000030127},{"name":"B3","midi":59,"time":135.8333333333327,"velocity":0.5354330708661418,"duration":0.3479166666669471},{"name":"F#3","midi":54,"time":136.25937499999964,"velocity":0.3464566929133858,"duration":0.3125},{"name":"B3","midi":59,"time":136.28645833333297,"velocity":0.31496062992125984,"duration":0.2708333333333428},{"name":"B2","midi":47,"time":136.323958333333,"velocity":0.36220472440944884,"duration":0.25416666666663446},{"name":"F#3","midi":54,"time":136.70520833333296,"velocity":0.30708661417322836,"duration":0.24479166666668561},{"name":"B3","midi":59,"time":136.70833333333297,"velocity":0.41732283464566927,"duration":0.23229166666666856},{"name":"B2","midi":47,"time":136.72395833333297,"velocity":0.36220472440944884,"duration":0.25312500000001137},{"name":"B3","midi":59,"time":137.114583333333,"velocity":0.3779527559055118,"duration":0.2562499999999943},{"name":"F#3","midi":54,"time":137.11874999999966,"velocity":0.4015748031496063,"duration":0.26770833333333144},{"name":"B2","midi":47,"time":137.127083333333,"velocity":0.2755905511811024,"duration":0.23645833333333144},{"name":"B3","midi":59,"time":137.56041666666633,"velocity":0.3858267716535433,"duration":0.20937499999999432},{"name":"F#3","midi":54,"time":137.564583333333,"velocity":0.3858267716535433,"duration":0.25625000000002274},{"name":"B2","midi":47,"time":137.589583333333,"velocity":0.25984251968503935,"duration":0.21250000000000568},{"name":"F#3","midi":54,"time":137.97291666666635,"velocity":0.3228346456692913,"duration":0.39687500000002274},{"name":"B3","midi":59,"time":137.98020833333302,"velocity":0.33070866141732286,"duration":0.23541666666667993},{"name":"B2","midi":47,"time":137.98541666666637,"velocity":0.3779527559055118,"duration":0.24583333333333712},{"name":"F#3","midi":54,"time":138.37083333333305,"velocity":0.1732283464566929,"duration":0.28958333333329733},{"name":"B3","midi":59,"time":138.38333333333304,"velocity":0.3700787401574803,"duration":0.2510416666666515},{"name":"B2","midi":47,"time":138.3874999999997,"velocity":0.3228346456692913,"duration":0.2447916666666572},{"name":"F#3","midi":54,"time":138.78333333333302,"velocity":0.23622047244094488,"duration":0.14791666666664582},{"name":"B3","midi":59,"time":138.80104166666635,"velocity":0.3858267716535433,"duration":0.07187499999997726},{"name":"B2","midi":47,"time":138.827083333333,"velocity":0.3858267716535433,"duration":0.12812499999998295},{"name":"D3","midi":50,"time":139.22499999999965,"velocity":0.4645669291338583,"duration":0.45312500000017053},{"name":"G3","midi":55,"time":139.23333333333298,"velocity":0.5669291338582677,"duration":0.3562500000001876},{"name":"G2","midi":43,"time":139.2416666666663,"velocity":0.5039370078740157,"duration":0.3406250000001876},{"name":"D3","midi":50,"time":139.67812499999982,"velocity":0.12598425196850394,"duration":0.22708333333335418},{"name":"G3","midi":55,"time":139.6947916666665,"velocity":0.33070866141732286,"duration":0.1864583333333485},{"name":"G2","midi":43,"time":139.70729166666652,"velocity":0.25984251968503935,"duration":0.13229166666667425},{"name":"A3","midi":57,"time":140.0833333333332,"velocity":0.5748031496062992,"duration":0.34479166666685046},{"name":"E3","midi":52,"time":140.08854166666654,"velocity":0.5354330708661418,"duration":0.342708333333519},{"name":"A2","midi":45,"time":140.0927083333332,"velocity":0.49606299212598426,"duration":0.32916666666685046},{"name":"A2","midi":45,"time":140.47500000000005,"velocity":0.31496062992125984,"duration":0.1864583333333485},{"name":"E3","midi":52,"time":140.49687500000005,"velocity":0.23622047244094488,"duration":0.1770833333333428},{"name":"A3","midi":57,"time":140.50312500000007,"velocity":0.31496062992125984,"duration":0.1822916666666572},{"name":"B3","midi":59,"time":140.89791666666673,"velocity":0.5433070866141733,"duration":0.32604166666689594},{"name":"F#3","midi":54,"time":140.90000000000006,"velocity":0.5354330708661418,"duration":0.3395833333335645},{"name":"B2","midi":47,"time":140.9177083333334,"velocity":0.4409448818897638,"duration":0.3197916666669016},{"name":"F#3","midi":54,"time":141.2843750000003,"velocity":0.4251968503937008,"duration":0.37708333333335986},{"name":"B2","midi":47,"time":141.32708333333366,"velocity":0.2283464566929134,"duration":0.27291666666667425},{"name":"B3","midi":59,"time":141.33333333333366,"velocity":0.25196850393700787,"duration":0.25729166666667425},{"name":"F#3","midi":54,"time":141.75520833333366,"velocity":0.2283464566929134,"duration":0.26770833333333144},{"name":"B2","midi":47,"time":141.76458333333366,"velocity":0.25196850393700787,"duration":0.24687499999998863},{"name":"B3","midi":59,"time":141.772916666667,"velocity":0.33070866141732286,"duration":0.24062499999999432},{"name":"F#3","midi":54,"time":142.19583333333367,"velocity":0.3779527559055118,"duration":0.21666666666666856},{"name":"B2","midi":47,"time":142.21770833333366,"velocity":0.2440944881889764,"duration":0.20416666666667993},{"name":"B3","midi":59,"time":142.219791666667,"velocity":0.25984251968503935,"duration":0.22500000000002274},{"name":"F#3","midi":54,"time":142.61562500000034,"velocity":0.36220472440944884,"duration":0.2750000000000057},{"name":"B2","midi":47,"time":142.622916666667,"velocity":0.2992125984251969,"duration":0.2541666666666629},{"name":"B3","midi":59,"time":142.629166666667,"velocity":0.2992125984251969,"duration":0.2552083333333428},{"name":"F#3","midi":54,"time":143.05520833333367,"velocity":0.28346456692913385,"duration":0.23645833333330302},{"name":"B2","midi":47,"time":143.06458333333367,"velocity":0.2204724409448819,"duration":0.21666666666664014},{"name":"B3","midi":59,"time":143.09062500000033,"velocity":0.2283464566929134,"duration":0.16249999999999432},{"name":"F#3","midi":54,"time":143.45416666666696,"velocity":0.3543307086614173,"duration":0.22604166666667425},{"name":"B2","midi":47,"time":143.47083333333364,"velocity":0.30708661417322836,"duration":0.21562499999998863},{"name":"B3","midi":59,"time":143.47291666666698,"velocity":0.2755905511811024,"duration":0.18125000000000568},{"name":"F#3","midi":54,"time":143.89270833333364,"velocity":0.3779527559055118,"duration":0.10416666666665719},{"name":"B2","midi":47,"time":143.90000000000032,"velocity":0.2992125984251969,"duration":0.13854166666664014},{"name":"B3","midi":59,"time":143.91458333333364,"velocity":0.25984251968503935,"duration":0.04479166666666856},{"name":"G3","midi":55,"time":144.31145833333363,"velocity":0.4015748031496063,"duration":0.34479166666685046},{"name":"D3","midi":50,"time":144.32083333333364,"velocity":0.4094488188976378,"duration":0.42187500000019895},{"name":"G2","midi":43,"time":144.3250000000003,"velocity":0.4409448818897638,"duration":0.32916666666685046},{"name":"D3","midi":50,"time":144.74270833333384,"velocity":0.1732283464566929,"duration":0.28333333333333144},{"name":"G3","midi":55,"time":144.75833333333384,"velocity":0.3543307086614173,"duration":0.2697916666666629},{"name":"G2","midi":43,"time":144.77083333333383,"velocity":0.31496062992125984,"duration":0.20416666666667993},{"name":"A3","midi":57,"time":145.16458333333384,"velocity":0.6141732283464567,"duration":0.31562500000009663},{"name":"E3","midi":52,"time":145.17291666666716,"velocity":0.4881889763779528,"duration":0.3333333333334281},{"name":"A2","midi":45,"time":145.17395833333384,"velocity":0.5511811023622047,"duration":0.2916666666667709},{"name":"E3","midi":52,"time":145.57500000000059,"velocity":0.28346456692913385,"duration":0.1656250000000341},{"name":"A3","midi":57,"time":145.58854166666725,"velocity":0.4566929133858268,"duration":0.17812500000002274},{"name":"A2","midi":45,"time":145.60208333333392,"velocity":0.4251968503937008,"duration":0.11770833333335418},{"name":"F#3","midi":54,"time":145.97916666666728,"velocity":0.5433070866141733,"duration":0.3406250000001876},{"name":"B2","midi":47,"time":145.98958333333394,"velocity":0.5511811023622047,"duration":0.3260416666668675},{"name":"B3","midi":59,"time":145.99895833333395,"velocity":0.4881889763779528,"duration":0.311458333333519},{"name":"B3","midi":59,"time":146.40520833333414,"velocity":0.31496062992125984,"duration":0.2656250000000284},{"name":"F#3","midi":54,"time":146.41250000000082,"velocity":0.2204724409448819,"duration":0.24270833333335418},{"name":"B2","midi":47,"time":146.43750000000082,"velocity":0.33858267716535434,"duration":0.23229166666666856},{"name":"F#3","midi":54,"time":146.84687500000084,"velocity":0.4015748031496063,"duration":0.2333333333333485},{"name":"B2","midi":47,"time":146.84791666666752,"velocity":0.3543307086614173,"duration":0.24270833333332575},{"name":"B3","midi":59,"time":146.85104166666753,"velocity":0.36220472440944884,"duration":0.20208333333332007},{"name":"F#3","midi":54,"time":147.24687500000084,"velocity":0.4566929133858268,"duration":0.2708333333333428},{"name":"B2","midi":47,"time":147.26458333333417,"velocity":0.3779527559055118,"duration":0.23229166666666856},{"name":"B3","midi":59,"time":147.26562500000085,"velocity":0.3543307086614173,"duration":0.25312500000001137},{"name":"B3","midi":59,"time":147.65937500000086,"velocity":0.44881889763779526,"duration":0.25208333333333144},{"name":"F#3","midi":54,"time":147.6614583333342,"velocity":0.3858267716535433,"duration":0.28229166666667993},{"name":"B2","midi":47,"time":147.67812500000088,"velocity":0.3858267716535433,"duration":0.26875000000001137},{"name":"F#3","midi":54,"time":148.0812500000009,"velocity":0.1968503937007874,"duration":0.2552083333333428},{"name":"B3","midi":59,"time":148.10104166666756,"velocity":0.31496062992125984,"duration":0.21458333333333712},{"name":"B2","midi":47,"time":148.1125000000009,"velocity":0.1889763779527559,"duration":0.20208333333332007},{"name":"F#3","midi":54,"time":148.4906250000009,"velocity":0.25984251968503935,"duration":0.20520833333333144},{"name":"B3","midi":59,"time":148.4968750000009,"velocity":0.29133858267716534,"duration":0.20625000000001137},{"name":"B2","midi":47,"time":148.51458333333423,"velocity":0.28346456692913385,"duration":0.20104166666666856},{"name":"F#3","midi":54,"time":148.8968750000009,"velocity":0.3937007874015748,"duration":0.2927083333333371},{"name":"B2","midi":47,"time":148.9031250000009,"velocity":0.30708661417322836,"duration":0.2447916666666572},{"name":"B3","midi":59,"time":148.92083333333423,"velocity":0.2440944881889764,"duration":0.24583333333333712},{"name":"F#3","midi":54,"time":149.29166666666757,"velocity":0.2047244094488189,"duration":0.2750000000000057},{"name":"B3","midi":59,"time":149.30104166666757,"velocity":0.29133858267716534,"duration":0.22604166666667425},{"name":"B2","midi":47,"time":149.30625000000092,"velocity":0.25984251968503935,"duration":0.22708333333332575},{"name":"F#3","midi":54,"time":149.71458333333425,"velocity":0.3858267716535433,"duration":0.21250000000000568},{"name":"B2","midi":47,"time":149.73020833333425,"velocity":0.29133858267716534,"duration":0.21979166666667993},{"name":"B3","midi":59,"time":149.7343750000009,"velocity":0.25196850393700787,"duration":0.171875},{"name":"F#3","midi":54,"time":150.12708333333427,"velocity":0.5196850393700787,"duration":0.24583333333333712},{"name":"B3","midi":59,"time":150.12812500000095,"velocity":0.36220472440944884,"duration":0.25937499999997726},{"name":"B2","midi":47,"time":150.13020833333428,"velocity":0.3937007874015748,"duration":0.2666666666666515},{"name":"F#3","midi":54,"time":150.5322916666676,"velocity":0.4094488188976378,"duration":0.22187500000001137},{"name":"B2","midi":47,"time":150.53437500000092,"velocity":0.33070866141732286,"duration":0.22604166666667425},{"name":"B3","midi":59,"time":150.53750000000093,"velocity":0.3779527559055118,"duration":0.19374999999999432},{"name":"B3","midi":59,"time":150.93333333333428,"velocity":0.4409448818897638,"duration":0.26875000000001137},{"name":"F#3","midi":54,"time":150.93437500000095,"velocity":0.5196850393700787,"duration":0.2906250000000057},{"name":"B2","midi":47,"time":150.9364583333343,"velocity":0.4094488188976378,"duration":0.2927083333333371},{"name":"F#3","midi":54,"time":151.35416666666762,"velocity":0.2283464566929134,"duration":0.2593750000000057},{"name":"B2","midi":47,"time":151.36041666666762,"velocity":0.2755905511811024,"duration":0.2750000000000057},{"name":"B3","midi":59,"time":151.36250000000095,"velocity":0.3858267716535433,"duration":0.25729166666667425},{"name":"B3","midi":59,"time":151.7802083333343,"velocity":0.4566929133858268,"duration":0.23645833333333144},{"name":"F#3","midi":54,"time":151.78437500000095,"velocity":0.49606299212598426,"duration":0.26458333333332007},{"name":"B2","midi":47,"time":151.79270833333428,"velocity":0.48031496062992124,"duration":0.22604166666667425},{"name":"F#3","midi":54,"time":152.1666666666676,"velocity":0.30708661417322836,"duration":0.13437500000000568},{"name":"B3","midi":59,"time":152.18645833333426,"velocity":0.4330708661417323,"duration":0.05208333333334281},{"name":"B2","midi":47,"time":152.20208333333426,"velocity":0.41732283464566927,"duration":0.109375},{"name":"D3","midi":50,"time":152.6447916666676,"velocity":0.5590551181102362,"duration":0.34270833333366113},{"name":"G3","midi":55,"time":152.65000000000094,"velocity":0.5669291338582677,"duration":0.32395833333364976},{"name":"G2","midi":43,"time":152.65208333333428,"velocity":0.5984251968503937,"duration":0.3093750000003297},{"name":"D3","midi":50,"time":153.07083333333458,"velocity":0.2992125984251969,"duration":0.16979166666666856},{"name":"G3","midi":55,"time":153.07604166666792,"velocity":0.4094488188976378,"duration":0.1885416666666515},{"name":"G2","midi":43,"time":153.0979166666679,"velocity":0.41732283464566927,"duration":0.16979166666666856},{"name":"E3","midi":52,"time":153.4645833333346,"velocity":0.5669291338582677,"duration":0.4250000000001535},{"name":"A3","midi":57,"time":153.4677083333346,"velocity":0.6220472440944882,"duration":0.3375000000001478},{"name":"A2","midi":45,"time":153.47291666666794,"velocity":0.5590551181102362,"duration":0.31041666666681067},{"name":"E3","midi":52,"time":153.88958333333474,"velocity":0.2204724409448819,"duration":0.18854166666667993},{"name":"A3","midi":57,"time":153.9031250000014,"velocity":0.3543307086614173,"duration":0.1875},{"name":"A2","midi":45,"time":153.92500000000143,"velocity":0.44881889763779526,"duration":0.11874999999997726},{"name":"F#3","midi":54,"time":154.2885416666681,"velocity":0.6141732283464567,"duration":0.3197916666670153},{"name":"B3","midi":59,"time":154.29687500000145,"velocity":0.5354330708661418,"duration":0.3187500000003354},{"name":"B2","midi":47,"time":154.29895833333478,"velocity":0.5354330708661418,"duration":0.3062500000003183},{"name":"B3","midi":59,"time":154.70729166666845,"velocity":0.2677165354330709,"duration":0.25104166666670835},{"name":"F#3","midi":54,"time":154.71041666666846,"velocity":0.4094488188976378,"duration":0.3218750000000341},{"name":"B2","midi":47,"time":154.71979166666847,"velocity":0.4015748031496063,"duration":0.2760416666666856},{"name":"F#3","midi":54,"time":155.11250000000183,"velocity":0.23622047244094488,"duration":0.4104166666666629},{"name":"B3","midi":59,"time":155.1260416666685,"velocity":0.5039370078740157,"duration":0.25},{"name":"B2","midi":47,"time":155.13645833333516,"velocity":0.3858267716535433,"duration":0.25312500000001137},{"name":"F#3","midi":54,"time":155.5229166666685,"velocity":0.10236220472440945,"duration":0.4104166666666913},{"name":"B2","midi":47,"time":155.54062500000182,"velocity":0.3937007874015748,"duration":0.29791666666667993},{"name":"B3","midi":59,"time":155.54270833333516,"velocity":0.41732283464566927,"duration":0.2760416666666856},{"name":"F#3","midi":54,"time":155.93333333333518,"velocity":0.18110236220472442,"duration":0.32083333333332575},{"name":"B2","midi":47,"time":155.94687500000185,"velocity":0.25196850393700787,"duration":0.2604166666666572},{"name":"B3","midi":59,"time":155.9520833333352,"velocity":0.36220472440944884,"duration":0.24270833333332575},{"name":"F#3","midi":54,"time":156.37500000000185,"velocity":0.3858267716535433,"duration":0.3812499999999943},{"name":"B3","midi":59,"time":156.38333333333517,"velocity":0.36220472440944884,"duration":0.25},{"name":"B2","midi":47,"time":156.38750000000184,"velocity":0.31496062992125984,"duration":0.25833333333332575},{"name":"F#3","midi":54,"time":156.75625000000184,"velocity":0.2125984251968504,"duration":0.3177083333333428},{"name":"B2","midi":47,"time":156.77708333333518,"velocity":0.33070866141732286,"duration":0.24375000000000568},{"name":"B3","midi":59,"time":156.80520833333517,"velocity":0.3543307086614173,"duration":0.19479166666667425},{"name":"F#3","midi":54,"time":157.1614583333352,"velocity":0.18110236220472442,"duration":0.18125000000000568},{"name":"B2","midi":47,"time":157.2177083333352,"velocity":0.29133858267716534,"duration":0.16458333333332575},{"name":"B3","midi":59,"time":157.2239583333352,"velocity":0.25984251968503935,"duration":0.08229166666666288},{"name":"A3","midi":57,"time":157.5343750000019,"velocity":0.3779527559055118,"duration":0.26041666666688457},{"name":"E3","midi":52,"time":157.5541666666686,"velocity":0.3543307086614173,"duration":0.2635416666668675},{"name":"A2","midi":45,"time":157.5614583333353,"velocity":0.31496062992125984,"duration":0.2552083333334849},{"name":"E3","midi":52,"time":157.9583333333355,"velocity":0.2125984251968504,"duration":0.22604166666670267},{"name":"A3","midi":57,"time":157.96458333333553,"velocity":0.2125984251968504,"duration":0.21666666666666856},{"name":"A2","midi":45,"time":157.97604166666886,"velocity":0.14173228346456693,"duration":0.21458333333333712},{"name":"A3","midi":57,"time":158.3687500000022,"velocity":0.33070866141732286,"duration":0.18958333333335986},{"name":"A2","midi":45,"time":158.4062500000022,"velocity":0.15748031496062992,"duration":0.13854166666669698},{"name":"E3","midi":52,"time":158.4093750000022,"velocity":0.2755905511811024,"duration":0.10312500000000568},{"name":"A3","midi":57,"time":158.74791666666889,"velocity":0.30708661417322836,"duration":0.234375},{"name":"E3","midi":52,"time":158.7875000000022,"velocity":0.2677165354330709,"duration":0.14791666666667425},{"name":"A2","midi":45,"time":158.7937500000022,"velocity":0.2755905511811024,"duration":0.1614583333333428},{"name":"A3","midi":57,"time":159.1729166666689,"velocity":0.3700787401574803,"duration":0.17395833333333144},{"name":"E3","midi":52,"time":159.19375000000224,"velocity":0.28346456692913385,"duration":0.09062499999998863},{"name":"A2","midi":45,"time":159.2072916666689,"velocity":0.2204724409448819,"duration":0.09062499999998863},{"name":"A3","midi":57,"time":159.55520833333557,"velocity":0.3228346456692913,"duration":0.22708333333335418},{"name":"A2","midi":45,"time":159.59687500000223,"velocity":0.2047244094488189,"duration":0.15729166666667993},{"name":"E3","midi":52,"time":159.60000000000224,"velocity":0.2992125984251969,"duration":0.1708333333333485},{"name":"A3","midi":57,"time":159.9614583333356,"velocity":0.33070866141732286,"duration":0.21979166666667993},{"name":"E3","midi":52,"time":159.98750000000226,"velocity":0.25984251968503935,"duration":0.12604166666667993},{"name":"A2","midi":45,"time":160.00416666666894,"velocity":0.23622047244094488,"duration":0.14270833333333144},{"name":"A3","midi":57,"time":160.35937500000227,"velocity":0.36220472440944884,"duration":0.11979166666665719},{"name":"E3","midi":52,"time":160.38229166666895,"velocity":0.31496062992125984,"duration":0.17708333333331439},{"name":"A2","midi":45,"time":160.40000000000228,"velocity":0.2440944881889764,"duration":0.04583333333332007},{"name":"G#3","midi":56,"time":160.7739583333356,"velocity":0.41732283464566927,"duration":0.2822916666667936},{"name":"E3","midi":52,"time":160.78541666666894,"velocity":0.2992125984251969,"duration":0.31458333333347355},{"name":"G#2","midi":44,"time":160.81250000000227,"velocity":0.2992125984251969,"duration":0.28333333333347355},{"name":"G#2","midi":44,"time":161.18125000000242,"velocity":0.2047244094488189,"duration":0.2562499999999943},{"name":"G#3","midi":56,"time":161.18333333333575,"velocity":0.23622047244094488,"duration":0.26249999999998863},{"name":"E3","midi":52,"time":161.19791666666907,"velocity":0.2047244094488189,"duration":0.234375},{"name":"G#3","midi":56,"time":161.5843750000024,"velocity":0.2204724409448819,"duration":0.21979166666667993},{"name":"G#2","midi":44,"time":161.6166666666691,"velocity":0.2440944881889764,"duration":0.1458333333333428},{"name":"E3","midi":52,"time":161.6322916666691,"velocity":0.31496062992125984,"duration":0.12083333333333712},{"name":"G#3","midi":56,"time":161.9760416666691,"velocity":0.41732283464566927,"duration":0.18541666666666856},{"name":"G#2","midi":44,"time":161.9791666666691,"velocity":0.3228346456692913,"duration":0.21666666666664014},{"name":"E3","midi":52,"time":161.98750000000243,"velocity":0.3464566929133858,"duration":0.1885416666666515},{"name":"G#3","midi":56,"time":162.36979166666907,"velocity":0.4015748031496063,"duration":0.2906250000001478},{"name":"G#2","midi":44,"time":162.38645833333575,"velocity":0.2992125984251969,"duration":0.2760416666667993},{"name":"E3","midi":52,"time":162.39375000000243,"velocity":0.3464566929133858,"duration":0.23854166666677656},{"name":"G#3","midi":56,"time":162.78958333333588,"velocity":0.25196850393700787,"duration":0.19895833333333712},{"name":"G#2","midi":44,"time":162.80000000000254,"velocity":0.2283464566929134,"duration":0.23750000000001137},{"name":"E3","midi":52,"time":162.80625000000254,"velocity":0.1968503937007874,"duration":0.17500000000001137},{"name":"G#2","midi":44,"time":163.21562500000255,"velocity":0.28346456692913385,"duration":0.23854166666677656},{"name":"G#3","midi":56,"time":163.21562500000255,"velocity":0.2992125984251969,"duration":0.2145833333334508},{"name":"E3","midi":52,"time":163.22187500000254,"velocity":0.31496062992125984,"duration":0.18541666666678225},{"name":"G#3","midi":56,"time":163.60937500000264,"velocity":0.28346456692913385,"duration":0.0625},{"name":"G#2","midi":44,"time":163.6354166666693,"velocity":0.25984251968503935,"duration":0.06666666666666288},{"name":"E3","midi":52,"time":163.6447916666693,"velocity":0.25196850393700787,"duration":0.015625},{"name":"F#3","midi":54,"time":164.01875000000268,"velocity":0.3779527559055118,"duration":0.2447916666669414},{"name":"C#3","midi":49,"time":164.0333333333361,"velocity":0.4094488188976378,"duration":0.22812500000020464},{"name":"F#2","midi":42,"time":164.0395833333361,"velocity":0.3937007874015748,"duration":0.25625000000019327},{"name":"F#3","midi":54,"time":164.40625000000298,"velocity":0.29133858267716534,"duration":0.22395833333337123},{"name":"F#2","midi":42,"time":164.40729166666966,"velocity":0.09448818897637795,"duration":0.2541666666666913},{"name":"C#3","midi":49,"time":164.40833333333634,"velocity":0.18110236220472442,"duration":0.23125000000001705},{"name":"F#3","midi":54,"time":164.81458333333634,"velocity":0.3937007874015748,"duration":0.2145833333333087},{"name":"F#2","midi":42,"time":164.82604166666968,"velocity":0.2204724409448819,"duration":0.20520833333330302},{"name":"C#3","midi":49,"time":164.83854166666967,"velocity":0.4094488188976378,"duration":0.13958333333332007},{"name":"F#3","midi":54,"time":165.19791666666964,"velocity":0.41732283464566927,"duration":0.15520833333332007},{"name":"C#3","midi":49,"time":165.22291666666965,"velocity":0.3700787401574803,"duration":0.19687499999997726},{"name":"F#2","midi":42,"time":165.23125000000297,"velocity":0.2992125984251969,"duration":0.12812499999998295},{"name":"C#3","midi":49,"time":165.6052083333363,"velocity":0.3779527559055118,"duration":0.21458333333333712},{"name":"G#3","midi":56,"time":165.61354166666962,"velocity":0.4094488188976378,"duration":0.23229166666666856},{"name":"F#2","midi":42,"time":165.61562500000295,"velocity":0.3779527559055118,"duration":0.23854166666666288},{"name":"G#3","midi":56,"time":166.00625000000295,"velocity":0.4645669291338583,"duration":0.23229166666669698},{"name":"F#2","midi":42,"time":166.02500000000296,"velocity":0.3464566929133858,"duration":0.21979166666667993},{"name":"C#3","midi":49,"time":166.02916666666962,"velocity":0.4251968503937008,"duration":0.1927083333333428},{"name":"G#3","midi":56,"time":166.3958333333363,"velocity":0.5118110236220472,"duration":0.26770833333335986},{"name":"C#3","midi":49,"time":166.4114583333363,"velocity":0.3937007874015748,"duration":0.2333333333333485},{"name":"F#2","midi":42,"time":166.41875000000297,"velocity":0.4330708661417323,"duration":0.2239583333333428},{"name":"G#3","midi":56,"time":166.81458333333632,"velocity":0.49606299212598426,"duration":0.08750000000000568},{"name":"F#2","midi":42,"time":166.821875000003,"velocity":0.3858267716535433,"duration":0.1666666666666572},{"name":"C#3","midi":49,"time":166.82395833333632,"velocity":0.49606299212598426,"duration":0.12187499999998863},{"name":"E3","midi":52,"time":167.20520833333632,"velocity":0.4251968503937008,"duration":0.27187500000027853},{"name":"B2","midi":47,"time":167.22395833333633,"velocity":0.36220472440944884,"duration":0.2614583333335929},{"name":"E2","midi":40,"time":167.228125000003,"velocity":0.3228346456692913,"duration":0.23541666666693573},{"name":"E3","midi":52,"time":167.6343750000033,"velocity":0.28346456692913385,"duration":0.1833333333333087},{"name":"B2","midi":47,"time":167.63854166666997,"velocity":0.2677165354330709,"duration":0.17916666666664582},{"name":"E2","midi":40,"time":167.65312500000329,"velocity":0.28346456692913385,"duration":0.23333333333332007},{"name":"E3","midi":52,"time":168.00416666666993,"velocity":0.4330708661417323,"duration":0.22708333333332575},{"name":"B2","midi":47,"time":168.01666666666992,"velocity":0.36220472440944884,"duration":0.24791666666666856},{"name":"E2","midi":40,"time":168.04270833333658,"velocity":0.25984251968503935,"duration":0.2072916666666913},{"name":"B2","midi":47,"time":168.41666666666993,"velocity":0.25196850393700787,"duration":0.17083333333332007},{"name":"E3","midi":52,"time":168.42291666666992,"velocity":0.44881889763779526,"duration":0.13229166666667425},{"name":"E2","midi":40,"time":168.43229166666993,"velocity":0.33858267716535434,"duration":0.14270833333333144},{"name":"F#3","midi":54,"time":168.82916666666992,"velocity":0.6535433070866141,"duration":0.18333333333333712},{"name":"B2","midi":47,"time":168.87187500000326,"velocity":0.30708661417322836,"duration":0.21770833333332007},{"name":"E2","midi":40,"time":168.87604166666992,"velocity":0.28346456692913385,"duration":0.11666666666667425},{"name":"F#3","midi":54,"time":169.2447916666699,"velocity":0.3937007874015748,"duration":0.17812499999999432},{"name":"B2","midi":47,"time":169.27812500000323,"velocity":0.2992125984251969,"duration":0.1729166666666515},{"name":"E2","midi":40,"time":169.32083333333657,"velocity":0.2204724409448819,"duration":0.053124999999994316},{"name":"B2","midi":47,"time":169.6531250000032,"velocity":0.2283464566929134,"duration":0.22083333333333144},{"name":"E3","midi":52,"time":169.65729166666986,"velocity":0.49606299212598426,"duration":0.17395833333333144},{"name":"E2","midi":40,"time":169.6843750000032,"velocity":0.36220472440944884,"duration":0.15312499999998863},{"name":"E3","midi":52,"time":170.06041666666985,"velocity":0.3779527559055118,"duration":0.10520833333333712},{"name":"B2","midi":47,"time":170.07500000000317,"velocity":0.33070866141732286,"duration":0.08125000000001137},{"name":"E2","midi":40,"time":170.10416666666984,"velocity":0.2440944881889764,"duration":0.10416666666668561},{"name":"D3","midi":50,"time":170.46770833333653,"velocity":0.4094488188976378,"duration":0.28333333333361566},{"name":"A2","midi":45,"time":170.47083333333654,"velocity":0.3858267716535433,"duration":0.27291666666693004},{"name":"D2","midi":38,"time":170.50312500000322,"velocity":0.3464566929133858,"duration":0.2802083333336043},{"name":"A2","midi":45,"time":170.89270833333683,"velocity":0.16535433070866143,"duration":0.203125},{"name":"D2","midi":38,"time":170.89479166667016,"velocity":0.14173228346456693,"duration":0.2239583333333428},{"name":"D3","midi":50,"time":170.9062500000035,"velocity":0.23622047244094488,"duration":0.19895833333333712},{"name":"D3","midi":50,"time":171.2812500000035,"velocity":0.36220472440944884,"duration":0.17395833333333144},{"name":"A2","midi":45,"time":171.29166666667015,"velocity":0.29133858267716534,"duration":0.1864583333333485},{"name":"D2","midi":38,"time":171.29479166667016,"velocity":0.2283464566929134,"duration":0.19374999999999432},{"name":"D3","midi":50,"time":171.68020833333682,"velocity":0.36220472440944884,"duration":0.15729166666667993},{"name":"A2","midi":45,"time":171.6812500000035,"velocity":0.31496062992125984,"duration":0.16354166666667425},{"name":"D2","midi":38,"time":171.69166666667016,"velocity":0.25984251968503935,"duration":0.16250000000002274},{"name":"D2","midi":38,"time":172.0510416666702,"velocity":0.33858267716535434,"duration":0.15624999999997158},{"name":"A2","midi":45,"time":172.05312500000352,"velocity":0.33070866141732286,"duration":0.1364583333333087},{"name":"D3","midi":50,"time":172.06770833333684,"velocity":0.2755905511811024,"duration":0.13749999999998863},{"name":"A2","midi":45,"time":172.48020833333683,"velocity":0.25984251968503935,"duration":0.16875000000001705},{"name":"D3","midi":50,"time":172.48541666667018,"velocity":0.30708661417322836,"duration":0.1875},{"name":"D2","midi":38,"time":172.49895833333684,"velocity":0.25196850393700787,"duration":0.11041666666667993},{"name":"D3","midi":50,"time":172.85729166667016,"velocity":0.3543307086614173,"duration":0.22916666666668561},{"name":"A2","midi":45,"time":172.86145833333683,"velocity":0.28346456692913385,"duration":0.20104166666666856},{"name":"D2","midi":38,"time":172.88333333333682,"velocity":0.2992125984251969,"duration":0.18229166666668561},{"name":"D2","midi":38,"time":173.25000000000352,"velocity":0.3543307086614173,"duration":0.13229166666667425},{"name":"A2","midi":45,"time":173.2510416666702,"velocity":0.3858267716535433,"duration":0.1260416666666515},{"name":"D3","midi":50,"time":173.25312500000354,"velocity":0.4409448818897638,"duration":0.16562500000000568},{"name":"E3","midi":52,"time":173.64375000000354,"velocity":0.44881889763779526,"duration":0.29166666666685614},{"name":"B2","midi":47,"time":173.65208333333686,"velocity":0.4251968503937008,"duration":0.27604166666685614},{"name":"E2","midi":40,"time":173.65833333333686,"velocity":0.3858267716535433,"duration":0.24270833333349628},{"name":"E3","midi":52,"time":174.0416666666704,"velocity":0.28346456692913385,"duration":0.23020833333336554},{"name":"B2","midi":47,"time":174.0479166666704,"velocity":0.25196850393700787,"duration":0.24479166666671404},{"name":"E2","midi":40,"time":174.11250000000376,"velocity":0.25984251968503935,"duration":0.11250000000001137},{"name":"E3","midi":52,"time":174.43854166667046,"velocity":0.4409448818897638,"duration":0.24895833333332007},{"name":"E2","midi":40,"time":174.45312500000378,"velocity":0.3543307086614173,"duration":0.22708333333332575},{"name":"B2","midi":47,"time":174.4552083333371,"velocity":0.4015748031496063,"duration":0.2604166666666572},{"name":"B2","midi":47,"time":174.8270833333371,"velocity":0.2283464566929134,"duration":0.25104166666667993},{"name":"E3","midi":52,"time":174.83437500000377,"velocity":0.44881889763779526,"duration":0.18854166666667993},{"name":"E2","midi":40,"time":174.85729166667045,"velocity":0.3228346456692913,"duration":0.20625000000001137},{"name":"E3","midi":52,"time":175.2177083333371,"velocity":0.4330708661417323,"duration":0.1979166666666572},{"name":"B2","midi":47,"time":175.21979166667043,"velocity":0.2755905511811024,"duration":0.24791666666666856},{"name":"E2","midi":40,"time":175.23229166667042,"velocity":0.3779527559055118,"duration":0.1927083333333428},{"name":"B2","midi":47,"time":175.59479166667043,"velocity":0.29133858267716534,"duration":0.27812500000001705},{"name":"E3","midi":52,"time":175.6052083333371,"velocity":0.4251968503937008,"duration":0.2385416666666913},{"name":"E2","midi":40,"time":175.6083333333371,"velocity":0.3700787401574803,"duration":0.26770833333335986},{"name":"B2","midi":47,"time":176.0062500000038,"velocity":0.3779527559055118,"duration":0.25208333333333144},{"name":"E3","midi":52,"time":176.00833333333713,"velocity":0.47244094488188976,"duration":0.24687499999998863},{"name":"E2","midi":40,"time":176.0156250000038,"velocity":0.4015748031496063,"duration":0.2291666666666572},{"name":"B2","midi":47,"time":176.3875000000038,"velocity":0.30708661417322836,"duration":0.12604166666670835},{"name":"E2","midi":40,"time":176.3968750000038,"velocity":0.4094488188976378,"duration":0.08645833333335418},{"name":"E3","midi":52,"time":176.40208333333715,"velocity":0.36220472440944884,"duration":0.10416666666668561},{"name":"F#3","midi":54,"time":176.79375000000383,"velocity":0.6299212598425197,"duration":0.26979166666700394},{"name":"F#2","midi":42,"time":176.80833333333717,"velocity":0.44881889763779526,"duration":0.2541666666669755},{"name":"C#3","midi":49,"time":176.80833333333717,"velocity":0.5354330708661418,"duration":0.26666666666699257},{"name":"F#3","midi":54,"time":177.19166666667084,"velocity":0.3858267716535433,"duration":0.25312500000001137},{"name":"C#3","midi":49,"time":177.19479166667085,"velocity":0.2204724409448819,"duration":0.28125},{"name":"F#2","midi":42,"time":177.20312500000418,"velocity":0.3228346456692913,"duration":0.23750000000001137},{"name":"F#3","midi":54,"time":177.58854166667086,"velocity":0.5826771653543307,"duration":0.24791666666666856},{"name":"C#3","midi":49,"time":177.59895833333752,"velocity":0.4409448818897638,"duration":0.2645833333333485},{"name":"F#2","midi":42,"time":177.6062500000042,"velocity":0.4645669291338583,"duration":0.22604166666667425},{"name":"F#3","midi":54,"time":177.99479166667086,"velocity":0.5590551181102362,"duration":0.19895833333333712},{"name":"F#2","midi":42,"time":178.0062500000042,"velocity":0.3937007874015748,"duration":0.23958333333331439},{"name":"C#3","midi":49,"time":178.01979166667087,"velocity":0.4094488188976378,"duration":0.2135416666666572},{"name":"G#3","midi":56,"time":178.4031250000042,"velocity":0.5354330708661418,"duration":0.25312500000001137},{"name":"C#3","midi":49,"time":178.4062500000042,"velocity":0.4881889763779528,"duration":0.28437500000001137},{"name":"F#2","midi":42,"time":178.41145833333755,"velocity":0.4645669291338583,"duration":0.1822916666666572},{"name":"C#3","midi":49,"time":178.7854166666709,"velocity":0.31496062992125984,"duration":0.3166666666666629},{"name":"G#3","midi":56,"time":178.78958333333756,"velocity":0.5039370078740157,"duration":0.20104166666666856},{"name":"F#2","midi":42,"time":178.7979166666709,"velocity":0.3858267716535433,"duration":0.23750000000001137},{"name":"F#3","midi":54,"time":179.19583333333756,"velocity":0.49606299212598426,"duration":0.20208333333332007},{"name":"C#3","midi":49,"time":179.1979166666709,"velocity":0.33070866141732286,"duration":0.2906250000000057},{"name":"F#2","midi":42,"time":179.2135416666709,"velocity":0.4409448818897638,"duration":0.22291666666666288},{"name":"C#3","midi":49,"time":179.5729166666709,"velocity":0.2755905511811024,"duration":0.2177083333333485},{"name":"F#3","midi":54,"time":179.58020833333757,"velocity":0.5196850393700787,"duration":0.14791666666667425},{"name":"F#2","midi":42,"time":179.60312500000424,"velocity":0.4409448818897638,"duration":0.21458333333333712},{"name":"E3","midi":52,"time":179.98125000000425,"velocity":0.4881889763779528,"duration":0.2645833333336043},{"name":"B2","midi":47,"time":179.99479166667092,"velocity":0.4566929133858268,"duration":0.40520833333366113},{"name":"E2","midi":40,"time":180.0177083333376,"velocity":0.4094488188976378,"duration":0.2750000000003183},{"name":"B2","midi":47,"time":180.40000000000458,"velocity":0.1968503937007874,"duration":0.24374999999997726},{"name":"E3","midi":52,"time":180.44479166667125,"velocity":0.33070866141732286,"duration":0.17499999999998295},{"name":"E2","midi":40,"time":180.4489583333379,"velocity":0.1968503937007874,"duration":0.19999999999998863},{"name":"E3","midi":52,"time":180.79791666667123,"velocity":0.3700787401574803,"duration":0.23541666666667993},{"name":"B2","midi":47,"time":180.8020833333379,"velocity":0.3464566929133858,"duration":0.24479166666668561},{"name":"E2","midi":40,"time":180.82500000000456,"velocity":0.28346456692913385,"duration":0.1770833333333428},{"name":"E3","midi":52,"time":181.1906250000046,"velocity":0.3464566929133858,"duration":0.19895833333333712},{"name":"B2","midi":47,"time":181.19270833333792,"velocity":0.3228346456692913,"duration":0.25312500000001137},{"name":"E2","midi":40,"time":181.2093750000046,"velocity":0.2677165354330709,"duration":0.19999999999998863},{"name":"B2","midi":47,"time":181.58645833333793,"velocity":0.4645669291338583,"duration":0.39270833333335986},{"name":"E3","midi":52,"time":181.59583333333794,"velocity":0.44881889763779526,"duration":0.22187500000001137},{"name":"E2","midi":40,"time":181.60520833333794,"velocity":0.3779527559055118,"duration":0.22604166666667425},{"name":"B2","midi":47,"time":181.9791666666713,"velocity":0.14960629921259844,"duration":0.24374999999997726},{"name":"E3","midi":52,"time":181.9947916666713,"velocity":0.3858267716535433,"duration":0.16874999999998863},{"name":"E2","midi":40,"time":182.01666666667128,"velocity":0.33858267716535434,"duration":0.13229166666667425},{"name":"E3","midi":52,"time":182.39270833333794,"velocity":0.3700787401574803,"duration":0.19583333333335418},{"name":"E2","midi":40,"time":182.39375000000462,"velocity":0.36220472440944884,"duration":0.21458333333333712},{"name":"B2","midi":47,"time":182.39583333333795,"velocity":0.4566929133858268,"duration":0.22604166666667425},{"name":"B2","midi":47,"time":182.78750000000463,"velocity":0.36220472440944884,"duration":0.08229166666666288},{"name":"E3","midi":52,"time":182.79583333333795,"velocity":0.29133858267716534,"duration":0.06354166666667993},{"name":"E2","midi":40,"time":182.79895833333796,"velocity":0.33858267716535434,"duration":0.13437500000000568},{"name":"A2","midi":45,"time":183.1916666666713,"velocity":0.44881889763779526,"duration":0.28020833333357587},{"name":"D3","midi":50,"time":183.19583333333796,"velocity":0.4645669291338583,"duration":0.24791666666689594},{"name":"D2","midi":38,"time":183.2125000000047,"velocity":0.41732283464566927,"duration":0.24270833333349628},{"name":"A2","midi":45,"time":183.58750000000487,"velocity":0.23622047244094488,"duration":0.22187500000001137},{"name":"D3","midi":50,"time":183.5958333333382,"velocity":0.3464566929133858,"duration":0.21458333333336554},{"name":"D2","midi":38,"time":183.6250000000049,"velocity":0.25984251968503935,"duration":0.11979166666665719},{"name":"D3","midi":50,"time":183.95729166667155,"velocity":0.47244094488188976,"duration":0.21979166666667993},{"name":"A2","midi":45,"time":183.96354166667155,"velocity":0.4645669291338583,"duration":0.28229166666667993},{"name":"D2","midi":38,"time":183.9687500000049,"velocity":0.4409448818897638,"duration":0.23854166666666288},{"name":"A2","midi":45,"time":184.33958333333823,"velocity":0.31496062992125984,"duration":0.25},{"name":"D3","midi":50,"time":184.34895833333823,"velocity":0.5196850393700787,"duration":0.18020833333332575},{"name":"D2","midi":38,"time":184.3531250000049,"velocity":0.4015748031496063,"duration":0.203125},{"name":"A2","midi":45,"time":184.7375000000049,"velocity":0.4094488188976378,"duration":0.2041666666666515},{"name":"E3","midi":52,"time":184.74583333333823,"velocity":0.47244094488188976,"duration":0.16249999999999432},{"name":"D2","midi":38,"time":184.7500000000049,"velocity":0.3779527559055118,"duration":0.1510416666666572},{"name":"A2","midi":45,"time":185.13645833333823,"velocity":0.3937007874015748,"duration":0.21875},{"name":"E3","midi":52,"time":185.14270833333822,"velocity":0.4094488188976378,"duration":0.19479166666667425},{"name":"D2","midi":38,"time":185.1500000000049,"velocity":0.3700787401574803,"duration":0.22812500000000568},{"name":"E3","midi":52,"time":185.52916666667156,"velocity":0.49606299212598426,"duration":0.2770833333333371},{"name":"A2","midi":45,"time":185.53229166667157,"velocity":0.5118110236220472,"duration":0.28333333333333144},{"name":"D2","midi":38,"time":185.5343750000049,"velocity":0.4566929133858268,"duration":0.28437500000001137},{"name":"E3","midi":52,"time":185.92395833333825,"velocity":0.48031496062992124,"duration":0.21354166666662877},{"name":"A2","midi":45,"time":185.92604166667158,"velocity":0.3543307086614173,"duration":0.14999999999997726},{"name":"D2","midi":38,"time":185.93645833333824,"velocity":0.47244094488188976,"duration":0.1520833333333087},{"name":"E3","midi":52,"time":186.32291666667155,"velocity":0.5118110236220472,"duration":0.322916666666913},{"name":"B2","midi":47,"time":186.32604166667156,"velocity":0.49606299212598426,"duration":0.3239583333335645},{"name":"E2","midi":40,"time":186.34270833333824,"velocity":0.4645669291338583,"duration":0.2739583333335247},{"name":"B2","midi":47,"time":186.74583333333848,"velocity":0.33070866141732286,"duration":0.24374999999997726},{"name":"E3","midi":52,"time":186.7541666666718,"velocity":0.3464566929133858,"duration":0.20520833333333144},{"name":"E2","midi":40,"time":186.76458333333846,"velocity":0.4015748031496063,"duration":0.17812499999999432},{"name":"B2","midi":47,"time":187.13020833333846,"velocity":0.3937007874015748,"duration":0.2541666666666913},{"name":"E2","midi":40,"time":187.1322916666718,"velocity":0.4251968503937008,"duration":0.22916666666668561},{"name":"E3","midi":52,"time":187.13333333333847,"velocity":0.47244094488188976,"duration":0.19687500000000568},{"name":"E2","midi":40,"time":187.51875000000516,"velocity":0.4566929133858268,"duration":0.14895833333335418},{"name":"E3","midi":52,"time":187.52187500000517,"velocity":0.3937007874015748,"duration":0.12291666666666856},{"name":"B2","midi":47,"time":187.52812500000516,"velocity":0.4330708661417323,"duration":0.15416666666666856},{"name":"B2","midi":47,"time":187.93020833333853,"velocity":0.3779527559055118,"duration":0.26666666666682204},{"name":"F#3","midi":54,"time":187.93020833333853,"velocity":0.5590551181102362,"duration":0.21250000000017621},{"name":"E2","midi":40,"time":187.95000000000528,"velocity":0.3937007874015748,"duration":0.20312500000008527},{"name":"F#3","midi":54,"time":188.33750000000538,"velocity":0.49606299212598426,"duration":0.23749999999998295},{"name":"B2","midi":47,"time":188.37500000000537,"velocity":0.3700787401574803,"duration":0.2333333333333485},{"name":"E2","midi":40,"time":188.38750000000536,"velocity":0.29133858267716534,"duration":0.21979166666667993},{"name":"B2","midi":47,"time":188.74791666667204,"velocity":0.2755905511811024,"duration":0.2916666666666572},{"name":"F#3","midi":54,"time":188.75104166667205,"velocity":0.5590551181102362,"duration":0.21562499999998863},{"name":"E2","midi":40,"time":188.76458333333872,"velocity":0.4015748031496063,"duration":0.20833333333331439},{"name":"B2","midi":47,"time":189.14791666667202,"velocity":0.25196850393700787,"duration":0.1354166666666572},{"name":"F#3","midi":54,"time":189.14791666667202,"velocity":0.48031496062992124,"duration":0.32083333333332575},{"name":"E2","midi":40,"time":189.17500000000535,"velocity":0.33070866141732286,"duration":0.08229166666666288},{"name":"F#3","midi":54,"time":189.53125000000534,"velocity":0.6299212598425197,"duration":0.30520833333355313},{"name":"F#2","midi":42,"time":189.54062500000535,"velocity":0.5905511811023622,"duration":0.2885416666668732},{"name":"C#3","midi":49,"time":189.54479166667204,"velocity":0.6062992125984252,"duration":0.3083333333335361},{"name":"F#3","midi":54,"time":189.95520833333893,"velocity":0.5039370078740157,"duration":0.22187500000001137},{"name":"C#3","midi":49,"time":189.9562500000056,"velocity":0.3543307086614173,"duration":0.26770833333333144},{"name":"F#2","midi":42,"time":189.9729166666723,"velocity":0.44881889763779526,"duration":0.1979166666666572},{"name":"F#3","midi":54,"time":190.33437500000562,"velocity":0.5826771653543307,"duration":0.2562499999999659},{"name":"F#2","midi":42,"time":190.34270833333895,"velocity":0.4645669291338583,"duration":0.22812499999997726},{"name":"C#3","midi":49,"time":190.3531250000056,"velocity":0.44881889763779526,"duration":0.25937499999997726},{"name":"F#3","midi":54,"time":190.73750000000558,"velocity":0.5826771653543307,"duration":0.25208333333333144},{"name":"F#2","midi":42,"time":190.75104166667225,"velocity":0.48031496062992124,"duration":0.20937499999999432},{"name":"C#3","midi":49,"time":190.75729166667224,"velocity":0.5826771653543307,"duration":0.2541666666666629},{"name":"G#3","midi":56,"time":191.13437500000558,"velocity":0.6535433070866141,"duration":0.24062499999999432},{"name":"F#2","midi":42,"time":191.13958333333892,"velocity":0.49606299212598426,"duration":0.24062499999999432},{"name":"C#3","midi":49,"time":191.1458333333389,"velocity":0.5196850393700787,"duration":0.27291666666667425},{"name":"C#3","midi":49,"time":191.52291666667224,"velocity":0.33858267716535434,"duration":0.35208333333332575},{"name":"G#3","midi":56,"time":191.52916666667224,"velocity":0.6299212598425197,"duration":0.22187500000001137},{"name":"F#2","midi":42,"time":191.54479166667224,"velocity":0.5354330708661418,"duration":0.2770833333333371},{"name":"C#3","midi":49,"time":191.9333333333389,"velocity":0.3543307086614173,"duration":0.32604166666664014},{"name":"F#3","midi":54,"time":191.94166666667223,"velocity":0.6535433070866141,"duration":0.234375},{"name":"F#2","midi":42,"time":191.95104166667224,"velocity":0.5511811023622047,"duration":0.23333333333332007},{"name":"C#3","midi":49,"time":192.31562500000555,"velocity":0.33070866141732286,"duration":0.17395833333333144},{"name":"F#3","midi":54,"time":192.32916666667222,"velocity":0.6299212598425197,"duration":0.13645833333333712},{"name":"F#2","midi":42,"time":192.34895833333889,"velocity":0.5275590551181102,"duration":0.18958333333333144},{"name":"E3","midi":52,"time":192.74062500000556,"velocity":0.5196850393700787,"duration":0.26979166666686183},{"name":"B2","midi":47,"time":192.75520833333894,"velocity":0.49606299212598426,"duration":0.29895833333350197},{"name":"E2","midi":40,"time":192.76458333333898,"velocity":0.5354330708661418,"duration":0.23333333333346218},{"name":"B2","midi":47,"time":193.14375000000578,"velocity":0.2677165354330709,"duration":0.2541666666666629},{"name":"E3","midi":52,"time":193.15104166667246,"velocity":0.4251968503937008,"duration":0.2041666666666515},{"name":"E2","midi":40,"time":193.1687500000058,"velocity":0.3858267716535433,"duration":0.20937499999999432},{"name":"E3","midi":52,"time":193.5583333333391,"velocity":0.4881889763779528,"duration":0.21666666666669698},{"name":"B2","midi":47,"time":193.56354166667245,"velocity":0.44881889763779526,"duration":0.2020833333333485},{"name":"E2","midi":40,"time":193.57708333333912,"velocity":0.3543307086614173,"duration":0.11875000000000568},{"name":"B2","midi":47,"time":193.96145833333912,"velocity":0.33858267716535434,"duration":0.24687499999998863},{"name":"E3","midi":52,"time":193.97708333333912,"velocity":0.3464566929133858,"duration":0.17499999999998295},{"name":"E2","midi":40,"time":194.01458333333912,"velocity":0.2204724409448819,"duration":0.06458333333333144},{"name":"B2","midi":47,"time":194.35104166667244,"velocity":0.28346456692913385,"duration":0.6479166666667027},{"name":"E3","midi":52,"time":194.35416666667246,"velocity":0.4330708661417323,"duration":0.21458333333333712},{"name":"E2","midi":40,"time":194.37395833333912,"velocity":0.44881889763779526,"duration":0.24479166666668561},{"name":"E3","midi":52,"time":194.76145833333914,"velocity":0.4094488188976378,"duration":0.20625000000001137},{"name":"E2","midi":40,"time":194.77812500000582,"velocity":0.4094488188976378,"duration":0.1822916666666572},{"name":"B2","midi":47,"time":195.14270833333916,"velocity":0.5118110236220472,"duration":0.3854166666666856},{"name":"E3","midi":52,"time":195.1447916666725,"velocity":0.49606299212598426,"duration":0.2604166666666856},{"name":"E2","midi":40,"time":195.17812500000582,"velocity":0.3464566929133858,"duration":0.22187500000001137},{"name":"B2","midi":47,"time":195.52812500000584,"velocity":0.11023622047244094,"duration":0.1458333333333428},{"name":"E3","midi":52,"time":195.54375000000584,"velocity":0.3858267716535433,"duration":0.09479166666667993},{"name":"E2","midi":40,"time":195.5729166666725,"velocity":0.3937007874015748,"duration":0.12708333333333144},{"name":"A2","midi":45,"time":195.96250000000586,"velocity":0.5590551181102362,"duration":0.27916666666692436},{"name":"D3","midi":50,"time":195.96250000000586,"velocity":0.5826771653543307,"duration":0.2875000000002501},{"name":"D2","midi":38,"time":195.97604166667256,"velocity":0.5275590551181102,"duration":0.27395833333355313},{"name":"D3","midi":50,"time":196.39583333333945,"velocity":0.4015748031496063,"duration":0.21458333333333712},{"name":"A2","midi":45,"time":196.4072916666728,"velocity":0.4094488188976378,"duration":0.19583333333332575},{"name":"D2","midi":38,"time":196.41562500000612,"velocity":0.31496062992125984,"duration":0.22083333333333144},{"name":"D3","midi":50,"time":196.77604166667277,"velocity":0.4645669291338583,"duration":0.25104166666667993},{"name":"D2","midi":38,"time":196.77708333333945,"velocity":0.4251968503937008,"duration":0.28437500000001137},{"name":"A2","midi":45,"time":196.78020833333946,"velocity":0.5275590551181102,"duration":0.24270833333332575},{"name":"D3","midi":50,"time":197.15625000000614,"velocity":0.4645669291338583,"duration":0.26770833333333144},{"name":"A2","midi":45,"time":197.15937500000615,"velocity":0.4645669291338583,"duration":0.28020833333332007},{"name":"D2","midi":38,"time":197.1635416666728,"velocity":0.4015748031496063,"duration":0.2927083333333371},{"name":"A2","midi":45,"time":197.54687500000614,"velocity":0.2992125984251969,"duration":0.18125000000000568},{"name":"D2","midi":38,"time":197.55937500000613,"velocity":0.3228346456692913,"duration":0.18750000000002842},{"name":"D3","midi":50,"time":197.56562500000612,"velocity":0.3858267716535433,"duration":0.1302083333333428},{"name":"A2","midi":45,"time":197.92291666667282,"velocity":0.4251968503937008,"duration":0.2760416666666856},{"name":"D3","midi":50,"time":197.92500000000615,"velocity":0.44881889763779526,"duration":0.22812500000000568},{"name":"D2","midi":38,"time":197.93125000000614,"velocity":0.3858267716535433,"duration":0.2583333333333542},{"name":"A2","midi":45,"time":198.3052083333395,"velocity":0.33070866141732286,"duration":0.31041666666664014},{"name":"D3","midi":50,"time":198.31354166667282,"velocity":0.5118110236220472,"duration":0.2729166666666458},{"name":"D2","midi":38,"time":198.31770833333948,"velocity":0.48031496062992124,"duration":0.25833333333332575},{"name":"A2","midi":45,"time":198.70000000000613,"velocity":0.33858267716535434,"duration":0.17083333333332007},{"name":"D3","midi":50,"time":198.71250000000612,"velocity":0.5196850393700787,"duration":0.1927083333333428},{"name":"D2","midi":38,"time":198.71666666667278,"velocity":0.5275590551181102,"duration":0.14479166666666288},{"name":"E3","midi":52,"time":199.11250000000612,"velocity":0.5669291338582677,"duration":0.2989583333336725},{"name":"B2","midi":47,"time":199.11458333333945,"velocity":0.5433070866141733,"duration":0.32083333333369524},{"name":"E2","midi":40,"time":199.12187500000613,"velocity":0.49606299212598426,"duration":0.2697916666669755},{"name":"B2","midi":47,"time":199.5031250000065,"velocity":0.25984251968503935,"duration":0.38437499999997726},{"name":"E3","midi":52,"time":199.51562500000648,"velocity":0.36220472440944884,"duration":0.24791666666666856},{"name":"E2","midi":40,"time":199.5395833333398,"velocity":0.4330708661417323,"duration":0.24375000000000568},{"name":"B2","midi":47,"time":199.88854166667315,"velocity":0.25196850393700787,"duration":0.2958333333333769},{"name":"E3","midi":52,"time":199.90520833333983,"velocity":0.5590551181102362,"duration":0.20416666666667993},{"name":"E2","midi":40,"time":199.92395833333984,"velocity":0.5354330708661418,"duration":0.24375000000000568},{"name":"B2","midi":47,"time":200.26875000000652,"velocity":0.33858267716535434,"duration":0.2802083333333485},{"name":"E3","midi":52,"time":200.27395833333986,"velocity":0.5984251968503937,"duration":0.16041666666666288},{"name":"E2","midi":40,"time":200.28125000000654,"velocity":0.3464566929133858,"duration":0.1979166666666572},{"name":"E2","midi":40,"time":200.6947916666732,"velocity":0.47244094488188976,"duration":0.13125000000002274},{"name":"B2","midi":47,"time":200.70833333333988,"velocity":0.5196850393700787,"duration":0.2333333333333485},{"name":"F#3","midi":54,"time":200.70937500000656,"velocity":0.5590551181102362,"duration":0.22187500000001137},{"name":"F#3","midi":54,"time":201.1114583333399,"velocity":0.6220472440944882,"duration":0.23229166666669698},{"name":"B2","midi":47,"time":201.11666666667324,"velocity":0.4881889763779528,"duration":0.27291666666667425},{"name":"E2","midi":40,"time":201.13750000000658,"velocity":0.4566929133858268,"duration":0.21041666666667425},{"name":"F#3","midi":54,"time":201.51250000000658,"velocity":0.6299212598425197,"duration":0.21041666666667425},{"name":"B2","midi":47,"time":201.5218750000066,"velocity":0.4881889763779528,"duration":0.28125},{"name":"E2","midi":40,"time":201.52708333333993,"velocity":0.4094488188976378,"duration":0.22187499999998295},{"name":"F#3","midi":54,"time":201.9052083333399,"velocity":0.6141732283464567,"duration":0.2822916666666515},{"name":"B2","midi":47,"time":201.9114583333399,"velocity":0.3543307086614173,"duration":0.17604166666666288},{"name":"E2","midi":40,"time":201.9270833333399,"velocity":0.4094488188976378,"duration":0.12187499999998863},{"name":"F#3","midi":54,"time":202.2927083333399,"velocity":0.5669291338582677,"duration":0.28958333333360997},{"name":"F#2","midi":42,"time":202.30312500000656,"velocity":0.6220472440944882,"duration":0.27708333333362134},{"name":"C#3","midi":49,"time":202.31041666667323,"velocity":0.6220472440944882,"duration":0.2958333333336327},{"name":"C#3","midi":49,"time":202.66666666667354,"velocity":0.33858267716535434,"duration":0.37395833333332007},{"name":"F#3","midi":54,"time":202.69375000000687,"velocity":0.5196850393700787,"duration":0.28958333333332575},{"name":"F#2","midi":42,"time":202.70416666667353,"velocity":0.5196850393700787,"duration":0.28125},{"name":"F#3","midi":54,"time":203.10312500000686,"velocity":0.5669291338582677,"duration":0.28437500000001137},{"name":"C#3","midi":49,"time":203.11041666667353,"velocity":0.36220472440944884,"duration":0.3083333333333371},{"name":"F#2","midi":42,"time":203.12187500000687,"velocity":0.6062992125984252,"duration":0.28020833333332007},{"name":"F#3","midi":54,"time":203.51041666667354,"velocity":0.6535433070866141,"duration":0.2604166666666572},{"name":"C#3","midi":49,"time":203.51250000000687,"velocity":0.36220472440944884,"duration":0.2874999999999943},{"name":"F#2","midi":42,"time":203.51354166667355,"velocity":0.5118110236220472,"duration":0.23124999999998863},{"name":"G#3","midi":56,"time":203.90000000000688,"velocity":0.6220472440944882,"duration":0.29583333333340533},{"name":"F#2","midi":42,"time":203.9031250000069,"velocity":0.5905511811023622,"duration":0.2895833333333826},{"name":"C#3","midi":49,"time":203.9125000000069,"velocity":0.4409448818897638,"duration":0.3104166666667254},{"name":"C#3","midi":49,"time":204.27812500000695,"velocity":0.5433070866141733,"duration":0.34270833333332007},{"name":"G#3","midi":56,"time":204.30000000000695,"velocity":0.6062992125984252,"duration":0.2979166666666515},{"name":"F#2","midi":42,"time":204.32187500000694,"velocity":0.5118110236220472,"duration":0.25833333333332575},{"name":"C#3","midi":49,"time":204.67187500000693,"velocity":0.5826771653543307,"duration":0.32499999999998863},{"name":"G#3","midi":56,"time":204.68645833334025,"velocity":0.5748031496062992,"duration":0.24791666666666856},{"name":"F#2","midi":42,"time":204.6979166666736,"velocity":0.5511811023622047,"duration":0.2614583333333371},{"name":"C#3","midi":49,"time":205.08020833334027,"velocity":0.3700787401574803,"duration":0.16875000000001705},{"name":"G#3","midi":56,"time":205.0854166666736,"velocity":0.6456692913385826,"duration":0.11458333333334281},{"name":"F#2","midi":42,"time":205.1010416666736,"velocity":0.5984251968503937,"duration":0.1875},{"name":"B2","midi":47,"time":205.4760416666736,"velocity":0.5511811023622047,"duration":0.37395833333366113},{"name":"E3","midi":52,"time":205.48125000000695,"velocity":0.6220472440944882,"duration":0.24687500000030127},{"name":"E2","midi":40,"time":205.493750000007,"velocity":0.5196850393700787,"duration":0.24375000000026148},{"name":"B2","midi":47,"time":205.85000000000727,"velocity":0.1732283464566929,"duration":0.32499999999998863},{"name":"E3","midi":52,"time":205.87604166667393,"velocity":0.5196850393700787,"duration":0.24062499999999432},{"name":"E2","midi":40,"time":205.90416666667392,"velocity":0.4094488188976378,"duration":0.24166666666667425},{"name":"B2","midi":47,"time":206.26354166667392,"velocity":0.3858267716535433,"duration":0.32083333333332575},{"name":"E3","midi":52,"time":206.27395833334057,"velocity":0.6141732283464567,"duration":0.25208333333333144},{"name":"E2","midi":40,"time":206.28645833334056,"velocity":0.5354330708661418,"duration":0.26666666666667993},{"name":"B2","midi":47,"time":206.66145833334056,"velocity":0.3937007874015748,"duration":0.29583333333332007},{"name":"E3","midi":52,"time":206.66770833334056,"velocity":0.6220472440944882,"duration":0.14479166666666288},{"name":"E2","midi":40,"time":206.68333333334056,"velocity":0.48031496062992124,"duration":0.203125},{"name":"B2","midi":47,"time":207.04895833334055,"velocity":0.3937007874015748,"duration":0.2708333333333428},{"name":"E2","midi":40,"time":207.0697916666739,"velocity":0.3464566929133858,"duration":0.11145833333333144},{"name":"F#2","midi":42,"time":207.1000000000072,"velocity":0.2283464566929134,"duration":0.0625},{"name":"F2","midi":41,"time":207.12395833334054,"velocity":0.13385826771653545,"duration":0.0666666666666913},{"name":"B2","midi":47,"time":207.43333333334056,"velocity":0.3543307086614173,"duration":0.30520833333332575},{"name":"E2","midi":40,"time":207.45729166667388,"velocity":0.4645669291338583,"duration":0.1979166666666572},{"name":"B2","midi":47,"time":207.82708333334054,"velocity":0.5118110236220472,"duration":0.25208333333333144},{"name":"E2","midi":40,"time":207.8312500000072,"velocity":0.5275590551181102,"duration":0.23750000000001137},{"name":"E2","midi":40,"time":208.21666666667386,"velocity":0.4881889763779528,"duration":0.09375},{"name":"B2","midi":47,"time":208.22395833334053,"velocity":0.5748031496062992,"duration":0.07187500000000568},{"name":"D2","midi":38,"time":208.64791666667386,"velocity":0.7244094488188977,"duration":0.7833333333336157},{"name":"A3","midi":57,"time":208.66145833334053,"velocity":0.7244094488188977,"duration":0.661458333333627},{"name":"D3","midi":50,"time":210.5468750000075,"velocity":0.3779527559055118,"duration":0.06874999999999432},{"name":"D4","midi":62,"time":210.55000000000751,"velocity":0.4015748031496063,"duration":0.07291666666665719},{"name":"A3","midi":57,"time":210.5562500000075,"velocity":0.3464566929133858,"duration":0.06458333333333144},{"name":"G#3","midi":56,"time":212.4135416666742,"velocity":0.7480314960629921,"duration":0.5062500000002217},{"name":"E2","midi":40,"time":212.42395833334086,"velocity":0.6299212598425197,"duration":0.588541666666913},{"name":"G#3","midi":56,"time":214.32291666667444,"velocity":0.49606299212598426,"duration":0.36874999999997726},{"name":"E4","midi":64,"time":214.32916666667444,"velocity":0.44881889763779526,"duration":0.31562499999998295},{"name":"G#4","midi":68,"time":214.3489583333411,"velocity":0.3700787401574803,"duration":0.3031249999999943},{"name":"F#2","midi":42,"time":216.18437500000775,"velocity":0.6929133858267716,"duration":0.5572916666668277},{"name":"B3","midi":59,"time":216.1927083333411,"velocity":0.6929133858267716,"duration":0.4697916666667936},{"name":"F#3","midi":54,"time":217.9875000000079,"velocity":0.6220472440944882,"duration":0.140625},{"name":"G#4","midi":68,"time":217.99270833334126,"velocity":0.6692913385826772,"duration":0.11666666666664582},{"name":"C#4","midi":61,"time":218.00520833334124,"velocity":0.6220472440944882,"duration":0.17604166666666288},{"name":"A1","midi":33,"time":219.90520833334125,"velocity":0.6456692913385826,"duration":0.4885416666669755},{"name":"B3","midi":59,"time":219.91770833334127,"velocity":0.6062992125984252,"duration":0.458333333333627},{"name":"A3","midi":57,"time":221.82083333334157,"velocity":0.4881889763779528,"duration":0.18541666666666856},{"name":"E4","midi":64,"time":221.83020833334157,"velocity":0.4645669291338583,"duration":0.09270833333332007},{"name":"B4","midi":71,"time":221.83437500000824,"velocity":0.4251968503937008,"duration":0.05937499999998863},{"name":"A1","midi":33,"time":222.80520833334157,"velocity":0.6220472440944882,"duration":1.042708333333394},{"name":"D1","midi":26,"time":223.83229166667493,"velocity":0.6299212598425197,"duration":0.39687500000027853},{"name":"D3","midi":50,"time":225.44687500000853,"velocity":0.5984251968503937,"duration":0.03229166666667993},{"name":"F#4","midi":66,"time":225.76875000000854,"velocity":0.6535433070866141,"duration":0.054166666666674246},{"name":"D4","midi":62,"time":225.77395833334188,"velocity":0.5590551181102362,"duration":0.053124999999994316},{"name":"E1","midi":28,"time":227.46041666667534,"velocity":0.6929133858267716,"duration":0.07708333333340533},{"name":"G#3","midi":56,"time":227.85104166667546,"velocity":0.6771653543307087,"duration":1.0729166666666856},{"name":"B2","midi":47,"time":227.85833333334213,"velocity":0.5511811023622047,"duration":0.9916666666666742},{"name":"F#3","midi":54,"time":229.71458333334215,"velocity":0.6377952755905512,"duration":1},{"name":"F#4","midi":66,"time":229.71770833334216,"velocity":0.5984251968503937,"duration":0.42395833333333144},{"name":"F#1","midi":30,"time":231.68541666667548,"velocity":0.7322834645669292,"duration":0.2531250000002103},{"name":"F#2","midi":42,"time":231.70000000000886,"velocity":0.6535433070866141,"duration":0.3000000000001819},{"name":"C#3","midi":49,"time":232.58645833334236,"velocity":0.5748031496062992,"duration":0.06875000000002274},{"name":"F#3","midi":54,"time":232.5885416666757,"velocity":0.5275590551181102,"duration":0.06354166666667993},{"name":"F#3","midi":54,"time":233.51875000000905,"velocity":0.5118110236220472,"duration":0.9281249999999943},{"name":"G#4","midi":68,"time":233.52083333334238,"velocity":0.5511811023622047,"duration":0.7072916666666629},{"name":"C#4","midi":61,"time":233.52708333334238,"velocity":0.5511811023622047,"duration":0.8833333333333258},{"name":"G#1","midi":32,"time":235.38437500000904,"velocity":0.7086614173228346,"duration":0.4333333333335645},{"name":"G#2","midi":44,"time":235.82083333334262,"velocity":0.6141732283464567,"duration":0.03645833333334281},{"name":"E3","midi":52,"time":236.23229166667596,"velocity":0.5590551181102362,"duration":0.10208333333335418},{"name":"G#3","midi":56,"time":236.23541666667597,"velocity":0.6614173228346457,"duration":0.11666666666667425},{"name":"G#3","midi":56,"time":237.23645833334265,"velocity":0.5748031496062992,"duration":1.1791666666667027},{"name":"E4","midi":64,"time":237.23958333334267,"velocity":0.5590551181102362,"duration":1.165625000000034},{"name":"G#4","midi":68,"time":237.24062500000935,"velocity":0.6220472440944882,"duration":1.11041666666668},{"name":"D1","midi":26,"time":239.5770833333427,"velocity":0.7244094488188977,"duration":0.479166666666913},{"name":"D2","midi":38,"time":240.11458333334295,"velocity":0.4409448818897638,"duration":0.03437500000001137},{"name":"D2","midi":38,"time":240.4635416666763,"velocity":0.5669291338582677,"duration":0.31458333333333144},{"name":"A2","midi":45,"time":240.83541666667628,"velocity":0.3228346456692913,"duration":0.022916666666674246},{"name":"D4","midi":62,"time":241.22187500000962,"velocity":0.5118110236220472,"duration":0.4145833333333542},{"name":"F#3","midi":54,"time":241.22708333334296,"velocity":0.6377952755905512,"duration":0.3645833333333428},{"name":"F#4","midi":66,"time":241.23020833334297,"velocity":0.5984251968503937,"duration":0.3708333333333371},{"name":"E1","midi":28,"time":242.86875000000964,"velocity":0.7244094488188977,"duration":0.4156250000002899},{"name":"E2","midi":40,"time":243.32083333334327,"velocity":0.3779527559055118,"duration":0.039583333333325754},{"name":"E2","midi":40,"time":243.63437500000992,"velocity":0.3700787401574803,"duration":0.30000000000001137},{"name":"B2","midi":47,"time":243.95833333334326,"velocity":0.44881889763779526,"duration":0.03437500000001137},{"name":"G#3","midi":56,"time":244.33333333334326,"velocity":0.7007874015748031,"duration":0.43958333333333144},{"name":"E4","midi":64,"time":244.33750000000992,"velocity":0.5748031496062992,"duration":0.45416666666667993},{"name":"G#4","midi":68,"time":244.34375000000992,"velocity":0.5826771653543307,"duration":0.4635416666666856},{"name":"F#1","midi":30,"time":246.15625000000995,"velocity":0.7480314960629921,"duration":0.4156250000003183},{"name":"F#2","midi":42,"time":246.57500000001028,"velocity":0.5354330708661418,"duration":0.04999999999998295},{"name":"F#2","midi":42,"time":246.9114583333436,"velocity":0.5905511811023622,"duration":0.3062500000000057},{"name":"A3","midi":57,"time":246.9239583333436,"velocity":0.6062992125984252,"duration":0.27291666666667425},{"name":"C#3","midi":49,"time":247.24479166667695,"velocity":0.4251968503937008,"duration":0.010416666666657193},{"name":"A4","midi":69,"time":247.62291666667693,"velocity":0.6535433070866141,"duration":0.8791666666666629},{"name":"C#4","midi":61,"time":247.62916666667692,"velocity":0.5118110236220472,"duration":0.78125},{"name":"F#3","midi":54,"time":247.63125000001025,"velocity":0.5354330708661418,"duration":0.8062500000000057},{"name":"G#3","midi":56,"time":247.71770833334358,"velocity":0.1889763779527559,"duration":0.004166666666662877},{"name":"G#1","midi":32,"time":249.21354166667695,"velocity":0.7086614173228346,"duration":0.34270833333357587},{"name":"G#2","midi":44,"time":249.5479166666772,"velocity":0.5826771653543307,"duration":0.04895833333333144},{"name":"G#2","midi":44,"time":249.86562500001054,"velocity":0.6062992125984252,"duration":0.32916666666667993},{"name":"A3","midi":57,"time":249.8791666666772,"velocity":0.5669291338582677,"duration":0.33541666666670267},{"name":"C#4","midi":61,"time":250.2114583333439,"velocity":0.6850393700787402,"duration":0.06458333333335986},{"name":"E3","midi":52,"time":250.21979166667725,"velocity":0.4015748031496063,"duration":0.01666666666667993},{"name":"G#3","midi":56,"time":250.65104166667726,"velocity":0.6141732283464567,"duration":0.9291666666666458},{"name":"E4","midi":64,"time":250.6531250000106,"velocity":0.5118110236220472,"duration":0.8979166666666458},{"name":"G#4","midi":68,"time":250.65520833334392,"velocity":0.6062992125984252,"duration":0.8739583333333201},{"name":"D1","midi":26,"time":252.38333333334396,"velocity":0.7244094488188977,"duration":0.3510416666669016},{"name":"D2","midi":38,"time":252.7614583333442,"velocity":0.4251968503937008,"duration":0.03645833333334281},{"name":"A2","midi":45,"time":253.09791666667755,"velocity":0.5826771653543307,"duration":0.28229166666667993},{"name":"D3","midi":50,"time":253.37708333334422,"velocity":0.44881889763779526,"duration":0.03229166666667993},{"name":"D4","midi":62,"time":253.80729166667757,"velocity":0.47244094488188976,"duration":0.2614583333333371},{"name":"F#3","midi":54,"time":253.81145833334423,"velocity":0.6614173228346457,"duration":0.15416666666666856},{"name":"E1","midi":28,"time":255.18229166667757,"velocity":0.6692913385826772,"duration":0.39375000000026716},{"name":"E2","midi":40,"time":255.60104166667784,"velocity":0.41732283464566927,"duration":0.039583333333325754},{"name":"B2","midi":47,"time":255.8958333333445,"velocity":0.47244094488188976,"duration":0.2770833333333371},{"name":"E3","midi":52,"time":256.2000000000112,"velocity":0.3543307086614173,"duration":0.01354166666664014},{"name":"E4","midi":64,"time":256.5885416666778,"velocity":0.4094488188976378,"duration":0.09270833333334849},{"name":"G#3","midi":56,"time":256.5895833333445,"velocity":0.6614173228346457,"duration":0.08854166666668561},{"name":"F#1","midi":30,"time":257.86041666667785,"velocity":0.6692913385826772,"duration":0.3270833333332348},{"name":"F#2","midi":42,"time":258.19687500001106,"velocity":0.5354330708661418,"duration":0.038541666666674246},{"name":"C#3","midi":49,"time":258.49375000001106,"velocity":0.6456692913385826,"duration":0.30416666666667425},{"name":"F#3","midi":54,"time":259.11562500001105,"velocity":0.5275590551181102,"duration":0.35208333333332575},{"name":"C#4","midi":61,"time":259.13437500001106,"velocity":0.5511811023622047,"duration":0.39791666666667425},{"name":"E1","midi":28,"time":260.46250000001106,"velocity":0.6929133858267716,"duration":0.3770833333332462},{"name":"E2","midi":40,"time":260.84166666667767,"velocity":0.5354330708661418,"duration":0.07187499999997726},{"name":"B2","midi":47,"time":261.16666666667766,"velocity":0.6850393700787402,"duration":0.265625},{"name":"E3","midi":52,"time":261.45937500001094,"velocity":0.6929133858267716,"duration":0.11562500000002274},{"name":"G#3","midi":56,"time":261.76979166667763,"velocity":0.6692913385826772,"duration":0.2604166666666856},{"name":"B3","midi":59,"time":262.1104166666777,"velocity":0.6692913385826772,"duration":0.3010416666666629},{"name":"E4","midi":64,"time":262.45104166667767,"velocity":0.6535433070866141,"duration":0.34375},{"name":"C#4","midi":61,"time":262.4541666666777,"velocity":0.7401574803149606,"duration":0.08749999999997726},{"name":"F#4","midi":66,"time":262.884375000011,"velocity":0.6850393700787402,"duration":0.03020833333334849},{"name":"D1","midi":26,"time":263.4677083333443,"velocity":0.6850393700787402,"duration":0.33645833333332575},{"name":"D2","midi":38,"time":263.84375000001097,"velocity":0.3937007874015748,"duration":0.021875000000022737},{"name":"F#3","midi":54,"time":264.737500000011,"velocity":0.6850393700787402,"duration":0.22187499999995453},{"name":"D4","midi":62,"time":264.76250000001096,"velocity":0.36220472440944884,"duration":0.008333333333325754},{"name":"E1","midi":28,"time":265.88750000001096,"velocity":0.6377952755905512,"duration":0.2697916666666629},{"name":"E2","midi":40,"time":266.1770833333443,"velocity":0.4645669291338583,"duration":0.02916666666664014},{"name":"G#3","midi":56,"time":266.99583333334425,"velocity":0.6220472440944882,"duration":0.11458333333331439},{"name":"E4","midi":64,"time":267.00104166667757,"velocity":0.4881889763779528,"duration":0.10208333333332575},{"name":"F#1","midi":30,"time":268.14166666667757,"velocity":0.7165354330708661,"duration":0.2593749999999204},{"name":"F#2","midi":42,"time":268.43333333334414,"velocity":0.4409448818897638,"duration":0.024999999999977263},{"name":"F#3","midi":54,"time":269.26041666667743,"velocity":0.6377952755905512,"duration":0.07395833333333712},{"name":"C#4","midi":61,"time":269.2645833333441,"velocity":0.5905511811023622,"duration":0.07395833333333712},{"name":"G#1","midi":32,"time":270.3531250000107,"velocity":0.7401574803149606,"duration":0.24687499999987494},{"name":"G#2","midi":44,"time":270.6156250000106,"velocity":0.5196850393700787,"duration":0.03541666666666288},{"name":"B3","midi":59,"time":271.4489583333439,"velocity":0.5511811023622047,"duration":0.16145833333337123},{"name":"E4","midi":64,"time":271.45104166667727,"velocity":0.5590551181102362,"duration":0.5052083333333712},{"name":"G#3","midi":56,"time":272.0593750000106,"velocity":0.6377952755905512,"duration":0.20625000000001137},{"name":"D1","midi":26,"time":272.83541666667725,"velocity":0.7244094488188977,"duration":0.29583333333329165},{"name":"D2","midi":38,"time":273.1593750000105,"velocity":0.5354330708661418,"duration":0.03020833333334849},{"name":"F#3","midi":54,"time":273.99062500001054,"velocity":0.6062992125984252,"duration":0.328125},{"name":"A3","midi":57,"time":274.0000000000105,"velocity":0.5354330708661418,"duration":0.42812500000002274},{"name":"E1","midi":28,"time":275.04791666667717,"velocity":0.6692913385826772,"duration":0.2489583333333485},{"name":"E2","midi":40,"time":275.3187500000105,"velocity":0.44881889763779526,"duration":0.02916666666664014},{"name":"F#3","midi":54,"time":276.10625000001045,"velocity":0.6062992125984252,"duration":0.20625000000001137},{"name":"A4","midi":69,"time":276.1104166666771,"velocity":0.6062992125984252,"duration":0.4802083333333371},{"name":"E3","midi":52,"time":276.12500000001046,"velocity":0.3779527559055118,"duration":0.04791666666665151},{"name":"F#1","midi":30,"time":277.12395833334375,"velocity":0.6850393700787402,"duration":0.22187499999995453},{"name":"F#2","midi":42,"time":277.36562500001037,"velocity":0.6062992125984252,"duration":0.024999999999977263},{"name":"F#3","midi":54,"time":278.13750000001033,"velocity":0.6692913385826772,"duration":0.41458333333332575},{"name":"G#1","midi":32,"time":279.31458333334365,"velocity":0.7952755905511811,"duration":0.2822916666666515},{"name":"A#1","midi":34,"time":279.37291666667693,"velocity":0.2283464566929134,"duration":0.07499999999998863},{"name":"G#2","midi":44,"time":279.6093750000103,"velocity":0.6535433070866141,"duration":0.03125},{"name":"F#4","midi":66,"time":279.9395833333436,"velocity":0.12598425196850394,"duration":0.07083333333332575},{"name":"G#3","midi":56,"time":280.3875000000103,"velocity":0.6614173228346457,"duration":0.7281250000000341},{"name":"F#3","midi":54,"time":280.4020833333436,"velocity":0.5354330708661418,"duration":0.6937500000000227},{"name":"A1","midi":33,"time":281.70416666667694,"velocity":0.7716535433070866,"duration":0.2708333333333144},{"name":"A2","midi":45,"time":281.9864583333436,"velocity":0.5669291338582677,"duration":0.03333333333330302},{"name":"A3","midi":57,"time":282.7312500000102,"velocity":0.5354330708661418,"duration":0.09166666666664014},{"name":"B3","midi":59,"time":282.74479166667686,"velocity":0.4645669291338583,"duration":0.15208333333333712},{"name":"G4","midi":67,"time":282.8125000000102,"velocity":0.2992125984251969,"duration":0.004166666666662877},{"name":"B1","midi":35,"time":283.69062500001013,"velocity":0.6692913385826772,"duration":0.20624999999995453},{"name":"B2","midi":47,"time":283.90625000001006,"velocity":0.5984251968503937,"duration":0.0385416666666174},{"name":"C#4","midi":61,"time":284.6177083333434,"velocity":0.49606299212598426,"duration":0.38229166666667425},{"name":"B3","midi":59,"time":284.6604166666767,"velocity":0.3700787401574803,"duration":0.027083333333337123},{"name":"C#2","midi":37,"time":285.5447916666767,"velocity":0.7480314960629921,"duration":0.20729166666666288},{"name":"C#3","midi":49,"time":285.7979166666767,"velocity":0.44881889763779526,"duration":0.010416666666685614},{"name":"B3","midi":59,"time":286.4895833333434,"velocity":0.6062992125984252,"duration":0.08958333333333712},{"name":"D4","midi":62,"time":286.4947916666767,"velocity":0.5748031496062992,"duration":0.09062500000004547},{"name":"E4","midi":64,"time":286.49687500001005,"velocity":0.5275590551181102,"duration":0.05000000000001137},{"name":"D1","midi":26,"time":287.61666666667674,"velocity":0.7637795275590551,"duration":0.3145833333331325},{"name":"D2","midi":38,"time":287.96875000000983,"velocity":0.5039370078740157,"duration":0.03229166666665151},{"name":"D2","midi":38,"time":294.18125000000975,"velocity":0.2125984251968504,"duration":3.0625},{"name":"E2","midi":40,"time":297.1833333333431,"velocity":0.25984251968503935,"duration":3.1552083333333485},{"name":"F#2","midi":42,"time":300.2770833333431,"velocity":0.3228346456692913,"duration":3.3364583333333258},{"name":"A2","midi":45,"time":303.5708333333431,"velocity":0.2204724409448819,"duration":3.1395833333332916},{"name":"D2","midi":38,"time":306.5489583333431,"velocity":0.1968503937007874,"duration":3.2260416666666174},{"name":"E2","midi":40,"time":309.7229166666764,"velocity":0.23622047244094488,"duration":3.1208333333332803},{"name":"F#2","midi":42,"time":312.79166666667635,"velocity":0.28346456692913385,"duration":3.062499999999943},{"name":"A2","midi":45,"time":315.76250000000965,"velocity":0.2677165354330709,"duration":3.1874999999998295},{"name":"D3","midi":50,"time":318.85104166667617,"velocity":0.3464566929133858,"duration":2.984374999999943},{"name":"E3","midi":52,"time":321.7927083333428,"velocity":0.31496062992125984,"duration":2.9479166666664014},{"name":"F#3","midi":54,"time":324.7020833333425,"velocity":0.33858267716535434,"duration":3.0770833333332916},{"name":"A3","midi":57,"time":327.70833333334247,"velocity":0.3937007874015748,"duration":2.898958333333269},{"name":"D3","midi":50,"time":330.5833333333424,"velocity":0.3543307086614173,"duration":3.006249999999909},{"name":"E3","midi":52,"time":333.55416666667566,"velocity":0.2677165354330709,"duration":3.0249999999998636},{"name":"F#3","midi":54,"time":336.47708333334225,"velocity":0.3937007874015748,"duration":3.0156249999998295},{"name":"A3","midi":57,"time":339.41875000000874,"velocity":0.4094488188976378,"duration":3.0802083333331893},{"name":"D3","midi":50,"time":342.36770833334197,"velocity":0.2283464566929134,"duration":3.2822916666665947},{"name":"E3","midi":52,"time":345.5593750000086,"velocity":0.1889763779527559,"duration":3.334374999999966},{"name":"F#3","midi":54,"time":348.80312500000855,"velocity":0.2125984251968504,"duration":3.2843750000000114},{"name":"A3","midi":57,"time":352.02500000000856,"velocity":0.2992125984251969,"duration":3.3593749999998863},{"name":"D3","midi":50,"time":355.2822916666751,"velocity":0.3228346456692913,"duration":3.0572916666666288},{"name":"E3","midi":52,"time":358.38125000000844,"velocity":0.30708661417322836,"duration":2.941666666666606},{"name":"F#3","midi":54,"time":361.35416666667504,"velocity":0.3779527559055118,"duration":3.14583333333303},{"name":"A3","midi":57,"time":364.37083333334147,"velocity":0.47244094488188976,"duration":2.724999999999852},{"name":"D3","midi":50,"time":367.34895833334133,"velocity":0.4409448818897638,"duration":3.0854166666665037},{"name":"E3","midi":52,"time":370.4041666666745,"velocity":0.36220472440944884,"duration":2.9531249999998863},{"name":"F#3","midi":54,"time":373.3947916666744,"velocity":0.4645669291338583,"duration":1.9135416666665037},{"name":"A2","midi":45,"time":376.41354166667423,"velocity":0.4015748031496063,"duration":3.108333333333178},{"name":"D2","midi":38,"time":379.4802083333408,"velocity":0.3228346456692913,"duration":3.219791666666538},{"name":"E2","midi":40,"time":382.67187500000733,"velocity":0.36220472440944884,"duration":3.178124999999852},{"name":"F#2","midi":42,"time":385.8083333333405,"velocity":0.4015748031496063,"duration":3.074999999999932},{"name":"A2","midi":45,"time":388.9104166666737,"velocity":0.3700787401574803,"duration":2.5270833333332803},{"name":"D2","midi":38,"time":392.0229166666736,"velocity":0.47244094488188976,"duration":0.30104166666660603},{"name":"E2","midi":40,"time":395.1250000000068,"velocity":0.5590551181102362,"duration":0.3312499999998977},{"name":"F#2","midi":42,"time":398.1572916666734,"velocity":0.49606299212598426,"duration":0.5135416666665833},{"name":"A2","midi":45,"time":401.25833333334,"velocity":0.6220472440944882,"duration":3.2927083333331097},{"name":"D3","midi":50,"time":404.3947916666732,"velocity":0.5511811023622047,"duration":3.1291666666664355},{"name":"E3","midi":52,"time":407.5500000000063,"velocity":0.5196850393700787,"duration":3.1812499999998636},{"name":"F#3","midi":54,"time":410.7166666666729,"velocity":0.6299212598425197,"duration":2.577083333333121},{"name":"A2","midi":45,"time":413.9333333333393,"velocity":0.6535433070866141,"duration":3.6791666666665606},{"name":"D3","midi":50,"time":417.4833333333392,"velocity":0.30708661417322836,"duration":3.5312499999998863},{"name":"E3","midi":52,"time":420.91979166667244,"velocity":0.30708661417322836,"duration":2.682291666666572},{"name":"F#3","midi":54,"time":424.21979166667234,"velocity":0.3464566929133858,"duration":2.4114583333332007},{"name":"A2","midi":45,"time":427.4302083333388,"velocity":0.28346456692913385,"duration":2.001041666666481},{"name":"D2","midi":38,"time":430.9489583333386,"velocity":0.2283464566929134,"duration":1.5302083333332348},{"name":"E2","midi":40,"time":434.16354166667173,"velocity":0.2755905511811024,"duration":1.7104166666665037},{"name":"F#2","midi":42,"time":437.4093750000049,"velocity":0.33858267716535434,"duration":2.681249999999636},{"name":"A2","midi":45,"time":440.5687500000045,"velocity":0.2440944881889764,"duration":2.5072916666665037},{"name":"D2","midi":38,"time":443.8875000000043,"velocity":0.2440944881889764,"duration":2.893749999999727},{"name":"E2","midi":40,"time":447.1666666666707,"velocity":0.1968503937007874,"duration":2.4916666666665037},{"name":"F#2","midi":42,"time":450.30520833333713,"velocity":0.23622047244094488,"duration":6.273958333333155},{"name":"D2","midi":38,"time":457.5041666666703,"velocity":0.25984251968503935,"duration":2.7437499999998636},{"name":"E2","midi":40,"time":460.85000000000343,"velocity":0.1732283464566929,"duration":2.436458333333235},{"name":"F#2","midi":42,"time":464.0520833333366,"velocity":0.2204724409448819,"duration":5.3885416666665265},{"name":"D2","midi":38,"time":471.3489583333364,"velocity":0.2440944881889764,"duration":2.7062499999998977},{"name":"E2","midi":40,"time":474.9604166666696,"velocity":0.2204724409448819,"duration":3.1635416666665037},{"name":"F#2","midi":42,"time":479.31875000000275,"velocity":0.1889763779527559,"duration":1.5114583333331666}],"controlChanges":{"64":[{"number":64,"time":8.68229166666666,"value":0.7322834645669292},{"number":64,"time":8.683333333333328,"value":0.7322834645669292},{"number":64,"time":8.692708333333329,"value":0.6456692913385826},{"number":64,"time":8.693749999999996,"value":0.6456692913385826},{"number":64,"time":8.70208333333333,"value":0.6141732283464567},{"number":64,"time":8.703124999999998,"value":0.6141732283464567},{"number":64,"time":8.708333333333332,"value":0.5826771653543307},{"number":64,"time":8.709375,"value":0.5826771653543307},{"number":64,"time":8.716666666666667,"value":0.5433070866141733},{"number":64,"time":8.717708333333334,"value":0.5433070866141733},{"number":64,"time":8.725000000000001,"value":0.5039370078740157},{"number":64,"time":8.725000000000001,"value":0.5039370078740157},{"number":64,"time":8.732291666666669,"value":0.47244094488188976},{"number":64,"time":8.732291666666669,"value":0.47244094488188976},{"number":64,"time":8.744791666666668,"value":0.3779527559055118},{"number":64,"time":8.744791666666668,"value":0.3779527559055118},{"number":64,"time":8.820833333333335,"value":0.47244094488188976},{"number":64,"time":8.820833333333335,"value":0.47244094488188976},{"number":64,"time":8.832291666666668,"value":0.5039370078740157},{"number":64,"time":8.833333333333336,"value":0.5039370078740157},{"number":64,"time":8.847916666666668,"value":0.5354330708661418},{"number":64,"time":8.848958333333336,"value":0.5354330708661418},{"number":64,"time":8.888541666666669,"value":0.5669291338582677},{"number":64,"time":8.889583333333336,"value":0.5669291338582677},{"number":64,"time":8.920833333333336,"value":0.5984251968503937},{"number":64,"time":8.921875000000004,"value":0.5984251968503937},{"number":64,"time":8.956250000000004,"value":0.6299212598425197},{"number":64,"time":8.957291666666672,"value":0.6299212598425197},{"number":64,"time":13.64166666666668,"value":0.7322834645669292},{"number":64,"time":13.642708333333347,"value":0.7322834645669292},{"number":64,"time":13.737500000000015,"value":0.6535433070866141},{"number":64,"time":13.738541666666682,"value":0.6535433070866141},{"number":64,"time":13.748958333333348,"value":0.6220472440944882},{"number":64,"time":13.750000000000016,"value":0.6220472440944882},{"number":64,"time":13.76145833333335,"value":0.5905511811023622},{"number":64,"time":13.762500000000017,"value":0.5905511811023622},{"number":64,"time":13.772916666666683,"value":0.5590551181102362},{"number":64,"time":13.77395833333335,"value":0.5590551181102362},{"number":64,"time":13.785416666666684,"value":0.5275590551181102},{"number":64,"time":13.786458333333352,"value":0.5275590551181102},{"number":64,"time":13.796875000000018,"value":0.49606299212598426},{"number":64,"time":13.797916666666685,"value":0.49606299212598426},{"number":64,"time":13.877083333333353,"value":0.5275590551181102},{"number":64,"time":13.87812500000002,"value":0.5275590551181102},{"number":64,"time":13.896875000000021,"value":0.5590551181102362},{"number":64,"time":13.897916666666688,"value":0.5590551181102362},{"number":64,"time":13.933333333333357,"value":0.5905511811023622},{"number":64,"time":13.934375000000024,"value":0.5905511811023622},{"number":64,"time":13.973958333333357,"value":0.6220472440944882},{"number":64,"time":13.975000000000025,"value":0.6220472440944882},{"number":64,"time":14.065625000000024,"value":0.6535433070866141},{"number":64,"time":14.065625000000024,"value":0.6535433070866141},{"number":64,"time":14.492708333333354,"value":0.7559055118110236},{"number":64,"time":14.493750000000022,"value":0.7559055118110236},{"number":64,"time":14.541666666666687,"value":0.6535433070866141},{"number":64,"time":14.542708333333355,"value":0.6535433070866141},{"number":64,"time":14.553125000000021,"value":0.6141732283464567},{"number":64,"time":14.554166666666688,"value":0.6141732283464567},{"number":64,"time":14.564583333333355,"value":0.5826771653543307},{"number":64,"time":14.564583333333355,"value":0.5826771653543307},{"number":64,"time":14.576041666666688,"value":0.5433070866141733},{"number":64,"time":14.577083333333356,"value":0.5433070866141733},{"number":64,"time":14.584375000000023,"value":0.5118110236220472},{"number":64,"time":14.58541666666669,"value":0.5118110236220472},{"number":64,"time":14.592708333333357,"value":0.48031496062992124},{"number":64,"time":14.593750000000025,"value":0.48031496062992124},{"number":64,"time":14.664583333333358,"value":0.5196850393700787},{"number":64,"time":14.665625000000025,"value":0.5196850393700787},{"number":64,"time":14.680208333333358,"value":0.5511811023622047},{"number":64,"time":14.681250000000025,"value":0.5511811023622047},{"number":64,"time":14.709375000000025,"value":0.5905511811023622},{"number":64,"time":14.710416666666692,"value":0.5905511811023622},{"number":64,"time":14.737500000000026,"value":0.6220472440944882},{"number":64,"time":14.738541666666693,"value":0.6220472440944882},{"number":64,"time":14.819791666666694,"value":0.6535433070866141},{"number":64,"time":14.820833333333361,"value":0.6535433070866141},{"number":64,"time":15.328125000000028,"value":0.6220472440944882},{"number":64,"time":15.328125000000028,"value":0.6220472440944882},{"number":64,"time":15.340625000000028,"value":0.5905511811023622},{"number":64,"time":15.341666666666695,"value":0.5905511811023622},{"number":64,"time":15.353125000000029,"value":0.5511811023622047},{"number":64,"time":15.353125000000029,"value":0.5511811023622047},{"number":64,"time":15.360416666666696,"value":0.5118110236220472},{"number":64,"time":15.361458333333363,"value":0.5118110236220472},{"number":64,"time":15.367708333333363,"value":0.47244094488188976},{"number":64,"time":15.36875000000003,"value":0.47244094488188976},{"number":64,"time":15.376041666666698,"value":0.3779527559055118},{"number":64,"time":15.377083333333365,"value":0.3779527559055118},{"number":64,"time":15.464583333333366,"value":0.47244094488188976},{"number":64,"time":15.465625000000033,"value":0.47244094488188976},{"number":64,"time":15.4760416666667,"value":0.5039370078740157},{"number":64,"time":15.477083333333367,"value":0.5039370078740157},{"number":64,"time":15.4885416666667,"value":0.5354330708661418},{"number":64,"time":15.489583333333368,"value":0.5354330708661418},{"number":64,"time":15.528125000000035,"value":0.5669291338582677},{"number":64,"time":15.528125000000035,"value":0.5669291338582677},{"number":64,"time":15.578125000000036,"value":0.5984251968503937},{"number":64,"time":15.579166666666703,"value":0.5984251968503937},{"number":64,"time":15.896875000000037,"value":0.6299212598425197},{"number":64,"time":15.897916666666704,"value":0.6299212598425197},{"number":64,"time":18.786458333333382,"value":0.5984251968503937},{"number":64,"time":18.787500000000048,"value":0.5984251968503937},{"number":64,"time":18.803125000000048,"value":0.5669291338582677},{"number":64,"time":18.804166666666713,"value":0.5669291338582677},{"number":64,"time":18.81145833333338,"value":0.5354330708661418},{"number":64,"time":18.81145833333338,"value":0.5354330708661418},{"number":64,"time":18.818750000000048,"value":0.5039370078740157},{"number":64,"time":18.819791666666713,"value":0.5039370078740157},{"number":64,"time":18.82708333333338,"value":0.47244094488188976},{"number":64,"time":18.828125000000046,"value":0.47244094488188976},{"number":64,"time":18.918750000000045,"value":0.5039370078740157},{"number":64,"time":18.91979166666671,"value":0.5039370078740157},{"number":64,"time":18.931250000000045,"value":0.5354330708661418},{"number":64,"time":18.93229166666671,"value":0.5354330708661418},{"number":64,"time":18.959375000000044,"value":0.5669291338582677},{"number":64,"time":18.96041666666671,"value":0.5669291338582677},{"number":64,"time":19.001041666666712,"value":0.5984251968503937},{"number":64,"time":19.002083333333378,"value":0.5984251968503937},{"number":64,"time":19.03541666666671,"value":0.6299212598425197},{"number":64,"time":19.036458333333375,"value":0.6299212598425197},{"number":64,"time":19.285416666666706,"value":0.7322834645669292},{"number":64,"time":19.28750000000004,"value":0.7322834645669292},{"number":64,"time":19.586458333333372,"value":0.6535433070866141},{"number":64,"time":19.587500000000038,"value":0.6535433070866141},{"number":64,"time":19.597916666666706,"value":0.6220472440944882},{"number":64,"time":19.597916666666706,"value":0.6220472440944882},{"number":64,"time":19.610416666666705,"value":0.5905511811023622},{"number":64,"time":19.61145833333337,"value":0.5905511811023622},{"number":64,"time":19.62187500000004,"value":0.5511811023622047},{"number":64,"time":19.62187500000004,"value":0.5511811023622047},{"number":64,"time":19.635416666666703,"value":0.5196850393700787},{"number":64,"time":19.635416666666703,"value":0.5196850393700787},{"number":64,"time":19.650000000000038,"value":0.4881889763779528},{"number":64,"time":19.651041666666703,"value":0.4881889763779528},{"number":64,"time":19.70208333333337,"value":0.5196850393700787},{"number":64,"time":19.703125000000036,"value":0.5196850393700787},{"number":64,"time":19.726041666666703,"value":0.5511811023622047},{"number":64,"time":19.726041666666703,"value":0.5511811023622047},{"number":64,"time":19.75833333333337,"value":0.5826771653543307},{"number":64,"time":19.759375000000034,"value":0.5826771653543307},{"number":64,"time":19.78958333333337,"value":0.6220472440944882},{"number":64,"time":19.790625000000034,"value":0.6220472440944882},{"number":64,"time":19.837500000000034,"value":0.6535433070866141},{"number":64,"time":19.8385416666667,"value":0.6535433070866141},{"number":64,"time":20.382291666666703,"value":0.6220472440944882},{"number":64,"time":20.38333333333337,"value":0.6220472440944882},{"number":64,"time":20.393750000000036,"value":0.5905511811023622},{"number":64,"time":20.394791666666702,"value":0.5905511811023622},{"number":64,"time":20.406250000000036,"value":0.5511811023622047},{"number":64,"time":20.406250000000036,"value":0.5511811023622047},{"number":64,"time":20.41770833333337,"value":0.5039370078740157},{"number":64,"time":20.418750000000035,"value":0.5039370078740157},{"number":64,"time":20.426041666666702,"value":0.47244094488188976},{"number":64,"time":20.427083333333368,"value":0.47244094488188976},{"number":64,"time":20.5135416666667,"value":0.5039370078740157},{"number":64,"time":20.514583333333366,"value":0.5039370078740157},{"number":64,"time":20.530208333333366,"value":0.5354330708661418},{"number":64,"time":20.531250000000032,"value":0.5354330708661418},{"number":64,"time":20.5697916666667,"value":0.5669291338582677},{"number":64,"time":20.5697916666667,"value":0.5669291338582677},{"number":64,"time":20.614583333333364,"value":0.5984251968503937},{"number":64,"time":20.61562500000003,"value":0.5984251968503937},{"number":64,"time":20.67812500000003,"value":0.6299212598425197},{"number":64,"time":20.679166666666696,"value":0.6299212598425197},{"number":64,"time":25.1541666666667,"value":0.7322834645669292},{"number":64,"time":25.155208333333366,"value":0.7322834645669292},{"number":64,"time":25.406250000000032,"value":0.6535433070866141},{"number":64,"time":25.407291666666698,"value":0.6535433070866141},{"number":64,"time":25.414583333333365,"value":0.6220472440944882},{"number":64,"time":25.414583333333365,"value":0.6220472440944882},{"number":64,"time":25.427083333333364,"value":0.5905511811023622},{"number":64,"time":25.42812500000003,"value":0.5905511811023622},{"number":64,"time":25.438541666666698,"value":0.5511811023622047},{"number":64,"time":25.438541666666698,"value":0.5511811023622047},{"number":64,"time":25.451041666666697,"value":0.5118110236220472},{"number":64,"time":25.452083333333363,"value":0.5118110236220472},{"number":64,"time":25.46250000000003,"value":0.48031496062992124},{"number":64,"time":25.463541666666696,"value":0.48031496062992124},{"number":64,"time":25.53437500000003,"value":0.5196850393700787},{"number":64,"time":25.535416666666695,"value":0.5196850393700787},{"number":64,"time":25.55520833333336,"value":0.5590551181102362},{"number":64,"time":25.55520833333336,"value":0.5590551181102362},{"number":64,"time":25.582291666666695,"value":0.5905511811023622},{"number":64,"time":25.58333333333336,"value":0.5905511811023622},{"number":64,"time":25.61458333333336,"value":0.6220472440944882},{"number":64,"time":25.615625000000026,"value":0.6220472440944882},{"number":64,"time":25.679166666666692,"value":0.6535433070866141},{"number":64,"time":25.679166666666692,"value":0.6535433070866141},{"number":64,"time":26.042708333333355,"value":0.7559055118110236},{"number":64,"time":26.04375000000002,"value":0.7559055118110236},{"number":64,"time":26.13750000000002,"value":0.6614173228346457},{"number":64,"time":26.138541666666686,"value":0.6614173228346457},{"number":64,"time":26.15000000000002,"value":0.6220472440944882},{"number":64,"time":26.151041666666686,"value":0.6220472440944882},{"number":64,"time":26.16250000000002,"value":0.5905511811023622},{"number":64,"time":26.163541666666685,"value":0.5905511811023622},{"number":64,"time":26.173958333333356,"value":0.5511811023622047},{"number":64,"time":26.175000000000022,"value":0.5511811023622047},{"number":64,"time":26.18541666666669,"value":0.5196850393700787},{"number":64,"time":26.186458333333356,"value":0.5196850393700787},{"number":64,"time":26.19791666666669,"value":0.4881889763779528},{"number":64,"time":26.198958333333355,"value":0.4881889763779528},{"number":64,"time":26.253125000000022,"value":0.5196850393700787},{"number":64,"time":26.254166666666688,"value":0.5196850393700787},{"number":64,"time":26.273958333333354,"value":0.5511811023622047},{"number":64,"time":26.27500000000002,"value":0.5511811023622047},{"number":64,"time":26.301041666666688,"value":0.5905511811023622},{"number":64,"time":26.303125000000023,"value":0.5905511811023622},{"number":64,"time":26.330208333333356,"value":0.6220472440944882},{"number":64,"time":26.331250000000022,"value":0.6220472440944882},{"number":64,"time":26.375000000000025,"value":0.6535433070866141},{"number":64,"time":26.37604166666669,"value":0.6535433070866141},{"number":64,"time":26.865625000000026,"value":0.7559055118110236},{"number":64,"time":26.866666666666692,"value":0.7559055118110236},{"number":64,"time":26.971875000000026,"value":0.6535433070866141},{"number":64,"time":26.97291666666669,"value":0.6535433070866141},{"number":64,"time":26.981250000000024,"value":0.6141732283464567},{"number":64,"time":26.98229166666669,"value":0.6141732283464567},{"number":64,"time":26.993750000000023,"value":0.5748031496062992},{"number":64,"time":26.99479166666669,"value":0.5748031496062992},{"number":64,"time":27.002083333333356,"value":0.5433070866141733},{"number":64,"time":27.003125000000022,"value":0.5433070866141733},{"number":64,"time":27.009375000000023,"value":0.5039370078740157},{"number":64,"time":27.01041666666669,"value":0.5039370078740157},{"number":64,"time":27.02604166666669,"value":0.3779527559055118},{"number":64,"time":27.027083333333355,"value":0.3779527559055118},{"number":64,"time":27.111458333333356,"value":0.48031496062992124},{"number":64,"time":27.112500000000022,"value":0.48031496062992124},{"number":64,"time":27.12187500000002,"value":0.5196850393700787},{"number":64,"time":27.122916666666686,"value":0.5196850393700787},{"number":64,"time":27.141666666666687,"value":0.5590551181102362},{"number":64,"time":27.141666666666687,"value":0.5590551181102362},{"number":64,"time":27.190625000000022,"value":0.5905511811023622},{"number":64,"time":27.190625000000022,"value":0.5905511811023622},{"number":64,"time":27.221875000000022,"value":0.6220472440944882},{"number":64,"time":27.222916666666688,"value":0.6220472440944882},{"number":64,"time":27.313541666666687,"value":0.6535433070866141},{"number":64,"time":27.313541666666687,"value":0.6535433070866141},{"number":64,"time":29.101041666666696,"value":0.7559055118110236},{"number":64,"time":29.10208333333336,"value":0.7559055118110236},{"number":64,"time":30.492708333333358,"value":0.6614173228346457},{"number":64,"time":30.493750000000023,"value":0.6614173228346457},{"number":64,"time":30.50416666666669,"value":0.6220472440944882},{"number":64,"time":30.505208333333357,"value":0.6220472440944882},{"number":64,"time":30.51666666666669,"value":0.5826771653543307},{"number":64,"time":30.517708333333356,"value":0.5826771653543307},{"number":64,"time":30.525000000000023,"value":0.5511811023622047},{"number":64,"time":30.525000000000023,"value":0.5511811023622047},{"number":64,"time":30.53229166666669,"value":0.5118110236220472},{"number":64,"time":30.533333333333356,"value":0.5118110236220472},{"number":64,"time":30.540625000000023,"value":0.47244094488188976},{"number":64,"time":30.54166666666669,"value":0.47244094488188976},{"number":64,"time":30.552083333333357,"value":0.3779527559055118},{"number":64,"time":30.553125000000023,"value":0.3779527559055118},{"number":64,"time":30.628125000000022,"value":0.48031496062992124},{"number":64,"time":30.628125000000022,"value":0.48031496062992124},{"number":64,"time":30.641666666666687,"value":0.5196850393700787},{"number":64,"time":30.642708333333353,"value":0.5196850393700787},{"number":64,"time":30.656250000000018,"value":0.5590551181102362},{"number":64,"time":30.657291666666683,"value":0.5590551181102362},{"number":64,"time":30.679166666666685,"value":0.5905511811023622},{"number":64,"time":30.68020833333335,"value":0.5905511811023622},{"number":64,"time":30.69583333333335,"value":0.6220472440944882},{"number":64,"time":30.696875000000016,"value":0.6220472440944882},{"number":64,"time":30.71145833333335,"value":0.6535433070866141},{"number":64,"time":30.712500000000016,"value":0.6535433070866141},{"number":64,"time":30.765625000000018,"value":0.7559055118110236},{"number":64,"time":30.766666666666683,"value":0.7559055118110236},{"number":64,"time":30.883333333333347,"value":0.8503937007874016},{"number":64,"time":30.883333333333347,"value":0.8503937007874016},{"number":64,"time":31.291666666666682,"value":0.7559055118110236},{"number":64,"time":31.292708333333348,"value":0.7559055118110236},{"number":64,"time":31.307291666666682,"value":0.6535433070866141},{"number":64,"time":31.308333333333348,"value":0.6535433070866141},{"number":64,"time":31.313541666666683,"value":0.6141732283464567},{"number":64,"time":31.31458333333335,"value":0.6141732283464567},{"number":64,"time":31.318750000000016,"value":0.5826771653543307},{"number":64,"time":31.31979166666668,"value":0.5826771653543307},{"number":64,"time":31.32708333333335,"value":0.5511811023622047},{"number":64,"time":31.328125000000014,"value":0.5511811023622047},{"number":64,"time":31.33541666666668,"value":0.5196850393700787},{"number":64,"time":31.336458333333347,"value":0.5196850393700787},{"number":64,"time":31.343750000000014,"value":0.4881889763779528},{"number":64,"time":31.34479166666668,"value":0.4881889763779528},{"number":64,"time":31.403125000000014,"value":0.5196850393700787},{"number":64,"time":31.40416666666668,"value":0.5196850393700787},{"number":64,"time":31.41979166666668,"value":0.5590551181102362},{"number":64,"time":31.41979166666668,"value":0.5590551181102362},{"number":64,"time":31.439583333333346,"value":0.5905511811023622},{"number":64,"time":31.44062500000001,"value":0.5905511811023622},{"number":64,"time":31.459375000000012,"value":0.6220472440944882},{"number":64,"time":31.459375000000012,"value":0.6220472440944882},{"number":64,"time":31.47916666666668,"value":0.6535433070866141},{"number":64,"time":31.480208333333344,"value":0.6535433070866141},{"number":64,"time":31.61979166666668,"value":0.7559055118110236},{"number":64,"time":31.61979166666668,"value":0.7559055118110236},{"number":64,"time":32.08645833333334,"value":0.6535433070866141},{"number":64,"time":32.08645833333334,"value":0.6535433070866141},{"number":64,"time":32.09895833333334,"value":0.6141732283464567},{"number":64,"time":32.10000000000001,"value":0.6141732283464567},{"number":64,"time":32.10729166666667,"value":0.5826771653543307},{"number":64,"time":32.10729166666667,"value":0.5826771653543307},{"number":64,"time":32.115625,"value":0.5511811023622047},{"number":64,"time":32.11666666666667,"value":0.5511811023622047},{"number":64,"time":32.12291666666667,"value":0.5118110236220472},{"number":64,"time":32.125,"value":0.5118110236220472},{"number":64,"time":32.13125,"value":0.47244094488188976},{"number":64,"time":32.13229166666667,"value":0.47244094488188976},{"number":64,"time":32.14375,"value":0.3779527559055118},{"number":64,"time":32.14479166666666,"value":0.3779527559055118},{"number":64,"time":32.219791666666666,"value":0.47244094488188976},{"number":64,"time":32.22083333333333,"value":0.47244094488188976},{"number":64,"time":32.23020833333333,"value":0.5118110236220472},{"number":64,"time":32.231249999999996,"value":0.5118110236220472},{"number":64,"time":32.24375,"value":0.5433070866141733},{"number":64,"time":32.244791666666664,"value":0.5433070866141733},{"number":64,"time":32.26770833333333,"value":0.5748031496062992},{"number":64,"time":32.26875,"value":0.5748031496062992},{"number":64,"time":32.29895833333333,"value":0.6062992125984252},{"number":64,"time":32.3,"value":0.6062992125984252},{"number":64,"time":32.32604166666666,"value":0.6377952755905512},{"number":64,"time":32.32708333333333,"value":0.6377952755905512},{"number":64,"time":32.443749999999994,"value":0.7322834645669292},{"number":64,"time":32.44479166666666,"value":0.7322834645669292},{"number":64,"time":33.04270833333332,"value":0.8267716535433071},{"number":64,"time":33.04374999999999,"value":0.8267716535433071},{"number":64,"time":37.1125,"value":0.7322834645669292},{"number":64,"time":37.11354166666666,"value":0.7322834645669292},{"number":64,"time":37.12395833333333,"value":0.6456692913385826},{"number":64,"time":37.12499999999999,"value":0.6456692913385826},{"number":64,"time":37.13229166666666,"value":0.6062992125984252},{"number":64,"time":37.13229166666666,"value":0.6062992125984252},{"number":64,"time":37.14062499999999,"value":0.5748031496062992},{"number":64,"time":37.14062499999999,"value":0.5748031496062992},{"number":64,"time":37.14791666666666,"value":0.5354330708661418},{"number":64,"time":37.148958333333326,"value":0.5354330708661418},{"number":64,"time":37.15624999999999,"value":0.4881889763779528},{"number":64,"time":37.15729166666666,"value":0.4881889763779528},{"number":64,"time":37.16874999999999,"value":0.4015748031496063},{"number":64,"time":37.16874999999999,"value":0.4015748031496063},{"number":64,"time":37.22395833333332,"value":0.47244094488188976},{"number":64,"time":37.22499999999999,"value":0.47244094488188976},{"number":64,"time":37.23645833333332,"value":0.5039370078740157},{"number":64,"time":37.23749999999998,"value":0.5039370078740157},{"number":64,"time":37.24791666666665,"value":0.5433070866141733},{"number":64,"time":37.24895833333331,"value":0.5433070866141733},{"number":64,"time":37.26458333333331,"value":0.5748031496062992},{"number":64,"time":37.26562499999998,"value":0.5748031496062992},{"number":64,"time":37.28020833333331,"value":0.6062992125984252},{"number":64,"time":37.28124999999998,"value":0.6062992125984252},{"number":64,"time":37.29583333333331,"value":0.6456692913385826},{"number":64,"time":37.29687499999998,"value":0.6456692913385826},{"number":64,"time":37.344791666666644,"value":0.7559055118110236},{"number":64,"time":37.344791666666644,"value":0.7559055118110236},{"number":64,"time":37.46458333333331,"value":0.8503937007874016},{"number":64,"time":37.465624999999974,"value":0.8503937007874016},{"number":64,"time":37.91562499999997,"value":0.7559055118110236},{"number":64,"time":37.91562499999997,"value":0.7559055118110236},{"number":64,"time":37.92291666666664,"value":0.6614173228346457},{"number":64,"time":37.9239583333333,"value":0.6614173228346457},{"number":64,"time":37.9333333333333,"value":0.6299212598425197},{"number":64,"time":37.93437499999997,"value":0.6299212598425197},{"number":64,"time":37.9395833333333,"value":0.5905511811023622},{"number":64,"time":37.941666666666634,"value":0.5905511811023622},{"number":64,"time":37.95104166666663,"value":0.5433070866141733},{"number":64,"time":37.9520833333333,"value":0.5433070866141733},{"number":64,"time":37.96041666666663,"value":0.5118110236220472},{"number":64,"time":37.9614583333333,"value":0.5118110236220472},{"number":64,"time":37.970833333333296,"value":0.48031496062992124},{"number":64,"time":37.97187499999996,"value":0.48031496062992124},{"number":64,"time":38.02291666666663,"value":0.5196850393700787},{"number":64,"time":38.0239583333333,"value":0.5196850393700787},{"number":64,"time":38.03854166666663,"value":0.5590551181102362},{"number":64,"time":38.0395833333333,"value":0.5590551181102362},{"number":64,"time":38.064583333333296,"value":0.5984251968503937},{"number":64,"time":38.06562499999996,"value":0.5984251968503937},{"number":64,"time":38.080208333333296,"value":0.6299212598425197},{"number":64,"time":38.08124999999996,"value":0.6299212598425197},{"number":64,"time":38.107291666666626,"value":0.7322834645669292},{"number":64,"time":38.10833333333329,"value":0.7322834645669292},{"number":64,"time":38.366666666666625,"value":0.8267716535433071},{"number":64,"time":38.36770833333329,"value":0.8267716535433071},{"number":64,"time":38.68333333333329,"value":0.7086614173228346},{"number":64,"time":38.68437499999995,"value":0.7086614173228346},{"number":64,"time":38.69166666666662,"value":0.6456692913385826},{"number":64,"time":38.692708333333286,"value":0.6456692913385826},{"number":64,"time":38.69895833333329,"value":0.6062992125984252},{"number":64,"time":38.69999999999995,"value":0.6062992125984252},{"number":64,"time":38.70729166666662,"value":0.5669291338582677},{"number":64,"time":38.708333333333286,"value":0.5669291338582677},{"number":64,"time":38.71562499999995,"value":0.5196850393700787},{"number":64,"time":38.71666666666662,"value":0.5196850393700787},{"number":64,"time":38.72499999999995,"value":0.47244094488188976},{"number":64,"time":38.72604166666662,"value":0.47244094488188976},{"number":64,"time":38.731249999999946,"value":0.3543307086614173},{"number":64,"time":38.73229166666661,"value":0.3543307086614173},{"number":64,"time":38.75208333333328,"value":0.25196850393700787},{"number":64,"time":38.75416666666661,"value":0.25196850393700787},{"number":64,"time":38.822916666666615,"value":0.3543307086614173},{"number":64,"time":38.82395833333328,"value":0.3543307086614173},{"number":64,"time":38.83541666666661,"value":0.48031496062992124},{"number":64,"time":38.836458333333276,"value":0.48031496062992124},{"number":64,"time":38.84270833333328,"value":0.5196850393700787},{"number":64,"time":38.84374999999994,"value":0.5196850393700787},{"number":64,"time":38.85520833333327,"value":0.5511811023622047},{"number":64,"time":38.85520833333327,"value":0.5511811023622047},{"number":64,"time":38.879166666666606,"value":0.5826771653543307},{"number":64,"time":38.88020833333327,"value":0.5826771653543307},{"number":64,"time":38.9072916666666,"value":0.6220472440944882},{"number":64,"time":38.90833333333327,"value":0.6220472440944882},{"number":64,"time":38.9354166666666,"value":0.6535433070866141},{"number":64,"time":38.93645833333326,"value":0.6535433070866141},{"number":64,"time":38.9635416666666,"value":0.7559055118110236},{"number":64,"time":38.9635416666666,"value":0.7559055118110236},{"number":64,"time":39.00833333333326,"value":0.8503937007874016},{"number":64,"time":39.00937499999993,"value":0.8503937007874016},{"number":64,"time":42.141666666666595,"value":0.7322834645669292},{"number":64,"time":42.14270833333326,"value":0.7322834645669292},{"number":64,"time":42.14999999999993,"value":0.6456692913385826},{"number":64,"time":42.15104166666659,"value":0.6456692913385826},{"number":64,"time":42.15520833333326,"value":0.6141732283464567},{"number":64,"time":42.15624999999993,"value":0.6141732283464567},{"number":64,"time":42.161458333333265,"value":0.5748031496062992},{"number":64,"time":42.16249999999993,"value":0.5748031496062992},{"number":64,"time":42.1697916666666,"value":0.5275590551181102},{"number":64,"time":42.17083333333326,"value":0.5275590551181102},{"number":64,"time":42.17395833333326,"value":0.49606299212598426},{"number":64,"time":42.174999999999926,"value":0.49606299212598426},{"number":64,"time":42.18229166666659,"value":0.4015748031496063},{"number":64,"time":42.18333333333326,"value":0.4015748031496063},{"number":64,"time":42.188541666666595,"value":0.2992125984251969},{"number":64,"time":42.18958333333326,"value":0.2992125984251969},{"number":64,"time":42.26562499999993,"value":0.4251968503937008},{"number":64,"time":42.266666666666595,"value":0.4251968503937008},{"number":64,"time":42.268749999999926,"value":0.47244094488188976},{"number":64,"time":42.26979166666659,"value":0.47244094488188976},{"number":64,"time":42.27708333333326,"value":0.5118110236220472},{"number":64,"time":42.278124999999925,"value":0.5118110236220472},{"number":64,"time":42.28541666666659,"value":0.5433070866141733},{"number":64,"time":42.28645833333326,"value":0.5433070866141733},{"number":64,"time":42.29791666666659,"value":0.5748031496062992},{"number":64,"time":42.29895833333325,"value":0.5748031496062992},{"number":64,"time":42.31354166666659,"value":0.6062992125984252},{"number":64,"time":42.31458333333325,"value":0.6062992125984252},{"number":64,"time":42.32604166666658,"value":0.6456692913385826},{"number":64,"time":42.32604166666658,"value":0.6456692913385826},{"number":64,"time":42.35833333333325,"value":0.7559055118110236},{"number":64,"time":42.359374999999915,"value":0.7559055118110236},{"number":64,"time":42.44479166666657,"value":0.8503937007874016},{"number":64,"time":42.44583333333323,"value":0.8503937007874016},{"number":64,"time":42.96770833333323,"value":0.7559055118110236},{"number":64,"time":42.96874999999989,"value":0.7559055118110236},{"number":64,"time":42.972916666666556,"value":0.6614173228346457},{"number":64,"time":42.972916666666556,"value":0.6614173228346457},{"number":64,"time":42.981249999999896,"value":0.6299212598425197},{"number":64,"time":42.98229166666656,"value":0.6299212598425197},{"number":64,"time":42.98854166666656,"value":0.5984251968503937},{"number":64,"time":42.98958333333323,"value":0.5984251968503937},{"number":64,"time":43.001041666666566,"value":0.5590551181102362},{"number":64,"time":43.001041666666566,"value":0.5590551181102362},{"number":64,"time":43.0218749999999,"value":0.5275590551181102},{"number":64,"time":43.02291666666657,"value":0.5275590551181102},{"number":64,"time":43.0656249999999,"value":0.5590551181102362},{"number":64,"time":43.06666666666656,"value":0.5590551181102362},{"number":64,"time":43.084374999999895,"value":0.5905511811023622},{"number":64,"time":43.08541666666656,"value":0.5905511811023622},{"number":64,"time":43.095833333333225,"value":0.6220472440944882},{"number":64,"time":43.09687499999989,"value":0.6220472440944882},{"number":64,"time":43.11979166666656,"value":0.7322834645669292},{"number":64,"time":43.12083333333322,"value":0.7322834645669292},{"number":64,"time":43.21666666666655,"value":0.8267716535433071},{"number":64,"time":43.21770833333321,"value":0.8267716535433071},{"number":64,"time":43.776041666666536,"value":0.7086614173228346},{"number":64,"time":43.7770833333332,"value":0.7086614173228346},{"number":64,"time":43.78437499999987,"value":0.6456692913385826},{"number":64,"time":43.785416666666535,"value":0.6456692913385826},{"number":64,"time":43.791666666666536,"value":0.6062992125984252},{"number":64,"time":43.7927083333332,"value":0.6062992125984252},{"number":64,"time":43.79999999999987,"value":0.5748031496062992},{"number":64,"time":43.801041666666535,"value":0.5748031496062992},{"number":64,"time":43.8083333333332,"value":0.5354330708661418},{"number":64,"time":43.80937499999987,"value":0.5354330708661418},{"number":64,"time":43.81562499999987,"value":0.49606299212598426},{"number":64,"time":43.816666666666535,"value":0.49606299212598426},{"number":64,"time":43.832291666666535,"value":0.4015748031496063},{"number":64,"time":43.8333333333332,"value":0.4015748031496063},{"number":64,"time":43.87604166666653,"value":0.47244094488188976},{"number":64,"time":43.877083333333196,"value":0.47244094488188976},{"number":64,"time":43.88749999999986,"value":0.5039370078740157},{"number":64,"time":43.88854166666653,"value":0.5039370078740157},{"number":64,"time":43.89999999999986,"value":0.5433070866141733},{"number":64,"time":43.90104166666652,"value":0.5433070866141733},{"number":64,"time":43.91562499999986,"value":0.5748031496062992},{"number":64,"time":43.91666666666652,"value":0.5748031496062992},{"number":64,"time":43.93229166666652,"value":0.6062992125984252},{"number":64,"time":43.93333333333319,"value":0.6062992125984252},{"number":64,"time":43.94791666666652,"value":0.6456692913385826},{"number":64,"time":43.94791666666652,"value":0.6456692913385826},{"number":64,"time":43.99999999999986,"value":0.7559055118110236},{"number":64,"time":44.001041666666524,"value":0.7559055118110236},{"number":64,"time":44.35624999999986,"value":0.8503937007874016},{"number":64,"time":44.35729166666653,"value":0.8503937007874016},{"number":64,"time":45.44687499999986,"value":0.7559055118110236},{"number":64,"time":45.44687499999986,"value":0.7559055118110236},{"number":64,"time":45.45937499999986,"value":0.6535433070866141},{"number":64,"time":45.45937499999986,"value":0.6535433070866141},{"number":64,"time":45.46770833333319,"value":0.6141732283464567},{"number":64,"time":45.46874999999986,"value":0.6141732283464567},{"number":64,"time":45.47499999999986,"value":0.5826771653543307},{"number":64,"time":45.476041666666525,"value":0.5826771653543307},{"number":64,"time":45.48333333333319,"value":0.5511811023622047},{"number":64,"time":45.48333333333319,"value":0.5511811023622047},{"number":64,"time":45.49062499999986,"value":0.5118110236220472},{"number":64,"time":45.491666666666525,"value":0.5118110236220472},{"number":64,"time":45.49895833333319,"value":0.48031496062992124},{"number":64,"time":45.49999999999986,"value":0.48031496062992124},{"number":64,"time":45.57499999999986,"value":0.5196850393700787},{"number":64,"time":45.57604166666653,"value":0.5196850393700787},{"number":64,"time":45.59062499999986,"value":0.5590551181102362},{"number":64,"time":45.59166666666653,"value":0.5590551181102362},{"number":64,"time":45.610416666666524,"value":0.5905511811023622},{"number":64,"time":45.61145833333319,"value":0.5905511811023622},{"number":64,"time":45.62708333333319,"value":0.6220472440944882},{"number":64,"time":45.628124999999855,"value":0.6220472440944882},{"number":64,"time":45.68333333333319,"value":0.7322834645669292},{"number":64,"time":45.68333333333319,"value":0.7322834645669292},{"number":64,"time":45.894791666666514,"value":0.8267716535433071},{"number":64,"time":45.894791666666514,"value":0.8267716535433071},{"number":64,"time":46.2666666666665,"value":0.7086614173228346},{"number":64,"time":46.26770833333317,"value":0.7086614173228346},{"number":64,"time":46.274999999999835,"value":0.6456692913385826},{"number":64,"time":46.2760416666665,"value":0.6456692913385826},{"number":64,"time":46.2822916666665,"value":0.6062992125984252},{"number":64,"time":46.28333333333317,"value":0.6062992125984252},{"number":64,"time":46.290624999999835,"value":0.5748031496062992},{"number":64,"time":46.2916666666665,"value":0.5748031496062992},{"number":64,"time":46.29895833333317,"value":0.5433070866141733},{"number":64,"time":46.299999999999834,"value":0.5433070866141733},{"number":64,"time":46.3072916666665,"value":0.5039370078740157},{"number":64,"time":46.3072916666665,"value":0.5039370078740157},{"number":64,"time":46.35937499999984,"value":0.47244094488188976},{"number":64,"time":46.35937499999984,"value":0.47244094488188976},{"number":64,"time":46.37499999999984,"value":0.5039370078740157},{"number":64,"time":46.3760416666665,"value":0.5039370078740157},{"number":64,"time":46.39062499999984,"value":0.5433070866141733},{"number":64,"time":46.3916666666665,"value":0.5433070866141733},{"number":64,"time":46.41145833333317,"value":0.5748031496062992},{"number":64,"time":46.41145833333317,"value":0.5748031496062992},{"number":64,"time":46.42708333333317,"value":0.6062992125984252},{"number":64,"time":46.42812499999984,"value":0.6062992125984252},{"number":64,"time":46.446874999999835,"value":0.6377952755905512},{"number":64,"time":46.4479166666665,"value":0.6377952755905512},{"number":64,"time":46.527083333333174,"value":0.7322834645669292},{"number":64,"time":46.52812499999984,"value":0.7322834645669292},{"number":64,"time":46.79895833333316,"value":0.8267716535433071},{"number":64,"time":46.79999999999983,"value":0.8267716535433071},{"number":64,"time":47.07395833333315,"value":0.7322834645669292},{"number":64,"time":47.07499999999982,"value":0.7322834645669292},{"number":64,"time":47.08333333333315,"value":0.6535433070866141},{"number":64,"time":47.08333333333315,"value":0.6535433070866141},{"number":64,"time":47.09062499999982,"value":0.6141732283464567},{"number":64,"time":47.091666666666484,"value":0.6141732283464567},{"number":64,"time":47.097916666666485,"value":0.5826771653543307},{"number":64,"time":47.09895833333315,"value":0.5826771653543307},{"number":64,"time":47.10624999999982,"value":0.5511811023622047},{"number":64,"time":47.10624999999982,"value":0.5511811023622047},{"number":64,"time":47.113541666666485,"value":0.5118110236220472},{"number":64,"time":47.11458333333315,"value":0.5118110236220472},{"number":64,"time":47.12187499999982,"value":0.47244094488188976},{"number":64,"time":47.122916666666484,"value":0.47244094488188976},{"number":64,"time":47.19791666666649,"value":0.5039370078740157},{"number":64,"time":47.19895833333315,"value":0.5039370078740157},{"number":64,"time":47.21041666666648,"value":0.5433070866141733},{"number":64,"time":47.21041666666648,"value":0.5433070866141733},{"number":64,"time":47.23020833333315,"value":0.5748031496062992},{"number":64,"time":47.23124999999982,"value":0.5748031496062992},{"number":64,"time":47.254166666666485,"value":0.6062992125984252},{"number":64,"time":47.25520833333315,"value":0.6062992125984252},{"number":64,"time":47.269791666666485,"value":0.6377952755905512},{"number":64,"time":47.27083333333315,"value":0.6377952755905512},{"number":64,"time":47.31770833333315,"value":0.7322834645669292},{"number":64,"time":47.31874999999982,"value":0.7322834645669292},{"number":64,"time":47.44270833333315,"value":0.8267716535433071},{"number":64,"time":47.44374999999982,"value":0.8267716535433071},{"number":64,"time":50.4447916666665,"value":0.7322834645669292},{"number":64,"time":50.44583333333316,"value":0.7322834645669292},{"number":64,"time":50.45312499999983,"value":0.6535433070866141},{"number":64,"time":50.45312499999983,"value":0.6535433070866141},{"number":64,"time":50.4604166666665,"value":0.6141732283464567},{"number":64,"time":50.46145833333316,"value":0.6141732283464567},{"number":64,"time":50.46874999999983,"value":0.5826771653543307},{"number":64,"time":50.46874999999983,"value":0.5826771653543307},{"number":64,"time":50.47708333333316,"value":0.5511811023622047},{"number":64,"time":50.47812499999983,"value":0.5511811023622047},{"number":64,"time":50.48437499999983,"value":0.5118110236220472},{"number":64,"time":50.485416666666495,"value":0.5118110236220472},{"number":64,"time":50.49270833333316,"value":0.48031496062992124},{"number":64,"time":50.49270833333316,"value":0.48031496062992124},{"number":64,"time":50.561458333333164,"value":0.5118110236220472},{"number":64,"time":50.56249999999983,"value":0.5118110236220472},{"number":64,"time":50.572916666666494,"value":0.5433070866141733},{"number":64,"time":50.57395833333316,"value":0.5433070866141733},{"number":64,"time":50.59270833333316,"value":0.5748031496062992},{"number":64,"time":50.59374999999982,"value":0.5748031496062992},{"number":64,"time":50.60833333333316,"value":0.6062992125984252},{"number":64,"time":50.60937499999982,"value":0.6062992125984252},{"number":64,"time":50.62916666666649,"value":0.6456692913385826},{"number":64,"time":50.62916666666649,"value":0.6456692913385826},{"number":64,"time":50.69687499999982,"value":0.7559055118110236},{"number":64,"time":50.69791666666649,"value":0.7559055118110236},{"number":64,"time":50.86458333333316,"value":0.8503937007874016},{"number":64,"time":50.865624999999824,"value":0.8503937007874016},{"number":64,"time":52.077083333333164,"value":0.7559055118110236},{"number":64,"time":52.07812499999983,"value":0.7559055118110236},{"number":64,"time":52.08333333333316,"value":0.6614173228346457},{"number":64,"time":52.084374999999824,"value":0.6614173228346457},{"number":64,"time":52.09270833333316,"value":0.6299212598425197},{"number":64,"time":52.09374999999982,"value":0.6299212598425197},{"number":64,"time":52.10104166666649,"value":0.5905511811023622},{"number":64,"time":52.102083333333155,"value":0.5905511811023622},{"number":64,"time":52.111458333333154,"value":0.5511811023622047},{"number":64,"time":52.11249999999982,"value":0.5511811023622047},{"number":64,"time":52.12395833333316,"value":0.5196850393700787},{"number":64,"time":52.12499999999982,"value":0.5196850393700787},{"number":64,"time":52.19166666666649,"value":0.5511811023622047},{"number":64,"time":52.19270833333316,"value":0.5511811023622047},{"number":64,"time":52.20729166666649,"value":0.5826771653543307},{"number":64,"time":52.20833333333316,"value":0.5826771653543307},{"number":64,"time":52.22395833333316,"value":0.6141732283464567},{"number":64,"time":52.224999999999824,"value":0.6141732283464567},{"number":64,"time":52.23541666666649,"value":0.6456692913385826},{"number":64,"time":52.236458333333154,"value":0.6456692913385826},{"number":64,"time":52.25520833333315,"value":0.7559055118110236},{"number":64,"time":52.25624999999982,"value":0.7559055118110236},{"number":64,"time":52.399999999999814,"value":0.8503937007874016},{"number":64,"time":52.40104166666648,"value":0.8503937007874016},{"number":64,"time":53.758333333333155,"value":0.7559055118110236},{"number":64,"time":53.75937499999982,"value":0.7559055118110236},{"number":64,"time":53.769791666666485,"value":0.6614173228346457},{"number":64,"time":53.77083333333315,"value":0.6614173228346457},{"number":64,"time":53.779166666666484,"value":0.6220472440944882},{"number":64,"time":53.78020833333315,"value":0.6220472440944882},{"number":64,"time":53.785416666666485,"value":0.5905511811023622},{"number":64,"time":53.78645833333315,"value":0.5905511811023622},{"number":64,"time":53.79791666666648,"value":0.5590551181102362},{"number":64,"time":53.79895833333315,"value":0.5590551181102362},{"number":64,"time":53.80937499999981,"value":0.5275590551181102},{"number":64,"time":53.81041666666648,"value":0.5275590551181102},{"number":64,"time":53.88958333333314,"value":0.5590551181102362},{"number":64,"time":53.89062499999981,"value":0.5590551181102362},{"number":64,"time":53.91770833333314,"value":0.5984251968503937},{"number":64,"time":53.918749999999804,"value":0.5984251968503937},{"number":64,"time":53.93541666666647,"value":0.6299212598425197},{"number":64,"time":53.93541666666647,"value":0.6299212598425197},{"number":64,"time":53.96979166666647,"value":0.7322834645669292},{"number":64,"time":53.96979166666647,"value":0.7322834645669292},{"number":64,"time":54.09479166666647,"value":0.8267716535433071},{"number":64,"time":54.09583333333313,"value":0.8267716535433071},{"number":64,"time":57.140624999999794,"value":0.7322834645669292},{"number":64,"time":57.14166666666646,"value":0.7322834645669292},{"number":64,"time":57.14791666666646,"value":0.6535433070866141},{"number":64,"time":57.14895833333313,"value":0.6535433070866141},{"number":64,"time":57.156249999999794,"value":0.6141732283464567},{"number":64,"time":57.15729166666646,"value":0.6141732283464567},{"number":64,"time":57.16458333333313,"value":0.5826771653543307},{"number":64,"time":57.16562499999979,"value":0.5826771653543307},{"number":64,"time":57.171874999999794,"value":0.5511811023622047},{"number":64,"time":57.17291666666646,"value":0.5511811023622047},{"number":64,"time":57.18020833333313,"value":0.5118110236220472},{"number":64,"time":57.18124999999979,"value":0.5118110236220472},{"number":64,"time":57.18854166666646,"value":0.48031496062992124},{"number":64,"time":57.189583333333125,"value":0.48031496062992124},{"number":64,"time":57.28020833333313,"value":0.5196850393700787},{"number":64,"time":57.281249999999794,"value":0.5196850393700787},{"number":64,"time":57.296874999999794,"value":0.5511811023622047},{"number":64,"time":57.296874999999794,"value":0.5511811023622047},{"number":64,"time":57.316666666666464,"value":0.5826771653543307},{"number":64,"time":57.31770833333313,"value":0.5826771653543307},{"number":64,"time":57.33645833333313,"value":0.6141732283464567},{"number":64,"time":57.33749999999979,"value":0.6141732283464567},{"number":64,"time":57.35624999999979,"value":0.6456692913385826},{"number":64,"time":57.357291666666455,"value":0.6456692913385826},{"number":64,"time":57.50833333333312,"value":0.7559055118110236},{"number":64,"time":57.509374999999785,"value":0.7559055118110236},{"number":64,"time":57.888541666666455,"value":0.8503937007874016},{"number":64,"time":57.88958333333312,"value":0.8503937007874016},{"number":64,"time":60.51562499999978,"value":0.7559055118110236},{"number":64,"time":60.51562499999978,"value":0.7559055118110236},{"number":64,"time":60.52291666666645,"value":0.6614173228346457},{"number":64,"time":60.52395833333311,"value":0.6614173228346457},{"number":64,"time":60.532291666666445,"value":0.6299212598425197},{"number":64,"time":60.53333333333311,"value":0.6299212598425197},{"number":64,"time":60.53958333333311,"value":0.5905511811023622},{"number":64,"time":60.53958333333311,"value":0.5905511811023622},{"number":64,"time":60.54687499999978,"value":0.5590551181102362},{"number":64,"time":60.547916666666445,"value":0.5590551181102362},{"number":64,"time":60.55416666666645,"value":0.5196850393700787},{"number":64,"time":60.55520833333311,"value":0.5196850393700787},{"number":64,"time":60.563541666666445,"value":0.47244094488188976},{"number":64,"time":60.56458333333311,"value":0.47244094488188976},{"number":64,"time":60.579166666666445,"value":0.3779527559055118},{"number":64,"time":60.579166666666445,"value":0.3779527559055118},{"number":64,"time":60.63854166666645,"value":0.47244094488188976},{"number":64,"time":60.639583333333114,"value":0.47244094488188976},{"number":64,"time":60.651041666666444,"value":0.5039370078740157},{"number":64,"time":60.65208333333311,"value":0.5039370078740157},{"number":64,"time":60.662499999999774,"value":0.5354330708661418},{"number":64,"time":60.66354166666644,"value":0.5354330708661418},{"number":64,"time":60.678124999999774,"value":0.5669291338582677},{"number":64,"time":60.67916666666644,"value":0.5669291338582677},{"number":64,"time":60.69895833333311,"value":0.5984251968503937},{"number":64,"time":60.699999999999775,"value":0.5984251968503937},{"number":64,"time":60.71770833333311,"value":0.6299212598425197},{"number":64,"time":60.71874999999977,"value":0.6299212598425197},{"number":64,"time":60.814583333333104,"value":0.7322834645669292},{"number":64,"time":60.81562499999977,"value":0.7322834645669292},{"number":64,"time":61.99479166666642,"value":0.8267716535433071},{"number":64,"time":61.99479166666642,"value":0.8267716535433071},{"number":64,"time":63.80104166666642,"value":0.7086614173228346},{"number":64,"time":63.80104166666642,"value":0.7086614173228346},{"number":64,"time":63.809374999999754,"value":0.6456692913385826},{"number":64,"time":63.81041666666642,"value":0.6456692913385826},{"number":64,"time":63.81666666666642,"value":0.6141732283464567},{"number":64,"time":63.81770833333309,"value":0.6141732283464567},{"number":64,"time":63.824999999999754,"value":0.5826771653543307},{"number":64,"time":63.82604166666642,"value":0.5826771653543307},{"number":64,"time":63.83333333333309,"value":0.5433070866141733},{"number":64,"time":63.83437499999975,"value":0.5433070866141733},{"number":64,"time":63.840624999999754,"value":0.4881889763779528},{"number":64,"time":63.84166666666642,"value":0.4881889763779528},{"number":64,"time":63.84895833333309,"value":0.4015748031496063},{"number":64,"time":63.84999999999975,"value":0.4015748031496063},{"number":64,"time":63.86041666666642,"value":0.2992125984251969},{"number":64,"time":63.86145833333308,"value":0.2992125984251969},{"number":64,"time":63.901041666666416,"value":0.2047244094488189},{"number":64,"time":63.90208333333308,"value":0.2047244094488189},{"number":64,"time":63.93958333333308,"value":0.33070866141732286},{"number":64,"time":63.94062499999975,"value":0.33070866141732286},{"number":64,"time":63.95312499999975,"value":0.44881889763779526},{"number":64,"time":63.95312499999975,"value":0.44881889763779526},{"number":64,"time":63.95624999999975,"value":0.48031496062992124},{"number":64,"time":63.957291666666414,"value":0.48031496062992124},{"number":64,"time":63.96458333333308,"value":0.5118110236220472},{"number":64,"time":63.96562499999975,"value":0.5118110236220472},{"number":64,"time":63.97708333333308,"value":0.5433070866141733},{"number":64,"time":63.97708333333308,"value":0.5433070866141733},{"number":64,"time":64.00208333333308,"value":0.5748031496062992},{"number":64,"time":64.00312499999974,"value":0.5748031496062992},{"number":64,"time":64.02916666666641,"value":0.6062992125984252},{"number":64,"time":64.03020833333308,"value":0.6062992125984252},{"number":64,"time":64.04895833333308,"value":0.6377952755905512},{"number":64,"time":64.04999999999974,"value":0.6377952755905512},{"number":64,"time":64.14062499999973,"value":0.7322834645669292},{"number":64,"time":64.1416666666664,"value":0.7322834645669292},{"number":64,"time":64.34062499999973,"value":0.8267716535433071},{"number":64,"time":64.34062499999973,"value":0.8267716535433071},{"number":64,"time":66.98749999999973,"value":0.7086614173228346},{"number":64,"time":66.98749999999973,"value":0.7086614173228346},{"number":64,"time":66.99479166666639,"value":0.6456692913385826},{"number":64,"time":66.99583333333305,"value":0.6456692913385826},{"number":64,"time":67.00312499999971,"value":0.6062992125984252},{"number":64,"time":67.00416666666638,"value":0.6062992125984252},{"number":64,"time":67.01145833333304,"value":0.5669291338582677},{"number":64,"time":67.01145833333304,"value":0.5669291338582677},{"number":64,"time":67.0187499999997,"value":0.5275590551181102},{"number":64,"time":67.01979166666636,"value":0.5275590551181102},{"number":64,"time":67.02708333333302,"value":0.48031496062992124},{"number":64,"time":67.02812499999969,"value":0.48031496062992124},{"number":64,"time":67.03854166666636,"value":0.3779527559055118},{"number":64,"time":67.03958333333303,"value":0.3779527559055118},{"number":64,"time":67.12708333333303,"value":0.47244094488188976},{"number":64,"time":67.1281249999997,"value":0.47244094488188976},{"number":64,"time":67.13541666666636,"value":0.5039370078740157},{"number":64,"time":67.13645833333302,"value":0.5039370078740157},{"number":64,"time":67.1468749999997,"value":0.5354330708661418},{"number":64,"time":67.1468749999997,"value":0.5354330708661418},{"number":64,"time":67.17083333333304,"value":0.5669291338582677},{"number":64,"time":67.17083333333304,"value":0.5669291338582677},{"number":64,"time":67.20729166666636,"value":0.5984251968503937},{"number":64,"time":67.20833333333303,"value":0.5984251968503937},{"number":64,"time":67.2593749999997,"value":0.6299212598425197},{"number":64,"time":67.2593749999997,"value":0.6299212598425197},{"number":64,"time":67.4031249999997,"value":0.7322834645669292},{"number":64,"time":67.40416666666637,"value":0.7322834645669292},{"number":64,"time":67.6937499999997,"value":0.8267716535433071},{"number":64,"time":67.69479166666636,"value":0.8267716535433071},{"number":64,"time":67.8218749999997,"value":0.7322834645669292},{"number":64,"time":67.82291666666636,"value":0.7322834645669292},{"number":64,"time":67.8343749999997,"value":0.6456692913385826},{"number":64,"time":67.83541666666636,"value":0.6456692913385826},{"number":64,"time":67.84166666666636,"value":0.6141732283464567},{"number":64,"time":67.84270833333302,"value":0.6141732283464567},{"number":64,"time":67.84999999999968,"value":0.5826771653543307},{"number":64,"time":67.85104166666635,"value":0.5826771653543307},{"number":64,"time":67.86145833333302,"value":0.5433070866141733},{"number":64,"time":67.86354166666635,"value":0.5433070866141733},{"number":64,"time":67.86979166666634,"value":0.5118110236220472},{"number":64,"time":67.87083333333301,"value":0.5118110236220472},{"number":64,"time":67.87812499999967,"value":0.48031496062992124},{"number":64,"time":67.87916666666634,"value":0.48031496062992124},{"number":64,"time":67.95416666666634,"value":0.5196850393700787},{"number":64,"time":67.955208333333,"value":0.5196850393700787},{"number":64,"time":67.970833333333,"value":0.5511811023622047},{"number":64,"time":67.97187499999967,"value":0.5511811023622047},{"number":64,"time":67.99895833333301,"value":0.5905511811023622},{"number":64,"time":67.99895833333301,"value":0.5905511811023622},{"number":64,"time":68.02604166666634,"value":0.6220472440944882},{"number":64,"time":68.02708333333301,"value":0.6220472440944882},{"number":64,"time":68.06145833333301,"value":0.6535433070866141},{"number":64,"time":68.06249999999967,"value":0.6535433070866141},{"number":64,"time":68.26562499999967,"value":0.7559055118110236},{"number":64,"time":68.26666666666634,"value":0.7559055118110236},{"number":64,"time":68.52604166666633,"value":0.8503937007874016},{"number":64,"time":68.527083333333,"value":0.8503937007874016},{"number":64,"time":68.67812499999965,"value":0.7559055118110236},{"number":64,"time":68.67916666666632,"value":0.7559055118110236},{"number":64,"time":68.68958333333299,"value":0.6456692913385826},{"number":64,"time":68.69062499999966,"value":0.6456692913385826},{"number":64,"time":68.69791666666632,"value":0.6062992125984252},{"number":64,"time":68.69791666666632,"value":0.6062992125984252},{"number":64,"time":68.70624999999966,"value":0.5748031496062992},{"number":64,"time":68.70624999999966,"value":0.5748031496062992},{"number":64,"time":68.71354166666632,"value":0.5354330708661418},{"number":64,"time":68.71458333333298,"value":0.5354330708661418},{"number":64,"time":68.71770833333298,"value":0.5039370078740157},{"number":64,"time":68.71874999999964,"value":0.5039370078740157},{"number":64,"time":68.73020833333298,"value":0.4015748031496063},{"number":64,"time":68.73124999999965,"value":0.4015748031496063},{"number":64,"time":68.74999999999964,"value":0.2992125984251969},{"number":64,"time":68.75104166666631,"value":0.2992125984251969},{"number":64,"time":68.83020833333298,"value":0.4251968503937008},{"number":64,"time":68.83124999999964,"value":0.4251968503937008},{"number":64,"time":68.83437499999964,"value":0.47244094488188976},{"number":64,"time":68.8354166666663,"value":0.47244094488188976},{"number":64,"time":68.8416666666663,"value":0.5039370078740157},{"number":64,"time":68.84270833333296,"value":0.5039370078740157},{"number":64,"time":68.8541666666663,"value":0.5354330708661418},{"number":64,"time":68.85520833333297,"value":0.5354330708661418},{"number":64,"time":68.87395833333296,"value":0.5669291338582677},{"number":64,"time":68.87499999999963,"value":0.5669291338582677},{"number":64,"time":68.90624999999963,"value":0.5984251968503937},{"number":64,"time":68.90624999999963,"value":0.5984251968503937},{"number":64,"time":68.93124999999962,"value":0.6299212598425197},{"number":64,"time":68.93229166666629,"value":0.6299212598425197},{"number":64,"time":69.04687499999963,"value":0.7322834645669292},{"number":64,"time":69.0479166666663,"value":0.7322834645669292},{"number":64,"time":71.39687499999957,"value":0.8267716535433071},{"number":64,"time":71.39687499999957,"value":0.8267716535433071},{"number":64,"time":72.0364583333329,"value":0.7322834645669292},{"number":64,"time":72.03749999999957,"value":0.7322834645669292},{"number":64,"time":72.04479166666623,"value":0.6535433070866141},{"number":64,"time":72.04479166666623,"value":0.6535433070866141},{"number":64,"time":72.05312499999957,"value":0.6141732283464567},{"number":64,"time":72.05416666666623,"value":0.6141732283464567},{"number":64,"time":72.06041666666623,"value":0.5826771653543307},{"number":64,"time":72.0614583333329,"value":0.5826771653543307},{"number":64,"time":72.06874999999955,"value":0.5511811023622047},{"number":64,"time":72.06874999999955,"value":0.5511811023622047},{"number":64,"time":72.0770833333329,"value":0.5118110236220472},{"number":64,"time":72.07812499999956,"value":0.5118110236220472},{"number":64,"time":72.08437499999955,"value":0.47244094488188976},{"number":64,"time":72.08541666666622,"value":0.47244094488188976},{"number":64,"time":72.16874999999955,"value":0.5039370078740157},{"number":64,"time":72.16874999999955,"value":0.5039370078740157},{"number":64,"time":72.18020833333289,"value":0.5354330708661418},{"number":64,"time":72.18124999999955,"value":0.5354330708661418},{"number":64,"time":72.19999999999955,"value":0.5669291338582677},{"number":64,"time":72.20104166666621,"value":0.5669291338582677},{"number":64,"time":72.22499999999955,"value":0.5984251968503937},{"number":64,"time":72.22604166666622,"value":0.5984251968503937},{"number":64,"time":72.24791666666621,"value":0.6299212598425197},{"number":64,"time":72.24895833333288,"value":0.6299212598425197},{"number":64,"time":72.36458333333287,"value":0.7322834645669292},{"number":64,"time":72.36458333333287,"value":0.7322834645669292},{"number":64,"time":72.51979166666621,"value":0.8267716535433071},{"number":64,"time":72.52083333333287,"value":0.8267716535433071},{"number":64,"time":72.83645833333289,"value":0.7322834645669292},{"number":64,"time":72.83749999999955,"value":0.7322834645669292},{"number":64,"time":72.84374999999955,"value":0.6535433070866141},{"number":64,"time":72.84374999999955,"value":0.6535433070866141},{"number":64,"time":72.85208333333289,"value":0.6220472440944882},{"number":64,"time":72.85208333333289,"value":0.6220472440944882},{"number":64,"time":72.85937499999955,"value":0.5905511811023622},{"number":64,"time":72.86041666666621,"value":0.5905511811023622},{"number":64,"time":72.87187499999955,"value":0.5511811023622047},{"number":64,"time":72.87291666666621,"value":0.5511811023622047},{"number":64,"time":72.88333333333289,"value":0.5118110236220472},{"number":64,"time":72.88437499999955,"value":0.5118110236220472},{"number":64,"time":72.95520833333289,"value":0.5433070866141733},{"number":64,"time":72.95624999999956,"value":0.5433070866141733},{"number":64,"time":72.97604166666622,"value":0.5748031496062992},{"number":64,"time":72.97708333333289,"value":0.5748031496062992},{"number":64,"time":72.99166666666622,"value":0.6062992125984252},{"number":64,"time":72.99270833333289,"value":0.6062992125984252},{"number":64,"time":73.01145833333288,"value":0.6456692913385826},{"number":64,"time":73.01249999999955,"value":0.6456692913385826},{"number":64,"time":73.10416666666622,"value":0.7559055118110236},{"number":64,"time":73.10416666666622,"value":0.7559055118110236},{"number":64,"time":73.61979166666622,"value":0.6535433070866141},{"number":64,"time":73.62083333333288,"value":0.6535433070866141},{"number":64,"time":73.63124999999955,"value":0.6141732283464567},{"number":64,"time":73.63229166666622,"value":0.6141732283464567},{"number":64,"time":73.63958333333288,"value":0.5826771653543307},{"number":64,"time":73.63958333333288,"value":0.5826771653543307},{"number":64,"time":73.64791666666622,"value":0.5433070866141733},{"number":64,"time":73.64895833333289,"value":0.5433070866141733},{"number":64,"time":73.65520833333288,"value":0.5039370078740157},{"number":64,"time":73.65624999999955,"value":0.5039370078740157},{"number":64,"time":73.67187499999955,"value":0.3779527559055118},{"number":64,"time":73.67291666666621,"value":0.3779527559055118},{"number":64,"time":73.73958333333287,"value":0.47244094488188976},{"number":64,"time":73.73958333333287,"value":0.47244094488188976},{"number":64,"time":73.75208333333288,"value":0.5039370078740157},{"number":64,"time":73.75312499999954,"value":0.5039370078740157},{"number":64,"time":73.76354166666621,"value":0.5354330708661418},{"number":64,"time":73.76458333333288,"value":0.5354330708661418},{"number":64,"time":73.78333333333288,"value":0.5669291338582677},{"number":64,"time":73.78437499999954,"value":0.5669291338582677},{"number":64,"time":73.81145833333288,"value":0.5984251968503937},{"number":64,"time":73.81249999999955,"value":0.5984251968503937},{"number":64,"time":73.84791666666621,"value":0.6377952755905512},{"number":64,"time":73.84895833333287,"value":0.6377952755905512},{"number":64,"time":74.0041666666662,"value":0.7322834645669292},{"number":64,"time":74.0041666666662,"value":0.7322834645669292},{"number":64,"time":74.44374999999953,"value":0.8267716535433071},{"number":64,"time":74.44479166666619,"value":0.8267716535433071},{"number":64,"time":77.00937499999955,"value":0.7322834645669292},{"number":64,"time":77.01041666666622,"value":0.7322834645669292},{"number":64,"time":77.02083333333289,"value":0.6535433070866141},{"number":64,"time":77.02187499999955,"value":0.6535433070866141},{"number":64,"time":77.02916666666621,"value":0.6141732283464567},{"number":64,"time":77.02916666666621,"value":0.6141732283464567},{"number":64,"time":77.03854166666622,"value":0.5826771653543307},{"number":64,"time":77.03854166666622,"value":0.5826771653543307},{"number":64,"time":77.04479166666621,"value":0.5511811023622047},{"number":64,"time":77.04583333333288,"value":0.5511811023622047},{"number":64,"time":77.05208333333287,"value":0.5196850393700787},{"number":64,"time":77.05312499999954,"value":0.5196850393700787},{"number":64,"time":77.0604166666662,"value":0.48031496062992124},{"number":64,"time":77.06145833333287,"value":0.48031496062992124},{"number":64,"time":77.14895833333287,"value":0.5196850393700787},{"number":64,"time":77.14895833333287,"value":0.5196850393700787},{"number":64,"time":77.16562499999954,"value":0.5511811023622047},{"number":64,"time":77.1666666666662,"value":0.5511811023622047},{"number":64,"time":77.1885416666662,"value":0.5826771653543307},{"number":64,"time":77.18958333333286,"value":0.5826771653543307},{"number":64,"time":77.20833333333286,"value":0.6141732283464567},{"number":64,"time":77.20937499999953,"value":0.6141732283464567},{"number":64,"time":77.22812499999952,"value":0.6535433070866141},{"number":64,"time":77.22916666666619,"value":0.6535433070866141},{"number":64,"time":77.3135416666662,"value":0.7559055118110236},{"number":64,"time":77.31458333333286,"value":0.7559055118110236},{"number":64,"time":77.52604166666619,"value":0.8503937007874016},{"number":64,"time":77.52604166666619,"value":0.8503937007874016},{"number":64,"time":77.81458333333286,"value":0.7559055118110236},{"number":64,"time":77.81562499999953,"value":0.7559055118110236},{"number":64,"time":77.82083333333286,"value":0.6614173228346457},{"number":64,"time":77.82187499999952,"value":0.6614173228346457},{"number":64,"time":77.82916666666618,"value":0.6220472440944882},{"number":64,"time":77.83020833333285,"value":0.6220472440944882},{"number":64,"time":77.83645833333284,"value":0.5905511811023622},{"number":64,"time":77.83749999999951,"value":0.5905511811023622},{"number":64,"time":77.84479166666617,"value":0.5590551181102362},{"number":64,"time":77.84583333333283,"value":0.5590551181102362},{"number":64,"time":77.8531249999995,"value":0.5196850393700787},{"number":64,"time":77.8531249999995,"value":0.5196850393700787},{"number":64,"time":77.86041666666615,"value":0.48031496062992124},{"number":64,"time":77.86041666666615,"value":0.48031496062992124},{"number":64,"time":77.93749999999949,"value":0.5118110236220472},{"number":64,"time":77.93854166666615,"value":0.5118110236220472},{"number":64,"time":77.94895833333283,"value":0.5433070866141733},{"number":64,"time":77.94895833333283,"value":0.5433070866141733},{"number":64,"time":77.96874999999949,"value":0.5748031496062992},{"number":64,"time":77.96979166666615,"value":0.5748031496062992},{"number":64,"time":77.98854166666615,"value":0.6062992125984252},{"number":64,"time":77.98958333333282,"value":0.6062992125984252},{"number":64,"time":78.00833333333281,"value":0.6377952755905512},{"number":64,"time":78.00937499999948,"value":0.6377952755905512},{"number":64,"time":78.04479166666614,"value":0.7322834645669292},{"number":64,"time":78.04583333333281,"value":0.7322834645669292},{"number":64,"time":78.24062499999947,"value":0.8267716535433071},{"number":64,"time":78.24166666666613,"value":0.8267716535433071},{"number":64,"time":78.6364583333328,"value":0.7086614173228346},{"number":64,"time":78.63749999999946,"value":0.7086614173228346},{"number":64,"time":78.6458333333328,"value":0.6377952755905512},{"number":64,"time":78.6458333333328,"value":0.6377952755905512},{"number":64,"time":78.6520833333328,"value":0.5984251968503937},{"number":64,"time":78.65312499999946,"value":0.5984251968503937},{"number":64,"time":78.66041666666612,"value":0.5669291338582677},{"number":64,"time":78.66041666666612,"value":0.5669291338582677},{"number":64,"time":78.66874999999946,"value":0.5196850393700787},{"number":64,"time":78.66979166666613,"value":0.5196850393700787},{"number":64,"time":78.67187499999946,"value":0.4881889763779528},{"number":64,"time":78.67291666666613,"value":0.4881889763779528},{"number":64,"time":78.68020833333279,"value":0.4015748031496063},{"number":64,"time":78.68124999999945,"value":0.4015748031496063},{"number":64,"time":78.69270833333279,"value":0.2992125984251969},{"number":64,"time":78.69374999999945,"value":0.2992125984251969},{"number":64,"time":78.7802083333328,"value":0.4251968503937008},{"number":64,"time":78.78124999999946,"value":0.4251968503937008},{"number":64,"time":78.78437499999946,"value":0.47244094488188976},{"number":64,"time":78.78437499999946,"value":0.47244094488188976},{"number":64,"time":78.7927083333328,"value":0.5118110236220472},{"number":64,"time":78.79374999999946,"value":0.5118110236220472},{"number":64,"time":78.80416666666613,"value":0.5433070866141733},{"number":64,"time":78.8052083333328,"value":0.5433070866141733},{"number":64,"time":78.82812499999946,"value":0.5748031496062992},{"number":64,"time":78.82916666666613,"value":0.5748031496062992},{"number":64,"time":78.85624999999946,"value":0.6062992125984252},{"number":64,"time":78.85729166666613,"value":0.6062992125984252},{"number":64,"time":78.87604166666613,"value":0.6377952755905512},{"number":64,"time":78.87708333333279,"value":0.6377952755905512},{"number":64,"time":78.94479166666613,"value":0.7322834645669292},{"number":64,"time":78.94479166666613,"value":0.7322834645669292},{"number":64,"time":79.65104166666612,"value":0.8267716535433071},{"number":64,"time":79.65208333333278,"value":0.8267716535433071},{"number":64,"time":83.55520833333279,"value":0.7322834645669292},{"number":64,"time":83.55624999999945,"value":0.7322834645669292},{"number":64,"time":83.56354166666611,"value":0.6535433070866141},{"number":64,"time":83.56354166666611,"value":0.6535433070866141},{"number":64,"time":83.57083333333277,"value":0.6141732283464567},{"number":64,"time":83.57187499999944,"value":0.6141732283464567},{"number":64,"time":83.5791666666661,"value":0.5826771653543307},{"number":64,"time":83.58020833333276,"value":0.5826771653543307},{"number":64,"time":83.58645833333276,"value":0.5433070866141733},{"number":64,"time":83.58749999999942,"value":0.5433070866141733},{"number":64,"time":83.59479166666608,"value":0.5039370078740157},{"number":64,"time":83.59583333333275,"value":0.5039370078740157},{"number":64,"time":83.60312499999941,"value":0.47244094488188976},{"number":64,"time":83.60416666666607,"value":0.47244094488188976},{"number":64,"time":83.67916666666608,"value":0.5039370078740157},{"number":64,"time":83.68020833333274,"value":0.5039370078740157},{"number":64,"time":83.69479166666608,"value":0.5433070866141733},{"number":64,"time":83.69583333333274,"value":0.5433070866141733},{"number":64,"time":83.71458333333274,"value":0.5748031496062992},{"number":64,"time":83.7156249999994,"value":0.5748031496062992},{"number":64,"time":83.73541666666607,"value":0.6062992125984252},{"number":64,"time":83.73541666666607,"value":0.6062992125984252},{"number":64,"time":83.75104166666607,"value":0.6377952755905512},{"number":64,"time":83.75208333333273,"value":0.6377952755905512},{"number":64,"time":83.79479166666607,"value":0.7322834645669292},{"number":64,"time":83.79583333333274,"value":0.7322834645669292},{"number":64,"time":83.95520833333273,"value":0.8267716535433071},{"number":64,"time":83.9562499999994,"value":0.8267716535433071},{"number":64,"time":83.99999999999939,"value":0},{"number":64,"time":84.38749999999939,"value":0.7322834645669292},{"number":64,"time":84.38749999999939,"value":0.7322834645669292},{"number":64,"time":84.39479166666605,"value":0.6535433070866141},{"number":64,"time":84.39583333333272,"value":0.6535433070866141},{"number":64,"time":84.40312499999938,"value":0.6141732283464567},{"number":64,"time":84.40416666666604,"value":0.6141732283464567},{"number":64,"time":84.4114583333327,"value":0.5826771653543307},{"number":64,"time":84.4114583333327,"value":0.5826771653543307},{"number":64,"time":84.41874999999936,"value":0.5511811023622047},{"number":64,"time":84.41979166666603,"value":0.5511811023622047},{"number":64,"time":84.42708333333269,"value":0.5196850393700787},{"number":64,"time":84.42812499999935,"value":0.5196850393700787},{"number":64,"time":84.43437499999935,"value":0.48031496062992124},{"number":64,"time":84.43437499999935,"value":0.48031496062992124},{"number":64,"time":84.51041666666602,"value":0.5118110236220472},{"number":64,"time":84.51145833333268,"value":0.5118110236220472},{"number":64,"time":84.52604166666602,"value":0.5433070866141733},{"number":64,"time":84.52708333333268,"value":0.5433070866141733},{"number":64,"time":84.55104166666602,"value":0.5748031496062992},{"number":64,"time":84.55208333333269,"value":0.5748031496062992},{"number":64,"time":84.57395833333268,"value":0.6062992125984252},{"number":64,"time":84.57499999999935,"value":0.6062992125984252},{"number":64,"time":84.59479166666601,"value":0.6377952755905512},{"number":64,"time":84.59583333333268,"value":0.6377952755905512},{"number":64,"time":84.66249999999934,"value":0.7322834645669292},{"number":64,"time":84.663541666666,"value":0.7322834645669292},{"number":64,"time":84.807291666666,"value":0.8267716535433071},{"number":64,"time":84.80833333333267,"value":0.8267716535433071},{"number":64,"time":85.20937499999934,"value":0.7322834645669292},{"number":64,"time":85.210416666666,"value":0.7322834645669292},{"number":64,"time":85.21770833333267,"value":0.6535433070866141},{"number":64,"time":85.21874999999933,"value":0.6535433070866141},{"number":64,"time":85.22499999999933,"value":0.6141732283464567},{"number":64,"time":85.22604166666599,"value":0.6141732283464567},{"number":64,"time":85.23437499999932,"value":0.5748031496062992},{"number":64,"time":85.23541666666598,"value":0.5748031496062992},{"number":64,"time":85.24062499999931,"value":0.5354330708661418},{"number":64,"time":85.24166666666598,"value":0.5354330708661418},{"number":64,"time":85.24999999999932,"value":0.4881889763779528},{"number":64,"time":85.25104166666598,"value":0.4881889763779528},{"number":64,"time":85.26145833333266,"value":0.3779527559055118},{"number":64,"time":85.26249999999932,"value":0.3779527559055118},{"number":64,"time":85.33437499999933,"value":0.47244094488188976},{"number":64,"time":85.33541666666599,"value":0.47244094488188976},{"number":64,"time":85.34583333333266,"value":0.5118110236220472},{"number":64,"time":85.34687499999933,"value":0.5118110236220472},{"number":64,"time":85.36249999999933,"value":0.5433070866141733},{"number":64,"time":85.36249999999933,"value":0.5433070866141733},{"number":64,"time":85.38229166666599,"value":0.5748031496062992},{"number":64,"time":85.38229166666599,"value":0.5748031496062992},{"number":64,"time":85.40624999999933,"value":0.6062992125984252},{"number":64,"time":85.407291666666,"value":0.6062992125984252},{"number":64,"time":85.43020833333266,"value":0.6456692913385826},{"number":64,"time":85.43124999999932,"value":0.6456692913385826},{"number":64,"time":85.49374999999931,"value":0.7559055118110236},{"number":64,"time":85.49479166666598,"value":0.7559055118110236},{"number":64,"time":85.66145833333263,"value":0.8503937007874016},{"number":64,"time":85.66145833333263,"value":0.8503937007874016},{"number":64,"time":87.75624999999928,"value":0.7559055118110236},{"number":64,"time":87.75729166666595,"value":0.7559055118110236},{"number":64,"time":87.76354166666594,"value":0.6614173228346457},{"number":64,"time":87.76458333333261,"value":0.6614173228346457},{"number":64,"time":87.77291666666595,"value":0.6220472440944882},{"number":64,"time":87.77395833333262,"value":0.6220472440944882},{"number":64,"time":87.78020833333261,"value":0.5826771653543307},{"number":64,"time":87.78124999999928,"value":0.5826771653543307},{"number":64,"time":87.78749999999927,"value":0.5433070866141733},{"number":64,"time":87.78854166666594,"value":0.5433070866141733},{"number":64,"time":87.7958333333326,"value":0.5039370078740157},{"number":64,"time":87.79687499999926,"value":0.5039370078740157},{"number":64,"time":87.8114583333326,"value":0.4015748031496063},{"number":64,"time":87.81249999999926,"value":0.4015748031496063},{"number":64,"time":87.87604166666593,"value":0.47244094488188976},{"number":64,"time":87.87708333333259,"value":0.47244094488188976},{"number":64,"time":87.88749999999926,"value":0.5039370078740157},{"number":64,"time":87.88854166666593,"value":0.5039370078740157},{"number":64,"time":87.89999999999927,"value":0.5354330708661418},{"number":64,"time":87.90104166666593,"value":0.5354330708661418},{"number":64,"time":87.91562499999927,"value":0.5669291338582677},{"number":64,"time":87.91666666666593,"value":0.5669291338582677},{"number":64,"time":87.93541666666593,"value":0.5984251968503937},{"number":64,"time":87.9364583333326,"value":0.5984251968503937},{"number":64,"time":87.9520833333326,"value":0.6299212598425197},{"number":64,"time":87.95312499999926,"value":0.6299212598425197},{"number":64,"time":87.99166666666592,"value":0.7559055118110236},{"number":64,"time":87.99166666666592,"value":0.7559055118110236},{"number":64,"time":88.07187499999925,"value":0.8503937007874016},{"number":64,"time":88.07291666666592,"value":0.8503937007874016},{"number":64,"time":88.51979166666591,"value":0.7322834645669292},{"number":64,"time":88.51979166666591,"value":0.7322834645669292},{"number":64,"time":88.52812499999925,"value":0.6535433070866141},{"number":64,"time":88.52916666666592,"value":0.6535433070866141},{"number":64,"time":88.53541666666591,"value":0.6141732283464567},{"number":64,"time":88.53645833333258,"value":0.6141732283464567},{"number":64,"time":88.54374999999924,"value":0.5748031496062992},{"number":64,"time":88.5447916666659,"value":0.5748031496062992},{"number":64,"time":88.55312499999923,"value":0.5433070866141733},{"number":64,"time":88.55416666666589,"value":0.5433070866141733},{"number":64,"time":88.55937499999922,"value":0.5039370078740157},{"number":64,"time":88.56041666666589,"value":0.5039370078740157},{"number":64,"time":88.62395833333255,"value":0.47244094488188976},{"number":64,"time":88.62499999999922,"value":0.47244094488188976},{"number":64,"time":88.63958333333255,"value":0.5039370078740157},{"number":64,"time":88.63958333333255,"value":0.5039370078740157},{"number":64,"time":88.65208333333256,"value":0.5433070866141733},{"number":64,"time":88.65312499999922,"value":0.5433070866141733},{"number":64,"time":88.67187499999922,"value":0.5748031496062992},{"number":64,"time":88.67291666666588,"value":0.5748031496062992},{"number":64,"time":88.68749999999922,"value":0.6062992125984252},{"number":64,"time":88.68854166666588,"value":0.6062992125984252},{"number":64,"time":88.70416666666588,"value":0.6456692913385826},{"number":64,"time":88.70416666666588,"value":0.6456692913385826},{"number":64,"time":88.75208333333255,"value":0.7559055118110236},{"number":64,"time":88.75312499999922,"value":0.7559055118110236},{"number":64,"time":88.82395833333256,"value":0.8503937007874016},{"number":64,"time":88.82499999999922,"value":0.8503937007874016},{"number":64,"time":89.35520833333256,"value":0.7559055118110236},{"number":64,"time":89.35624999999922,"value":0.7559055118110236},{"number":64,"time":89.36770833333256,"value":0.6535433070866141},{"number":64,"time":89.36770833333256,"value":0.6535433070866141},{"number":64,"time":89.37499999999922,"value":0.6141732283464567},{"number":64,"time":89.37604166666588,"value":0.6141732283464567},{"number":64,"time":89.38229166666588,"value":0.5826771653543307},{"number":64,"time":89.38333333333254,"value":0.5826771653543307},{"number":64,"time":89.39166666666588,"value":0.5433070866141733},{"number":64,"time":89.39270833333255,"value":0.5433070866141733},{"number":64,"time":89.39895833333254,"value":0.5039370078740157},{"number":64,"time":89.39999999999921,"value":0.5039370078740157},{"number":64,"time":89.41458333333254,"value":0.3779527559055118},{"number":64,"time":89.41562499999921,"value":0.3779527559055118},{"number":64,"time":89.49479166666588,"value":0.47244094488188976},{"number":64,"time":89.49583333333254,"value":0.47244094488188976},{"number":64,"time":89.5031249999992,"value":0.5039370078740157},{"number":64,"time":89.50416666666587,"value":0.5039370078740157},{"number":64,"time":89.51458333333254,"value":0.5354330708661418},{"number":64,"time":89.5156249999992,"value":0.5354330708661418},{"number":64,"time":89.53020833333254,"value":0.5669291338582677},{"number":64,"time":89.53229166666587,"value":0.5669291338582677},{"number":64,"time":89.55520833333253,"value":0.5984251968503937},{"number":64,"time":89.5562499999992,"value":0.5984251968503937},{"number":64,"time":89.57083333333253,"value":0.6299212598425197},{"number":64,"time":89.5718749999992,"value":0.6299212598425197},{"number":64,"time":89.6031249999992,"value":0.7559055118110236},{"number":64,"time":89.60416666666586,"value":0.7559055118110236},{"number":64,"time":89.71458333333253,"value":0.8503937007874016},{"number":64,"time":89.71562499999919,"value":0.8503937007874016},{"number":64,"time":91.88437499999918,"value":0.7086614173228346},{"number":64,"time":91.88437499999918,"value":0.7086614173228346},{"number":64,"time":91.89166666666584,"value":0.6535433070866141},{"number":64,"time":91.89270833333251,"value":0.6535433070866141},{"number":64,"time":91.89999999999917,"value":0.6141732283464567},{"number":64,"time":91.90104166666583,"value":0.6141732283464567},{"number":64,"time":91.9114583333325,"value":0.5748031496062992},{"number":64,"time":91.91249999999917,"value":0.5748031496062992},{"number":64,"time":91.91979166666583,"value":0.5433070866141733},{"number":64,"time":91.91979166666583,"value":0.5433070866141733},{"number":64,"time":91.92812499999917,"value":0.49606299212598426},{"number":64,"time":91.92916666666584,"value":0.49606299212598426},{"number":64,"time":91.94791666666583,"value":0.4015748031496063},{"number":64,"time":91.9489583333325,"value":0.4015748031496063},{"number":64,"time":91.99999999999916,"value":0},{"number":64,"time":92.01562499999916,"value":0.47244094488188976},{"number":64,"time":92.01666666666583,"value":0.47244094488188976},{"number":64,"time":92.02812499999916,"value":0.5039370078740157},{"number":64,"time":92.02916666666583,"value":0.5039370078740157},{"number":64,"time":92.0395833333325,"value":0.5354330708661418},{"number":64,"time":92.04062499999917,"value":0.5354330708661418},{"number":64,"time":92.05624999999917,"value":0.5669291338582677},{"number":64,"time":92.05729166666583,"value":0.5669291338582677},{"number":64,"time":92.07604166666583,"value":0.5984251968503937},{"number":64,"time":92.0770833333325,"value":0.5984251968503937},{"number":64,"time":92.0958333333325,"value":0.6299212598425197},{"number":64,"time":92.09687499999916,"value":0.6299212598425197},{"number":64,"time":92.14374999999916,"value":0.7322834645669292},{"number":64,"time":92.14479166666582,"value":0.7322834645669292},{"number":64,"time":92.25833333333249,"value":0.8267716535433071},{"number":64,"time":92.25937499999915,"value":0.8267716535433071},{"number":64,"time":92.68749999999916,"value":0.7322834645669292},{"number":64,"time":92.68854166666583,"value":0.7322834645669292},{"number":64,"time":92.69999999999916,"value":0.6456692913385826},{"number":64,"time":92.70104166666583,"value":0.6456692913385826},{"number":64,"time":92.70729166666582,"value":0.6062992125984252},{"number":64,"time":92.70833333333249,"value":0.6062992125984252},{"number":64,"time":92.71562499999915,"value":0.5748031496062992},{"number":64,"time":92.71666666666582,"value":0.5748031496062992},{"number":64,"time":92.72395833333248,"value":0.5433070866141733},{"number":64,"time":92.72499999999914,"value":0.5433070866141733},{"number":64,"time":92.73124999999914,"value":0.5118110236220472},{"number":64,"time":92.7322916666658,"value":0.5118110236220472},{"number":64,"time":92.73958333333246,"value":0.48031496062992124},{"number":64,"time":92.74062499999913,"value":0.48031496062992124},{"number":64,"time":92.81145833333247,"value":0.5118110236220472},{"number":64,"time":92.81249999999913,"value":0.5118110236220472},{"number":64,"time":92.82499999999914,"value":0.5433070866141733},{"number":64,"time":92.8260416666658,"value":0.5433070866141733},{"number":64,"time":92.8479166666658,"value":0.5748031496062992},{"number":64,"time":92.84895833333246,"value":0.5748031496062992},{"number":64,"time":92.86770833333246,"value":0.6062992125984252},{"number":64,"time":92.86874999999912,"value":0.6062992125984252},{"number":64,"time":92.88749999999912,"value":0.6377952755905512},{"number":64,"time":92.88854166666579,"value":0.6377952755905512},{"number":64,"time":92.96354166666578,"value":0.7322834645669292},{"number":64,"time":92.96458333333244,"value":0.7322834645669292},{"number":64,"time":93.25833333333243,"value":0.8267716535433071},{"number":64,"time":93.2593749999991,"value":0.8267716535433071},{"number":64,"time":93.51458333333242,"value":0.7322834645669292},{"number":64,"time":93.51562499999909,"value":0.7322834645669292},{"number":64,"time":93.52395833333243,"value":0.6535433070866141},{"number":64,"time":93.52395833333243,"value":0.6535433070866141},{"number":64,"time":93.53020833333242,"value":0.6141732283464567},{"number":64,"time":93.53124999999909,"value":0.6141732283464567},{"number":64,"time":93.53854166666575,"value":0.5826771653543307},{"number":64,"time":93.53958333333242,"value":0.5826771653543307},{"number":64,"time":93.54687499999908,"value":0.5433070866141733},{"number":64,"time":93.54791666666574,"value":0.5433070866141733},{"number":64,"time":93.5552083333324,"value":0.49606299212598426},{"number":64,"time":93.5552083333324,"value":0.49606299212598426},{"number":64,"time":93.56666666666574,"value":0.3779527559055118},{"number":64,"time":93.5677083333324,"value":0.3779527559055118},{"number":64,"time":93.60312499999907,"value":0.2755905511811024},{"number":64,"time":93.60416666666573,"value":0.2755905511811024},{"number":64,"time":93.65416666666573,"value":0.3779527559055118},{"number":64,"time":93.6552083333324,"value":0.3779527559055118},{"number":64,"time":93.66666666666573,"value":0.47244094488188976},{"number":64,"time":93.6677083333324,"value":0.47244094488188976},{"number":64,"time":93.67499999999906,"value":0.5039370078740157},{"number":64,"time":93.67604166666572,"value":0.5039370078740157},{"number":64,"time":93.6864583333324,"value":0.5354330708661418},{"number":64,"time":93.68749999999906,"value":0.5354330708661418},{"number":64,"time":93.7145833333324,"value":0.5669291338582677},{"number":64,"time":93.71562499999906,"value":0.5669291338582677},{"number":64,"time":93.75104166666573,"value":0.5984251968503937},{"number":64,"time":93.7520833333324,"value":0.5984251968503937},{"number":64,"time":93.78645833333239,"value":0.6299212598425197},{"number":64,"time":93.78749999999906,"value":0.6299212598425197},{"number":64,"time":93.89895833333239,"value":0.7322834645669292},{"number":64,"time":93.89999999999905,"value":0.7322834645669292},{"number":64,"time":94.1989583333324,"value":0.8267716535433071},{"number":64,"time":94.19999999999906,"value":0.8267716535433071},{"number":64,"time":96.01458333333241,"value":0.7322834645669292},{"number":64,"time":96.01562499999908,"value":0.7322834645669292},{"number":64,"time":96.02187499999907,"value":0.6535433070866141},{"number":64,"time":96.02291666666574,"value":0.6535433070866141},{"number":64,"time":96.0302083333324,"value":0.6141732283464567},{"number":64,"time":96.03124999999906,"value":0.6141732283464567},{"number":64,"time":96.03749999999906,"value":0.5748031496062992},{"number":64,"time":96.03854166666572,"value":0.5748031496062992},{"number":64,"time":96.04583333333238,"value":0.5433070866141733},{"number":64,"time":96.04687499999905,"value":0.5433070866141733},{"number":64,"time":96.05312499999904,"value":0.49606299212598426},{"number":64,"time":96.05416666666571,"value":0.49606299212598426},{"number":64,"time":96.06458333333238,"value":0.4015748031496063},{"number":64,"time":96.06458333333238,"value":0.4015748031496063},{"number":64,"time":96.14479166666571,"value":0.47244094488188976},{"number":64,"time":96.14583333333238,"value":0.47244094488188976},{"number":64,"time":96.15312499999904,"value":0.5039370078740157},{"number":64,"time":96.1541666666657,"value":0.5039370078740157},{"number":64,"time":96.16562499999904,"value":0.5354330708661418},{"number":64,"time":96.1666666666657,"value":0.5354330708661418},{"number":64,"time":96.18124999999904,"value":0.5669291338582677},{"number":64,"time":96.1822916666657,"value":0.5669291338582677},{"number":64,"time":96.2010416666657,"value":0.5984251968503937},{"number":64,"time":96.20208333333237,"value":0.5984251968503937},{"number":64,"time":96.22499999999903,"value":0.6299212598425197},{"number":64,"time":96.2260416666657,"value":0.6299212598425197},{"number":64,"time":96.26562499999903,"value":0.7322834645669292},{"number":64,"time":96.2666666666657,"value":0.7322834645669292},{"number":64,"time":96.4260416666657,"value":0.8267716535433071},{"number":64,"time":96.42708333333236,"value":0.8267716535433071},{"number":64,"time":97.674999999999,"value":0.7322834645669292},{"number":64,"time":97.67604166666567,"value":0.7322834645669292},{"number":64,"time":97.68333333333233,"value":0.6535433070866141},{"number":64,"time":97.684374999999,"value":0.6535433070866141},{"number":64,"time":97.69166666666565,"value":0.6141732283464567},{"number":64,"time":97.69270833333232,"value":0.6141732283464567},{"number":64,"time":97.69999999999898,"value":0.5826771653543307},{"number":64,"time":97.70104166666565,"value":0.5826771653543307},{"number":64,"time":97.7083333333323,"value":0.5511811023622047},{"number":64,"time":97.70937499999897,"value":0.5511811023622047},{"number":64,"time":97.71562499999897,"value":0.5118110236220472},{"number":64,"time":97.71666666666563,"value":0.5118110236220472},{"number":64,"time":97.72395833333229,"value":0.48031496062992124},{"number":64,"time":97.72499999999896,"value":0.48031496062992124},{"number":64,"time":97.8114583333323,"value":0.5118110236220472},{"number":64,"time":97.8114583333323,"value":0.5118110236220472},{"number":64,"time":97.8239583333323,"value":0.5433070866141733},{"number":64,"time":97.82499999999897,"value":0.5433070866141733},{"number":64,"time":97.84374999999896,"value":0.5748031496062992},{"number":64,"time":97.84479166666563,"value":0.5748031496062992},{"number":64,"time":97.86354166666563,"value":0.6062992125984252},{"number":64,"time":97.86458333333229,"value":0.6062992125984252},{"number":64,"time":97.88020833333229,"value":0.6377952755905512},{"number":64,"time":97.88124999999896,"value":0.6377952755905512},{"number":64,"time":97.9083333333323,"value":0.7322834645669292},{"number":64,"time":97.90937499999896,"value":0.7322834645669292},{"number":64,"time":98.05104166666563,"value":0.8267716535433071},{"number":64,"time":98.05208333333229,"value":0.8267716535433071},{"number":64,"time":99.35520833333229,"value":0.7086614173228346},{"number":64,"time":99.35624999999895,"value":0.7086614173228346},{"number":64,"time":99.36458333333229,"value":0.6377952755905512},{"number":64,"time":99.36562499999896,"value":0.6377952755905512},{"number":64,"time":99.37187499999895,"value":0.5984251968503937},{"number":64,"time":99.37291666666562,"value":0.5984251968503937},{"number":64,"time":99.37916666666561,"value":0.5669291338582677},{"number":64,"time":99.38020833333228,"value":0.5669291338582677},{"number":64,"time":99.38749999999894,"value":0.5275590551181102},{"number":64,"time":99.3885416666656,"value":0.5275590551181102},{"number":64,"time":99.39583333333226,"value":0.4881889763779528},{"number":64,"time":99.39687499999893,"value":0.4881889763779528},{"number":64,"time":99.41145833333226,"value":0.4015748031496063},{"number":64,"time":99.41249999999893,"value":0.4015748031496063},{"number":64,"time":99.48333333333227,"value":0.48031496062992124},{"number":64,"time":99.48437499999893,"value":0.48031496062992124},{"number":64,"time":99.49583333333227,"value":0.5196850393700787},{"number":64,"time":99.49687499999894,"value":0.5196850393700787},{"number":64,"time":99.50729166666561,"value":0.5511811023622047},{"number":64,"time":99.50833333333227,"value":0.5511811023622047},{"number":64,"time":99.53124999999893,"value":0.5826771653543307},{"number":64,"time":99.5322916666656,"value":0.5826771653543307},{"number":64,"time":99.5510416666656,"value":0.6220472440944882},{"number":64,"time":99.55208333333226,"value":0.6220472440944882},{"number":64,"time":99.57187499999893,"value":0.6535433070866141},{"number":64,"time":99.57291666666559,"value":0.6535433070866141},{"number":64,"time":99.61562499999893,"value":0.7559055118110236},{"number":64,"time":99.6166666666656,"value":0.7559055118110236},{"number":64,"time":99.75937499999893,"value":0.8503937007874016},{"number":64,"time":99.75937499999893,"value":0.8503937007874016},{"number":64,"time":102.85624999999895,"value":0.7559055118110236},{"number":64,"time":102.85729166666562,"value":0.7559055118110236},{"number":64,"time":102.86562499999896,"value":0.6614173228346457},{"number":64,"time":102.86666666666562,"value":0.6614173228346457},{"number":64,"time":102.87291666666562,"value":0.6299212598425197},{"number":64,"time":102.87395833333228,"value":0.6299212598425197},{"number":64,"time":102.88020833333228,"value":0.5905511811023622},{"number":64,"time":102.88124999999894,"value":0.5905511811023622},{"number":64,"time":102.89166666666561,"value":0.5511811023622047},{"number":64,"time":102.89374999999895,"value":0.5511811023622047},{"number":64,"time":102.89999999999894,"value":0.5196850393700787},{"number":64,"time":102.9010416666656,"value":0.5196850393700787},{"number":64,"time":102.91354166666561,"value":0.4881889763779528},{"number":64,"time":102.91458333333227,"value":0.4881889763779528},{"number":64,"time":102.97604166666561,"value":0.5196850393700787},{"number":64,"time":102.97708333333227,"value":0.5196850393700787},{"number":64,"time":102.99270833333227,"value":0.5590551181102362},{"number":64,"time":102.99374999999894,"value":0.5590551181102362},{"number":64,"time":103.0166666666656,"value":0.5984251968503937},{"number":64,"time":103.0166666666656,"value":0.5984251968503937},{"number":64,"time":103.0322916666656,"value":0.6299212598425197},{"number":64,"time":103.03333333333227,"value":0.6299212598425197},{"number":64,"time":103.07291666666559,"value":0.7322834645669292},{"number":64,"time":103.07395833333226,"value":0.7322834645669292},{"number":64,"time":103.19270833333226,"value":0.8267716535433071},{"number":64,"time":103.19374999999893,"value":0.8267716535433071},{"number":64,"time":106.06354166666554,"value":0.7086614173228346},{"number":64,"time":106.06458333333221,"value":0.7086614173228346},{"number":64,"time":106.07187499999887,"value":0.6377952755905512},{"number":64,"time":106.07291666666553,"value":0.6377952755905512},{"number":64,"time":106.07916666666553,"value":0.5984251968503937},{"number":64,"time":106.07916666666553,"value":0.5984251968503937},{"number":64,"time":106.08749999999887,"value":0.5590551181102362},{"number":64,"time":106.08854166666553,"value":0.5590551181102362},{"number":64,"time":106.09479166666553,"value":0.5039370078740157},{"number":64,"time":106.0958333333322,"value":0.5039370078740157},{"number":64,"time":106.10729166666553,"value":0.3779527559055118},{"number":64,"time":106.1083333333322,"value":0.3779527559055118},{"number":64,"time":106.11874999999887,"value":0.2755905511811024},{"number":64,"time":106.11979166666553,"value":0.2755905511811024},{"number":64,"time":106.1864583333322,"value":0.3779527559055118},{"number":64,"time":106.18749999999886,"value":0.3779527559055118},{"number":64,"time":106.19791666666553,"value":0.48031496062992124},{"number":64,"time":106.1989583333322,"value":0.48031496062992124},{"number":64,"time":106.20624999999886,"value":0.5118110236220472},{"number":64,"time":106.20729166666553,"value":0.5118110236220472},{"number":64,"time":106.21562499999887,"value":0.5433070866141733},{"number":64,"time":106.21666666666553,"value":0.5433070866141733},{"number":64,"time":106.23124999999887,"value":0.5748031496062992},{"number":64,"time":106.23229166666553,"value":0.5748031496062992},{"number":64,"time":106.24687499999887,"value":0.6062992125984252},{"number":64,"time":106.24791666666553,"value":0.6062992125984252},{"number":64,"time":106.26562499999886,"value":0.6456692913385826},{"number":64,"time":106.26666666666553,"value":0.6456692913385826},{"number":64,"time":106.33541666666554,"value":0.7559055118110236},{"number":64,"time":106.3364583333322,"value":0.7559055118110236},{"number":64,"time":109.38437499999887,"value":0.6614173228346457},{"number":64,"time":109.38541666666553,"value":0.6614173228346457},{"number":64,"time":109.39374999999887,"value":0.6299212598425197},{"number":64,"time":109.39479166666554,"value":0.6299212598425197},{"number":64,"time":109.40104166666553,"value":0.5984251968503937},{"number":64,"time":109.4020833333322,"value":0.5984251968503937},{"number":64,"time":109.4083333333322,"value":0.5669291338582677},{"number":64,"time":109.40937499999886,"value":0.5669291338582677},{"number":64,"time":109.41666666666552,"value":0.5354330708661418},{"number":64,"time":109.41770833333219,"value":0.5354330708661418},{"number":64,"time":109.42395833333218,"value":0.4881889763779528},{"number":64,"time":109.42499999999885,"value":0.4881889763779528},{"number":64,"time":109.43541666666552,"value":0.3779527559055118},{"number":64,"time":109.43645833333218,"value":0.3779527559055118},{"number":64,"time":109.51979166666551,"value":0.48031496062992124},{"number":64,"time":109.52083333333218,"value":0.48031496062992124},{"number":64,"time":109.53229166666551,"value":0.5196850393700787},{"number":64,"time":109.53333333333218,"value":0.5196850393700787},{"number":64,"time":109.54791666666551,"value":0.5590551181102362},{"number":64,"time":109.54895833333218,"value":0.5590551181102362},{"number":64,"time":109.57187499999884,"value":0.5905511811023622},{"number":64,"time":109.5729166666655,"value":0.5905511811023622},{"number":64,"time":109.59583333333217,"value":0.6220472440944882},{"number":64,"time":109.59687499999883,"value":0.6220472440944882},{"number":64,"time":109.62395833333217,"value":0.6535433070866141},{"number":64,"time":109.62395833333217,"value":0.6535433070866141},{"number":64,"time":109.73958333333216,"value":0.7559055118110236},{"number":64,"time":109.74062499999883,"value":0.7559055118110236},{"number":64,"time":111.61874999999878,"value":0.8503937007874016},{"number":64,"time":111.61979166666545,"value":0.8503937007874016},{"number":64,"time":112.85937499999875,"value":0.7322834645669292},{"number":64,"time":112.86041666666542,"value":0.7322834645669292},{"number":64,"time":112.86770833333208,"value":0.6377952755905512},{"number":64,"time":112.86874999999874,"value":0.6377952755905512},{"number":64,"time":112.87499999999874,"value":0.5905511811023622},{"number":64,"time":112.8760416666654,"value":0.5905511811023622},{"number":64,"time":112.88333333333206,"value":0.5433070866141733},{"number":64,"time":112.88437499999873,"value":0.5433070866141733},{"number":64,"time":112.89062499999872,"value":0.48031496062992124},{"number":64,"time":112.89166666666539,"value":0.48031496062992124},{"number":64,"time":112.89895833333205,"value":0.3543307086614173},{"number":64,"time":112.89999999999871,"value":0.3543307086614173},{"number":64,"time":112.90729166666537,"value":0.25196850393700787},{"number":64,"time":112.90833333333204,"value":0.25196850393700787},{"number":64,"time":112.91874999999871,"value":0.14960629921259844},{"number":64,"time":112.91979166666538,"value":0.14960629921259844},{"number":64,"time":112.93437499999871,"value":0.05511811023622047},{"number":64,"time":112.93541666666538,"value":0.05511811023622047},{"number":64,"time":112.99062499999872,"value":0.2047244094488189},{"number":64,"time":112.99166666666538,"value":0.2047244094488189},{"number":64,"time":113.00312499999872,"value":0.3779527559055118},{"number":64,"time":113.00416666666538,"value":0.3779527559055118},{"number":64,"time":113.01041666666538,"value":0.48031496062992124},{"number":64,"time":113.01145833333204,"value":0.48031496062992124},{"number":64,"time":113.0187499999987,"value":0.5118110236220472},{"number":64,"time":113.0187499999987,"value":0.5118110236220472},{"number":64,"time":113.02708333333204,"value":0.5433070866141733},{"number":64,"time":113.02812499999871,"value":0.5433070866141733},{"number":64,"time":113.05520833333205,"value":0.5748031496062992},{"number":64,"time":113.05624999999871,"value":0.5748031496062992},{"number":64,"time":113.07916666666537,"value":0.6062992125984252},{"number":64,"time":113.08020833333204,"value":0.6062992125984252},{"number":64,"time":113.09479166666537,"value":0.6377952755905512},{"number":64,"time":113.09479166666537,"value":0.6377952755905512},{"number":64,"time":113.13541666666536,"value":0.7322834645669292},{"number":64,"time":113.13645833333203,"value":0.7322834645669292},{"number":64,"time":113.53437499999868,"value":0.8267716535433071},{"number":64,"time":113.53541666666534,"value":0.8267716535433071},{"number":64,"time":113.60624999999867,"value":0.7322834645669292},{"number":64,"time":113.60729166666533,"value":0.7322834645669292},{"number":64,"time":113.61458333333199,"value":0.6456692913385826},{"number":64,"time":113.61562499999866,"value":0.6456692913385826},{"number":64,"time":113.62291666666532,"value":0.6062992125984252},{"number":64,"time":113.62395833333198,"value":0.6062992125984252},{"number":64,"time":113.63124999999864,"value":0.5748031496062992},{"number":64,"time":113.63124999999864,"value":0.5748031496062992},{"number":64,"time":113.6385416666653,"value":0.5354330708661418},{"number":64,"time":113.63958333333197,"value":0.5354330708661418},{"number":64,"time":113.64687499999863,"value":0.4881889763779528},{"number":64,"time":113.6479166666653,"value":0.4881889763779528},{"number":64,"time":113.65833333333197,"value":0.3779527559055118},{"number":64,"time":113.6604166666653,"value":0.3779527559055118},{"number":64,"time":113.74270833333196,"value":0.47244094488188976},{"number":64,"time":113.74374999999863,"value":0.47244094488188976},{"number":64,"time":113.75104166666529,"value":0.5039370078740157},{"number":64,"time":113.75208333333195,"value":0.5039370078740157},{"number":64,"time":113.76249999999862,"value":0.5354330708661418},{"number":64,"time":113.76354166666529,"value":0.5354330708661418},{"number":64,"time":113.78229166666529,"value":0.5669291338582677},{"number":64,"time":113.78333333333195,"value":0.5669291338582677},{"number":64,"time":113.81770833333195,"value":0.5984251968503937},{"number":64,"time":113.81874999999862,"value":0.5984251968503937},{"number":64,"time":113.87812499999862,"value":0.6299212598425197},{"number":64,"time":113.87916666666528,"value":0.6299212598425197},{"number":64,"time":114.33020833333194,"value":0.7322834645669292},{"number":64,"time":114.33020833333194,"value":0.7322834645669292},{"number":64,"time":114.41770833333194,"value":0.6535433070866141},{"number":64,"time":114.41874999999861,"value":0.6535433070866141},{"number":64,"time":114.42708333333195,"value":0.6220472440944882},{"number":64,"time":114.42812499999862,"value":0.6220472440944882},{"number":64,"time":114.43749999999862,"value":0.5905511811023622},{"number":64,"time":114.43854166666529,"value":0.5905511811023622},{"number":64,"time":114.44687499999863,"value":0.5590551181102362},{"number":64,"time":114.4479166666653,"value":0.5590551181102362},{"number":64,"time":114.45416666666529,"value":0.5118110236220472},{"number":64,"time":114.45520833333195,"value":0.5118110236220472},{"number":64,"time":114.46562499999862,"value":0.3779527559055118},{"number":64,"time":114.46666666666529,"value":0.3779527559055118},{"number":64,"time":114.47395833333195,"value":0.2755905511811024},{"number":64,"time":114.47499999999862,"value":0.2755905511811024},{"number":64,"time":114.48958333333195,"value":0.14960629921259844},{"number":64,"time":114.49062499999862,"value":0.14960629921259844},{"number":64,"time":114.50208333333195,"value":0.05511811023622047},{"number":64,"time":114.50312499999862,"value":0.05511811023622047},{"number":64,"time":114.50624999999862,"value":0},{"number":64,"time":114.50624999999862,"value":0},{"number":64,"time":114.60624999999861,"value":0.10236220472440945},{"number":64,"time":114.60729166666528,"value":0.10236220472440945},{"number":64,"time":114.60937499999861,"value":0.2047244094488189},{"number":64,"time":114.61041666666527,"value":0.2047244094488189},{"number":64,"time":114.61770833333193,"value":0.33070866141732286},{"number":64,"time":114.6187499999986,"value":0.33070866141732286},{"number":64,"time":114.62604166666526,"value":0.44881889763779526},{"number":64,"time":114.62708333333192,"value":0.44881889763779526},{"number":64,"time":114.63020833333192,"value":0.48031496062992124},{"number":64,"time":114.63020833333192,"value":0.48031496062992124},{"number":64,"time":114.63749999999858,"value":0.5118110236220472},{"number":64,"time":114.63854166666525,"value":0.5118110236220472},{"number":64,"time":114.68541666666525,"value":0.5433070866141733},{"number":64,"time":114.68645833333191,"value":0.5433070866141733},{"number":64,"time":114.71770833333191,"value":0.5748031496062992},{"number":64,"time":114.71874999999858,"value":0.5748031496062992},{"number":64,"time":114.74687499999857,"value":0.6062992125984252},{"number":64,"time":114.74791666666523,"value":0.6062992125984252},{"number":64,"time":114.77812499999857,"value":0.6377952755905512},{"number":64,"time":114.77916666666523,"value":0.6377952755905512},{"number":64,"time":114.8739583333319,"value":0.7322834645669292},{"number":64,"time":114.87499999999856,"value":0.7322834645669292},{"number":64,"time":117.09166666666523,"value":0.8267716535433071},{"number":64,"time":117.0927083333319,"value":0.8267716535433071},{"number":64,"time":117.84270833333187,"value":0.7559055118110236},{"number":64,"time":117.84374999999854,"value":0.7559055118110236},{"number":64,"time":117.85416666666521,"value":0.6456692913385826},{"number":64,"time":117.85416666666521,"value":0.6456692913385826},{"number":64,"time":117.86249999999855,"value":0.6062992125984252},{"number":64,"time":117.86249999999855,"value":0.6062992125984252},{"number":64,"time":117.86979166666521,"value":0.5748031496062992},{"number":64,"time":117.87083333333187,"value":0.5748031496062992},{"number":64,"time":117.87812499999853,"value":0.5354330708661418},{"number":64,"time":117.88020833333186,"value":0.5354330708661418},{"number":64,"time":117.8854166666652,"value":0.4881889763779528},{"number":64,"time":117.88645833333186,"value":0.4881889763779528},{"number":64,"time":117.89895833333186,"value":0.4015748031496063},{"number":64,"time":117.89999999999853,"value":0.4015748031496063},{"number":64,"time":117.98958333333186,"value":0.48031496062992124},{"number":64,"time":117.99062499999853,"value":0.48031496062992124},{"number":64,"time":117.99999999999854,"value":0},{"number":64,"time":118.00208333333187,"value":0.5196850393700787},{"number":64,"time":118.00312499999853,"value":0.5196850393700787},{"number":64,"time":118.01770833333187,"value":0.5511811023622047},{"number":64,"time":118.01874999999853,"value":0.5511811023622047},{"number":64,"time":118.0416666666652,"value":0.5826771653543307},{"number":64,"time":118.04270833333186,"value":0.5826771653543307},{"number":64,"time":118.0572916666652,"value":0.6141732283464567},{"number":64,"time":118.05833333333186,"value":0.6141732283464567},{"number":64,"time":118.0697916666652,"value":0.6456692913385826},{"number":64,"time":118.07083333333186,"value":0.6456692913385826},{"number":64,"time":118.13749999999854,"value":0.7559055118110236},{"number":64,"time":118.13749999999854,"value":0.7559055118110236},{"number":64,"time":118.52604166666522,"value":0.8503937007874016},{"number":64,"time":118.52604166666522,"value":0.8503937007874016},{"number":64,"time":118.66562499999856,"value":0.7559055118110236},{"number":64,"time":118.66666666666522,"value":0.7559055118110236},{"number":64,"time":118.67395833333188,"value":0.6614173228346457},{"number":64,"time":118.67395833333188,"value":0.6614173228346457},{"number":64,"time":118.68229166666522,"value":0.6299212598425197},{"number":64,"time":118.68333333333189,"value":0.6299212598425197},{"number":64,"time":118.68958333333188,"value":0.5905511811023622},{"number":64,"time":118.69062499999855,"value":0.5905511811023622},{"number":64,"time":118.69791666666521,"value":0.5590551181102362},{"number":64,"time":118.69791666666521,"value":0.5590551181102362},{"number":64,"time":118.70520833333187,"value":0.5275590551181102},{"number":64,"time":118.70624999999853,"value":0.5275590551181102},{"number":64,"time":118.7135416666652,"value":0.4881889763779528},{"number":64,"time":118.7135416666652,"value":0.4881889763779528},{"number":64,"time":118.73020833333186,"value":0.4015748031496063},{"number":64,"time":118.73124999999852,"value":0.4015748031496063},{"number":64,"time":118.78229166666519,"value":0.47244094488188976},{"number":64,"time":118.78333333333185,"value":0.47244094488188976},{"number":64,"time":118.79791666666519,"value":0.5039370078740157},{"number":64,"time":118.79895833333185,"value":0.5039370078740157},{"number":64,"time":118.80937499999852,"value":0.5354330708661418},{"number":64,"time":118.81041666666519,"value":0.5354330708661418},{"number":64,"time":118.83333333333185,"value":0.5669291338582677},{"number":64,"time":118.83437499999852,"value":0.5669291338582677},{"number":64,"time":118.86145833333185,"value":0.5984251968503937},{"number":64,"time":118.86249999999852,"value":0.5984251968503937},{"number":64,"time":118.88854166666519,"value":0.6299212598425197},{"number":64,"time":118.88854166666519,"value":0.6299212598425197},{"number":64,"time":119.01249999999852,"value":0.7322834645669292},{"number":64,"time":119.01354166666519,"value":0.7322834645669292},{"number":64,"time":119.4406249999985,"value":0.6535433070866141},{"number":64,"time":119.44166666666517,"value":0.6535433070866141},{"number":64,"time":119.4531249999985,"value":0.6141732283464567},{"number":64,"time":119.45416666666516,"value":0.6141732283464567},{"number":64,"time":119.46145833333182,"value":0.5826771653543307},{"number":64,"time":119.46249999999849,"value":0.5826771653543307},{"number":64,"time":119.47083333333181,"value":0.5511811023622047},{"number":64,"time":119.47187499999848,"value":0.5511811023622047},{"number":64,"time":119.47604166666514,"value":0.5039370078740157},{"number":64,"time":119.4770833333318,"value":0.5039370078740157},{"number":64,"time":119.48854166666514,"value":0.3779527559055118},{"number":64,"time":119.48958333333181,"value":0.3779527559055118},{"number":64,"time":119.50104166666515,"value":0.2755905511811024},{"number":64,"time":119.50104166666515,"value":0.2755905511811024},{"number":64,"time":119.52916666666515,"value":0.18110236220472442},{"number":64,"time":119.53020833333181,"value":0.18110236220472442},{"number":64,"time":119.60104166666515,"value":0.2992125984251969},{"number":64,"time":119.60104166666515,"value":0.2992125984251969},{"number":64,"time":119.60833333333181,"value":0.4015748031496063},{"number":64,"time":119.60937499999848,"value":0.4015748031496063},{"number":64,"time":119.61666666666514,"value":0.47244094488188976},{"number":64,"time":119.6177083333318,"value":0.47244094488188976},{"number":64,"time":119.62499999999847,"value":0.5039370078740157},{"number":64,"time":119.62499999999847,"value":0.5039370078740157},{"number":64,"time":119.6489583333318,"value":0.5354330708661418},{"number":64,"time":119.64999999999847,"value":0.5354330708661418},{"number":64,"time":119.69687499999847,"value":0.5669291338582677},{"number":64,"time":119.69791666666514,"value":0.5669291338582677},{"number":64,"time":119.72604166666514,"value":0.5984251968503937},{"number":64,"time":119.7270833333318,"value":0.5984251968503937},{"number":64,"time":119.75624999999847,"value":0.6299212598425197},{"number":64,"time":119.75729166666514,"value":0.6299212598425197},{"number":64,"time":119.86041666666513,"value":0.7322834645669292},{"number":64,"time":119.8614583333318,"value":0.7322834645669292},{"number":64,"time":120.0645833333318,"value":0.8267716535433071},{"number":64,"time":120.06562499999846,"value":0.8267716535433071},{"number":64,"time":122.95937499999845,"value":0.7322834645669292},{"number":64,"time":122.96041666666511,"value":0.7322834645669292},{"number":64,"time":122.96770833333177,"value":0.6535433070866141},{"number":64,"time":122.96874999999844,"value":0.6535433070866141},{"number":64,"time":122.97499999999843,"value":0.6141732283464567},{"number":64,"time":122.9760416666651,"value":0.6141732283464567},{"number":64,"time":122.98333333333176,"value":0.5826771653543307},{"number":64,"time":122.98333333333176,"value":0.5826771653543307},{"number":64,"time":122.9916666666651,"value":0.5511811023622047},{"number":64,"time":122.99270833333176,"value":0.5511811023622047},{"number":64,"time":122.99895833333176,"value":0.5118110236220472},{"number":64,"time":122.99999999999842,"value":0.5118110236220472},{"number":64,"time":123.00729166666508,"value":0.47244094488188976},{"number":64,"time":123.00833333333175,"value":0.47244094488188976},{"number":64,"time":123.01562499999841,"value":0.3779527559055118},{"number":64,"time":123.01666666666507,"value":0.3779527559055118},{"number":64,"time":123.09895833333174,"value":0.47244094488188976},{"number":64,"time":123.0999999999984,"value":0.47244094488188976},{"number":64,"time":123.10729166666506,"value":0.5039370078740157},{"number":64,"time":123.10833333333173,"value":0.5039370078740157},{"number":64,"time":123.11979166666507,"value":0.5354330708661418},{"number":64,"time":123.11979166666507,"value":0.5354330708661418},{"number":64,"time":123.1437499999984,"value":0.5669291338582677},{"number":64,"time":123.14479166666507,"value":0.5669291338582677},{"number":64,"time":123.16770833333173,"value":0.5984251968503937},{"number":64,"time":123.16770833333173,"value":0.5984251968503937},{"number":64,"time":123.19166666666507,"value":0.6299212598425197},{"number":64,"time":123.19270833333174,"value":0.6299212598425197},{"number":64,"time":123.2468749999984,"value":0.7322834645669292},{"number":64,"time":123.24791666666506,"value":0.7322834645669292},{"number":64,"time":123.3437499999984,"value":0.8267716535433071},{"number":64,"time":123.34479166666506,"value":0.8267716535433071},{"number":64,"time":125.53854166666505,"value":0.7322834645669292},{"number":64,"time":125.53958333333172,"value":0.7322834645669292},{"number":64,"time":125.54583333333171,"value":0.6456692913385826},{"number":64,"time":125.54687499999838,"value":0.6456692913385826},{"number":64,"time":125.55416666666504,"value":0.6062992125984252},{"number":64,"time":125.55416666666504,"value":0.6062992125984252},{"number":64,"time":125.56249999999838,"value":0.5748031496062992},{"number":64,"time":125.56354166666505,"value":0.5748031496062992},{"number":64,"time":125.56979166666504,"value":0.5354330708661418},{"number":64,"time":125.5708333333317,"value":0.5354330708661418},{"number":64,"time":125.57812499999837,"value":0.48031496062992124},{"number":64,"time":125.57916666666503,"value":0.48031496062992124},{"number":64,"time":125.59062499999837,"value":0.3543307086614173},{"number":64,"time":125.59062499999837,"value":0.3543307086614173},{"number":64,"time":125.62187499999837,"value":0.25196850393700787},{"number":64,"time":125.62291666666503,"value":0.25196850393700787},{"number":64,"time":125.6864583333317,"value":0.3779527559055118},{"number":64,"time":125.68749999999837,"value":0.3779527559055118},{"number":64,"time":125.69791666666504,"value":0.47244094488188976},{"number":64,"time":125.6989583333317,"value":0.47244094488188976},{"number":64,"time":125.70624999999836,"value":0.5039370078740157},{"number":64,"time":125.70624999999836,"value":0.5039370078740157},{"number":64,"time":125.71979166666503,"value":0.5354330708661418},{"number":64,"time":125.71979166666503,"value":0.5354330708661418},{"number":64,"time":125.74166666666503,"value":0.5669291338582677},{"number":64,"time":125.74270833333169,"value":0.5669291338582677},{"number":64,"time":125.76666666666503,"value":0.5984251968503937},{"number":64,"time":125.7677083333317,"value":0.5984251968503937},{"number":64,"time":125.79374999999837,"value":0.6299212598425197},{"number":64,"time":125.79479166666503,"value":0.6299212598425197},{"number":64,"time":125.86249999999836,"value":0.7322834645669292},{"number":64,"time":125.86354166666503,"value":0.7322834645669292},{"number":64,"time":126.04166666666504,"value":0.8267716535433071},{"number":64,"time":126.0427083333317,"value":0.8267716535433071},{"number":64,"time":128.11979166666504,"value":0.7322834645669292},{"number":64,"time":128.12083333333172,"value":0.7322834645669292},{"number":64,"time":128.12916666666504,"value":0.6535433070866141},{"number":64,"time":128.13020833333172,"value":0.6535433070866141},{"number":64,"time":128.13541666666507,"value":0.6220472440944882},{"number":64,"time":128.13645833333175,"value":0.6220472440944882},{"number":64,"time":128.14374999999842,"value":0.5905511811023622},{"number":64,"time":128.14583333333175,"value":0.5905511811023622},{"number":64,"time":128.1510416666651,"value":0.5590551181102362},{"number":64,"time":128.15208333333177,"value":0.5590551181102362},{"number":64,"time":128.1604166666651,"value":0.5196850393700787},{"number":64,"time":128.16145833333178,"value":0.5196850393700787},{"number":64,"time":128.16666666666512,"value":0.47244094488188976},{"number":64,"time":128.1677083333318,"value":0.47244094488188976},{"number":64,"time":128.1802083333318,"value":0.3779527559055118},{"number":64,"time":128.18124999999847,"value":0.3779527559055118},{"number":64,"time":128.2677083333318,"value":0.47244094488188976},{"number":64,"time":128.26874999999848,"value":0.47244094488188976},{"number":64,"time":128.27916666666513,"value":0.5039370078740157},{"number":64,"time":128.2802083333318,"value":0.5039370078740157},{"number":64,"time":128.29166666666515,"value":0.5354330708661418},{"number":64,"time":128.29374999999848,"value":0.5354330708661418},{"number":64,"time":128.3114583333318,"value":0.5669291338582677},{"number":64,"time":128.3124999999985,"value":0.5669291338582677},{"number":64,"time":128.33645833333182,"value":0.5984251968503937},{"number":64,"time":128.3374999999985,"value":0.5984251968503937},{"number":64,"time":128.3531249999985,"value":0.6299212598425197},{"number":64,"time":128.35416666666518,"value":0.6299212598425197},{"number":64,"time":128.42083333333184,"value":0.7322834645669292},{"number":64,"time":128.42083333333184,"value":0.7322834645669292},{"number":64,"time":128.55624999999853,"value":0.8267716535433071},{"number":64,"time":128.5572916666652,"value":0.8267716535433071},{"number":64,"time":130.76666666666523,"value":0.7086614173228346},{"number":64,"time":130.7677083333319,"value":0.7086614173228346},{"number":64,"time":130.7739583333319,"value":0.6456692913385826},{"number":64,"time":130.77499999999858,"value":0.6456692913385826},{"number":64,"time":130.78229166666526,"value":0.6062992125984252},{"number":64,"time":130.78333333333194,"value":0.6062992125984252},{"number":64,"time":130.78958333333193,"value":0.5748031496062992},{"number":64,"time":130.7906249999986,"value":0.5748031496062992},{"number":64,"time":130.7979166666653,"value":0.5433070866141733},{"number":64,"time":130.79895833333197,"value":0.5433070866141733},{"number":64,"time":130.80624999999864,"value":0.5039370078740157},{"number":64,"time":130.80729166666532,"value":0.5039370078740157},{"number":64,"time":130.82187499999864,"value":0.3779527559055118},{"number":64,"time":130.82291666666532,"value":0.3779527559055118},{"number":64,"time":130.91041666666533,"value":0.47244094488188976},{"number":64,"time":130.911458333332,"value":0.47244094488188976},{"number":64,"time":130.92187499999866,"value":0.5039370078740157},{"number":64,"time":130.92291666666534,"value":0.5039370078740157},{"number":64,"time":130.93437499999868,"value":0.5354330708661418},{"number":64,"time":130.93541666666536,"value":0.5354330708661418},{"number":64,"time":130.95833333333204,"value":0.5669291338582677},{"number":64,"time":130.95833333333204,"value":0.5669291338582677},{"number":64,"time":130.98333333333204,"value":0.5984251968503937},{"number":64,"time":130.98437499999872,"value":0.5984251968503937},{"number":64,"time":131.0072916666654,"value":0.6377952755905512},{"number":64,"time":131.00833333333208,"value":0.6377952755905512},{"number":64,"time":131.0979166666654,"value":0.7322834645669292},{"number":64,"time":131.0979166666654,"value":0.7322834645669292},{"number":64,"time":131.20208333333204,"value":0.8267716535433071},{"number":64,"time":131.20312499999872,"value":0.8267716535433071},{"number":64,"time":134.2093749999988,"value":0.7086614173228346},{"number":64,"time":134.21041666666548,"value":0.7086614173228346},{"number":64,"time":134.21770833333215,"value":0.6299212598425197},{"number":64,"time":134.21874999999883,"value":0.6299212598425197},{"number":64,"time":134.22499999999883,"value":0.5905511811023622},{"number":64,"time":134.2260416666655,"value":0.5905511811023622},{"number":64,"time":134.23333333333218,"value":0.5354330708661418},{"number":64,"time":134.23333333333218,"value":0.5354330708661418},{"number":64,"time":134.2364583333322,"value":0.49606299212598426},{"number":64,"time":134.23749999999887,"value":0.49606299212598426},{"number":64,"time":134.24479166666555,"value":0.3543307086614173},{"number":64,"time":134.24479166666555,"value":0.3543307086614173},{"number":64,"time":134.2489583333322,"value":0.25196850393700787},{"number":64,"time":134.2499999999989,"value":0.25196850393700787},{"number":64,"time":134.2531249999989,"value":0.14960629921259844},{"number":64,"time":134.25416666666558,"value":0.14960629921259844},{"number":64,"time":134.2572916666656,"value":0.05511811023622047},{"number":64,"time":134.2572916666656,"value":0.05511811023622047},{"number":64,"time":134.2604166666656,"value":0},{"number":64,"time":134.26145833333229,"value":0},{"number":64,"time":134.38124999999894,"value":0.12598425196850394},{"number":64,"time":134.38229166666562,"value":0.12598425196850394},{"number":64,"time":134.38541666666563,"value":0.2283464566929134},{"number":64,"time":134.3864583333323,"value":0.2283464566929134},{"number":64,"time":134.3927083333323,"value":0.3779527559055118},{"number":64,"time":134.393749999999,"value":0.3779527559055118},{"number":64,"time":134.396874999999,"value":0.47244094488188976},{"number":64,"time":134.396874999999,"value":0.47244094488188976},{"number":64,"time":134.40520833333233,"value":0.5118110236220472},{"number":64,"time":134.406249999999,"value":0.5118110236220472},{"number":64,"time":134.41666666666566,"value":0.5433070866141733},{"number":64,"time":134.41770833333234,"value":0.5433070866141733},{"number":64,"time":134.45729166666567,"value":0.5748031496062992},{"number":64,"time":134.45833333333235,"value":0.5748031496062992},{"number":64,"time":134.48124999999902,"value":0.6062992125984252},{"number":64,"time":134.4822916666657,"value":0.6062992125984252},{"number":64,"time":134.5010416666657,"value":0.6377952755905512},{"number":64,"time":134.5020833333324,"value":0.6377952755905512},{"number":64,"time":134.6645833333324,"value":0.7322834645669292},{"number":64,"time":134.66562499999907,"value":0.7322834645669292},{"number":64,"time":134.94374999999908,"value":0.8267716535433071},{"number":64,"time":134.94479166666576,"value":0.8267716535433071},{"number":64,"time":135.03229166666577,"value":0.7322834645669292},{"number":64,"time":135.03333333333245,"value":0.7322834645669292},{"number":64,"time":135.04062499999912,"value":0.6456692913385826},{"number":64,"time":135.0416666666658,"value":0.6456692913385826},{"number":64,"time":135.0479166666658,"value":0.6062992125984252},{"number":64,"time":135.04895833333248,"value":0.6062992125984252},{"number":64,"time":135.05624999999915,"value":0.5748031496062992},{"number":64,"time":135.05729166666583,"value":0.5748031496062992},{"number":64,"time":135.06354166666583,"value":0.5354330708661418},{"number":64,"time":135.0645833333325,"value":0.5354330708661418},{"number":64,"time":135.06770833333252,"value":0.5039370078740157},{"number":64,"time":135.0687499999992,"value":0.5039370078740157},{"number":64,"time":135.0718749999992,"value":0.47244094488188976},{"number":64,"time":135.0729166666659,"value":0.47244094488188976},{"number":64,"time":135.08020833333256,"value":0.33070866141732286},{"number":64,"time":135.08124999999924,"value":0.33070866141732286},{"number":64,"time":135.0916666666659,"value":0.2047244094488189},{"number":64,"time":135.09270833333258,"value":0.2047244094488189},{"number":64,"time":135.1166666666659,"value":0.10236220472440945},{"number":64,"time":135.1177083333326,"value":0.10236220472440945},{"number":64,"time":135.1802083333326,"value":0.2047244094488189},{"number":64,"time":135.18124999999927,"value":0.2047244094488189},{"number":64,"time":135.18749999999926,"value":0.33070866141732286},{"number":64,"time":135.18854166666594,"value":0.33070866141732286},{"number":64,"time":135.19583333333262,"value":0.44881889763779526},{"number":64,"time":135.1968749999993,"value":0.44881889763779526},{"number":64,"time":135.1999999999993,"value":0.4881889763779528},{"number":64,"time":135.201041666666,"value":0.4881889763779528},{"number":64,"time":135.20729166666598,"value":0.5275590551181102},{"number":64,"time":135.20833333333266,"value":0.5275590551181102},{"number":64,"time":135.219791666666,"value":0.5590551181102362},{"number":64,"time":135.22083333333268,"value":0.5590551181102362},{"number":64,"time":135.260416666666,"value":0.5905511811023622},{"number":64,"time":135.26145833333268,"value":0.5905511811023622},{"number":64,"time":135.291666666666,"value":0.6220472440944882},{"number":64,"time":135.29270833333268,"value":0.6220472440944882},{"number":64,"time":135.32083333333267,"value":0.6535433070866141},{"number":64,"time":135.32187499999935,"value":0.6535433070866141},{"number":64,"time":135.71145833333267,"value":0.7559055118110236},{"number":64,"time":135.71249999999935,"value":0.7559055118110236},{"number":64,"time":135.83020833333268,"value":0.6614173228346457},{"number":64,"time":135.83124999999936,"value":0.6614173228346457},{"number":64,"time":135.8364583333327,"value":0.6299212598425197},{"number":64,"time":135.83749999999938,"value":0.6299212598425197},{"number":64,"time":135.84791666666604,"value":0.5905511811023622},{"number":64,"time":135.84895833333272,"value":0.5905511811023622},{"number":64,"time":135.8562499999994,"value":0.5511811023622047},{"number":64,"time":135.8562499999994,"value":0.5511811023622047},{"number":64,"time":135.86354166666607,"value":0.49606299212598426},{"number":64,"time":135.86458333333275,"value":0.49606299212598426},{"number":64,"time":135.87187499999942,"value":0.3779527559055118},{"number":64,"time":135.8729166666661,"value":0.3779527559055118},{"number":64,"time":135.88020833333277,"value":0.2283464566929134},{"number":64,"time":135.88124999999945,"value":0.2283464566929134},{"number":64,"time":135.88749999999945,"value":0.10236220472440945},{"number":64,"time":135.88854166666613,"value":0.10236220472440945},{"number":64,"time":135.89999999999947,"value":0},{"number":64,"time":135.90104166666615,"value":0},{"number":64,"time":136.0239583333328,"value":0.12598425196850394},{"number":64,"time":136.0249999999995,"value":0.12598425196850394},{"number":64,"time":136.03229166666617,"value":0.2992125984251969},{"number":64,"time":136.03229166666617,"value":0.2992125984251969},{"number":64,"time":136.03958333333284,"value":0.4251968503937008},{"number":64,"time":136.04062499999952,"value":0.4251968503937008},{"number":64,"time":136.04374999999953,"value":0.48031496062992124},{"number":64,"time":136.0447916666662,"value":0.48031496062992124},{"number":64,"time":136.0520833333329,"value":0.5196850393700787},{"number":64,"time":136.05312499999957,"value":0.5196850393700787},{"number":64,"time":136.0802083333329,"value":0.5511811023622047},{"number":64,"time":136.08124999999959,"value":0.5511811023622047},{"number":64,"time":136.12395833333292,"value":0.5826771653543307},{"number":64,"time":136.1249999999996,"value":0.5826771653543307},{"number":64,"time":136.14791666666628,"value":0.6220472440944882},{"number":64,"time":136.14895833333296,"value":0.6220472440944882},{"number":64,"time":136.1760416666663,"value":0.6535433070866141},{"number":64,"time":136.17708333333297,"value":0.6535433070866141},{"number":64,"time":136.2885416666663,"value":0.7559055118110236},{"number":64,"time":136.28958333333298,"value":0.7559055118110236},{"number":64,"time":136.980208333333,"value":0.8503937007874016},{"number":64,"time":136.98124999999968,"value":0.8503937007874016},{"number":64,"time":139.26562499999963,"value":0.7559055118110236},{"number":64,"time":139.26562499999963,"value":0.7559055118110236},{"number":64,"time":139.27812499999962,"value":0.6456692913385826},{"number":64,"time":139.2791666666663,"value":0.6456692913385826},{"number":64,"time":139.2854166666663,"value":0.6062992125984252},{"number":64,"time":139.28645833333297,"value":0.6062992125984252},{"number":64,"time":139.29374999999965,"value":0.5669291338582677},{"number":64,"time":139.29479166666633,"value":0.5669291338582677},{"number":64,"time":139.29791666666634,"value":0.5354330708661418},{"number":64,"time":139.29895833333302,"value":0.5354330708661418},{"number":64,"time":139.30312499999968,"value":0.5039370078740157},{"number":64,"time":139.30312499999968,"value":0.5039370078740157},{"number":64,"time":139.30937499999968,"value":0.3779527559055118},{"number":64,"time":139.31041666666636,"value":0.3779527559055118},{"number":64,"time":139.31770833333303,"value":0.2047244094488189},{"number":64,"time":139.31770833333303,"value":0.2047244094488189},{"number":64,"time":139.32604166666636,"value":0.07874015748031496},{"number":64,"time":139.32708333333304,"value":0.07874015748031496},{"number":64,"time":139.33333333333303,"value":0},{"number":64,"time":139.3343749999997,"value":0},{"number":64,"time":139.43333333333305,"value":0.14960629921259844},{"number":64,"time":139.43437499999973,"value":0.14960629921259844},{"number":64,"time":139.4416666666664,"value":0.2992125984251969},{"number":64,"time":139.4416666666664,"value":0.2992125984251969},{"number":64,"time":139.44999999999973,"value":0.4251968503937008},{"number":64,"time":139.4510416666664,"value":0.4251968503937008},{"number":64,"time":139.45416666666642,"value":0.47244094488188976},{"number":64,"time":139.45416666666642,"value":0.47244094488188976},{"number":64,"time":139.4614583333331,"value":0.5039370078740157},{"number":64,"time":139.46249999999978,"value":0.5039370078740157},{"number":64,"time":139.47812499999978,"value":0.5354330708661418},{"number":64,"time":139.47812499999978,"value":0.5354330708661418},{"number":64,"time":139.5177083333331,"value":0.5669291338582677},{"number":64,"time":139.51874999999978,"value":0.5669291338582677},{"number":64,"time":139.54999999999978,"value":0.5984251968503937},{"number":64,"time":139.55104166666646,"value":0.5984251968503937},{"number":64,"time":139.57395833333314,"value":0.6377952755905512},{"number":64,"time":139.57499999999982,"value":0.6377952755905512},{"number":64,"time":139.7010416666665,"value":0.7322834645669292},{"number":64,"time":139.70208333333318,"value":0.7322834645669292},{"number":64,"time":140.0322916666665,"value":0.8267716535433071},{"number":64,"time":140.0333333333332,"value":0.8267716535433071},{"number":64,"time":140.10104166666653,"value":0.7322834645669292},{"number":64,"time":140.1020833333332,"value":0.7322834645669292},{"number":64,"time":140.1083333333332,"value":0.6535433070866141},{"number":64,"time":140.1093749999999,"value":0.6535433070866141},{"number":64,"time":140.12083333333322,"value":0.6141732283464567},{"number":64,"time":140.1218749999999,"value":0.6141732283464567},{"number":64,"time":140.12916666666658,"value":0.5826771653543307},{"number":64,"time":140.13020833333326,"value":0.5826771653543307},{"number":64,"time":140.13645833333325,"value":0.5511811023622047},{"number":64,"time":140.13749999999993,"value":0.5511811023622047},{"number":64,"time":140.1447916666666,"value":0.5118110236220472},{"number":64,"time":140.1458333333333,"value":0.5118110236220472},{"number":64,"time":140.15312499999996,"value":0.47244094488188976},{"number":64,"time":140.15416666666664,"value":0.47244094488188976},{"number":64,"time":140.16041666666663,"value":0.3779527559055118},{"number":64,"time":140.16145833333331,"value":0.3779527559055118},{"number":64,"time":140.18854166666665,"value":0.2755905511811024},{"number":64,"time":140.18958333333333,"value":0.2755905511811024},{"number":64,"time":140.27708333333334,"value":0.4015748031496063},{"number":64,"time":140.27708333333334,"value":0.4015748031496063},{"number":64,"time":140.28541666666666,"value":0.47244094488188976},{"number":64,"time":140.28645833333334,"value":0.47244094488188976},{"number":64,"time":140.29270833333334,"value":0.5039370078740157},{"number":64,"time":140.29375000000002,"value":0.5039370078740157},{"number":64,"time":140.30416666666667,"value":0.5354330708661418},{"number":64,"time":140.30520833333335,"value":0.5354330708661418},{"number":64,"time":140.33645833333335,"value":0.5669291338582677},{"number":64,"time":140.33750000000003,"value":0.5669291338582677},{"number":64,"time":140.36458333333337,"value":0.5984251968503937},{"number":64,"time":140.36458333333337,"value":0.5984251968503937},{"number":64,"time":140.3885416666667,"value":0.6377952755905512},{"number":64,"time":140.38958333333338,"value":0.6377952755905512},{"number":64,"time":140.5010416666667,"value":0.7322834645669292},{"number":64,"time":140.5020833333334,"value":0.7322834645669292},{"number":64,"time":140.79687500000006,"value":0.8267716535433071},{"number":64,"time":140.79791666666674,"value":0.8267716535433071},{"number":64,"time":140.9364583333334,"value":0.7322834645669292},{"number":64,"time":140.93750000000009,"value":0.7322834645669292},{"number":64,"time":140.94479166666676,"value":0.6535433070866141},{"number":64,"time":140.94583333333344,"value":0.6535433070866141},{"number":64,"time":140.9531250000001,"value":0.6220472440944882},{"number":64,"time":140.9541666666668,"value":0.6220472440944882},{"number":64,"time":140.9604166666668,"value":0.5905511811023622},{"number":64,"time":140.96145833333347,"value":0.5905511811023622},{"number":64,"time":140.96875000000014,"value":0.5590551181102362},{"number":64,"time":140.96979166666682,"value":0.5590551181102362},{"number":64,"time":140.9770833333335,"value":0.5039370078740157},{"number":64,"time":140.9770833333335,"value":0.5039370078740157},{"number":64,"time":140.98854166666683,"value":0.3779527559055118},{"number":64,"time":140.98854166666683,"value":0.3779527559055118},{"number":64,"time":140.99687500000016,"value":0.2755905511811024},{"number":64,"time":140.99791666666684,"value":0.2755905511811024},{"number":64,"time":141.01666666666685,"value":0.18110236220472442},{"number":64,"time":141.01666666666685,"value":0.18110236220472442},{"number":64,"time":141.02916666666684,"value":0.07874015748031496},{"number":64,"time":141.02916666666684,"value":0.07874015748031496},{"number":64,"time":141.04062500000018,"value":0},{"number":64,"time":141.04166666666686,"value":0},{"number":64,"time":141.10416666666686,"value":0.14960629921259844},{"number":64,"time":141.10520833333354,"value":0.14960629921259844},{"number":64,"time":141.1125000000002,"value":0.2755905511811024},{"number":64,"time":141.1125000000002,"value":0.2755905511811024},{"number":64,"time":141.12083333333354,"value":0.4251968503937008},{"number":64,"time":141.12187500000022,"value":0.4251968503937008},{"number":64,"time":141.12500000000023,"value":0.47244094488188976},{"number":64,"time":141.12500000000023,"value":0.47244094488188976},{"number":64,"time":141.1322916666669,"value":0.5118110236220472},{"number":64,"time":141.13333333333358,"value":0.5118110236220472},{"number":64,"time":141.14895833333358,"value":0.5433070866141733},{"number":64,"time":141.15000000000026,"value":0.5433070866141733},{"number":64,"time":141.1927083333336,"value":0.5748031496062992},{"number":64,"time":141.19375000000028,"value":0.5748031496062992},{"number":64,"time":141.21666666666695,"value":0.6062992125984252},{"number":64,"time":141.21666666666695,"value":0.6062992125984252},{"number":64,"time":141.24166666666696,"value":0.6377952755905512},{"number":64,"time":141.24270833333364,"value":0.6377952755905512},{"number":64,"time":141.31666666666698,"value":0.7322834645669292},{"number":64,"time":141.31770833333366,"value":0.7322834645669292},{"number":64,"time":141.4843750000003,"value":0.8267716535433071},{"number":64,"time":141.485416666667,"value":0.8267716535433071},{"number":64,"time":144.4062500000003,"value":0.7322834645669292},{"number":64,"time":144.407291666667,"value":0.7322834645669292},{"number":64,"time":144.41562500000032,"value":0.6456692913385826},{"number":64,"time":144.41562500000032,"value":0.6456692913385826},{"number":64,"time":144.4218750000003,"value":0.6062992125984252},{"number":64,"time":144.422916666667,"value":0.6062992125984252},{"number":64,"time":144.43020833333367,"value":0.5669291338582677},{"number":64,"time":144.43125000000035,"value":0.5669291338582677},{"number":64,"time":144.43854166666702,"value":0.5118110236220472},{"number":64,"time":144.4395833333337,"value":0.5118110236220472},{"number":64,"time":144.44375000000036,"value":0.48031496062992124},{"number":64,"time":144.44479166666704,"value":0.48031496062992124},{"number":64,"time":144.4500000000004,"value":0.3779527559055118},{"number":64,"time":144.45104166666707,"value":0.3779527559055118},{"number":64,"time":144.45833333333374,"value":0.2755905511811024},{"number":64,"time":144.45833333333374,"value":0.2755905511811024},{"number":64,"time":144.53854166666707,"value":0.3779527559055118},{"number":64,"time":144.53958333333375,"value":0.3779527559055118},{"number":64,"time":144.5510416666671,"value":0.48031496062992124},{"number":64,"time":144.55208333333377,"value":0.48031496062992124},{"number":64,"time":144.55833333333376,"value":0.5118110236220472},{"number":64,"time":144.55937500000044,"value":0.5118110236220472},{"number":64,"time":144.57187500000043,"value":0.5433070866141733},{"number":64,"time":144.57187500000043,"value":0.5433070866141733},{"number":64,"time":144.5916666666671,"value":0.5748031496062992},{"number":64,"time":144.59270833333377,"value":0.5748031496062992},{"number":64,"time":144.61562500000045,"value":0.6062992125984252},{"number":64,"time":144.61666666666713,"value":0.6062992125984252},{"number":64,"time":144.6302083333338,"value":0.6377952755905512},{"number":64,"time":144.63125000000048,"value":0.6377952755905512},{"number":64,"time":144.71041666666716,"value":0.7322834645669292},{"number":64,"time":144.71145833333384,"value":0.7322834645669292},{"number":64,"time":145.09895833333383,"value":0.8267716535433071},{"number":64,"time":145.09895833333383,"value":0.8267716535433071},{"number":64,"time":145.20625000000052,"value":0.7322834645669292},{"number":64,"time":145.2072916666672,"value":0.7322834645669292},{"number":64,"time":145.2197916666672,"value":0.6377952755905512},{"number":64,"time":145.22083333333387,"value":0.6377952755905512},{"number":64,"time":145.22708333333387,"value":0.6062992125984252},{"number":64,"time":145.22708333333387,"value":0.6062992125984252},{"number":64,"time":145.23437500000054,"value":0.5748031496062992},{"number":64,"time":145.23437500000054,"value":0.5748031496062992},{"number":64,"time":145.24270833333387,"value":0.5354330708661418},{"number":64,"time":145.24375000000055,"value":0.5354330708661418},{"number":64,"time":145.25000000000054,"value":0.4881889763779528},{"number":64,"time":145.25104166666722,"value":0.4881889763779528},{"number":64,"time":145.26250000000056,"value":0.4015748031496063},{"number":64,"time":145.26250000000056,"value":0.4015748031496063},{"number":64,"time":145.33854166666723,"value":0.47244094488188976},{"number":64,"time":145.3395833333339,"value":0.47244094488188976},{"number":64,"time":145.35104166666724,"value":0.5039370078740157},{"number":64,"time":145.35104166666724,"value":0.5039370078740157},{"number":64,"time":145.36250000000058,"value":0.5354330708661418},{"number":64,"time":145.36250000000058,"value":0.5354330708661418},{"number":64,"time":145.38750000000059,"value":0.5669291338582677},{"number":64,"time":145.38750000000059,"value":0.5669291338582677},{"number":64,"time":145.41458333333392,"value":0.5984251968503937},{"number":64,"time":145.4156250000006,"value":0.5984251968503937},{"number":64,"time":145.44270833333394,"value":0.6299212598425197},{"number":64,"time":145.44375000000062,"value":0.6299212598425197},{"number":64,"time":145.51041666666725,"value":0.7322834645669292},{"number":64,"time":145.51041666666725,"value":0.7322834645669292},{"number":64,"time":145.6500000000006,"value":0.8267716535433071},{"number":64,"time":145.65104166666728,"value":0.8267716535433071},{"number":64,"time":146.01458333333395,"value":0.7086614173228346},{"number":64,"time":146.01562500000063,"value":0.7086614173228346},{"number":64,"time":146.0229166666673,"value":0.6456692913385826},{"number":64,"time":146.0229166666673,"value":0.6456692913385826},{"number":64,"time":146.03020833333397,"value":0.5984251968503937},{"number":64,"time":146.03125000000065,"value":0.5984251968503937},{"number":64,"time":146.03854166666733,"value":0.5669291338582677},{"number":64,"time":146.039583333334,"value":0.5669291338582677},{"number":64,"time":146.04687500000068,"value":0.5196850393700787},{"number":64,"time":146.04791666666736,"value":0.5196850393700787},{"number":64,"time":146.0500000000007,"value":0.4881889763779528},{"number":64,"time":146.05104166666737,"value":0.4881889763779528},{"number":64,"time":146.05833333333405,"value":0.3779527559055118},{"number":64,"time":146.05833333333405,"value":0.3779527559055118},{"number":64,"time":146.07083333333404,"value":0.2755905511811024},{"number":64,"time":146.07083333333404,"value":0.2755905511811024},{"number":64,"time":146.0906250000007,"value":0.18110236220472442},{"number":64,"time":146.09166666666738,"value":0.18110236220472442},{"number":64,"time":146.1062500000007,"value":0.07874015748031496},{"number":64,"time":146.1062500000007,"value":0.07874015748031496},{"number":64,"time":146.1187500000007,"value":0},{"number":64,"time":146.11979166666737,"value":0},{"number":64,"time":146.1625000000007,"value":0.12598425196850394},{"number":64,"time":146.16354166666738,"value":0.12598425196850394},{"number":64,"time":146.17083333333406,"value":0.25196850393700787},{"number":64,"time":146.17083333333406,"value":0.25196850393700787},{"number":64,"time":146.17812500000073,"value":0.3543307086614173},{"number":64,"time":146.1791666666674,"value":0.3543307086614173},{"number":64,"time":146.1864583333341,"value":0.47244094488188976},{"number":64,"time":146.1864583333341,"value":0.47244094488188976},{"number":64,"time":146.1947916666674,"value":0.5118110236220472},{"number":64,"time":146.1958333333341,"value":0.5118110236220472},{"number":64,"time":146.2104166666674,"value":0.5433070866141733},{"number":64,"time":146.2104166666674,"value":0.5433070866141733},{"number":64,"time":146.25104166666742,"value":0.5748031496062992},{"number":64,"time":146.2520833333341,"value":0.5748031496062992},{"number":64,"time":146.27916666666744,"value":0.6062992125984252},{"number":64,"time":146.28020833333412,"value":0.6062992125984252},{"number":64,"time":146.29895833333413,"value":0.6377952755905512},{"number":64,"time":146.3000000000008,"value":0.6377952755905512},{"number":64,"time":146.40208333333413,"value":0.7322834645669292},{"number":64,"time":146.4031250000008,"value":0.7322834645669292},{"number":64,"time":146.57291666666748,"value":0.8267716535433071},{"number":64,"time":146.57395833333416,"value":0.8267716535433071},{"number":64,"time":152.6697916666676,"value":0.7086614173228346},{"number":64,"time":152.6708333333343,"value":0.7086614173228346},{"number":64,"time":152.6739583333343,"value":0.6535433070866141},{"number":64,"time":152.67500000000098,"value":0.6535433070866141},{"number":64,"time":152.68229166666765,"value":0.6062992125984252},{"number":64,"time":152.68333333333433,"value":0.6062992125984252},{"number":64,"time":152.690625000001,"value":0.5669291338582677},{"number":64,"time":152.690625000001,"value":0.5669291338582677},{"number":64,"time":152.69375000000102,"value":0.5354330708661418},{"number":64,"time":152.6947916666677,"value":0.5354330708661418},{"number":64,"time":152.6979166666677,"value":0.5039370078740157},{"number":64,"time":152.6989583333344,"value":0.5039370078740157},{"number":64,"time":152.70625000000106,"value":0.3543307086614173},{"number":64,"time":152.70729166666774,"value":0.3543307086614173},{"number":64,"time":152.71458333333442,"value":0.18110236220472442},{"number":64,"time":152.7156250000011,"value":0.18110236220472442},{"number":64,"time":152.7218750000011,"value":0.031496062992125984},{"number":64,"time":152.72291666666777,"value":0.031496062992125984},{"number":64,"time":152.72604166666778,"value":0},{"number":64,"time":152.72708333333446,"value":0},{"number":64,"time":152.8385416666678,"value":0.14960629921259844},{"number":64,"time":152.83958333333447,"value":0.14960629921259844},{"number":64,"time":152.84270833333449,"value":0.25196850393700787},{"number":64,"time":152.84270833333449,"value":0.25196850393700787},{"number":64,"time":152.8458333333345,"value":0.3543307086614173},{"number":64,"time":152.84687500000118,"value":0.3543307086614173},{"number":64,"time":152.85416666666785,"value":0.4881889763779528},{"number":64,"time":152.85520833333453,"value":0.4881889763779528},{"number":64,"time":152.85833333333454,"value":0.5196850393700787},{"number":64,"time":152.85937500000122,"value":0.5196850393700787},{"number":64,"time":152.86979166666788,"value":0.5590551181102362},{"number":64,"time":152.87083333333456,"value":0.5590551181102362},{"number":64,"time":152.8979166666679,"value":0.5905511811023622},{"number":64,"time":152.89895833333458,"value":0.5905511811023622},{"number":64,"time":152.93020833333458,"value":0.6220472440944882},{"number":64,"time":152.93125000000126,"value":0.6220472440944882},{"number":64,"time":152.95416666666793,"value":0.6535433070866141},{"number":64,"time":152.95416666666793,"value":0.6535433070866141},{"number":64,"time":153.06250000000125,"value":0.7559055118110236},{"number":64,"time":153.06250000000125,"value":0.7559055118110236},{"number":64,"time":153.50625000000127,"value":0.6614173228346457},{"number":64,"time":153.50729166666795,"value":0.6614173228346457},{"number":64,"time":153.51458333333463,"value":0.6299212598425197},{"number":64,"time":153.51666666666796,"value":0.6299212598425197},{"number":64,"time":153.5218750000013,"value":0.5984251968503937},{"number":64,"time":153.52291666666798,"value":0.5984251968503937},{"number":64,"time":153.52916666666798,"value":0.5669291338582677},{"number":64,"time":153.53020833333466,"value":0.5669291338582677},{"number":64,"time":153.53750000000133,"value":0.5196850393700787},{"number":64,"time":153.538541666668,"value":0.5196850393700787},{"number":64,"time":153.544791666668,"value":0.47244094488188976},{"number":64,"time":153.54583333333468,"value":0.47244094488188976},{"number":64,"time":153.55312500000136,"value":0.3543307086614173},{"number":64,"time":153.55416666666804,"value":0.3543307086614173},{"number":64,"time":153.58125000000138,"value":0.25196850393700787},{"number":64,"time":153.58229166666806,"value":0.25196850393700787},{"number":64,"time":153.64166666666804,"value":0.3543307086614173},{"number":64,"time":153.64270833333472,"value":0.3543307086614173},{"number":64,"time":153.65416666666806,"value":0.47244094488188976},{"number":64,"time":153.65520833333474,"value":0.47244094488188976},{"number":64,"time":153.66145833333474,"value":0.5039370078740157},{"number":64,"time":153.66145833333474,"value":0.5039370078740157},{"number":64,"time":153.67395833333472,"value":0.5354330708661418},{"number":64,"time":153.6750000000014,"value":0.5354330708661418},{"number":64,"time":153.70208333333474,"value":0.5669291338582677},{"number":64,"time":153.70312500000142,"value":0.5669291338582677},{"number":64,"time":153.75000000000142,"value":0.5984251968503937},{"number":64,"time":153.75000000000142,"value":0.5984251968503937},{"number":64,"time":153.78958333333475,"value":0.6377952755905512},{"number":64,"time":153.79062500000143,"value":0.6377952755905512},{"number":64,"time":153.92187500000142,"value":0.7322834645669292},{"number":64,"time":153.9229166666681,"value":0.7322834645669292},{"number":64,"time":154.00000000000142,"value":0},{"number":64,"time":154.24062500000142,"value":0.8267716535433071},{"number":64,"time":154.2416666666681,"value":0.8267716535433071},{"number":64,"time":154.2947916666681,"value":0.7322834645669292},{"number":64,"time":154.29583333333477,"value":0.7322834645669292},{"number":64,"time":154.3010416666681,"value":0.6535433070866141},{"number":64,"time":154.3020833333348,"value":0.6535433070866141},{"number":64,"time":154.31354166666813,"value":0.6141732283464567},{"number":64,"time":154.3145833333348,"value":0.6141732283464567},{"number":64,"time":154.3208333333348,"value":0.5748031496062992},{"number":64,"time":154.32187500000148,"value":0.5748031496062992},{"number":64,"time":154.32916666666816,"value":0.5433070866141733},{"number":64,"time":154.33020833333484,"value":0.5433070866141733},{"number":64,"time":154.33333333333485,"value":0.5118110236220472},{"number":64,"time":154.33437500000153,"value":0.5118110236220472},{"number":64,"time":154.33750000000154,"value":0.48031496062992124},{"number":64,"time":154.33750000000154,"value":0.48031496062992124},{"number":64,"time":154.34479166666821,"value":0.3779527559055118},{"number":64,"time":154.3458333333349,"value":0.3779527559055118},{"number":64,"time":154.35312500000157,"value":0.2755905511811024},{"number":64,"time":154.35416666666825,"value":0.2755905511811024},{"number":64,"time":154.3645833333349,"value":0.18110236220472442},{"number":64,"time":154.3656250000016,"value":0.18110236220472442},{"number":64,"time":154.3812500000016,"value":0.05511811023622047},{"number":64,"time":154.38229166666827,"value":0.05511811023622047},{"number":64,"time":154.39270833333492,"value":0},{"number":64,"time":154.3937500000016,"value":0},{"number":64,"time":154.47291666666828,"value":0.14960629921259844},{"number":64,"time":154.47395833333496,"value":0.14960629921259844},{"number":64,"time":154.48125000000164,"value":0.2992125984251969},{"number":64,"time":154.48229166666832,"value":0.2992125984251969},{"number":64,"time":154.4885416666683,"value":0.44881889763779526},{"number":64,"time":154.489583333335,"value":0.44881889763779526},{"number":64,"time":154.492708333335,"value":0.48031496062992124},{"number":64,"time":154.49375000000168,"value":0.48031496062992124},{"number":64,"time":154.50104166666836,"value":0.5196850393700787},{"number":64,"time":154.50208333333504,"value":0.5196850393700787},{"number":64,"time":154.53333333333504,"value":0.5511811023622047},{"number":64,"time":154.53437500000172,"value":0.5511811023622047},{"number":64,"time":154.57708333333505,"value":0.5826771653543307},{"number":64,"time":154.57812500000173,"value":0.5826771653543307},{"number":64,"time":154.6010416666684,"value":0.6220472440944882},{"number":64,"time":154.6020833333351,"value":0.6220472440944882},{"number":64,"time":154.63750000000178,"value":0.6535433070866141},{"number":64,"time":154.63750000000178,"value":0.6535433070866141},{"number":64,"time":154.72916666666848,"value":0.7559055118110236},{"number":64,"time":154.73020833333516,"value":0.7559055118110236},{"number":64,"time":155.59270833333517,"value":0.8503937007874016},{"number":64,"time":155.59375000000185,"value":0.8503937007874016},{"number":64,"time":157.52291666666852,"value":0.7322834645669292},{"number":64,"time":157.5239583333352,"value":0.7322834645669292},{"number":64,"time":157.53125000000188,"value":0.6535433070866141},{"number":64,"time":157.53125000000188,"value":0.6535433070866141},{"number":64,"time":157.53958333333523,"value":0.6062992125984252},{"number":64,"time":157.53958333333523,"value":0.6062992125984252},{"number":64,"time":157.5468750000019,"value":0.5590551181102362},{"number":64,"time":157.54791666666858,"value":0.5590551181102362},{"number":64,"time":157.5510416666686,"value":0.5275590551181102},{"number":64,"time":157.55208333333528,"value":0.5275590551181102},{"number":64,"time":157.55729166666862,"value":0.4881889763779528},{"number":64,"time":157.5583333333353,"value":0.4881889763779528},{"number":64,"time":157.562500000002,"value":0.4015748031496063},{"number":64,"time":157.56354166666867,"value":0.4015748031496063},{"number":64,"time":157.565625000002,"value":0.2755905511811024},{"number":64,"time":157.56666666666868,"value":0.2755905511811024},{"number":64,"time":157.56770833333536,"value":0.14960629921259844},{"number":64,"time":157.56875000000204,"value":0.14960629921259844},{"number":64,"time":157.57083333333537,"value":0},{"number":64,"time":157.57187500000205,"value":0},{"number":64,"time":157.70312500000205,"value":0.18110236220472442},{"number":64,"time":157.70312500000205,"value":0.18110236220472442},{"number":64,"time":157.71145833333537,"value":0.4015748031496063},{"number":64,"time":157.71250000000205,"value":0.4015748031496063},{"number":64,"time":157.71562500000206,"value":0.48031496062992124},{"number":64,"time":157.71666666666874,"value":0.48031496062992124},{"number":64,"time":157.71875000000207,"value":0.5196850393700787},{"number":64,"time":157.71979166666875,"value":0.5196850393700787},{"number":64,"time":157.72708333333543,"value":0.5511811023622047},{"number":64,"time":157.72708333333543,"value":0.5511811023622047},{"number":64,"time":157.75416666666877,"value":0.5826771653543307},{"number":64,"time":157.75520833333545,"value":0.5826771653543307},{"number":64,"time":157.79895833333543,"value":0.6141732283464567},{"number":64,"time":157.80000000000211,"value":0.6141732283464567},{"number":64,"time":157.8197916666688,"value":0.6456692913385826},{"number":64,"time":157.8208333333355,"value":0.6456692913385826},{"number":64,"time":157.84687500000214,"value":0.7559055118110236},{"number":64,"time":157.84791666666882,"value":0.7559055118110236},{"number":64,"time":157.96041666666883,"value":0.8503937007874016},{"number":64,"time":157.96145833333551,"value":0.8503937007874016},{"number":64,"time":158.0000000000022,"value":0},{"number":64,"time":160.82604166666894,"value":0.7559055118110236},{"number":64,"time":160.82708333333562,"value":0.7559055118110236},{"number":64,"time":160.83645833333563,"value":0.6456692913385826},{"number":64,"time":160.83854166666896,"value":0.6456692913385826},{"number":64,"time":160.84479166666895,"value":0.6062992125984252},{"number":64,"time":160.84583333333563,"value":0.6062992125984252},{"number":64,"time":160.8531250000023,"value":0.5748031496062992},{"number":64,"time":160.854166666669,"value":0.5748031496062992},{"number":64,"time":160.86145833333566,"value":0.5433070866141733},{"number":64,"time":160.86145833333566,"value":0.5433070866141733},{"number":64,"time":160.86875000000234,"value":0.49606299212598426},{"number":64,"time":160.86979166666902,"value":0.49606299212598426},{"number":64,"time":160.94062500000234,"value":0.5354330708661418},{"number":64,"time":160.94166666666902,"value":0.5354330708661418},{"number":64,"time":160.95312500000236,"value":0.5669291338582677},{"number":64,"time":160.95416666666904,"value":0.5669291338582677},{"number":64,"time":160.97291666666905,"value":0.5984251968503937},{"number":64,"time":160.97291666666905,"value":0.5984251968503937},{"number":64,"time":160.98541666666904,"value":0.6299212598425197},{"number":64,"time":160.98645833333572,"value":0.6299212598425197},{"number":64,"time":161.03750000000238,"value":0.7322834645669292},{"number":64,"time":161.03750000000238,"value":0.7322834645669292},{"number":64,"time":161.0937500000024,"value":0.8267716535433071},{"number":64,"time":161.09479166666907,"value":0.8267716535433071},{"number":64,"time":162.42500000000243,"value":0.7322834645669292},{"number":64,"time":162.4260416666691,"value":0.7322834645669292},{"number":64,"time":162.4322916666691,"value":0.6535433070866141},{"number":64,"time":162.43333333333578,"value":0.6535433070866141},{"number":64,"time":162.44062500000246,"value":0.6220472440944882},{"number":64,"time":162.44062500000246,"value":0.6220472440944882},{"number":64,"time":162.4520833333358,"value":0.5905511811023622},{"number":64,"time":162.45312500000247,"value":0.5905511811023622},{"number":64,"time":162.47291666666914,"value":0.5590551181102362},{"number":64,"time":162.47395833333582,"value":0.5590551181102362},{"number":64,"time":162.5281250000025,"value":0.5984251968503937},{"number":64,"time":162.52916666666917,"value":0.5984251968503937},{"number":64,"time":162.54791666666918,"value":0.6299212598425197},{"number":64,"time":162.54895833333586,"value":0.6299212598425197},{"number":64,"time":162.57187500000254,"value":0.7322834645669292},{"number":64,"time":162.57187500000254,"value":0.7322834645669292},{"number":64,"time":162.6572916666692,"value":0.8267716535433071},{"number":64,"time":162.6583333333359,"value":0.8267716535433071},{"number":64,"time":163.2322916666692,"value":0.7322834645669292},{"number":64,"time":163.23333333333588,"value":0.7322834645669292},{"number":64,"time":163.23958333333587,"value":0.6535433070866141},{"number":64,"time":163.24062500000255,"value":0.6535433070866141},{"number":64,"time":163.24791666666923,"value":0.6220472440944882},{"number":64,"time":163.2489583333359,"value":0.6220472440944882},{"number":64,"time":163.25625000000258,"value":0.5905511811023622},{"number":64,"time":163.25729166666926,"value":0.5905511811023622},{"number":64,"time":163.26770833333592,"value":0.5590551181102362},{"number":64,"time":163.2687500000026,"value":0.5590551181102362},{"number":64,"time":163.28020833333593,"value":0.5275590551181102},{"number":64,"time":163.28125000000261,"value":0.5275590551181102},{"number":64,"time":163.34375000000261,"value":0.5590551181102362},{"number":64,"time":163.3447916666693,"value":0.5590551181102362},{"number":64,"time":163.3635416666693,"value":0.5905511811023622},{"number":64,"time":163.364583333336,"value":0.5905511811023622},{"number":64,"time":163.37604166666932,"value":0.6220472440944882},{"number":64,"time":163.37604166666932,"value":0.6220472440944882},{"number":64,"time":163.4041666666693,"value":0.7322834645669292},{"number":64,"time":163.405208333336,"value":0.7322834645669292},{"number":64,"time":163.47187500000265,"value":0.8267716535433071},{"number":64,"time":163.47187500000265,"value":0.8267716535433071},{"number":64,"time":164.00000000000264,"value":0.7322834645669292},{"number":64,"time":164.00104166666932,"value":0.7322834645669292},{"number":64,"time":164.008333333336,"value":0.6535433070866141},{"number":64,"time":164.008333333336,"value":0.6535433070866141},{"number":64,"time":164.01562500000267,"value":0.5984251968503937},{"number":64,"time":164.01666666666935,"value":0.5984251968503937},{"number":64,"time":164.02291666666935,"value":0.5590551181102362},{"number":64,"time":164.02395833333603,"value":0.5590551181102362},{"number":64,"time":164.02708333333604,"value":0.5275590551181102},{"number":64,"time":164.02812500000272,"value":0.5275590551181102},{"number":64,"time":164.03125000000273,"value":0.4881889763779528},{"number":64,"time":164.0322916666694,"value":0.4881889763779528},{"number":64,"time":164.03750000000275,"value":0.4015748031496063},{"number":64,"time":164.03854166666943,"value":0.4015748031496063},{"number":64,"time":164.04270833333612,"value":0.2283464566929134},{"number":64,"time":164.0437500000028,"value":0.2283464566929134},{"number":64,"time":164.05104166666948,"value":0.05511811023622047},{"number":64,"time":164.05208333333616,"value":0.05511811023622047},{"number":64,"time":164.05520833333617,"value":0},{"number":64,"time":164.05625000000285,"value":0},{"number":64,"time":164.16770833333618,"value":0.18110236220472442},{"number":64,"time":164.16875000000286,"value":0.18110236220472442},{"number":64,"time":164.17604166666953,"value":0.3779527559055118},{"number":64,"time":164.17604166666953,"value":0.3779527559055118},{"number":64,"time":164.17916666666954,"value":0.47244094488188976},{"number":64,"time":164.18020833333622,"value":0.47244094488188976},{"number":64,"time":164.1843750000029,"value":0.5039370078740157},{"number":64,"time":164.1843750000029,"value":0.5039370078740157},{"number":64,"time":164.1875000000029,"value":0.5354330708661418},{"number":64,"time":164.18854166666958,"value":0.5354330708661418},{"number":64,"time":164.20000000000292,"value":0.5669291338582677},{"number":64,"time":164.20000000000292,"value":0.5669291338582677},{"number":64,"time":164.2322916666696,"value":0.5984251968503937},{"number":64,"time":164.23333333333628,"value":0.5984251968503937},{"number":64,"time":164.25625000000295,"value":0.6299212598425197},{"number":64,"time":164.25729166666963,"value":0.6299212598425197},{"number":64,"time":164.28750000000295,"value":0.7322834645669292},{"number":64,"time":164.28854166666963,"value":0.7322834645669292},{"number":64,"time":164.31250000000298,"value":0.8267716535433071},{"number":64,"time":164.31250000000298,"value":0.8267716535433071},{"number":64,"time":167.24166666666966,"value":0.7322834645669292},{"number":64,"time":167.24270833333634,"value":0.7322834645669292},{"number":64,"time":167.250000000003,"value":0.6377952755905512},{"number":64,"time":167.2510416666697,"value":0.6377952755905512},{"number":64,"time":167.25625000000304,"value":0.5905511811023622},{"number":64,"time":167.25729166666972,"value":0.5905511811023622},{"number":64,"time":167.2645833333364,"value":0.5511811023622047},{"number":64,"time":167.26562500000307,"value":0.5511811023622047},{"number":64,"time":167.26979166666973,"value":0.5196850393700787},{"number":64,"time":167.2708333333364,"value":0.5196850393700787},{"number":64,"time":167.27395833333642,"value":0.48031496062992124},{"number":64,"time":167.2750000000031,"value":0.48031496062992124},{"number":64,"time":167.2812500000031,"value":0.33070866141732286},{"number":64,"time":167.28229166666978,"value":0.33070866141732286},{"number":64,"time":167.28854166666977,"value":0.18110236220472442},{"number":64,"time":167.28958333333645,"value":0.18110236220472442},{"number":64,"time":167.29687500000313,"value":0.05511811023622047},{"number":64,"time":167.2979166666698,"value":0.05511811023622047},{"number":64,"time":167.30104166666982,"value":0},{"number":64,"time":167.3020833333365,"value":0},{"number":64,"time":167.40104166666984,"value":0.10236220472440945},{"number":64,"time":167.40208333333652,"value":0.10236220472440945},{"number":64,"time":167.40520833333653,"value":0.2047244094488189},{"number":64,"time":167.4062500000032,"value":0.2047244094488189},{"number":64,"time":167.4125000000032,"value":0.3779527559055118},{"number":64,"time":167.4135416666699,"value":0.3779527559055118},{"number":64,"time":167.41770833333655,"value":0.47244094488188976},{"number":64,"time":167.41875000000323,"value":0.47244094488188976},{"number":64,"time":167.42083333333656,"value":0.5039370078740157},{"number":64,"time":167.42187500000324,"value":0.5039370078740157},{"number":64,"time":167.42916666666991,"value":0.5433070866141733},{"number":64,"time":167.4302083333366,"value":0.5433070866141733},{"number":64,"time":167.46041666666991,"value":0.5748031496062992},{"number":64,"time":167.4614583333366,"value":0.5748031496062992},{"number":64,"time":167.4927083333366,"value":0.6062992125984252},{"number":64,"time":167.4927083333366,"value":0.6062992125984252},{"number":64,"time":167.5145833333366,"value":0.6456692913385826},{"number":64,"time":167.51562500000327,"value":0.6456692913385826},{"number":64,"time":167.54166666666993,"value":0.7559055118110236},{"number":64,"time":167.5427083333366,"value":0.7559055118110236},{"number":64,"time":167.61666666666994,"value":0.8503937007874016},{"number":64,"time":167.61770833333662,"value":0.8503937007874016},{"number":64,"time":170.48333333333653,"value":0.7559055118110236},{"number":64,"time":170.4843750000032,"value":0.7559055118110236},{"number":64,"time":170.4916666666699,"value":0.6535433070866141},{"number":64,"time":170.4916666666699,"value":0.6535433070866141},{"number":64,"time":170.5000000000032,"value":0.6062992125984252},{"number":64,"time":170.5010416666699,"value":0.6062992125984252},{"number":64,"time":170.5072916666699,"value":0.5669291338582677},{"number":64,"time":170.50833333333657,"value":0.5669291338582677},{"number":64,"time":170.51145833333658,"value":0.5354330708661418},{"number":64,"time":170.51250000000326,"value":0.5354330708661418},{"number":64,"time":170.51562500000327,"value":0.5039370078740157},{"number":64,"time":170.51666666666995,"value":0.5039370078740157},{"number":64,"time":170.51979166666996,"value":0.47244094488188976},{"number":64,"time":170.52083333333664,"value":0.47244094488188976},{"number":64,"time":170.52395833333665,"value":0.3779527559055118},{"number":64,"time":170.52500000000333,"value":0.3779527559055118},{"number":64,"time":170.53125000000333,"value":0.25196850393700787},{"number":64,"time":170.53229166667,"value":0.25196850393700787},{"number":64,"time":170.54375000000334,"value":0.14960629921259844},{"number":64,"time":170.54375000000334,"value":0.14960629921259844},{"number":64,"time":170.56458333333669,"value":0.05511811023622047},{"number":64,"time":170.56562500000337,"value":0.05511811023622047},{"number":64,"time":170.57604166667002,"value":0},{"number":64,"time":170.5770833333367,"value":0},{"number":64,"time":170.6239583333367,"value":0.12598425196850394},{"number":64,"time":170.62500000000338,"value":0.12598425196850394},{"number":64,"time":170.63125000000338,"value":0.25196850393700787},{"number":64,"time":170.63229166667006,"value":0.25196850393700787},{"number":64,"time":170.63958333333673,"value":0.4015748031496063},{"number":64,"time":170.63958333333673,"value":0.4015748031496063},{"number":64,"time":170.64479166667007,"value":0.48031496062992124},{"number":64,"time":170.64479166667007,"value":0.48031496062992124},{"number":64,"time":170.65208333333675,"value":0.5275590551181102},{"number":64,"time":170.65312500000343,"value":0.5275590551181102},{"number":64,"time":170.66354166667008,"value":0.5669291338582677},{"number":64,"time":170.66458333333676,"value":0.5669291338582677},{"number":64,"time":170.68750000000344,"value":0.5984251968503937},{"number":64,"time":170.68854166667012,"value":0.5984251968503937},{"number":64,"time":170.71562500000346,"value":0.6299212598425197},{"number":64,"time":170.71666666667014,"value":0.6299212598425197},{"number":64,"time":170.74791666667014,"value":0.7322834645669292},{"number":64,"time":170.74895833333682,"value":0.7322834645669292},{"number":64,"time":170.7875000000035,"value":0.8267716535433071},{"number":64,"time":170.7875000000035,"value":0.8267716535433071},{"number":64,"time":173.70520833333686,"value":0.7322834645669292},{"number":64,"time":173.70625000000354,"value":0.7322834645669292},{"number":64,"time":173.7135416666702,"value":0.6456692913385826},{"number":64,"time":173.7145833333369,"value":0.6456692913385826},{"number":64,"time":173.72187500000356,"value":0.6062992125984252},{"number":64,"time":173.72291666667024,"value":0.6062992125984252},{"number":64,"time":173.72916666667024,"value":0.5669291338582677},{"number":64,"time":173.73020833333692,"value":0.5669291338582677},{"number":64,"time":173.73854166667024,"value":0.5118110236220472},{"number":64,"time":173.73854166667024,"value":0.5118110236220472},{"number":64,"time":173.74583333333692,"value":0.4251968503937008},{"number":64,"time":173.7468750000036,"value":0.4251968503937008},{"number":64,"time":173.7531250000036,"value":0.33070866141732286},{"number":64,"time":173.75416666667027,"value":0.33070866141732286},{"number":64,"time":173.77083333333695,"value":0.2283464566929134},{"number":64,"time":173.77187500000363,"value":0.2283464566929134},{"number":64,"time":173.7979166666703,"value":0.12598425196850394},{"number":64,"time":173.79895833333697,"value":0.12598425196850394},{"number":64,"time":173.84583333333697,"value":0.25196850393700787},{"number":64,"time":173.84687500000365,"value":0.25196850393700787},{"number":64,"time":173.85312500000364,"value":0.3543307086614173},{"number":64,"time":173.85416666667032,"value":0.3543307086614173},{"number":64,"time":173.861458333337,"value":0.48031496062992124},{"number":64,"time":173.861458333337,"value":0.48031496062992124},{"number":64,"time":173.86979166667032,"value":0.5196850393700787},{"number":64,"time":173.870833333337,"value":0.5196850393700787},{"number":64,"time":173.88229166667034,"value":0.5590551181102362},{"number":64,"time":173.88333333333702,"value":0.5590551181102362},{"number":64,"time":173.91041666667036,"value":0.5905511811023622},{"number":64,"time":173.91145833333704,"value":0.5905511811023622},{"number":64,"time":173.9416666666704,"value":0.6299212598425197},{"number":64,"time":173.94270833333707,"value":0.6299212598425197},{"number":64,"time":174.0010416666704,"value":0.7322834645669292},{"number":64,"time":174.00312500000373,"value":0.7322834645669292},{"number":64,"time":174.07708333333707,"value":0.8267716535433071},{"number":64,"time":174.07812500000375,"value":0.8267716535433071},{"number":64,"time":176.80520833333716,"value":0.7086614173228346},{"number":64,"time":176.80625000000384,"value":0.7086614173228346},{"number":64,"time":176.81250000000384,"value":0.6299212598425197},{"number":64,"time":176.81354166667052,"value":0.6299212598425197},{"number":64,"time":176.8197916666705,"value":0.5826771653543307},{"number":64,"time":176.8197916666705,"value":0.5826771653543307},{"number":64,"time":176.82708333333719,"value":0.5275590551181102},{"number":64,"time":176.82812500000387,"value":0.5275590551181102},{"number":64,"time":176.83125000000388,"value":0.4881889763779528},{"number":64,"time":176.83229166667056,"value":0.4881889763779528},{"number":64,"time":176.83958333333723,"value":0.33070866141732286},{"number":64,"time":176.8406250000039,"value":0.33070866141732286},{"number":64,"time":176.84375000000392,"value":0.2283464566929134},{"number":64,"time":176.8447916666706,"value":0.2283464566929134},{"number":64,"time":176.8479166666706,"value":0.12598425196850394},{"number":64,"time":176.8489583333373,"value":0.12598425196850394},{"number":64,"time":176.8552083333373,"value":0},{"number":64,"time":176.85625000000397,"value":0},{"number":64,"time":176.95104166667065,"value":0.10236220472440945},{"number":64,"time":176.95208333333733,"value":0.10236220472440945},{"number":64,"time":176.95520833333734,"value":0.2283464566929134},{"number":64,"time":176.95625000000402,"value":0.2283464566929134},{"number":64,"time":176.95937500000403,"value":0.33070866141732286},{"number":64,"time":176.9604166666707,"value":0.33070866141732286},{"number":64,"time":176.96979166667072,"value":0.4881889763779528},{"number":64,"time":176.9708333333374,"value":0.4881889763779528},{"number":64,"time":176.97291666667073,"value":0.5196850393700787},{"number":64,"time":176.9739583333374,"value":0.5196850393700787},{"number":64,"time":176.97916666667075,"value":0.5590551181102362},{"number":64,"time":176.98020833333743,"value":0.5590551181102362},{"number":64,"time":177.00729166667077,"value":0.5905511811023622},{"number":64,"time":177.00729166667077,"value":0.5905511811023622},{"number":64,"time":177.0281250000041,"value":0.6220472440944882},{"number":64,"time":177.0291666666708,"value":0.6220472440944882},{"number":64,"time":177.0479166666708,"value":0.6535433070866141},{"number":64,"time":177.04895833333748,"value":0.6535433070866141},{"number":64,"time":177.07187500000416,"value":0.7559055118110236},{"number":64,"time":177.07187500000416,"value":0.7559055118110236},{"number":64,"time":177.1395833333375,"value":0.8503937007874016},{"number":64,"time":177.14062500000418,"value":0.8503937007874016},{"number":64,"time":180.01458333333758,"value":0.7322834645669292},{"number":64,"time":180.01562500000426,"value":0.7322834645669292},{"number":64,"time":180.02291666667094,"value":0.6377952755905512},{"number":64,"time":180.02395833333762,"value":0.6377952755905512},{"number":64,"time":180.0302083333376,"value":0.5905511811023622},{"number":64,"time":180.0312500000043,"value":0.5905511811023622},{"number":64,"time":180.03854166667097,"value":0.5354330708661418},{"number":64,"time":180.03958333333765,"value":0.5354330708661418},{"number":64,"time":180.04270833333766,"value":0.49606299212598426},{"number":64,"time":180.04375000000434,"value":0.49606299212598426},{"number":64,"time":180.05000000000433,"value":0.3543307086614173},{"number":64,"time":180.051041666671,"value":0.3543307086614173},{"number":64,"time":180.05833333333769,"value":0.2047244094488189},{"number":64,"time":180.05937500000437,"value":0.2047244094488189},{"number":64,"time":180.06666666667104,"value":0.07874015748031496},{"number":64,"time":180.06666666667104,"value":0.07874015748031496},{"number":64,"time":180.07812500000438,"value":0},{"number":64,"time":180.07916666667106,"value":0},{"number":64,"time":180.1468750000044,"value":0.10236220472440945},{"number":64,"time":180.14791666667108,"value":0.10236220472440945},{"number":64,"time":180.1500000000044,"value":0.2047244094488189},{"number":64,"time":180.1510416666711,"value":0.2047244094488189},{"number":64,"time":180.15833333333777,"value":0.3543307086614173},{"number":64,"time":180.15937500000445,"value":0.3543307086614173},{"number":64,"time":180.16666666667112,"value":0.4881889763779528},{"number":64,"time":180.1677083333378,"value":0.4881889763779528},{"number":64,"time":180.16979166667113,"value":0.5196850393700787},{"number":64,"time":180.1708333333378,"value":0.5196850393700787},{"number":64,"time":180.17812500000448,"value":0.5511811023622047},{"number":64,"time":180.17916666667116,"value":0.5511811023622047},{"number":64,"time":180.2062500000045,"value":0.5826771653543307},{"number":64,"time":180.20729166667118,"value":0.5826771653543307},{"number":64,"time":180.23854166667118,"value":0.6220472440944882},{"number":64,"time":180.23958333333786,"value":0.6220472440944882},{"number":64,"time":180.26250000000454,"value":0.6535433070866141},{"number":64,"time":180.26354166667122,"value":0.6535433070866141},{"number":64,"time":180.2864583333379,"value":0.7559055118110236},{"number":64,"time":180.28750000000457,"value":0.7559055118110236},{"number":64,"time":180.38229166667125,"value":0.8503937007874016},{"number":64,"time":180.38229166667125,"value":0.8503937007874016},{"number":64,"time":183.19687500000464,"value":0.7322834645669292},{"number":64,"time":183.19791666667132,"value":0.7322834645669292},{"number":64,"time":183.20312500000466,"value":0.6535433070866141},{"number":64,"time":183.205208333338,"value":0.6535433070866141},{"number":64,"time":183.21041666667134,"value":0.6220472440944882},{"number":64,"time":183.21145833333802,"value":0.6220472440944882},{"number":64,"time":183.21354166667138,"value":0.5905511811023622},{"number":64,"time":183.21354166667138,"value":0.5905511811023622},{"number":64,"time":183.2156250000047,"value":0.5196850393700787},{"number":64,"time":183.2156250000047,"value":0.5196850393700787},{"number":64,"time":183.21770833333804,"value":0.47244094488188976},{"number":64,"time":183.21875000000472,"value":0.47244094488188976},{"number":64,"time":183.22083333333805,"value":0.3543307086614173},{"number":64,"time":183.22187500000473,"value":0.3543307086614173},{"number":64,"time":183.22500000000474,"value":0.2283464566929134},{"number":64,"time":183.22604166667142,"value":0.2283464566929134},{"number":64,"time":183.22812500000475,"value":0.07874015748031496},{"number":64,"time":183.22916666667143,"value":0.07874015748031496},{"number":64,"time":183.23229166667144,"value":0},{"number":64,"time":183.23333333333812,"value":0},{"number":64,"time":183.3395833333381,"value":0.2047244094488189},{"number":64,"time":183.34166666667144,"value":0.2047244094488189},{"number":64,"time":183.34895833333812,"value":0.4015748031496063},{"number":64,"time":183.34895833333812,"value":0.4015748031496063},{"number":64,"time":183.35416666667146,"value":0.4881889763779528},{"number":64,"time":183.35416666667146,"value":0.4881889763779528},{"number":64,"time":183.35729166667147,"value":0.5196850393700787},{"number":64,"time":183.35833333333815,"value":0.5196850393700787},{"number":64,"time":183.36458333333815,"value":0.5590551181102362},{"number":64,"time":183.36562500000483,"value":0.5590551181102362},{"number":64,"time":183.38437500000484,"value":0.5905511811023622},{"number":64,"time":183.38541666667152,"value":0.5905511811023622},{"number":64,"time":183.40104166667152,"value":0.6299212598425197},{"number":64,"time":183.4020833333382,"value":0.6299212598425197},{"number":64,"time":183.42812500000485,"value":0.7322834645669292},{"number":64,"time":183.42916666667153,"value":0.7322834645669292},{"number":64,"time":183.45208333333818,"value":0.8267716535433071},{"number":64,"time":183.45208333333818,"value":0.8267716535433071},{"number":64,"time":183.61250000000487,"value":0.937007874015748},{"number":64,"time":183.61354166667155,"value":0.937007874015748},{"number":64,"time":186.3562500000049,"value":0.7322834645669292},{"number":64,"time":186.35729166667159,"value":0.7322834645669292},{"number":64,"time":186.36354166667158,"value":0.6535433070866141},{"number":64,"time":186.3656250000049,"value":0.6535433070866141},{"number":64,"time":186.3718750000049,"value":0.6141732283464567},{"number":64,"time":186.37291666667159,"value":0.6141732283464567},{"number":64,"time":186.38020833333826,"value":0.5748031496062992},{"number":64,"time":186.38125000000494,"value":0.5748031496062992},{"number":64,"time":186.38750000000493,"value":0.5354330708661418},{"number":64,"time":186.3885416666716,"value":0.5354330708661418},{"number":64,"time":186.3958333333383,"value":0.48031496062992124},{"number":64,"time":186.39687500000497,"value":0.48031496062992124},{"number":64,"time":186.40416666667164,"value":0.3543307086614173},{"number":64,"time":186.40520833333832,"value":0.3543307086614173},{"number":64,"time":186.41666666667166,"value":0.25196850393700787},{"number":64,"time":186.41770833333834,"value":0.25196850393700787},{"number":64,"time":186.456250000005,"value":0.14960629921259844},{"number":64,"time":186.4572916666717,"value":0.14960629921259844},{"number":64,"time":186.487500000005,"value":0.25196850393700787},{"number":64,"time":186.4885416666717,"value":0.25196850393700787},{"number":64,"time":186.49583333333837,"value":0.3543307086614173},{"number":64,"time":186.49687500000505,"value":0.3543307086614173},{"number":64,"time":186.50833333333838,"value":0.4881889763779528},{"number":64,"time":186.50937500000506,"value":0.4881889763779528},{"number":64,"time":186.51562500000506,"value":0.5275590551181102},{"number":64,"time":186.51666666667174,"value":0.5275590551181102},{"number":64,"time":186.52812500000508,"value":0.5590551181102362},{"number":64,"time":186.52916666667176,"value":0.5590551181102362},{"number":64,"time":186.56458333333842,"value":0.5905511811023622},{"number":64,"time":186.5656250000051,"value":0.5905511811023622},{"number":64,"time":186.59166666667176,"value":0.6220472440944882},{"number":64,"time":186.59270833333844,"value":0.6220472440944882},{"number":64,"time":186.61770833333844,"value":0.6535433070866141},{"number":64,"time":186.61875000000512,"value":0.6535433070866141},{"number":64,"time":186.71250000000512,"value":0.7559055118110236},{"number":64,"time":186.7135416666718,"value":0.7559055118110236},{"number":64,"time":187.91562500000515,"value":0.6535433070866141},{"number":64,"time":187.91666666667183,"value":0.6535433070866141},{"number":64,"time":187.92812500000517,"value":0.6141732283464567},{"number":64,"time":187.92916666667185,"value":0.6141732283464567},{"number":64,"time":187.93333333333854,"value":0.5826771653543307},{"number":64,"time":187.93437500000522,"value":0.5826771653543307},{"number":64,"time":187.93958333333856,"value":0.5433070866141733},{"number":64,"time":187.94062500000524,"value":0.5433070866141733},{"number":64,"time":187.94791666667192,"value":0.4881889763779528},{"number":64,"time":187.9489583333386,"value":0.4881889763779528},{"number":64,"time":187.95625000000527,"value":0.3779527559055118},{"number":64,"time":187.95729166667195,"value":0.3779527559055118},{"number":64,"time":187.96354166667194,"value":0.2755905511811024},{"number":64,"time":187.96458333333862,"value":0.2755905511811024},{"number":64,"time":188.0000000000053,"value":0},{"number":64,"time":188.03645833333863,"value":0.3779527559055118},{"number":64,"time":188.03645833333863,"value":0.3779527559055118},{"number":64,"time":188.0437500000053,"value":0.47244094488188976},{"number":64,"time":188.04479166667198,"value":0.47244094488188976},{"number":64,"time":188.05208333333866,"value":0.5196850393700787},{"number":64,"time":188.05312500000534,"value":0.5196850393700787},{"number":64,"time":188.063541666672,"value":0.5511811023622047},{"number":64,"time":188.06458333333867,"value":0.5511811023622047},{"number":64,"time":188.08437500000534,"value":0.5905511811023622},{"number":64,"time":188.08541666667202,"value":0.5905511811023622},{"number":64,"time":188.11250000000535,"value":0.6220472440944882},{"number":64,"time":188.11354166667203,"value":0.6220472440944882},{"number":64,"time":188.1395833333387,"value":0.6535433070866141},{"number":64,"time":188.14062500000537,"value":0.6535433070866141},{"number":64,"time":188.21979166667202,"value":0.7559055118110236},{"number":64,"time":188.2208333333387,"value":0.7559055118110236},{"number":64,"time":189.526041666672,"value":0.7086614173228346},{"number":64,"time":189.526041666672,"value":0.7086614173228346},{"number":64,"time":189.535416666672,"value":0.6299212598425197},{"number":64,"time":189.5364583333387,"value":0.6299212598425197},{"number":64,"time":189.54375000000536,"value":0.5826771653543307},{"number":64,"time":189.54479166667204,"value":0.5826771653543307},{"number":64,"time":189.55104166667203,"value":0.5275590551181102},{"number":64,"time":189.55208333333871,"value":0.5275590551181102},{"number":64,"time":189.55625000000538,"value":0.4881889763779528},{"number":64,"time":189.55729166667206,"value":0.4881889763779528},{"number":64,"time":189.5593750000054,"value":0.4015748031496063},{"number":64,"time":189.56041666667207,"value":0.4015748031496063},{"number":64,"time":189.5625000000054,"value":0.2992125984251969},{"number":64,"time":189.56354166667208,"value":0.2992125984251969},{"number":64,"time":189.57083333333875,"value":0.12598425196850394},{"number":64,"time":189.57187500000543,"value":0.12598425196850394},{"number":64,"time":189.5791666666721,"value":0},{"number":64,"time":189.5802083333388,"value":0},{"number":64,"time":189.69375000000545,"value":0.14960629921259844},{"number":64,"time":189.69479166667213,"value":0.14960629921259844},{"number":64,"time":189.6989583333388,"value":0.25196850393700787},{"number":64,"time":189.70000000000547,"value":0.25196850393700787},{"number":64,"time":189.70625000000547,"value":0.4251968503937008},{"number":64,"time":189.70729166667215,"value":0.4251968503937008},{"number":64,"time":189.71041666667216,"value":0.4881889763779528},{"number":64,"time":189.71145833333884,"value":0.4881889763779528},{"number":64,"time":189.71354166667217,"value":0.5196850393700787},{"number":64,"time":189.71458333333885,"value":0.5196850393700787},{"number":64,"time":189.72187500000553,"value":0.5511811023622047},{"number":64,"time":189.7229166666722,"value":0.5511811023622047},{"number":64,"time":189.7510416666722,"value":0.5826771653543307},{"number":64,"time":189.7510416666722,"value":0.5826771653543307},{"number":64,"time":189.7822916666722,"value":0.6141732283464567},{"number":64,"time":189.7822916666722,"value":0.6141732283464567},{"number":64,"time":189.7979166666722,"value":0.6456692913385826},{"number":64,"time":189.79895833333887,"value":0.6456692913385826},{"number":64,"time":189.82708333333886,"value":0.7559055118110236},{"number":64,"time":189.82812500000554,"value":0.7559055118110236},{"number":64,"time":189.9500000000056,"value":0.8503937007874016},{"number":64,"time":189.95104166667227,"value":0.8503937007874016},{"number":64,"time":190.00000000000563,"value":0},{"number":64,"time":192.7166666666722,"value":0.7086614173228346},{"number":64,"time":192.7166666666722,"value":0.7086614173228346},{"number":64,"time":192.72083333333887,"value":0.6535433070866141},{"number":64,"time":192.72187500000555,"value":0.6535433070866141},{"number":64,"time":192.72916666667223,"value":0.5984251968503937},{"number":64,"time":192.72916666667223,"value":0.5984251968503937},{"number":64,"time":192.73750000000555,"value":0.5433070866141733},{"number":64,"time":192.73854166667223,"value":0.5433070866141733},{"number":64,"time":192.74479166667223,"value":0.49606299212598426},{"number":64,"time":192.7458333333389,"value":0.49606299212598426},{"number":64,"time":192.75104166667225,"value":0.4015748031496063},{"number":64,"time":192.75208333333893,"value":0.4015748031496063},{"number":64,"time":192.75729166667227,"value":0.2992125984251969},{"number":64,"time":192.75833333333895,"value":0.2992125984251969},{"number":64,"time":192.76250000000562,"value":0.14960629921259844},{"number":64,"time":192.7635416666723,"value":0.14960629921259844},{"number":64,"time":192.76458333333898,"value":0.031496062992125984},{"number":64,"time":192.7666666666723,"value":0.031496062992125984},{"number":64,"time":192.767708333339,"value":0},{"number":64,"time":192.76875000000567,"value":0},{"number":64,"time":192.877083333339,"value":0.10236220472440945},{"number":64,"time":192.87812500000567,"value":0.10236220472440945},{"number":64,"time":192.88125000000568,"value":0.2283464566929134},{"number":64,"time":192.88125000000568,"value":0.2283464566929134},{"number":64,"time":192.8843750000057,"value":0.33070866141732286},{"number":64,"time":192.88541666667237,"value":0.33070866141732286},{"number":64,"time":192.89270833333904,"value":0.49606299212598426},{"number":64,"time":192.89270833333904,"value":0.49606299212598426},{"number":64,"time":192.8968750000057,"value":0.5275590551181102},{"number":64,"time":192.8979166666724,"value":0.5275590551181102},{"number":64,"time":192.90520833333906,"value":0.5669291338582677},{"number":64,"time":192.90625000000574,"value":0.5669291338582677},{"number":64,"time":192.93645833333906,"value":0.6062992125984252},{"number":64,"time":192.93750000000574,"value":0.6062992125984252},{"number":64,"time":192.96458333333908,"value":0.6456692913385826},{"number":64,"time":192.96562500000576,"value":0.6456692913385826},{"number":64,"time":192.9927083333391,"value":0.7559055118110236},{"number":64,"time":192.99375000000578,"value":0.7559055118110236},{"number":64,"time":193.03229166667242,"value":0.8503937007874016},{"number":64,"time":193.0333333333391,"value":0.8503937007874016},{"number":64,"time":195.95208333333917,"value":0.7086614173228346},{"number":64,"time":195.95208333333917,"value":0.7086614173228346},{"number":64,"time":195.95729166667252,"value":0.6456692913385826},{"number":64,"time":195.9583333333392,"value":0.6456692913385826},{"number":64,"time":195.96875000000585,"value":0.6141732283464567},{"number":64,"time":195.96979166667253,"value":0.6141732283464567},{"number":64,"time":195.9739583333392,"value":0.5590551181102362},{"number":64,"time":195.97500000000588,"value":0.5590551181102362},{"number":64,"time":195.97708333333924,"value":0.5118110236220472},{"number":64,"time":195.97812500000592,"value":0.5118110236220472},{"number":64,"time":195.9791666666726,"value":0.33070866141732286},{"number":64,"time":195.98020833333928,"value":0.33070866141732286},{"number":64,"time":195.9822916666726,"value":0.18110236220472442},{"number":64,"time":195.9833333333393,"value":0.18110236220472442},{"number":64,"time":195.98750000000595,"value":0.031496062992125984},{"number":64,"time":195.98854166667263,"value":0.031496062992125984},{"number":64,"time":195.99166666667264,"value":0},{"number":64,"time":195.99270833333932,"value":0},{"number":64,"time":196.115625000006,"value":0.10236220472440945},{"number":64,"time":196.115625000006,"value":0.10236220472440945},{"number":64,"time":196.11979166667265,"value":0.2283464566929134},{"number":64,"time":196.12083333333933,"value":0.2283464566929134},{"number":64,"time":196.12395833333935,"value":0.33070866141732286},{"number":64,"time":196.12395833333935,"value":0.33070866141732286},{"number":64,"time":196.13125000000602,"value":0.49606299212598426},{"number":64,"time":196.1322916666727,"value":0.49606299212598426},{"number":64,"time":196.1354166666727,"value":0.5275590551181102},{"number":64,"time":196.1364583333394,"value":0.5275590551181102},{"number":64,"time":196.14270833333939,"value":0.5669291338582677},{"number":64,"time":196.14375000000607,"value":0.5669291338582677},{"number":64,"time":196.1677083333394,"value":0.5984251968503937},{"number":64,"time":196.16875000000607,"value":0.5984251968503937},{"number":64,"time":196.18750000000608,"value":0.6299212598425197},{"number":64,"time":196.18750000000608,"value":0.6299212598425197},{"number":64,"time":196.21979166667276,"value":0.7322834645669292},{"number":64,"time":196.22083333333944,"value":0.7322834645669292},{"number":64,"time":196.24375000000612,"value":0.8267716535433071},{"number":64,"time":196.24375000000612,"value":0.8267716535433071},{"number":64,"time":199.06041666667278,"value":0.937007874015748},{"number":64,"time":199.06145833333946,"value":0.937007874015748},{"number":64,"time":199.12812500000612,"value":0.8267716535433071},{"number":64,"time":199.1291666666728,"value":0.8267716535433071},{"number":64,"time":199.13645833333948,"value":0.7086614173228346},{"number":64,"time":199.13750000000616,"value":0.7086614173228346},{"number":64,"time":199.14062500000617,"value":0.6535433070866141},{"number":64,"time":199.14166666667285,"value":0.6535433070866141},{"number":64,"time":199.1458333333395,"value":0.6220472440944882},{"number":64,"time":199.1458333333395,"value":0.6220472440944882},{"number":64,"time":199.15000000000617,"value":0.5905511811023622},{"number":64,"time":199.15104166667285,"value":0.5905511811023622},{"number":64,"time":199.15312500000618,"value":0.5590551181102362},{"number":64,"time":199.15416666667286,"value":0.5590551181102362},{"number":64,"time":199.15729166667288,"value":0.5196850393700787},{"number":64,"time":199.15833333333956,"value":0.5196850393700787},{"number":64,"time":199.1604166666729,"value":0.47244094488188976},{"number":64,"time":199.16145833333957,"value":0.47244094488188976},{"number":64,"time":199.16458333333958,"value":0.3543307086614173},{"number":64,"time":199.16562500000626,"value":0.3543307086614173},{"number":64,"time":199.16875000000627,"value":0.2047244094488189},{"number":64,"time":199.16979166667295,"value":0.2047244094488189},{"number":64,"time":199.17291666667296,"value":0.05511811023622047},{"number":64,"time":199.17395833333964,"value":0.05511811023622047},{"number":64,"time":199.17604166667297,"value":0},{"number":64,"time":199.17708333333965,"value":0},{"number":64,"time":199.30833333333965,"value":0.12598425196850394},{"number":64,"time":199.30937500000633,"value":0.12598425196850394},{"number":64,"time":199.31250000000634,"value":0.25196850393700787},{"number":64,"time":199.31354166667302,"value":0.25196850393700787},{"number":64,"time":199.31666666667303,"value":0.3543307086614173},{"number":64,"time":199.3177083333397,"value":0.3543307086614173},{"number":64,"time":199.32500000000638,"value":0.5039370078740157},{"number":64,"time":199.32500000000638,"value":0.5039370078740157},{"number":64,"time":199.3281250000064,"value":0.5354330708661418},{"number":64,"time":199.32916666667307,"value":0.5354330708661418},{"number":64,"time":199.33645833333975,"value":0.5669291338582677},{"number":64,"time":199.33750000000643,"value":0.5669291338582677},{"number":64,"time":199.36458333333977,"value":0.6062992125984252},{"number":64,"time":199.36562500000645,"value":0.6062992125984252},{"number":64,"time":199.39375000000643,"value":0.6377952755905512},{"number":64,"time":199.39479166667311,"value":0.6377952755905512},{"number":64,"time":199.41666666667314,"value":0.7559055118110236},{"number":64,"time":199.41770833333982,"value":0.7559055118110236},{"number":64,"time":199.4406250000065,"value":0.8503937007874016},{"number":64,"time":199.44166666667317,"value":0.8503937007874016},{"number":64,"time":202.3239583333399,"value":0.7322834645669292},{"number":64,"time":202.32500000000658,"value":0.7322834645669292},{"number":64,"time":202.3270833333399,"value":0.6535433070866141},{"number":64,"time":202.3281250000066,"value":0.6535433070866141},{"number":64,"time":202.33229166667326,"value":0.6220472440944882},{"number":64,"time":202.33229166667326,"value":0.6220472440944882},{"number":64,"time":202.33541666667327,"value":0.5905511811023622},{"number":64,"time":202.33645833333995,"value":0.5905511811023622},{"number":64,"time":202.33958333333996,"value":0.5590551181102362},{"number":64,"time":202.34062500000664,"value":0.5590551181102362},{"number":64,"time":202.34375000000665,"value":0.5196850393700787},{"number":64,"time":202.34375000000665,"value":0.5196850393700787},{"number":64,"time":202.34687500000666,"value":0.47244094488188976},{"number":64,"time":202.34791666667334,"value":0.47244094488188976},{"number":64,"time":202.35104166667335,"value":0.33070866141732286},{"number":64,"time":202.35208333334003,"value":0.33070866141732286},{"number":64,"time":202.35520833334004,"value":0.18110236220472442},{"number":64,"time":202.35520833334004,"value":0.18110236220472442},{"number":64,"time":202.3604166666734,"value":0.031496062992125984},{"number":64,"time":202.3604166666734,"value":0.031496062992125984},{"number":64,"time":202.3635416666734,"value":0},{"number":64,"time":202.36458333334008,"value":0},{"number":64,"time":202.49895833334008,"value":0.2047244094488189},{"number":64,"time":202.50000000000676,"value":0.2047244094488189},{"number":64,"time":202.50312500000678,"value":0.33070866141732286},{"number":64,"time":202.50416666667346,"value":0.33070866141732286},{"number":64,"time":202.51145833334013,"value":0.49606299212598426},{"number":64,"time":202.5125000000068,"value":0.49606299212598426},{"number":64,"time":202.51562500000682,"value":0.5354330708661418},{"number":64,"time":202.5166666666735,"value":0.5354330708661418},{"number":64,"time":202.5229166666735,"value":0.5669291338582677},{"number":64,"time":202.52395833334018,"value":0.5669291338582677},{"number":64,"time":202.54687500000685,"value":0.6062992125984252},{"number":64,"time":202.54791666667353,"value":0.6062992125984252},{"number":64,"time":202.57187500000686,"value":0.6456692913385826},{"number":64,"time":202.57187500000686,"value":0.6456692913385826},{"number":64,"time":202.5989583333402,"value":0.7559055118110236},{"number":64,"time":202.60000000000687,"value":0.7559055118110236},{"number":64,"time":202.63541666667354,"value":0.8661417322834646},{"number":64,"time":202.63645833334022,"value":0.8661417322834646},{"number":64,"time":203.89479166667354,"value":0.7559055118110236},{"number":64,"time":203.89479166667354,"value":0.7559055118110236},{"number":64,"time":203.9093750000069,"value":0.6456692913385826},{"number":64,"time":203.9093750000069,"value":0.6456692913385826},{"number":64,"time":203.91458333334023,"value":0.6141732283464567},{"number":64,"time":203.9156250000069,"value":0.6141732283464567},{"number":64,"time":203.9218750000069,"value":0.5826771653543307},{"number":64,"time":203.9229166666736,"value":0.5826771653543307},{"number":64,"time":203.93437500000692,"value":0.5511811023622047},{"number":64,"time":203.9354166666736,"value":0.5511811023622047},{"number":64,"time":203.94583333334026,"value":0.5196850393700787},{"number":64,"time":203.94687500000694,"value":0.5196850393700787},{"number":64,"time":203.9979166666736,"value":0.5511811023622047},{"number":64,"time":203.99895833334028,"value":0.5511811023622047},{"number":64,"time":204.01458333334028,"value":0.5826771653543307},{"number":64,"time":204.01562500000696,"value":0.5826771653543307},{"number":64,"time":204.03020833334028,"value":0.6141732283464567},{"number":64,"time":204.03020833334028,"value":0.6141732283464567},{"number":64,"time":204.04062500000694,"value":0.6456692913385826},{"number":64,"time":204.04166666667362,"value":0.6456692913385826},{"number":64,"time":204.0541666666736,"value":0.7559055118110236},{"number":64,"time":204.0541666666736,"value":0.7559055118110236},{"number":64,"time":204.26250000000695,"value":0.8503937007874016},{"number":64,"time":204.26354166667363,"value":0.8503937007874016},{"number":64,"time":205.47916666667362,"value":0.7559055118110236},{"number":64,"time":205.47916666667362,"value":0.7559055118110236},{"number":64,"time":205.48750000000695,"value":0.6377952755905512},{"number":64,"time":205.48854166667363,"value":0.6377952755905512},{"number":64,"time":205.4895833333403,"value":0.6062992125984252},{"number":64,"time":205.490625000007,"value":0.6062992125984252},{"number":64,"time":205.496875000007,"value":0.5511811023622047},{"number":64,"time":205.4979166666737,"value":0.5511811023622047},{"number":64,"time":205.5010416666737,"value":0.5118110236220472},{"number":64,"time":205.50208333334038,"value":0.5118110236220472},{"number":64,"time":205.50937500000705,"value":0.3543307086614173},{"number":64,"time":205.51041666667373,"value":0.3543307086614173},{"number":64,"time":205.51562500000708,"value":0.25196850393700787},{"number":64,"time":205.51562500000708,"value":0.25196850393700787},{"number":64,"time":205.5177083333404,"value":0.10236220472440945},{"number":64,"time":205.5187500000071,"value":0.10236220472440945},{"number":64,"time":205.5218750000071,"value":0},{"number":64,"time":205.52291666667378,"value":0},{"number":64,"time":205.60625000000712,"value":0.18110236220472442},{"number":64,"time":205.60625000000712,"value":0.18110236220472442},{"number":64,"time":205.6135416666738,"value":0.4015748031496063},{"number":64,"time":205.61458333334048,"value":0.4015748031496063},{"number":64,"time":205.6177083333405,"value":0.49606299212598426},{"number":64,"time":205.61875000000717,"value":0.49606299212598426},{"number":64,"time":205.62187500000718,"value":0.5354330708661418},{"number":64,"time":205.62291666667386,"value":0.5354330708661418},{"number":64,"time":205.62916666667385,"value":0.5826771653543307},{"number":64,"time":205.63020833334053,"value":0.5826771653543307},{"number":64,"time":205.64583333334053,"value":0.6141732283464567},{"number":64,"time":205.6468750000072,"value":0.6141732283464567},{"number":64,"time":205.6541666666739,"value":0.6456692913385826},{"number":64,"time":205.6541666666739,"value":0.6456692913385826},{"number":64,"time":205.6697916666739,"value":0.7559055118110236},{"number":64,"time":205.67083333334057,"value":0.7559055118110236},{"number":64,"time":205.7104166666739,"value":0.8503937007874016},{"number":64,"time":205.71145833334057,"value":0.8503937007874016},{"number":64,"time":208.64270833334052,"value":0.7086614173228346},{"number":64,"time":208.6437500000072,"value":0.7086614173228346},{"number":64,"time":208.6562500000072,"value":0.8031496062992126},{"number":64,"time":208.65729166667387,"value":0.8031496062992126},{"number":64,"time":208.66458333334054,"value":0.7086614173228346},{"number":64,"time":208.66458333334054,"value":0.7086614173228346},{"number":64,"time":208.6687500000072,"value":0.6535433070866141},{"number":64,"time":208.6697916666739,"value":0.6535433070866141},{"number":64,"time":208.67500000000723,"value":0.6141732283464567},{"number":64,"time":208.6760416666739,"value":0.6141732283464567},{"number":64,"time":208.68020833334057,"value":0.5590551181102362},{"number":64,"time":208.68125000000725,"value":0.5590551181102362},{"number":64,"time":208.68437500000726,"value":0.5196850393700787},{"number":64,"time":208.68437500000726,"value":0.5196850393700787},{"number":64,"time":208.68854166667393,"value":0.47244094488188976},{"number":64,"time":208.6895833333406,"value":0.47244094488188976},{"number":64,"time":208.69270833334062,"value":0.3543307086614173},{"number":64,"time":208.69270833334062,"value":0.3543307086614173},{"number":64,"time":208.69583333334063,"value":0.2283464566929134},{"number":64,"time":208.6968750000073,"value":0.2283464566929134},{"number":64,"time":208.70000000000732,"value":0.07874015748031496},{"number":64,"time":208.701041666674,"value":0.07874015748031496},{"number":64,"time":208.704166666674,"value":0},{"number":64,"time":208.7052083333407,"value":0},{"number":64,"time":209.06875000000736,"value":0.12598425196850394},{"number":64,"time":209.06875000000736,"value":0.12598425196850394},{"number":64,"time":209.07604166667403,"value":0.2283464566929134},{"number":64,"time":209.0770833333407,"value":0.2283464566929134},{"number":64,"time":209.08854166667405,"value":0.3543307086614173},{"number":64,"time":209.08958333334073,"value":0.3543307086614173},{"number":64,"time":209.10000000000738,"value":0.47244094488188976},{"number":64,"time":209.10104166667406,"value":0.47244094488188976},{"number":64,"time":209.10833333334074,"value":0.5039370078740157},{"number":64,"time":209.10937500000742,"value":0.5039370078740157},{"number":64,"time":209.12395833334074,"value":0.5354330708661418},{"number":64,"time":209.12500000000742,"value":0.5354330708661418},{"number":64,"time":209.15625000000742,"value":0.5669291338582677},{"number":64,"time":209.1572916666741,"value":0.5669291338582677},{"number":64,"time":209.18020833334077,"value":0.5984251968503937},{"number":64,"time":209.18020833334077,"value":0.5984251968503937},{"number":64,"time":209.20104166667412,"value":0.6299212598425197},{"number":64,"time":209.2020833333408,"value":0.6299212598425197},{"number":64,"time":209.2364583333408,"value":0.7559055118110236},{"number":64,"time":209.2375000000075,"value":0.7559055118110236},{"number":64,"time":209.27604166667416,"value":0.8503937007874016},{"number":64,"time":209.27708333334084,"value":0.8503937007874016},{"number":64,"time":209.4562500000075,"value":1},{"number":64,"time":209.45729166667417,"value":1},{"number":64,"time":210.0000000000075,"value":0},{"number":64,"time":212.41145833334085,"value":0.8661417322834646},{"number":64,"time":212.41250000000753,"value":0.8661417322834646},{"number":64,"time":212.42708333334087,"value":0.7322834645669292},{"number":64,"time":212.42812500000755,"value":0.7322834645669292},{"number":64,"time":212.43645833334088,"value":0.6299212598425197},{"number":64,"time":212.43750000000756,"value":0.6299212598425197},{"number":64,"time":212.4395833333409,"value":0.5984251968503937},{"number":64,"time":212.44062500000757,"value":0.5984251968503937},{"number":64,"time":212.44687500000757,"value":0.5433070866141733},{"number":64,"time":212.44791666667425,"value":0.5433070866141733},{"number":64,"time":212.45104166667426,"value":0.5039370078740157},{"number":64,"time":212.45104166667426,"value":0.5039370078740157},{"number":64,"time":212.45937500000758,"value":0.3543307086614173},{"number":64,"time":212.46041666667426,"value":0.3543307086614173},{"number":64,"time":212.46354166667427,"value":0.2283464566929134},{"number":64,"time":212.46354166667427,"value":0.2283464566929134},{"number":64,"time":212.46666666667429,"value":0.12598425196850394},{"number":64,"time":212.46770833334097,"value":0.12598425196850394},{"number":64,"time":212.47083333334098,"value":0},{"number":64,"time":212.47187500000766,"value":0},{"number":64,"time":212.70312500000765,"value":0.10236220472440945},{"number":64,"time":212.70416666667433,"value":0.10236220472440945},{"number":64,"time":212.70729166667434,"value":0.2047244094488189},{"number":64,"time":212.70833333334102,"value":0.2047244094488189},{"number":64,"time":212.714583333341,"value":0.3779527559055118},{"number":64,"time":212.7156250000077,"value":0.3779527559055118},{"number":64,"time":212.72187500000769,"value":0.49606299212598426},{"number":64,"time":212.72291666667437,"value":0.49606299212598426},{"number":64,"time":212.73020833334104,"value":0.5354330708661418},{"number":64,"time":212.73125000000772,"value":0.5354330708661418},{"number":64,"time":212.76666666667438,"value":0.5669291338582677},{"number":64,"time":212.76770833334106,"value":0.5669291338582677},{"number":64,"time":212.79791666667438,"value":0.5984251968503937},{"number":64,"time":212.79791666667438,"value":0.5984251968503937},{"number":64,"time":212.81458333334106,"value":0.6299212598425197},{"number":64,"time":212.81562500000774,"value":0.6299212598425197},{"number":64,"time":212.83854166667442,"value":0.7559055118110236},{"number":64,"time":212.83854166667442,"value":0.7559055118110236},{"number":64,"time":212.8666666666744,"value":0.8503937007874016},{"number":64,"time":212.86770833334108,"value":0.8503937007874016},{"number":64,"time":212.98750000000777,"value":1},{"number":64,"time":212.98854166667445,"value":1},{"number":64,"time":216.18541666667443,"value":0.8661417322834646},{"number":64,"time":216.1864583333411,"value":0.8661417322834646},{"number":64,"time":216.20104166667443,"value":0.7322834645669292},{"number":64,"time":216.2020833333411,"value":0.7322834645669292},{"number":64,"time":216.21041666667443,"value":0.6377952755905512},{"number":64,"time":216.2114583333411,"value":0.6377952755905512},{"number":64,"time":216.21354166667444,"value":0.6062992125984252},{"number":64,"time":216.21354166667444,"value":0.6062992125984252},{"number":64,"time":216.22083333334112,"value":0.5511811023622047},{"number":64,"time":216.22083333334112,"value":0.5511811023622047},{"number":64,"time":216.22500000000778,"value":0.5118110236220472},{"number":64,"time":216.22604166667446,"value":0.5118110236220472},{"number":64,"time":216.23333333334114,"value":0.3543307086614173},{"number":64,"time":216.23333333334114,"value":0.3543307086614173},{"number":64,"time":216.2375000000078,"value":0.2283464566929134},{"number":64,"time":216.2375000000078,"value":0.2283464566929134},{"number":64,"time":216.2406250000078,"value":0.10236220472440945},{"number":64,"time":216.2416666666745,"value":0.10236220472440945},{"number":64,"time":216.2447916666745,"value":0},{"number":64,"time":216.2447916666745,"value":0},{"number":64,"time":216.40520833334116,"value":0.10236220472440945},{"number":64,"time":216.40625000000784,"value":0.10236220472440945},{"number":64,"time":216.41250000000784,"value":0.25196850393700787},{"number":64,"time":216.41354166667452,"value":0.25196850393700787},{"number":64,"time":216.4208333333412,"value":0.3779527559055118},{"number":64,"time":216.4208333333412,"value":0.3779527559055118},{"number":64,"time":216.42916666667452,"value":0.48031496062992124},{"number":64,"time":216.4302083333412,"value":0.48031496062992124},{"number":64,"time":216.43750000000787,"value":0.5118110236220472},{"number":64,"time":216.43750000000787,"value":0.5118110236220472},{"number":64,"time":216.4614583333412,"value":0.5511811023622047},{"number":64,"time":216.4614583333412,"value":0.5511811023622047},{"number":64,"time":216.49687500000786,"value":0.5826771653543307},{"number":64,"time":216.49687500000786,"value":0.5826771653543307},{"number":64,"time":216.51354166667454,"value":0.6141732283464567},{"number":64,"time":216.51458333334122,"value":0.6141732283464567},{"number":64,"time":216.52500000000788,"value":0.6456692913385826},{"number":64,"time":216.52604166667456,"value":0.6456692913385826},{"number":64,"time":216.54062500000788,"value":0.7559055118110236},{"number":64,"time":216.54166666667456,"value":0.7559055118110236},{"number":64,"time":216.56145833334122,"value":0.8503937007874016},{"number":64,"time":216.56145833334122,"value":0.8503937007874016},{"number":64,"time":216.66458333334123,"value":1},{"number":64,"time":216.6656250000079,"value":1},{"number":64,"time":219.90729166667458,"value":0.8661417322834646},{"number":64,"time":219.90833333334126,"value":0.8661417322834646},{"number":64,"time":219.9260416666746,"value":0.7322834645669292},{"number":64,"time":219.92708333334127,"value":0.7322834645669292},{"number":64,"time":219.9354166666746,"value":0.6377952755905512},{"number":64,"time":219.93645833334128,"value":0.6377952755905512},{"number":64,"time":219.9385416666746,"value":0.6062992125984252},{"number":64,"time":219.9395833333413,"value":0.6062992125984252},{"number":64,"time":219.94583333334128,"value":0.5590551181102362},{"number":64,"time":219.94687500000796,"value":0.5590551181102362},{"number":64,"time":219.95000000000798,"value":0.5275590551181102},{"number":64,"time":219.95104166667466,"value":0.5275590551181102},{"number":64,"time":219.95416666667467,"value":0.4881889763779528},{"number":64,"time":219.95520833334135,"value":0.4881889763779528},{"number":64,"time":219.96250000000802,"value":0.33070866141732286},{"number":64,"time":219.9635416666747,"value":0.33070866141732286},{"number":64,"time":219.9666666666747,"value":0.2283464566929134},{"number":64,"time":219.9677083333414,"value":0.2283464566929134},{"number":64,"time":219.96979166667472,"value":0.10236220472440945},{"number":64,"time":219.96979166667472,"value":0.10236220472440945},{"number":64,"time":219.97812500000805,"value":0},{"number":64,"time":219.97916666667473,"value":0},{"number":64,"time":220.1583333333414,"value":0.12598425196850394},{"number":64,"time":220.1583333333414,"value":0.12598425196850394},{"number":64,"time":220.16562500000808,"value":0.25196850393700787},{"number":64,"time":220.16666666667476,"value":0.25196850393700787},{"number":64,"time":220.17395833334143,"value":0.3543307086614173},{"number":64,"time":220.1750000000081,"value":0.3543307086614173},{"number":64,"time":220.18541666667477,"value":0.48031496062992124},{"number":64,"time":220.18645833334145,"value":0.48031496062992124},{"number":64,"time":220.19375000000812,"value":0.5196850393700787},{"number":64,"time":220.1947916666748,"value":0.5196850393700787},{"number":64,"time":220.20625000000814,"value":0.5511811023622047},{"number":64,"time":220.20729166667482,"value":0.5511811023622047},{"number":64,"time":220.22604166667483,"value":0.5826771653543307},{"number":64,"time":220.2270833333415,"value":0.5826771653543307},{"number":64,"time":220.24583333334152,"value":0.6141732283464567},{"number":64,"time":220.2468750000082,"value":0.6141732283464567},{"number":64,"time":220.25729166667486,"value":0.6535433070866141},{"number":64,"time":220.2593750000082,"value":0.6535433070866141},{"number":64,"time":220.2781250000082,"value":0.7795275590551181},{"number":64,"time":220.27916666667488,"value":0.7795275590551181},{"number":64,"time":220.31770833334156,"value":0.889763779527559},{"number":64,"time":220.31770833334156,"value":0.889763779527559},{"number":64,"time":223.82083333334157,"value":0.7795275590551181},{"number":64,"time":223.82187500000825,"value":0.7795275590551181},{"number":64,"time":223.82812500000824,"value":0.6614173228346457},{"number":64,"time":223.82916666667492,"value":0.6614173228346457},{"number":64,"time":223.83541666667494,"value":0.6299212598425197},{"number":64,"time":223.83645833334162,"value":0.6299212598425197},{"number":64,"time":223.83854166667496,"value":0.5984251968503937},{"number":64,"time":223.83958333334164,"value":0.5984251968503937},{"number":64,"time":223.84166666667497,"value":0.5669291338582677},{"number":64,"time":223.84166666667497,"value":0.5669291338582677},{"number":64,"time":223.84895833334164,"value":0.5275590551181102},{"number":64,"time":223.85000000000832,"value":0.5275590551181102},{"number":64,"time":223.85520833334166,"value":0.47244094488188976},{"number":64,"time":223.857291666675,"value":0.47244094488188976},{"number":64,"time":223.85833333334168,"value":0.3543307086614173},{"number":64,"time":223.85937500000836,"value":0.3543307086614173},{"number":64,"time":223.86250000000837,"value":0.2047244094488189},{"number":64,"time":223.86250000000837,"value":0.2047244094488189},{"number":64,"time":223.8645833333417,"value":0.05511811023622047},{"number":64,"time":223.86562500000838,"value":0.05511811023622047},{"number":64,"time":223.86666666667506,"value":0},{"number":64,"time":223.86770833334174,"value":0},{"number":64,"time":224.02395833334174,"value":0.10236220472440945},{"number":64,"time":224.02500000000842,"value":0.10236220472440945},{"number":64,"time":224.02812500000843,"value":0.2047244094488189},{"number":64,"time":224.0291666666751,"value":0.2047244094488189},{"number":64,"time":224.03645833334178,"value":0.3779527559055118},{"number":64,"time":224.03750000000846,"value":0.3779527559055118},{"number":64,"time":224.04479166667514,"value":0.4881889763779528},{"number":64,"time":224.04583333334182,"value":0.4881889763779528},{"number":64,"time":224.0520833333418,"value":0.5196850393700787},{"number":64,"time":224.0531250000085,"value":0.5196850393700787},{"number":64,"time":224.07604166667517,"value":0.5511811023622047},{"number":64,"time":224.07604166667517,"value":0.5511811023622047},{"number":64,"time":224.1000000000085,"value":0.5826771653543307},{"number":64,"time":224.10104166667517,"value":0.5826771653543307},{"number":64,"time":224.1156250000085,"value":0.6141732283464567},{"number":64,"time":224.11666666667517,"value":0.6141732283464567},{"number":64,"time":224.12395833334185,"value":0.6456692913385826},{"number":64,"time":224.12500000000853,"value":0.6456692913385826},{"number":64,"time":224.14375000000854,"value":0.7795275590551181},{"number":64,"time":224.14479166667522,"value":0.7795275590551181},{"number":64,"time":224.21562500000854,"value":0.889763779527559},{"number":64,"time":224.21666666667522,"value":0.889763779527559},{"number":64,"time":227.30625000000853,"value":0.7795275590551181},{"number":64,"time":227.3072916666752,"value":0.7795275590551181},{"number":64,"time":227.3145833333419,"value":0.6535433070866141},{"number":64,"time":227.31562500000857,"value":0.6535433070866141},{"number":64,"time":227.31979166667523,"value":0.6141732283464567},{"number":64,"time":227.3208333333419,"value":0.6141732283464567},{"number":64,"time":227.32291666667524,"value":0.5826771653543307},{"number":64,"time":227.32395833334192,"value":0.5826771653543307},{"number":64,"time":227.32604166667525,"value":0.5511811023622047},{"number":64,"time":227.32708333334193,"value":0.5511811023622047},{"number":64,"time":227.33020833334194,"value":0.5039370078740157},{"number":64,"time":227.33125000000862,"value":0.5039370078740157},{"number":64,"time":227.3385416666753,"value":0.2992125984251969},{"number":64,"time":227.3385416666753,"value":0.2992125984251969},{"number":64,"time":227.34270833334196,"value":0.12598425196850394},{"number":64,"time":227.34375000000864,"value":0.12598425196850394},{"number":64,"time":227.34687500000865,"value":0},{"number":64,"time":227.34791666667533,"value":0},{"number":64,"time":227.486458333342,"value":0.10236220472440945},{"number":64,"time":227.486458333342,"value":0.10236220472440945},{"number":64,"time":227.49062500000866,"value":0.2283464566929134},{"number":64,"time":227.49166666667534,"value":0.2283464566929134},{"number":64,"time":227.49479166667535,"value":0.3543307086614173},{"number":64,"time":227.49583333334203,"value":0.3543307086614173},{"number":64,"time":227.50208333334203,"value":0.5039370078740157},{"number":64,"time":227.5031250000087,"value":0.5039370078740157},{"number":64,"time":227.50625000000872,"value":0.5354330708661418},{"number":64,"time":227.5072916666754,"value":0.5354330708661418},{"number":64,"time":227.51458333334207,"value":0.5669291338582677},{"number":64,"time":227.51458333334207,"value":0.5669291338582677},{"number":64,"time":227.53541666667542,"value":0.6062992125984252},{"number":64,"time":227.53541666667542,"value":0.6062992125984252},{"number":64,"time":227.55104166667542,"value":0.6456692913385826},{"number":64,"time":227.55104166667542,"value":0.6456692913385826},{"number":64,"time":227.57812500000875,"value":0.7559055118110236},{"number":64,"time":227.57916666667543,"value":0.7559055118110236},{"number":64,"time":227.60625000000877,"value":0.8503937007874016},{"number":64,"time":227.60729166667545,"value":0.8503937007874016},{"number":64,"time":231.66666666667547,"value":0.7322834645669292},{"number":64,"time":231.66666666667547,"value":0.7322834645669292},{"number":64,"time":231.6750000000088,"value":0.6299212598425197},{"number":64,"time":231.67604166667547,"value":0.6299212598425197},{"number":64,"time":231.68020833334214,"value":0.5984251968503937},{"number":64,"time":231.68125000000882,"value":0.5984251968503937},{"number":64,"time":231.69062500000882,"value":0.5669291338582677},{"number":64,"time":231.6916666666755,"value":0.5669291338582677},{"number":64,"time":231.6979166666755,"value":0.5196850393700787},{"number":64,"time":231.69895833334218,"value":0.5196850393700787},{"number":64,"time":231.70104166667554,"value":0.47244094488188976},{"number":64,"time":231.70208333334222,"value":0.47244094488188976},{"number":64,"time":231.70416666667555,"value":0.3543307086614173},{"number":64,"time":231.70520833334223,"value":0.3543307086614173},{"number":64,"time":231.7062500000089,"value":0.2283464566929134},{"number":64,"time":231.7062500000089,"value":0.2283464566929134},{"number":64,"time":231.70833333334224,"value":0.07874015748031496},{"number":64,"time":231.70937500000892,"value":0.07874015748031496},{"number":64,"time":231.71145833334225,"value":0},{"number":64,"time":231.71250000000893,"value":0},{"number":64,"time":231.83437500000892,"value":0.10236220472440945},{"number":64,"time":231.8354166666756,"value":0.10236220472440945},{"number":64,"time":231.8385416666756,"value":0.2047244094488189},{"number":64,"time":231.8395833333423,"value":0.2047244094488189},{"number":64,"time":231.84687500000896,"value":0.3779527559055118},{"number":64,"time":231.84687500000896,"value":0.3779527559055118},{"number":64,"time":231.85000000000898,"value":0.47244094488188976},{"number":64,"time":231.85104166667566,"value":0.47244094488188976},{"number":64,"time":231.85416666667567,"value":0.5039370078740157},{"number":64,"time":231.85520833334235,"value":0.5039370078740157},{"number":64,"time":231.86250000000902,"value":0.5433070866141733},{"number":64,"time":231.8635416666757,"value":0.5433070866141733},{"number":64,"time":231.89375000000902,"value":0.5826771653543307},{"number":64,"time":231.8947916666757,"value":0.5826771653543307},{"number":64,"time":231.94062500000902,"value":0.6141732283464567},{"number":64,"time":231.9416666666757,"value":0.6141732283464567},{"number":64,"time":231.9541666666757,"value":0.6456692913385826},{"number":64,"time":231.9541666666757,"value":0.6456692913385826},{"number":64,"time":231.98229166667568,"value":0.7559055118110236},{"number":64,"time":231.98333333334236,"value":0.7559055118110236},{"number":64,"time":232.04270833334238,"value":0.8503937007874016},{"number":64,"time":232.04270833334238,"value":0.8503937007874016},{"number":64,"time":235.3895833333424,"value":0.7086614173228346},{"number":64,"time":235.39062500000907,"value":0.7086614173228346},{"number":64,"time":235.3958333333424,"value":0.6377952755905512},{"number":64,"time":235.3968750000091,"value":0.6377952755905512},{"number":64,"time":235.4000000000091,"value":0.6062992125984252},{"number":64,"time":235.40104166667578,"value":0.6062992125984252},{"number":64,"time":235.40520833334244,"value":0.5669291338582677},{"number":64,"time":235.40625000000912,"value":0.5669291338582677},{"number":64,"time":235.40833333334245,"value":0.5275590551181102},{"number":64,"time":235.40937500000913,"value":0.5275590551181102},{"number":64,"time":235.4135416666758,"value":0.48031496062992124},{"number":64,"time":235.41458333334248,"value":0.48031496062992124},{"number":64,"time":235.41562500000916,"value":0.3543307086614173},{"number":64,"time":235.41666666667584,"value":0.3543307086614173},{"number":64,"time":235.41875000000917,"value":0.2047244094488189},{"number":64,"time":235.41979166667585,"value":0.2047244094488189},{"number":64,"time":235.42187500000918,"value":0.05511811023622047},{"number":64,"time":235.42291666667586,"value":0.05511811023622047},{"number":64,"time":235.4250000000092,"value":0},{"number":64,"time":235.4250000000092,"value":0},{"number":64,"time":235.5645833333425,"value":0.18110236220472442},{"number":64,"time":235.5656250000092,"value":0.18110236220472442},{"number":64,"time":235.57291666667587,"value":0.3543307086614173},{"number":64,"time":235.57395833334255,"value":0.3543307086614173},{"number":64,"time":235.58125000000922,"value":0.4881889763779528},{"number":64,"time":235.5822916666759,"value":0.4881889763779528},{"number":64,"time":235.5885416666759,"value":0.5275590551181102},{"number":64,"time":235.5885416666759,"value":0.5275590551181102},{"number":64,"time":235.61250000000922,"value":0.5590551181102362},{"number":64,"time":235.6135416666759,"value":0.5590551181102362},{"number":64,"time":235.64895833334256,"value":0.5905511811023622},{"number":64,"time":235.65000000000924,"value":0.5905511811023622},{"number":64,"time":235.67187500000924,"value":0.6220472440944882},{"number":64,"time":235.67291666667592,"value":0.6220472440944882},{"number":64,"time":235.70416666667592,"value":0.7322834645669292},{"number":64,"time":235.7052083333426,"value":0.7322834645669292},{"number":64,"time":235.74479166667592,"value":0.8267716535433071},{"number":64,"time":235.7458333333426,"value":0.8267716535433071},{"number":64,"time":235.86145833334263,"value":0.937007874015748},{"number":64,"time":235.86145833334263,"value":0.937007874015748},{"number":64,"time":239.58750000000936,"value":0.8031496062992126},{"number":64,"time":239.58750000000936,"value":0.8031496062992126},{"number":64,"time":239.59375000000935,"value":0.6850393700787402},{"number":64,"time":239.59479166667603,"value":0.6850393700787402},{"number":64,"time":239.60000000000937,"value":0.6299212598425197},{"number":64,"time":239.60104166667605,"value":0.6299212598425197},{"number":64,"time":239.60312500000938,"value":0.5984251968503937},{"number":64,"time":239.60416666667606,"value":0.5984251968503937},{"number":64,"time":239.60729166667608,"value":0.5669291338582677},{"number":64,"time":239.60833333334276,"value":0.5669291338582677},{"number":64,"time":239.6104166666761,"value":0.5196850393700787},{"number":64,"time":239.6104166666761,"value":0.5196850393700787},{"number":64,"time":239.61458333334275,"value":0.47244094488188976},{"number":64,"time":239.61562500000943,"value":0.47244094488188976},{"number":64,"time":239.61875000000944,"value":0.33070866141732286},{"number":64,"time":239.61979166667612,"value":0.33070866141732286},{"number":64,"time":239.62291666667613,"value":0.2047244094488189},{"number":64,"time":239.62291666667613,"value":0.2047244094488189},{"number":64,"time":239.62604166667614,"value":0.05511811023622047},{"number":64,"time":239.62708333334282,"value":0.05511811023622047},{"number":64,"time":239.6312500000095,"value":0},{"number":64,"time":239.63229166667617,"value":0},{"number":64,"time":239.7625000000095,"value":0.18110236220472442},{"number":64,"time":239.7635416666762,"value":0.18110236220472442},{"number":64,"time":239.76979166667618,"value":0.3779527559055118},{"number":64,"time":239.77083333334286,"value":0.3779527559055118},{"number":64,"time":239.77500000000953,"value":0.47244094488188976},{"number":64,"time":239.77500000000953,"value":0.47244094488188976},{"number":64,"time":239.7791666666762,"value":0.5039370078740157},{"number":64,"time":239.78020833334287,"value":0.5039370078740157},{"number":64,"time":239.78645833334286,"value":0.5433070866141733},{"number":64,"time":239.78645833334286,"value":0.5433070866141733},{"number":64,"time":239.8072916666762,"value":0.5748031496062992},{"number":64,"time":239.8072916666762,"value":0.5748031496062992},{"number":64,"time":239.83125000000953,"value":0.6062992125984252},{"number":64,"time":239.8322916666762,"value":0.6062992125984252},{"number":64,"time":239.8552083333429,"value":0.6456692913385826},{"number":64,"time":239.85625000000957,"value":0.6456692913385826},{"number":64,"time":239.87916666667624,"value":0.7559055118110236},{"number":64,"time":239.88020833334292,"value":0.7559055118110236},{"number":64,"time":239.91354166667625,"value":0.8503937007874016},{"number":64,"time":239.91458333334293,"value":0.8503937007874016},{"number":64,"time":242.88437500000964,"value":0.7086614173228346},{"number":64,"time":242.88541666667632,"value":0.7086614173228346},{"number":64,"time":242.88958333334298,"value":0.6456692913385826},{"number":64,"time":242.89062500000966,"value":0.6456692913385826},{"number":64,"time":242.895833333343,"value":0.6141732283464567},{"number":64,"time":242.8968750000097,"value":0.6141732283464567},{"number":64,"time":242.9000000000097,"value":0.5826771653543307},{"number":64,"time":242.90104166667638,"value":0.5826771653543307},{"number":64,"time":242.9031250000097,"value":0.5433070866141733},{"number":64,"time":242.9041666666764,"value":0.5433070866141733},{"number":64,"time":242.90625000000972,"value":0.49606299212598426},{"number":64,"time":242.90625000000972,"value":0.49606299212598426},{"number":64,"time":242.90937500000973,"value":0.4015748031496063},{"number":64,"time":242.9104166666764,"value":0.4015748031496063},{"number":64,"time":242.91250000000974,"value":0.2755905511811024},{"number":64,"time":242.91354166667642,"value":0.2755905511811024},{"number":64,"time":242.91562500000975,"value":0.10236220472440945},{"number":64,"time":242.91666666667643,"value":0.10236220472440945},{"number":64,"time":242.91979166667645,"value":0},{"number":64,"time":242.92083333334313,"value":0},{"number":64,"time":243.04791666667646,"value":0.12598425196850394},{"number":64,"time":243.04895833334314,"value":0.12598425196850394},{"number":64,"time":243.0531250000098,"value":0.2283464566929134},{"number":64,"time":243.05416666667648,"value":0.2283464566929134},{"number":64,"time":243.0562500000098,"value":0.33070866141732286},{"number":64,"time":243.0572916666765,"value":0.33070866141732286},{"number":64,"time":243.06354166667649,"value":0.48031496062992124},{"number":64,"time":243.06458333334317,"value":0.48031496062992124},{"number":64,"time":243.06770833334318,"value":0.5118110236220472},{"number":64,"time":243.06875000000986,"value":0.5118110236220472},{"number":64,"time":243.07604166667653,"value":0.5433070866141733},{"number":64,"time":243.0770833333432,"value":0.5433070866141733},{"number":64,"time":243.09583333334322,"value":0.5748031496062992},{"number":64,"time":243.0968750000099,"value":0.5748031496062992},{"number":64,"time":243.1281250000099,"value":0.6062992125984252},{"number":64,"time":243.12916666667658,"value":0.6062992125984252},{"number":64,"time":243.15208333334326,"value":0.6456692913385826},{"number":64,"time":243.15312500000994,"value":0.6456692913385826},{"number":64,"time":243.18020833334327,"value":0.7559055118110236},{"number":64,"time":243.18020833334327,"value":0.7559055118110236},{"number":64,"time":243.22395833334326,"value":0.8503937007874016},{"number":64,"time":243.22500000000994,"value":0.8503937007874016},{"number":64,"time":246.19479166667662,"value":0.7559055118110236},{"number":64,"time":246.1958333333433,"value":0.7559055118110236},{"number":64,"time":246.1989583333433,"value":0.6614173228346457},{"number":64,"time":246.20000000001,"value":0.6614173228346457},{"number":64,"time":246.20416666667666,"value":0.6220472440944882},{"number":64,"time":246.20520833334334,"value":0.6220472440944882},{"number":64,"time":246.20729166667667,"value":0.5826771653543307},{"number":64,"time":246.20729166667667,"value":0.5826771653543307},{"number":64,"time":246.21041666667668,"value":0.5511811023622047},{"number":64,"time":246.21145833334336,"value":0.5511811023622047},{"number":64,"time":246.21458333334337,"value":0.5118110236220472},{"number":64,"time":246.21458333334337,"value":0.5118110236220472},{"number":64,"time":246.21875000001003,"value":0.4251968503937008},{"number":64,"time":246.2197916666767,"value":0.4251968503937008},{"number":64,"time":246.22291666667672,"value":0.2992125984251969},{"number":64,"time":246.2239583333434,"value":0.2992125984251969},{"number":64,"time":246.22708333334342,"value":0.18110236220472442},{"number":64,"time":246.2281250000101,"value":0.18110236220472442},{"number":64,"time":246.23020833334343,"value":0.05511811023622047},{"number":64,"time":246.2312500000101,"value":0.05511811023622047},{"number":64,"time":246.23437500001012,"value":0},{"number":64,"time":246.2354166666768,"value":0},{"number":64,"time":246.36250000001013,"value":0.12598425196850394},{"number":64,"time":246.36250000001013,"value":0.12598425196850394},{"number":64,"time":246.3666666666768,"value":0.25196850393700787},{"number":64,"time":246.36770833334347,"value":0.25196850393700787},{"number":64,"time":246.37500000001015,"value":0.4251968503937008},{"number":64,"time":246.37604166667683,"value":0.4251968503937008},{"number":64,"time":246.37916666667684,"value":0.4881889763779528},{"number":64,"time":246.38020833334352,"value":0.4881889763779528},{"number":64,"time":246.38229166667685,"value":0.5196850393700787},{"number":64,"time":246.38333333334353,"value":0.5196850393700787},{"number":64,"time":246.3906250000102,"value":0.5511811023622047},{"number":64,"time":246.3906250000102,"value":0.5511811023622047},{"number":64,"time":246.4156250000102,"value":0.5826771653543307},{"number":64,"time":246.4166666666769,"value":0.5826771653543307},{"number":64,"time":246.45520833334356,"value":0.6220472440944882},{"number":64,"time":246.45625000001024,"value":0.6220472440944882},{"number":64,"time":246.51458333334358,"value":0.7322834645669292},{"number":64,"time":246.51562500001026,"value":0.7322834645669292},{"number":64,"time":246.58750000001027,"value":0.8267716535433071},{"number":64,"time":246.58750000001027,"value":0.8267716535433071},{"number":64,"time":249.19791666667692,"value":0.6850393700787402},{"number":64,"time":249.1989583333436,"value":0.6850393700787402},{"number":64,"time":249.20312500001026,"value":0.6377952755905512},{"number":64,"time":249.20416666667694,"value":0.6377952755905512},{"number":64,"time":249.21145833334361,"value":0.6062992125984252},{"number":64,"time":249.21145833334361,"value":0.6062992125984252},{"number":64,"time":249.2177083333436,"value":0.5748031496062992},{"number":64,"time":249.2187500000103,"value":0.5748031496062992},{"number":64,"time":249.21979166667697,"value":0.5433070866141733},{"number":64,"time":249.22083333334365,"value":0.5433070866141733},{"number":64,"time":249.22187500001033,"value":0.49606299212598426},{"number":64,"time":249.222916666677,"value":0.49606299212598426},{"number":64,"time":249.22604166667702,"value":0.2755905511811024},{"number":64,"time":249.2270833333437,"value":0.2755905511811024},{"number":64,"time":249.22916666667703,"value":0.12598425196850394},{"number":64,"time":249.2302083333437,"value":0.12598425196850394},{"number":64,"time":249.23333333334372,"value":0},{"number":64,"time":249.2343750000104,"value":0},{"number":64,"time":249.36458333334375,"value":0.18110236220472442},{"number":64,"time":249.36562500001043,"value":0.18110236220472442},{"number":64,"time":249.36875000001044,"value":0.2992125984251969},{"number":64,"time":249.36979166667712,"value":0.2992125984251969},{"number":64,"time":249.37291666667713,"value":0.4015748031496063},{"number":64,"time":249.3739583333438,"value":0.4015748031496063},{"number":64,"time":249.37604166667714,"value":0.48031496062992124},{"number":64,"time":249.37708333334382,"value":0.48031496062992124},{"number":64,"time":249.3843750000105,"value":0.5354330708661418},{"number":64,"time":249.38541666667717,"value":0.5354330708661418},{"number":64,"time":249.3968750000105,"value":0.5669291338582677},{"number":64,"time":249.3979166666772,"value":0.5669291338582677},{"number":64,"time":249.42500000001053,"value":0.5984251968503937},{"number":64,"time":249.42500000001053,"value":0.5984251968503937},{"number":64,"time":249.4604166666772,"value":0.6299212598425197},{"number":64,"time":249.4604166666772,"value":0.6299212598425197},{"number":64,"time":249.50520833334386,"value":0.7322834645669292},{"number":64,"time":249.50625000001054,"value":0.7322834645669292},{"number":64,"time":249.60520833334385,"value":0.8267716535433071},{"number":64,"time":249.60625000001053,"value":0.8267716535433071},{"number":64,"time":251.74791666667724,"value":0.937007874015748},{"number":64,"time":251.74791666667724,"value":0.937007874015748},{"number":64,"time":252.36666666667725,"value":0.8267716535433071},{"number":64,"time":252.36770833334393,"value":0.8267716535433071},{"number":64,"time":252.3750000000106,"value":0.6850393700787402},{"number":64,"time":252.3750000000106,"value":0.6850393700787402},{"number":64,"time":252.38020833334394,"value":0.6377952755905512},{"number":64,"time":252.38125000001062,"value":0.6377952755905512},{"number":64,"time":252.38645833334397,"value":0.5984251968503937},{"number":64,"time":252.38750000001065,"value":0.5984251968503937},{"number":64,"time":252.38958333334398,"value":0.5669291338582677},{"number":64,"time":252.39062500001066,"value":0.5669291338582677},{"number":64,"time":252.39479166667732,"value":0.5275590551181102},{"number":64,"time":252.39479166667732,"value":0.5275590551181102},{"number":64,"time":252.39791666667733,"value":0.47244094488188976},{"number":64,"time":252.39791666667733,"value":0.47244094488188976},{"number":64,"time":252.40104166667734,"value":0.3543307086614173},{"number":64,"time":252.40208333334402,"value":0.3543307086614173},{"number":64,"time":252.4062500000107,"value":0.2283464566929134},{"number":64,"time":252.40729166667737,"value":0.2283464566929134},{"number":64,"time":252.4093750000107,"value":0.05511811023622047},{"number":64,"time":252.41041666667738,"value":0.05511811023622047},{"number":64,"time":252.4125000000107,"value":0},{"number":64,"time":252.4135416666774,"value":0},{"number":64,"time":252.53020833334406,"value":0.12598425196850394},{"number":64,"time":252.53125000001074,"value":0.12598425196850394},{"number":64,"time":252.53437500001075,"value":0.25196850393700787},{"number":64,"time":252.53437500001075,"value":0.25196850393700787},{"number":64,"time":252.53854166667742,"value":0.3543307086614173},{"number":64,"time":252.5395833333441,"value":0.3543307086614173},{"number":64,"time":252.5427083333441,"value":0.47244094488188976},{"number":64,"time":252.5437500000108,"value":0.47244094488188976},{"number":64,"time":252.5468750000108,"value":0.5039370078740157},{"number":64,"time":252.5468750000108,"value":0.5039370078740157},{"number":64,"time":252.5500000000108,"value":0.5354330708661418},{"number":64,"time":252.5510416666775,"value":0.5354330708661418},{"number":64,"time":252.55833333334417,"value":0.5748031496062992},{"number":64,"time":252.55833333334417,"value":0.5748031496062992},{"number":64,"time":252.5791666666775,"value":0.6062992125984252},{"number":64,"time":252.5802083333442,"value":0.6062992125984252},{"number":64,"time":252.5947916666775,"value":0.6456692913385826},{"number":64,"time":252.5947916666775,"value":0.6456692913385826},{"number":64,"time":252.6427083333442,"value":0.7559055118110236},{"number":64,"time":252.64375000001087,"value":0.7559055118110236},{"number":64,"time":252.69479166667753,"value":0.8503937007874016},{"number":64,"time":252.69479166667753,"value":0.8503937007874016},{"number":64,"time":255.18541666667758,"value":0.7086614173228346},{"number":64,"time":255.18645833334426,"value":0.7086614173228346},{"number":64,"time":255.19062500001093,"value":0.6377952755905512},{"number":64,"time":255.1916666666776,"value":0.6377952755905512},{"number":64,"time":255.19270833334429,"value":0.6062992125984252},{"number":64,"time":255.19479166667762,"value":0.6062992125984252},{"number":64,"time":255.19687500001095,"value":0.5748031496062992},{"number":64,"time":255.19791666667763,"value":0.5748031496062992},{"number":64,"time":255.20312500001097,"value":0.5354330708661418},{"number":64,"time":255.20416666667765,"value":0.5354330708661418},{"number":64,"time":255.21250000001098,"value":0.48031496062992124},{"number":64,"time":255.21354166667766,"value":0.48031496062992124},{"number":64,"time":255.21458333334434,"value":0.3543307086614173},{"number":64,"time":255.21562500001102,"value":0.3543307086614173},{"number":64,"time":255.21875000001103,"value":0.2283464566929134},{"number":64,"time":255.21875000001103,"value":0.2283464566929134},{"number":64,"time":255.2197916666777,"value":0.05511811023622047},{"number":64,"time":255.2208333333444,"value":0.05511811023622047},{"number":64,"time":255.22291666667772,"value":0},{"number":64,"time":255.2239583333444,"value":0},{"number":64,"time":255.3458333333444,"value":0.12598425196850394},{"number":64,"time":255.3458333333444,"value":0.12598425196850394},{"number":64,"time":255.3489583333444,"value":0.25196850393700787},{"number":64,"time":255.35000000001108,"value":0.25196850393700787},{"number":64,"time":255.3531250000111,"value":0.3543307086614173},{"number":64,"time":255.3531250000111,"value":0.3543307086614173},{"number":64,"time":255.36145833334442,"value":0.49606299212598426},{"number":64,"time":255.3625000000111,"value":0.49606299212598426},{"number":64,"time":255.3656250000111,"value":0.5275590551181102},{"number":64,"time":255.3656250000111,"value":0.5275590551181102},{"number":64,"time":255.37291666667778,"value":0.5590551181102362},{"number":64,"time":255.37395833334446,"value":0.5590551181102362},{"number":64,"time":255.4010416666778,"value":0.5984251968503937},{"number":64,"time":255.40208333334448,"value":0.5984251968503937},{"number":64,"time":255.43750000001114,"value":0.6377952755905512},{"number":64,"time":255.43854166667782,"value":0.6377952755905512},{"number":64,"time":255.46979166667782,"value":0.7322834645669292},{"number":64,"time":255.46979166667782,"value":0.7322834645669292},{"number":64,"time":255.49687500001116,"value":0.8267716535433071},{"number":64,"time":255.49791666667784,"value":0.8267716535433071},{"number":64,"time":257.7645833333445,"value":0.937007874015748},{"number":64,"time":257.7645833333445,"value":0.937007874015748},{"number":64,"time":257.8677083333445,"value":0.8031496062992126},{"number":64,"time":257.8687500000112,"value":0.8031496062992126},{"number":64,"time":257.8770833333445,"value":0.6850393700787402},{"number":64,"time":257.87812500001115,"value":0.6850393700787402},{"number":64,"time":257.88125000001116,"value":0.6377952755905512},{"number":64,"time":257.8822916666778,"value":0.6377952755905512},{"number":64,"time":257.8843750000112,"value":0.5984251968503937},{"number":64,"time":257.8854166666778,"value":0.5984251968503937},{"number":64,"time":257.88854166667784,"value":0.5669291338582677},{"number":64,"time":257.8895833333445,"value":0.5669291338582677},{"number":64,"time":257.8927083333445,"value":0.5196850393700787},{"number":64,"time":257.8927083333445,"value":0.5196850393700787},{"number":64,"time":257.8958333333445,"value":0.47244094488188976},{"number":64,"time":257.89687500001116,"value":0.47244094488188976},{"number":64,"time":257.9000000000112,"value":0.33070866141732286},{"number":64,"time":257.9010416666778,"value":0.33070866141732286},{"number":64,"time":257.90416666667784,"value":0.2047244094488189},{"number":64,"time":257.9052083333445,"value":0.2047244094488189},{"number":64,"time":257.9083333333445,"value":0.031496062992125984},{"number":64,"time":257.90937500001115,"value":0.031496062992125984},{"number":64,"time":257.91250000001116,"value":0},{"number":64,"time":257.9135416666778,"value":0},{"number":64,"time":258.02812500001113,"value":0.10236220472440945},{"number":64,"time":258.02812500001113,"value":0.10236220472440945},{"number":64,"time":258.0322916666778,"value":0.2047244094488189},{"number":64,"time":258.03333333334444,"value":0.2047244094488189},{"number":64,"time":258.03645833334446,"value":0.33070866141732286},{"number":64,"time":258.0375000000111,"value":0.33070866141732286},{"number":64,"time":258.0447916666778,"value":0.49606299212598426},{"number":64,"time":258.0447916666778,"value":0.49606299212598426},{"number":64,"time":258.0479166666778,"value":0.5275590551181102},{"number":64,"time":258.04895833334444,"value":0.5275590551181102},{"number":64,"time":258.0562500000111,"value":0.5669291338582677},{"number":64,"time":258.05729166667777,"value":0.5669291338582677},{"number":64,"time":258.08020833334444,"value":0.6062992125984252},{"number":64,"time":258.0812500000111,"value":0.6062992125984252},{"number":64,"time":258.09583333334444,"value":0.6377952755905512},{"number":64,"time":258.0968750000111,"value":0.6377952755905512},{"number":64,"time":258.14791666667776,"value":0.7559055118110236},{"number":64,"time":258.1489583333444,"value":0.7559055118110236},{"number":64,"time":258.2083333333444,"value":0.8503937007874016},{"number":64,"time":258.20937500001105,"value":0.8503937007874016},{"number":64,"time":260.45937500001105,"value":0.7086614173228346},{"number":64,"time":260.4604166666777,"value":0.7086614173228346},{"number":64,"time":260.4645833333444,"value":0.6456692913385826},{"number":64,"time":260.4656250000111,"value":0.6456692913385826},{"number":64,"time":260.4687500000111,"value":0.6062992125984252},{"number":64,"time":260.46979166667774,"value":0.6062992125984252},{"number":64,"time":260.47500000001105,"value":0.5748031496062992},{"number":64,"time":260.47812500001106,"value":0.5748031496062992},{"number":64,"time":260.4822916666777,"value":0.5275590551181102},{"number":64,"time":260.4833333333444,"value":0.5275590551181102},{"number":64,"time":260.48541666667774,"value":0.48031496062992124},{"number":64,"time":260.4864583333444,"value":0.48031496062992124},{"number":64,"time":260.48854166667775,"value":0.3779527559055118},{"number":64,"time":260.4906250000111,"value":0.3779527559055118},{"number":64,"time":260.49166666667776,"value":0.2283464566929134},{"number":64,"time":260.49166666667776,"value":0.2283464566929134},{"number":64,"time":260.49479166667777,"value":0.07874015748031496},{"number":64,"time":260.4958333333444,"value":0.07874015748031496},{"number":64,"time":260.4968750000111,"value":0},{"number":64,"time":260.4979166666777,"value":0},{"number":64,"time":260.6354166666777,"value":0.2047244094488189},{"number":64,"time":260.63645833334436,"value":0.2047244094488189},{"number":64,"time":260.6427083333444,"value":0.4015748031496063},{"number":64,"time":260.64375000001104,"value":0.4015748031496063},{"number":64,"time":260.64687500001105,"value":0.48031496062992124},{"number":64,"time":260.6479166666777,"value":0.48031496062992124},{"number":64,"time":260.6510416666777,"value":0.5118110236220472},{"number":64,"time":260.65208333334436,"value":0.5118110236220472},{"number":64,"time":260.65937500001104,"value":0.5511811023622047},{"number":64,"time":260.6604166666777,"value":0.5511811023622047},{"number":64,"time":260.68333333334436,"value":0.5905511811023622},{"number":64,"time":260.684375000011,"value":0.5905511811023622},{"number":64,"time":260.70625000001104,"value":0.6220472440944882},{"number":64,"time":260.7072916666777,"value":0.6220472440944882},{"number":64,"time":260.746875000011,"value":0.7322834645669292},{"number":64,"time":260.74791666667767,"value":0.7322834645669292},{"number":64,"time":260.77916666667767,"value":0.8267716535433071},{"number":64,"time":260.7802083333443,"value":0.8267716535433071},{"number":64,"time":261.45312500001097,"value":0.937007874015748},{"number":64,"time":261.4541666666776,"value":0.937007874015748},{"number":64,"time":262.653125000011,"value":1},{"number":64,"time":262.65416666667767,"value":1},{"number":64,"time":263.43541666667767,"value":0.6535433070866141},{"number":64,"time":263.4364583333443,"value":0.6535433070866141},{"number":64,"time":263.44270833334434,"value":0.6062992125984252},{"number":64,"time":263.443750000011,"value":0.6062992125984252},{"number":64,"time":263.45104166667767,"value":0.5511811023622047},{"number":64,"time":263.4520833333443,"value":0.5511811023622047},{"number":64,"time":263.45520833334433,"value":0.5039370078740157},{"number":64,"time":263.456250000011,"value":0.5039370078740157},{"number":64,"time":263.46354166667766,"value":0.33070866141732286},{"number":64,"time":263.4645833333443,"value":0.33070866141732286},{"number":64,"time":263.471875000011,"value":0.18110236220472442},{"number":64,"time":263.471875000011,"value":0.18110236220472442},{"number":64,"time":263.47395833334434,"value":0.031496062992125984},{"number":64,"time":263.475000000011,"value":0.031496062992125984},{"number":64,"time":263.47708333334435,"value":0},{"number":64,"time":263.478125000011,"value":0},{"number":64,"time":263.618750000011,"value":0.18110236220472442},{"number":64,"time":263.61979166667766,"value":0.18110236220472442},{"number":64,"time":263.62708333334433,"value":0.3779527559055118},{"number":64,"time":263.628125000011,"value":0.3779527559055118},{"number":64,"time":263.631250000011,"value":0.47244094488188976},{"number":64,"time":263.63229166667765,"value":0.47244094488188976},{"number":64,"time":263.634375000011,"value":0.5039370078740157},{"number":64,"time":263.63645833334436,"value":0.5039370078740157},{"number":64,"time":263.6427083333444,"value":0.5433070866141733},{"number":64,"time":263.64375000001104,"value":0.5433070866141733},{"number":64,"time":263.67500000001104,"value":0.5748031496062992},{"number":64,"time":263.6760416666777,"value":0.5748031496062992},{"number":64,"time":263.71458333334436,"value":0.6062992125984252},{"number":64,"time":263.715625000011,"value":0.6062992125984252},{"number":64,"time":263.7354166666777,"value":0.6377952755905512},{"number":64,"time":263.7354166666777,"value":0.6377952755905512},{"number":64,"time":263.79479166667767,"value":0.7322834645669292},{"number":64,"time":263.79479166667767,"value":0.7322834645669292},{"number":64,"time":263.9072916666777,"value":0.8267716535433071},{"number":64,"time":263.90833333334433,"value":0.8267716535433071},{"number":64,"time":264.00000000001097,"value":0},{"number":64,"time":265.8645833333443,"value":0.7086614173228346},{"number":64,"time":265.86562500001094,"value":0.7086614173228346},{"number":64,"time":265.86875000001095,"value":0.6456692913385826},{"number":64,"time":265.8697916666776,"value":0.6456692913385826},{"number":64,"time":265.8770833333443,"value":0.5984251968503937},{"number":64,"time":265.8781250000109,"value":0.5984251968503937},{"number":64,"time":265.88125000001094,"value":0.5669291338582677},{"number":64,"time":265.8822916666776,"value":0.5669291338582677},{"number":64,"time":265.88437500001095,"value":0.5275590551181102},{"number":64,"time":265.8854166666776,"value":0.5275590551181102},{"number":64,"time":265.8895833333443,"value":0.4881889763779528},{"number":64,"time":265.89062500001097,"value":0.4881889763779528},{"number":64,"time":265.89479166667763,"value":0.3779527559055118},{"number":64,"time":265.896875000011,"value":0.3779527559055118},{"number":64,"time":265.900000000011,"value":0.25196850393700787},{"number":64,"time":265.900000000011,"value":0.25196850393700787},{"number":64,"time":265.90208333334436,"value":0.10236220472440945},{"number":64,"time":265.903125000011,"value":0.10236220472440945},{"number":64,"time":265.90833333334433,"value":0},{"number":64,"time":265.90833333334433,"value":0},{"number":64,"time":266.04166666667766,"value":0.12598425196850394},{"number":64,"time":266.0427083333443,"value":0.12598425196850394},{"number":64,"time":266.0458333333443,"value":0.2283464566929134},{"number":64,"time":266.0458333333443,"value":0.2283464566929134},{"number":64,"time":266.04895833334433,"value":0.33070866141732286},{"number":64,"time":266.050000000011,"value":0.33070866141732286},{"number":64,"time":266.05729166667766,"value":0.48031496062992124},{"number":64,"time":266.05729166667766,"value":0.48031496062992124},{"number":64,"time":266.06458333334433,"value":0.5275590551181102},{"number":64,"time":266.065625000011,"value":0.5275590551181102},{"number":64,"time":266.10104166667765,"value":0.5590551181102362},{"number":64,"time":266.1020833333443,"value":0.5590551181102362},{"number":64,"time":266.14479166667763,"value":0.5905511811023622},{"number":64,"time":266.1458333333443,"value":0.5905511811023622},{"number":64,"time":266.1729166666776,"value":0.6220472440944882},{"number":64,"time":266.1739583333443,"value":0.6220472440944882},{"number":64,"time":266.2208333333443,"value":0.6535433070866141},{"number":64,"time":266.2208333333443,"value":0.6535433070866141},{"number":64,"time":267.9843750000109,"value":0.7559055118110236},{"number":64,"time":267.9843750000109,"value":0.7559055118110236},{"number":64,"time":268.0958333333443,"value":0.6535433070866141},{"number":64,"time":268.0968750000109,"value":0.6535433070866141},{"number":64,"time":268.1041666666776,"value":0.6062992125984252},{"number":64,"time":268.10520833334425,"value":0.6062992125984252},{"number":64,"time":268.1114583333443,"value":0.5590551181102362},{"number":64,"time":268.1125000000109,"value":0.5590551181102362},{"number":64,"time":268.11562500001094,"value":0.5196850393700787},{"number":64,"time":268.1166666666776,"value":0.5196850393700787},{"number":64,"time":268.1197916666776,"value":0.47244094488188976},{"number":64,"time":268.1197916666776,"value":0.47244094488188976},{"number":64,"time":268.12395833334426,"value":0.3543307086614173},{"number":64,"time":268.1250000000109,"value":0.3543307086614173},{"number":64,"time":268.1281250000109,"value":0.2283464566929134},{"number":64,"time":268.1291666666776,"value":0.2283464566929134},{"number":64,"time":268.13125000001094,"value":0.07874015748031496},{"number":64,"time":268.1322916666776,"value":0.07874015748031496},{"number":64,"time":268.1354166666776,"value":0},{"number":64,"time":268.13645833334425,"value":0},{"number":64,"time":268.2677083333442,"value":0.18110236220472442},{"number":64,"time":268.2677083333442,"value":0.18110236220472442},{"number":64,"time":268.27604166667754,"value":0.3779527559055118},{"number":64,"time":268.2770833333442,"value":0.3779527559055118},{"number":64,"time":268.2802083333442,"value":0.48031496062992124},{"number":64,"time":268.28125000001086,"value":0.48031496062992124},{"number":64,"time":268.28437500001087,"value":0.5118110236220472},{"number":64,"time":268.28437500001087,"value":0.5118110236220472},{"number":64,"time":268.29166666667754,"value":0.5511811023622047},{"number":64,"time":268.29166666667754,"value":0.5511811023622047},{"number":64,"time":268.3166666666775,"value":0.5826771653543307},{"number":64,"time":268.31770833334417,"value":0.5826771653543307},{"number":64,"time":268.35625000001085,"value":0.6220472440944882},{"number":64,"time":268.35625000001085,"value":0.6220472440944882},{"number":64,"time":268.38750000001085,"value":0.6535433070866141},{"number":64,"time":268.3885416666775,"value":0.6535433070866141},{"number":64,"time":269.6302083333441,"value":0.7559055118110236},{"number":64,"time":269.63125000001077,"value":0.7559055118110236},{"number":64,"time":270.3302083333441,"value":0.6614173228346457},{"number":64,"time":270.33125000001075,"value":0.6614173228346457},{"number":64,"time":270.33854166667743,"value":0.6062992125984252},{"number":64,"time":270.3395833333441,"value":0.6062992125984252},{"number":64,"time":270.34687500001075,"value":0.5511811023622047},{"number":64,"time":270.3479166666774,"value":0.5511811023622047},{"number":64,"time":270.3510416666774,"value":0.5039370078740157},{"number":64,"time":270.35208333334407,"value":0.5039370078740157},{"number":64,"time":270.35833333334404,"value":0.2992125984251969},{"number":64,"time":270.3593750000107,"value":0.2992125984251969},{"number":64,"time":270.36354166667735,"value":0.18110236220472442},{"number":64,"time":270.364583333344,"value":0.18110236220472442},{"number":64,"time":270.3718750000107,"value":0.031496062992125984},{"number":64,"time":270.3729166666773,"value":0.031496062992125984},{"number":64,"time":270.37604166667734,"value":0},{"number":64,"time":270.377083333344,"value":0},{"number":64,"time":270.4947916666773,"value":0.10236220472440945},{"number":64,"time":270.49583333334397,"value":0.10236220472440945},{"number":64,"time":270.498958333344,"value":0.2283464566929134},{"number":64,"time":270.50000000001063,"value":0.2283464566929134},{"number":64,"time":270.50312500001064,"value":0.33070866141732286},{"number":64,"time":270.5041666666773,"value":0.33070866141732286},{"number":64,"time":270.5104166666773,"value":0.49606299212598426},{"number":64,"time":270.51145833334397,"value":0.49606299212598426},{"number":64,"time":270.51875000001064,"value":0.5433070866141733},{"number":64,"time":270.51875000001064,"value":0.5433070866141733},{"number":64,"time":270.53958333334396,"value":0.5748031496062992},{"number":64,"time":270.53958333334396,"value":0.5748031496062992},{"number":64,"time":270.5750000000106,"value":0.6062992125984252},{"number":64,"time":270.57604166667727,"value":0.6062992125984252},{"number":64,"time":270.6031250000106,"value":0.6377952755905512},{"number":64,"time":270.60416666667726,"value":0.6377952755905512},{"number":64,"time":270.63020833334394,"value":0.7322834645669292},{"number":64,"time":270.6312500000106,"value":0.7322834645669292},{"number":64,"time":272.0541666666773,"value":0.8267716535433071},{"number":64,"time":272.05520833334396,"value":0.8267716535433071},{"number":64,"time":272.8218750000106,"value":0.7322834645669292},{"number":64,"time":272.82291666667726,"value":0.7322834645669292},{"number":64,"time":272.8312500000106,"value":0.6299212598425197},{"number":64,"time":272.8312500000106,"value":0.6299212598425197},{"number":64,"time":272.83854166667726,"value":0.5984251968503937},{"number":64,"time":272.83854166667726,"value":0.5984251968503937},{"number":64,"time":272.84166666667727,"value":0.5669291338582677},{"number":64,"time":272.8427083333439,"value":0.5669291338582677},{"number":64,"time":272.8447916666773,"value":0.5196850393700787},{"number":64,"time":272.84583333334393,"value":0.5196850393700787},{"number":64,"time":272.85104166667725,"value":0.33070866141732286},{"number":64,"time":272.8520833333439,"value":0.33070866141732286},{"number":64,"time":272.8572916666772,"value":0.18110236220472442},{"number":64,"time":272.85833333334386,"value":0.18110236220472442},{"number":64,"time":272.8604166666772,"value":0.031496062992125984},{"number":64,"time":272.8614583333439,"value":0.031496062992125984},{"number":64,"time":272.86354166667724,"value":0},{"number":64,"time":272.86354166667724,"value":0},{"number":64,"time":273.01041666667726,"value":0.2047244094488189},{"number":64,"time":273.0114583333439,"value":0.2047244094488189},{"number":64,"time":273.01770833334393,"value":0.4015748031496063},{"number":64,"time":273.0187500000106,"value":0.4015748031496063},{"number":64,"time":273.0218750000106,"value":0.47244094488188976},{"number":64,"time":273.02291666667725,"value":0.47244094488188976},{"number":64,"time":273.0250000000106,"value":0.5039370078740157},{"number":64,"time":273.02604166667726,"value":0.5039370078740157},{"number":64,"time":273.03333333334393,"value":0.5433070866141733},{"number":64,"time":273.0343750000106,"value":0.5433070866141733},{"number":64,"time":273.0812500000106,"value":0.5748031496062992},{"number":64,"time":273.08229166667724,"value":0.5748031496062992},{"number":64,"time":273.1093750000106,"value":0.6062992125984252},{"number":64,"time":273.1104166666772,"value":0.6062992125984252},{"number":64,"time":273.1333333333439,"value":0.6377952755905512},{"number":64,"time":273.13437500001055,"value":0.6377952755905512},{"number":64,"time":273.18125000001055,"value":0.7322834645669292},{"number":64,"time":273.1822916666772,"value":0.7322834645669292},{"number":64,"time":273.26979166667724,"value":0.8267716535433071},{"number":64,"time":273.2708333333439,"value":0.8267716535433071},{"number":64,"time":274.9562500000105,"value":0.937007874015748},{"number":64,"time":274.9572916666772,"value":0.937007874015748},{"number":64,"time":275.02708333334385,"value":0.8031496062992126},{"number":64,"time":275.0281250000105,"value":0.8031496062992126},{"number":64,"time":275.0354166666772,"value":0.6614173228346457},{"number":64,"time":275.0354166666772,"value":0.6614173228346457},{"number":64,"time":275.0406250000105,"value":0.6220472440944882},{"number":64,"time":275.04166666667714,"value":0.6220472440944882},{"number":64,"time":275.04479166667716,"value":0.5905511811023622},{"number":64,"time":275.0458333333438,"value":0.5905511811023622},{"number":64,"time":275.0500000000105,"value":0.5511811023622047},{"number":64,"time":275.0510416666772,"value":0.5511811023622047},{"number":64,"time":275.0572916666772,"value":0.49606299212598426},{"number":64,"time":275.05833333334385,"value":0.49606299212598426},{"number":64,"time":275.0593750000105,"value":0.4015748031496063},{"number":64,"time":275.0625000000105,"value":0.4015748031496063},{"number":64,"time":275.0645833333439,"value":0.2755905511811024},{"number":64,"time":275.0656250000105,"value":0.2755905511811024},{"number":64,"time":275.06875000001054,"value":0.12598425196850394},{"number":64,"time":275.0697916666772,"value":0.12598425196850394},{"number":64,"time":275.07187500001055,"value":0},{"number":64,"time":275.07187500001055,"value":0},{"number":64,"time":275.2041666666772,"value":0.10236220472440945},{"number":64,"time":275.2052083333439,"value":0.10236220472440945},{"number":64,"time":275.2083333333439,"value":0.2047244094488189},{"number":64,"time":275.20937500001054,"value":0.2047244094488189},{"number":64,"time":275.21562500001056,"value":0.4015748031496063},{"number":64,"time":275.2166666666772,"value":0.4015748031496063},{"number":64,"time":275.2208333333439,"value":0.48031496062992124},{"number":64,"time":275.2218750000105,"value":0.48031496062992124},{"number":64,"time":275.2239583333439,"value":0.5118110236220472},{"number":64,"time":275.22500000001054,"value":0.5118110236220472},{"number":64,"time":275.23125000001056,"value":0.5433070866141733},{"number":64,"time":275.2322916666772,"value":0.5433070866141733},{"number":64,"time":275.2604166666772,"value":0.5748031496062992},{"number":64,"time":275.26145833334385,"value":0.5748031496062992},{"number":64,"time":275.29270833334385,"value":0.6062992125984252},{"number":64,"time":275.2937500000105,"value":0.6062992125984252},{"number":64,"time":275.3166666666772,"value":0.6456692913385826},{"number":64,"time":275.31770833334383,"value":0.6456692913385826},{"number":64,"time":275.34375000001046,"value":0.7559055118110236},{"number":64,"time":275.3447916666771,"value":0.7559055118110236},{"number":64,"time":275.46041666667713,"value":0.8503937007874016},{"number":64,"time":275.4614583333438,"value":0.8503937007874016},{"number":64,"time":277.0947916666771,"value":0.7559055118110236},{"number":64,"time":277.09583333334376,"value":0.7559055118110236},{"number":64,"time":277.0979166666771,"value":0.6614173228346457},{"number":64,"time":277.0989583333438,"value":0.6614173228346457},{"number":64,"time":277.10312500001044,"value":0.6299212598425197},{"number":64,"time":277.1041666666771,"value":0.6299212598425197},{"number":64,"time":277.10625000001045,"value":0.5984251968503937},{"number":64,"time":277.1072916666771,"value":0.5984251968503937},{"number":64,"time":277.1104166666771,"value":0.5590551181102362},{"number":64,"time":277.11145833334376,"value":0.5590551181102362},{"number":64,"time":277.1145833333438,"value":0.5196850393700787},{"number":64,"time":277.1156250000104,"value":0.5196850393700787},{"number":64,"time":277.11875000001044,"value":0.47244094488188976},{"number":64,"time":277.1197916666771,"value":0.47244094488188976},{"number":64,"time":277.1250000000104,"value":0.33070866141732286},{"number":64,"time":277.12708333334376,"value":0.33070866141732286},{"number":64,"time":277.1333333333438,"value":0.2047244094488189},{"number":64,"time":277.1333333333438,"value":0.2047244094488189},{"number":64,"time":277.1364583333438,"value":0.05511811023622047},{"number":64,"time":277.13750000001045,"value":0.05511811023622047},{"number":64,"time":277.1385416666771,"value":0},{"number":64,"time":277.13958333334375,"value":0},{"number":64,"time":277.2583333333437,"value":0.10236220472440945},{"number":64,"time":277.2593750000104,"value":0.10236220472440945},{"number":64,"time":277.2625000000104,"value":0.2283464566929134},{"number":64,"time":277.2625000000104,"value":0.2283464566929134},{"number":64,"time":277.26666666667705,"value":0.33070866141732286},{"number":64,"time":277.2677083333437,"value":0.33070866141732286},{"number":64,"time":277.2708333333437,"value":0.44881889763779526},{"number":64,"time":277.27187500001037,"value":0.44881889763779526},{"number":64,"time":277.2750000000104,"value":0.5039370078740157},{"number":64,"time":277.2750000000104,"value":0.5039370078740157},{"number":64,"time":277.28229166667705,"value":0.5511811023622047},{"number":64,"time":277.28229166667705,"value":0.5511811023622047},{"number":64,"time":277.30312500001037,"value":0.5826771653543307},{"number":64,"time":277.304166666677,"value":0.5826771653543307},{"number":64,"time":277.3302083333437,"value":0.6141732283464567},{"number":64,"time":277.33125000001036,"value":0.6141732283464567},{"number":64,"time":277.36250000001036,"value":0.6535433070866141},{"number":64,"time":277.363541666677,"value":0.6535433070866141},{"number":64,"time":277.410416666677,"value":0.7559055118110236},{"number":64,"time":277.41145833334366,"value":0.7559055118110236},{"number":64,"time":278.5093750000103,"value":0.8503937007874016},{"number":64,"time":278.510416666677,"value":0.8503937007874016},{"number":64,"time":279.32500000001033,"value":0.7559055118110236},{"number":64,"time":279.326041666677,"value":0.7559055118110236},{"number":64,"time":279.3312500000103,"value":0.6614173228346457},{"number":64,"time":279.33229166667695,"value":0.6614173228346457},{"number":64,"time":279.3364583333436,"value":0.6299212598425197},{"number":64,"time":279.33750000001027,"value":0.6299212598425197},{"number":64,"time":279.3406250000103,"value":0.5905511811023622},{"number":64,"time":279.34166666667693,"value":0.5905511811023622},{"number":64,"time":279.34479166667694,"value":0.5196850393700787},{"number":64,"time":279.3458333333436,"value":0.5196850393700787},{"number":64,"time":279.35312500001027,"value":0.33070866141732286},{"number":64,"time":279.3541666666769,"value":0.33070866141732286},{"number":64,"time":279.35729166667693,"value":0.18110236220472442},{"number":64,"time":279.3583333333436,"value":0.18110236220472442},{"number":64,"time":279.3614583333436,"value":0.031496062992125984},{"number":64,"time":279.36250000001024,"value":0.031496062992125984},{"number":64,"time":279.36562500001025,"value":0},{"number":64,"time":279.3666666666769,"value":0},{"number":64,"time":279.50937500001027,"value":0.2283464566929134},{"number":64,"time":279.5104166666769,"value":0.2283464566929134},{"number":64,"time":279.51354166667693,"value":0.33070866141732286},{"number":64,"time":279.5145833333436,"value":0.33070866141732286},{"number":64,"time":279.5177083333436,"value":0.44881889763779526},{"number":64,"time":279.51875000001024,"value":0.44881889763779526},{"number":64,"time":279.5208333333436,"value":0.5039370078740157},{"number":64,"time":279.52291666667696,"value":0.5039370078740157},{"number":64,"time":279.5250000000103,"value":0.5354330708661418},{"number":64,"time":279.526041666677,"value":0.5354330708661418},{"number":64,"time":279.53333333334365,"value":0.5669291338582677},{"number":64,"time":279.5343750000103,"value":0.5669291338582677},{"number":64,"time":279.557291666677,"value":0.5984251968503937},{"number":64,"time":279.557291666677,"value":0.5984251968503937},{"number":64,"time":279.5937500000103,"value":0.6299212598425197},{"number":64,"time":279.5937500000103,"value":0.6299212598425197},{"number":64,"time":279.6208333333436,"value":0.7322834645669292},{"number":64,"time":279.6218750000103,"value":0.7322834645669292},{"number":64,"time":279.6489583333436,"value":0.8267716535433071},{"number":64,"time":279.65000000001027,"value":0.8267716535433071},{"number":64,"time":281.6281250000103,"value":0.937007874015748},{"number":64,"time":281.62916666667695,"value":0.937007874015748},{"number":64,"time":281.6927083333436,"value":0.8031496062992126},{"number":64,"time":281.6927083333436,"value":0.8031496062992126},{"number":64,"time":281.7000000000103,"value":0.6614173228346457},{"number":64,"time":281.70104166667693,"value":0.6614173228346457},{"number":64,"time":281.7062500000103,"value":0.6299212598425197},{"number":64,"time":281.7062500000103,"value":0.6299212598425197},{"number":64,"time":281.713541666677,"value":0.5905511811023622},{"number":64,"time":281.7145833333436,"value":0.5905511811023622},{"number":64,"time":281.7187500000103,"value":0.5590551181102362},{"number":64,"time":281.71979166667694,"value":0.5590551181102362},{"number":64,"time":281.72291666667695,"value":0.5118110236220472},{"number":64,"time":281.7239583333436,"value":0.5118110236220472},{"number":64,"time":281.72604166667696,"value":0.4251968503937008},{"number":64,"time":281.72604166667696,"value":0.4251968503937008},{"number":64,"time":281.7302083333436,"value":0.33070866141732286},{"number":64,"time":281.7312500000103,"value":0.33070866141732286},{"number":64,"time":281.73229166667693,"value":0.18110236220472442},{"number":64,"time":281.7333333333436,"value":0.18110236220472442},{"number":64,"time":281.73541666667694,"value":0.031496062992125984},{"number":64,"time":281.7364583333436,"value":0.031496062992125984},{"number":64,"time":281.73854166667695,"value":0},{"number":64,"time":281.7395833333436,"value":0},{"number":64,"time":281.8562500000103,"value":0.12598425196850394},{"number":64,"time":281.8562500000103,"value":0.12598425196850394},{"number":64,"time":281.86041666667694,"value":0.25196850393700787},{"number":64,"time":281.8614583333436,"value":0.25196850393700787},{"number":64,"time":281.8645833333436,"value":0.3543307086614173},{"number":64,"time":281.86562500001025,"value":0.3543307086614173},{"number":64,"time":281.8718750000103,"value":0.5039370078740157},{"number":64,"time":281.87291666667693,"value":0.5039370078740157},{"number":64,"time":281.87604166667694,"value":0.5354330708661418},{"number":64,"time":281.8770833333436,"value":0.5354330708661418},{"number":64,"time":281.88437500001027,"value":0.5669291338582677},{"number":64,"time":281.8854166666769,"value":0.5669291338582677},{"number":64,"time":281.9083333333436,"value":0.5984251968503937},{"number":64,"time":281.90937500001024,"value":0.5984251968503937},{"number":64,"time":281.9479166666769,"value":0.6299212598425197},{"number":64,"time":281.94895833334357,"value":0.6299212598425197},{"number":64,"time":281.99583333334357,"value":0.7322834645669292},{"number":64,"time":281.9968750000102,"value":0.7322834645669292},{"number":64,"time":282.20833333334355,"value":0.8267716535433071},{"number":64,"time":282.2093750000102,"value":0.8267716535433071},{"number":64,"time":283.66354166667685,"value":0.6614173228346457},{"number":64,"time":283.66354166667685,"value":0.6614173228346457},{"number":64,"time":283.6677083333435,"value":0.6299212598425197},{"number":64,"time":283.66875000001016,"value":0.6299212598425197},{"number":64,"time":283.6708333333435,"value":0.5984251968503937},{"number":64,"time":283.6718750000102,"value":0.5984251968503937},{"number":64,"time":283.6750000000102,"value":0.5669291338582677},{"number":64,"time":283.6750000000102,"value":0.5669291338582677},{"number":64,"time":283.67916666667685,"value":0.5196850393700787},{"number":64,"time":283.6802083333435,"value":0.5196850393700787},{"number":64,"time":283.6833333333435,"value":0.47244094488188976},{"number":64,"time":283.68437500001016,"value":0.47244094488188976},{"number":64,"time":283.6895833333435,"value":0.3543307086614173},{"number":64,"time":283.69062500001013,"value":0.3543307086614173},{"number":64,"time":283.6927083333435,"value":0.2283464566929134},{"number":64,"time":283.69375000001014,"value":0.2283464566929134},{"number":64,"time":283.6979166666768,"value":0.07874015748031496},{"number":64,"time":283.69895833334346,"value":0.07874015748031496},{"number":64,"time":283.70208333334347,"value":0},{"number":64,"time":283.7031250000101,"value":0},{"number":64,"time":283.81562500001013,"value":0.18110236220472442},{"number":64,"time":283.8166666666768,"value":0.18110236220472442},{"number":64,"time":283.8229166666768,"value":0.4015748031496063},{"number":64,"time":283.82395833334346,"value":0.4015748031496063},{"number":64,"time":283.82708333334347,"value":0.4881889763779528},{"number":64,"time":283.82708333334347,"value":0.4881889763779528},{"number":64,"time":283.83125000001013,"value":0.5196850393700787},{"number":64,"time":283.8322916666768,"value":0.5196850393700787},{"number":64,"time":283.8354166666768,"value":0.5511811023622047},{"number":64,"time":283.83645833334344,"value":0.5511811023622047},{"number":64,"time":283.85520833334346,"value":0.5826771653543307},{"number":64,"time":283.8562500000101,"value":0.5826771653543307},{"number":64,"time":283.8875000000101,"value":0.6220472440944882},{"number":64,"time":283.88854166667676,"value":0.6220472440944882},{"number":64,"time":283.9229166666767,"value":0.6535433070866141},{"number":64,"time":283.92395833334336,"value":0.6535433070866141},{"number":64,"time":283.99062500001,"value":0.7559055118110236},{"number":64,"time":283.9916666666767,"value":0.7559055118110236},{"number":64,"time":284.41562500001004,"value":0.8503937007874016},{"number":64,"time":284.41562500001004,"value":0.8503937007874016},{"number":64,"time":285.5135416666767,"value":0.7559055118110236},{"number":64,"time":285.5135416666767,"value":0.7559055118110236},{"number":64,"time":285.51770833334336,"value":0.6614173228346457},{"number":64,"time":285.51875000001,"value":0.6614173228346457},{"number":64,"time":285.5229166666767,"value":0.6299212598425197},{"number":64,"time":285.52395833334333,"value":0.6299212598425197},{"number":64,"time":285.5260416666767,"value":0.5905511811023622},{"number":64,"time":285.52708333334334,"value":0.5905511811023622},{"number":64,"time":285.53437500001,"value":0.5196850393700787},{"number":64,"time":285.53541666667667,"value":0.5196850393700787},{"number":64,"time":285.5385416666767,"value":0.47244094488188976},{"number":64,"time":285.5385416666767,"value":0.47244094488188976},{"number":64,"time":285.5416666666767,"value":0.3543307086614173},{"number":64,"time":285.54270833334334,"value":0.3543307086614173},{"number":64,"time":285.5479166666767,"value":0.2283464566929134},{"number":64,"time":285.54895833334336,"value":0.2283464566929134},{"number":64,"time":285.55625000001004,"value":0.07874015748031496},{"number":64,"time":285.5572916666767,"value":0.07874015748031496},{"number":64,"time":285.5604166666767,"value":0},{"number":64,"time":285.5604166666767,"value":0},{"number":64,"time":285.66250000001,"value":0.14960629921259844},{"number":64,"time":285.66250000001,"value":0.14960629921259844},{"number":64,"time":285.66562500001004,"value":0.25196850393700787},{"number":64,"time":285.6666666666767,"value":0.25196850393700787},{"number":64,"time":285.6697916666767,"value":0.3779527559055118},{"number":64,"time":285.67083333334335,"value":0.3779527559055118},{"number":64,"time":285.6729166666767,"value":0.48031496062992124},{"number":64,"time":285.6729166666767,"value":0.48031496062992124},{"number":64,"time":285.67812500001,"value":0.5196850393700787},{"number":64,"time":285.6791666666767,"value":0.5196850393700787},{"number":64,"time":285.6822916666767,"value":0.5511811023622047},{"number":64,"time":285.68333333334334,"value":0.5511811023622047},{"number":64,"time":285.69375000001,"value":0.5826771653543307},{"number":64,"time":285.6947916666767,"value":0.5826771653543307},{"number":64,"time":285.71458333334334,"value":0.6141732283464567},{"number":64,"time":285.71458333334334,"value":0.6141732283464567},{"number":64,"time":285.73750000001,"value":0.6456692913385826},{"number":64,"time":285.73750000001,"value":0.6456692913385826},{"number":64,"time":285.7854166666767,"value":0.7559055118110236},{"number":64,"time":285.7864583333434,"value":0.7559055118110236},{"number":64,"time":286.1145833333434,"value":0.8503937007874016},{"number":64,"time":286.1145833333434,"value":0.8503937007874016},{"number":64,"time":287.4677083333434,"value":1},{"number":64,"time":287.46875000001006,"value":1},{"number":64,"time":287.5958333333434,"value":0.8661417322834646},{"number":64,"time":287.5958333333434,"value":0.8661417322834646},{"number":64,"time":287.6083333333434,"value":0.7322834645669292},{"number":64,"time":287.60937500001006,"value":0.7322834645669292},{"number":64,"time":287.6125000000101,"value":0.6535433070866141},{"number":64,"time":287.6135416666767,"value":0.6535433070866141},{"number":64,"time":287.61979166667675,"value":0.6141732283464567},{"number":64,"time":287.6208333333434,"value":0.6141732283464567},{"number":64,"time":287.62187500001005,"value":0.5748031496062992},{"number":64,"time":287.6229166666767,"value":0.5748031496062992},{"number":64,"time":287.6302083333434,"value":0.5354330708661418},{"number":64,"time":287.63125000001,"value":0.5354330708661418},{"number":64,"time":287.6354166666767,"value":0.48031496062992124},{"number":64,"time":287.63645833334334,"value":0.48031496062992124},{"number":64,"time":287.63958333334335,"value":0.3779527559055118},{"number":64,"time":287.64062500001,"value":0.3779527559055118},{"number":64,"time":287.64166666667666,"value":0.2283464566929134},{"number":64,"time":287.6427083333433,"value":0.2283464566929134},{"number":64,"time":287.64479166667667,"value":0.07874015748031496},{"number":64,"time":287.6458333333433,"value":0.07874015748031496},{"number":64,"time":287.64687500000997,"value":0},{"number":64,"time":287.6479166666766,"value":0},{"number":64,"time":287.77604166667663,"value":0.14960629921259844},{"number":64,"time":287.7770833333433,"value":0.14960629921259844},{"number":64,"time":287.7802083333433,"value":0.2755905511811024},{"number":64,"time":287.78125000000995,"value":0.2755905511811024},{"number":64,"time":287.78437500000996,"value":0.3779527559055118},{"number":64,"time":287.7854166666766,"value":0.3779527559055118},{"number":64,"time":287.78750000000997,"value":0.48031496062992124},{"number":64,"time":287.7885416666766,"value":0.48031496062992124},{"number":64,"time":287.79166666667663,"value":0.5196850393700787},{"number":64,"time":287.7927083333433,"value":0.5196850393700787},{"number":64,"time":287.80000000000996,"value":0.5511811023622047},{"number":64,"time":287.8010416666766,"value":0.5511811023622047},{"number":64,"time":287.8208333333433,"value":0.5826771653543307},{"number":64,"time":287.8218750000099,"value":0.5826771653543307},{"number":64,"time":287.85625000000994,"value":0.6220472440944882},{"number":64,"time":287.8572916666766,"value":0.6220472440944882},{"number":64,"time":287.8864583333432,"value":0.6535433070866141},{"number":64,"time":287.8864583333432,"value":0.6535433070866141},{"number":64,"time":287.9635416666765,"value":0.7559055118110236},{"number":64,"time":287.96458333334317,"value":0.7559055118110236},{"number":64,"time":288.1000000000098,"value":0.8503937007874016},{"number":64,"time":288.10104166667645,"value":0.8503937007874016},{"number":64,"time":289.7125000000098,"value":1},{"number":64,"time":289.7125000000098,"value":1},{"number":64,"time":290.09895833334315,"value":0.8503937007874016},{"number":64,"time":290.1000000000098,"value":0.8503937007874016},{"number":64,"time":290.11145833334314,"value":0.6850393700787402},{"number":64,"time":290.1125000000098,"value":0.6850393700787402},{"number":64,"time":290.1187500000098,"value":0.6377952755905512},{"number":64,"time":290.11979166667646,"value":0.6377952755905512},{"number":64,"time":290.1208333333431,"value":0.6062992125984252},{"number":64,"time":290.12187500000977,"value":0.6062992125984252},{"number":64,"time":290.1239583333431,"value":0.5748031496062992},{"number":64,"time":290.1250000000098,"value":0.5748031496062992},{"number":64,"time":290.1281250000098,"value":0.5354330708661418},{"number":64,"time":290.12916666667644,"value":0.5354330708661418},{"number":64,"time":290.1312500000098,"value":0.4881889763779528},{"number":64,"time":290.13229166667645,"value":0.4881889763779528},{"number":64,"time":290.13541666667646,"value":0.4015748031496063},{"number":64,"time":290.13541666667646,"value":0.4015748031496063},{"number":64,"time":290.1385416666765,"value":0.2755905511811024},{"number":64,"time":290.1395833333431,"value":0.2755905511811024},{"number":64,"time":290.1437500000098,"value":0.18110236220472442},{"number":64,"time":290.14479166667644,"value":0.18110236220472442},{"number":64,"time":290.14791666667645,"value":0.07874015748031496},{"number":64,"time":290.1489583333431,"value":0.07874015748031496},{"number":64,"time":290.15104166667646,"value":0},{"number":64,"time":290.1520833333431,"value":0},{"number":64,"time":317.43333333334294,"value":0.10236220472440945},{"number":64,"time":317.4343750000096,"value":0.10236220472440945},{"number":64,"time":317.44583333334293,"value":0.2047244094488189},{"number":64,"time":317.4468750000096,"value":0.2047244094488189},{"number":64,"time":317.4656250000096,"value":0.33070866141732286},{"number":64,"time":317.46666666667625,"value":0.33070866141732286},{"number":64,"time":317.4968750000096,"value":0.44881889763779526},{"number":64,"time":317.49791666667625,"value":0.44881889763779526},{"number":64,"time":317.5218750000096,"value":0.4881889763779528},{"number":64,"time":317.5218750000096,"value":0.4881889763779528},{"number":64,"time":317.54166666667624,"value":0.5196850393700787},{"number":64,"time":317.5427083333429,"value":0.5196850393700787},{"number":64,"time":317.5697916666762,"value":0.5590551181102362},{"number":64,"time":317.5708333333429,"value":0.5590551181102362},{"number":64,"time":317.6020833333429,"value":0.5905511811023622},{"number":64,"time":317.6031250000095,"value":0.5905511811023622},{"number":64,"time":317.6333333333429,"value":0.6220472440944882},{"number":64,"time":317.6333333333429,"value":0.6220472440944882},{"number":64,"time":317.6989583333429,"value":0.6535433070866141},{"number":64,"time":317.6989583333429,"value":0.6535433070866141},{"number":64,"time":318.8291666666762,"value":0.6220472440944882},{"number":64,"time":318.83020833334285,"value":0.6220472440944882},{"number":64,"time":318.8572916666762,"value":0.5905511811023622},{"number":64,"time":318.85833333334284,"value":0.5905511811023622},{"number":64,"time":320.2687500000095,"value":0.5590551181102362},{"number":64,"time":320.2687500000095,"value":0.5590551181102362},{"number":64,"time":320.28854166667617,"value":0.5275590551181102},{"number":64,"time":320.2895833333428,"value":0.5275590551181102},{"number":64,"time":320.30416666667617,"value":0.49606299212598426},{"number":64,"time":320.3052083333428,"value":0.49606299212598426},{"number":64,"time":320.5125000000095,"value":0.5275590551181102},{"number":64,"time":320.51354166667613,"value":0.5275590551181102},{"number":64,"time":321.10000000000946,"value":0.5590551181102362},{"number":64,"time":321.1010416666761,"value":0.5590551181102362},{"number":64,"time":321.7760416666761,"value":0.5275590551181102},{"number":64,"time":321.7770833333428,"value":0.5275590551181102},{"number":64,"time":321.7885416666761,"value":0.4881889763779528},{"number":64,"time":321.78958333334276,"value":0.4881889763779528},{"number":64,"time":321.8041666666761,"value":0.3779527559055118},{"number":64,"time":321.8041666666761,"value":0.3779527559055118},{"number":64,"time":321.8166666666761,"value":0.2755905511811024},{"number":64,"time":321.81770833334275,"value":0.2755905511811024},{"number":64,"time":321.8322916666761,"value":0.18110236220472442},{"number":64,"time":321.8322916666761,"value":0.18110236220472442},{"number":64,"time":321.8479166666761,"value":0.07874015748031496},{"number":64,"time":321.84895833334275,"value":0.07874015748031496},{"number":64,"time":321.9187500000094,"value":0.18110236220472442},{"number":64,"time":321.9197916666761,"value":0.18110236220472442},{"number":64,"time":321.9364583333427,"value":0.33070866141732286},{"number":64,"time":321.9375000000094,"value":0.33070866141732286},{"number":64,"time":321.9520833333427,"value":0.44881889763779526},{"number":64,"time":321.9520833333427,"value":0.44881889763779526},{"number":64,"time":321.9677083333427,"value":0.48031496062992124},{"number":64,"time":321.9687500000094,"value":0.48031496062992124},{"number":64,"time":322.0114583333427,"value":0.5118110236220472},{"number":64,"time":322.01250000000937,"value":0.5118110236220472},{"number":64,"time":322.0520833333427,"value":0.5433070866141733},{"number":64,"time":322.0520833333427,"value":0.5433070866141733},{"number":64,"time":322.14375000000933,"value":0.5748031496062992},{"number":64,"time":322.144791666676,"value":0.5748031496062992},{"number":64,"time":323.2156250000093,"value":0.5354330708661418},{"number":64,"time":323.2156250000093,"value":0.5354330708661418},{"number":64,"time":323.2312500000093,"value":0.5039370078740157},{"number":64,"time":323.23229166667596,"value":0.5039370078740157},{"number":64,"time":323.2468750000093,"value":0.47244094488188976},{"number":64,"time":323.24791666667596,"value":0.47244094488188976},{"number":64,"time":323.33541666667594,"value":0.5039370078740157},{"number":64,"time":323.3364583333426,"value":0.5039370078740157},{"number":64,"time":323.3833333333426,"value":0.5354330708661418},{"number":64,"time":323.38437500000924,"value":0.5354330708661418},{"number":64,"time":323.5072916666759,"value":0.5669291338582677},{"number":64,"time":323.50833333334253,"value":0.5669291338582677},{"number":64,"time":324.6500000000092,"value":0.5354330708661418},{"number":64,"time":324.65104166667584,"value":0.5354330708661418},{"number":64,"time":324.66666666667584,"value":0.49606299212598426},{"number":64,"time":324.66666666667584,"value":0.49606299212598426},{"number":64,"time":324.6770833333425,"value":0.4015748031496063},{"number":64,"time":324.6781250000092,"value":0.4015748031496063},{"number":64,"time":324.69062500000916,"value":0.2992125984251969},{"number":64,"time":324.69062500000916,"value":0.2992125984251969},{"number":64,"time":324.69791666667584,"value":0.2047244094488189},{"number":64,"time":324.6989583333425,"value":0.2047244094488189},{"number":64,"time":324.7093750000092,"value":0.10236220472440945},{"number":64,"time":324.7104166666758,"value":0.10236220472440945},{"number":64,"time":324.72187500000916,"value":0},{"number":64,"time":324.7229166666758,"value":0},{"number":64,"time":324.82604166667585,"value":0.12598425196850394},{"number":64,"time":324.82604166667585,"value":0.12598425196850394},{"number":64,"time":324.8343750000092,"value":0.2283464566929134},{"number":64,"time":324.8354166666758,"value":0.2283464566929134},{"number":64,"time":324.8458333333425,"value":0.33070866141732286},{"number":64,"time":324.84687500000916,"value":0.33070866141732286},{"number":64,"time":324.8656250000092,"value":0.44881889763779526},{"number":64,"time":324.8666666666758,"value":0.44881889763779526},{"number":64,"time":324.8822916666758,"value":0.48031496062992124},{"number":64,"time":324.8833333333425,"value":0.48031496062992124},{"number":64,"time":324.9416666666758,"value":0.5118110236220472},{"number":64,"time":324.9416666666758,"value":0.5118110236220472},{"number":64,"time":325.0739583333425,"value":0.5433070866141733},{"number":64,"time":325.07500000000914,"value":0.5433070866141733},{"number":64,"time":327.7197916666758,"value":0.5118110236220472},{"number":64,"time":327.72083333334245,"value":0.5118110236220472},{"number":64,"time":327.72812500000913,"value":0.48031496062992124},{"number":64,"time":327.7291666666758,"value":0.48031496062992124},{"number":64,"time":327.74375000000913,"value":0.3779527559055118},{"number":64,"time":327.7447916666758,"value":0.3779527559055118},{"number":64,"time":327.76458333334244,"value":0.2755905511811024},{"number":64,"time":327.76458333334244,"value":0.2755905511811024},{"number":64,"time":327.8520833333425,"value":0.3779527559055118},{"number":64,"time":327.85312500000913,"value":0.3779527559055118},{"number":64,"time":327.88750000000914,"value":0.47244094488188976},{"number":64,"time":327.8885416666758,"value":0.47244094488188976},{"number":64,"time":327.9322916666758,"value":0.5039370078740157},{"number":64,"time":327.93333333334243,"value":0.5039370078740157},{"number":64,"time":327.99583333334243,"value":0.5354330708661418},{"number":64,"time":327.9968750000091,"value":0.5354330708661418},{"number":64,"time":330.0625000000091,"value":0.5669291338582677},{"number":64,"time":330.06354166667575,"value":0.5669291338582677},{"number":64,"time":330.5750000000091,"value":0.5354330708661418},{"number":64,"time":330.57604166667574,"value":0.5354330708661418},{"number":64,"time":330.5906250000091,"value":0.49606299212598426},{"number":64,"time":330.59166666667574,"value":0.49606299212598426},{"number":64,"time":330.6114583333424,"value":0.4015748031496063},{"number":64,"time":330.6114583333424,"value":0.4015748031496063},{"number":64,"time":330.6864583333424,"value":0.47244094488188976},{"number":64,"time":330.68750000000904,"value":0.47244094488188976},{"number":64,"time":330.70312500000904,"value":0.5039370078740157},{"number":64,"time":330.7041666666757,"value":0.5039370078740157},{"number":64,"time":330.731250000009,"value":0.5354330708661418},{"number":64,"time":330.7322916666757,"value":0.5354330708661418},{"number":64,"time":330.818750000009,"value":0.5669291338582677},{"number":64,"time":330.818750000009,"value":0.5669291338582677},{"number":64,"time":333.5166666666757,"value":0.5354330708661418},{"number":64,"time":333.51770833334234,"value":0.5354330708661418},{"number":64,"time":333.53020833334233,"value":0.49606299212598426},{"number":64,"time":333.53020833334233,"value":0.49606299212598426},{"number":64,"time":333.540625000009,"value":0.4015748031496063},{"number":64,"time":333.54166666667567,"value":0.4015748031496063},{"number":64,"time":333.556250000009,"value":0.2992125984251969},{"number":64,"time":333.55729166667567,"value":0.2992125984251969},{"number":64,"time":333.6541666666757,"value":0.4015748031496063},{"number":64,"time":333.65520833334233,"value":0.4015748031496063},{"number":64,"time":333.665625000009,"value":0.47244094488188976},{"number":64,"time":333.66666666667567,"value":0.47244094488188976},{"number":64,"time":333.68958333334234,"value":0.5039370078740157},{"number":64,"time":333.690625000009,"value":0.5039370078740157},{"number":64,"time":333.74479166667567,"value":0.5354330708661418},{"number":64,"time":333.7458333333423,"value":0.5354330708661418},{"number":64,"time":333.86875000000896,"value":0.5669291338582677},{"number":64,"time":333.8697916666756,"value":0.5669291338582677},{"number":64,"time":336.4666666666756,"value":0.5354330708661418},{"number":64,"time":336.4677083333423,"value":0.5354330708661418},{"number":64,"time":336.48229166667556,"value":0.5039370078740157},{"number":64,"time":336.4833333333422,"value":0.5039370078740157},{"number":64,"time":336.5031250000089,"value":0.4015748031496063},{"number":64,"time":336.50416666667553,"value":0.4015748031496063},{"number":64,"time":336.5187500000089,"value":0.2992125984251969},{"number":64,"time":336.51979166667553,"value":0.2992125984251969},{"number":64,"time":336.5427083333422,"value":0.2047244094488189},{"number":64,"time":336.54375000000886,"value":0.2047244094488189},{"number":64,"time":336.62708333334217,"value":0.33070866141732286},{"number":64,"time":336.62708333334217,"value":0.33070866141732286},{"number":64,"time":336.6510416666755,"value":0.44881889763779526},{"number":64,"time":336.65208333334215,"value":0.44881889763779526},{"number":64,"time":336.6791666666755,"value":0.48031496062992124},{"number":64,"time":336.68020833334214,"value":0.48031496062992124},{"number":64,"time":336.72708333334214,"value":0.5118110236220472},{"number":64,"time":336.7281250000088,"value":0.5118110236220472},{"number":64,"time":336.86250000000877,"value":0.5433070866141733},{"number":64,"time":336.86250000000877,"value":0.5433070866141733},{"number":64,"time":339.4135416666754,"value":0.5118110236220472},{"number":64,"time":339.4135416666754,"value":0.5118110236220472},{"number":64,"time":339.42187500000875,"value":0.48031496062992124},{"number":64,"time":339.4229166666754,"value":0.48031496062992124},{"number":64,"time":339.4333333333421,"value":0.3779527559055118},{"number":64,"time":339.4333333333421,"value":0.3779527559055118},{"number":64,"time":339.4458333333421,"value":0.2755905511811024},{"number":64,"time":339.44687500000873,"value":0.2755905511811024},{"number":64,"time":339.45312500000875,"value":0.18110236220472442},{"number":64,"time":339.4541666666754,"value":0.18110236220472442},{"number":64,"time":339.46562500000874,"value":0.05511811023622047},{"number":64,"time":339.4666666666754,"value":0.05511811023622047},{"number":64,"time":339.47395833334207,"value":0},{"number":64,"time":339.47395833334207,"value":0},{"number":64,"time":339.6135416666754,"value":0.12598425196850394},{"number":64,"time":339.6135416666754,"value":0.12598425196850394},{"number":64,"time":339.62187500000874,"value":0.2283464566929134},{"number":64,"time":339.62187500000874,"value":0.2283464566929134},{"number":64,"time":339.63750000000874,"value":0.33070866141732286},{"number":64,"time":339.6385416666754,"value":0.33070866141732286},{"number":64,"time":339.66145833334207,"value":0.44881889763779526},{"number":64,"time":339.6625000000087,"value":0.44881889763779526},{"number":64,"time":339.67708333334207,"value":0.48031496062992124},{"number":64,"time":339.6781250000087,"value":0.48031496062992124},{"number":64,"time":339.72604166667537,"value":0.5118110236220472},{"number":64,"time":339.727083333342,"value":0.5118110236220472},{"number":64,"time":339.86562500000866,"value":0.5433070866141733},{"number":64,"time":339.8666666666753,"value":0.5433070866141733},{"number":64,"time":342.4166666666753,"value":0.5118110236220472},{"number":64,"time":342.417708333342,"value":0.5118110236220472},{"number":64,"time":342.42812500000866,"value":0.48031496062992124},{"number":64,"time":342.4291666666753,"value":0.48031496062992124},{"number":64,"time":342.4479166666753,"value":0.3779527559055118},{"number":64,"time":342.448958333342,"value":0.3779527559055118},{"number":64,"time":342.464583333342,"value":0.2755905511811024},{"number":64,"time":342.46562500000863,"value":0.2755905511811024},{"number":64,"time":342.480208333342,"value":0.14960629921259844},{"number":64,"time":342.48125000000863,"value":0.14960629921259844},{"number":64,"time":342.48750000000865,"value":0.05511811023622047},{"number":64,"time":342.4885416666753,"value":0.05511811023622047},{"number":64,"time":342.49687500000863,"value":0},{"number":64,"time":342.4979166666753,"value":0},{"number":64,"time":354.2291666666752,"value":0.10236220472440945},{"number":64,"time":354.23020833334186,"value":0.10236220472440945},{"number":64,"time":354.2447916666752,"value":0.2047244094488189},{"number":64,"time":354.24583333334186,"value":0.2047244094488189},{"number":64,"time":354.3614583333419,"value":0.3543307086614173},{"number":64,"time":354.3614583333419,"value":0.3543307086614173},{"number":64,"time":354.4687500000085,"value":0.47244094488188976},{"number":64,"time":354.4697916666752,"value":0.47244094488188976},{"number":64,"time":354.52604166667516,"value":0.5039370078740157},{"number":64,"time":354.5270833333418,"value":0.5039370078740157},{"number":64,"time":354.60104166667514,"value":0.5354330708661418},{"number":64,"time":354.6020833333418,"value":0.5354330708661418},{"number":64,"time":355.28854166667514,"value":0.5039370078740157},{"number":64,"time":355.2895833333418,"value":0.5039370078740157},{"number":64,"time":355.3333333333418,"value":0.47244094488188976},{"number":64,"time":355.3333333333418,"value":0.47244094488188976},{"number":64,"time":355.3885416666751,"value":0.3779527559055118},{"number":64,"time":355.38958333334176,"value":0.3779527559055118},{"number":64,"time":356.0604166666751,"value":0.2755905511811024},{"number":64,"time":356.06145833334176,"value":0.2755905511811024},{"number":64,"time":356.1927083333418,"value":0.18110236220472442},{"number":64,"time":356.19375000000844,"value":0.18110236220472442},{"number":64,"time":356.2395833333418,"value":0.07874015748031496},{"number":64,"time":356.24062500000844,"value":0.07874015748031496},{"number":64,"time":356.2833333333418,"value":0},{"number":64,"time":356.2843750000084,"value":0},{"number":64,"time":358.9614583333418,"value":0.10236220472440945},{"number":64,"time":358.96250000000845,"value":0.10236220472440945},{"number":64,"time":359.0572916666751,"value":0.2047244094488189},{"number":64,"time":359.05833333334175,"value":0.2047244094488189},{"number":64,"time":359.2062500000084,"value":0.33070866141732286},{"number":64,"time":359.2062500000084,"value":0.33070866141732286},{"number":64,"time":359.29791666667506,"value":0.44881889763779526},{"number":64,"time":359.2989583333417,"value":0.44881889763779526},{"number":64,"time":359.3333333333417,"value":0.48031496062992124},{"number":64,"time":359.3343750000084,"value":0.48031496062992124},{"number":64,"time":361.2250000000084,"value":0.5118110236220472},{"number":64,"time":361.22604166667503,"value":0.5118110236220472},{"number":64,"time":361.38854166667505,"value":0.48031496062992124},{"number":64,"time":361.38854166667505,"value":0.48031496062992124},{"number":64,"time":361.40729166667506,"value":0.3779527559055118},{"number":64,"time":361.4083333333417,"value":0.3779527559055118},{"number":64,"time":361.42500000000837,"value":0.2755905511811024},{"number":64,"time":361.426041666675,"value":0.2755905511811024},{"number":64,"time":361.45000000000834,"value":0.18110236220472442},{"number":64,"time":361.451041666675,"value":0.18110236220472442},{"number":64,"time":361.532291666675,"value":0.2992125984251969},{"number":64,"time":361.53333333334166,"value":0.2992125984251969},{"number":64,"time":361.572916666675,"value":0.4015748031496063},{"number":64,"time":361.57395833334164,"value":0.4015748031496063},{"number":64,"time":361.616666666675,"value":0.47244094488188976},{"number":64,"time":361.6177083333416,"value":0.47244094488188976},{"number":64,"time":361.7125000000083,"value":0.5039370078740157},{"number":64,"time":361.7135416666749,"value":0.5039370078740157},{"number":64,"time":362.3322916666749,"value":0.5354330708661418},{"number":64,"time":362.33333333334156,"value":0.5354330708661418},{"number":64,"time":362.8000000000082,"value":0.5669291338582677},{"number":64,"time":362.80104166667485,"value":0.5669291338582677},{"number":64,"time":364.2833333333415,"value":0.5984251968503937},{"number":64,"time":364.28437500000814,"value":0.5984251968503937},{"number":64,"time":364.35520833334147,"value":0.5590551181102362},{"number":64,"time":364.3562500000081,"value":0.5590551181102362},{"number":64,"time":364.36770833334145,"value":0.5275590551181102},{"number":64,"time":364.3687500000081,"value":0.5275590551181102},{"number":64,"time":364.3760416666748,"value":0.49606299212598426},{"number":64,"time":364.3760416666748,"value":0.49606299212598426},{"number":64,"time":364.3916666666748,"value":0.3779527559055118},{"number":64,"time":364.39270833334143,"value":0.3779527559055118},{"number":64,"time":364.4229166666748,"value":0.2755905511811024},{"number":64,"time":364.42395833334143,"value":0.2755905511811024},{"number":64,"time":364.4958333333414,"value":0.3779527559055118},{"number":64,"time":364.49687500000806,"value":0.3779527559055118},{"number":64,"time":364.5395833333414,"value":0.47244094488188976},{"number":64,"time":364.54062500000805,"value":0.47244094488188976},{"number":64,"time":364.5677083333414,"value":0.5039370078740157},{"number":64,"time":364.56875000000804,"value":0.5039370078740157},{"number":64,"time":364.6072916666747,"value":0.5354330708661418},{"number":64,"time":364.60833333334136,"value":0.5354330708661418},{"number":64,"time":364.7072916666747,"value":0.5669291338582677},{"number":64,"time":364.70833333334133,"value":0.5669291338582677},{"number":64,"time":364.88333333334134,"value":0.5984251968503937},{"number":64,"time":364.884375000008,"value":0.5984251968503937},{"number":64,"time":365.028125000008,"value":0.6299212598425197},{"number":64,"time":365.028125000008,"value":0.6299212598425197},{"number":64,"time":367.3666666666747,"value":0.5984251968503937},{"number":64,"time":367.36770833334134,"value":0.5984251968503937},{"number":64,"time":367.381250000008,"value":0.5669291338582677},{"number":64,"time":367.38229166667463,"value":0.5669291338582677},{"number":64,"time":367.3895833333413,"value":0.5354330708661418},{"number":64,"time":367.39062500000796,"value":0.5354330708661418},{"number":64,"time":367.396875000008,"value":0.49606299212598426},{"number":64,"time":367.39791666667463,"value":0.49606299212598426},{"number":64,"time":367.40937500000797,"value":0.4015748031496063},{"number":64,"time":367.4104166666746,"value":0.4015748031496063},{"number":64,"time":367.4260416666746,"value":0.2992125984251969},{"number":64,"time":367.4270833333413,"value":0.2992125984251969},{"number":64,"time":367.4583333333413,"value":0.2047244094488189},{"number":64,"time":367.4583333333413,"value":0.2047244094488189},{"number":64,"time":367.5500000000079,"value":0.33070866141732286},{"number":64,"time":367.55104166667456,"value":0.33070866141732286},{"number":64,"time":367.57916666667455,"value":0.44881889763779526},{"number":64,"time":367.5802083333412,"value":0.44881889763779526},{"number":64,"time":367.59479166667455,"value":0.48031496062992124},{"number":64,"time":367.5958333333412,"value":0.48031496062992124},{"number":64,"time":367.6500000000079,"value":0.5196850393700787},{"number":64,"time":367.65104166667453,"value":0.5196850393700787},{"number":64,"time":367.7177083333412,"value":0.5511811023622047},{"number":64,"time":367.71875000000784,"value":0.5511811023622047},{"number":64,"time":367.8770833333412,"value":0.5826771653543307},{"number":64,"time":367.87812500000786,"value":0.5826771653543307},{"number":64,"time":370.3552083333412,"value":0.5511811023622047},{"number":64,"time":370.35625000000783,"value":0.5511811023622047},{"number":64,"time":370.36770833334117,"value":0.5196850393700787},{"number":64,"time":370.36770833334117,"value":0.5196850393700787},{"number":64,"time":370.3791666666745,"value":0.48031496062992124},{"number":64,"time":370.38020833334116,"value":0.48031496062992124},{"number":64,"time":370.39583333334116,"value":0.3779527559055118},{"number":64,"time":370.3968750000078,"value":0.3779527559055118},{"number":64,"time":370.41145833334116,"value":0.2755905511811024},{"number":64,"time":370.4125000000078,"value":0.2755905511811024},{"number":64,"time":370.4312500000078,"value":0.14960629921259844},{"number":64,"time":370.4312500000078,"value":0.14960629921259844},{"number":64,"time":370.4510416666745,"value":0.05511811023622047},{"number":64,"time":370.45208333334114,"value":0.05511811023622047},{"number":64,"time":370.4635416666745,"value":0},{"number":64,"time":370.4645833333411,"value":0},{"number":64,"time":370.53541666667445,"value":0.10236220472440945},{"number":64,"time":370.5364583333411,"value":0.10236220472440945},{"number":64,"time":370.55104166667445,"value":0.2047244094488189},{"number":64,"time":370.5520833333411,"value":0.2047244094488189},{"number":64,"time":370.57916666667444,"value":0.33070866141732286},{"number":64,"time":370.5802083333411,"value":0.33070866141732286},{"number":64,"time":370.6395833333411,"value":0.44881889763779526},{"number":64,"time":370.6395833333411,"value":0.44881889763779526},{"number":64,"time":370.6552083333411,"value":0.48031496062992124},{"number":64,"time":370.65625000000773,"value":0.48031496062992124},{"number":64,"time":370.71145833334106,"value":0.5118110236220472},{"number":64,"time":370.7125000000077,"value":0.5118110236220472},{"number":64,"time":370.85520833334107,"value":0.5433070866141733},{"number":64,"time":370.8562500000077,"value":0.5433070866141733},{"number":64,"time":371.10729166667437,"value":0.5748031496062992},{"number":64,"time":371.108333333341,"value":0.5748031496062992},{"number":64,"time":373.4260416666744,"value":0.5433070866141733},{"number":64,"time":373.42708333334105,"value":0.5433070866141733},{"number":64,"time":373.4385416666744,"value":0.5039370078740157},{"number":64,"time":373.4385416666744,"value":0.5039370078740157},{"number":64,"time":373.44583333334106,"value":0.47244094488188976},{"number":64,"time":373.4468750000077,"value":0.47244094488188976},{"number":64,"time":373.45833333334105,"value":0.3779527559055118},{"number":64,"time":373.4593750000077,"value":0.3779527559055118},{"number":64,"time":373.47395833334105,"value":0.2755905511811024},{"number":64,"time":373.4750000000077,"value":0.2755905511811024},{"number":64,"time":373.50208333334103,"value":0.18110236220472442},{"number":64,"time":373.5031250000077,"value":0.18110236220472442},{"number":64,"time":373.59062500000766,"value":0.2992125984251969},{"number":64,"time":373.59062500000766,"value":0.2992125984251969},{"number":64,"time":373.614583333341,"value":0.4015748031496063},{"number":64,"time":373.61562500000764,"value":0.4015748031496063},{"number":64,"time":373.6697916666743,"value":0.47244094488188976},{"number":64,"time":373.67083333334097,"value":0.47244094488188976},{"number":64,"time":373.71458333334095,"value":0.5039370078740157},{"number":64,"time":373.7156250000076,"value":0.5039370078740157},{"number":64,"time":373.8145833333409,"value":0.5354330708661418},{"number":64,"time":373.8145833333409,"value":0.5354330708661418},{"number":64,"time":374.0895833333409,"value":0.5669291338582677},{"number":64,"time":374.09062500000755,"value":0.5669291338582677},{"number":64,"time":376.40104166667425,"value":0.5275590551181102},{"number":64,"time":376.4020833333409,"value":0.5275590551181102},{"number":64,"time":376.40937500000757,"value":0.49606299212598426},{"number":64,"time":376.4104166666742,"value":0.49606299212598426},{"number":64,"time":376.42500000000757,"value":0.3779527559055118},{"number":64,"time":376.42500000000757,"value":0.3779527559055118},{"number":64,"time":376.4416666666742,"value":0.2755905511811024},{"number":64,"time":376.4427083333409,"value":0.2755905511811024},{"number":64,"time":376.5500000000075,"value":0.3779527559055118},{"number":64,"time":376.5500000000075,"value":0.3779527559055118},{"number":64,"time":376.5854166666742,"value":0.47244094488188976},{"number":64,"time":376.5854166666742,"value":0.47244094488188976},{"number":64,"time":376.62083333334084,"value":0.5039370078740157},{"number":64,"time":376.62083333334084,"value":0.5039370078740157},{"number":64,"time":376.6656250000075,"value":0.5354330708661418},{"number":64,"time":376.66666666667413,"value":0.5354330708661418},{"number":64,"time":376.72187500000746,"value":0.5669291338582677},{"number":64,"time":376.7229166666741,"value":0.5669291338582677},{"number":64,"time":379.4854166666741,"value":0.5354330708661418},{"number":64,"time":379.48645833334075,"value":0.5354330708661418},{"number":64,"time":379.49895833334074,"value":0.5039370078740157},{"number":64,"time":379.5000000000074,"value":0.5039370078740157},{"number":64,"time":379.5187500000074,"value":0.4015748031496063},{"number":64,"time":379.51979166667405,"value":0.4015748031496063},{"number":64,"time":379.53854166667406,"value":0.2755905511811024},{"number":64,"time":379.5395833333407,"value":0.2755905511811024},{"number":64,"time":379.5552083333407,"value":0.18110236220472442},{"number":64,"time":379.55625000000737,"value":0.18110236220472442},{"number":64,"time":379.56562500000734,"value":0.07874015748031496},{"number":64,"time":379.566666666674,"value":0.07874015748031496},{"number":64,"time":379.5750000000073,"value":0},{"number":64,"time":379.576041666674,"value":0},{"number":64,"time":382.69270833334065,"value":0.12598425196850394},{"number":64,"time":382.6937500000073,"value":0.12598425196850394},{"number":64,"time":382.7020833333407,"value":0.2283464566929134},{"number":64,"time":382.70312500000733,"value":0.2283464566929134},{"number":64,"time":382.7125000000073,"value":0.33070866141732286},{"number":64,"time":382.71354166667396,"value":0.33070866141732286},{"number":64,"time":382.77291666667395,"value":0.44881889763779526},{"number":64,"time":382.7739583333406,"value":0.44881889763779526},{"number":64,"time":382.80104166667394,"value":0.48031496062992124},{"number":64,"time":382.8020833333406,"value":0.48031496062992124},{"number":64,"time":382.86875000000725,"value":0.5118110236220472},{"number":64,"time":382.86875000000725,"value":0.5118110236220472},{"number":64,"time":383.0489583333406,"value":0.5433070866141733},{"number":64,"time":383.05000000000723,"value":0.5433070866141733},{"number":64,"time":385.6760416666739,"value":0.5118110236220472},{"number":64,"time":385.67708333334053,"value":0.5118110236220472},{"number":64,"time":385.6916666666739,"value":0.48031496062992124},{"number":64,"time":385.69270833334053,"value":0.48031496062992124},{"number":64,"time":385.7072916666739,"value":0.3779527559055118},{"number":64,"time":385.70833333334053,"value":0.3779527559055118},{"number":64,"time":385.71979166667387,"value":0.2755905511811024},{"number":64,"time":385.7208333333405,"value":0.2755905511811024},{"number":64,"time":385.72708333334054,"value":0.18110236220472442},{"number":64,"time":385.7281250000072,"value":0.18110236220472442},{"number":64,"time":385.73541666667387,"value":0.07874015748031496},{"number":64,"time":385.7364583333405,"value":0.07874015748031496},{"number":64,"time":385.7437500000072,"value":0},{"number":64,"time":385.74479166667385,"value":0},{"number":64,"time":385.99166666667384,"value":0.12598425196850394},{"number":64,"time":385.9927083333405,"value":0.12598425196850394},{"number":64,"time":385.9989583333405,"value":0.2283464566929134},{"number":64,"time":386.00000000000716,"value":0.2283464566929134},{"number":64,"time":386.01041666667385,"value":0.3543307086614173},{"number":64,"time":386.0114583333405,"value":0.3543307086614173},{"number":64,"time":386.0270833333405,"value":0.47244094488188976},{"number":64,"time":386.02812500000715,"value":0.47244094488188976},{"number":64,"time":386.0708333333405,"value":0.5039370078740157},{"number":64,"time":386.07187500000714,"value":0.5039370078740157},{"number":64,"time":386.11875000000714,"value":0.5354330708661418},{"number":64,"time":386.1197916666738,"value":0.5354330708661418},{"number":64,"time":388.85833333334045,"value":0.49606299212598426},{"number":64,"time":388.8593750000071,"value":0.49606299212598426},{"number":64,"time":388.8687500000071,"value":0.4015748031496063},{"number":64,"time":388.86979166667373,"value":0.4015748031496063},{"number":64,"time":388.8802083333404,"value":0.25196850393700787},{"number":64,"time":388.88125000000707,"value":0.25196850393700787},{"number":64,"time":388.88854166667375,"value":0.12598425196850394},{"number":64,"time":388.8895833333404,"value":0.12598425196850394},{"number":64,"time":388.89687500000707,"value":0},{"number":64,"time":388.8979166666737,"value":0},{"number":64,"time":389.1333333333404,"value":0.12598425196850394},{"number":64,"time":389.1333333333404,"value":0.12598425196850394},{"number":64,"time":389.1416666666737,"value":0.2283464566929134},{"number":64,"time":389.14270833334035,"value":0.2283464566929134},{"number":64,"time":389.150000000007,"value":0.33070866141732286},{"number":64,"time":389.150000000007,"value":0.33070866141732286},{"number":64,"time":389.165625000007,"value":0.44881889763779526},{"number":64,"time":389.1666666666737,"value":0.44881889763779526},{"number":64,"time":389.18437500000704,"value":0.48031496062992124},{"number":64,"time":389.18437500000704,"value":0.48031496062992124},{"number":64,"time":389.2489583333404,"value":0.5118110236220472},{"number":64,"time":389.2489583333404,"value":0.5118110236220472},{"number":64,"time":389.2854166666737,"value":0.5433070866141733},{"number":64,"time":389.2854166666737,"value":0.5433070866141733},{"number":64,"time":389.353125000007,"value":0.5748031496062992},{"number":64,"time":389.3541666666737,"value":0.5748031496062992},{"number":64,"time":390.14479166667365,"value":0.6062992125984252},{"number":64,"time":390.1458333333403,"value":0.6062992125984252},{"number":64,"time":391.95104166667363,"value":0.5669291338582677},{"number":64,"time":391.9520833333403,"value":0.5669291338582677},{"number":64,"time":391.9635416666736,"value":0.5275590551181102},{"number":64,"time":391.9645833333403,"value":0.5275590551181102},{"number":64,"time":391.9708333333403,"value":0.47244094488188976},{"number":64,"time":391.97187500000695,"value":0.47244094488188976},{"number":64,"time":391.9791666666736,"value":0.3543307086614173},{"number":64,"time":391.9802083333403,"value":0.3543307086614173},{"number":64,"time":391.98750000000695,"value":0.18110236220472442},{"number":64,"time":391.9885416666736,"value":0.18110236220472442},{"number":64,"time":391.9916666666736,"value":0.07874015748031496},{"number":64,"time":391.99270833334026,"value":0.07874015748031496},{"number":64,"time":391.9958333333403,"value":0},{"number":64,"time":391.9958333333403,"value":0},{"number":64,"time":392.14375000000695,"value":0.10236220472440945},{"number":64,"time":392.14375000000695,"value":0.10236220472440945},{"number":64,"time":392.14687500000696,"value":0.2047244094488189},{"number":64,"time":392.1479166666736,"value":0.2047244094488189},{"number":64,"time":392.1552083333403,"value":0.3779527559055118},{"number":64,"time":392.15625000000693,"value":0.3779527559055118},{"number":64,"time":392.1635416666736,"value":0.48031496062992124},{"number":64,"time":392.16458333334026,"value":0.48031496062992124},{"number":64,"time":392.17187500000693,"value":0.5196850393700787},{"number":64,"time":392.17187500000693,"value":0.5196850393700787},{"number":64,"time":392.18750000000693,"value":0.5511811023622047},{"number":64,"time":392.1885416666736,"value":0.5511811023622047},{"number":64,"time":392.25520833334025,"value":0.5905511811023622},{"number":64,"time":392.2562500000069,"value":0.5905511811023622},{"number":64,"time":392.44687500000686,"value":0.6220472440944882},{"number":64,"time":392.4479166666735,"value":0.6220472440944882},{"number":64,"time":395.0937500000068,"value":0.5905511811023622},{"number":64,"time":395.0947916666735,"value":0.5905511811023622},{"number":64,"time":395.1062500000068,"value":0.5511811023622047},{"number":64,"time":395.10729166667346,"value":0.5511811023622047},{"number":64,"time":395.1135416666735,"value":0.5039370078740157},{"number":64,"time":395.11458333334014,"value":0.5039370078740157},{"number":64,"time":395.1270833333402,"value":0.33070866141732286},{"number":64,"time":395.12812500000683,"value":0.33070866141732286},{"number":64,"time":395.13333333334015,"value":0.18110236220472442},{"number":64,"time":395.1343750000068,"value":0.18110236220472442},{"number":64,"time":395.1427083333401,"value":0.031496062992125984},{"number":64,"time":395.1437500000068,"value":0.031496062992125984},{"number":64,"time":395.1447916666734,"value":0},{"number":64,"time":395.1458333333401,"value":0},{"number":64,"time":395.2458333333401,"value":0.10236220472440945},{"number":64,"time":395.24687500000675,"value":0.10236220472440945},{"number":64,"time":395.2489583333401,"value":0.2047244094488189},{"number":64,"time":395.25000000000676,"value":0.2047244094488189},{"number":64,"time":395.25729166667344,"value":0.3543307086614173},{"number":64,"time":395.2583333333401,"value":0.3543307086614173},{"number":64,"time":395.26562500000676,"value":0.48031496062992124},{"number":64,"time":395.26562500000676,"value":0.48031496062992124},{"number":64,"time":395.27291666667344,"value":0.5118110236220472},{"number":64,"time":395.2739583333401,"value":0.5118110236220472},{"number":64,"time":395.3010416666734,"value":0.5433070866141733},{"number":64,"time":395.3020833333401,"value":0.5433070866141733},{"number":64,"time":395.3541666666734,"value":0.5826771653543307},{"number":64,"time":395.35520833334004,"value":0.5826771653543307},{"number":64,"time":395.3937500000067,"value":0.6141732283464567},{"number":64,"time":395.39479166667337,"value":0.6141732283464567},{"number":64,"time":398.05625000000674,"value":0.6456692913385826},{"number":64,"time":398.0572916666734,"value":0.6456692913385826},{"number":64,"time":398.1604166666734,"value":0.6141732283464567},{"number":64,"time":398.1614583333401,"value":0.6141732283464567},{"number":64,"time":398.17187500000676,"value":0.5826771653543307},{"number":64,"time":398.1729166666734,"value":0.5826771653543307},{"number":64,"time":398.1802083333401,"value":0.5511811023622047},{"number":64,"time":398.18125000000674,"value":0.5511811023622047},{"number":64,"time":398.1885416666734,"value":0.5039370078740157},{"number":64,"time":398.1885416666734,"value":0.5039370078740157},{"number":64,"time":398.20000000000675,"value":0.3779527559055118},{"number":64,"time":398.2010416666734,"value":0.3779527559055118},{"number":64,"time":398.2083333333401,"value":0.25196850393700787},{"number":64,"time":398.20937500000673,"value":0.25196850393700787},{"number":64,"time":398.2197916666734,"value":0.14960629921259844},{"number":64,"time":398.22083333334007,"value":0.14960629921259844},{"number":64,"time":398.2322916666734,"value":0.05511811023622047},{"number":64,"time":398.23333333334006,"value":0.05511811023622047},{"number":64,"time":398.2395833333401,"value":0},{"number":64,"time":398.24062500000673,"value":0},{"number":64,"time":398.3041666666734,"value":0.10236220472440945},{"number":64,"time":398.30520833334003,"value":0.10236220472440945},{"number":64,"time":398.3125000000067,"value":0.25196850393700787},{"number":64,"time":398.31354166667336,"value":0.25196850393700787},{"number":64,"time":398.3197916666734,"value":0.3779527559055118},{"number":64,"time":398.32083333334003,"value":0.3779527559055118},{"number":64,"time":398.3281250000067,"value":0.48031496062992124},{"number":64,"time":398.3281250000067,"value":0.48031496062992124},{"number":64,"time":398.33645833334003,"value":0.5118110236220472},{"number":64,"time":398.3375000000067,"value":0.5118110236220472},{"number":64,"time":398.35208333334003,"value":0.5433070866141733},{"number":64,"time":398.3531250000067,"value":0.5433070866141733},{"number":64,"time":398.41979166667335,"value":0.5748031496062992},{"number":64,"time":398.42083333334,"value":0.5748031496062992},{"number":64,"time":398.45625000000666,"value":0.6062992125984252},{"number":64,"time":398.4572916666733,"value":0.6062992125984252},{"number":64,"time":401.21770833334,"value":0.5748031496062992},{"number":64,"time":401.21875000000665,"value":0.5748031496062992},{"number":64,"time":401.2260416666733,"value":0.5433070866141733},{"number":64,"time":401.22708333334,"value":0.5433070866141733},{"number":64,"time":401.23437500000665,"value":0.5039370078740157},{"number":64,"time":401.23437500000665,"value":0.5039370078740157},{"number":64,"time":401.23750000000666,"value":0.47244094488188976},{"number":64,"time":401.2385416666733,"value":0.47244094488188976},{"number":64,"time":401.24583333334,"value":0.3543307086614173},{"number":64,"time":401.24687500000664,"value":0.3543307086614173},{"number":64,"time":401.25520833333997,"value":0.2047244094488189},{"number":64,"time":401.2562500000066,"value":0.2047244094488189},{"number":64,"time":401.26041666667334,"value":0.10236220472440945},{"number":64,"time":401.26041666667334,"value":0.10236220472440945},{"number":64,"time":401.26562500000665,"value":0},{"number":64,"time":401.2666666666733,"value":0},{"number":64,"time":401.43437500000664,"value":0.12598425196850394},{"number":64,"time":401.43437500000664,"value":0.12598425196850394},{"number":64,"time":401.4416666666733,"value":0.2283464566929134},{"number":64,"time":401.44270833333997,"value":0.2283464566929134},{"number":64,"time":401.45000000000664,"value":0.33070866141732286},{"number":64,"time":401.45000000000664,"value":0.33070866141732286},{"number":64,"time":401.4666666666733,"value":0.47244094488188976},{"number":64,"time":401.46770833333994,"value":0.47244094488188976},{"number":64,"time":401.4781250000066,"value":0.5039370078740157},{"number":64,"time":401.4791666666733,"value":0.5039370078740157},{"number":64,"time":401.51770833333995,"value":0.5354330708661418},{"number":64,"time":401.5187500000066,"value":0.5354330708661418},{"number":64,"time":401.57395833333993,"value":0.5669291338582677},{"number":64,"time":401.5750000000066,"value":0.5669291338582677},{"number":64,"time":401.62604166667325,"value":0.5984251968503937},{"number":64,"time":401.6270833333399,"value":0.5984251968503937},{"number":64,"time":401.7020833333399,"value":0.6299212598425197},{"number":64,"time":401.70312500000654,"value":0.6299212598425197},{"number":64,"time":404.4041666666732,"value":0.5984251968503937},{"number":64,"time":404.40520833333983,"value":0.5984251968503937},{"number":64,"time":404.4156250000065,"value":0.5590551181102362},{"number":64,"time":404.41666666667317,"value":0.5590551181102362},{"number":64,"time":404.42395833333984,"value":0.5196850393700787},{"number":64,"time":404.4250000000065,"value":0.5196850393700787},{"number":64,"time":404.4354166666732,"value":0.4015748031496063},{"number":64,"time":404.43645833333983,"value":0.4015748031496063},{"number":64,"time":404.4437500000065,"value":0.2755905511811024},{"number":64,"time":404.44479166667315,"value":0.2755905511811024},{"number":64,"time":404.45208333333983,"value":0.18110236220472442},{"number":64,"time":404.4531250000065,"value":0.18110236220472442},{"number":64,"time":404.46354166667317,"value":0.07874015748031496},{"number":64,"time":404.4645833333398,"value":0.07874015748031496},{"number":64,"time":404.47604166667315,"value":0},{"number":64,"time":404.4770833333398,"value":0},{"number":64,"time":404.5395833333398,"value":0.12598425196850394},{"number":64,"time":404.54062500000646,"value":0.12598425196850394},{"number":64,"time":404.5489583333398,"value":0.25196850393700787},{"number":64,"time":404.55000000000643,"value":0.25196850393700787},{"number":64,"time":404.5562500000064,"value":0.3543307086614173},{"number":64,"time":404.55729166667305,"value":0.3543307086614173},{"number":64,"time":404.56770833333974,"value":0.47244094488188976},{"number":64,"time":404.5687500000064,"value":0.47244094488188976},{"number":64,"time":404.57604166667306,"value":0.5039370078740157},{"number":64,"time":404.5770833333397,"value":0.5039370078740157},{"number":64,"time":404.6239583333397,"value":0.5354330708661418},{"number":64,"time":404.62500000000637,"value":0.5354330708661418},{"number":64,"time":404.6802083333397,"value":0.5669291338582677},{"number":64,"time":404.68125000000634,"value":0.5669291338582677},{"number":64,"time":404.819791666673,"value":0.5984251968503937},{"number":64,"time":404.82083333333964,"value":0.5984251968503937},{"number":64,"time":405.104166666673,"value":0.6299212598425197},{"number":64,"time":405.10520833333965,"value":0.6299212598425197},{"number":64,"time":407.510416666673,"value":0.5984251968503937},{"number":64,"time":407.51145833333965,"value":0.5984251968503937},{"number":64,"time":407.52708333333965,"value":0.5590551181102362},{"number":64,"time":407.52708333333965,"value":0.5590551181102362},{"number":64,"time":407.5343750000063,"value":0.5196850393700787},{"number":64,"time":407.535416666673,"value":0.5196850393700787},{"number":64,"time":407.538541666673,"value":0.4881889763779528},{"number":64,"time":407.538541666673,"value":0.4881889763779528},{"number":64,"time":407.5468750000063,"value":0.3779527559055118},{"number":64,"time":407.54791666667296,"value":0.3779527559055118},{"number":64,"time":407.554166666673,"value":0.25196850393700787},{"number":64,"time":407.55520833333964,"value":0.25196850393700787},{"number":64,"time":407.5625000000063,"value":0.10236220472440945},{"number":64,"time":407.56354166667296,"value":0.10236220472440945},{"number":64,"time":407.57083333333964,"value":0},{"number":64,"time":407.5718750000063,"value":0},{"number":64,"time":407.69895833333965,"value":0.14960629921259844},{"number":64,"time":407.7000000000063,"value":0.14960629921259844},{"number":64,"time":407.7062500000063,"value":0.2992125984251969},{"number":64,"time":407.707291666673,"value":0.2992125984251969},{"number":64,"time":407.71458333333965,"value":0.4251968503937008},{"number":64,"time":407.7156250000063,"value":0.4251968503937008},{"number":64,"time":407.7187500000063,"value":0.48031496062992124},{"number":64,"time":407.71979166667296,"value":0.48031496062992124},{"number":64,"time":407.72708333333964,"value":0.5118110236220472},{"number":64,"time":407.7281250000063,"value":0.5118110236220472},{"number":64,"time":407.7625000000063,"value":0.5433070866141733},{"number":64,"time":407.7625000000063,"value":0.5433070866141733},{"number":64,"time":407.8187500000063,"value":0.5748031496062992},{"number":64,"time":407.8197916666729,"value":0.5748031496062992},{"number":64,"time":407.91875000000624,"value":0.6062992125984252},{"number":64,"time":407.9197916666729,"value":0.6062992125984252},{"number":64,"time":410.7291666666729,"value":0.5748031496062992},{"number":64,"time":410.73020833333953,"value":0.5748031496062992},{"number":64,"time":410.74062500000616,"value":0.5275590551181102},{"number":64,"time":410.7416666666728,"value":0.5275590551181102},{"number":64,"time":410.7489583333395,"value":0.47244094488188976},{"number":64,"time":410.75000000000614,"value":0.47244094488188976},{"number":64,"time":410.7520833333395,"value":0.3779527559055118},{"number":64,"time":410.75312500000615,"value":0.3779527559055118},{"number":64,"time":410.7604166666728,"value":0.2047244094488189},{"number":64,"time":410.7614583333395,"value":0.2047244094488189},{"number":64,"time":410.7645833333395,"value":0.10236220472440945},{"number":64,"time":410.7645833333395,"value":0.10236220472440945},{"number":64,"time":410.76875000000615,"value":0},{"number":64,"time":410.7697916666728,"value":0},{"number":64,"time":410.9208333333395,"value":0.14960629921259844},{"number":64,"time":410.92187500000614,"value":0.14960629921259844},{"number":64,"time":410.92812500000616,"value":0.2755905511811024},{"number":64,"time":410.9291666666728,"value":0.2755905511811024},{"number":64,"time":410.9364583333395,"value":0.3779527559055118},{"number":64,"time":410.93750000000614,"value":0.3779527559055118},{"number":64,"time":410.9447916666728,"value":0.47244094488188976},{"number":64,"time":410.94583333333946,"value":0.47244094488188976},{"number":64,"time":410.95625000000615,"value":0.5039370078740157},{"number":64,"time":410.9572916666728,"value":0.5039370078740157},{"number":64,"time":411.00833333333946,"value":0.5354330708661418},{"number":64,"time":411.0093750000061,"value":0.5354330708661418},{"number":64,"time":411.0562500000061,"value":0.5669291338582677},{"number":64,"time":411.05729166667277,"value":0.5669291338582677},{"number":64,"time":411.1437500000061,"value":0.5984251968503937},{"number":64,"time":411.14479166667275,"value":0.5984251968503937},{"number":64,"time":411.2791666666727,"value":0.6299212598425197},{"number":64,"time":411.2802083333394,"value":0.6299212598425197},{"number":64,"time":413.918750000006,"value":0.5984251968503937},{"number":64,"time":413.91979166667267,"value":0.5984251968503937},{"number":64,"time":413.931250000006,"value":0.5590551181102362},{"number":64,"time":413.93229166667265,"value":0.5590551181102362},{"number":64,"time":413.9385416666726,"value":0.5196850393700787},{"number":64,"time":413.93958333333927,"value":0.5196850393700787},{"number":64,"time":413.9427083333393,"value":0.48031496062992124},{"number":64,"time":413.94375000000593,"value":0.48031496062992124},{"number":64,"time":413.95000000000596,"value":0.3543307086614173},{"number":64,"time":413.9510416666726,"value":0.3543307086614173},{"number":64,"time":413.95520833333927,"value":0.25196850393700787},{"number":64,"time":413.9562500000059,"value":0.25196850393700787},{"number":64,"time":413.9583333333393,"value":0.14960629921259844},{"number":64,"time":413.95937500000593,"value":0.14960629921259844},{"number":64,"time":413.96250000000595,"value":0.05511811023622047},{"number":64,"time":413.9635416666726,"value":0.05511811023622047},{"number":64,"time":413.9666666666726,"value":0},{"number":64,"time":413.96770833333926,"value":0},{"number":64,"time":414.0906250000059,"value":0.10236220472440945},{"number":64,"time":414.09166666667255,"value":0.10236220472440945},{"number":64,"time":414.0979166666726,"value":0.25196850393700787},{"number":64,"time":414.0989583333392,"value":0.25196850393700787},{"number":64,"time":414.1062500000059,"value":0.3779527559055118},{"number":64,"time":414.10729166667255,"value":0.3779527559055118},{"number":64,"time":414.1145833333392,"value":0.48031496062992124},{"number":64,"time":414.1156250000059,"value":0.48031496062992124},{"number":64,"time":414.1270833333392,"value":0.5118110236220472},{"number":64,"time":414.12812500000587,"value":0.5118110236220472},{"number":64,"time":414.18229166667254,"value":0.5433070866141733},{"number":64,"time":414.1833333333392,"value":0.5433070866141733},{"number":64,"time":414.23437500000585,"value":0.5748031496062992},{"number":64,"time":414.23437500000585,"value":0.5748031496062992},{"number":64,"time":414.3270833333392,"value":0.6062992125984252},{"number":64,"time":414.32812500000585,"value":0.6062992125984252},{"number":64,"time":417.5458333333392,"value":0.5748031496062992},{"number":64,"time":417.5458333333392,"value":0.5748031496062992},{"number":64,"time":417.5770833333392,"value":0.5433070866141733},{"number":64,"time":417.57812500000585,"value":0.5433070866141733},{"number":64,"time":417.59375000000585,"value":0.5118110236220472},{"number":64,"time":417.59375000000585,"value":0.5118110236220472},{"number":64,"time":417.60937500000585,"value":0.48031496062992124},{"number":64,"time":417.6104166666725,"value":0.48031496062992124},{"number":64,"time":417.63750000000584,"value":0.3779527559055118},{"number":64,"time":417.6385416666725,"value":0.3779527559055118},{"number":64,"time":417.66145833333917,"value":0.2755905511811024},{"number":64,"time":417.6625000000058,"value":0.2755905511811024},{"number":64,"time":417.68125000000583,"value":0.14960629921259844},{"number":64,"time":417.6822916666725,"value":0.14960629921259844},{"number":64,"time":417.6937500000058,"value":0.05511811023622047},{"number":64,"time":417.6947916666725,"value":0.05511811023622047},{"number":64,"time":417.7010416666725,"value":0},{"number":64,"time":417.70208333333915,"value":0},{"number":64,"time":420.0885416666725,"value":0.10236220472440945},{"number":64,"time":420.08958333333914,"value":0.10236220472440945},{"number":64,"time":420.1041666666725,"value":0.2283464566929134},{"number":64,"time":420.10520833333914,"value":0.2283464566929134},{"number":64,"time":420.1281250000058,"value":0.33070866141732286},{"number":64,"time":420.12916666667246,"value":0.33070866141732286},{"number":64,"time":420.16770833333914,"value":0.44881889763779526},{"number":64,"time":420.1687500000058,"value":0.44881889763779526},{"number":64,"time":420.18854166667245,"value":0.48031496062992124},{"number":64,"time":420.18854166667245,"value":0.48031496062992124},{"number":64,"time":420.2395833333391,"value":0.5118110236220472},{"number":64,"time":420.2395833333391,"value":0.5118110236220472},{"number":64,"time":420.28437500000575,"value":0.5433070866141733},{"number":64,"time":420.2854166666724,"value":0.5433070866141733},{"number":64,"time":420.33437500000576,"value":0.5748031496062992},{"number":64,"time":420.3354166666724,"value":0.5748031496062992},{"number":64,"time":420.43541666667244,"value":0.6062992125984252},{"number":64,"time":420.4364583333391,"value":0.6062992125984252},{"number":64,"time":420.9708333333391,"value":0.5748031496062992},{"number":64,"time":420.97187500000575,"value":0.5748031496062992},{"number":64,"time":420.98750000000575,"value":0.5433070866141733},{"number":64,"time":420.9885416666724,"value":0.5433070866141733},{"number":64,"time":420.9947916666724,"value":0.5118110236220472},{"number":64,"time":420.9958333333391,"value":0.5118110236220472},{"number":64,"time":421.00625000000576,"value":0.47244094488188976},{"number":64,"time":421.0072916666724,"value":0.47244094488188976},{"number":64,"time":421.0270833333391,"value":0.3779527559055118},{"number":64,"time":421.02812500000573,"value":0.3779527559055118},{"number":64,"time":421.23437500000574,"value":0.47244094488188976},{"number":64,"time":421.2354166666724,"value":0.47244094488188976},{"number":64,"time":421.26250000000573,"value":0.5039370078740157},{"number":64,"time":421.2635416666724,"value":0.5039370078740157},{"number":64,"time":421.3343750000057,"value":0.5354330708661418},{"number":64,"time":421.33541666667236,"value":0.5354330708661418},{"number":64,"time":421.7218750000057,"value":0.5669291338582677},{"number":64,"time":421.72291666667235,"value":0.5669291338582677},{"number":64,"time":422.1625000000057,"value":0.5984251968503937},{"number":64,"time":422.16354166667236,"value":0.5984251968503937},{"number":64,"time":424.164583333339,"value":0.5669291338582677},{"number":64,"time":424.16562500000566,"value":0.5669291338582677},{"number":64,"time":424.19687500000566,"value":0.5354330708661418},{"number":64,"time":424.1979166666723,"value":0.5354330708661418},{"number":64,"time":424.2166666666723,"value":0.49606299212598426},{"number":64,"time":424.217708333339,"value":0.49606299212598426},{"number":64,"time":424.24062500000565,"value":0.4015748031496063},{"number":64,"time":424.2416666666723,"value":0.4015748031496063},{"number":64,"time":424.26145833333896,"value":0.2755905511811024},{"number":64,"time":424.26145833333896,"value":0.2755905511811024},{"number":64,"time":424.27708333333896,"value":0.14960629921259844},{"number":64,"time":424.2781250000056,"value":0.14960629921259844},{"number":64,"time":424.2854166666723,"value":0.05511811023622047},{"number":64,"time":424.28645833333894,"value":0.05511811023622047},{"number":64,"time":424.2885416666723,"value":0},{"number":64,"time":424.28958333333895,"value":0},{"number":64,"time":424.5093750000056,"value":0.10236220472440945},{"number":64,"time":424.51041666667226,"value":0.10236220472440945},{"number":64,"time":424.52083333333894,"value":0.2283464566929134},{"number":64,"time":424.52083333333894,"value":0.2283464566929134},{"number":64,"time":424.53333333333893,"value":0.33070866141732286},{"number":64,"time":424.53333333333893,"value":0.33070866141732286},{"number":64,"time":424.55729166667226,"value":0.44881889763779526},{"number":64,"time":424.5583333333389,"value":0.44881889763779526},{"number":64,"time":424.5770833333389,"value":0.48031496062992124},{"number":64,"time":424.57812500000557,"value":0.48031496062992124},{"number":64,"time":424.62916666667223,"value":0.5118110236220472},{"number":64,"time":424.6302083333389,"value":0.5118110236220472},{"number":64,"time":424.6729166666722,"value":0.5433070866141733},{"number":64,"time":424.6729166666722,"value":0.5433070866141733},{"number":64,"time":424.7375000000056,"value":0.5748031496062992},{"number":64,"time":424.7375000000056,"value":0.5748031496062992},{"number":64,"time":424.9770833333389,"value":0.6062992125984252},{"number":64,"time":424.97812500000555,"value":0.6062992125984252},{"number":64,"time":427.37083333333885,"value":0.5669291338582677},{"number":64,"time":427.3718750000055,"value":0.5669291338582677},{"number":64,"time":427.38645833333885,"value":0.5354330708661418},{"number":64,"time":427.3875000000055,"value":0.5354330708661418},{"number":64,"time":427.4000000000055,"value":0.49606299212598426},{"number":64,"time":427.4000000000055,"value":0.49606299212598426},{"number":64,"time":427.4156250000055,"value":0.4015748031496063},{"number":64,"time":427.41666666667214,"value":0.4015748031496063},{"number":64,"time":427.4281250000055,"value":0.2992125984251969},{"number":64,"time":427.42916666667213,"value":0.2992125984251969},{"number":64,"time":427.4385416666721,"value":0.18110236220472442},{"number":64,"time":427.43958333333876,"value":0.18110236220472442},{"number":64,"time":427.44687500000543,"value":0.07874015748031496},{"number":64,"time":427.4479166666721,"value":0.07874015748031496},{"number":64,"time":427.4510416666721,"value":0},{"number":64,"time":427.45208333333875,"value":0},{"number":64,"time":427.73854166667206,"value":0.10236220472440945},{"number":64,"time":427.7395833333387,"value":0.10236220472440945},{"number":64,"time":427.7468750000054,"value":0.2047244094488189},{"number":64,"time":427.74791666667204,"value":0.2047244094488189},{"number":64,"time":427.7625000000054,"value":0.33070866141732286},{"number":64,"time":427.76354166667204,"value":0.33070866141732286},{"number":64,"time":427.7833333333387,"value":0.44881889763779526},{"number":64,"time":427.78437500000535,"value":0.44881889763779526},{"number":64,"time":427.7989583333387,"value":0.48031496062992124},{"number":64,"time":427.80000000000535,"value":0.48031496062992124},{"number":64,"time":427.84687500000535,"value":0.5118110236220472},{"number":64,"time":427.847916666672,"value":0.5118110236220472},{"number":64,"time":427.879166666672,"value":0.5433070866141733},{"number":64,"time":427.88020833333866,"value":0.5433070866141733},{"number":64,"time":427.92708333333866,"value":0.5748031496062992},{"number":64,"time":427.9281250000053,"value":0.5748031496062992},{"number":64,"time":428.02291666667196,"value":0.6062992125984252},{"number":64,"time":428.0239583333386,"value":0.6062992125984252},{"number":64,"time":430.9020833333386,"value":0.5748031496062992},{"number":64,"time":430.9031250000053,"value":0.5748031496062992},{"number":64,"time":430.9177083333386,"value":0.5433070866141733},{"number":64,"time":430.9177083333386,"value":0.5433070866141733},{"number":64,"time":430.9302083333386,"value":0.5118110236220472},{"number":64,"time":430.9302083333386,"value":0.5118110236220472},{"number":64,"time":430.93645833333863,"value":0.48031496062992124},{"number":64,"time":430.9375000000053,"value":0.48031496062992124},{"number":64,"time":430.951041666672,"value":0.3779527559055118},{"number":64,"time":430.95208333333863,"value":0.3779527559055118},{"number":64,"time":430.9614583333386,"value":0.2755905511811024},{"number":64,"time":430.96250000000526,"value":0.2755905511811024},{"number":64,"time":430.9739583333386,"value":0.12598425196850394},{"number":64,"time":430.97500000000525,"value":0.12598425196850394},{"number":64,"time":430.9822916666719,"value":0.031496062992125984},{"number":64,"time":430.9822916666719,"value":0.031496062992125984},{"number":64,"time":430.9843750000053,"value":0},{"number":64,"time":430.98541666667194,"value":0},{"number":64,"time":431.2458333333386,"value":0.14960629921259844},{"number":64,"time":431.2468750000053,"value":0.14960629921259844},{"number":64,"time":431.25416666667195,"value":0.25196850393700787},{"number":64,"time":431.25416666667195,"value":0.25196850393700787},{"number":64,"time":431.2656250000053,"value":0.3543307086614173},{"number":64,"time":431.2656250000053,"value":0.3543307086614173},{"number":64,"time":431.2947916666719,"value":0.47244094488188976},{"number":64,"time":431.2947916666719,"value":0.47244094488188976},{"number":64,"time":431.3489583333386,"value":0.5039370078740157},{"number":64,"time":431.35000000000525,"value":0.5039370078740157},{"number":64,"time":431.3822916666719,"value":0.5354330708661418},{"number":64,"time":431.3822916666719,"value":0.5354330708661418},{"number":64,"time":431.4572916666719,"value":0.5669291338582677},{"number":64,"time":431.45833333333854,"value":0.5669291338582677},{"number":64,"time":431.53333333333853,"value":0.5984251968503937},{"number":64,"time":431.5343750000052,"value":0.5984251968503937},{"number":64,"time":433.3239583333385,"value":0.5590551181102362},{"number":64,"time":433.32500000000516,"value":0.5590551181102362},{"number":64,"time":433.33541666667185,"value":0.5196850393700787},{"number":64,"time":433.3364583333385,"value":0.5196850393700787},{"number":64,"time":433.3437500000052,"value":0.47244094488188976},{"number":64,"time":433.3447916666718,"value":0.47244094488188976},{"number":64,"time":433.3520833333385,"value":0.3543307086614173},{"number":64,"time":433.3520833333385,"value":0.3543307086614173},{"number":64,"time":433.3593750000052,"value":0.25196850393700787},{"number":64,"time":433.3604166666718,"value":0.25196850393700787},{"number":64,"time":433.3677083333385,"value":0.10236220472440945},{"number":64,"time":433.36875000000515,"value":0.10236220472440945},{"number":64,"time":433.3760416666718,"value":0},{"number":64,"time":433.3760416666718,"value":0},{"number":64,"time":433.58750000000515,"value":0.12598425196850394},{"number":64,"time":433.58750000000515,"value":0.12598425196850394},{"number":64,"time":433.5958333333385,"value":0.2283464566929134},{"number":64,"time":433.5968750000051,"value":0.2283464566929134},{"number":64,"time":433.6072916666718,"value":0.33070866141732286},{"number":64,"time":433.60833333333846,"value":0.33070866141732286},{"number":64,"time":433.6270833333385,"value":0.44881889763779526},{"number":64,"time":433.6281250000051,"value":0.44881889763779526},{"number":64,"time":433.6760416666718,"value":0.48031496062992124},{"number":64,"time":433.67708333333843,"value":0.48031496062992124},{"number":64,"time":433.71979166667177,"value":0.5118110236220472},{"number":64,"time":433.7208333333384,"value":0.5118110236220472},{"number":64,"time":433.8239583333384,"value":0.5433070866141733},{"number":64,"time":433.82500000000505,"value":0.5433070866141733},{"number":64,"time":434.1864583333384,"value":0.5118110236220472},{"number":64,"time":434.18750000000506,"value":0.5118110236220472},{"number":64,"time":434.1989583333384,"value":0.48031496062992124},{"number":64,"time":434.20000000000505,"value":0.48031496062992124},{"number":64,"time":434.2145833333384,"value":0.3779527559055118},{"number":64,"time":434.21562500000505,"value":0.3779527559055118},{"number":64,"time":434.2302083333384,"value":0.25196850393700787},{"number":64,"time":434.23125000000505,"value":0.25196850393700787},{"number":64,"time":434.2427083333384,"value":0.12598425196850394},{"number":64,"time":434.24375000000504,"value":0.12598425196850394},{"number":64,"time":434.2510416666717,"value":0.031496062992125984},{"number":64,"time":434.25208333333836,"value":0.031496062992125984},{"number":64,"time":434.2552083333384,"value":0},{"number":64,"time":434.256250000005,"value":0},{"number":64,"time":434.518750000005,"value":0.12598425196850394},{"number":64,"time":434.51979166667167,"value":0.12598425196850394},{"number":64,"time":434.52708333333834,"value":0.2283464566929134},{"number":64,"time":434.52708333333834,"value":0.2283464566929134},{"number":64,"time":434.5385416666717,"value":0.33070866141732286},{"number":64,"time":434.5395833333383,"value":0.33070866141732286},{"number":64,"time":434.59479166667165,"value":0.44881889763779526},{"number":64,"time":434.5958333333383,"value":0.44881889763779526},{"number":64,"time":434.61041666667165,"value":0.48031496062992124},{"number":64,"time":434.6114583333383,"value":0.48031496062992124},{"number":64,"time":434.65416666667164,"value":0.5118110236220472},{"number":64,"time":434.6552083333383,"value":0.5118110236220472},{"number":64,"time":434.7145833333383,"value":0.5433070866141733},{"number":64,"time":434.71562500000493,"value":0.5433070866141733},{"number":64,"time":434.7906250000049,"value":0.5748031496062992},{"number":64,"time":434.7916666666716,"value":0.5748031496062992},{"number":64,"time":434.8906250000049,"value":0.6062992125984252},{"number":64,"time":434.8906250000049,"value":0.6062992125984252},{"number":64,"time":434.9750000000049,"value":0.6377952755905512},{"number":64,"time":434.9750000000049,"value":0.6377952755905512},{"number":64,"time":436.8135416666716,"value":0.6062992125984252},{"number":64,"time":436.81458333333825,"value":0.6062992125984252},{"number":64,"time":436.8375000000049,"value":0.5669291338582677},{"number":64,"time":436.8385416666716,"value":0.5669291338582677},{"number":64,"time":436.86145833333825,"value":0.5354330708661418},{"number":64,"time":436.8625000000049,"value":0.5354330708661418},{"number":64,"time":436.9093750000049,"value":0.5039370078740157},{"number":64,"time":436.9093750000049,"value":0.5039370078740157},{"number":64,"time":436.9468750000049,"value":0.4015748031496063},{"number":64,"time":436.9479166666716,"value":0.4015748031496063},{"number":64,"time":436.98958333333826,"value":0.2992125984251969},{"number":64,"time":436.9906250000049,"value":0.2992125984251969},{"number":64,"time":437.0135416666716,"value":0.2047244094488189},{"number":64,"time":437.01458333333824,"value":0.2047244094488189},{"number":64,"time":437.0260416666716,"value":0.10236220472440945},{"number":64,"time":437.0270833333382,"value":0.10236220472440945},{"number":64,"time":437.0416666666716,"value":0},{"number":64,"time":437.0427083333382,"value":0},{"number":64,"time":437.45729166667155,"value":0.12598425196850394},{"number":64,"time":437.4583333333382,"value":0.12598425196850394},{"number":64,"time":437.4656250000049,"value":0.2283464566929134},{"number":64,"time":437.46666666667153,"value":0.2283464566929134},{"number":64,"time":437.4770833333382,"value":0.33070866141732286},{"number":64,"time":437.47812500000487,"value":0.33070866141732286},{"number":64,"time":437.5052083333382,"value":0.44881889763779526},{"number":64,"time":437.50625000000485,"value":0.44881889763779526},{"number":64,"time":437.56562500000484,"value":0.48031496062992124},{"number":64,"time":437.5666666666715,"value":0.48031496062992124},{"number":64,"time":437.68958333333813,"value":0.5118110236220472},{"number":64,"time":437.6906250000048,"value":0.5118110236220472},{"number":64,"time":437.84583333333813,"value":0.48031496062992124},{"number":64,"time":437.8468750000048,"value":0.48031496062992124},{"number":64,"time":437.8729166666715,"value":0.3779527559055118},{"number":64,"time":437.8739583333381,"value":0.3779527559055118},{"number":64,"time":437.8937500000048,"value":0.2755905511811024},{"number":64,"time":437.89479166667144,"value":0.2755905511811024},{"number":64,"time":437.91354166667145,"value":0.14960629921259844},{"number":64,"time":437.9145833333381,"value":0.14960629921259844},{"number":64,"time":437.94166666667144,"value":0.05511811023622047},{"number":64,"time":437.9427083333381,"value":0.05511811023622047},{"number":64,"time":437.95729166667144,"value":0},{"number":64,"time":437.9583333333381,"value":0},{"number":64,"time":438.1250000000048,"value":0.10236220472440945},{"number":64,"time":438.1260416666714,"value":0.10236220472440945},{"number":64,"time":438.1416666666714,"value":0.2047244094488189},{"number":64,"time":438.1427083333381,"value":0.2047244094488189},{"number":64,"time":438.18125000000475,"value":0.33070866141732286},{"number":64,"time":438.1822916666714,"value":0.33070866141732286},{"number":64,"time":438.5010416666714,"value":0.2283464566929134},{"number":64,"time":438.5020833333381,"value":0.2283464566929134},{"number":64,"time":438.6010416666714,"value":0.33070866141732286},{"number":64,"time":438.60208333333804,"value":0.33070866141732286},{"number":64,"time":438.6843750000047,"value":0.44881889763779526},{"number":64,"time":438.6843750000047,"value":0.44881889763779526},{"number":64,"time":438.705208333338,"value":0.48031496062992124},{"number":64,"time":438.7062500000047,"value":0.48031496062992124},{"number":64,"time":438.97395833333803,"value":0.5118110236220472},{"number":64,"time":438.9750000000047,"value":0.5118110236220472},{"number":64,"time":439.13229166667134,"value":0.5433070866141733},{"number":64,"time":439.133333333338,"value":0.5433070866141733},{"number":64,"time":439.19687500000464,"value":0.5826771653543307},{"number":64,"time":439.1979166666713,"value":0.5826771653543307},{"number":64,"time":439.2406250000046,"value":0.6141732283464567},{"number":64,"time":439.2416666666713,"value":0.6141732283464567},{"number":64,"time":439.8000000000046,"value":0.5826771653543307},{"number":64,"time":439.80104166667127,"value":0.5826771653543307},{"number":64,"time":439.8197916666713,"value":0.5511811023622047},{"number":64,"time":439.82083333333793,"value":0.5511811023622047},{"number":64,"time":439.83645833333793,"value":0.5196850393700787},{"number":64,"time":439.8375000000046,"value":0.5196850393700787},{"number":64,"time":439.84791666667127,"value":0.4881889763779528},{"number":64,"time":439.8489583333379,"value":0.4881889763779528},{"number":64,"time":439.8687500000046,"value":0.3779527559055118},{"number":64,"time":439.8687500000046,"value":0.3779527559055118},{"number":64,"time":439.8843750000046,"value":0.2755905511811024},{"number":64,"time":439.8843750000046,"value":0.2755905511811024},{"number":64,"time":439.90104166667123,"value":0.14960629921259844},{"number":64,"time":439.9020833333379,"value":0.14960629921259844},{"number":64,"time":439.91250000000457,"value":0.05511811023622047},{"number":64,"time":439.9135416666712,"value":0.05511811023622047},{"number":64,"time":439.9208333333379,"value":0},{"number":64,"time":439.9208333333379,"value":0},{"number":64,"time":439.9958333333379,"value":0.12598425196850394},{"number":64,"time":439.99687500000454,"value":0.12598425196850394},{"number":64,"time":440.0041666666712,"value":0.2283464566929134},{"number":64,"time":440.00520833333786,"value":0.2283464566929134},{"number":64,"time":440.0166666666712,"value":0.33070866141732286},{"number":64,"time":440.01770833333785,"value":0.33070866141732286},{"number":64,"time":440.0406250000045,"value":0.44881889763779526},{"number":64,"time":440.0416666666712,"value":0.44881889763779526},{"number":64,"time":440.09687500000456,"value":0.48031496062992124},{"number":64,"time":440.09687500000456,"value":0.48031496062992124},{"number":64,"time":440.4645833333379,"value":0.3779527559055118},{"number":64,"time":440.46562500000454,"value":0.3779527559055118},{"number":64,"time":440.4885416666712,"value":0.2755905511811024},{"number":64,"time":440.48958333333786,"value":0.2755905511811024},{"number":64,"time":440.5083333333379,"value":0.18110236220472442},{"number":64,"time":440.5093750000045,"value":0.18110236220472442},{"number":64,"time":440.5239583333379,"value":0.05511811023622047},{"number":64,"time":440.5250000000045,"value":0.05511811023622047},{"number":64,"time":440.53645833333786,"value":0},{"number":64,"time":440.5375000000045,"value":0},{"number":64,"time":441.0270833333378,"value":0.12598425196850394},{"number":64,"time":441.0281250000045,"value":0.12598425196850394},{"number":64,"time":441.0395833333378,"value":0.2283464566929134},{"number":64,"time":441.04062500000447,"value":0.2283464566929134},{"number":64,"time":441.0520833333378,"value":0.33070866141732286},{"number":64,"time":441.0520833333378,"value":0.33070866141732286},{"number":64,"time":441.0750000000045,"value":0.44881889763779526},{"number":64,"time":441.07604166667113,"value":0.44881889763779526},{"number":64,"time":441.10729166667113,"value":0.48031496062992124},{"number":64,"time":441.1083333333378,"value":0.48031496062992124},{"number":64,"time":441.1635416666711,"value":0.5118110236220472},{"number":64,"time":441.16458333333776,"value":0.5118110236220472},{"number":64,"time":441.2156250000044,"value":0.5433070866141733},{"number":64,"time":441.2166666666711,"value":0.5433070866141733},{"number":64,"time":441.27604166667106,"value":0.5748031496062992},{"number":64,"time":441.2770833333377,"value":0.5748031496062992},{"number":64,"time":441.36354166667104,"value":0.6062992125984252},{"number":64,"time":441.3645833333377,"value":0.6062992125984252},{"number":64,"time":441.43125000000435,"value":0.6377952755905512},{"number":64,"time":441.43125000000435,"value":0.6377952755905512},{"number":64,"time":443.8145833333377,"value":0.6062992125984252},{"number":64,"time":443.81562500000433,"value":0.6062992125984252},{"number":64,"time":443.8489583333377,"value":0.5748031496062992},{"number":64,"time":443.85000000000434,"value":0.5748031496062992},{"number":64,"time":443.872916666671,"value":0.5433070866141733},{"number":64,"time":443.87395833333767,"value":0.5433070866141733},{"number":64,"time":443.8906250000043,"value":0.5118110236220472},{"number":64,"time":443.891666666671,"value":0.5118110236220472},{"number":64,"time":443.90104166667095,"value":0.48031496062992124},{"number":64,"time":443.9020833333376,"value":0.48031496062992124},{"number":64,"time":443.9177083333376,"value":0.3779527559055118},{"number":64,"time":443.9177083333376,"value":0.3779527559055118},{"number":64,"time":443.92916666667094,"value":0.2755905511811024},{"number":64,"time":443.92916666667094,"value":0.2755905511811024},{"number":64,"time":443.9416666666709,"value":0.18110236220472442},{"number":64,"time":443.9416666666709,"value":0.18110236220472442},{"number":64,"time":443.9489583333376,"value":0.07874015748031496},{"number":64,"time":443.95000000000425,"value":0.07874015748031496},{"number":64,"time":443.9572916666709,"value":0},{"number":64,"time":443.9583333333376,"value":0},{"number":64,"time":444.27291666667094,"value":0.12598425196850394},{"number":64,"time":444.2739583333376,"value":0.12598425196850394},{"number":64,"time":444.28125000000426,"value":0.2283464566929134},{"number":64,"time":444.2822916666709,"value":0.2283464566929134},{"number":64,"time":444.29687500000426,"value":0.33070866141732286},{"number":64,"time":444.2979166666709,"value":0.33070866141732286},{"number":64,"time":444.3177083333376,"value":0.44881889763779526},{"number":64,"time":444.3177083333376,"value":0.44881889763779526},{"number":64,"time":444.3333333333376,"value":0.48031496062992124},{"number":64,"time":444.33437500000423,"value":0.48031496062992124},{"number":64,"time":444.3854166666709,"value":0.5118110236220472},{"number":64,"time":444.38645833333754,"value":0.5118110236220472},{"number":64,"time":444.43333333333754,"value":0.5433070866141733},{"number":64,"time":444.4343750000042,"value":0.5433070866141733},{"number":64,"time":444.51354166667085,"value":0.5748031496062992},{"number":64,"time":444.5145833333375,"value":0.5748031496062992},{"number":64,"time":444.64062500000415,"value":0.6062992125984252},{"number":64,"time":444.6416666666708,"value":0.6062992125984252},{"number":64,"time":446.3197916666708,"value":0.5748031496062992},{"number":64,"time":446.3208333333375,"value":0.5748031496062992},{"number":64,"time":446.3364583333375,"value":0.5433070866141733},{"number":64,"time":446.3375000000041,"value":0.5433070866141733},{"number":64,"time":446.34375000000415,"value":0.5118110236220472},{"number":64,"time":446.3447916666708,"value":0.5118110236220472},{"number":64,"time":446.3520833333375,"value":0.48031496062992124},{"number":64,"time":446.3531250000041,"value":0.48031496062992124},{"number":64,"time":446.4635416666708,"value":0.5118110236220472},{"number":64,"time":446.46458333333743,"value":0.5118110236220472},{"number":64,"time":446.49583333333743,"value":0.5433070866141733},{"number":64,"time":446.4968750000041,"value":0.5433070866141733},{"number":64,"time":446.54791666667074,"value":0.5748031496062992},{"number":64,"time":446.5489583333374,"value":0.5748031496062992},{"number":64,"time":447.1364583333374,"value":0.5354330708661418},{"number":64,"time":447.1364583333374,"value":0.5354330708661418},{"number":64,"time":447.1479166666707,"value":0.49606299212598426},{"number":64,"time":447.14895833333736,"value":0.49606299212598426},{"number":64,"time":447.16458333333736,"value":0.3779527559055118},{"number":64,"time":447.16458333333736,"value":0.3779527559055118},{"number":64,"time":447.18020833333736,"value":0.2755905511811024},{"number":64,"time":447.181250000004,"value":0.2755905511811024},{"number":64,"time":447.19583333333736,"value":0.18110236220472442},{"number":64,"time":447.196875000004,"value":0.18110236220472442},{"number":64,"time":447.2041666666707,"value":0.07874015748031496},{"number":64,"time":447.20520833333734,"value":0.07874015748031496},{"number":64,"time":447.212500000004,"value":0},{"number":64,"time":447.212500000004,"value":0},{"number":64,"time":447.471875000004,"value":0.12598425196850394},{"number":64,"time":447.471875000004,"value":0.12598425196850394},{"number":64,"time":447.4802083333373,"value":0.2283464566929134},{"number":64,"time":447.48125000000397,"value":0.2283464566929134},{"number":64,"time":447.487500000004,"value":0.33070866141732286},{"number":64,"time":447.48854166667064,"value":0.33070866141732286},{"number":64,"time":447.5083333333373,"value":0.47244094488188976},{"number":64,"time":447.50937500000396,"value":0.47244094488188976},{"number":64,"time":447.5677083333373,"value":0.5039370078740157},{"number":64,"time":447.56875000000394,"value":0.5039370078740157},{"number":64,"time":447.6041666666706,"value":0.5354330708661418},{"number":64,"time":447.60520833333726,"value":0.5354330708661418},{"number":64,"time":447.6843750000039,"value":0.5669291338582677},{"number":64,"time":447.68541666667056,"value":0.5669291338582677},{"number":64,"time":447.7437500000039,"value":0.5984251968503937},{"number":64,"time":447.74479166667055,"value":0.5984251968503937},{"number":64,"time":450.23437500000387,"value":0.5669291338582677},{"number":64,"time":450.2354166666705,"value":0.5669291338582677},{"number":64,"time":450.2552083333372,"value":0.5354330708661418},{"number":64,"time":450.25625000000383,"value":0.5354330708661418},{"number":64,"time":450.2656250000038,"value":0.5039370078740157},{"number":64,"time":450.26666666667046,"value":0.5039370078740157},{"number":64,"time":450.2781250000038,"value":0.47244094488188976},{"number":64,"time":450.27916666667045,"value":0.47244094488188976},{"number":64,"time":450.2937500000038,"value":0.3779527559055118},{"number":64,"time":450.29479166667045,"value":0.3779527559055118},{"number":64,"time":450.3072916666705,"value":0.2755905511811024},{"number":64,"time":450.30833333333715,"value":0.2755905511811024},{"number":64,"time":450.3177083333371,"value":0.18110236220472442},{"number":64,"time":450.3187500000038,"value":0.18110236220472442},{"number":64,"time":450.32604166667045,"value":0.05511811023622047},{"number":64,"time":450.3270833333371,"value":0.05511811023622047},{"number":64,"time":450.3302083333371,"value":0},{"number":64,"time":450.33125000000376,"value":0},{"number":64,"time":450.6614583333371,"value":0.10236220472440945},{"number":64,"time":450.6625000000038,"value":0.10236220472440945},{"number":64,"time":450.6781250000038,"value":0.2283464566929134},{"number":64,"time":450.6791666666704,"value":0.2283464566929134},{"number":64,"time":450.69791666667044,"value":0.33070866141732286},{"number":64,"time":450.6989583333371,"value":0.33070866141732286},{"number":64,"time":450.72187500000376,"value":0.44881889763779526},{"number":64,"time":450.7229166666704,"value":0.44881889763779526},{"number":64,"time":450.73437500000375,"value":0.48031496062992124},{"number":64,"time":450.73437500000375,"value":0.48031496062992124},{"number":64,"time":450.7895833333371,"value":0.5118110236220472},{"number":64,"time":450.79062500000373,"value":0.5118110236220472},{"number":64,"time":450.83020833333705,"value":0.5433070866141733},{"number":64,"time":450.8312500000037,"value":0.5433070866141733},{"number":64,"time":450.8781250000037,"value":0.5748031496062992},{"number":64,"time":450.87916666667036,"value":0.5748031496062992},{"number":64,"time":450.9218750000037,"value":0.6062992125984252},{"number":64,"time":450.9218750000037,"value":0.6062992125984252},{"number":64,"time":450.96666666667033,"value":0.6377952755905512},{"number":64,"time":450.967708333337,"value":0.6377952755905512},{"number":64,"time":451.06250000000364,"value":0.7322834645669292},{"number":64,"time":451.0635416666703,"value":0.7322834645669292},{"number":64,"time":457.545833333337,"value":0.6535433070866141},{"number":64,"time":457.54687500000364,"value":0.6535433070866141},{"number":64,"time":457.5697916666703,"value":0.6220472440944882},{"number":64,"time":457.57083333333696,"value":0.6220472440944882},{"number":64,"time":457.5854166666703,"value":0.5905511811023622},{"number":64,"time":457.58645833333696,"value":0.5905511811023622},{"number":64,"time":457.5979166666703,"value":0.5511811023622047},{"number":64,"time":457.59895833333695,"value":0.5511811023622047},{"number":64,"time":457.605208333337,"value":0.5196850393700787},{"number":64,"time":457.6062500000036,"value":0.5196850393700787},{"number":64,"time":457.61458333333695,"value":0.48031496062992124},{"number":64,"time":457.61458333333695,"value":0.48031496062992124},{"number":64,"time":457.62708333333694,"value":0.3779527559055118},{"number":64,"time":457.62708333333694,"value":0.3779527559055118},{"number":64,"time":457.6375000000036,"value":0.25196850393700787},{"number":64,"time":457.6385416666703,"value":0.25196850393700787},{"number":64,"time":457.6500000000036,"value":0.12598425196850394},{"number":64,"time":457.65104166667027,"value":0.12598425196850394},{"number":64,"time":457.6572916666703,"value":0},{"number":64,"time":457.65833333333694,"value":0},{"number":64,"time":457.9531250000036,"value":0.12598425196850394},{"number":64,"time":457.95416666667023,"value":0.12598425196850394},{"number":64,"time":457.9614583333369,"value":0.2283464566929134},{"number":64,"time":457.96250000000356,"value":0.2283464566929134},{"number":64,"time":457.9739583333369,"value":0.33070866141732286},{"number":64,"time":457.97500000000355,"value":0.33070866141732286},{"number":64,"time":457.99375000000356,"value":0.44881889763779526},{"number":64,"time":457.9947916666702,"value":0.44881889763779526},{"number":64,"time":458.00937500000356,"value":0.48031496062992124},{"number":64,"time":458.0104166666702,"value":0.48031496062992124},{"number":64,"time":458.0614583333369,"value":0.5118110236220472},{"number":64,"time":458.0625000000035,"value":0.5118110236220472},{"number":64,"time":458.0979166666702,"value":0.5433070866141733},{"number":64,"time":458.09895833333684,"value":0.5433070866141733},{"number":64,"time":458.1500000000035,"value":0.5748031496062992},{"number":64,"time":458.15104166667015,"value":0.5748031496062992},{"number":64,"time":458.2020833333368,"value":0.6062992125984252},{"number":64,"time":458.2020833333368,"value":0.6062992125984252},{"number":64,"time":460.7927083333368,"value":0.5748031496062992},{"number":64,"time":460.79375000000346,"value":0.5748031496062992},{"number":64,"time":460.8083333333368,"value":0.5433070866141733},{"number":64,"time":460.80937500000346,"value":0.5433070866141733},{"number":64,"time":460.81666666667013,"value":0.5118110236220472},{"number":64,"time":460.8177083333368,"value":0.5118110236220472},{"number":64,"time":460.82500000000346,"value":0.48031496062992124},{"number":64,"time":460.82500000000346,"value":0.48031496062992124},{"number":64,"time":460.84062500000346,"value":0.3779527559055118},{"number":64,"time":460.8416666666701,"value":0.3779527559055118},{"number":64,"time":460.85625000000346,"value":0.2755905511811024},{"number":64,"time":460.8572916666701,"value":0.2755905511811024},{"number":64,"time":460.8729166666701,"value":0.14960629921259844},{"number":64,"time":460.8729166666701,"value":0.14960629921259844},{"number":64,"time":460.8802083333368,"value":0.031496062992125984},{"number":64,"time":460.88125000000343,"value":0.031496062992125984},{"number":64,"time":460.88437500000344,"value":0},{"number":64,"time":460.88437500000344,"value":0},{"number":64,"time":461.1729166666701,"value":0.12598425196850394},{"number":64,"time":461.1729166666701,"value":0.12598425196850394},{"number":64,"time":461.18437500000346,"value":0.2283464566929134},{"number":64,"time":461.18437500000346,"value":0.2283464566929134},{"number":64,"time":461.2010416666701,"value":0.33070866141732286},{"number":64,"time":461.20208333333676,"value":0.33070866141732286},{"number":64,"time":461.23645833333677,"value":0.44881889763779526},{"number":64,"time":461.2375000000034,"value":0.44881889763779526},{"number":64,"time":461.25625000000343,"value":0.48031496062992124},{"number":64,"time":461.2572916666701,"value":0.48031496062992124},{"number":64,"time":461.3000000000034,"value":0.5196850393700787},{"number":64,"time":461.3010416666701,"value":0.5196850393700787},{"number":64,"time":461.35208333333674,"value":0.5511811023622047},{"number":64,"time":461.3531250000034,"value":0.5511811023622047},{"number":64,"time":461.4364583333367,"value":0.5826771653543307},{"number":64,"time":461.43750000000335,"value":0.5826771653543307},{"number":64,"time":461.56041666667,"value":0.6141732283464567},{"number":64,"time":461.56145833333665,"value":0.6141732283464567},{"number":64,"time":463.95000000000334,"value":0.5826771653543307},{"number":64,"time":463.95104166667,"value":0.5826771653543307},{"number":64,"time":463.98958333333667,"value":0.5511811023622047},{"number":64,"time":463.9906250000033,"value":0.5511811023622047},{"number":64,"time":464.00520833333667,"value":0.5196850393700787},{"number":64,"time":464.0062500000033,"value":0.5196850393700787},{"number":64,"time":464.01770833333666,"value":0.4881889763779528},{"number":64,"time":464.0187500000033,"value":0.4881889763779528},{"number":64,"time":464.03333333333666,"value":0.4015748031496063},{"number":64,"time":464.0343750000033,"value":0.4015748031496063},{"number":64,"time":464.0500000000033,"value":0.2992125984251969},{"number":64,"time":464.05104166666996,"value":0.2992125984251969},{"number":64,"time":464.0614583333366,"value":0.18110236220472442},{"number":64,"time":464.06250000000324,"value":0.18110236220472442},{"number":64,"time":464.0697916666699,"value":0.07874015748031496},{"number":64,"time":464.0697916666699,"value":0.07874015748031496},{"number":64,"time":464.0770833333366,"value":0},{"number":64,"time":464.07812500000324,"value":0},{"number":64,"time":464.4135416666699,"value":0.10236220472440945},{"number":64,"time":464.41458333333657,"value":0.10236220472440945},{"number":64,"time":464.4208333333366,"value":0.2047244094488189},{"number":64,"time":464.42187500000324,"value":0.2047244094488189},{"number":64,"time":464.43750000000324,"value":0.33070866141732286},{"number":64,"time":464.4385416666699,"value":0.33070866141732286},{"number":64,"time":464.46145833333657,"value":0.44881889763779526},{"number":64,"time":464.4625000000032,"value":0.44881889763779526},{"number":64,"time":464.47708333333657,"value":0.48031496062992124},{"number":64,"time":464.4781250000032,"value":0.48031496062992124},{"number":64,"time":464.5250000000032,"value":0.5196850393700787},{"number":64,"time":464.52604166666987,"value":0.5196850393700787},{"number":64,"time":464.5656250000032,"value":0.5511811023622047},{"number":64,"time":464.56666666666985,"value":0.5511811023622047},{"number":64,"time":464.64166666666983,"value":0.5826771653543307},{"number":64,"time":464.6427083333365,"value":0.5826771653543307},{"number":64,"time":464.7333333333365,"value":0.6141732283464567},{"number":64,"time":464.7343750000031,"value":0.6141732283464567},{"number":64,"time":470.47500000000315,"value":0.5826771653543307},{"number":64,"time":470.47500000000315,"value":0.5826771653543307},{"number":64,"time":470.5000000000031,"value":0.5511811023622047},{"number":64,"time":470.5010416666698,"value":0.5511811023622047},{"number":64,"time":470.5145833333364,"value":0.5196850393700787},{"number":64,"time":470.51562500000307,"value":0.5196850393700787},{"number":64,"time":470.53125000000307,"value":0.4881889763779528},{"number":64,"time":470.5322916666697,"value":0.4881889763779528},{"number":64,"time":470.55937500000306,"value":0.4015748031496063},{"number":64,"time":470.5604166666697,"value":0.4015748031496063},{"number":64,"time":470.5864583333364,"value":0.2992125984251969},{"number":64,"time":470.58750000000305,"value":0.2992125984251969},{"number":64,"time":470.6114583333364,"value":0.2047244094488189},{"number":64,"time":470.6114583333364,"value":0.2047244094488189},{"number":64,"time":470.6229166666697,"value":0.10236220472440945},{"number":64,"time":470.62395833333636,"value":0.10236220472440945},{"number":64,"time":470.6385416666697,"value":0},{"number":64,"time":470.63958333333636,"value":0},{"number":64,"time":471.37395833333636,"value":0.12598425196850394},{"number":64,"time":471.37395833333636,"value":0.12598425196850394},{"number":64,"time":471.3822916666697,"value":0.2283464566929134},{"number":64,"time":471.38333333333634,"value":0.2283464566929134},{"number":64,"time":471.393750000003,"value":0.33070866141732286},{"number":64,"time":471.3947916666697,"value":0.33070866141732286},{"number":64,"time":471.41458333333634,"value":0.44881889763779526},{"number":64,"time":471.41458333333634,"value":0.44881889763779526},{"number":64,"time":471.44583333333634,"value":0.48031496062992124},{"number":64,"time":471.446875000003,"value":0.48031496062992124},{"number":64,"time":471.478125000003,"value":0.5196850393700787},{"number":64,"time":471.47916666666964,"value":0.5196850393700787},{"number":64,"time":471.506250000003,"value":0.5511811023622047},{"number":64,"time":471.50729166666963,"value":0.5511811023622047},{"number":64,"time":471.56250000000296,"value":0.5826771653543307},{"number":64,"time":471.5635416666696,"value":0.5826771653543307},{"number":64,"time":471.6177083333363,"value":0.6141732283464567},{"number":64,"time":471.61875000000293,"value":0.6141732283464567},{"number":64,"time":474.93958333333626,"value":0.5748031496062992},{"number":64,"time":474.9406250000029,"value":0.5748031496062992},{"number":64,"time":474.96770833333625,"value":0.5354330708661418},{"number":64,"time":474.9687500000029,"value":0.5354330708661418},{"number":64,"time":474.9843750000029,"value":0.5039370078740157},{"number":64,"time":474.9843750000029,"value":0.5039370078740157},{"number":64,"time":475.01145833333624,"value":0.4015748031496063},{"number":64,"time":475.0125000000029,"value":0.4015748031496063},{"number":64,"time":475.0281250000029,"value":0.2755905511811024},{"number":64,"time":475.02916666666954,"value":0.2755905511811024},{"number":64,"time":475.0395833333362,"value":0.18110236220472442},{"number":64,"time":475.0406250000029,"value":0.18110236220472442},{"number":64,"time":475.04791666666955,"value":0.07874015748031496},{"number":64,"time":475.04791666666955,"value":0.07874015748031496},{"number":64,"time":475.0562500000029,"value":0},{"number":64,"time":475.0562500000029,"value":0},{"number":64,"time":475.3041666666695,"value":0.12598425196850394},{"number":64,"time":475.30520833333617,"value":0.12598425196850394},{"number":64,"time":475.3114583333362,"value":0.2283464566929134},{"number":64,"time":475.31250000000284,"value":0.2283464566929134},{"number":64,"time":475.3229166666695,"value":0.33070866141732286},{"number":64,"time":475.3239583333362,"value":0.33070866141732286},{"number":64,"time":475.36770833333617,"value":0.44881889763779526},{"number":64,"time":475.36770833333617,"value":0.44881889763779526},{"number":64,"time":475.4041666666695,"value":0.48031496062992124},{"number":64,"time":475.40520833333613,"value":0.48031496062992124},{"number":64,"time":475.44791666666947,"value":0.5118110236220472},{"number":64,"time":475.44791666666947,"value":0.5118110236220472},{"number":64,"time":475.5760416666695,"value":0.5433070866141733},{"number":64,"time":475.57708333333613,"value":0.5433070866141733},{"number":64,"time":475.6958333333361,"value":0.5748031496062992},{"number":64,"time":475.69687500000276,"value":0.5748031496062992},{"number":64,"time":476.0552083333361,"value":0.6062992125984252},{"number":64,"time":476.05625000000276,"value":0.6062992125984252},{"number":64,"time":479.30625000000276,"value":0.5748031496062992},{"number":64,"time":479.30625000000276,"value":0.5748031496062992},{"number":64,"time":479.3333333333361,"value":0.5433070866141733},{"number":64,"time":479.33437500000275,"value":0.5433070866141733},{"number":64,"time":479.3458333333361,"value":0.5118110236220472},{"number":64,"time":479.34687500000274,"value":0.5118110236220472},{"number":64,"time":479.3541666666694,"value":0.48031496062992124},{"number":64,"time":479.3541666666694,"value":0.48031496062992124},{"number":64,"time":479.3697916666694,"value":0.3779527559055118},{"number":64,"time":479.37083333333607,"value":0.3779527559055118},{"number":64,"time":479.3895833333361,"value":0.2755905511811024},{"number":64,"time":479.3895833333361,"value":0.2755905511811024},{"number":64,"time":479.40625000000273,"value":0.18110236220472442},{"number":64,"time":479.4072916666694,"value":0.18110236220472442},{"number":64,"time":479.41458333333605,"value":0.07874015748031496},{"number":64,"time":479.4156250000027,"value":0.07874015748031496},{"number":64,"time":479.42187500000273,"value":0},{"number":64,"time":479.4229166666694,"value":0},{"number":64,"time":479.94895833333607,"value":0.12598425196850394},{"number":64,"time":479.9500000000027,"value":0.12598425196850394},{"number":64,"time":479.9604166666694,"value":0.2283464566929134},{"number":64,"time":479.96145833333605,"value":0.2283464566929134},{"number":64,"time":480.0125000000027,"value":0.33070866141732286},{"number":64,"time":480.01354166666937,"value":0.33070866141732286},{"number":64,"time":480.04895833333603,"value":0.44881889763779526},{"number":64,"time":480.0500000000027,"value":0.44881889763779526},{"number":64,"time":480.06458333333603,"value":0.48031496062992124},{"number":64,"time":480.06458333333603,"value":0.48031496062992124},{"number":64,"time":480.0968750000027,"value":0.5118110236220472},{"number":64,"time":480.09791666666933,"value":0.5118110236220472},{"number":64,"time":480.192708333336,"value":0.5433070866141733},{"number":64,"time":480.19375000000264,"value":0.5433070866141733},{"number":64,"time":480.30833333333595,"value":0.5748031496062992},{"number":64,"time":480.3093750000026,"value":0.5748031496062992},{"number":64,"time":480.48020833333595,"value":0.6062992125984252},{"number":64,"time":480.4812500000026,"value":0.6062992125984252},{"number":64,"time":480.71666666666925,"value":0.6377952755905512},{"number":64,"time":480.71666666666925,"value":0.6377952755905512},{"number":64,"time":482.2156250000026,"value":0.7322834645669292},{"number":64,"time":482.21666666666925,"value":0.7322834645669292},{"number":64,"time":482.4958333333359,"value":0.8267716535433071},{"number":64,"time":482.49687500000255,"value":0.8267716535433071},{"number":64,"time":489.4739583333359,"value":0.7322834645669292},{"number":64,"time":489.4750000000025,"value":0.7322834645669292},{"number":64,"time":490.3020833333359,"value":0.6535433070866141},{"number":64,"time":490.3031250000025,"value":0.6535433070866141},{"number":64,"time":490.4822916666692,"value":0.6220472440944882},{"number":64,"time":490.48333333333585,"value":0.6220472440944882},{"number":64,"time":490.63437500000254,"value":0.5905511811023622},{"number":64,"time":490.6354166666692,"value":0.5905511811023622},{"number":64,"time":490.89479166666916,"value":0.5590551181102362},{"number":64,"time":490.89479166666916,"value":0.5590551181102362},{"number":64,"time":491.0020833333358,"value":0.5275590551181102},{"number":64,"time":491.00312500000246,"value":0.5275590551181102},{"number":64,"time":491.0583333333358,"value":0.49606299212598426},{"number":64,"time":491.05937500000243,"value":0.49606299212598426},{"number":64,"time":491.1666666666691,"value":0.4015748031496063},{"number":64,"time":491.1666666666691,"value":0.4015748031496063},{"number":64,"time":491.31458333333575,"value":0.2992125984251969},{"number":64,"time":491.31458333333575,"value":0.2992125984251969},{"number":64,"time":491.42083333333574,"value":0.2047244094488189},{"number":64,"time":491.4218750000024,"value":0.2047244094488189},{"number":64,"time":491.52500000000236,"value":0.10236220472440945},{"number":64,"time":491.526041666669,"value":0.10236220472440945},{"number":64,"time":491.585416666669,"value":0},{"number":64,"time":491.585416666669,"value":0}],"66":[{"number":66,"time":433.4687500000052,"value":1},{"number":66,"time":433.4697916666718,"value":1},{"number":66,"time":437.67708333333815,"value":0},{"number":66,"time":437.6781250000048,"value":0}],"67":[{"number":67,"time":37.51354166666664,"value":0.8976377952755905},{"number":67,"time":37.51354166666664,"value":0.8976377952755905},{"number":67,"time":42.43333333333324,"value":0.8346456692913385},{"number":67,"time":42.4343749999999,"value":0.8346456692913385},{"number":67,"time":42.47708333333323,"value":0.7795275590551181},{"number":67,"time":42.4781249999999,"value":0.7795275590551181},{"number":67,"time":42.510416666666565,"value":0.7244094488188977},{"number":67,"time":42.510416666666565,"value":0.7244094488188977},{"number":67,"time":42.5499999999999,"value":0.6614173228346457},{"number":67,"time":42.5499999999999,"value":0.6614173228346457},{"number":67,"time":42.94479166666657,"value":0.6062992125984252},{"number":67,"time":42.94583333333323,"value":0.6062992125984252},{"number":67,"time":43.144791666666556,"value":0.5433070866141733},{"number":67,"time":43.14583333333322,"value":0.5433070866141733},{"number":67,"time":43.19270833333322,"value":0.4881889763779528},{"number":67,"time":43.19374999999989,"value":0.4881889763779528},{"number":67,"time":43.25312499999988,"value":0.4330708661417323},{"number":67,"time":43.25416666666655,"value":0.4330708661417323},{"number":67,"time":43.32916666666655,"value":0.3700787401574803},{"number":67,"time":43.33020833333322,"value":0.3700787401574803},{"number":67,"time":43.48124999999988,"value":0.31496062992125984},{"number":67,"time":43.48229166666655,"value":0.31496062992125984},{"number":67,"time":46.6197916666665,"value":0.25196850393700787},{"number":67,"time":46.62083333333317,"value":0.25196850393700787},{"number":67,"time":47.394791666666485,"value":0.1968503937007874},{"number":67,"time":47.39583333333315,"value":0.1968503937007874},{"number":67,"time":47.798958333333154,"value":0.14173228346456693},{"number":67,"time":47.79999999999982,"value":0.14173228346456693},{"number":67,"time":51.028124999999825,"value":0.07874015748031496},{"number":67,"time":51.02916666666649,"value":0.07874015748031496},{"number":67,"time":53.007291666666475,"value":0.023622047244094488},{"number":67,"time":53.00833333333314,"value":0.023622047244094488},{"number":67,"time":53.09999999999981,"value":0},{"number":67,"time":53.101041666666475,"value":0}]},"id":1,"name":"EW-API#24","channelNumber":0,"isPercussion":false},{"startTime":0.86875,"duration":480.8625000000005,"length":1255,"notes":[{"name":"G#5","midi":80,"time":0.86875,"velocity":0.31496062992125984,"duration":0.15104166666666663},{"name":"A5","midi":81,"time":1.0489583333333332,"velocity":0.2440944881889764,"duration":0.059374999999999956},{"name":"G#5","midi":80,"time":1.2406249999999999,"velocity":0.3228346456692913,"duration":0.15416666666666656},{"name":"A5","midi":81,"time":1.4020833333333331,"velocity":0.30708661417322836,"duration":0.078125},{"name":"G#5","midi":80,"time":1.6354166666666665,"velocity":0.2755905511811024,"duration":0.1395833333333334},{"name":"A5","midi":81,"time":1.7739583333333333,"velocity":0.33070866141732286,"duration":0.07187499999999991},{"name":"G#5","midi":80,"time":2.009375,"velocity":0.33858267716535434,"duration":0.1781250000000001},{"name":"A5","midi":81,"time":2.1625,"velocity":0.33858267716535434,"duration":0.07708333333333339},{"name":"G#5","midi":80,"time":2.4083333333333337,"velocity":0.3464566929133858,"duration":0.1729166666666666},{"name":"A5","midi":81,"time":2.5781250000000004,"velocity":0.33858267716535434,"duration":0.06770833333333304},{"name":"G#5","midi":80,"time":2.8114583333333334,"velocity":0.36220472440944884,"duration":0.15833333333333321},{"name":"A5","midi":81,"time":2.9729166666666664,"velocity":0.33070866141732286,"duration":0.0625},{"name":"G#5","midi":80,"time":3.1979166666666665,"velocity":0.3543307086614173,"duration":0.17604166666666643},{"name":"A5","midi":81,"time":3.339583333333333,"velocity":0.3228346456692913,"duration":0.06874999999999964},{"name":"G#5","midi":80,"time":3.5937499999999996,"velocity":0.36220472440944884,"duration":0.15208333333333313},{"name":"A5","midi":81,"time":3.7624999999999993,"velocity":0.25196850393700787,"duration":0.030208333333333393},{"name":"G#5","midi":80,"time":3.969791666666666,"velocity":0.3858267716535433,"duration":0.17604166666666687},{"name":"A5","midi":81,"time":4.130208333333333,"velocity":0.3464566929133858,"duration":0.078125},{"name":"G#5","midi":80,"time":4.383333333333333,"velocity":0.3543307086614173,"duration":0.16249999999999964},{"name":"A5","midi":81,"time":4.538541666666666,"velocity":0.3543307086614173,"duration":0.05520833333333286},{"name":"G#5","midi":80,"time":4.761458333333333,"velocity":0.3937007874015748,"duration":0.1572916666666666},{"name":"A5","midi":81,"time":4.902083333333333,"velocity":0.36220472440944884,"duration":0.06562499999999982},{"name":"G#5","midi":80,"time":5.172916666666666,"velocity":0.3937007874015748,"duration":0.12083333333333268},{"name":"A5","midi":81,"time":5.286458333333332,"velocity":0.3543307086614173,"duration":0.061458333333332504},{"name":"G#5","midi":80,"time":5.559374999999998,"velocity":0.4330708661417323,"duration":0.1270833333333341},{"name":"A5","midi":81,"time":5.677083333333332,"velocity":0.36220472440944884,"duration":0.06770833333333393},{"name":"G#5","midi":80,"time":5.944791666666666,"velocity":0.3779527559055118,"duration":0.1416666666666666},{"name":"A5","midi":81,"time":6.063541666666667,"velocity":0.3700787401574803,"duration":0.08333333333333304},{"name":"G#5","midi":80,"time":6.3374999999999995,"velocity":0.3700787401574803,"duration":0.15208333333333357},{"name":"A5","midi":81,"time":6.477083333333333,"velocity":0.29133858267716534,"duration":0.08645833333333375},{"name":"G#5","midi":80,"time":6.748958333333333,"velocity":0.29133858267716534,"duration":0.14895833333333375},{"name":"A5","midi":81,"time":6.901041666666667,"velocity":0.33858267716535434,"duration":0.05729166666666696},{"name":"E5","midi":76,"time":7.2510416666666675,"velocity":0.41732283464566927,"duration":0.13229166666666625},{"name":"F#5","midi":78,"time":7.3500000000000005,"velocity":0.44881889763779526,"duration":0.06458333333333321},{"name":"E5","midi":76,"time":7.670833333333333,"velocity":0.36220472440944884,"duration":0.04583333333333339},{"name":"F#5","midi":78,"time":7.744791666666667,"velocity":0.48031496062992124,"duration":0.08750000000000036},{"name":"F#5","midi":78,"time":8.035416666666666,"velocity":0.5118110236220472,"duration":0.11562499999999964},{"name":"G#5","midi":80,"time":8.16875,"velocity":0.5275590551181102,"duration":0.09062499999999929},{"name":"F#5","midi":78,"time":8.417708333333332,"velocity":0.4645669291338583,"duration":0.12187499999999929},{"name":"G#5","midi":80,"time":8.542708333333332,"velocity":0.4330708661417323,"duration":0.0770833333333325},{"name":"G#5","midi":80,"time":8.797916666666664,"velocity":0.4094488188976378,"duration":0.16562499999999858},{"name":"A5","midi":81,"time":8.94895833333333,"velocity":0.4330708661417323,"duration":0.06458333333333321},{"name":"G#5","midi":80,"time":9.24895833333333,"velocity":0.4330708661417323,"duration":0.12291666666666679},{"name":"A5","midi":81,"time":9.374999999999998,"velocity":0.3858267716535433,"duration":0.057291666666666075},{"name":"G#5","midi":80,"time":9.659374999999997,"velocity":0.4251968503937008,"duration":0.14270833333333321},{"name":"A5","midi":81,"time":9.788541666666664,"velocity":0.3937007874015748,"duration":0.08854166666666607},{"name":"G#5","midi":80,"time":10.068749999999996,"velocity":0.4330708661417323,"duration":0.1687499999999993},{"name":"A5","midi":81,"time":10.207291666666663,"velocity":0.36220472440944884,"duration":0.08854166666666607},{"name":"G#5","midi":80,"time":10.482291666666661,"velocity":0.44881889763779526,"duration":0.14687499999999964},{"name":"A5","midi":81,"time":10.595833333333328,"velocity":0.33858267716535434,"duration":0.07499999999999929},{"name":"G#5","midi":80,"time":10.874999999999995,"velocity":0.4330708661417323,"duration":0.16770833333333357},{"name":"A5","midi":81,"time":11.029166666666661,"velocity":0.33858267716535434,"duration":0.06874999999999964},{"name":"G#5","midi":80,"time":11.271874999999994,"velocity":0.4251968503937008,"duration":0.19062499999999893},{"name":"A5","midi":81,"time":11.40729166666666,"velocity":0.3700787401574803,"duration":0.08124999999999893},{"name":"G#5","midi":80,"time":11.69166666666666,"velocity":0.4015748031496063,"duration":0.16979166666666679},{"name":"A5","midi":81,"time":11.820833333333326,"velocity":0.3464566929133858,"duration":0.07500000000000107},{"name":"G#5","midi":80,"time":12.08541666666666,"velocity":0.4251968503937008,"duration":0.173958333333335},{"name":"A5","midi":81,"time":12.242708333333328,"velocity":0.3779527559055118,"duration":0.078125},{"name":"G#5","midi":80,"time":12.53229166666666,"velocity":0.4251968503937008,"duration":0.14895833333333286},{"name":"A5","midi":81,"time":12.65416666666666,"velocity":0.3779527559055118,"duration":0.07083333333333286},{"name":"G#5","midi":80,"time":12.902083333333326,"velocity":0.3779527559055118,"duration":0.15833333333333321},{"name":"A5","midi":81,"time":13.07604166666666,"velocity":0.3228346456692913,"duration":0.08229166666666643},{"name":"G#5","midi":80,"time":13.33229166666666,"velocity":0.3858267716535433,"duration":0.18020833333333286},{"name":"A5","midi":81,"time":13.494791666666659,"velocity":0.3464566929133858,"duration":0.07083333333333286},{"name":"E5","midi":76,"time":13.849999999999993,"velocity":0.44881889763779526,"duration":0.1708333333333325},{"name":"F#5","midi":78,"time":13.971874999999992,"velocity":0.44881889763779526,"duration":0.09687500000000071},{"name":"E5","midi":76,"time":14.239583333333325,"velocity":0.4409448818897638,"duration":0.08541666666666714},{"name":"F#5","midi":78,"time":14.342708333333325,"velocity":0.5590551181102362,"duration":0.078125},{"name":"F#5","midi":78,"time":14.630208333333325,"velocity":0.5118110236220472,"duration":0.13437500000000036},{"name":"G#5","midi":80,"time":14.768749999999992,"velocity":0.5826771653543307,"duration":0.10104166666666714},{"name":"F#5","midi":78,"time":15.034374999999992,"velocity":0.5590551181102362,"duration":0.171875},{"name":"G#5","midi":80,"time":15.19166666666666,"velocity":0.5669291338582677,"duration":0.10312499999999858},{"name":"D5","midi":74,"time":15.439583333333324,"velocity":0.4251968503937008,"duration":0.14583333333333393},{"name":"E5","midi":76,"time":15.595833333333324,"velocity":0.4330708661417323,"duration":0.061458333333332504},{"name":"D5","midi":74,"time":15.869791666666657,"velocity":0.4645669291338583,"duration":0.1104166666666675},{"name":"E5","midi":76,"time":16.005208333333325,"velocity":0.3700787401574803,"duration":0.05104166666666643},{"name":"D5","midi":74,"time":16.263541666666658,"velocity":0.4409448818897638,"duration":0.14166666666666927},{"name":"E5","midi":76,"time":16.403124999999992,"velocity":0.3858267716535433,"duration":0.05833333333333357},{"name":"D5","midi":74,"time":16.695833333333326,"velocity":0.3228346456692913,"duration":0.11250000000000071},{"name":"E5","midi":76,"time":16.833333333333325,"velocity":0.33070866141732286,"duration":0.05208333333333215},{"name":"D5","midi":74,"time":17.101041666666656,"velocity":0.3700787401574803,"duration":0.109375},{"name":"E5","midi":76,"time":17.254166666666656,"velocity":0.2677165354330709,"duration":0.04583333333333428},{"name":"D5","midi":74,"time":17.50937499999999,"velocity":0.31496062992125984,"duration":0.11145833333333499},{"name":"E5","midi":76,"time":17.66666666666666,"velocity":0.2992125984251969,"duration":0.04062499999999858},{"name":"D5","midi":74,"time":17.93124999999999,"velocity":0.30708661417322836,"duration":0.09062499999999929},{"name":"E5","midi":76,"time":18.080208333333324,"velocity":0.2204724409448819,"duration":0.04791666666666572},{"name":"D5","midi":74,"time":18.37499999999999,"velocity":0.25984251968503935,"duration":0.05833333333333357},{"name":"E5","midi":76,"time":18.523958333333322,"velocity":0.1889763779527559,"duration":0.01875000000000071},{"name":"E5","midi":76,"time":18.84374999999999,"velocity":0.3779527559055118,"duration":0.19687500000000213},{"name":"F#5","midi":78,"time":19.017708333333324,"velocity":0.4094488188976378,"duration":0.08333333333333215},{"name":"E5","midi":76,"time":19.29062499999999,"velocity":0.3858267716535433,"duration":0.07083333333333286},{"name":"F#5","midi":78,"time":19.388541666666658,"velocity":0.5275590551181102,"duration":0.09895833333333215},{"name":"F#5","midi":78,"time":19.71249999999999,"velocity":0.5196850393700787,"duration":0.10312500000000213},{"name":"G#5","midi":80,"time":19.812499999999993,"velocity":0.5984251968503937,"duration":0.11562500000000142},{"name":"F#5","midi":78,"time":20.090624999999996,"velocity":0.5669291338582677,"duration":0.14270833333333144},{"name":"G#5","midi":80,"time":20.224999999999994,"velocity":0.5826771653543307,"duration":0.08229166666666643},{"name":"G#5","midi":80,"time":20.493749999999995,"velocity":0.4015748031496063,"duration":0.16145833333333215},{"name":"A5","midi":81,"time":20.63854166666666,"velocity":0.3858267716535433,"duration":0.06770833333333215},{"name":"G#5","midi":80,"time":20.93541666666666,"velocity":0.3779527559055118,"duration":0.13437499999999858},{"name":"A5","midi":81,"time":21.073958333333326,"velocity":0.4094488188976378,"duration":0.07187499999999858},{"name":"G#5","midi":80,"time":21.36041666666666,"velocity":0.4251968503937008,"duration":0.14166666666666572},{"name":"A5","midi":81,"time":21.50937499999999,"velocity":0.3700787401574803,"duration":0.06875000000000142},{"name":"G#5","midi":80,"time":21.77291666666666,"velocity":0.4566929133858268,"duration":0.142708333333335},{"name":"A5","midi":81,"time":21.92916666666666,"velocity":0.3228346456692913,"duration":0.05729166666666785},{"name":"G#5","midi":80,"time":22.158333333333328,"velocity":0.4251968503937008,"duration":0.13958333333333073},{"name":"A5","midi":81,"time":22.281249999999993,"velocity":0.3543307086614173,"duration":0.08958333333333357},{"name":"G#5","midi":80,"time":22.58854166666666,"velocity":0.3543307086614173,"duration":0.1593750000000007},{"name":"A5","midi":81,"time":22.706249999999994,"velocity":0.33858267716535434,"duration":0.08645833333333286},{"name":"G#5","midi":80,"time":22.98229166666666,"velocity":0.4409448818897638,"duration":0.14791666666666714},{"name":"A5","midi":81,"time":23.10729166666666,"velocity":0.36220472440944884,"duration":0.09687500000000071},{"name":"G#5","midi":80,"time":23.420833333333327,"velocity":0.4251968503937008,"duration":0.17812500000000142},{"name":"A5","midi":81,"time":23.549999999999994,"velocity":0.33858267716535434,"duration":0.09062500000000284},{"name":"G#5","midi":80,"time":23.81145833333333,"velocity":0.4251968503937008,"duration":0.14895833333333286},{"name":"A5","midi":81,"time":23.959374999999998,"velocity":0.36220472440944884,"duration":0.06666666666666643},{"name":"G#5","midi":80,"time":24.223958333333332,"velocity":0.4015748031496063,"duration":0.13229166666666714},{"name":"A5","midi":81,"time":24.348958333333332,"velocity":0.3543307086614173,"duration":0.07187500000000213},{"name":"G#5","midi":80,"time":24.646875,"velocity":0.4645669291338583,"duration":0.12916666666666643},{"name":"A5","midi":81,"time":24.75104166666667,"velocity":0.4094488188976378,"duration":0.09791666666666643},{"name":"G#5","midi":80,"time":25.057291666666668,"velocity":0.4094488188976378,"duration":0.12083333333333357},{"name":"A5","midi":81,"time":25.179166666666667,"velocity":0.36220472440944884,"duration":0.06145833333333428},{"name":"E5","midi":76,"time":25.5375,"velocity":0.3937007874015748,"duration":0.1145833333333357},{"name":"F#5","midi":78,"time":25.62604166666667,"velocity":0.4094488188976378,"duration":0.127083333333335},{"name":"E5","midi":76,"time":25.936458333333338,"velocity":0.3228346456692913,"duration":0.03750000000000142},{"name":"F#5","midi":78,"time":26.025000000000006,"velocity":0.44881889763779526,"duration":0.06041666666666501},{"name":"F#5","midi":78,"time":26.29895833333334,"velocity":0.5433070866141733,"duration":0.12604166666666572},{"name":"G#5","midi":80,"time":26.42916666666667,"velocity":0.5905511811023622,"duration":0.109375},{"name":"F#5","midi":78,"time":26.68229166666667,"velocity":0.49606299212598426,"duration":0.16458333333333286},{"name":"G#5","midi":80,"time":26.826041666666672,"velocity":0.5275590551181102,"duration":0.15833333333333144},{"name":"D5","midi":74,"time":27.112500000000004,"velocity":0.3937007874015748,"duration":0.16666666666666785},{"name":"E5","midi":76,"time":27.28854166666667,"velocity":0.3779527559055118,"duration":0.07604166666666501},{"name":"D5","midi":74,"time":27.51875,"velocity":0.36220472440944884,"duration":0.13125000000000142},{"name":"E5","midi":76,"time":27.677083333333336,"velocity":0.41732283464566927,"duration":0.05520833333333286},{"name":"D5","midi":74,"time":27.953125000000004,"velocity":0.3779527559055118,"duration":0.10520833333333357},{"name":"E5","midi":76,"time":28.070833333333336,"velocity":0.3464566929133858,"duration":0.07395833333333357},{"name":"D5","midi":74,"time":28.362500000000004,"velocity":0.3543307086614173,"duration":0.10833333333333428},{"name":"E5","midi":76,"time":28.503125000000004,"velocity":0.36220472440944884,"duration":0.04791666666666572},{"name":"D5","midi":74,"time":28.778125000000003,"velocity":0.3937007874015748,"duration":0.08437500000000142},{"name":"E5","midi":76,"time":28.92604166666667,"velocity":0.30708661417322836,"duration":0.02916666666666501},{"name":"D5","midi":74,"time":29.180208333333336,"velocity":0.33858267716535434,"duration":0.11354166666666643},{"name":"E5","midi":76,"time":29.30416666666667,"velocity":0.33858267716535434,"duration":0.07708333333333428},{"name":"D5","midi":74,"time":29.606250000000006,"velocity":0.31496062992125984,"duration":0.09166666666666501},{"name":"E5","midi":76,"time":29.76979166666667,"velocity":0.2204724409448819,"duration":0.04895833333333499},{"name":"D5","midi":74,"time":30.03958333333334,"velocity":0.2440944881889764,"duration":0.158333333333335},{"name":"E5","midi":76,"time":30.22708333333334,"velocity":0.2204724409448819,"duration":0.01458333333333428},{"name":"E4","midi":64,"time":30.63958333333334,"velocity":0.4251968503937008,"duration":0.12395833333333428},{"name":"F#4","midi":66,"time":30.75625000000001,"velocity":0.4566929133858268,"duration":0.09375},{"name":"E4","midi":64,"time":31.044791666666676,"velocity":0.3937007874015748,"duration":0.10208333333333286},{"name":"F#4","midi":66,"time":31.160416666666674,"velocity":0.4645669291338583,"duration":0.07916666666666572},{"name":"F#4","midi":66,"time":31.45520833333334,"velocity":0.5984251968503937,"duration":0.1458333333333357},{"name":"G#4","midi":68,"time":31.597916666666674,"velocity":0.5433070866141733,"duration":0.09062499999999929},{"name":"F#4","midi":66,"time":31.842708333333338,"velocity":0.5196850393700787,"duration":0.1374999999999993},{"name":"G#4","midi":68,"time":31.983333333333338,"velocity":0.5039370078740157,"duration":0.05937499999999929},{"name":"G#4","midi":68,"time":32.255208333333336,"velocity":0.48031496062992124,"duration":0.12916666666666998},{"name":"A4","midi":69,"time":32.36979166666667,"velocity":0.4251968503937008,"duration":0.0572916666666643},{"name":"G#4","midi":68,"time":32.675000000000004,"velocity":0.4409448818897638,"duration":0.12604166666666572},{"name":"A4","midi":69,"time":32.786458333333336,"velocity":0.36220472440944884,"duration":0.08020833333333144},{"name":"G#4","midi":68,"time":33.096875,"velocity":0.41732283464566927,"duration":0.13749999999999574},{"name":"A4","midi":69,"time":33.224999999999994,"velocity":0.33858267716535434,"duration":0.07083333333333286},{"name":"G#4","midi":68,"time":33.49999999999999,"velocity":0.3779527559055118,"duration":0.11874999999999858},{"name":"A4","midi":69,"time":33.62291666666666,"velocity":0.2992125984251969,"duration":0.06979166666666714},{"name":"G#4","midi":68,"time":33.88854166666666,"velocity":0.3543307086614173,"duration":0.14895833333333286},{"name":"A4","midi":69,"time":34.057291666666664,"velocity":0.25984251968503935,"duration":0.06354166666666572},{"name":"G#4","midi":68,"time":34.328125,"velocity":0.33858267716535434,"duration":0.14791666666666714},{"name":"A4","midi":69,"time":34.44479166666667,"velocity":0.3228346456692913,"duration":0.10208333333333286},{"name":"G#4","midi":68,"time":34.72604166666667,"velocity":0.28346456692913385,"duration":0.17291666666666572},{"name":"A4","midi":69,"time":34.896875,"velocity":0.28346456692913385,"duration":0.052083333333328596},{"name":"G#4","midi":68,"time":35.115624999999994,"velocity":0.3228346456692913,"duration":0.17916666666666714},{"name":"A4","midi":69,"time":35.30624999999999,"velocity":0.2677165354330709,"duration":0.05520833333333286},{"name":"G#4","midi":68,"time":35.53854166666666,"velocity":0.3228346456692913,"duration":0.17812500000000142},{"name":"A4","midi":69,"time":35.699999999999996,"velocity":0.31496062992125984,"duration":0.0572916666666643},{"name":"G#4","midi":68,"time":35.97395833333333,"velocity":0.3543307086614173,"duration":0.171875},{"name":"A4","midi":69,"time":36.13229166666666,"velocity":0.29133858267716534,"duration":0.04791666666666572},{"name":"G#4","midi":68,"time":36.37499999999999,"velocity":0.33070866141732286,"duration":0.16458333333333286},{"name":"A4","midi":69,"time":36.56041666666666,"velocity":0.28346456692913385,"duration":0.046875},{"name":"G#4","midi":68,"time":36.79895833333333,"velocity":0.2755905511811024,"duration":0.1770833333333286},{"name":"A4","midi":69,"time":36.95729166666666,"velocity":0.33070866141732286,"duration":0.04062499999999858},{"name":"E4","midi":64,"time":37.276041666666664,"velocity":0.48031496062992124,"duration":0.13333333333333286},{"name":"F#4","midi":66,"time":37.385416666666664,"velocity":0.4645669291338583,"duration":0.08437500000000142},{"name":"E4","midi":64,"time":37.68958333333333,"velocity":0.41732283464566927,"duration":0.08229166666666998},{"name":"F#4","midi":66,"time":37.803125,"velocity":0.48031496062992124,"duration":0.09687499999999716},{"name":"F#4","midi":66,"time":38.072916666666664,"velocity":0.5275590551181102,"duration":0.11666666666666714},{"name":"G#4","midi":68,"time":38.204166666666666,"velocity":0.6062992125984252,"duration":0.08229166666666998},{"name":"F#4","midi":66,"time":38.48125,"velocity":0.5275590551181102,"duration":0.13437499999999858},{"name":"G#4","midi":68,"time":38.61770833333333,"velocity":0.5433070866141733,"duration":0.09687499999999716},{"name":"D4","midi":62,"time":38.86145833333333,"velocity":0.4251968503937008,"duration":0.14479166666666998},{"name":"E4","midi":64,"time":39.04375,"velocity":0.30708661417322836,"duration":0.03437499999999716},{"name":"D4","midi":62,"time":39.31458333333333,"velocity":0.3700787401574803,"duration":0.18020833333333286},{"name":"E4","midi":64,"time":39.42708333333333,"velocity":0.4015748031496063,"duration":0.07395833333333712},{"name":"D4","midi":62,"time":39.696875,"velocity":0.3464566929133858,"duration":0.15729166666666572},{"name":"E4","midi":64,"time":39.84895833333333,"velocity":0.33858267716535434,"duration":0.06875000000000142},{"name":"D4","midi":62,"time":40.137499999999996,"velocity":0.3464566929133858,"duration":0.1614583333333286},{"name":"E4","midi":64,"time":40.256249999999994,"velocity":0.3779527559055118,"duration":0.09791666666666288},{"name":"D4","midi":62,"time":40.535416666666656,"velocity":0.3700787401574803,"duration":0.14374999999999716},{"name":"E4","midi":64,"time":40.69062499999998,"velocity":0.33070866141732286,"duration":0.0729166666666643},{"name":"D4","midi":62,"time":40.954166666666644,"velocity":0.31496062992125984,"duration":0.15937500000000426},{"name":"E4","midi":64,"time":41.10833333333331,"velocity":0.28346456692913385,"duration":0.06041666666666856},{"name":"D4","midi":62,"time":41.38333333333331,"velocity":0.33070866141732286,"duration":0.15312500000000284},{"name":"E4","midi":64,"time":41.57083333333331,"velocity":0.25984251968503935,"duration":0.04062499999999858},{"name":"D4","midi":62,"time":41.76979166666664,"velocity":0.2677165354330709,"duration":0.15520833333333428},{"name":"E4","midi":64,"time":41.92708333333331,"velocity":0.3228346456692913,"duration":0.02187500000000142},{"name":"F#4","midi":66,"time":42.25729166666664,"velocity":0.4094488188976378,"duration":0.16875000000000284},{"name":"D5","midi":74,"time":42.405208333333306,"velocity":0.5039370078740157,"duration":0.06666666666666998},{"name":"F#4","midi":66,"time":42.702083333333306,"velocity":0.4645669291338583,"duration":0.16562499999999858},{"name":"D5","midi":74,"time":42.83437499999997,"velocity":0.5196850393700787,"duration":0.08020833333333144},{"name":"F#4","midi":66,"time":43.092708333333306,"velocity":0.5433070866141733,"duration":0.14687500000000142},{"name":"C#5","midi":73,"time":43.23229166666664,"velocity":0.5905511811023622,"duration":0.07187499999999858},{"name":"F#4","midi":66,"time":43.46041666666664,"velocity":0.49606299212598426,"duration":0.16041666666666998},{"name":"C#5","midi":73,"time":43.59895833333331,"velocity":0.5984251968503937,"duration":0.08958333333333712},{"name":"E4","midi":64,"time":43.895833333333314,"velocity":0.4094488188976378,"duration":0.15937499999999716},{"name":"A4","midi":69,"time":44.06041666666665,"velocity":0.36220472440944884,"duration":0.04895833333333144},{"name":"E4","midi":64,"time":44.37291666666665,"velocity":0.3228346456692913,"duration":0.0833333333333357},{"name":"A4","midi":69,"time":44.46145833333332,"velocity":0.3937007874015748,"duration":0.0625},{"name":"E4","midi":64,"time":44.76979166666665,"velocity":0.36220472440944884,"duration":0.12083333333333002},{"name":"A4","midi":69,"time":44.90624999999998,"velocity":0.33858267716535434,"duration":0.0416666666666643},{"name":"E4","midi":64,"time":45.14999999999998,"velocity":0.30708661417322836,"duration":0.11354166666666998},{"name":"A4","midi":69,"time":45.29166666666665,"velocity":0.31496062992125984,"duration":0.02395833333333286},{"name":"F#4","midi":66,"time":45.55104166666665,"velocity":0.3858267716535433,"duration":0.17499999999999716},{"name":"D5","midi":74,"time":45.710416666666646,"velocity":0.41732283464566927,"duration":0.06666666666666998},{"name":"F#4","midi":66,"time":45.99062499999998,"velocity":0.4330708661417323,"duration":0.1510416666666714},{"name":"D5","midi":74,"time":46.11249999999998,"velocity":0.5354330708661418,"duration":0.08020833333333854},{"name":"F#4","midi":66,"time":46.40104166666666,"velocity":0.5590551181102362,"duration":0.15208333333333712},{"name":"C#5","midi":73,"time":46.52291666666666,"velocity":0.5669291338582677,"duration":0.08645833333333286},{"name":"F#4","midi":66,"time":46.793749999999996,"velocity":0.44881889763779526,"duration":0.13229166666666714},{"name":"C#5","midi":73,"time":46.91354166666666,"velocity":0.4881889763779528,"duration":0.10000000000000142},{"name":"E4","midi":64,"time":47.21249999999999,"velocity":0.4094488188976378,"duration":0.16562499999999858},{"name":"A4","midi":69,"time":47.388541666666654,"velocity":0.3543307086614173,"duration":0.0625},{"name":"E4","midi":64,"time":47.644791666666656,"velocity":0.3464566929133858,"duration":0.17500000000000426},{"name":"A4","midi":69,"time":47.78437499999999,"velocity":0.3779527559055118,"duration":0.08645833333333997},{"name":"E4","midi":64,"time":48.05625,"velocity":0.3779527559055118,"duration":0.22604166666666003},{"name":"A4","midi":69,"time":48.19270833333333,"velocity":0.3464566929133858,"duration":0.12395833333332718},{"name":"E4","midi":64,"time":48.47916666666666,"velocity":0.33858267716535434,"duration":0.203125},{"name":"A4","midi":69,"time":48.63229166666666,"velocity":0.3228346456692913,"duration":0.10729166666666146},{"name":"E4","midi":64,"time":48.904166666666654,"velocity":0.29133858267716534,"duration":0.23229166666666856},{"name":"A4","midi":69,"time":49.08541666666665,"velocity":0.2677165354330709,"duration":0.11666666666666714},{"name":"E4","midi":64,"time":49.34687499999999,"velocity":0.3228346456692913,"duration":0.20416666666666572},{"name":"A4","midi":69,"time":49.508333333333326,"velocity":0.33070866141732286,"duration":0.10208333333333286},{"name":"E4","midi":64,"time":49.74895833333333,"velocity":0.33858267716535434,"duration":0.16250000000000142},{"name":"A4","midi":69,"time":49.898958333333326,"velocity":0.3543307086614173,"duration":0.11145833333333854},{"name":"E4","midi":64,"time":50.137499999999996,"velocity":0.33858267716535434,"duration":0.140625},{"name":"A4","midi":69,"time":50.28541666666666,"velocity":0.3543307086614173,"duration":0.06562499999999716},{"name":"F#4","midi":66,"time":50.56562499999999,"velocity":0.36220472440944884,"duration":0.14791666666666714},{"name":"D5","midi":74,"time":50.71354166666666,"velocity":0.3779527559055118,"duration":0.0833333333333357},{"name":"F#4","midi":66,"time":50.96979166666666,"velocity":0.30708661417322836,"duration":0.21875},{"name":"D5","midi":74,"time":51.129166666666656,"velocity":0.4015748031496063,"duration":0.07604166666666856},{"name":"F#4","midi":66,"time":51.410416666666656,"velocity":0.3779527559055118,"duration":0.18541666666666856},{"name":"D5","midi":74,"time":51.52083333333332,"velocity":0.3937007874015748,"duration":0.06666666666666998},{"name":"F#4","midi":66,"time":51.81145833333333,"velocity":0.4251968503937008,"duration":0.18541666666666146},{"name":"D5","midi":74,"time":51.955208333333324,"velocity":0.4645669291338583,"duration":0.08541666666666714},{"name":"F#4","midi":66,"time":52.240624999999994,"velocity":0.4645669291338583,"duration":0.13749999999999574},{"name":"C#5","midi":73,"time":52.36041666666666,"velocity":0.5196850393700787,"duration":0.07916666666666572},{"name":"F#4","midi":66,"time":52.642708333333324,"velocity":0.5275590551181102,"duration":0.16979166666666856},{"name":"C#5","midi":73,"time":52.767708333333324,"velocity":0.5669291338582677,"duration":0.07395833333333712},{"name":"F#4","midi":66,"time":53.034375,"velocity":0.5118110236220472,"duration":0.15416666666666146},{"name":"C#5","midi":73,"time":53.17083333333333,"velocity":0.5905511811023622,"duration":0.06562499999999716},{"name":"F#4","midi":66,"time":53.38645833333332,"velocity":0.47244094488188976,"duration":0.18541666666666856},{"name":"C#5","midi":73,"time":53.55729166666666,"velocity":0.4645669291338583,"duration":0.13645833333333712},{"name":"E4","midi":64,"time":53.871874999999996,"velocity":0.4015748031496063,"duration":0.171875},{"name":"A4","midi":69,"time":54.047916666666666,"velocity":0.3464566929133858,"duration":0.06979166666666714},{"name":"E4","midi":64,"time":54.311458333333334,"velocity":0.33858267716535434,"duration":0.16041666666666998},{"name":"A4","midi":69,"time":54.467708333333334,"velocity":0.3700787401574803,"duration":0.055208333333339965},{"name":"E4","midi":64,"time":54.72291666666668,"velocity":0.36220472440944884,"duration":0.16875000000000284},{"name":"A4","midi":69,"time":54.870833333333344,"velocity":0.3700787401574803,"duration":0.09583333333333854},{"name":"E4","midi":64,"time":55.13645833333335,"velocity":0.3543307086614173,"duration":0.17500000000000426},{"name":"A4","midi":69,"time":55.28125000000002,"velocity":0.3543307086614173,"duration":0.07395833333333712},{"name":"E4","midi":64,"time":55.53333333333336,"velocity":0.31496062992125984,"duration":0.20000000000000284},{"name":"A4","midi":69,"time":55.73645833333336,"velocity":0.31496062992125984,"duration":0.0520833333333357},{"name":"E4","midi":64,"time":55.954166666666694,"velocity":0.30708661417322836,"duration":0.17604166666666998},{"name":"A4","midi":69,"time":56.13125000000003,"velocity":0.2677165354330709,"duration":0.07916666666666572},{"name":"E4","midi":64,"time":56.3729166666667,"velocity":0.29133858267716534,"duration":0.19895833333333002},{"name":"A4","midi":69,"time":56.54062500000003,"velocity":0.2992125984251969,"duration":0.09687499999999716},{"name":"E4","midi":64,"time":56.81770833333336,"velocity":0.2755905511811024,"duration":0.18854166666667282},{"name":"A4","midi":69,"time":56.98645833333336,"velocity":0.2440944881889764,"duration":0.13645833333333712},{"name":"E4","midi":64,"time":57.26875000000003,"velocity":0.29133858267716534,"duration":0.20520833333333144},{"name":"A4","midi":69,"time":57.43645833333336,"velocity":0.25984251968503935,"duration":0.10312499999999858},{"name":"E4","midi":64,"time":57.70000000000003,"velocity":0.25196850393700787,"duration":0.19062499999999716},{"name":"A4","midi":69,"time":57.8791666666667,"velocity":0.29133858267716534,"duration":0.054166666666660035},{"name":"E4","midi":64,"time":58.10104166666669,"velocity":0.30708661417322836,"duration":0.21041666666666714},{"name":"A4","midi":69,"time":58.280208333333356,"velocity":0.2755905511811024,"duration":0.07500000000000284},{"name":"E4","midi":64,"time":58.530208333333356,"velocity":0.2677165354330709,"duration":0.1927083333333357},{"name":"A4","midi":69,"time":58.706250000000026,"velocity":0.2677165354330709,"duration":0.05104166666666288},{"name":"E4","midi":64,"time":58.94062500000002,"velocity":0.2440944881889764,"duration":0.22708333333333997},{"name":"B4","midi":71,"time":59.12604166666669,"velocity":0.33070866141732286,"duration":0.028125000000002842},{"name":"E4","midi":64,"time":59.36979166666669,"velocity":0.3543307086614173,"duration":0.16354166666666714},{"name":"B4","midi":71,"time":59.50937500000003,"velocity":0.3700787401574803,"duration":0.03854166666666714},{"name":"E4","midi":64,"time":59.75416666666669,"velocity":0.36220472440944884,"duration":0.19375000000000142},{"name":"B4","midi":71,"time":59.938541666666694,"velocity":0.33070866141732286,"duration":0.0416666666666643},{"name":"E4","midi":64,"time":60.16458333333336,"velocity":0.31496062992125984,"duration":0.20937500000000142},{"name":"B4","midi":71,"time":60.35000000000003,"velocity":0.3228346456692913,"duration":0.17604166666666288},{"name":"E4","midi":64,"time":60.60208333333336,"velocity":0.30708661417322836,"duration":0.19375000000000142},{"name":"A4","midi":69,"time":60.74479166666669,"velocity":0.4094488188976378,"duration":0.09062500000000284},{"name":"E4","midi":64,"time":61.02500000000003,"velocity":0.2677165354330709,"duration":0.18958333333333144},{"name":"A4","midi":69,"time":61.15625000000003,"velocity":0.3779527559055118,"duration":0.03958333333333286},{"name":"E4","midi":64,"time":61.43229166666669,"velocity":0.3464566929133858,"duration":0.19895833333333712},{"name":"A4","midi":69,"time":61.55520833333336,"velocity":0.36220472440944884,"duration":0.11041666666666572},{"name":"E4","midi":64,"time":61.83750000000003,"velocity":0.3779527559055118,"duration":0.15937499999999716},{"name":"A4","midi":69,"time":61.97812500000003,"velocity":0.3779527559055118,"duration":0.15416666666666146},{"name":"E4","midi":64,"time":62.30312500000002,"velocity":0.33070866141732286,"duration":0.09791666666666998},{"name":"A4","midi":69,"time":62.41458333333336,"velocity":0.41732283464566927,"duration":0.078125},{"name":"E4","midi":64,"time":62.6541666666667,"velocity":0.36220472440944884,"duration":0.18645833333333428},{"name":"A4","midi":69,"time":62.802083333333364,"velocity":0.4409448818897638,"duration":0.1458333333333357},{"name":"E4","midi":64,"time":63.07083333333337,"velocity":0.3937007874015748,"duration":0.22187499999999716},{"name":"A4","midi":69,"time":63.23645833333337,"velocity":0.4251968503937008,"duration":0.12291666666666856},{"name":"E4","midi":64,"time":63.48645833333337,"velocity":0.4251968503937008,"duration":0.21666666666666856},{"name":"A4","midi":69,"time":63.6354166666667,"velocity":0.5039370078740157,"duration":0.13750000000000284},{"name":"E4","midi":64,"time":63.9322916666667,"velocity":0.4251968503937008,"duration":0.13437500000000568},{"name":"A4","midi":69,"time":64.05208333333337,"velocity":0.49606299212598426,"duration":0.09375},{"name":"E4","midi":64,"time":64.31041666666671,"velocity":0.3464566929133858,"duration":0.18437500000000284},{"name":"A4","midi":69,"time":64.45000000000005,"velocity":0.3779527559055118,"duration":0.12395833333333428},{"name":"E4","midi":64,"time":64.72916666666671,"velocity":0.4330708661417323,"duration":0.1666666666666714},{"name":"A4","midi":69,"time":64.87187500000005,"velocity":0.4251968503937008,"duration":0.08020833333334565},{"name":"E4","midi":64,"time":65.0864583333334,"velocity":0.4094488188976378,"duration":0.21875},{"name":"A4","midi":69,"time":65.23437500000006,"velocity":0.4881889763779528,"duration":0.17083333333333428},{"name":"E4","midi":64,"time":65.53125000000006,"velocity":0.47244094488188976,"duration":0.1458333333333286},{"name":"A4","midi":69,"time":65.68437500000005,"velocity":0.23622047244094488,"duration":0.036458333333328596},{"name":"E4","midi":64,"time":65.88125000000004,"velocity":0.2992125984251969,"duration":0.15625},{"name":"A4","midi":69,"time":66.0072916666667,"velocity":0.3464566929133858,"duration":0.10312500000000568},{"name":"E4","midi":64,"time":66.31145833333338,"velocity":0.4251968503937008,"duration":0.17395833333333144},{"name":"A4","midi":69,"time":66.46354166666671,"velocity":0.3464566929133858,"duration":0.08958333333332291},{"name":"E4","midi":64,"time":66.69895833333337,"velocity":0.3779527559055118,"duration":0.14374999999999716},{"name":"A4","midi":69,"time":66.84687500000003,"velocity":0.4015748031496063,"duration":0.1041666666666714},{"name":"F#4","midi":66,"time":67.15833333333336,"velocity":0.33070866141732286,"duration":0.17083333333333428},{"name":"G#4","midi":68,"time":67.28958333333335,"velocity":0.49606299212598426,"duration":0.08437500000000853},{"name":"F#4","midi":66,"time":67.54375000000003,"velocity":0.4094488188976378,"duration":0.15937499999999716},{"name":"G#4","midi":68,"time":67.68125000000003,"velocity":0.4251968503937008,"duration":0.09270833333333428},{"name":"G#4","midi":68,"time":67.96145833333337,"velocity":0.49606299212598426,"duration":0.15833333333334565},{"name":"B4","midi":71,"time":68.11145833333337,"velocity":0.3937007874015748,"duration":0.056250000000005684},{"name":"G#4","midi":68,"time":68.35625000000005,"velocity":0.49606299212598426,"duration":0.18020833333332575},{"name":"B4","midi":71,"time":68.48750000000004,"velocity":0.49606299212598426,"duration":0.12291666666666856},{"name":"A4","midi":69,"time":68.78020833333338,"velocity":0.4566929133858268,"duration":0.17083333333333428},{"name":"C#5","midi":73,"time":68.89895833333338,"velocity":0.4881889763779528,"duration":0.08958333333332291},{"name":"A4","midi":69,"time":69.16770833333337,"velocity":0.3228346456692913,"duration":0.22708333333332575},{"name":"C#5","midi":73,"time":69.34270833333336,"velocity":0.3858267716535433,"duration":0.056249999999991473},{"name":"A4","midi":69,"time":69.60625000000002,"velocity":0.2677165354330709,"duration":0.21145833333333997},{"name":"C#5","midi":73,"time":69.77500000000002,"velocity":0.36220472440944884,"duration":0.06458333333333144},{"name":"A4","midi":69,"time":70.02812500000002,"velocity":0.28346456692913385,"duration":0.20520833333333144},{"name":"C#5","midi":73,"time":70.17291666666668,"velocity":0.36220472440944884,"duration":0.1145833333333286},{"name":"A4","midi":69,"time":70.446875,"velocity":0.28346456692913385,"duration":0.20208333333333428},{"name":"C#5","midi":73,"time":70.60416666666667,"velocity":0.2677165354330709,"duration":0.046875},{"name":"A4","midi":69,"time":70.84270833333333,"velocity":0.3228346456692913,"duration":0.24062499999999432},{"name":"C#5","midi":73,"time":71.00520833333333,"velocity":0.28346456692913385,"duration":0.06145833333333428},{"name":"A4","midi":69,"time":71.26979166666666,"velocity":0.33858267716535434,"duration":0.17083333333333428},{"name":"C#5","midi":73,"time":71.40520833333333,"velocity":0.29133858267716534,"duration":0.07916666666666572},{"name":"A4","midi":69,"time":71.65833333333333,"velocity":0.28346456692913385,"duration":0.140625},{"name":"C#5","midi":73,"time":71.81875,"velocity":0.30708661417322836,"duration":0.03541666666666288},{"name":"F#4","midi":66,"time":72.15833333333332,"velocity":0.4645669291338583,"duration":0.16041666666666288},{"name":"G#4","midi":68,"time":72.27291666666665,"velocity":0.4881889763779528,"duration":0.06041666666666856},{"name":"F#4","midi":66,"time":72.56979166666665,"velocity":0.4015748031496063,"duration":0.12812499999999716},{"name":"G#4","midi":68,"time":72.69583333333331,"velocity":0.4645669291338583,"duration":0.08020833333333144},{"name":"G#4","midi":68,"time":72.94999999999997,"velocity":0.5196850393700787,"duration":0.17083333333333428},{"name":"B4","midi":71,"time":73.08645833333331,"velocity":0.4094488188976378,"duration":0.07291666666665719},{"name":"G#4","midi":68,"time":73.34791666666663,"velocity":0.4881889763779528,"duration":0.15625},{"name":"B4","midi":71,"time":73.49791666666664,"velocity":0.4094488188976378,"duration":0.07604166666665435},{"name":"E4","midi":64,"time":73.82187499999996,"velocity":0.2677165354330709,"duration":0.1458333333333286},{"name":"B4","midi":71,"time":73.9614583333333,"velocity":0.25984251968503935,"duration":0.01354166666665435},{"name":"E4","midi":64,"time":74.24479166666661,"velocity":0.2677165354330709,"duration":0.19479166666667425},{"name":"B4","midi":71,"time":74.36354166666662,"velocity":0.31496062992125984,"duration":0.039583333333339965},{"name":"E4","midi":64,"time":74.63749999999996,"velocity":0.33070866141732286,"duration":0.16249999999999432},{"name":"B4","midi":71,"time":74.81041666666663,"velocity":0.28346456692913385,"duration":0.057291666666671404},{"name":"E4","midi":64,"time":75.0489583333333,"velocity":0.33070866141732286,"duration":0.203125},{"name":"B4","midi":71,"time":75.19791666666664,"velocity":0.33070866141732286,"duration":0.06354166666666572},{"name":"E4","midi":64,"time":75.45624999999997,"velocity":0.33858267716535434,"duration":0.21979166666666572},{"name":"B4","midi":71,"time":75.6177083333333,"velocity":0.3543307086614173,"duration":0.05833333333333712},{"name":"E4","midi":64,"time":75.87187499999997,"velocity":0.31496062992125984,"duration":0.20624999999999716},{"name":"B4","midi":71,"time":76.0333333333333,"velocity":0.33070866141732286,"duration":0.06979166666667425},{"name":"E4","midi":64,"time":76.29374999999997,"velocity":0.2992125984251969,"duration":0.20937500000000853},{"name":"B4","midi":71,"time":76.46145833333331,"velocity":0.31496062992125984,"duration":0.08437500000000853},{"name":"E4","midi":64,"time":76.70937499999998,"velocity":0.28346456692913385,"duration":0.13750000000000284},{"name":"B4","midi":71,"time":76.86458333333331,"velocity":0.31496062992125984,"duration":0.0885416666666714},{"name":"F#4","midi":66,"time":77.13541666666666,"velocity":0.4330708661417323,"duration":0.17499999999999716},{"name":"G#4","midi":68,"time":77.29374999999999,"velocity":0.4566929133858268,"duration":0.07083333333332575},{"name":"F#4","midi":66,"time":77.56249999999999,"velocity":0.3700787401574803,"duration":0.14166666666666572},{"name":"G#4","midi":68,"time":77.69687499999999,"velocity":0.4645669291338583,"duration":0.07291666666665719},{"name":"G#4","midi":68,"time":77.93958333333332,"velocity":0.5590551181102362,"duration":0.18333333333333712},{"name":"B4","midi":71,"time":78.08124999999998,"velocity":0.48031496062992124,"duration":0.10833333333333428},{"name":"G#4","midi":68,"time":78.34791666666665,"velocity":0.5433070866141733,"duration":0.16562499999999147},{"name":"B4","midi":71,"time":78.49374999999998,"velocity":0.5354330708661418,"duration":0.09479166666666572},{"name":"A4","midi":69,"time":78.74479166666664,"velocity":0.5039370078740157,"duration":0.17916666666666003},{"name":"C#5","midi":73,"time":78.9052083333333,"velocity":0.5196850393700787,"duration":0.07395833333333712},{"name":"A4","midi":69,"time":79.19374999999998,"velocity":0.3700787401574803,"duration":0.1666666666666714},{"name":"C#5","midi":73,"time":79.34895833333331,"velocity":0.3779527559055118,"duration":0.04999999999999716},{"name":"A4","midi":69,"time":79.56458333333332,"velocity":0.36220472440944884,"duration":0.17812499999999432},{"name":"C#5","midi":73,"time":79.70937499999998,"velocity":0.49606299212598426,"duration":0.08645833333332575},{"name":"A4","midi":69,"time":79.94895833333331,"velocity":0.44881889763779526,"duration":0.18541666666666856},{"name":"E5","midi":76,"time":80.10416666666664,"velocity":0.5275590551181102,"duration":0.0885416666666714},{"name":"A4","midi":69,"time":80.38645833333331,"velocity":0.3937007874015748,"duration":0.1604166666666771},{"name":"E5","midi":76,"time":80.50416666666665,"velocity":0.41732283464566927,"duration":0.06875000000000853},{"name":"A4","midi":69,"time":80.78541666666666,"velocity":0.3543307086614173,"duration":0.13333333333333997},{"name":"E5","midi":76,"time":80.934375,"velocity":0.36220472440944884,"duration":0.03125},{"name":"A4","midi":69,"time":81.18541666666667,"velocity":0.3464566929133858,"duration":0.14791666666666003},{"name":"E5","midi":76,"time":81.36458333333333,"velocity":0.2755905511811024,"duration":0.03333333333333144},{"name":"A4","midi":69,"time":81.584375,"velocity":0.3543307086614173,"duration":0.15520833333333428},{"name":"E5","midi":76,"time":81.76458333333333,"velocity":0.30708661417322836,"duration":0.04895833333333144},{"name":"A4","midi":69,"time":81.99583333333334,"velocity":0.33070866141732286,"duration":0.17083333333333428},{"name":"E5","midi":76,"time":82.15833333333333,"velocity":0.3228346456692913,"duration":0.040625000000005684},{"name":"A4","midi":69,"time":82.39687500000001,"velocity":0.28346456692913385,"duration":0.20208333333333428},{"name":"E5","midi":76,"time":82.571875,"velocity":0.33070866141732286,"duration":0.038541666666674246},{"name":"A4","midi":69,"time":82.83645833333334,"velocity":0.31496062992125984,"duration":0.14479166666666288},{"name":"E5","midi":76,"time":83,"velocity":0.29133858267716534,"duration":0.01770833333333144},{"name":"A4","midi":69,"time":83.20104166666667,"velocity":0.36220472440944884,"duration":0.13854166666666856},{"name":"E5","midi":76,"time":83.37083333333334,"velocity":0.33070866141732286,"duration":0.04895833333333144},{"name":"F#4","midi":66,"time":83.68645833333333,"velocity":0.5118110236220472,"duration":0.1875},{"name":"E5","midi":76,"time":83.85,"velocity":0.4409448818897638,"duration":0.08437500000000853},{"name":"F#4","midi":66,"time":84.08541666666667,"velocity":0.4094488188976378,"duration":0.2135416666666714},{"name":"E5","midi":76,"time":84.23437500000001,"velocity":0.4645669291338583,"duration":0.09999999999999432},{"name":"F#4","midi":66,"time":84.49479166666667,"velocity":0.4094488188976378,"duration":0.20416666666666572},{"name":"D5","midi":74,"time":84.65833333333333,"velocity":0.5275590551181102,"duration":0.09687500000001137},{"name":"F#4","midi":66,"time":84.93645833333335,"velocity":0.41732283464566927,"duration":0.15520833333333428},{"name":"D5","midi":74,"time":85.05000000000001,"velocity":0.48031496062992124,"duration":0.1041666666666714},{"name":"F#4","midi":66,"time":85.32812500000001,"velocity":0.3858267716535433,"duration":0.16875000000000284},{"name":"C#5","midi":73,"time":85.47291666666668,"velocity":0.4645669291338583,"duration":0.07708333333333428},{"name":"F#4","midi":66,"time":85.77395833333334,"velocity":0.3779527559055118,"duration":0.13854166666666856},{"name":"C#5","midi":73,"time":85.903125,"velocity":0.4330708661417323,"duration":0.06979166666667425},{"name":"F#4","midi":66,"time":86.19062500000001,"velocity":0.3937007874015748,"duration":0.1614583333333428},{"name":"C#5","midi":73,"time":86.32395833333335,"velocity":0.4015748031496063,"duration":0.08645833333333997},{"name":"F#4","midi":66,"time":86.5947916666667,"velocity":0.3779527559055118,"duration":0.16562499999999147},{"name":"C#5","midi":73,"time":86.74062500000002,"velocity":0.4015748031496063,"duration":0.08749999999999147},{"name":"F#4","midi":66,"time":87.03854166666667,"velocity":0.4330708661417323,"duration":0.16875000000000284},{"name":"C#5","midi":73,"time":87.14895833333334,"velocity":0.4566929133858268,"duration":0.109375},{"name":"F#4","midi":66,"time":87.43125,"velocity":0.4330708661417323,"duration":0.18645833333333428},{"name":"C#5","midi":73,"time":87.56041666666667,"velocity":0.49606299212598426,"duration":0.1458333333333428},{"name":"F#4","midi":66,"time":87.82604166666668,"velocity":0.4015748031496063,"duration":0.24062500000000853},{"name":"D5","midi":74,"time":87.97604166666669,"velocity":0.5275590551181102,"duration":0.09895833333334281},{"name":"F#4","midi":66,"time":88.25520833333337,"velocity":0.4330708661417323,"duration":0.20625000000001137},{"name":"D5","midi":74,"time":88.40625000000004,"velocity":0.5590551181102362,"duration":0.09791666666667709},{"name":"F#4","midi":66,"time":88.68020833333338,"velocity":0.48031496062992124,"duration":0.1510416666666714},{"name":"C#5","midi":73,"time":88.81666666666672,"velocity":0.47244094488188976,"duration":0.0833333333333286},{"name":"F#4","midi":66,"time":89.08854166666671,"velocity":0.49606299212598426,"duration":0.1916666666666771},{"name":"C#5","midi":73,"time":89.25416666666672,"velocity":0.3937007874015748,"duration":0.046875},{"name":"F#4","midi":66,"time":89.46770833333339,"velocity":0.44881889763779526,"duration":0.16875000000000284},{"name":"A4","midi":69,"time":89.61875000000006,"velocity":0.3937007874015748,"duration":0.10312499999999147},{"name":"F#4","midi":66,"time":89.91145833333339,"velocity":0.33070866141732286,"duration":0.16354166666666003},{"name":"A4","midi":69,"time":90.05937500000005,"velocity":0.33070866141732286,"duration":0.06874999999999432},{"name":"F#4","midi":66,"time":90.31041666666671,"velocity":0.3464566929133858,"duration":0.20729166666666288},{"name":"A4","midi":69,"time":90.46770833333338,"velocity":0.36220472440944884,"duration":0.10833333333333428},{"name":"F#4","midi":66,"time":90.75833333333338,"velocity":0.36220472440944884,"duration":0.16979166666666856},{"name":"A4","midi":69,"time":90.89583333333339,"velocity":0.3464566929133858,"duration":0.11875000000000568},{"name":"F#4","midi":66,"time":91.18541666666673,"velocity":0.3464566929133858,"duration":0.16979166666666856},{"name":"A4","midi":69,"time":91.30729166666673,"velocity":0.3464566929133858,"duration":0.11041666666666572},{"name":"F#4","midi":66,"time":91.59479166666672,"velocity":0.3779527559055118,"duration":0.13333333333333997},{"name":"A4","midi":69,"time":91.71666666666673,"velocity":0.3937007874015748,"duration":0.08645833333333997},{"name":"F#4","midi":66,"time":91.9958333333334,"velocity":0.4094488188976378,"duration":0.18020833333333997},{"name":"D5","midi":74,"time":92.11979166666673,"velocity":0.5354330708661418,"duration":0.08958333333333712},{"name":"F#4","midi":66,"time":92.4208333333334,"velocity":0.4645669291338583,"duration":0.16562500000000568},{"name":"D5","midi":74,"time":92.52812500000007,"velocity":0.48031496062992124,"duration":0.10104166666667425},{"name":"F#4","midi":66,"time":92.82291666666674,"velocity":0.48031496062992124,"duration":0.13645833333333712},{"name":"C#5","midi":73,"time":92.92604166666675,"velocity":0.5984251968503937,"duration":0.09791666666666288},{"name":"F#4","midi":66,"time":93.16875000000007,"velocity":0.44881889763779526,"duration":0.17812499999999432},{"name":"C#5","midi":73,"time":93.31562500000007,"velocity":0.48031496062992124,"duration":0.12812499999999716},{"name":"E4","midi":64,"time":93.6395833333334,"velocity":0.4251968503937008,"duration":0.17812500000000853},{"name":"A4","midi":69,"time":93.77604166666674,"velocity":0.3464566929133858,"duration":0.08125000000001137},{"name":"E4","midi":64,"time":94.05625000000009,"velocity":0.31496062992125984,"duration":0.1833333333333229},{"name":"A4","midi":69,"time":94.20312500000009,"velocity":0.3937007874015748,"duration":0.10624999999998863},{"name":"E4","midi":64,"time":94.44687500000008,"velocity":0.30708661417322836,"duration":0.20104166666666856},{"name":"A4","midi":69,"time":94.61145833333342,"velocity":0.3228346456692913,"duration":0.10729166666666856},{"name":"E4","midi":64,"time":94.85520833333342,"velocity":0.33858267716535434,"duration":0.21145833333332575},{"name":"A4","midi":69,"time":95.01562500000009,"velocity":0.36220472440944884,"duration":0.1145833333333286},{"name":"E4","midi":64,"time":95.32395833333341,"velocity":0.3464566929133858,"duration":0.14895833333333997},{"name":"A4","midi":69,"time":95.44375000000008,"velocity":0.3858267716535433,"duration":0.10520833333333712},{"name":"E4","midi":64,"time":95.69687500000008,"velocity":0.30708661417322836,"duration":0.13750000000000284},{"name":"A4","midi":69,"time":95.85729166666674,"velocity":0.3543307086614173,"duration":0.041666666666671404},{"name":"F#4","midi":66,"time":96.12500000000007,"velocity":0.3464566929133858,"duration":0.19479166666666003},{"name":"D5","midi":74,"time":96.24791666666674,"velocity":0.4330708661417323,"duration":0.06874999999999432},{"name":"F#4","midi":66,"time":96.54583333333339,"velocity":0.33070866141732286,"duration":0.21770833333333428},{"name":"D5","midi":74,"time":96.70312500000006,"velocity":0.4251968503937008,"duration":0.06875000000000853},{"name":"F#4","midi":66,"time":96.97604166666673,"velocity":0.4251968503937008,"duration":0.17916666666666003},{"name":"D5","midi":74,"time":97.12291666666673,"velocity":0.4094488188976378,"duration":0.053124999999994316},{"name":"F#4","midi":66,"time":97.36979166666671,"velocity":0.4094488188976378,"duration":0.1927083333333286},{"name":"D5","midi":74,"time":97.52500000000005,"velocity":0.4645669291338583,"duration":0.09687499999999716},{"name":"F#4","midi":66,"time":97.79270833333338,"velocity":0.3937007874015748,"duration":0.18020833333332575},{"name":"C#5","midi":73,"time":97.92291666666671,"velocity":0.4094488188976378,"duration":0.0625},{"name":"F#4","midi":66,"time":98.21562500000005,"velocity":0.4566929133858268,"duration":0.15625},{"name":"C#5","midi":73,"time":98.31250000000004,"velocity":0.4251968503937008,"duration":0.09270833333333428},{"name":"F#4","midi":66,"time":98.61041666666671,"velocity":0.44881889763779526,"duration":0.1927083333333428},{"name":"C#5","midi":73,"time":98.76145833333338,"velocity":0.5118110236220472,"duration":0.09895833333334281},{"name":"F#4","midi":66,"time":98.99270833333338,"velocity":0.4881889763779528,"duration":0.21770833333333428},{"name":"C#5","midi":73,"time":99.15937500000005,"velocity":0.5590551181102362,"duration":0.09791666666666288},{"name":"F#4","midi":66,"time":99.42395833333339,"velocity":0.4094488188976378,"duration":0.20208333333333428},{"name":"A4","midi":69,"time":99.58125000000005,"velocity":0.3937007874015748,"duration":0.09687499999999716},{"name":"F#4","midi":66,"time":99.84479166666672,"velocity":0.3779527559055118,"duration":0.17083333333333428},{"name":"A4","midi":69,"time":100.01354166666673,"velocity":0.3779527559055118,"duration":0.09166666666666856},{"name":"F#4","midi":66,"time":100.29166666666673,"velocity":0.4015748031496063,"duration":0.15625},{"name":"A4","midi":69,"time":100.45416666666672,"velocity":0.29133858267716534,"duration":0.053124999999994316},{"name":"F#4","midi":66,"time":100.69166666666672,"velocity":0.4094488188976378,"duration":0.13437500000000568},{"name":"A4","midi":69,"time":100.86041666666672,"velocity":0.29133858267716534,"duration":0.02916666666666856},{"name":"F#4","midi":66,"time":101.1020833333334,"velocity":0.3779527559055118,"duration":0.16979166666666856},{"name":"A4","midi":69,"time":101.28854166666673,"velocity":0.23622047244094488,"duration":0.037499999999994316},{"name":"F#4","midi":66,"time":101.50625000000007,"velocity":0.3700787401574803,"duration":0.17604166666666288},{"name":"A4","midi":69,"time":101.68750000000006,"velocity":0.2440944881889764,"duration":0.07083333333333997},{"name":"F#4","midi":66,"time":101.94375000000007,"velocity":0.3858267716535433,"duration":0.15520833333333428},{"name":"A4","midi":69,"time":102.1145833333334,"velocity":0.2440944881889764,"duration":0.04375000000000284},{"name":"F#4","midi":66,"time":102.3458333333334,"velocity":0.31496062992125984,"duration":0.17604166666666288},{"name":"A4","midi":69,"time":102.54687500000007,"velocity":0.2047244094488189,"duration":0.03229166666666572},{"name":"E4","midi":64,"time":102.93750000000007,"velocity":0.25984251968503935,"duration":0.18958333333333144},{"name":"A4","midi":69,"time":103.0927083333334,"velocity":0.29133858267716534,"duration":0.054166666666660035},{"name":"E4","midi":64,"time":103.3302083333334,"velocity":0.2992125984251969,"duration":0.17291666666666572},{"name":"A4","midi":69,"time":103.50625000000007,"velocity":0.2992125984251969,"duration":0.08645833333333997},{"name":"E4","midi":64,"time":103.75937500000008,"velocity":0.3543307086614173,"duration":0.17916666666666003},{"name":"A4","midi":69,"time":103.90104166666674,"velocity":0.36220472440944884,"duration":0.08541666666666003},{"name":"E4","midi":64,"time":104.13854166666674,"velocity":0.3779527559055118,"duration":0.19375000000000853},{"name":"A4","midi":69,"time":104.27395833333341,"velocity":0.4015748031496063,"duration":0.1291666666666771},{"name":"E4","midi":64,"time":104.53020833333342,"velocity":0.3858267716535433,"duration":0.19374999999999432},{"name":"B4","midi":71,"time":104.68958333333342,"velocity":0.36220472440944884,"duration":0.09062500000000284},{"name":"E4","midi":64,"time":104.94479166666676,"velocity":0.4094488188976378,"duration":0.21979166666666572},{"name":"B4","midi":71,"time":105.09270833333342,"velocity":0.4566929133858268,"duration":0.11354166666667709},{"name":"E4","midi":64,"time":105.35208333333343,"velocity":0.4330708661417323,"duration":0.18854166666666572},{"name":"B4","midi":71,"time":105.48333333333342,"velocity":0.49606299212598426,"duration":0.08958333333333712},{"name":"E4","midi":64,"time":105.77500000000009,"velocity":0.47244094488188976,"duration":0.16562500000000568},{"name":"B4","midi":71,"time":105.89895833333343,"velocity":0.5039370078740157,"duration":0.3187500000000085},{"name":"E4","midi":64,"time":106.16145833333343,"velocity":0.36220472440944884,"duration":0.21770833333333428},{"name":"A4","midi":69,"time":106.32708333333343,"velocity":0.44881889763779526,"duration":0.08124999999999716},{"name":"E4","midi":64,"time":106.62916666666676,"velocity":0.4015748031496063,"duration":0.1770833333333286},{"name":"A4","midi":69,"time":106.73645833333343,"velocity":0.4094488188976378,"duration":0.12395833333332007},{"name":"E4","midi":64,"time":107.05937500000009,"velocity":0.4409448818897638,"duration":0.15208333333333712},{"name":"A4","midi":69,"time":107.18437500000009,"velocity":0.5039370078740157,"duration":0.11666666666667425},{"name":"E4","midi":64,"time":107.4062500000001,"velocity":0.36220472440944884,"duration":0.18958333333333144},{"name":"A4","midi":69,"time":107.5843750000001,"velocity":0.4409448818897638,"duration":0.14374999999999716},{"name":"E4","midi":64,"time":107.85937500000009,"velocity":0.4645669291338583,"duration":0.171875},{"name":"A4","midi":69,"time":108.05833333333342,"velocity":0.33070866141732286,"duration":0.03125},{"name":"E4","midi":64,"time":108.27395833333343,"velocity":0.33858267716535434,"duration":0.15625},{"name":"A4","midi":69,"time":108.41770833333342,"velocity":0.4015748031496063,"duration":0.11875000000000568},{"name":"E4","midi":64,"time":108.69895833333342,"velocity":0.3937007874015748,"duration":0.1364583333333229},{"name":"A4","midi":69,"time":108.81250000000009,"velocity":0.41732283464566927,"duration":0.09999999999999432},{"name":"E4","midi":64,"time":109.07708333333342,"velocity":0.3779527559055118,"duration":0.18541666666665435},{"name":"A4","midi":69,"time":109.20937500000008,"velocity":0.4330708661417323,"duration":0.15416666666665435},{"name":"E4","midi":64,"time":109.5083333333334,"velocity":0.4251968503937008,"duration":0.14687500000000853},{"name":"A4","midi":69,"time":109.61041666666674,"velocity":0.4566929133858268,"duration":0.1041666666666714},{"name":"E4","midi":64,"time":109.94479166666675,"velocity":0.33858267716535434,"duration":0.13750000000000284},{"name":"A4","midi":69,"time":110.04062500000008,"velocity":0.3858267716535433,"duration":0.08750000000000568},{"name":"E4","midi":64,"time":110.29270833333342,"velocity":0.4015748031496063,"duration":0.20937500000000853},{"name":"A4","midi":69,"time":110.41458333333343,"velocity":0.4330708661417323,"duration":0.11562500000000853},{"name":"E4","midi":64,"time":110.72083333333343,"velocity":0.4015748031496063,"duration":0.19166666666666288},{"name":"A4","midi":69,"time":110.8437500000001,"velocity":0.47244094488188976,"duration":0.1770833333333286},{"name":"E4","midi":64,"time":111.14583333333343,"velocity":0.4645669291338583,"duration":0.20520833333333144},{"name":"A4","midi":69,"time":111.3125000000001,"velocity":0.44881889763779526,"duration":0.078125},{"name":"E4","midi":64,"time":111.56041666666677,"velocity":0.4015748031496063,"duration":0.20000000000000284},{"name":"A4","midi":69,"time":111.7156250000001,"velocity":0.4645669291338583,"duration":0.10520833333333712},{"name":"E4","midi":64,"time":111.96979166666678,"velocity":0.4566929133858268,"duration":0.22083333333333144},{"name":"A4","midi":69,"time":112.11770833333344,"velocity":0.5275590551181102,"duration":0.11770833333333997},{"name":"E4","midi":64,"time":112.39583333333344,"velocity":0.4251968503937008,"duration":0.1979166666666714},{"name":"A4","midi":69,"time":112.54895833333345,"velocity":0.49606299212598426,"duration":0.1666666666666714},{"name":"E4","midi":64,"time":112.93750000000011,"velocity":0.4881889763779528,"duration":0.18958333333333144},{"name":"F#4","midi":66,"time":113.08229166666678,"velocity":0.5826771653543307,"duration":0.10208333333333997},{"name":"E4","midi":64,"time":113.35833333333345,"velocity":0.4645669291338583,"duration":0.10312500000000568},{"name":"F#4","midi":66,"time":113.46458333333345,"velocity":0.5748031496062992,"duration":0.13750000000000284},{"name":"F#4","midi":66,"time":113.74687500000012,"velocity":0.6141732283464567,"duration":0.14166666666666572},{"name":"G#4","midi":68,"time":113.86354166666678,"velocity":0.6220472440944882,"duration":0.11666666666667425},{"name":"F#4","midi":66,"time":114.13645833333345,"velocity":0.5511811023622047,"duration":0.14895833333332575},{"name":"G#4","midi":68,"time":114.28229166666678,"velocity":0.5984251968503937,"duration":0.08645833333332575},{"name":"G#4","midi":68,"time":114.53958333333344,"velocity":0.48031496062992124,"duration":0.1875},{"name":"A4","midi":69,"time":114.70416666666678,"velocity":0.4251968503937008,"duration":0.10104166666666003},{"name":"G#4","midi":68,"time":115.01666666666678,"velocity":0.44881889763779526,"duration":0.12187500000000284},{"name":"A4","midi":69,"time":115.13541666666679,"velocity":0.3700787401574803,"duration":0.07708333333333428},{"name":"G#4","midi":68,"time":115.42187500000011,"velocity":0.44881889763779526,"duration":0.1510416666666714},{"name":"A4","midi":69,"time":115.59687500000013,"velocity":0.2992125984251969,"duration":0.04583333333333428},{"name":"G#4","midi":68,"time":115.82708333333346,"velocity":0.3858267716535433,"duration":0.15729166666666572},{"name":"A4","midi":69,"time":116.00416666666679,"velocity":0.33070866141732286,"duration":0.04375000000000284},{"name":"G#4","midi":68,"time":116.2479166666668,"velocity":0.3937007874015748,"duration":0.14895833333333997},{"name":"A4","midi":69,"time":116.40729166666681,"velocity":0.28346456692913385,"duration":0.057291666666671404},{"name":"G#4","midi":68,"time":116.66770833333348,"velocity":0.3937007874015748,"duration":0.16979166666666856},{"name":"A4","midi":69,"time":116.82916666666681,"velocity":0.36220472440944884,"duration":0.06770833333334281},{"name":"G#4","midi":68,"time":117.06666666666682,"velocity":0.4251968503937008,"duration":0.17604166666666288},{"name":"A4","midi":69,"time":117.21979166666682,"velocity":0.33858267716535434,"duration":0.0833333333333286},{"name":"G#4","midi":68,"time":117.47812500000015,"velocity":0.33070866141732286,"duration":0.14791666666666003},{"name":"A4","midi":69,"time":117.64375000000014,"velocity":0.29133858267716534,"duration":0.03541666666666288},{"name":"E4","midi":64,"time":117.94375000000014,"velocity":0.3937007874015748,"duration":0.1666666666666714},{"name":"F#4","midi":66,"time":118.03750000000014,"velocity":0.5354330708661418,"duration":0.1447916666666771},{"name":"E4","midi":64,"time":118.35833333333348,"velocity":0.4330708661417323,"duration":0.13229166666666003},{"name":"F#4","midi":66,"time":118.48645833333347,"velocity":0.5118110236220472,"duration":0.12395833333333428},{"name":"F#4","midi":66,"time":118.77812500000014,"velocity":0.5354330708661418,"duration":0.15833333333333144},{"name":"G#4","midi":68,"time":118.92083333333348,"velocity":0.6456692913385826,"duration":0.1197916666666714},{"name":"F#4","midi":66,"time":119.18437500000014,"velocity":0.5433070866141733,"duration":0.16979166666665435},{"name":"G#4","midi":68,"time":119.33125000000014,"velocity":0.6141732283464567,"duration":0.14999999999999147},{"name":"D4","midi":62,"time":119.55104166666679,"velocity":0.4015748031496063,"duration":0.24062500000000853},{"name":"E4","midi":64,"time":119.74895833333346,"velocity":0.4645669291338583,"duration":0.1041666666666714},{"name":"D4","midi":62,"time":120.05208333333347,"velocity":0.33858267716535434,"duration":0.1666666666666714},{"name":"E4","midi":64,"time":120.1916666666668,"velocity":0.3228346456692913,"duration":0.109375},{"name":"D4","midi":62,"time":120.43645833333348,"velocity":0.25196850393700787,"duration":0.26250000000000284},{"name":"E4","midi":64,"time":120.64166666666681,"velocity":0.30708661417322836,"duration":0.08958333333333712},{"name":"D4","midi":62,"time":120.8947916666668,"velocity":0.3543307086614173,"duration":0.24687500000000284},{"name":"A4","midi":69,"time":121.04479166666681,"velocity":0.4645669291338583,"duration":0.10208333333332575},{"name":"D4","midi":62,"time":121.32395833333347,"velocity":0.3464566929133858,"duration":0.19687499999999147},{"name":"A4","midi":69,"time":121.50208333333346,"velocity":0.3464566929133858,"duration":0.08749999999999147},{"name":"D4","midi":62,"time":121.77812500000012,"velocity":0.30708661417322836,"duration":0.17395833333333144},{"name":"A4","midi":69,"time":121.96458333333345,"velocity":0.33858267716535434,"duration":0.06354166666666572},{"name":"D4","midi":62,"time":122.24270833333345,"velocity":0.4015748031496063,"duration":0.1614583333333286},{"name":"A4","midi":69,"time":122.38958333333345,"velocity":0.31496062992125984,"duration":0.07708333333333428},{"name":"D4","midi":62,"time":122.64375000000011,"velocity":0.4015748031496063,"duration":0.17395833333333144},{"name":"A4","midi":69,"time":122.81458333333345,"velocity":0.4645669291338583,"duration":0.07291666666665719},{"name":"C#4","midi":61,"time":123.11145833333343,"velocity":0.4251968503937008,"duration":0.15520833333333428},{"name":"A4","midi":69,"time":123.21041666666676,"velocity":0.4566929133858268,"duration":0.12395833333333428},{"name":"C#4","midi":61,"time":123.51354166666675,"velocity":0.3858267716535433,"duration":0.20208333333333428},{"name":"A4","midi":69,"time":123.65937500000008,"velocity":0.44881889763779526,"duration":0.1354166666666714},{"name":"C#4","midi":61,"time":123.96458333333342,"velocity":0.4015748031496063,"duration":0.19687500000000568},{"name":"A4","midi":69,"time":124.1156250000001,"velocity":0.44881889763779526,"duration":0.12395833333333428},{"name":"C#4","midi":61,"time":124.3968750000001,"velocity":0.3937007874015748,"duration":0.17500000000001137},{"name":"A4","midi":69,"time":124.5312500000001,"velocity":0.47244094488188976,"duration":0.125},{"name":"C#4","midi":61,"time":124.82083333333344,"velocity":0.4645669291338583,"duration":0.1822916666666714},{"name":"A4","midi":69,"time":124.94791666666677,"velocity":0.5039370078740157,"duration":0.12395833333333428},{"name":"C#4","midi":61,"time":125.24479166666677,"velocity":0.48031496062992124,"duration":0.18541666666666856},{"name":"A4","midi":69,"time":125.37812500000011,"velocity":0.49606299212598426,"duration":0.22083333333333144},{"name":"B3","midi":59,"time":125.71770833333345,"velocity":0.4251968503937008,"duration":0.17812499999999432},{"name":"A4","midi":69,"time":125.87500000000011,"velocity":0.33858267716535434,"duration":0.02916666666666856},{"name":"B3","midi":59,"time":126.10625000000012,"velocity":0.3464566929133858,"duration":0.14687499999999432},{"name":"A4","midi":69,"time":126.24687500000012,"velocity":0.3937007874015748,"duration":0.11145833333333144},{"name":"B3","midi":59,"time":126.54166666666679,"velocity":0.36220472440944884,"duration":0.23645833333333144},{"name":"A4","midi":69,"time":126.69479166666679,"velocity":0.4094488188976378,"duration":0.08229166666666288},{"name":"B3","midi":59,"time":126.95729166666678,"velocity":0.3700787401574803,"duration":0.22604166666666003},{"name":"A4","midi":69,"time":127.11666666666677,"velocity":0.4566929133858268,"duration":0.11770833333332575},{"name":"B3","midi":59,"time":127.39166666666677,"velocity":0.4251968503937008,"duration":0.1927083333333286},{"name":"A4","midi":69,"time":127.53645833333343,"velocity":0.4645669291338583,"duration":0.13437500000000568},{"name":"B3","midi":59,"time":127.81666666666676,"velocity":0.41732283464566927,"duration":0.18854166666666572},{"name":"A4","midi":69,"time":127.95833333333343,"velocity":0.49606299212598426,"duration":0.1302083333333428},{"name":"B3","midi":59,"time":128.25104166666677,"velocity":0.4251968503937008,"duration":0.19687500000000568},{"name":"A4","midi":69,"time":128.42291666666677,"velocity":0.3700787401574803,"duration":0.06354166666667993},{"name":"B3","midi":59,"time":128.65729166666677,"velocity":0.31496062992125984,"duration":0.1989583333333087},{"name":"A4","midi":69,"time":128.81041666666675,"velocity":0.3700787401574803,"duration":0.09791666666666288},{"name":"B3","midi":59,"time":129.07812500000009,"velocity":0.2677165354330709,"duration":0.20520833333333144},{"name":"A4","midi":69,"time":129.22395833333343,"velocity":0.3858267716535433,"duration":0.11562499999999432},{"name":"B3","midi":59,"time":129.51562500000009,"velocity":0.29133858267716534,"duration":0.21145833333332575},{"name":"A4","midi":69,"time":129.66979166666675,"velocity":0.3937007874015748,"duration":0.1510416666666572},{"name":"B3","midi":59,"time":129.98229166666675,"velocity":0.4015748031496063,"duration":0.20937499999999432},{"name":"A4","midi":69,"time":130.12291666666675,"velocity":0.4409448818897638,"duration":0.10312500000000568},{"name":"B3","midi":59,"time":130.37916666666675,"velocity":0.3543307086614173,"duration":0.20729166666666288},{"name":"A4","midi":69,"time":130.53750000000008,"velocity":0.4015748031496063,"duration":0.12187499999998863},{"name":"B3","midi":59,"time":130.84479166666674,"velocity":0.29133858267716534,"duration":0.21770833333332007},{"name":"A4","midi":69,"time":130.9958333333334,"velocity":0.36220472440944884,"duration":0.07604166666666856},{"name":"B3","midi":59,"time":131.31979166666673,"velocity":0.2204724409448819,"duration":0.22812500000000568},{"name":"A4","midi":69,"time":131.45625000000007,"velocity":0.33858267716535434,"duration":0.08020833333333144},{"name":"B3","midi":59,"time":131.74687500000007,"velocity":0.2677165354330709,"duration":0.19791666666668561},{"name":"A4","midi":69,"time":131.90416666666675,"velocity":0.30708661417322836,"duration":0.09062500000001705},{"name":"B3","midi":59,"time":132.13854166666678,"velocity":0.2755905511811024,"duration":0.21562500000001705},{"name":"A4","midi":69,"time":132.3197916666668,"velocity":0.31496062992125984,"duration":0.08437500000002274},{"name":"B3","midi":59,"time":132.5760416666668,"velocity":0.2204724409448819,"duration":0.2020833333333485},{"name":"A4","midi":69,"time":132.71250000000015,"velocity":0.3228346456692913,"duration":0.0979166666666913},{"name":"B3","midi":59,"time":132.96979166666685,"velocity":0.2677165354330709,"duration":0.21875},{"name":"A4","midi":69,"time":133.18645833333352,"velocity":0.25196850393700787,"duration":0.03125},{"name":"B3","midi":59,"time":133.4500000000002,"velocity":0.15748031496062992,"duration":0.2510416666666515},{"name":"A4","midi":69,"time":133.58750000000018,"velocity":0.2992125984251969,"duration":0.07291666666665719},{"name":"B3","midi":59,"time":133.90104166666683,"velocity":0.28346456692913385,"duration":0.19687500000000568},{"name":"A4","midi":69,"time":134.0489583333335,"velocity":0.3779527559055118,"duration":0.07187500000000568},{"name":"B3","midi":59,"time":134.3093750000002,"velocity":0.4881889763779528,"duration":0.17916666666667425},{"name":"F#4","midi":66,"time":134.4656250000002,"velocity":0.5669291338582677,"duration":0.09791666666666288},{"name":"B3","midi":59,"time":134.76354166666684,"velocity":0.4015748031496063,"duration":0.12291666666666856},{"name":"F#4","midi":66,"time":134.88229166666684,"velocity":0.4881889763779528,"duration":0.09999999999999432},{"name":"C#4","midi":61,"time":135.1614583333335,"velocity":0.6062992125984252,"duration":0.15520833333332007},{"name":"F#4","midi":66,"time":135.30416666666684,"velocity":0.5118110236220472,"duration":0.09479166666665151},{"name":"C#4","midi":61,"time":135.5645833333335,"velocity":0.5196850393700787,"duration":0.12812500000001137},{"name":"F#4","midi":66,"time":135.70312500000017,"velocity":0.47244094488188976,"duration":0.13124999999999432},{"name":"D4","midi":62,"time":135.94270833333348,"velocity":0.4409448818897638,"duration":0.18437500000001705},{"name":"A4","midi":69,"time":136.1020833333335,"velocity":0.4409448818897638,"duration":0.08020833333333144},{"name":"D4","midi":62,"time":136.37812500000015,"velocity":0.2204724409448819,"duration":0.2604166666666572},{"name":"A4","midi":69,"time":136.56354166666682,"velocity":0.3937007874015748,"duration":0.05937499999998863},{"name":"D4","midi":62,"time":136.8416666666668,"velocity":0.3464566929133858,"duration":0.17291666666667993},{"name":"A4","midi":69,"time":136.9833333333335,"velocity":0.4251968503937008,"duration":0.05833333333333712},{"name":"D4","midi":62,"time":137.27604166666683,"velocity":0.4015748031496063,"duration":0.15416666666666856},{"name":"B4","midi":71,"time":137.44791666666683,"velocity":0.3228346456692913,"duration":0.08541666666667425},{"name":"D4","midi":62,"time":137.69791666666683,"velocity":0.30708661417322836,"duration":0.18333333333333712},{"name":"B4","midi":71,"time":137.8302083333335,"velocity":0.4251968503937008,"duration":0.06874999999999432},{"name":"D4","midi":62,"time":138.0895833333335,"velocity":0.3464566929133858,"duration":0.20729166666666288},{"name":"B4","midi":71,"time":138.24791666666684,"velocity":0.4566929133858268,"duration":0.10624999999998863},{"name":"D4","midi":62,"time":138.50416666666683,"velocity":0.36220472440944884,"duration":0.17916666666667425},{"name":"B4","midi":71,"time":138.6520833333335,"velocity":0.48031496062992124,"duration":0.12187499999998863},{"name":"D4","midi":62,"time":138.9302083333335,"velocity":0.3779527559055118,"duration":0.16979166666666856},{"name":"B4","midi":71,"time":139.07916666666682,"velocity":0.5118110236220472,"duration":0.07291666666668561},{"name":"B3","midi":59,"time":139.3458333333335,"velocity":0.5433070866141733,"duration":0.19374999999999432},{"name":"F#4","midi":66,"time":139.55312500000016,"velocity":0.36220472440944884,"duration":0.05000000000001137},{"name":"B3","midi":59,"time":139.8020833333335,"velocity":0.4251968503937008,"duration":0.14895833333335418},{"name":"F#4","midi":66,"time":139.94791666666686,"velocity":0.47244094488188976,"duration":0.13333333333335418},{"name":"C#4","midi":61,"time":140.2437500000002,"velocity":0.5669291338582677,"duration":0.17500000000001137},{"name":"F#4","midi":66,"time":140.37187500000022,"velocity":0.5275590551181102,"duration":0.1302083333333428},{"name":"C#4","midi":61,"time":140.63437500000023,"velocity":0.5196850393700787,"duration":0.1875},{"name":"F#4","midi":66,"time":140.7854166666669,"velocity":0.4645669291338583,"duration":0.10000000000002274},{"name":"D4","midi":62,"time":141.03125000000026,"velocity":0.48031496062992124,"duration":0.17500000000001137},{"name":"F#4","midi":66,"time":141.20312500000026,"velocity":0.48031496062992124,"duration":0.08958333333333712},{"name":"D4","midi":62,"time":141.47812500000026,"velocity":0.3779527559055118,"duration":0.15625},{"name":"F#4","midi":66,"time":141.6052083333336,"velocity":0.3858267716535433,"duration":0.09583333333333144},{"name":"D4","midi":62,"time":141.86041666666694,"velocity":0.31496062992125984,"duration":0.23124999999998863},{"name":"F#4","midi":66,"time":142.01562500000026,"velocity":0.3700787401574803,"duration":0.11770833333332575},{"name":"D4","midi":62,"time":142.31145833333358,"velocity":0.28346456692913385,"duration":0.234375},{"name":"F#4","midi":66,"time":142.46770833333358,"velocity":0.3779527559055118,"duration":0.10312500000000568},{"name":"D4","midi":62,"time":142.73125000000024,"velocity":0.31496062992125984,"duration":0.2197916666666515},{"name":"F#4","midi":66,"time":142.88020833333357,"velocity":0.4094488188976378,"duration":0.08854166666665719},{"name":"D4","midi":62,"time":143.15833333333356,"velocity":0.33070866141732286,"duration":0.21354166666668561},{"name":"F#4","midi":66,"time":143.3197916666669,"velocity":0.33858267716535434,"duration":0.11354166666666288},{"name":"D4","midi":62,"time":143.5854166666669,"velocity":0.31496062992125984,"duration":0.19374999999999432},{"name":"F#4","midi":66,"time":143.75208333333356,"velocity":0.3937007874015748,"duration":0.09479166666667993},{"name":"D4","midi":62,"time":144.0541666666669,"velocity":0.23622047244094488,"duration":0.15104166666668561},{"name":"F#4","midi":66,"time":144.18645833333358,"velocity":0.28346456692913385,"duration":0.2593750000000057},{"name":"B3","midi":59,"time":144.4791666666669,"velocity":0.4251968503937008,"duration":0.2020833333333485},{"name":"A4","midi":69,"time":144.6583333333336,"velocity":0.4094488188976378,"duration":0.06458333333333144},{"name":"B3","midi":59,"time":144.8958333333336,"velocity":0.4015748031496063,"duration":0.14687499999999432},{"name":"A4","midi":69,"time":145.0208333333336,"velocity":0.49606299212598426,"duration":0.08645833333332575},{"name":"C#4","midi":61,"time":145.29062500000026,"velocity":0.5826771653543307,"duration":0.15625},{"name":"A4","midi":69,"time":145.4208333333336,"velocity":0.5196850393700787,"duration":0.09999999999999432},{"name":"C#4","midi":61,"time":145.7270833333336,"velocity":0.4566929133858268,"duration":0.17812499999999432},{"name":"A4","midi":69,"time":145.86145833333362,"velocity":0.5196850393700787,"duration":0.11458333333331439},{"name":"D4","midi":62,"time":146.13854166666692,"velocity":0.5669291338582677,"duration":0.1770833333333428},{"name":"A4","midi":69,"time":146.31250000000026,"velocity":0.4409448818897638,"duration":0.07395833333333712},{"name":"D4","midi":62,"time":146.5572916666669,"velocity":0.36220472440944884,"duration":0.1614583333333428},{"name":"A4","midi":69,"time":146.68541666666692,"velocity":0.4566929133858268,"duration":0.08125000000001137},{"name":"D4","midi":62,"time":146.96562500000027,"velocity":0.3464566929133858,"duration":0.18020833333332575},{"name":"A4","midi":69,"time":147.0927083333336,"velocity":0.5118110236220472,"duration":0.11354166666666288},{"name":"D4","midi":62,"time":147.3708333333336,"velocity":0.3937007874015748,"duration":0.19374999999999432},{"name":"B4","midi":71,"time":147.4958333333336,"velocity":0.4645669291338583,"duration":0.13124999999999432},{"name":"D4","midi":62,"time":147.81562500000027,"velocity":0.3858267716535433,"duration":0.18958333333333144},{"name":"B4","midi":71,"time":147.95104166666692,"velocity":0.49606299212598426,"duration":0.09375},{"name":"D4","midi":62,"time":148.2145833333336,"velocity":0.3858267716535433,"duration":0.19895833333333712},{"name":"B4","midi":71,"time":148.36250000000027,"velocity":0.49606299212598426,"duration":0.13124999999999432},{"name":"D4","midi":62,"time":148.6270833333336,"velocity":0.3858267716535433,"duration":0.1666666666666572},{"name":"B4","midi":71,"time":148.7760416666669,"velocity":0.5196850393700787,"duration":0.06979166666667425},{"name":"D4","midi":62,"time":149.01875000000027,"velocity":0.4566929133858268,"duration":0.15416666666666856},{"name":"C#5","midi":73,"time":149.15625000000026,"velocity":0.5826771653543307,"duration":0.07604166666666856},{"name":"D4","midi":62,"time":149.41562500000026,"velocity":0.4409448818897638,"duration":0.19999999999998863},{"name":"C#5","midi":73,"time":149.5645833333336,"velocity":0.5905511811023622,"duration":0.10520833333333712},{"name":"D4","midi":62,"time":149.84791666666692,"velocity":0.3858267716535433,"duration":0.171875},{"name":"C#5","midi":73,"time":149.98333333333358,"velocity":0.44881889763779526,"duration":0.08437500000002274},{"name":"D4","midi":62,"time":150.27187500000028,"velocity":0.4015748031496063,"duration":0.16249999999999432},{"name":"C#5","midi":73,"time":150.3895833333336,"velocity":0.5354330708661418,"duration":0.11250000000001137},{"name":"D4","midi":62,"time":150.65312500000027,"velocity":0.4566929133858268,"duration":0.15416666666664014},{"name":"D5","midi":74,"time":150.7927083333336,"velocity":0.5039370078740157,"duration":0.08437499999999432},{"name":"D4","midi":62,"time":151.0520833333336,"velocity":0.47244094488188976,"duration":0.20520833333333144},{"name":"D5","midi":74,"time":151.21354166666694,"velocity":0.5433070866141733,"duration":0.10729166666666856},{"name":"D4","midi":62,"time":151.5093750000003,"velocity":0.47244094488188976,"duration":0.18437500000001705},{"name":"D5","midi":74,"time":151.65104166666697,"velocity":0.5354330708661418,"duration":0.09166666666666856},{"name":"D4","midi":62,"time":151.93333333333365,"velocity":0.5275590551181102,"duration":0.18854166666667993},{"name":"D5","midi":74,"time":152.06770833333366,"velocity":0.6377952755905512,"duration":0.11250000000001137},{"name":"D4","midi":62,"time":152.29062500000035,"velocity":0.44881889763779526,"duration":0.18541666666666856},{"name":"D5","midi":74,"time":152.45416666666702,"velocity":0.5511811023622047,"duration":0.06041666666666856},{"name":"B3","midi":59,"time":152.8114583333337,"velocity":0.49606299212598426,"duration":0.1729166666666515},{"name":"A4","midi":69,"time":152.95833333333368,"velocity":0.5511811023622047,"duration":0.08854166666665719},{"name":"B3","midi":59,"time":153.20000000000033,"velocity":0.4409448818897638,"duration":0.140625},{"name":"A4","midi":69,"time":153.326041666667,"velocity":0.5826771653543307,"duration":0.07916666666665151},{"name":"C#4","midi":61,"time":153.616666666667,"velocity":0.5354330708661418,"duration":0.18958333333333144},{"name":"G4","midi":67,"time":153.76354166666698,"velocity":0.5511811023622047,"duration":0.10312500000000568},{"name":"C#4","midi":61,"time":154.04270833333365,"velocity":0.5118110236220472,"duration":0.17916666666667425},{"name":"G4","midi":67,"time":154.17500000000032,"velocity":0.48031496062992124,"duration":0.17395833333333144},{"name":"D4","midi":62,"time":154.43020833333367,"velocity":0.47244094488188976,"duration":0.17604166666666288},{"name":"F#4","midi":66,"time":154.572916666667,"velocity":0.5196850393700787,"duration":0.11875000000000568},{"name":"D4","midi":62,"time":154.85520833333368,"velocity":0.4251968503937008,"duration":0.17395833333335986},{"name":"F#4","midi":66,"time":154.98125000000036,"velocity":0.48031496062992124,"duration":0.12083333333333712},{"name":"D4","midi":62,"time":155.2645833333337,"velocity":0.44881889763779526,"duration":0.16249999999999432},{"name":"F#4","midi":66,"time":155.39166666666702,"velocity":0.4881889763779528,"duration":0.1416666666666515},{"name":"D4","midi":62,"time":155.641666666667,"velocity":0.3779527559055118,"duration":0.21458333333333712},{"name":"E4","midi":64,"time":155.79583333333366,"velocity":0.4330708661417323,"duration":0.09270833333334849},{"name":"D4","midi":62,"time":156.06458333333367,"velocity":0.3779527559055118,"duration":0.20937499999999432},{"name":"E4","midi":64,"time":156.21562500000033,"velocity":0.4015748031496063,"duration":0.10729166666666856},{"name":"D4","midi":62,"time":156.50312500000032,"velocity":0.3700787401574803,"duration":0.19062500000001137},{"name":"E4","midi":64,"time":156.64895833333367,"velocity":0.3779527559055118,"duration":0.08125000000001137},{"name":"D4","midi":62,"time":156.91354166666702,"velocity":0.3700787401574803,"duration":0.171875},{"name":"E4","midi":64,"time":157.03645833333368,"velocity":0.3858267716535433,"duration":0.06770833333334281},{"name":"D4","midi":62,"time":157.29166666666703,"velocity":0.3228346456692913,"duration":0.1458333333333428},{"name":"E4","midi":64,"time":157.45416666666705,"velocity":0.36220472440944884,"duration":0.09479166666667993},{"name":"E4","midi":64,"time":157.68333333333374,"velocity":0.33858267716535434,"duration":0.16979166666666856},{"name":"A4","midi":69,"time":157.85625000000041,"velocity":0.29133858267716534,"duration":0.04895833333333144},{"name":"E4","midi":64,"time":158.07708333333375,"velocity":0.2992125984251969,"duration":0.15729166666667993},{"name":"A4","midi":69,"time":158.2635416666671,"velocity":0.2992125984251969,"duration":0.04270833333333712},{"name":"E4","midi":64,"time":158.50833333333375,"velocity":0.30708661417322836,"duration":0.16041666666666288},{"name":"A4","midi":69,"time":158.6541666666671,"velocity":0.33858267716535434,"duration":0.05104166666666288},{"name":"E4","midi":64,"time":158.8979166666671,"velocity":0.33858267716535434,"duration":0.13125000000002274},{"name":"A4","midi":69,"time":159.01250000000044,"velocity":0.3858267716535433,"duration":0.09583333333335986},{"name":"E4","midi":64,"time":159.31562500000047,"velocity":0.3464566929133858,"duration":0.14270833333333144},{"name":"A4","midi":69,"time":159.42291666666713,"velocity":0.3779527559055118,"duration":0.06979166666667425},{"name":"E4","midi":64,"time":159.70625000000047,"velocity":0.2992125984251969,"duration":0.21979166666667993},{"name":"A4","midi":69,"time":159.86250000000047,"velocity":0.29133858267716534,"duration":0.06562500000001137},{"name":"E4","midi":64,"time":160.1333333333338,"velocity":0.3464566929133858,"duration":0.15520833333332007},{"name":"A4","midi":69,"time":160.2583333333338,"velocity":0.33858267716535434,"duration":0.06041666666664014},{"name":"E4","midi":64,"time":160.5010416666671,"velocity":0.3543307086614173,"duration":0.18541666666666856},{"name":"A4","midi":69,"time":160.64583333333377,"velocity":0.33070866141732286,"duration":0.06458333333333144},{"name":"E4","midi":64,"time":160.89375000000044,"velocity":0.30708661417322836,"duration":0.21666666666664014},{"name":"A4","midi":69,"time":161.08020833333376,"velocity":0.3464566929133858,"duration":0.07499999999998863},{"name":"E4","midi":64,"time":161.3218750000004,"velocity":0.3543307086614173,"duration":0.20104166666666856},{"name":"A4","midi":69,"time":161.48645833333373,"velocity":0.31496062992125984,"duration":0.03229166666667993},{"name":"E4","midi":64,"time":161.71458333333374,"velocity":0.3779527559055118,"duration":0.2135416666666572},{"name":"A4","midi":69,"time":161.88854166666707,"velocity":0.33858267716535434,"duration":0.025000000000005684},{"name":"E4","midi":64,"time":162.1145833333337,"velocity":0.33070866141732286,"duration":0.14583333333331439},{"name":"A4","midi":69,"time":162.2520833333337,"velocity":0.36220472440944884,"duration":0.05104166666666288},{"name":"E4","midi":64,"time":162.49062500000036,"velocity":0.3464566929133858,"duration":0.20937500000002274},{"name":"B4","midi":71,"time":162.66562500000038,"velocity":0.3464566929133858,"duration":0.07083333333335418},{"name":"E4","midi":64,"time":162.91770833333374,"velocity":0.3464566929133858,"duration":0.16458333333332575},{"name":"B4","midi":71,"time":163.07291666666706,"velocity":0.4015748031496063,"duration":0.09687500000001137},{"name":"E4","midi":64,"time":163.36145833333373,"velocity":0.3937007874015748,"duration":0.15416666666666856},{"name":"B4","midi":71,"time":163.5125000000004,"velocity":0.4015748031496063,"duration":0.0354166666666913},{"name":"E4","midi":64,"time":163.71354166666708,"velocity":0.3779527559055118,"duration":0.16770833333333712},{"name":"B4","midi":71,"time":163.8781250000004,"velocity":0.3779527559055118,"duration":0.09375},{"name":"E4","midi":64,"time":164.1718750000004,"velocity":0.3937007874015748,"duration":0.1666666666666572},{"name":"A4","midi":69,"time":164.32395833333374,"velocity":0.33858267716535434,"duration":0.03020833333332007},{"name":"E4","midi":64,"time":164.5437500000004,"velocity":0.3543307086614173,"duration":0.21249999999997726},{"name":"A4","midi":69,"time":164.72604166666704,"velocity":0.31496062992125984,"duration":0.054166666666645824},{"name":"E4","midi":64,"time":164.95416666666702,"velocity":0.3779527559055118,"duration":0.17499999999998295},{"name":"A4","midi":69,"time":165.08333333333368,"velocity":0.33070866141732286,"duration":0.10729166666664014},{"name":"E4","midi":64,"time":165.332291666667,"velocity":0.3937007874015748,"duration":0.17083333333332007},{"name":"A4","midi":69,"time":165.463541666667,"velocity":0.3464566929133858,"duration":0.05833333333333712},{"name":"E4","midi":64,"time":165.707291666667,"velocity":0.33858267716535434,"duration":0.21875},{"name":"A4","midi":69,"time":165.90625000000034,"velocity":0.30708661417322836,"duration":0.05729166666665719},{"name":"E4","midi":64,"time":166.13958333333366,"velocity":0.36220472440944884,"duration":0.19270833333331439},{"name":"A4","midi":69,"time":166.27500000000032,"velocity":0.3779527559055118,"duration":0.07499999999998863},{"name":"E4","midi":64,"time":166.55104166666698,"velocity":0.4251968503937008,"duration":0.17708333333331439},{"name":"A4","midi":69,"time":166.6843750000003,"velocity":0.4015748031496063,"duration":0.08854166666665719},{"name":"E4","midi":64,"time":166.92291666666696,"velocity":0.3858267716535433,"duration":0.22083333333333144},{"name":"A4","midi":69,"time":167.0562500000003,"velocity":0.4566929133858268,"duration":0.16354166666667425},{"name":"E4","midi":64,"time":167.37604166666696,"velocity":0.3937007874015748,"duration":0.21354166666668561},{"name":"A4","midi":69,"time":167.51666666666696,"velocity":0.4330708661417323,"duration":0.06770833333334281},{"name":"E4","midi":64,"time":167.77500000000032,"velocity":0.4094488188976378,"duration":0.16770833333333712},{"name":"A4","midi":69,"time":167.92083333333366,"velocity":0.3779527559055118,"duration":0.07916666666665151},{"name":"E4","midi":64,"time":168.15520833333363,"velocity":0.3779527559055118,"duration":0.18958333333335986},{"name":"A4","midi":69,"time":168.2968750000003,"velocity":0.3700787401574803,"duration":0.09687500000001137},{"name":"E4","midi":64,"time":168.56041666666698,"velocity":0.3779527559055118,"duration":0.18541666666666856},{"name":"A4","midi":69,"time":168.70104166666698,"velocity":0.4251968503937008,"duration":0.10729166666666856},{"name":"E4","midi":64,"time":168.95833333333366,"velocity":0.33858267716535434,"duration":0.17395833333333144},{"name":"A4","midi":69,"time":169.09270833333366,"velocity":0.4015748031496063,"duration":0.06458333333333144},{"name":"E4","midi":64,"time":169.37083333333365,"velocity":0.4015748031496063,"duration":0.19583333333335418},{"name":"A4","midi":69,"time":169.53020833333366,"velocity":0.4094488188976378,"duration":0.09375},{"name":"E4","midi":64,"time":169.782291666667,"velocity":0.3700787401574803,"duration":0.18333333333333712},{"name":"A4","midi":69,"time":169.90937500000032,"velocity":0.4015748031496063,"duration":0.09583333333333144},{"name":"E4","midi":64,"time":170.20520833333364,"velocity":0.33858267716535434,"duration":0.18125000000000568},{"name":"A4","midi":69,"time":170.33333333333366,"velocity":0.3464566929133858,"duration":0.08854166666665719},{"name":"E4","midi":64,"time":170.60833333333363,"velocity":0.33070866141732286,"duration":0.2072916666666913},{"name":"A4","midi":69,"time":170.73645833333364,"velocity":0.4015748031496063,"duration":0.11979166666668561},{"name":"E4","midi":64,"time":171.02708333333365,"velocity":0.3464566929133858,"duration":0.18854166666667993},{"name":"A4","midi":69,"time":171.188541666667,"velocity":0.3228346456692913,"duration":0.05937500000001705},{"name":"E4","midi":64,"time":171.41250000000034,"velocity":0.3543307086614173,"duration":0.1864583333333485},{"name":"A4","midi":69,"time":171.56979166666702,"velocity":0.3228346456692913,"duration":0.09375},{"name":"E4","midi":64,"time":171.80625000000035,"velocity":0.3779527559055118,"duration":0.13333333333332575},{"name":"A4","midi":69,"time":171.95208333333366,"velocity":0.4566929133858268,"duration":0.07395833333333712},{"name":"E4","midi":64,"time":172.272916666667,"velocity":0.3543307086614173,"duration":0.04270833333333712},{"name":"A4","midi":69,"time":172.38020833333366,"velocity":0.33858267716535434,"duration":0.04270833333333712},{"name":"E4","midi":64,"time":172.59062500000033,"velocity":0.3779527559055118,"duration":0.1666666666666572},{"name":"A4","midi":69,"time":172.760416666667,"velocity":0.36220472440944884,"duration":0.05833333333333712},{"name":"E4","midi":64,"time":172.994791666667,"velocity":0.33070866141732286,"duration":0.18437500000001705},{"name":"A4","midi":69,"time":173.15208333333368,"velocity":0.33070866141732286,"duration":0.055208333333325754},{"name":"E4","midi":64,"time":173.36875000000035,"velocity":0.3779527559055118,"duration":0.19166666666666288},{"name":"A4","midi":69,"time":173.4989583333337,"velocity":0.3937007874015748,"duration":0.11458333333331439},{"name":"E4","midi":64,"time":173.77291666666702,"velocity":0.33858267716535434,"duration":0.20624999999998295},{"name":"B4","midi":71,"time":173.92395833333367,"velocity":0.3779527559055118,"duration":0.09791666666666288},{"name":"E4","midi":64,"time":174.17395833333367,"velocity":0.3937007874015748,"duration":0.18958333333333144},{"name":"B4","midi":71,"time":174.32812500000034,"velocity":0.4094488188976378,"duration":0.09166666666666856},{"name":"E4","midi":64,"time":174.55833333333368,"velocity":0.4251968503937008,"duration":0.18958333333333144},{"name":"B4","midi":71,"time":174.70833333333368,"velocity":0.4330708661417323,"duration":0.10104166666664582},{"name":"E4","midi":64,"time":174.94062500000032,"velocity":0.4409448818897638,"duration":0.171875},{"name":"B4","midi":71,"time":175.09270833333366,"velocity":0.4251968503937008,"duration":0.09999999999999432},{"name":"E4","midi":64,"time":175.33958333333365,"velocity":0.47244094488188976,"duration":0.15625},{"name":"B4","midi":71,"time":175.49791666666698,"velocity":0.4015748031496063,"duration":0.05937499999998863},{"name":"E4","midi":64,"time":175.72604166666696,"velocity":0.4251968503937008,"duration":0.19166666666666288},{"name":"B4","midi":71,"time":175.88229166666696,"velocity":0.4330708661417323,"duration":0.12083333333333712},{"name":"E4","midi":64,"time":176.1656250000003,"velocity":0.5039370078740157,"duration":0.17083333333332007},{"name":"B4","midi":71,"time":176.3052083333336,"velocity":0.48031496062992124,"duration":0.06874999999999432},{"name":"E4","midi":64,"time":176.5239583333336,"velocity":0.4645669291338583,"duration":0.15416666666666856},{"name":"B4","midi":71,"time":176.6552083333336,"velocity":0.48031496062992124,"duration":0.13541666666668561},{"name":"E4","midi":64,"time":176.9718750000003,"velocity":0.4645669291338583,"duration":0.16354166666667425},{"name":"A4","midi":69,"time":177.11770833333364,"velocity":0.41732283464566927,"duration":0.05104166666666288},{"name":"E4","midi":64,"time":177.3187500000003,"velocity":0.4015748031496063,"duration":0.19687499999997726},{"name":"A4","midi":69,"time":177.4718750000003,"velocity":0.4251968503937008,"duration":0.08749999999997726},{"name":"E4","midi":64,"time":177.71979166666694,"velocity":0.4409448818897638,"duration":0.19062500000001137},{"name":"A4","midi":69,"time":177.8520833333336,"velocity":0.41732283464566927,"duration":0.11562499999999432},{"name":"E4","midi":64,"time":178.12500000000028,"velocity":0.44881889763779526,"duration":0.1822916666666572},{"name":"A4","midi":69,"time":178.26041666666694,"velocity":0.4330708661417323,"duration":0.11145833333333144},{"name":"E4","midi":64,"time":178.53333333333362,"velocity":0.44881889763779526,"duration":0.19687500000000568},{"name":"A4","midi":69,"time":178.67708333333363,"velocity":0.3937007874015748,"duration":0.11145833333333144},{"name":"E4","midi":64,"time":178.92812500000028,"velocity":0.4251968503937008,"duration":0.1875},{"name":"A4","midi":69,"time":179.07604166666695,"velocity":0.3779527559055118,"duration":0.08645833333332575},{"name":"E4","midi":64,"time":179.3177083333336,"velocity":0.4015748031496063,"duration":0.1770833333333428},{"name":"A4","midi":69,"time":179.47500000000028,"velocity":0.3543307086614173,"duration":0.07708333333332007},{"name":"E4","midi":64,"time":179.72500000000028,"velocity":0.4015748031496063,"duration":0.203125},{"name":"A4","midi":69,"time":179.84062500000027,"velocity":0.4015748031496063,"duration":0.16354166666667425},{"name":"E4","midi":64,"time":180.15312500000027,"velocity":0.4094488188976378,"duration":0.20104166666666856},{"name":"A4","midi":69,"time":180.2895833333336,"velocity":0.3779527559055118,"duration":0.08854166666665719},{"name":"E4","midi":64,"time":180.5364583333336,"velocity":0.3543307086614173,"duration":0.18958333333333144},{"name":"A4","midi":69,"time":180.70416666666694,"velocity":0.3464566929133858,"duration":0.052083333333314386},{"name":"E4","midi":64,"time":180.93645833333358,"velocity":0.2992125984251969,"duration":0.18125000000000568},{"name":"A4","midi":69,"time":181.05937500000024,"velocity":0.4094488188976378,"duration":0.12083333333333712},{"name":"E4","midi":64,"time":181.33125000000024,"velocity":0.3779527559055118,"duration":0.17916666666667425},{"name":"A4","midi":69,"time":181.48125000000024,"velocity":0.33858267716535434,"duration":0.08854166666665719},{"name":"E4","midi":64,"time":181.71770833333358,"velocity":0.41732283464566927,"duration":0.11041666666667993},{"name":"A4","midi":69,"time":181.86770833333358,"velocity":0.44881889763779526,"duration":0.08750000000000568},{"name":"B3","midi":59,"time":182.1208333333336,"velocity":0.4330708661417323,"duration":0.12083333333333712},{"name":"E4","midi":64,"time":182.2614583333336,"velocity":0.3779527559055118,"duration":0.12395833333332007},{"name":"B3","midi":59,"time":182.5322916666669,"velocity":0.3779527559055118,"duration":0.1614583333333428},{"name":"E4","midi":64,"time":182.63750000000024,"velocity":0.4094488188976378,"duration":0.13645833333333712},{"name":"B3","midi":59,"time":182.92604166666692,"velocity":0.28346456692913385,"duration":0.20729166666666288},{"name":"E4","midi":64,"time":183.04479166666692,"velocity":0.4015748031496063,"duration":0.15833333333333144},{"name":"B3","midi":59,"time":183.32083333333358,"velocity":0.3700787401574803,"duration":0.18541666666666856},{"name":"E4","midi":64,"time":183.4697916666669,"velocity":0.3779527559055118,"duration":0.109375},{"name":"B3","midi":59,"time":183.69375000000025,"velocity":0.4094488188976378,"duration":0.15625},{"name":"E4","midi":64,"time":183.8708333333336,"velocity":0.3464566929133858,"duration":0.04374999999998863},{"name":"E4","midi":64,"time":184.1260416666669,"velocity":0.3779527559055118,"duration":0.14687499999999432},{"name":"A4","midi":69,"time":184.22812500000023,"velocity":0.5118110236220472,"duration":0.09062499999998863},{"name":"E4","midi":64,"time":184.46875000000023,"velocity":0.4645669291338583,"duration":0.10833333333332007},{"name":"A4","midi":69,"time":184.5968750000002,"velocity":0.5118110236220472,"duration":0.13854166666666856},{"name":"E4","midi":64,"time":184.9062500000002,"velocity":0.49606299212598426,"duration":0.11875000000000568},{"name":"A4","midi":69,"time":185.0375000000002,"velocity":0.3543307086614173,"duration":0.04791666666667993},{"name":"E4","midi":64,"time":185.2750000000002,"velocity":0.4094488188976378,"duration":0.16979166666666856},{"name":"A4","midi":69,"time":185.41875000000022,"velocity":0.3858267716535433,"duration":0.07291666666665719},{"name":"E4","midi":64,"time":185.67395833333353,"velocity":0.47244094488188976,"duration":0.18958333333333144},{"name":"A4","midi":69,"time":185.79895833333353,"velocity":0.49606299212598426,"duration":0.09479166666665151},{"name":"E4","midi":64,"time":186.02916666666684,"velocity":0.48031496062992124,"duration":0.1875},{"name":"A4","midi":69,"time":186.18437500000016,"velocity":0.5039370078740157,"duration":0.13229166666667425},{"name":"E4","midi":64,"time":186.44166666666683,"velocity":0.3937007874015748,"duration":0.22499999999999432},{"name":"B4","midi":71,"time":186.6270833333335,"velocity":0.47244094488188976,"duration":0.09479166666665151},{"name":"E4","midi":64,"time":186.88437500000015,"velocity":0.4015748031496063,"duration":0.17291666666667993},{"name":"B4","midi":71,"time":187.02500000000015,"velocity":0.41732283464566927,"duration":0.08750000000000568},{"name":"E4","midi":64,"time":187.25625000000016,"velocity":0.4251968503937008,"duration":0.19270833333331439},{"name":"B4","midi":71,"time":187.40937500000015,"velocity":0.4409448818897638,"duration":0.11562499999999432},{"name":"E4","midi":64,"time":187.66145833333348,"velocity":0.4251968503937008,"duration":0.1666666666666572},{"name":"B4","midi":71,"time":187.78645833333348,"velocity":0.49606299212598426,"duration":0.13749999999998863},{"name":"E4","midi":64,"time":188.05833333333348,"velocity":0.4251968503937008,"duration":0.16875000000001705},{"name":"B4","midi":71,"time":188.20416666666682,"velocity":0.4251968503937008,"duration":0.07187500000000568},{"name":"E4","midi":64,"time":188.46979166666682,"velocity":0.3937007874015748,"duration":0.18333333333333712},{"name":"B4","midi":71,"time":188.61979166666683,"velocity":0.41732283464566927,"duration":0.12395833333332007},{"name":"E4","midi":64,"time":188.89270833333347,"velocity":0.44881889763779526,"duration":0.17812500000002274},{"name":"B4","midi":71,"time":189.03645833333348,"velocity":0.4645669291338583,"duration":0.08437500000002274},{"name":"E4","midi":64,"time":189.2864583333335,"velocity":0.47244094488188976,"duration":0.17291666666667993},{"name":"B4","midi":71,"time":189.4343750000002,"velocity":0.4566929133858268,"duration":0.1302083333333428},{"name":"E4","midi":64,"time":189.68541666666687,"velocity":0.47244094488188976,"duration":0.19479166666667425},{"name":"A4","midi":69,"time":189.83333333333354,"velocity":0.48031496062992124,"duration":0.09166666666666856},{"name":"E4","midi":64,"time":190.09895833333354,"velocity":0.4409448818897638,"duration":0.16979166666664014},{"name":"A4","midi":69,"time":190.22291666666686,"velocity":0.4330708661417323,"duration":0.09270833333332007},{"name":"E4","midi":64,"time":190.4739583333335,"velocity":0.47244094488188976,"duration":0.18020833333332575},{"name":"A4","midi":69,"time":190.6114583333335,"velocity":0.44881889763779526,"duration":0.09479166666667993},{"name":"E4","midi":64,"time":190.89479166666686,"velocity":0.48031496062992124,"duration":0.15208333333333712},{"name":"A4","midi":69,"time":191.0000000000002,"velocity":0.48031496062992124,"duration":0.12395833333332007},{"name":"E4","midi":64,"time":191.28958333333352,"velocity":0.5433070866141733,"duration":0.13958333333332007},{"name":"A4","midi":69,"time":191.42291666666685,"velocity":0.47244094488188976,"duration":0.08958333333333712},{"name":"E4","midi":64,"time":191.6520833333335,"velocity":0.48031496062992124,"duration":0.1708333333333485},{"name":"A4","midi":69,"time":191.78437500000018,"velocity":0.5118110236220472,"duration":0.13854166666666856},{"name":"E4","midi":64,"time":192.07291666666686,"velocity":0.5354330708661418,"duration":0.1666666666666572},{"name":"A4","midi":69,"time":192.20625000000018,"velocity":0.49606299212598426,"duration":0.08645833333332575},{"name":"E4","midi":64,"time":192.4343750000002,"velocity":0.4409448818897638,"duration":0.21979166666667993},{"name":"A4","midi":69,"time":192.58645833333352,"velocity":0.5433070866141733,"duration":0.16979166666666856},{"name":"E4","midi":64,"time":192.88958333333352,"velocity":0.4566929133858268,"duration":0.20520833333333144},{"name":"A4","midi":69,"time":193.0375000000002,"velocity":0.4566929133858268,"duration":0.09166666666666856},{"name":"E4","midi":64,"time":193.28645833333354,"velocity":0.4251968503937008,"duration":0.15312500000001705},{"name":"A4","midi":69,"time":193.42291666666688,"velocity":0.44881889763779526,"duration":0.06354166666667993},{"name":"B3","midi":59,"time":193.6791666666669,"velocity":0.5118110236220472,"duration":0.15208333333333712},{"name":"E4","midi":64,"time":193.82812500000023,"velocity":0.48031496062992124,"duration":0.13125000000002274},{"name":"B3","midi":59,"time":194.07083333333358,"velocity":0.44881889763779526,"duration":0.17708333333331439},{"name":"E4","midi":64,"time":194.20208333333358,"velocity":0.49606299212598426,"duration":0.16979166666664014},{"name":"B3","midi":59,"time":194.50000000000023,"velocity":0.5039370078740157,"duration":0.18645833333332007},{"name":"E4","midi":64,"time":194.62708333333356,"velocity":0.49606299212598426,"duration":0.13124999999999432},{"name":"B3","midi":59,"time":194.87187500000022,"velocity":0.4094488188976378,"duration":0.1875},{"name":"E4","midi":64,"time":194.99270833333355,"velocity":0.49606299212598426,"duration":0.1458333333333428},{"name":"G#3","midi":56,"time":195.2572916666669,"velocity":0.6299212598425197,"duration":0.1822916666666572},{"name":"B3","midi":59,"time":195.41562500000023,"velocity":0.4566929133858268,"duration":0.13645833333333712},{"name":"G#3","midi":56,"time":195.65625000000023,"velocity":0.4645669291338583,"duration":0.24583333333333712},{"name":"B3","midi":59,"time":195.80520833333355,"velocity":0.5039370078740157,"duration":0.16562500000000568},{"name":"G#3","midi":56,"time":196.08125000000024,"velocity":0.4566929133858268,"duration":0.20729166666666288},{"name":"A3","midi":57,"time":196.2510416666669,"velocity":0.4566929133858268,"duration":0.09270833333332007},{"name":"G#3","midi":56,"time":196.5354166666669,"velocity":0.44881889763779526,"duration":0.14791666666667425},{"name":"A3","midi":57,"time":196.68437500000024,"velocity":0.4645669291338583,"duration":0.06145833333332007},{"name":"G#3","midi":56,"time":196.9041666666669,"velocity":0.5039370078740157,"duration":0.1572916666666515},{"name":"A3","midi":57,"time":197.05312500000022,"velocity":0.47244094488188976,"duration":0.07708333333332007},{"name":"G#3","midi":56,"time":197.27083333333354,"velocity":0.5118110236220472,"duration":0.16249999999999432},{"name":"A3","midi":57,"time":197.40729166666688,"velocity":0.49606299212598426,"duration":0.13749999999998863},{"name":"G#3","midi":56,"time":197.67083333333355,"velocity":0.5511811023622047,"duration":0.15312500000001705},{"name":"A3","midi":57,"time":197.8010416666669,"velocity":0.4409448818897638,"duration":0.10104166666667425},{"name":"G#3","midi":56,"time":198.04583333333358,"velocity":0.4409448818897638,"duration":0.18854166666667993},{"name":"A3","midi":57,"time":198.1979166666669,"velocity":0.41732283464566927,"duration":0.10208333333335418},{"name":"G#3","midi":56,"time":198.46041666666693,"velocity":0.4881889763779528,"duration":0.23020833333333712},{"name":"A3","midi":57,"time":198.5739583333336,"velocity":0.48031496062992124,"duration":0.109375},{"name":"G#3","midi":56,"time":198.83854166666694,"velocity":0.5590551181102362,"duration":0.17916666666667425},{"name":"A3","midi":57,"time":198.97500000000028,"velocity":0.4330708661417323,"duration":0.06666666666666288},{"name":"A3","midi":57,"time":199.2395833333336,"velocity":0.49606299212598426,"duration":0.13749999999998863},{"name":"B3","midi":59,"time":199.39687500000025,"velocity":0.4566929133858268,"duration":0.10104166666667425},{"name":"A3","midi":57,"time":199.65416666666692,"velocity":0.48031496062992124,"duration":0.14375000000001137},{"name":"B3","midi":59,"time":199.7864583333336,"velocity":0.4881889763779528,"duration":0.11250000000001137},{"name":"A3","midi":57,"time":200.01979166666695,"velocity":0.4881889763779528,"duration":0.14895833333335418},{"name":"B3","midi":59,"time":200.15208333333362,"velocity":0.5196850393700787,"duration":0.11041666666667993},{"name":"A3","midi":57,"time":200.4312500000003,"velocity":0.5826771653543307,"duration":0.1520833333333087},{"name":"B3","midi":59,"time":200.5552083333336,"velocity":0.5196850393700787,"duration":0.14791666666664582},{"name":"A3","midi":57,"time":200.8458333333336,"velocity":0.5590551181102362,"duration":0.13645833333333712},{"name":"B3","midi":59,"time":200.9739583333336,"velocity":0.48031496062992124,"duration":0.11770833333332575},{"name":"A3","midi":57,"time":201.23125000000024,"velocity":0.5118110236220472,"duration":0.17499999999998295},{"name":"B3","midi":59,"time":201.38437500000023,"velocity":0.4881889763779528,"duration":0.125},{"name":"A3","midi":57,"time":201.6541666666669,"velocity":0.6062992125984252,"duration":0.15416666666666856},{"name":"B3","midi":59,"time":201.7979166666669,"velocity":0.49606299212598426,"duration":0.09375},{"name":"A3","midi":57,"time":202.0072916666669,"velocity":0.49606299212598426,"duration":0.16354166666667425},{"name":"B3","midi":59,"time":202.1697916666669,"velocity":0.47244094488188976,"duration":0.046875},{"name":"B3","midi":59,"time":202.4697916666669,"velocity":0.5196850393700787,"duration":0.15729166666667993},{"name":"E4","midi":64,"time":202.61354166666692,"velocity":0.4566929133858268,"duration":0.11041666666667993},{"name":"B3","midi":59,"time":202.83854166666694,"velocity":0.4409448818897638,"duration":0.17500000000001137},{"name":"E4","midi":64,"time":202.9770833333336,"velocity":0.5196850393700787,"duration":0.11875000000000568},{"name":"B3","midi":59,"time":203.26979166666695,"velocity":0.4330708661417323,"duration":0.13229166666664582},{"name":"E4","midi":64,"time":203.39166666666694,"velocity":0.5275590551181102,"duration":0.09687499999998295},{"name":"B3","midi":59,"time":203.62916666666692,"velocity":0.5118110236220472,"duration":0.1510416666666572},{"name":"E4","midi":64,"time":203.77187500000025,"velocity":0.5354330708661418,"duration":0.08229166666666288},{"name":"B3","midi":59,"time":204.0385416666669,"velocity":0.5511811023622047,"duration":0.14166666666667993},{"name":"C#4","midi":61,"time":204.19270833333357,"velocity":0.5039370078740157,"duration":0.038541666666674246},{"name":"B3","midi":59,"time":204.42500000000024,"velocity":0.48031496062992124,"duration":0.13333333333335418},{"name":"C#4","midi":61,"time":204.55520833333358,"velocity":0.5748031496062992,"duration":0.08437500000002274},{"name":"B3","midi":59,"time":204.8520833333336,"velocity":0.5433070866141733,"duration":0.1416666666666515},{"name":"C#4","midi":61,"time":204.98750000000027,"velocity":0.5905511811023622,"duration":0.06770833333331439},{"name":"B3","midi":59,"time":205.19062500000024,"velocity":0.5196850393700787,"duration":0.14687499999999432},{"name":"C#4","midi":61,"time":205.35312500000023,"velocity":0.5354330708661418,"duration":0.03125},{"name":"E4","midi":64,"time":205.6572916666669,"velocity":0.5433070866141733,"duration":0.12083333333333712},{"name":"A4","midi":69,"time":205.7677083333336,"velocity":0.49606299212598426,"duration":0.10208333333332575},{"name":"E4","midi":64,"time":205.99270833333358,"velocity":0.48031496062992124,"duration":0.171875},{"name":"A4","midi":69,"time":206.1510416666669,"velocity":0.5354330708661418,"duration":0.09687500000001137},{"name":"E4","midi":64,"time":206.40937500000027,"velocity":0.5118110236220472,"duration":0.14687500000002274},{"name":"A4","midi":69,"time":206.53541666666695,"velocity":0.5354330708661418,"duration":0.08229166666666288},{"name":"E4","midi":64,"time":206.72604166666693,"velocity":0.5354330708661418,"duration":0.18958333333333144},{"name":"A4","midi":69,"time":206.9052083333336,"velocity":0.5826771653543307,"duration":0.10520833333333712},{"name":"F#3","midi":54,"time":207.0552083333336,"velocity":0.7401574803149606,"duration":0.1416666666666515},{"name":"B3","midi":59,"time":207.18854166666694,"velocity":0.6062992125984252,"duration":0.15833333333330302},{"name":"E4","midi":64,"time":207.33229166666692,"velocity":0.5433070866141733,"duration":0.08124999999998295},{"name":"F#3","midi":54,"time":207.43750000000023,"velocity":0.7165354330708661,"duration":0.17604166666666288},{"name":"B3","midi":59,"time":207.58333333333357,"velocity":0.5354330708661418,"duration":0.171875},{"name":"E4","midi":64,"time":207.7229166666669,"velocity":0.5354330708661418,"duration":0.08958333333333712},{"name":"F#3","midi":54,"time":207.82187500000023,"velocity":0.7007874015748031,"duration":0.1864583333333485},{"name":"B3","midi":59,"time":207.9541666666669,"velocity":0.5748031496062992,"duration":0.17812499999999432},{"name":"E4","midi":64,"time":208.11458333333357,"velocity":0.6220472440944882,"duration":0.0979166666666913},{"name":"F#3","midi":54,"time":208.21145833333358,"velocity":0.6535433070866141,"duration":0.05312500000002274},{"name":"B3","midi":59,"time":208.3364583333336,"velocity":0.6299212598425197,"duration":0.18541666666666856},{"name":"E4","midi":64,"time":208.50312500000027,"velocity":0.5905511811023622,"duration":0.7062500000000114},{"name":"F#4","midi":66,"time":208.67187500000028,"velocity":0.7795275590551181,"duration":0.8520833333333258},{"name":"F#5","midi":78,"time":210.51250000000027,"velocity":0.7480314960629921,"duration":0.6281250000000114},{"name":"A4","midi":69,"time":210.52187500000028,"velocity":0.5984251968503937,"duration":0.7989583333333314},{"name":"F#4","midi":66,"time":210.5250000000003,"velocity":0.6377952755905512,"duration":0.7677083333333314},{"name":"F#4","midi":66,"time":212.41979166666695,"velocity":0.6692913385826772,"duration":0.6052083333333087},{"name":"E4","midi":64,"time":212.42187500000028,"velocity":0.6220472440944882,"duration":0.5593749999999886},{"name":"G#5","midi":80,"time":214.30520833333358,"velocity":0.7322834645669292,"duration":0.4937500000000057},{"name":"D5","midi":74,"time":214.31875000000025,"velocity":0.6377952755905512,"duration":0.5135416666666686},{"name":"B4","midi":71,"time":214.32604166666692,"velocity":0.5748031496062992,"duration":0.3947916666666629},{"name":"G#4","midi":68,"time":216.19479166666693,"velocity":0.7559055118110236,"duration":0.6364583333333371},{"name":"A5","midi":81,"time":217.98854166666695,"velocity":0.7401574803149606,"duration":0.21249999999997726},{"name":"A4","midi":69,"time":217.99479166666694,"velocity":0.5984251968503937,"duration":0.12916666666666288},{"name":"A4","midi":69,"time":219.90937500000027,"velocity":0.7086614173228346,"duration":0.5739583333333371},{"name":"C#4","midi":61,"time":219.91250000000028,"velocity":0.6771653543307087,"duration":0.5093750000000057},{"name":"C#6","midi":85,"time":221.82604166666692,"velocity":0.7480314960629921,"duration":0.9270833333333428},{"name":"A5","midi":81,"time":221.84166666666692,"velocity":0.6220472440944882,"duration":0.9749999999999943},{"name":"C#5","midi":73,"time":221.8458333333336,"velocity":0.6456692913385826,"duration":0.9375},{"name":"F#4","midi":66,"time":223.85104166666693,"velocity":0.7007874015748031,"duration":1.0114583333333371},{"name":"A3","midi":57,"time":223.8552083333336,"velocity":0.5826771653543307,"duration":1.0104166666666856},{"name":"E4","midi":64,"time":224.85729166666692,"velocity":0.6062992125984252,"duration":0.0666666666666913},{"name":"F#5","midi":78,"time":225.7645833333336,"velocity":0.7401574803149606,"duration":0.5031250000000114},{"name":"A4","midi":69,"time":225.77812500000027,"velocity":0.5984251968503937,"duration":0.46562500000001705},{"name":"B4","midi":71,"time":225.78125000000028,"velocity":0.5826771653543307,"duration":0.4437499999999943},{"name":"B3","midi":59,"time":227.84895833333363,"velocity":0.6692913385826772,"duration":0.9375},{"name":"F#4","midi":66,"time":227.8531250000003,"velocity":0.7244094488188977,"duration":0.9875000000000114},{"name":"C#4","midi":61,"time":228.77291666666696,"velocity":0.7007874015748031,"duration":0.06875000000002274},{"name":"G#5","midi":80,"time":229.7187500000003,"velocity":0.7244094488188977,"duration":1.053124999999966},{"name":"C#5","midi":73,"time":229.72916666666697,"velocity":0.6771653543307087,"duration":1.1072916666666401},{"name":"A4","midi":69,"time":229.73333333333363,"velocity":0.5669291338582677,"duration":1.0697916666666458},{"name":"G#4","midi":68,"time":230.6812500000003,"velocity":0.7244094488188977,"duration":0.07604166666666856},{"name":"G#4","midi":68,"time":231.68541666666695,"velocity":0.7716535433070866,"duration":0.9677083333333485},{"name":"A3","midi":57,"time":231.69270833333363,"velocity":0.6535433070866141,"duration":0.9177083333333371},{"name":"C#4","midi":61,"time":231.69270833333363,"velocity":0.6614173228346457,"duration":0.9572916666666629},{"name":"F#4","midi":66,"time":232.57708333333363,"velocity":0.6062992125984252,"duration":0.16562500000000568},{"name":"G#5","midi":80,"time":233.5062500000003,"velocity":0.7795275590551181,"duration":1.0260416666666572},{"name":"A4","midi":69,"time":233.5156250000003,"velocity":0.5984251968503937,"duration":0.9906249999999943},{"name":"C#5","midi":73,"time":233.51875000000032,"velocity":0.7086614173228346,"duration":1.0697916666666458},{"name":"F#5","midi":78,"time":234.50208333333364,"velocity":0.6141732283464567,"duration":0.11249999999998295},{"name":"A4","midi":69,"time":235.3937500000003,"velocity":0.7007874015748031,"duration":0.8885416666666686},{"name":"D4","midi":62,"time":235.40104166666697,"velocity":0.5984251968503937,"duration":0.846874999999983},{"name":"B3","midi":59,"time":235.4125000000003,"velocity":0.5354330708661418,"duration":0.7718749999999943},{"name":"B4","midi":71,"time":236.23333333333363,"velocity":0.7559055118110236,"duration":0.10208333333332575},{"name":"B5","midi":83,"time":237.22708333333364,"velocity":0.6850393700787402,"duration":0.3177083333333144},{"name":"B4","midi":71,"time":237.23333333333363,"velocity":0.6062992125984252,"duration":0.28333333333333144},{"name":"D5","midi":74,"time":237.23541666666696,"velocity":0.6614173228346457,"duration":0.36874999999997726},{"name":"C#6","midi":85,"time":238.31458333333362,"velocity":0.7716535433070866,"duration":0.06666666666666288},{"name":"C#5","midi":73,"time":238.3208333333336,"velocity":0.7637795275590551,"duration":0.05104166666666288},{"name":"A3","midi":57,"time":239.58958333333362,"velocity":0.7165354330708661,"duration":0.5729166666666856},{"name":"F#4","midi":66,"time":239.59270833333363,"velocity":0.7480314960629921,"duration":0.5666666666666629},{"name":"F#5","midi":78,"time":241.22291666666698,"velocity":0.7401574803149606,"duration":0.4479166666666856},{"name":"A4","midi":69,"time":241.23020833333365,"velocity":0.5748031496062992,"duration":0.4583333333333428},{"name":"F#4","midi":66,"time":242.88750000000033,"velocity":0.7480314960629921,"duration":0.4583333333333144},{"name":"G#3","midi":56,"time":242.897916666667,"velocity":0.7244094488188977,"duration":0.46562499999998863},{"name":"G#5","midi":80,"time":244.32916666666696,"velocity":0.7716535433070866,"duration":0.5166666666666515},{"name":"B4","midi":71,"time":244.33541666666696,"velocity":0.6062992125984252,"duration":0.5645833333333314},{"name":"G#4","midi":68,"time":246.1645833333336,"velocity":0.7795275590551181,"duration":0.5479166666666799},{"name":"A3","midi":57,"time":246.16770833333362,"velocity":0.6850393700787402,"duration":0.42500000000001137},{"name":"C#4","midi":61,"time":247.2375000000003,"velocity":0.6299212598425197,"duration":0.03645833333334281},{"name":"G#5","midi":80,"time":247.61666666666696,"velocity":0.7480314960629921,"duration":0.8145833333333314},{"name":"C#5","midi":73,"time":247.62604166666696,"velocity":0.6929133858267716,"duration":0.8697916666666572},{"name":"A3","midi":57,"time":249.20729166666695,"velocity":0.7480314960629921,"duration":0.36041666666667993},{"name":"A4","midi":69,"time":249.21458333333362,"velocity":0.7086614173228346,"duration":0.39270833333333144},{"name":"C#5","midi":73,"time":250.67291666666696,"velocity":0.6692913385826772,"duration":0.29374999999998863},{"name":"F#4","midi":66,"time":252.3937500000003,"velocity":0.7401574803149606,"duration":0.43958333333333144},{"name":"A3","midi":57,"time":252.40520833333363,"velocity":0.6456692913385826,"duration":0.4000000000000057},{"name":"B3","midi":59,"time":252.7875000000003,"velocity":0.5984251968503937,"duration":0.07604166666664014},{"name":"A4","midi":69,"time":253.11354166666695,"velocity":0.6299212598425197,"duration":0.3010416666666629},{"name":"B4","midi":71,"time":253.4208333333336,"velocity":0.6614173228346457,"duration":0.42499999999998295},{"name":"A4","midi":69,"time":253.82187500000026,"velocity":0.6456692913385826,"duration":0.5166666666666515},{"name":"F#5","midi":78,"time":253.8239583333336,"velocity":0.7322834645669292,"duration":0.5354166666666629},{"name":"B3","midi":59,"time":255.2083333333336,"velocity":0.6141732283464567,"duration":0.40833333333335986},{"name":"F#4","midi":66,"time":255.2083333333336,"velocity":0.7637795275590551,"duration":0.47604166666670267},{"name":"G#3","midi":56,"time":255.20937500000028,"velocity":0.6299212598425197,"duration":0.4010416666666856},{"name":"E4","midi":64,"time":255.60520833333362,"velocity":0.5669291338582677,"duration":0.08645833333335418},{"name":"C#5","midi":73,"time":255.89895833333364,"velocity":0.6377952755905512,"duration":0.2656250000000284},{"name":"D5","midi":74,"time":256.188541666667,"velocity":0.6220472440944882,"duration":0.41354166666667425},{"name":"G#5","midi":80,"time":256.576041666667,"velocity":0.7874015748031497,"duration":0.6187500000000341},{"name":"B4","midi":71,"time":256.58333333333366,"velocity":0.6614173228346457,"duration":0.6083333333333485},{"name":"G#4","midi":68,"time":257.87500000000034,"velocity":0.7716535433070866,"duration":0.38749999999998863},{"name":"F#4","midi":66,"time":258.497916666667,"velocity":0.6692913385826772,"duration":0.2979166666666515},{"name":"C#4","midi":61,"time":258.81770833333366,"velocity":0.5826771653543307,"duration":0.03020833333334849},{"name":"A4","midi":69,"time":259.11250000000035,"velocity":0.7086614173228346,"duration":0.33645833333332575},{"name":"G#5","midi":80,"time":259.11770833333367,"velocity":0.7322834645669292,"duration":0.40833333333335986},{"name":"C#5","midi":73,"time":259.1208333333337,"velocity":0.7244094488188977,"duration":0.5562500000000341},{"name":"F#5","midi":78,"time":259.71979166666705,"velocity":0.7401574803149606,"duration":0.2489583333333485},{"name":"A5","midi":81,"time":260.4750000000004,"velocity":0.7401574803149606,"duration":0.2625000000000455},{"name":"A4","midi":69,"time":260.48125000000044,"velocity":0.6771653543307087,"duration":0.2583333333333826},{"name":"C#5","midi":73,"time":260.48125000000044,"velocity":0.7637795275590551,"duration":0.40520833333340533},{"name":"G#5","midi":80,"time":261.1697916666672,"velocity":0.7637795275590551,"duration":0.13854166666664014},{"name":"G#4","midi":68,"time":261.17812500000053,"velocity":0.6535433070866141,"duration":0.05937499999998863},{"name":"C#5","midi":73,"time":261.7729166666672,"velocity":0.7007874015748031,"duration":0.3010416666667197},{"name":"B5","midi":83,"time":261.7729166666672,"velocity":0.7716535433070866,"duration":0.28333333333335986},{"name":"B4","midi":71,"time":261.7791666666672,"velocity":0.6850393700787402,"duration":0.22604166666667425},{"name":"C#6","midi":85,"time":262.44166666666723,"velocity":0.6456692913385826,"duration":0.14999999999997726},{"name":"C#5","midi":73,"time":262.45729166666723,"velocity":0.6220472440944882,"duration":0.08958333333333712},{"name":"A3","midi":57,"time":263.48020833333385,"velocity":0.6771653543307087,"duration":0.375},{"name":"A4","midi":69,"time":264.13645833333385,"velocity":0.6614173228346457,"duration":0.27291666666667425},{"name":"B4","midi":71,"time":264.4135416666672,"velocity":0.6220472440944882,"duration":0.32499999999998863},{"name":"A4","midi":69,"time":264.7312500000005,"velocity":0.5905511811023622,"duration":0.31875000000002274},{"name":"F#5","midi":78,"time":264.73541666666716,"velocity":0.7007874015748031,"duration":0.3635416666667197},{"name":"G#3","midi":56,"time":265.9093750000005,"velocity":0.7165354330708661,"duration":0.25937499999997726},{"name":"E4","midi":64,"time":265.9093750000005,"velocity":0.7244094488188977,"duration":0.30624999999997726},{"name":"C#5","midi":73,"time":266.44583333333384,"velocity":0.6614173228346457,"duration":0.22083333333335986},{"name":"D5","midi":74,"time":266.70937500000053,"velocity":0.5748031496062992,"duration":0.32187499999997726},{"name":"G#5","midi":80,"time":266.99062500000053,"velocity":0.7874015748031497,"duration":0.4739583333333144},{"name":"A4","midi":69,"time":267.0031250000005,"velocity":0.5669291338582677,"duration":0.4208333333333485},{"name":"G#3","midi":56,"time":268.14895833333384,"velocity":0.7165354330708661,"duration":0.25},{"name":"E4","midi":64,"time":268.1510416666672,"velocity":0.6377952755905512,"duration":0.3020833333333144},{"name":"C#5","midi":73,"time":268.69583333333384,"velocity":0.5905511811023622,"duration":0.22291666666666288},{"name":"D5","midi":74,"time":268.95104166666715,"velocity":0.5826771653543307,"duration":0.06145833333334849},{"name":"C#5","midi":73,"time":269.2677083333338,"velocity":0.7480314960629921,"duration":0.4802083333333371},{"name":"G#5","midi":80,"time":269.26875000000047,"velocity":0.7480314960629921,"duration":0.4322916666666856},{"name":"A4","midi":69,"time":269.2708333333338,"velocity":0.6141732283464567,"duration":0.4270833333333144},{"name":"A3","midi":57,"time":270.36770833333384,"velocity":0.6771653543307087,"duration":0.2333333333333485},{"name":"C#4","midi":61,"time":270.37395833333386,"velocity":0.7480314960629921,"duration":0.2645833333333485},{"name":"A4","midi":69,"time":270.89270833333387,"velocity":0.6456692913385826,"duration":0.24479166666668561},{"name":"B4","midi":71,"time":271.1416666666672,"velocity":0.6456692913385826,"duration":0.05937499999998863},{"name":"B5","midi":83,"time":271.45208333333386,"velocity":0.6771653543307087,"duration":0.29895833333335986},{"name":"C#5","midi":73,"time":271.4562500000005,"velocity":0.6771653543307087,"duration":0.3239583333333371},{"name":"B4","midi":71,"time":271.46145833333384,"velocity":0.5826771653543307,"duration":0.25625000000002274},{"name":"C#6","midi":85,"time":272.0656250000005,"velocity":0.7795275590551181,"duration":0.053124999999965894},{"name":"C#5","midi":73,"time":272.07083333333384,"velocity":0.7165354330708661,"duration":0.03125},{"name":"A3","midi":57,"time":272.85520833333385,"velocity":0.5590551181102362,"duration":0.3177083333333144},{"name":"B3","midi":59,"time":272.85520833333385,"velocity":0.5590551181102362,"duration":0.32083333333332575},{"name":"A4","midi":69,"time":273.4635416666672,"velocity":0.6535433070866141,"duration":0.23229166666664014},{"name":"B4","midi":71,"time":273.7208333333338,"velocity":0.5905511811023622,"duration":0.32083333333332575},{"name":"F#5","midi":78,"time":273.99166666666713,"velocity":0.7637795275590551,"duration":0.2979166666666515},{"name":"A4","midi":69,"time":273.9958333333338,"velocity":0.6220472440944882,"duration":0.3166666666666629},{"name":"G#3","midi":56,"time":275.05937500000044,"velocity":0.7322834645669292,"duration":0.2510416666666515},{"name":"E4","midi":64,"time":275.0666666666671,"velocity":0.5984251968503937,"duration":0.2979166666666515},{"name":"C#5","midi":73,"time":275.5968750000004,"velocity":0.6377952755905512,"duration":0.203125},{"name":"D5","midi":74,"time":275.8343750000004,"velocity":0.6299212598425197,"duration":0.2781250000000455},{"name":"G#5","midi":80,"time":276.1000000000004,"velocity":0.7480314960629921,"duration":0.4156250000000341},{"name":"B4","midi":71,"time":276.1104166666671,"velocity":0.6062992125984252,"duration":0.42916666666667425},{"name":"A3","midi":57,"time":277.13541666666714,"velocity":0.6456692913385826,"duration":0.18333333333333712},{"name":"C#4","midi":61,"time":277.13541666666714,"velocity":0.7086614173228346,"duration":0.2333333333333485},{"name":"A4","midi":69,"time":277.6427083333338,"velocity":0.5826771653543307,"duration":0.23645833333335986},{"name":"B4","midi":71,"time":277.88333333333384,"velocity":0.6377952755905512,"duration":0.07083333333332575},{"name":"A5","midi":81,"time":278.13854166666715,"velocity":0.7244094488188977,"duration":0.5010416666667084},{"name":"C#5","midi":73,"time":278.1406250000005,"velocity":0.7086614173228346,"duration":0.5500000000000114},{"name":"A4","midi":69,"time":278.17083333333386,"velocity":0.4409448818897638,"duration":0.5062500000000227},{"name":"B4","midi":71,"time":278.1791666666672,"velocity":0.4094488188976378,"duration":0.020833333333314386},{"name":"D4","midi":62,"time":279.33020833333387,"velocity":0.6692913385826772,"duration":0.22395833333331439},{"name":"B3","midi":59,"time":279.3385416666672,"velocity":0.5984251968503937,"duration":0.23020833333333712},{"name":"B4","midi":71,"time":279.8750000000005,"velocity":0.7165354330708661,"duration":0.23958333333331439},{"name":"D5","midi":74,"time":280.1062500000005,"velocity":0.7244094488188977,"duration":0.06354166666665151},{"name":"B5","midi":83,"time":280.3750000000005,"velocity":0.7244094488188977,"duration":0.22708333333332575},{"name":"D5","midi":74,"time":280.3822916666672,"velocity":0.7007874015748031,"duration":0.20729166666666288},{"name":"B4","midi":71,"time":280.3854166666672,"velocity":0.6614173228346457,"duration":0.16354166666667425},{"name":"C#6","midi":85,"time":280.9729166666672,"velocity":0.7559055118110236,"duration":0.026041666666685614},{"name":"C#5","midi":73,"time":280.9739583333338,"velocity":0.7480314960629921,"duration":0.022916666666674246},{"name":"C#5","midi":73,"time":281.0937500000005,"velocity":0.1968503937007874,"duration":0.07604166666664014},{"name":"C#4","midi":61,"time":281.7156250000005,"velocity":0.7559055118110236,"duration":0.29583333333329165},{"name":"E4","midi":64,"time":281.7250000000005,"velocity":0.6377952755905512,"duration":0.10208333333332575},{"name":"C#5","midi":73,"time":282.25937500000043,"velocity":0.6299212598425197,"duration":0.15208333333333712},{"name":"E5","midi":76,"time":282.4947916666671,"velocity":0.5196850393700787,"duration":0.24687499999998863},{"name":"C#5","midi":73,"time":282.7447916666671,"velocity":0.6929133858267716,"duration":0.36666666666667425},{"name":"A5","midi":81,"time":282.74687500000044,"velocity":0.7401574803149606,"duration":0.29479166666664014},{"name":"E4","midi":64,"time":283.7041666666671,"velocity":0.5905511811023622,"duration":0.16145833333337123},{"name":"F#4","midi":66,"time":283.70625000000047,"velocity":0.6535433070866141,"duration":0.19375000000002274},{"name":"D5","midi":74,"time":284.1562500000005,"velocity":0.48031496062992124,"duration":0.21666666666664014},{"name":"E5","midi":76,"time":284.38541666666714,"velocity":0.5275590551181102,"duration":0.2781250000000455},{"name":"B5","midi":83,"time":284.62604166666716,"velocity":0.7480314960629921,"duration":0.31562500000001137},{"name":"D5","midi":74,"time":284.6281250000005,"velocity":0.6850393700787402,"duration":0.38854166666664014},{"name":"A4","midi":69,"time":285.55833333333385,"velocity":0.6850393700787402,"duration":0.21666666666664014},{"name":"E4","midi":64,"time":285.56145833333386,"velocity":0.6299212598425197,"duration":0.21249999999997726},{"name":"E5","midi":76,"time":286.0145833333338,"velocity":0.5826771653543307,"duration":0.22916666666668561},{"name":"A5","midi":81,"time":286.2520833333338,"velocity":0.6299212598425197,"duration":0.2770833333332803},{"name":"C#6","midi":85,"time":286.48750000000047,"velocity":0.7795275590551181,"duration":0.21458333333333712},{"name":"E5","midi":76,"time":286.4927083333338,"velocity":0.7007874015748031,"duration":0.20729166666666288},{"name":"F#4","midi":66,"time":287.63229166666713,"velocity":0.7086614173228346,"duration":0.25208333333335986},{"name":"B4","midi":71,"time":287.6343750000005,"velocity":0.6535433070866141,"duration":0.34166666666664014},{"name":"F#4","midi":66,"time":287.9958333333338,"velocity":0.6141732283464567,"duration":0.10104166666667425},{"name":"E4","midi":64,"time":288.2895833333338,"velocity":0.6141732283464567,"duration":0.06458333333335986},{"name":"D4","midi":62,"time":288.5666666666671,"velocity":0.3464566929133858,"duration":0.021875000000022737},{"name":"D4","midi":62,"time":288.8645833333338,"velocity":0.6220472440944882,"duration":0.04479166666664014},{"name":"D4","midi":62,"time":289.0093750000005,"velocity":0.2440944881889764,"duration":0.038541666666674246},{"name":"D4","midi":62,"time":289.2187500000005,"velocity":0.7244094488188977,"duration":0.09270833333334849},{"name":"D4","midi":62,"time":289.5312500000005,"velocity":0.7007874015748031,"duration":0.18333333333333712},{"name":"D4","midi":62,"time":289.8375000000005,"velocity":0.7637795275590551,"duration":0.27812499999998863},{"name":"F#5","midi":78,"time":295.6916666666671,"velocity":0.4015748031496063,"duration":3.1177083333333258},{"name":"E5","midi":76,"time":298.7614583333338,"velocity":0.3700787401574803,"duration":0.7635416666666401},{"name":"D5","midi":74,"time":299.55937500000044,"velocity":0.3779527559055118,"duration":2.3802083333333144},{"name":"C#5","midi":73,"time":301.91875000000044,"velocity":0.3464566929133858,"duration":1.671875},{"name":"B4","midi":71,"time":304.33125000000047,"velocity":0.2992125984251969,"duration":0.7833333333333599},{"name":"A4","midi":69,"time":305.0645833333338,"velocity":0.31496062992125984,"duration":0.7750000000000341},{"name":"G#4","midi":68,"time":305.79270833333385,"velocity":0.33070866141732286,"duration":0.7583333333333258},{"name":"F#5","midi":78,"time":308.1760416666672,"velocity":0.3464566929133858,"duration":3.0947916666666515},{"name":"G#5","midi":80,"time":311.3062500000005,"velocity":0.4094488188976378,"duration":2.941666666666663},{"name":"A5","midi":81,"time":314.2770833333338,"velocity":0.4094488188976378,"duration":3.0083333333333258},{"name":"C#6","midi":85,"time":317.30937500000044,"velocity":0.47244094488188976,"duration":0.49687499999998863},{"name":"F#5","midi":78,"time":320.3395833333338,"velocity":0.4330708661417323,"duration":2.26770833333336},{"name":"G#5","midi":80,"time":323.2177083333338,"velocity":0.49606299212598426,"duration":2.9895833333333144},{"name":"A5","midi":81,"time":326.19479166666713,"velocity":0.49606299212598426,"duration":2.943749999999966},{"name":"C#6","midi":85,"time":329.1510416666671,"velocity":0.5748031496062992,"duration":1.6187499999999773},{"name":"F#5","midi":78,"time":332.0625000000004,"velocity":0.5118110236220472,"duration":1.6916666666666629},{"name":"E5","midi":76,"time":334.9937500000004,"velocity":0.4094488188976378,"duration":0.7104166666666742},{"name":"C#5","midi":73,"time":337.9468750000004,"velocity":0.4330708661417323,"duration":2.18958333333336},{"name":"B4","midi":71,"time":340.15208333333374,"velocity":0.3858267716535433,"duration":0.7697916666666629},{"name":"A4","midi":69,"time":340.8822916666671,"velocity":0.4094488188976378,"duration":0.7624999999999886},{"name":"G#4","midi":68,"time":341.6010416666671,"velocity":0.5039370078740157,"duration":0.7437499999999773},{"name":"F#5","midi":78,"time":343.9989583333337,"velocity":0.36220472440944884,"duration":1.7333333333333485},{"name":"G#5","midi":80,"time":347.13854166666704,"velocity":0.4645669291338583,"duration":2.0031250000000114},{"name":"A5","midi":81,"time":350.4312500000004,"velocity":0.4409448818897638,"duration":1.6583333333333599},{"name":"C#6","midi":85,"time":353.6656250000004,"velocity":0.5196850393700787,"duration":0.8187500000000227},{"name":"F#4","midi":66,"time":356.8468750000004,"velocity":0.33858267716535434,"duration":3.0385416666666742},{"name":"G#4","midi":68,"time":359.89583333333377,"velocity":0.4645669291338583,"duration":2.9302083333333258},{"name":"A4","midi":69,"time":362.8520833333338,"velocity":0.48031496062992124,"duration":3.017708333333303},{"name":"C#5","midi":73,"time":365.83020833333376,"velocity":0.6062992125984252,"duration":2.2749999999999773},{"name":"F#4","midi":66,"time":368.8718750000004,"velocity":0.49606299212598426,"duration":2.301041666666663},{"name":"E4","midi":64,"time":371.8781250000004,"velocity":0.49606299212598426,"duration":0.796875},{"name":"C#4","midi":61,"time":374.92291666666705,"velocity":0.4566929133858268,"duration":1.5697916666666742},{"name":"B3","midi":59,"time":377.15208333333374,"velocity":0.4881889763779528,"duration":0.8739583333333485},{"name":"A3","midi":57,"time":377.9375000000004,"velocity":0.4251968503937008,"duration":0.8510416666667311},{"name":"G#3","midi":56,"time":378.7197916666671,"velocity":0.4881889763779528,"duration":0.7864583333333712},{"name":"F#4","midi":66,"time":381.0583333333338,"velocity":0.4094488188976378,"duration":3.2552083333333712},{"name":"G#4","midi":68,"time":384.2333333333338,"velocity":0.49606299212598426,"duration":3.11145833333336},{"name":"A4","midi":69,"time":387.3427083333338,"velocity":0.5590551181102362,"duration":2.625},{"name":"C#5","midi":73,"time":390.50312500000047,"velocity":0.6299212598425197,"duration":2.5416666666666856},{"name":"F#5","midi":78,"time":393.5843750000005,"velocity":0.5984251968503937,"duration":3.120833333333337},{"name":"G#5","midi":80,"time":396.6302083333338,"velocity":0.6220472440944882,"duration":3.0541666666666742},{"name":"A5","midi":81,"time":399.70416666666716,"velocity":0.6299212598425197,"duration":2.2593749999999773},{"name":"C#6","midi":85,"time":402.8250000000005,"velocity":0.7086614173228346,"duration":0.13645833333333712},{"name":"F#5","midi":78,"time":405.98229166666715,"velocity":0.6692913385826772,"duration":3.1927083333333144},{"name":"G#5","midi":80,"time":409.12812500000047,"velocity":0.6850393700787402,"duration":2.5124999999999886},{"name":"A5","midi":81,"time":412.28645833333377,"velocity":0.6614173228346457,"duration":0.16250000000002274},{"name":"C#6","midi":85,"time":415.57500000000044,"velocity":0.7165354330708661,"duration":1.8729166666666401},{"name":"F#5","midi":78,"time":419.29062500000043,"velocity":0.3779527559055118,"duration":2.8739583333333485},{"name":"G#5","midi":80,"time":422.7020833333338,"velocity":0.5196850393700787,"duration":2.1822916666666856},{"name":"A5","midi":81,"time":425.96458333333385,"velocity":0.48031496062992124,"duration":2.1302083333333144},{"name":"C#6","midi":85,"time":429.15104166666714,"velocity":0.49606299212598426,"duration":3.5520833333333712},{"name":"F#5","midi":78,"time":432.59479166666716,"velocity":0.4094488188976378,"duration":5.085416666666731},{"name":"G#5","midi":80,"time":435.89270833333387,"velocity":0.4645669291338583,"duration":3.2531250000000114},{"name":"A5","midi":81,"time":439.09062500000056,"velocity":0.4566929133858268,"duration":2.303124999999966},{"name":"C#6","midi":85,"time":442.28750000000053,"velocity":0.5118110236220472,"duration":2.34583333333336},{"name":"F#5","midi":78,"time":445.57291666666725,"velocity":0.3779527559055118,"duration":2.5343750000000114},{"name":"G#5","midi":80,"time":448.8239583333339,"velocity":0.4251968503937008,"duration":2.3229166666666856},{"name":"A5","midi":81,"time":452.2843750000006,"velocity":0.2992125984251969,"duration":5.934374999999989},{"name":"C#6","midi":85,"time":459.32812500000057,"velocity":0.4566929133858268,"duration":2.3031250000000227},{"name":"G#5","midi":80,"time":462.4802083333339,"velocity":0.4251968503937008,"duration":2.3520833333333258},{"name":"A5","midi":81,"time":465.9583333333339,"velocity":0.3228346456692913,"duration":5.742708333333326},{"name":"C#6","midi":85,"time":473.1416666666672,"velocity":0.3937007874015748,"duration":2.9624999999999773},{"name":"F#5","midi":78,"time":478.10208333333384,"velocity":0.33070866141732286,"duration":2.7604166666666856}],"controlChanges":{},"id":2,"name":"EW-API#24","channelNumber":1,"isPercussion":false},{"startTime":62.14270833333333,"duration":417.5552083333332,"length":89,"notes":[{"name":"E5","midi":76,"time":62.14270833333333,"velocity":0.5039370078740157,"duration":0.28333333333333144},{"name":"D5","midi":74,"time":62.96041666666666,"velocity":0.5433070866141733,"duration":0.2958333333333343},{"name":"C#5","midi":73,"time":63.773958333333326,"velocity":0.6614173228346457,"duration":0.7541666666666629},{"name":"B4","midi":71,"time":65.38125,"velocity":0.6141732283464567,"duration":0.3135416666666657},{"name":"E5","midi":76,"time":107.73854166666666,"velocity":0.5354330708661418,"duration":0.26354166666666856},{"name":"D5","midi":74,"time":108.5375,"velocity":0.6299212598425197,"duration":0.30416666666666003},{"name":"C#5","midi":73,"time":109.365625,"velocity":0.6220472440944882,"duration":0.5916666666666686},{"name":"B4","midi":71,"time":111.01666666666667,"velocity":0.6141732283464567,"duration":0.3604166666666657},{"name":"E5","midi":76,"time":159.16145833333331,"velocity":0.5118110236220472,"duration":0.17291666666667993},{"name":"D5","midi":74,"time":163.203125,"velocity":0.5826771653543307,"duration":0.2614583333333371},{"name":"C#5","midi":73,"time":163.99479166666666,"velocity":0.5669291338582677,"duration":0.2541666666666629},{"name":"B4","midi":71,"time":167.22187499999998,"velocity":0.6062992125984252,"duration":0.26458333333332007},{"name":"F#5","midi":78,"time":172.06979166666665,"velocity":0.6299212598425197,"duration":0.09062499999998863},{"name":"E5","midi":76,"time":175.2020833333333,"velocity":0.5669291338582677,"duration":0.15000000000000568},{"name":"D5","midi":74,"time":175.9989583333333,"velocity":0.5905511811023622,"duration":0.2770833333333371},{"name":"C#5","midi":73,"time":176.83437499999997,"velocity":0.5748031496062992,"duration":0.21666666666666856},{"name":"B4","midi":71,"time":180.00624999999997,"velocity":0.6062992125984252,"duration":0.25},{"name":"B4","midi":71,"time":181.20624999999995,"velocity":0.4409448818897638,"duration":0.1927083333333428},{"name":"C#5","midi":73,"time":181.58854166666663,"velocity":0.5748031496062992,"duration":0.06458333333333144},{"name":"B4","midi":71,"time":181.99583333333328,"velocity":0.5118110236220472,"duration":0.16979166666666856},{"name":"A4","midi":69,"time":182.3895833333333,"velocity":0.5905511811023622,"duration":0.26875000000001137},{"name":"G#4","midi":68,"time":182.78541666666663,"velocity":0.6220472440944882,"duration":0.14375000000001137},{"name":"F#4","midi":66,"time":183.20624999999998,"velocity":0.5590551181102362,"duration":0.18958333333333144},{"name":"F#5","midi":78,"time":184.72708333333333,"velocity":0.6771653543307087,"duration":0.06770833333334281},{"name":"E5","midi":76,"time":187.92083333333335,"velocity":0.6141732283464567,"duration":0.203125},{"name":"D5","midi":74,"time":188.74583333333334,"velocity":0.6377952755905512,"duration":0.2614583333333371},{"name":"C#5","midi":73,"time":189.55520833333335,"velocity":0.6062992125984252,"duration":0.23854166666666288},{"name":"B4","midi":71,"time":192.75000000000003,"velocity":0.6456692913385826,"duration":0.2750000000000057},{"name":"G#4","midi":68,"time":193.96458333333337,"velocity":0.6377952755905512,"duration":0.16041666666666288},{"name":"A4","midi":69,"time":194.3635416666667,"velocity":0.7401574803149606,"duration":0.25312500000001137},{"name":"G#4","midi":68,"time":194.7635416666667,"velocity":0.6771653543307087,"duration":0.24270833333332575},{"name":"F#4","midi":66,"time":195.13958333333335,"velocity":0.6535433070866141,"duration":0.07708333333332007},{"name":"E4","midi":64,"time":195.55729166666666,"velocity":0.6456692913385826,"duration":0.36145833333333144},{"name":"C#4","midi":61,"time":195.96249999999998,"velocity":0.6299212598425197,"duration":0.24375000000000568},{"name":"F#4","midi":66,"time":197.53020833333332,"velocity":0.6771653543307087,"duration":0.1979166666666572},{"name":"G#4","midi":68,"time":200.70624999999998,"velocity":0.7480314960629921,"duration":0.13749999999998863},{"name":"F#4","midi":66,"time":201.51249999999996,"velocity":0.7086614173228346,"duration":0.296875},{"name":"A4","midi":69,"time":202.32187499999995,"velocity":0.7086614173228346,"duration":0.22812500000000568},{"name":"B4","midi":71,"time":203.90624999999994,"velocity":0.6692913385826772,"duration":0.11458333333334281},{"name":"A4","midi":69,"time":204.70312499999994,"velocity":0.7322834645669292,"duration":0.2239583333333428},{"name":"C#5","midi":73,"time":205.5135416666666,"velocity":0.7795275590551181,"duration":0.28854166666667425},{"name":"B4","midi":71,"time":207.0510416666666,"velocity":0.7086614173228346,"duration":0.3062500000000057},{"name":"E4","midi":64,"time":240.1302083333333,"velocity":0.5669291338582677,"duration":0.109375},{"name":"A4","midi":69,"time":240.4833333333333,"velocity":0.6692913385826772,"duration":0.3020833333333428},{"name":"B4","midi":71,"time":240.81041666666664,"velocity":0.6456692913385826,"duration":0.4333333333333371},{"name":"E4","midi":64,"time":243.33229166666663,"velocity":0.5905511811023622,"duration":0.13645833333333712},{"name":"C#5","midi":73,"time":243.67499999999998,"velocity":0.6220472440944882,"duration":0.2927083333333371},{"name":"D5","midi":74,"time":243.97187499999998,"velocity":0.5984251968503937,"duration":0.375},{"name":"C#4","midi":61,"time":246.58541666666665,"velocity":0.5590551181102362,"duration":0.36041666666667993},{"name":"F#4","midi":66,"time":246.92083333333332,"velocity":0.6771653543307087,"duration":0.3187499999999943},{"name":"G#4","midi":68,"time":247.62395833333332,"velocity":0.7165354330708661,"duration":0.3479166666666629},{"name":"F#4","midi":66,"time":248.38020833333331,"velocity":0.6850393700787402,"duration":0.06770833333334281},{"name":"C#4","midi":61,"time":249.54895833333333,"velocity":0.6220472440944882,"duration":0.35312499999997726},{"name":"G#4","midi":68,"time":249.87604166666665,"velocity":0.7244094488188977,"duration":0.34062499999998863},{"name":"B5","midi":83,"time":250.66145833333331,"velocity":0.7086614173228346,"duration":0.296875},{"name":"B4","midi":71,"time":250.68124999999998,"velocity":0.5354330708661418,"duration":0.21875},{"name":"C#6","midi":85,"time":251.47708333333333,"velocity":0.7716535433070866,"duration":0.06666666666666288},{"name":"C#5","midi":73,"time":251.48541666666665,"velocity":0.7401574803149606,"duration":0.05104166666666288},{"name":"E5","midi":76,"time":308.94374999999997,"velocity":0.3464566929133858,"duration":3.1666666666666856},{"name":"D5","midi":74,"time":312.0552083333333,"velocity":0.33070866141732286,"duration":2.9854166666666515},{"name":"C#5","midi":73,"time":315.01354166666664,"velocity":0.3464566929133858,"duration":2.613541666666663},{"name":"B4","midi":71,"time":318.0989583333333,"velocity":0.3228346456692913,"duration":1.7614583333333371},{"name":"A4","midi":69,"time":319.59166666666664,"velocity":0.36220472440944884,"duration":2.4291666666666742},{"name":"G#4","midi":68,"time":322.5020833333333,"velocity":0.3700787401574803,"duration":2.84583333333336},{"name":"F#4","midi":66,"time":325.44375,"velocity":0.36220472440944884,"duration":2.269791666666663},{"name":"E4","midi":64,"time":328.459375,"velocity":0.28346456692913385,"duration":4.121874999999989},{"name":"F#4","midi":66,"time":331.32708333333335,"velocity":0.3858267716535433,"duration":1.5531250000000227},{"name":"G#4","midi":68,"time":334.2666666666667,"velocity":0.33070866141732286,"duration":3.1322916666666742},{"name":"F#4","midi":66,"time":337.23437500000006,"velocity":0.3228346456692913,"duration":1.533333333333303},{"name":"E4","midi":64,"time":338.6854166666667,"velocity":0.3464566929133858,"duration":2.355208333333337},{"name":"A3","midi":57,"time":356.05208333333337,"velocity":0.2677165354330709,"duration":3.1177083333333258},{"name":"G#3","midi":56,"time":359.13750000000005,"velocity":0.3464566929133858,"duration":2.267708333333303},{"name":"C#4","midi":61,"time":362.12083333333334,"velocity":0.4015748031496063,"duration":2.3520833333333258},{"name":"C#4","midi":61,"time":365.1125,"velocity":0.36220472440944884,"duration":1.2666666666666515},{"name":"A3","midi":57,"time":368.109375,"velocity":0.3464566929133858,"duration":3.1687500000000455},{"name":"G#3","midi":56,"time":371.1625,"velocity":0.3228346456692913,"duration":3.156250000000057},{"name":"A3","midi":57,"time":374.1760416666667,"velocity":0.2755905511811024,"duration":0.90625},{"name":"A3","midi":57,"time":380.2791666666667,"velocity":0.33070866141732286,"duration":2.73229166666664},{"name":"G#3","midi":56,"time":383.421875,"velocity":0.47244094488188976,"duration":2.7406250000000227},{"name":"C#4","midi":61,"time":386.5479166666667,"velocity":0.49606299212598426,"duration":3.32604166666664},{"name":"G#3","midi":56,"time":389.6854166666667,"velocity":0.5511811023622047,"duration":1.6333333333333258},{"name":"A3","midi":57,"time":392.79583333333335,"velocity":0.5196850393700787,"duration":1.6833333333333371},{"name":"G#3","midi":56,"time":395.8541666666667,"velocity":0.5826771653543307,"duration":2.1802083333333258},{"name":"A3","midi":57,"time":398.9635416666667,"velocity":0.5118110236220472,"duration":2.328125},{"name":"B3","midi":59,"time":402.03125,"velocity":0.5669291338582677,"duration":2.3364583333333258},{"name":"A3","midi":57,"time":405.2083333333333,"velocity":0.4645669291338583,"duration":2.4385416666666515},{"name":"G#3","midi":56,"time":408.31562499999995,"velocity":0.5433070866141733,"duration":2.4624999999999773},{"name":"A3","midi":57,"time":411.5010416666666,"velocity":0.4645669291338583,"duration":1.7166666666666401},{"name":"B3","midi":59,"time":414.70729166666655,"velocity":0.5590551181102362,"duration":2.847916666666663}],"controlChanges":{},"id":3,"name":"EW-API#24","channelNumber":2,"isPercussion":false},{"startTime":321.103125,"duration":480.81249999999994,"length":43,"notes":[{"name":"E5","midi":76,"time":321.103125,"velocity":0.3937007874015748,"duration":2.1750000000000114},{"name":"D5","midi":74,"time":323.9916666666667,"velocity":0.33070866141732286,"duration":3.0572916666666856},{"name":"C#5","midi":73,"time":326.9791666666667,"velocity":0.33858267716535434,"duration":3.8625000000000114},{"name":"E5","midi":76,"time":329.8979166666667,"velocity":0.33070866141732286,"duration":1.0864583333333826},{"name":"E5","midi":76,"time":332.83125000000007,"velocity":0.3464566929133858,"duration":1.6020833333333258},{"name":"D5","midi":74,"time":335.73229166666675,"velocity":0.3700787401574803,"duration":2.1614583333333144},{"name":"E5","midi":76,"time":344.80000000000007,"velocity":0.2677165354330709,"duration":0.9197916666666401},{"name":"D5","midi":74,"time":347.9791666666667,"velocity":0.2204724409448819,"duration":1.1541666666666401},{"name":"C#5","midi":73,"time":351.26145833333334,"velocity":0.3228346456692913,"duration":0.8229166666666856},{"name":"B4","midi":71,"time":354.490625,"velocity":0.3464566929133858,"duration":0.7885416666666742},{"name":"E4","midi":64,"time":357.63750000000005,"velocity":0.2992125984251969,"duration":3.042708333333337},{"name":"D4","midi":62,"time":360.6291666666667,"velocity":0.3543307086614173,"duration":3.4458333333333258},{"name":"B3","midi":59,"time":363.62187500000005,"velocity":0.31496062992125984,"duration":1.4812499999999886},{"name":"E4","midi":64,"time":366.5729166666667,"velocity":0.36220472440944884,"duration":1.5989583333333144},{"name":"E4","midi":64,"time":369.66979166666664,"velocity":0.36220472440944884,"duration":1.6177083333333258},{"name":"D4","midi":62,"time":372.6614583333333,"velocity":0.4251968503937008,"duration":2.296875},{"name":"G#3","midi":56,"time":375.66249999999997,"velocity":0.2992125984251969,"duration":1.5354166666666629},{"name":"E4","midi":64,"time":381.9,"velocity":0.2992125984251969,"duration":2.417708333333337},{"name":"D4","midi":62,"time":385.01354166666664,"velocity":0.33858267716535434,"duration":1.5989583333333144},{"name":"B3","midi":59,"time":388.14687499999997,"velocity":0.4094488188976378,"duration":1.6864583333333485},{"name":"E4","midi":64,"time":391.28437499999995,"velocity":0.49606299212598426,"duration":1.6395833333333485},{"name":"E5","midi":76,"time":394.37812499999995,"velocity":0.3700787401574803,"duration":2.3364583333333258},{"name":"D5","midi":74,"time":397.4229166666666,"velocity":0.5118110236220472,"duration":1.7687500000000114},{"name":"C#5","midi":73,"time":400.4822916666666,"velocity":0.6220472440944882,"duration":1.5447916666666401},{"name":"B4","midi":71,"time":403.58020833333325,"velocity":0.5669291338582677,"duration":1.8500000000000227},{"name":"A4","midi":69,"time":406.74687499999993,"velocity":0.5669291338582677,"duration":1.890625},{"name":"G#4","midi":68,"time":409.9437499999999,"velocity":0.6141732283464567,"duration":1.7645833333333485},{"name":"F#4","midi":66,"time":413.1124999999999,"velocity":0.5905511811023622,"duration":1.2677083333333599},{"name":"E5","midi":76,"time":416.5114583333333,"velocity":0.5118110236220472,"duration":1.0364583333333144},{"name":"D4","midi":62,"time":420.05520833333327,"velocity":0.36220472440944884,"duration":2.74791666666664},{"name":"C#4","midi":61,"time":423.41041666666655,"velocity":0.5118110236220472,"duration":2.6000000000000227},{"name":"B3","midi":59,"time":426.64791666666656,"velocity":0.33858267716535434,"duration":2.613541666666663},{"name":"A3","midi":57,"time":433.3385416666666,"velocity":0.3700787401574803,"duration":4.341666666666697},{"name":"G#3","midi":56,"time":436.6156249999999,"velocity":0.36220472440944884,"duration":2.7239583333333712},{"name":"F#3","midi":54,"time":439.78749999999997,"velocity":0.3228346456692913,"duration":2.5593749999999886},{"name":"E3","midi":52,"time":443.03124999999994,"velocity":0.2677165354330709,"duration":2.64270833333336},{"name":"D3","midi":50,"time":446.3302083333333,"velocity":0.3543307086614173,"duration":2.6083333333333485},{"name":"C#3","midi":49,"time":449.5125,"velocity":0.3937007874015748,"duration":6.243749999999977},{"name":"B2","midi":47,"time":456.55625,"velocity":0.2204724409448819,"duration":2.8114583333333485},{"name":"D3","midi":50,"time":460.0645833333333,"velocity":0.16535433070866143,"duration":2.5083333333333258},{"name":"C#3","midi":49,"time":463.18854166666665,"velocity":0.29133858267716534,"duration":6.125},{"name":"A2","midi":45,"time":470.5020833333333,"velocity":0.2440944881889764,"duration":7.605208333333337},{"name":"C#3","midi":49,"time":479.3270833333333,"velocity":0.25196850393700787,"duration":1.4854166666666515}],"controlChanges":{},"id":4,"name":"EW-API#24","channelNumber":3,"isPercussion":false},{"startTime":253.81354166666668,"duration":290.10208333333344,"length":110,"notes":[{"name":"F#4","midi":66,"time":253.81354166666668,"velocity":0.7165354330708661,"duration":0.203125},{"name":"E4","midi":64,"time":254.21562500000002,"velocity":0.5590551181102362,"duration":0.16562500000000568},{"name":"D4","midi":62,"time":254.53020833333335,"velocity":0.6692913385826772,"duration":0.23020833333333712},{"name":"C#4","midi":61,"time":254.81875000000002,"velocity":0.6929133858267716,"duration":0.04895833333333144},{"name":"G#4","midi":68,"time":256.5916666666667,"velocity":0.7007874015748031,"duration":0.3072916666666856},{"name":"F#4","midi":66,"time":256.959375,"velocity":0.5905511811023622,"duration":0.19895833333333712},{"name":"E4","midi":64,"time":257.2572916666667,"velocity":0.6377952755905512,"duration":0.29895833333335986},{"name":"D4","midi":62,"time":257.53333333333336,"velocity":0.6220472440944882,"duration":0.02812499999998863},{"name":"C#4","midi":61,"time":257.87083333333334,"velocity":0.7401574803149606,"duration":0.6302083333333712},{"name":"B3","midi":59,"time":258.22083333333336,"velocity":0.4251968503937008,"duration":0.08958333333333712},{"name":"A3","midi":57,"time":258.50208333333336,"velocity":0.6141732283464567,"duration":0.23958333333331439},{"name":"F#3","midi":54,"time":258.79375,"velocity":0.49606299212598426,"duration":0.027083333333337123},{"name":"G#4","midi":68,"time":259.12083333333334,"velocity":0.6456692913385826,"duration":0.1395833333333485},{"name":"F#4","midi":66,"time":259.43125000000003,"velocity":0.6614173228346457,"duration":0.14999999999997726},{"name":"E4","midi":64,"time":259.7166666666667,"velocity":0.6220472440944882,"duration":0.26354166666664014},{"name":"D4","midi":62,"time":260.040625,"velocity":0.6220472440944882,"duration":0.024999999999977263},{"name":"F#4","midi":66,"time":263.4677083333333,"velocity":0.7637795275590551,"duration":0.453125},{"name":"E4","midi":64,"time":263.84062499999993,"velocity":0.5826771653543307,"duration":0.10104166666667425},{"name":"D4","midi":62,"time":264.1343749999999,"velocity":0.5590551181102362,"duration":0.18020833333332575},{"name":"C#4","midi":61,"time":264.39270833333325,"velocity":0.5748031496062992,"duration":0.2697916666666629},{"name":"F#4","midi":66,"time":264.72083333333325,"velocity":0.7401574803149606,"duration":0.22708333333332575},{"name":"E4","midi":64,"time":265.0885416666666,"velocity":0.5196850393700787,"duration":0.18333333333333712},{"name":"D4","midi":62,"time":265.34583333333325,"velocity":0.5905511811023622,"duration":0.2020833333333485},{"name":"C#4","midi":61,"time":265.60833333333323,"velocity":0.5826771653543307,"duration":0.024999999999977263},{"name":"G#4","midi":68,"time":265.89479166666655,"velocity":0.7716535433070866,"duration":0.37812500000001137},{"name":"F#4","midi":66,"time":266.1833333333332,"velocity":0.5984251968503937,"duration":0.12395833333334849},{"name":"E4","midi":64,"time":266.45729166666655,"velocity":0.5590551181102362,"duration":0.1395833333333485},{"name":"D4","midi":62,"time":266.69166666666655,"velocity":0.49606299212598426,"duration":0.12916666666666288},{"name":"G#4","midi":68,"time":266.9874999999999,"velocity":0.7007874015748031,"duration":0.3072916666666856},{"name":"F#4","midi":66,"time":267.2760416666666,"velocity":0.49606299212598426,"duration":0.18437499999998863},{"name":"E4","midi":64,"time":267.5499999999999,"velocity":0.5748031496062992,"duration":0.279166666666697},{"name":"D4","midi":62,"time":267.8072916666666,"velocity":0.6062992125984252,"duration":0.03020833333334849},{"name":"G#4","midi":68,"time":268.1385416666666,"velocity":0.8031496062992126,"duration":0.3583333333333485},{"name":"F#4","midi":66,"time":268.4385416666666,"velocity":0.5748031496062992,"duration":0.09479166666665151},{"name":"E4","midi":64,"time":268.6989583333332,"velocity":0.5590551181102362,"duration":0.203125},{"name":"D4","midi":62,"time":268.92916666666656,"velocity":0.4881889763779528,"duration":0.03125},{"name":"G#4","midi":68,"time":269.2656249999999,"velocity":0.7244094488188977,"duration":0.296875},{"name":"F#4","midi":66,"time":269.56666666666655,"velocity":0.5275590551181102,"duration":0.1552083333333485},{"name":"E4","midi":64,"time":269.81145833333323,"velocity":0.6062992125984252,"duration":0.24583333333333712},{"name":"D4","midi":62,"time":270.03854166666656,"velocity":0.6141732283464567,"duration":0.025000000000034106},{"name":"A4","midi":69,"time":270.36770833333327,"velocity":0.7322834645669292,"duration":0.3166666666666629},{"name":"G#4","midi":68,"time":270.6468749999999,"velocity":0.6692913385826772,"duration":0.09479166666670835},{"name":"F#4","midi":66,"time":270.88541666666663,"velocity":0.5826771653543307,"duration":0.22500000000002274},{"name":"E4","midi":64,"time":271.13541666666663,"velocity":0.5511811023622047,"duration":0.05937499999998863},{"name":"A4","midi":69,"time":271.446875,"velocity":0.5984251968503937,"duration":0.12291666666664014},{"name":"G#4","midi":68,"time":271.74375,"velocity":0.7401574803149606,"duration":0.14479166666666288},{"name":"F#4","midi":66,"time":272.05312499999997,"velocity":0.6377952755905512,"duration":0.25833333333332575},{"name":"E4","midi":64,"time":272.3770833333333,"velocity":0.6771653543307087,"duration":0.027083333333337123},{"name":"A4","midi":69,"time":272.8395833333333,"velocity":0.7559055118110236,"duration":0.40312499999998863},{"name":"G#4","midi":68,"time":273.2020833333333,"velocity":0.7322834645669292,"duration":0.09479166666665151},{"name":"F#4","midi":66,"time":273.45833333333326,"velocity":0.6692913385826772,"duration":0.19687499999997726},{"name":"E4","midi":64,"time":273.7447916666666,"velocity":0.2992125984251969,"duration":0.007291666666674246},{"name":"D4","midi":62,"time":273.98645833333325,"velocity":0.6614173228346457,"duration":0.20833333333331439},{"name":"C#4","midi":61,"time":274.2374999999999,"velocity":0.5905511811023622,"duration":0.14479166666666288},{"name":"B3","midi":59,"time":274.4781249999999,"velocity":0.6062992125984252,"duration":0.16874999999998863},{"name":"A3","midi":57,"time":274.72083333333325,"velocity":0.5354330708661418,"duration":0.03437500000001137},{"name":"G#4","midi":68,"time":275.05208333333326,"velocity":0.7795275590551181,"duration":0.36666666666667425},{"name":"F#4","midi":66,"time":275.3479166666666,"velocity":0.5748031496062992,"duration":0.10416666666668561},{"name":"D4","midi":62,"time":275.81562499999995,"velocity":0.49606299212598426,"duration":0.03020833333334849},{"name":"C#4","midi":61,"time":276.0927083333333,"velocity":0.7007874015748031,"duration":0.16354166666667425},{"name":"B3","midi":59,"time":276.3677083333333,"velocity":0.5590551181102362,"duration":0.17812500000002274},{"name":"A3","midi":57,"time":276.596875,"velocity":0.6141732283464567,"duration":0.08229166666666288},{"name":"G#3","midi":56,"time":276.8385416666667,"velocity":0.6377952755905512,"duration":0.03333333333335986},{"name":"A4","midi":69,"time":277.12500000000006,"velocity":0.7322834645669292,"duration":0.296875},{"name":"G#4","midi":68,"time":277.37812500000007,"velocity":0.6535433070866141,"duration":0.10416666666662877},{"name":"F#4","midi":66,"time":277.62187500000005,"velocity":0.6220472440944882,"duration":0.20937500000002274},{"name":"E4","midi":64,"time":277.8812500000001,"velocity":0.4409448818897638,"duration":0.10833333333334849},{"name":"D4","midi":62,"time":278.1291666666668,"velocity":0.5984251968503937,"duration":0.19375000000002274},{"name":"C#4","midi":61,"time":278.3937500000001,"velocity":0.5826771653543307,"duration":0.15208333333333712},{"name":"B3","midi":59,"time":278.6250000000001,"velocity":0.5275590551181102,"duration":0.19166666666666288},{"name":"A3","midi":57,"time":278.8750000000001,"velocity":0.6456692913385826,"duration":0.03020833333334849},{"name":"B4","midi":71,"time":279.3229166666668,"velocity":0.7952755905511811,"duration":0.341666666666697},{"name":"A4","midi":69,"time":279.6145833333335,"velocity":0.5826771653543307,"duration":0.11041666666665151},{"name":"F#4","midi":66,"time":280.10000000000014,"velocity":0.6062992125984252,"duration":0.03541666666666288},{"name":"E4","midi":64,"time":280.3854166666668,"velocity":0.6535433070866141,"duration":0.125},{"name":"D4","midi":62,"time":280.6510416666668,"velocity":0.6614173228346457,"duration":0.25312500000001137},{"name":"C#4","midi":61,"time":280.9697916666668,"velocity":0.7322834645669292,"duration":0.27499999999997726},{"name":"B3","midi":59,"time":281.2979166666668,"velocity":0.7007874015748031,"duration":0.03020833333334849},{"name":"C#5","midi":73,"time":281.71562500000016,"velocity":0.8110236220472441,"duration":0.3781249999999545},{"name":"B4","midi":71,"time":282.02187500000014,"velocity":0.6062992125984252,"duration":0.09062499999998863},{"name":"A4","midi":69,"time":282.2531250000001,"velocity":0.5511811023622047,"duration":0.1395833333333485},{"name":"G#4","midi":68,"time":282.4822916666668,"velocity":0.47244094488188976,"duration":0.0031250000000113687},{"name":"F#4","midi":66,"time":282.73437500000017,"velocity":0.6062992125984252,"duration":0.12916666666666288},{"name":"E4","midi":64,"time":282.9677083333335,"velocity":0.48031496062992124,"duration":0.23854166666666288},{"name":"D4","midi":62,"time":283.20729166666683,"velocity":0.5748031496062992,"duration":0.09062499999998863},{"name":"C#4","midi":61,"time":283.43125000000015,"velocity":0.5039370078740157,"duration":0.027083333333337123},{"name":"D5","midi":74,"time":283.6989583333335,"velocity":0.7795275590551181,"duration":0.2666666666666515},{"name":"C#5","midi":73,"time":283.93125000000015,"velocity":0.6692913385826772,"duration":0.09062499999998863},{"name":"B4","midi":71,"time":284.14687500000014,"velocity":0.5905511811023622,"duration":0.11874999999997726},{"name":"A4","midi":69,"time":284.35520833333345,"velocity":0.44881889763779526,"duration":0.011458333333337123},{"name":"G#4","midi":68,"time":284.6218750000001,"velocity":0.6456692913385826,"duration":0.16041666666666288},{"name":"F#4","midi":66,"time":284.8500000000001,"velocity":0.6299212598425197,"duration":0.15416666666664014},{"name":"E4","midi":64,"time":285.07187500000003,"velocity":0.6220472440944882,"duration":0.14270833333335986},{"name":"D4","midi":62,"time":285.29479166666675,"velocity":0.6062992125984252,"duration":0.02916666666664014},{"name":"E5","midi":76,"time":285.55208333333337,"velocity":0.7637795275590551,"duration":0.2916666666666856},{"name":"D5","midi":74,"time":285.7822916666667,"velocity":0.5984251968503937,"duration":0.08645833333332575},{"name":"C#5","midi":73,"time":286.01770833333336,"velocity":0.7244094488188977,"duration":0.16041666666666288},{"name":"B4","midi":71,"time":286.2135416666667,"velocity":0.6614173228346457,"duration":0.046875},{"name":"A4","midi":69,"time":286.48645833333336,"velocity":0.7401574803149606,"duration":0.24791666666664014},{"name":"G#4","midi":68,"time":286.73854166666666,"velocity":0.6220472440944882,"duration":0.14375000000001137},{"name":"F#4","midi":66,"time":286.97083333333336,"velocity":0.7559055118110236,"duration":0.20520833333335986},{"name":"E4","midi":64,"time":287.2302083333334,"velocity":0.6377952755905512,"duration":0.03541666666666288},{"name":"E5","midi":76,"time":287.63229166666673,"velocity":0.7637795275590551,"duration":0.2645833333333485},{"name":"D5","midi":74,"time":287.9895833333334,"velocity":0.6771653543307087,"duration":0.23020833333333712},{"name":"C#5","midi":73,"time":288.27916666666675,"velocity":0.7637795275590551,"duration":0.13020833333331439},{"name":"B4","midi":71,"time":288.55729166666674,"velocity":0.6771653543307087,"duration":0.04374999999998863},{"name":"A4","midi":69,"time":288.8552083333334,"velocity":0.7637795275590551,"duration":0.20625000000001137},{"name":"G#4","midi":68,"time":289.21354166666674,"velocity":0.8188976377952756,"duration":0.26249999999998863},{"name":"F#4","midi":66,"time":289.52604166666674,"velocity":0.7637795275590551,"duration":0.22291666666666288},{"name":"E4","midi":64,"time":289.8343750000001,"velocity":0.7952755905511811,"duration":0.26770833333335986}],"controlChanges":{},"id":5,"name":"EW-API#24","channelNumber":4,"isPercussion":false},{"startTime":279.8854166666667,"duration":290.1416666666666,"length":9,"notes":[{"name":"G#4","midi":68,"time":279.8854166666667,"velocity":0.5354330708661418,"duration":0.2177083333333485},{"name":"B2","midi":47,"time":288.26562500000006,"velocity":0.6850393700787402,"duration":0.2666666666666515},{"name":"D3","midi":50,"time":288.5395833333334,"velocity":0.6377952755905512,"duration":0.27916666666664014},{"name":"E3","midi":52,"time":288.846875,"velocity":0.6299212598425197,"duration":0.2416666666666174},{"name":"F#3","midi":54,"time":289.075,"velocity":0.7480314960629921,"duration":0.24895833333329165},{"name":"G#3","midi":56,"time":289.2802083333333,"velocity":0.7480314960629921,"duration":0.28333333333335986},{"name":"A3","midi":57,"time":289.51354166666664,"velocity":0.7952755905511811,"duration":0.2041666666666515},{"name":"B3","midi":59,"time":289.72187499999995,"velocity":0.7007874015748031,"duration":0.2531249999999545},{"name":"C#4","midi":61,"time":289.93020833333327,"velocity":0.7874015748031497,"duration":0.21145833333332575}],"controlChanges":{},"id":6,"name":"EW-API#24","channelNumber":5,"isPercussion":false}]}