{"header":{"PPQ":480,"timeSignature":[4,4],"bpm":120,"name":""},"startTime":0,"duration":227.5000000000001,"tracks":[{"startTime":0,"duration":0,"length":0,"notes":[],"controlChanges":{},"id":0},{"startTime":2.08125,"duration":227.5000000000001,"length":504,"notes":[{"name":"C5","midi":72,"time":2.08125,"velocity":0.33858267716535434,"duration":0.09166666666666679},{"name":"C#5","midi":73,"time":2.1947916666666667,"velocity":0.5118110236220472,"duration":0.07187499999999991},{"name":"C5","midi":72,"time":2.5302083333333334,"velocity":0.5905511811023622,"duration":0.10312499999999991},{"name":"C#5","midi":73,"time":2.7916666666666665,"velocity":0.5354330708661418,"duration":0.04062499999999991},{"name":"C5","midi":72,"time":3.15625,"velocity":0.6456692913385826,"duration":0.1499999999999999},{"name":"C#5","midi":73,"time":3.3249999999999997,"velocity":0.6220472440944882,"duration":0.04062499999999991},{"name":"C5","midi":72,"time":3.586458333333333,"velocity":0.6850393700787402,"duration":0.1166666666666667},{"name":"C#5","midi":73,"time":3.8406249999999997,"velocity":0.6299212598425197,"duration":0.08958333333333313},{"name":"C5","midi":72,"time":4.232291666666666,"velocity":0.6850393700787402,"duration":0.13645833333333357},{"name":"C#5","midi":73,"time":4.3843749999999995,"velocity":0.5984251968503937,"duration":0.053124999999999645},{"name":"C5","midi":72,"time":4.619791666666666,"velocity":0.6377952755905512,"duration":0.10729166666666679},{"name":"C#5","midi":73,"time":4.9156249999999995,"velocity":0.6299212598425197,"duration":0.05937500000000018},{"name":"C5","midi":72,"time":5.286458333333333,"velocity":0.6535433070866141,"duration":0.14270833333333321},{"name":"C#5","midi":73,"time":5.442708333333333,"velocity":0.6299212598425197,"duration":0.053124999999999645},{"name":"C5","midi":72,"time":5.6625,"velocity":0.6692913385826772,"duration":0.08750000000000036},{"name":"C#5","midi":73,"time":5.951041666666667,"velocity":0.7086614173228346,"duration":0.04791666666666661},{"name":"C5","midi":72,"time":6.364583333333333,"velocity":0.6535433070866141,"duration":0.11458333333333304},{"name":"C#5","midi":73,"time":6.4937499999999995,"velocity":0.6299212598425197,"duration":0.11562499999999964},{"name":"F5","midi":77,"time":6.7541666666666655,"velocity":0.5669291338582677,"duration":0.04583333333333339},{"name":"C6","midi":84,"time":7.017708333333332,"velocity":0.6456692913385826,"duration":0.04999999999999982},{"name":"A#5","midi":82,"time":7.330208333333332,"velocity":0.6692913385826772,"duration":0.05104166666666643},{"name":"G#5","midi":80,"time":7.6135416666666655,"velocity":0.6929133858267716,"duration":0.06145833333333339},{"name":"F#5","midi":78,"time":7.878124999999999,"velocity":0.6456692913385826,"duration":0.0625},{"name":"F5","midi":77,"time":8.148958333333333,"velocity":0.5354330708661418,"duration":0.11145833333333321},{"name":"F#5","midi":78,"time":8.267708333333333,"velocity":0.5905511811023622,"duration":0.1104166666666675},{"name":"G#5","midi":80,"time":8.39375,"velocity":0.6220472440944882,"duration":0.08229166666666643},{"name":"C5","midi":72,"time":8.521875,"velocity":0.5826771653543307,"duration":0.14270833333333321},{"name":"C#5","midi":73,"time":8.659374999999999,"velocity":0.6062992125984252,"duration":0.11458333333333393},{"name":"F5","midi":77,"time":8.946875,"velocity":0.5669291338582677,"duration":0.047916666666667496},{"name":"C6","midi":84,"time":9.229166666666668,"velocity":0.6377952755905512,"duration":0.03958333333333286},{"name":"A#5","midi":82,"time":9.616666666666667,"velocity":0.7637795275590551,"duration":0.6416666666666675},{"name":"C5","midi":72,"time":10.673958333333335,"velocity":0.5905511811023622,"duration":0.13541666666666607},{"name":"C#5","midi":73,"time":10.803125000000001,"velocity":0.6141732283464567,"duration":0.09791666666666643},{"name":"F5","midi":77,"time":11.057291666666668,"velocity":0.5590551181102362,"duration":0.046875},{"name":"C6","midi":84,"time":11.327083333333334,"velocity":0.6771653543307087,"duration":0.05833333333333357},{"name":"A#5","midi":82,"time":11.619791666666668,"velocity":0.7086614173228346,"duration":0.0770833333333325},{"name":"G#5","midi":80,"time":11.880208333333334,"velocity":0.6692913385826772,"duration":0.05416666666666714},{"name":"F#5","midi":78,"time":12.126041666666667,"velocity":0.6456692913385826,"duration":0.06458333333333321},{"name":"F5","midi":77,"time":12.382291666666667,"velocity":0.6299212598425197,"duration":0.1083333333333325},{"name":"F#5","midi":78,"time":12.498958333333333,"velocity":0.6456692913385826,"duration":0.1104166666666675},{"name":"G#5","midi":80,"time":12.616666666666667,"velocity":0.6614173228346457,"duration":0.09791666666666643},{"name":"C5","midi":72,"time":12.753125,"velocity":0.6062992125984252,"duration":0.16354166666666714},{"name":"C#5","midi":73,"time":12.898958333333335,"velocity":0.6377952755905512,"duration":0.13020833333333393},{"name":"F5","midi":77,"time":13.186458333333336,"velocity":0.6062992125984252,"duration":0.08541666666666714},{"name":"F#5","midi":78,"time":13.471875000000002,"velocity":0.6929133858267716,"duration":0.0635416666666675},{"name":"C#5","midi":73,"time":13.87604166666667,"velocity":0.7637795275590551,"duration":0.5281249999999993},{"name":"C5","midi":72,"time":14.415625000000002,"velocity":0.5354330708661418,"duration":0.032291666666667496},{"name":"C5","midi":72,"time":14.96354166666667,"velocity":0.5669291338582677,"duration":0.10104166666666714},{"name":"C#5","midi":73,"time":15.07291666666667,"velocity":0.6299212598425197,"duration":0.11875000000000036},{"name":"F5","midi":77,"time":15.293750000000003,"velocity":0.5826771653543307,"duration":0.05104166666666643},{"name":"C6","midi":84,"time":15.562500000000002,"velocity":0.6456692913385826,"duration":0.04270833333333357},{"name":"A#5","midi":82,"time":15.839583333333335,"velocity":0.6929133858267716,"duration":0.0635416666666675},{"name":"G#5","midi":80,"time":16.11354166666667,"velocity":0.6220472440944882,"duration":0.04583333333333428},{"name":"F#5","midi":78,"time":16.390625000000004,"velocity":0.6614173228346457,"duration":0.05208333333333215},{"name":"F5","midi":77,"time":16.666666666666668,"velocity":0.6535433070866141,"duration":0.10208333333333286},{"name":"F#5","midi":78,"time":16.783333333333335,"velocity":0.5826771653543307,"duration":0.10624999999999929},{"name":"G#5","midi":80,"time":16.900000000000002,"velocity":0.6377952755905512,"duration":0.08020833333333499},{"name":"C5","midi":72,"time":17.028125000000003,"velocity":0.6062992125984252,"duration":0.1374999999999993},{"name":"C#5","midi":73,"time":17.170833333333334,"velocity":0.6220472440944882,"duration":0.07395833333333357},{"name":"F5","midi":77,"time":17.440625,"velocity":0.5984251968503937,"duration":0.05104166666666643},{"name":"C6","midi":84,"time":17.754166666666666,"velocity":0.5905511811023622,"duration":0.03020833333333428},{"name":"G#5","midi":80,"time":18.157291666666666,"velocity":0.7401574803149606,"duration":0.607291666666665},{"name":"C5","midi":72,"time":19.177083333333332,"velocity":0.6141732283464567,"duration":0.13437499999999858},{"name":"C#5","midi":73,"time":19.326041666666665,"velocity":0.6535433070866141,"duration":0.08020833333333499},{"name":"F5","midi":77,"time":19.570833333333333,"velocity":0.5905511811023622,"duration":0.05416666666666714},{"name":"C6","midi":84,"time":19.826041666666665,"velocity":0.6614173228346457,"duration":0.03958333333333286},{"name":"A#5","midi":82,"time":20.116666666666664,"velocity":0.6929133858267716,"duration":0.07083333333333286},{"name":"G#5","midi":80,"time":20.363541666666663,"velocity":0.6535433070866141,"duration":0.05416666666666714},{"name":"F#5","midi":78,"time":20.649999999999995,"velocity":0.6456692913385826,"duration":0.05416666666666714},{"name":"F5","midi":77,"time":20.89895833333333,"velocity":0.6141732283464567,"duration":0.11979166666666785},{"name":"F#5","midi":78,"time":21.036458333333332,"velocity":0.6220472440944882,"duration":0.08749999999999858},{"name":"G#5","midi":80,"time":21.138541666666665,"velocity":0.6692913385826772,"duration":0.09583333333333499},{"name":"C5","midi":72,"time":21.285416666666666,"velocity":0.5669291338582677,"duration":0.138541666666665},{"name":"C#5","midi":73,"time":21.426041666666666,"velocity":0.6062992125984252,"duration":0.11354166666666643},{"name":"F5","midi":77,"time":21.702083333333334,"velocity":0.5984251968503937,"duration":0.08854166666666785},{"name":"F#5","midi":78,"time":21.994791666666668,"velocity":0.7401574803149606,"duration":0.05624999999999858},{"name":"C#5","midi":73,"time":22.453125,"velocity":0.6614173228346457,"duration":0.5072916666666671},{"name":"C5","midi":72,"time":22.977083333333333,"velocity":0.6299212598425197,"duration":0.03645833333333215},{"name":"C5","midi":72,"time":23.540625,"velocity":0.5748031496062992,"duration":0.13437499999999858},{"name":"C#5","midi":73,"time":23.67395833333333,"velocity":0.6535433070866141,"duration":0.07916666666666572},{"name":"F5","midi":77,"time":23.935416666666665,"velocity":0.5669291338582677,"duration":0.04791666666666572},{"name":"C5","midi":72,"time":24.253124999999997,"velocity":0.5118110236220472,"duration":0.03020833333333428},{"name":"C5","midi":72,"time":24.657291666666666,"velocity":0.6614173228346457,"duration":0.09375},{"name":"C#5","midi":73,"time":24.782291666666666,"velocity":0.6377952755905512,"duration":0.07083333333333286},{"name":"F5","midi":77,"time":25.054166666666664,"velocity":0.5511811023622047,"duration":0.03645833333333215},{"name":"C5","midi":72,"time":25.68541666666666,"velocity":0.6220472440944882,"duration":0.11874999999999858},{"name":"C#5","midi":73,"time":25.809374999999992,"velocity":0.5984251968503937,"duration":0.06145833333333428},{"name":"F5","midi":77,"time":26.043749999999992,"velocity":0.5826771653543307,"duration":0.05000000000000071},{"name":"C5","midi":72,"time":26.330208333333328,"velocity":0.5275590551181102,"duration":0.03333333333333499},{"name":"C5","midi":72,"time":26.73020833333333,"velocity":0.6377952755905512,"duration":0.07604166666666501},{"name":"C#5","midi":73,"time":26.85520833333333,"velocity":0.5433070866141733,"duration":0.06354166666666572},{"name":"F5","midi":77,"time":27.106249999999996,"velocity":0.5196850393700787,"duration":0.04166666666666785},{"name":"C5","midi":72,"time":27.794791666666665,"velocity":0.6220472440944882,"duration":0.1437500000000007},{"name":"C#5","midi":73,"time":27.943749999999998,"velocity":0.5826771653543307,"duration":0.08854166666666785},{"name":"F5","midi":77,"time":28.219791666666666,"velocity":0.49606299212598426,"duration":0.03750000000000142},{"name":"C5","midi":72,"time":28.848958333333332,"velocity":0.5669291338582677,"duration":0.10520833333333357},{"name":"C#5","midi":73,"time":28.976041666666667,"velocity":0.5984251968503937,"duration":0.05729166666666785},{"name":"F5","midi":77,"time":29.257291666666667,"velocity":0.5039370078740157,"duration":0.02187500000000142},{"name":"C5","midi":72,"time":29.91041666666667,"velocity":0.6141732283464567,"duration":0.12604166666666572},{"name":"C#5","midi":73,"time":30.043750000000003,"velocity":0.6692913385826772,"duration":0.05000000000000071},{"name":"C5","midi":72,"time":30.458333333333336,"velocity":0.6377952755905512,"duration":0.13333333333333286},{"name":"C#5","midi":73,"time":30.596875,"velocity":0.6456692913385826,"duration":0.05312500000000142},{"name":"A4","midi":69,"time":30.975,"velocity":0.7086614173228346,"duration":1.0520833333333357},{"name":"F5","midi":77,"time":32.01979166666667,"velocity":0.6141732283464567,"duration":0.2708333333333357},{"name":"F5","midi":77,"time":32.525000000000006,"velocity":0.6062992125984252,"duration":0.15416666666666856},{"name":"F5","midi":77,"time":33.01666666666667,"velocity":0.6456692913385826,"duration":0.12083333333333002},{"name":"F#5","midi":78,"time":33.14791666666667,"velocity":0.6062992125984252,"duration":0.05520833333333286},{"name":"F#5","midi":78,"time":33.403125,"velocity":0.7322834645669292,"duration":0.06979166666666714},{"name":"F5","midi":77,"time":33.6625,"velocity":0.7244094488188977,"duration":0.06875000000000142},{"name":"F5","midi":77,"time":34.0625,"velocity":0.6692913385826772,"duration":0.4989583333333343},{"name":"C#5","midi":73,"time":34.572916666666664,"velocity":0.7244094488188977,"duration":0.26250000000000284},{"name":"D#5","midi":75,"time":35.06875,"velocity":0.5984251968503937,"duration":0.09479166666666572},{"name":"F5","midi":77,"time":35.19166666666667,"velocity":0.5826771653543307,"duration":0.06041666666666856},{"name":"F5","midi":77,"time":35.427083333333336,"velocity":0.6614173228346457,"duration":0.06145833333333428},{"name":"C#5","midi":73,"time":35.69791666666667,"velocity":0.7007874015748031,"duration":0.05104166666666998},{"name":"D#5","midi":75,"time":36.11770833333334,"velocity":0.7401574803149606,"duration":0.5260416666666714},{"name":"F5","midi":77,"time":36.61562500000001,"velocity":0.6929133858267716,"duration":0.4750000000000014},{"name":"C#5","midi":73,"time":37.10833333333334,"velocity":0.6850393700787402,"duration":0.10208333333333286},{"name":"D#5","midi":75,"time":37.237500000000004,"velocity":0.6535433070866141,"duration":0.06979166666666714},{"name":"C#5","midi":73,"time":37.47291666666667,"velocity":0.7086614173228346,"duration":0.06145833333333428},{"name":"C5","midi":72,"time":37.73229166666667,"velocity":0.7322834645669292,"duration":0.08229166666666998},{"name":"C#5","midi":73,"time":38.17812500000001,"velocity":0.6299212598425197,"duration":0.49791666666666856},{"name":"A#4","midi":70,"time":38.694791666666674,"velocity":0.6299212598425197,"duration":0.19687499999999858},{"name":"A#4","midi":70,"time":39.2,"velocity":0.6850393700787402,"duration":1.0135416666666686},{"name":"D#5","midi":75,"time":40.192708333333336,"velocity":0.7165354330708661,"duration":0.4906250000000014},{"name":"F5","midi":77,"time":40.706250000000004,"velocity":0.5984251968503937,"duration":0.15208333333333002},{"name":"D#5","midi":75,"time":41.155208333333334,"velocity":0.6614173228346457,"duration":0.10729166666666856},{"name":"F5","midi":77,"time":41.28229166666667,"velocity":0.5826771653543307,"duration":0.07708333333333428},{"name":"D#5","midi":75,"time":41.560416666666676,"velocity":0.7480314960629921,"duration":0.0729166666666643},{"name":"C#5","midi":73,"time":41.804166666666674,"velocity":0.7401574803149606,"duration":0.06875000000000142},{"name":"F5","midi":77,"time":42.210416666666674,"velocity":0.6614173228346457,"duration":0.5395833333333329},{"name":"C#5","midi":73,"time":42.72500000000001,"velocity":0.6929133858267716,"duration":0.48645833333333144},{"name":"C5","midi":72,"time":43.23333333333334,"velocity":0.5984251968503937,"duration":0.52708333333333},{"name":"A#4","midi":70,"time":43.72916666666667,"velocity":0.6771653543307087,"duration":0.5364583333333357},{"name":"D#5","midi":75,"time":44.21875000000001,"velocity":0.6299212598425197,"duration":0.5479166666666657},{"name":"F5","midi":77,"time":44.74479166666667,"velocity":0.5826771653543307,"duration":0.49791666666666856},{"name":"C#5","midi":73,"time":45.241666666666674,"velocity":0.6535433070866141,"duration":0.4989583333333272},{"name":"C5","midi":72,"time":45.73854166666667,"velocity":0.5984251968503937,"duration":0.5375000000000014},{"name":"D#5","midi":75,"time":46.253125000000004,"velocity":0.5669291338582677,"duration":0.5447916666666686},{"name":"F5","midi":77,"time":46.746875,"velocity":0.5669291338582677,"duration":0.55104166666667},{"name":"C#5","midi":73,"time":47.26458333333334,"velocity":0.5118110236220472,"duration":0.8624999999999972},{"name":"C5","midi":72,"time":48.15416666666667,"velocity":0.5905511811023622,"duration":0.06354166666666572},{"name":"A#4","midi":70,"time":48.25729166666667,"velocity":0.7165354330708661,"duration":0.44166666666667},{"name":"C5","midi":72,"time":48.70104166666667,"velocity":0.5275590551181102,"duration":0.12395833333333428},{"name":"C#5","midi":73,"time":48.83958333333334,"velocity":0.6220472440944882,"duration":0.06562499999999716},{"name":"F5","midi":77,"time":49.07604166666667,"velocity":0.7007874015748031,"duration":1.1354166666666643},{"name":"A#4","midi":70,"time":50.208333333333336,"velocity":0.7007874015748031,"duration":0.47604166666666714},{"name":"C5","midi":72,"time":50.69375,"velocity":0.5669291338582677,"duration":0.10729166666666856},{"name":"C#5","midi":73,"time":50.81041666666667,"velocity":0.6692913385826772,"duration":0.11249999999999716},{"name":"F5","midi":77,"time":51.036458333333336,"velocity":0.6456692913385826,"duration":1.1697916666666686},{"name":"A#4","midi":70,"time":52.18333333333334,"velocity":0.7165354330708661,"duration":0.4906249999999943},{"name":"C5","midi":72,"time":52.670833333333334,"velocity":0.6220472440944882,"duration":0.10312499999999858},{"name":"C#5","midi":73,"time":52.782291666666666,"velocity":0.6692913385826772,"duration":0.14895833333333286},{"name":"F5","midi":77,"time":53.010416666666664,"velocity":0.6377952755905512,"duration":1.7041666666666728},{"name":"C5","midi":72,"time":54.702083333333334,"velocity":0.5905511811023622,"duration":0.47708333333333286},{"name":"C#5","midi":73,"time":55.190625,"velocity":0.6141732283464567,"duration":1.0093749999999986},{"name":"A#4","midi":70,"time":56.22083333333333,"velocity":0.7716535433070866,"duration":0.4427083333333357},{"name":"C5","midi":72,"time":56.65625,"velocity":0.6062992125984252,"duration":0.12187500000000284},{"name":"C#5","midi":73,"time":56.786458333333336,"velocity":0.6692913385826772,"duration":0.10729166666666856},{"name":"F5","midi":77,"time":57.050000000000004,"velocity":0.6456692913385826,"duration":1.1114583333333385},{"name":"A#4","midi":70,"time":58.147916666666674,"velocity":0.7401574803149606,"duration":0.4895833333333357},{"name":"C5","midi":72,"time":58.63333333333334,"velocity":0.5748031496062992,"duration":0.12395833333333428},{"name":"C#5","midi":73,"time":58.76041666666667,"velocity":0.7086614173228346,"duration":0.12395833333333428},{"name":"F5","midi":77,"time":58.99895833333334,"velocity":0.6614173228346457,"duration":1.1010416666666671},{"name":"A#4","midi":70,"time":60.08645833333334,"velocity":0.6850393700787402,"duration":0.5333333333333385},{"name":"C5","midi":72,"time":60.59062500000001,"velocity":0.6299212598425197,"duration":0.11874999999999858},{"name":"C#5","midi":73,"time":60.712500000000006,"velocity":0.6850393700787402,"duration":0.21562500000000284},{"name":"F5","midi":77,"time":60.95416666666667,"velocity":0.6929133858267716,"duration":1.6458333333333286},{"name":"F#5","midi":78,"time":62.565625000000004,"velocity":0.7244094488188977,"duration":1.1291666666666629},{"name":"F5","midi":77,"time":63.64895833333333,"velocity":0.5905511811023622,"duration":0.6197916666666643},{"name":"C5","midi":72,"time":64.31875,"velocity":0.5905511811023622,"duration":0.13125000000000853},{"name":"C#5","midi":73,"time":64.43854166666667,"velocity":0.6692913385826772,"duration":0.1041666666666714},{"name":"F5","midi":77,"time":64.65625,"velocity":0.5905511811023622,"duration":0.06354166666666572},{"name":"C6","midi":84,"time":64.91041666666666,"velocity":0.6614173228346457,"duration":0.040625000000005684},{"name":"A#5","midi":82,"time":65.20625,"velocity":0.6850393700787402,"duration":0.07604166666666856},{"name":"G#5","midi":80,"time":65.475,"velocity":0.6850393700787402,"duration":0.0677083333333286},{"name":"F#5","midi":78,"time":65.73333333333332,"velocity":0.6535433070866141,"duration":0.06041666666666856},{"name":"F5","midi":77,"time":65.99374999999999,"velocity":0.6141732283464567,"duration":0.11041666666666572},{"name":"F#5","midi":78,"time":66.10624999999999,"velocity":0.6220472440944882,"duration":0.10104166666666003},{"name":"G#5","midi":80,"time":66.21562499999999,"velocity":0.6377952755905512,"duration":0.08541666666666003},{"name":"C5","midi":72,"time":66.33437499999998,"velocity":0.6141732283464567,"duration":0.13854166666666856},{"name":"C#5","midi":73,"time":66.46770833333332,"velocity":0.6692913385826772,"duration":0.09479166666666572},{"name":"F5","midi":77,"time":66.72187499999998,"velocity":0.6062992125984252,"duration":0.06145833333333428},{"name":"C6","midi":84,"time":67.01145833333332,"velocity":0.6850393700787402,"duration":0.040625000000005684},{"name":"A#5","midi":82,"time":67.40833333333333,"velocity":0.7480314960629921,"duration":0.58645833333334},{"name":"C5","midi":72,"time":68.41979166666667,"velocity":0.6299212598425197,"duration":0.1197916666666714},{"name":"C#5","midi":73,"time":68.55208333333334,"velocity":0.6692913385826772,"duration":0.08124999999999716},{"name":"F5","midi":77,"time":68.778125,"velocity":0.6141732283464567,"duration":0.06041666666666856},{"name":"C6","midi":84,"time":69.040625,"velocity":0.6929133858267716,"duration":0.04895833333333144},{"name":"A#5","midi":82,"time":69.33437500000001,"velocity":0.7007874015748031,"duration":0.07083333333333997},{"name":"G#5","midi":80,"time":69.60729166666668,"velocity":0.6771653543307087,"duration":0.07395833333333712},{"name":"F#5","midi":78,"time":69.86770833333335,"velocity":0.6692913385826772,"duration":0.06458333333333144},{"name":"F5","midi":77,"time":70.13541666666669,"velocity":0.6692913385826772,"duration":0.11249999999999716},{"name":"F#5","midi":78,"time":70.25416666666668,"velocity":0.6220472440944882,"duration":0.09687499999999716},{"name":"G#5","midi":80,"time":70.35937500000001,"velocity":0.6377952755905512,"duration":0.07708333333333428},{"name":"C5","midi":72,"time":70.46875000000001,"velocity":0.6614173228346457,"duration":0.1354166666666572},{"name":"C#5","midi":73,"time":70.59895833333334,"velocity":0.6614173228346457,"duration":0.09375},{"name":"F5","midi":77,"time":70.85833333333335,"velocity":0.6377952755905512,"duration":0.09062500000000284},{"name":"F#5","midi":78,"time":71.14687500000002,"velocity":0.7165354330708661,"duration":0.05104166666666288},{"name":"C#5","midi":73,"time":71.55312500000002,"velocity":0.7401574803149606,"duration":0.52291666666666},{"name":"C5","midi":72,"time":72.09895833333334,"velocity":0.5511811023622047,"duration":0.03229166666666572},{"name":"C5","midi":72,"time":72.62500000000001,"velocity":0.6299212598425197,"duration":0.13125000000000853},{"name":"C#5","midi":73,"time":72.74791666666668,"velocity":0.6456692913385826,"duration":0.0885416666666714},{"name":"F5","midi":77,"time":72.95937500000002,"velocity":0.6377952755905512,"duration":0.06145833333333428},{"name":"C6","midi":84,"time":73.2041666666667,"velocity":0.6929133858267716,"duration":0.039583333333339965},{"name":"A#5","midi":82,"time":73.51458333333336,"velocity":0.7165354330708661,"duration":0.0729166666666714},{"name":"G#5","midi":80,"time":73.8072916666667,"velocity":0.7401574803149606,"duration":0.0729166666666714},{"name":"F#5","midi":78,"time":74.07083333333337,"velocity":0.6456692913385826,"duration":0.0625},{"name":"F5","midi":77,"time":74.30520833333337,"velocity":0.6062992125984252,"duration":0.11249999999999716},{"name":"F#5","midi":78,"time":74.42708333333337,"velocity":0.6220472440944882,"duration":0.09270833333333428},{"name":"G#5","midi":80,"time":74.53645833333337,"velocity":0.6535433070866141,"duration":0.07604166666666856},{"name":"C5","midi":72,"time":74.65625000000004,"velocity":0.6299212598425197,"duration":0.1197916666666714},{"name":"C#5","midi":73,"time":74.77500000000005,"velocity":0.6535433070866141,"duration":0.08750000000000568},{"name":"F5","midi":77,"time":75.04166666666671,"velocity":0.5905511811023622,"duration":0.06354166666666572},{"name":"C6","midi":84,"time":75.35833333333338,"velocity":0.6692913385826772,"duration":0.041666666666671404},{"name":"G#5","midi":80,"time":75.74791666666671,"velocity":0.7165354330708661,"duration":0.6083333333333343},{"name":"C5","midi":72,"time":76.7385416666667,"velocity":0.6141732283464567,"duration":0.1302083333333286},{"name":"C#5","midi":73,"time":76.87187500000003,"velocity":0.6141732283464567,"duration":0.11666666666666003},{"name":"F5","midi":77,"time":77.11875000000002,"velocity":0.5984251968503937,"duration":0.06354166666666572},{"name":"C6","midi":84,"time":77.41875000000002,"velocity":0.6299212598425197,"duration":0.04375000000000284},{"name":"A#5","midi":82,"time":77.69583333333335,"velocity":0.6377952755905512,"duration":0.06666666666666288},{"name":"G#5","midi":80,"time":77.94791666666669,"velocity":0.6377952755905512,"duration":0.06041666666666856},{"name":"F#5","midi":78,"time":78.22500000000002,"velocity":0.7007874015748031,"duration":0.057291666666671404},{"name":"F5","midi":77,"time":78.47604166666669,"velocity":0.6456692913385826,"duration":0.11249999999999716},{"name":"F#5","midi":78,"time":78.59895833333336,"velocity":0.6299212598425197,"duration":0.09166666666666856},{"name":"G#5","midi":80,"time":78.7041666666667,"velocity":0.6692913385826772,"duration":0.07604166666666856},{"name":"C5","midi":72,"time":78.82187500000003,"velocity":0.6850393700787402,"duration":0.14791666666666003},{"name":"C#5","midi":73,"time":78.9635416666667,"velocity":0.6535433070866141,"duration":0.08541666666666003},{"name":"F5","midi":77,"time":79.25937500000002,"velocity":0.6377952755905512,"duration":0.06458333333333144},{"name":"F#5","midi":78,"time":79.95625000000001,"velocity":0.6456692913385826,"duration":0.5614583333333343},{"name":"G#5","midi":80,"time":80.478125,"velocity":0.6692913385826772,"duration":0.5187500000000114},{"name":"A#5","midi":82,"time":80.97291666666668,"velocity":0.6692913385826772,"duration":0.36145833333334565},{"name":"A#5","midi":82,"time":81.49062500000002,"velocity":0.6377952755905512,"duration":0.28125},{"name":"A#5","midi":82,"time":81.99583333333335,"velocity":0.7244094488188977,"duration":0.40833333333333144},{"name":"A#5","midi":82,"time":82.53125000000001,"velocity":0.7874015748031497,"duration":0.5291666666666686},{"name":"G#5","midi":80,"time":83.01979166666668,"velocity":0.7322834645669292,"duration":0.140625},{"name":"F5","midi":77,"time":83.12395833333335,"velocity":0.6614173228346457,"duration":0.18645833333333428},{"name":"F5","midi":77,"time":83.42708333333334,"velocity":0.7322834645669292,"duration":2.0916666666666686},{"name":"D#5","midi":75,"time":85.52083333333334,"velocity":0.7165354330708661,"duration":0.27395833333333997},{"name":"C#5","midi":73,"time":85.80937500000002,"velocity":0.7244094488188977,"duration":0.4541666666666657},{"name":"C5","midi":72,"time":86.27812500000002,"velocity":0.6377952755905512,"duration":0.15208333333333712},{"name":"A#4","midi":70,"time":86.76250000000002,"velocity":0.7007874015748031,"duration":0.15208333333333712},{"name":"C5","midi":72,"time":87.01770833333336,"velocity":0.6220472440944882,"duration":0.12916666666666288},{"name":"C#5","midi":73,"time":87.11875000000002,"velocity":0.6850393700787402,"duration":0.27291666666667425},{"name":"A#4","midi":70,"time":87.40937500000003,"velocity":0.7086614173228346,"duration":1.4812500000000028},{"name":"G#4","midi":68,"time":88.89270833333336,"velocity":0.6929133858267716,"duration":0.054166666666660035},{"name":"F4","midi":65,"time":88.97604166666669,"velocity":0.7007874015748031,"duration":0.7468750000000028},{"name":"G#4","midi":68,"time":90.47395833333336,"velocity":0.7244094488188977,"duration":0.22187499999999716},{"name":"A#4","midi":70,"time":90.71354166666669,"velocity":0.7559055118110236,"duration":0.1875},{"name":"F4","midi":65,"time":90.96145833333335,"velocity":0.4015748031496063,"duration":0.7010416666666686},{"name":"F#4","midi":66,"time":91.72083333333336,"velocity":0.7086614173228346,"duration":0.37708333333333144},{"name":"F4","midi":65,"time":92.83437500000002,"velocity":0.6062992125984252,"duration":0.08645833333333997},{"name":"D#4","midi":63,"time":92.93020833333337,"velocity":0.7559055118110236,"duration":1.4916666666666742},{"name":"F4","midi":65,"time":94.39166666666671,"velocity":0.6692913385826772,"duration":0.4833333333333343},{"name":"C#4","midi":61,"time":94.88645833333338,"velocity":0.7637795275590551,"duration":0.18437500000000284},{"name":"C4","midi":60,"time":95.60833333333338,"velocity":0.6929133858267716,"duration":0.037499999999994316},{"name":"F4","midi":65,"time":95.97812500000003,"velocity":0.44881889763779526,"duration":0.09791666666666288},{"name":"F#4","midi":66,"time":96.07500000000003,"velocity":0.5433070866141733,"duration":0.06979166666666003},{"name":"G#4","midi":68,"time":96.15937500000003,"velocity":0.5669291338582677,"duration":0.053124999999994316},{"name":"A#4","midi":70,"time":96.23541666666668,"velocity":0.5118110236220472,"duration":0.01666666666666572},{"name":"C5","midi":72,"time":96.33645833333334,"velocity":0.5984251968503937,"duration":0.06354166666666572},{"name":"C#5","midi":73,"time":96.41354166666667,"velocity":0.6771653543307087,"duration":0.07083333333333997},{"name":"D#5","midi":75,"time":96.50520833333334,"velocity":0.6141732283464567,"duration":0.03229166666666572},{"name":"F5","midi":77,"time":96.61666666666667,"velocity":0.6299212598425197,"duration":0.06874999999999432},{"name":"F#5","midi":78,"time":96.69479166666667,"velocity":0.6929133858267716,"duration":0.10208333333332575},{"name":"G#5","midi":80,"time":96.76354166666667,"velocity":0.7086614173228346,"duration":0.12604166666666572},{"name":"A#5","midi":82,"time":96.83229166666666,"velocity":0.7244094488188977,"duration":0.3854166666666714},{"name":"A#5","midi":82,"time":97.31458333333333,"velocity":0.6456692913385826,"duration":0.32083333333333997},{"name":"A#5","midi":82,"time":97.77916666666667,"velocity":0.6692913385826772,"duration":0.3697916666666714},{"name":"A#5","midi":82,"time":98.28645833333334,"velocity":0.7401574803149606,"duration":0.265625},{"name":"C6","midi":84,"time":98.53125000000001,"velocity":0.7086614173228346,"duration":0.29479166666665435},{"name":"G#5","midi":80,"time":98.778125,"velocity":0.6850393700787402,"duration":0.11562499999999432},{"name":"F5","midi":77,"time":98.89999999999999,"velocity":0.6456692913385826,"duration":0.09479166666666572},{"name":"F5","midi":77,"time":99.13749999999999,"velocity":0.7637795275590551,"duration":2.1031250000000057},{"name":"D#5","midi":75,"time":101.23229166666665,"velocity":0.7165354330708661,"duration":0.2718749999999943},{"name":"C#5","midi":73,"time":101.49791666666665,"velocity":0.7480314960629921,"duration":0.44999999999998863},{"name":"C5","midi":72,"time":101.96562499999997,"velocity":0.6456692913385826,"duration":0.11041666666666572},{"name":"A#4","midi":70,"time":102.46145833333331,"velocity":0.7007874015748031,"duration":0.12187500000000284},{"name":"C5","midi":72,"time":102.72604166666665,"velocity":0.6535433070866141,"duration":0.1510416666666714},{"name":"C#5","midi":73,"time":102.84791666666665,"velocity":0.6850393700787402,"duration":0.2802083333333343},{"name":"A#4","midi":70,"time":103.14479166666665,"velocity":0.7244094488188977,"duration":1.3885416666666686},{"name":"G#4","midi":68,"time":104.50104166666665,"velocity":0.7637795275590551,"duration":0.16562500000000568},{"name":"F4","midi":65,"time":104.69895833333332,"velocity":0.6299212598425197,"duration":0.7552083333333286},{"name":"G#4","midi":68,"time":106.14583333333331,"velocity":0.7716535433070866,"duration":0.2239583333333286},{"name":"A#4","midi":70,"time":106.38437499999998,"velocity":0.7244094488188977,"duration":0.17291666666666572},{"name":"F4","midi":65,"time":106.61874999999998,"velocity":0.6299212598425197,"duration":0.609375},{"name":"F#4","midi":66,"time":107.40312499999997,"velocity":0.7007874015748031,"duration":0.12395833333333428},{"name":"F4","midi":65,"time":108.46562499999997,"velocity":0.6692913385826772,"duration":0.10104166666666003},{"name":"D#4","midi":63,"time":108.57604166666664,"velocity":0.7716535433070866,"duration":1.5302083333333343},{"name":"F4","midi":65,"time":110.07499999999997,"velocity":0.6929133858267716,"duration":0.6218750000000028},{"name":"C#4","midi":61,"time":110.65729166666664,"velocity":0.7086614173228346,"duration":0.3218750000000057},{"name":"C4","midi":60,"time":111.26354166666664,"velocity":0.6929133858267716,"duration":0.11041666666666572},{"name":"G#3","midi":56,"time":111.84062499999997,"velocity":0.6614173228346457,"duration":0.13124999999999432},{"name":"F#3","midi":54,"time":112.44791666666663,"velocity":0.6456692913385826,"duration":0.69583333333334},{"name":"F3","midi":53,"time":113.16770833333331,"velocity":0.5826771653543307,"duration":3.78854166666666},{"name":"A#2","midi":46,"time":113.17291666666664,"velocity":0.44881889763779526,"duration":4.091666666666654},{"name":"F2","midi":41,"time":114.70729166666663,"velocity":0.4015748031496063,"duration":0.9625000000000057},{"name":"A#1","midi":34,"time":116.18333333333331,"velocity":0.31496062992125984,"duration":0.9812499999999886},{"name":"F5","midi":77,"time":119.65624999999996,"velocity":0.44881889763779526,"duration":0.13124999999999432},{"name":"F#5","midi":78,"time":119.81458333333329,"velocity":0.5118110236220472,"duration":0.09687499999999716},{"name":"A#5","midi":82,"time":120.13124999999995,"velocity":0.6299212598425197,"duration":0.041666666666671404},{"name":"F5","midi":77,"time":120.76770833333329,"velocity":0.6299212598425197,"duration":0.13333333333333997},{"name":"F#5","midi":78,"time":120.9020833333333,"velocity":0.6062992125984252,"duration":0.06979166666666003},{"name":"A#5","midi":82,"time":121.20729166666662,"velocity":0.6850393700787402,"duration":0.040625000000005684},{"name":"F5","midi":77,"time":121.83333333333329,"velocity":0.5905511811023622,"duration":0.12083333333333712},{"name":"F#5","midi":78,"time":121.97395833333329,"velocity":0.5354330708661418,"duration":0.055208333333339965},{"name":"A#5","midi":82,"time":122.2145833333333,"velocity":0.6456692913385826,"duration":0.03541666666666288},{"name":"F5","midi":77,"time":122.82499999999996,"velocity":0.6299212598425197,"duration":0.10625000000000284},{"name":"F#5","midi":78,"time":122.9552083333333,"velocity":0.5905511811023622,"duration":0.04791666666666572},{"name":"A#5","midi":82,"time":123.2239583333333,"velocity":0.6929133858267716,"duration":0.039583333333339965},{"name":"F5","midi":77,"time":123.83958333333331,"velocity":0.6377952755905512,"duration":0.12604166666666572},{"name":"F#5","midi":78,"time":123.96354166666664,"velocity":0.6299212598425197,"duration":0.07708333333333428},{"name":"A#5","midi":82,"time":124.20833333333331,"velocity":0.6850393700787402,"duration":0.04270833333333712},{"name":"F5","midi":77,"time":124.80104166666665,"velocity":0.6062992125984252,"duration":0.13333333333333997},{"name":"F#5","midi":78,"time":124.94583333333333,"velocity":0.6535433070866141,"duration":0.06562499999999716},{"name":"A#5","midi":82,"time":125.19583333333333,"velocity":0.7086614173228346,"duration":0.054166666666660035},{"name":"G#5","midi":80,"time":126.28229166666665,"velocity":0.7795275590551181,"duration":1.0052083333333428},{"name":"F#5","midi":78,"time":127.27604166666666,"velocity":0.5669291338582677,"duration":0.5062500000000085},{"name":"F5","midi":77,"time":127.815625,"velocity":0.5669291338582677,"duration":0.11249999999999716},{"name":"F#5","midi":78,"time":127.93541666666665,"velocity":0.5511811023622047,"duration":0.08749999999999147},{"name":"A#5","midi":82,"time":128.19687499999998,"velocity":0.6141732283464567,"duration":0.04895833333333144},{"name":"F5","midi":77,"time":128.809375,"velocity":0.6141732283464567,"duration":0.125},{"name":"F#5","midi":78,"time":128.93020833333333,"velocity":0.5984251968503937,"duration":0.06562499999998295},{"name":"A#5","midi":82,"time":129.1677083333333,"velocity":0.6614173228346457,"duration":0.03229166666667993},{"name":"F5","midi":77,"time":129.803125,"velocity":0.6062992125984252,"duration":0.10416666666665719},{"name":"F#5","midi":78,"time":129.89166666666665,"velocity":0.6456692913385826,"duration":0.07708333333332007},{"name":"A#5","midi":82,"time":130.1739583333333,"velocity":0.6850393700787402,"duration":0.038541666666674246},{"name":"F5","midi":77,"time":130.7770833333333,"velocity":0.6850393700787402,"duration":0.14270833333333144},{"name":"F#5","midi":78,"time":130.90104166666663,"velocity":0.6220472440944882,"duration":0.07708333333334849},{"name":"A#5","midi":82,"time":131.16249999999997,"velocity":0.7401574803149606,"duration":0.056250000000005684},{"name":"F5","midi":77,"time":131.78229166666665,"velocity":0.6062992125984252,"duration":0.12395833333334849},{"name":"F#5","midi":78,"time":131.896875,"velocity":0.6614173228346457,"duration":0.08437499999999432},{"name":"A#5","midi":82,"time":132.16041666666666,"velocity":0.7480314960629921,"duration":0.05937499999998863},{"name":"F5","midi":77,"time":132.75312499999998,"velocity":0.6299212598425197,"duration":0.13750000000001705},{"name":"F#5","midi":78,"time":132.86354166666666,"velocity":0.6850393700787402,"duration":0.10520833333333712},{"name":"A#5","midi":82,"time":133.13958333333332,"velocity":0.7401574803149606,"duration":0.04479166666666856},{"name":"C#5","midi":73,"time":134.23854166666666,"velocity":0.7716535433070866,"duration":1.0718749999999773},{"name":"D#5","midi":75,"time":135.28437499999998,"velocity":0.7401574803149606,"duration":0.828125},{"name":"F5","midi":77,"time":136.11041666666665,"velocity":0.5905511811023622,"duration":0.32604166666666856},{"name":"F5","midi":77,"time":136.65833333333333,"velocity":0.5275590551181102,"duration":0.09583333333333144},{"name":"F5","midi":77,"time":137.09375,"velocity":0.5748031496062992,"duration":0.07083333333332575},{"name":"F#5","midi":78,"time":137.22395833333331,"velocity":0.5511811023622047,"duration":0.040625000000005684},{"name":"F#5","midi":78,"time":137.475,"velocity":0.5590551181102362,"duration":0.039583333333325754},{"name":"F5","midi":77,"time":137.71041666666665,"velocity":0.6141732283464567,"duration":0.04374999999998863},{"name":"F5","midi":77,"time":138.1020833333333,"velocity":0.6692913385826772,"duration":0.4625000000000057},{"name":"C#5","midi":73,"time":138.60416666666663,"velocity":0.6220472440944882,"duration":0.10312500000000568},{"name":"D#5","midi":75,"time":139.06874999999997,"velocity":0.6535433070866141,"duration":0.08750000000000568},{"name":"F5","midi":77,"time":139.20416666666665,"velocity":0.5748031496062992,"duration":0.05729166666665719},{"name":"F5","midi":77,"time":139.45208333333332,"velocity":0.6377952755905512,"duration":0.06874999999999432},{"name":"C#5","midi":73,"time":139.71041666666665,"velocity":0.6614173228346457,"duration":0.05729166666665719},{"name":"D#5","midi":75,"time":140.0895833333333,"velocity":0.6614173228346457,"duration":0.45520833333333144},{"name":"F5","midi":77,"time":140.56354166666665,"velocity":0.5984251968503937,"duration":0.15312499999998863},{"name":"C#5","midi":73,"time":141.0489583333333,"velocity":0.6692913385826772,"duration":0.08020833333333144},{"name":"D#5","midi":75,"time":141.1895833333333,"velocity":0.5433070866141733,"duration":0.056250000000005684},{"name":"C#5","midi":73,"time":141.41145833333331,"velocity":0.6299212598425197,"duration":0.05937499999998863},{"name":"C5","midi":72,"time":141.65937499999998,"velocity":0.7007874015748031,"duration":0.078125},{"name":"C#5","midi":73,"time":142.06562499999998,"velocity":0.6377952755905512,"duration":0.5062499999999943},{"name":"A#4","midi":70,"time":142.575,"velocity":0.6535433070866141,"duration":0.1354166666666572},{"name":"A#4","midi":70,"time":143.06666666666663,"velocity":0.6771653543307087,"duration":1.0093749999999773},{"name":"D#5","midi":75,"time":144.0458333333333,"velocity":0.6692913385826772,"duration":0.38749999999998863},{"name":"F5","midi":77,"time":144.61041666666662,"velocity":0.5826771653543307,"duration":0.28229166666667993},{"name":"D#5","midi":75,"time":145.04479166666664,"velocity":0.6692913385826772,"duration":0.12395833333332007},{"name":"F5","midi":77,"time":145.17916666666662,"velocity":0.5905511811023622,"duration":0.10208333333332575},{"name":"D#5","midi":75,"time":145.41562499999995,"velocity":0.6614173228346457,"duration":0.09479166666667993},{"name":"C#5","midi":73,"time":145.67812499999997,"velocity":0.7244094488188977,"duration":0.08437499999999432},{"name":"F5","midi":77,"time":146.06354166666662,"velocity":0.6771653543307087,"duration":0.5062499999999943},{"name":"C#5","midi":73,"time":146.57916666666662,"velocity":0.6771653543307087,"duration":0.46562499999998863},{"name":"C5","midi":72,"time":147.0614583333333,"velocity":0.6299212598425197,"duration":0.5729166666666856},{"name":"A#4","midi":70,"time":147.59374999999997,"velocity":0.6929133858267716,"duration":0.5177083333333599},{"name":"D#5","midi":75,"time":148.07291666666666,"velocity":0.6220472440944882,"duration":0.5531249999999943},{"name":"F5","midi":77,"time":148.57708333333332,"velocity":0.6535433070866141,"duration":0.5427083333333371},{"name":"C#5","midi":73,"time":149.08749999999998,"velocity":0.7007874015748031,"duration":0.6552083333333485},{"name":"C5","midi":72,"time":149.61249999999998,"velocity":0.6377952755905512,"duration":0.4635416666666856},{"name":"D#5","midi":75,"time":150.05625,"velocity":0.7874015748031497,"duration":0.5687499999999943},{"name":"F5","midi":77,"time":150.5875,"velocity":0.7007874015748031,"duration":0.49791666666666856},{"name":"F5","midi":77,"time":152.55625,"velocity":0.5275590551181102,"duration":0.09270833333332007},{"name":"F#5","midi":78,"time":152.6625,"velocity":0.5826771653543307,"duration":0.05729166666665719},{"name":"A#5","midi":82,"time":152.94166666666666,"velocity":0.6771653543307087,"duration":0.056250000000005684},{"name":"F5","midi":77,"time":153.2875,"velocity":0.6141732283464567,"duration":0.9875000000000114},{"name":"F5","midi":77,"time":154.51250000000002,"velocity":0.5748031496062992,"duration":0.08958333333333712},{"name":"F#5","midi":78,"time":154.62187500000002,"velocity":0.5511811023622047,"duration":0.06458333333333144},{"name":"A#5","midi":82,"time":154.86145833333336,"velocity":0.7086614173228346,"duration":1.4625000000000057},{"name":"F5","midi":77,"time":156.4291666666667,"velocity":0.5511811023622047,"duration":0.09687500000001137},{"name":"F#5","midi":78,"time":156.53541666666672,"velocity":0.5748031496062992,"duration":0.05833333333333712},{"name":"A#5","midi":82,"time":156.77395833333338,"velocity":0.7244094488188977,"duration":0.3812499999999943},{"name":"F5","midi":77,"time":157.14062500000006,"velocity":0.6692913385826772,"duration":1.0749999999999886},{"name":"G#5","midi":80,"time":158.34895833333337,"velocity":0.8110236220472441,"duration":0.9499999999999886},{"name":"F#5","midi":78,"time":159.32500000000002,"velocity":0.6377952755905512,"duration":0.9135416666666742},{"name":"F5","midi":77,"time":160.30937500000002,"velocity":0.6299212598425197,"duration":0.11250000000001137},{"name":"F#5","midi":78,"time":160.4447916666667,"velocity":0.6062992125984252,"duration":0.07395833333333712},{"name":"A#5","midi":82,"time":160.68645833333338,"velocity":0.7244094488188977,"duration":0.41354166666667425},{"name":"F5","midi":77,"time":161.0791666666667,"velocity":0.6535433070866141,"duration":0.9833333333333485},{"name":"F5","midi":77,"time":162.24062500000005,"velocity":0.5905511811023622,"duration":0.11041666666667993},{"name":"F#5","midi":78,"time":162.3458333333334,"velocity":0.6062992125984252,"duration":0.06875000000002274},{"name":"A#5","midi":82,"time":162.57500000000007,"velocity":0.7637795275590551,"duration":1.5416666666666572},{"name":"F5","midi":77,"time":164.10312500000006,"velocity":0.6299212598425197,"duration":0.11666666666667425},{"name":"F#5","midi":78,"time":164.2145833333334,"velocity":0.6771653543307087,"duration":0.07708333333334849},{"name":"A#5","midi":82,"time":164.42604166666675,"velocity":0.7795275590551181,"duration":1.1875},{"name":"F5","midi":77,"time":164.80000000000007,"velocity":0.6141732283464567,"duration":0.8625000000000114},{"name":"C#6","midi":85,"time":166.06562500000007,"velocity":0.8267716535433071,"duration":0.9510416666666686},{"name":"D#6","midi":87,"time":166.9927083333334,"velocity":0.7795275590551181,"duration":0.8416666666666686},{"name":"F6","midi":89,"time":167.76875000000007,"velocity":0.7637795275590551,"duration":0.5416666666666856},{"name":"F6","midi":89,"time":168.48958333333343,"velocity":0.7480314960629921,"duration":0.2750000000000057},{"name":"F6","midi":89,"time":168.93020833333344,"velocity":0.7716535433070866,"duration":0.36145833333333144},{"name":"F6","midi":89,"time":169.43020833333344,"velocity":0.7952755905511811,"duration":0.47812499999997726},{"name":"D#6","midi":87,"time":169.89583333333343,"velocity":0.7874015748031497,"duration":0.1260416666666515},{"name":"C6","midi":84,"time":170.0093750000001,"velocity":0.6535433070866141,"duration":0.14583333333331439},{"name":"C6","midi":84,"time":170.25729166666673,"velocity":0.7480314960629921,"duration":1.9510416666666686},{"name":"C#6","midi":85,"time":172.3458333333334,"velocity":0.7874015748031497,"duration":0.24375000000000568},{"name":"C6","midi":84,"time":172.58541666666673,"velocity":0.6456692913385826,"duration":0.484375},{"name":"A#5","midi":82,"time":173.09479166666674,"velocity":0.7480314960629921,"duration":0.42291666666667993},{"name":"G#5","midi":80,"time":173.5343750000001,"velocity":0.6141732283464567,"duration":0.11770833333332575},{"name":"C6","midi":84,"time":173.79791666666677,"velocity":0.6850393700787402,"duration":0.16770833333333712},{"name":"C#6","midi":85,"time":173.9250000000001,"velocity":0.7165354330708661,"duration":0.265625},{"name":"A#5","midi":82,"time":174.1656250000001,"velocity":0.6771653543307087,"duration":1.18854166666668},{"name":"G#5","midi":80,"time":175.65729166666677,"velocity":0.6535433070866141,"duration":0.10416666666665719},{"name":"A#5","midi":82,"time":175.7593750000001,"velocity":0.7637795275590551,"duration":0.7385416666666629},{"name":"G#5","midi":80,"time":176.50625000000008,"velocity":0.7401574803149606,"duration":0.9552083333333314},{"name":"A#5","midi":82,"time":177.46666666666675,"velocity":0.6850393700787402,"duration":0.11979166666668561},{"name":"G#5","midi":80,"time":177.57916666666677,"velocity":0.6692913385826772,"duration":0.09791666666666288},{"name":"F5","midi":77,"time":177.6843750000001,"velocity":0.6220472440944882,"duration":1.03125},{"name":"F#5","midi":78,"time":179.16354166666676,"velocity":0.6692913385826772,"duration":0.24270833333332575},{"name":"F5","midi":77,"time":179.38229166666676,"velocity":0.6299212598425197,"duration":0.21562499999998863},{"name":"D#5","midi":75,"time":179.59583333333342,"velocity":0.7086614173228346,"duration":0.7666666666666515},{"name":"F5","midi":77,"time":180.35000000000008,"velocity":0.6929133858267716,"duration":0.37187499999998863},{"name":"F5","midi":77,"time":181.31250000000006,"velocity":0.6299212598425197,"duration":0.2395833333333428},{"name":"F#5","midi":78,"time":181.51979166666672,"velocity":0.7795275590551181,"duration":0.7666666666666799},{"name":"A5","midi":81,"time":182.2645833333334,"velocity":0.7165354330708661,"duration":0.3697916666666572},{"name":"A5","midi":81,"time":183.01041666666674,"velocity":0.7874015748031497,"duration":0.31562499999998295},{"name":"A#5","midi":82,"time":183.3114583333334,"velocity":0.7716535433070866,"duration":0.7427083333333258},{"name":"A#5","midi":82,"time":184.17500000000007,"velocity":0.7637795275590551,"duration":0.2874999999999943},{"name":"A#5","midi":82,"time":184.61250000000007,"velocity":0.7086614173228346,"duration":0.32604166666666856},{"name":"A#5","midi":82,"time":185.07291666666674,"velocity":0.7244094488188977,"duration":0.43541666666666856},{"name":"C6","midi":84,"time":185.45729166666675,"velocity":0.6377952755905512,"duration":0.11041666666665151},{"name":"G#5","midi":80,"time":185.49791666666675,"velocity":0.6062992125984252,"duration":0.12291666666666856},{"name":"F5","midi":77,"time":185.58437500000008,"velocity":0.6535433070866141,"duration":0.19375000000002274},{"name":"F5","midi":77,"time":185.94583333333344,"velocity":0.6614173228346457,"duration":2.1739583333333314},{"name":"D#5","midi":75,"time":188.09791666666678,"velocity":0.7086614173228346,"duration":0.24166666666664582},{"name":"C#5","midi":73,"time":188.30208333333343,"velocity":0.7322834645669292,"duration":0.4479166666666572},{"name":"C5","midi":72,"time":188.76979166666675,"velocity":0.7086614173228346,"duration":0.13437500000000568},{"name":"A#4","midi":70,"time":189.25000000000009,"velocity":0.7007874015748031,"duration":0.17916666666667425},{"name":"C5","midi":72,"time":189.52916666666675,"velocity":0.6220472440944882,"duration":0.12291666666666856},{"name":"C#5","midi":73,"time":189.6343750000001,"velocity":0.6456692913385826,"duration":0.22604166666667425},{"name":"A#4","midi":70,"time":189.86354166666678,"velocity":0.6692913385826772,"duration":1.4416666666666629},{"name":"G#4","midi":68,"time":191.2968750000001,"velocity":0.7086614173228346,"duration":0.07083333333332575},{"name":"F4","midi":65,"time":191.3937500000001,"velocity":0.6614173228346457,"duration":0.6479166666666742},{"name":"G#4","midi":68,"time":192.85208333333344,"velocity":0.7322834645669292,"duration":0.23854166666666288},{"name":"A#4","midi":70,"time":193.10208333333344,"velocity":0.7165354330708661,"duration":0.18437499999998863},{"name":"F4","midi":65,"time":193.33541666666676,"velocity":0.6535433070866141,"duration":0.6239583333333201},{"name":"F#4","midi":66,"time":194.08020833333342,"velocity":0.6929133858267716,"duration":0.11145833333333144},{"name":"F4","midi":65,"time":195.1645833333334,"velocity":0.5905511811023622,"duration":0.12708333333333144},{"name":"D#4","midi":63,"time":195.29895833333342,"velocity":0.7165354330708661,"duration":1.4947916666666572},{"name":"F4","midi":65,"time":196.74062500000008,"velocity":0.6062992125984252,"duration":0.5333333333333314},{"name":"C#4","midi":61,"time":197.27291666666673,"velocity":0.7244094488188977,"duration":0.27187500000002274},{"name":"C4","midi":60,"time":198.00520833333343,"velocity":0.6141732283464567,"duration":0.022916666666674246},{"name":"C5","midi":72,"time":199.6906250000001,"velocity":0.3937007874015748,"duration":0.06041666666666856},{"name":"C#5","midi":73,"time":199.78125000000009,"velocity":0.5275590551181102,"duration":0.05937499999998863},{"name":"D#5","midi":75,"time":199.85416666666674,"velocity":0.5118110236220472,"duration":0.06770833333334281},{"name":"F5","midi":77,"time":199.95416666666677,"velocity":0.5354330708661418,"duration":1.6614583333333428},{"name":"C5","midi":72,"time":201.65729166666677,"velocity":0.28346456692913385,"duration":0.025000000000005684},{"name":"C#5","midi":73,"time":201.70104166666678,"velocity":0.5039370078740157,"duration":0.05104166666666288},{"name":"D#5","midi":75,"time":201.77083333333346,"velocity":0.5590551181102362,"duration":0.06145833333332007},{"name":"F5","midi":77,"time":201.85520833333345,"velocity":0.5748031496062992,"duration":1.3375000000000057},{"name":"A#4","midi":70,"time":203.50625000000014,"velocity":0.49606299212598426,"duration":0.07916666666667993},{"name":"C5","midi":72,"time":203.59895833333348,"velocity":0.4566929133858268,"duration":0.07604166666666856},{"name":"C#5","midi":73,"time":203.67500000000015,"velocity":0.6141732283464567,"duration":0.06979166666667425},{"name":"D#5","midi":75,"time":203.74375000000015,"velocity":0.5669291338582677,"duration":0.10624999999998863},{"name":"F5","midi":77,"time":203.83750000000015,"velocity":0.5433070866141733,"duration":1.765625},{"name":"C#5","midi":73,"time":205.56875000000014,"velocity":0.6299212598425197,"duration":0.26354166666666856},{"name":"D#5","midi":75,"time":206.03645833333348,"velocity":0.6614173228346457,"duration":0.055208333333325754},{"name":"C6","midi":84,"time":207.63645833333348,"velocity":0.5039370078740157,"duration":0.06874999999999432},{"name":"C#6","midi":85,"time":207.72812500000015,"velocity":0.5590551181102362,"duration":0.05000000000001137},{"name":"D#6","midi":87,"time":207.78645833333348,"velocity":0.5905511811023622,"duration":0.0625},{"name":"F6","midi":89,"time":207.8739583333335,"velocity":0.5275590551181102,"duration":1.0708333333333258},{"name":"A#5","midi":82,"time":209.60416666666683,"velocity":0.47244094488188976,"duration":0.07083333333332575},{"name":"C6","midi":84,"time":209.6854166666668,"velocity":0.4881889763779528,"duration":0.08645833333335418},{"name":"C#6","midi":85,"time":209.77083333333348,"velocity":0.6299212598425197,"duration":0.07812500000002842},{"name":"D#6","midi":87,"time":209.83541666666684,"velocity":0.6377952755905512,"duration":0.10624999999998863},{"name":"F6","midi":89,"time":209.9177083333335,"velocity":0.5275590551181102,"duration":0.14270833333333144},{"name":"F5","midi":77,"time":211.38541666666683,"velocity":0.3464566929133858,"duration":0.0625},{"name":"F#5","midi":78,"time":211.4708333333335,"velocity":0.4330708661417323,"duration":0.09895833333334281},{"name":"G#5","midi":80,"time":211.5489583333335,"velocity":0.4566929133858268,"duration":0.0625},{"name":"A#5","midi":82,"time":211.6333333333335,"velocity":0.5826771653543307,"duration":0.02812499999998863},{"name":"C6","midi":84,"time":211.76145833333348,"velocity":0.5354330708661418,"duration":0.056250000000005684},{"name":"C#6","midi":85,"time":211.85312500000015,"velocity":0.5118110236220472,"duration":0.07708333333332007},{"name":"D#6","midi":87,"time":211.96145833333347,"velocity":0.7007874015748031,"duration":0.10312500000000568},{"name":"F6","midi":89,"time":212.0916666666668,"velocity":0.6377952755905512,"duration":0.359375},{"name":"C7","midi":96,"time":214.0416666666668,"velocity":0.6692913385826772,"duration":0.19062500000001137},{"name":"A#6","midi":94,"time":214.21458333333348,"velocity":0.6692913385826772,"duration":0.140625},{"name":"G#6","midi":92,"time":214.39791666666682,"velocity":0.7007874015748031,"duration":0.16249999999999432},{"name":"A#6","midi":94,"time":214.62812500000015,"velocity":0.6692913385826772,"duration":0.13124999999999432},{"name":"G#6","midi":92,"time":214.80416666666682,"velocity":0.6614173228346457,"duration":0.1302083333333428},{"name":"F#6","midi":90,"time":214.95000000000016,"velocity":0.6692913385826772,"duration":0.08645833333332575},{"name":"G#6","midi":92,"time":215.0666666666668,"velocity":0.6771653543307087,"duration":0.13645833333333712},{"name":"F#6","midi":90,"time":215.22187500000015,"velocity":0.6141732283464567,"duration":0.08437499999999432},{"name":"F6","midi":89,"time":215.36979166666683,"velocity":0.5984251968503937,"duration":0.13437500000000568},{"name":"F#6","midi":90,"time":215.52604166666683,"velocity":0.6220472440944882,"duration":0.12187499999998863},{"name":"F6","midi":89,"time":215.68437500000016,"velocity":0.5354330708661418,"duration":0.15312499999998863},{"name":"D#6","midi":87,"time":215.86875000000015,"velocity":0.6456692913385826,"duration":0.1822916666666572},{"name":"F6","midi":89,"time":216.0916666666668,"velocity":0.5590551181102362,"duration":0.26354166666666856},{"name":"D#6","midi":87,"time":216.36041666666682,"velocity":0.6614173228346457,"duration":0.26249999999998863},{"name":"C#6","midi":85,"time":216.67291666666682,"velocity":0.5984251968503937,"duration":0.4229166666666515},{"name":"D#6","midi":87,"time":217.08750000000015,"velocity":0.6141732283464567,"duration":0.06562499999998295},{"name":"C6","midi":84,"time":219.4072916666668,"velocity":0.6535433070866141,"duration":8.09270833333332}],"controlChanges":{"64":[{"number":64,"time":221.16979166666678,"value":1},{"number":64,"time":224.6625000000001,"value":0}]},"id":1,"name":"Good take both","channelNumber":0,"isPercussion":false},{"startTime":2.071875,"duration":221.38750000000002,"length":811,"notes":[{"name":"F4","midi":65,"time":2.071875,"velocity":0.4330708661417323,"duration":0.21562500000000018},{"name":"A#4","midi":70,"time":2.365625,"velocity":0.2992125984251969,"duration":0.2614583333333331},{"name":"F4","midi":65,"time":2.6854166666666663,"velocity":0.33858267716535434,"duration":0.18437500000000018},{"name":"A#4","midi":70,"time":2.9031249999999997,"velocity":0.4566929133858268,"duration":0.21458333333333313},{"name":"F4","midi":65,"time":3.1677083333333327,"velocity":0.4251968503937008,"duration":0.2625000000000002},{"name":"A#4","midi":70,"time":3.438541666666666,"velocity":0.4645669291338583,"duration":0.2687499999999998},{"name":"F4","midi":65,"time":3.757291666666666,"velocity":0.3464566929133858,"duration":0.21354166666666652},{"name":"A#4","midi":70,"time":3.978124999999999,"velocity":0.5275590551181102,"duration":0.23645833333333366},{"name":"F4","midi":65,"time":4.247916666666666,"velocity":0.3937007874015748,"duration":0.2197916666666666},{"name":"A#4","midi":70,"time":4.489583333333332,"velocity":0.5354330708661418,"duration":0.23958333333333304},{"name":"F4","midi":65,"time":4.768749999999999,"velocity":0.4330708661417323,"duration":0.2333333333333334},{"name":"A#4","midi":70,"time":5.010416666666666,"velocity":0.4645669291338583,"duration":0.23854166666666643},{"name":"F4","midi":65,"time":5.272916666666666,"velocity":0.36220472440944884,"duration":0.24166666666666625},{"name":"A#4","midi":70,"time":5.534374999999999,"velocity":0.5511811023622047,"duration":0.22812500000000036},{"name":"F4","midi":65,"time":5.793749999999999,"velocity":0.4566929133858268,"duration":0.24166666666666625},{"name":"A#4","midi":70,"time":6.0666666666666655,"velocity":0.5669291338582677,"duration":0.15416666666666679},{"name":"A#3","midi":58,"time":6.361458333333332,"velocity":0.48031496062992124,"duration":0.23020833333333357},{"name":"F4","midi":65,"time":6.620833333333333,"velocity":0.4330708661417323,"duration":0.2333333333333334},{"name":"A#3","midi":58,"time":6.874999999999999,"velocity":0.4881889763779528,"duration":0.22083333333333321},{"name":"F4","midi":65,"time":7.151041666666666,"velocity":0.30708661417322836,"duration":0.31666666666666643},{"name":"A#3","midi":58,"time":7.4833333333333325,"velocity":0.4015748031496063,"duration":0.24583333333333357},{"name":"F4","midi":65,"time":7.755208333333333,"velocity":0.33070866141732286,"duration":0.24583333333333268},{"name":"A#3","midi":58,"time":8.027083333333332,"velocity":0.3779527559055118,"duration":0.24375000000000036},{"name":"F4","midi":65,"time":8.281249999999998,"velocity":0.30708661417322836,"duration":0.2708333333333339},{"name":"G#3","midi":56,"time":8.564583333333331,"velocity":0.4251968503937008,"duration":0.20937499999999964},{"name":"F4","midi":65,"time":8.804166666666664,"velocity":0.3464566929133858,"duration":0.28125},{"name":"G#3","midi":56,"time":9.091666666666663,"velocity":0.3937007874015748,"duration":0.21145833333333286},{"name":"F4","midi":65,"time":9.351041666666664,"velocity":0.2755905511811024,"duration":0.2854166666666682},{"name":"G#3","midi":56,"time":9.635416666666664,"velocity":0.4015748031496063,"duration":0.23958333333333393},{"name":"F4","midi":65,"time":9.892708333333331,"velocity":0.36220472440944884,"duration":0.26145833333333357},{"name":"G#3","midi":56,"time":10.154166666666665,"velocity":0.5275590551181102,"duration":0.2041666666666675},{"name":"F4","midi":65,"time":10.397916666666665,"velocity":0.5590551181102362,"duration":0.2802083333333325},{"name":"F#3","midi":54,"time":10.673958333333331,"velocity":0.5826771653543307,"duration":0.25729166666666714},{"name":"F4","midi":65,"time":10.921874999999998,"velocity":0.47244094488188976,"duration":0.26874999999999893},{"name":"F#3","midi":54,"time":11.180208333333331,"velocity":0.47244094488188976,"duration":0.28437499999999893},{"name":"F4","midi":65,"time":11.482291666666663,"velocity":0.4566929133858268,"duration":0.24479166666666607},{"name":"F#3","midi":54,"time":11.732291666666663,"velocity":0.4251968503937008,"duration":0.26145833333333357},{"name":"F4","midi":65,"time":12.009374999999997,"velocity":0.4330708661417323,"duration":0.2375000000000007},{"name":"F#3","midi":54,"time":12.24583333333333,"velocity":0.4251968503937008,"duration":0.24375000000000036},{"name":"F4","midi":65,"time":12.509374999999997,"velocity":0.4645669291338583,"duration":0.19583333333333286},{"name":"F3","midi":53,"time":12.797916666666662,"velocity":0.5118110236220472,"duration":0.25833333333333286},{"name":"D#4","midi":63,"time":13.047916666666662,"velocity":0.5354330708661418,"duration":0.2624999999999993},{"name":"F3","midi":53,"time":13.308333333333328,"velocity":0.5275590551181102,"duration":0.29999999999999893},{"name":"D#4","midi":63,"time":13.597916666666661,"velocity":0.5511811023622047,"duration":0.2843750000000007},{"name":"F3","midi":53,"time":13.877083333333328,"velocity":0.5196850393700787,"duration":0.3312500000000007},{"name":"D#4","midi":63,"time":14.147916666666662,"velocity":0.5039370078740157,"duration":0.2354166666666675},{"name":"F3","midi":53,"time":14.384374999999997,"velocity":0.4566929133858268,"duration":0.2468749999999993},{"name":"D#4","midi":63,"time":14.676041666666663,"velocity":0.5118110236220472,"duration":0.26145833333333357},{"name":"A#3","midi":58,"time":14.956249999999997,"velocity":0.5590551181102362,"duration":0.1999999999999993},{"name":"F4","midi":65,"time":15.19895833333333,"velocity":0.4094488188976378,"duration":0.21354166666666607},{"name":"A#3","midi":58,"time":15.42395833333333,"velocity":0.44881889763779526,"duration":0.22916666666666607},{"name":"F4","midi":65,"time":15.702083333333329,"velocity":0.33070866141732286,"duration":0.2645833333333325},{"name":"A#3","midi":58,"time":15.97916666666666,"velocity":0.4015748031496063,"duration":0.24895833333333428},{"name":"F4","midi":65,"time":16.283333333333328,"velocity":0.28346456692913385,"duration":0.24062500000000142},{"name":"A#3","midi":58,"time":16.517708333333328,"velocity":0.4566929133858268,"duration":0.486458333333335},{"name":"F4","midi":65,"time":16.838541666666664,"velocity":0.25984251968503935,"duration":0.21145833333333286},{"name":"G#3","midi":56,"time":17.05625,"velocity":0.4094488188976378,"duration":0.24479166666666785},{"name":"F4","midi":65,"time":17.335416666666667,"velocity":0.33858267716535434,"duration":0.2562500000000014},{"name":"G#3","midi":56,"time":17.61354166666667,"velocity":0.3700787401574803,"duration":0.23958333333333215},{"name":"F4","midi":65,"time":17.906250000000004,"velocity":0.3937007874015748,"duration":0.2802083333333343},{"name":"G#3","midi":56,"time":18.19479166666667,"velocity":0.4881889763779528,"duration":0.24374999999999858},{"name":"F4","midi":65,"time":18.455208333333335,"velocity":0.4094488188976378,"duration":0.2552083333333357},{"name":"G#3","midi":56,"time":18.708333333333336,"velocity":0.47244094488188976,"duration":0.1875},{"name":"F4","midi":65,"time":18.942708333333336,"velocity":0.5590551181102362,"duration":0.2593749999999986},{"name":"F#3","midi":54,"time":19.190625,"velocity":0.5905511811023622,"duration":0.2395833333333357},{"name":"F4","midi":65,"time":19.415625000000002,"velocity":0.4094488188976378,"duration":0.267708333333335},{"name":"F#3","midi":54,"time":19.68958333333334,"velocity":0.4645669291338583,"duration":0.24895833333333428},{"name":"F4","midi":65,"time":19.96354166666667,"velocity":0.4881889763779528,"duration":0.2749999999999986},{"name":"F#3","midi":54,"time":20.24791666666667,"velocity":0.4251968503937008,"duration":0.232291666666665},{"name":"F4","midi":65,"time":20.508333333333333,"velocity":0.4330708661417323,"duration":0.2593749999999986},{"name":"F#3","midi":54,"time":20.778125,"velocity":0.47244094488188976,"duration":0.22916666666666785},{"name":"F4","midi":65,"time":21.03125,"velocity":0.4330708661417323,"duration":0.17708333333333215},{"name":"F3","midi":53,"time":21.301041666666666,"velocity":0.47244094488188976,"duration":0.27708333333333357},{"name":"D#4","midi":63,"time":21.566666666666666,"velocity":0.5590551181102362,"duration":0.2510416666666657},{"name":"F3","midi":53,"time":21.822916666666664,"velocity":0.4881889763779528,"duration":0.2979166666666657},{"name":"D#4","midi":63,"time":22.12708333333333,"velocity":0.5748031496062992,"duration":0.314583333333335},{"name":"F3","midi":53,"time":22.441666666666666,"velocity":0.4015748031496063,"duration":0.3270833333333343},{"name":"D#4","midi":63,"time":22.722916666666666,"velocity":0.5354330708661418,"duration":0.2645833333333343},{"name":"F3","midi":53,"time":23.008333333333333,"velocity":0.48031496062992124,"duration":0.22395833333333215},{"name":"D#4","midi":63,"time":23.27708333333333,"velocity":0.48031496062992124,"duration":0.20833333333333215},{"name":"A#3","midi":58,"time":23.543749999999996,"velocity":0.5275590551181102,"duration":0.23020833333333357},{"name":"F4","midi":65,"time":23.80208333333333,"velocity":0.3543307086614173,"duration":0.263541666666665},{"name":"A#3","midi":58,"time":24.084374999999994,"velocity":0.4094488188976378,"duration":0.24374999999999858},{"name":"F4","midi":65,"time":24.37916666666666,"velocity":0.3779527559055118,"duration":0.2718750000000014},{"name":"A#3","midi":58,"time":24.64791666666666,"velocity":0.4566929133858268,"duration":0.20416666666666572},{"name":"F4","midi":65,"time":24.90104166666666,"velocity":0.25984251968503935,"duration":0.267708333333335},{"name":"A#3","midi":58,"time":25.18645833333333,"velocity":0.3464566929133858,"duration":0.2718750000000014},{"name":"F4","midi":65,"time":25.45520833333333,"velocity":0.4645669291338583,"duration":0.24479166666666785},{"name":"G#3","midi":56,"time":25.684375,"velocity":0.5039370078740157,"duration":0.21354166666666785},{"name":"F4","midi":65,"time":25.914583333333333,"velocity":0.36220472440944884,"duration":0.2666666666666657},{"name":"G#3","midi":56,"time":26.18645833333333,"velocity":0.4015748031496063,"duration":0.232291666666665},{"name":"F4","midi":65,"time":26.439583333333328,"velocity":0.44881889763779526,"duration":0.30208333333333215},{"name":"G#3","midi":56,"time":26.724999999999994,"velocity":0.4645669291338583,"duration":0.24062499999999787},{"name":"F4","midi":65,"time":26.96041666666666,"velocity":0.33858267716535434,"duration":0.2979166666666657},{"name":"G#3","midi":56,"time":27.248958333333327,"velocity":0.47244094488188976,"duration":0.232291666666665},{"name":"F4","midi":65,"time":27.52499999999999,"velocity":0.5118110236220472,"duration":0.32291666666666785},{"name":"F#3","midi":54,"time":27.793749999999992,"velocity":0.6692913385826772,"duration":0.29062500000000213},{"name":"F4","midi":65,"time":28.084374999999994,"velocity":0.29133858267716534,"duration":0.236458333333335},{"name":"F#3","midi":54,"time":28.346874999999997,"velocity":0.36220472440944884,"duration":0.24583333333333357},{"name":"F4","midi":65,"time":28.61145833333333,"velocity":0.4094488188976378,"duration":0.25624999999999787},{"name":"F#3","midi":54,"time":28.846874999999997,"velocity":0.49606299212598426,"duration":0.2510416666666657},{"name":"F4","midi":65,"time":29.10520833333333,"velocity":0.3700787401574803,"duration":0.2562500000000014},{"name":"F#3","midi":54,"time":29.37708333333333,"velocity":0.48031496062992124,"duration":0.23541666666666572},{"name":"F4","midi":65,"time":29.640624999999996,"velocity":0.5196850393700787,"duration":0.201041666666665},{"name":"F3","midi":53,"time":29.896874999999994,"velocity":0.5511811023622047,"duration":0.29895833333333144},{"name":"D#4","midi":63,"time":30.183333333333326,"velocity":0.5354330708661418,"duration":0.247916666666665},{"name":"F3","midi":53,"time":30.42604166666666,"velocity":0.4251968503937008,"duration":0.30416666666666714},{"name":"D#4","midi":63,"time":30.68854166666666,"velocity":0.5196850393700787,"duration":0.27916666666666856},{"name":"F3","midi":53,"time":30.964583333333326,"velocity":0.49606299212598426,"duration":0.3083333333333371},{"name":"D#4","midi":63,"time":31.20833333333333,"velocity":0.5039370078740157,"duration":0.27291666666666714},{"name":"F3","midi":53,"time":31.481249999999996,"velocity":0.5354330708661418,"duration":0.2822916666666657},{"name":"D#4","midi":63,"time":31.735416666666662,"velocity":0.5275590551181102,"duration":0.24583333333333357},{"name":"F#3","midi":54,"time":32.016666666666666,"velocity":0.48031496062992124,"duration":0.24583333333333002},{"name":"C#4","midi":61,"time":32.284375,"velocity":0.36220472440944884,"duration":0.23333333333333428},{"name":"F#3","midi":54,"time":32.52395833333333,"velocity":0.3543307086614173,"duration":0.22604166666666714},{"name":"C#4","midi":61,"time":32.770833333333336,"velocity":0.47244094488188976,"duration":0.22291666666666998},{"name":"F#3","midi":54,"time":33.02187500000001,"velocity":0.48031496062992124,"duration":0.2291666666666643},{"name":"C#4","midi":61,"time":33.26979166666667,"velocity":0.5354330708661418,"duration":0.23333333333333428},{"name":"F#3","midi":54,"time":33.53229166666667,"velocity":0.5275590551181102,"duration":0.25312500000000426},{"name":"C#4","midi":61,"time":33.78020833333334,"velocity":0.6377952755905512,"duration":0.2760416666666714},{"name":"A#3","midi":58,"time":34.05208333333334,"velocity":0.6929133858267716,"duration":0.24375000000000568},{"name":"F4","midi":65,"time":34.31562500000002,"velocity":0.5590551181102362,"duration":0.2593749999999986},{"name":"A#3","midi":58,"time":34.58020833333335,"velocity":0.5039370078740157,"duration":0.20520833333333144},{"name":"F4","midi":65,"time":34.807291666666686,"velocity":0.49606299212598426,"duration":0.25208333333333144},{"name":"A#3","midi":58,"time":35.07083333333335,"velocity":0.4566929133858268,"duration":0.20416666666666572},{"name":"F4","midi":65,"time":35.31041666666668,"velocity":0.4409448818897638,"duration":0.24583333333333002},{"name":"A#3","midi":58,"time":35.568750000000016,"velocity":0.5196850393700787,"duration":0.5572916666666643},{"name":"F4","midi":65,"time":35.81979166666668,"velocity":0.5511811023622047,"duration":0.2760416666666643},{"name":"G#3","midi":56,"time":36.109375000000014,"velocity":0.5118110236220472,"duration":0.2541666666666629},{"name":"D#4","midi":63,"time":36.370833333333344,"velocity":0.5433070866141733,"duration":0.25833333333333286},{"name":"G#3","midi":56,"time":36.62916666666668,"velocity":0.4645669291338583,"duration":0.19479166666666714},{"name":"D#4","midi":63,"time":36.84791666666668,"velocity":0.44881889763779526,"duration":0.24895833333333428},{"name":"G#3","midi":56,"time":37.105208333333344,"velocity":0.4645669291338583,"duration":0.18854166666666572},{"name":"D#4","midi":63,"time":37.31770833333334,"velocity":0.3700787401574803,"duration":0.2760416666666643},{"name":"G#3","midi":56,"time":37.60208333333334,"velocity":0.5039370078740157,"duration":0.4947916666666714},{"name":"D#4","midi":63,"time":37.85833333333334,"velocity":0.5669291338582677,"duration":0.25729166666666714},{"name":"D#3","midi":51,"time":38.20208333333334,"velocity":0.5748031496062992,"duration":0.2239583333333357},{"name":"A#3","midi":58,"time":38.37187500000001,"velocity":0.4566929133858268,"duration":0.25312499999999716},{"name":"D#3","midi":51,"time":38.70729166666668,"velocity":0.5118110236220472,"duration":0.21875},{"name":"A#3","midi":58,"time":38.94166666666668,"velocity":0.5590551181102362,"duration":0.24583333333333002},{"name":"D#3","midi":51,"time":39.19270833333334,"velocity":0.5511811023622047,"duration":0.21458333333333002},{"name":"A#3","midi":58,"time":39.429166666666674,"velocity":0.5354330708661418,"duration":0.25416666666667},{"name":"D#3","midi":51,"time":39.67708333333334,"velocity":0.6850393700787402,"duration":0.2239583333333357},{"name":"A#3","midi":58,"time":39.902083333333344,"velocity":0.5590551181102362,"duration":0.2927083333333371},{"name":"F#3","midi":54,"time":40.18020833333335,"velocity":0.5196850393700787,"duration":0.24583333333333712},{"name":"C#4","midi":61,"time":40.43645833333335,"velocity":0.49606299212598426,"duration":0.26874999999999716},{"name":"F#3","midi":54,"time":40.71041666666668,"velocity":0.5196850393700787,"duration":0.20000000000000284},{"name":"C#4","midi":61,"time":40.94270833333335,"velocity":0.5354330708661418,"duration":0.234375},{"name":"F#3","midi":54,"time":41.191666666666684,"velocity":0.5196850393700787,"duration":0.21770833333333428},{"name":"C#4","midi":61,"time":41.42083333333335,"velocity":0.49606299212598426,"duration":0.23645833333333144},{"name":"F#3","midi":54,"time":41.68020833333335,"velocity":0.5275590551181102,"duration":0.25},{"name":"C#4","midi":61,"time":41.92916666666668,"velocity":0.6141732283464567,"duration":0.2802083333333343},{"name":"A#3","midi":58,"time":42.19687500000001,"velocity":0.5984251968503937,"duration":0.2510416666666728},{"name":"F4","midi":65,"time":42.461458333333354,"velocity":0.4881889763779528,"duration":0.2604166666666643},{"name":"A#3","midi":58,"time":42.72395833333335,"velocity":0.5433070866141733,"duration":0.21562500000000284},{"name":"F4","midi":65,"time":42.97395833333335,"velocity":0.4645669291338583,"duration":0.26875000000000426},{"name":"A#3","midi":58,"time":43.238541666666684,"velocity":0.5275590551181102,"duration":0.19375000000000142},{"name":"F4","midi":65,"time":43.48229166666668,"velocity":0.4645669291338583,"duration":0.22812499999999858},{"name":"A#3","midi":58,"time":43.72395833333335,"velocity":0.6062992125984252,"duration":0.2447916666666643},{"name":"F4","midi":65,"time":43.975000000000016,"velocity":0.5590551181102362,"duration":0.26249999999999574},{"name":"G#3","midi":56,"time":44.21979166666668,"velocity":0.5669291338582677,"duration":0.2552083333333286},{"name":"D#4","midi":63,"time":44.482291666666676,"velocity":0.5511811023622047,"duration":0.30416666666666714},{"name":"G#3","midi":56,"time":44.78750000000001,"velocity":0.4251968503937008,"duration":0.17604166666666998},{"name":"D#4","midi":63,"time":45.00520833333334,"velocity":0.4094488188976378,"duration":0.22500000000000142},{"name":"G#3","midi":56,"time":45.261458333333344,"velocity":0.4251968503937008,"duration":0.16770833333333002},{"name":"D#4","midi":63,"time":45.47395833333334,"velocity":0.4094488188976378,"duration":0.2447916666666643},{"name":"G#3","midi":56,"time":45.75625000000001,"velocity":0.4645669291338583,"duration":0.1875},{"name":"D#4","midi":63,"time":45.98541666666667,"velocity":0.47244094488188976,"duration":0.27916666666666856},{"name":"F#3","midi":54,"time":46.25520833333334,"velocity":0.4566929133858268,"duration":0.23749999999999716},{"name":"C#4","midi":61,"time":46.50833333333334,"velocity":0.3937007874015748,"duration":0.2562499999999943},{"name":"F#3","midi":54,"time":46.753125000000004,"velocity":0.3937007874015748,"duration":0.18645833333332718},{"name":"C#4","midi":61,"time":46.978125,"velocity":0.33070866141732286,"duration":0.265625},{"name":"F#3","midi":54,"time":47.25208333333333,"velocity":0.4409448818897638,"duration":0.16979166666666856},{"name":"C#4","midi":61,"time":47.483333333333334,"velocity":0.3779527559055118,"duration":0.24687500000000284},{"name":"F#3","midi":54,"time":47.76979166666667,"velocity":0.3543307086614173,"duration":0.20104166666666856},{"name":"C#4","midi":61,"time":48.01041666666667,"velocity":0.30708661417322836,"duration":0.05104166666666998},{"name":"A#3","midi":58,"time":48.26979166666668,"velocity":0.6141732283464567,"duration":0.19895833333333002},{"name":"F4","midi":65,"time":48.49479166666667,"velocity":0.47244094488188976,"duration":0.18333333333333002},{"name":"A#3","midi":58,"time":48.715625,"velocity":0.4094488188976378,"duration":0.11874999999999858},{"name":"F4","midi":65,"time":48.90208333333334,"velocity":0.3779527559055118,"duration":0.24166666666666714},{"name":"A#3","midi":58,"time":49.184375,"velocity":0.4881889763779528,"duration":0.20729166666666998},{"name":"F4","midi":65,"time":49.435416666666676,"velocity":0.4881889763779528,"duration":0.27291666666666714},{"name":"A#3","midi":58,"time":49.70729166666668,"velocity":0.5118110236220472,"duration":0.2083333333333357},{"name":"F4","midi":65,"time":49.953125000000014,"velocity":0.4330708661417323,"duration":0.27395833333333286},{"name":"G#3","midi":56,"time":50.20416666666668,"velocity":0.6377952755905512,"duration":0.2239583333333357},{"name":"F4","midi":65,"time":50.432291666666686,"velocity":0.47244094488188976,"duration":0.2666666666666657},{"name":"G#3","midi":56,"time":50.70104166666668,"velocity":0.4645669291338583,"duration":0.18958333333333144},{"name":"F4","midi":65,"time":50.917708333333344,"velocity":0.3937007874015748,"duration":0.25833333333333286},{"name":"G#3","midi":56,"time":51.17604166666668,"velocity":0.5275590551181102,"duration":0.24166666666666714},{"name":"F4","midi":65,"time":51.45208333333334,"velocity":0.4881889763779528,"duration":0.26979166666667},{"name":"G#3","midi":56,"time":51.70625000000001,"velocity":0.5275590551181102,"duration":0.19583333333333286},{"name":"F4","midi":65,"time":51.94270833333334,"velocity":0.48031496062992124,"duration":0.2708333333333357},{"name":"F#3","midi":54,"time":52.18125000000001,"velocity":0.6535433070866141,"duration":0.2593750000000057},{"name":"F4","midi":65,"time":52.43645833333335,"velocity":0.47244094488188976,"duration":0.2593750000000057},{"name":"F#3","midi":54,"time":52.68958333333335,"velocity":0.48031496062992124,"duration":0.20416666666666572},{"name":"F4","midi":65,"time":52.90520833333335,"velocity":0.44881889763779526,"duration":0.26354166666666856},{"name":"F#3","midi":54,"time":53.16145833333335,"velocity":0.5196850393700787,"duration":0.26354166666666856},{"name":"F4","midi":65,"time":53.432291666666686,"velocity":0.5590551181102362,"duration":0.27291666666666714},{"name":"F#3","midi":54,"time":53.69062500000002,"velocity":0.5511811023622047,"duration":0.24583333333333712},{"name":"F4","midi":65,"time":53.95520833333335,"velocity":0.47244094488188976,"duration":0.18854166666666572},{"name":"F3","midi":53,"time":54.18645833333335,"velocity":0.5511811023622047,"duration":0.25208333333333144},{"name":"D#4","midi":63,"time":54.44583333333335,"velocity":0.3937007874015748,"duration":0.22291666666666998},{"name":"F3","midi":53,"time":54.68125000000002,"velocity":0.4094488188976378,"duration":0.22083333333333144},{"name":"D#4","midi":63,"time":54.94062500000002,"velocity":0.4094488188976378,"duration":0.21458333333333002},{"name":"F3","midi":53,"time":55.178125000000016,"velocity":0.47244094488188976,"duration":0.27916666666666856},{"name":"D#4","midi":63,"time":55.437500000000014,"velocity":0.44881889763779526,"duration":0.2750000000000057},{"name":"F3","midi":53,"time":55.71250000000002,"velocity":0.5196850393700787,"duration":0.20208333333333428},{"name":"D#4","midi":63,"time":55.95937500000002,"velocity":0.5748031496062992,"duration":0.24374999999999858},{"name":"A#3","midi":58,"time":56.21875000000002,"velocity":0.6220472440944882,"duration":0.20937500000000142},{"name":"F4","midi":65,"time":56.450000000000024,"velocity":0.49606299212598426,"duration":0.23541666666666572},{"name":"A#3","midi":58,"time":56.68541666666669,"velocity":0.48031496062992124,"duration":0.18333333333333002},{"name":"F4","midi":65,"time":56.90000000000002,"velocity":0.4251968503937008,"duration":0.2593749999999986},{"name":"A#3","midi":58,"time":57.16875000000002,"velocity":0.4566929133858268,"duration":0.24583333333333002},{"name":"F4","midi":65,"time":57.44270833333335,"velocity":0.5433070866141733,"duration":0.22812499999999858},{"name":"A#3","midi":58,"time":57.68229166666668,"velocity":0.6062992125984252,"duration":0.1770833333333357},{"name":"F4","midi":65,"time":57.89375000000001,"velocity":0.49606299212598426,"duration":0.23854166666666998},{"name":"C4","midi":60,"time":58.15416666666668,"velocity":0.6299212598425197,"duration":0.21041666666666714},{"name":"F4","midi":65,"time":58.375000000000014,"velocity":0.4330708661417323,"duration":0.2395833333333357},{"name":"C4","midi":60,"time":58.63229166666668,"velocity":0.5275590551181102,"duration":0.16458333333333286},{"name":"F4","midi":65,"time":58.83750000000001,"velocity":0.4330708661417323,"duration":0.24583333333333002},{"name":"C4","midi":60,"time":59.09062500000001,"velocity":0.5748031496062992,"duration":0.25208333333333144},{"name":"F4","midi":65,"time":59.36562500000001,"velocity":0.6220472440944882,"duration":0.2562500000000014},{"name":"C4","midi":60,"time":59.61354166666668,"velocity":0.6456692913385826,"duration":0.15937499999999716},{"name":"F4","midi":65,"time":59.81770833333334,"velocity":0.5433070866141733,"duration":0.2906250000000057},{"name":"C#4","midi":61,"time":60.080208333333346,"velocity":0.7401574803149606,"duration":0.23645833333333854},{"name":"F4","midi":65,"time":60.301041666666684,"velocity":0.5275590551181102,"duration":0.29375000000000284},{"name":"C#4","midi":61,"time":60.582291666666684,"velocity":0.6062992125984252,"duration":0.19687500000000568},{"name":"F4","midi":65,"time":60.79895833333336,"velocity":0.3937007874015748,"duration":0.2718750000000014},{"name":"C#4","midi":61,"time":61.09062500000003,"velocity":0.6771653543307087,"duration":0.21875},{"name":"F4","midi":65,"time":61.3385416666667,"velocity":0.5669291338582677,"duration":0.24583333333333712},{"name":"C#4","midi":61,"time":61.578125000000036,"velocity":0.7007874015748031,"duration":0.21562500000000284},{"name":"F4","midi":65,"time":61.81145833333337,"velocity":0.5354330708661418,"duration":0.25312499999999716},{"name":"D#4","midi":63,"time":62.062500000000036,"velocity":0.7086614173228346,"duration":0.22187499999999716},{"name":"F4","midi":65,"time":62.277083333333366,"velocity":0.3779527559055118,"duration":0.27291666666666714},{"name":"D#4","midi":63,"time":62.5666666666667,"velocity":0.5748031496062992,"duration":0.19479166666666714},{"name":"F4","midi":65,"time":62.821875000000034,"velocity":0.3779527559055118,"duration":0.27812500000000284},{"name":"D#4","midi":63,"time":63.0947916666667,"velocity":0.5433070866141733,"duration":0.19166666666666998},{"name":"F4","midi":65,"time":63.3447916666667,"velocity":0.36220472440944884,"duration":0.296875},{"name":"D#4","midi":63,"time":63.6291666666667,"velocity":0.5669291338582677,"duration":0.2906250000000057},{"name":"F4","midi":65,"time":63.9447916666667,"velocity":0.3858267716535433,"duration":0.3604166666666657},{"name":"A#3","midi":58,"time":64.31250000000003,"velocity":0.5748031496062992,"duration":0.18437500000000284},{"name":"F4","midi":65,"time":64.5166666666667,"velocity":0.4330708661417323,"duration":0.23854166666666288},{"name":"A#3","midi":58,"time":64.76041666666669,"velocity":0.4330708661417323,"duration":0.23020833333333712},{"name":"F4","midi":65,"time":65.03020833333336,"velocity":0.47244094488188976,"duration":0.2395833333333286},{"name":"A#3","midi":58,"time":65.29895833333336,"velocity":0.4251968503937008,"duration":0.28125},{"name":"F4","midi":65,"time":65.60833333333336,"velocity":0.3937007874015748,"duration":0.21145833333333997},{"name":"A#3","midi":58,"time":65.85000000000004,"velocity":0.5275590551181102,"duration":0.2135416666666714},{"name":"F4","midi":65,"time":66.09583333333337,"velocity":0.4251968503937008,"duration":0.22291666666666288},{"name":"G#3","midi":56,"time":66.34062500000003,"velocity":0.5275590551181102,"duration":0.265625},{"name":"F4","midi":65,"time":66.61354166666669,"velocity":0.4645669291338583,"duration":0.24583333333333712},{"name":"G#3","midi":56,"time":66.86562500000002,"velocity":0.44881889763779526,"duration":0.25208333333333144},{"name":"F4","midi":65,"time":67.16041666666669,"velocity":0.4566929133858268,"duration":0.2395833333333286},{"name":"G#3","midi":56,"time":67.41979166666668,"velocity":0.49606299212598426,"duration":0.22708333333333997},{"name":"F4","midi":65,"time":67.68437500000002,"velocity":0.48031496062992124,"duration":0.24687500000000284},{"name":"G#3","midi":56,"time":67.93020833333335,"velocity":0.6771653543307087,"duration":0.21666666666666856},{"name":"F4","midi":65,"time":68.16875000000002,"velocity":0.5354330708661418,"duration":0.25312499999999716},{"name":"F#3","midi":54,"time":68.41979166666668,"velocity":0.5984251968503937,"duration":0.21770833333333428},{"name":"F4","midi":65,"time":68.64895833333335,"velocity":0.5275590551181102,"duration":0.23854166666666288},{"name":"F#3","midi":54,"time":68.88750000000002,"velocity":0.49606299212598426,"duration":0.2802083333333343},{"name":"F4","midi":65,"time":69.18750000000001,"velocity":0.49606299212598426,"duration":0.2666666666666657},{"name":"F#3","midi":54,"time":69.46041666666667,"velocity":0.4881889763779528,"duration":0.28854166666666003},{"name":"F4","midi":65,"time":69.76145833333334,"velocity":0.44881889763779526,"duration":0.22812500000000568},{"name":"F#3","midi":54,"time":70.00104166666668,"velocity":0.4645669291338583,"duration":0.22499999999999432},{"name":"F4","midi":65,"time":70.25000000000001,"velocity":0.4251968503937008,"duration":0.14687499999999432},{"name":"F3","midi":53,"time":70.47708333333334,"velocity":0.4881889763779528,"duration":0.3010416666666629},{"name":"D#4","midi":63,"time":70.7125,"velocity":0.5669291338582677,"duration":0.25729166666666003},{"name":"F3","midi":53,"time":70.96666666666667,"velocity":0.4881889763779528,"duration":0.30520833333332575},{"name":"D#4","midi":63,"time":71.27708333333332,"velocity":0.5354330708661418,"duration":0.28125},{"name":"F3","midi":53,"time":71.55624999999999,"velocity":0.5275590551181102,"duration":0.32708333333332007},{"name":"D#4","midi":63,"time":71.81354166666665,"velocity":0.5039370078740157,"duration":0.2874999999999943},{"name":"F3","midi":53,"time":72.08958333333331,"velocity":0.4566929133858268,"duration":0.2291666666666714},{"name":"D#4","midi":63,"time":72.36041666666665,"velocity":0.5511811023622047,"duration":0.2239583333333286},{"name":"A#3","midi":58,"time":72.62395833333332,"velocity":0.6377952755905512,"duration":0.20520833333333144},{"name":"F4","midi":65,"time":72.85729166666665,"velocity":0.4409448818897638,"duration":0.23749999999999716},{"name":"A#3","midi":58,"time":73.08854166666666,"velocity":0.4645669291338583,"duration":0.21875},{"name":"F4","midi":65,"time":73.33125,"velocity":0.4094488188976378,"duration":0.30937500000000284},{"name":"A#3","midi":58,"time":73.65625,"velocity":0.5196850393700787,"duration":0.2541666666666629},{"name":"F4","midi":65,"time":73.9375,"velocity":0.47244094488188976,"duration":0.24062499999999432},{"name":"A#3","midi":58,"time":74.17708333333333,"velocity":0.4330708661417323,"duration":0.4781249999999915},{"name":"F4","midi":65,"time":74.44999999999999,"velocity":0.2755905511811024,"duration":0.20104166666666856},{"name":"G#3","midi":56,"time":74.66354166666666,"velocity":0.5039370078740157,"duration":0.24062499999999432},{"name":"F4","midi":65,"time":74.92291666666665,"velocity":0.4094488188976378,"duration":0.2666666666666657},{"name":"G#3","midi":56,"time":75.18749999999999,"velocity":0.48031496062992124,"duration":0.26354166666666856},{"name":"F4","midi":65,"time":75.47916666666666,"velocity":0.4094488188976378,"duration":0.2697916666666629},{"name":"G#3","midi":56,"time":75.75729166666666,"velocity":0.4409448818897638,"duration":0.24062499999999432},{"name":"F4","midi":65,"time":76.01979166666665,"velocity":0.44881889763779526,"duration":0.25729166666666003},{"name":"G#3","midi":56,"time":76.26145833333331,"velocity":0.6141732283464567,"duration":0.20208333333333428},{"name":"F4","midi":65,"time":76.48749999999998,"velocity":0.5669291338582677,"duration":0.26770833333333144},{"name":"F#3","midi":54,"time":76.73541666666665,"velocity":0.6377952755905512,"duration":0.2749999999999915},{"name":"F4","midi":65,"time":76.99583333333331,"velocity":0.5275590551181102,"duration":0.26770833333333144},{"name":"F#3","midi":54,"time":77.24999999999997,"velocity":0.5039370078740157,"duration":0.2802083333333343},{"name":"F4","midi":65,"time":77.55416666666665,"velocity":0.4330708661417323,"duration":0.2604166666666714},{"name":"F#3","midi":54,"time":77.82291666666666,"velocity":0.4881889763779528,"duration":0.23333333333333428},{"name":"F4","midi":65,"time":78.08020833333333,"velocity":0.47244094488188976,"duration":0.2510416666666657},{"name":"F#3","midi":54,"time":78.34375,"velocity":0.5039370078740157,"duration":0.2395833333333286},{"name":"F4","midi":65,"time":78.6125,"velocity":0.4251968503937008,"duration":0.140625},{"name":"F3","midi":53,"time":78.85625,"velocity":0.5039370078740157,"duration":0.2604166666666714},{"name":"D#4","midi":63,"time":79.10416666666667,"velocity":0.5354330708661418,"duration":0.27395833333333997},{"name":"F3","midi":53,"time":79.40208333333335,"velocity":0.5354330708661418,"duration":0.2552083333333286},{"name":"D#4","midi":63,"time":79.66041666666668,"velocity":0.6062992125984252,"duration":0.29479166666666856},{"name":"F3","midi":53,"time":79.93645833333335,"velocity":0.4645669291338583,"duration":0.27812500000000284},{"name":"D#4","midi":63,"time":80.19895833333335,"velocity":0.5354330708661418,"duration":0.27812499999998863},{"name":"F3","midi":53,"time":80.47083333333335,"velocity":0.47244094488188976,"duration":0.4156249999999915},{"name":"D#4","midi":63,"time":80.72708333333334,"velocity":0.4015748031496063,"duration":0.2395833333333286},{"name":"F#3","midi":54,"time":80.971875,"velocity":0.5354330708661418,"duration":0.24687500000000284},{"name":"C#4","midi":61,"time":81.2375,"velocity":0.4094488188976378,"duration":0.28854166666667425},{"name":"F#3","midi":54,"time":81.5125,"velocity":0.4015748031496063,"duration":0.21458333333333712},{"name":"C#4","midi":61,"time":81.746875,"velocity":0.4094488188976378,"duration":0.2854166666666629},{"name":"F#3","midi":54,"time":82.02708333333334,"velocity":0.4409448818897638,"duration":0.2395833333333286},{"name":"C#4","midi":61,"time":82.28020833333333,"velocity":0.5354330708661418,"duration":0.25},{"name":"F#3","midi":54,"time":82.5375,"velocity":0.44881889763779526,"duration":0.3343749999999943},{"name":"C#4","midi":61,"time":82.75937499999999,"velocity":0.44881889763779526,"duration":0.25208333333333144},{"name":"A#3","midi":58,"time":83.01041666666666,"velocity":0.6062992125984252,"duration":0.24895833333333428},{"name":"F4","midi":65,"time":83.25416666666666,"velocity":0.48031496062992124,"duration":0.2666666666666657},{"name":"A#3","midi":58,"time":83.54374999999999,"velocity":0.4251968503937008,"duration":0.22291666666666288},{"name":"F4","midi":65,"time":83.78020833333332,"velocity":0.4251968503937008,"duration":0.2708333333333286},{"name":"A#3","midi":58,"time":84.03749999999998,"velocity":0.5511811023622047,"duration":0.2552083333333286},{"name":"F4","midi":65,"time":84.29791666666664,"velocity":0.48031496062992124,"duration":0.27395833333332575},{"name":"A#3","midi":58,"time":84.55416666666663,"velocity":0.5748031496062992,"duration":0.49791666666665435},{"name":"F4","midi":65,"time":84.80312499999997,"velocity":0.48031496062992124,"duration":0.22291666666666288},{"name":"G#3","midi":56,"time":85.03229166666662,"velocity":0.5511811023622047,"duration":0.2604166666666572},{"name":"D#4","midi":63,"time":85.28749999999995,"velocity":0.4330708661417323,"duration":0.23854166666666288},{"name":"G#3","midi":56,"time":85.54062499999995,"velocity":0.4015748031496063,"duration":0.2135416666666714},{"name":"D#4","midi":63,"time":85.78541666666662,"velocity":0.4251968503937008,"duration":0.2447916666666714},{"name":"G#3","midi":56,"time":86.0427083333333,"velocity":0.5354330708661418,"duration":0.2239583333333286},{"name":"D#4","midi":63,"time":86.29687499999996,"velocity":0.4881889763779528,"duration":0.21979166666666572},{"name":"G#3","midi":56,"time":86.53333333333329,"velocity":0.5196850393700787,"duration":0.47604166666666003},{"name":"D#4","midi":63,"time":86.74270833333328,"velocity":0.4094488188976378,"duration":0.2593750000000057},{"name":"D#3","midi":51,"time":87.06562499999995,"velocity":0.4566929133858268,"duration":0.20208333333333428},{"name":"A#3","midi":58,"time":87.28958333333328,"velocity":0.4251968503937008,"duration":0.2552083333333286},{"name":"D#3","midi":51,"time":87.53958333333328,"velocity":0.1968503937007874,"duration":0.2645833333333343},{"name":"A#3","midi":58,"time":87.81874999999995,"velocity":0.5511811023622047,"duration":0.24791666666666856},{"name":"D#3","midi":51,"time":88.06666666666662,"velocity":0.5669291338582677,"duration":0.23645833333333144},{"name":"A#3","midi":58,"time":88.31979166666662,"velocity":0.5669291338582677,"duration":0.19687500000000568},{"name":"D#3","midi":51,"time":88.55416666666662,"velocity":0.5905511811023622,"duration":0.21979166666666572},{"name":"A#3","midi":58,"time":88.79687499999994,"velocity":0.5354330708661418,"duration":0.109375},{"name":"A#3","midi":58,"time":88.98229166666661,"velocity":0.49606299212598426,"duration":0.19895833333333712},{"name":"G#4","midi":68,"time":89.23437499999994,"velocity":0.49606299212598426,"duration":0.18854166666666572},{"name":"A#3","midi":58,"time":89.48958333333327,"velocity":0.5590551181102362,"duration":0.20624999999999716},{"name":"G#4","midi":68,"time":89.74583333333327,"velocity":0.5826771653543307,"duration":0.07916666666666572},{"name":"A#3","midi":58,"time":89.98854166666659,"velocity":0.5354330708661418,"duration":0.22604166666666003},{"name":"F4","midi":65,"time":90.22187499999991,"velocity":0.5118110236220472,"duration":0.22291666666666288},{"name":"A#3","midi":58,"time":90.47291666666658,"velocity":0.49606299212598426,"duration":0.1927083333333286},{"name":"F4","midi":65,"time":90.71458333333324,"velocity":0.4645669291338583,"duration":0.16562500000000568},{"name":"G#3","midi":56,"time":90.94791666666657,"velocity":0.47244094488188976,"duration":0.25208333333333144},{"name":"D#4","midi":63,"time":91.2218749999999,"velocity":0.5275590551181102,"duration":0.21770833333333428},{"name":"G#3","midi":56,"time":91.4593749999999,"velocity":0.49606299212598426,"duration":0.22604166666666003},{"name":"D#4","midi":63,"time":91.75416666666655,"velocity":0.3858267716535433,"duration":0.21979166666666572},{"name":"G#3","midi":56,"time":91.97604166666655,"velocity":0.5433070866141733,"duration":0.21979166666666572},{"name":"D#4","midi":63,"time":92.24479166666654,"velocity":0.5590551181102362,"duration":0.18854166666666572},{"name":"G#3","midi":56,"time":92.48020833333321,"velocity":0.5984251968503937,"duration":0.203125},{"name":"D#4","midi":63,"time":92.71145833333321,"velocity":0.4881889763779528,"duration":0.06666666666666288},{"name":"F#3","midi":54,"time":92.9395833333332,"velocity":0.5118110236220472,"duration":0.22083333333333144},{"name":"C#4","midi":61,"time":93.1802083333332,"velocity":0.5039370078740157,"duration":0.2395833333333286},{"name":"F#3","midi":54,"time":93.41979166666653,"velocity":0.5748031496062992,"duration":0.20520833333333144},{"name":"C#4","midi":61,"time":93.69062499999986,"velocity":0.5275590551181102,"duration":0.24375000000000568},{"name":"F#3","midi":54,"time":93.93749999999986,"velocity":0.5511811023622047,"duration":0.16875000000000284},{"name":"C#4","midi":61,"time":94.16354166666653,"velocity":0.4566929133858268,"duration":0.1822916666666714},{"name":"F#3","midi":54,"time":94.3833333333332,"velocity":0.5433070866141733,"duration":0.19062499999999716},{"name":"C#4","midi":61,"time":94.6208333333332,"velocity":0.47244094488188976,"duration":0.06562499999999716},{"name":"F3","midi":53,"time":94.87395833333319,"velocity":0.49606299212598426,"duration":0.21875},{"name":"D#4","midi":63,"time":95.13854166666653,"velocity":0.6062992125984252,"duration":0.16041666666666288},{"name":"F3","midi":53,"time":95.36145833333319,"velocity":0.5039370078740157,"duration":0.234375},{"name":"D#4","midi":63,"time":95.60937499999986,"velocity":0.6062992125984252,"duration":0.16875000000000284},{"name":"F3","midi":53,"time":95.84687499999986,"velocity":0.5433070866141733,"duration":0.21770833333333428},{"name":"D#4","midi":63,"time":96.07812499999986,"velocity":0.5118110236220472,"duration":0.16458333333333997},{"name":"F3","midi":53,"time":96.28229166666654,"velocity":0.4645669291338583,"duration":0.2864583333333286},{"name":"D#4","midi":63,"time":96.4927083333332,"velocity":0.4566929133858268,"duration":0.21562500000000284},{"name":"F#3","midi":54,"time":96.7989583333332,"velocity":0.5354330708661418,"duration":0.24687500000000284},{"name":"C#4","midi":61,"time":97.08437499999987,"velocity":0.44881889763779526,"duration":0.20729166666666288},{"name":"F#3","midi":54,"time":97.3208333333332,"velocity":0.4881889763779528,"duration":0.18854166666666572},{"name":"C#4","midi":61,"time":97.54583333333319,"velocity":0.5039370078740157,"duration":0.21562500000000284},{"name":"F#3","midi":54,"time":97.7927083333332,"velocity":0.4566929133858268,"duration":0.21770833333333428},{"name":"C#4","midi":61,"time":98.04583333333319,"velocity":0.5354330708661418,"duration":0.22812500000000568},{"name":"F#3","midi":54,"time":98.2989583333332,"velocity":0.4881889763779528,"duration":0.21979166666666572},{"name":"C#4","midi":61,"time":98.53229166666654,"velocity":0.3937007874015748,"duration":0.22812500000000568},{"name":"A#3","midi":58,"time":98.76562499999987,"velocity":0.5669291338582677,"duration":0.21666666666666856},{"name":"F4","midi":65,"time":99.00624999999988,"velocity":0.4566929133858268,"duration":0.2510416666666657},{"name":"A#3","midi":58,"time":99.28333333333322,"velocity":0.49606299212598426,"duration":0.21041666666666003},{"name":"F4","midi":65,"time":99.51354166666654,"velocity":0.4645669291338583,"duration":0.23333333333333428},{"name":"A#3","midi":58,"time":99.74687499999987,"velocity":0.5196850393700787,"duration":0.24270833333333997},{"name":"F4","midi":65,"time":100.02187499999988,"velocity":0.5590551181102362,"duration":0.27291666666666003},{"name":"A#3","midi":58,"time":100.27187499999988,"velocity":0.6299212598425197,"duration":0.4541666666666657},{"name":"F4","midi":65,"time":100.50104166666654,"velocity":0.4645669291338583,"duration":0.2135416666666714},{"name":"G#3","midi":56,"time":100.73124999999987,"velocity":0.6062992125984252,"duration":0.25},{"name":"D#4","midi":63,"time":100.99062499999988,"velocity":0.5511811023622047,"duration":0.26354166666666856},{"name":"G#3","midi":56,"time":101.24583333333321,"velocity":0.5748031496062992,"duration":0.21875},{"name":"D#4","midi":63,"time":101.48541666666654,"velocity":0.5196850393700787,"duration":0.2562499999999943},{"name":"G#3","midi":56,"time":101.73749999999987,"velocity":0.5275590551181102,"duration":0.22812499999999147},{"name":"D#4","midi":63,"time":101.99791666666653,"velocity":0.47244094488188976,"duration":0.23125000000000284},{"name":"G#3","midi":56,"time":102.2583333333332,"velocity":0.48031496062992124,"duration":0.4593750000000085},{"name":"D#4","midi":63,"time":102.45624999999987,"velocity":0.3858267716535433,"duration":0.24791666666666856},{"name":"D#3","midi":51,"time":102.72708333333321,"velocity":0.49606299212598426,"duration":0.23020833333333712},{"name":"A#3","midi":58,"time":102.97291666666655,"velocity":0.48031496062992124,"duration":0.29375000000000284},{"name":"D#3","midi":51,"time":103.27395833333321,"velocity":0.5039370078740157,"duration":0.21770833333333428},{"name":"A#3","midi":58,"time":103.51874999999988,"velocity":0.5433070866141733,"duration":0.2291666666666572},{"name":"D#3","midi":51,"time":103.74062499999988,"velocity":0.5669291338582677,"duration":0.2604166666666572},{"name":"A#3","midi":58,"time":104.0177083333332,"velocity":0.5669291338582677,"duration":0.20416666666666572},{"name":"D#3","midi":51,"time":104.24062499999987,"velocity":0.49606299212598426,"duration":0.21562500000000284},{"name":"A#3","midi":58,"time":104.4739583333332,"velocity":0.5511811023622047,"duration":0.1666666666666714},{"name":"A#3","midi":58,"time":104.69374999999987,"velocity":0.49606299212598426,"duration":0.22291666666666288},{"name":"G#4","midi":68,"time":104.96562499999986,"velocity":0.6141732283464567,"duration":0.17083333333333428},{"name":"A#3","midi":58,"time":105.19687499999986,"velocity":0.5905511811023622,"duration":0.20520833333333144},{"name":"G#4","midi":68,"time":105.44791666666653,"velocity":0.6456692913385826,"duration":0.12812499999999716},{"name":"A#3","midi":58,"time":105.6802083333332,"velocity":0.5275590551181102,"duration":0.18437500000000284},{"name":"F4","midi":65,"time":105.91666666666653,"velocity":0.5275590551181102,"duration":0.2083333333333286},{"name":"A#3","midi":58,"time":106.16145833333319,"velocity":0.4645669291338583,"duration":0.34375},{"name":"F4","midi":65,"time":106.38541666666652,"velocity":0.4015748031496063,"duration":0.07708333333333428},{"name":"G#3","midi":56,"time":106.64999999999985,"velocity":0.4094488188976378,"duration":0.19479166666666003},{"name":"D#4","midi":63,"time":106.90312499999985,"velocity":0.48031496062992124,"duration":0.2135416666666714},{"name":"G#3","midi":56,"time":107.14270833333319,"velocity":0.5354330708661418,"duration":0.2239583333333286},{"name":"D#4","midi":63,"time":107.41979166666651,"velocity":0.4094488188976378,"duration":0.22083333333333144},{"name":"G#3","midi":56,"time":107.66874999999985,"velocity":0.48031496062992124,"duration":0.19062499999999716},{"name":"D#4","midi":63,"time":107.9135416666665,"velocity":0.4566929133858268,"duration":0.19895833333333712},{"name":"G#3","midi":56,"time":108.13958333333318,"velocity":0.4645669291338583,"duration":0.2802083333333343},{"name":"D#4","midi":63,"time":108.34687499999984,"velocity":0.4645669291338583,"duration":0.10208333333333997},{"name":"F#3","midi":54,"time":108.60312499999985,"velocity":0.49606299212598426,"duration":0.20624999999999716},{"name":"C#4","midi":61,"time":108.83749999999985,"velocity":0.5748031496062992,"duration":0.25312499999999716},{"name":"F#3","midi":54,"time":109.09270833333318,"velocity":0.5748031496062992,"duration":0.20104166666666856},{"name":"C#4","midi":61,"time":109.35729166666651,"velocity":0.5196850393700787,"duration":0.21458333333333712},{"name":"F#3","midi":54,"time":109.60833333333318,"velocity":0.5433070866141733,"duration":0.1770833333333286},{"name":"C#4","midi":61,"time":109.83958333333317,"velocity":0.5039370078740157,"duration":0.20937499999999432},{"name":"F#3","midi":54,"time":110.08749999999982,"velocity":0.48031496062992124,"duration":0.24062499999999432},{"name":"C#4","midi":61,"time":110.34583333333315,"velocity":0.44881889763779526,"duration":0.04999999999999716},{"name":"F3","midi":53,"time":110.6499999999998,"velocity":0.44881889763779526,"duration":1.3166666666666629},{"name":"D#4","midi":63,"time":110.6687499999998,"velocity":0.4566929133858268,"duration":0.4489583333333371},{"name":"A#3","midi":58,"time":119.66770833333314,"velocity":0.4251968503937008,"duration":0.23333333333333428},{"name":"F4","midi":65,"time":119.9343749999998,"velocity":0.25196850393700787,"duration":0.29895833333333144},{"name":"A#3","midi":58,"time":120.26041666666647,"velocity":0.4015748031496063,"duration":0.2291666666666714},{"name":"F4","midi":65,"time":120.51770833333315,"velocity":0.44881889763779526,"duration":0.2614583333333229},{"name":"A#3","midi":58,"time":120.77291666666648,"velocity":0.5275590551181102,"duration":0.2614583333333229},{"name":"F4","midi":65,"time":121.06145833333314,"velocity":0.3779527559055118,"duration":0.24687500000000284},{"name":"A#3","midi":58,"time":121.33541666666648,"velocity":0.49606299212598426,"duration":0.24375000000000568},{"name":"F4","midi":65,"time":121.57916666666648,"velocity":0.49606299212598426,"duration":0.27291666666666003},{"name":"C4","midi":60,"time":121.83541666666648,"velocity":0.5984251968503937,"duration":0.21666666666666856},{"name":"F4","midi":65,"time":122.06666666666648,"velocity":0.29133858267716534,"duration":0.2708333333333428},{"name":"C4","midi":60,"time":122.32708333333315,"velocity":0.4409448818897638,"duration":0.23333333333333428},{"name":"F4","midi":65,"time":122.59583333333315,"velocity":0.47244094488188976,"duration":0.24166666666667425},{"name":"C4","midi":60,"time":122.82708333333315,"velocity":0.5433070866141733,"duration":0.23645833333333144},{"name":"F4","midi":65,"time":123.08958333333315,"velocity":0.3228346456692913,"duration":0.28437499999999716},{"name":"C4","midi":60,"time":123.36666666666649,"velocity":0.4094488188976378,"duration":0.22291666666666288},{"name":"F4","midi":65,"time":123.63020833333316,"velocity":0.5118110236220472,"duration":0.2447916666666714},{"name":"C#4","midi":61,"time":123.84895833333316,"velocity":0.6692913385826772,"duration":0.21666666666666856},{"name":"F4","midi":65,"time":124.08020833333316,"velocity":0.3779527559055118,"duration":0.24791666666665435},{"name":"C#4","midi":61,"time":124.32083333333316,"velocity":0.5511811023622047,"duration":0.21041666666666003},{"name":"F4","midi":65,"time":124.55624999999982,"velocity":0.47244094488188976,"duration":0.25833333333333997},{"name":"C#4","midi":61,"time":124.80624999999982,"velocity":0.6377952755905512,"duration":0.2229166666666771},{"name":"F4","midi":65,"time":125.0479166666665,"velocity":0.36220472440944884,"duration":0.2708333333333286},{"name":"C#4","midi":61,"time":125.31770833333316,"velocity":0.5669291338582677,"duration":0.2135416666666714},{"name":"F4","midi":65,"time":125.56458333333316,"velocity":0.4566929133858268,"duration":0.27395833333333997},{"name":"D#4","midi":63,"time":125.7947916666665,"velocity":0.6771653543307087,"duration":0.22708333333332575},{"name":"F4","midi":65,"time":126.01770833333316,"velocity":0.44881889763779526,"duration":0.26354166666666856},{"name":"D#4","midi":63,"time":126.2979166666665,"velocity":0.5196850393700787,"duration":0.1875},{"name":"F4","midi":65,"time":126.54374999999983,"velocity":0.3779527559055118,"duration":0.23020833333333712},{"name":"D#4","midi":63,"time":126.7760416666665,"velocity":0.6220472440944882,"duration":0.18854166666666572},{"name":"F4","midi":65,"time":127.03124999999983,"velocity":0.30708661417322836,"duration":0.23020833333333712},{"name":"D#4","midi":63,"time":127.28437499999983,"velocity":0.4015748031496063,"duration":0.2083333333333286},{"name":"F4","midi":65,"time":127.52083333333316,"velocity":0.1968503937007874,"duration":0.28125},{"name":"A#3","midi":58,"time":127.81249999999983,"velocity":0.47244094488188976,"duration":0.2291666666666572},{"name":"F4","midi":65,"time":128.0656249999998,"velocity":0.30708661417322836,"duration":0.23541666666667993},{"name":"A#3","midi":58,"time":128.31145833333315,"velocity":0.3937007874015748,"duration":0.22291666666666288},{"name":"F4","midi":65,"time":128.56979166666648,"velocity":0.3937007874015748,"duration":0.24166666666667425},{"name":"A#3","midi":58,"time":128.81041666666647,"velocity":0.5590551181102362,"duration":0.20520833333335986},{"name":"F4","midi":65,"time":129.05208333333317,"velocity":0.29133858267716534,"duration":0.22291666666666288},{"name":"A#3","midi":58,"time":129.29895833333316,"velocity":0.4566929133858268,"duration":0.41458333333332575},{"name":"F4","midi":65,"time":129.56145833333315,"velocity":0.4566929133858268,"duration":0.19583333333332575},{"name":"C4","midi":60,"time":129.81041666666647,"velocity":0.6141732283464567,"duration":0.19374999999999432},{"name":"G#4","midi":68,"time":130.04270833333314,"velocity":0.49606299212598426,"duration":0.20937499999999432},{"name":"C4","midi":60,"time":130.28958333333313,"velocity":0.4645669291338583,"duration":0.2291666666666572},{"name":"G#4","midi":68,"time":130.54999999999978,"velocity":0.5590551181102362,"duration":0.21250000000000568},{"name":"C4","midi":60,"time":130.77083333333312,"velocity":0.5511811023622047,"duration":0.2583333333333542},{"name":"G#4","midi":68,"time":131.02395833333313,"velocity":0.5511811023622047,"duration":0.24270833333335418},{"name":"C4","midi":60,"time":131.28645833333314,"velocity":0.5433070866141733,"duration":0.22291666666666288},{"name":"G#4","midi":68,"time":131.53854166666648,"velocity":0.6692913385826772,"duration":0.265625},{"name":"C#4","midi":61,"time":131.79479166666647,"velocity":0.6614173228346457,"duration":0.25208333333333144},{"name":"A#4","midi":70,"time":132.0562499999998,"velocity":0.6614173228346457,"duration":0.23750000000001137},{"name":"C#4","midi":61,"time":132.29270833333314,"velocity":0.6692913385826772,"duration":0.21354166666668561},{"name":"A#4","midi":70,"time":132.5291666666665,"velocity":0.7165354330708661,"duration":0.2385416666666913},{"name":"C#4","midi":61,"time":132.7510416666665,"velocity":0.7559055118110236,"duration":0.22708333333335418},{"name":"A#4","midi":70,"time":132.9802083333332,"velocity":0.6220472440944882,"duration":0.26666666666667993},{"name":"C#4","midi":61,"time":133.25312499999987,"velocity":0.6692913385826772,"duration":0.27916666666666856},{"name":"A#4","midi":70,"time":133.51041666666654,"velocity":0.6456692913385826,"duration":0.2541666666666629},{"name":"D#4","midi":63,"time":133.76354166666653,"velocity":0.6220472440944882,"duration":0.23541666666667993},{"name":"A4","midi":69,"time":134.0052083333332,"velocity":0.5984251968503937,"duration":0.28437500000001137},{"name":"D#4","midi":63,"time":134.26874999999987,"velocity":0.5511811023622047,"duration":0.25312500000001137},{"name":"A4","midi":69,"time":134.52187499999988,"velocity":0.47244094488188976,"duration":0.28125},{"name":"D#4","midi":63,"time":134.7895833333332,"velocity":0.5669291338582677,"duration":0.20937499999999432},{"name":"A4","midi":69,"time":135.04479166666653,"velocity":0.5433070866141733,"duration":0.24791666666666856},{"name":"D#4","midi":63,"time":135.28749999999985,"velocity":0.5354330708661418,"duration":0.8177083333333428},{"name":"A4","midi":69,"time":135.63854166666653,"velocity":0.3700787401574803,"duration":0.34062499999998863},{"name":"C#4","midi":61,"time":136.14374999999987,"velocity":0.28346456692913385,"duration":0.21770833333332007},{"name":"F#4","midi":66,"time":136.44583333333318,"velocity":0.25196850393700787,"duration":0.1979166666666572},{"name":"C#4","midi":61,"time":136.66562499999984,"velocity":0.3464566929133858,"duration":0.17083333333332007},{"name":"F#4","midi":66,"time":136.88958333333315,"velocity":0.33858267716535434,"duration":0.18437499999998863},{"name":"C#4","midi":61,"time":137.09895833333314,"velocity":0.4094488188976378,"duration":0.22499999999999432},{"name":"F#4","midi":66,"time":137.36041666666648,"velocity":0.4409448818897638,"duration":0.21250000000000568},{"name":"C#4","midi":61,"time":137.60833333333315,"velocity":0.48031496062992124,"duration":0.2864583333333144},{"name":"F#4","midi":66,"time":137.83333333333314,"velocity":0.4881889763779528,"duration":0.2562499999999943},{"name":"F4","midi":65,"time":138.0968749999998,"velocity":0.4881889763779528,"duration":0.24270833333332575},{"name":"G#4","midi":68,"time":138.34791666666646,"velocity":0.47244094488188976,"duration":0.25312500000001137},{"name":"F4","midi":65,"time":138.61770833333316,"velocity":0.3779527559055118,"duration":0.21041666666667425},{"name":"G#4","midi":68,"time":138.84895833333317,"velocity":0.5039370078740157,"duration":0.22187500000001137},{"name":"F4","midi":65,"time":139.08854166666652,"velocity":0.3937007874015748,"duration":0.20104166666666856},{"name":"G#4","midi":68,"time":139.3145833333332,"velocity":0.4330708661417323,"duration":0.24583333333333712},{"name":"F4","midi":65,"time":139.60312499999986,"velocity":0.4094488188976378,"duration":0.25},{"name":"G#4","midi":68,"time":139.85416666666654,"velocity":0.4251968503937008,"duration":0.2447916666666572},{"name":"D#4","midi":63,"time":140.09999999999988,"velocity":0.5118110236220472,"duration":0.21145833333332575},{"name":"G#4","midi":68,"time":140.32291666666654,"velocity":0.4251968503937008,"duration":0.24583333333333712},{"name":"D#4","midi":63,"time":140.58541666666656,"velocity":0.49606299212598426,"duration":0.21145833333332575},{"name":"G#4","midi":68,"time":140.81874999999988,"velocity":0.4251968503937008,"duration":0.23750000000001137},{"name":"D#4","midi":63,"time":141.07604166666655,"velocity":0.49606299212598426,"duration":0.18437499999998863},{"name":"G#4","midi":68,"time":141.2864583333332,"velocity":0.4251968503937008,"duration":0.22499999999999432},{"name":"D#4","midi":63,"time":141.5427083333332,"velocity":0.49606299212598426,"duration":0.4572916666666629},{"name":"G#4","midi":68,"time":141.7927083333332,"velocity":0.4881889763779528,"duration":0.23645833333333144},{"name":"C#4","midi":61,"time":142.05416666666653,"velocity":0.4881889763779528,"duration":0.25312500000001137},{"name":"F4","midi":65,"time":142.32916666666654,"velocity":0.44881889763779526,"duration":0.24791666666666856},{"name":"C#4","midi":61,"time":142.5770833333332,"velocity":0.5039370078740157,"duration":0.21145833333332575},{"name":"F4","midi":65,"time":142.8145833333332,"velocity":0.3464566929133858,"duration":0.2666666666666515},{"name":"C#4","midi":61,"time":143.0791666666665,"velocity":0.5039370078740157,"duration":0.23750000000001137},{"name":"F4","midi":65,"time":143.35416666666652,"velocity":0.4094488188976378,"duration":0.26354166666666856},{"name":"C#4","midi":61,"time":143.63124999999985,"velocity":0.6299212598425197,"duration":0.17812499999999432},{"name":"F4","midi":65,"time":143.83645833333318,"velocity":0.4330708661417323,"duration":0.1822916666666572},{"name":"D#4","midi":63,"time":144.05312499999985,"velocity":0.5433070866141733,"duration":0.22187500000001137},{"name":"F#4","midi":66,"time":144.28437499999987,"velocity":0.48031496062992124,"duration":0.2750000000000057},{"name":"D#4","midi":63,"time":144.56874999999988,"velocity":0.5511811023622047,"duration":0.22187500000001137},{"name":"F#4","midi":66,"time":144.82604166666655,"velocity":0.5511811023622047,"duration":0.20625000000001137},{"name":"D#4","midi":63,"time":145.05729166666657,"velocity":0.5669291338582677,"duration":0.1875},{"name":"F#4","midi":66,"time":145.28020833333323,"velocity":0.4566929133858268,"duration":0.23333333333332007},{"name":"D#4","midi":63,"time":145.52916666666655,"velocity":0.49606299212598426,"duration":0.234375},{"name":"F#4","midi":66,"time":145.78229166666657,"velocity":0.5039370078740157,"duration":0.265625},{"name":"C#4","midi":61,"time":146.03333333333325,"velocity":0.5669291338582677,"duration":0.234375},{"name":"F4","midi":65,"time":146.2885416666666,"velocity":0.4881889763779528,"duration":0.28854166666667425},{"name":"C#4","midi":61,"time":146.5635416666666,"velocity":0.5433070866141733,"duration":0.21562499999998863},{"name":"F4","midi":65,"time":146.8135416666666,"velocity":0.3464566929133858,"duration":0.24166666666667425},{"name":"C#4","midi":61,"time":147.06249999999994,"velocity":0.5511811023622047,"duration":0.22083333333333144},{"name":"F4","midi":65,"time":147.33020833333327,"velocity":0.4251968503937008,"duration":0.25},{"name":"C#4","midi":61,"time":147.5791666666666,"velocity":0.5196850393700787,"duration":0.21666666666666856},{"name":"F4","midi":65,"time":147.81770833333326,"velocity":0.3937007874015748,"duration":0.2552083333333144},{"name":"C4","midi":60,"time":148.06458333333325,"velocity":0.5275590551181102,"duration":0.26874999999998295},{"name":"D#4","midi":63,"time":148.32083333333324,"velocity":0.49606299212598426,"duration":0.23645833333333144},{"name":"C4","midi":60,"time":148.5843749999999,"velocity":0.5826771653543307,"duration":0.22604166666667425},{"name":"D#4","midi":63,"time":148.83020833333325,"velocity":0.5826771653543307,"duration":0.21979166666667993},{"name":"C4","midi":60,"time":149.07499999999993,"velocity":0.6299212598425197,"duration":0.3479166666666629},{"name":"D#4","midi":63,"time":149.35833333333326,"velocity":0.4094488188976378,"duration":0.18958333333333144},{"name":"C4","midi":60,"time":149.57083333333327,"velocity":0.6456692913385826,"duration":0.21145833333332575},{"name":"D#4","midi":63,"time":149.81041666666658,"velocity":0.5984251968503937,"duration":0.20520833333333144},{"name":"C4","midi":60,"time":150.04062499999992,"velocity":0.6299212598425197,"duration":0.28333333333333144},{"name":"G#4","midi":68,"time":150.33958333333325,"velocity":0.5354330708661418,"duration":0.22187500000001137},{"name":"C4","midi":60,"time":150.59374999999994,"velocity":0.6614173228346457,"duration":0.19583333333332575},{"name":"G#4","midi":68,"time":150.82395833333328,"velocity":0.7086614173228346,"duration":0.2562499999999943},{"name":"C4","midi":60,"time":151.0729166666666,"velocity":0.6771653543307087,"duration":0.25312500000001137},{"name":"G#4","midi":68,"time":151.3322916666666,"velocity":0.6456692913385826,"duration":0.25},{"name":"C4","midi":60,"time":151.59062499999993,"velocity":0.4645669291338583,"duration":0.39166666666667993},{"name":"G#4","midi":68,"time":151.8729166666666,"velocity":0.2047244094488189,"duration":0.22187499999998295},{"name":"A#3","midi":58,"time":152.06874999999994,"velocity":0.6062992125984252,"duration":0.28437499999998295},{"name":"G#4","midi":68,"time":152.37187499999993,"velocity":0.1889763779527559,"duration":0.18541666666666856},{"name":"A#3","midi":58,"time":152.56562499999993,"velocity":0.4015748031496063,"duration":0.19687500000000568},{"name":"G#4","midi":68,"time":152.80312499999994,"velocity":0.2755905511811024,"duration":0.20937499999999432},{"name":"A#3","midi":58,"time":153.0479166666666,"velocity":0.49606299212598426,"duration":0.21666666666666856},{"name":"G#4","midi":68,"time":153.30208333333326,"velocity":0.33070866141732286,"duration":0.19062500000001137},{"name":"A#3","midi":58,"time":153.51145833333328,"velocity":0.44881889763779526,"duration":0.36041666666667993},{"name":"G#4","midi":68,"time":153.73749999999995,"velocity":0.4881889763779528,"duration":0.2656250000000284},{"name":"C4","midi":60,"time":153.98229166666664,"velocity":0.6141732283464567,"duration":0.265625},{"name":"G#4","midi":68,"time":154.24791666666664,"velocity":0.4251968503937008,"duration":0.23333333333332007},{"name":"C4","midi":60,"time":154.51874999999995,"velocity":0.4330708661417323,"duration":0.20729166666666288},{"name":"G#4","midi":68,"time":154.78124999999994,"velocity":0.28346456692913385,"duration":0.19166666666666288},{"name":"C4","midi":60,"time":154.99895833333326,"velocity":0.49606299212598426,"duration":0.2750000000000057},{"name":"G#4","midi":68,"time":155.27499999999995,"velocity":0.5669291338582677,"duration":0.21666666666666856},{"name":"C4","midi":60,"time":155.48645833333327,"velocity":0.5039370078740157,"duration":0.22708333333335418},{"name":"G#4","midi":68,"time":155.73437499999997,"velocity":0.6141732283464567,"duration":0.2291666666666572},{"name":"C#4","midi":61,"time":155.9552083333333,"velocity":0.6377952755905512,"duration":0.23124999999998863},{"name":"G#4","midi":68,"time":156.19895833333328,"velocity":0.5196850393700787,"duration":0.23124999999998863},{"name":"C#4","midi":61,"time":156.43437499999993,"velocity":0.5905511811023622,"duration":0.19687500000000568},{"name":"G#4","midi":68,"time":156.6447916666666,"velocity":0.4251968503937008,"duration":0.25104166666667993},{"name":"C#4","midi":61,"time":156.90208333333328,"velocity":0.6141732283464567,"duration":0.2239583333333428},{"name":"G#4","midi":68,"time":157.1395833333333,"velocity":0.5511811023622047,"duration":0.26770833333333144},{"name":"C#4","midi":61,"time":157.3989583333333,"velocity":0.6062992125984252,"duration":0.1979166666666572},{"name":"G#4","midi":68,"time":157.62187499999996,"velocity":0.6062992125984252,"duration":0.2562499999999943},{"name":"D#4","midi":63,"time":157.86874999999995,"velocity":0.6850393700787402,"duration":0.21562500000001705},{"name":"G#4","midi":68,"time":158.1083333333333,"velocity":0.6062992125984252,"duration":0.25729166666667425},{"name":"D#4","midi":63,"time":158.37187499999996,"velocity":0.5039370078740157,"duration":0.19895833333333712},{"name":"G#4","midi":68,"time":158.59999999999997,"velocity":0.49606299212598426,"duration":0.2562499999999943},{"name":"D#4","midi":63,"time":158.85624999999996,"velocity":0.5590551181102362,"duration":0.17916666666667425},{"name":"G#4","midi":68,"time":159.09687499999995,"velocity":0.2677165354330709,"duration":0.20520833333333144},{"name":"D#4","midi":63,"time":159.3364583333333,"velocity":0.49606299212598426,"duration":0.19479166666667425},{"name":"G#4","midi":68,"time":159.5895833333333,"velocity":0.41732283464566927,"duration":0.06458333333333144},{"name":"A#3","midi":58,"time":159.83229166666663,"velocity":0.6692913385826772,"duration":0.24270833333332575},{"name":"F4","midi":65,"time":160.07812499999997,"velocity":0.5590551181102362,"duration":0.2135416666666572},{"name":"A#3","midi":58,"time":160.32812499999997,"velocity":0.49606299212598426,"duration":0.15729166666667993},{"name":"F4","midi":65,"time":160.54791666666665,"velocity":0.33858267716535434,"duration":0.26770833333333144},{"name":"A#3","midi":58,"time":160.79999999999998,"velocity":0.5511811023622047,"duration":0.2395833333333428},{"name":"F4","midi":65,"time":161.06666666666666,"velocity":0.5118110236220472,"duration":0.19583333333332575},{"name":"A#3","midi":58,"time":161.28437499999998,"velocity":0.6614173228346457,"duration":0.3229166666666572},{"name":"F4","midi":65,"time":161.52499999999998,"velocity":0.44881889763779526,"duration":0.21041666666667425},{"name":"C4","midi":60,"time":161.76354166666664,"velocity":0.7165354330708661,"duration":0.25833333333332575},{"name":"F4","midi":65,"time":162.02916666666664,"velocity":0.4645669291338583,"duration":0.18437499999998863},{"name":"C4","midi":60,"time":162.2520833333333,"velocity":0.5826771653543307,"duration":0.17812499999999432},{"name":"F4","midi":65,"time":162.4583333333333,"velocity":0.4330708661417323,"duration":0.24895833333332007},{"name":"C4","midi":60,"time":162.71145833333327,"velocity":0.6220472440944882,"duration":0.26875000000001137},{"name":"F4","midi":65,"time":162.97083333333327,"velocity":0.6141732283464567,"duration":0.2541666666666629},{"name":"C4","midi":60,"time":163.19687499999995,"velocity":0.6141732283464567,"duration":0.20208333333332007},{"name":"F4","midi":65,"time":163.41562499999995,"velocity":0.5511811023622047,"duration":0.24687500000001705},{"name":"C#4","midi":61,"time":163.62812499999995,"velocity":0.7637795275590551,"duration":0.2083333333333428},{"name":"F4","midi":65,"time":163.8458333333333,"velocity":0.5748031496062992,"duration":0.265625},{"name":"C#4","midi":61,"time":164.0895833333333,"velocity":0.7244094488188977,"duration":0.23124999999998863},{"name":"F4","midi":65,"time":164.31874999999997,"velocity":0.5354330708661418,"duration":0.234375},{"name":"C#4","midi":61,"time":164.55937499999996,"velocity":0.7244094488188977,"duration":0.21458333333333712},{"name":"F4","midi":65,"time":164.7708333333333,"velocity":0.5905511811023622,"duration":0.29375000000001705},{"name":"C#4","midi":61,"time":165.04687499999997,"velocity":0.7244094488188977,"duration":0.21458333333333712},{"name":"F4","midi":65,"time":165.28437499999998,"velocity":0.5669291338582677,"duration":0.23333333333332007},{"name":"D#4","midi":63,"time":165.49999999999997,"velocity":0.7086614173228346,"duration":0.23645833333333144},{"name":"F4","midi":65,"time":165.7520833333333,"velocity":0.5748031496062992,"duration":0.27291666666667425},{"name":"D#4","midi":63,"time":166.04062499999998,"velocity":0.5669291338582677,"duration":0.20104166666666856},{"name":"F4","midi":65,"time":166.29999999999998,"velocity":0.44881889763779526,"duration":0.1875},{"name":"D#4","midi":63,"time":166.51979166666666,"velocity":0.5669291338582677,"duration":0.19166666666666288},{"name":"F4","midi":65,"time":166.77708333333334,"velocity":0.4251968503937008,"duration":0.18645833333332007},{"name":"D#4","midi":63,"time":166.99374999999998,"velocity":0.5905511811023622,"duration":0.28020833333332007},{"name":"F4","midi":65,"time":167.3364583333333,"velocity":0.3228346456692913,"duration":0.006249999999994316},{"name":"F#3","midi":54,"time":167.7864583333333,"velocity":0.48031496062992124,"duration":0.4000000000000057},{"name":"C#4","midi":61,"time":168.2395833333333,"velocity":0.3700787401574803,"duration":0.2447916666666572},{"name":"F#3","midi":54,"time":168.51249999999993,"velocity":0.4094488188976378,"duration":0.1770833333333428},{"name":"C#4","midi":61,"time":168.73124999999993,"velocity":0.3700787401574803,"duration":0.20416666666667993},{"name":"F#3","midi":54,"time":168.97604166666662,"velocity":0.4094488188976378,"duration":0.22499999999999432},{"name":"C#4","midi":61,"time":169.22187499999995,"velocity":0.4645669291338583,"duration":0.19374999999999432},{"name":"F#3","midi":54,"time":169.4520833333333,"velocity":0.4094488188976378,"duration":0.17604166666666288},{"name":"C#4","midi":61,"time":169.6489583333333,"velocity":0.4330708661417323,"duration":0.20625000000001137},{"name":"A#3","midi":58,"time":169.871875,"velocity":0.5748031496062992,"duration":0.21875},{"name":"F4","midi":65,"time":170.10833333333332,"velocity":0.49606299212598426,"duration":0.27812499999998863},{"name":"A#3","midi":58,"time":170.38854166666664,"velocity":0.49606299212598426,"duration":0.21979166666667993},{"name":"F4","midi":65,"time":170.62812499999998,"velocity":0.4645669291338583,"duration":0.2593750000000057},{"name":"A#3","midi":58,"time":170.88020833333331,"velocity":0.5984251968503937,"duration":0.24791666666666856},{"name":"F4","midi":65,"time":171.14479166666666,"velocity":0.5826771653543307,"duration":0.26666666666667993},{"name":"A#3","midi":58,"time":171.39479166666666,"velocity":0.6220472440944882,"duration":0.47708333333332575},{"name":"F4","midi":65,"time":171.625,"velocity":0.3937007874015748,"duration":0.16249999999999432},{"name":"G#3","midi":56,"time":171.84791666666666,"velocity":0.5984251968503937,"duration":0.22499999999999432},{"name":"D#4","midi":63,"time":172.09895833333331,"velocity":0.47244094488188976,"duration":0.24687499999998863},{"name":"G#3","midi":56,"time":172.3520833333333,"velocity":0.47244094488188976,"duration":0.23645833333333144},{"name":"D#4","midi":63,"time":172.60312499999995,"velocity":0.48031496062992124,"duration":0.24687499999998863},{"name":"G#3","midi":56,"time":172.8322916666666,"velocity":0.5196850393700787,"duration":0.22708333333332575},{"name":"D#4","midi":63,"time":173.0854166666666,"velocity":0.5118110236220472,"duration":0.2489583333333485},{"name":"G#3","midi":56,"time":173.3291666666666,"velocity":0.5118110236220472,"duration":0.19375000000002274},{"name":"D#4","midi":63,"time":173.54166666666663,"velocity":0.47244094488188976,"duration":0.2552083333333428},{"name":"D#3","midi":51,"time":173.80416666666665,"velocity":0.4566929133858268,"duration":0.24375000000000568},{"name":"A#3","midi":58,"time":174.07187499999998,"velocity":0.47244094488188976,"duration":0.23020833333333712},{"name":"D#3","midi":51,"time":174.29583333333332,"velocity":0.4094488188976378,"duration":0.2562499999999943},{"name":"A#3","midi":58,"time":174.56979166666665,"velocity":0.5433070866141733,"duration":0.21770833333332007},{"name":"D#3","midi":51,"time":174.79374999999996,"velocity":0.4645669291338583,"duration":0.25312500000001137},{"name":"A#3","midi":58,"time":175.05208333333331,"velocity":0.6377952755905512,"duration":0.1927083333333428},{"name":"D#3","midi":51,"time":175.25729166666665,"velocity":0.5354330708661418,"duration":0.2552083333333428},{"name":"A#3","midi":58,"time":175.51354166666667,"velocity":0.6062992125984252,"duration":0.20729166666666288},{"name":"A#3","midi":58,"time":175.753125,"velocity":0.5196850393700787,"duration":0.23229166666666856},{"name":"F4","midi":65,"time":176.00520833333334,"velocity":0.47244094488188976,"duration":0.24895833333332007},{"name":"A#3","midi":58,"time":176.25416666666666,"velocity":0.5984251968503937,"duration":0.21250000000000568},{"name":"F4","midi":65,"time":176.48333333333335,"velocity":0.4881889763779528,"duration":0.24687500000001705},{"name":"A#3","midi":58,"time":176.72708333333335,"velocity":0.5354330708661418,"duration":0.21562500000001705},{"name":"F4","midi":65,"time":176.97187500000004,"velocity":0.5590551181102362,"duration":0.23645833333333144},{"name":"A#3","midi":58,"time":177.20625000000004,"velocity":0.5905511811023622,"duration":0.19687500000000568},{"name":"F4","midi":65,"time":177.44895833333337,"velocity":0.4330708661417323,"duration":0.16770833333333712},{"name":"G#3","midi":56,"time":177.6697916666667,"velocity":0.5196850393700787,"duration":0.24062499999999432},{"name":"D#4","midi":63,"time":177.91770833333337,"velocity":0.49606299212598426,"duration":0.25104166666667993},{"name":"G#3","midi":56,"time":178.17812500000005,"velocity":0.48031496062992124,"duration":0.21250000000000568},{"name":"D#4","midi":63,"time":178.42500000000007,"velocity":0.5039370078740157,"duration":0.23645833333333144},{"name":"G#3","midi":56,"time":178.67187500000006,"velocity":0.5669291338582677,"duration":0.19583333333332575},{"name":"D#4","midi":63,"time":178.90312500000005,"velocity":0.4330708661417323,"duration":0.23854166666666288},{"name":"G#3","midi":56,"time":179.15208333333337,"velocity":0.5275590551181102,"duration":0.4375},{"name":"D#4","midi":63,"time":179.37708333333336,"velocity":0.3543307086614173,"duration":0.1770833333333428},{"name":"F#3","midi":54,"time":179.60312500000003,"velocity":0.5118110236220472,"duration":0.20625000000001137},{"name":"C#4","midi":61,"time":179.85729166666673,"velocity":0.5511811023622047,"duration":0.2489583333333485},{"name":"F#3","midi":54,"time":180.10104166666673,"velocity":0.6220472440944882,"duration":0.20625000000001137},{"name":"C#4","midi":61,"time":180.35520833333342,"velocity":0.5826771653543307,"duration":0.24791666666666856},{"name":"F#3","midi":54,"time":180.5864583333334,"velocity":0.5984251968503937,"duration":0.23020833333333712},{"name":"C#4","midi":61,"time":180.86354166666675,"velocity":0.47244094488188976,"duration":0.17812499999999432},{"name":"F#3","midi":54,"time":181.0927083333334,"velocity":0.5354330708661418,"duration":0.17500000000001137},{"name":"C#4","midi":61,"time":181.3270833333334,"velocity":0.4645669291338583,"duration":0.16041666666666288},{"name":"F3","midi":53,"time":181.5427083333334,"velocity":0.5511811023622047,"duration":0.2697916666666629},{"name":"D#4","midi":63,"time":181.8072916666667,"velocity":0.6062992125984252,"duration":0.22187500000001137},{"name":"F3","midi":53,"time":182.0364583333334,"velocity":0.5275590551181102,"duration":0.23750000000001137},{"name":"D#4","midi":63,"time":182.29791666666674,"velocity":0.6299212598425197,"duration":0.18020833333332575},{"name":"F3","midi":53,"time":182.52500000000006,"velocity":0.5905511811023622,"duration":0.28333333333333144},{"name":"D#4","midi":63,"time":182.78750000000005,"velocity":0.6299212598425197,"duration":0.21562500000001705},{"name":"F3","midi":53,"time":183.01562500000006,"velocity":0.4566929133858268,"duration":0.25104166666667993},{"name":"D#4","midi":63,"time":183.28333333333342,"velocity":0.5275590551181102,"duration":0.27916666666666856},{"name":"F#3","midi":54,"time":183.58020833333342,"velocity":0.5590551181102362,"duration":0.3760416666666515},{"name":"C#4","midi":61,"time":183.92812500000008,"velocity":0.4881889763779528,"duration":0.234375},{"name":"F#3","midi":54,"time":184.21979166666674,"velocity":0.3937007874015748,"duration":0.19479166666667425},{"name":"C#4","midi":61,"time":184.41354166666673,"velocity":0.4094488188976378,"duration":0.24375000000000568},{"name":"F#3","midi":54,"time":184.65312500000007,"velocity":0.3779527559055118,"duration":0.19166666666666288},{"name":"C#4","midi":61,"time":184.85937500000006,"velocity":0.44881889763779526,"duration":0.21979166666667993},{"name":"F#3","midi":54,"time":185.08437500000008,"velocity":0.3937007874015748,"duration":0.18020833333332575},{"name":"C#4","midi":61,"time":185.26979166666675,"velocity":0.4251968503937008,"duration":0.21041666666667425},{"name":"A#3","midi":58,"time":185.50104166666677,"velocity":0.5118110236220472,"duration":0.2760416666666572},{"name":"F4","midi":65,"time":185.76145833333342,"velocity":0.4330708661417323,"duration":0.2447916666666572},{"name":"A#3","midi":58,"time":186.03541666666675,"velocity":0.3700787401574803,"duration":0.19687500000000568},{"name":"F4","midi":65,"time":186.24062500000008,"velocity":0.4094488188976378,"duration":0.296875},{"name":"A#3","midi":58,"time":186.54791666666674,"velocity":0.5984251968503937,"duration":0.2874999999999943},{"name":"F4","midi":65,"time":186.84791666666672,"velocity":0.47244094488188976,"duration":0.26250000000001705},{"name":"A#3","midi":58,"time":187.10729166666673,"velocity":0.5433070866141733,"duration":0.47083333333335986},{"name":"F4","midi":65,"time":187.33854166666674,"velocity":0.33858267716535434,"duration":0.21979166666667993},{"name":"G#3","midi":56,"time":187.5656250000001,"velocity":0.5590551181102362,"duration":0.2510416666666515},{"name":"D#4","midi":63,"time":187.8520833333334,"velocity":0.44881889763779526,"duration":0.26666666666667993},{"name":"G#3","midi":56,"time":188.1218750000001,"velocity":0.41732283464566927,"duration":0.2291666666666572},{"name":"D#4","midi":63,"time":188.32708333333343,"velocity":0.3779527559055118,"duration":0.22916666666668561},{"name":"G#3","midi":56,"time":188.53958333333344,"velocity":0.4251968503937008,"duration":0.23125000000001705},{"name":"D#4","midi":63,"time":188.80520833333347,"velocity":0.4645669291338583,"duration":0.18854166666667993},{"name":"G#3","midi":56,"time":189.02187500000014,"velocity":0.49606299212598426,"duration":0.5093750000000057},{"name":"D#4","midi":63,"time":189.23437500000014,"velocity":0.3464566929133858,"duration":0.24062499999999432},{"name":"F#3","midi":54,"time":189.52395833333347,"velocity":0.4645669291338583,"duration":0.22083333333333144},{"name":"C#4","midi":61,"time":189.73125000000013,"velocity":0.44881889763779526,"duration":0.23229166666666856},{"name":"F#3","midi":54,"time":189.96562500000013,"velocity":0.4251968503937008,"duration":0.2770833333333371},{"name":"C#4","midi":61,"time":190.25000000000014,"velocity":0.5511811023622047,"duration":0.24583333333333712},{"name":"F#3","midi":54,"time":190.49583333333348,"velocity":0.5354330708661418,"duration":0.22708333333332575},{"name":"C#4","midi":61,"time":190.73958333333348,"velocity":0.49606299212598426,"duration":0.2083333333333428},{"name":"F#3","midi":54,"time":190.9614583333335,"velocity":0.49606299212598426,"duration":0.21250000000000568},{"name":"C#4","midi":61,"time":191.16562500000018,"velocity":0.36220472440944884,"duration":0.18125000000000568},{"name":"A#3","midi":58,"time":191.40625000000017,"velocity":0.4881889763779528,"duration":0.25104166666667993},{"name":"G#4","midi":68,"time":191.6625000000002,"velocity":0.6220472440944882,"duration":0.18020833333332575},{"name":"A#3","midi":58,"time":191.9031250000002,"velocity":0.5354330708661418,"duration":0.21875},{"name":"G#4","midi":68,"time":192.16458333333352,"velocity":0.5826771653543307,"duration":0.10312500000000568},{"name":"A#3","midi":58,"time":192.38020833333354,"velocity":0.5669291338582677,"duration":0.234375},{"name":"F4","midi":65,"time":192.6250000000002,"velocity":0.4330708661417323,"duration":0.21562499999998863},{"name":"A#3","midi":58,"time":192.86770833333352,"velocity":0.4409448818897638,"duration":0.4177083333333371},{"name":"F4","midi":65,"time":193.08854166666686,"velocity":0.3779527559055118,"duration":0.08958333333333712},{"name":"G#3","midi":56,"time":193.35416666666686,"velocity":0.4330708661417323,"duration":0.2083333333333428},{"name":"D#4","midi":63,"time":193.5937500000002,"velocity":0.5354330708661418,"duration":0.2291666666666572},{"name":"G#3","midi":56,"time":193.82708333333352,"velocity":0.48031496062992124,"duration":0.21562499999998863},{"name":"D#4","midi":63,"time":194.07916666666685,"velocity":0.4015748031496063,"duration":0.24270833333332575},{"name":"G#3","midi":56,"time":194.3364583333335,"velocity":0.4094488188976378,"duration":0.23645833333333144},{"name":"D#4","midi":63,"time":194.60416666666683,"velocity":0.5118110236220472,"duration":0.24687499999998863},{"name":"G#3","midi":56,"time":194.8791666666668,"velocity":0.49606299212598426,"duration":0.3531250000000057},{"name":"D#4","midi":63,"time":195.0885416666668,"velocity":0.36220472440944884,"duration":0.09166666666666856},{"name":"F#3","midi":54,"time":195.3229166666668,"velocity":0.4881889763779528,"duration":0.24166666666667425},{"name":"C#4","midi":61,"time":195.57812500000014,"velocity":0.4881889763779528,"duration":0.24583333333333712},{"name":"F#3","midi":54,"time":195.8260416666668,"velocity":0.5748031496062992,"duration":0.2135416666666572},{"name":"C#4","midi":61,"time":196.07083333333347,"velocity":0.44881889763779526,"duration":0.22083333333333144},{"name":"F#3","midi":54,"time":196.31770833333346,"velocity":0.4409448818897638,"duration":0.18125000000000568},{"name":"C#4","midi":61,"time":196.54062500000012,"velocity":0.3779527559055118,"duration":0.20520833333333144},{"name":"F#3","midi":54,"time":196.77812500000013,"velocity":0.33070866141732286,"duration":0.20520833333333144},{"name":"C#4","midi":61,"time":197.00312500000013,"velocity":0.36220472440944884,"duration":0.05937499999998863},{"name":"F3","midi":53,"time":197.25833333333344,"velocity":0.5118110236220472,"duration":0.2447916666666572},{"name":"D#4","midi":63,"time":197.53020833333343,"velocity":0.5118110236220472,"duration":0.1770833333333428},{"name":"F3","midi":53,"time":197.7572916666668,"velocity":0.4566929133858268,"duration":0.25729166666667425},{"name":"D#4","midi":63,"time":198.00833333333347,"velocity":0.4409448818897638,"duration":0.23645833333333144},{"name":"F3","midi":53,"time":198.2760416666668,"velocity":0.5275590551181102,"duration":0.2291666666666572},{"name":"D#4","midi":63,"time":198.5072916666668,"velocity":0.5669291338582677,"duration":0.21250000000000568},{"name":"F3","midi":53,"time":198.75625000000014,"velocity":0.5275590551181102,"duration":0.2135416666666572},{"name":"D#4","midi":63,"time":199.0010416666668,"velocity":0.48031496062992124,"duration":0.23333333333332007},{"name":"A#3","midi":58,"time":199.2343750000001,"velocity":0.5984251968503937,"duration":0.21562499999998863},{"name":"F4","midi":65,"time":199.48645833333345,"velocity":0.4015748031496063,"duration":0.2135416666666572},{"name":"A#3","midi":58,"time":199.71666666666678,"velocity":0.33070866141732286,"duration":0.18645833333332007},{"name":"F4","midi":65,"time":199.97291666666678,"velocity":0.14173228346456693,"duration":0.18437499999998863},{"name":"A#3","midi":58,"time":200.1781250000001,"velocity":0.4409448818897638,"duration":0.22708333333332575},{"name":"F4","midi":65,"time":200.45833333333343,"velocity":0.29133858267716534,"duration":0.20625000000001137},{"name":"A#3","midi":58,"time":200.67916666666676,"velocity":0.31496062992125984,"duration":0.4427083333333428},{"name":"F4","midi":65,"time":200.94791666666677,"velocity":0.2204724409448819,"duration":0.21250000000000568},{"name":"G#3","midi":56,"time":201.1375000000001,"velocity":0.5039370078740157,"duration":0.23645833333333144},{"name":"F4","midi":65,"time":201.38958333333343,"velocity":0.2755905511811024,"duration":0.2614583333333371},{"name":"G#3","midi":56,"time":201.64791666666676,"velocity":0.31496062992125984,"duration":0.21250000000000568},{"name":"F4","midi":65,"time":201.9281250000001,"velocity":0.2125984251968504,"duration":0.2239583333333428},{"name":"G#3","midi":56,"time":202.11770833333344,"velocity":0.3937007874015748,"duration":0.22187500000001137},{"name":"F4","midi":65,"time":202.40937500000013,"velocity":0.2047244094488189,"duration":0.2239583333333428},{"name":"G#3","midi":56,"time":202.6197916666668,"velocity":0.4251968503937008,"duration":0.203125},{"name":"F4","midi":65,"time":202.85937500000014,"velocity":0.30708661417322836,"duration":0.25208333333333144},{"name":"F#3","midi":54,"time":203.0822916666668,"velocity":0.5275590551181102,"duration":0.24270833333332575},{"name":"F4","midi":65,"time":203.31875000000014,"velocity":0.3228346456692913,"duration":0.2854166666666629},{"name":"F#3","midi":54,"time":203.56458333333347,"velocity":0.30708661417322836,"duration":0.21875},{"name":"F4","midi":65,"time":203.78958333333347,"velocity":0.3228346456692913,"duration":0.2760416666666572},{"name":"F#3","midi":54,"time":204.06562500000013,"velocity":0.47244094488188976,"duration":0.28333333333333144},{"name":"F4","midi":65,"time":204.3604166666668,"velocity":0.3464566929133858,"duration":0.26458333333332007},{"name":"F#3","midi":54,"time":204.59166666666678,"velocity":0.44881889763779526,"duration":0.23124999999998863},{"name":"F4","midi":65,"time":204.8500000000001,"velocity":0.44881889763779526,"duration":0.20104166666666856},{"name":"F3","midi":53,"time":205.09791666666678,"velocity":0.5590551181102362,"duration":0.24687499999998863},{"name":"D#4","midi":63,"time":205.35729166666675,"velocity":0.44881889763779526,"duration":0.20937499999999432},{"name":"F3","midi":53,"time":205.57500000000007,"velocity":0.3543307086614173,"duration":0.2135416666666572},{"name":"D#4","midi":63,"time":205.79687500000006,"velocity":0.4094488188976378,"duration":0.21979166666667993},{"name":"F3","midi":53,"time":206.05416666666673,"velocity":0.4094488188976378,"duration":0.2604166666666572},{"name":"D#4","midi":63,"time":206.31875000000005,"velocity":0.2992125984251969,"duration":0.265625},{"name":"F3","midi":53,"time":206.66145833333337,"velocity":0.48031496062992124,"duration":0.23124999999998863},{"name":"D#4","midi":63,"time":206.92500000000004,"velocity":0.4330708661417323,"duration":0.22083333333333144},{"name":"A#3","midi":58,"time":207.16458333333338,"velocity":0.5275590551181102,"duration":0.23645833333333144},{"name":"F4","midi":65,"time":207.4291666666667,"velocity":0.3779527559055118,"duration":0.234375},{"name":"A#3","midi":58,"time":207.68645833333338,"velocity":0.4094488188976378,"duration":0.171875},{"name":"F4","midi":65,"time":207.92708333333337,"velocity":0.3228346456692913,"duration":0.24895833333332007},{"name":"A#3","midi":58,"time":208.1947916666667,"velocity":0.4251968503937008,"duration":0.20729166666666288},{"name":"F4","midi":65,"time":208.4697916666667,"velocity":0.3779527559055118,"duration":0.20625000000001137},{"name":"A#3","midi":58,"time":208.68125000000006,"velocity":0.4409448818897638,"duration":0.2552083333333428},{"name":"F4","midi":65,"time":208.9052083333334,"velocity":0.36220472440944884,"duration":0.24166666666667425},{"name":"G#3","midi":56,"time":209.1458333333334,"velocity":0.49606299212598426,"duration":0.22604166666667425},{"name":"F4","midi":65,"time":209.3864583333334,"velocity":0.33858267716535434,"duration":0.25833333333332575},{"name":"G#3","midi":56,"time":209.63854166666673,"velocity":0.3858267716535433,"duration":0.19374999999999432},{"name":"F4","midi":65,"time":209.86354166666672,"velocity":0.36220472440944884,"duration":0.2718749999999943},{"name":"G#3","midi":56,"time":210.13958333333338,"velocity":0.49606299212598426,"duration":0.2135416666666572},{"name":"F4","midi":65,"time":210.39895833333335,"velocity":0.4645669291338583,"duration":0.2593750000000057},{"name":"G#3","midi":56,"time":210.65937500000004,"velocity":0.5275590551181102,"duration":0.23750000000001137},{"name":"F4","midi":65,"time":210.92812500000005,"velocity":0.3937007874015748,"duration":0.26354166666666856},{"name":"F#3","midi":54,"time":211.19479166666673,"velocity":0.5511811023622047,"duration":0.21145833333332575},{"name":"F4","midi":65,"time":211.41875000000005,"velocity":0.2992125984251969,"duration":0.234375},{"name":"F#3","midi":54,"time":211.67083333333338,"velocity":0.36220472440944884,"duration":0.2291666666666572},{"name":"F4","midi":65,"time":211.96770833333338,"velocity":0.3779527559055118,"duration":0.28854166666667425},{"name":"F#3","midi":54,"time":212.35208333333338,"velocity":0.49606299212598426,"duration":0.2874999999999943},{"name":"F4","midi":65,"time":212.6479166666667,"velocity":0.4409448818897638,"duration":0.3541666666666572},{"name":"F#3","midi":54,"time":212.98437500000003,"velocity":0.4566929133858268,"duration":0.3375000000000057},{"name":"F4","midi":65,"time":213.3947916666667,"velocity":0.30708661417322836,"duration":0.3854166666666572},{"name":"F3","midi":53,"time":214.06250000000003,"velocity":0.33858267716535434,"duration":0.45624999999998295},{"name":"D#4","midi":63,"time":214.50833333333335,"velocity":0.3937007874015748,"duration":0.29062499999997726},{"name":"F3","midi":53,"time":214.83541666666667,"velocity":0.4409448818897638,"duration":0.27812500000001705},{"name":"D#4","midi":63,"time":215.10625000000002,"velocity":0.4094488188976378,"duration":0.22812500000000568},{"name":"F3","midi":53,"time":215.38125000000002,"velocity":0.4566929133858268,"duration":0.3125},{"name":"D#4","midi":63,"time":215.7072916666667,"velocity":0.49606299212598426,"duration":0.33645833333332575},{"name":"F3","midi":53,"time":216.08645833333335,"velocity":0.48031496062992124,"duration":0.6333333333333258},{"name":"D#4","midi":63,"time":216.68020833333335,"velocity":0.4330708661417323,"duration":0.7468749999999886},{"name":"A#3","midi":58,"time":219.41666666666669,"velocity":0.5039370078740157,"duration":1.9708333333333314}],"controlChanges":{},"id":2,"name":"Good take both","channelNumber":1,"isPercussion":false},{"startTime":2.021875,"duration":227.41354166666667,"length":102,"notes":[{"name":"F4","midi":65,"time":2.021875,"velocity":0.6692913385826772,"duration":4.370833333333334},{"name":"A#3","midi":58,"time":6.378125000000001,"velocity":0.6377952755905512,"duration":2.15625},{"name":"G#3","midi":56,"time":8.509375,"velocity":0.6062992125984252,"duration":2.1052083333333336},{"name":"F#3","midi":54,"time":10.622916666666667,"velocity":0.6850393700787402,"duration":2.185416666666665},{"name":"F3","midi":53,"time":12.797916666666666,"velocity":0.6062992125984252,"duration":2.1729166666666657},{"name":"A#3","midi":58,"time":14.958333333333332,"velocity":0.6377952755905512,"duration":2.1010416666666636},{"name":"G#3","midi":56,"time":17.034374999999997,"velocity":0.5748031496062992,"duration":2.1656249999999986},{"name":"F#3","midi":54,"time":19.18020833333333,"velocity":0.5748031496062992,"duration":2.104166666666668},{"name":"F3","midi":53,"time":21.276041666666664,"velocity":0.5669291338582677,"duration":1.6010416666666671},{"name":"A#3","midi":58,"time":23.506249999999998,"velocity":0.6141732283464567,"duration":2.1885416666666657},{"name":"G#3","midi":56,"time":25.679166666666664,"velocity":0.5826771653543307,"duration":2.133333333333333},{"name":"F#3","midi":54,"time":27.80520833333333,"velocity":0.5905511811023622,"duration":2.0354166666666664},{"name":"F3","midi":53,"time":29.892708333333328,"velocity":0.5669291338582677,"duration":1.8166666666666664},{"name":"F#3","midi":54,"time":32.034375,"velocity":0.5669291338582677,"duration":2.0489583333333314},{"name":"A#3","midi":58,"time":34.068749999999994,"velocity":0.6535433070866141,"duration":2.096874999999997},{"name":"G#3","midi":56,"time":36.148958333333326,"velocity":0.5748031496062992,"duration":1.9947916666666643},{"name":"D#3","midi":51,"time":38.14166666666666,"velocity":0.5748031496062992,"duration":2.0604166666666615},{"name":"F#3","midi":54,"time":40.18333333333332,"velocity":0.6220472440944882,"duration":2.0572916666666643},{"name":"A#3","midi":58,"time":42.24166666666665,"velocity":0.6141732283464567,"duration":2.0104166666666643},{"name":"G#3","midi":56,"time":44.22916666666665,"velocity":0.6062992125984252,"duration":1.9791666666666643},{"name":"F#3","midi":54,"time":46.270833333333314,"velocity":0.6062992125984252,"duration":1.9791666666666643},{"name":"A#3","midi":58,"time":48.288541666666646,"velocity":0.5984251968503937,"duration":1.8968750000000014},{"name":"G#3","midi":56,"time":50.183333333333316,"velocity":0.5669291338582677,"duration":2.008333333333333},{"name":"F#3","midi":54,"time":52.19791666666665,"velocity":0.5826771653543307,"duration":1.9927083333333329},{"name":"F3","midi":53,"time":54.181249999999984,"velocity":0.5984251968503937,"duration":1.9916666666666671},{"name":"A#3","midi":58,"time":56.19166666666665,"velocity":0.5984251968503937,"duration":1.9770833333333329},{"name":"C4","midi":60,"time":58.16666666666665,"velocity":0.6141732283464567,"duration":1.9614583333333329},{"name":"C#4","midi":61,"time":60.12395833333331,"velocity":0.6535433070866141,"duration":1.9656250000000028},{"name":"D#4","midi":63,"time":62.062499999999986,"velocity":0.6850393700787402,"duration":2.292708333333323},{"name":"A#3","midi":58,"time":64.35208333333331,"velocity":0.49606299212598426,"duration":1.980208333333323},{"name":"G#3","midi":56,"time":66.32812499999997,"velocity":0.5433070866141733,"duration":2.1031250000000057},{"name":"F#3","midi":54,"time":68.41874999999997,"velocity":0.5669291338582677,"duration":2.02395833333334},{"name":"F3","midi":53,"time":70.44999999999997,"velocity":0.5826771653543307,"duration":2.1270833333333314},{"name":"A#3","midi":58,"time":72.5927083333333,"velocity":0.5905511811023622,"duration":2.0999999999999943},{"name":"G#3","midi":56,"time":74.7020833333333,"velocity":0.5590551181102362,"duration":2.0218749999999943},{"name":"F#3","midi":54,"time":76.7333333333333,"velocity":0.5669291338582677,"duration":2.0604166666666686},{"name":"F3","midi":53,"time":78.80104166666663,"velocity":0.5433070866141733,"duration":2.1812500000000057},{"name":"F#3","midi":54,"time":80.97291666666663,"velocity":0.5669291338582677,"duration":2.0656250000000114},{"name":"A#3","midi":58,"time":83.02499999999998,"velocity":0.6299212598425197,"duration":2.059375000000003},{"name":"G#3","midi":56,"time":85.06041666666664,"velocity":0.5433070866141733,"duration":1.9635416666666714},{"name":"D#3","midi":51,"time":87.07395833333331,"velocity":0.5511811023622047,"duration":1.9864583333333314},{"name":"A#3","midi":58,"time":88.98437499999997,"velocity":0.5669291338582677,"duration":1.9979166666666686},{"name":"G#3","midi":56,"time":90.96145833333331,"velocity":0.5826771653543307,"duration":1.9666666666666686},{"name":"F#3","midi":54,"time":92.93541666666664,"velocity":0.5984251968503937,"duration":1.9708333333333314},{"name":"F3","midi":53,"time":94.90624999999997,"velocity":0.5826771653543307,"duration":1.9354166666666686},{"name":"F#3","midi":54,"time":96.81041666666664,"velocity":0.6141732283464567,"duration":2},{"name":"A#3","midi":58,"time":98.7864583333333,"velocity":0.5590551181102362,"duration":1.9822916666666828},{"name":"G#3","midi":56,"time":100.75937499999998,"velocity":0.5669291338582677,"duration":1.9937500000000057},{"name":"D#3","midi":51,"time":102.72499999999998,"velocity":0.5669291338582677,"duration":1.9843750000000142},{"name":"A#3","midi":58,"time":104.69895833333332,"velocity":0.5748031496062992,"duration":1.9416666666666629},{"name":"G#3","midi":56,"time":106.62187499999999,"velocity":0.6299212598425197,"duration":2.0291666666666686},{"name":"F#3","midi":54,"time":108.659375,"velocity":0.6220472440944882,"duration":1.9916666666666742},{"name":"F3","midi":53,"time":110.63645833333334,"velocity":0.5669291338582677,"duration":2.5364583333333286},{"name":"A#2","midi":46,"time":113.178125,"velocity":0.5669291338582677,"duration":6.215625000000003},{"name":"A#3","midi":58,"time":119.6875,"velocity":0.3858267716535433,"duration":2.1343750000000057},{"name":"C4","midi":60,"time":121.83020833333335,"velocity":0.6614173228346457,"duration":1.9645833333333371},{"name":"C#4","midi":61,"time":123.84375000000001,"velocity":0.6141732283464567,"duration":1.9604166666666742},{"name":"D#4","midi":63,"time":125.79583333333335,"velocity":0.6299212598425197,"duration":1.9916666666666742},{"name":"A#3","midi":58,"time":127.77916666666668,"velocity":0.5669291338582677,"duration":2.0166666666666657},{"name":"C4","midi":60,"time":129.80625,"velocity":0.6692913385826772,"duration":1.9739583333333428},{"name":"C#4","midi":61,"time":131.775,"velocity":0.6141732283464567,"duration":1.9739583333333428},{"name":"D#4","midi":63,"time":133.74895833333335,"velocity":0.6456692913385826,"duration":2.2468749999999886},{"name":"C#4","midi":61,"time":136.125,"velocity":0.6062992125984252,"duration":1.9937500000000057},{"name":"F4","midi":65,"time":138.12604166666668,"velocity":0.5984251968503937,"duration":1.9812499999999886},{"name":"D#4","midi":63,"time":140.0875,"velocity":0.6141732283464567,"duration":2.0406250000000057},{"name":"C#4","midi":61,"time":142.08333333333334,"velocity":0.6299212598425197,"duration":1.9864583333333314},{"name":"D#4","midi":63,"time":144.07916666666668,"velocity":0.6062992125984252,"duration":1.9968749999999886},{"name":"C#4","midi":61,"time":146.06979166666667,"velocity":0.5984251968503937,"duration":2.0593749999999886},{"name":"C4","midi":60,"time":148.08541666666667,"velocity":0.6220472440944882,"duration":3.5010416666666515},{"name":"A#3","midi":58,"time":152.10729166666667,"velocity":0.6692913385826772,"duration":1.9499999999999886},{"name":"C4","midi":60,"time":154.04895833333333,"velocity":0.6850393700787402,"duration":1.9052083333333485},{"name":"C#4","midi":61,"time":155.95104166666667,"velocity":0.6692913385826772,"duration":1.9520833333333485},{"name":"D#4","midi":63,"time":157.884375,"velocity":0.6929133858267716,"duration":1.950000000000017},{"name":"A#3","midi":58,"time":159.8635416666667,"velocity":0.6692913385826772,"duration":1.8489583333333428},{"name":"C4","midi":60,"time":161.73645833333336,"velocity":0.6456692913385826,"duration":1.8802083333333428},{"name":"C#4","midi":61,"time":163.64687500000002,"velocity":0.7007874015748031,"duration":1.8979166666666742},{"name":"D#4","midi":63,"time":165.52500000000003,"velocity":0.7086614173228346,"duration":2.2208333333333314},{"name":"F#3","midi":54,"time":167.75208333333336,"velocity":0.44881889763779526,"duration":2.1645833333333258},{"name":"A#3","midi":58,"time":169.90625000000003,"velocity":0.5669291338582677,"duration":1.9791666666666572},{"name":"G#3","midi":56,"time":171.86562500000002,"velocity":0.5354330708661418,"duration":1.9583333333333428},{"name":"D#3","midi":51,"time":173.81250000000003,"velocity":0.5511811023622047,"duration":1.9281249999999943},{"name":"A#3","midi":58,"time":175.7541666666667,"velocity":0.5984251968503937,"duration":1.8718749999999886},{"name":"G#3","midi":56,"time":177.66666666666669,"velocity":0.5275590551181102,"duration":1.9968749999999886},{"name":"F#3","midi":54,"time":179.60416666666669,"velocity":0.6062992125984252,"duration":1.9385416666666515},{"name":"F3","midi":53,"time":181.56041666666667,"velocity":0.5905511811023622,"duration":1.8812499999999943},{"name":"F#3","midi":54,"time":183.59375,"velocity":0.5669291338582677,"duration":1.9812499999999886},{"name":"A#3","midi":58,"time":185.5,"velocity":0.6377952755905512,"duration":2.0864583333333258},{"name":"G#3","midi":56,"time":187.57708333333332,"velocity":0.6220472440944882,"duration":1.9041666666666686},{"name":"F#3","midi":54,"time":189.48749999999998,"velocity":0.5905511811023622,"duration":1.90625},{"name":"A#3","midi":58,"time":191.39374999999998,"velocity":0.6220472440944882,"duration":1.9197916666666686},{"name":"G#3","midi":56,"time":193.29687499999997,"velocity":0.5826771653543307,"duration":1.9989583333333485},{"name":"F#3","midi":54,"time":195.29062499999998,"velocity":0.6062992125984252,"duration":1.9416666666666629},{"name":"F3","midi":53,"time":197.2427083333333,"velocity":0.5669291338582677,"duration":2.008333333333354},{"name":"A#3","midi":58,"time":199.24374999999998,"velocity":0.5826771653543307,"duration":1.90729166666668},{"name":"G#3","midi":56,"time":201.14791666666665,"velocity":0.5826771653543307,"duration":1.9010416666666856},{"name":"F#3","midi":54,"time":203.05625,"velocity":0.5905511811023622,"duration":2.0062499999999943},{"name":"F3","midi":53,"time":205.05416666666667,"velocity":0.5669291338582677,"duration":2.135416666666657},{"name":"A#3","midi":58,"time":207.17395833333333,"velocity":0.5354330708661418,"duration":1.965625000000017},{"name":"G#3","midi":56,"time":209.11875,"velocity":0.5433070866141733,"duration":2.067708333333343},{"name":"F#3","midi":54,"time":211.19583333333335,"velocity":0.5433070866141733,"duration":2.691666666666663},{"name":"F3","midi":53,"time":214.04166666666669,"velocity":0.5669291338582677,"duration":4.683333333333337},{"name":"A#3","midi":58,"time":219.41666666666669,"velocity":0.4566929133858268,"duration":7.996874999999989}],"controlChanges":{},"id":3,"name":"Off 1.2","channelNumber":0,"isPercussion":false},{"startTime":32,"duration":219.5489583333333,"length":8,"notes":[{"name":"C2","midi":36,"time":32,"velocity":0.4330708661417323,"duration":0.21562500000000284},{"name":"C2","midi":36,"time":64.375,"velocity":0.4330708661417323,"duration":0.21562500000000284},{"name":"C2","midi":36,"time":80.95833333333334,"velocity":0.4330708661417323,"duration":0.21562500000000284},{"name":"C2","midi":36,"time":95.95833333333334,"velocity":0.4330708661417323,"duration":0.21562500000000284},{"name":"C2","midi":36,"time":135.95833333333334,"velocity":0.4330708661417323,"duration":0.21562499999998863},{"name":"C2","midi":36,"time":167.58333333333334,"velocity":0.4330708661417323,"duration":0.21562499999998863},{"name":"C2","midi":36,"time":183.58333333333334,"velocity":0.4330708661417323,"duration":0.21562499999998863},{"name":"C2","midi":36,"time":219.33333333333331,"velocity":0.4330708661417323,"duration":0.21562499999998863}],"controlChanges":{},"id":4,"name":"Grace doubles","channelNumber":3,"isPercussion":false}]}