{"header":{"PPQ":480,"timeSignature":[4,4],"bpm":120,"name":""},"startTime":0,"duration":416.6177083333333,"tracks":[{"startTime":0,"duration":0,"length":0,"notes":[],"controlChanges":{},"id":0},{"startTime":0.8166666666666667,"duration":14.31875,"length":26,"notes":[{"name":"G2","midi":43,"time":0.8166666666666667,"velocity":0.33070866141732286,"duration":0.25416666666666665},{"name":"D4","midi":62,"time":1.6854166666666668,"velocity":0.2677165354330709,"duration":0.3937499999999998},{"name":"B3","midi":59,"time":1.6864583333333334,"velocity":0.25984251968503935,"duration":0.25},{"name":"B3","midi":59,"time":2.490625,"velocity":0.2440944881889764,"duration":0.12291666666666634},{"name":"E4","midi":64,"time":2.5010416666666666,"velocity":0.25984251968503935,"duration":0.3354166666666667},{"name":"D4","midi":62,"time":3.284375,"velocity":0.28346456692913385,"duration":0.17395833333333321},{"name":"B3","midi":59,"time":3.3,"velocity":0.1889763779527559,"duration":0.1937500000000001},{"name":"G2","midi":43,"time":4.1,"velocity":0.2992125984251969,"duration":0.3093750000000002},{"name":"B3","midi":59,"time":4.901041666666666,"velocity":0.25196850393700787,"duration":0.24687500000000018},{"name":"D4","midi":62,"time":4.9156249999999995,"velocity":0.23622047244094488,"duration":0.6989583333333336},{"name":"B3","midi":59,"time":5.685416666666667,"velocity":0.23622047244094488,"duration":0.10520833333333357},{"name":"E4","midi":64,"time":5.697916666666667,"velocity":0.25984251968503935,"duration":0.09479166666666661},{"name":"D2","midi":38,"time":6.490625,"velocity":0.33070866141732286,"duration":0.8729166666666668},{"name":"C2","midi":36,"time":7.395833333333333,"velocity":0.3464566929133858,"duration":0.3093750000000002},{"name":"B3","midi":59,"time":8.23125,"velocity":0.28346456692913385,"duration":0.2843750000000007},{"name":"D4","midi":62,"time":8.236458333333333,"velocity":0.25984251968503935,"duration":0.7364583333333332},{"name":"E4","midi":64,"time":9.040625,"velocity":0.25984251968503935,"duration":0.6364583333333336},{"name":"B3","midi":59,"time":9.055208333333333,"velocity":0.2204724409448819,"duration":0.11458333333333393},{"name":"B3","midi":59,"time":9.815625,"velocity":0.1889763779527559,"duration":0.19687500000000036},{"name":"D4","midi":62,"time":9.816666666666668,"velocity":0.2047244094488189,"duration":0.1864583333333325},{"name":"C2","midi":36,"time":10.676041666666668,"velocity":0.23622047244094488,"duration":0.23020833333333357},{"name":"D4","midi":62,"time":11.479166666666668,"velocity":0.25984251968503935,"duration":0.5729166666666661},{"name":"B3","midi":59,"time":11.494791666666668,"velocity":0.2283464566929134,"duration":0.13854166666666679},{"name":"B3","midi":59,"time":12.276041666666668,"velocity":0.16535433070866143,"duration":0.09999999999999964},{"name":"E4","midi":64,"time":12.293750000000001,"velocity":0.2047244094488189,"duration":0.07395833333333357},{"name":"D2","midi":38,"time":13.19375,"velocity":0.36220472440944884,"duration":1.125}],"controlChanges":{"64":[{"number":64,"time":0,"value":1},{"number":64,"time":0.9541666666666666,"value":1},{"number":64,"time":4.104166666666666,"value":0},{"number":64,"time":4.332291666666666,"value":1},{"number":64,"time":6.470833333333333,"value":0},{"number":64,"time":6.703125,"value":1},{"number":64,"time":7.327083333333333,"value":0},{"number":64,"time":7.685416666666667,"value":1},{"number":64,"time":10.640625000000002,"value":0},{"number":64,"time":10.848958333333336,"value":1},{"number":64,"time":13.154166666666667,"value":0},{"number":64,"time":13.526041666666666,"value":1},{"number":64,"time":14.248958333333333,"value":0}]},"id":1,"name":"MIDI in","channelNumber":0,"isPercussion":false},{"startTime":14.046875,"duration":208.28958333333358,"length":499,"notes":[{"name":"G2","midi":43,"time":14.046875,"velocity":0.25984251968503935,"duration":0.2677083333333332},{"name":"B4","midi":71,"time":14.067708333333334,"velocity":0.4566929133858268,"duration":2.018749999999999},{"name":"D4","midi":62,"time":14.920833333333333,"velocity":0.2677165354330709,"duration":0.5468749999999982},{"name":"B3","midi":59,"time":14.924999999999999,"velocity":0.23622047244094488,"duration":0.2624999999999993},{"name":"B3","midi":59,"time":15.737499999999997,"velocity":0.2440944881889764,"duration":0.11979166666666785},{"name":"E4","midi":64,"time":15.740624999999998,"velocity":0.25196850393700787,"duration":0.40625},{"name":"B3","midi":59,"time":16.508333333333333,"velocity":0.2047244094488189,"duration":0.22916666666666785},{"name":"D4","midi":62,"time":16.515625,"velocity":0.2283464566929134,"duration":0.21770833333333428},{"name":"B4","midi":71,"time":17.09166666666667,"velocity":0.33070866141732286,"duration":0.06458333333333499},{"name":"A4","midi":69,"time":17.18958333333334,"velocity":0.41732283464566927,"duration":0.05937500000000284},{"name":"B4","midi":71,"time":17.288541666666674,"velocity":0.5433070866141733,"duration":1.48854166666667},{"name":"G2","midi":43,"time":17.29583333333334,"velocity":0.23622047244094488,"duration":0.26250000000000284},{"name":"B3","midi":59,"time":18.052083333333343,"velocity":0.2047244094488189,"duration":0.26250000000000284},{"name":"D4","midi":62,"time":18.07812500000001,"velocity":0.23622047244094488,"duration":0.33541666666666714},{"name":"B3","midi":59,"time":18.835416666666678,"velocity":0.1889763779527559,"duration":0.21979166666666572},{"name":"E4","midi":64,"time":18.842708333333345,"velocity":0.2047244094488189,"duration":0.6864583333333343},{"name":"B4","midi":71,"time":19.34687500000001,"velocity":0.3937007874015748,"duration":1.1239583333333343},{"name":"D4","midi":62,"time":19.670833333333345,"velocity":0.2204724409448819,"duration":0.09791666666666643},{"name":"B3","midi":59,"time":19.677083333333346,"velocity":0.1968503937007874,"duration":0.10312499999999858},{"name":"C2","midi":36,"time":20.45625000000001,"velocity":0.25984251968503935,"duration":0.30520833333333286},{"name":"D5","midi":74,"time":20.467708333333345,"velocity":0.48031496062992124,"duration":5.519791666666666},{"name":"D4","midi":62,"time":21.272916666666678,"velocity":0.25984251968503935,"duration":0.5406250000000021},{"name":"B3","midi":59,"time":21.29687500000001,"velocity":0.2440944881889764,"duration":0.29166666666666785},{"name":"E4","midi":64,"time":22.10416666666668,"velocity":0.2204724409448819,"duration":0.3739583333333343},{"name":"B3","midi":59,"time":22.115625000000012,"velocity":0.2125984251968504,"duration":0.10000000000000142},{"name":"B3","midi":59,"time":22.85729166666668,"velocity":0.2047244094488189,"duration":0.1593750000000007},{"name":"D4","midi":62,"time":22.85729166666668,"velocity":0.2125984251968504,"duration":0.14479166666666643},{"name":"C2","midi":36,"time":23.64375000000001,"velocity":0.3228346456692913,"duration":0.21979166666666572},{"name":"D4","midi":62,"time":24.429166666666678,"velocity":0.2677165354330709,"duration":0.6239583333333343},{"name":"B3","midi":59,"time":24.43229166666668,"velocity":0.2440944881889764,"duration":0.23854166666666643},{"name":"B3","midi":59,"time":25.264583333333345,"velocity":0.23622047244094488,"duration":0.1531249999999993},{"name":"E4","midi":64,"time":25.295833333333345,"velocity":0.2204724409448819,"duration":0.5697916666666671},{"name":"D4","midi":62,"time":26.095833333333346,"velocity":0.2204724409448819,"duration":0.16249999999999787},{"name":"B3","midi":59,"time":26.13541666666668,"velocity":0.14173228346456693,"duration":0.169791666666665},{"name":"G2","midi":43,"time":26.859375000000007,"velocity":0.28346456692913385,"duration":0.31979166666666714},{"name":"B4","midi":71,"time":26.91770833333334,"velocity":0.4881889763779528,"duration":2.279166666666665},{"name":"B3","midi":59,"time":27.751041666666673,"velocity":0.1889763779527559,"duration":0.19374999999999787},{"name":"D4","midi":62,"time":27.759375000000006,"velocity":0.23622047244094488,"duration":0.4541666666666657},{"name":"E4","midi":64,"time":28.52604166666667,"velocity":0.25196850393700787,"duration":0.7447916666666679},{"name":"B3","midi":59,"time":28.528125000000006,"velocity":0.25984251968503935,"duration":0.15208333333333357},{"name":"B3","midi":59,"time":29.332291666666674,"velocity":0.2204724409448819,"duration":0.125},{"name":"D4","midi":62,"time":29.338541666666675,"velocity":0.23622047244094488,"duration":0.09375},{"name":"B4","midi":71,"time":29.85000000000001,"velocity":0.30708661417322836,"duration":0.03854166666666714},{"name":"A4","midi":69,"time":29.937500000000007,"velocity":0.3779527559055118,"duration":0.04583333333333428},{"name":"G2","midi":43,"time":30.013541666666676,"velocity":0.25984251968503935,"duration":0.22083333333333144},{"name":"B4","midi":71,"time":30.01458333333334,"velocity":0.5039370078740157,"duration":2.0458333333333343},{"name":"D4","midi":62,"time":30.832291666666677,"velocity":0.25196850393700787,"duration":0.4229166666666657},{"name":"B3","midi":59,"time":30.85625000000001,"velocity":0.2204724409448819,"duration":0.21145833333333286},{"name":"B3","midi":59,"time":31.62500000000001,"velocity":0.2047244094488189,"duration":0.15520833333333428},{"name":"E4","midi":64,"time":31.64062500000001,"velocity":0.2047244094488189,"duration":0.6447916666666664},{"name":"D4","midi":62,"time":32.40312500000001,"velocity":0.2755905511811024,"duration":0.18958333333333144},{"name":"B3","midi":59,"time":32.42708333333334,"velocity":0.2125984251968504,"duration":0.19687499999999858},{"name":"A4","midi":69,"time":32.95416666666667,"velocity":0.30708661417322836,"duration":0.265625},{"name":"E4","midi":64,"time":33.24479166666667,"velocity":0.33070866141732286,"duration":0.5572916666666643},{"name":"C2","midi":36,"time":33.24895833333334,"velocity":0.2440944881889764,"duration":0.2562499999999943},{"name":"B3","midi":59,"time":34.034375000000004,"velocity":0.2204724409448819,"duration":0.2749999999999986},{"name":"D4","midi":62,"time":34.05833333333334,"velocity":0.25984251968503935,"duration":0.5572916666666643},{"name":"E4","midi":64,"time":34.8875,"velocity":0.2283464566929134,"duration":0.5072916666666671},{"name":"B3","midi":59,"time":34.91666666666667,"velocity":0.1732283464566929,"duration":0.14166666666666572},{"name":"B3","midi":59,"time":35.675000000000004,"velocity":0.1968503937007874,"duration":0.15520833333333428},{"name":"D4","midi":62,"time":35.68229166666667,"velocity":0.2440944881889764,"duration":0.12604166666666572},{"name":"C2","midi":36,"time":36.46145833333334,"velocity":0.29133858267716534,"duration":0.23645833333333144},{"name":"B3","midi":59,"time":37.26666666666667,"velocity":0.23622047244094488,"duration":0.23645833333333144},{"name":"D4","midi":62,"time":37.28541666666667,"velocity":0.23622047244094488,"duration":0.4468749999999986},{"name":"B3","midi":59,"time":38.06875,"velocity":0.1732283464566929,"duration":0.11354166666666288},{"name":"E4","midi":64,"time":38.094791666666666,"velocity":0.2125984251968504,"duration":0.3916666666666657},{"name":"D4","midi":62,"time":38.89375,"velocity":0.2047244094488189,"duration":0.109375},{"name":"B3","midi":59,"time":38.90833333333333,"velocity":0.14173228346456693,"duration":0.12708333333333144},{"name":"G2","midi":43,"time":39.744791666666664,"velocity":0.23622047244094488,"duration":0.2906250000000057},{"name":"B4","midi":71,"time":39.81458333333333,"velocity":0.4409448818897638,"duration":2.3187500000000156},{"name":"B3","midi":59,"time":40.57395833333334,"velocity":0.2204724409448819,"duration":0.2875000000000014},{"name":"D4","midi":62,"time":40.57604166666667,"velocity":0.2755905511811024,"duration":0.6208333333333371},{"name":"B3","midi":59,"time":41.39166666666667,"velocity":0.23622047244094488,"duration":0.2343750000000071},{"name":"E4","midi":64,"time":41.39687500000001,"velocity":0.25196850393700787,"duration":0.16041666666666998},{"name":"B3","midi":59,"time":42.19270833333335,"velocity":0.1968503937007874,"duration":0.12291666666666856},{"name":"D4","midi":62,"time":42.21666666666668,"velocity":0.2440944881889764,"duration":0.05416666666666714},{"name":"B4","midi":71,"time":42.73541666666669,"velocity":0.3228346456692913,"duration":0.04479166666666856},{"name":"A4","midi":69,"time":42.83229166666669,"velocity":0.36220472440944884,"duration":0.0625},{"name":"B4","midi":71,"time":42.922916666666694,"velocity":0.44881889763779526,"duration":1.640624999999993},{"name":"G2","midi":43,"time":42.94791666666669,"velocity":0.29133858267716534,"duration":0.20416666666666572},{"name":"B3","midi":59,"time":43.715625000000024,"velocity":0.2440944881889764,"duration":0.23541666666666572},{"name":"D4","midi":62,"time":43.72083333333336,"velocity":0.28346456692913385,"duration":0.4677083333333272},{"name":"B3","midi":59,"time":44.47812500000002,"velocity":0.2677165354330709,"duration":0.24895833333333428},{"name":"E4","midi":64,"time":44.51354166666669,"velocity":0.23622047244094488,"duration":0.5885416666666643},{"name":"B4","midi":71,"time":45.02500000000002,"velocity":0.3543307086614173,"duration":0.41770833333333},{"name":"B3","midi":59,"time":45.33541666666669,"velocity":0.2440944881889764,"duration":0.20937499999999432},{"name":"D4","midi":62,"time":45.338541666666686,"velocity":0.29133858267716534,"duration":0.15729166666666572},{"name":"D5","midi":74,"time":46.16145833333334,"velocity":0.49606299212598426,"duration":4.969791666666673},{"name":"C2","midi":36,"time":46.163541666666674,"velocity":0.36220472440944884,"duration":0.27812500000000284},{"name":"B3","midi":59,"time":46.97916666666668,"velocity":0.2440944881889764,"duration":0.25312500000000426},{"name":"G3","midi":55,"time":47.000000000000014,"velocity":0.2283464566929134,"duration":0.22500000000000142},{"name":"E4","midi":64,"time":47.78020833333335,"velocity":0.25196850393700787,"duration":0.14687500000000142},{"name":"B3","midi":59,"time":47.785416666666684,"velocity":0.25984251968503935,"duration":0.12812499999999716},{"name":"D4","midi":62,"time":48.584375000000016,"velocity":0.33858267716535434,"duration":0.07395833333333002},{"name":"B3","midi":59,"time":48.58645833333335,"velocity":0.2204724409448819,"duration":0.10000000000000142},{"name":"C2","midi":36,"time":49.44583333333335,"velocity":0.2047244094488189,"duration":0.15729166666666572},{"name":"D4","midi":62,"time":50.24791666666668,"velocity":0.28346456692913385,"duration":0.34375},{"name":"B3","midi":59,"time":50.27708333333335,"velocity":0.2204724409448819,"duration":0.21041666666666714},{"name":"B3","midi":59,"time":51.088541666666686,"velocity":0.2204724409448819,"duration":0.13958333333332718},{"name":"E4","midi":64,"time":51.10729166666668,"velocity":0.2755905511811024,"duration":0.5093749999999986},{"name":"E5","midi":76,"time":51.60312500000001,"velocity":0.47244094488188976,"duration":1.1447916666666629},{"name":"B3","midi":59,"time":51.92083333333335,"velocity":0.23622047244094488,"duration":0.19062499999999716},{"name":"D4","midi":62,"time":51.92500000000002,"velocity":0.25984251968503935,"duration":0.11249999999999716},{"name":"G2","midi":43,"time":52.70937500000001,"velocity":0.2992125984251969,"duration":0.2395833333333357},{"name":"B4","midi":71,"time":52.728125000000006,"velocity":0.47244094488188976,"duration":2.410416666666663},{"name":"G3","midi":55,"time":53.56354166666668,"velocity":0.1889763779527559,"duration":0.2541666666666629},{"name":"B3","midi":59,"time":53.59687500000001,"velocity":0.1968503937007874,"duration":0.18333333333333002},{"name":"B3","midi":59,"time":54.39062500000001,"velocity":0.31496062992125984,"duration":0.16354166666666714},{"name":"E4","midi":64,"time":54.39479166666668,"velocity":0.29133858267716534,"duration":0.19374999999999432},{"name":"D4","midi":62,"time":55.219791666666666,"velocity":0.23622047244094488,"duration":0.10833333333333428},{"name":"B3","midi":59,"time":55.235416666666666,"velocity":0.1889763779527559,"duration":0.05416666666666714},{"name":"B4","midi":71,"time":55.802083333333336,"velocity":0.2992125984251969,"duration":0.05104166666666998},{"name":"A4","midi":69,"time":55.89687500000001,"velocity":0.3858267716535433,"duration":0.05416666666666714},{"name":"G2","midi":43,"time":55.97500000000001,"velocity":0.3228346456692913,"duration":0.23749999999999716},{"name":"B4","midi":71,"time":55.99687500000001,"velocity":0.48031496062992124,"duration":1.750000000000007},{"name":"G3","midi":55,"time":56.77187500000001,"velocity":0.2125984251968504,"duration":0.2656250000000071},{"name":"B3","midi":59,"time":56.80208333333334,"velocity":0.2125984251968504,"duration":0.15312500000000284},{"name":"B3","midi":59,"time":57.63645833333335,"velocity":0.2047244094488189,"duration":0.4260416666666629},{"name":"E4","midi":64,"time":57.64166666666669,"velocity":0.1889763779527559,"duration":0.4124999999999943},{"name":"D4","midi":62,"time":58.36770833333335,"velocity":0.31496062992125984,"duration":0.10833333333333428},{"name":"B4","midi":71,"time":58.39479166666668,"velocity":0.4015748031496063,"duration":0.23020833333333712},{"name":"B3","midi":59,"time":58.41041666666668,"velocity":0.16535433070866143,"duration":0.03541666666666998},{"name":"A4","midi":69,"time":58.646875000000016,"velocity":0.44881889763779526,"duration":0.6218750000000028},{"name":"D5","midi":74,"time":59.29062500000002,"velocity":0.5511811023622047,"duration":0.4791666666666643},{"name":"C2","midi":36,"time":59.29895833333335,"velocity":0.3779527559055118,"duration":0.31562499999999716},{"name":"E5","midi":76,"time":59.80833333333335,"velocity":0.36220472440944884,"duration":4.263541666666669},{"name":"B3","midi":59,"time":60.10729166666668,"velocity":0.30708661417322836,"duration":0.26145833333333},{"name":"D4","midi":62,"time":60.11875000000001,"velocity":0.25984251968503935,"duration":0.36354166666667},{"name":"E4","midi":64,"time":60.93437500000002,"velocity":0.2204724409448819,"duration":0.4624999999999986},{"name":"B3","midi":59,"time":60.93437500000002,"velocity":0.2125984251968504,"duration":0.125},{"name":"D4","midi":62,"time":61.73229166666668,"velocity":0.2440944881889764,"duration":0.14791666666666714},{"name":"B3","midi":59,"time":61.73645833333335,"velocity":0.2047244094488189,"duration":0.203125},{"name":"C2","midi":36,"time":62.54583333333335,"velocity":0.33070866141732286,"duration":0.20104166666666856},{"name":"B3","midi":59,"time":63.36250000000002,"velocity":0.2204724409448819,"duration":0.2239583333333286},{"name":"D4","midi":62,"time":63.36458333333335,"velocity":0.2755905511811024,"duration":0.4635416666666643},{"name":"B3","midi":59,"time":64.17187500000001,"velocity":0.2440944881889764,"duration":0.2593750000000057},{"name":"E4","midi":64,"time":64.18854166666668,"velocity":0.28346456692913385,"duration":0.6031250000000057},{"name":"D5","midi":74,"time":64.68645833333335,"velocity":0.5118110236220472,"duration":0.58541666666666},{"name":"B3","midi":59,"time":64.95520833333335,"velocity":0.29133858267716534,"duration":0.15312499999998863},{"name":"D4","midi":62,"time":64.95833333333334,"velocity":0.30708661417322836,"duration":0.13124999999999432},{"name":"B4","midi":71,"time":65.21041666666667,"velocity":0.4645669291338583,"duration":0.4906250000000085},{"name":"A4","midi":69,"time":65.71250000000002,"velocity":0.4094488188976378,"duration":1.3947916666666629},{"name":"G2","midi":43,"time":65.71666666666668,"velocity":0.28346456692913385,"duration":0.3010416666666771},{"name":"D4","midi":62,"time":66.52083333333336,"velocity":0.2440944881889764,"duration":0.5718749999999915},{"name":"B3","midi":59,"time":66.52500000000002,"velocity":0.2283464566929134,"duration":0.2395833333333286},{"name":"B4","midi":71,"time":67.04791666666668,"velocity":0.4251968503937008,"duration":1.34270833333332},{"name":"B3","midi":59,"time":67.34479166666668,"velocity":0.25984251968503935,"duration":0.14999999999999147},{"name":"E4","midi":64,"time":67.36458333333334,"velocity":0.31496062992125984,"duration":0.06562499999999716},{"name":"D2","midi":38,"time":68.15625,"velocity":0.3543307086614173,"duration":0.8416666666666686},{"name":"G4","midi":67,"time":68.17083333333333,"velocity":0.3937007874015748,"duration":0.90625},{"name":"A4","midi":69,"time":69.01354166666667,"velocity":0.41732283464566927,"duration":1.3781250000000114},{"name":"G2","midi":43,"time":69.015625,"velocity":0.31496062992125984,"duration":0.3031250000000085},{"name":"B3","midi":59,"time":69.86875,"velocity":0.2440944881889764,"duration":0.25208333333333144},{"name":"D4","midi":62,"time":69.87083333333334,"velocity":0.30708661417322836,"duration":0.7291666666666714},{"name":"B4","midi":71,"time":70.38125000000001,"velocity":0.4251968503937008,"duration":1.1583333333333314},{"name":"B3","midi":59,"time":70.68750000000001,"velocity":0.25984251968503935,"duration":0.09791666666666288},{"name":"E4","midi":64,"time":70.68750000000001,"velocity":0.2755905511811024,"duration":0.09375},{"name":"D2","midi":38,"time":71.52187500000001,"velocity":0.30708661417322836,"duration":0.7958333333333343},{"name":"A4","midi":69,"time":71.52916666666667,"velocity":0.4330708661417323,"duration":0.8885416666666828},{"name":"G4","midi":67,"time":72.35000000000001,"velocity":0.4330708661417323,"duration":3.640625000000014},{"name":"C2","midi":36,"time":72.36250000000001,"velocity":0.33070866141732286,"duration":0.2927083333333371},{"name":"B3","midi":59,"time":73.24270833333335,"velocity":0.25196850393700787,"duration":0.2604166666666714},{"name":"G3","midi":55,"time":73.24375000000002,"velocity":0.2283464566929134,"duration":0.26250000000000284},{"name":"E4","midi":64,"time":73.77291666666669,"velocity":0.31496062992125984,"duration":2.49270833333334},{"name":"B3","midi":59,"time":74.07604166666668,"velocity":0.25196850393700787,"duration":0.07708333333333428},{"name":"D4","midi":62,"time":74.08750000000002,"velocity":0.29133858267716534,"duration":0.16979166666666856},{"name":"D2","midi":38,"time":74.96250000000002,"velocity":0.33070866141732286,"duration":0.8166666666666771},{"name":"C2","midi":36,"time":75.83125000000003,"velocity":0.33858267716535434,"duration":0.29999999999999716},{"name":"G3","midi":55,"time":76.66458333333335,"velocity":0.2440944881889764,"duration":0.4010416666666572},{"name":"B3","midi":59,"time":76.66562500000002,"velocity":0.2283464566929134,"duration":0.3333333333333286},{"name":"B3","midi":59,"time":77.55000000000001,"velocity":0.25984251968503935,"duration":0.22604166666666003},{"name":"D4","midi":62,"time":77.55416666666667,"velocity":0.29133858267716534,"duration":0.3968749999999943},{"name":"E4","midi":64,"time":78.025,"velocity":0.44881889763779526,"duration":0.6364583333333229},{"name":"B3","midi":59,"time":78.32916666666667,"velocity":0.2677165354330709,"duration":0.15833333333333144},{"name":"G3","midi":55,"time":78.33020833333333,"velocity":0.30708661417322836,"duration":0.234375},{"name":"G4","midi":67,"time":78.59166666666667,"velocity":0.44881889763779526,"duration":0.6156249999999943},{"name":"A4","midi":69,"time":79.17083333333333,"velocity":0.48031496062992124,"duration":1.3604166666666515},{"name":"G2","midi":43,"time":79.175,"velocity":0.31496062992125984,"duration":0.3072916666666572},{"name":"B3","midi":59,"time":80.00208333333332,"velocity":0.2755905511811024,"duration":0.6239583333333343},{"name":"G3","midi":55,"time":80.00208333333332,"velocity":0.25984251968503935,"duration":0.3125},{"name":"B4","midi":71,"time":80.51562499999999,"velocity":0.4330708661417323,"duration":1.25624999999998},{"name":"G3","midi":55,"time":80.84895833333331,"velocity":0.29133858267716534,"duration":0.15833333333333144},{"name":"E4","midi":64,"time":80.85937499999999,"velocity":0.29133858267716534,"duration":0.09375},{"name":"D2","midi":38,"time":81.73124999999997,"velocity":0.29133858267716534,"duration":0.8822916666666742},{"name":"G4","midi":67,"time":81.7520833333333,"velocity":0.4409448818897638,"duration":0.9135416666666742},{"name":"A4","midi":69,"time":82.62916666666665,"velocity":0.49606299212598426,"duration":1.4562499999999972},{"name":"G2","midi":43,"time":82.63541666666664,"velocity":0.30708661417322836,"duration":0.34166666666666856},{"name":"G3","midi":55,"time":83.52395833333331,"velocity":0.23622047244094488,"duration":0.23854166666666288},{"name":"B3","midi":59,"time":83.53958333333331,"velocity":0.2677165354330709,"duration":0.5729166666666714},{"name":"B4","midi":71,"time":84.06874999999998,"velocity":0.49606299212598426,"duration":1.22708333333334},{"name":"G3","midi":55,"time":84.38437499999998,"velocity":0.31496062992125984,"duration":0.18020833333333997},{"name":"E4","midi":64,"time":84.39583333333331,"velocity":0.36220472440944884,"duration":0.13437500000000568},{"name":"G4","midi":67,"time":85.25937499999999,"velocity":0.4094488188976378,"duration":0.9322916666666572},{"name":"D2","midi":38,"time":85.28229166666665,"velocity":0.28346456692913385,"duration":0.8468749999999972},{"name":"A4","midi":69,"time":86.17395833333332,"velocity":0.44881889763779526,"duration":1.6281250000000114},{"name":"C2","midi":36,"time":86.17708333333331,"velocity":0.33858267716535434,"duration":0.3333333333333428},{"name":"G3","midi":55,"time":86.99895833333332,"velocity":0.2440944881889764,"duration":0.30416666666667425},{"name":"B3","midi":59,"time":87.02499999999999,"velocity":0.25984251968503935,"duration":0.3489583333333428},{"name":"E4","midi":64,"time":87.53125,"velocity":0.3700787401574803,"duration":2.708333333333357},{"name":"D4","midi":62,"time":87.86041666666667,"velocity":0.29133858267716534,"duration":0.23541666666667993},{"name":"B3","midi":59,"time":87.87083333333334,"velocity":0.2204724409448819,"duration":0.1041666666666714},{"name":"G3","midi":55,"time":88.71770833333335,"velocity":0.2440944881889764,"duration":0.19375000000000853},{"name":"B3","midi":59,"time":88.73333333333335,"velocity":0.25196850393700787,"duration":0.09166666666666856},{"name":"C2","midi":36,"time":89.6104166666667,"velocity":0.31496062992125984,"duration":0.2874999999999943},{"name":"G3","midi":55,"time":90.49270833333335,"velocity":0.2283464566929134,"duration":0.2760416666666714},{"name":"B3","midi":59,"time":90.49479166666669,"velocity":0.25196850393700787,"duration":0.28958333333333997},{"name":"D4","midi":62,"time":91.36354166666669,"velocity":0.2992125984251969,"duration":0.19062499999999716},{"name":"B3","midi":59,"time":91.3760416666667,"velocity":0.2283464566929134,"duration":0.12916666666666288},{"name":"B3","midi":59,"time":92.27083333333336,"velocity":0.18110236220472442,"duration":0.056249999999991473},{"name":"E4","midi":64,"time":92.27500000000002,"velocity":0.1732283464566929,"duration":0.052083333333328596},{"name":"E2","midi":40,"time":93.32395833333335,"velocity":0.33070866141732286,"duration":0.2239583333333286},{"name":"B4","midi":71,"time":93.35416666666669,"velocity":0.4251968503937008,"duration":1.8020833333333144},{"name":"G3","midi":55,"time":94.25104166666668,"velocity":0.1732283464566929,"duration":0.10625000000000284},{"name":"B3","midi":59,"time":94.26145833333335,"velocity":0.14173228346456693,"duration":0.09479166666666572},{"name":"D2","midi":38,"time":95.13020833333334,"velocity":0.30708661417322836,"duration":0.20729166666666288},{"name":"A4","midi":69,"time":95.1375,"velocity":0.4015748031496063,"duration":1.8166666666666629},{"name":"A3","midi":57,"time":96.040625,"velocity":0.25196850393700787,"duration":0.13958333333333428},{"name":"F#3","midi":54,"time":96.05729166666667,"velocity":0.2204724409448819,"duration":0.09791666666666288},{"name":"G4","midi":67,"time":96.92604166666666,"velocity":0.3543307086614173,"duration":5.91458333333334},{"name":"C2","midi":36,"time":96.93020833333333,"velocity":0.25196850393700787,"duration":0.31354166666667993},{"name":"E3","midi":52,"time":97.81979166666667,"velocity":0.1968503937007874,"duration":0.16458333333333997},{"name":"G3","midi":55,"time":97.83229166666668,"velocity":0.1732283464566929,"duration":0.2135416666666714},{"name":"G3","midi":55,"time":98.67291666666668,"velocity":0.18110236220472442,"duration":0.0885416666666714},{"name":"B3","midi":59,"time":98.69062500000001,"velocity":0.23622047244094488,"duration":0.18020833333333997},{"name":"G3","midi":55,"time":99.52708333333335,"velocity":0.1889763779527559,"duration":0.14479166666666288},{"name":"E3","midi":52,"time":99.54062500000002,"velocity":0.11811023622047244,"duration":0.15312499999998863},{"name":"C2","midi":36,"time":100.35625,"velocity":0.25984251968503935,"duration":0.2593749999999915},{"name":"G3","midi":55,"time":101.25104166666667,"velocity":0.2125984251968504,"duration":0.14895833333332575},{"name":"E3","midi":52,"time":101.27083333333333,"velocity":0.14173228346456693,"duration":0.23125000000000284},{"name":"B3","midi":59,"time":102.065625,"velocity":0.2440944881889764,"duration":0.21770833333333428},{"name":"G3","midi":55,"time":102.07083333333333,"velocity":0.25984251968503935,"duration":0.13854166666666856},{"name":"D4","midi":62,"time":102.9625,"velocity":0.2677165354330709,"duration":0.09791666666667709},{"name":"B3","midi":59,"time":102.98645833333335,"velocity":0.18110236220472442,"duration":0.11770833333333997},{"name":"B4","midi":71,"time":103.9041666666667,"velocity":0.5275590551181102,"duration":1.8229166666666572},{"name":"E2","midi":40,"time":103.91145833333336,"velocity":0.3464566929133858,"duration":0.24062499999999432},{"name":"B3","midi":59,"time":104.83750000000002,"velocity":0.2204724409448819,"duration":0.1145833333333286},{"name":"G3","midi":55,"time":104.86041666666668,"velocity":0.09448818897637795,"duration":0.07604166666666856},{"name":"D2","midi":38,"time":105.65729166666668,"velocity":0.33858267716535434,"duration":0.25833333333333997},{"name":"D5","midi":74,"time":105.68333333333335,"velocity":0.4645669291338583,"duration":1.0489583333333456},{"name":"F#3","midi":54,"time":106.62812500000003,"velocity":0.23622047244094488,"duration":0.08958333333333712},{"name":"A3","midi":57,"time":106.63020833333336,"velocity":0.1889763779527559,"duration":0.09687500000001137},{"name":"G4","midi":67,"time":107.71145833333335,"velocity":0.29133858267716534,"duration":5.483333333333334},{"name":"C2","midi":36,"time":107.71145833333335,"velocity":0.29133858267716534,"duration":0.29375000000000284},{"name":"G3","midi":55,"time":108.72708333333335,"velocity":0.2047244094488189,"duration":0.25},{"name":"E3","midi":52,"time":108.7510416666667,"velocity":0.14173228346456693,"duration":0.23124999999998863},{"name":"B3","midi":59,"time":109.57083333333335,"velocity":0.25984251968503935,"duration":0.29479166666666856},{"name":"G3","midi":55,"time":109.57187500000002,"velocity":0.23622047244094488,"duration":0.12395833333333428},{"name":"G3","midi":55,"time":110.40625000000003,"velocity":0.1968503937007874,"duration":0.20416666666666572},{"name":"E3","midi":52,"time":110.4354166666667,"velocity":0.1968503937007874,"duration":0.21145833333332575},{"name":"C2","midi":36,"time":111.26770833333336,"velocity":0.30708661417322836,"duration":0.26770833333334565},{"name":"B3","midi":59,"time":112.16562500000003,"velocity":0.2047244094488189,"duration":0.2291666666666572},{"name":"G3","midi":55,"time":112.16875000000003,"velocity":0.25984251968503935,"duration":0.27812499999998863},{"name":"D4","midi":62,"time":112.99166666666669,"velocity":0.2992125984251969,"duration":0.15208333333333712},{"name":"B3","midi":59,"time":112.99375000000002,"velocity":0.2283464566929134,"duration":0.16562500000000568},{"name":"B3","midi":59,"time":114.0166666666667,"velocity":0.2204724409448819,"duration":0.057291666666671404},{"name":"E4","midi":64,"time":114.03333333333336,"velocity":0.2125984251968504,"duration":0.039583333333339965},{"name":"G2","midi":43,"time":115.22708333333337,"velocity":0.1889763779527559,"duration":0.3531249999999915},{"name":"B4","midi":71,"time":115.27708333333337,"velocity":0.2992125984251969,"duration":1.9937500000000057},{"name":"G3","midi":55,"time":116.21458333333337,"velocity":0.14173228346456693,"duration":0.2645833333333343},{"name":"B3","midi":59,"time":116.23750000000003,"velocity":0.14960629921259844,"duration":0.2135416666666714},{"name":"B3","midi":59,"time":117.05208333333337,"velocity":0.2755905511811024,"duration":0.25},{"name":"E4","midi":64,"time":117.08958333333337,"velocity":0.2440944881889764,"duration":0.23750000000001137},{"name":"D4","midi":62,"time":117.88750000000005,"velocity":0.25984251968503935,"duration":0.17916666666667425},{"name":"B3","midi":59,"time":117.93020833333338,"velocity":0.14173228346456693,"duration":0.18541666666666856},{"name":"B4","midi":71,"time":118.44791666666671,"velocity":0.33858267716535434,"duration":0.09166666666666856},{"name":"A4","midi":69,"time":118.57187500000005,"velocity":0.4015748031496063,"duration":0.07187500000000568},{"name":"B4","midi":71,"time":118.69166666666672,"velocity":0.44881889763779526,"duration":1.9968749999999886},{"name":"G2","midi":43,"time":118.69895833333338,"velocity":0.23622047244094488,"duration":0.20104166666666856},{"name":"G3","midi":55,"time":119.46562500000005,"velocity":0.2204724409448819,"duration":0.24895833333333428},{"name":"B3","midi":59,"time":119.49375000000005,"velocity":0.2125984251968504,"duration":0.16041666666666288},{"name":"E4","midi":64,"time":120.26770833333337,"velocity":0.2204724409448819,"duration":0.1770833333333286},{"name":"B3","midi":59,"time":120.2729166666667,"velocity":0.2047244094488189,"duration":0.17083333333333428},{"name":"D4","midi":62,"time":121.10833333333338,"velocity":0.3228346456692913,"duration":0.08124999999999716},{"name":"B3","midi":59,"time":121.12500000000004,"velocity":0.23622047244094488,"duration":0.07708333333333428},{"name":"B4","midi":71,"time":121.66562500000005,"velocity":0.3937007874015748,"duration":0.3125},{"name":"C2","midi":36,"time":121.96458333333338,"velocity":0.29133858267716534,"duration":0.31979166666667425},{"name":"D5","midi":74,"time":121.97708333333338,"velocity":0.4881889763779528,"duration":0.6270833333333456},{"name":"E5","midi":76,"time":122.56250000000006,"velocity":0.2992125984251969,"duration":4.841666666666669},{"name":"G3","midi":55,"time":122.8239583333334,"velocity":0.29133858267716534,"duration":0.3583333333333343},{"name":"B3","midi":59,"time":122.82708333333339,"velocity":0.2755905511811024,"duration":0.2822916666666657},{"name":"D4","midi":62,"time":123.72291666666673,"velocity":0.2755905511811024,"duration":0.20937500000000853},{"name":"B3","midi":59,"time":123.73125000000007,"velocity":0.3228346456692913,"duration":0.17395833333333144},{"name":"B3","midi":59,"time":124.56979166666675,"velocity":0.2440944881889764,"duration":0.07916666666666572},{"name":"E4","midi":64,"time":124.57916666666675,"velocity":0.2440944881889764,"duration":0.07187499999999147},{"name":"C2","midi":36,"time":125.41770833333341,"velocity":0.2755905511811024,"duration":0.25},{"name":"B3","midi":59,"time":126.23854166666675,"velocity":0.2125984251968504,"duration":0.22812499999999147},{"name":"G3","midi":55,"time":126.24583333333341,"velocity":0.25984251968503935,"duration":0.3083333333333371},{"name":"B3","midi":59,"time":127.08854166666674,"velocity":0.25984251968503935,"duration":0.1406249999999858},{"name":"D4","midi":62,"time":127.09166666666674,"velocity":0.29133858267716534,"duration":0.13124999999999432},{"name":"B3","midi":59,"time":127.95729166666672,"velocity":0.2677165354330709,"duration":0.125},{"name":"E4","midi":64,"time":127.97395833333339,"velocity":0.28346456692913385,"duration":0.08437500000000853},{"name":"A4","midi":69,"time":128.46562500000005,"velocity":0.4251968503937008,"duration":0.36145833333333144},{"name":"G2","midi":43,"time":128.83437500000005,"velocity":0.1732283464566929,"duration":0.29999999999998295},{"name":"B4","midi":71,"time":128.83437500000005,"velocity":0.4330708661417323,"duration":2.2406249999999943},{"name":"B3","midi":59,"time":129.65625000000003,"velocity":0.2283464566929134,"duration":0.13437500000000568},{"name":"G3","midi":55,"time":129.6604166666667,"velocity":0.2283464566929134,"duration":0.21979166666667993},{"name":"B3","midi":59,"time":130.5166666666667,"velocity":0.33070866141732286,"duration":0.2083333333333428},{"name":"E4","midi":64,"time":130.5229166666667,"velocity":0.33070866141732286,"duration":0.1770833333333428},{"name":"D4","midi":62,"time":131.3666666666667,"velocity":0.2677165354330709,"duration":0.078125},{"name":"B3","midi":59,"time":131.37500000000003,"velocity":0.1889763779527559,"duration":0.06562500000001137},{"name":"B4","midi":71,"time":131.88750000000005,"velocity":0.33070866141732286,"duration":0.08958333333333712},{"name":"A4","midi":69,"time":132.00312500000004,"velocity":0.4094488188976378,"duration":0.0625},{"name":"B4","midi":71,"time":132.11770833333335,"velocity":0.4645669291338583,"duration":1.7260416666666742},{"name":"G2","midi":43,"time":132.1229166666667,"velocity":0.25984251968503935,"duration":0.2906250000000057},{"name":"G3","midi":55,"time":132.9416666666667,"velocity":0.2440944881889764,"duration":0.2770833333333371},{"name":"B3","midi":59,"time":132.96875000000003,"velocity":0.2440944881889764,"duration":0.10833333333332007},{"name":"B3","midi":59,"time":133.77187500000002,"velocity":0.3464566929133858,"duration":0.23645833333333144},{"name":"E4","midi":64,"time":133.79687500000003,"velocity":0.30708661417322836,"duration":0.24583333333333712},{"name":"B4","midi":71,"time":134.28020833333338,"velocity":0.5118110236220472,"duration":1.13958333333332},{"name":"D4","midi":62,"time":134.61770833333338,"velocity":0.36220472440944884,"duration":0.08645833333332575},{"name":"B3","midi":59,"time":134.6416666666667,"velocity":0.25196850393700787,"duration":0.03541666666666288},{"name":"D5","midi":74,"time":134.85625000000005,"velocity":0.5511811023622047,"duration":0.6156249999999943},{"name":"C2","midi":36,"time":135.43333333333337,"velocity":0.31496062992125984,"duration":0.3114583333333485},{"name":"G4","midi":67,"time":135.4385416666667,"velocity":0.4094488188976378,"duration":5.069791666666703},{"name":"E3","midi":52,"time":136.28645833333337,"velocity":0.23622047244094488,"duration":0.26250000000001705},{"name":"G3","midi":55,"time":136.30000000000004,"velocity":0.2047244094488189,"duration":0.21250000000000568},{"name":"G3","midi":55,"time":137.11875000000006,"velocity":0.28346456692913385,"duration":0.23645833333333144},{"name":"B3","midi":59,"time":137.1364583333334,"velocity":0.29133858267716534,"duration":0.2541666666666629},{"name":"E3","midi":52,"time":137.9427083333334,"velocity":0.2283464566929134,"duration":0.8927083333333314},{"name":"G3","midi":55,"time":137.94687500000006,"velocity":0.25984251968503935,"duration":0.8916666666666799},{"name":"C3","midi":48,"time":138.79791666666674,"velocity":0.25984251968503935,"duration":0.9781250000000057},{"name":"G3","midi":55,"time":139.6177083333334,"velocity":0.25984251968503935,"duration":0.26770833333333144},{"name":"E3","midi":52,"time":139.6177083333334,"velocity":0.25984251968503935,"duration":0.29583333333332007},{"name":"G3","midi":55,"time":140.4489583333334,"velocity":0.25196850393700787,"duration":0.14375000000001137},{"name":"B3","midi":59,"time":140.45000000000007,"velocity":0.2755905511811024,"duration":0.3083333333333371},{"name":"G3","midi":55,"time":141.26250000000007,"velocity":0.29133858267716534,"duration":0.08958333333336554},{"name":"E3","midi":52,"time":141.26979166666675,"velocity":0.2283464566929134,"duration":0.07916666666667993},{"name":"A4","midi":69,"time":142.05104166666678,"velocity":0.4566929133858268,"duration":0.06874999999999432},{"name":"G2","midi":43,"time":142.0687500000001,"velocity":0.3464566929133858,"duration":0.3229166666666856},{"name":"B4","midi":71,"time":142.1406250000001,"velocity":0.49606299212598426,"duration":2.39270833333336},{"name":"G3","midi":55,"time":142.90937500000013,"velocity":0.2283464566929134,"duration":0.25729166666670267},{"name":"B3","midi":59,"time":142.9260416666668,"velocity":0.1732283464566929,"duration":0.14166666666667993},{"name":"B3","midi":59,"time":143.74062500000016,"velocity":0.31496062992125984,"duration":0.21874999999997158},{"name":"E4","midi":64,"time":143.7489583333335,"velocity":0.33858267716535434,"duration":0.18020833333332575},{"name":"D4","midi":62,"time":144.5666666666668,"velocity":0.25984251968503935,"duration":0.08541666666664582},{"name":"B3","midi":59,"time":144.5791666666668,"velocity":0.2204724409448819,"duration":0.03541666666666288},{"name":"B4","midi":71,"time":145.00520833333346,"velocity":0.3228346456692913,"duration":0.05104166666666288},{"name":"A4","midi":69,"time":145.10520833333345,"velocity":0.36220472440944884,"duration":0.011458333333337123},{"name":"G2","midi":43,"time":145.29375000000013,"velocity":0.2755905511811024,"duration":0.24166666666667425},{"name":"A4","midi":69,"time":145.3010416666668,"velocity":0.44881889763779526,"duration":0.07291666666665719},{"name":"B4","midi":71,"time":145.37812500000013,"velocity":0.4645669291338583,"duration":2.49791666666664},{"name":"B3","midi":59,"time":146.12708333333347,"velocity":0.25984251968503935,"duration":0.11041666666665151},{"name":"G3","midi":55,"time":146.1572916666668,"velocity":0.1732283464566929,"duration":0.12812500000001137},{"name":"B3","midi":59,"time":146.96458333333348,"velocity":0.2440944881889764,"duration":0.11770833333332575},{"name":"E4","midi":64,"time":146.98437500000014,"velocity":0.2283464566929134,"duration":0.12916666666666288},{"name":"D4","midi":62,"time":147.79375000000013,"velocity":0.25984251968503935,"duration":0.06249999999997158},{"name":"B3","midi":59,"time":147.80625000000012,"velocity":0.1732283464566929,"duration":0.03020833333332007},{"name":"A4","midi":69,"time":148.31250000000009,"velocity":0.3464566929133858,"duration":0.013541666666668561},{"name":"A4","midi":69,"time":148.60000000000008,"velocity":0.36220472440944884,"duration":0.025000000000005684},{"name":"C2","midi":36,"time":148.6281250000001,"velocity":0.30708661417322836,"duration":0.30520833333332575},{"name":"B4","midi":71,"time":148.6437500000001,"velocity":0.4566929133858268,"duration":0.13437500000000568},{"name":"A4","midi":69,"time":148.78958333333344,"velocity":0.31496062992125984,"duration":0.13958333333332007},{"name":"G4","midi":67,"time":149.00000000000009,"velocity":0.29133858267716534,"duration":4.425000000000011},{"name":"G3","midi":55,"time":149.44791666666674,"velocity":0.2047244094488189,"duration":0.2864583333333144},{"name":"B3","midi":59,"time":149.46041666666673,"velocity":0.1968503937007874,"duration":0.1666666666666572},{"name":"D4","midi":62,"time":150.29479166666673,"velocity":0.2677165354330709,"duration":0.13437500000000568},{"name":"B3","midi":59,"time":150.3177083333334,"velocity":0.23622047244094488,"duration":0.06874999999999432},{"name":"B3","midi":59,"time":151.1114583333334,"velocity":0.1889763779527559,"duration":0.046875},{"name":"E4","midi":64,"time":151.11875000000006,"velocity":0.2047244094488189,"duration":0.056250000000005684},{"name":"C2","midi":36,"time":151.89687500000008,"velocity":0.3858267716535433,"duration":0.24062500000002274},{"name":"G3","midi":55,"time":152.73854166666678,"velocity":0.1732283464566929,"duration":0.22604166666664582},{"name":"B3","midi":59,"time":152.73854166666678,"velocity":0.1889763779527559,"duration":0.16458333333332575},{"name":"D4","midi":62,"time":153.51354166666675,"velocity":0.28346456692913385,"duration":0.15416666666666856},{"name":"B3","midi":59,"time":153.51770833333342,"velocity":0.25984251968503935,"duration":0.11562499999999432},{"name":"B3","midi":59,"time":154.20520833333342,"velocity":0.2440944881889764,"duration":0.16250000000002274},{"name":"E4","midi":64,"time":154.23020833333342,"velocity":0.25984251968503935,"duration":0.06354166666667993},{"name":"G4","midi":67,"time":154.3093750000001,"velocity":0.47244094488188976,"duration":0.2020833333333485},{"name":"A4","midi":69,"time":154.5229166666668,"velocity":0.5196850393700787,"duration":0.6177083333333258},{"name":"G2","midi":43,"time":155.09791666666678,"velocity":0.25984251968503935,"duration":0.35624999999998863},{"name":"B4","midi":71,"time":155.1468750000001,"velocity":0.49606299212598426,"duration":2.301041666666663},{"name":"B3","midi":59,"time":155.9406250000001,"velocity":0.25984251968503935,"duration":0.23020833333333712},{"name":"G3","midi":55,"time":155.95729166666678,"velocity":0.2440944881889764,"duration":0.33020833333333144},{"name":"D4","midi":62,"time":156.76458333333343,"velocity":0.3228346456692913,"duration":0.12083333333333712},{"name":"B3","midi":59,"time":156.76979166666678,"velocity":0.28346456692913385,"duration":0.11145833333333144},{"name":"B3","midi":59,"time":157.5781250000001,"velocity":0.2047244094488189,"duration":0.06354166666667993},{"name":"E4","midi":64,"time":157.6104166666668,"velocity":0.2204724409448819,"duration":0.03125},{"name":"B4","midi":71,"time":158.1104166666668,"velocity":0.3464566929133858,"duration":0.03437500000001137},{"name":"A4","midi":69,"time":158.17916666666682,"velocity":0.3858267716535433,"duration":0.011458333333337123},{"name":"A4","midi":69,"time":158.32187500000015,"velocity":0.3937007874015748,"duration":0.06041666666666856},{"name":"G2","midi":43,"time":158.34583333333347,"velocity":0.2992125984251969,"duration":0.3010416666666629},{"name":"B4","midi":71,"time":158.3989583333335,"velocity":0.5196850393700787,"duration":1.6354166666666572},{"name":"B3","midi":59,"time":159.17395833333347,"velocity":0.2125984251968504,"duration":0.16354166666667425},{"name":"G3","midi":55,"time":159.1916666666668,"velocity":0.2204724409448819,"duration":0.23750000000001137},{"name":"E4","midi":64,"time":159.95520833333347,"velocity":0.23622047244094488,"duration":0.17187500000002842},{"name":"B3","midi":59,"time":159.9666666666668,"velocity":0.18110236220472442,"duration":0.15312500000001705},{"name":"B3","midi":59,"time":160.7489583333335,"velocity":0.18110236220472442,"duration":0.08854166666665719},{"name":"D4","midi":62,"time":160.75312500000015,"velocity":0.2440944881889764,"duration":0.03125},{"name":"B4","midi":71,"time":160.82395833333348,"velocity":0.4015748031496063,"duration":0.1510416666666572},{"name":"A4","midi":69,"time":160.97812500000015,"velocity":0.5433070866141733,"duration":0.5979166666666629},{"name":"C2","midi":36,"time":161.58333333333348,"velocity":0.3464566929133858,"duration":0.3166666666666913},{"name":"E4","midi":64,"time":161.6020833333335,"velocity":0.4015748031496063,"duration":5.360416666666708},{"name":"G3","midi":55,"time":162.4031250000002,"velocity":0.25196850393700787,"duration":0.2593750000000057},{"name":"E3","midi":52,"time":162.4218750000002,"velocity":0.2204724409448819,"duration":0.2552083333333144},{"name":"G3","midi":55,"time":163.25000000000017,"velocity":0.2677165354330709,"duration":0.12291666666666856},{"name":"B3","midi":59,"time":163.26562500000017,"velocity":0.25984251968503935,"duration":0.21250000000000568},{"name":"G3","midi":55,"time":164.05729166666686,"velocity":0.2440944881889764,"duration":0.1291666666666913},{"name":"E3","midi":52,"time":164.07395833333354,"velocity":0.1889763779527559,"duration":0.2083333333333428},{"name":"C2","midi":36,"time":164.89895833333355,"velocity":0.2677165354330709,"duration":0.2916666666666572},{"name":"G3","midi":55,"time":165.74791666666687,"velocity":0.2125984251968504,"duration":0.14166666666667993},{"name":"E3","midi":52,"time":165.7687500000002,"velocity":0.1889763779527559,"duration":0.20104166666666856},{"name":"G3","midi":55,"time":166.53020833333355,"velocity":0.2755905511811024,"duration":0.12812500000001137},{"name":"B3","midi":59,"time":166.54687500000023,"velocity":0.25984251968503935,"duration":0.1416666666666515},{"name":"B3","midi":59,"time":167.37395833333355,"velocity":0.18110236220472442,"duration":0.07604166666666856},{"name":"D4","midi":62,"time":167.40833333333356,"velocity":0.2047244094488189,"duration":0.04166666666665719},{"name":"B4","midi":71,"time":168.45833333333357,"velocity":0.3779527559055118,"duration":1.6583333333333599},{"name":"E3","midi":52,"time":168.47187500000024,"velocity":0.2283464566929134,"duration":0.9385416666666799},{"name":"G3","midi":55,"time":169.32708333333358,"velocity":0.23622047244094488,"duration":0.8458333333333599},{"name":"A4","midi":69,"time":170.10000000000025,"velocity":0.4015748031496063,"duration":1.6875000000000284},{"name":"D3","midi":50,"time":170.12291666666692,"velocity":0.30708661417322836,"duration":0.9322916666666856},{"name":"A3","midi":57,"time":170.90312500000027,"velocity":0.2204724409448819,"duration":0.5197916666666629},{"name":"F#3","midi":54,"time":170.9270833333336,"velocity":0.2440944881889764,"duration":0.21458333333333712},{"name":"G4","midi":67,"time":171.76875000000027,"velocity":0.33858267716535434,"duration":6.004166666666663},{"name":"C3","midi":48,"time":171.77187500000028,"velocity":0.2440944881889764,"duration":2.5624999999999716},{"name":"E3","midi":52,"time":172.70000000000027,"velocity":0.18110236220472442,"duration":0.21250000000000568},{"name":"G3","midi":55,"time":172.73125000000027,"velocity":0.14960629921259844,"duration":0.20729166666666288},{"name":"G3","midi":55,"time":173.4958333333336,"velocity":0.13385826771653545,"duration":0.1416666666666515},{"name":"B3","midi":59,"time":173.50625000000025,"velocity":0.2677165354330709,"duration":0.09791666666666288},{"name":"G3","midi":55,"time":174.33437500000025,"velocity":0.1889763779527559,"duration":0.8749999999999716},{"name":"E3","midi":52,"time":174.34895833333357,"velocity":0.1889763779527559,"duration":0.8739583333333201},{"name":"C3","midi":48,"time":175.1604166666669,"velocity":0.30708661417322836,"duration":1.1187500000000057},{"name":"E3","midi":52,"time":175.98125000000022,"velocity":0.2125984251968504,"duration":0.31458333333335986},{"name":"G3","midi":55,"time":176.0291666666669,"velocity":0.18110236220472442,"duration":0.18854166666667993},{"name":"G3","midi":55,"time":176.76979166666692,"velocity":0.33858267716535434,"duration":0.13645833333333712},{"name":"B3","midi":59,"time":176.78020833333358,"velocity":0.3858267716535433,"duration":0.17291666666667993},{"name":"B3","midi":59,"time":177.6114583333336,"velocity":0.31496062992125984,"duration":0.125},{"name":"D4","midi":62,"time":177.6354166666669,"velocity":0.36220472440944884,"duration":0.09999999999999432},{"name":"E3","midi":52,"time":178.40729166666694,"velocity":0.3464566929133858,"duration":0.8552083333333371},{"name":"B4","midi":71,"time":178.41666666666694,"velocity":0.5433070866141733,"duration":1.7385416666666345},{"name":"G3","midi":55,"time":179.25729166666693,"velocity":0.23622047244094488,"duration":0.9010416666666572},{"name":"B3","midi":59,"time":179.2708333333336,"velocity":0.2204724409448819,"duration":0.8406249999999886},{"name":"D5","midi":74,"time":180.08854166666694,"velocity":0.4645669291338583,"duration":1.8052083333332973},{"name":"D3","midi":50,"time":180.0989583333336,"velocity":0.29133858267716534,"duration":0.9781249999999773},{"name":"A3","midi":57,"time":180.92812500000025,"velocity":0.2677165354330709,"duration":0.2760416666666572},{"name":"F#3","midi":54,"time":180.93020833333358,"velocity":0.2992125984251969,"duration":0.23749999999998295},{"name":"C3","midi":48,"time":181.8354166666669,"velocity":0.3228346456692913,"duration":1.984375},{"name":"G4","midi":67,"time":181.8385416666669,"velocity":0.36220472440944884,"duration":4.881249999999994},{"name":"E3","midi":52,"time":182.73333333333358,"velocity":0.14173228346456693,"duration":0.21562499999998863},{"name":"G3","midi":55,"time":182.7416666666669,"velocity":0.15748031496062992,"duration":0.19166666666666288},{"name":"B3","midi":59,"time":183.55520833333355,"velocity":0.2283464566929134,"duration":0.2593750000000057},{"name":"G3","midi":55,"time":183.55833333333356,"velocity":0.1732283464566929,"duration":0.171875},{"name":"G3","midi":55,"time":184.35625000000024,"velocity":0.1889763779527559,"duration":0.8427083333333485},{"name":"E3","midi":52,"time":184.36458333333357,"velocity":0.12598425196850394,"duration":0.8489583333333428},{"name":"C3","midi":48,"time":185.1510416666669,"velocity":0.30708661417322836,"duration":1.0072916666666742},{"name":"G3","midi":55,"time":185.92500000000024,"velocity":0.25984251968503935,"duration":0.25312500000001137},{"name":"B3","midi":59,"time":185.95000000000024,"velocity":0.2283464566929134,"duration":0.2177083333333485},{"name":"D4","midi":62,"time":186.7479166666669,"velocity":0.3700787401574803,"duration":0.171875},{"name":"B3","midi":59,"time":186.75208333333356,"velocity":0.3543307086614173,"duration":0.24687500000001705},{"name":"B3","midi":59,"time":187.5854166666669,"velocity":0.25984251968503935,"duration":0.11145833333333144},{"name":"E4","midi":64,"time":187.58750000000023,"velocity":0.2440944881889764,"duration":0.09583333333333144},{"name":"B4","midi":71,"time":188.25833333333355,"velocity":0.36220472440944884,"duration":0.828125},{"name":"E2","midi":40,"time":188.33645833333355,"velocity":0.29133858267716534,"duration":0.20104166666666856},{"name":"B5","midi":83,"time":188.35416666666688,"velocity":0.5669291338582677,"duration":0.6791666666666742},{"name":"B3","midi":59,"time":189.1072916666669,"velocity":0.30708661417322836,"duration":0.14166666666667993},{"name":"G3","midi":55,"time":189.10833333333358,"velocity":0.2204724409448819,"duration":0.21250000000000568},{"name":"A4","midi":69,"time":189.78958333333358,"velocity":0.4094488188976378,"duration":0.84375},{"name":"D2","midi":38,"time":189.84166666666692,"velocity":0.30708661417322836,"duration":0.23229166666666856},{"name":"A5","midi":81,"time":189.89062500000026,"velocity":0.5196850393700787,"duration":0.6427083333333314},{"name":"A3","midi":57,"time":190.6427083333336,"velocity":0.29133858267716534,"duration":0.21458333333336554},{"name":"F#3","midi":54,"time":190.64791666666693,"velocity":0.29133858267716534,"duration":0.17500000000001137},{"name":"G4","midi":67,"time":191.34895833333363,"velocity":0.3700787401574803,"duration":5.349999999999966},{"name":"C2","midi":36,"time":191.47083333333362,"velocity":0.1968503937007874,"duration":0.29374999999998863},{"name":"G5","midi":79,"time":191.49062500000028,"velocity":0.4566929133858268,"duration":5.4104166666666345},{"name":"E3","midi":52,"time":192.30312500000028,"velocity":0.12598425196850394,"duration":0.29895833333333144},{"name":"G3","midi":55,"time":192.31562500000027,"velocity":0.2047244094488189,"duration":0.2614583333333371},{"name":"G3","midi":55,"time":193.09062500000027,"velocity":0.29133858267716534,"duration":0.19270833333331439},{"name":"B3","midi":59,"time":193.10104166666693,"velocity":0.29133858267716534,"duration":0.3802083333333144},{"name":"E3","midi":52,"time":193.90416666666692,"velocity":0.2047244094488189,"duration":0.37395833333332007},{"name":"G3","midi":55,"time":193.91041666666692,"velocity":0.2755905511811024,"duration":0.3760416666666515},{"name":"C3","midi":48,"time":194.70833333333357,"velocity":0.2677165354330709,"duration":0.9833333333333485},{"name":"G3","midi":55,"time":195.49166666666693,"velocity":0.2283464566929134,"duration":0.26874999999998295},{"name":"E3","midi":52,"time":195.5052083333336,"velocity":0.2283464566929134,"duration":0.30520833333332575},{"name":"G3","midi":55,"time":196.2927083333336,"velocity":0.3700787401574803,"duration":0.13437500000000568},{"name":"B3","midi":59,"time":196.2989583333336,"velocity":0.3779527559055118,"duration":0.203125},{"name":"D4","midi":62,"time":197.12187500000024,"velocity":0.3779527559055118,"duration":0.11979166666665719},{"name":"B3","midi":59,"time":197.1260416666669,"velocity":0.33858267716535434,"duration":0.14583333333331439},{"name":"B4","midi":71,"time":197.84583333333356,"velocity":0.3543307086614173,"duration":0.7041666666666231},{"name":"E2","midi":40,"time":197.94479166666687,"velocity":0.3228346456692913,"duration":0.24999999999997158},{"name":"B5","midi":83,"time":197.95729166666686,"velocity":0.5354330708661418,"duration":1.6958333333333258},{"name":"G3","midi":55,"time":198.7770833333335,"velocity":0.31496062992125984,"duration":0.11250000000001137},{"name":"B3","midi":59,"time":198.77916666666684,"velocity":0.33858267716535434,"duration":0.15729166666667993},{"name":"D5","midi":74,"time":199.4958333333335,"velocity":0.3937007874015748,"duration":0.9114583333333712},{"name":"D2","midi":38,"time":199.63541666666686,"velocity":0.2677165354330709,"duration":0.2864583333333428},{"name":"D6","midi":86,"time":199.7250000000002,"velocity":0.47244094488188976,"duration":0.6979166666666856},{"name":"A3","midi":57,"time":200.57604166666687,"velocity":0.2204724409448819,"duration":0.21875},{"name":"F#3","midi":54,"time":200.60729166666687,"velocity":0.2440944881889764,"duration":0.11041666666667993},{"name":"C2","midi":36,"time":201.6718750000002,"velocity":0.16535433070866143,"duration":0.33020833333333144},{"name":"G4","midi":67,"time":201.70104166666687,"velocity":0.28346456692913385,"duration":5.484375000000028},{"name":"G3","midi":55,"time":202.76354166666687,"velocity":0.14173228346456693,"duration":0.23958333333331439},{"name":"E3","midi":52,"time":202.7718750000002,"velocity":0.16535433070866143,"duration":0.2135416666666572},{"name":"G3","midi":55,"time":203.57812500000017,"velocity":0.25984251968503935,"duration":0.13125000000002274},{"name":"B3","midi":59,"time":203.5833333333335,"velocity":0.2440944881889764,"duration":0.14375000000001137},{"name":"A3","midi":57,"time":204.3968750000002,"velocity":0.2047244094488189,"duration":0.21458333333333712},{"name":"G3","midi":55,"time":204.40416666666687,"velocity":0.1889763779527559,"duration":0.15416666666666856},{"name":"E3","midi":52,"time":206.25208333333353,"velocity":0.1732283464566929,"duration":0.3020833333333428},{"name":"G3","midi":55,"time":206.26458333333352,"velocity":0.15748031496062992,"duration":0.3635416666666913},{"name":"G3","midi":55,"time":207.14895833333355,"velocity":0.23622047244094488,"duration":0.11979166666668561},{"name":"B3","midi":59,"time":207.15104166666688,"velocity":0.2125984251968504,"duration":0.17395833333335986},{"name":"G3","midi":55,"time":208.07604166666692,"velocity":0.2047244094488189,"duration":0.19583333333332575},{"name":"A3","midi":57,"time":208.08437500000025,"velocity":0.2283464566929134,"duration":0.20520833333333144}],"controlChanges":{"64":[{"number":64,"time":14.344791666666666,"value":1},{"number":64,"time":17.215625000000006,"value":0},{"number":64,"time":17.55625000000001,"value":1},{"number":64,"time":20.39375000000001,"value":0},{"number":64,"time":20.726041666666678,"value":1},{"number":64,"time":23.61979166666668,"value":0},{"number":64,"time":23.835416666666678,"value":1},{"number":64,"time":26.814583333333342,"value":0},{"number":64,"time":27.14895833333334,"value":1},{"number":64,"time":29.932291666666675,"value":0},{"number":64,"time":30.267708333333342,"value":1},{"number":64,"time":33.165625000000006,"value":0},{"number":64,"time":33.48645833333334,"value":1},{"number":64,"time":36.456250000000004,"value":0},{"number":64,"time":36.63958333333334,"value":1},{"number":64,"time":39.74375,"value":0},{"number":64,"time":40.014583333333334,"value":1},{"number":64,"time":42.856250000000024,"value":0},{"number":64,"time":43.128125000000026,"value":1},{"number":64,"time":46.13437500000001,"value":0},{"number":64,"time":46.370833333333344,"value":1},{"number":64,"time":49.36458333333335,"value":0},{"number":64,"time":49.53229166666668,"value":1},{"number":64,"time":52.65937500000001,"value":0},{"number":64,"time":52.91875000000001,"value":1},{"number":64,"time":55.93229166666668,"value":0},{"number":64,"time":56.147916666666674,"value":1},{"number":64,"time":59.27083333333335,"value":0},{"number":64,"time":59.47083333333335,"value":1},{"number":64,"time":62.49791666666668,"value":0},{"number":64,"time":62.660416666666684,"value":1},{"number":64,"time":65.67083333333335,"value":0},{"number":64,"time":66.00625000000002,"value":1},{"number":64,"time":68.165625,"value":0},{"number":64,"time":68.39791666666666,"value":1},{"number":64,"time":68.9375,"value":0},{"number":64,"time":69.228125,"value":1},{"number":64,"time":71.55208333333334,"value":0},{"number":64,"time":71.71145833333334,"value":1},{"number":64,"time":72.259375,"value":0},{"number":64,"time":72.57500000000002,"value":1},{"number":64,"time":74.99270833333335,"value":0},{"number":64,"time":75.1572916666667,"value":1},{"number":64,"time":75.7479166666667,"value":0},{"number":64,"time":76.07604166666668,"value":1},{"number":64,"time":76.66041666666669,"value":0},{"number":64,"time":76.77604166666669,"value":1},{"number":64,"time":79.11458333333333,"value":0},{"number":64,"time":79.43124999999999,"value":1},{"number":64,"time":81.73020833333331,"value":0},{"number":64,"time":82.0020833333333,"value":1},{"number":64,"time":82.55729166666664,"value":0},{"number":64,"time":82.9052083333333,"value":1},{"number":64,"time":85.24791666666665,"value":0},{"number":64,"time":85.46770833333332,"value":1},{"number":64,"time":86.07499999999999,"value":0},{"number":64,"time":86.48229166666665,"value":1},{"number":64,"time":89.59270833333336,"value":0},{"number":64,"time":89.82812500000003,"value":1},{"number":64,"time":93.28229166666668,"value":0},{"number":64,"time":93.61041666666668,"value":1},{"number":64,"time":95.07812500000001,"value":0},{"number":64,"time":95.58958333333334,"value":1},{"number":64,"time":96.84166666666667,"value":0},{"number":64,"time":97.2125,"value":1},{"number":64,"time":100.31041666666667,"value":0},{"number":64,"time":100.578125,"value":1},{"number":64,"time":103.86458333333336,"value":0},{"number":64,"time":104.18854166666668,"value":1},{"number":64,"time":105.62812500000001,"value":0},{"number":64,"time":106.01979166666669,"value":1},{"number":64,"time":107.67500000000003,"value":0},{"number":64,"time":108.72604166666669,"value":1},{"number":64,"time":111.24375000000002,"value":0},{"number":64,"time":111.4635416666667,"value":1},{"number":64,"time":115.2572916666667,"value":0},{"number":64,"time":115.56562500000003,"value":1},{"number":64,"time":118.63125000000005,"value":0},{"number":64,"time":118.85520833333338,"value":1},{"number":64,"time":121.88125000000005,"value":0},{"number":64,"time":122.18125000000005,"value":1},{"number":64,"time":125.40000000000008,"value":0},{"number":64,"time":125.59166666666674,"value":1},{"number":64,"time":128.7729166666667,"value":0},{"number":64,"time":129.06145833333338,"value":1},{"number":64,"time":132.07187500000003,"value":0},{"number":64,"time":132.35520833333337,"value":1},{"number":64,"time":135.38645833333337,"value":0},{"number":64,"time":135.69375000000005,"value":1},{"number":64,"time":138.77916666666673,"value":0},{"number":64,"time":139.00312500000007,"value":1},{"number":64,"time":142.02500000000012,"value":0},{"number":64,"time":142.27708333333345,"value":1},{"number":64,"time":145.28020833333346,"value":0},{"number":64,"time":145.52395833333347,"value":1},{"number":64,"time":148.60000000000008,"value":0},{"number":64,"time":148.86979166666677,"value":1},{"number":64,"time":151.86354166666675,"value":0},{"number":64,"time":152.0718750000001,"value":1},{"number":64,"time":155.08958333333345,"value":0},{"number":64,"time":155.4093750000001,"value":1},{"number":64,"time":158.30833333333348,"value":0},{"number":64,"time":158.61666666666682,"value":1},{"number":64,"time":161.54687500000014,"value":0},{"number":64,"time":161.90104166666686,"value":1},{"number":64,"time":164.92395833333356,"value":0},{"number":64,"time":165.11562500000022,"value":1},{"number":64,"time":168.43958333333356,"value":0},{"number":64,"time":169.30208333333357,"value":1},{"number":64,"time":170.09791666666692,"value":0},{"number":64,"time":170.42500000000027,"value":1},{"number":64,"time":171.7395833333336,"value":0},{"number":64,"time":172.1958333333336,"value":1},{"number":64,"time":175.1697916666669,"value":0},{"number":64,"time":175.4416666666669,"value":1},{"number":64,"time":178.4364583333336,"value":0},{"number":64,"time":178.8489583333336,"value":1},{"number":64,"time":180.07187500000026,"value":0},{"number":64,"time":180.45937500000025,"value":1},{"number":64,"time":181.80208333333357,"value":0},{"number":64,"time":182.2510416666669,"value":1},{"number":64,"time":185.17604166666692,"value":0},{"number":64,"time":185.42812500000025,"value":1},{"number":64,"time":188.32291666666688,"value":0},{"number":64,"time":188.56250000000023,"value":1},{"number":64,"time":189.82187500000026,"value":0},{"number":64,"time":190.05000000000027,"value":1},{"number":64,"time":191.41354166666696,"value":0},{"number":64,"time":191.70937500000028,"value":1},{"number":64,"time":194.74270833333358,"value":0},{"number":64,"time":194.98229166666692,"value":1},{"number":64,"time":197.92083333333355,"value":0},{"number":64,"time":198.16458333333352,"value":1},{"number":64,"time":199.63229166666684,"value":0},{"number":64,"time":199.92083333333352,"value":1},{"number":64,"time":201.65104166666686,"value":0},{"number":64,"time":201.97083333333353,"value":1},{"number":64,"time":206.01145833333354,"value":0},{"number":64,"time":206.4593750000002,"value":1}]},"id":2,"name":"MIDI in","channelNumber":0,"isPercussion":false},{"startTime":208.75104166666668,"duration":394.48229166666624,"length":552,"notes":[{"name":"B4","midi":71,"time":208.75104166666668,"velocity":0.3937007874015748,"duration":0.828125},{"name":"D5","midi":74,"time":208.83437500000002,"velocity":0.6220472440944882,"duration":0.765625},{"name":"B2","midi":47,"time":208.85833333333335,"velocity":0.25984251968503935,"duration":0.26249999999998863},{"name":"D4","midi":62,"time":209.6385416666667,"velocity":0.2677165354330709,"duration":0.08437499999999432},{"name":"B3","midi":59,"time":209.64583333333337,"velocity":0.2440944881889764,"duration":0.039583333333325754},{"name":"A4","midi":69,"time":210.15833333333336,"velocity":0.44881889763779526,"duration":0.6937499999999943},{"name":"C5","midi":72,"time":210.24270833333335,"velocity":0.6062992125984252,"duration":0.6135416666666629},{"name":"A2","midi":45,"time":210.2791666666667,"velocity":0.25984251968503935,"duration":0.10520833333333712},{"name":"C4","midi":60,"time":210.86041666666668,"velocity":0.3464566929133858,"duration":0.09062499999998863},{"name":"A3","midi":57,"time":210.8625,"velocity":0.2992125984251969,"duration":0.09375},{"name":"G4","midi":67,"time":211.33437500000002,"velocity":0.44881889763779526,"duration":0.6479166666666458},{"name":"B4","midi":71,"time":211.41770833333334,"velocity":0.6456692913385826,"duration":0.5614583333333201},{"name":"G2","midi":43,"time":211.46354166666666,"velocity":0.3228346456692913,"duration":0.09062499999998863},{"name":"G3","midi":55,"time":211.96145833333333,"velocity":0.3543307086614173,"duration":0.07291666666665719},{"name":"B3","midi":59,"time":211.96666666666667,"velocity":0.3464566929133858,"duration":0.06145833333332007},{"name":"F#4","midi":66,"time":212.41979166666664,"velocity":0.44881889763779526,"duration":0.6708333333333485},{"name":"A4","midi":69,"time":212.52291666666665,"velocity":0.6535433070866141,"duration":0.5541666666666742},{"name":"F#2","midi":42,"time":212.55520833333333,"velocity":0.3464566929133858,"duration":0.10416666666665719},{"name":"F#3","midi":54,"time":213.09895833333331,"velocity":0.3937007874015748,"duration":0.09166666666666856},{"name":"A3","midi":57,"time":213.1052083333333,"velocity":0.3779527559055118,"duration":0.06874999999999432},{"name":"E4","midi":64,"time":213.53854166666665,"velocity":0.4881889763779528,"duration":0.7187499999999716},{"name":"G4","midi":67,"time":213.64166666666662,"velocity":0.6062992125984252,"duration":0.609375},{"name":"E2","midi":40,"time":213.66562499999995,"velocity":0.3543307086614173,"duration":0.11458333333334281},{"name":"G3","midi":55,"time":214.26145833333328,"velocity":0.3700787401574803,"duration":0.07916666666665151},{"name":"E3","midi":52,"time":214.26770833333327,"velocity":0.31496062992125984,"duration":0.08020833333333144},{"name":"D4","midi":62,"time":214.74895833333326,"velocity":0.47244094488188976,"duration":0.8510416666666742},{"name":"F#4","midi":66,"time":214.9104166666666,"velocity":0.5905511811023622,"duration":0.8416666666666686},{"name":"D2","midi":38,"time":214.94583333333327,"velocity":0.33858267716535434,"duration":0.1927083333333428},{"name":"D3","midi":50,"time":215.67916666666662,"velocity":0.25196850393700787,"duration":0.08645833333332575},{"name":"F#3","midi":54,"time":215.7010416666666,"velocity":0.29133858267716534,"duration":0.11041666666665151},{"name":"B3","midi":59,"time":216.3166666666666,"velocity":0.30708661417322836,"duration":1.0406250000000057},{"name":"C2","midi":36,"time":216.5072916666666,"velocity":0.30708661417322836,"duration":0.3427083333333485},{"name":"E4","midi":64,"time":216.56770833333326,"velocity":0.33070866141732286,"duration":3.9374999999999716},{"name":"G3","midi":55,"time":217.39895833333327,"velocity":0.1889763779527559,"duration":0.24895833333332007},{"name":"E3","midi":52,"time":217.40520833333326,"velocity":0.2047244094488189,"duration":0.24895833333332007},{"name":"G3","midi":55,"time":218.1260416666666,"velocity":0.2440944881889764,"duration":0.10104166666664582},{"name":"B3","midi":59,"time":218.13437499999992,"velocity":0.29133858267716534,"duration":0.1833333333333087},{"name":"G3","midi":55,"time":218.83333333333323,"velocity":0.25196850393700787,"duration":0.10312500000000568},{"name":"E3","midi":52,"time":218.83958333333322,"velocity":0.1968503937007874,"duration":0.11145833333333144},{"name":"C2","midi":36,"time":219.54479166666655,"velocity":0.2992125984251969,"duration":0.22187500000001137},{"name":"G3","midi":55,"time":220.28958333333324,"velocity":0.1889763779527559,"duration":0.08229166666666288},{"name":"E3","midi":52,"time":220.31249999999991,"velocity":0.14173228346456693,"duration":0.18645833333332007},{"name":"G3","midi":55,"time":220.96041666666656,"velocity":0.30708661417322836,"duration":0.11041666666665151},{"name":"B3","midi":59,"time":220.96666666666655,"velocity":0.2204724409448819,"duration":0.18645833333332007},{"name":"D4","midi":62,"time":221.67604166666655,"velocity":0.2283464566929134,"duration":0.11041666666667993},{"name":"B3","midi":59,"time":221.7020833333332,"velocity":0.14173228346456693,"duration":0.05208333333334281},{"name":"A2","midi":45,"time":222.58333333333323,"velocity":0.2755905511811024,"duration":0.3166666666666913},{"name":"C5","midi":72,"time":222.60208333333324,"velocity":0.4409448818897638,"duration":1.5302083333333485},{"name":"C4","midi":60,"time":223.43437499999993,"velocity":0.23622047244094488,"duration":0.09166666666666856},{"name":"A3","midi":57,"time":223.45833333333326,"velocity":0.2204724409448819,"duration":0.05208333333334281},{"name":"G2","midi":43,"time":224.09687499999993,"velocity":0.30708661417322836,"duration":0.203125},{"name":"B4","midi":71,"time":224.1197916666666,"velocity":0.5275590551181102,"duration":1.2822916666666515},{"name":"B3","midi":59,"time":224.75312499999993,"velocity":0.2440944881889764,"duration":0.08541666666664582},{"name":"G3","midi":55,"time":224.77708333333325,"velocity":0.2204724409448819,"duration":0.04583333333332007},{"name":"F#2","midi":42,"time":225.3718749999999,"velocity":0.3543307086614173,"duration":0.17291666666667993},{"name":"A4","midi":69,"time":225.37916666666658,"velocity":0.48031496062992124,"duration":1.2666666666667368},{"name":"F#3","midi":54,"time":226.01562499999994,"velocity":0.3779527559055118,"duration":0.19583333333335418},{"name":"A3","midi":57,"time":226.02499999999995,"velocity":0.36220472440944884,"duration":0.07395833333333712},{"name":"G4","midi":67,"time":226.62187499999996,"velocity":0.5196850393700787,"duration":1.576041666666697},{"name":"E2","midi":40,"time":226.62499999999997,"velocity":0.4094488188976378,"duration":0.15208333333333712},{"name":"G3","midi":55,"time":227.29479166666664,"velocity":0.36220472440944884,"duration":0.13854166666666856},{"name":"E3","midi":52,"time":227.29687499999997,"velocity":0.29133858267716534,"duration":0.1354166666666572},{"name":"D#2","midi":39,"time":228.10208333333333,"velocity":0.28346456692913385,"duration":0.3218750000000057},{"name":"F#4","midi":66,"time":228.16354166666665,"velocity":0.49606299212598426,"duration":4.468750000000057},{"name":"D#3","midi":51,"time":228.921875,"velocity":0.3700787401574803,"duration":0.7520833333333599},{"name":"A3","midi":57,"time":228.92291666666668,"velocity":0.3464566929133858,"duration":0.7479166666666686},{"name":"B3","midi":59,"time":230.21875000000003,"velocity":0.2992125984251969,"duration":0.07604166666666856},{"name":"D#3","midi":51,"time":230.22083333333336,"velocity":0.2992125984251969,"duration":0.12708333333333144},{"name":"D#2","midi":39,"time":230.8104166666667,"velocity":0.4015748031496063,"duration":0.23958333333331439},{"name":"A3","midi":57,"time":231.44479166666667,"velocity":0.3937007874015748,"duration":0.5885416666666856},{"name":"D#3","midi":51,"time":231.47708333333335,"velocity":0.3700787401574803,"duration":0.559375000000017},{"name":"B3","midi":59,"time":232.62708333333336,"velocity":0.2755905511811024,"duration":0.08333333333334281},{"name":"D#3","midi":51,"time":232.6291666666667,"velocity":0.33070866141732286,"duration":0.10625000000001705},{"name":"F#4","midi":66,"time":233.1354166666667,"velocity":0.47244094488188976,"duration":0.09375},{"name":"G4","midi":67,"time":233.2364583333334,"velocity":0.5433070866141733,"duration":4.636458333333394},{"name":"A2","midi":45,"time":233.25937500000006,"velocity":0.33070866141732286,"duration":0.35104166666667425},{"name":"C4","midi":60,"time":234.04375000000007,"velocity":0.2755905511811024,"duration":0.4364583333333485},{"name":"A3","midi":57,"time":234.05000000000007,"velocity":0.25984251968503935,"duration":0.3802083333333428},{"name":"A3","midi":57,"time":235.1062500000001,"velocity":0.18110236220472442,"duration":0.11250000000001137},{"name":"B3","midi":59,"time":235.1218750000001,"velocity":0.25984251968503935,"duration":0.06041666666666856},{"name":"A2","midi":45,"time":235.70208333333343,"velocity":0.3464566929133858,"duration":0.23750000000001137},{"name":"A3","midi":57,"time":236.34687500000013,"velocity":0.30708661417322836,"duration":0.22083333333333144},{"name":"C4","midi":60,"time":236.35833333333346,"velocity":0.33858267716535434,"duration":0.6895833333333314},{"name":"B3","midi":59,"time":237.46666666666678,"velocity":0.25196850393700787,"duration":0.10520833333333712},{"name":"A3","midi":57,"time":237.47395833333346,"velocity":0.25984251968503935,"duration":0.12395833333332007},{"name":"A4","midi":69,"time":237.75208333333345,"velocity":0.4881889763779528,"duration":0.5364583333333428},{"name":"G2","midi":43,"time":238.13020833333346,"velocity":0.2440944881889764,"duration":0.40416666666666856},{"name":"B4","midi":71,"time":238.26250000000013,"velocity":0.5118110236220472,"duration":3.709374999999966},{"name":"G3","midi":55,"time":238.91979166666678,"velocity":0.2677165354330709,"duration":0.2020833333333485},{"name":"B3","midi":59,"time":238.9385416666668,"velocity":0.29133858267716534,"duration":0.3708333333333371},{"name":"A3","midi":57,"time":239.9979166666668,"velocity":0.25984251968503935,"duration":0.10624999999998863},{"name":"G3","midi":55,"time":240.02812500000013,"velocity":0.2283464566929134,"duration":0.09375},{"name":"G2","midi":43,"time":240.57500000000013,"velocity":0.3228346456692913,"duration":0.22499999999999432},{"name":"G3","midi":55,"time":241.17500000000013,"velocity":0.3464566929133858,"duration":0.2760416666666572},{"name":"B3","midi":59,"time":241.17500000000013,"velocity":0.31496062992125984,"duration":0.4697916666666515},{"name":"A3","midi":57,"time":242.18645833333343,"velocity":0.31496062992125984,"duration":0.13333333333332575},{"name":"G3","midi":55,"time":242.20416666666677,"velocity":0.2755905511811024,"duration":0.13124999999999432},{"name":"B4","midi":71,"time":242.61145833333342,"velocity":0.47244094488188976,"duration":0.13124999999999432},{"name":"A4","midi":69,"time":242.70937500000008,"velocity":0.5354330708661418,"duration":3.4697916666666515},{"name":"F#2","midi":42,"time":242.74583333333342,"velocity":0.3858267716535433,"duration":0.18645833333332007},{"name":"B3","midi":59,"time":243.30416666666673,"velocity":0.3937007874015748,"duration":0.46770833333332007},{"name":"F#3","midi":54,"time":243.31250000000006,"velocity":0.4409448818897638,"duration":0.49895833333332007},{"name":"F#3","midi":54,"time":244.37083333333337,"velocity":0.3228346456692913,"duration":0.11875000000000568},{"name":"A3","midi":57,"time":244.3885416666667,"velocity":0.3464566929133858,"duration":0.06354166666667993},{"name":"F#2","midi":42,"time":244.92083333333338,"velocity":0.4645669291338583,"duration":0.1875},{"name":"B3","midi":59,"time":245.48750000000004,"velocity":0.4330708661417323,"duration":0.39166666666667993},{"name":"F#3","midi":54,"time":245.48958333333337,"velocity":0.44881889763779526,"duration":0.3645833333333428},{"name":"F#3","midi":54,"time":246.5864583333334,"velocity":0.4094488188976378,"duration":0.08645833333332575},{"name":"A3","midi":57,"time":246.59166666666675,"velocity":0.3858267716535433,"duration":0.05104166666666288},{"name":"G4","midi":67,"time":247.04062500000006,"velocity":0.5118110236220472,"duration":0.12812500000001137},{"name":"D#2","midi":39,"time":247.16875000000007,"velocity":0.4330708661417323,"duration":0.2593750000000057},{"name":"A4","midi":69,"time":247.17395833333342,"velocity":0.6220472440944882,"duration":3.5166666666665947},{"name":"F#3","midi":54,"time":247.8583333333334,"velocity":0.4566929133858268,"duration":0.4385416666666515},{"name":"B3","midi":59,"time":247.86250000000007,"velocity":0.4251968503937008,"duration":0.4895833333333144},{"name":"F#3","midi":54,"time":248.93020833333338,"velocity":0.4015748031496063,"duration":0.10416666666665719},{"name":"A3","midi":57,"time":248.93437500000005,"velocity":0.3937007874015748,"duration":0.06458333333333144},{"name":"D#2","midi":39,"time":249.47083333333336,"velocity":0.5039370078740157,"duration":0.22812499999997726},{"name":"A3","midi":57,"time":250.09895833333334,"velocity":0.4881889763779528,"duration":1.203125},{"name":"F#3","midi":54,"time":250.11354166666666,"velocity":0.48031496062992124,"duration":0.48750000000001137},{"name":"F#3","midi":54,"time":251.31770833333334,"velocity":0.4566929133858268,"duration":0.16562500000000568},{"name":"B3","midi":59,"time":251.321875,"velocity":0.4566929133858268,"duration":0.109375},{"name":"A4","midi":69,"time":251.6125,"velocity":0.48031496062992124,"duration":0.10624999999998863},{"name":"B4","midi":71,"time":251.71979166666668,"velocity":0.6141732283464567,"duration":0.12916666666666288},{"name":"C5","midi":72,"time":251.85833333333335,"velocity":0.6299212598425197,"duration":0.7645833333333485},{"name":"A2","midi":45,"time":251.8635416666667,"velocity":0.48031496062992124,"duration":0.16770833333333712},{"name":"A4","midi":69,"time":251.86458333333337,"velocity":0.6062992125984252,"duration":0.9270833333333144},{"name":"E4","midi":64,"time":251.8916666666667,"velocity":0.47244094488188976,"duration":0.502083333333303},{"name":"A3","midi":57,"time":252.39583333333334,"velocity":0.4251968503937008,"duration":0.08125000000001137},{"name":"C4","midi":60,"time":252.39687500000002,"velocity":0.4409448818897638,"duration":0.07187500000000568},{"name":"D5","midi":74,"time":252.6604166666667,"velocity":0.48031496062992124,"duration":0.15208333333333712},{"name":"C5","midi":72,"time":252.76562500000003,"velocity":0.6456692913385826,"duration":0.13125000000002274},{"name":"G4","midi":67,"time":252.8822916666667,"velocity":0.5511811023622047,"duration":0.7177083333333769},{"name":"B4","midi":71,"time":252.88437500000003,"velocity":0.6850393700787402,"duration":0.6593750000000398},{"name":"G2","midi":43,"time":252.8854166666667,"velocity":0.47244094488188976,"duration":0.125},{"name":"G3","midi":55,"time":253.3458333333334,"velocity":0.44881889763779526,"duration":0.055208333333354176},{"name":"B3","midi":59,"time":253.3489583333334,"velocity":0.4330708661417323,"duration":0.05937500000001705},{"name":"C5","midi":72,"time":253.60625000000007,"velocity":0.5354330708661418,"duration":0.10416666666665719},{"name":"B4","midi":71,"time":253.72916666666674,"velocity":0.4566929133858268,"duration":0.13645833333336554},{"name":"F#2","midi":42,"time":253.81250000000009,"velocity":0.49606299212598426,"duration":0.1291666666666913},{"name":"F#4","midi":66,"time":253.81979166666676,"velocity":0.5748031496062992,"duration":0.796875},{"name":"A4","midi":69,"time":253.82083333333344,"velocity":0.6062992125984252,"duration":0.3125},{"name":"A3","midi":57,"time":254.32916666666677,"velocity":0.5196850393700787,"duration":0.052083333333314386},{"name":"F#3","midi":54,"time":254.34375000000009,"velocity":0.49606299212598426,"duration":0.052083333333314386},{"name":"B4","midi":71,"time":254.56875000000008,"velocity":0.5590551181102362,"duration":0.2239583333333428},{"name":"A4","midi":69,"time":254.67812500000008,"velocity":0.5669291338582677,"duration":0.17395833333335986},{"name":"E4","midi":64,"time":254.80416666666676,"velocity":0.5669291338582677,"duration":1.0093750000000057},{"name":"G4","midi":67,"time":254.80729166666677,"velocity":0.6062992125984252,"duration":0.48541666666667993},{"name":"E2","midi":40,"time":254.82291666666677,"velocity":0.5196850393700787,"duration":0.1458333333333428},{"name":"G3","midi":55,"time":255.37708333333345,"velocity":0.4409448818897638,"duration":0.08229166666666288},{"name":"E3","midi":52,"time":255.38854166666678,"velocity":0.4330708661417323,"duration":0.05833333333333712},{"name":"A4","midi":69,"time":255.73333333333343,"velocity":0.49606299212598426,"duration":0.1416666666666515},{"name":"G4","midi":67,"time":255.82916666666677,"velocity":0.5354330708661418,"duration":0.22916666666668561},{"name":"D#2","midi":39,"time":256.0406250000001,"velocity":0.5118110236220472,"duration":0.31875000000002274},{"name":"F#4","midi":66,"time":256.0562500000001,"velocity":0.6141732283464567,"duration":3.6395833333332916},{"name":"D#4","midi":63,"time":256.08437500000014,"velocity":0.5039370078740157,"duration":3.5989583333332575},{"name":"A3","midi":57,"time":256.7656250000001,"velocity":0.44881889763779526,"duration":0.9239583333333599},{"name":"D#3","midi":51,"time":256.7843750000001,"velocity":0.4330708661417323,"duration":0.49270833333332575},{"name":"B3","midi":59,"time":257.8625000000001,"velocity":0.3228346456692913,"duration":0.053124999999965894},{"name":"D#3","midi":51,"time":257.88645833333345,"velocity":0.30708661417322836,"duration":0.08854166666662877},{"name":"D#2","midi":39,"time":258.3791666666667,"velocity":0.4566929133858268,"duration":0.21666666666669698},{"name":"A3","midi":57,"time":258.98750000000007,"velocity":0.4251968503937008,"duration":1.2437499999999773},{"name":"D#3","midi":51,"time":259.00312500000007,"velocity":0.4330708661417323,"duration":0.48750000000001137},{"name":"B3","midi":59,"time":260.20833333333337,"velocity":0.30708661417322836,"duration":0.11041666666665151},{"name":"D#3","midi":51,"time":260.2229166666667,"velocity":0.2283464566929134,"duration":0.1416666666666515},{"name":"G4","midi":67,"time":260.55625000000003,"velocity":0.3700787401574803,"duration":0.09791666666666288},{"name":"A4","midi":69,"time":260.6760416666667,"velocity":0.4566929133858268,"duration":0.11041666666665151},{"name":"B4","midi":71,"time":260.8166666666667,"velocity":0.4409448818897638,"duration":3.361458333333246},{"name":"G4","midi":67,"time":260.83333333333337,"velocity":0.33858267716535434,"duration":3.296874999999943},{"name":"A2","midi":45,"time":260.846875,"velocity":0.2677165354330709,"duration":0.27916666666664014},{"name":"A3","midi":57,"time":261.4520833333333,"velocity":0.33858267716535434,"duration":0.25},{"name":"C4","midi":60,"time":261.46145833333327,"velocity":0.28346456692913385,"duration":0.19062500000001137},{"name":"B3","midi":59,"time":262.51354166666664,"velocity":0.2047244094488189,"duration":0.057291666666685614},{"name":"A3","midi":57,"time":262.53541666666666,"velocity":0.11023622047244094,"duration":0.06041666666664014},{"name":"A2","midi":45,"time":263.04166666666663,"velocity":0.2755905511811024,"duration":0.08958333333333712},{"name":"A3","midi":57,"time":263.63124999999997,"velocity":0.30708661417322836,"duration":0.13020833333331439},{"name":"C4","midi":60,"time":263.6479166666666,"velocity":0.2677165354330709,"duration":0.16354166666667425},{"name":"B3","midi":59,"time":264.8052083333333,"velocity":0.25984251968503935,"duration":0.09270833333334849},{"name":"A3","midi":57,"time":264.85833333333335,"velocity":0.1889763779527559,"duration":0.04791666666665151},{"name":"B4","midi":71,"time":265.1125,"velocity":0.3464566929133858,"duration":0.06875000000002274},{"name":"A4","midi":69,"time":265.2135416666667,"velocity":0.47244094488188976,"duration":0.15208333333333712},{"name":"B4","midi":71,"time":265.38020833333337,"velocity":0.5433070866141733,"duration":3.015625000000057},{"name":"G2","midi":43,"time":265.3916666666667,"velocity":0.2283464566929134,"duration":0.2739583333333826},{"name":"G4","midi":67,"time":265.42187500000006,"velocity":0.33858267716535434,"duration":3.058333333333394},{"name":"G3","midi":55,"time":266.01145833333345,"velocity":0.28346456692913385,"duration":0.22708333333332575},{"name":"B3","midi":59,"time":266.0250000000001,"velocity":0.2992125984251969,"duration":0.341666666666697},{"name":"A3","midi":57,"time":267.05520833333344,"velocity":0.2677165354330709,"duration":0.0999999999999659},{"name":"G3","midi":55,"time":267.0645833333334,"velocity":0.2440944881889764,"duration":0.10104166666667425},{"name":"G2","midi":43,"time":267.56979166666673,"velocity":0.31496062992125984,"duration":0.2177083333333485},{"name":"G3","midi":55,"time":268.1531250000001,"velocity":0.25196850393700787,"duration":0.23020833333333712},{"name":"B3","midi":59,"time":268.1770833333334,"velocity":0.2755905511811024,"duration":0.26875000000001137},{"name":"A3","midi":57,"time":269.27395833333344,"velocity":0.1968503937007874,"duration":0.05624999999997726},{"name":"G3","midi":55,"time":269.2854166666668,"velocity":0.1889763779527559,"duration":0.05833333333328028},{"name":"B4","midi":71,"time":269.56250000000006,"velocity":0.33858267716535434,"duration":0.12708333333335986},{"name":"A4","midi":69,"time":269.7125000000001,"velocity":0.44881889763779526,"duration":0.06666666666666288},{"name":"F#2","midi":42,"time":269.92500000000007,"velocity":0.3779527559055118,"duration":0.23750000000001137},{"name":"A4","midi":69,"time":269.9395833333334,"velocity":0.5039370078740157,"duration":3.155208333333235},{"name":"F#4","midi":66,"time":269.9593750000001,"velocity":0.3779527559055118,"duration":3.2010416666665833},{"name":"B3","midi":59,"time":270.57291666666674,"velocity":0.31496062992125984,"duration":0.2114583333333826},{"name":"F#3","midi":54,"time":270.5750000000001,"velocity":0.29133858267716534,"duration":0.18333333333333712},{"name":"F#3","midi":54,"time":271.6125000000001,"velocity":0.2992125984251969,"duration":0.07604166666664014},{"name":"A3","midi":57,"time":271.61770833333344,"velocity":0.3228346456692913,"duration":0.055208333333325754},{"name":"F#2","midi":42,"time":272.1333333333334,"velocity":0.36220472440944884,"duration":0.20520833333330302},{"name":"F#3","midi":54,"time":272.69687500000003,"velocity":0.30708661417322836,"duration":0.24791666666664014},{"name":"B3","midi":59,"time":272.69687500000003,"velocity":0.33070866141732286,"duration":0.3468749999999545},{"name":"A3","midi":57,"time":273.8020833333333,"velocity":0.23622047244094488,"duration":0.06354166666670835},{"name":"F#3","midi":54,"time":273.8041666666667,"velocity":0.2755905511811024,"duration":0.08958333333333712},{"name":"A4","midi":69,"time":274.06666666666666,"velocity":0.4015748031496063,"duration":0.11250000000001137},{"name":"G4","midi":67,"time":274.18854166666665,"velocity":0.49606299212598426,"duration":0.1395833333333485},{"name":"D#2","midi":39,"time":274.3364583333333,"velocity":0.3700787401574803,"duration":0.18645833333329165},{"name":"A4","midi":69,"time":274.3375,"velocity":0.5511811023622047,"duration":3.1499999999999773},{"name":"D#4","midi":63,"time":274.34999999999997,"velocity":0.4566929133858268,"duration":3.1395833333333485},{"name":"B3","midi":59,"time":274.92499999999995,"velocity":0.3937007874015748,"duration":0.47708333333332575},{"name":"F#3","midi":54,"time":274.9385416666666,"velocity":0.3700787401574803,"duration":0.4572916666666629},{"name":"F#3","midi":54,"time":276.0093749999999,"velocity":0.3228346456692913,"duration":0.11562500000002274},{"name":"A3","midi":57,"time":276.0135416666666,"velocity":0.36220472440944884,"duration":0.08020833333335986},{"name":"D#2","midi":39,"time":276.52812499999993,"velocity":0.5039370078740157,"duration":0.25833333333332575},{"name":"F#3","midi":54,"time":277.1447916666666,"velocity":0.4566929133858268,"duration":0.3677083333333826},{"name":"A3","midi":57,"time":277.1447916666666,"velocity":0.4409448818897638,"duration":0.7645833333334053},{"name":"B3","midi":59,"time":278.25,"velocity":0.48031496062992124,"duration":0.056250000000034106},{"name":"F#3","midi":54,"time":278.26875,"velocity":0.4015748031496063,"duration":0.06770833333337123},{"name":"A4","midi":69,"time":278.5447916666667,"velocity":0.49606299212598426,"duration":0.15937500000001137},{"name":"B4","midi":71,"time":278.6697916666667,"velocity":0.5748031496062992,"duration":0.17291666666670835},{"name":"A4","midi":69,"time":278.7927083333334,"velocity":0.3937007874015748,"duration":0.497916666666697},{"name":"A2","midi":45,"time":278.8052083333334,"velocity":0.4645669291338583,"duration":0.1187500000000341},{"name":"C5","midi":72,"time":278.80937500000005,"velocity":0.6929133858267716,"duration":0.41354166666667425},{"name":"E4","midi":64,"time":278.81250000000006,"velocity":0.4881889763779528,"duration":0.7562499999999659},{"name":"A3","midi":57,"time":279.25729166666673,"velocity":0.4094488188976378,"duration":0.046875},{"name":"C4","midi":60,"time":279.2583333333334,"velocity":0.4409448818897638,"duration":0.03020833333334849},{"name":"D5","midi":74,"time":279.5166666666667,"velocity":0.6062992125984252,"duration":0.18229166666662877},{"name":"C5","midi":72,"time":279.62708333333336,"velocity":0.5590551181102362,"duration":0.19166666666660603},{"name":"G2","midi":43,"time":279.775,"velocity":0.5433070866141733,"duration":0.07499999999998863},{"name":"B4","midi":71,"time":279.775,"velocity":0.6062992125984252,"duration":0.2864583333333144},{"name":"G4","midi":67,"time":279.7833333333333,"velocity":0.6062992125984252,"duration":0.3645833333333144},{"name":"D4","midi":62,"time":279.7833333333333,"velocity":0.5354330708661418,"duration":0.7416666666666742},{"name":"G3","midi":55,"time":280.24479166666663,"velocity":0.5354330708661418,"duration":0.05312500000002274},{"name":"B3","midi":59,"time":280.2489583333333,"velocity":0.4645669291338583,"duration":0.03437500000001137},{"name":"C5","midi":72,"time":280.45937499999997,"velocity":0.5826771653543307,"duration":0.14791666666667425},{"name":"B4","midi":71,"time":280.55104166666666,"velocity":0.5275590551181102,"duration":0.16562499999992042},{"name":"F#2","midi":42,"time":280.70312499999994,"velocity":0.5826771653543307,"duration":0.11770833333326891},{"name":"F#4","midi":66,"time":280.7145833333333,"velocity":0.6614173228346457,"duration":0.4229166666666515},{"name":"A4","midi":69,"time":280.71562499999993,"velocity":0.6299212598425197,"duration":0.29062499999997726},{"name":"D#4","midi":63,"time":280.73333333333323,"velocity":0.6299212598425197,"duration":0.6791666666666742},{"name":"F#3","midi":54,"time":281.1760416666666,"velocity":0.49606299212598426,"duration":0.06249999999994316},{"name":"A3","midi":57,"time":281.17708333333326,"velocity":0.49606299212598426,"duration":0.052083333333314386},{"name":"B4","midi":71,"time":281.4020833333332,"velocity":0.6141732283464567,"duration":0.21562499999998863},{"name":"A4","midi":69,"time":281.4999999999999,"velocity":0.5354330708661418,"duration":0.21666666666664014},{"name":"E2","midi":40,"time":281.6583333333332,"velocity":0.5118110236220472,"duration":0.14583333333331439},{"name":"G4","midi":67,"time":281.6583333333332,"velocity":0.5984251968503937,"duration":0.6812499999999773},{"name":"E4","midi":64,"time":281.6666666666665,"velocity":0.5511811023622047,"duration":1.0499999999999545},{"name":"B3","midi":59,"time":281.6770833333332,"velocity":0.5511811023622047,"duration":0.9010416666666288},{"name":"E3","midi":52,"time":282.20624999999984,"velocity":0.5433070866141733,"duration":0.10104166666667425},{"name":"G3","midi":55,"time":282.20624999999984,"velocity":0.5433070866141733,"duration":0.08541666666667425},{"name":"A4","midi":69,"time":282.4947916666665,"velocity":0.5590551181102362,"duration":0.40104166666662877},{"name":"G4","midi":67,"time":282.6604166666665,"velocity":0.5669291338582677,"duration":0.361458333333303},{"name":"D2","midi":38,"time":282.92708333333314,"velocity":0.4409448818897638,"duration":0.3822916666666174},{"name":"D4","midi":62,"time":282.9468749999998,"velocity":0.49606299212598426,"duration":4.73020833333328},{"name":"F#4","midi":66,"time":282.95104166666647,"velocity":0.6692913385826772,"duration":4.66979166666664},{"name":"A3","midi":57,"time":283.72291666666644,"velocity":0.3228346456692913,"duration":0.34895833333337123},{"name":"F#3","midi":54,"time":283.7406249999998,"velocity":0.36220472440944884,"duration":0.38749999999998863},{"name":"B3","midi":59,"time":284.7687499999998,"velocity":0.25984251968503935,"duration":0.08854166666668561},{"name":"F#3","midi":54,"time":284.77916666666647,"velocity":0.29133858267716534,"duration":0.078125},{"name":"D2","midi":38,"time":285.28124999999983,"velocity":0.33858267716535434,"duration":0.06770833333331439},{"name":"A3","midi":57,"time":285.8374999999998,"velocity":0.3464566929133858,"duration":0.34687500000001137},{"name":"F#3","midi":54,"time":285.8479166666665,"velocity":0.3464566929133858,"duration":0.3177083333333144},{"name":"F#3","midi":54,"time":286.9541666666665,"velocity":0.2677165354330709,"duration":0.13645833333328028},{"name":"B3","midi":59,"time":286.96354166666646,"velocity":0.2992125984251969,"duration":0.10208333333332575},{"name":"E4","midi":64,"time":287.6572916666664,"velocity":0.3464566929133858,"duration":3.5562499999999204},{"name":"C2","midi":36,"time":287.6614583333331,"velocity":0.2992125984251969,"duration":0.24895833333329165},{"name":"G4","midi":67,"time":287.66249999999974,"velocity":0.3937007874015748,"duration":3.3885416666665833},{"name":"A3","midi":57,"time":288.36458333333303,"velocity":0.2677165354330709,"duration":0.5593749999999886},{"name":"E3","midi":52,"time":288.373958333333,"velocity":0.1889763779527559,"duration":0.15833333333335986},{"name":"E3","midi":52,"time":289.39062499999966,"velocity":0.2047244094488189,"duration":0.09375},{"name":"G3","midi":55,"time":289.3947916666663,"velocity":0.2283464566929134,"duration":0.08229166666666288},{"name":"C2","midi":36,"time":289.96249999999964,"velocity":0.31496062992125984,"duration":0.14999999999997726},{"name":"E3","midi":52,"time":290.53541666666626,"velocity":0.23622047244094488,"duration":0.14375000000001137},{"name":"A3","midi":57,"time":290.5395833333329,"velocity":0.25984251968503935,"duration":0.36041666666670835},{"name":"E3","midi":52,"time":291.59687499999967,"velocity":0.14960629921259844,"duration":0.14166666666670835},{"name":"G3","midi":55,"time":291.61249999999967,"velocity":0.2047244094488189,"duration":0.09583333333335986},{"name":"A1","midi":33,"time":292.27395833333304,"velocity":0.2992125984251969,"duration":0.2437500000000341},{"name":"G4","midi":67,"time":292.2854166666664,"velocity":0.4094488188976378,"duration":3.917708333333451},{"name":"C4","midi":60,"time":292.2916666666664,"velocity":0.3779527559055118,"duration":3.897916666666788},{"name":"A3","midi":57,"time":293.02812499999976,"velocity":0.2440944881889764,"duration":0.2760416666666856},{"name":"E3","midi":52,"time":293.0447916666664,"velocity":0.2047244094488189,"duration":0.17812500000002274},{"name":"E3","midi":52,"time":294.1281249999998,"velocity":0.2204724409448819,"duration":0.12187499999998863},{"name":"G3","midi":55,"time":294.14791666666645,"velocity":0.25984251968503935,"duration":0.09375},{"name":"A1","midi":33,"time":294.7593749999998,"velocity":0.3543307086614173,"duration":0.22083333333335986},{"name":"E3","midi":52,"time":295.4239583333332,"velocity":0.2047244094488189,"duration":0.2281250000000341},{"name":"A3","midi":57,"time":295.4427083333332,"velocity":0.16535433070866143,"duration":0.28125},{"name":"G3","midi":55,"time":296.6760416666665,"velocity":0.1889763779527559,"duration":0.14270833333330302},{"name":"E3","midi":52,"time":296.70104166666647,"velocity":0.1732283464566929,"duration":0.14895833333332575},{"name":"E1","midi":28,"time":297.4749999999998,"velocity":0.29133858267716534,"duration":0.267708333333303},{"name":"G4","midi":67,"time":297.4999999999998,"velocity":0.25984251968503935,"duration":5.739583333333314},{"name":"B3","midi":59,"time":297.5083333333331,"velocity":0.1889763779527559,"duration":5.592708333333292},{"name":"A3","midi":57,"time":298.2812499999998,"velocity":0.2677165354330709,"duration":0.345833333333303},{"name":"E3","midi":52,"time":298.3052083333331,"velocity":0.2204724409448819,"duration":0.24687499999998863},{"name":"G3","midi":55,"time":299.62187499999976,"velocity":0.1968503937007874,"duration":0.1395833333333485},{"name":"E3","midi":52,"time":299.6249999999998,"velocity":0.14960629921259844,"duration":0.19270833333331439},{"name":"E1","midi":28,"time":300.6739583333331,"velocity":0.2125984251968504,"duration":2.4968749999999886},{"name":"B4","midi":71,"time":306.1979166666664,"velocity":0.3464566929133858,"duration":4.951041666666697},{"name":"G4","midi":67,"time":306.2010416666664,"velocity":0.33070866141732286,"duration":4.958333333333371},{"name":"G2","midi":43,"time":306.20729166666644,"velocity":0.2283464566929134,"duration":0.30416666666667425},{"name":"G3","midi":55,"time":307.12916666666644,"velocity":0.1732283464566929,"duration":0.2406249999999659},{"name":"B3","midi":59,"time":307.1385416666664,"velocity":0.25984251968503935,"duration":0.2406249999999659},{"name":"E4","midi":64,"time":307.96979166666637,"velocity":0.2283464566929134,"duration":0.13229166666667425},{"name":"B3","midi":59,"time":307.98229166666636,"velocity":0.2047244094488189,"duration":0.10416666666668561},{"name":"D4","midi":62,"time":308.7249999999997,"velocity":0.25984251968503935,"duration":0.13958333333340533},{"name":"B3","midi":59,"time":308.7312499999997,"velocity":0.2283464566929134,"duration":0.11145833333335986},{"name":"G2","midi":43,"time":309.53020833333306,"velocity":0.2440944881889764,"duration":0.13541666666668561},{"name":"G3","midi":55,"time":310.3510416666664,"velocity":0.25196850393700787,"duration":0.26666666666670835},{"name":"B3","midi":59,"time":310.3510416666664,"velocity":0.2283464566929134,"duration":0.21354166666668561},{"name":"B3","midi":59,"time":311.1624999999998,"velocity":0.2440944881889764,"duration":0.11250000000001137},{"name":"E4","midi":64,"time":311.1687499999998,"velocity":0.2755905511811024,"duration":0.10208333333332575},{"name":"B4","midi":71,"time":311.69791666666646,"velocity":0.3858267716535433,"duration":0.3322916666666629},{"name":"G4","midi":67,"time":311.7020833333331,"velocity":0.30708661417322836,"duration":1.1635416666666174},{"name":"D2","midi":38,"time":312.00208333333313,"velocity":0.29133858267716534,"duration":0.8437499999999432},{"name":"B4","midi":71,"time":312.80729166666646,"velocity":0.33858267716535434,"duration":4.642708333333189},{"name":"D5","midi":74,"time":312.8124999999998,"velocity":0.4409448818897638,"duration":4.588541666666572},{"name":"C2","midi":36,"time":312.82499999999976,"velocity":0.30708661417322836,"duration":0.33020833333335986},{"name":"B3","midi":59,"time":313.65833333333313,"velocity":0.2677165354330709,"duration":0.28958333333332575},{"name":"D4","midi":62,"time":313.6874999999998,"velocity":0.2047244094488189,"duration":0.46875},{"name":"B3","midi":59,"time":314.4958333333331,"velocity":0.2047244094488189,"duration":0.15208333333333712},{"name":"E4","midi":64,"time":314.49687499999976,"velocity":0.23622047244094488,"duration":0.3635416666666629},{"name":"B3","midi":59,"time":315.3260416666664,"velocity":0.18110236220472442,"duration":0.20624999999995453},{"name":"D4","midi":62,"time":315.3260416666664,"velocity":0.23622047244094488,"duration":0.18124999999997726},{"name":"C2","midi":36,"time":316.12291666666636,"velocity":0.2440944881889764,"duration":0.2770833333333371},{"name":"D4","midi":62,"time":316.93541666666636,"velocity":0.2440944881889764,"duration":0.4895833333333144},{"name":"B3","midi":59,"time":316.94270833333303,"velocity":0.2677165354330709,"duration":0.23124999999998863},{"name":"B3","midi":59,"time":317.7760416666663,"velocity":0.2047244094488189,"duration":0.1885416666666515},{"name":"E4","midi":64,"time":317.79270833333294,"velocity":0.23622047244094488,"duration":0.13125000000002274},{"name":"E5","midi":76,"time":318.3229166666663,"velocity":0.3937007874015748,"duration":0.2979166666666515},{"name":"B4","midi":71,"time":318.32708333333295,"velocity":0.3228346456692913,"duration":0.2916666666666856},{"name":"D2","midi":38,"time":318.6197916666663,"velocity":0.33858267716535434,"duration":0.8937500000000114},{"name":"B4","midi":71,"time":319.4916666666663,"velocity":0.3779527559055118,"duration":2.107291666666697},{"name":"G4","midi":67,"time":319.4979166666663,"velocity":0.2677165354330709,"duration":2.183333333333337},{"name":"G2","midi":43,"time":319.5031249999996,"velocity":0.25196850393700787,"duration":0.2906250000000341},{"name":"G3","midi":55,"time":320.40937499999967,"velocity":0.1968503937007874,"duration":0.28229166666670835},{"name":"B3","midi":59,"time":320.41979166666636,"velocity":0.25984251968503935,"duration":0.23645833333335986},{"name":"E4","midi":64,"time":321.22395833333303,"velocity":0.23622047244094488,"duration":0.15520833333329165},{"name":"B3","midi":59,"time":321.22916666666634,"velocity":0.23622047244094488,"duration":0.15312499999998863},{"name":"D4","midi":62,"time":322.09583333333296,"velocity":0.1732283464566929,"duration":0.1572916666666515},{"name":"B3","midi":59,"time":322.117708333333,"velocity":0.15748031496062992,"duration":0.13437499999997726},{"name":"B4","midi":71,"time":322.5468749999996,"velocity":0.4330708661417323,"duration":0.11041666666665151},{"name":"G4","midi":67,"time":322.5833333333329,"velocity":0.29133858267716534,"duration":0.10208333333332575},{"name":"A4","midi":69,"time":322.6989583333329,"velocity":0.41732283464566927,"duration":0.1552083333333485},{"name":"F#4","midi":66,"time":322.78437499999956,"velocity":0.2204724409448819,"duration":0.06562500000001137},{"name":"B4","midi":71,"time":322.86979166666623,"velocity":0.4094488188976378,"duration":1.3093749999999318},{"name":"G4","midi":67,"time":322.8770833333329,"velocity":0.33858267716535434,"duration":1.2468749999999318},{"name":"G2","midi":43,"time":322.88541666666623,"velocity":0.2283464566929134,"duration":0.26041666666662877},{"name":"G3","midi":55,"time":323.6885416666662,"velocity":0.2125984251968504,"duration":0.3489583333333144},{"name":"B3","midi":59,"time":323.6937499999995,"velocity":0.2125984251968504,"duration":0.22500000000002274},{"name":"B3","midi":59,"time":324.5281249999995,"velocity":0.2204724409448819,"duration":0.06145833333334849},{"name":"E4","midi":64,"time":324.55104166666615,"velocity":0.2047244094488189,"duration":0.07083333333332575},{"name":"G4","midi":67,"time":324.9791666666661,"velocity":0.3543307086614173,"duration":0.4052083333333485},{"name":"B4","midi":71,"time":324.98749999999944,"velocity":0.41732283464566927,"duration":0.36041666666670835},{"name":"D2","midi":38,"time":325.3302083333328,"velocity":0.25984251968503935,"duration":0.7437500000000341},{"name":"C2","midi":36,"time":326.10833333333284,"velocity":0.3700787401574803,"duration":0.392708333333303},{"name":"D5","midi":74,"time":326.1093749999995,"velocity":0.4566929133858268,"duration":0.5249999999999773},{"name":"B4","midi":71,"time":326.1177083333328,"velocity":0.4251968503937008,"duration":6.070833333333383},{"name":"E5","midi":76,"time":326.6635416666661,"velocity":0.2992125984251969,"duration":5.454166666666765},{"name":"D4","midi":62,"time":326.96666666666613,"velocity":0.2440944881889764,"duration":0.5614583333333485},{"name":"B3","midi":59,"time":327.00312499999944,"velocity":0.2755905511811024,"duration":0.30416666666667425},{"name":"E4","midi":64,"time":327.81145833333284,"velocity":0.2125984251968504,"duration":0.33020833333335986},{"name":"B3","midi":59,"time":327.81979166666616,"velocity":0.2440944881889764,"duration":0.16354166666667425},{"name":"B3","midi":59,"time":328.6416666666662,"velocity":0.18110236220472442,"duration":0.19687499999997726},{"name":"D4","midi":62,"time":328.6510416666662,"velocity":0.18110236220472442,"duration":0.17500000000001137},{"name":"C2","midi":36,"time":329.4635416666662,"velocity":0.33070866141732286,"duration":0.26770833333335986},{"name":"B3","midi":59,"time":330.2916666666662,"velocity":0.25196850393700787,"duration":0.14375000000001137},{"name":"D4","midi":62,"time":330.31145833333284,"velocity":0.15748031496062992,"duration":0.497916666666697},{"name":"B3","midi":59,"time":331.0885416666662,"velocity":0.2283464566929134,"duration":0.08125000000001137},{"name":"E4","midi":64,"time":331.09270833333284,"velocity":0.2677165354330709,"duration":0.08541666666667425},{"name":"D2","midi":38,"time":331.93645833333284,"velocity":0.33070866141732286,"duration":0.9125000000000227},{"name":"D4","midi":62,"time":332.7874999999995,"velocity":0.4251968503937008,"duration":0.8572916666666401},{"name":"B4","midi":71,"time":332.8020833333328,"velocity":0.4094488188976378,"duration":2.0843750000001364},{"name":"G2","midi":43,"time":332.81666666666615,"velocity":0.33858267716535434,"duration":0.30312500000002274},{"name":"G4","midi":67,"time":332.8187499999995,"velocity":0.4251968503937008,"duration":2.089583333333451},{"name":"B3","midi":59,"time":333.67916666666616,"velocity":0.29133858267716534,"duration":0.16145833333337123},{"name":"G3","midi":55,"time":333.70520833333285,"velocity":0.16535433070866143,"duration":0.28645833333337123},{"name":"E4","midi":64,"time":334.48229166666624,"velocity":0.31496062992125984,"duration":0.14166666666670835},{"name":"B3","midi":59,"time":334.4968749999996,"velocity":0.25196850393700787,"duration":0.18541666666669698},{"name":"D4","midi":62,"time":335.3041666666663,"velocity":0.30708661417322836,"duration":0.06666666666666288},{"name":"B3","midi":59,"time":335.3520833333329,"velocity":0.16535433070866143,"duration":0.04270833333333712},{"name":"D4","midi":62,"time":335.7208333333329,"velocity":0.4330708661417323,"duration":0.06041666666669698},{"name":"B4","midi":71,"time":335.73229166666624,"velocity":0.4251968503937008,"duration":0.078125},{"name":"G4","midi":67,"time":335.7593749999996,"velocity":0.3779527559055118,"duration":0.11979166666668561},{"name":"F#4","midi":66,"time":335.9124999999996,"velocity":0.5196850393700787,"duration":0.10520833333333712},{"name":"C4","midi":60,"time":335.91770833333294,"velocity":0.3700787401574803,"duration":0.05000000000001137},{"name":"A4","midi":69,"time":335.9187499999996,"velocity":0.4566929133858268,"duration":0.1020833333333826},{"name":"D4","midi":62,"time":336.095833333333,"velocity":0.5196850393700787,"duration":0.8177083333333144},{"name":"G4","midi":67,"time":336.11249999999967,"velocity":0.4409448818897638,"duration":0.7479166666666401},{"name":"B4","midi":71,"time":336.11979166666634,"velocity":0.4881889763779528,"duration":0.8333333333333144},{"name":"G2","midi":43,"time":336.120833333333,"velocity":0.3937007874015748,"duration":0.2874999999999659},{"name":"G3","midi":55,"time":336.90937499999967,"velocity":0.29133858267716534,"duration":0.24687499999998863},{"name":"B3","midi":59,"time":336.939583333333,"velocity":0.25984251968503935,"duration":0.19166666666666288},{"name":"E4","midi":64,"time":337.6885416666663,"velocity":0.3543307086614173,"duration":0.04479166666664014},{"name":"B3","midi":59,"time":337.71770833333295,"velocity":0.25984251968503935,"duration":0.09687500000001137},{"name":"D4","midi":62,"time":338.177083333333,"velocity":0.4566929133858268,"duration":0.30520833333332575},{"name":"B4","midi":71,"time":338.1854166666663,"velocity":0.5118110236220472,"duration":0.830208333333303},{"name":"G4","midi":67,"time":338.1906249999996,"velocity":0.4251968503937008,"duration":0.7416666666666742},{"name":"D2","midi":38,"time":338.4854166666663,"velocity":0.4645669291338583,"duration":0.8218749999999773},{"name":"D4","midi":62,"time":338.9843749999996,"velocity":0.3779527559055118,"duration":0.015625},{"name":"C2","midi":36,"time":339.2895833333329,"velocity":0.4409448818897638,"duration":0.3270833333333485},{"name":"D5","midi":74,"time":339.30833333333294,"velocity":0.5433070866141733,"duration":0.31562500000001137},{"name":"B4","midi":71,"time":339.3124999999996,"velocity":0.5118110236220472,"duration":0.2552083333333144},{"name":"G4","midi":67,"time":339.3177083333329,"velocity":0.4566929133858268,"duration":0.25312500000001137},{"name":"B4","midi":71,"time":339.78541666666626,"velocity":0.3464566929133858,"duration":5.330208333333189},{"name":"E5","midi":76,"time":339.79479166666624,"velocity":0.4409448818897638,"duration":5.291666666666572},{"name":"G4","midi":67,"time":339.80104166666626,"velocity":0.31496062992125984,"duration":5.340624999999875},{"name":"B3","midi":59,"time":340.1041666666663,"velocity":0.2992125984251969,"duration":0.5010416666666515},{"name":"D4","midi":62,"time":340.1093749999996,"velocity":0.33858267716535434,"duration":0.5208333333333144},{"name":"B3","midi":59,"time":340.9239583333329,"velocity":0.3779527559055118,"duration":0.35208333333332575},{"name":"E4","midi":64,"time":340.93541666666624,"velocity":0.31496062992125984,"duration":0.375},{"name":"B3","midi":59,"time":341.7583333333329,"velocity":0.2755905511811024,"duration":0.1010416666666174},{"name":"D4","midi":62,"time":341.7739583333329,"velocity":0.25984251968503935,"duration":0.05624999999997726},{"name":"C2","midi":36,"time":342.6010416666662,"velocity":0.44881889763779526,"duration":0.21458333333333712},{"name":"D4","midi":62,"time":343.3927083333329,"velocity":0.3464566929133858,"duration":0.5770833333332916},{"name":"B3","midi":59,"time":343.3979166666662,"velocity":0.33070866141732286,"duration":0.21249999999997726},{"name":"B3","midi":59,"time":344.18437499999953,"velocity":0.31496062992125984,"duration":0.13854166666664014},{"name":"E4","midi":64,"time":344.18958333333285,"velocity":0.36220472440944884,"duration":0.13749999999998863},{"name":"D2","midi":38,"time":345.01979166666615,"velocity":0.4409448818897638,"duration":0.8177083333334281},{"name":"D4","midi":62,"time":345.82708333333284,"velocity":0.5275590551181102,"duration":0.7572916666667311},{"name":"G2","midi":43,"time":345.8291666666662,"velocity":0.33070866141732286,"duration":0.31770833333337123},{"name":"B4","midi":71,"time":345.83124999999956,"velocity":0.5354330708661418,"duration":2.207291666666663},{"name":"G4","midi":67,"time":345.8374999999996,"velocity":0.4409448818897638,"duration":2.2468749999999886},{"name":"B3","midi":59,"time":346.6760416666662,"velocity":0.2047244094488189,"duration":0.12083333333333712},{"name":"G3","midi":55,"time":346.67708333333286,"velocity":0.23622047244094488,"duration":0.24062500000002274},{"name":"B3","midi":59,"time":347.4552083333329,"velocity":0.3937007874015748,"duration":0.23958333333331439},{"name":"E4","midi":64,"time":347.4624999999996,"velocity":0.3858267716535433,"duration":0.22395833333331439},{"name":"D4","midi":62,"time":348.29999999999956,"velocity":0.2677165354330709,"duration":0.011458333333337123},{"name":"B3","midi":59,"time":348.32083333333287,"velocity":0.2283464566929134,"duration":0.055208333333325754},{"name":"B4","midi":71,"time":348.67499999999956,"velocity":0.4251968503937008,"duration":0.07395833333328028},{"name":"D4","midi":62,"time":348.6885416666662,"velocity":0.31496062992125984,"duration":0.03229166666665151},{"name":"G4","midi":67,"time":348.69270833333286,"velocity":0.4330708661417323,"duration":0.1468749999999659},{"name":"C4","midi":60,"time":348.87604166666614,"velocity":0.25196850393700787,"duration":0.03437500000001137},{"name":"A4","midi":69,"time":348.87916666666615,"velocity":0.4330708661417323,"duration":0.07395833333333712},{"name":"F#4","midi":66,"time":348.8864583333328,"velocity":0.44881889763779526,"duration":0.05833333333333712},{"name":"G4","midi":67,"time":349.03645833333286,"velocity":0.4094488188976378,"duration":1.4791666666666856},{"name":"D4","midi":62,"time":349.05520833333287,"velocity":0.49606299212598426,"duration":0.9010416666666288},{"name":"G2","midi":43,"time":349.0614583333329,"velocity":0.30708661417322836,"duration":0.23749999999995453},{"name":"B4","midi":71,"time":349.0739583333329,"velocity":0.4251968503937008,"duration":1.3999999999999773},{"name":"G3","midi":55,"time":349.8593749999995,"velocity":0.2992125984251969,"duration":0.21354166666668561},{"name":"B3","midi":59,"time":349.8749999999995,"velocity":0.29133858267716534,"duration":0.16979166666669698},{"name":"B3","midi":59,"time":350.6552083333329,"velocity":0.28346456692913385,"duration":0.0718750000000341},{"name":"E4","midi":64,"time":350.6583333333329,"velocity":0.2992125984251969,"duration":0.0625},{"name":"B4","midi":71,"time":351.08229166666626,"velocity":0.48031496062992124,"duration":0.45104166666664014},{"name":"D4","midi":62,"time":351.08958333333294,"velocity":0.4566929133858268,"duration":0.41562499999997726},{"name":"G4","midi":67,"time":351.09479166666625,"velocity":0.4330708661417323,"duration":0.5593749999999886},{"name":"G3","midi":55,"time":351.4156249999996,"velocity":0.3543307086614173,"duration":0.04270833333333712},{"name":"D4","midi":62,"time":351.67812499999957,"velocity":0.4330708661417323,"duration":0.19999999999998863},{"name":"A4","midi":69,"time":351.6791666666662,"velocity":0.4645669291338583,"duration":0.4739583333333144},{"name":"F#4","midi":66,"time":351.69791666666623,"velocity":0.4330708661417323,"duration":0.1708333333333485},{"name":"G4","midi":67,"time":352.2249999999995,"velocity":0.4015748031496063,"duration":5.211458333333212},{"name":"E4","midi":64,"time":352.22708333333287,"velocity":0.3228346456692913,"duration":5.181249999999864},{"name":"G2","midi":43,"time":352.24479166666623,"velocity":0.30708661417322836,"duration":0.2864583333333144},{"name":"C4","midi":60,"time":352.2572916666662,"velocity":0.2755905511811024,"duration":5.276041666666515},{"name":"E3","midi":52,"time":353.06249999999955,"velocity":0.2283464566929134,"duration":0.29062499999997726},{"name":"C3","midi":48,"time":353.0916666666662,"velocity":0.1732283464566929,"duration":0.22083333333335986},{"name":"G3","midi":55,"time":353.8624999999995,"velocity":0.2204724409448819,"duration":0.2895833333332689},{"name":"E3","midi":52,"time":353.86354166666615,"velocity":0.2204724409448819,"duration":0.09166666666664014},{"name":"E3","midi":52,"time":354.68749999999943,"velocity":0.14173228346456693,"duration":0.203125},{"name":"C3","midi":48,"time":354.69895833333277,"velocity":0.16535433070866143,"duration":0.13125000000002274},{"name":"E3","midi":52,"time":356.2697916666661,"velocity":0.1889763779527559,"duration":0.18958333333330302},{"name":"C3","midi":48,"time":356.2697916666661,"velocity":0.12598425196850394,"duration":0.14583333333331439},{"name":"G3","midi":55,"time":357.0479166666661,"velocity":0.2677165354330709,"duration":0.09479166666665151},{"name":"E3","midi":52,"time":357.08854166666606,"velocity":0.1889763779527559,"duration":0.04895833333335986},{"name":"C3","midi":48,"time":357.83333333333275,"velocity":0.2283464566929134,"duration":0.1729166666666515},{"name":"E3","midi":52,"time":357.8374999999994,"velocity":0.1732283464566929,"duration":0.11250000000001137},{"name":"B4","midi":71,"time":358.6843749999994,"velocity":0.48031496062992124,"duration":0.8625000000000114},{"name":"D4","midi":62,"time":358.6843749999994,"velocity":0.4251968503937008,"duration":0.8968750000000227},{"name":"B3","midi":59,"time":358.69062499999944,"velocity":0.33858267716535434,"duration":0.9635416666666288},{"name":"B2","midi":47,"time":358.6979166666661,"velocity":0.2283464566929134,"duration":0.8874999999999886},{"name":"E2","midi":40,"time":358.72812499999947,"velocity":0.1889763779527559,"duration":0.8666666666666174},{"name":"E3","midi":52,"time":358.73749999999944,"velocity":0.2125984251968504,"duration":0.7749999999999773},{"name":"D4","midi":62,"time":360.3864583333327,"velocity":0.4094488188976378,"duration":0.9802083333333371},{"name":"A3","midi":57,"time":360.3885416666661,"velocity":0.3543307086614173,"duration":0.9062499999999432},{"name":"A4","midi":69,"time":360.3885416666661,"velocity":0.4566929133858268,"duration":0.8156250000000114},{"name":"D3","midi":50,"time":360.3916666666661,"velocity":0.25984251968503935,"duration":0.8781249999999545},{"name":"F#2","midi":42,"time":360.40833333333273,"velocity":0.3464566929133858,"duration":0.9510416666666401},{"name":"D2","midi":38,"time":360.41666666666606,"velocity":0.1889763779527559,"duration":0.7927083333333371},{"name":"G4","midi":67,"time":362.02083333333275,"velocity":0.3937007874015748,"duration":5.581250000000125},{"name":"E4","midi":64,"time":362.02083333333275,"velocity":0.4015748031496063,"duration":5.729166666666799},{"name":"G3","midi":55,"time":362.03124999999943,"velocity":0.2992125984251969,"duration":0.8697916666666856},{"name":"C3","midi":48,"time":362.0406249999994,"velocity":0.2047244094488189,"duration":0.7760416666666856},{"name":"C2","midi":36,"time":362.0562499999994,"velocity":0.2047244094488189,"duration":0.6937500000000227},{"name":"G2","midi":43,"time":362.06249999999943,"velocity":0.2283464566929134,"duration":0.7510416666666515},{"name":"B3","midi":59,"time":363.68124999999947,"velocity":0.2047244094488189,"duration":0.26354166666664014},{"name":"G3","midi":55,"time":363.6927083333328,"velocity":0.18110236220472442,"duration":0.19687499999997726},{"name":"G3","midi":55,"time":364.42812499999945,"velocity":0.1732283464566929,"duration":0.21354166666668561},{"name":"E3","midi":52,"time":364.4833333333328,"velocity":0.13385826771653545,"duration":0.1802083333333826},{"name":"G3","midi":55,"time":366.8885416666662,"velocity":0.2204724409448819,"duration":0.125},{"name":"B3","midi":59,"time":366.89270833333285,"velocity":0.2204724409448819,"duration":0.20520833333335986},{"name":"G3","midi":55,"time":367.7072916666662,"velocity":0.2440944881889764,"duration":0.10624999999998863},{"name":"E3","midi":52,"time":367.7416666666662,"velocity":0.1889763779527559,"duration":0.09895833333331439},{"name":"B4","midi":71,"time":368.52395833333287,"velocity":0.4881889763779528,"duration":0.6687500000000455},{"name":"D4","midi":62,"time":368.5270833333329,"velocity":0.4251968503937008,"duration":0.5770833333334053},{"name":"B3","midi":59,"time":368.5302083333329,"velocity":0.3779527559055118,"duration":0.5968750000000682},{"name":"B2","midi":47,"time":368.54791666666625,"velocity":0.2440944881889764,"duration":0.6531249999999886},{"name":"E3","midi":52,"time":368.5562499999996,"velocity":0.2204724409448819,"duration":0.6270833333333599},{"name":"E2","midi":40,"time":368.5729166666663,"velocity":0.2047244094488189,"duration":0.5375000000000227},{"name":"D5","midi":74,"time":370.1489583333329,"velocity":0.48031496062992124,"duration":0.5364583333333144},{"name":"D4","midi":62,"time":370.1583333333329,"velocity":0.3779527559055118,"duration":0.6479166666667311},{"name":"F#4","midi":66,"time":370.1583333333329,"velocity":0.4645669291338583,"duration":0.5989583333333712},{"name":"D3","midi":50,"time":370.1812499999996,"velocity":0.2677165354330709,"duration":0.6281250000000682},{"name":"A2","midi":45,"time":370.1864583333329,"velocity":0.2440944881889764,"duration":0.560416666666697},{"name":"A3","midi":57,"time":370.1864583333329,"velocity":0.33070866141732286,"duration":0.5416666666666856},{"name":"A2","midi":45,"time":371.8072916666663,"velocity":0.25984251968503935,"duration":0.7718749999999659},{"name":"G4","midi":67,"time":371.8124999999996,"velocity":0.36220472440944884,"duration":5.5010416666666515},{"name":"G3","midi":55,"time":371.81354166666625,"velocity":0.33070866141732286,"duration":0.7624999999999886},{"name":"E4","midi":64,"time":371.8249999999996,"velocity":0.36220472440944884,"duration":5.545833333333292},{"name":"E3","midi":52,"time":371.82708333333295,"velocity":0.25984251968503935,"duration":0.7614583333332803},{"name":"E2","midi":40,"time":371.8354166666663,"velocity":0.2204724409448819,"duration":0.6322916666666174},{"name":"B3","midi":59,"time":373.4520833333329,"velocity":0.2283464566929134,"duration":0.2541666666667197},{"name":"G3","midi":55,"time":373.46666666666624,"velocity":0.2047244094488189,"duration":0.18958333333335986},{"name":"G3","midi":55,"time":374.1781249999996,"velocity":0.1968503937007874,"duration":0.18541666666664014},{"name":"E3","midi":52,"time":374.2031249999996,"velocity":0.15748031496062992,"duration":0.17916666666667425},{"name":"G3","midi":55,"time":376.48541666666625,"velocity":0.25984251968503935,"duration":0.19895833333333712},{"name":"A3","midi":57,"time":376.4874999999996,"velocity":0.25984251968503935,"duration":0.2354166666666515},{"name":"G3","midi":55,"time":377.33854166666623,"velocity":0.2047244094488189,"duration":0.11145833333330302},{"name":"E3","midi":52,"time":377.35729166666624,"velocity":0.2125984251968504,"duration":0.1322916666666174},{"name":"D4","midi":62,"time":378.2458333333329,"velocity":0.4251968503937008,"duration":0.839583333333394},{"name":"B3","midi":59,"time":378.2510416666662,"velocity":0.3464566929133858,"duration":0.8010416666667197},{"name":"B4","midi":71,"time":378.25520833333286,"velocity":0.47244094488188976,"duration":0.6906250000000682},{"name":"F#2","midi":42,"time":378.26458333333284,"velocity":0.30708661417322836,"duration":0.5958333333334167},{"name":"F#1","midi":30,"time":378.2666666666662,"velocity":0.2992125984251969,"duration":1.0083333333334394},{"name":"A4","midi":69,"time":379.9041666666663,"velocity":0.4015748031496063,"duration":0.6979166666667425},{"name":"A3","midi":57,"time":379.90833333333296,"velocity":0.3228346456692913,"duration":0.8156250000000682},{"name":"D1","midi":26,"time":379.9104166666663,"velocity":0.2283464566929134,"duration":0.7781250000000455},{"name":"D4","midi":62,"time":379.9124999999997,"velocity":0.3937007874015748,"duration":0.8395833333333371},{"name":"D2","midi":38,"time":379.93541666666636,"velocity":0.08661417322834646,"duration":0.7250000000000227},{"name":"G3","midi":55,"time":381.683333333333,"velocity":0.1889763779527559,"duration":0.9187499999999886},{"name":"C2","midi":36,"time":381.6885416666663,"velocity":0.15748031496062992,"duration":0.7593750000000341},{"name":"E4","midi":64,"time":381.692708333333,"velocity":0.2755905511811024,"duration":5.15625},{"name":"C1","midi":24,"time":381.69791666666634,"velocity":0.14960629921259844,"duration":0.6645833333333258},{"name":"G4","midi":67,"time":381.7072916666663,"velocity":0.1732283464566929,"duration":5.010416666666629},{"name":"B3","midi":59,"time":383.36979166666634,"velocity":0.1889763779527559,"duration":0.20104166666669698},{"name":"G3","midi":55,"time":383.373958333333,"velocity":0.2204724409448819,"duration":0.1395833333333485},{"name":"E3","midi":52,"time":386.3031249999997,"velocity":0.14960629921259844,"duration":0.2104166666666174},{"name":"G3","midi":55,"time":386.30416666666633,"velocity":0.2047244094488189,"duration":0.17708333333331439},{"name":"D4","midi":62,"time":388.0187499999996,"velocity":0.3543307086614173,"duration":0.5989583333333144},{"name":"B4","midi":71,"time":388.0187499999996,"velocity":0.4015748031496063,"duration":0.5895833333333371},{"name":"B3","midi":59,"time":388.01979166666626,"velocity":0.31496062992125984,"duration":0.5843750000000227},{"name":"E1","midi":28,"time":388.0239583333329,"velocity":0.2125984251968504,"duration":0.5927083333333485},{"name":"E2","midi":40,"time":388.03541666666626,"velocity":0.2204724409448819,"duration":0.5458333333333485},{"name":"D5","midi":74,"time":389.6968749999996,"velocity":0.33070866141732286,"duration":0.611458333333303},{"name":"D4","midi":62,"time":389.70624999999956,"velocity":0.2283464566929134,"duration":0.7010416666666401},{"name":"F#4","midi":66,"time":389.7083333333329,"velocity":0.3700787401574803,"duration":0.6624999999999659},{"name":"F#1","midi":30,"time":389.7395833333329,"velocity":0.1732283464566929,"duration":0.7479166666666401},{"name":"F#2","midi":42,"time":389.7552083333329,"velocity":0.1889763779527559,"duration":0.580208333333303},{"name":"A0","midi":21,"time":391.7395833333329,"velocity":0.15748031496062992,"duration":3.3760416666666515},{"name":"G4","midi":67,"time":391.76979166666626,"velocity":0.2204724409448819,"duration":2.754166666666663},{"name":"A1","midi":33,"time":391.7781249999996,"velocity":0.2440944881889764,"duration":3.4812499999999886},{"name":"E4","midi":64,"time":391.80104166666626,"velocity":0.25984251968503935,"duration":2.7124999999999773},{"name":"G3","midi":55,"time":391.8052083333329,"velocity":0.2204724409448819,"duration":2.6770833333333144}],"controlChanges":{"64":[{"number":64,"time":208.80937500000002,"value":0},{"number":64,"time":209.15729166666668,"value":1},{"number":64,"time":210.22083333333336,"value":0},{"number":64,"time":210.54062500000003,"value":1},{"number":64,"time":211.37604166666668,"value":0},{"number":64,"time":211.69062499999998,"value":1},{"number":64,"time":212.4864583333333,"value":0},{"number":64,"time":212.79062499999998,"value":1},{"number":64,"time":213.61354166666663,"value":0},{"number":64,"time":213.91666666666663,"value":1},{"number":64,"time":214.87708333333327,"value":0},{"number":64,"time":215.32499999999993,"value":1},{"number":64,"time":216.42083333333326,"value":0},{"number":64,"time":216.8635416666666,"value":1},{"number":64,"time":219.52708333333322,"value":0},{"number":64,"time":219.68645833333323,"value":1},{"number":64,"time":222.5531249999999,"value":0},{"number":64,"time":222.92083333333326,"value":1},{"number":64,"time":224.0635416666666,"value":0},{"number":64,"time":224.37187499999993,"value":1},{"number":64,"time":225.3062499999999,"value":0},{"number":64,"time":225.84270833333326,"value":1},{"number":64,"time":226.57812499999997,"value":0},{"number":64,"time":227.02916666666664,"value":1},{"number":64,"time":228.08124999999998,"value":0},{"number":64,"time":228.40104166666666,"value":1},{"number":64,"time":230.8166666666667,"value":0},{"number":64,"time":231.0041666666667,"value":1},{"number":64,"time":233.20312500000006,"value":0},{"number":64,"time":233.5302083333334,"value":1},{"number":64,"time":235.70520833333345,"value":0},{"number":64,"time":235.86354166666678,"value":1},{"number":64,"time":238.05208333333346,"value":0},{"number":64,"time":238.48645833333345,"value":1},{"number":64,"time":240.5697916666668,"value":0},{"number":64,"time":240.71770833333346,"value":1},{"number":64,"time":242.65729166666674,"value":0},{"number":64,"time":242.95625000000007,"value":1},{"number":64,"time":244.89583333333337,"value":0},{"number":64,"time":245.07187500000003,"value":1},{"number":64,"time":247.11041666666674,"value":0},{"number":64,"time":247.4052083333334,"value":1},{"number":64,"time":249.4447916666667,"value":0},{"number":64,"time":249.67291666666668,"value":1},{"number":64,"time":251.80833333333334,"value":0},{"number":64,"time":252.07500000000002,"value":1},{"number":64,"time":252.8510416666667,"value":0},{"number":64,"time":253.05937500000005,"value":1},{"number":64,"time":253.78750000000008,"value":0},{"number":64,"time":253.99375000000012,"value":1},{"number":64,"time":254.79166666666674,"value":0},{"number":64,"time":255.05000000000013,"value":1},{"number":64,"time":256.0093750000001,"value":0},{"number":64,"time":256.32395833333345,"value":1},{"number":64,"time":258.3989583333334,"value":0},{"number":64,"time":258.5427083333334,"value":1},{"number":64,"time":260.7583333333334,"value":0},{"number":64,"time":261.07395833333334,"value":1},{"number":64,"time":265.34062500000005,"value":0},{"number":64,"time":265.6395833333334,"value":1},{"number":64,"time":267.55416666666673,"value":0},{"number":64,"time":267.69791666666674,"value":1},{"number":64,"time":269.88854166666675,"value":0},{"number":64,"time":270.14062500000006,"value":1},{"number":64,"time":272.1239583333334,"value":0},{"number":64,"time":272.2791666666667,"value":1},{"number":64,"time":274.25,"value":0},{"number":64,"time":274.57083333333327,"value":1},{"number":64,"time":276.5479166666666,"value":0},{"number":64,"time":276.73958333333326,"value":1},{"number":64,"time":278.7427083333334,"value":0},{"number":64,"time":278.98750000000007,"value":1},{"number":64,"time":279.76666666666665,"value":0},{"number":64,"time":279.96979166666665,"value":1},{"number":64,"time":280.69791666666663,"value":0},{"number":64,"time":280.8624999999999,"value":1},{"number":64,"time":281.6458333333332,"value":0},{"number":64,"time":281.8458333333332,"value":1},{"number":64,"time":282.9208333333331,"value":0},{"number":64,"time":283.25729166666645,"value":1},{"number":64,"time":287.59062499999976,"value":0},{"number":64,"time":287.8854166666664,"value":1},{"number":64,"time":292.2031249999997,"value":0},{"number":64,"time":292.5072916666664,"value":1},{"number":64,"time":294.72604166666645,"value":0},{"number":64,"time":294.9104166666665,"value":1},{"number":64,"time":297.4333333333331,"value":0},{"number":64,"time":297.7239583333331,"value":1},{"number":64,"time":305.0479166666664,"value":0},{"number":64,"time":306.40312499999976,"value":1},{"number":64,"time":312.79166666666646,"value":0},{"number":64,"time":313.0864583333331,"value":1},{"number":64,"time":316.12604166666637,"value":0},{"number":64,"time":316.2937499999997,"value":1},{"number":64,"time":319.48854166666626,"value":0},{"number":64,"time":319.711458333333,"value":1},{"number":64,"time":322.79687499999955,"value":0},{"number":64,"time":323.1010416666662,"value":1},{"number":64,"time":326.0885416666662,"value":0},{"number":64,"time":326.33541666666616,"value":1},{"number":64,"time":329.4385416666662,"value":0},{"number":64,"time":329.63749999999953,"value":1},{"number":64,"time":331.9322916666662,"value":0},{"number":64,"time":332.1156249999995,"value":1},{"number":64,"time":332.78854166666616,"value":0},{"number":64,"time":333.1072916666662,"value":1},{"number":64,"time":336.08541666666633,"value":0},{"number":64,"time":336.32187499999964,"value":1},{"number":64,"time":338.3052083333329,"value":0},{"number":64,"time":338.4604166666663,"value":1},{"number":64,"time":339.2843749999996,"value":0},{"number":64,"time":339.5281249999996,"value":1},{"number":64,"time":342.58124999999956,"value":0},{"number":64,"time":342.7854166666662,"value":1},{"number":64,"time":345.8083333333328,"value":0},{"number":64,"time":346.1395833333329,"value":1},{"number":64,"time":349.01458333333284,"value":0},{"number":64,"time":349.27812499999953,"value":1},{"number":64,"time":352.20833333333286,"value":0},{"number":64,"time":352.4760416666662,"value":1},{"number":64,"time":358.7083333333328,"value":0},{"number":64,"time":359.15624999999943,"value":1},{"number":64,"time":360.4281249999994,"value":0},{"number":64,"time":360.7802083333327,"value":1},{"number":64,"time":361.9906249999994,"value":0},{"number":64,"time":362.4791666666661,"value":1},{"number":64,"time":368.5708333333329,"value":0},{"number":64,"time":368.8385416666663,"value":1},{"number":64,"time":370.20624999999956,"value":0},{"number":64,"time":370.4895833333329,"value":1},{"number":64,"time":371.8489583333329,"value":0},{"number":64,"time":372.15729166666625,"value":1},{"number":64,"time":378.30520833333287,"value":0},{"number":64,"time":378.5927083333329,"value":1},{"number":64,"time":379.9531249999997,"value":0},{"number":64,"time":380.24791666666636,"value":1},{"number":64,"time":381.69479166666633,"value":0},{"number":64,"time":382.0510416666663,"value":1},{"number":64,"time":388.0864583333329,"value":0},{"number":64,"time":388.3624999999996,"value":1},{"number":64,"time":389.7427083333329,"value":0},{"number":64,"time":390.03437499999956,"value":1},{"number":64,"time":391.7895833333329,"value":0},{"number":64,"time":392.1177083333329,"value":1},{"number":64,"time":397.9531249999996,"value":0}]},"id":3,"name":"MIDI in","channelNumber":0,"isPercussion":false},{"startTime":398.31666666666666,"duration":416.6177083333333,"length":50,"notes":[{"name":"A4","midi":69,"time":398.31666666666666,"velocity":0.6456692913385826,"duration":0.24479166666662877},{"name":"B4","midi":71,"time":398.54791666666665,"velocity":0.6929133858267716,"duration":0.078125},{"name":"E2","midi":40,"time":398.734375,"velocity":0.5118110236220472,"duration":1.6104166666665947},{"name":"E3","midi":52,"time":398.81354166666665,"velocity":0.4015748031496063,"duration":1.2979166666666515},{"name":"C4","midi":60,"time":398.88124999999997,"velocity":0.4881889763779528,"duration":0.4468750000000341},{"name":"E4","midi":64,"time":398.91979166666664,"velocity":0.4881889763779528,"duration":0.3854166666666856},{"name":"A4","midi":69,"time":398.93854166666665,"velocity":0.6377952755905512,"duration":0.42812500000002274},{"name":"C5","midi":72,"time":398.99375,"velocity":0.6929133858267716,"duration":0.36041666666670835},{"name":"D5","midi":74,"time":400.00416666666666,"velocity":0.6456692913385826,"duration":0.18645833333329165},{"name":"C5","midi":72,"time":400.1677083333333,"velocity":0.6299212598425197,"duration":0.05104166666666288},{"name":"D2","midi":38,"time":400.35937499999994,"velocity":0.5039370078740157,"duration":2.0635416666667084},{"name":"D3","midi":50,"time":400.4291666666666,"velocity":0.3937007874015748,"duration":1.7333333333333485},{"name":"B3","midi":59,"time":400.49375,"velocity":0.4409448818897638,"duration":0.5364583333333712},{"name":"E4","midi":64,"time":400.54270833333334,"velocity":0.48031496062992124,"duration":0.48124999999998863},{"name":"A4","midi":69,"time":400.58125,"velocity":0.5669291338582677,"duration":0.49270833333332575},{"name":"B4","midi":71,"time":400.671875,"velocity":0.7637795275590551,"duration":0.36250000000001137},{"name":"C5","midi":72,"time":401.978125,"velocity":0.6614173228346457,"duration":0.22187499999995453},{"name":"B4","midi":71,"time":402.1635416666666,"velocity":0.6614173228346457,"duration":0.06979166666667425},{"name":"C2","midi":36,"time":402.3802083333333,"velocity":0.4645669291338583,"duration":1.8072916666667425},{"name":"C3","midi":48,"time":402.43125,"velocity":0.47244094488188976,"duration":1.3958333333333712},{"name":"A3","midi":57,"time":402.54479166666664,"velocity":0.4645669291338583,"duration":0.1156249999999659},{"name":"C4","midi":60,"time":402.6052083333333,"velocity":0.3464566929133858,"duration":0.4937500000000341},{"name":"G4","midi":67,"time":402.64583333333326,"velocity":0.6850393700787402,"duration":0.5083333333334394},{"name":"C#4","midi":61,"time":402.64895833333327,"velocity":0.14173228346456693,"duration":0.47916666666674246},{"name":"A4","midi":69,"time":402.6916666666666,"velocity":0.6929133858267716,"duration":0.4302083333333826},{"name":"B4","midi":71,"time":403.8072916666667,"velocity":0.6929133858267716,"duration":0.171875},{"name":"A4","midi":69,"time":403.98645833333336,"velocity":0.6220472440944882,"duration":0.05000000000001137},{"name":"B1","midi":35,"time":404.20000000000005,"velocity":0.5039370078740157,"duration":2.111458333333303},{"name":"B2","midi":47,"time":404.2604166666667,"velocity":0.4094488188976378,"duration":1.6677083333332803},{"name":"G3","midi":55,"time":404.36562499999997,"velocity":0.4015748031496063,"duration":0.6552083333333485},{"name":"B3","midi":59,"time":404.4052083333333,"velocity":0.5590551181102362,"duration":0.53125},{"name":"E4","midi":64,"time":404.4135416666666,"velocity":0.6220472440944882,"duration":0.6010416666666742},{"name":"G4","midi":67,"time":404.4677083333333,"velocity":0.7165354330708661,"duration":0.5},{"name":"A4","midi":69,"time":405.70937499999997,"velocity":0.7086614173228346,"duration":0.25312500000001137},{"name":"G4","midi":67,"time":405.9239583333333,"velocity":0.6456692913385826,"duration":0.07604166666669698},{"name":"A1","midi":33,"time":406.240625,"velocity":0.5118110236220472,"duration":1.2250000000000227},{"name":"A2","midi":45,"time":406.3604166666667,"velocity":0.4251968503937008,"duration":1.1333333333333258},{"name":"F#3","midi":54,"time":406.43750000000006,"velocity":0.5354330708661418,"duration":1.0791666666666515},{"name":"B3","midi":59,"time":406.5020833333334,"velocity":0.5039370078740157,"duration":11.104166666666572},{"name":"E4","midi":64,"time":406.5687500000001,"velocity":0.5669291338582677,"duration":11.006249999999909},{"name":"F#4","midi":66,"time":406.6520833333334,"velocity":0.6850393700787402,"duration":10.903124999999932},{"name":"F#3","midi":54,"time":410.6197916666667,"velocity":0.1968503937007874,"duration":0.171875},{"name":"F#3","midi":54,"time":411.53333333333336,"velocity":0.2125984251968504,"duration":0.203125},{"name":"F#3","midi":54,"time":412.2270833333334,"velocity":0.23622047244094488,"duration":0.19999999999998863},{"name":"F#3","midi":54,"time":412.83333333333337,"velocity":0.2283464566929134,"duration":0.20937500000002274},{"name":"F#3","midi":54,"time":413.43125000000003,"velocity":0.1732283464566929,"duration":0.19999999999998863},{"name":"F#3","midi":54,"time":414.0229166666667,"velocity":0.1968503937007874,"duration":0.20833333333331439},{"name":"F#3","midi":54,"time":414.6875,"velocity":0.2125984251968504,"duration":0.23750000000001137},{"name":"F#3","midi":54,"time":415.4510416666667,"velocity":0.1889763779527559,"duration":0.22395833333331439},{"name":"F#3","midi":54,"time":416.390625,"velocity":0.2204724409448819,"duration":0.22708333333332575}],"controlChanges":{"64":[{"number":64,"time":399.2239583333333,"value":1},{"number":64,"time":400.51145833333334,"value":0},{"number":64,"time":400.8822916666667,"value":1},{"number":64,"time":402.54999999999995,"value":0},{"number":64,"time":402.84687499999995,"value":1},{"number":64,"time":404.3520833333333,"value":0},{"number":64,"time":404.74062499999997,"value":1},{"number":64,"time":406.41562500000003,"value":0},{"number":64,"time":406.84375000000006,"value":1},{"number":64,"time":424.3979166666667,"value":0}]},"id":4,"name":"MIDI in","channelNumber":0,"isPercussion":false}]}