{"header":{"PPQ":480,"timeSignature":[4,4],"bpm":120,"name":""},"startTime":2.3145833333333337,"duration":386.439583333337,"tracks":[{"startTime":2.3145833333333337,"duration":386.439583333337,"length":3443,"notes":[{"name":"A4","midi":69,"time":2.3145833333333337,"velocity":0.23622047244094488,"duration":0.18437500000000018},{"name":"E4","midi":64,"time":2.3343750000000005,"velocity":0.2125984251968504,"duration":0.09270833333333339},{"name":"G#4","midi":68,"time":2.4750000000000005,"velocity":0.30708661417322836,"duration":0.10729166666666679},{"name":"A4","midi":69,"time":2.6593750000000007,"velocity":0.23622047244094488,"duration":0.15104166666666652},{"name":"E4","midi":64,"time":2.7197916666666675,"velocity":0.1732283464566929,"duration":0.05729166666666652},{"name":"G#4","midi":68,"time":2.851041666666667,"velocity":0.23622047244094488,"duration":0.07187499999999991},{"name":"A4","midi":69,"time":2.9937500000000004,"velocity":0.2204724409448819,"duration":0.08958333333333313},{"name":"E4","midi":64,"time":3.0333333333333337,"velocity":0.1889763779527559,"duration":0.046875},{"name":"G#4","midi":68,"time":3.1791666666666667,"velocity":0.25196850393700787,"duration":0.058333333333333126},{"name":"A4","midi":69,"time":3.3510416666666667,"velocity":0.2755905511811024,"duration":0.07187500000000036},{"name":"E4","midi":64,"time":3.394791666666667,"velocity":0.11811023622047244,"duration":0.03125},{"name":"G#4","midi":68,"time":3.5114583333333336,"velocity":0.2677165354330709,"duration":0.06458333333333321},{"name":"A4","midi":69,"time":3.666666666666667,"velocity":0.2755905511811024,"duration":0.08541666666666625},{"name":"E4","midi":64,"time":3.669791666666667,"velocity":0.14960629921259844,"duration":0.08020833333333321},{"name":"G#4","midi":68,"time":3.8104166666666663,"velocity":0.2440944881889764,"duration":0.09791666666666687},{"name":"A4","midi":69,"time":3.9625,"velocity":0.29133858267716534,"duration":0.10312499999999991},{"name":"E4","midi":64,"time":4.009375,"velocity":0.2204724409448819,"duration":0.04999999999999982},{"name":"G#4","midi":68,"time":4.141666666666667,"velocity":0.2992125984251969,"duration":0.10208333333333375},{"name":"A4","midi":69,"time":4.286458333333334,"velocity":0.29133858267716534,"duration":0.09791666666666643},{"name":"E4","midi":64,"time":4.327083333333334,"velocity":0.18110236220472442,"duration":0.05208333333333304},{"name":"G#4","midi":68,"time":4.453125,"velocity":0.3543307086614173,"duration":0.15937499999999982},{"name":"A4","midi":69,"time":4.615625,"velocity":0.28346456692913385,"duration":0.1260416666666675},{"name":"E4","midi":64,"time":4.676041666666666,"velocity":0.18110236220472442,"duration":0.05520833333333375},{"name":"G#4","midi":68,"time":4.786458333333334,"velocity":0.33070866141732286,"duration":0.12812499999999982},{"name":"A4","midi":69,"time":4.982291666666667,"velocity":0.3228346456692913,"duration":0.0770833333333325},{"name":"E4","midi":64,"time":5.004166666666666,"velocity":0.14173228346456693,"duration":0.053124999999999645},{"name":"G#4","midi":68,"time":5.115625,"velocity":0.3543307086614173,"duration":0.11562499999999964},{"name":"A4","midi":69,"time":5.294791666666666,"velocity":0.3228346456692913,"duration":0.14687499999999964},{"name":"E4","midi":64,"time":5.298958333333332,"velocity":0.23622047244094488,"duration":0.10104166666666625},{"name":"G#4","midi":68,"time":5.465624999999999,"velocity":0.3464566929133858,"duration":0.10729166666666679},{"name":"A4","midi":69,"time":5.6239583333333325,"velocity":0.2992125984251969,"duration":0.14895833333333375},{"name":"E4","midi":64,"time":5.651041666666666,"velocity":0.2204724409448819,"duration":0.08020833333333321},{"name":"G#4","midi":68,"time":5.794791666666666,"velocity":0.2992125984251969,"duration":0.11249999999999982},{"name":"A4","midi":69,"time":5.9677083333333325,"velocity":0.2677165354330709,"duration":0.10624999999999929},{"name":"E4","midi":64,"time":6.016666666666666,"velocity":0.16535433070866143,"duration":0.053124999999999645},{"name":"G#4","midi":68,"time":6.123958333333332,"velocity":0.31496062992125984,"duration":0.11458333333333304},{"name":"A4","midi":69,"time":6.323958333333331,"velocity":0.25984251968503935,"duration":0.0760416666666659},{"name":"E4","midi":64,"time":6.331249999999997,"velocity":0.2047244094488189,"duration":0.078125},{"name":"G#4","midi":68,"time":6.4708333333333306,"velocity":0.33070866141732286,"duration":0.109375},{"name":"E4","midi":64,"time":6.671874999999997,"velocity":0.1968503937007874,"duration":0.06145833333333339},{"name":"A4","midi":69,"time":6.674999999999997,"velocity":0.25984251968503935,"duration":0.05520833333333375},{"name":"G#4","midi":68,"time":6.808333333333331,"velocity":0.25984251968503935,"duration":0.09270833333333339},{"name":"A4","midi":69,"time":6.974999999999998,"velocity":0.2677165354330709,"duration":0.10104166666666625},{"name":"E4","midi":64,"time":7.004166666666665,"velocity":0.2047244094488189,"duration":0.05104166666666643},{"name":"G#4","midi":68,"time":7.162499999999998,"velocity":0.2755905511811024,"duration":0.06770833333333304},{"name":"A4","midi":69,"time":7.2937499999999975,"velocity":0.25196850393700787,"duration":0.1385416666666659},{"name":"E4","midi":64,"time":7.342708333333331,"velocity":0.15748031496062992,"duration":0.05104166666666643},{"name":"G#4","midi":68,"time":7.456249999999997,"velocity":0.3543307086614173,"duration":0.10729166666666679},{"name":"A4","midi":69,"time":7.607291666666664,"velocity":0.2992125984251969,"duration":0.1239583333333325},{"name":"E4","midi":64,"time":7.629166666666664,"velocity":0.2283464566929134,"duration":0.09895833333333304},{"name":"G#4","midi":68,"time":7.7812499999999964,"velocity":0.3228346456692913,"duration":0.10729166666666679},{"name":"A4","midi":69,"time":7.979166666666663,"velocity":0.2677165354330709,"duration":0.0802083333333341},{"name":"E4","midi":64,"time":7.98958333333333,"velocity":0.1968503937007874,"duration":0.06770833333333393},{"name":"G#4","midi":68,"time":8.106249999999998,"velocity":0.3700787401574803,"duration":0.12916666666666643},{"name":"A4","midi":69,"time":8.310416666666663,"velocity":0.2677165354330709,"duration":0.1364583333333318},{"name":"E4","midi":64,"time":8.349999999999996,"velocity":0.14173228346456693,"duration":0.03958333333333286},{"name":"G#4","midi":68,"time":8.497916666666661,"velocity":0.23622047244094488,"duration":0.05000000000000071},{"name":"A4","midi":69,"time":8.610416666666662,"velocity":0.2677165354330709,"duration":0.11249999999999893},{"name":"E4","midi":64,"time":8.643749999999995,"velocity":0.1732283464566929,"duration":0.06874999999999964},{"name":"G#4","midi":68,"time":8.777083333333328,"velocity":0.2440944881889764,"duration":0.09791666666666643},{"name":"A4","midi":69,"time":8.937499999999995,"velocity":0.2047244094488189,"duration":0.109375},{"name":"E4","midi":64,"time":8.973958333333329,"velocity":0.2047244094488189,"duration":0.057291666666666075},{"name":"G#4","midi":68,"time":9.128124999999995,"velocity":0.2047244094488189,"duration":0.07395833333333357},{"name":"A4","midi":69,"time":9.271874999999996,"velocity":0.2204724409448819,"duration":0.09895833333333393},{"name":"E4","midi":64,"time":9.321874999999997,"velocity":0.11811023622047244,"duration":0.05000000000000071},{"name":"G#4","midi":68,"time":9.471874999999997,"velocity":0.1889763779527559,"duration":0.07395833333333357},{"name":"A4","midi":69,"time":9.611458333333331,"velocity":0.2440944881889764,"duration":0.08958333333333357},{"name":"E4","midi":64,"time":9.657291666666664,"velocity":0.13385826771653545,"duration":0.03854166666666714},{"name":"G#4","midi":68,"time":9.782291666666666,"velocity":0.2283464566929134,"duration":0.1083333333333325},{"name":"E4","midi":64,"time":9.947916666666664,"velocity":0.1732283464566929,"duration":0.08541666666666714},{"name":"A4","midi":69,"time":9.957291666666665,"velocity":0.2677165354330709,"duration":0.07291666666666607},{"name":"G#4","midi":68,"time":10.133333333333331,"velocity":0.23622047244094488,"duration":0.0625},{"name":"A4","midi":69,"time":10.263541666666665,"velocity":0.2755905511811024,"duration":0.13541666666666607},{"name":"E4","midi":64,"time":10.274999999999999,"velocity":0.1889763779527559,"duration":0.10208333333333286},{"name":"G#4","midi":68,"time":10.45833333333333,"velocity":0.2204724409448819,"duration":0.06458333333333321},{"name":"A4","midi":69,"time":10.62083333333333,"velocity":0.2755905511811024,"duration":0.06770833333333215},{"name":"E4","midi":64,"time":10.63333333333333,"velocity":0.2204724409448819,"duration":0.061458333333332504},{"name":"G#4","midi":68,"time":10.749999999999995,"velocity":0.28346456692913385,"duration":0.10416666666666607},{"name":"A4","midi":69,"time":10.94791666666666,"velocity":0.2677165354330709,"duration":0.08229166666666643},{"name":"E4","midi":64,"time":10.951041666666661,"velocity":0.2204724409448819,"duration":0.0770833333333325},{"name":"G#4","midi":68,"time":11.07604166666666,"velocity":0.3543307086614173,"duration":0.10208333333333286},{"name":"A4","midi":69,"time":11.256249999999993,"velocity":0.28346456692913385,"duration":0.11458333333333393},{"name":"E4","midi":64,"time":11.266666666666659,"velocity":0.23622047244094488,"duration":0.10312500000000036},{"name":"G#4","midi":68,"time":11.414583333333326,"velocity":0.29133858267716534,"duration":0.11250000000000071},{"name":"A4","midi":69,"time":11.593749999999993,"velocity":0.2755905511811024,"duration":0.15312500000000107},{"name":"E4","midi":64,"time":11.61041666666666,"velocity":0.2440944881889764,"duration":0.08645833333333286},{"name":"G#4","midi":68,"time":11.749999999999995,"velocity":0.2755905511811024,"duration":0.11666666666666714},{"name":"A4","midi":69,"time":11.91458333333333,"velocity":0.29133858267716534,"duration":0.15208333333333357},{"name":"E4","midi":64,"time":11.92395833333333,"velocity":0.2440944881889764,"duration":0.09895833333333393},{"name":"G#4","midi":68,"time":12.076041666666663,"velocity":0.3464566929133858,"duration":0.12083333333333357},{"name":"E4","midi":64,"time":12.24583333333333,"velocity":0.2677165354330709,"duration":0.09583333333333499},{"name":"A4","midi":69,"time":12.246874999999998,"velocity":0.30708661417322836,"duration":0.11562500000000142},{"name":"G#4","midi":68,"time":12.416666666666666,"velocity":0.3543307086614173,"duration":0.10312500000000036},{"name":"A4","midi":69,"time":12.576041666666667,"velocity":0.31496062992125984,"duration":0.11354166666666643},{"name":"E4","midi":64,"time":12.582291666666666,"velocity":0.2204724409448819,"duration":0.08437499999999964},{"name":"G#4","midi":68,"time":12.744791666666666,"velocity":0.2755905511811024,"duration":0.10312500000000036},{"name":"A4","midi":69,"time":12.9,"velocity":0.2992125984251969,"duration":0.09375},{"name":"E4","midi":64,"time":12.919791666666667,"velocity":0.1732283464566929,"duration":0.06666666666666643},{"name":"G#4","midi":68,"time":13.055208333333333,"velocity":0.3779527559055118,"duration":0.10312500000000036},{"name":"A4","midi":69,"time":13.245833333333334,"velocity":0.2677165354330709,"duration":0.07708333333333428},{"name":"E4","midi":64,"time":13.248958333333334,"velocity":0.2283464566929134,"duration":0.05833333333333357},{"name":"G#4","midi":68,"time":13.378125,"velocity":0.3464566929133858,"duration":0.10520833333333357},{"name":"E4","midi":64,"time":13.562500000000002,"velocity":0.1889763779527559,"duration":0.08333333333333393},{"name":"A4","midi":69,"time":13.567708333333336,"velocity":0.2992125984251969,"duration":0.0791666666666675},{"name":"G#4","midi":68,"time":13.70729166666667,"velocity":0.3858267716535433,"duration":0.15416666666666679},{"name":"E4","midi":64,"time":13.877083333333337,"velocity":0.25984251968503935,"duration":0.08645833333333286},{"name":"A4","midi":69,"time":13.88541666666667,"velocity":0.25984251968503935,"duration":0.09062499999999929},{"name":"G#4","midi":68,"time":14.04791666666667,"velocity":0.3543307086614173,"duration":0.10312500000000036},{"name":"A4","midi":69,"time":14.203125000000004,"velocity":0.31496062992125984,"duration":0.15625},{"name":"E4","midi":64,"time":14.220833333333337,"velocity":0.1889763779527559,"duration":0.09166666666666679},{"name":"G#4","midi":68,"time":14.373958333333336,"velocity":0.3464566929133858,"duration":0.10312500000000036},{"name":"A4","midi":69,"time":14.559375000000003,"velocity":0.25984251968503935,"duration":0.07083333333333464},{"name":"E4","midi":64,"time":14.564583333333337,"velocity":0.2125984251968504,"duration":0.07395833333333357},{"name":"G#4","midi":68,"time":14.688541666666671,"velocity":0.4015748031496063,"duration":0.09999999999999964},{"name":"A4","midi":69,"time":14.878125000000004,"velocity":0.25984251968503935,"duration":0.06770833333333393},{"name":"E4","midi":64,"time":14.881250000000005,"velocity":0.2677165354330709,"duration":0.056250000000000355},{"name":"G#4","midi":68,"time":15.014583333333338,"velocity":0.29133858267716534,"duration":0.0927083333333325},{"name":"A4","midi":69,"time":15.195833333333336,"velocity":0.2755905511811024,"duration":0.06979166666666536},{"name":"E4","midi":64,"time":15.21979166666667,"velocity":0.2047244094488189,"duration":0.037499999999999645},{"name":"G#4","midi":68,"time":15.322916666666668,"velocity":0.3700787401574803,"duration":0.10624999999999929},{"name":"A4","midi":69,"time":15.503125,"velocity":0.25984251968503935,"duration":0.0927083333333325},{"name":"E4","midi":64,"time":15.513541666666667,"velocity":0.2283464566929134,"duration":0.09166666666666679},{"name":"G#4","midi":68,"time":15.65625,"velocity":0.33858267716535434,"duration":0.09062499999999929},{"name":"A4","midi":69,"time":15.832291666666666,"velocity":0.2047244094488189,"duration":0.09479166666666572},{"name":"E4","midi":64,"time":15.860416666666666,"velocity":0.1968503937007874,"duration":0.06979166666666714},{"name":"G#4","midi":68,"time":15.982291666666667,"velocity":0.33070866141732286,"duration":0.1135416666666682},{"name":"A4","midi":69,"time":16.16041666666667,"velocity":0.2440944881889764,"duration":0.0989583333333357},{"name":"E4","midi":64,"time":16.19166666666667,"velocity":0.1889763779527559,"duration":0.06562500000000071},{"name":"G#4","midi":68,"time":16.328125000000007,"velocity":0.3228346456692913,"duration":0.10208333333333286},{"name":"A4","midi":69,"time":16.491666666666674,"velocity":0.2677165354330709,"duration":0.13645833333333002},{"name":"E4","midi":64,"time":16.528125000000006,"velocity":0.1732283464566929,"duration":0.04479166666666501},{"name":"G#4","midi":68,"time":16.648958333333336,"velocity":0.3700787401574803,"duration":0.11666666666666714},{"name":"A4","midi":69,"time":16.81354166666667,"velocity":0.25984251968503935,"duration":0.14999999999999858},{"name":"E4","midi":64,"time":16.814583333333335,"velocity":0.2047244094488189,"duration":0.12083333333333357},{"name":"G#4","midi":68,"time":16.984375,"velocity":0.3858267716535433,"duration":0.13333333333333286},{"name":"A4","midi":69,"time":17.18125,"velocity":0.2755905511811024,"duration":0.07604166666666501},{"name":"E4","midi":64,"time":17.18125,"velocity":0.2204724409448819,"duration":0.0625},{"name":"G#4","midi":68,"time":17.328124999999996,"velocity":0.3937007874015748,"duration":0.11041666666666572},{"name":"E4","midi":64,"time":17.493749999999995,"velocity":0.25984251968503935,"duration":0.10208333333333641},{"name":"A4","midi":69,"time":17.515624999999996,"velocity":0.23622047244094488,"duration":0.07708333333333428},{"name":"G#4","midi":68,"time":17.648958333333333,"velocity":0.3543307086614173,"duration":0.10416666666666785},{"name":"A4","midi":69,"time":17.819791666666667,"velocity":0.29133858267716534,"duration":0.13645833333333357},{"name":"E4","midi":64,"time":17.854166666666668,"velocity":0.2047244094488189,"duration":0.06041666666666501},{"name":"G#4","midi":68,"time":17.976041666666667,"velocity":0.3543307086614173,"duration":0.10416666666666785},{"name":"A4","midi":69,"time":18.175,"velocity":0.2992125984251969,"duration":0.12395833333333428},{"name":"E4","midi":64,"time":18.183333333333334,"velocity":0.1732283464566929,"duration":0.06979166666666714},{"name":"G#4","midi":68,"time":18.305208333333336,"velocity":0.3700787401574803,"duration":0.10520833333333357},{"name":"A4","midi":69,"time":18.486458333333335,"velocity":0.2047244094488189,"duration":0.11041666666666572},{"name":"E4","midi":64,"time":18.495833333333334,"velocity":0.25984251968503935,"duration":0.10520833333333357},{"name":"G#4","midi":68,"time":18.634375000000002,"velocity":0.3700787401574803,"duration":0.10833333333333428},{"name":"A4","midi":69,"time":18.836458333333336,"velocity":0.29133858267716534,"duration":0.08958333333333357},{"name":"E4","midi":64,"time":18.86041666666667,"velocity":0.1889763779527559,"duration":0.0677083333333357},{"name":"G#4","midi":68,"time":18.981250000000006,"velocity":0.2677165354330709,"duration":0.09166666666666501},{"name":"E4","midi":64,"time":19.172916666666673,"velocity":0.2047244094488189,"duration":0.10208333333333641},{"name":"A4","midi":69,"time":19.175000000000008,"velocity":0.2677165354330709,"duration":0.06979166666666714},{"name":"G#4","midi":68,"time":19.330208333333342,"velocity":0.2677165354330709,"duration":0.06458333333333499},{"name":"A4","midi":69,"time":19.504166666666677,"velocity":0.2125984251968504,"duration":0.078125},{"name":"E4","midi":64,"time":19.507291666666678,"velocity":0.2047244094488189,"duration":0.10312499999999858},{"name":"G#4","midi":68,"time":19.622916666666676,"velocity":0.30708661417322836,"duration":0.109375},{"name":"A4","midi":69,"time":19.84270833333334,"velocity":0.23622047244094488,"duration":0.05520833333333286},{"name":"E4","midi":64,"time":19.84270833333334,"velocity":0.1889763779527559,"duration":0.07708333333333428},{"name":"G#4","midi":68,"time":19.96875000000001,"velocity":0.3700787401574803,"duration":0.10416666666666785},{"name":"A4","midi":69,"time":20.14062500000001,"velocity":0.2283464566929134,"duration":0.10104166666666714},{"name":"E4","midi":64,"time":20.144791666666677,"velocity":0.2125984251968504,"duration":0.09479166666666572},{"name":"G#4","midi":68,"time":20.32500000000001,"velocity":0.2440944881889764,"duration":0.05416666666666714},{"name":"A4","midi":69,"time":20.486458333333342,"velocity":0.25984251968503935,"duration":0.0625},{"name":"E4","midi":64,"time":20.500000000000007,"velocity":0.1889763779527559,"duration":0.0520833333333357},{"name":"G#4","midi":68,"time":20.63437500000001,"velocity":0.30708661417322836,"duration":0.10416666666666785},{"name":"A4","midi":69,"time":20.817708333333343,"velocity":0.2204724409448819,"duration":0.07187499999999858},{"name":"E4","midi":64,"time":20.83437500000001,"velocity":0.14173228346456693,"duration":0.05729166666666785},{"name":"G#4","midi":68,"time":20.976041666666678,"velocity":0.25984251968503935,"duration":0.08229166666666643},{"name":"A4","midi":69,"time":21.117708333333344,"velocity":0.23622047244094488,"duration":0.10833333333333428},{"name":"E4","midi":64,"time":21.161458333333343,"velocity":0.16535433070866143,"duration":0.06145833333333428},{"name":"G#4","midi":68,"time":21.289583333333344,"velocity":0.31496062992125984,"duration":0.09791666666666643},{"name":"E4","midi":64,"time":21.457291666666677,"velocity":0.2047244094488189,"duration":0.10312499999999858},{"name":"A4","midi":69,"time":21.469791666666676,"velocity":0.29133858267716534,"duration":0.12708333333333144},{"name":"G#4","midi":68,"time":21.613541666666674,"velocity":0.3779527559055118,"duration":0.10208333333333286},{"name":"A4","midi":69,"time":21.782291666666673,"velocity":0.23622047244094488,"duration":0.10000000000000142},{"name":"E4","midi":64,"time":21.804166666666674,"velocity":0.2440944881889764,"duration":0.06458333333333499},{"name":"G#4","midi":68,"time":21.935416666666676,"velocity":0.3228346456692913,"duration":0.09479166666666572},{"name":"A4","midi":69,"time":22.12395833333334,"velocity":0.2677165354330709,"duration":0.09062499999999929},{"name":"E4","midi":64,"time":22.14687500000001,"velocity":0.1889763779527559,"duration":0.03541666666666643},{"name":"G#4","midi":68,"time":22.262500000000006,"velocity":0.33858267716535434,"duration":0.09687500000000071},{"name":"A4","midi":69,"time":22.447916666666675,"velocity":0.30708661417322836,"duration":0.1281250000000007},{"name":"E4","midi":64,"time":22.487500000000008,"velocity":0.14173228346456693,"duration":0.03958333333333286},{"name":"G#4","midi":68,"time":22.59375000000001,"velocity":0.29133858267716534,"duration":0.12083333333333357},{"name":"A4","midi":69,"time":22.77500000000001,"velocity":0.28346456692913385,"duration":0.07187499999999858},{"name":"E4","midi":64,"time":22.79062500000001,"velocity":0.1732283464566929,"duration":0.06145833333333073},{"name":"G#4","midi":68,"time":22.921875000000007,"velocity":0.33858267716535434,"duration":0.11145833333333499},{"name":"E4","midi":64,"time":23.078125000000007,"velocity":0.2440944881889764,"duration":0.12395833333333428},{"name":"A4","midi":69,"time":23.081250000000008,"velocity":0.2755905511811024,"duration":0.12395833333333428},{"name":"G#4","midi":68,"time":23.258333333333344,"velocity":0.31496062992125984,"duration":0.10208333333333286},{"name":"A4","midi":69,"time":23.42083333333334,"velocity":0.2992125984251969,"duration":0.10624999999999929},{"name":"E4","midi":64,"time":23.440625000000008,"velocity":0.2204724409448819,"duration":0.08125000000000071},{"name":"G#4","midi":68,"time":23.569791666666674,"velocity":0.3464566929133858,"duration":0.14479166666666643},{"name":"A4","midi":69,"time":23.767708333333342,"velocity":0.28346456692913385,"duration":0.10104166666666714},{"name":"E4","midi":64,"time":23.773958333333344,"velocity":0.1889763779527559,"duration":0.09166666666666501},{"name":"F#4","midi":66,"time":23.940625000000008,"velocity":0.28346456692913385,"duration":0.05000000000000071},{"name":"E4","midi":64,"time":24.10312500000001,"velocity":0.2047244094488189,"duration":0.09479166666666572},{"name":"A4","midi":69,"time":24.112500000000008,"velocity":0.25196850393700787,"duration":0.0625},{"name":"G#4","midi":68,"time":24.254166666666674,"velocity":0.33858267716535434,"duration":0.11562500000000142},{"name":"E4","midi":64,"time":24.41562500000001,"velocity":0.2677165354330709,"duration":0.11458333333333215},{"name":"A4","midi":69,"time":24.422916666666676,"velocity":0.2204724409448819,"duration":0.12187499999999929},{"name":"F#4","midi":66,"time":24.630208333333343,"velocity":0.25984251968503935,"duration":0.08645833333333286},{"name":"A4","midi":69,"time":24.783333333333342,"velocity":0.29133858267716534,"duration":0.09687499999999716},{"name":"E4","midi":64,"time":24.79270833333334,"velocity":0.2047244094488189,"duration":0.06354166666666572},{"name":"G#4","midi":68,"time":24.962500000000006,"velocity":0.2677165354330709,"duration":0.13125000000000142},{"name":"E4","midi":64,"time":25.11562500000001,"velocity":0.18110236220472442,"duration":0.09375},{"name":"A4","midi":69,"time":25.129166666666674,"velocity":0.2755905511811024,"duration":0.08541666666666714},{"name":"F#4","midi":66,"time":25.27187500000001,"velocity":0.2440944881889764,"duration":0.15520833333333428},{"name":"A4","midi":69,"time":25.435416666666676,"velocity":0.28346456692913385,"duration":0.15000000000000213},{"name":"E4","midi":64,"time":25.46250000000001,"velocity":0.2204724409448819,"duration":0.07708333333333428},{"name":"G#4","midi":68,"time":25.623958333333345,"velocity":0.25196850393700787,"duration":0.14166666666666572},{"name":"A4","midi":69,"time":25.777083333333344,"velocity":0.25196850393700787,"duration":0.10520833333333357},{"name":"E4","midi":64,"time":25.804166666666678,"velocity":0.1889763779527559,"duration":0.06145833333333428},{"name":"F#4","midi":66,"time":25.945833333333344,"velocity":0.2755905511811024,"duration":0.09687500000000071},{"name":"E4","midi":64,"time":26.10625000000001,"velocity":0.2283464566929134,"duration":0.09791666666666643},{"name":"A4","midi":69,"time":26.130208333333343,"velocity":0.2677165354330709,"duration":0.07499999999999929},{"name":"G#4","midi":68,"time":26.288541666666674,"velocity":0.25984251968503935,"duration":0.13645833333333357},{"name":"A4","midi":69,"time":26.45208333333334,"velocity":0.28346456692913385,"duration":0.1374999999999993},{"name":"E4","midi":64,"time":26.470833333333342,"velocity":0.2047244094488189,"duration":0.05937499999999929},{"name":"F#4","midi":66,"time":26.609375000000007,"velocity":0.23622047244094488,"duration":0.18333333333333357},{"name":"A4","midi":69,"time":26.752083333333342,"velocity":0.29133858267716534,"duration":0.14895833333333286},{"name":"E4","midi":64,"time":26.765625000000007,"velocity":0.25984251968503935,"duration":0.09583333333333499},{"name":"G#4","midi":68,"time":26.92812500000001,"velocity":0.28346456692913385,"duration":0.21145833333333286},{"name":"A4","midi":69,"time":27.104166666666675,"velocity":0.25984251968503935,"duration":0.1479166666666636},{"name":"E4","midi":64,"time":27.11562500000001,"velocity":0.2047244094488189,"duration":0.09583333333333144},{"name":"F#4","midi":66,"time":27.27083333333334,"velocity":0.2755905511811024,"duration":0.11354166666666643},{"name":"A4","midi":69,"time":27.42708333333334,"velocity":0.2992125984251969,"duration":0.140625},{"name":"E4","midi":64,"time":27.451041666666672,"velocity":0.2283464566929134,"duration":0.06354166666666572},{"name":"G#4","midi":68,"time":27.622916666666672,"velocity":0.2283464566929134,"duration":0.1437500000000007},{"name":"E4","midi":64,"time":27.772916666666674,"velocity":0.2283464566929134,"duration":0.08749999999999858},{"name":"A4","midi":69,"time":27.77708333333334,"velocity":0.2755905511811024,"duration":0.138541666666665},{"name":"F#4","midi":66,"time":27.928125000000005,"velocity":0.25196850393700787,"duration":0.23854166666666643},{"name":"A4","midi":69,"time":28.08854166666667,"velocity":0.2755905511811024,"duration":0.1687499999999993},{"name":"E4","midi":64,"time":28.11458333333334,"velocity":0.2283464566929134,"duration":0.07083333333333286},{"name":"G#4","midi":68,"time":28.28541666666667,"velocity":0.25196850393700787,"duration":0.17708333333333215},{"name":"A4","midi":69,"time":28.41979166666667,"velocity":0.25196850393700787,"duration":0.15520833333333428},{"name":"E4","midi":64,"time":28.452083333333334,"velocity":0.1889763779527559,"duration":0.06979166666666714},{"name":"F#4","midi":66,"time":28.615625,"velocity":0.23622047244094488,"duration":0.15625},{"name":"A4","midi":69,"time":28.761458333333334,"velocity":0.25196850393700787,"duration":0.11145833333333499},{"name":"E4","midi":64,"time":28.780208333333334,"velocity":0.2047244094488189,"duration":0.09062499999999929},{"name":"G#4","midi":68,"time":28.947916666666668,"velocity":0.2283464566929134,"duration":0.10208333333333286},{"name":"A4","midi":69,"time":29.123958333333334,"velocity":0.14960629921259844,"duration":0.10312500000000213},{"name":"E4","midi":64,"time":29.14166666666667,"velocity":0.1732283464566929,"duration":0.03958333333333286},{"name":"G#4","midi":68,"time":29.300000000000004,"velocity":0.2755905511811024,"duration":0.04479166666666501},{"name":"E4","midi":64,"time":29.43854166666667,"velocity":0.2204724409448819,"duration":0.05520833333333286},{"name":"A4","midi":69,"time":29.448958333333337,"velocity":0.1889763779527559,"duration":0.07187499999999858},{"name":"G#4","midi":68,"time":29.615625,"velocity":0.2125984251968504,"duration":0.05833333333333357},{"name":"A4","midi":69,"time":29.765625,"velocity":0.25984251968503935,"duration":0.11770833333333286},{"name":"E4","midi":64,"time":29.798958333333335,"velocity":0.15748031496062992,"duration":0.04062499999999858},{"name":"G#4","midi":68,"time":29.93125,"velocity":0.2440944881889764,"duration":0.06354166666666572},{"name":"A4","midi":69,"time":30.085416666666664,"velocity":0.2283464566929134,"duration":0.08124999999999716},{"name":"E4","midi":64,"time":30.106249999999996,"velocity":0.15748031496062992,"duration":0.046875},{"name":"G#4","midi":68,"time":30.26354166666666,"velocity":0.25984251968503935,"duration":0.07083333333333286},{"name":"A4","midi":69,"time":30.421874999999993,"velocity":0.25984251968503935,"duration":0.07395833333333357},{"name":"E4","midi":64,"time":30.434374999999992,"velocity":0.14960629921259844,"duration":0.06458333333333499},{"name":"G#4","midi":68,"time":30.58541666666666,"velocity":0.30708661417322836,"duration":0.08541666666666714},{"name":"A4","midi":69,"time":30.733333333333327,"velocity":0.28346456692913385,"duration":0.10833333333333428},{"name":"E4","midi":64,"time":30.759374999999995,"velocity":0.16535433070866143,"duration":0.07604166666666501},{"name":"G#4","midi":68,"time":30.893749999999994,"velocity":0.3700787401574803,"duration":0.10624999999999929},{"name":"A4","midi":69,"time":31.081249999999994,"velocity":0.2677165354330709,"duration":0.07395833333333357},{"name":"E4","midi":64,"time":31.09791666666666,"velocity":0.18110236220472442,"duration":0.05520833333333286},{"name":"G#4","midi":68,"time":31.21354166666666,"velocity":0.36220472440944884,"duration":0.10208333333333286},{"name":"E4","midi":64,"time":31.383333333333326,"velocity":0.2125984251968504,"duration":0.10520833333333712},{"name":"A4","midi":69,"time":31.38541666666666,"velocity":0.2992125984251969,"duration":0.10000000000000142},{"name":"G#4","midi":68,"time":31.55833333333333,"velocity":0.3228346456692913,"duration":0.06145833333333428},{"name":"A4","midi":69,"time":31.753124999999997,"velocity":0.23622047244094488,"duration":0.07604166666666856},{"name":"E4","midi":64,"time":31.760416666666664,"velocity":0.1732283464566929,"duration":0.05000000000000071},{"name":"G#4","midi":68,"time":31.883333333333333,"velocity":0.31496062992125984,"duration":0.10312499999999858},{"name":"A4","midi":69,"time":32.08958333333333,"velocity":0.2283464566929134,"duration":0.0625},{"name":"E4","midi":64,"time":32.10833333333333,"velocity":0.15748031496062992,"duration":0.03541666666666998},{"name":"G#4","midi":68,"time":32.240624999999994,"velocity":0.25196850393700787,"duration":0.07083333333333286},{"name":"A4","midi":69,"time":32.39166666666666,"velocity":0.29133858267716534,"duration":0.06354166666666572},{"name":"E4","midi":64,"time":32.42187499999999,"velocity":0.11811023622047244,"duration":0.03125},{"name":"G#4","midi":68,"time":32.56354166666666,"velocity":0.2992125984251969,"duration":0.07395833333333002},{"name":"A4","midi":69,"time":32.69791666666666,"velocity":0.2755905511811024,"duration":0.08229166666666998},{"name":"E4","midi":64,"time":32.70208333333333,"velocity":0.2047244094488189,"duration":0.06979166666666714},{"name":"G#4","midi":68,"time":32.849999999999994,"velocity":0.3779527559055118,"duration":0.09375},{"name":"A4","midi":69,"time":33.01875,"velocity":0.2440944881889764,"duration":0.10312500000000568},{"name":"E4","midi":64,"time":33.02291666666667,"velocity":0.23622047244094488,"duration":0.06979166666666714},{"name":"G#4","midi":68,"time":33.17291666666667,"velocity":0.3228346456692913,"duration":0.0833333333333357},{"name":"A4","midi":69,"time":33.35833333333334,"velocity":0.2992125984251969,"duration":0.09687499999999716},{"name":"E4","midi":64,"time":33.38541666666667,"velocity":0.2204724409448819,"duration":0.04895833333333144},{"name":"G#4","midi":68,"time":33.50833333333334,"velocity":0.2677165354330709,"duration":0.08958333333333002},{"name":"A4","midi":69,"time":33.68541666666667,"velocity":0.31496062992125984,"duration":0.1354166666666643},{"name":"E4","midi":64,"time":33.688541666666666,"velocity":0.2440944881889764,"duration":0.078125},{"name":"G#4","midi":68,"time":33.81875,"velocity":0.3464566929133858,"duration":0.11354166666666288},{"name":"A4","midi":69,"time":34.00833333333333,"velocity":0.31496062992125984,"duration":0.11874999999999858},{"name":"E4","midi":64,"time":34.02395833333333,"velocity":0.2440944881889764,"duration":0.07916666666666572},{"name":"G#4","midi":68,"time":34.14895833333333,"velocity":0.3858267716535433,"duration":0.16354166666666714},{"name":"A4","midi":69,"time":34.348958333333336,"velocity":0.31496062992125984,"duration":0.1041666666666643},{"name":"E4","midi":64,"time":34.37291666666667,"velocity":0.1889763779527559,"duration":0.05416666666666714},{"name":"F#4","midi":66,"time":34.53958333333333,"velocity":0.2440944881889764,"duration":0.03437499999999716},{"name":"A4","midi":69,"time":34.66145833333333,"velocity":0.25984251968503935,"duration":0.09270833333333428},{"name":"E4","midi":64,"time":34.67083333333333,"velocity":0.2047244094488189,"duration":0.0885416666666714},{"name":"G#4","midi":68,"time":34.827083333333334,"velocity":0.29133858267716534,"duration":0.14687500000000142},{"name":"E4","midi":64,"time":35.003125000000004,"velocity":0.25196850393700787,"duration":0.08229166666666998},{"name":"A4","midi":69,"time":35.01041666666667,"velocity":0.2204724409448819,"duration":0.0885416666666714},{"name":"F#4","midi":66,"time":35.20833333333334,"velocity":0.2283464566929134,"duration":0.07500000000000284},{"name":"A4","midi":69,"time":35.310416666666676,"velocity":0.25984251968503935,"duration":0.1510416666666714},{"name":"E4","midi":64,"time":35.34687500000001,"velocity":0.2204724409448819,"duration":0.0625},{"name":"G#4","midi":68,"time":35.502083333333346,"velocity":0.3464566929133858,"duration":0.10729166666666856},{"name":"A4","midi":69,"time":35.65000000000001,"velocity":0.30708661417322836,"duration":0.11562500000000142},{"name":"E4","midi":64,"time":35.667708333333344,"velocity":0.2204724409448819,"duration":0.09062500000000284},{"name":"F#4","midi":66,"time":35.855208333333344,"velocity":0.2677165354330709,"duration":0.09791666666666998},{"name":"A4","midi":69,"time":35.98541666666668,"velocity":0.29133858267716534,"duration":0.1666666666666714},{"name":"E4","midi":64,"time":36.00520833333335,"velocity":0.2440944881889764,"duration":0.09062500000000284},{"name":"G#4","midi":68,"time":36.18750000000002,"velocity":0.2440944881889764,"duration":0.14479166666666998},{"name":"A4","midi":69,"time":36.31979166666669,"velocity":0.25196850393700787,"duration":0.1197916666666643},{"name":"E4","midi":64,"time":36.33541666666669,"velocity":0.2677165354330709,"duration":0.07395833333333002},{"name":"F#4","midi":66,"time":36.52291666666669,"velocity":0.2440944881889764,"duration":0.06562499999999716},{"name":"E4","midi":64,"time":36.662500000000016,"velocity":0.2755905511811024,"duration":0.08124999999999716},{"name":"A4","midi":69,"time":36.66458333333335,"velocity":0.2992125984251969,"duration":0.12916666666666288},{"name":"G#4","midi":68,"time":36.85000000000001,"velocity":0.2204724409448819,"duration":0.11770833333333286},{"name":"A4","midi":69,"time":36.97916666666667,"velocity":0.31496062992125984,"duration":0.13124999999999432},{"name":"E4","midi":64,"time":37.00416666666667,"velocity":0.2047244094488189,"duration":0.07916666666666572},{"name":"F#4","midi":66,"time":37.172916666666666,"velocity":0.25984251968503935,"duration":0.15833333333333144},{"name":"E4","midi":64,"time":37.328125,"velocity":0.2047244094488189,"duration":0.10624999999999574},{"name":"A4","midi":69,"time":37.340624999999996,"velocity":0.31496062992125984,"duration":0.09062500000000284},{"name":"G#4","midi":68,"time":37.52083333333333,"velocity":0.25984251968503935,"duration":0.06875000000000142},{"name":"E4","midi":64,"time":37.651041666666664,"velocity":0.25196850393700787,"duration":0.12604166666666572},{"name":"A4","midi":69,"time":37.668749999999996,"velocity":0.31496062992125984,"duration":0.14166666666666572},{"name":"F#4","midi":66,"time":37.82812499999999,"velocity":0.2992125984251969,"duration":0.11666666666666714},{"name":"E4","midi":64,"time":37.98541666666666,"velocity":0.2755905511811024,"duration":0.12812500000000426},{"name":"A4","midi":69,"time":37.99166666666666,"velocity":0.30708661417322836,"duration":0.14479166666666998},{"name":"G#4","midi":68,"time":38.16041666666666,"velocity":0.28346456692913385,"duration":0.11354166666666998},{"name":"A4","midi":69,"time":38.32083333333333,"velocity":0.33858267716535434,"duration":0.125},{"name":"E4","midi":64,"time":38.328125,"velocity":0.31496062992125984,"duration":0.09270833333333428},{"name":"F#4","midi":66,"time":38.490625,"velocity":0.2992125984251969,"duration":0.13854166666666856},{"name":"A4","midi":69,"time":38.6625,"velocity":0.31496062992125984,"duration":0.1197916666666714},{"name":"E4","midi":64,"time":38.66875,"velocity":0.2755905511811024,"duration":0.11666666666666714},{"name":"G#4","midi":68,"time":38.86354166666667,"velocity":0.23622047244094488,"duration":0.13958333333333428},{"name":"A4","midi":69,"time":38.998958333333334,"velocity":0.3464566929133858,"duration":0.10312499999999858},{"name":"E4","midi":64,"time":39.02916666666667,"velocity":0.2283464566929134,"duration":0.078125},{"name":"F#4","midi":66,"time":39.16875,"velocity":0.2440944881889764,"duration":0.14479166666666998},{"name":"E4","midi":64,"time":39.35520833333334,"velocity":0.2204724409448819,"duration":0.13229166666666003},{"name":"B4","midi":71,"time":39.389583333333334,"velocity":0.1732283464566929,"duration":0.03229166666666572},{"name":"G#4","midi":68,"time":39.55416666666667,"velocity":0.1889763779527559,"duration":0.15729166666666572},{"name":"E4","midi":64,"time":39.697916666666664,"velocity":0.2440944881889764,"duration":0.12395833333333428},{"name":"B4","midi":71,"time":39.723958333333336,"velocity":0.2283464566929134,"duration":0.04270833333333002},{"name":"F#4","midi":66,"time":39.85729166666667,"velocity":0.2677165354330709,"duration":0.21666666666666146},{"name":"E4","midi":64,"time":40.0375,"velocity":0.2677165354330709,"duration":0.07604166666666146},{"name":"B4","midi":71,"time":40.047916666666666,"velocity":0.1732283464566929,"duration":0.0572916666666643},{"name":"G#4","midi":68,"time":40.20312499999999,"velocity":0.2283464566929134,"duration":0.15520833333332718},{"name":"E4","midi":64,"time":40.330208333333324,"velocity":0.30708661417322836,"duration":0.1249999999999929},{"name":"B4","midi":71,"time":40.347916666666656,"velocity":0.25984251968503935,"duration":0.0885416666666643},{"name":"F#4","midi":66,"time":40.51249999999998,"velocity":0.2755905511811024,"duration":0.21250000000000568},{"name":"E4","midi":64,"time":40.65833333333332,"velocity":0.3228346456692913,"duration":0.11354166666666998},{"name":"B4","midi":71,"time":40.66354166666665,"velocity":0.2677165354330709,"duration":0.09791666666666998},{"name":"G#4","midi":68,"time":40.84479166666665,"velocity":0.29133858267716534,"duration":0.1302083333333357},{"name":"E4","midi":64,"time":40.99895833333332,"velocity":0.28346456692913385,"duration":0.09166666666666856},{"name":"B4","midi":71,"time":40.99895833333332,"velocity":0.23622047244094488,"duration":0.07500000000000284},{"name":"F#4","midi":66,"time":41.17291666666666,"velocity":0.25984251968503935,"duration":0.10833333333333428},{"name":"E4","midi":64,"time":41.320833333333326,"velocity":0.2992125984251969,"duration":0.11666666666666714},{"name":"B4","midi":71,"time":41.367708333333326,"velocity":0.2204724409448819,"duration":0.06145833333333428},{"name":"G#4","midi":68,"time":41.528124999999996,"velocity":0.2677165354330709,"duration":0.12291666666666856},{"name":"E4","midi":64,"time":41.64375,"velocity":0.3464566929133858,"duration":0.11145833333333144},{"name":"B4","midi":71,"time":41.64791666666667,"velocity":0.2992125984251969,"duration":0.11562499999999432},{"name":"F#4","midi":66,"time":41.82604166666666,"velocity":0.29133858267716534,"duration":0.13333333333333286},{"name":"E4","midi":64,"time":41.977083333333326,"velocity":0.2755905511811024,"duration":0.10729166666666146},{"name":"B4","midi":71,"time":41.97916666666666,"velocity":0.36220472440944884,"duration":0.109375},{"name":"G#4","midi":68,"time":42.158333333333324,"velocity":0.29133858267716534,"duration":0.125},{"name":"E4","midi":64,"time":42.30729166666666,"velocity":0.33070866141732286,"duration":0.10520833333333002},{"name":"B4","midi":71,"time":42.30937499999999,"velocity":0.29133858267716534,"duration":0.11562500000000142},{"name":"F#4","midi":66,"time":42.48437499999999,"velocity":0.2755905511811024,"duration":0.19479166666666714},{"name":"B4","midi":71,"time":42.65104166666666,"velocity":0.33070866141732286,"duration":0.10520833333333712},{"name":"E4","midi":64,"time":42.67291666666666,"velocity":0.1889763779527559,"duration":0.06666666666666998},{"name":"G#4","midi":68,"time":42.878125,"velocity":0.2204724409448819,"duration":0.03125},{"name":"E4","midi":64,"time":42.990624999999994,"velocity":0.25984251968503935,"duration":0.08020833333333144},{"name":"B4","midi":71,"time":43.008333333333326,"velocity":0.2440944881889764,"duration":0.07916666666666572},{"name":"F#4","midi":66,"time":43.16770833333332,"velocity":0.25196850393700787,"duration":0.17916666666666714},{"name":"B4","midi":71,"time":43.31145833333332,"velocity":0.31496062992125984,"duration":0.1197916666666714},{"name":"E4","midi":64,"time":43.341666666666654,"velocity":0.2440944881889764,"duration":0.08437500000000142},{"name":"G#4","midi":68,"time":43.53645833333332,"velocity":0.25984251968503935,"duration":0.04270833333333002},{"name":"B4","midi":71,"time":43.65312499999998,"velocity":0.2755905511811024,"duration":0.12291666666666856},{"name":"E4","midi":64,"time":43.65833333333332,"velocity":0.25196850393700787,"duration":0.12708333333333144},{"name":"F#4","midi":66,"time":43.82916666666665,"velocity":0.30708661417322836,"duration":0.23229166666666856},{"name":"E4","midi":64,"time":44.00208333333332,"velocity":0.28346456692913385,"duration":0.11770833333333286},{"name":"B4","midi":71,"time":44.01458333333332,"velocity":0.30708661417322836,"duration":0.10208333333333286},{"name":"G#4","midi":68,"time":44.19062499999998,"velocity":0.28346456692913385,"duration":0.19166666666666998},{"name":"B4","midi":71,"time":44.33645833333332,"velocity":0.3228346456692913,"duration":0.11145833333333144},{"name":"E4","midi":64,"time":44.33854166666665,"velocity":0.30708661417322836,"duration":0.10625000000000284},{"name":"F#4","midi":66,"time":44.53437499999998,"velocity":0.2440944881889764,"duration":0.04583333333333428},{"name":"A4","midi":69,"time":44.683333333333316,"velocity":0.33070866141732286,"duration":0.15208333333333002},{"name":"E4","midi":64,"time":44.692708333333314,"velocity":0.1968503937007874,"duration":0.109375},{"name":"F#4","midi":66,"time":44.84062499999998,"velocity":0.2283464566929134,"duration":0.37187500000000284},{"name":"A4","midi":69,"time":45.011458333333316,"velocity":0.25196850393700787,"duration":0.08020833333333144},{"name":"E4","midi":64,"time":45.04479166666665,"velocity":0.2047244094488189,"duration":0.06041666666666856},{"name":"G#4","midi":68,"time":45.19999999999998,"velocity":0.2204724409448819,"duration":0.14375000000000426},{"name":"E4","midi":64,"time":45.32708333333332,"velocity":0.2755905511811024,"duration":0.12291666666666856},{"name":"A4","midi":69,"time":45.34062499999999,"velocity":0.28346456692913385,"duration":0.08958333333333002},{"name":"F#4","midi":66,"time":45.52083333333332,"velocity":0.25984251968503935,"duration":0.23541666666666572},{"name":"A4","midi":69,"time":45.66458333333332,"velocity":0.28346456692913385,"duration":0.08229166666666998},{"name":"E4","midi":64,"time":45.67916666666665,"velocity":0.2755905511811024,"duration":0.08958333333333712},{"name":"G#4","midi":68,"time":45.84479166666666,"velocity":0.2755905511811024,"duration":0.22500000000000142},{"name":"A4","midi":69,"time":45.97812499999999,"velocity":0.29133858267716534,"duration":0.12187500000000284},{"name":"E4","midi":64,"time":45.990624999999994,"velocity":0.28346456692913385,"duration":0.10833333333333428},{"name":"F#4","midi":66,"time":46.19479166666666,"velocity":0.25984251968503935,"duration":0.25833333333333286},{"name":"A4","midi":69,"time":46.29583333333333,"velocity":0.2677165354330709,"duration":0.13958333333333428},{"name":"E4","midi":64,"time":46.32708333333333,"velocity":0.2992125984251969,"duration":0.05312500000000142},{"name":"G#4","midi":68,"time":46.46354166666666,"velocity":0.3700787401574803,"duration":0.26874999999999716},{"name":"A4","midi":69,"time":46.65624999999999,"velocity":0.25984251968503935,"duration":0.0729166666666643},{"name":"E4","midi":64,"time":46.67916666666666,"velocity":0.23622047244094488,"duration":0.052083333333328596},{"name":"F#4","midi":66,"time":46.80416666666665,"velocity":0.2755905511811024,"duration":0.28958333333333286},{"name":"A4","midi":69,"time":46.94895833333332,"velocity":0.29133858267716534,"duration":0.109375},{"name":"E4","midi":64,"time":46.95833333333332,"velocity":0.2204724409448819,"duration":0.10208333333333286},{"name":"G#4","midi":68,"time":47.11249999999998,"velocity":0.3228346456692913,"duration":0.2979166666666657},{"name":"A4","midi":69,"time":47.281249999999986,"velocity":0.33070866141732286,"duration":0.12604166666666572},{"name":"E4","midi":64,"time":47.29583333333332,"velocity":0.25984251968503935,"duration":0.10833333333333428},{"name":"F#4","midi":66,"time":47.480208333333316,"velocity":0.28346456692913385,"duration":0.28437500000000426},{"name":"A4","midi":69,"time":47.62812499999998,"velocity":0.29133858267716534,"duration":0.14687500000000142},{"name":"E4","midi":64,"time":47.63229166666665,"velocity":0.2755905511811024,"duration":0.10625000000000284},{"name":"G#4","midi":68,"time":47.794791666666654,"velocity":0.3700787401574803,"duration":0.2593749999999915},{"name":"A4","midi":69,"time":47.95416666666665,"velocity":0.33070866141732286,"duration":0.13437499999999147},{"name":"E4","midi":64,"time":47.96354166666665,"velocity":0.25196850393700787,"duration":0.0885416666666643},{"name":"F#4","midi":66,"time":48.13645833333331,"velocity":0.29133858267716534,"duration":0.20624999999999716},{"name":"A4","midi":69,"time":48.27916666666664,"velocity":0.30708661417322836,"duration":0.15312500000000284},{"name":"E4","midi":64,"time":48.28124999999997,"velocity":0.2992125984251969,"duration":0.11250000000000426},{"name":"G#4","midi":68,"time":48.43958333333331,"velocity":0.3464566929133858,"duration":0.3166666666666629},{"name":"A4","midi":69,"time":48.61458333333331,"velocity":0.3228346456692913,"duration":0.13645833333333712},{"name":"E4","midi":64,"time":48.62916666666664,"velocity":0.2204724409448819,"duration":0.125},{"name":"F#4","midi":66,"time":48.80729166666664,"velocity":0.30708661417322836,"duration":0.25208333333333144},{"name":"A4","midi":69,"time":48.956249999999976,"velocity":0.3464566929133858,"duration":0.12291666666666856},{"name":"E4","midi":64,"time":48.97499999999997,"velocity":0.2992125984251969,"duration":0.10729166666666856},{"name":"G#4","midi":68,"time":49.11770833333331,"velocity":0.3779527559055118,"duration":0.26250000000000284},{"name":"A4","midi":69,"time":49.286458333333314,"velocity":0.31496062992125984,"duration":0.12812499999999716},{"name":"E4","midi":64,"time":49.28958333333331,"velocity":0.2992125984251969,"duration":0.13437499999999858},{"name":"F#4","midi":66,"time":49.465624999999974,"velocity":0.3228346456692913,"duration":0.2291666666666572},{"name":"A4","midi":69,"time":49.617708333333304,"velocity":0.33070866141732286,"duration":0.09687499999999716},{"name":"E4","midi":64,"time":49.629166666666634,"velocity":0.2992125984251969,"duration":0.08541666666666714},{"name":"G#4","midi":68,"time":49.7927083333333,"velocity":0.25984251968503935,"duration":0.3281249999999929},{"name":"B4","midi":71,"time":49.959374999999966,"velocity":0.3700787401574803,"duration":0.078125},{"name":"E4","midi":64,"time":49.974999999999966,"velocity":0.23622047244094488,"duration":0.10520833333333002},{"name":"B3","midi":59,"time":50.15104166666663,"velocity":0.2047244094488189,"duration":0.2760416666666643},{"name":"E4","midi":64,"time":50.27812499999996,"velocity":0.31496062992125984,"duration":0.1197916666666643},{"name":"B4","midi":71,"time":50.29791666666663,"velocity":0.25984251968503935,"duration":0.08958333333333002},{"name":"G#4","midi":68,"time":50.47499999999996,"velocity":0.25984251968503935,"duration":0.33125000000000426},{"name":"E4","midi":64,"time":50.66145833333329,"velocity":0.2204724409448819,"duration":0.09062500000000284},{"name":"B4","midi":71,"time":50.68229166666663,"velocity":0.1732283464566929,"duration":0.09166666666666856},{"name":"B3","midi":59,"time":50.86458333333329,"velocity":0.1732283464566929,"duration":0.22500000000000853},{"name":"B4","midi":71,"time":51.002083333333296,"velocity":0.25196850393700787,"duration":0.08229166666666998},{"name":"E4","midi":64,"time":51.0083333333333,"velocity":0.25984251968503935,"duration":0.0885416666666714},{"name":"G#4","midi":68,"time":51.1395833333333,"velocity":0.25984251968503935,"duration":0.33541666666666714},{"name":"E4","midi":64,"time":51.33124999999997,"velocity":0.33070866141732286,"duration":0.09375},{"name":"B4","midi":71,"time":51.3614583333333,"velocity":0.15748031496062992,"duration":0.05624999999999858},{"name":"B3","midi":59,"time":51.53229166666663,"velocity":0.2047244094488189,"duration":0.2447916666666714},{"name":"E4","midi":64,"time":51.6864583333333,"velocity":0.23622047244094488,"duration":0.08541666666666714},{"name":"B4","midi":71,"time":51.71354166666663,"velocity":0.1889763779527559,"duration":0.0364583333333357},{"name":"G#4","midi":68,"time":51.84374999999997,"velocity":0.2440944881889764,"duration":0.28958333333333286},{"name":"B4","midi":71,"time":52.026041666666636,"velocity":0.25984251968503935,"duration":0.07708333333333428},{"name":"E4","midi":64,"time":52.0489583333333,"velocity":0.1889763779527559,"duration":0.09687500000000426},{"name":"B3","midi":59,"time":52.217708333333306,"velocity":0.1889763779527559,"duration":0.20937500000000142},{"name":"B4","midi":71,"time":52.36562499999997,"velocity":0.1968503937007874,"duration":0.08125000000000426},{"name":"E4","midi":64,"time":52.373958333333306,"velocity":0.2755905511811024,"duration":0.08750000000000568},{"name":"G#4","midi":68,"time":52.49479166666664,"velocity":0.3543307086614173,"duration":0.3177083333333357},{"name":"E4","midi":64,"time":52.68229166666664,"velocity":0.28346456692913385,"duration":0.12604166666666572},{"name":"B4","midi":71,"time":52.70208333333331,"velocity":0.28346456692913385,"duration":0.10312499999999858},{"name":"B3","midi":59,"time":52.88437499999998,"velocity":0.23622047244094488,"duration":0.2822916666666657},{"name":"E4","midi":64,"time":53.01770833333331,"velocity":0.31496062992125984,"duration":0.09375},{"name":"B4","midi":71,"time":53.04166666666664,"velocity":0.2992125984251969,"duration":0.08645833333333286},{"name":"G#4","midi":68,"time":53.16770833333331,"velocity":0.33858267716535434,"duration":0.31458333333333854},{"name":"B4","midi":71,"time":53.360416666666644,"velocity":0.3464566929133858,"duration":0.11145833333333854},{"name":"E4","midi":64,"time":53.36562499999998,"velocity":0.30708661417322836,"duration":0.11562500000000142},{"name":"B3","midi":59,"time":53.54583333333331,"velocity":0.28346456692913385,"duration":0.27708333333333},{"name":"E4","midi":64,"time":53.683333333333316,"velocity":0.36220472440944884,"duration":0.08124999999999716},{"name":"B4","midi":71,"time":53.73124999999998,"velocity":0.2047244094488189,"duration":0.060416666666661456},{"name":"G#4","midi":68,"time":53.84895833333331,"velocity":0.36220472440944884,"duration":0.3135416666666657},{"name":"B4","midi":71,"time":54.02291666666664,"velocity":0.33070866141732286,"duration":0.11041666666666572},{"name":"E4","midi":64,"time":54.023958333333304,"velocity":0.30708661417322836,"duration":0.11562500000000142},{"name":"B3","midi":59,"time":54.21979166666664,"velocity":0.2440944881889764,"duration":0.28854166666666714},{"name":"B4","midi":71,"time":54.34374999999997,"velocity":0.36220472440944884,"duration":0.13125000000000142},{"name":"E4","midi":64,"time":54.34895833333331,"velocity":0.3464566929133858,"duration":0.1197916666666643},{"name":"G#4","midi":68,"time":54.512499999999974,"velocity":0.3700787401574803,"duration":0.2906249999999986},{"name":"B4","midi":71,"time":54.684374999999974,"velocity":0.33858267716535434,"duration":0.13229166666666714},{"name":"E4","midi":64,"time":54.69166666666664,"velocity":0.33858267716535434,"duration":0.12083333333333002},{"name":"B3","midi":59,"time":54.88541666666664,"velocity":0.1732283464566929,"duration":0.31041666666666146},{"name":"E4","midi":64,"time":55.05104166666664,"velocity":0.29133858267716534,"duration":0.06145833333333428},{"name":"B4","midi":71,"time":55.05520833333331,"velocity":0.25984251968503935,"duration":0.06666666666666288},{"name":"G#4","midi":68,"time":55.197916666666636,"velocity":0.2204724409448819,"duration":0.26770833333333144},{"name":"A4","midi":69,"time":55.394791666666634,"velocity":0.25984251968503935,"duration":0.0833333333333286},{"name":"E4","midi":64,"time":55.41874999999997,"velocity":0.16535433070866143,"duration":0.04999999999999716},{"name":"C#4","midi":61,"time":55.5302083333333,"velocity":0.25984251968503935,"duration":0.32395833333333},{"name":"A4","midi":69,"time":55.722916666666634,"velocity":0.28346456692913385,"duration":0.07499999999999574},{"name":"E4","midi":64,"time":55.749999999999964,"velocity":0.1889763779527559,"duration":0.09062499999999574},{"name":"G#4","midi":68,"time":55.874999999999964,"velocity":0.25984251968503935,"duration":0.2802083333333343},{"name":"A4","midi":69,"time":56.06041666666663,"velocity":0.29133858267716534,"duration":0.07916666666666572},{"name":"E4","midi":64,"time":56.068749999999966,"velocity":0.2677165354330709,"duration":0.07708333333333428},{"name":"C#4","midi":61,"time":56.2083333333333,"velocity":0.31496062992125984,"duration":0.3166666666666629},{"name":"A4","midi":69,"time":56.381249999999966,"velocity":0.28346456692913385,"duration":0.14791666666666714},{"name":"E4","midi":64,"time":56.390624999999964,"velocity":0.25984251968503935,"duration":0.09166666666666856},{"name":"G#4","midi":68,"time":56.53437499999997,"velocity":0.3543307086614173,"duration":0.3072916666666643},{"name":"A4","midi":69,"time":56.7302083333333,"velocity":0.2992125984251969,"duration":0.13437499999999858},{"name":"E4","midi":64,"time":56.7489583333333,"velocity":0.25984251968503935,"duration":0.10208333333333286},{"name":"C#4","midi":61,"time":56.9052083333333,"velocity":0.3228346456692913,"duration":0.2510416666666657},{"name":"A4","midi":69,"time":57.0770833333333,"velocity":0.33070866141732286,"duration":0.09791666666666288},{"name":"E4","midi":64,"time":57.08749999999996,"velocity":0.23622047244094488,"duration":0.08020833333333144},{"name":"G#4","midi":68,"time":57.21249999999996,"velocity":0.3779527559055118,"duration":0.3020833333333357},{"name":"A4","midi":69,"time":57.40416666666663,"velocity":0.29133858267716534,"duration":0.14270833333333144},{"name":"E4","midi":64,"time":57.40937499999997,"velocity":0.28346456692913385,"duration":0.12812499999999716},{"name":"C#4","midi":61,"time":57.56979166666663,"velocity":0.3228346456692913,"duration":0.3343750000000085},{"name":"A4","midi":69,"time":57.73124999999997,"velocity":0.36220472440944884,"duration":0.15000000000000568},{"name":"E4","midi":64,"time":57.7520833333333,"velocity":0.3228346456692913,"duration":0.08437500000000142},{"name":"G#4","midi":68,"time":57.90208333333331,"velocity":0.3779527559055118,"duration":0.32499999999999574},{"name":"A4","midi":69,"time":58.07187499999997,"velocity":0.2992125984251969,"duration":0.11666666666666714},{"name":"E4","midi":64,"time":58.07604166666664,"velocity":0.31496062992125984,"duration":0.11562499999999432},{"name":"C#4","midi":61,"time":58.25104166666664,"velocity":0.36220472440944884,"duration":0.3177083333333357},{"name":"A4","midi":69,"time":58.41354166666664,"velocity":0.33070866141732286,"duration":0.11562500000000142},{"name":"E4","midi":64,"time":58.41562499999997,"velocity":0.25984251968503935,"duration":0.11562500000000142},{"name":"G#4","midi":68,"time":58.57187499999997,"velocity":0.3937007874015748,"duration":0.29895833333333144},{"name":"E4","midi":64,"time":58.74999999999997,"velocity":0.2992125984251969,"duration":0.11354166666666288},{"name":"A4","midi":69,"time":58.75104166666664,"velocity":0.31496062992125984,"duration":0.15520833333333428},{"name":"C#4","midi":61,"time":58.930208333333304,"velocity":0.31496062992125984,"duration":0.32395833333333},{"name":"E4","midi":64,"time":59.10937499999997,"velocity":0.23622047244094488,"duration":0.08124999999999716},{"name":"A4","midi":69,"time":59.1114583333333,"velocity":0.31496062992125984,"duration":0.06458333333333144},{"name":"G#4","midi":68,"time":59.26874999999997,"velocity":0.25984251968503935,"duration":0.28854166666666714},{"name":"E4","midi":64,"time":59.426041666666634,"velocity":0.2755905511811024,"duration":0.1145833333333357},{"name":"A4","midi":69,"time":59.43437499999997,"velocity":0.29133858267716534,"duration":0.10729166666666856},{"name":"C#4","midi":61,"time":59.58541666666664,"velocity":0.31496062992125984,"duration":0.3531249999999915},{"name":"A4","midi":69,"time":59.7677083333333,"velocity":0.2755905511811024,"duration":0.09479166666666572},{"name":"E4","midi":64,"time":59.77916666666663,"velocity":0.2677165354330709,"duration":0.10208333333333286},{"name":"G#4","midi":68,"time":59.923958333333296,"velocity":0.28346456692913385,"duration":0.2645833333333414},{"name":"A4","midi":69,"time":60.1020833333333,"velocity":0.30708661417322836,"duration":0.11354166666666998},{"name":"E4","midi":64,"time":60.10624999999997,"velocity":0.2677165354330709,"duration":0.12083333333333002},{"name":"C#4","midi":61,"time":60.2802083333333,"velocity":0.3228346456692913,"duration":0.3083333333333371},{"name":"A4","midi":69,"time":60.4364583333333,"velocity":0.2992125984251969,"duration":0.07395833333333712},{"name":"E4","midi":64,"time":60.45624999999997,"velocity":0.2755905511811024,"duration":0.05104166666666998},{"name":"G#4","midi":68,"time":60.62187499999997,"velocity":0.25984251968503935,"duration":0.013541666666668561},{"name":"G#4","midi":68,"time":60.82187499999997,"velocity":0.3228346456692913,"duration":0.039583333333339965},{"name":"E4","midi":64,"time":60.84166666666664,"velocity":0.2440944881889764,"duration":0.03854166666666714},{"name":"B3","midi":59,"time":60.97291666666664,"velocity":0.23622047244094488,"duration":0.22812499999999858},{"name":"E4","midi":64,"time":61.09895833333331,"velocity":0.25196850393700787,"duration":0.11249999999999716},{"name":"G#4","midi":68,"time":61.15416666666664,"velocity":0.25984251968503935,"duration":0.019791666666669983},{"name":"F#4","midi":66,"time":61.26874999999997,"velocity":0.3228346456692913,"duration":0.22187499999999716},{"name":"G#4","midi":68,"time":61.48437499999997,"velocity":0.31496062992125984,"duration":0.04895833333332433},{"name":"E4","midi":64,"time":61.48749999999997,"velocity":0.1732283464566929,"duration":0.11041666666665861},{"name":"B3","midi":59,"time":61.642708333333296,"velocity":0.2283464566929134,"duration":0.24583333333333712},{"name":"E4","midi":64,"time":61.7895833333333,"velocity":0.2755905511811024,"duration":0.08541666666666714},{"name":"G#4","midi":68,"time":61.796874999999964,"velocity":0.3858267716535433,"duration":0.07187499999999858},{"name":"F#4","midi":66,"time":61.9395833333333,"velocity":0.3543307086614173,"duration":0.3229166666666714},{"name":"E4","midi":64,"time":62.1270833333333,"velocity":0.2677165354330709,"duration":0.12083333333333712},{"name":"G#4","midi":68,"time":62.14062499999997,"velocity":0.3464566929133858,"duration":0.09062500000000284},{"name":"B3","midi":59,"time":62.32812499999997,"velocity":0.2440944881889764,"duration":0.27812499999999574},{"name":"E4","midi":64,"time":62.45416666666664,"velocity":0.33858267716535434,"duration":0.12604166666666572},{"name":"G#4","midi":68,"time":62.4645833333333,"velocity":0.3464566929133858,"duration":0.09062500000000284},{"name":"F#4","midi":66,"time":62.6302083333333,"velocity":0.31496062992125984,"duration":0.2749999999999986},{"name":"E4","midi":64,"time":62.7927083333333,"velocity":0.30708661417322836,"duration":0.11666666666666003},{"name":"G#4","midi":68,"time":62.8020833333333,"velocity":0.3779527559055118,"duration":0.10520833333333002},{"name":"B3","midi":59,"time":63.00416666666663,"velocity":0.2440944881889764,"duration":0.26979166666667},{"name":"G#4","midi":68,"time":63.12604166666663,"velocity":0.4094488188976378,"duration":0.11041666666666572},{"name":"E4","midi":64,"time":63.13749999999996,"velocity":0.2677165354330709,"duration":0.1145833333333357},{"name":"F#4","midi":66,"time":63.32291666666663,"velocity":0.2677165354330709,"duration":0.24583333333333002},{"name":"G#4","midi":68,"time":63.464583333333294,"velocity":0.36220472440944884,"duration":0.12916666666666288},{"name":"E4","midi":64,"time":63.46562499999996,"velocity":0.3228346456692913,"duration":0.14791666666666714},{"name":"B3","midi":59,"time":63.64999999999996,"velocity":0.2440944881889764,"duration":0.3125000000000071},{"name":"G#4","midi":68,"time":63.81562499999996,"velocity":0.3228346456692913,"duration":0.1041666666666714},{"name":"E4","midi":64,"time":63.83749999999996,"velocity":0.2677165354330709,"duration":0.09583333333333854},{"name":"F#4","midi":66,"time":63.96979166666664,"velocity":0.3228346456692913,"duration":0.25312499999999716},{"name":"E4","midi":64,"time":64.15937499999997,"velocity":0.31496062992125984,"duration":0.1145833333333286},{"name":"G#4","midi":68,"time":64.16249999999997,"velocity":0.3543307086614173,"duration":0.10520833333333712},{"name":"B3","midi":59,"time":64.3614583333333,"velocity":0.2204724409448819,"duration":0.18854166666667993},{"name":"G#4","midi":68,"time":64.49583333333331,"velocity":0.3700787401574803,"duration":0.11458333333334281},{"name":"E4","midi":64,"time":64.50416666666665,"velocity":0.2755905511811024,"duration":0.09166666666666856},{"name":"F#4","midi":66,"time":64.65729166666665,"velocity":0.28346456692913385,"duration":0.27395833333332575},{"name":"E4","midi":64,"time":64.88854166666665,"velocity":0.25196850393700787,"duration":0.07187499999999147},{"name":"B4","midi":71,"time":64.89374999999998,"velocity":0.3228346456692913,"duration":0.06145833333333428},{"name":"B3","midi":59,"time":65.04166666666664,"velocity":0.2440944881889764,"duration":0.39895833333332575},{"name":"E4","midi":64,"time":65.19270833333331,"velocity":0.29133858267716534,"duration":0.11249999999999716},{"name":"B4","midi":71,"time":65.19583333333331,"velocity":0.33070866141732286,"duration":0.09062500000000284},{"name":"G#4","midi":68,"time":65.38749999999997,"velocity":0.28346456692913385,"duration":0.2291666666666572},{"name":"E4","midi":64,"time":65.51145833333331,"velocity":0.33070866141732286,"duration":0.12083333333332291},{"name":"B4","midi":71,"time":65.53124999999997,"velocity":0.3543307086614173,"duration":0.11041666666666572},{"name":"B3","midi":59,"time":65.71041666666663,"velocity":0.2755905511811024,"duration":0.31562499999999716},{"name":"E4","midi":64,"time":65.86979166666663,"velocity":0.2992125984251969,"duration":0.08437500000000853},{"name":"B4","midi":71,"time":65.87916666666663,"velocity":0.2992125984251969,"duration":0.08124999999999716},{"name":"G#4","midi":68,"time":66.03124999999996,"velocity":0.3464566929133858,"duration":0.2552083333333428},{"name":"A4","midi":69,"time":66.23333333333329,"velocity":0.2992125984251969,"duration":0.07812500000001421},{"name":"E4","midi":64,"time":66.24687499999996,"velocity":0.1889763779527559,"duration":0.06666666666667709},{"name":"C#4","midi":61,"time":66.3770833333333,"velocity":0.2755905511811024,"duration":0.28333333333333144},{"name":"E4","midi":64,"time":66.57499999999997,"velocity":0.2283464566929134,"duration":0.10416666666665719},{"name":"A4","midi":69,"time":66.60416666666664,"velocity":0.2047244094488189,"duration":0.052083333333328596},{"name":"G#4","midi":68,"time":66.73124999999996,"velocity":0.2755905511811024,"duration":0.2864583333333286},{"name":"A4","midi":69,"time":66.91354166666663,"velocity":0.25984251968503935,"duration":0.10833333333332007},{"name":"E4","midi":64,"time":66.93541666666663,"velocity":0.2440944881889764,"duration":0.06458333333333144},{"name":"C#4","midi":61,"time":67.08749999999995,"velocity":0.30708661417322836,"duration":0.3010416666666629},{"name":"A4","midi":69,"time":67.25937499999995,"velocity":0.25984251968503935,"duration":0.10000000000000853},{"name":"E4","midi":64,"time":67.27291666666662,"velocity":0.23622047244094488,"duration":0.09270833333333428},{"name":"G#4","midi":68,"time":67.44270833333327,"velocity":0.2440944881889764,"duration":0.27916666666666856},{"name":"A4","midi":69,"time":67.59062499999993,"velocity":0.30708661417322836,"duration":0.1614583333333428},{"name":"E4","midi":64,"time":67.6166666666666,"velocity":0.2204724409448819,"duration":0.09375},{"name":"C#4","midi":61,"time":67.77604166666661,"velocity":0.30708661417322836,"duration":0.31562499999999716},{"name":"E4","midi":64,"time":67.97812499999995,"velocity":0.2204724409448819,"duration":0.06979166666666003},{"name":"A4","midi":69,"time":67.98124999999995,"velocity":0.2677165354330709,"duration":0.06979166666666003},{"name":"G#4","midi":68,"time":68.13229166666662,"velocity":0.2440944881889764,"duration":0.25833333333332575},{"name":"E4","midi":64,"time":68.29270833333328,"velocity":0.2677165354330709,"duration":0.09270833333333428},{"name":"A4","midi":69,"time":68.30729166666661,"velocity":0.2755905511811024,"duration":0.12395833333333428},{"name":"C#4","midi":61,"time":68.46041666666662,"velocity":0.2440944881889764,"duration":0.3020833333333286},{"name":"E4","midi":64,"time":68.63749999999995,"velocity":0.2204724409448819,"duration":0.10104166666666003},{"name":"A4","midi":69,"time":68.65624999999994,"velocity":0.29133858267716534,"duration":0.07708333333333428},{"name":"G#4","midi":68,"time":68.80937499999995,"velocity":0.2283464566929134,"duration":0.3270833333333343},{"name":"A4","midi":69,"time":68.95937499999995,"velocity":0.31496062992125984,"duration":0.15625},{"name":"E4","midi":64,"time":68.96145833333328,"velocity":0.2755905511811024,"duration":0.1197916666666714},{"name":"C#4","midi":61,"time":69.14062499999994,"velocity":0.29133858267716534,"duration":0.29999999999998295},{"name":"E4","midi":64,"time":69.3354166666666,"velocity":0.2283464566929134,"duration":0.0677083333333286},{"name":"A4","midi":69,"time":69.3416666666666,"velocity":0.2677165354330709,"duration":0.08229166666666288},{"name":"G#4","midi":68,"time":69.4510416666666,"velocity":0.2677165354330709,"duration":0.296875},{"name":"E4","midi":64,"time":69.6666666666666,"velocity":0.25984251968503935,"duration":0.078125},{"name":"A4","midi":69,"time":69.66874999999993,"velocity":0.2677165354330709,"duration":0.0885416666666714},{"name":"C#4","midi":61,"time":69.8510416666666,"velocity":0.2677165354330709,"duration":0.26354166666665435},{"name":"A4","midi":69,"time":70.0135416666666,"velocity":0.29133858267716534,"duration":0.08229166666666288},{"name":"E4","midi":64,"time":70.0166666666666,"velocity":0.25984251968503935,"duration":0.05937500000000284},{"name":"G#4","midi":68,"time":70.15937499999993,"velocity":0.2992125984251969,"duration":0.2864583333333286},{"name":"A4","midi":69,"time":70.33437499999992,"velocity":0.2992125984251969,"duration":0.16458333333332575},{"name":"E4","midi":64,"time":70.38749999999992,"velocity":0.2440944881889764,"duration":0.04479166666666856},{"name":"C#4","midi":61,"time":70.52604166666659,"velocity":0.29133858267716534,"duration":0.3010416666666629},{"name":"A4","midi":69,"time":70.68541666666658,"velocity":0.31496062992125984,"duration":0.11875000000000568},{"name":"E4","midi":64,"time":70.69374999999992,"velocity":0.2677165354330709,"duration":0.0885416666666714},{"name":"G#4","midi":68,"time":70.86354166666658,"velocity":0.28346456692913385,"duration":0.26770833333333144},{"name":"A4","midi":69,"time":71.02916666666658,"velocity":0.33858267716535434,"duration":0.10833333333332007},{"name":"E4","midi":64,"time":71.04687499999991,"velocity":0.25984251968503935,"duration":0.09479166666665151},{"name":"C#4","midi":61,"time":71.20208333333323,"velocity":0.3228346456692913,"duration":0.26250000000001705},{"name":"A4","midi":69,"time":71.35416666666657,"velocity":0.33070866141732286,"duration":0.09375000000001421},{"name":"E4","midi":64,"time":71.36249999999991,"velocity":0.30708661417322836,"duration":0.07708333333333428},{"name":"G#4","midi":68,"time":71.54687499999991,"velocity":0.30708661417322836,"duration":0.05937500000000284},{"name":"G#4","midi":68,"time":71.71354166666659,"velocity":0.36220472440944884,"duration":0.09479166666666572},{"name":"E4","midi":64,"time":71.74687499999992,"velocity":0.2992125984251969,"duration":0.0729166666666714},{"name":"B3","midi":59,"time":71.88437499999992,"velocity":0.2992125984251969,"duration":0.31562500000001137},{"name":"E4","midi":64,"time":72.06041666666658,"velocity":0.29133858267716534,"duration":0.12187500000001705},{"name":"G#4","midi":68,"time":72.07083333333325,"velocity":0.23622047244094488,"duration":0.08750000000000568},{"name":"F#4","midi":66,"time":72.23333333333326,"velocity":0.33858267716535434,"duration":0.2541666666666629},{"name":"E4","midi":64,"time":72.43437499999993,"velocity":0.2677165354330709,"duration":0.11354166666666288},{"name":"G#4","midi":68,"time":72.43749999999993,"velocity":0.2677165354330709,"duration":0.09062500000000284},{"name":"B3","midi":59,"time":72.6260416666666,"velocity":0.23622047244094488,"duration":0.23541666666667993},{"name":"E4","midi":64,"time":72.7666666666666,"velocity":0.2677165354330709,"duration":0.11354166666667709},{"name":"G#4","midi":68,"time":72.77499999999993,"velocity":0.33070866141732286,"duration":0.10729166666666856},{"name":"F#4","midi":66,"time":72.93749999999994,"velocity":0.2755905511811024,"duration":0.234375},{"name":"G#4","midi":68,"time":73.11249999999994,"velocity":0.33858267716535434,"duration":0.11354166666666288},{"name":"E4","midi":64,"time":73.1166666666666,"velocity":0.25984251968503935,"duration":0.12187500000000284},{"name":"B3","midi":59,"time":73.3041666666666,"velocity":0.2204724409448819,"duration":0.3020833333333286},{"name":"G#4","midi":68,"time":73.45312499999994,"velocity":0.3543307086614173,"duration":0.11145833333333144},{"name":"E4","midi":64,"time":73.45520833333327,"velocity":0.30708661417322836,"duration":0.1302083333333286},{"name":"F#4","midi":66,"time":73.60208333333327,"velocity":0.2992125984251969,"duration":0.21041666666666003},{"name":"G#4","midi":68,"time":73.78437499999993,"velocity":0.3543307086614173,"duration":0.12083333333333712},{"name":"E4","midi":64,"time":73.79895833333326,"velocity":0.3543307086614173,"duration":0.11249999999999716},{"name":"B3","midi":59,"time":74.00520833333326,"velocity":0.2047244094488189,"duration":0.26770833333333144},{"name":"G#4","midi":68,"time":74.12395833333326,"velocity":0.4015748031496063,"duration":0.11874999999999147},{"name":"E4","midi":64,"time":74.13020833333326,"velocity":0.33858267716535434,"duration":0.11874999999999147},{"name":"F#4","midi":66,"time":74.30729166666659,"velocity":0.2992125984251969,"duration":0.19687499999999147},{"name":"B4","midi":71,"time":74.46666666666658,"velocity":0.3937007874015748,"duration":0.11979166666665719},{"name":"E4","midi":64,"time":74.47291666666658,"velocity":0.2992125984251969,"duration":0.140625},{"name":"B3","midi":59,"time":74.62916666666658,"velocity":0.25196850393700787,"duration":0.4177083333333371},{"name":"B4","midi":71,"time":74.84479166666658,"velocity":0.23622047244094488,"duration":0.04895833333333144},{"name":"E4","midi":64,"time":74.84687499999991,"velocity":0.29133858267716534,"duration":0.07187500000000568},{"name":"F#4","midi":66,"time":75.00416666666658,"velocity":0.2992125984251969,"duration":0.12395833333333428},{"name":"E4","midi":64,"time":75.17708333333324,"velocity":0.2440944881889764,"duration":0.09375},{"name":"B4","midi":71,"time":75.18333333333324,"velocity":0.2755905511811024,"duration":0.07187500000000568},{"name":"B3","midi":59,"time":75.33541666666657,"velocity":0.25984251968503935,"duration":0.2750000000000057},{"name":"E4","midi":64,"time":75.52083333333324,"velocity":0.25196850393700787,"duration":0.0729166666666714},{"name":"B4","midi":71,"time":75.53437499999991,"velocity":0.2677165354330709,"duration":0.06145833333333428},{"name":"F#4","midi":66,"time":75.67395833333325,"velocity":0.2677165354330709,"duration":0.1979166666666714},{"name":"E4","midi":64,"time":75.82604166666658,"velocity":0.2677165354330709,"duration":0.14791666666667425},{"name":"G#4","midi":68,"time":75.86979166666659,"velocity":0.29133858267716534,"duration":0.06041666666666856},{"name":"B3","midi":59,"time":76.02812499999992,"velocity":0.2677165354330709,"duration":0.2708333333333144},{"name":"G#4","midi":68,"time":76.18749999999991,"velocity":0.3779527559055118,"duration":0.10624999999998863},{"name":"E4","midi":64,"time":76.19270833333324,"velocity":0.31496062992125984,"duration":0.13333333333332575},{"name":"F#4","midi":66,"time":76.3406249999999,"velocity":0.33858267716535434,"duration":0.25},{"name":"G#4","midi":68,"time":76.5156249999999,"velocity":0.4251968503937008,"duration":0.1354166666666714},{"name":"E4","midi":64,"time":76.54166666666657,"velocity":0.3543307086614173,"duration":0.13229166666666003},{"name":"B3","midi":59,"time":76.71458333333324,"velocity":0.2992125984251969,"duration":0.3697916666666714},{"name":"E4","midi":64,"time":76.8593749999999,"velocity":0.36220472440944884,"duration":0.109375},{"name":"G#4","midi":68,"time":76.8593749999999,"velocity":0.4251968503937008,"duration":0.12187500000000284},{"name":"F#4","midi":66,"time":77.0093749999999,"velocity":0.36220472440944884,"duration":0.296875},{"name":"E4","midi":64,"time":77.1968749999999,"velocity":0.29133858267716534,"duration":0.11979166666665719},{"name":"A4","midi":69,"time":77.1999999999999,"velocity":0.33070866141732286,"duration":0.11354166666666288},{"name":"C#4","midi":61,"time":77.38645833333322,"velocity":0.29133858267716534,"duration":0.3343749999999801},{"name":"A4","midi":69,"time":77.54791666666655,"velocity":0.33858267716535434,"duration":0.07187499999999147},{"name":"E4","midi":64,"time":77.55520833333321,"velocity":0.25984251968503935,"duration":0.07916666666666572},{"name":"G#4","midi":68,"time":77.71354166666654,"velocity":0.2677165354330709,"duration":0.2135416666666572},{"name":"E4","midi":64,"time":77.89687499999987,"velocity":0.25984251968503935,"duration":0.09479166666666572},{"name":"A4","midi":69,"time":77.94374999999987,"velocity":0.2755905511811024,"duration":0.026041666666671404},{"name":"C#4","midi":61,"time":78.0520833333332,"velocity":0.2755905511811024,"duration":0.3385416666666572},{"name":"A4","midi":69,"time":78.24166666666653,"velocity":0.25984251968503935,"duration":0.056249999999991473},{"name":"E4","midi":64,"time":78.24374999999986,"velocity":0.2755905511811024,"duration":0.04895833333333144},{"name":"G#4","midi":68,"time":78.42916666666652,"velocity":0.2283464566929134,"duration":0.20000000000000284},{"name":"E4","midi":64,"time":78.56562499999986,"velocity":0.31496062992125984,"duration":0.11562499999999432},{"name":"A4","midi":69,"time":78.58645833333318,"velocity":0.23622047244094488,"duration":0.0729166666666714},{"name":"C#4","midi":61,"time":78.74687499999985,"velocity":0.33070866141732286,"duration":0.24374999999999147},{"name":"E4","midi":64,"time":78.90833333333318,"velocity":0.25984251968503935,"duration":0.09999999999999432},{"name":"A4","midi":69,"time":78.91145833333317,"velocity":0.30708661417322836,"duration":0.08437499999999432},{"name":"G#4","midi":68,"time":79.09270833333316,"velocity":0.2204724409448819,"duration":0.19375000000000853},{"name":"E4","midi":64,"time":79.22708333333317,"velocity":0.31496062992125984,"duration":0.10729166666666856},{"name":"A4","midi":69,"time":79.2385416666665,"velocity":0.28346456692913385,"duration":0.09166666666666856},{"name":"C#4","midi":61,"time":79.4041666666665,"velocity":0.33070866141732286,"duration":0.31562500000001137},{"name":"A4","midi":69,"time":79.5697916666665,"velocity":0.33858267716535434,"duration":0.12395833333333428},{"name":"E4","midi":64,"time":79.57187499999984,"velocity":0.2992125984251969,"duration":0.11041666666666572},{"name":"G#4","midi":68,"time":79.74062499999984,"velocity":0.25984251968503935,"duration":0.296875},{"name":"E4","midi":64,"time":79.9135416666665,"velocity":0.33858267716535434,"duration":0.1302083333333286},{"name":"A4","midi":69,"time":79.91562499999984,"velocity":0.31496062992125984,"duration":0.12395833333333428},{"name":"C#4","midi":61,"time":80.09270833333316,"velocity":0.33070866141732286,"duration":0.23333333333332007},{"name":"A4","midi":69,"time":80.25520833333316,"velocity":0.33070866141732286,"duration":0.13229166666666003},{"name":"E4","midi":64,"time":80.26249999999982,"velocity":0.3228346456692913,"duration":0.15729166666666572},{"name":"G#4","midi":68,"time":80.44062499999981,"velocity":0.2440944881889764,"duration":0.26770833333334565},{"name":"A4","midi":69,"time":80.59791666666648,"velocity":0.3464566929133858,"duration":0.13229166666667425},{"name":"E4","midi":64,"time":80.62187499999982,"velocity":0.33070866141732286,"duration":0.10729166666666856},{"name":"C#4","midi":61,"time":80.76562499999982,"velocity":0.3464566929133858,"duration":0.2697916666666629},{"name":"A4","midi":69,"time":80.93749999999982,"velocity":0.4015748031496063,"duration":0.13124999999999432},{"name":"E4","midi":64,"time":80.95208333333315,"velocity":0.2992125984251969,"duration":0.10624999999998863},{"name":"G#4","midi":68,"time":81.11458333333314,"velocity":0.30708661417322836,"duration":0.27291666666666003},{"name":"E4","midi":64,"time":81.30729166666647,"velocity":0.3464566929133858,"duration":0.1677083333333229},{"name":"C#5","midi":73,"time":81.31145833333314,"velocity":0.4566929133858268,"duration":0.140625},{"name":"C#4","midi":61,"time":81.49895833333314,"velocity":0.3779527559055118,"duration":0.2760416666666572},{"name":"C#5","midi":73,"time":81.65520833333314,"velocity":0.4409448818897638,"duration":0.13854166666665435},{"name":"E4","midi":64,"time":81.6749999999998,"velocity":0.33070866141732286,"duration":0.10312499999999147},{"name":"G#4","midi":68,"time":81.82708333333312,"velocity":0.3779527559055118,"duration":0.29999999999999716},{"name":"C#5","midi":73,"time":82.01458333333312,"velocity":0.4094488188976378,"duration":0.12395833333333428},{"name":"E4","midi":64,"time":82.03020833333312,"velocity":0.2992125984251969,"duration":0.09270833333333428},{"name":"C#4","midi":61,"time":82.17499999999978,"velocity":0.29133858267716534,"duration":0.2874999999999943},{"name":"C#5","midi":73,"time":82.34374999999979,"velocity":0.4094488188976378,"duration":0.12916666666664867},{"name":"E4","midi":64,"time":82.34687499999978,"velocity":0.36220472440944884,"duration":0.11979166666665719},{"name":"G#4","midi":68,"time":82.5145833333331,"velocity":0.31496062992125984,"duration":0.21770833333333428},{"name":"B4","midi":71,"time":82.69895833333311,"velocity":0.3700787401574803,"duration":0.09583333333333144},{"name":"E4","midi":64,"time":82.7052083333331,"velocity":0.2992125984251969,"duration":0.1041666666666714},{"name":"B3","midi":59,"time":82.86666666666645,"velocity":0.25984251968503935,"duration":0.31979166666666003},{"name":"E4","midi":64,"time":83.07395833333311,"velocity":0.2204724409448819,"duration":0.09270833333333428},{"name":"B4","midi":71,"time":83.09687499999977,"velocity":0.28346456692913385,"duration":0.04270833333333712},{"name":"F#4","midi":66,"time":83.2208333333331,"velocity":0.2440944881889764,"duration":0.2541666666666629},{"name":"E4","midi":64,"time":83.3770833333331,"velocity":0.30708661417322836,"duration":0.13229166666666003},{"name":"B4","midi":71,"time":83.3958333333331,"velocity":0.3464566929133858,"duration":0.0833333333333286},{"name":"B3","midi":59,"time":83.57291666666643,"velocity":0.2677165354330709,"duration":0.31562499999999716},{"name":"E4","midi":64,"time":83.73749999999977,"velocity":0.33070866141732286,"duration":0.0989583333333286},{"name":"B4","midi":71,"time":83.77291666666643,"velocity":0.2440944881889764,"duration":0.06458333333333144},{"name":"F#4","midi":66,"time":83.91562499999976,"velocity":0.2992125984251969,"duration":0.3020833333333428},{"name":"B4","midi":71,"time":84.0958333333331,"velocity":0.2992125984251969,"duration":0.09583333333334565},{"name":"E4","midi":64,"time":84.10416666666644,"velocity":0.28346456692913385,"duration":0.10729166666666856},{"name":"B3","midi":59,"time":84.26979166666644,"velocity":0.25196850393700787,"duration":0.29895833333333144},{"name":"B4","midi":71,"time":84.41979166666644,"velocity":0.3543307086614173,"duration":0.11354166666666288},{"name":"E4","midi":64,"time":84.43333333333311,"velocity":0.2755905511811024,"duration":0.10729166666665435},{"name":"F#4","midi":66,"time":84.57604166666643,"velocity":0.33858267716535434,"duration":0.2708333333333428},{"name":"B4","midi":71,"time":84.75624999999977,"velocity":0.3464566929133858,"duration":0.10104166666667425},{"name":"E4","midi":64,"time":84.7645833333331,"velocity":0.30708661417322836,"duration":0.11770833333333997},{"name":"B3","midi":59,"time":84.93333333333311,"velocity":0.2440944881889764,"duration":0.3260416666666828},{"name":"B4","midi":71,"time":85.10208333333311,"velocity":0.29133858267716534,"duration":0.12083333333333712},{"name":"E4","midi":64,"time":85.11041666666645,"velocity":0.30708661417322836,"duration":0.12187500000000284},{"name":"F#4","midi":66,"time":85.27708333333312,"velocity":0.29133858267716534,"duration":0.22708333333333997},{"name":"E4","midi":64,"time":85.46041666666646,"velocity":0.28346456692913385,"duration":0.10104166666667425},{"name":"B4","midi":71,"time":85.46249999999979,"velocity":0.29133858267716534,"duration":0.07083333333333997},{"name":"B3","midi":59,"time":85.62395833333314,"velocity":0.2204724409448819,"duration":0.2666666666666657},{"name":"E4","midi":64,"time":85.81458333333313,"velocity":0.2440944881889764,"duration":0.0833333333333286},{"name":"B4","midi":71,"time":85.83333333333313,"velocity":0.2440944881889764,"duration":0.055208333333339965},{"name":"F#4","midi":66,"time":85.9593749999998,"velocity":0.29133858267716534,"duration":0.36249999999999716},{"name":"B4","midi":71,"time":86.12083333333312,"velocity":0.33070866141732286,"duration":0.10208333333333997},{"name":"E4","midi":64,"time":86.13333333333313,"velocity":0.25984251968503935,"duration":0.11875000000000568},{"name":"B3","midi":59,"time":86.32812499999979,"velocity":0.2204724409448819,"duration":0.2666666666666657},{"name":"B4","midi":71,"time":86.46041666666645,"velocity":0.3464566929133858,"duration":0.12604166666666572},{"name":"E4","midi":64,"time":86.48229166666644,"velocity":0.30708661417322836,"duration":0.09375},{"name":"F#4","midi":66,"time":86.63854166666646,"velocity":0.3228346456692913,"duration":0.2697916666666629},{"name":"E4","midi":64,"time":86.79791666666645,"velocity":0.3700787401574803,"duration":0.1614583333333286},{"name":"G#4","midi":68,"time":86.79999999999978,"velocity":0.48031496062992124,"duration":0.1458333333333286},{"name":"B3","midi":59,"time":86.98541666666645,"velocity":0.30708661417322836,"duration":0.36666666666667425},{"name":"E4","midi":64,"time":87.15416666666646,"velocity":0.30708661417322836,"duration":0.15833333333333144},{"name":"G#4","midi":68,"time":87.16562499999979,"velocity":0.4330708661417323,"duration":0.11562499999999432},{"name":"F#4","midi":66,"time":87.30729166666646,"velocity":0.3858267716535433,"duration":0.2750000000000057},{"name":"G#4","midi":68,"time":87.48958333333313,"velocity":0.4094488188976378,"duration":0.12708333333333144},{"name":"E4","midi":64,"time":87.49270833333313,"velocity":0.3543307086614173,"duration":0.16875000000000284},{"name":"B3","midi":59,"time":87.6562499999998,"velocity":0.30708661417322836,"duration":0.328125},{"name":"G#4","midi":68,"time":87.82291666666646,"velocity":0.4330708661417323,"duration":0.09062500000000284},{"name":"E4","midi":64,"time":87.82604166666646,"velocity":0.33070866141732286,"duration":0.11354166666667709},{"name":"F#4","midi":66,"time":87.98020833333314,"velocity":0.3464566929133858,"duration":0.2604166666666572},{"name":"E4","midi":64,"time":88.16041666666646,"velocity":0.2992125984251969,"duration":0.140625},{"name":"A4","midi":69,"time":88.1624999999998,"velocity":0.3543307086614173,"duration":0.15520833333333428},{"name":"C#4","midi":61,"time":88.33958333333312,"velocity":0.3700787401574803,"duration":0.3583333333333343},{"name":"A4","midi":69,"time":88.49791666666646,"velocity":0.33858267716535434,"duration":0.1041666666666714},{"name":"E4","midi":64,"time":88.51666666666645,"velocity":0.36220472440944884,"duration":0.05937500000000284},{"name":"G#4","midi":68,"time":88.68437499999979,"velocity":0.2755905511811024,"duration":0.21666666666665435},{"name":"A4","midi":69,"time":88.82604166666646,"velocity":0.29133858267716534,"duration":0.1614583333333286},{"name":"E4","midi":64,"time":88.86458333333312,"velocity":0.18110236220472442,"duration":0.06458333333333144},{"name":"C#4","midi":61,"time":88.99062499999978,"velocity":0.2047244094488189,"duration":0.34375},{"name":"A4","midi":69,"time":89.17916666666645,"velocity":0.2992125984251969,"duration":0.10729166666666856},{"name":"E4","midi":64,"time":89.19374999999978,"velocity":0.23622047244094488,"duration":0.07708333333333428},{"name":"F#4","midi":66,"time":89.33229166666645,"velocity":0.25984251968503935,"duration":0.28958333333332575},{"name":"A4","midi":69,"time":89.49270833333311,"velocity":0.2677165354330709,"duration":0.1677083333333229},{"name":"E4","midi":64,"time":89.51979166666645,"velocity":0.1889763779527559,"duration":0.08541666666666003},{"name":"C#4","midi":61,"time":89.67187499999977,"velocity":0.2992125984251969,"duration":0.41458333333333997},{"name":"A4","midi":69,"time":89.85312499999978,"velocity":0.2677165354330709,"duration":0.11770833333332575},{"name":"E4","midi":64,"time":89.85624999999978,"velocity":0.2440944881889764,"duration":0.11249999999999716},{"name":"G#4","midi":68,"time":90.0458333333331,"velocity":0.30708661417322836,"duration":0.22812500000000568},{"name":"E4","midi":64,"time":90.18333333333311,"velocity":0.29133858267716534,"duration":0.1354166666666714},{"name":"A4","midi":69,"time":90.18541666666644,"velocity":0.28346456692913385,"duration":0.1302083333333428},{"name":"C#4","midi":61,"time":90.36458333333312,"velocity":0.33858267716535434,"duration":0.3802083333333428},{"name":"A4","midi":69,"time":90.52916666666646,"velocity":0.36220472440944884,"duration":0.09687499999999716},{"name":"E4","midi":64,"time":90.53333333333312,"velocity":0.28346456692913385,"duration":0.08229166666666288},{"name":"F#4","midi":66,"time":90.67083333333312,"velocity":0.3700787401574803,"duration":0.3072916666666714},{"name":"A4","midi":69,"time":90.84791666666646,"velocity":0.31496062992125984,"duration":0.15416666666666856},{"name":"E4","midi":64,"time":90.85729166666647,"velocity":0.2755905511811024,"duration":0.11354166666666288},{"name":"C#4","midi":61,"time":90.99166666666646,"velocity":0.36220472440944884,"duration":0.4020833333333229},{"name":"E4","midi":64,"time":91.18958333333313,"velocity":0.2992125984251969,"duration":0.10520833333332291},{"name":"A4","midi":69,"time":91.19687499999979,"velocity":0.2992125984251969,"duration":0.09479166666666572},{"name":"G#4","midi":68,"time":91.35520833333312,"velocity":0.44881889763779526,"duration":0.2614583333333229},{"name":"A4","midi":69,"time":91.52083333333312,"velocity":0.2992125984251969,"duration":0.13645833333333712},{"name":"E4","midi":64,"time":91.52604166666644,"velocity":0.2992125984251969,"duration":0.13437500000000568},{"name":"C#4","midi":61,"time":91.70729166666645,"velocity":0.36220472440944884,"duration":0.32604166666665435},{"name":"E4","midi":64,"time":91.87916666666645,"velocity":0.29133858267716534,"duration":0.0833333333333286},{"name":"A4","midi":69,"time":91.88333333333311,"velocity":0.3228346456692913,"duration":0.07916666666666572},{"name":"F#4","midi":66,"time":92.0302083333331,"velocity":0.3779527559055118,"duration":0.2979166666666657},{"name":"A4","midi":69,"time":92.20312499999977,"velocity":0.2992125984251969,"duration":0.1458333333333286},{"name":"E4","midi":64,"time":92.21249999999978,"velocity":0.29133858267716534,"duration":0.11874999999999147},{"name":"C#4","midi":61,"time":92.36354166666644,"velocity":0.36220472440944884,"duration":0.32604166666665435},{"name":"A4","midi":69,"time":92.54166666666643,"velocity":0.2992125984251969,"duration":0.09270833333333428},{"name":"E4","midi":64,"time":92.56041666666643,"velocity":0.2677165354330709,"duration":0.09062500000000284},{"name":"G#4","midi":68,"time":92.72083333333309,"velocity":0.4409448818897638,"duration":0.2708333333333286},{"name":"A4","midi":69,"time":92.87916666666642,"velocity":0.3464566929133858,"duration":0.13750000000000284},{"name":"E4","midi":64,"time":92.88541666666642,"velocity":0.29133858267716534,"duration":0.1447916666666771},{"name":"C#4","midi":61,"time":93.05937499999976,"velocity":0.3937007874015748,"duration":0.25},{"name":"E4","midi":64,"time":93.2395833333331,"velocity":0.2992125984251969,"duration":0.06354166666666572},{"name":"A4","midi":69,"time":93.25104166666644,"velocity":0.30708661417322836,"duration":0.055208333333325754},{"name":"F#4","midi":66,"time":93.37291666666643,"velocity":0.3228346456692913,"duration":0.15937499999999716},{"name":"G#4","midi":68,"time":93.58854166666643,"velocity":0.30708661417322836,"duration":0.04375000000000284},{"name":"E4","midi":64,"time":93.59791666666644,"velocity":0.2204724409448819,"duration":0.11041666666666572},{"name":"B3","midi":59,"time":93.7208333333331,"velocity":0.2677165354330709,"duration":0.31979166666666003},{"name":"E4","midi":64,"time":93.89479166666644,"velocity":0.36220472440944884,"duration":0.15937499999999716},{"name":"G#4","midi":68,"time":93.9083333333331,"velocity":0.4251968503937008,"duration":0.109375},{"name":"F#4","midi":66,"time":94.06354166666644,"velocity":0.30708661417322836,"duration":0.2562500000000085},{"name":"G#4","midi":68,"time":94.23437499999977,"velocity":0.4409448818897638,"duration":0.12187500000000284},{"name":"E4","midi":64,"time":94.24791666666644,"velocity":0.30708661417322836,"duration":0.14687499999999432},{"name":"B3","midi":59,"time":94.43437499999978,"velocity":0.2755905511811024,"duration":0.3166666666666771},{"name":"G#4","midi":68,"time":94.57916666666644,"velocity":0.3779527559055118,"duration":0.12812500000001137},{"name":"E4","midi":64,"time":94.58749999999978,"velocity":0.30708661417322836,"duration":0.16770833333333712},{"name":"F#4","midi":66,"time":94.75312499999978,"velocity":0.29133858267716534,"duration":0.3114583333333343},{"name":"G#4","midi":68,"time":94.93541666666646,"velocity":0.33070866141732286,"duration":0.09583333333333144},{"name":"E4","midi":64,"time":94.95624999999978,"velocity":0.33070866141732286,"duration":0.07916666666666572},{"name":"B3","midi":59,"time":95.15208333333312,"velocity":0.1889763779527559,"duration":0.29999999999999716},{"name":"G#4","midi":68,"time":95.29374999999979,"velocity":0.2755905511811024,"duration":0.11145833333333144},{"name":"E4","midi":64,"time":95.31979166666646,"velocity":0.2440944881889764,"duration":0.07916666666666572},{"name":"F#4","midi":66,"time":95.46458333333312,"velocity":0.33070866141732286,"duration":0.29999999999999716},{"name":"G#4","midi":68,"time":95.62291666666646,"velocity":0.4330708661417323,"duration":0.12291666666666856},{"name":"E4","midi":64,"time":95.65520833333312,"velocity":0.29133858267716534,"duration":0.078125},{"name":"B3","midi":59,"time":95.80416666666646,"velocity":0.28346456692913385,"duration":0.3541666666666572},{"name":"G#4","midi":68,"time":95.96770833333312,"velocity":0.4251968503937008,"duration":0.11354166666666288},{"name":"E4","midi":64,"time":95.97395833333312,"velocity":0.31496062992125984,"duration":0.1041666666666714},{"name":"F#4","midi":66,"time":96.12812499999978,"velocity":0.31496062992125984,"duration":0.2697916666666629},{"name":"G#4","midi":68,"time":96.31249999999979,"velocity":0.3779527559055118,"duration":0.13437499999999147},{"name":"E4","midi":64,"time":96.31874999999978,"velocity":0.3228346456692913,"duration":0.10625000000000284},{"name":"B3","midi":59,"time":96.50520833333312,"velocity":0.23622047244094488,"duration":0.29583333333332007},{"name":"E4","midi":64,"time":96.66145833333312,"velocity":0.28346456692913385,"duration":0.09583333333333144},{"name":"G#4","midi":68,"time":96.66458333333311,"velocity":0.4015748031496063,"duration":0.09999999999999432},{"name":"F#4","midi":66,"time":96.80937499999978,"velocity":0.33858267716535434,"duration":0.1770833333333286},{"name":"G#4","midi":68,"time":96.99999999999977,"velocity":0.3858267716535433,"duration":0.11979166666665719},{"name":"E4","midi":64,"time":97.0052083333331,"velocity":0.31496062992125984,"duration":0.11979166666665719},{"name":"B3","midi":59,"time":97.19374999999975,"velocity":0.2677165354330709,"duration":0.28437499999999716},{"name":"G#4","midi":68,"time":97.32708333333309,"velocity":0.4251968503937008,"duration":0.11979166666665719},{"name":"E4","midi":64,"time":97.34583333333309,"velocity":0.30708661417322836,"duration":0.09687499999999716},{"name":"F#4","midi":66,"time":97.50416666666642,"velocity":0.2677165354330709,"duration":0.23645833333334565},{"name":"E4","midi":64,"time":97.66874999999976,"velocity":0.2677165354330709,"duration":0.1354166666666714},{"name":"B4","midi":71,"time":97.71354166666643,"velocity":0.29133858267716534,"duration":0.07500000000000284},{"name":"B3","midi":59,"time":97.88437499999976,"velocity":0.2440944881889764,"duration":0.29270833333335133},{"name":"B4","midi":71,"time":98.01979166666644,"velocity":0.4015748031496063,"duration":0.11666666666667425},{"name":"E4","midi":64,"time":98.03437499999977,"velocity":0.2677165354330709,"duration":0.12812500000001137},{"name":"F#4","midi":66,"time":98.18541666666646,"velocity":0.3464566929133858,"duration":0.2604166666666572},{"name":"E4","midi":64,"time":98.35833333333312,"velocity":0.36220472440944884,"duration":0.13958333333333428},{"name":"B4","midi":71,"time":98.36458333333312,"velocity":0.4094488188976378,"duration":0.12291666666666856},{"name":"B3","midi":59,"time":98.5531249999998,"velocity":0.3228346456692913,"duration":0.33020833333333144},{"name":"E4","midi":64,"time":98.69999999999979,"velocity":0.3858267716535433,"duration":0.11145833333333144},{"name":"B4","midi":71,"time":98.70312499999979,"velocity":0.4015748031496063,"duration":0.11875000000000568},{"name":"F#4","midi":66,"time":98.87187499999979,"velocity":0.33858267716535434,"duration":0.26875000000001137},{"name":"E4","midi":64,"time":99.05104166666646,"velocity":0.28346456692913385,"duration":0.12812499999999716},{"name":"A4","midi":69,"time":99.05208333333313,"velocity":0.3464566929133858,"duration":0.171875},{"name":"C#4","midi":61,"time":99.2062499999998,"velocity":0.3779527559055118,"duration":0.32604166666665435},{"name":"E4","midi":64,"time":99.41041666666646,"velocity":0.29133858267716534,"duration":0.05729166666665719},{"name":"A4","midi":69,"time":99.41562499999979,"velocity":0.2992125984251969,"duration":0.06458333333333144},{"name":"G#4","midi":68,"time":99.53854166666645,"velocity":0.4094488188976378,"duration":0.2916666666666572},{"name":"A4","midi":69,"time":99.72083333333312,"velocity":0.33070866141732286,"duration":0.10624999999998863},{"name":"E4","midi":64,"time":99.72708333333311,"velocity":0.3228346456692913,"duration":0.09791666666666288},{"name":"C#4","midi":61,"time":99.89791666666643,"velocity":0.3464566929133858,"duration":0.3489583333333286},{"name":"A4","midi":69,"time":100.06041666666643,"velocity":0.23622047244094488,"duration":0.10104166666667425},{"name":"E4","midi":64,"time":100.08749999999976,"velocity":0.16535433070866143,"duration":0.08750000000000568},{"name":"F#4","midi":66,"time":100.21354166666643,"velocity":0.29133858267716534,"duration":0.2854166666666771},{"name":"A4","midi":69,"time":100.38541666666643,"velocity":0.33070866141732286,"duration":0.08958333333333712},{"name":"E4","midi":64,"time":100.40416666666643,"velocity":0.2677165354330709,"duration":0.08541666666667425},{"name":"C#4","midi":61,"time":100.55624999999978,"velocity":0.3228346456692913,"duration":0.34375},{"name":"E4","midi":64,"time":100.7489583333331,"velocity":0.2204724409448819,"duration":0.12291666666666856},{"name":"A4","midi":69,"time":100.75104166666644,"velocity":0.3464566929133858,"duration":0.07916666666666572},{"name":"G#4","midi":68,"time":100.88645833333311,"velocity":0.33070866141732286,"duration":0.27395833333333997},{"name":"E4","midi":64,"time":101.07395833333311,"velocity":0.31496062992125984,"duration":0.14687500000000853},{"name":"A4","midi":69,"time":101.08854166666644,"velocity":0.3700787401574803,"duration":0.09583333333334565},{"name":"C#4","midi":61,"time":101.24791666666646,"velocity":0.3543307086614173,"duration":0.3083333333333371},{"name":"A4","midi":69,"time":101.41562499999979,"velocity":0.3543307086614173,"duration":0.10833333333333428},{"name":"E4","midi":64,"time":101.41770833333312,"velocity":0.3779527559055118,"duration":0.11875000000000568},{"name":"F#4","midi":66,"time":101.57291666666646,"velocity":0.36220472440944884,"duration":0.32604166666665435},{"name":"A4","midi":69,"time":101.74583333333312,"velocity":0.4094488188976378,"duration":0.12395833333333428},{"name":"E4","midi":64,"time":101.74791666666646,"velocity":0.33858267716535434,"duration":0.14479166666666288},{"name":"C#4","midi":61,"time":101.91249999999978,"velocity":0.3937007874015748,"duration":0.35208333333333997},{"name":"A4","midi":69,"time":102.08854166666644,"velocity":0.36220472440944884,"duration":0.1604166666666771},{"name":"E4","midi":64,"time":102.09791666666645,"velocity":0.3700787401574803,"duration":0.12604166666666572},{"name":"G#4","midi":68,"time":102.24999999999979,"velocity":0.44881889763779526,"duration":0.2927083333333371},{"name":"E4","midi":64,"time":102.43541666666646,"velocity":0.3464566929133858,"duration":0.13854166666666856},{"name":"A4","midi":69,"time":102.43541666666646,"velocity":0.3937007874015748,"duration":0.1302083333333286},{"name":"C#4","midi":61,"time":102.61249999999978,"velocity":0.3779527559055118,"duration":0.27916666666666856},{"name":"A4","midi":69,"time":102.77395833333311,"velocity":0.3779527559055118,"duration":0.11354166666667709},{"name":"E4","midi":64,"time":102.78333333333312,"velocity":0.33070866141732286,"duration":0.11041666666666572},{"name":"F#4","midi":66,"time":102.91770833333312,"velocity":0.36220472440944884,"duration":0.2989583333333172},{"name":"C#5","midi":73,"time":103.11249999999978,"velocity":0.4409448818897638,"duration":0.11041666666665151},{"name":"E4","midi":64,"time":103.11979166666644,"velocity":0.2755905511811024,"duration":0.13437499999999147},{"name":"C#4","midi":61,"time":103.2833333333331,"velocity":0.4330708661417323,"duration":0.34375},{"name":"E4","midi":64,"time":103.46458333333311,"velocity":0.3779527559055118,"duration":0.13333333333332575},{"name":"C#5","midi":73,"time":103.46666666666644,"velocity":0.47244094488188976,"duration":0.14374999999999716},{"name":"G#4","midi":68,"time":103.62499999999977,"velocity":0.4881889763779528,"duration":0.29374999999998863},{"name":"E4","midi":64,"time":103.80312499999977,"velocity":0.4094488188976378,"duration":0.12708333333333144},{"name":"C#5","midi":73,"time":103.80624999999976,"velocity":0.48031496062992124,"duration":0.14374999999999716},{"name":"C#4","midi":61,"time":103.97291666666642,"velocity":0.4251968503937008,"duration":0.3437500000000284},{"name":"C#5","midi":73,"time":104.13854166666643,"velocity":0.4645669291338583,"duration":0.1291666666666771},{"name":"E4","midi":64,"time":104.14687499999977,"velocity":0.3700787401574803,"duration":0.09270833333333428},{"name":"F#4","midi":66,"time":104.27708333333311,"velocity":0.3937007874015748,"duration":0.07604166666666856},{"name":"E4","midi":64,"time":104.46249999999978,"velocity":0.31496062992125984,"duration":0.10624999999998863},{"name":"B4","midi":71,"time":104.46979166666644,"velocity":0.3779527559055118,"duration":0.08124999999999716},{"name":"F#4","midi":66,"time":104.69374999999977,"velocity":0.2677165354330709,"duration":0.2718749999999943},{"name":"E4","midi":64,"time":104.81666666666644,"velocity":0.25984251968503935,"duration":0.14479166666666288},{"name":"B4","midi":71,"time":104.8645833333331,"velocity":0.25984251968503935,"duration":0.04999999999999716},{"name":"G#4","midi":68,"time":105.03333333333309,"velocity":0.25984251968503935,"duration":0.28437500000001137},{"name":"E4","midi":64,"time":105.2302083333331,"velocity":0.16535433070866143,"duration":0.055208333333339965},{"name":"B4","midi":71,"time":105.2395833333331,"velocity":0.25984251968503935,"duration":0.03229166666666572},{"name":"F#4","midi":66,"time":105.3552083333331,"velocity":0.29133858267716534,"duration":0.28854166666667425},{"name":"E4","midi":64,"time":105.54166666666643,"velocity":0.1889763779527559,"duration":0.06562500000001137},{"name":"B4","midi":71,"time":105.55312499999977,"velocity":0.25984251968503935,"duration":0.039583333333339965},{"name":"G#4","midi":68,"time":105.7208333333331,"velocity":0.25984251968503935,"duration":0.2510416666666515},{"name":"E4","midi":64,"time":105.8677083333331,"velocity":0.1889763779527559,"duration":0.11041666666665151},{"name":"B4","midi":71,"time":105.8989583333331,"velocity":0.29133858267716534,"duration":0.05104166666666288},{"name":"F#4","midi":66,"time":106.03124999999974,"velocity":0.31496062992125984,"duration":0.28437499999999716},{"name":"E4","midi":64,"time":106.21874999999974,"velocity":0.2755905511811024,"duration":0.10625000000000284},{"name":"B4","midi":71,"time":106.24791666666641,"velocity":0.2677165354330709,"duration":0.036458333333328596},{"name":"G#4","midi":68,"time":106.39895833333308,"velocity":0.25984251968503935,"duration":0.203125},{"name":"E4","midi":64,"time":106.55729166666642,"velocity":0.2755905511811024,"duration":0.11770833333333997},{"name":"B4","midi":71,"time":106.60624999999975,"velocity":0.2677165354330709,"duration":0.04270833333333712},{"name":"F#4","midi":66,"time":106.73333333333309,"velocity":0.28346456692913385,"duration":0.26770833333333144},{"name":"E4","midi":64,"time":106.90937499999976,"velocity":0.2755905511811024,"duration":0.09479166666666572},{"name":"B4","midi":71,"time":106.95104166666643,"velocity":0.2440944881889764,"duration":0.03125},{"name":"G#4","midi":68,"time":107.09791666666642,"velocity":0.2440944881889764,"duration":0.21041666666667425},{"name":"E4","midi":64,"time":107.24895833333309,"velocity":0.2125984251968504,"duration":0.11145833333334565},{"name":"B4","midi":71,"time":107.26770833333309,"velocity":0.28346456692913385,"duration":0.06458333333334565},{"name":"F#4","midi":66,"time":107.41041666666644,"velocity":0.2992125984251969,"duration":0.2708333333333286},{"name":"E4","midi":64,"time":107.60937499999977,"velocity":0.2755905511811024,"duration":0.10937499999998579},{"name":"B4","midi":71,"time":107.61354166666644,"velocity":0.2755905511811024,"duration":0.08541666666666003},{"name":"G#4","midi":68,"time":107.76354166666643,"velocity":0.2992125984251969,"duration":0.2812500000000142},{"name":"E4","midi":64,"time":107.93541666666643,"velocity":0.30708661417322836,"duration":0.11250000000001137},{"name":"B4","midi":71,"time":107.95937499999977,"velocity":0.2283464566929134,"duration":0.07083333333333997},{"name":"F#4","midi":66,"time":108.10937499999977,"velocity":0.25196850393700787,"duration":0.2562499999999943},{"name":"E4","midi":64,"time":108.29166666666644,"velocity":0.23622047244094488,"duration":0.10104166666666003},{"name":"B4","midi":71,"time":108.2989583333331,"velocity":0.25196850393700787,"duration":0.07916666666666572},{"name":"G#4","midi":68,"time":108.45937499999977,"velocity":0.25984251968503935,"duration":0.19479166666667425},{"name":"E4","midi":64,"time":108.61249999999977,"velocity":0.2992125984251969,"duration":0.12812500000001137},{"name":"B4","midi":71,"time":108.63854166666644,"velocity":0.29133858267716534,"duration":0.08958333333333712},{"name":"F#4","midi":66,"time":108.78541666666645,"velocity":0.2440944881889764,"duration":0.3020833333333286},{"name":"B4","midi":71,"time":108.97604166666645,"velocity":0.2677165354330709,"duration":0.07291666666665719},{"name":"E4","midi":64,"time":108.97916666666644,"velocity":0.2755905511811024,"duration":0.08229166666666288},{"name":"G#4","midi":68,"time":109.13645833333311,"velocity":0.33858267716535434,"duration":0.2458333333333229},{"name":"E4","midi":64,"time":109.29270833333311,"velocity":0.28346456692913385,"duration":0.10625000000000284},{"name":"B4","midi":71,"time":109.34687499999977,"velocity":0.1732283464566929,"duration":0.04375000000000284},{"name":"F#4","midi":66,"time":109.47499999999978,"velocity":0.25984251968503935,"duration":0.24791666666666856},{"name":"E4","midi":64,"time":109.65833333333312,"velocity":0.2283464566929134,"duration":0.08645833333332575},{"name":"B4","midi":71,"time":109.67395833333312,"velocity":0.2047244094488189,"duration":0.06458333333333144},{"name":"G#4","midi":68,"time":109.8270833333331,"velocity":0.2440944881889764,"duration":0.24583333333333712},{"name":"E4","midi":64,"time":109.99687499999978,"velocity":0.2204724409448819,"duration":0.1041666666666714},{"name":"B4","midi":71,"time":110.02187499999978,"velocity":0.1889763779527559,"duration":0.06145833333333428},{"name":"F#4","midi":66,"time":110.16458333333311,"velocity":0.25196850393700787,"duration":0.29375000000000284},{"name":"E4","midi":64,"time":110.33020833333312,"velocity":0.2677165354330709,"duration":0.12604166666666572},{"name":"B4","midi":71,"time":110.34999999999978,"velocity":0.23622047244094488,"duration":0.07500000000000284},{"name":"G#4","midi":68,"time":110.53437499999978,"velocity":0.25984251968503935,"duration":0.3281250000000142},{"name":"E4","midi":64,"time":110.69374999999978,"velocity":0.2440944881889764,"duration":0.11875000000000568},{"name":"B4","midi":71,"time":110.69999999999978,"velocity":0.2125984251968504,"duration":0.0885416666666714},{"name":"F#4","midi":66,"time":110.87604166666647,"velocity":0.2677165354330709,"duration":0.2593750000000057},{"name":"E4","midi":64,"time":111.0312499999998,"velocity":0.2755905511811024,"duration":0.12291666666666856},{"name":"B4","midi":71,"time":111.04583333333314,"velocity":0.31496062992125984,"duration":0.078125},{"name":"G#4","midi":68,"time":111.21145833333314,"velocity":0.2755905511811024,"duration":0.26250000000000284},{"name":"E4","midi":64,"time":111.36249999999981,"velocity":0.29133858267716534,"duration":0.14687500000000853},{"name":"B4","midi":71,"time":111.38020833333314,"velocity":0.3228346456692913,"duration":0.1041666666666714},{"name":"F#4","midi":66,"time":111.56666666666649,"velocity":0.25984251968503935,"duration":0.25833333333333997},{"name":"E4","midi":64,"time":111.71458333333315,"velocity":0.30708661417322836,"duration":0.13229166666667425},{"name":"B4","midi":71,"time":111.72395833333316,"velocity":0.3464566929133858,"duration":0.09270833333333428},{"name":"G#4","midi":68,"time":111.88541666666649,"velocity":0.30708661417322836,"duration":0.24375000000000568},{"name":"E4","midi":64,"time":112.04687499999982,"velocity":0.3543307086614173,"duration":0.14895833333335418},{"name":"B4","midi":71,"time":112.07395833333315,"velocity":0.33858267716535434,"duration":0.09791666666667709},{"name":"F#4","midi":66,"time":112.22083333333318,"velocity":0.2992125984251969,"duration":0.3166666666666771},{"name":"E4","midi":64,"time":112.39062499999984,"velocity":0.3543307086614173,"duration":0.11249999999999716},{"name":"B4","midi":71,"time":112.40312499999985,"velocity":0.3858267716535433,"duration":0.109375},{"name":"G#4","midi":68,"time":112.52708333333318,"velocity":0.3464566929133858,"duration":0.3187500000000085},{"name":"A4","midi":69,"time":112.73854166666652,"velocity":0.31496062992125984,"duration":0.11145833333333144},{"name":"E4","midi":64,"time":112.74895833333319,"velocity":0.2047244094488189,"duration":0.16041666666666288},{"name":"C#4","midi":61,"time":112.90520833333319,"velocity":0.2440944881889764,"duration":0.2822916666666657},{"name":"A4","midi":69,"time":113.09583333333319,"velocity":0.2755905511811024,"duration":0.08020833333333144},{"name":"E4","midi":64,"time":113.12395833333319,"velocity":0.2440944881889764,"duration":0.07187500000000568},{"name":"G#4","midi":68,"time":113.26979166666653,"velocity":0.2755905511811024,"duration":0.2562500000000085},{"name":"E4","midi":64,"time":113.43749999999987,"velocity":0.25984251968503935,"duration":0.10520833333333712},{"name":"A4","midi":69,"time":113.4520833333332,"velocity":0.2992125984251969,"duration":0.07916666666666572},{"name":"C#4","midi":61,"time":113.59062499999987,"velocity":0.3228346456692913,"duration":0.3020833333333286},{"name":"E4","midi":64,"time":113.76979166666653,"velocity":0.2992125984251969,"duration":0.09687500000001137},{"name":"A4","midi":69,"time":113.77812499999987,"velocity":0.33858267716535434,"duration":0.09583333333333144},{"name":"G#4","midi":68,"time":113.92604166666653,"velocity":0.3543307086614173,"duration":0.2708333333333286},{"name":"E4","midi":64,"time":114.1020833333332,"velocity":0.33070866141732286,"duration":0.10312499999999147},{"name":"A4","midi":69,"time":114.11354166666653,"velocity":0.3464566929133858,"duration":0.09062499999998863},{"name":"C#4","midi":61,"time":114.29166666666653,"velocity":0.30708661417322836,"duration":0.27291666666666003},{"name":"A4","midi":69,"time":114.43437499999986,"velocity":0.4015748031496063,"duration":0.16874999999998863},{"name":"E4","midi":64,"time":114.43645833333319,"velocity":0.3543307086614173,"duration":0.125},{"name":"G#4","midi":68,"time":114.60416666666652,"velocity":0.33858267716535434,"duration":0.26250000000000284},{"name":"A4","midi":69,"time":114.78854166666652,"velocity":0.33070866141732286,"duration":0.109375},{"name":"E4","midi":64,"time":114.79166666666652,"velocity":0.33070866141732286,"duration":0.10312500000000568},{"name":"C#4","midi":61,"time":114.96249999999985,"velocity":0.33858267716535434,"duration":0.23541666666666572},{"name":"E4","midi":64,"time":115.15624999999984,"velocity":0.12598425196850394,"duration":0.1291666666666771},{"name":"A4","midi":69,"time":115.15833333333318,"velocity":0.1889763779527559,"duration":0.10312500000000568},{"name":"E5","midi":76,"time":115.19895833333318,"velocity":0.1732283464566929,"duration":0.026041666666671404},{"name":"G#4","midi":68,"time":115.31354166666652,"velocity":0.2440944881889764,"duration":0.26354166666666856},{"name":"A4","midi":69,"time":115.47395833333319,"velocity":0.33070866141732286,"duration":0.15520833333333428},{"name":"E4","midi":64,"time":115.50312499999986,"velocity":0.2755905511811024,"duration":0.09062500000000284},{"name":"E5","midi":76,"time":115.53124999999986,"velocity":0.18110236220472442,"duration":0.04791666666666572},{"name":"C#4","midi":61,"time":115.64999999999985,"velocity":0.30708661417322836,"duration":0.3166666666666771},{"name":"A4","midi":69,"time":115.81458333333319,"velocity":0.3543307086614173,"duration":0.14166666666666572},{"name":"E4","midi":64,"time":115.81770833333319,"velocity":0.2755905511811024,"duration":0.13750000000000284},{"name":"E5","midi":76,"time":115.85729166666653,"velocity":0.2440944881889764,"duration":0.06979166666666003},{"name":"G#4","midi":68,"time":116.00312499999986,"velocity":0.25196850393700787,"duration":0.25208333333333144},{"name":"A4","midi":69,"time":116.15729166666652,"velocity":0.3543307086614173,"duration":0.1406249999999858},{"name":"E5","midi":76,"time":116.18229166666653,"velocity":0.2204724409448819,"duration":0.11770833333331154},{"name":"E4","midi":64,"time":116.18854166666652,"velocity":0.29133858267716534,"duration":0.08854166666665719},{"name":"C#4","midi":61,"time":116.34062499999985,"velocity":0.33070866141732286,"duration":0.2718749999999943},{"name":"A4","midi":69,"time":116.50208333333318,"velocity":0.4015748031496063,"duration":0.13958333333333428},{"name":"E4","midi":64,"time":116.5041666666665,"velocity":0.2677165354330709,"duration":0.1666666666666714},{"name":"E5","midi":76,"time":116.51354166666651,"velocity":0.36220472440944884,"duration":0.1302083333333286},{"name":"G#4","midi":68,"time":116.71145833333318,"velocity":0.25196850393700787,"duration":0.22604166666666003},{"name":"E4","midi":64,"time":116.84166666666651,"velocity":0.33858267716535434,"duration":0.1458333333333286},{"name":"A4","midi":69,"time":116.84374999999984,"velocity":0.36220472440944884,"duration":0.14479166666666288},{"name":"E5","midi":76,"time":116.8666666666665,"velocity":0.31496062992125984,"duration":0.11666666666667425},{"name":"C#4","midi":61,"time":117.01354166666651,"velocity":0.3700787401574803,"duration":0.34270833333332007},{"name":"A4","midi":69,"time":117.18541666666651,"velocity":0.4015748031496063,"duration":0.14270833333333144},{"name":"E4","midi":64,"time":117.18958333333318,"velocity":0.33858267716535434,"duration":0.14791666666666003},{"name":"E5","midi":76,"time":117.19270833333317,"velocity":0.4015748031496063,"duration":0.13854166666666856},{"name":"G#4","midi":68,"time":117.35833333333316,"velocity":0.3228346456692913,"duration":0.29895833333333144},{"name":"A4","midi":69,"time":117.5322916666665,"velocity":0.4094488188976378,"duration":0.15208333333333712},{"name":"E5","midi":76,"time":117.5416666666665,"velocity":0.44881889763779526,"duration":0.14479166666666288},{"name":"E4","midi":64,"time":117.5447916666665,"velocity":0.33858267716535434,"duration":0.16354166666666003},{"name":"C#4","midi":61,"time":117.6885416666665,"velocity":0.3779527559055118,"duration":0.2666666666666657},{"name":"A4","midi":69,"time":117.87812499999983,"velocity":0.4094488188976378,"duration":0.13437500000000568},{"name":"E4","midi":64,"time":117.88749999999983,"velocity":0.30708661417322836,"duration":0.11562499999999432},{"name":"E5","midi":76,"time":117.89479166666649,"velocity":0.33070866141732286,"duration":0.10520833333333712},{"name":"G#4","midi":68,"time":118.03958333333317,"velocity":0.28346456692913385,"duration":0.3864583333333229},{"name":"B4","midi":71,"time":118.23437499999983,"velocity":0.3228346456692913,"duration":0.12708333333333144},{"name":"E5","midi":76,"time":118.23958333333316,"velocity":0.25984251968503935,"duration":0.12395833333333428},{"name":"E4","midi":64,"time":118.24166666666649,"velocity":0.28346456692913385,"duration":0.14895833333333997},{"name":"B3","midi":59,"time":118.43124999999982,"velocity":0.25196850393700787,"duration":0.3031249999999943},{"name":"E4","midi":64,"time":118.59479166666648,"velocity":0.18110236220472442,"duration":0.11249999999999716},{"name":"B4","midi":71,"time":118.59895833333314,"velocity":0.2992125984251969,"duration":0.08124999999999716},{"name":"E5","midi":76,"time":118.61770833333314,"velocity":0.2677165354330709,"duration":0.06458333333333144},{"name":"G#4","midi":68,"time":118.74270833333316,"velocity":0.36220472440944884,"duration":0.3031250000000085},{"name":"E4","midi":64,"time":118.90833333333316,"velocity":0.33858267716535434,"duration":0.14687500000000853},{"name":"B4","midi":71,"time":118.9322916666665,"velocity":0.2992125984251969,"duration":0.09270833333333428},{"name":"E5","midi":76,"time":118.9416666666665,"velocity":0.2125984251968504,"duration":0.08541666666666003},{"name":"B3","midi":59,"time":119.09374999999983,"velocity":0.2677165354330709,"duration":0.3395833333333229},{"name":"E4","midi":64,"time":119.26145833333317,"velocity":0.2755905511811024,"duration":0.12499999999998579},{"name":"B4","midi":71,"time":119.2635416666665,"velocity":0.3543307086614173,"duration":0.11979166666665719},{"name":"E5","midi":76,"time":119.2916666666665,"velocity":0.2283464566929134,"duration":0.08437499999999432},{"name":"G#4","midi":68,"time":119.44687499999982,"velocity":0.2755905511811024,"duration":0.2614583333333229},{"name":"E4","midi":64,"time":119.60416666666649,"velocity":0.3228346456692913,"duration":0.11979166666665719},{"name":"B4","midi":71,"time":119.60833333333315,"velocity":0.3858267716535433,"duration":0.16562499999999147},{"name":"E5","midi":76,"time":119.61458333333314,"velocity":0.3228346456692913,"duration":0.12083333333333712},{"name":"B3","midi":59,"time":119.77083333333314,"velocity":0.2677165354330709,"duration":0.34270833333332007},{"name":"E4","midi":64,"time":119.93229166666647,"velocity":0.33858267716535434,"duration":0.1406249999999858},{"name":"B4","midi":71,"time":119.9374999999998,"velocity":0.31496062992125984,"duration":0.13229166666666003},{"name":"E5","midi":76,"time":119.94166666666646,"velocity":0.2283464566929134,"duration":0.12083333333333712},{"name":"G#4","midi":68,"time":120.10104166666646,"velocity":0.33858267716535434,"duration":0.3229166666666572},{"name":"B4","midi":71,"time":120.28333333333313,"velocity":0.4251968503937008,"duration":0.13854166666665435},{"name":"E4","midi":64,"time":120.28645833333313,"velocity":0.30708661417322836,"duration":0.13333333333332575},{"name":"E5","midi":76,"time":120.29166666666646,"velocity":0.3228346456692913,"duration":0.12395833333333428},{"name":"B3","midi":59,"time":120.45520833333312,"velocity":0.29133858267716534,"duration":0.34166666666665435},{"name":"B4","midi":71,"time":120.61874999999978,"velocity":0.3937007874015748,"duration":0.13645833333333712},{"name":"E4","midi":64,"time":120.62083333333311,"velocity":0.3228346456692913,"duration":0.16041666666666288},{"name":"E5","midi":76,"time":120.63229166666645,"velocity":0.2755905511811024,"duration":0.12291666666666856},{"name":"G#4","midi":68,"time":120.77708333333311,"velocity":0.4094488188976378,"duration":0.3385416666666572},{"name":"E4","midi":64,"time":120.9583333333331,"velocity":0.3779527559055118,"duration":0.13958333333333428},{"name":"B4","midi":71,"time":120.96666666666644,"velocity":0.4330708661417323,"duration":0.17916666666666003},{"name":"E5","midi":76,"time":120.97291666666644,"velocity":0.2992125984251969,"duration":0.11562499999999432},{"name":"B3","midi":59,"time":121.13229166666643,"velocity":0.30708661417322836,"duration":0.40833333333334565},{"name":"B4","midi":71,"time":121.30624999999976,"velocity":0.4015748031496063,"duration":0.14375000000001137},{"name":"E4","midi":64,"time":121.3177083333331,"velocity":0.36220472440944884,"duration":0.12395833333333428},{"name":"E5","midi":76,"time":121.3208333333331,"velocity":0.36220472440944884,"duration":0.1302083333333428},{"name":"G#4","midi":68,"time":121.49479166666644,"velocity":0.4094488188976378,"duration":0.2541666666666771},{"name":"E4","midi":64,"time":121.65833333333312,"velocity":0.3779527559055118,"duration":0.13750000000000284},{"name":"B4","midi":71,"time":121.66666666666646,"velocity":0.4330708661417323,"duration":0.13854166666665435},{"name":"E5","midi":76,"time":121.67916666666646,"velocity":0.3937007874015748,"duration":0.11979166666665719},{"name":"B3","midi":59,"time":121.86666666666645,"velocity":0.29133858267716534,"duration":0.30937500000000284},{"name":"B4","midi":71,"time":122.01041666666644,"velocity":0.3779527559055118,"duration":0.09791666666666288},{"name":"E4","midi":64,"time":122.0145833333331,"velocity":0.33070866141732286,"duration":0.10729166666666856},{"name":"E5","midi":76,"time":122.03124999999977,"velocity":0.30708661417322836,"duration":0.1041666666666714},{"name":"G#4","midi":68,"time":122.19791666666644,"velocity":0.3464566929133858,"duration":0.19166666666666288},{"name":"E4","midi":64,"time":122.35624999999978,"velocity":0.2204724409448819,"duration":0.19374999999999432},{"name":"C#5","midi":73,"time":122.36041666666644,"velocity":0.5118110236220472,"duration":0.13854166666666856},{"name":"E5","midi":76,"time":122.36354166666644,"velocity":0.2677165354330709,"duration":0.1666666666666714},{"name":"B3","midi":59,"time":122.55624999999976,"velocity":0.3228346456692913,"duration":0.35729166666666856},{"name":"C#5","midi":73,"time":122.69999999999976,"velocity":0.3937007874015748,"duration":0.14270833333333144},{"name":"E4","midi":64,"time":122.70416666666642,"velocity":0.30708661417322836,"duration":0.13437500000000568},{"name":"E5","midi":76,"time":122.71249999999976,"velocity":0.3779527559055118,"duration":0.12812499999999716},{"name":"G#4","midi":68,"time":122.88229166666643,"velocity":0.4409448818897638,"duration":0.21458333333333712},{"name":"C#5","midi":73,"time":123.03229166666644,"velocity":0.4645669291338583,"duration":0.1458333333333286},{"name":"E4","midi":64,"time":123.03854166666643,"velocity":0.3937007874015748,"duration":0.13750000000000284},{"name":"E5","midi":76,"time":123.05104166666644,"velocity":0.3543307086614173,"duration":0.10520833333333712},{"name":"B3","midi":59,"time":123.2270833333331,"velocity":0.3464566929133858,"duration":0.4645833333333371},{"name":"C#5","midi":73,"time":123.39479166666644,"velocity":0.4094488188976378,"duration":0.09687499999999716},{"name":"E4","midi":64,"time":123.3958333333331,"velocity":0.36220472440944884,"duration":0.10520833333333712},{"name":"E5","midi":76,"time":123.44791666666643,"velocity":0.25984251968503935,"duration":0.03437499999999716},{"name":"G#4","midi":68,"time":123.5520833333331,"velocity":0.3464566929133858,"duration":0.33645833333332575},{"name":"E4","midi":64,"time":123.73124999999978,"velocity":0.2992125984251969,"duration":0.14999999999999147},{"name":"A4","midi":69,"time":123.74374999999978,"velocity":0.29133858267716534,"duration":0.11666666666666003},{"name":"E5","midi":76,"time":123.78124999999977,"velocity":0.14960629921259844,"duration":0.07187500000000568},{"name":"C#4","midi":61,"time":123.89479166666642,"velocity":0.3779527559055118,"duration":0.3177083333333286},{"name":"A4","midi":69,"time":124.08437499999975,"velocity":0.31496062992125984,"duration":0.1458333333333286},{"name":"E4","midi":64,"time":124.10729166666641,"velocity":0.2755905511811024,"duration":0.09895833333334281},{"name":"E5","midi":76,"time":124.13333333333308,"velocity":0.1889763779527559,"duration":0.0625},{"name":"G#4","midi":68,"time":124.27083333333309,"velocity":0.2125984251968504,"duration":0.3229166666666714},{"name":"E4","midi":64,"time":124.44374999999975,"velocity":0.2677165354330709,"duration":0.09791666666667709},{"name":"A4","midi":69,"time":124.45624999999976,"velocity":0.29133858267716534,"duration":0.08229166666667709},{"name":"E5","midi":76,"time":124.46562499999976,"velocity":0.23622047244094488,"duration":0.09791666666666288},{"name":"C#4","midi":61,"time":124.6052083333331,"velocity":0.3779527559055118,"duration":0.30416666666666003},{"name":"A4","midi":69,"time":124.76562499999976,"velocity":0.25984251968503935,"duration":0.15416666666666856},{"name":"E4","midi":64,"time":124.79583333333309,"velocity":0.13385826771653545,"duration":0.10208333333332575},{"name":"E5","midi":76,"time":124.81041666666643,"velocity":0.1732283464566929,"duration":0.0677083333333286},{"name":"G#4","midi":68,"time":124.94166666666642,"velocity":0.25984251968503935,"duration":0.3218749999999915},{"name":"E4","midi":64,"time":125.11770833333308,"velocity":0.30708661417322836,"duration":0.10208333333332575},{"name":"A4","midi":69,"time":125.12083333333308,"velocity":0.3228346456692913,"duration":0.0989583333333286},{"name":"E5","midi":76,"time":125.16041666666642,"velocity":0.1889763779527559,"duration":0.053124999999994316},{"name":"C#4","midi":61,"time":125.28958333333308,"velocity":0.3464566929133858,"duration":0.3010416666666629},{"name":"A4","midi":69,"time":125.45937499999975,"velocity":0.3464566929133858,"duration":0.1458333333333286},{"name":"E4","midi":64,"time":125.46666666666641,"velocity":0.2755905511811024,"duration":0.09791666666666288},{"name":"E5","midi":76,"time":125.47916666666642,"velocity":0.25984251968503935,"duration":0.09479166666666572},{"name":"G#4","midi":68,"time":125.62604166666641,"velocity":0.29133858267716534,"duration":0.34166666666665435},{"name":"E4","midi":64,"time":125.78645833333307,"velocity":0.2992125984251969,"duration":0.1520833333333229},{"name":"A4","midi":69,"time":125.79374999999973,"velocity":0.3543307086614173,"duration":0.11145833333333144},{"name":"E5","midi":76,"time":125.83437499999974,"velocity":0.2204724409448819,"duration":0.06354166666666572},{"name":"C#4","midi":61,"time":125.96458333333307,"velocity":0.3779527559055118,"duration":0.2874999999999943},{"name":"E4","midi":64,"time":126.12812499999973,"velocity":0.30708661417322836,"duration":0.1770833333333286},{"name":"A4","midi":69,"time":126.12916666666639,"velocity":0.36220472440944884,"duration":0.12916666666666288},{"name":"E5","midi":76,"time":126.13437499999972,"velocity":0.31496062992125984,"duration":0.13750000000000284},{"name":"G#4","midi":68,"time":126.2979166666664,"velocity":0.3779527559055118,"duration":0.34791666666664867},{"name":"E4","midi":64,"time":126.47499999999972,"velocity":0.2755905511811024,"duration":0.13229166666666003},{"name":"A4","midi":69,"time":126.47708333333306,"velocity":0.36220472440944884,"duration":0.1614583333333286},{"name":"E5","midi":76,"time":126.48229166666638,"velocity":0.2440944881889764,"duration":0.14270833333333144},{"name":"C#4","midi":61,"time":126.65208333333304,"velocity":0.3779527559055118,"duration":0.2718749999999943},{"name":"E4","midi":64,"time":126.82395833333304,"velocity":0.29133858267716534,"duration":0.10729166666665435},{"name":"A4","midi":69,"time":126.82708333333304,"velocity":0.33070866141732286,"duration":0.09270833333333428},{"name":"E5","midi":76,"time":126.83854166666637,"velocity":0.14960629921259844,"duration":0.09583333333331723},{"name":"G#4","midi":68,"time":127.0062499999997,"velocity":0.25984251968503935,"duration":0.31562499999998295},{"name":"A4","midi":69,"time":127.16874999999969,"velocity":0.3464566929133858,"duration":0.1572916666666515},{"name":"E4","midi":64,"time":127.17291666666635,"velocity":0.2755905511811024,"duration":0.11249999999999716},{"name":"E5","midi":76,"time":127.17604166666635,"velocity":0.2440944881889764,"duration":0.11354166666666288},{"name":"C#4","midi":61,"time":127.33854166666634,"velocity":0.3464566929133858,"duration":0.2708333333333286},{"name":"A4","midi":69,"time":127.51145833333301,"velocity":0.3779527559055118,"duration":0.09583333333333144},{"name":"E4","midi":64,"time":127.54583333333301,"velocity":0.2440944881889764,"duration":0.08541666666666003},{"name":"E5","midi":76,"time":127.55624999999968,"velocity":0.2440944881889764,"duration":0.06979166666666003},{"name":"G#4","midi":68,"time":127.692708333333,"velocity":0.31496062992125984,"duration":0.3447916666666515},{"name":"E4","midi":64,"time":127.86562499999967,"velocity":0.2755905511811024,"duration":0.1781249999999801},{"name":"C#5","midi":73,"time":127.867708333333,"velocity":0.3858267716535433,"duration":0.11354166666666288},{"name":"E5","midi":76,"time":127.898958333333,"velocity":0.1889763779527559,"duration":0.11874999999999147},{"name":"C#4","midi":61,"time":128.05208333333297,"velocity":0.36220472440944884,"duration":0.2656249999999716},{"name":"E4","midi":64,"time":128.19062499999964,"velocity":0.25196850393700787,"duration":0.19999999999998863},{"name":"E5","midi":76,"time":128.20520833333296,"velocity":0.4330708661417323,"duration":0.13854166666666856},{"name":"C#5","midi":73,"time":128.21562499999962,"velocity":0.3700787401574803,"duration":0.125},{"name":"G#4","midi":68,"time":128.38437499999964,"velocity":0.3464566929133858,"duration":0.3083333333333371},{"name":"E4","midi":64,"time":128.54999999999964,"velocity":0.3937007874015748,"duration":0.16874999999998863},{"name":"C#5","midi":73,"time":128.55104166666632,"velocity":0.4251968503937008,"duration":0.1354166666666572},{"name":"E5","midi":76,"time":128.56145833333298,"velocity":0.3464566929133858,"duration":0.11562499999999432},{"name":"C#4","midi":61,"time":128.73749999999964,"velocity":0.3779527559055118,"duration":0.26770833333333144},{"name":"C#5","midi":73,"time":128.88749999999965,"velocity":0.4409448818897638,"duration":0.13333333333332575},{"name":"E4","midi":64,"time":128.89583333333297,"velocity":0.3937007874015748,"duration":0.14270833333333144},{"name":"E5","midi":76,"time":128.90624999999963,"velocity":0.3543307086614173,"duration":0.12604166666667993},{"name":"G#4","midi":68,"time":129.06874999999962,"velocity":0.29133858267716534,"duration":0.3322916666666913},{"name":"E4","midi":64,"time":129.24374999999964,"velocity":0.28346456692913385,"duration":0.1552083333333485},{"name":"E5","midi":76,"time":129.25312499999964,"velocity":0.2755905511811024,"duration":0.17604166666666288},{"name":"B4","midi":71,"time":129.25520833333297,"velocity":0.3779527559055118,"duration":0.19166666666666288},{"name":"B3","midi":59,"time":129.44270833333297,"velocity":0.25196850393700787,"duration":0.26979166666663446},{"name":"E4","midi":64,"time":129.6229166666663,"velocity":0.2992125984251969,"duration":0.1052083333333087},{"name":"B4","midi":71,"time":129.62708333333296,"velocity":0.3228346456692913,"duration":0.09062499999998863},{"name":"E5","midi":76,"time":129.64166666666628,"velocity":0.23622047244094488,"duration":0.08229166666666288},{"name":"G#4","midi":68,"time":129.75729166666628,"velocity":0.3858267716535433,"duration":0.34270833333332007},{"name":"E4","midi":64,"time":129.9479166666663,"velocity":0.33858267716535434,"duration":0.13229166666664582},{"name":"B4","midi":71,"time":129.9635416666663,"velocity":0.31496062992125984,"duration":0.09687499999998295},{"name":"E5","midi":76,"time":129.98541666666628,"velocity":0.2047244094488189,"duration":0.07916666666665151},{"name":"B3","midi":59,"time":130.17395833333293,"velocity":0.2440944881889764,"duration":0.2531250000000398},{"name":"E4","midi":64,"time":130.3062499999996,"velocity":0.2992125984251969,"duration":0.1604166666666913},{"name":"B4","midi":71,"time":130.31770833333294,"velocity":0.25984251968503935,"duration":0.08854166666668561},{"name":"E5","midi":76,"time":130.33437499999962,"velocity":0.23622047244094488,"duration":0.07187500000000568},{"name":"G#4","midi":68,"time":130.47083333333296,"velocity":0.3228346456692913,"duration":0.3375000000000057},{"name":"E4","midi":64,"time":130.6385416666663,"velocity":0.29133858267716534,"duration":0.15937500000001137},{"name":"B4","midi":71,"time":130.6416666666663,"velocity":0.3464566929133858,"duration":0.12812500000001137},{"name":"E5","midi":76,"time":130.65937499999964,"velocity":0.2047244094488189,"duration":0.10104166666667425},{"name":"B3","midi":59,"time":130.8447916666663,"velocity":0.29133858267716534,"duration":0.34270833333332007},{"name":"B4","midi":71,"time":130.99583333333297,"velocity":0.3700787401574803,"duration":0.16770833333333712},{"name":"E4","midi":64,"time":131.00312499999964,"velocity":0.3464566929133858,"duration":0.16979166666666856},{"name":"E5","midi":76,"time":131.0166666666663,"velocity":0.2440944881889764,"duration":0.09583333333333144},{"name":"G#4","midi":68,"time":131.18333333333297,"velocity":0.3464566929133858,"duration":0.3239583333333087},{"name":"E4","midi":64,"time":131.33645833333296,"velocity":0.30708661417322836,"duration":0.15625},{"name":"B4","midi":71,"time":131.34999999999962,"velocity":0.4015748031496063,"duration":0.12708333333333144},{"name":"E5","midi":76,"time":131.39270833333296,"velocity":0.2283464566929134,"duration":0.0625},{"name":"B3","midi":59,"time":131.53229166666628,"velocity":0.3228346456692913,"duration":0.32604166666664014},{"name":"E4","midi":64,"time":131.6812499999996,"velocity":0.3700787401574803,"duration":0.13333333333332575},{"name":"B4","midi":71,"time":131.70104166666627,"velocity":0.28346456692913385,"duration":0.10312500000000568},{"name":"E5","midi":76,"time":131.74166666666628,"velocity":0.23622047244094488,"duration":0.05729166666665719},{"name":"G#4","midi":68,"time":131.86145833333293,"velocity":0.4094488188976378,"duration":0.3010416666666629},{"name":"E4","midi":64,"time":132.02395833333293,"velocity":0.36220472440944884,"duration":0.13333333333332575},{"name":"B4","midi":71,"time":132.03020833333292,"velocity":0.3700787401574803,"duration":0.13333333333335418},{"name":"E5","midi":76,"time":132.0583333333329,"velocity":0.2992125984251969,"duration":0.08125000000001137},{"name":"B3","midi":59,"time":132.2124999999996,"velocity":0.2992125984251969,"duration":0.3343749999999943},{"name":"E4","midi":64,"time":132.37187499999962,"velocity":0.36220472440944884,"duration":0.13124999999999432},{"name":"B4","midi":71,"time":132.37395833333295,"velocity":0.4094488188976378,"duration":0.12187499999998863},{"name":"E5","midi":76,"time":132.41770833333294,"velocity":0.25984251968503935,"duration":0.06354166666667993},{"name":"G#4","midi":68,"time":132.53854166666628,"velocity":0.4015748031496063,"duration":0.2927083333333087},{"name":"B4","midi":71,"time":132.7093749999996,"velocity":0.3937007874015748,"duration":0.12916666666666288},{"name":"E4","midi":64,"time":132.71458333333294,"velocity":0.3779527559055118,"duration":0.12916666666666288},{"name":"E5","midi":76,"time":132.7437499999996,"velocity":0.2677165354330709,"duration":0.07291666666665719},{"name":"B3","midi":59,"time":132.9031249999996,"velocity":0.33070866141732286,"duration":0.3197916666666458},{"name":"B4","midi":71,"time":133.0427083333329,"velocity":0.4015748031496063,"duration":0.10729166666666856},{"name":"E4","midi":64,"time":133.04999999999959,"velocity":0.3779527559055118,"duration":0.11666666666664582},{"name":"E5","midi":76,"time":133.06770833333292,"velocity":0.3779527559055118,"duration":0.09062499999998863},{"name":"G#4","midi":68,"time":133.21874999999957,"velocity":0.4409448818897638,"duration":0.20937499999999432},{"name":"E4","midi":64,"time":133.3708333333329,"velocity":0.3543307086614173,"duration":0.16354166666667425},{"name":"C#5","midi":73,"time":133.3927083333329,"velocity":0.4566929133858268,"duration":0.13645833333333712},{"name":"E5","midi":76,"time":133.40729166666623,"velocity":0.3464566929133858,"duration":0.1281250000000398},{"name":"B3","midi":59,"time":133.56354166666625,"velocity":0.3779527559055118,"duration":0.32604166666666856},{"name":"C#5","midi":73,"time":133.71979166666625,"velocity":0.48031496062992124,"duration":0.15312499999998863},{"name":"E4","midi":64,"time":133.7312499999996,"velocity":0.3779527559055118,"duration":0.16041666666666288},{"name":"E5","midi":76,"time":133.7406249999996,"velocity":0.3779527559055118,"duration":0.11979166666665719},{"name":"G#4","midi":68,"time":133.9031249999996,"velocity":0.4881889763779528,"duration":0.2197916666666515},{"name":"E4","midi":64,"time":134.06145833333292,"velocity":0.3700787401574803,"duration":0.14375000000001137},{"name":"B4","midi":71,"time":134.06979166666625,"velocity":0.44881889763779526,"duration":0.1395833333333485},{"name":"E5","midi":76,"time":134.07187499999958,"velocity":0.28346456692913385,"duration":0.1302083333333428},{"name":"B3","midi":59,"time":134.25312499999959,"velocity":0.33070866141732286,"duration":0.42916666666667425},{"name":"B4","midi":71,"time":134.40624999999957,"velocity":0.44881889763779526,"duration":0.14687500000002274},{"name":"E4","midi":64,"time":134.41145833333292,"velocity":0.3700787401574803,"duration":0.1458333333333428},{"name":"E5","midi":76,"time":134.42499999999959,"velocity":0.3700787401574803,"duration":0.125},{"name":"G#4","midi":68,"time":134.57916666666625,"velocity":0.4094488188976378,"duration":0.32291666666671404},{"name":"E5","midi":76,"time":134.76354166666627,"velocity":0.28346456692913385,"duration":0.13541666666668561},{"name":"A4","midi":69,"time":134.76458333333295,"velocity":0.36220472440944884,"duration":0.12708333333333144},{"name":"E4","midi":64,"time":134.77812499999962,"velocity":0.2992125984251969,"duration":0.10729166666666856},{"name":"C#4","midi":61,"time":134.9447916666663,"velocity":0.3858267716535433,"duration":0.30520833333329733},{"name":"A4","midi":69,"time":135.12812499999964,"velocity":0.36220472440944884,"duration":0.11145833333330302},{"name":"E4","midi":64,"time":135.1322916666663,"velocity":0.3464566929133858,"duration":0.10104166666664582},{"name":"E5","midi":76,"time":135.1479166666663,"velocity":0.28346456692913385,"duration":0.07499999999998863},{"name":"G#4","midi":68,"time":135.3187499999996,"velocity":0.28346456692913385,"duration":0.33958333333336554},{"name":"A4","midi":69,"time":135.47604166666628,"velocity":0.3543307086614173,"duration":0.10520833333333712},{"name":"E4","midi":64,"time":135.49791666666627,"velocity":0.25984251968503935,"duration":0.06875000000002274},{"name":"E5","midi":76,"time":135.5187499999996,"velocity":0.2677165354330709,"duration":0.04791666666667993},{"name":"C#4","midi":61,"time":135.65729166666628,"velocity":0.3779527559055118,"duration":0.3343749999999943},{"name":"A4","midi":69,"time":135.8010416666663,"velocity":0.3464566929133858,"duration":0.1677083333333087},{"name":"E5","midi":76,"time":135.81249999999963,"velocity":0.33070866141732286,"duration":0.11249999999998295},{"name":"E4","midi":64,"time":135.8229166666663,"velocity":0.2755905511811024,"duration":0.08437499999999432},{"name":"G#4","midi":68,"time":135.96666666666627,"velocity":0.4251968503937008,"duration":0.3125000000000284},{"name":"A4","midi":69,"time":136.1593749999996,"velocity":0.3464566929133858,"duration":0.18437500000001705},{"name":"E4","midi":64,"time":136.1666666666663,"velocity":0.33070866141732286,"duration":0.10729166666666856},{"name":"E5","midi":76,"time":136.1749999999996,"velocity":0.28346456692913385,"duration":0.09895833333334281},{"name":"C#4","midi":61,"time":136.31874999999962,"velocity":0.3858267716535433,"duration":0.3541666666666572},{"name":"E4","midi":64,"time":136.50833333333296,"velocity":0.3700787401574803,"duration":0.13437500000000568},{"name":"A4","midi":69,"time":136.51249999999962,"velocity":0.4251968503937008,"duration":0.15208333333333712},{"name":"E5","midi":76,"time":136.5291666666663,"velocity":0.33070866141732286,"duration":0.12395833333332007},{"name":"G#4","midi":68,"time":136.65624999999963,"velocity":0.44881889763779526,"duration":0.3656249999999943},{"name":"E4","midi":64,"time":136.86145833333296,"velocity":0.31496062992125984,"duration":0.15833333333333144},{"name":"A4","midi":69,"time":136.8666666666663,"velocity":0.4251968503937008,"duration":0.16979166666664014},{"name":"E5","midi":76,"time":136.88020833333297,"velocity":0.29133858267716534,"duration":0.1354166666666572},{"name":"C#4","midi":61,"time":137.0406249999996,"velocity":0.3858267716535433,"duration":0.3385416666666572},{"name":"E5","midi":76,"time":137.2218749999996,"velocity":0.3228346456692913,"duration":0.13958333333332007},{"name":"E4","midi":64,"time":137.22395833333294,"velocity":0.31496062992125984,"duration":0.1510416666666572},{"name":"A4","midi":69,"time":137.23229166666627,"velocity":0.3937007874015748,"duration":0.11666666666667425},{"name":"G#4","midi":68,"time":137.40208333333294,"velocity":0.3858267716535433,"duration":0.31875000000002274},{"name":"A4","midi":69,"time":137.56979166666628,"velocity":0.3858267716535433,"duration":0.13645833333333712},{"name":"E4","midi":64,"time":137.57708333333295,"velocity":0.33858267716535434,"duration":0.140625},{"name":"E5","midi":76,"time":137.58333333333294,"velocity":0.31496062992125984,"duration":0.11770833333332575},{"name":"C#4","midi":61,"time":137.73541666666628,"velocity":0.4330708661417323,"duration":0.32500000000001705},{"name":"A4","midi":69,"time":137.9312499999996,"velocity":0.3779527559055118,"duration":0.14062500000002842},{"name":"E4","midi":64,"time":137.9322916666663,"velocity":0.33858267716535434,"duration":0.12604166666667993},{"name":"E5","midi":76,"time":137.9572916666663,"velocity":0.33070866141732286,"duration":0.10833333333334849},{"name":"G#4","midi":68,"time":138.08645833333296,"velocity":0.4094488188976378,"duration":0.33541666666667425},{"name":"A4","midi":69,"time":138.27499999999964,"velocity":0.4330708661417323,"duration":0.14270833333333144},{"name":"E4","midi":64,"time":138.27708333333297,"velocity":0.3937007874015748,"duration":0.13333333333332575},{"name":"E5","midi":76,"time":138.28437499999964,"velocity":0.3779527559055118,"duration":0.12395833333332007},{"name":"C#4","midi":61,"time":138.43749999999963,"velocity":0.44881889763779526,"duration":0.33124999999998295},{"name":"A4","midi":69,"time":138.62395833333295,"velocity":0.4566929133858268,"duration":0.07916666666665151},{"name":"E5","midi":76,"time":138.62604166666628,"velocity":0.33070866141732286,"duration":0.12395833333332007},{"name":"E4","midi":64,"time":138.6281249999996,"velocity":0.36220472440944884,"duration":0.11249999999998295},{"name":"G#4","midi":68,"time":138.78854166666628,"velocity":0.4094488188976378,"duration":0.3552083333333371},{"name":"E5","midi":76,"time":138.9718749999996,"velocity":0.3858267716535433,"duration":0.1458333333333428},{"name":"E4","midi":64,"time":138.97604166666628,"velocity":0.33070866141732286,"duration":0.13229166666667425},{"name":"C#5","midi":73,"time":138.98333333333295,"velocity":0.48031496062992124,"duration":0.140625},{"name":"C#4","midi":61,"time":139.1718749999996,"velocity":0.4251968503937008,"duration":0.2895833333333826},{"name":"C#5","midi":73,"time":139.3218749999996,"velocity":0.4645669291338583,"duration":0.13020833333337123},{"name":"E4","midi":64,"time":139.3385416666663,"velocity":0.29133858267716534,"duration":0.13333333333335418},{"name":"E5","midi":76,"time":139.35208333333296,"velocity":0.33070866141732286,"duration":0.07916666666667993},{"name":"G#4","midi":68,"time":139.49479166666632,"velocity":0.4645669291338583,"duration":0.38750000000001705},{"name":"E4","midi":64,"time":139.6885416666663,"velocity":0.33070866141732286,"duration":0.14270833333335986},{"name":"A4","midi":69,"time":139.69166666666632,"velocity":0.4015748031496063,"duration":0.12812500000001137},{"name":"E5","midi":76,"time":139.698958333333,"velocity":0.36220472440944884,"duration":0.13645833333333712},{"name":"C#4","midi":61,"time":139.88749999999968,"velocity":0.3464566929133858,"duration":0.31979166666667425},{"name":"A4","midi":69,"time":140.04999999999967,"velocity":0.36220472440944884,"duration":0.13437500000000568},{"name":"E4","midi":64,"time":140.06041666666633,"velocity":0.30708661417322836,"duration":0.10833333333334849},{"name":"E5","midi":76,"time":140.07187499999966,"velocity":0.29133858267716534,"duration":0.07604166666666856},{"name":"G#4","midi":68,"time":140.2281249999997,"velocity":0.3779527559055118,"duration":0.31875000000002274},{"name":"E4","midi":64,"time":140.39791666666636,"velocity":0.28346456692913385,"duration":0.15208333333336554},{"name":"B4","midi":71,"time":140.4093749999997,"velocity":0.33858267716535434,"duration":0.1447916666666913},{"name":"E5","midi":76,"time":140.4343749999997,"velocity":0.25984251968503935,"duration":0.10520833333333712},{"name":"B3","midi":59,"time":140.57708333333306,"velocity":0.2755905511811024,"duration":0.38749999999998863},{"name":"E4","midi":64,"time":140.78333333333308,"velocity":0.31496062992125984,"duration":0.13749999999998863},{"name":"B4","midi":71,"time":140.78749999999974,"velocity":0.33070866141732286,"duration":0.11249999999998295},{"name":"E5","midi":76,"time":140.81874999999974,"velocity":0.1968503937007874,"duration":0.07083333333332575},{"name":"G#4","midi":68,"time":140.93124999999972,"velocity":0.4409448818897638,"duration":0.3666666666666458},{"name":"B4","midi":71,"time":141.1166666666664,"velocity":0.31496062992125984,"duration":0.14687499999999432},{"name":"E4","midi":64,"time":141.13020833333306,"velocity":0.3228346456692913,"duration":0.14791666666664582},{"name":"E5","midi":76,"time":141.15624999999972,"velocity":0.2440944881889764,"duration":0.11145833333333144},{"name":"B3","midi":59,"time":141.29166666666637,"velocity":0.2992125984251969,"duration":0.37291666666666856},{"name":"E4","midi":64,"time":141.48645833333305,"velocity":0.30708661417322836,"duration":0.15625},{"name":"B4","midi":71,"time":141.4968749999997,"velocity":0.3543307086614173,"duration":0.12083333333333712},{"name":"E5","midi":76,"time":141.51041666666637,"velocity":0.28346456692913385,"duration":0.11041666666667993},{"name":"G#4","midi":68,"time":141.64062499999972,"velocity":0.3464566929133858,"duration":0.35833333333332007},{"name":"E4","midi":64,"time":141.83645833333304,"velocity":0.3464566929133858,"duration":0.16041666666666288},{"name":"B4","midi":71,"time":141.85208333333304,"velocity":0.3464566929133858,"duration":0.11354166666666288},{"name":"E5","midi":76,"time":141.8718749999997,"velocity":0.2755905511811024,"duration":0.07187500000000568},{"name":"B3","midi":59,"time":142.0093749999997,"velocity":0.2677165354330709,"duration":0.3552083333333371},{"name":"E4","midi":64,"time":142.18229166666637,"velocity":0.2440944881889764,"duration":0.13854166666666856},{"name":"B4","midi":71,"time":142.20208333333304,"velocity":0.3228346456692913,"duration":0.10520833333333712},{"name":"E5","midi":76,"time":142.22395833333303,"velocity":0.2204724409448819,"duration":0.07187500000000568},{"name":"G#4","midi":68,"time":142.35833333333304,"velocity":0.3779527559055118,"duration":0.32083333333332575},{"name":"E4","midi":64,"time":142.5343749999997,"velocity":0.3779527559055118,"duration":0.13229166666667425},{"name":"B4","midi":71,"time":142.55104166666638,"velocity":0.3228346456692913,"duration":0.12916666666666288},{"name":"E5","midi":76,"time":142.57708333333304,"velocity":0.1889763779527559,"duration":0.09583333333333144},{"name":"B3","midi":59,"time":142.72083333333305,"velocity":0.25984251968503935,"duration":0.423958333333303},{"name":"E4","midi":64,"time":142.88541666666637,"velocity":0.33070866141732286,"duration":0.15625},{"name":"B4","midi":71,"time":142.90208333333305,"velocity":0.36220472440944884,"duration":0.1260416666666515},{"name":"E5","midi":76,"time":142.92395833333305,"velocity":0.2204724409448819,"duration":0.10208333333332575},{"name":"G#4","midi":68,"time":143.06770833333303,"velocity":0.36220472440944884,"duration":0.33124999999998295},{"name":"E4","midi":64,"time":143.23854166666635,"velocity":0.29133858267716534,"duration":0.17395833333333144},{"name":"B4","midi":71,"time":143.25208333333302,"velocity":0.3858267716535433,"duration":0.12395833333332007},{"name":"E5","midi":76,"time":143.26354166666636,"velocity":0.2992125984251969,"duration":0.09791666666666288},{"name":"B3","midi":59,"time":143.42604166666635,"velocity":0.2677165354330709,"duration":0.37395833333332007},{"name":"E4","midi":64,"time":143.5874999999997,"velocity":0.3700787401574803,"duration":0.13437499999997726},{"name":"B4","midi":71,"time":143.602083333333,"velocity":0.33858267716535434,"duration":0.12291666666666856},{"name":"E5","midi":76,"time":143.61979166666634,"velocity":0.2755905511811024,"duration":0.08750000000000568},{"name":"G#4","midi":68,"time":143.770833333333,"velocity":0.4409448818897638,"duration":0.29791666666667993},{"name":"E4","midi":64,"time":143.93229166666634,"velocity":0.3700787401574803,"duration":0.14375000000001137},{"name":"B4","midi":71,"time":143.93854166666634,"velocity":0.4094488188976378,"duration":0.14375000000001137},{"name":"E5","midi":76,"time":143.95624999999967,"velocity":0.3543307086614173,"duration":0.11666666666667425},{"name":"B3","midi":59,"time":144.108333333333,"velocity":0.30708661417322836,"duration":0.45000000000001705},{"name":"B4","midi":71,"time":144.29062499999966,"velocity":0.4409448818897638,"duration":0.1135416666666913},{"name":"E4","midi":64,"time":144.29374999999968,"velocity":0.3543307086614173,"duration":0.11979166666668561},{"name":"E5","midi":76,"time":144.30729166666634,"velocity":0.33858267716535434,"duration":0.10312500000000568},{"name":"G#4","midi":68,"time":144.46666666666636,"velocity":0.4015748031496063,"duration":0.2333333333333485},{"name":"E4","midi":64,"time":144.65520833333304,"velocity":0.3464566929133858,"duration":0.16041666666666288},{"name":"C#5","midi":73,"time":144.65729166666637,"velocity":0.5196850393700787,"duration":0.15520833333332007},{"name":"E5","midi":76,"time":144.6593749999997,"velocity":0.36220472440944884,"duration":0.14895833333332575},{"name":"B3","midi":59,"time":144.84895833333303,"velocity":0.3464566929133858,"duration":0.3437500000000284},{"name":"C#5","midi":73,"time":144.99270833333304,"velocity":0.49606299212598426,"duration":0.15625},{"name":"E4","midi":64,"time":145.00104166666637,"velocity":0.4251968503937008,"duration":0.15416666666666856},{"name":"E5","midi":76,"time":145.01770833333305,"velocity":0.3858267716535433,"duration":0.11875000000000568},{"name":"G#4","midi":68,"time":145.18749999999972,"velocity":0.48031496062992124,"duration":0.22187500000001137},{"name":"E4","midi":64,"time":145.34270833333306,"velocity":0.4015748031496063,"duration":0.1729166666666515},{"name":"B4","midi":71,"time":145.35312499999972,"velocity":0.5039370078740157,"duration":0.16979166666666856},{"name":"E5","midi":76,"time":145.37395833333306,"velocity":0.3779527559055118,"duration":0.11562499999999432},{"name":"B3","midi":59,"time":145.54062499999972,"velocity":0.3700787401574803,"duration":0.435416666666697},{"name":"B4","midi":71,"time":145.70520833333305,"velocity":0.48031496062992124,"duration":0.1447916666666913},{"name":"E5","midi":76,"time":145.70729166666638,"velocity":0.3700787401574803,"duration":0.1395833333333485},{"name":"E4","midi":64,"time":145.70833333333306,"velocity":0.3937007874015748,"duration":0.14375000000001137},{"name":"G#4","midi":68,"time":145.87708333333308,"velocity":0.4409448818897638,"duration":0.3479166666667197},{"name":"E5","midi":76,"time":146.04166666666643,"velocity":0.44881889763779526,"duration":0.1614583333333428},{"name":"A4","midi":69,"time":146.0552083333331,"velocity":0.4409448818897638,"duration":0.13437500000000568},{"name":"E4","midi":64,"time":146.0645833333331,"velocity":0.3543307086614173,"duration":0.17291666666667993},{"name":"C#4","midi":61,"time":146.21979166666645,"velocity":0.4409448818897638,"duration":0.2979166666666515},{"name":"A4","midi":69,"time":146.4031249999998,"velocity":0.3858267716535433,"duration":0.12812499999998295},{"name":"E5","midi":76,"time":146.40937499999978,"velocity":0.3228346456692913,"duration":0.1260416666666515},{"name":"E4","midi":64,"time":146.41562499999978,"velocity":0.33858267716535434,"duration":0.16458333333332575},{"name":"G#4","midi":68,"time":146.54687499999977,"velocity":0.48031496062992124,"duration":0.3322916666666629},{"name":"A4","midi":69,"time":146.7427083333331,"velocity":0.3858267716535433,"duration":0.13229166666667425},{"name":"E5","midi":76,"time":146.7520833333331,"velocity":0.33858267716535434,"duration":0.12916666666666288},{"name":"E4","midi":64,"time":146.75416666666644,"velocity":0.3543307086614173,"duration":0.13124999999999432},{"name":"C#4","midi":61,"time":146.9239583333331,"velocity":0.4015748031496063,"duration":0.30937500000001705},{"name":"A4","midi":69,"time":147.0864583333331,"velocity":0.36220472440944884,"duration":0.18229166666668561},{"name":"E5","midi":76,"time":147.0895833333331,"velocity":0.33858267716535434,"duration":0.13437500000000568},{"name":"E4","midi":64,"time":147.09791666666644,"velocity":0.33070866141732286,"duration":0.16562500000000568},{"name":"G#4","midi":68,"time":147.2614583333331,"velocity":0.4094488188976378,"duration":0.3218750000000057},{"name":"A4","midi":69,"time":147.44479166666645,"velocity":0.3858267716535433,"duration":0.18020833333332575},{"name":"E4","midi":64,"time":147.45104166666644,"velocity":0.3464566929133858,"duration":0.1302083333333428},{"name":"E5","midi":76,"time":147.45416666666645,"velocity":0.33858267716535434,"duration":0.11666666666667425},{"name":"C#4","midi":61,"time":147.59374999999977,"velocity":0.33858267716535434,"duration":0.3750000000000284},{"name":"E4","midi":64,"time":147.79374999999976,"velocity":0.2283464566929134,"duration":0.14687500000002274},{"name":"A4","midi":69,"time":147.79687499999977,"velocity":0.3464566929133858,"duration":0.15104166666668561},{"name":"E5","midi":76,"time":147.81249999999977,"velocity":0.28346456692913385,"duration":0.09166666666666856},{"name":"G#4","midi":68,"time":147.9656249999998,"velocity":0.33070866141732286,"duration":0.328125},{"name":"E4","midi":64,"time":148.1406249999998,"velocity":0.33070866141732286,"duration":0.18645833333332007},{"name":"A4","midi":69,"time":148.14895833333313,"velocity":0.3464566929133858,"duration":0.19270833333331439},{"name":"E5","midi":76,"time":148.16770833333314,"velocity":0.2283464566929134,"duration":0.11354166666666288},{"name":"C#4","midi":61,"time":148.3187499999998,"velocity":0.3464566929133858,"duration":0.345833333333303},{"name":"E4","midi":64,"time":148.4927083333331,"velocity":0.2755905511811024,"duration":0.15208333333333712},{"name":"A4","midi":69,"time":148.49479166666643,"velocity":0.29133858267716534,"duration":0.14375000000001137},{"name":"E5","midi":76,"time":148.51249999999976,"velocity":0.25984251968503935,"duration":0.11041666666667993},{"name":"G#4","midi":68,"time":148.68854166666642,"velocity":0.2677165354330709,"duration":0.31562499999998295},{"name":"A4","midi":69,"time":148.85520833333308,"velocity":0.3700787401574803,"duration":0.17916666666664582},{"name":"E4","midi":64,"time":148.87083333333308,"velocity":0.2992125984251969,"duration":0.109375},{"name":"E5","midi":76,"time":148.87083333333308,"velocity":0.25196850393700787,"duration":0.10312500000000568},{"name":"C#4","midi":61,"time":149.01249999999973,"velocity":0.3858267716535433,"duration":0.2708333333333428},{"name":"A4","midi":69,"time":149.20208333333306,"velocity":0.4251968503937008,"duration":0.15312499999998863},{"name":"E4","midi":64,"time":149.20312499999974,"velocity":0.2992125984251969,"duration":0.11458333333331439},{"name":"E5","midi":76,"time":149.22187499999976,"velocity":0.2755905511811024,"duration":0.08541666666664582},{"name":"G#4","midi":68,"time":149.33333333333306,"velocity":0.4094488188976378,"duration":0.3822916666666458},{"name":"E4","midi":64,"time":149.53437499999973,"velocity":0.3464566929133858,"duration":0.13124999999999432},{"name":"A4","midi":69,"time":149.5416666666664,"velocity":0.3464566929133858,"duration":0.16354166666664582},{"name":"E5","midi":76,"time":149.5729166666664,"velocity":0.2047244094488189,"duration":0.08437499999999432},{"name":"C#4","midi":61,"time":149.71874999999972,"velocity":0.3464566929133858,"duration":0.28020833333332007},{"name":"A4","midi":69,"time":149.88541666666637,"velocity":0.3543307086614173,"duration":0.14375000000001137},{"name":"E4","midi":64,"time":149.89479166666638,"velocity":0.29133858267716534,"duration":0.12083333333333712},{"name":"E5","midi":76,"time":149.90729166666637,"velocity":0.2992125984251969,"duration":0.11875000000000568},{"name":"G#4","midi":68,"time":150.05729166666637,"velocity":0.29133858267716534,"duration":0.3218750000000341},{"name":"E4","midi":64,"time":150.2374999999997,"velocity":0.33858267716535434,"duration":0.13854166666669698},{"name":"A4","midi":69,"time":150.2406249999997,"velocity":0.33070866141732286,"duration":0.17187500000002842},{"name":"E5","midi":76,"time":150.2572916666664,"velocity":0.2677165354330709,"duration":0.11979166666668561},{"name":"C#4","midi":61,"time":150.4229166666664,"velocity":0.29133858267716534,"duration":0.29270833333336554},{"name":"A4","midi":69,"time":150.59062499999973,"velocity":0.3700787401574803,"duration":0.18020833333335418},{"name":"E5","midi":76,"time":150.59999999999974,"velocity":0.25196850393700787,"duration":0.12083333333336554},{"name":"E4","midi":64,"time":150.60312499999975,"velocity":0.2755905511811024,"duration":0.11979166666668561},{"name":"G#4","midi":68,"time":150.75104166666642,"velocity":0.33858267716535434,"duration":0.3760416666666515},{"name":"A4","midi":69,"time":150.93749999999974,"velocity":0.3464566929133858,"duration":0.16770833333333712},{"name":"E4","midi":64,"time":150.9416666666664,"velocity":0.2755905511811024,"duration":0.11354166666666288},{"name":"E5","midi":76,"time":150.95312499999974,"velocity":0.23622047244094488,"duration":0.11354166666666288},{"name":"C#4","midi":61,"time":151.12708333333308,"velocity":0.30708661417322836,"duration":0.27916666666666856},{"name":"A4","midi":69,"time":151.2697916666664,"velocity":0.3464566929133858,"duration":0.15000000000000568},{"name":"E4","midi":64,"time":151.28124999999974,"velocity":0.2992125984251969,"duration":0.11458333333334281},{"name":"E5","midi":76,"time":151.28437499999976,"velocity":0.25984251968503935,"duration":0.11145833333333144},{"name":"G#4","midi":68,"time":151.46874999999974,"velocity":0.2755905511811024,"duration":0.3229166666666572},{"name":"E4","midi":64,"time":151.62708333333308,"velocity":0.23622047244094488,"duration":0.19062500000001137},{"name":"B4","midi":71,"time":151.65208333333308,"velocity":0.29133858267716534,"duration":0.12916666666666288},{"name":"E5","midi":76,"time":151.65833333333308,"velocity":0.2204724409448819,"duration":0.14270833333333144},{"name":"B3","midi":59,"time":151.82812499999974,"velocity":0.2440944881889764,"duration":0.35104166666667425},{"name":"E4","midi":64,"time":151.99999999999974,"velocity":0.2283464566929134,"duration":0.18125000000000568},{"name":"B4","midi":71,"time":152.0208333333331,"velocity":0.31496062992125984,"duration":0.09166666666666856},{"name":"E5","midi":76,"time":152.03854166666642,"velocity":0.2204724409448819,"duration":0.10833333333334849},{"name":"G#4","midi":68,"time":152.16770833333308,"velocity":0.33858267716535434,"duration":0.34375},{"name":"E4","midi":64,"time":152.35208333333307,"velocity":0.23622047244094488,"duration":0.1760416666666913},{"name":"E5","midi":76,"time":152.37083333333308,"velocity":0.11023622047244094,"duration":0.11041666666667993},{"name":"B4","midi":71,"time":152.37708333333308,"velocity":0.2755905511811024,"duration":0.09687500000001137},{"name":"B3","midi":59,"time":152.53124999999977,"velocity":0.25196850393700787,"duration":0.2750000000000057},{"name":"E5","midi":76,"time":152.69687499999978,"velocity":0.31496062992125984,"duration":0.11979166666665719},{"name":"E4","midi":64,"time":152.6989583333331,"velocity":0.2283464566929134,"duration":0.14479166666666288},{"name":"B4","midi":71,"time":152.70208333333312,"velocity":0.33858267716535434,"duration":0.10833333333332007},{"name":"G#4","midi":68,"time":152.84791666666644,"velocity":0.36220472440944884,"duration":0.3604166666666515},{"name":"E4","midi":64,"time":153.03749999999977,"velocity":0.31496062992125984,"duration":0.14270833333333144},{"name":"E5","midi":76,"time":153.04791666666642,"velocity":0.30708661417322836,"duration":0.1614583333333428},{"name":"B4","midi":71,"time":153.0520833333331,"velocity":0.36220472440944884,"duration":0.11875000000000568},{"name":"B3","midi":59,"time":153.24687499999976,"velocity":0.2440944881889764,"duration":0.3343749999999943},{"name":"E4","midi":64,"time":153.38541666666643,"velocity":0.29133858267716534,"duration":0.12187499999998863},{"name":"E5","midi":76,"time":153.39166666666642,"velocity":0.2047244094488189,"duration":0.09999999999999432},{"name":"B4","midi":71,"time":153.4041666666664,"velocity":0.31496062992125984,"duration":0.08645833333332575},{"name":"G#4","midi":68,"time":153.5760416666664,"velocity":0.28346456692913385,"duration":0.28437500000001137},{"name":"E4","midi":64,"time":153.7270833333331,"velocity":0.33070866141732286,"duration":0.1260416666666515},{"name":"B4","midi":71,"time":153.74166666666642,"velocity":0.33070866141732286,"duration":0.09479166666665151},{"name":"E5","midi":76,"time":153.74999999999974,"velocity":0.2440944881889764,"duration":0.08020833333333144},{"name":"B3","midi":59,"time":153.91770833333308,"velocity":0.28346456692913385,"duration":0.4000000000000057},{"name":"E4","midi":64,"time":154.06979166666642,"velocity":0.30708661417322836,"duration":0.11666666666667425},{"name":"B4","midi":71,"time":154.0760416666664,"velocity":0.29133858267716534,"duration":0.10520833333333712},{"name":"E5","midi":76,"time":154.08437499999974,"velocity":0.2283464566929134,"duration":0.09687500000001137},{"name":"G#4","midi":68,"time":154.24062499999977,"velocity":0.3937007874015748,"duration":0.31041666666666856},{"name":"E5","midi":76,"time":154.40833333333308,"velocity":0.3779527559055118,"duration":0.13333333333335418},{"name":"E4","midi":64,"time":154.41354166666642,"velocity":0.33070866141732286,"duration":0.14375000000001137},{"name":"B4","midi":71,"time":154.4145833333331,"velocity":0.36220472440944884,"duration":0.13229166666667425},{"name":"B3","midi":59,"time":154.59166666666644,"velocity":0.2677165354330709,"duration":0.30416666666667425},{"name":"E4","midi":64,"time":154.75520833333312,"velocity":0.25984251968503935,"duration":0.14479166666666288},{"name":"B4","midi":71,"time":154.76666666666645,"velocity":0.2677165354330709,"duration":0.09791666666666288},{"name":"E5","midi":76,"time":154.78645833333312,"velocity":0.2677165354330709,"duration":0.06354166666667993},{"name":"G#4","midi":68,"time":154.92708333333312,"velocity":0.30708661417322836,"duration":0.24791666666666856},{"name":"E4","midi":64,"time":155.1114583333331,"velocity":0.25196850393700787,"duration":0.11145833333333144},{"name":"B4","midi":71,"time":155.1270833333331,"velocity":0.31496062992125984,"duration":0.08958333333333712},{"name":"E5","midi":76,"time":155.15416666666644,"velocity":0.1889763779527559,"duration":0.040625000000005684},{"name":"B3","midi":59,"time":155.28541666666644,"velocity":0.2440944881889764,"duration":0.34479166666667993},{"name":"E4","midi":64,"time":155.45729166666644,"velocity":0.28346456692913385,"duration":0.109375},{"name":"B4","midi":71,"time":155.46666666666644,"velocity":0.2755905511811024,"duration":0.08750000000000568},{"name":"E5","midi":76,"time":155.49895833333312,"velocity":0.2047244094488189,"duration":0.05104166666666288},{"name":"G#4","midi":68,"time":155.63437499999978,"velocity":0.28346456692913385,"duration":0.2718749999999943},{"name":"E4","midi":64,"time":155.8145833333331,"velocity":0.28346456692913385,"duration":0.10624999999998863},{"name":"B4","midi":71,"time":155.82187499999978,"velocity":0.2992125984251969,"duration":0.09062499999998863},{"name":"E5","midi":76,"time":155.85312499999978,"velocity":0.1732283464566929,"duration":0.06145833333332007},{"name":"B3","midi":59,"time":155.98020833333308,"velocity":0.25984251968503935,"duration":0.28437499999998295},{"name":"E4","midi":64,"time":156.15208333333308,"velocity":0.23622047244094488,"duration":0.09791666666666288},{"name":"B4","midi":71,"time":156.17812499999974,"velocity":0.30708661417322836,"duration":0.06354166666667993},{"name":"E5","midi":76,"time":156.1822916666664,"velocity":0.1889763779527559,"duration":0.05833333333333712},{"name":"G#4","midi":68,"time":156.3385416666664,"velocity":0.29133858267716534,"duration":0.24687499999998863},{"name":"E4","midi":64,"time":156.50208333333308,"velocity":0.2992125984251969,"duration":0.13854166666666856},{"name":"B4","midi":71,"time":156.51249999999973,"velocity":0.3464566929133858,"duration":0.12291666666666856},{"name":"E5","midi":76,"time":156.52499999999972,"velocity":0.2440944881889764,"duration":0.08958333333333712},{"name":"B3","midi":59,"time":156.68020833333307,"velocity":0.25196850393700787,"duration":0.25},{"name":"B4","midi":71,"time":156.85833333333306,"velocity":0.33858267716535434,"duration":0.11979166666668561},{"name":"E4","midi":64,"time":156.86874999999972,"velocity":0.31496062992125984,"duration":0.11562500000002274},{"name":"E5","midi":76,"time":156.87395833333306,"velocity":0.31496062992125984,"duration":0.08854166666668561},{"name":"G#4","midi":68,"time":157.0604166666664,"velocity":0.25984251968503935,"duration":0.15625},{"name":"B4","midi":71,"time":157.19687499999975,"velocity":0.3700787401574803,"duration":0.12916666666666288},{"name":"E4","midi":64,"time":157.2083333333331,"velocity":0.2755905511811024,"duration":0.12083333333333712},{"name":"G#3","midi":56,"time":157.38437499999975,"velocity":0.29133858267716534,"duration":0.37708333333333144},{"name":"E4","midi":64,"time":157.58854166666643,"velocity":0.2283464566929134,"duration":0.06770833333334281},{"name":"B4","midi":71,"time":157.59062499999976,"velocity":0.2047244094488189,"duration":0.05000000000001137},{"name":"F#4","midi":66,"time":157.7020833333331,"velocity":0.29133858267716534,"duration":0.34270833333329165},{"name":"E4","midi":64,"time":157.94374999999974,"velocity":0.2440944881889764,"duration":0.07291666666665719},{"name":"B4","midi":71,"time":157.96770833333306,"velocity":0.2283464566929134,"duration":0.03020833333332007},{"name":"G#3","midi":56,"time":158.10416666666637,"velocity":0.2677165354330709,"duration":0.3333333333333428},{"name":"E4","midi":64,"time":158.29895833333305,"velocity":0.2204724409448819,"duration":0.06041666666666856},{"name":"B4","midi":71,"time":158.29999999999973,"velocity":0.25196850393700787,"duration":0.039583333333325754},{"name":"F#4","midi":66,"time":158.43645833333304,"velocity":0.30708661417322836,"duration":0.32083333333332575},{"name":"E4","midi":64,"time":158.6531249999997,"velocity":0.23622047244094488,"duration":0.05833333333333712},{"name":"B4","midi":71,"time":158.66666666666637,"velocity":0.2440944881889764,"duration":0.040625000000005684},{"name":"G#3","midi":56,"time":158.79479166666636,"velocity":0.2677165354330709,"duration":0.3520833333333542},{"name":"B4","midi":71,"time":158.97395833333303,"velocity":0.3464566929133858,"duration":0.06354166666667993},{"name":"E4","midi":64,"time":158.9749999999997,"velocity":0.2125984251968504,"duration":0.09375},{"name":"F#4","midi":66,"time":159.11041666666637,"velocity":0.29133858267716534,"duration":0.3010416666666913},{"name":"E4","midi":64,"time":159.33645833333304,"velocity":0.23622047244094488,"duration":0.11145833333335986},{"name":"B4","midi":71,"time":159.36041666666637,"velocity":0.33070866141732286,"duration":0.05000000000001137},{"name":"G#3","midi":56,"time":159.46874999999974,"velocity":0.28346456692913385,"duration":0.3395833333333087},{"name":"E4","midi":64,"time":159.65520833333306,"velocity":0.3464566929133858,"duration":0.09791666666666288},{"name":"B4","midi":71,"time":159.65833333333308,"velocity":0.3779527559055118,"duration":0.08020833333333144},{"name":"F#4","midi":66,"time":159.82395833333305,"velocity":0.33858267716535434,"duration":0.3020833333333144},{"name":"E4","midi":64,"time":160.01354166666638,"velocity":0.31496062992125984,"duration":0.11041666666665151},{"name":"B4","midi":71,"time":160.01562499999972,"velocity":0.3937007874015748,"duration":0.09375},{"name":"G#3","midi":56,"time":160.18541666666636,"velocity":0.33070866141732286,"duration":0.3812499999999943},{"name":"B4","midi":71,"time":160.3624999999997,"velocity":0.25984251968503935,"duration":0.08645833333332575},{"name":"E4","midi":64,"time":160.37604166666637,"velocity":0.2755905511811024,"duration":0.07916666666665151},{"name":"F#4","midi":66,"time":160.51666666666634,"velocity":0.33858267716535434,"duration":0.29791666666670835},{"name":"E4","midi":64,"time":160.69479166666636,"velocity":0.3228346456692913,"duration":0.08750000000000568},{"name":"B4","midi":71,"time":160.7281249999997,"velocity":0.25984251968503935,"duration":0.053124999999994316},{"name":"G#3","midi":56,"time":160.89062499999972,"velocity":0.25196850393700787,"duration":0.30937500000001705},{"name":"B4","midi":71,"time":161.08333333333306,"velocity":0.28346456692913385,"duration":0.05833333333333712},{"name":"E4","midi":64,"time":161.0947916666664,"velocity":0.25196850393700787,"duration":0.04583333333332007},{"name":"F#4","midi":66,"time":161.23124999999973,"velocity":0.2677165354330709,"duration":0.23541666666667993},{"name":"E4","midi":64,"time":161.4010416666664,"velocity":0.23622047244094488,"duration":0.10625000000001705},{"name":"G#4","midi":68,"time":161.40208333333308,"velocity":0.3543307086614173,"duration":0.11875000000000568},{"name":"G#3","midi":56,"time":161.5666666666664,"velocity":0.2755905511811024,"duration":0.28437499999998295},{"name":"G#4","midi":68,"time":161.74374999999975,"velocity":0.4330708661417323,"duration":0.11666666666664582},{"name":"E4","midi":64,"time":161.78958333333307,"velocity":0.2204724409448819,"duration":0.06145833333332007},{"name":"F#4","midi":66,"time":161.90520833333306,"velocity":0.4015748031496063,"duration":0.31354166666667993},{"name":"E4","midi":64,"time":162.08124999999973,"velocity":0.36220472440944884,"duration":0.14166666666667993},{"name":"G#4","midi":68,"time":162.0822916666664,"velocity":0.5039370078740157,"duration":0.13854166666666856},{"name":"G#3","midi":56,"time":162.22708333333307,"velocity":0.4015748031496063,"duration":0.31458333333335986},{"name":"G#4","midi":68,"time":162.4197916666664,"velocity":0.49606299212598426,"duration":0.10625000000001705},{"name":"E4","midi":64,"time":162.42187499999974,"velocity":0.3700787401574803,"duration":0.08541666666667425},{"name":"F#4","midi":66,"time":162.56666666666644,"velocity":0.3700787401574803,"duration":0.3489583333333144},{"name":"A4","midi":69,"time":162.76666666666642,"velocity":0.33070866141732286,"duration":0.16354166666664582},{"name":"E4","midi":64,"time":162.77499999999975,"velocity":0.2755905511811024,"duration":0.09479166666667993},{"name":"A3","midi":57,"time":162.93645833333306,"velocity":0.2992125984251969,"duration":0.3541666666666572},{"name":"A4","midi":69,"time":163.1260416666664,"velocity":0.3464566929133858,"duration":0.09687499999998295},{"name":"E4","midi":64,"time":163.14999999999972,"velocity":0.2755905511811024,"duration":0.06666666666666288},{"name":"F#4","midi":66,"time":163.28124999999972,"velocity":0.36220472440944884,"duration":0.31562500000001137},{"name":"E4","midi":64,"time":163.46458333333305,"velocity":0.29133858267716534,"duration":0.12187500000001705},{"name":"A4","midi":69,"time":163.46770833333306,"velocity":0.28346456692913385,"duration":0.08958333333333712},{"name":"A3","midi":57,"time":163.65520833333306,"velocity":0.25984251968503935,"duration":0.34062499999998863},{"name":"A4","midi":69,"time":163.84374999999974,"velocity":0.25196850393700787,"duration":0.07395833333333712},{"name":"E4","midi":64,"time":163.8489583333331,"velocity":0.1968503937007874,"duration":0.08854166666665719},{"name":"F#4","midi":66,"time":163.98124999999973,"velocity":0.30708661417322836,"duration":0.2968749999999716},{"name":"A4","midi":69,"time":164.1781249999997,"velocity":0.28346456692913385,"duration":0.08958333333333712},{"name":"E4","midi":64,"time":164.1843749999997,"velocity":0.23622047244094488,"duration":0.08958333333333712},{"name":"A3","midi":57,"time":164.34791666666638,"velocity":0.2440944881889764,"duration":0.3010416666666629},{"name":"A4","midi":69,"time":164.50833333333304,"velocity":0.2992125984251969,"duration":0.10729166666666856},{"name":"E4","midi":64,"time":164.5187499999997,"velocity":0.23622047244094488,"duration":0.10416666666668561},{"name":"F#4","midi":66,"time":164.66666666666637,"velocity":0.3464566929133858,"duration":0.3531250000000057},{"name":"A4","midi":69,"time":164.85520833333305,"velocity":0.2992125984251969,"duration":0.10416666666665719},{"name":"E4","midi":64,"time":164.86249999999973,"velocity":0.2677165354330709,"duration":0.08229166666666288},{"name":"A3","midi":57,"time":165.0343749999997,"velocity":0.2677165354330709,"duration":0.3229166666666572},{"name":"A4","midi":69,"time":165.20104166666636,"velocity":0.2204724409448819,"duration":0.09479166666667993},{"name":"E4","midi":64,"time":165.21354166666634,"velocity":0.2283464566929134,"duration":0.06562500000001137},{"name":"F#4","midi":66,"time":165.34166666666636,"velocity":0.30708661417322836,"duration":0.29583333333332007},{"name":"A4","midi":69,"time":165.52187499999968,"velocity":0.2677165354330709,"duration":0.11979166666665719},{"name":"E4","midi":64,"time":165.555208333333,"velocity":0.23622047244094488,"duration":0.0625},{"name":"A3","midi":57,"time":165.71354166666634,"velocity":0.1889763779527559,"duration":0.3593749999999716},{"name":"E4","midi":64,"time":165.89791666666633,"velocity":0.25196850393700787,"duration":0.05937499999998863},{"name":"A4","midi":69,"time":165.902083333333,"velocity":0.2677165354330709,"duration":0.07708333333332007},{"name":"F#4","midi":66,"time":166.03437499999964,"velocity":0.33858267716535434,"duration":0.34687499999998295},{"name":"A4","midi":69,"time":166.2104166666663,"velocity":0.33858267716535434,"duration":0.171875},{"name":"E4","midi":64,"time":166.24374999999964,"velocity":0.25196850393700787,"duration":0.09062499999998863},{"name":"A3","midi":57,"time":166.39687499999962,"velocity":0.2677165354330709,"duration":0.33541666666667425},{"name":"A4","midi":69,"time":166.56874999999962,"velocity":0.2440944881889764,"duration":0.15729166666667993},{"name":"E4","midi":64,"time":166.5822916666663,"velocity":0.25984251968503935,"duration":0.09583333333333144},{"name":"F#4","midi":66,"time":166.7104166666663,"velocity":0.31496062992125984,"duration":0.37187499999998863},{"name":"A4","midi":69,"time":166.90624999999963,"velocity":0.2992125984251969,"duration":0.12916666666666288},{"name":"E4","midi":64,"time":166.92395833333296,"velocity":0.23622047244094488,"duration":0.125},{"name":"A3","midi":57,"time":167.1010416666663,"velocity":0.2204724409448819,"duration":0.31458333333333144},{"name":"A4","midi":69,"time":167.27187499999962,"velocity":0.28346456692913385,"duration":0.08229166666666288},{"name":"E4","midi":64,"time":167.27708333333297,"velocity":0.2755905511811024,"duration":0.08437499999999432},{"name":"F#4","midi":66,"time":167.4041666666663,"velocity":0.2755905511811024,"duration":0.3208333333333542},{"name":"A4","midi":69,"time":167.6010416666663,"velocity":0.29133858267716534,"duration":0.11041666666667993},{"name":"E4","midi":64,"time":167.6104166666663,"velocity":0.2677165354330709,"duration":0.12395833333334849},{"name":"A3","midi":57,"time":167.79374999999965,"velocity":0.2755905511811024,"duration":0.25},{"name":"A4","midi":69,"time":167.93541666666633,"velocity":0.33070866141732286,"duration":0.09062499999998863},{"name":"E4","midi":64,"time":167.96145833333298,"velocity":0.28346456692913385,"duration":0.08020833333333144},{"name":"F#4","midi":66,"time":168.09687499999964,"velocity":0.29133858267716534,"duration":0.39895833333329733},{"name":"E4","midi":64,"time":168.27708333333297,"velocity":0.3228346456692913,"duration":0.11874999999997726},{"name":"G#4","midi":68,"time":168.31874999999962,"velocity":0.2755905511811024,"duration":0.06458333333333144},{"name":"G#3","midi":56,"time":168.45520833333293,"velocity":0.2755905511811024,"duration":0.3677083333333542},{"name":"G#4","midi":68,"time":168.6281249999996,"velocity":0.3228346456692913,"duration":0.11562499999999432},{"name":"E4","midi":64,"time":168.6343749999996,"velocity":0.2755905511811024,"duration":0.15937500000001137},{"name":"F#4","midi":66,"time":168.78854166666628,"velocity":0.33070866141732286,"duration":0.3947916666666913},{"name":"G#4","midi":68,"time":168.98020833333297,"velocity":0.36220472440944884,"duration":0.13437500000000568},{"name":"E4","midi":64,"time":168.98437499999963,"velocity":0.3543307086614173,"duration":0.15416666666666856},{"name":"G#3","midi":56,"time":169.14374999999964,"velocity":0.33070866141732286,"duration":0.361458333333303},{"name":"G#4","midi":68,"time":169.32083333333296,"velocity":0.4330708661417323,"duration":0.11770833333332575},{"name":"E4","midi":64,"time":169.32812499999963,"velocity":0.33070866141732286,"duration":0.10624999999998863},{"name":"F#4","midi":66,"time":169.4718749999996,"velocity":0.2755905511811024,"duration":0.3677083333333542},{"name":"E4","midi":64,"time":169.65729166666628,"velocity":0.36220472440944884,"duration":0.12187500000001705},{"name":"G#4","midi":68,"time":169.66249999999962,"velocity":0.4330708661417323,"duration":0.13333333333335418},{"name":"G#3","midi":56,"time":169.82499999999965,"velocity":0.3464566929133858,"duration":0.3822916666666458},{"name":"G#4","midi":68,"time":170.0010416666663,"velocity":0.4409448818897638,"duration":0.13229166666667425},{"name":"E4","midi":64,"time":170.01249999999965,"velocity":0.3700787401574803,"duration":0.13124999999999432},{"name":"F#4","midi":66,"time":170.18958333333296,"velocity":0.2755905511811024,"duration":0.30416666666667425},{"name":"G#4","midi":68,"time":170.34583333333296,"velocity":0.4409448818897638,"duration":0.12812500000001137},{"name":"E4","midi":64,"time":170.36458333333297,"velocity":0.36220472440944884,"duration":0.08645833333332575},{"name":"G#3","midi":56,"time":170.5166666666663,"velocity":0.33858267716535434,"duration":0.3479166666666629},{"name":"G#4","midi":68,"time":170.69999999999965,"velocity":0.3464566929133858,"duration":0.10833333333332007},{"name":"E4","midi":64,"time":170.74583333333297,"velocity":0.23622047244094488,"duration":0.06666666666666288},{"name":"F#4","midi":66,"time":170.8947916666663,"velocity":0.25196850393700787,"duration":0.2812499999999716},{"name":"G#4","midi":68,"time":171.04791666666628,"velocity":0.36220472440944884,"duration":0.12187499999998863},{"name":"E4","midi":64,"time":171.0499999999996,"velocity":0.33858267716535434,"duration":0.12187499999998863},{"name":"G#3","midi":56,"time":171.21145833333293,"velocity":0.28346456692913385,"duration":0.3822916666666458},{"name":"E4","midi":64,"time":171.39479166666626,"velocity":0.33070866141732286,"duration":0.10729166666666856},{"name":"G#4","midi":68,"time":171.3999999999996,"velocity":0.4094488188976378,"duration":0.11458333333331439},{"name":"F#4","midi":66,"time":171.57916666666625,"velocity":0.30708661417322836,"duration":0.3166666666666629},{"name":"G#4","midi":68,"time":171.73437499999957,"velocity":0.4015748031496063,"duration":0.1395833333333485},{"name":"E4","midi":64,"time":171.7458333333329,"velocity":0.3228346456692913,"duration":0.1302083333333428},{"name":"G#3","midi":56,"time":171.91562499999958,"velocity":0.2992125984251969,"duration":0.3427083333333485},{"name":"G#4","midi":68,"time":172.11249999999959,"velocity":0.31496062992125984,"duration":0.09375},{"name":"E4","midi":64,"time":172.1364583333329,"velocity":0.2204724409448819,"duration":0.06770833333334281},{"name":"F#4","midi":66,"time":172.27291666666625,"velocity":0.28346456692913385,"duration":0.29895833333335986},{"name":"B4","midi":71,"time":172.45416666666625,"velocity":0.3779527559055118,"duration":0.1291666666666913},{"name":"E4","midi":64,"time":172.4593749999996,"velocity":0.25984251968503935,"duration":0.1302083333333428},{"name":"G#3","midi":56,"time":172.6406249999996,"velocity":0.33070866141732286,"duration":0.3385416666666572},{"name":"B4","midi":71,"time":172.78333333333293,"velocity":0.4094488188976378,"duration":0.12812500000001137},{"name":"E4","midi":64,"time":172.80833333333294,"velocity":0.2992125984251969,"duration":0.09791666666666288},{"name":"F#4","midi":66,"time":172.97291666666626,"velocity":0.3464566929133858,"duration":0.3020833333333428},{"name":"E4","midi":64,"time":173.12916666666626,"velocity":0.3464566929133858,"duration":0.16979166666669698},{"name":"G#4","midi":68,"time":173.14583333333294,"velocity":0.44881889763779526,"duration":0.13437500000000568},{"name":"G#3","midi":56,"time":173.33645833333296,"velocity":0.3464566929133858,"duration":0.283333333333303},{"name":"G#4","midi":68,"time":173.47604166666628,"velocity":0.5118110236220472,"duration":0.12499999999997158},{"name":"E4","midi":64,"time":173.4843749999996,"velocity":0.3543307086614173,"duration":0.10416666666665719},{"name":"F#4","midi":66,"time":173.6468749999996,"velocity":0.3700787401574803,"duration":0.3322916666666629},{"name":"E4","midi":64,"time":173.82083333333293,"velocity":0.3700787401574803,"duration":0.18125000000000568},{"name":"A4","midi":69,"time":173.8249999999996,"velocity":0.4015748031496063,"duration":0.14791666666667425},{"name":"A3","midi":57,"time":174.00729166666628,"velocity":0.31496062992125984,"duration":0.38749999999998863},{"name":"E4","midi":64,"time":174.21041666666628,"velocity":0.2992125984251969,"duration":0.06458333333333144},{"name":"A4","midi":69,"time":174.2135416666663,"velocity":0.3228346456692913,"duration":0.06979166666664582},{"name":"F#4","midi":66,"time":174.3437499999996,"velocity":0.3779527559055118,"duration":0.3166666666666629},{"name":"A4","midi":69,"time":174.5468749999996,"velocity":0.2992125984251969,"duration":0.09062499999998863},{"name":"E4","midi":64,"time":174.56979166666628,"velocity":0.2755905511811024,"duration":0.055208333333325754},{"name":"A3","midi":57,"time":174.7249999999996,"velocity":0.25984251968503935,"duration":0.35624999999998863},{"name":"A4","midi":69,"time":174.88958333333292,"velocity":0.30708661417322836,"duration":0.10729166666666856},{"name":"E4","midi":64,"time":174.9333333333329,"velocity":0.2047244094488189,"duration":0.056250000000005684},{"name":"F#4","midi":66,"time":175.03437499999959,"velocity":0.29133858267716534,"duration":0.3187499999999943},{"name":"A4","midi":69,"time":175.2302083333329,"velocity":0.28346456692913385,"duration":0.08645833333332575},{"name":"E4","midi":64,"time":175.24999999999957,"velocity":0.1968503937007874,"duration":0.12291666666666856},{"name":"A3","midi":57,"time":175.39583333333292,"velocity":0.25984251968503935,"duration":0.3479166666666913},{"name":"E4","midi":64,"time":175.59270833333292,"velocity":0.2992125984251969,"duration":0.09687500000001137},{"name":"A4","midi":69,"time":175.59479166666625,"velocity":0.2440944881889764,"duration":0.078125},{"name":"F#4","midi":66,"time":175.74166666666628,"velocity":0.3228346456692913,"duration":0.2802083333333485},{"name":"E4","midi":64,"time":175.91874999999962,"velocity":0.28346456692913385,"duration":0.11666666666667425},{"name":"A4","midi":69,"time":175.92395833333296,"velocity":0.2677165354330709,"duration":0.11354166666666288},{"name":"A3","midi":57,"time":176.10624999999962,"velocity":0.1968503937007874,"duration":0.3177083333333428},{"name":"E4","midi":64,"time":176.2604166666663,"velocity":0.2755905511811024,"duration":0.08854166666668561},{"name":"A4","midi":69,"time":176.26770833333296,"velocity":0.30708661417322836,"duration":0.09583333333333144},{"name":"F#4","midi":66,"time":176.39270833333296,"velocity":0.31496062992125984,"duration":0.3802083333333428},{"name":"A4","midi":69,"time":176.60312499999964,"velocity":0.2992125984251969,"duration":0.12187499999998863},{"name":"E4","midi":64,"time":176.6135416666663,"velocity":0.29133858267716534,"duration":0.12083333333333712},{"name":"A3","midi":57,"time":176.79270833333297,"velocity":0.2440944881889764,"duration":0.3437500000000284},{"name":"A4","midi":69,"time":176.94999999999965,"velocity":0.3464566929133858,"duration":0.09479166666667993},{"name":"E4","midi":64,"time":176.95729166666632,"velocity":0.2755905511811024,"duration":0.08541666666667425},{"name":"F#4","midi":66,"time":177.098958333333,"velocity":0.3464566929133858,"duration":0.2822916666666515},{"name":"A4","midi":69,"time":177.29166666666632,"velocity":0.36220472440944884,"duration":0.16249999999999432},{"name":"E4","midi":64,"time":177.30312499999965,"velocity":0.30708661417322836,"duration":0.12395833333332007},{"name":"A3","midi":57,"time":177.486458333333,"velocity":0.25984251968503935,"duration":0.32499999999998863},{"name":"E4","midi":64,"time":177.66458333333298,"velocity":0.2677165354330709,"duration":0.07916666666665151},{"name":"A4","midi":69,"time":177.66666666666632,"velocity":0.30708661417322836,"duration":0.10104166666664582},{"name":"F#4","midi":66,"time":177.80208333333297,"velocity":0.30708661417322836,"duration":0.36562500000002274},{"name":"A4","midi":69,"time":178.002083333333,"velocity":0.3464566929133858,"duration":0.11666666666667425},{"name":"E4","midi":64,"time":178.03541666666632,"velocity":0.25984251968503935,"duration":0.0625},{"name":"A3","midi":57,"time":178.20624999999967,"velocity":0.2440944881889764,"duration":0.30729166666662877},{"name":"A4","midi":69,"time":178.35937499999966,"velocity":0.25196850393700787,"duration":0.09062499999998863},{"name":"E4","midi":64,"time":178.38958333333298,"velocity":0.23622047244094488,"duration":0.06354166666667993},{"name":"F#4","midi":66,"time":178.50937499999964,"velocity":0.31496062992125984,"duration":0.25625000000002274},{"name":"A4","midi":69,"time":178.6885416666663,"velocity":0.31496062992125984,"duration":0.16562500000000568},{"name":"E4","midi":64,"time":178.69999999999965,"velocity":0.29133858267716534,"duration":0.13437500000000568},{"name":"A3","midi":57,"time":178.892708333333,"velocity":0.2677165354330709,"duration":0.19479166666664582},{"name":"A4","midi":69,"time":179.03020833333298,"velocity":0.3779527559055118,"duration":0.12395833333332007},{"name":"E4","midi":64,"time":179.04062499999964,"velocity":0.31496062992125984,"duration":0.13958333333332007},{"name":"F#4","midi":66,"time":179.19687499999964,"velocity":0.2677165354330709,"duration":0.2552083333333144},{"name":"E4","midi":64,"time":179.39062499999963,"velocity":0.30708661417322836,"duration":0.16979166666664014},{"name":"B4","midi":71,"time":179.41458333333296,"velocity":0.3464566929133858,"duration":0.10208333333332575},{"name":"B3","midi":59,"time":179.58333333333294,"velocity":0.2677165354330709,"duration":0.3864583333333371},{"name":"E4","midi":64,"time":179.76770833333293,"velocity":0.30708661417322836,"duration":0.08750000000000568},{"name":"B4","midi":71,"time":179.7781249999996,"velocity":0.25984251968503935,"duration":0.05833333333333712},{"name":"G#4","midi":68,"time":179.93333333333294,"velocity":0.28346456692913385,"duration":0.2500000000000284},{"name":"E4","midi":64,"time":180.09583333333296,"velocity":0.2755905511811024,"duration":0.09166666666666856},{"name":"B4","midi":71,"time":180.1010416666663,"velocity":0.3937007874015748,"duration":0.09791666666666288},{"name":"B3","midi":59,"time":180.27187499999962,"velocity":0.2755905511811024,"duration":0.3385416666666572},{"name":"B4","midi":71,"time":180.4354166666663,"velocity":0.2755905511811024,"duration":0.109375},{"name":"E4","midi":64,"time":180.44374999999962,"velocity":0.2992125984251969,"duration":0.11666666666667425},{"name":"G#4","midi":68,"time":180.59062499999962,"velocity":0.4251968503937008,"duration":0.31145833333332007},{"name":"E4","midi":64,"time":180.7843749999996,"velocity":0.33858267716535434,"duration":0.1416666666666515},{"name":"B4","midi":71,"time":180.79270833333294,"velocity":0.3937007874015748,"duration":0.11354166666666288},{"name":"B3","midi":59,"time":180.94583333333293,"velocity":0.36220472440944884,"duration":0.31041666666666856},{"name":"E4","midi":64,"time":181.1374999999996,"velocity":0.31496062992125984,"duration":0.09687500000001137},{"name":"B4","midi":71,"time":181.13958333333292,"velocity":0.30708661417322836,"duration":0.10312500000000568},{"name":"G#4","midi":68,"time":181.2718749999996,"velocity":0.33070866141732286,"duration":0.3593750000000284},{"name":"E4","midi":64,"time":181.47604166666628,"velocity":0.3543307086614173,"duration":0.1135416666666913},{"name":"B4","midi":71,"time":181.48333333333295,"velocity":0.33070866141732286,"duration":0.10104166666667425},{"name":"B3","midi":59,"time":181.67395833333296,"velocity":0.2992125984251969,"duration":0.3479166666666913},{"name":"E4","midi":64,"time":181.82395833333297,"velocity":0.28346456692913385,"duration":0.08645833333335418},{"name":"B4","midi":71,"time":181.83020833333296,"velocity":0.2755905511811024,"duration":0.07916666666667993},{"name":"G#4","midi":68,"time":181.98229166666633,"velocity":0.3464566929133858,"duration":0.3197916666666458},{"name":"E4","midi":64,"time":182.16874999999965,"velocity":0.36220472440944884,"duration":0.11770833333332575},{"name":"B4","midi":71,"time":182.17083333333298,"velocity":0.3937007874015748,"duration":0.16979166666666856},{"name":"B3","midi":59,"time":182.35624999999965,"velocity":0.36220472440944884,"duration":0.3083333333333371},{"name":"B4","midi":71,"time":182.50520833333297,"velocity":0.4251968503937008,"duration":0.11875000000000568},{"name":"E4","midi":64,"time":182.5166666666663,"velocity":0.33070866141732286,"duration":0.11666666666667425},{"name":"G#4","midi":68,"time":182.69166666666632,"velocity":0.4330708661417323,"duration":0.23750000000001137},{"name":"B4","midi":71,"time":182.85624999999965,"velocity":0.4645669291338583,"duration":0.11979166666668561},{"name":"E4","midi":64,"time":182.85937499999966,"velocity":0.3543307086614173,"duration":0.10312500000000568},{"name":"B3","midi":59,"time":183.03437499999967,"velocity":0.3543307086614173,"duration":0.28229166666667993},{"name":"B4","midi":71,"time":183.19479166666633,"velocity":0.3779527559055118,"duration":0.10312500000000568},{"name":"E4","midi":64,"time":183.20624999999967,"velocity":0.2992125984251969,"duration":0.07187500000000568},{"name":"G#4","midi":68,"time":183.35624999999968,"velocity":0.4645669291338583,"duration":0.046875},{"name":"G#4","midi":68,"time":183.54479166666636,"velocity":0.3464566929133858,"duration":0.11354166666666288},{"name":"E4","midi":64,"time":183.5468749999997,"velocity":0.33070866141732286,"duration":0.12083333333333712},{"name":"G#3","midi":56,"time":183.72604166666636,"velocity":0.3464566929133858,"duration":0.36250000000001137},{"name":"G#4","midi":68,"time":183.87604166666637,"velocity":0.4094488188976378,"duration":0.12395833333334849},{"name":"E4","midi":64,"time":183.88541666666637,"velocity":0.31496062992125984,"duration":0.12916666666666288},{"name":"F#4","midi":66,"time":184.05208333333303,"velocity":0.4251968503937008,"duration":0.2916666666666856},{"name":"E4","midi":64,"time":184.23437499999972,"velocity":0.3937007874015748,"duration":0.14479166666666288},{"name":"G#4","midi":68,"time":184.2354166666664,"velocity":0.4015748031496063,"duration":0.14479166666666288},{"name":"G#3","midi":56,"time":184.40624999999972,"velocity":0.4015748031496063,"duration":0.3322916666666913},{"name":"G#4","midi":68,"time":184.58124999999973,"velocity":0.48031496062992124,"duration":0.11562499999999432},{"name":"E4","midi":64,"time":184.58958333333305,"velocity":0.3779527559055118,"duration":0.11458333333334281},{"name":"F#4","midi":66,"time":184.7354166666664,"velocity":0.36220472440944884,"duration":0.31354166666667993},{"name":"A4","midi":69,"time":184.90624999999974,"velocity":0.4251968503937008,"duration":0.14687499999999432},{"name":"E4","midi":64,"time":184.91770833333308,"velocity":0.36220472440944884,"duration":0.171875},{"name":"A3","midi":57,"time":185.0927083333331,"velocity":0.3543307086614173,"duration":0.45520833333333144},{"name":"E4","midi":64,"time":185.27604166666643,"velocity":0.36220472440944884,"duration":0.09062499999998863},{"name":"A4","midi":69,"time":185.27812499999976,"velocity":0.3543307086614173,"duration":0.11249999999998295},{"name":"G#4","midi":68,"time":185.42499999999976,"velocity":0.5590551181102362,"duration":0.30520833333332575},{"name":"A4","midi":69,"time":185.6229166666664,"velocity":0.3543307086614173,"duration":0.12604166666667993},{"name":"E4","midi":64,"time":185.63333333333307,"velocity":0.31496062992125984,"duration":0.10833333333334849},{"name":"A3","midi":57,"time":185.79062499999975,"velocity":0.36220472440944884,"duration":0.3968749999999943},{"name":"A4","midi":69,"time":185.97499999999974,"velocity":0.36220472440944884,"duration":0.11875000000000568},{"name":"E4","midi":64,"time":185.98333333333306,"velocity":0.2992125984251969,"duration":0.09687500000001137},{"name":"F#4","midi":66,"time":186.13645833333308,"velocity":0.3858267716535433,"duration":0.3177083333333428},{"name":"A4","midi":69,"time":186.31562499999976,"velocity":0.33070866141732286,"duration":0.1395833333333485},{"name":"E4","midi":64,"time":186.3427083333331,"velocity":0.2677165354330709,"duration":0.10312500000000568},{"name":"A3","midi":57,"time":186.49166666666645,"velocity":0.31496062992125984,"duration":0.44583333333332575},{"name":"E4","midi":64,"time":186.67083333333312,"velocity":0.3228346456692913,"duration":0.09270833333332007},{"name":"A4","midi":69,"time":186.67291666666645,"velocity":0.3779527559055118,"duration":0.15416666666666856},{"name":"G#4","midi":68,"time":186.8395833333331,"velocity":0.5039370078740157,"duration":0.28125},{"name":"A4","midi":69,"time":187.01249999999976,"velocity":0.3700787401574803,"duration":0.1281250000000398},{"name":"E4","midi":64,"time":187.02187499999977,"velocity":0.29133858267716534,"duration":0.11770833333335418},{"name":"A3","midi":57,"time":187.19583333333313,"velocity":0.3543307086614173,"duration":0.37187500000001705},{"name":"A4","midi":69,"time":187.35416666666646,"velocity":0.3464566929133858,"duration":0.125},{"name":"E4","midi":64,"time":187.36041666666645,"velocity":0.28346456692913385,"duration":0.09583333333333144},{"name":"F#4","midi":66,"time":187.5156249999998,"velocity":0.4251968503937008,"duration":0.3375000000000057},{"name":"A4","midi":69,"time":187.69999999999982,"velocity":0.36220472440944884,"duration":0.13333333333332575},{"name":"E4","midi":64,"time":187.71770833333315,"velocity":0.29133858267716534,"duration":0.08437499999999432},{"name":"A3","midi":57,"time":187.87083333333314,"velocity":0.3543307086614173,"duration":0.40833333333335986},{"name":"E4","midi":64,"time":188.04895833333313,"velocity":0.3543307086614173,"duration":0.08750000000000568},{"name":"A4","midi":69,"time":188.05416666666648,"velocity":0.3779527559055118,"duration":0.10729166666666856},{"name":"G#4","midi":68,"time":188.2135416666665,"velocity":0.5511811023622047,"duration":0.2864583333333428},{"name":"A4","midi":69,"time":188.38437499999984,"velocity":0.3700787401574803,"duration":0.13749999999998863},{"name":"E4","midi":64,"time":188.4041666666665,"velocity":0.33858267716535434,"duration":0.12083333333333712},{"name":"A3","midi":57,"time":188.56249999999983,"velocity":0.36220472440944884,"duration":0.37187499999998863},{"name":"E4","midi":64,"time":188.7260416666665,"velocity":0.3228346456692913,"duration":0.08437499999999432},{"name":"A4","midi":69,"time":188.72812499999984,"velocity":0.3779527559055118,"duration":0.09999999999999432},{"name":"F#4","midi":66,"time":188.87708333333316,"velocity":0.44881889763779526,"duration":0.3031249999999943},{"name":"A4","midi":69,"time":189.06249999999983,"velocity":0.3543307086614173,"duration":0.13437500000000568},{"name":"E4","midi":64,"time":189.08020833333316,"velocity":0.33858267716535434,"duration":0.10520833333333712},{"name":"A3","midi":57,"time":189.22187499999984,"velocity":0.3937007874015748,"duration":0.44583333333332575},{"name":"A4","midi":69,"time":189.40520833333318,"velocity":0.4094488188976378,"duration":0.125},{"name":"E4","midi":64,"time":189.4083333333332,"velocity":0.4094488188976378,"duration":0.109375},{"name":"G#4","midi":68,"time":189.5791666666665,"velocity":0.5511811023622047,"duration":0.2552083333333428},{"name":"A4","midi":69,"time":189.74687499999985,"velocity":0.4094488188976378,"duration":0.14895833333332575},{"name":"E4","midi":64,"time":189.76979166666652,"velocity":0.4015748031496063,"duration":0.11354166666666288},{"name":"A3","midi":57,"time":189.93333333333317,"velocity":0.4094488188976378,"duration":0.2750000000000057},{"name":"A4","midi":69,"time":190.08645833333316,"velocity":0.4094488188976378,"duration":0.11562500000002274},{"name":"E4","midi":64,"time":190.10312499999984,"velocity":0.31496062992125984,"duration":0.08229166666666288},{"name":"F#4","midi":66,"time":190.23958333333317,"velocity":0.4251968503937008,"duration":0.37604166666667993},{"name":"G#4","midi":68,"time":190.41874999999985,"velocity":0.44881889763779526,"duration":0.10729166666666856},{"name":"E4","midi":64,"time":190.46666666666653,"velocity":0.2755905511811024,"duration":0.07708333333332007},{"name":"G#3","midi":56,"time":190.60624999999985,"velocity":0.3779527559055118,"duration":0.3947916666666629},{"name":"E4","midi":64,"time":190.79166666666652,"velocity":0.2677165354330709,"duration":0.109375},{"name":"G#4","midi":68,"time":190.79374999999985,"velocity":0.33858267716535434,"duration":0.08541666666667425},{"name":"F#4","midi":66,"time":190.94999999999985,"velocity":0.3464566929133858,"duration":0.34479166666667993},{"name":"E4","midi":64,"time":191.14062499999983,"velocity":0.25196850393700787,"duration":0.11979166666668561},{"name":"G#4","midi":68,"time":191.15937499999984,"velocity":0.28346456692913385,"duration":0.07916666666667993},{"name":"G#3","midi":56,"time":191.2958333333332,"velocity":0.3779527559055118,"duration":0.4218749999999716},{"name":"E4","midi":64,"time":191.4739583333332,"velocity":0.31496062992125984,"duration":0.15416666666666856},{"name":"G#4","midi":68,"time":191.48229166666653,"velocity":0.36220472440944884,"duration":0.11041666666667993},{"name":"F#4","midi":66,"time":191.64062499999986,"velocity":0.3543307086614173,"duration":0.3708333333333087},{"name":"G#4","midi":68,"time":191.82499999999985,"velocity":0.33070866141732286,"duration":0.11979166666665719},{"name":"E4","midi":64,"time":191.8291666666665,"velocity":0.2992125984251969,"duration":0.12812499999998295},{"name":"G#3","midi":56,"time":191.9947916666665,"velocity":0.3937007874015748,"duration":0.3312500000000398},{"name":"G#4","midi":68,"time":192.17083333333318,"velocity":0.3700787401574803,"duration":0.10416666666665719},{"name":"E4","midi":64,"time":192.20208333333318,"velocity":0.30708661417322836,"duration":0.05937499999998863},{"name":"F#4","midi":66,"time":192.30729166666652,"velocity":0.3779527559055118,"duration":0.35520833333336554},{"name":"G#4","midi":68,"time":192.5020833333332,"velocity":0.4015748031496063,"duration":0.13333333333335418},{"name":"E4","midi":64,"time":192.52395833333318,"velocity":0.31496062992125984,"duration":0.11041666666667993},{"name":"G#3","midi":56,"time":192.6614583333332,"velocity":0.4015748031496063,"duration":0.32500000000001705},{"name":"G#4","midi":68,"time":192.8520833333332,"velocity":0.4330708661417323,"duration":0.10625000000001705},{"name":"E4","midi":64,"time":192.87604166666654,"velocity":0.28346456692913385,"duration":0.08125000000001137},{"name":"F#4","midi":66,"time":193.0083333333332,"velocity":0.3937007874015748,"duration":0.08333333333334281},{"name":"F#4","midi":66,"time":193.19895833333322,"velocity":0.33858267716535434,"duration":0.07916666666665151},{"name":"E4","midi":64,"time":193.2270833333332,"velocity":0.2755905511811024,"duration":0.06562499999998295},{"name":"A3","midi":57,"time":193.35937499999986,"velocity":0.3700787401574803,"duration":0.31875000000005116},{"name":"F#4","midi":66,"time":193.54791666666654,"velocity":0.4094488188976378,"duration":0.08437500000002274},{"name":"E4","midi":64,"time":193.54895833333322,"velocity":0.2992125984251969,"duration":0.09687500000001137},{"name":"G#4","midi":68,"time":193.6906249999999,"velocity":0.5511811023622047,"duration":0.19374999999999432},{"name":"E4","midi":64,"time":193.86145833333322,"velocity":0.3779527559055118,"duration":0.125},{"name":"F#4","midi":66,"time":193.86666666666656,"velocity":0.4094488188976378,"duration":0.13229166666664582},{"name":"A3","midi":57,"time":194.04166666666654,"velocity":0.3937007874015748,"duration":0.37187500000001705},{"name":"F#4","midi":66,"time":194.20624999999987,"velocity":0.4330708661417323,"duration":0.12708333333333144},{"name":"E4","midi":64,"time":194.21249999999986,"velocity":0.3700787401574803,"duration":0.12812500000001137},{"name":"G#4","midi":68,"time":194.36562499999988,"velocity":0.4566929133858268,"duration":0.18958333333335986},{"name":"E4","midi":64,"time":194.5437499999999,"velocity":0.3543307086614173,"duration":0.13645833333333712},{"name":"F#4","midi":66,"time":194.54583333333323,"velocity":0.4330708661417323,"duration":0.12812500000001137},{"name":"A3","midi":57,"time":194.74479166666657,"velocity":0.33858267716535434,"duration":0.34062500000001705},{"name":"E4","midi":64,"time":194.89062499999991,"velocity":0.3464566929133858,"duration":0.14166666666667993},{"name":"F#4","midi":66,"time":194.89374999999993,"velocity":0.4094488188976378,"duration":0.11979166666665719},{"name":"G#4","midi":68,"time":195.0572916666666,"velocity":0.49606299212598426,"duration":0.1822916666666572},{"name":"E4","midi":64,"time":195.2291666666666,"velocity":0.3543307086614173,"duration":0.1416666666666515},{"name":"F#4","midi":66,"time":195.24687499999993,"velocity":0.4409448818897638,"duration":0.11562499999999432},{"name":"A3","midi":57,"time":195.41666666666657,"velocity":0.33858267716535434,"duration":0.3020833333333428},{"name":"F#4","midi":66,"time":195.57083333333324,"velocity":0.4330708661417323,"duration":0.11666666666667425},{"name":"E4","midi":64,"time":195.57291666666657,"velocity":0.3700787401574803,"duration":0.12395833333334849},{"name":"G#4","midi":68,"time":195.73749999999993,"velocity":0.49606299212598426,"duration":0.2750000000000057},{"name":"E4","midi":64,"time":195.91874999999993,"velocity":0.4409448818897638,"duration":0.19583333333332575},{"name":"B3","midi":59,"time":196.09999999999994,"velocity":0.3700787401574803,"duration":0.3177083333333144},{"name":"E4","midi":64,"time":196.27499999999992,"velocity":0.4409448818897638,"duration":0.11145833333333144},{"name":"G#4","midi":68,"time":196.43541666666658,"velocity":0.5196850393700787,"duration":0.2604166666666572},{"name":"E4","midi":64,"time":196.62916666666658,"velocity":0.33858267716535434,"duration":0.11666666666667425},{"name":"B3","midi":59,"time":196.76249999999993,"velocity":0.33858267716535434,"duration":0.3229166666666572},{"name":"E4","midi":64,"time":196.9447916666666,"velocity":0.3543307086614173,"duration":0.11458333333334281},{"name":"F#4","midi":66,"time":197.10312499999992,"velocity":0.4251968503937008,"duration":0.3333333333333428},{"name":"E4","midi":64,"time":197.31562499999993,"velocity":0.2992125984251969,"duration":0.06562500000001137},{"name":"B3","midi":59,"time":197.47708333333327,"velocity":0.2755905511811024,"duration":0.33124999999998295},{"name":"E4","midi":64,"time":197.62395833333326,"velocity":0.31496062992125984,"duration":0.07499999999998863},{"name":"G#4","midi":68,"time":197.80729166666657,"velocity":0.3543307086614173,"duration":0.25312500000001137},{"name":"E4","midi":64,"time":197.98749999999993,"velocity":0.2755905511811024,"duration":0.07083333333332575},{"name":"B3","midi":59,"time":198.1635416666666,"velocity":0.29133858267716534,"duration":0.3125},{"name":"E4","midi":64,"time":198.3510416666666,"velocity":0.2992125984251969,"duration":0.046875},{"name":"F#4","midi":66,"time":198.47187499999993,"velocity":0.3779527559055118,"duration":0.29479166666666856},{"name":"E4","midi":64,"time":198.67499999999993,"velocity":0.30708661417322836,"duration":0.07499999999998863},{"name":"B3","midi":59,"time":198.84062499999993,"velocity":0.3228346456692913,"duration":0.36145833333333144},{"name":"E4","midi":64,"time":199.0197916666666,"velocity":0.30708661417322836,"duration":0.06770833333334281},{"name":"G#4","midi":68,"time":199.17187499999994,"velocity":0.36220472440944884,"duration":0.22708333333332575},{"name":"E4","midi":64,"time":199.36770833333327,"velocity":0.31496062992125984,"duration":0.06354166666667993},{"name":"B3","midi":59,"time":199.5291666666666,"velocity":0.2755905511811024,"duration":0.33125000000001137},{"name":"E4","midi":64,"time":199.7322916666666,"velocity":0.25984251968503935,"duration":0.038541666666674246},{"name":"F#4","midi":66,"time":199.86249999999995,"velocity":0.33070866141732286,"duration":0.27395833333332575},{"name":"E4","midi":64,"time":200.08020833333327,"velocity":0.29133858267716534,"duration":0.04479166666666856},{"name":"B3","midi":59,"time":200.2322916666666,"velocity":0.2440944881889764,"duration":0.3062500000000057},{"name":"E4","midi":64,"time":200.42187499999994,"velocity":0.2677165354330709,"duration":0.037499999999994316},{"name":"G#4","midi":68,"time":200.56458333333327,"velocity":0.4094488188976378,"duration":0.16562500000000568},{"name":"E4","midi":64,"time":200.7645833333333,"velocity":0.2992125984251969,"duration":0.026041666666657193},{"name":"B3","midi":59,"time":200.88749999999996,"velocity":0.2440944881889764,"duration":0.2604166666666856},{"name":"E4","midi":64,"time":201.0927083333333,"velocity":0.2677165354330709,"duration":0.01666666666667993},{"name":"F#4","midi":66,"time":201.25624999999997,"velocity":0.23622047244094488,"duration":0.04583333333332007},{"name":"E4","midi":64,"time":201.48124999999996,"velocity":0.2047244094488189,"duration":0.055208333333354176},{"name":"F#4","midi":66,"time":201.49791666666664,"velocity":0.2047244094488189,"duration":0.03541666666666288},{"name":"F#3","midi":54,"time":201.6677083333333,"velocity":0.23622047244094488,"duration":0.19062500000001137},{"name":"F#4","midi":66,"time":201.79375,"velocity":0.31496062992125984,"duration":0.07083333333332575},{"name":"E4","midi":64,"time":201.83020833333333,"velocity":0.2204724409448819,"duration":0.04374999999998863},{"name":"G#4","midi":68,"time":201.96979166666665,"velocity":0.3700787401574803,"duration":0.10520833333333712},{"name":"F#4","midi":66,"time":202.121875,"velocity":0.4251968503937008,"duration":0.14479166666663446},{"name":"E4","midi":64,"time":202.13229166666665,"velocity":0.3779527559055118,"duration":0.09791666666666288},{"name":"F#3","midi":54,"time":202.29166666666663,"velocity":0.3858267716535433,"duration":0.28333333333333144},{"name":"F#4","midi":66,"time":202.4520833333333,"velocity":0.4251968503937008,"duration":0.11979166666665719},{"name":"E4","midi":64,"time":202.4822916666666,"velocity":0.2755905511811024,"duration":0.08750000000000568},{"name":"G#4","midi":68,"time":202.62083333333328,"velocity":0.5118110236220472,"duration":0.18958333333333144},{"name":"F#4","midi":66,"time":202.7854166666666,"velocity":0.4094488188976378,"duration":0.14166666666667993},{"name":"E4","midi":64,"time":202.80312499999994,"velocity":0.3543307086614173,"duration":0.12812500000001137},{"name":"F#3","midi":54,"time":202.96979166666662,"velocity":0.49606299212598426,"duration":0.27812499999998863},{"name":"F#4","midi":66,"time":203.13645833333328,"velocity":0.4330708661417323,"duration":0.13958333333332007},{"name":"E4","midi":64,"time":203.14895833333327,"velocity":0.3858267716535433,"duration":0.12083333333333712},{"name":"G#4","midi":68,"time":203.30624999999992,"velocity":0.5511811023622047,"duration":0.1875},{"name":"F#4","midi":66,"time":203.48020833333325,"velocity":0.47244094488188976,"duration":0.1458333333333428},{"name":"E4","midi":64,"time":203.49687499999993,"velocity":0.4094488188976378,"duration":0.11875000000000568},{"name":"F#3","midi":54,"time":203.6510416666666,"velocity":0.47244094488188976,"duration":0.203125},{"name":"F#4","midi":66,"time":203.81770833333326,"velocity":0.44881889763779526,"duration":0.14270833333333144},{"name":"E4","midi":64,"time":203.8447916666666,"velocity":0.3464566929133858,"duration":0.10520833333333712},{"name":"G#4","midi":68,"time":204.0010416666666,"velocity":0.47244094488188976,"duration":0.28125},{"name":"E4","midi":64,"time":204.15312499999993,"velocity":0.33858267716535434,"duration":0.13437500000000568},{"name":"A4","midi":69,"time":204.16145833333326,"velocity":0.47244094488188976,"duration":0.13333333333335418},{"name":"A3","midi":57,"time":204.33020833333327,"velocity":0.36220472440944884,"duration":0.4177083333333371},{"name":"A4","midi":69,"time":204.5010416666666,"velocity":0.4409448818897638,"duration":0.13854166666666856},{"name":"E4","midi":64,"time":204.51458333333326,"velocity":0.3700787401574803,"duration":0.125},{"name":"G#4","midi":68,"time":204.66249999999994,"velocity":0.5669291338582677,"duration":0.328125},{"name":"A4","midi":69,"time":204.8385416666666,"velocity":0.44881889763779526,"duration":0.15833333333333144},{"name":"E4","midi":64,"time":204.8447916666666,"velocity":0.41732283464566927,"duration":0.1458333333333428},{"name":"A3","midi":57,"time":205.0072916666666,"velocity":0.3937007874015748,"duration":0.41875000000001705},{"name":"A4","midi":69,"time":205.1822916666666,"velocity":0.48031496062992124,"duration":0.15416666666666856},{"name":"E4","midi":64,"time":205.18437499999993,"velocity":0.4409448818897638,"duration":0.1510416666666572},{"name":"G#4","midi":68,"time":205.34374999999994,"velocity":0.5669291338582677,"duration":0.33541666666667425},{"name":"E4","midi":64,"time":205.52291666666662,"velocity":0.44881889763779526,"duration":0.14687499999999432},{"name":"A4","midi":69,"time":205.52291666666662,"velocity":0.47244094488188976,"duration":0.14895833333332575},{"name":"A3","midi":57,"time":205.68229166666663,"velocity":0.4330708661417323,"duration":0.4208333333333485},{"name":"E4","midi":64,"time":205.86562499999997,"velocity":0.4094488188976378,"duration":0.1614583333333428},{"name":"A4","midi":69,"time":205.8677083333333,"velocity":0.49606299212598426,"duration":0.15625},{"name":"G#4","midi":68,"time":206.04062499999998,"velocity":0.5354330708661418,"duration":0.3135416666666515},{"name":"A4","midi":69,"time":206.21666666666664,"velocity":0.4409448818897638,"duration":0.16562500000000568},{"name":"E4","midi":64,"time":206.22291666666663,"velocity":0.4251968503937008,"duration":0.15833333333333144},{"name":"A3","midi":57,"time":206.39166666666665,"velocity":0.4094488188976378,"duration":0.3177083333333428},{"name":"E4","midi":64,"time":206.57916666666665,"velocity":0.3779527559055118,"duration":0.12083333333333712},{"name":"A4","midi":69,"time":206.58124999999998,"velocity":0.4330708661417323,"duration":0.13229166666667425},{"name":"G#4","midi":68,"time":206.74791666666667,"velocity":0.29133858267716534,"duration":0.2916666666666856},{"name":"E4","midi":64,"time":206.90729166666668,"velocity":0.3937007874015748,"duration":0.12916666666666288},{"name":"B3","midi":59,"time":207.08437500000002,"velocity":0.33070866141732286,"duration":0.3072916666666856},{"name":"E4","midi":64,"time":207.2635416666667,"velocity":0.33858267716535434,"duration":0.109375},{"name":"G#4","midi":68,"time":207.41770833333337,"velocity":0.4330708661417323,"duration":0.2354166666666515},{"name":"E4","midi":64,"time":207.5979166666667,"velocity":0.30708661417322836,"duration":0.10520833333333712},{"name":"B3","midi":59,"time":207.7510416666667,"velocity":0.23622047244094488,"duration":0.34062500000001705},{"name":"E4","midi":64,"time":207.93020833333338,"velocity":0.2992125984251969,"duration":0.08020833333333144},{"name":"F#4","midi":66,"time":208.08437500000005,"velocity":0.33858267716535434,"duration":0.2854166666666913},{"name":"E4","midi":64,"time":208.26979166666672,"velocity":0.2755905511811024,"duration":0.09479166666667993},{"name":"B3","midi":59,"time":208.44062500000007,"velocity":0.28346456692913385,"duration":0.3166666666666629},{"name":"E4","midi":64,"time":208.6364583333334,"velocity":0.1889763779527559,"duration":0.053124999999994316},{"name":"G#4","midi":68,"time":208.76250000000007,"velocity":0.28346456692913385,"duration":0.2750000000000057},{"name":"E4","midi":64,"time":208.9583333333334,"velocity":0.25984251968503935,"duration":0.09687500000001137},{"name":"B3","midi":59,"time":209.1656250000001,"velocity":0.2283464566929134,"duration":0.31458333333335986},{"name":"E4","midi":64,"time":209.3218750000001,"velocity":0.2440944881889764,"duration":0.04791666666667993},{"name":"F#4","midi":66,"time":209.47708333333344,"velocity":0.3228346456692913,"duration":0.2916666666666856},{"name":"E4","midi":64,"time":209.63854166666678,"velocity":0.2992125984251969,"duration":0.08125000000001137},{"name":"B3","midi":59,"time":209.84687500000013,"velocity":0.23622047244094488,"duration":0.29062499999997726},{"name":"E4","midi":64,"time":210.00625000000014,"velocity":0.2677165354330709,"duration":0.02812499999998863},{"name":"G#4","midi":68,"time":210.1687500000001,"velocity":0.2677165354330709,"duration":0.25},{"name":"E4","midi":64,"time":210.33958333333342,"velocity":0.2677165354330709,"duration":0.09270833333334849},{"name":"B3","midi":59,"time":210.55520833333344,"velocity":0.12598425196850394,"duration":0.28750000000002274},{"name":"E4","midi":64,"time":210.6937500000001,"velocity":0.23622047244094488,"duration":0.039583333333325754},{"name":"F#4","midi":66,"time":210.83958333333345,"velocity":0.31496062992125984,"duration":0.31458333333333144},{"name":"E4","midi":64,"time":211.05833333333345,"velocity":0.23622047244094488,"duration":0.05729166666665719},{"name":"B3","midi":59,"time":211.1729166666668,"velocity":0.2992125984251969,"duration":0.330208333333303},{"name":"E4","midi":64,"time":211.3593750000001,"velocity":0.2047244094488189,"duration":0.10416666666665719},{"name":"G#4","midi":68,"time":211.5406250000001,"velocity":0.3779527559055118,"duration":0.17395833333333144},{"name":"E4","midi":64,"time":211.7218750000001,"velocity":0.25984251968503935,"duration":0.07083333333332575},{"name":"B3","midi":59,"time":211.86979166666674,"velocity":0.30708661417322836,"duration":0.24166666666667425},{"name":"E4","midi":64,"time":212.0864583333334,"velocity":0.2204724409448819,"duration":0.03229166666667993},{"name":"F#4","midi":66,"time":212.2312500000001,"velocity":0.2204724409448819,"duration":0.1614583333333428},{"name":"F#4","midi":66,"time":212.39270833333345,"velocity":0.2440944881889764,"duration":0.11562499999999432},{"name":"E4","midi":64,"time":212.44895833333345,"velocity":0.2440944881889764,"duration":0.04583333333332007},{"name":"F#3","midi":54,"time":212.58854166666677,"velocity":0.4094488188976378,"duration":0.19999999999998863},{"name":"F#4","midi":66,"time":212.7656250000001,"velocity":0.33858267716535434,"duration":0.08229166666663446},{"name":"E4","midi":64,"time":212.77604166666677,"velocity":0.2992125984251969,"duration":0.08124999999998295},{"name":"G#4","midi":68,"time":212.91875000000007,"velocity":0.4881889763779528,"duration":0.12812500000001137},{"name":"F#4","midi":66,"time":213.09791666666675,"velocity":0.47244094488188976,"duration":0.12291666666666856},{"name":"E4","midi":64,"time":213.11041666666674,"velocity":0.3858267716535433,"duration":0.09687500000001137},{"name":"F#3","midi":54,"time":213.25104166666674,"velocity":0.36220472440944884,"duration":0.265625},{"name":"F#4","midi":66,"time":213.44062500000007,"velocity":0.4015748031496063,"duration":0.12395833333334849},{"name":"E4","midi":64,"time":213.44791666666674,"velocity":0.3779527559055118,"duration":0.12604166666667993},{"name":"G#4","midi":68,"time":213.60520833333342,"velocity":0.5118110236220472,"duration":0.18958333333333144},{"name":"F#4","midi":66,"time":213.77604166666674,"velocity":0.4645669291338583,"duration":0.14687499999999432},{"name":"E4","midi":64,"time":213.77812500000007,"velocity":0.3700787401574803,"duration":0.140625},{"name":"F#3","midi":54,"time":213.9520833333334,"velocity":0.4645669291338583,"duration":0.2645833333333485},{"name":"F#4","midi":66,"time":214.12812500000007,"velocity":0.47244094488188976,"duration":0.13437500000000568},{"name":"E4","midi":64,"time":214.1333333333334,"velocity":0.4015748031496063,"duration":0.1354166666666572},{"name":"G#4","midi":68,"time":214.29166666666674,"velocity":0.49606299212598426,"duration":0.12187499999998863},{"name":"E4","midi":64,"time":214.45937500000005,"velocity":0.4251968503937008,"duration":0.13229166666667425},{"name":"F#4","midi":66,"time":214.46041666666673,"velocity":0.47244094488188976,"duration":0.13333333333332575},{"name":"F#3","midi":54,"time":214.6208333333334,"velocity":0.4566929133858268,"duration":0.18958333333335986},{"name":"F#4","midi":66,"time":214.79375000000007,"velocity":0.48031496062992124,"duration":0.15312500000001705},{"name":"E4","midi":64,"time":214.80104166666675,"velocity":0.4251968503937008,"duration":0.11875000000000568},{"name":"G#4","midi":68,"time":214.9625000000001,"velocity":0.5354330708661418,"duration":0.31041666666666856},{"name":"E4","midi":64,"time":215.12500000000009,"velocity":0.33858267716535434,"duration":0.16874999999998863},{"name":"A4","midi":69,"time":215.13125000000008,"velocity":0.5118110236220472,"duration":0.15208333333333712},{"name":"A3","midi":57,"time":215.29895833333342,"velocity":0.4251968503937008,"duration":0.439583333333303},{"name":"A4","midi":69,"time":215.48020833333342,"velocity":0.44881889763779526,"duration":0.13958333333332007},{"name":"E4","midi":64,"time":215.48229166666675,"velocity":0.4251968503937008,"duration":0.13333333333332575},{"name":"G#4","midi":68,"time":215.63437500000006,"velocity":0.5511811023622047,"duration":0.33749999999997726},{"name":"E4","midi":64,"time":215.80520833333338,"velocity":0.4645669291338583,"duration":0.15312499999998863},{"name":"A4","midi":69,"time":215.80520833333338,"velocity":0.49606299212598426,"duration":0.16874999999998863},{"name":"A3","midi":57,"time":215.9760416666667,"velocity":0.3858267716535433,"duration":0.4260416666666913},{"name":"E4","midi":64,"time":216.15000000000003,"velocity":0.44881889763779526,"duration":0.13541666666668561},{"name":"A4","midi":69,"time":216.1510416666667,"velocity":0.4881889763779528,"duration":0.1458333333333428},{"name":"G#4","midi":68,"time":216.30416666666673,"velocity":0.5748031496062992,"duration":0.32604166666666856},{"name":"E4","midi":64,"time":216.4864583333334,"velocity":0.4409448818897638,"duration":0.15312500000001705},{"name":"A4","midi":69,"time":216.48854166666672,"velocity":0.5039370078740157,"duration":0.16458333333335418},{"name":"A3","midi":57,"time":216.65937500000007,"velocity":0.3858267716535433,"duration":0.33020833333333144},{"name":"E4","midi":64,"time":216.83229166666675,"velocity":0.44881889763779526,"duration":0.12187499999998863},{"name":"A4","midi":69,"time":216.8427083333334,"velocity":0.47244094488188976,"duration":0.12395833333332007},{"name":"G#4","midi":68,"time":216.99687500000007,"velocity":0.5275590551181102,"duration":0.2083333333333428},{"name":"A4","midi":69,"time":217.1708333333334,"velocity":0.4645669291338583,"duration":0.14687500000002274},{"name":"E4","midi":64,"time":217.17604166666675,"velocity":0.4409448818897638,"duration":0.1395833333333485},{"name":"A3","midi":57,"time":217.33020833333342,"velocity":0.3543307086614173,"duration":0.47604166666667425},{"name":"A4","midi":69,"time":217.50729166666676,"velocity":0.44881889763779526,"duration":0.11041666666665151},{"name":"E4","midi":64,"time":217.51145833333342,"velocity":0.4251968503937008,"duration":0.05729166666665719},{"name":"G#4","midi":68,"time":217.65625000000009,"velocity":0.4330708661417323,"duration":0.08125000000001137},{"name":"E4","midi":64,"time":217.86979166666677,"velocity":0.4094488188976378,"duration":0.12187499999998863},{"name":"G#4","midi":68,"time":217.88020833333343,"velocity":0.49606299212598426,"duration":0.11770833333332575},{"name":"B3","midi":59,"time":218.0708333333334,"velocity":0.33070866141732286,"duration":0.234375},{"name":"G#4","midi":68,"time":218.18958333333342,"velocity":0.49606299212598426,"duration":0.09270833333332007},{"name":"E4","midi":64,"time":218.21354166666674,"velocity":0.31496062992125984,"duration":0.08541666666667425},{"name":"F#4","midi":66,"time":218.34062500000007,"velocity":0.4015748031496063,"duration":0.2864583333333428},{"name":"G#4","midi":68,"time":218.53437500000007,"velocity":0.4015748031496063,"duration":0.09479166666667993},{"name":"E4","midi":64,"time":218.5395833333334,"velocity":0.29133858267716534,"duration":0.16562500000000568},{"name":"B3","midi":59,"time":218.70312500000009,"velocity":0.3228346456692913,"duration":0.26770833333333144},{"name":"G#4","midi":68,"time":218.88750000000007,"velocity":0.2755905511811024,"duration":0.08020833333333144},{"name":"E4","midi":64,"time":218.89687500000008,"velocity":0.23622047244094488,"duration":0.11562499999999432},{"name":"F#4","midi":66,"time":219.02916666666675,"velocity":0.3464566929133858,"duration":0.3364583333333542},{"name":"E4","midi":64,"time":219.22395833333343,"velocity":0.3228346456692913,"duration":0.15729166666667993},{"name":"G#4","midi":68,"time":219.2312500000001,"velocity":0.36220472440944884,"duration":0.11562499999999432},{"name":"B3","midi":59,"time":219.4125000000001,"velocity":0.36220472440944884,"duration":0.3125000000000284},{"name":"G#4","midi":68,"time":219.58229166666678,"velocity":0.3937007874015748,"duration":0.09791666666666288},{"name":"E4","midi":64,"time":219.60729166666678,"velocity":0.2755905511811024,"duration":0.10729166666666856},{"name":"F#4","midi":66,"time":219.71770833333346,"velocity":0.3779527559055118,"duration":0.3208333333333542},{"name":"G#4","midi":68,"time":219.90000000000015,"velocity":0.3858267716535433,"duration":0.11979166666665719},{"name":"E4","midi":64,"time":219.91145833333348,"velocity":0.30708661417322836,"duration":0.1770833333333428},{"name":"B3","midi":59,"time":220.08125000000015,"velocity":0.30708661417322836,"duration":0.2916666666666856},{"name":"E4","midi":64,"time":220.24687500000016,"velocity":0.33070866141732286,"duration":0.15729166666667993},{"name":"G#4","midi":68,"time":220.24791666666684,"velocity":0.33858267716535434,"duration":0.11250000000001137},{"name":"F#4","midi":66,"time":220.39479166666683,"velocity":0.4094488188976378,"duration":0.3437500000000284},{"name":"G#4","midi":68,"time":220.5677083333335,"velocity":0.4645669291338583,"duration":0.13437500000000568},{"name":"E4","midi":64,"time":220.58854166666686,"velocity":0.3464566929133858,"duration":0.18125000000000568},{"name":"B3","midi":59,"time":220.75416666666686,"velocity":0.36220472440944884,"duration":0.2874999999999943},{"name":"E4","midi":64,"time":220.92500000000018,"velocity":0.3464566929133858,"duration":0.12187500000001705},{"name":"G#4","midi":68,"time":220.9281250000002,"velocity":0.4094488188976378,"duration":0.11354166666666288},{"name":"F#4","midi":66,"time":221.0562500000002,"velocity":0.3779527559055118,"duration":0.30520833333329733},{"name":"G#4","midi":68,"time":221.23854166666686,"velocity":0.4881889763779528,"duration":0.14583333333331439},{"name":"E4","midi":64,"time":221.25312500000018,"velocity":0.3464566929133858,"duration":0.16041666666666288},{"name":"B3","midi":59,"time":221.42083333333352,"velocity":0.33070866141732286,"duration":0.3229166666666856},{"name":"G#4","midi":68,"time":221.5937500000002,"velocity":0.47244094488188976,"duration":0.13333333333332575},{"name":"E4","midi":64,"time":221.6000000000002,"velocity":0.3858267716535433,"duration":0.1458333333333428},{"name":"F#4","midi":66,"time":221.73854166666686,"velocity":0.3858267716535433,"duration":0.3125000000000284},{"name":"G#4","midi":68,"time":221.9250000000002,"velocity":0.4566929133858268,"duration":0.12812500000001137},{"name":"E4","midi":64,"time":221.9406250000002,"velocity":0.3937007874015748,"duration":0.14166666666667993},{"name":"B3","midi":59,"time":222.10000000000022,"velocity":0.3700787401574803,"duration":0.3354166666666458},{"name":"G#4","midi":68,"time":222.27083333333354,"velocity":0.4251968503937008,"duration":0.11770833333332575},{"name":"E4","midi":64,"time":222.2812500000002,"velocity":0.3700787401574803,"duration":0.13333333333332575},{"name":"F#4","midi":66,"time":222.42604166666686,"velocity":0.3937007874015748,"duration":0.28125},{"name":"G#4","midi":68,"time":222.61354166666686,"velocity":0.4251968503937008,"duration":0.1354166666666572},{"name":"E4","midi":64,"time":222.6156250000002,"velocity":0.3858267716535433,"duration":0.16145833333331439},{"name":"B3","midi":59,"time":222.77916666666684,"velocity":0.33858267716535434,"duration":0.3218750000000057},{"name":"G#4","midi":68,"time":222.9489583333335,"velocity":0.44881889763779526,"duration":0.09062499999998863},{"name":"E4","midi":64,"time":222.97500000000016,"velocity":0.33858267716535434,"duration":0.06562500000001137},{"name":"F#4","midi":66,"time":223.11562500000016,"velocity":0.3700787401574803,"duration":0.07395833333333712},{"name":"A4","midi":69,"time":223.32291666666683,"velocity":0.31496062992125984,"duration":0.12395833333334849},{"name":"E4","midi":64,"time":223.3395833333335,"velocity":0.2125984251968504,"duration":0.09791666666666288},{"name":"G#4","midi":68,"time":223.49895833333352,"velocity":0.3464566929133858,"duration":0.24166666666664582},{"name":"A4","midi":69,"time":223.6677083333335,"velocity":0.33070866141732286,"duration":0.09583333333333144},{"name":"E4","midi":64,"time":223.6802083333335,"velocity":0.2047244094488189,"duration":0.08958333333333712},{"name":"F#4","midi":66,"time":223.82187500000018,"velocity":0.2992125984251969,"duration":0.3020833333333144},{"name":"A4","midi":69,"time":224.0114583333335,"velocity":0.28346456692913385,"duration":0.11458333333331439},{"name":"E4","midi":64,"time":224.02916666666684,"velocity":0.2283464566929134,"duration":0.08645833333332575},{"name":"G#4","midi":68,"time":224.16666666666683,"velocity":0.3858267716535433,"duration":0.29791666666667993},{"name":"A4","midi":69,"time":224.3395833333335,"velocity":0.2677165354330709,"duration":0.14166666666667993},{"name":"E4","midi":64,"time":224.36041666666685,"velocity":0.2440944881889764,"duration":0.07604166666666856},{"name":"F#4","midi":66,"time":224.5125000000002,"velocity":0.30708661417322836,"duration":0.25729166666667425},{"name":"E4","midi":64,"time":224.70625000000018,"velocity":0.2204724409448819,"duration":0.0666666666666913},{"name":"A4","midi":69,"time":224.71354166666686,"velocity":0.1889763779527559,"duration":0.05937500000001705},{"name":"G#4","midi":68,"time":224.87395833333355,"velocity":0.2204724409448819,"duration":0.2197916666666515},{"name":"A4","midi":69,"time":225.0718750000002,"velocity":0.2047244094488189,"duration":0.07083333333335418},{"name":"E4","midi":64,"time":225.0781250000002,"velocity":0.18110236220472442,"duration":0.06354166666667993},{"name":"F#4","midi":66,"time":225.1854166666669,"velocity":0.25984251968503935,"duration":0.2614583333333371},{"name":"A4","midi":69,"time":225.37083333333356,"velocity":0.29133858267716534,"duration":0.12083333333333712},{"name":"E4","midi":64,"time":225.4072916666669,"velocity":0.16535433070866143,"duration":0.07395833333333712},{"name":"G#4","midi":68,"time":225.52395833333358,"velocity":0.28346456692913385,"duration":0.3031249999999943},{"name":"E4","midi":64,"time":225.70208333333358,"velocity":0.2992125984251969,"duration":0.10208333333332575},{"name":"A4","midi":69,"time":225.70833333333357,"velocity":0.2283464566929134,"duration":0.16770833333333712},{"name":"F#4","midi":66,"time":225.8822916666669,"velocity":0.28346456692913385,"duration":0.27291666666667425},{"name":"A4","midi":69,"time":226.0416666666669,"velocity":0.1889763779527559,"duration":0.16249999999999432},{"name":"E4","midi":64,"time":226.04583333333358,"velocity":0.28346456692913385,"duration":0.09895833333334281},{"name":"G#4","midi":68,"time":226.24062500000025,"velocity":0.25196850393700787,"duration":0.22187500000001137},{"name":"A4","midi":69,"time":226.39062500000026,"velocity":0.3228346456692913,"duration":0.125},{"name":"E4","midi":64,"time":226.3958333333336,"velocity":0.25196850393700787,"duration":0.11041666666665151},{"name":"F#4","midi":66,"time":226.55520833333358,"velocity":0.25984251968503935,"duration":0.27812499999998863},{"name":"E4","midi":64,"time":226.73958333333357,"velocity":0.2440944881889764,"duration":0.08854166666665719},{"name":"A4","midi":69,"time":226.7416666666669,"velocity":0.3228346456692913,"duration":0.11145833333333144},{"name":"G#4","midi":68,"time":226.89270833333356,"velocity":0.36220472440944884,"duration":0.27291666666670267},{"name":"E4","midi":64,"time":227.08958333333356,"velocity":0.2204724409448819,"duration":0.06458333333335986},{"name":"A4","midi":69,"time":227.10625000000024,"velocity":0.2204724409448819,"duration":0.057291666666685614},{"name":"F#4","midi":66,"time":227.23125000000027,"velocity":0.2992125984251969,"duration":0.2354166666666515},{"name":"E4","midi":64,"time":227.40104166666694,"velocity":0.2755905511811024,"duration":0.11562499999999432},{"name":"A4","midi":69,"time":227.4052083333336,"velocity":0.29133858267716534,"duration":0.15312499999998863},{"name":"G#4","midi":68,"time":227.54687500000026,"velocity":0.3700787401574803,"duration":0.29895833333333144},{"name":"A4","midi":69,"time":227.7239583333336,"velocity":0.2440944881889764,"duration":0.1364583333333087},{"name":"E4","midi":64,"time":227.76666666666694,"velocity":0.2440944881889764,"duration":0.06458333333333144},{"name":"F#4","midi":66,"time":227.89375000000024,"velocity":0.28346456692913385,"duration":0.26770833333333144},{"name":"A4","midi":69,"time":228.05833333333356,"velocity":0.30708661417322836,"duration":0.11666666666667425},{"name":"E4","midi":64,"time":228.09270833333358,"velocity":0.1889763779527559,"duration":0.06874999999999432},{"name":"G#4","midi":68,"time":228.21145833333358,"velocity":0.31496062992125984,"duration":0.30416666666667425},{"name":"E4","midi":64,"time":228.38854166666692,"velocity":0.2677165354330709,"duration":0.11145833333333144},{"name":"A4","midi":69,"time":228.4010416666669,"velocity":0.2755905511811024,"duration":0.11041666666667993},{"name":"F#4","midi":66,"time":228.5677083333336,"velocity":0.33070866141732286,"duration":0.2697916666666629},{"name":"A4","midi":69,"time":228.72604166666693,"velocity":0.33070866141732286,"duration":0.12708333333333144},{"name":"E4","midi":64,"time":228.73229166666692,"velocity":0.23622047244094488,"duration":0.10625000000001705},{"name":"G#4","midi":68,"time":228.89062500000026,"velocity":0.3464566929133858,"duration":0.2979166666666515},{"name":"E4","midi":64,"time":229.0739583333336,"velocity":0.23622047244094488,"duration":0.10208333333332575},{"name":"A4","midi":69,"time":229.07604166666692,"velocity":0.31496062992125984,"duration":0.14895833333332575},{"name":"F#4","midi":66,"time":229.24166666666693,"velocity":0.2992125984251969,"duration":0.2593750000000057},{"name":"A4","midi":69,"time":229.39479166666692,"velocity":0.33070866141732286,"duration":0.15937500000001137},{"name":"E4","midi":64,"time":229.42187500000026,"velocity":0.25984251968503935,"duration":0.07395833333333712},{"name":"G#4","midi":68,"time":229.56354166666694,"velocity":0.33070866141732286,"duration":0.26354166666666856},{"name":"A4","midi":69,"time":229.72916666666694,"velocity":0.23622047244094488,"duration":0.12916666666666288},{"name":"E4","midi":64,"time":229.7395833333336,"velocity":0.2992125984251969,"duration":0.078125},{"name":"F#4","midi":66,"time":229.8708333333336,"velocity":0.29133858267716534,"duration":0.2604166666666572},{"name":"A4","midi":69,"time":230.05000000000027,"velocity":0.3700787401574803,"duration":0.11145833333333144},{"name":"E4","midi":64,"time":230.0583333333336,"velocity":0.2047244094488189,"duration":0.08020833333333144},{"name":"G#4","midi":68,"time":230.2270833333336,"velocity":0.2755905511811024,"duration":0.29791666666667993},{"name":"A4","midi":69,"time":230.39270833333362,"velocity":0.3464566929133858,"duration":0.12187500000001705},{"name":"E4","midi":64,"time":230.39583333333363,"velocity":0.25984251968503935,"duration":0.11145833333333144},{"name":"F#4","midi":66,"time":230.54270833333362,"velocity":0.33858267716535434,"duration":0.3083333333333371},{"name":"E4","midi":64,"time":230.73645833333362,"velocity":0.23622047244094488,"duration":0.11458333333334281},{"name":"A4","midi":69,"time":230.73854166666695,"velocity":0.33070866141732286,"duration":0.15104166666668561},{"name":"G#4","midi":68,"time":230.91458333333364,"velocity":0.31496062992125984,"duration":0.2718749999999943},{"name":"A4","midi":69,"time":231.07916666666696,"velocity":0.3464566929133858,"duration":0.11666666666667425},{"name":"E4","midi":64,"time":231.08541666666696,"velocity":0.2204724409448819,"duration":0.09791666666666288},{"name":"F#4","midi":66,"time":231.24166666666696,"velocity":0.33070866141732286,"duration":0.234375},{"name":"A4","midi":69,"time":231.39583333333363,"velocity":0.3543307086614173,"duration":0.13437500000000568},{"name":"E4","midi":64,"time":231.4156250000003,"velocity":0.25984251968503935,"duration":0.09791666666666288},{"name":"G#4","midi":68,"time":231.57291666666697,"velocity":0.30708661417322836,"duration":0.328125},{"name":"E4","midi":64,"time":231.74479166666697,"velocity":0.2992125984251969,"duration":0.09062499999998863},{"name":"A4","midi":69,"time":231.75520833333363,"velocity":0.33070866141732286,"duration":0.10312500000000568},{"name":"F#4","midi":66,"time":231.91979166666698,"velocity":0.33070866141732286,"duration":0.2489583333333485},{"name":"E4","midi":64,"time":232.07187500000032,"velocity":0.3543307086614173,"duration":0.11250000000001137},{"name":"A4","midi":69,"time":232.08333333333366,"velocity":0.3464566929133858,"duration":0.18020833333335418},{"name":"G#4","midi":68,"time":232.24687500000033,"velocity":0.36220472440944884,"duration":0.29375000000001705},{"name":"A4","midi":69,"time":232.410416666667,"velocity":0.33070866141732286,"duration":0.14687500000002274},{"name":"E4","midi":64,"time":232.46562500000033,"velocity":0.2440944881889764,"duration":0.056250000000005684},{"name":"F#4","midi":66,"time":232.59375000000037,"velocity":0.33858267716535434,"duration":0.27395833333329733},{"name":"A4","midi":69,"time":232.7645833333337,"velocity":0.3779527559055118,"duration":0.14270833333330302},{"name":"E4","midi":64,"time":232.80625000000035,"velocity":0.23622047244094488,"duration":0.04583333333332007},{"name":"G#4","midi":68,"time":232.96145833333367,"velocity":0.25196850393700787,"duration":0.24687499999998863},{"name":"A4","midi":69,"time":233.11145833333367,"velocity":0.33070866141732286,"duration":0.13333333333332575},{"name":"E4","midi":64,"time":233.16458333333367,"velocity":0.23622047244094488,"duration":0.04895833333333144},{"name":"F#4","midi":66,"time":233.28125000000034,"velocity":0.31496062992125984,"duration":0.2291666666666572},{"name":"A4","midi":69,"time":233.457291666667,"velocity":0.33070866141732286,"duration":0.11874999999997726},{"name":"E4","midi":64,"time":233.479166666667,"velocity":0.2047244094488189,"duration":0.08229166666666288},{"name":"G#4","midi":68,"time":233.6156250000003,"velocity":0.2992125984251969,"duration":0.234375},{"name":"A4","midi":69,"time":233.79895833333364,"velocity":0.3543307086614173,"duration":0.10104166666664582},{"name":"E4","midi":64,"time":233.82916666666696,"velocity":0.2204724409448819,"duration":0.05833333333333712},{"name":"F#4","midi":66,"time":233.9406250000003,"velocity":0.29133858267716534,"duration":0.04583333333332007},{"name":"E4","midi":64,"time":234.12916666666695,"velocity":0.2992125984251969,"duration":0.07708333333332007},{"name":"B3","midi":59,"time":234.3145833333336,"velocity":0.23622047244094488,"duration":0.28333333333333144},{"name":"E4","midi":64,"time":234.46041666666693,"velocity":0.25196850393700787,"duration":0.09062499999998863},{"name":"G#4","midi":68,"time":234.61354166666692,"velocity":0.3858267716535433,"duration":0.2927083333333371},{"name":"E4","midi":64,"time":234.84166666666692,"velocity":0.2440944881889764,"duration":0.038541666666674246},{"name":"B3","midi":59,"time":234.97812500000026,"velocity":0.25984251968503935,"duration":0.3385416666666572},{"name":"E4","midi":64,"time":235.1927083333336,"velocity":0.1968503937007874,"duration":0.053124999999994316},{"name":"G#4","midi":68,"time":235.31979166666693,"velocity":0.31496062992125984,"duration":0.27916666666666856},{"name":"E4","midi":64,"time":235.51666666666694,"velocity":0.2204724409448819,"duration":0.06874999999999432},{"name":"B3","midi":59,"time":235.6864583333336,"velocity":0.2440944881889764,"duration":0.3010416666666629},{"name":"E4","midi":64,"time":235.86875000000026,"velocity":0.15748031496062992,"duration":0.05000000000001137},{"name":"G#4","midi":68,"time":236.0020833333336,"velocity":0.3700787401574803,"duration":0.28437500000001137},{"name":"E4","midi":64,"time":236.2364583333336,"velocity":0.16535433070866143,"duration":0.027083333333337123},{"name":"B3","midi":59,"time":236.38229166666693,"velocity":0.1889763779527559,"duration":0.32499999999998863},{"name":"E4","midi":64,"time":236.5677083333336,"velocity":0.2047244094488189,"duration":0.04166666666665719},{"name":"G#4","midi":68,"time":236.72812500000026,"velocity":0.2755905511811024,"duration":0.22499999999999432},{"name":"E4","midi":64,"time":236.90625000000026,"velocity":0.2440944881889764,"duration":0.027083333333337123},{"name":"B3","midi":59,"time":237.0572916666669,"velocity":0.2204724409448819,"duration":0.31562500000001137},{"name":"E4","midi":64,"time":237.23229166666692,"velocity":0.29133858267716534,"duration":0.046875},{"name":"G#4","midi":68,"time":237.39479166666692,"velocity":0.33858267716535434,"duration":0.29374999999998863},{"name":"E4","midi":64,"time":237.5958333333336,"velocity":0.2677165354330709,"duration":0.03125},{"name":"B3","midi":59,"time":237.75520833333357,"velocity":0.2440944881889764,"duration":0.31562500000001137},{"name":"E4","midi":64,"time":237.9447916666669,"velocity":0.25984251968503935,"duration":0.03125},{"name":"G#4","midi":68,"time":238.09791666666692,"velocity":0.3779527559055118,"duration":0.23124999999998863},{"name":"E4","midi":64,"time":238.2989583333336,"velocity":0.23622047244094488,"duration":0.037499999999994316},{"name":"B3","midi":59,"time":238.45312500000026,"velocity":0.23622047244094488,"duration":0.32604166666666856},{"name":"E4","midi":64,"time":238.6458333333336,"velocity":0.25984251968503935,"duration":0.021874999999994316},{"name":"G#4","midi":68,"time":238.77395833333358,"velocity":0.36220472440944884,"duration":0.2437500000000341},{"name":"E4","midi":64,"time":238.9833333333336,"velocity":0.25196850393700787,"duration":0.08020833333333144},{"name":"B3","midi":59,"time":239.13854166666692,"velocity":0.3228346456692913,"duration":0.28854166666667425},{"name":"E4","midi":64,"time":239.28125000000026,"velocity":0.29133858267716534,"duration":0.078125},{"name":"G#4","midi":68,"time":239.47604166666693,"velocity":0.25984251968503935,"duration":0.09687500000001137},{"name":"A4","midi":69,"time":239.65000000000026,"velocity":0.29133858267716534,"duration":0.07291666666665719},{"name":"E4","midi":64,"time":239.67916666666693,"velocity":0.14173228346456693,"duration":0.06145833333332007},{"name":"G#4","midi":68,"time":239.79583333333358,"velocity":0.2440944881889764,"duration":0.29791666666667993},{"name":"E4","midi":64,"time":240.0260416666669,"velocity":0.1732283464566929,"duration":0.05208333333334281},{"name":"A4","midi":69,"time":240.02812500000024,"velocity":0.1889763779527559,"duration":0.05208333333334281},{"name":"F#4","midi":66,"time":240.13125000000025,"velocity":0.2992125984251969,"duration":0.2979166666666515},{"name":"E4","midi":64,"time":240.3145833333336,"velocity":0.28346456692913385,"duration":0.07916666666665151},{"name":"A4","midi":69,"time":240.35833333333358,"velocity":0.2204724409448819,"duration":0.056250000000005684},{"name":"G#4","midi":68,"time":240.4854166666669,"velocity":0.2677165354330709,"duration":0.2822916666666515},{"name":"E4","midi":64,"time":240.6635416666669,"velocity":0.25984251968503935,"duration":0.08958333333333712},{"name":"A4","midi":69,"time":240.66770833333356,"velocity":0.2677165354330709,"duration":0.07395833333333712},{"name":"F#4","midi":66,"time":240.84479166666688,"velocity":0.2440944881889764,"duration":0.265625},{"name":"E4","midi":64,"time":241.01145833333354,"velocity":0.2755905511811024,"duration":0.07708333333334849},{"name":"A4","midi":69,"time":241.01250000000022,"velocity":0.33858267716535434,"duration":0.10208333333332575},{"name":"G#4","midi":68,"time":241.19166666666686,"velocity":0.2755905511811024,"duration":0.23749999999998295},{"name":"A4","midi":69,"time":241.35416666666686,"velocity":0.3228346456692913,"duration":0.10208333333332575},{"name":"E4","midi":64,"time":241.3645833333335,"velocity":0.25984251968503935,"duration":0.09479166666667993},{"name":"F#4","midi":66,"time":241.5208333333335,"velocity":0.28346456692913385,"duration":0.2604166666666856},{"name":"A4","midi":69,"time":241.69062500000018,"velocity":0.31496062992125984,"duration":0.14375000000001137},{"name":"E4","midi":64,"time":241.69583333333352,"velocity":0.33858267716535434,"duration":0.08125000000001137},{"name":"G#4","midi":68,"time":241.84687500000018,"velocity":0.3228346456692913,"duration":0.2958333333333485},{"name":"A4","midi":69,"time":242.04062500000018,"velocity":0.33070866141732286,"duration":0.15312500000001705},{"name":"E4","midi":64,"time":242.0520833333335,"velocity":0.28346456692913385,"duration":0.08750000000000568},{"name":"F#4","midi":66,"time":242.22916666666686,"velocity":0.33070866141732286,"duration":0.25},{"name":"A4","midi":69,"time":242.3812500000002,"velocity":0.3700787401574803,"duration":0.11562499999999432},{"name":"E4","midi":64,"time":242.39895833333352,"velocity":0.2755905511811024,"duration":0.078125},{"name":"G#4","midi":68,"time":242.55104166666686,"velocity":0.3779527559055118,"duration":0.2718749999999943},{"name":"A4","midi":69,"time":242.71145833333352,"velocity":0.3464566929133858,"duration":0.13437500000000568},{"name":"E4","midi":64,"time":242.7395833333335,"velocity":0.30708661417322836,"duration":0.09687500000001137},{"name":"F#4","midi":66,"time":242.8812500000002,"velocity":0.33070866141732286,"duration":0.2562499999999943},{"name":"A4","midi":69,"time":243.0593750000002,"velocity":0.3937007874015748,"duration":0.11874999999997726},{"name":"E4","midi":64,"time":243.06562500000018,"velocity":0.3464566929133858,"duration":0.10208333333332575},{"name":"G#4","midi":68,"time":243.22187500000015,"velocity":0.3937007874015748,"duration":0.27395833333332575},{"name":"A4","midi":69,"time":243.3833333333335,"velocity":0.3858267716535433,"duration":0.17708333333331439},{"name":"E4","midi":64,"time":243.39583333333348,"velocity":0.2992125984251969,"duration":0.13749999999998863},{"name":"F#4","midi":66,"time":243.57187500000015,"velocity":0.33070866141732286,"duration":0.2750000000000057},{"name":"A4","midi":69,"time":243.73958333333348,"velocity":0.4094488188976378,"duration":0.12604166666667993},{"name":"E4","midi":64,"time":243.74583333333348,"velocity":0.3228346456692913,"duration":0.13125000000002274},{"name":"G#4","midi":68,"time":243.92291666666682,"velocity":0.2992125984251969,"duration":0.2614583333333371},{"name":"E4","midi":64,"time":244.07395833333348,"velocity":0.4094488188976378,"duration":0.12604166666667993},{"name":"A4","midi":69,"time":244.07916666666682,"velocity":0.3700787401574803,"duration":0.17812499999999432},{"name":"F#4","midi":66,"time":244.2427083333335,"velocity":0.3779527559055118,"duration":0.2656249999999716},{"name":"A4","midi":69,"time":244.42395833333347,"velocity":0.44881889763779526,"duration":0.1260416666666515},{"name":"E4","midi":64,"time":244.4260416666668,"velocity":0.3543307086614173,"duration":0.1364583333333087},{"name":"G#4","midi":68,"time":244.61250000000013,"velocity":0.4094488188976378,"duration":0.23645833333333144},{"name":"A4","midi":69,"time":244.76458333333346,"velocity":0.4094488188976378,"duration":0.12916666666666288},{"name":"E4","midi":64,"time":244.77812500000013,"velocity":0.33858267716535434,"duration":0.11458333333331439},{"name":"F#4","midi":66,"time":244.93437500000013,"velocity":0.33070866141732286,"duration":0.038541666666674246},{"name":"B4","midi":71,"time":245.10520833333348,"velocity":0.44881889763779526,"duration":0.11666666666664582},{"name":"E4","midi":64,"time":245.11770833333347,"velocity":0.30708661417322836,"duration":0.13020833333331439},{"name":"B3","midi":59,"time":245.32187500000012,"velocity":0.2992125984251969,"duration":0.3114583333333769},{"name":"B4","midi":71,"time":245.42395833333345,"velocity":0.3858267716535433,"duration":0.11145833333335986},{"name":"E4","midi":64,"time":245.47187500000013,"velocity":0.2755905511811024,"duration":0.0822916666666913},{"name":"G#4","midi":68,"time":245.62187500000016,"velocity":0.4094488188976378,"duration":0.27916666666666856},{"name":"B4","midi":71,"time":245.78541666666683,"velocity":0.4409448818897638,"duration":0.13124999999999432},{"name":"E4","midi":64,"time":245.7989583333335,"velocity":0.33858267716535434,"duration":0.15000000000000568},{"name":"B3","midi":59,"time":245.95937500000016,"velocity":0.36220472440944884,"duration":0.37812500000001137},{"name":"E4","midi":64,"time":246.12291666666684,"velocity":0.3779527559055118,"duration":0.16041666666666288},{"name":"B4","midi":71,"time":246.13229166666684,"velocity":0.4015748031496063,"duration":0.125},{"name":"G#4","midi":68,"time":246.30000000000018,"velocity":0.5039370078740157,"duration":0.2874999999999943},{"name":"B4","midi":71,"time":246.46666666666684,"velocity":0.44881889763779526,"duration":0.15000000000000568},{"name":"E4","midi":64,"time":246.47500000000016,"velocity":0.3937007874015748,"duration":0.1302083333333428},{"name":"B3","midi":59,"time":246.6427083333335,"velocity":0.3858267716535433,"duration":0.36666666666670267},{"name":"E4","midi":64,"time":246.80625000000018,"velocity":0.4094488188976378,"duration":0.18541666666669698},{"name":"B4","midi":71,"time":246.81562500000018,"velocity":0.49606299212598426,"duration":0.1302083333333428},{"name":"G#4","midi":68,"time":246.98229166666687,"velocity":0.44881889763779526,"duration":0.3177083333333144},{"name":"B4","midi":71,"time":247.14479166666686,"velocity":0.4645669291338583,"duration":0.15937499999998295},{"name":"E4","midi":64,"time":247.16458333333352,"velocity":0.4409448818897638,"duration":0.10729166666666856},{"name":"B3","midi":59,"time":247.32916666666685,"velocity":0.4251968503937008,"duration":0.3906249999999716},{"name":"B4","midi":71,"time":247.51354166666684,"velocity":0.49606299212598426,"duration":0.11770833333332575},{"name":"E4","midi":64,"time":247.51562500000017,"velocity":0.33858267716535434,"duration":0.16145833333331439},{"name":"G#4","midi":68,"time":247.67291666666682,"velocity":0.5669291338582677,"duration":0.3291666666666515},{"name":"B4","midi":71,"time":247.85520833333348,"velocity":0.48031496062992124,"duration":0.14270833333333144},{"name":"E4","midi":64,"time":247.86666666666682,"velocity":0.4251968503937008,"duration":0.11770833333332575},{"name":"B3","midi":59,"time":248.02395833333347,"velocity":0.4015748031496063,"duration":0.34062499999998863},{"name":"B4","midi":71,"time":248.18437500000013,"velocity":0.4881889763779528,"duration":0.13645833333333712},{"name":"E4","midi":64,"time":248.19270833333346,"velocity":0.3858267716535433,"duration":0.12812500000001137},{"name":"G#4","midi":68,"time":248.37291666666678,"velocity":0.49606299212598426,"duration":0.2906250000000057},{"name":"B4","midi":71,"time":248.54479166666678,"velocity":0.5275590551181102,"duration":0.12812500000001137},{"name":"E4","midi":64,"time":248.5479166666668,"velocity":0.4251968503937008,"duration":0.13854166666666856},{"name":"B3","midi":59,"time":248.71875000000014,"velocity":0.3464566929133858,"duration":0.3708333333333087},{"name":"B4","midi":71,"time":248.90520833333346,"velocity":0.4251968503937008,"duration":0.10624999999998863},{"name":"E4","midi":64,"time":248.91562500000012,"velocity":0.30708661417322836,"duration":0.11145833333333144},{"name":"G#4","midi":68,"time":249.10625000000013,"velocity":0.4094488188976378,"duration":0.2552083333333144},{"name":"C#5","midi":73,"time":249.27812500000013,"velocity":0.48031496062992124,"duration":0.12812499999998295},{"name":"E4","midi":64,"time":249.29270833333345,"velocity":0.30708661417322836,"duration":0.10208333333332575},{"name":"B3","midi":59,"time":249.45104166666678,"velocity":0.2755905511811024,"duration":0.377083333333303},{"name":"C#5","midi":73,"time":249.61770833333344,"velocity":0.48031496062992124,"duration":0.17083333333332007},{"name":"E4","midi":64,"time":249.6312500000001,"velocity":0.3700787401574803,"duration":0.10624999999998863},{"name":"G#4","midi":68,"time":249.80312500000008,"velocity":0.4409448818897638,"duration":0.24270833333332575},{"name":"B4","midi":71,"time":249.95729166666675,"velocity":0.49606299212598426,"duration":0.12812499999998295},{"name":"E4","midi":64,"time":249.95937500000008,"velocity":0.3464566929133858,"duration":0.14791666666664582},{"name":"B3","midi":59,"time":250.14062500000006,"velocity":0.3937007874015748,"duration":0.26770833333335986},{"name":"B4","midi":71,"time":250.2927083333334,"velocity":0.3779527559055118,"duration":0.11666666666670267},{"name":"E4","midi":64,"time":250.30937500000007,"velocity":0.36220472440944884,"duration":0.06770833333334281},{"name":"G#4","midi":68,"time":250.47083333333342,"velocity":0.4330708661417323,"duration":0.29791666666667993},{"name":"A4","midi":69,"time":250.65104166666674,"velocity":0.33070866141732286,"duration":0.09999999999999432},{"name":"E4","midi":64,"time":250.65833333333342,"velocity":0.23622047244094488,"duration":0.109375},{"name":"F#4","midi":66,"time":250.8156250000001,"velocity":0.2755905511811024,"duration":0.3322916666666629},{"name":"E4","midi":64,"time":250.98645833333342,"velocity":0.2755905511811024,"duration":0.1614583333333428},{"name":"A4","midi":69,"time":250.99687500000007,"velocity":0.29133858267716534,"duration":0.10104166666667425},{"name":"G#4","midi":68,"time":251.2062500000001,"velocity":0.29133858267716534,"duration":0.234375},{"name":"A4","midi":69,"time":251.3531250000001,"velocity":0.2677165354330709,"duration":0.08229166666666288},{"name":"E4","midi":64,"time":251.37604166666677,"velocity":0.25984251968503935,"duration":0.06666666666666288},{"name":"F#4","midi":66,"time":251.49791666666675,"velocity":0.2755905511811024,"duration":0.3072916666666856},{"name":"A4","midi":69,"time":251.68541666666675,"velocity":0.2992125984251969,"duration":0.09687500000001137},{"name":"E4","midi":64,"time":251.69895833333342,"velocity":0.2047244094488189,"duration":0.10208333333335418},{"name":"G#4","midi":68,"time":251.86875000000012,"velocity":0.2677165354330709,"duration":0.2708333333333428},{"name":"A4","midi":69,"time":252.03333333333345,"velocity":0.2677165354330709,"duration":0.14270833333335986},{"name":"E4","midi":64,"time":252.04270833333345,"velocity":0.2440944881889764,"duration":0.09895833333334281},{"name":"F#4","midi":66,"time":252.18645833333346,"velocity":0.33070866141732286,"duration":0.29895833333335986},{"name":"E4","midi":64,"time":252.3697916666668,"velocity":0.2047244094488189,"duration":0.12500000000002842},{"name":"A4","midi":69,"time":252.3729166666668,"velocity":0.3464566929133858,"duration":0.09583333333333144},{"name":"G#4","midi":68,"time":252.53750000000016,"velocity":0.36220472440944884,"duration":0.2760416666666572},{"name":"E4","midi":64,"time":252.70937500000016,"velocity":0.33858267716535434,"duration":0.12083333333333712},{"name":"A4","midi":69,"time":252.72500000000016,"velocity":0.25984251968503935,"duration":0.10208333333332575},{"name":"F#4","midi":66,"time":252.85104166666684,"velocity":0.36220472440944884,"duration":0.3135416666666515},{"name":"A4","midi":69,"time":253.04687500000017,"velocity":0.3464566929133858,"duration":0.11562499999999432},{"name":"E4","midi":64,"time":253.05416666666684,"velocity":0.29133858267716534,"duration":0.13020833333331439},{"name":"G#4","midi":68,"time":253.2114583333335,"velocity":0.3779527559055118,"duration":0.29062499999997726},{"name":"A4","midi":69,"time":253.39583333333348,"velocity":0.29133858267716534,"duration":0.109375},{"name":"E4","midi":64,"time":253.39791666666682,"velocity":0.2992125984251969,"duration":0.14687499999999432},{"name":"F#4","midi":66,"time":253.55208333333348,"velocity":0.31496062992125984,"duration":0.29999999999998295},{"name":"A4","midi":69,"time":253.72916666666683,"velocity":0.33858267716535434,"duration":0.11041666666665151},{"name":"E4","midi":64,"time":253.73541666666682,"velocity":0.28346456692913385,"duration":0.1520833333333087},{"name":"G#4","midi":68,"time":253.89687500000014,"velocity":0.4015748031496063,"duration":0.31041666666666856},{"name":"A4","midi":69,"time":254.07083333333347,"velocity":0.3700787401574803,"duration":0.16250000000002274},{"name":"E4","midi":64,"time":254.07812500000014,"velocity":0.36220472440944884,"duration":0.11458333333334281},{"name":"F#4","midi":66,"time":254.2322916666668,"velocity":0.3779527559055118,"duration":0.29791666666670835},{"name":"A4","midi":69,"time":254.41250000000016,"velocity":0.3937007874015748,"duration":0.13541666666668561},{"name":"E4","midi":64,"time":254.41979166666684,"velocity":0.31496062992125984,"duration":0.109375},{"name":"G#4","midi":68,"time":254.58020833333353,"velocity":0.3937007874015748,"duration":0.3541666666666856},{"name":"C#5","midi":73,"time":254.78020833333352,"velocity":0.4330708661417323,"duration":0.0979166666666913},{"name":"E4","midi":64,"time":254.81458333333353,"velocity":0.2204724409448819,"duration":0.13645833333336554},{"name":"F#4","midi":66,"time":254.95937500000022,"velocity":0.36220472440944884,"duration":0.28020833333332007},{"name":"C#5","midi":73,"time":255.13020833333354,"velocity":0.44881889763779526,"duration":0.12291666666666856},{"name":"E4","midi":64,"time":255.13125000000022,"velocity":0.3464566929133858,"duration":0.09999999999999432},{"name":"G#4","midi":68,"time":255.28958333333355,"velocity":0.3858267716535433,"duration":0.28333333333333144},{"name":"E4","midi":64,"time":255.45416666666688,"velocity":0.33858267716535434,"duration":0.12812500000001137},{"name":"A4","midi":69,"time":255.45833333333354,"velocity":0.4330708661417323,"duration":0.12604166666667993},{"name":"F#4","midi":66,"time":255.61458333333354,"velocity":0.3464566929133858,"duration":0.3177083333333144},{"name":"A4","midi":69,"time":255.79895833333353,"velocity":0.3779527559055118,"duration":0.12812499999998295},{"name":"E4","midi":64,"time":255.8031250000002,"velocity":0.30708661417322836,"duration":0.12708333333333144},{"name":"G#4","midi":68,"time":255.96354166666686,"velocity":0.4251968503937008,"duration":0.3229166666666856},{"name":"E4","midi":64,"time":256.1333333333335,"velocity":0.33070866141732286,"duration":0.11979166666668561},{"name":"B4","midi":71,"time":256.1458333333335,"velocity":0.3937007874015748,"duration":0.08854166666668561},{"name":"B3","midi":59,"time":256.2937500000002,"velocity":0.3779527559055118,"duration":0.4166666666666856},{"name":"E4","midi":64,"time":256.4885416666669,"velocity":0.30708661417322836,"duration":0.15833333333335986},{"name":"B4","midi":71,"time":256.48958333333354,"velocity":0.3779527559055118,"duration":0.12395833333334849},{"name":"G#4","midi":68,"time":256.6510416666669,"velocity":0.44881889763779526,"duration":0.3468749999999545},{"name":"E4","midi":64,"time":256.83645833333355,"velocity":0.33858267716535434,"duration":0.15312499999998863},{"name":"B4","midi":71,"time":256.84166666666687,"velocity":0.3779527559055118,"duration":0.1260416666666515},{"name":"B3","midi":59,"time":257.0281250000002,"velocity":0.3228346456692913,"duration":0.3531250000000341},{"name":"B4","midi":71,"time":257.1843750000002,"velocity":0.3937007874015748,"duration":0.1416666666666515},{"name":"E4","midi":64,"time":257.1885416666669,"velocity":0.3700787401574803,"duration":0.17395833333335986},{"name":"G#4","midi":68,"time":257.3562500000002,"velocity":0.4409448818897638,"duration":0.3197916666667311},{"name":"B4","midi":71,"time":257.5395833333336,"velocity":0.4251968503937008,"duration":0.1395833333333485},{"name":"E4","midi":64,"time":257.55625000000026,"velocity":0.3700787401574803,"duration":0.17708333333337123},{"name":"B3","midi":59,"time":257.71354166666697,"velocity":0.33858267716535434,"duration":0.30624999999997726},{"name":"B4","midi":71,"time":257.9031250000003,"velocity":0.4330708661417323,"duration":0.13333333333332575},{"name":"E4","midi":64,"time":257.91354166666696,"velocity":0.4094488188976378,"duration":0.13749999999998863},{"name":"G#4","midi":68,"time":258.05416666666696,"velocity":0.4015748031496063,"duration":0.34479166666670835},{"name":"B4","midi":71,"time":258.25416666666695,"velocity":0.49606299212598426,"duration":0.1343750000000341},{"name":"E4","midi":64,"time":258.26041666666697,"velocity":0.4330708661417323,"duration":0.109375},{"name":"B3","midi":59,"time":258.435416666667,"velocity":0.3858267716535433,"duration":0.31666666666677656},{"name":"B4","midi":71,"time":258.59062500000033,"velocity":0.44881889763779526,"duration":0.13541666666674246},{"name":"E4","midi":64,"time":258.5927083333337,"velocity":0.4251968503937008,"duration":0.13125000000002274},{"name":"G#4","midi":68,"time":258.7687500000004,"velocity":0.4566929133858268,"duration":0.33645833333332575},{"name":"B4","midi":71,"time":258.92604166666706,"velocity":0.49606299212598426,"duration":0.16145833333337123},{"name":"E4","midi":64,"time":258.9479166666671,"velocity":0.4015748031496063,"duration":0.15625},{"name":"B3","midi":59,"time":259.1218750000004,"velocity":0.3779527559055118,"duration":0.38958333333329165},{"name":"B4","midi":71,"time":259.27916666666704,"velocity":0.4881889763779528,"duration":0.1572916666666515},{"name":"E4","midi":64,"time":259.2989583333337,"velocity":0.44881889763779526,"duration":0.140625},{"name":"G#4","midi":68,"time":259.476041666667,"velocity":0.44881889763779526,"duration":0.29374999999998863},{"name":"B4","midi":71,"time":259.63125000000036,"velocity":0.5354330708661418,"duration":0.16145833333331439},{"name":"E4","midi":64,"time":259.647916666667,"velocity":0.4645669291338583,"duration":0.11458333333331439},{"name":"B3","midi":59,"time":259.81770833333366,"velocity":0.4015748031496063,"duration":0.34479166666670835},{"name":"B4","midi":71,"time":259.9781250000003,"velocity":0.4881889763779528,"duration":0.15729166666670835},{"name":"E4","midi":64,"time":260.001041666667,"velocity":0.3937007874015748,"duration":0.10833333333334849},{"name":"G#4","midi":68,"time":260.1645833333337,"velocity":0.5118110236220472,"duration":0.27187500000002274},{"name":"C#5","midi":73,"time":260.3385416666671,"velocity":0.5511811023622047,"duration":0.14895833333332575},{"name":"E4","midi":64,"time":260.3500000000004,"velocity":0.3779527559055118,"duration":0.125},{"name":"B3","midi":59,"time":260.5343750000004,"velocity":0.3858267716535433,"duration":0.310416666666697},{"name":"C#5","midi":73,"time":260.67083333333375,"velocity":0.5275590551181102,"duration":0.1708333333333485},{"name":"E4","midi":64,"time":260.68125000000043,"velocity":0.44881889763779526,"duration":0.11562500000002274},{"name":"G#4","midi":68,"time":260.86145833333376,"velocity":0.49606299212598426,"duration":0.22604166666667425},{"name":"B4","midi":71,"time":261.01250000000044,"velocity":0.5433070866141733,"duration":0.12187499999998863},{"name":"E4","midi":64,"time":261.01562500000045,"velocity":0.4251968503937008,"duration":0.09791666666666288},{"name":"B3","midi":59,"time":261.1854166666671,"velocity":0.3858267716535433,"duration":0.2854166666666629},{"name":"B4","midi":71,"time":261.35937500000045,"velocity":0.4881889763779528,"duration":0.13541666666662877},{"name":"E4","midi":64,"time":261.3635416666671,"velocity":0.3858267716535433,"duration":0.13020833333331439},{"name":"G#4","midi":68,"time":261.54062500000043,"velocity":0.49606299212598426,"duration":0.16874999999998863},{"name":"A4","midi":69,"time":261.6937500000004,"velocity":0.4566929133858268,"duration":0.13020833333337123},{"name":"E4","midi":64,"time":261.6979166666671,"velocity":0.33070866141732286,"duration":0.12291666666669698},{"name":"G#4","midi":68,"time":261.8520833333338,"velocity":0.31496062992125984,"duration":0.30937499999998863},{"name":"A4","midi":69,"time":262.0322916666671,"velocity":0.4015748031496063,"duration":0.15625},{"name":"E4","midi":64,"time":262.04687500000045,"velocity":0.25984251968503935,"duration":0.10208333333332575},{"name":"F#4","midi":66,"time":262.1989583333338,"velocity":0.3464566929133858,"duration":0.29166666666674246},{"name":"A4","midi":69,"time":262.3656250000005,"velocity":0.36220472440944884,"duration":0.11250000000001137},{"name":"E4","midi":64,"time":262.36770833333384,"velocity":0.33858267716535434,"duration":0.11250000000001137},{"name":"G#4","midi":68,"time":262.54583333333386,"velocity":0.33070866141732286,"duration":0.31250000000005684},{"name":"A4","midi":69,"time":262.72500000000053,"velocity":0.25984251968503935,"duration":0.1177083333333826},{"name":"E4","midi":64,"time":262.7270833333339,"velocity":0.2992125984251969,"duration":0.1489583333333826},{"name":"F#4","midi":66,"time":262.8927083333339,"velocity":0.3228346456692913,"duration":0.27812499999998863},{"name":"E4","midi":64,"time":263.0750000000006,"velocity":0.23622047244094488,"duration":0.11770833333332575},{"name":"A4","midi":69,"time":263.0843750000006,"velocity":0.28346456692913385,"duration":0.07708333333334849},{"name":"G#4","midi":68,"time":263.24583333333396,"velocity":0.36220472440944884,"duration":0.2770833333333371},{"name":"A4","midi":69,"time":263.4104166666673,"velocity":0.29133858267716534,"duration":0.09791666666666288},{"name":"E4","midi":64,"time":263.4156250000006,"velocity":0.30708661417322836,"duration":0.11354166666671972},{"name":"F#4","midi":66,"time":263.56354166666733,"velocity":0.33070866141732286,"duration":0.3239583333332803},{"name":"A4","midi":69,"time":263.7604166666673,"velocity":0.2755905511811024,"duration":0.08541666666667425},{"name":"E4","midi":64,"time":263.77500000000066,"velocity":0.2677165354330709,"duration":0.08020833333330302},{"name":"G#4","midi":68,"time":263.90416666666727,"velocity":0.33858267716535434,"duration":0.29270833333339397},{"name":"E4","midi":64,"time":264.08645833333395,"velocity":0.2992125984251969,"duration":0.15208333333333712},{"name":"A4","midi":69,"time":264.092708333334,"velocity":0.29133858267716534,"duration":0.12916666666666288},{"name":"F#4","midi":66,"time":264.25520833333394,"velocity":0.33858267716535434,"duration":0.28437500000001137},{"name":"E4","midi":64,"time":264.4375000000006,"velocity":0.2440944881889764,"duration":0.14999999999997726},{"name":"A4","midi":69,"time":264.4385416666673,"velocity":0.3464566929133858,"duration":0.09270833333334849},{"name":"G#4","midi":68,"time":264.60729166666727,"velocity":0.3228346456692913,"duration":0.2510416666666515},{"name":"E4","midi":64,"time":264.7770833333339,"velocity":0.25984251968503935,"duration":0.11145833333335986},{"name":"A4","midi":69,"time":264.78125000000057,"velocity":0.2992125984251969,"duration":0.07916666666670835},{"name":"F#4","midi":66,"time":264.92916666666724,"velocity":0.3228346456692913,"duration":0.2822916666666515},{"name":"E4","midi":64,"time":265.1104166666672,"velocity":0.29133858267716534,"duration":0.1260416666666515},{"name":"A4","midi":69,"time":265.11562500000053,"velocity":0.3464566929133858,"duration":0.10729166666669698},{"name":"G#4","midi":68,"time":265.2864583333339,"velocity":0.29133858267716534,"duration":0.2802083333333485},{"name":"E4","midi":64,"time":265.4458333333339,"velocity":0.3464566929133858,"duration":0.12291666666669698},{"name":"A4","midi":69,"time":265.46041666666724,"velocity":0.30708661417322836,"duration":0.09479166666665151},{"name":"F#4","midi":66,"time":265.61354166666723,"velocity":0.30708661417322836,"duration":0.2937500000000455},{"name":"E4","midi":64,"time":265.79166666666725,"velocity":0.33858267716535434,"duration":0.1333333333333826},{"name":"C#5","midi":73,"time":265.8062500000006,"velocity":0.47244094488188976,"duration":0.08125000000001137},{"name":"G#4","midi":68,"time":265.970833333334,"velocity":0.3858267716535433,"duration":0.2979166666667652},{"name":"E4","midi":64,"time":266.133333333334,"velocity":0.3858267716535433,"duration":0.13125000000002274},{"name":"C#5","midi":73,"time":266.13750000000067,"velocity":0.47244094488188976,"duration":0.12916666666671972},{"name":"F#4","midi":66,"time":266.30520833333406,"velocity":0.3779527559055118,"duration":0.25833333333332575},{"name":"E4","midi":64,"time":266.4822916666674,"velocity":0.3228346456692913,"duration":0.09270833333334849},{"name":"A4","midi":69,"time":266.48333333333403,"velocity":0.44881889763779526,"duration":0.0875000000000341},{"name":"G#4","midi":68,"time":266.6916666666674,"velocity":0.2440944881889764,"duration":0.22187500000001137},{"name":"E4","midi":64,"time":266.8395833333341,"velocity":0.1968503937007874,"duration":0.14166666666670835},{"name":"A4","midi":69,"time":266.8427083333341,"velocity":0.28346456692913385,"duration":0.04479166666664014},{"name":"F#4","midi":66,"time":266.9635416666674,"velocity":0.3858267716535433,"duration":0.0552083333333826},{"name":"E4","midi":64,"time":267.17604166666746,"velocity":0.2755905511811024,"duration":0.12812499999995453},{"name":"G#4","midi":68,"time":267.17604166666746,"velocity":0.48031496062992124,"duration":0.12291666666664014},{"name":"B3","midi":59,"time":267.35729166666744,"velocity":0.2755905511811024,"duration":0.34583333333335986},{"name":"G#4","midi":68,"time":267.5093750000008,"velocity":0.3937007874015748,"duration":0.09791666666666288},{"name":"E4","midi":64,"time":267.5125000000008,"velocity":0.2125984251968504,"duration":0.10520833333333712},{"name":"F#4","midi":66,"time":267.67604166666746,"velocity":0.4094488188976378,"duration":0.3083333333332803},{"name":"G#4","midi":68,"time":267.8333333333341,"velocity":0.3937007874015748,"duration":0.12708333333330302},{"name":"E4","midi":64,"time":267.8458333333341,"velocity":0.33070866141732286,"duration":0.15833333333330302},{"name":"B3","midi":59,"time":268.0072916666674,"velocity":0.33858267716535434,"duration":0.35729166666664014},{"name":"G#4","midi":68,"time":268.17812500000076,"velocity":0.4015748031496063,"duration":0.07708333333329165},{"name":"E4","midi":64,"time":268.1916666666674,"velocity":0.28346456692913385,"duration":0.09479166666665151},{"name":"F#4","midi":66,"time":268.3343750000007,"velocity":0.25984251968503935,"duration":0.3270833333333485},{"name":"G#4","midi":68,"time":268.50208333333404,"velocity":0.3700787401574803,"duration":0.1260416666666515},{"name":"E4","midi":64,"time":268.5135416666674,"velocity":0.33858267716535434,"duration":0.11770833333332575},{"name":"B3","midi":59,"time":268.68020833333406,"velocity":0.2677165354330709,"duration":0.37708333333335986},{"name":"G#4","midi":68,"time":268.8500000000007,"velocity":0.3858267716535433,"duration":0.08437500000002274},{"name":"E4","midi":64,"time":268.85416666666737,"velocity":0.2992125984251969,"duration":0.10104166666667425},{"name":"F#4","midi":66,"time":269.00833333333406,"velocity":0.30708661417322836,"duration":0.3083333333333371},{"name":"G#4","midi":68,"time":269.1833333333341,"velocity":0.3779527559055118,"duration":0.10520833333333712},{"name":"E4","midi":64,"time":269.18541666666744,"velocity":0.3464566929133858,"duration":0.10624999999998863},{"name":"B3","midi":59,"time":269.3479166666674,"velocity":0.33858267716535434,"duration":0.32187499999997726},{"name":"G#4","midi":68,"time":269.50520833333405,"velocity":0.3779527559055118,"duration":0.10729166666664014},{"name":"E4","midi":64,"time":269.51770833333404,"velocity":0.31496062992125984,"duration":0.11666666666667425},{"name":"F#4","midi":66,"time":269.66666666666737,"velocity":0.3228346456692913,"duration":0.3020833333333144},{"name":"G#4","midi":68,"time":269.8500000000007,"velocity":0.4094488188976378,"duration":0.1156249999999659},{"name":"E4","midi":64,"time":269.85104166666736,"velocity":0.33858267716535434,"duration":0.140625},{"name":"B3","midi":59,"time":270.01979166666734,"velocity":0.2677165354330709,"duration":0.34270833333329165},{"name":"G#4","midi":68,"time":270.195833333334,"velocity":0.3543307086614173,"duration":0.09375},{"name":"E4","midi":64,"time":270.20208333333403,"velocity":0.3228346456692913,"duration":0.10729166666664014},{"name":"F#4","midi":66,"time":270.345833333334,"velocity":0.3228346456692913,"duration":0.3322916666667197},{"name":"G#4","midi":68,"time":270.505208333334,"velocity":0.4251968503937008,"duration":0.1333333333333826},{"name":"E4","midi":64,"time":270.520833333334,"velocity":0.3464566929133858,"duration":0.11145833333335986},{"name":"B3","midi":59,"time":270.69791666666737,"velocity":0.31496062992125984,"duration":0.330208333333303},{"name":"G#4","midi":68,"time":270.8531250000007,"velocity":0.4251968503937008,"duration":0.10208333333332575},{"name":"E4","midi":64,"time":270.86458333333405,"velocity":0.3228346456692913,"duration":0.0999999999999659},{"name":"F#4","midi":66,"time":271.011458333334,"velocity":0.3937007874015748,"duration":0.25625000000002274},{"name":"E4","midi":64,"time":271.20208333333403,"velocity":0.3464566929133858,"duration":0.140625},{"name":"B4","midi":71,"time":271.20520833333404,"velocity":0.4881889763779528,"duration":0.10729166666664014},{"name":"B3","midi":59,"time":271.37708333333404,"velocity":0.3464566929133858,"duration":0.32499999999998863},{"name":"E4","midi":64,"time":271.54895833333404,"velocity":0.3543307086614173,"duration":0.16145833333331439},{"name":"B4","midi":71,"time":271.55208333333405,"velocity":0.4645669291338583,"duration":0.12187499999998863},{"name":"F#4","midi":66,"time":271.730208333334,"velocity":0.3937007874015748,"duration":0.24583333333328028},{"name":"G#4","midi":68,"time":271.89166666666733,"velocity":0.5275590551181102,"duration":0.11249999999995453},{"name":"E4","midi":64,"time":271.905208333334,"velocity":0.3464566929133858,"duration":0.0843749999999659},{"name":"B3","midi":59,"time":272.06562500000064,"velocity":0.3464566929133858,"duration":0.2531250000000682},{"name":"G#4","midi":68,"time":272.223958333334,"velocity":0.47244094488188976,"duration":0.10520833333339397},{"name":"E4","midi":64,"time":272.24166666666736,"velocity":0.3543307086614173,"duration":0.07708333333334849},{"name":"F#4","midi":66,"time":272.3947916666674,"velocity":0.3937007874015748,"duration":0.07604166666664014},{"name":"A4","midi":69,"time":272.58854166666737,"velocity":0.33858267716535434,"duration":0.16770833333339397},{"name":"E4","midi":64,"time":272.6260416666674,"velocity":0.23622047244094488,"duration":0.08020833333335986},{"name":"G#4","midi":68,"time":272.7489583333341,"velocity":0.4251968503937008,"duration":0.29791666666670835},{"name":"A4","midi":69,"time":272.92500000000075,"velocity":0.23622047244094488,"duration":0.15625000000005684},{"name":"E4","midi":64,"time":272.9395833333341,"velocity":0.2992125984251969,"duration":0.08125000000001137},{"name":"F#4","midi":66,"time":273.0885416666675,"velocity":0.31496062992125984,"duration":0.2958333333333485},{"name":"A4","midi":69,"time":273.2739583333341,"velocity":0.23622047244094488,"duration":0.08854166666668561},{"name":"E4","midi":64,"time":273.33958333333413,"velocity":0.14173228346456693,"duration":0.027083333333337123},{"name":"G#4","midi":68,"time":273.45833333333417,"velocity":0.2283464566929134,"duration":0.2593750000000341},{"name":"A4","midi":69,"time":273.6020833333342,"velocity":0.36220472440944884,"duration":0.109375},{"name":"E4","midi":64,"time":273.65937500000086,"velocity":0.1968503937007874,"duration":0.036458333333314386},{"name":"F#4","midi":66,"time":273.7750000000009,"velocity":0.31496062992125984,"duration":0.25937499999997726},{"name":"A4","midi":69,"time":273.9593750000009,"velocity":0.28346456692913385,"duration":0.09270833333329165},{"name":"E4","midi":64,"time":274.0020833333342,"velocity":0.1732283464566929,"duration":0.04062499999997726},{"name":"G#4","midi":68,"time":274.1052083333342,"velocity":0.33858267716535434,"duration":0.29166666666662877},{"name":"A4","midi":69,"time":274.2885416666675,"velocity":0.33070866141732286,"duration":0.09583333333330302},{"name":"E4","midi":64,"time":274.30937500000084,"velocity":0.2125984251968504,"duration":0.08020833333330302},{"name":"F#4","midi":66,"time":274.4593750000008,"velocity":0.29133858267716534,"duration":0.27499999999997726},{"name":"A4","midi":69,"time":274.6281250000008,"velocity":0.30708661417322836,"duration":0.08541666666667425},{"name":"E4","midi":64,"time":274.6312500000008,"velocity":0.2125984251968504,"duration":0.08645833333332575},{"name":"G#4","midi":68,"time":274.79270833333413,"velocity":0.33858267716535434,"duration":0.2604166666666856},{"name":"A4","midi":69,"time":274.98333333333414,"velocity":0.29133858267716534,"duration":0.09687500000001137},{"name":"E4","midi":64,"time":274.99375000000083,"velocity":0.2440944881889764,"duration":0.10520833333333712},{"name":"F#4","midi":66,"time":275.12395833333414,"velocity":0.33858267716535434,"duration":0.2781250000000455},{"name":"A4","midi":69,"time":275.3135416666675,"velocity":0.3543307086614173,"duration":0.10833333333334849},{"name":"E4","midi":64,"time":275.3385416666675,"velocity":0.2047244094488189,"duration":0.057291666666685614},{"name":"G#4","midi":68,"time":275.4677083333342,"velocity":0.36220472440944884,"duration":0.27812499999998863},{"name":"A4","midi":69,"time":275.6468750000009,"velocity":0.3228346456692913,"duration":0.09479166666665151},{"name":"E4","midi":64,"time":275.6604166666675,"velocity":0.2440944881889764,"duration":0.09375},{"name":"F#4","midi":66,"time":275.8041666666675,"velocity":0.3543307086614173,"duration":0.296875},{"name":"A4","midi":69,"time":275.96562500000084,"velocity":0.3858267716535433,"duration":0.10104166666667425},{"name":"E4","midi":64,"time":275.97187500000086,"velocity":0.3228346456692913,"duration":0.09687500000001137},{"name":"G#4","midi":68,"time":276.1947916666675,"velocity":0.2755905511811024,"duration":0.21979166666670835},{"name":"A4","midi":69,"time":276.3364583333342,"velocity":0.3779527559055118,"duration":0.07604166666669698},{"name":"E4","midi":64,"time":276.33854166666754,"velocity":0.2204724409448819,"duration":0.16874999999998863},{"name":"F#4","midi":66,"time":276.4864583333342,"velocity":0.33070866141732286,"duration":0.2708333333333144},{"name":"C#5","midi":73,"time":276.6552083333342,"velocity":0.3858267716535433,"duration":0.09791666666666288},{"name":"E4","midi":64,"time":276.6916666666675,"velocity":0.12598425196850394,"duration":0.10104166666667425},{"name":"G#4","midi":68,"time":276.83125000000086,"velocity":0.28346456692913385,"duration":0.2781250000000455},{"name":"C#5","midi":73,"time":276.99479166666754,"velocity":0.49606299212598426,"duration":0.11250000000001137},{"name":"E4","midi":64,"time":277.02916666666755,"velocity":0.2204724409448819,"duration":0.12916666666671972},{"name":"F#4","midi":66,"time":277.1750000000009,"velocity":0.3543307086614173,"duration":0.2572916666667311},{"name":"E4","midi":64,"time":277.33020833333427,"velocity":0.4094488188976378,"duration":0.09791666666671972},{"name":"A4","midi":69,"time":277.3364583333343,"velocity":0.4015748031496063,"duration":0.05833333333333712},{"name":"G#4","midi":68,"time":277.5302083333343,"velocity":0.2677165354330709,"duration":0.17604166666666288},{"name":"E4","midi":64,"time":277.68229166666765,"velocity":0.3937007874015748,"duration":0.1260416666666515},{"name":"A4","midi":69,"time":277.6833333333343,"velocity":0.4015748031496063,"duration":0.10208333333332575},{"name":"F#4","midi":66,"time":277.82500000000095,"velocity":0.4015748031496063,"duration":0.04270833333333712},{"name":"G#4","midi":68,"time":278.00625000000093,"velocity":0.47244094488188976,"duration":0.10624999999998863},{"name":"E4","midi":64,"time":278.0072916666676,"velocity":0.3464566929133858,"duration":0.13541666666668561},{"name":"B3","midi":59,"time":278.16770833333425,"velocity":0.4094488188976378,"duration":0.2718749999999659},{"name":"G#4","midi":68,"time":278.3229166666676,"velocity":0.4251968503937008,"duration":0.12083333333328028},{"name":"E4","midi":64,"time":278.3479166666676,"velocity":0.31496062992125984,"duration":0.12499999999994316},{"name":"F#4","midi":66,"time":278.4906250000009,"velocity":0.3937007874015748,"duration":0.3697916666666856},{"name":"G#4","midi":68,"time":278.6781250000009,"velocity":0.44881889763779526,"duration":0.12291666666669698},{"name":"E4","midi":64,"time":278.7052083333342,"velocity":0.2992125984251969,"duration":0.11250000000001137},{"name":"B3","midi":59,"time":278.8583333333342,"velocity":0.3543307086614173,"duration":0.3729166666667538},{"name":"E4","midi":64,"time":279.02395833333424,"velocity":0.36220472440944884,"duration":0.11041666666670835},{"name":"G#4","midi":68,"time":279.03020833333426,"velocity":0.2755905511811024,"duration":0.08958333333333712},{"name":"F#4","midi":66,"time":279.18125000000094,"velocity":0.3700787401574803,"duration":0.30208333333337123},{"name":"G#4","midi":68,"time":279.34375000000097,"velocity":0.4251968503937008,"duration":0.12083333333333712},{"name":"E4","midi":64,"time":279.35416666666765,"velocity":0.33858267716535434,"duration":0.125},{"name":"B3","midi":59,"time":279.5270833333343,"velocity":0.3228346456692913,"duration":0.3604166666666515},{"name":"G#4","midi":68,"time":279.6833333333343,"velocity":0.3858267716535433,"duration":0.13437499999997726},{"name":"E4","midi":64,"time":279.6885416666676,"velocity":0.33858267716535434,"duration":0.1260416666666515},{"name":"F#4","midi":66,"time":279.8572916666676,"velocity":0.2992125984251969,"duration":0.28333333333335986},{"name":"G#4","midi":68,"time":280.0208333333343,"velocity":0.4094488188976378,"duration":0.12187500000004547},{"name":"E4","midi":64,"time":280.0322916666676,"velocity":0.28346456692913385,"duration":0.13750000000004547},{"name":"B3","midi":59,"time":280.21354166666765,"velocity":0.2992125984251969,"duration":0.3427083333333485},{"name":"G#4","midi":68,"time":280.36666666666764,"velocity":0.31496062992125984,"duration":0.12083333333333712},{"name":"E4","midi":64,"time":280.37291666666766,"velocity":0.36220472440944884,"duration":0.11354166666666288},{"name":"F#4","midi":66,"time":280.521875000001,"velocity":0.36220472440944884,"duration":0.34687500000001137},{"name":"G#4","midi":68,"time":280.69895833333436,"velocity":0.4094488188976378,"duration":0.13958333333329165},{"name":"E4","midi":64,"time":280.715625000001,"velocity":0.33070866141732286,"duration":0.12916666666666288},{"name":"B3","midi":59,"time":280.878125000001,"velocity":0.25984251968503935,"duration":0.3208333333333826},{"name":"G#4","midi":68,"time":281.0552083333343,"velocity":0.3543307086614173,"duration":0.08333333333337123},{"name":"E4","midi":64,"time":281.0739583333343,"velocity":0.28346456692913385,"duration":0.06666666666671972},{"name":"F#4","midi":66,"time":281.2104166666677,"velocity":0.3228346456692913,"duration":0.3083333333333371},{"name":"G#4","midi":68,"time":281.3885416666677,"velocity":0.3858267716535433,"duration":0.09791666666666288},{"name":"E4","midi":64,"time":281.4083333333344,"velocity":0.2992125984251969,"duration":0.08958333333333712},{"name":"B3","midi":59,"time":281.5541666666677,"velocity":0.2677165354330709,"duration":0.34270833333340533},{"name":"E4","midi":64,"time":281.734375000001,"velocity":0.3228346456692913,"duration":0.12500000000005684},{"name":"G#4","midi":68,"time":281.74062500000105,"velocity":0.3858267716535433,"duration":0.09687500000001137},{"name":"F#4","midi":66,"time":281.8864583333344,"velocity":0.36220472440944884,"duration":0.31145833333340533},{"name":"E4","midi":64,"time":282.0843750000011,"velocity":0.3464566929133858,"duration":0.1187500000000341},{"name":"B4","midi":71,"time":282.08645833333446,"velocity":0.4251968503937008,"duration":0.08958333333333712},{"name":"B3","midi":59,"time":282.25520833333445,"velocity":0.31496062992125984,"duration":0.3270833333333485},{"name":"E4","midi":64,"time":282.4343750000011,"velocity":0.31496062992125984,"duration":0.11041666666665151},{"name":"B4","midi":71,"time":282.4385416666678,"velocity":0.4566929133858268,"duration":0.09479166666665151},{"name":"F#4","midi":66,"time":282.6062500000011,"velocity":0.3858267716535433,"duration":0.2041666666666515},{"name":"G#4","midi":68,"time":282.76875000000115,"velocity":0.5275590551181102,"duration":0.13229166666667425},{"name":"E4","midi":64,"time":282.77395833333446,"velocity":0.3700787401574803,"duration":0.12083333333333712},{"name":"B3","midi":59,"time":282.9343750000012,"velocity":0.3858267716535433,"duration":0.30520833333332575},{"name":"G#4","midi":68,"time":283.11666666666787,"velocity":0.49606299212598426,"duration":0.10416666666662877},{"name":"E4","midi":64,"time":283.12604166666785,"velocity":0.3543307086614173,"duration":0.08645833333332575},{"name":"F#4","midi":66,"time":283.26354166666783,"velocity":0.4015748031496063,"duration":0.10520833333333712},{"name":"E4","midi":64,"time":283.4500000000012,"velocity":0.3700787401574803,"duration":0.11145833333335986},{"name":"A4","midi":69,"time":283.45208333333454,"velocity":0.4330708661417323,"duration":0.11041666666665151},{"name":"G#4","midi":68,"time":283.61666666666787,"velocity":0.47244094488188976,"duration":0.32187499999997726},{"name":"A4","midi":69,"time":283.7875000000012,"velocity":0.3464566929133858,"duration":0.15208333333328028},{"name":"E4","midi":64,"time":283.7968750000012,"velocity":0.30708661417322836,"duration":0.13437499999997726},{"name":"F#4","midi":66,"time":283.9458333333345,"velocity":0.36220472440944884,"duration":0.283333333333303},{"name":"A4","midi":69,"time":284.17291666666785,"velocity":0.2283464566929134,"duration":0.052083333333314386},{"name":"E4","midi":64,"time":284.1739583333345,"velocity":0.23622047244094488,"duration":0.036458333333314386},{"name":"G#4","midi":68,"time":284.2781250000012,"velocity":0.33858267716535434,"duration":0.2906250000000341},{"name":"A4","midi":69,"time":284.48020833333453,"velocity":0.3700787401574803,"duration":0.11354166666666288},{"name":"E4","midi":64,"time":284.48854166666786,"velocity":0.33070866141732286,"duration":0.078125},{"name":"F#4","midi":66,"time":284.6375000000012,"velocity":0.23622047244094488,"duration":0.30416666666667425},{"name":"A4","midi":69,"time":284.7937500000012,"velocity":0.2992125984251969,"duration":0.07708333333334849},{"name":"E4","midi":64,"time":284.8364583333345,"velocity":0.1732283464566929,"duration":0.04479166666669698},{"name":"G#4","midi":68,"time":284.98333333333454,"velocity":0.30708661417322836,"duration":0.2437500000000341},{"name":"E4","midi":64,"time":285.1468750000012,"velocity":0.18110236220472442,"duration":0.12291666666669698},{"name":"A4","midi":69,"time":285.17708333333456,"velocity":0.1889763779527559,"duration":0.07395833333333712},{"name":"F#4","midi":66,"time":285.2822916666679,"velocity":0.29133858267716534,"duration":0.29583333333329165},{"name":"A4","midi":69,"time":285.48333333333454,"velocity":0.3464566929133858,"duration":0.10104166666667425},{"name":"E4","midi":64,"time":285.50416666666786,"velocity":0.28346456692913385,"duration":0.07291666666668561},{"name":"G#4","midi":68,"time":285.6593750000012,"velocity":0.28346456692913385,"duration":0.27187500000002274},{"name":"A4","midi":69,"time":285.8125000000012,"velocity":0.2440944881889764,"duration":0.10625000000004547},{"name":"E4","midi":64,"time":285.8229166666679,"velocity":0.25984251968503935,"duration":0.12083333333333712},{"name":"F#4","midi":66,"time":286.00208333333455,"velocity":0.30708661417322836,"duration":0.33958333333339397},{"name":"E4","midi":64,"time":286.1916666666679,"velocity":0.29133858267716534,"duration":0.11145833333335986},{"name":"A4","midi":69,"time":286.1947916666679,"velocity":0.31496062992125984,"duration":0.08645833333332575},{"name":"G#4","midi":68,"time":286.39895833333463,"velocity":0.2755905511811024,"duration":0.21458333333328028},{"name":"E4","midi":64,"time":286.5250000000013,"velocity":0.2440944881889764,"duration":0.11770833333326891},{"name":"A4","midi":69,"time":286.5302083333346,"velocity":0.3228346456692913,"duration":0.0843749999999659},{"name":"F#4","midi":66,"time":286.6885416666679,"velocity":0.28346456692913385,"duration":0.27291666666667425},{"name":"E4","midi":64,"time":286.8531250000012,"velocity":0.2755905511811024,"duration":0.12083333333333712},{"name":"A4","midi":69,"time":286.9104166666679,"velocity":0.2204724409448819,"duration":0.03750000000002274},{"name":"G#4","midi":68,"time":287.03333333333455,"velocity":0.25984251968503935,"duration":0.24791666666669698},{"name":"E4","midi":64,"time":287.20208333333454,"velocity":0.30708661417322836,"duration":0.11666666666673109},{"name":"A4","midi":69,"time":287.2041666666679,"velocity":0.4015748031496063,"duration":0.0875000000000341},{"name":"F#4","midi":66,"time":287.3927083333346,"velocity":0.25196850393700787,"duration":0.28437500000001137},{"name":"E4","midi":64,"time":287.5541666666679,"velocity":0.3228346456692913,"duration":0.08958333333333712},{"name":"C#5","midi":73,"time":287.5614583333346,"velocity":0.47244094488188976,"duration":0.09687500000001137},{"name":"G#4","midi":68,"time":287.72187500000126,"velocity":0.4094488188976378,"duration":0.2177083333333485},{"name":"C#5","midi":73,"time":287.8864583333346,"velocity":0.4566929133858268,"duration":0.13854166666669698},{"name":"E4","midi":64,"time":287.9135416666679,"velocity":0.30708661417322836,"duration":0.09166666666669698},{"name":"F#4","midi":66,"time":288.0541666666679,"velocity":0.31496062992125984,"duration":0.2916666666666856},{"name":"E4","midi":64,"time":288.2208333333346,"velocity":0.3700787401574803,"duration":0.08854166666668561},{"name":"A4","midi":69,"time":288.2302083333346,"velocity":0.4015748031496063,"duration":0.05312500000002274},{"name":"G#4","midi":68,"time":288.4083333333346,"velocity":0.33070866141732286,"duration":0.19895833333333712},{"name":"A4","midi":69,"time":288.56666666666797,"velocity":0.4566929133858268,"duration":0.11354166666671972},{"name":"E4","midi":64,"time":288.6093750000013,"velocity":0.2755905511811024,"duration":0.04895833333335986},{"name":"F#4","midi":66,"time":288.75208333333467,"velocity":0.2283464566929134,"duration":0.021875000000022737},{"name":"E4","midi":64,"time":288.876041666668,"velocity":0.2992125984251969,"duration":0.14374999999995453},{"name":"G#4","midi":68,"time":288.88437500000134,"velocity":0.4251968503937008,"duration":0.11874999999997726},{"name":"B3","midi":59,"time":289.085416666668,"velocity":0.1732283464566929,"duration":0.3218750000000341},{"name":"E4","midi":64,"time":289.2375000000013,"velocity":0.30708661417322836,"duration":0.1031250000000341},{"name":"G#4","midi":68,"time":289.24375000000134,"velocity":0.33858267716535434,"duration":0.10104166666667425},{"name":"F#4","midi":66,"time":289.40520833333466,"velocity":0.2992125984251969,"duration":0.3114583333333485},{"name":"E4","midi":64,"time":289.576041666668,"velocity":0.33858267716535434,"duration":0.109375},{"name":"G#4","midi":68,"time":289.57708333333466,"velocity":0.3858267716535433,"duration":0.1187500000000341},{"name":"B3","midi":59,"time":289.73645833333467,"velocity":0.33858267716535434,"duration":0.345833333333303},{"name":"G#4","midi":68,"time":289.907291666668,"velocity":0.48031496062992124,"duration":0.1260416666666515},{"name":"E4","midi":64,"time":289.91250000000133,"velocity":0.31496062992125984,"duration":0.10312499999997726},{"name":"F#4","midi":66,"time":290.0468750000013,"velocity":0.4094488188976378,"duration":0.3291666666666515},{"name":"G#4","midi":68,"time":290.23229166666795,"velocity":0.4566929133858268,"duration":0.13749999999998863},{"name":"E4","midi":64,"time":290.24479166666794,"velocity":0.3464566929133858,"duration":0.14791666666667425},{"name":"B3","midi":59,"time":290.4083333333346,"velocity":0.36220472440944884,"duration":0.3062500000000341},{"name":"G#4","midi":68,"time":290.57291666666794,"velocity":0.4409448818897638,"duration":0.1343750000000341},{"name":"E4","midi":64,"time":290.58854166666794,"velocity":0.3700787401574803,"duration":0.11250000000001137},{"name":"F#4","midi":66,"time":290.73854166666797,"velocity":0.3858267716535433,"duration":0.28958333333332575},{"name":"G#4","midi":68,"time":290.897916666668,"velocity":0.49606299212598426,"duration":0.15208333333333712},{"name":"E4","midi":64,"time":290.92083333333466,"velocity":0.3700787401574803,"duration":0.13645833333333712},{"name":"B3","midi":59,"time":291.07395833333464,"velocity":0.36220472440944884,"duration":0.26041666666662877},{"name":"G#4","midi":68,"time":291.257291666668,"velocity":0.44881889763779526,"duration":0.11249999999995453},{"name":"E4","midi":64,"time":291.27395833333463,"velocity":0.29133858267716534,"duration":0.09062499999998863},{"name":"F#4","midi":66,"time":291.43854166666796,"velocity":0.2440944881889764,"duration":0.03750000000002274},{"name":"F#4","midi":66,"time":291.619791666668,"velocity":0.4251968503937008,"duration":0.06562499999995453},{"name":"E4","midi":64,"time":291.64479166666797,"velocity":0.2677165354330709,"duration":0.06145833333329165},{"name":"A3","midi":57,"time":291.79479166666795,"velocity":0.30708661417322836,"duration":0.3166666666667197},{"name":"F#4","midi":66,"time":291.9739583333346,"velocity":0.33858267716535434,"duration":0.06458333333335986},{"name":"E4","midi":64,"time":291.9843750000013,"velocity":0.2755905511811024,"duration":0.07708333333334849},{"name":"G#4","midi":68,"time":292.122916666668,"velocity":0.33858267716535434,"duration":0.25104166666670835},{"name":"F#4","midi":66,"time":292.30937500000135,"velocity":0.44881889763779526,"duration":0.10833333333334849},{"name":"E4","midi":64,"time":292.3114583333347,"velocity":0.31496062992125984,"duration":0.09479166666665151},{"name":"A3","midi":57,"time":292.501041666668,"velocity":0.3228346456692913,"duration":0.3958333333333144},{"name":"F#4","midi":66,"time":292.660416666668,"velocity":0.3937007874015748,"duration":0.09375},{"name":"E4","midi":64,"time":292.6625000000014,"velocity":0.3464566929133858,"duration":0.10833333333329165},{"name":"G#4","midi":68,"time":292.81458333333467,"velocity":0.4409448818897638,"duration":0.2854166666666629},{"name":"E4","midi":64,"time":292.994791666668,"velocity":0.3543307086614173,"duration":0.12395833333329165},{"name":"F#4","midi":66,"time":292.99687500000135,"velocity":0.4251968503937008,"duration":0.1166666666666174},{"name":"A3","midi":57,"time":293.1864583333346,"velocity":0.33070866141732286,"duration":0.4135416666666174},{"name":"F#4","midi":66,"time":293.33854166666794,"velocity":0.3700787401574803,"duration":0.08749999999997726},{"name":"E4","midi":64,"time":293.35416666666794,"velocity":0.2755905511811024,"duration":0.09270833333329165},{"name":"G#4","midi":68,"time":293.4927083333346,"velocity":0.3779527559055118,"duration":0.2260416666666174},{"name":"E4","midi":64,"time":293.68958333333455,"velocity":0.2755905511811024,"duration":0.10208333333326891},{"name":"F#4","midi":66,"time":293.70520833333455,"velocity":0.4251968503937008,"duration":0.08124999999995453},{"name":"A3","midi":57,"time":293.85000000000116,"velocity":0.2992125984251969,"duration":0.3458333333334167},{"name":"F#4","midi":66,"time":294.0364583333345,"velocity":0.4015748031496063,"duration":0.0718750000000341},{"name":"E4","midi":64,"time":294.0437500000012,"velocity":0.2677165354330709,"duration":0.08229166666671972},{"name":"G#4","midi":68,"time":294.1854166666679,"velocity":0.4330708661417323,"duration":0.1958333333333826},{"name":"E4","midi":64,"time":294.3708333333346,"velocity":0.2440944881889764,"duration":0.14270833333335986},{"name":"A4","midi":69,"time":294.38541666666794,"velocity":0.3779527559055118,"duration":0.109375},{"name":"A3","midi":57,"time":294.5677083333346,"velocity":0.2992125984251969,"duration":0.4375},{"name":"A4","midi":69,"time":294.7052083333346,"velocity":0.3779527559055118,"duration":0.12083333333333712},{"name":"E4","midi":64,"time":294.7250000000013,"velocity":0.2440944881889764,"duration":0.11562500000002274},{"name":"G#4","midi":68,"time":294.8802083333346,"velocity":0.4566929133858268,"duration":0.29895833333335986},{"name":"A4","midi":69,"time":295.05104166666797,"velocity":0.3464566929133858,"duration":0.13125000000002274},{"name":"E4","midi":64,"time":295.05520833333463,"velocity":0.33858267716535434,"duration":0.13645833333333712},{"name":"A3","midi":57,"time":295.2468750000013,"velocity":0.33070866141732286,"duration":0.4520833333333485},{"name":"A4","midi":69,"time":295.382291666668,"velocity":0.4094488188976378,"duration":0.1260416666666515},{"name":"E4","midi":64,"time":295.3937500000013,"velocity":0.3700787401574803,"duration":0.13749999999998863},{"name":"G#4","midi":68,"time":295.557291666668,"velocity":0.4645669291338583,"duration":0.29166666666662877},{"name":"E4","midi":64,"time":295.73020833333464,"velocity":0.33070866141732286,"duration":0.1781249999999659},{"name":"A4","midi":69,"time":295.73854166666797,"velocity":0.44881889763779526,"duration":0.15312499999998863},{"name":"A3","midi":57,"time":295.9052083333346,"velocity":0.3858267716535433,"duration":0.466666666666697},{"name":"A4","midi":69,"time":296.0875000000013,"velocity":0.4645669291338583,"duration":0.13333333333332575},{"name":"E4","midi":64,"time":296.08854166666794,"velocity":0.4094488188976378,"duration":0.13125000000002274},{"name":"G#4","midi":68,"time":296.2625000000013,"velocity":0.47244094488188976,"duration":0.23854166666666288},{"name":"A4","midi":69,"time":296.4270833333346,"velocity":0.48031496062992124,"duration":0.14375000000001137},{"name":"E4","midi":64,"time":296.43020833333463,"velocity":0.3700787401574803,"duration":0.13541666666668561},{"name":"A3","midi":57,"time":296.59270833333466,"velocity":0.3858267716535433,"duration":0.4479166666666856},{"name":"A4","midi":69,"time":296.77500000000134,"velocity":0.4251968503937008,"duration":0.09479166666670835},{"name":"E4","midi":64,"time":296.7770833333347,"velocity":0.4251968503937008,"duration":0.09895833333337123},{"name":"G#4","midi":68,"time":296.9208333333347,"velocity":0.4094488188976378,"duration":0.05624999999997726},{"name":"E4","midi":64,"time":297.1364583333347,"velocity":0.25984251968503935,"duration":0.08333333333331439},{"name":"G#4","midi":68,"time":297.1437500000014,"velocity":0.3700787401574803,"duration":0.07708333333329165},{"name":"B3","midi":59,"time":297.31875000000133,"velocity":0.2440944881889764,"duration":0.25937499999997726},{"name":"E4","midi":64,"time":297.463541666668,"velocity":0.3464566929133858,"duration":0.1156249999999659},{"name":"G#4","midi":68,"time":297.47083333333467,"velocity":0.3700787401574803,"duration":0.09791666666666288},{"name":"F#4","midi":66,"time":297.6187500000013,"velocity":0.3464566929133858,"duration":0.3333333333333144},{"name":"G#4","midi":68,"time":297.81041666666795,"velocity":0.3464566929133858,"duration":0.10104166666667425},{"name":"E4","midi":64,"time":297.8218750000013,"velocity":0.23622047244094488,"duration":0.09479166666665151},{"name":"B3","midi":59,"time":298.00000000000125,"velocity":0.2677165354330709,"duration":0.27083333333337123},{"name":"E4","midi":64,"time":298.1583333333346,"velocity":0.2992125984251969,"duration":0.10104166666667425},{"name":"G#4","midi":68,"time":298.16458333333463,"velocity":0.3228346456692913,"duration":0.08958333333333712},{"name":"F#4","midi":66,"time":298.2968750000013,"velocity":0.2755905511811024,"duration":0.34479166666670835},{"name":"G#4","midi":68,"time":298.48854166666797,"velocity":0.3779527559055118,"duration":0.10416666666668561},{"name":"E4","midi":64,"time":298.50416666666797,"velocity":0.25196850393700787,"duration":0.08645833333332575},{"name":"B3","midi":59,"time":298.66250000000133,"velocity":0.2440944881889764,"duration":0.29166666666674246},{"name":"G#4","midi":68,"time":298.8333333333347,"velocity":0.33070866141732286,"duration":0.11041666666670835},{"name":"E4","midi":64,"time":298.83541666666804,"velocity":0.30708661417322836,"duration":0.10208333333332575},{"name":"F#4","midi":66,"time":298.9656250000014,"velocity":0.3464566929133858,"duration":0.36770833333332575},{"name":"G#4","midi":68,"time":299.1604166666681,"velocity":0.4330708661417323,"duration":0.12083333333333712},{"name":"E4","midi":64,"time":299.2125000000014,"velocity":0.23622047244094488,"duration":0.07708333333334849},{"name":"B3","midi":59,"time":299.3427083333347,"velocity":0.29133858267716534,"duration":0.2416666666666174},{"name":"E4","midi":64,"time":299.51562500000136,"velocity":0.25984251968503935,"duration":0.1374999999999318},{"name":"G#4","midi":68,"time":299.54062500000134,"velocity":0.1889763779527559,"duration":0.09166666666664014},{"name":"E5","midi":76,"time":299.5864583333347,"velocity":0.2283464566929134,"duration":0.024999999999977263},{"name":"F#4","midi":66,"time":299.65208333333464,"velocity":0.3228346456692913,"duration":0.4072916666666515},{"name":"E4","midi":64,"time":299.88958333333466,"velocity":0.25984251968503935,"duration":0.10312499999997726},{"name":"G#4","midi":68,"time":299.90208333333464,"velocity":0.2047244094488189,"duration":0.08229166666666288},{"name":"E5","midi":76,"time":299.94583333333463,"velocity":0.2047244094488189,"duration":0.02812499999998863},{"name":"B3","midi":59,"time":300.0406250000013,"velocity":0.2755905511811024,"duration":0.24062500000002274},{"name":"E4","midi":64,"time":300.2052083333346,"velocity":0.29133858267716534,"duration":0.1177083333333826},{"name":"G#4","midi":68,"time":300.21666666666795,"velocity":0.33858267716535434,"duration":0.1031250000000341},{"name":"E5","midi":76,"time":300.28541666666797,"velocity":0.11023622047244094,"duration":0.04791666666670835},{"name":"F#4","midi":66,"time":300.35000000000133,"velocity":0.36220472440944884,"duration":0.4041666666667538},{"name":"E4","midi":64,"time":300.54375000000135,"velocity":0.3464566929133858,"duration":0.12916666666671972},{"name":"G#4","midi":68,"time":300.5500000000014,"velocity":0.4409448818897638,"duration":0.1333333333333826},{"name":"E5","midi":76,"time":300.6083333333347,"velocity":0.1889763779527559,"duration":0.06458333333335986},{"name":"B3","midi":59,"time":300.73333333333477,"velocity":0.28346456692913385,"duration":0.24687499999998863},{"name":"E4","midi":64,"time":300.8760416666681,"velocity":0.3464566929133858,"duration":0.15104166666668561},{"name":"G#4","midi":68,"time":300.88645833333476,"velocity":0.4330708661417323,"duration":0.14479166666666288},{"name":"E5","midi":76,"time":300.8906250000014,"velocity":0.33070866141732286,"duration":0.12291666666669698},{"name":"F#4","midi":66,"time":301.04479166666806,"velocity":0.31496062992125984,"duration":0.38229166666667425},{"name":"E4","midi":64,"time":301.2302083333347,"velocity":0.3700787401574803,"duration":0.16875000000004547},{"name":"G#4","midi":68,"time":301.2333333333347,"velocity":0.4251968503937008,"duration":0.1489583333333826},{"name":"E5","midi":76,"time":301.2437500000014,"velocity":0.2992125984251969,"duration":0.12083333333333712},{"name":"B3","midi":59,"time":301.4343750000014,"velocity":0.3228346456692913,"duration":0.22395833333331439},{"name":"G#4","midi":68,"time":301.57604166666806,"velocity":0.48031496062992124,"duration":0.16458333333332575},{"name":"E4","midi":64,"time":301.5802083333347,"velocity":0.3858267716535433,"duration":0.1708333333333485},{"name":"E5","midi":76,"time":301.58541666666804,"velocity":0.3858267716535433,"duration":0.13541666666668561},{"name":"F#4","midi":66,"time":301.7354166666681,"velocity":0.3464566929133858,"duration":0.31875000000002274},{"name":"E4","midi":64,"time":301.90416666666806,"velocity":0.4015748031496063,"duration":0.15729166666670835},{"name":"G#4","midi":68,"time":301.9083333333347,"velocity":0.48031496062992124,"duration":0.15416666666669698},{"name":"E5","midi":76,"time":301.91979166666806,"velocity":0.36220472440944884,"duration":0.12395833333334849},{"name":"B3","midi":59,"time":302.0875000000014,"velocity":0.2992125984251969,"duration":0.2614583333332803},{"name":"E4","midi":64,"time":302.2385416666681,"velocity":0.4330708661417323,"duration":0.10624999999993179},{"name":"G#4","midi":68,"time":302.24791666666806,"velocity":0.5669291338582677,"duration":0.10520833333328028},{"name":"E5","midi":76,"time":302.2520833333347,"velocity":0.3543307086614173,"duration":0.07916666666665151},{"name":"F#4","midi":66,"time":302.388541666668,"velocity":0.29133858267716534,"duration":0.11770833333332575},{"name":"F#4","midi":66,"time":302.55833333333464,"velocity":0.5275590551181102,"duration":0.14895833333332575},{"name":"E4","midi":64,"time":302.58645833333463,"velocity":0.3937007874015748,"duration":0.13333333333332575},{"name":"A3","midi":57,"time":302.7906250000013,"velocity":0.1968503937007874,"duration":0.3052083333333826},{"name":"E4","midi":64,"time":302.93020833333463,"velocity":0.33858267716535434,"duration":0.10000000000002274},{"name":"F#4","midi":66,"time":302.9312500000013,"velocity":0.3779527559055118,"duration":0.09583333333335986},{"name":"G#4","midi":68,"time":303.082291666668,"velocity":0.47244094488188976,"duration":0.21562499999998863},{"name":"F#4","midi":66,"time":303.2375000000013,"velocity":0.4094488188976378,"duration":0.14166666666670835},{"name":"E4","midi":64,"time":303.25208333333467,"velocity":0.33858267716535434,"duration":0.125},{"name":"A3","midi":57,"time":303.4270833333347,"velocity":0.36220472440944884,"duration":0.41666666666662877},{"name":"F#4","midi":66,"time":303.58020833333467,"velocity":0.3858267716535433,"duration":0.12916666666666288},{"name":"E4","midi":64,"time":303.59270833333466,"velocity":0.33858267716535434,"duration":0.1260416666666515},{"name":"G#4","midi":68,"time":303.7468750000013,"velocity":0.48031496062992124,"duration":0.20000000000004547},{"name":"F#4","midi":66,"time":303.92083333333466,"velocity":0.4409448818897638,"duration":0.13541666666668561},{"name":"E4","midi":64,"time":303.92083333333466,"velocity":0.3700787401574803,"duration":0.13229166666667425},{"name":"A3","midi":57,"time":304.1020833333347,"velocity":0.3464566929133858,"duration":0.4562499999999545},{"name":"F#4","midi":66,"time":304.26562500000136,"velocity":0.4330708661417323,"duration":0.12187499999998863},{"name":"E4","midi":64,"time":304.2770833333347,"velocity":0.31496062992125984,"duration":0.12395833333329165},{"name":"G#4","midi":68,"time":304.432291666668,"velocity":0.5196850393700787,"duration":0.20729166666666288},{"name":"E4","midi":64,"time":304.59583333333467,"velocity":0.4094488188976378,"duration":0.13333333333332575},{"name":"F#4","midi":66,"time":304.604166666668,"velocity":0.4094488188976378,"duration":0.11354166666666288},{"name":"A3","midi":57,"time":304.7812500000013,"velocity":0.3464566929133858,"duration":0.439583333333303},{"name":"F#4","midi":66,"time":304.95104166666795,"velocity":0.4409448818897638,"duration":0.11979166666668561},{"name":"E4","midi":64,"time":304.9520833333346,"velocity":0.3937007874015748,"duration":0.10833333333334849},{"name":"G#4","midi":68,"time":305.12291666666795,"velocity":0.49606299212598426,"duration":0.1885416666666515},{"name":"E4","midi":64,"time":305.2833333333346,"velocity":0.31496062992125984,"duration":0.13645833333328028},{"name":"A4","midi":69,"time":305.29166666666794,"velocity":0.3700787401574803,"duration":0.10312499999997726},{"name":"A3","midi":57,"time":305.46041666666787,"velocity":0.2992125984251969,"duration":0.5041666666667197},{"name":"A4","midi":69,"time":305.6229166666679,"velocity":0.4094488188976378,"duration":0.13229166666667425},{"name":"E4","midi":64,"time":305.62500000000125,"velocity":0.3779527559055118,"duration":0.14479166666666288},{"name":"G#4","midi":68,"time":305.7979166666679,"velocity":0.5433070866141733,"duration":0.2270833333333826},{"name":"A4","midi":69,"time":305.96666666666795,"velocity":0.4409448818897638,"duration":0.13645833333333712},{"name":"E4","midi":64,"time":305.9687500000013,"velocity":0.4094488188976378,"duration":0.1322916666666174},{"name":"A3","midi":57,"time":306.1458333333346,"velocity":0.31496062992125984,"duration":0.4895833333333144},{"name":"E4","midi":64,"time":306.3114583333346,"velocity":0.3858267716535433,"duration":0.13749999999998863},{"name":"A4","midi":69,"time":306.3145833333346,"velocity":0.4094488188976378,"duration":0.13541666666662877},{"name":"G#4","midi":68,"time":306.48437500000125,"velocity":0.4881889763779528,"duration":0.21979166666670835},{"name":"A4","midi":69,"time":306.6520833333346,"velocity":0.4566929133858268,"duration":0.12500000000005684},{"name":"E4","midi":64,"time":306.65416666666795,"velocity":0.4251968503937008,"duration":0.13020833333337123},{"name":"A3","midi":57,"time":306.82083333333463,"velocity":0.3464566929133858,"duration":0.48333333333340533},{"name":"A4","midi":69,"time":306.99895833333466,"velocity":0.4251968503937008,"duration":0.14479166666666288},{"name":"E4","midi":64,"time":307.013541666668,"velocity":0.3858267716535433,"duration":0.13645833333333712},{"name":"G#4","midi":68,"time":307.17187500000136,"velocity":0.5118110236220472,"duration":0.22291666666671972},{"name":"E4","midi":64,"time":307.35104166666804,"velocity":0.4094488188976378,"duration":0.13854166666669698},{"name":"A4","midi":69,"time":307.3614583333347,"velocity":0.4645669291338583,"duration":0.16979166666669698},{"name":"A3","midi":57,"time":307.5125000000014,"velocity":0.3858267716535433,"duration":0.5145833333333485},{"name":"E4","midi":64,"time":307.69375000000144,"velocity":0.3779527559055118,"duration":0.13125000000002274},{"name":"A4","midi":69,"time":307.69687500000146,"velocity":0.4881889763779528,"duration":0.10000000000002274},{"name":"G#4","midi":68,"time":307.85000000000144,"velocity":0.3779527559055118,"duration":0.203125},{"name":"E4","midi":64,"time":308.03020833333477,"velocity":0.2755905511811024,"duration":0.12812500000001137},{"name":"B4","midi":71,"time":308.03750000000144,"velocity":0.3228346456692913,"duration":0.10312499999997726},{"name":"B3","midi":59,"time":308.21770833333477,"velocity":0.2755905511811024,"duration":0.2874999999999659},{"name":"B4","midi":71,"time":308.3750000000014,"velocity":0.3543307086614173,"duration":0.08645833333332575},{"name":"E4","midi":64,"time":308.3947916666681,"velocity":0.25196850393700787,"duration":0.08645833333332575},{"name":"F#4","midi":66,"time":308.54270833333476,"velocity":0.3700787401574803,"duration":0.35937500000005684},{"name":"E4","midi":64,"time":308.7104166666681,"velocity":0.3779527559055118,"duration":0.19270833333337123},{"name":"B4","midi":71,"time":308.72708333333475,"velocity":0.4094488188976378,"duration":0.11562500000002274},{"name":"B3","midi":59,"time":308.90000000000146,"velocity":0.33070866141732286,"duration":0.357291666666697},{"name":"B4","midi":71,"time":309.06666666666814,"velocity":0.3937007874015748,"duration":0.09479166666665151},{"name":"E4","midi":64,"time":309.0916666666681,"velocity":0.25984251968503935,"duration":0.08854166666668561},{"name":"F#4","midi":66,"time":309.21562500000147,"velocity":0.4409448818897638,"duration":0.3416666666667538},{"name":"B4","midi":71,"time":309.3895833333348,"velocity":0.4251968503937008,"duration":0.12395833333334849},{"name":"E4","midi":64,"time":309.3916666666682,"velocity":0.4015748031496063,"duration":0.16354166666667425},{"name":"B3","midi":59,"time":309.5770833333349,"velocity":0.3858267716535433,"duration":0.3739583333333485},{"name":"B4","midi":71,"time":309.72708333333486,"velocity":0.4094488188976378,"duration":0.12187500000004547},{"name":"E4","midi":64,"time":309.7447916666682,"velocity":0.3700787401574803,"duration":0.11562500000002274},{"name":"F#4","midi":66,"time":309.9114583333349,"velocity":0.3937007874015748,"duration":0.3156250000000682},{"name":"E4","midi":64,"time":310.0937500000016,"velocity":0.3700787401574803,"duration":0.11145833333335986},{"name":"B4","midi":71,"time":310.09583333333495,"velocity":0.44881889763779526,"duration":0.125},{"name":"B3","midi":59,"time":310.27812500000164,"velocity":0.3228346456692913,"duration":0.29791666666670835},{"name":"B4","midi":71,"time":310.42187500000165,"velocity":0.3779527559055118,"duration":0.11666666666667425},{"name":"E4","midi":64,"time":310.42812500000167,"velocity":0.3228346456692913,"duration":0.11041666666665151},{"name":"F#4","midi":66,"time":310.6010416666683,"velocity":0.3464566929133858,"duration":0.2041666666666515},{"name":"B4","midi":71,"time":310.761458333335,"velocity":0.23622047244094488,"duration":0.10208333333332575},{"name":"E4","midi":64,"time":310.7729166666683,"velocity":0.2992125984251969,"duration":0.08541666666667425},{"name":"B3","midi":59,"time":310.977083333335,"velocity":0.28346456692913385,"duration":0.11562500000002274},{"name":"B4","midi":71,"time":311.092708333335,"velocity":0.25984251968503935,"duration":0.12395833333334849},{"name":"E4","midi":64,"time":311.09687500000166,"velocity":0.3543307086614173,"duration":0.13125000000002274},{"name":"E5","midi":76,"time":311.1500000000017,"velocity":0.23622047244094488,"duration":0.036458333333314386},{"name":"F#4","midi":66,"time":311.2968750000017,"velocity":0.36220472440944884,"duration":0.28750000000002274},{"name":"E4","midi":64,"time":311.42604166666837,"velocity":0.3937007874015748,"duration":0.14166666666670835},{"name":"B4","midi":71,"time":311.4291666666684,"velocity":0.3464566929133858,"duration":0.14166666666670835},{"name":"E5","midi":76,"time":311.4510416666684,"velocity":0.3858267716535433,"duration":0.09270833333334849},{"name":"B3","midi":59,"time":311.6104166666684,"velocity":0.3464566929133858,"duration":0.26354166666664014},{"name":"E4","midi":64,"time":311.7604166666684,"velocity":0.3858267716535433,"duration":0.15312499999998863},{"name":"B4","midi":71,"time":311.7666666666684,"velocity":0.44881889763779526,"duration":0.13645833333328028},{"name":"E5","midi":76,"time":311.78020833333505,"velocity":0.30708661417322836,"duration":0.11041666666665151},{"name":"F#4","midi":66,"time":311.9281250000017,"velocity":0.4094488188976378,"duration":0.3520833333333826},{"name":"B4","midi":71,"time":312.10312500000174,"velocity":0.4566929133858268,"duration":0.14687500000002274},{"name":"E4","midi":64,"time":312.10625000000175,"velocity":0.44881889763779526,"duration":0.1500000000000341},{"name":"E5","midi":76,"time":312.1177083333351,"velocity":0.31496062992125984,"duration":0.12187499999998863},{"name":"B3","midi":59,"time":312.27291666666844,"velocity":0.4251968503937008,"duration":0.2281250000000341},{"name":"B4","midi":71,"time":312.4364583333351,"velocity":0.49606299212598426,"duration":0.16041666666666288},{"name":"E4","midi":64,"time":312.43854166666847,"velocity":0.41732283464566927,"duration":0.16145833333331439},{"name":"E5","midi":76,"time":312.4468750000018,"velocity":0.3779527559055118,"duration":0.12187499999998863},{"name":"F#4","midi":66,"time":312.61666666666844,"velocity":0.4251968503937008,"duration":0.3135416666666515},{"name":"E4","midi":64,"time":312.77812500000175,"velocity":0.44881889763779526,"duration":0.14791666666667425},{"name":"B4","midi":71,"time":312.7843750000018,"velocity":0.5354330708661418,"duration":0.1624999999999659},{"name":"E5","midi":76,"time":312.8010416666684,"velocity":0.4094488188976378,"duration":0.13333333333332575},{"name":"B3","midi":59,"time":312.9510416666684,"velocity":0.4409448818897638,"duration":0.26666666666670835},{"name":"E4","midi":64,"time":313.1229166666684,"velocity":0.4409448818897638,"duration":0.12083333333339397},{"name":"E5","midi":76,"time":313.12708333333507,"velocity":0.4330708661417323,"duration":0.07500000000004547},{"name":"B4","midi":71,"time":313.1291666666684,"velocity":0.4566929133858268,"duration":0.10625000000004547},{"name":"F#4","midi":66,"time":313.2750000000018,"velocity":0.4409448818897638,"duration":0.10312499999997726},{"name":"F#4","midi":66,"time":313.4239583333351,"velocity":0.3858267716535433,"duration":0.13020833333337123},{"name":"E4","midi":64,"time":313.4812500000018,"velocity":0.2204724409448819,"duration":0.16354166666667425},{"name":"A3","midi":57,"time":313.6500000000018,"velocity":0.30708661417322836,"duration":0.3270833333333485},{"name":"E4","midi":64,"time":313.80729166666845,"velocity":0.3464566929133858,"duration":0.11250000000001137},{"name":"F#4","midi":66,"time":313.8093750000018,"velocity":0.4015748031496063,"duration":0.09062499999998863},{"name":"G#4","midi":68,"time":313.9781250000018,"velocity":0.4566929133858268,"duration":0.20416666666670835},{"name":"E4","midi":64,"time":314.1187500000018,"velocity":0.3937007874015748,"duration":0.12395833333334849},{"name":"F#4","midi":66,"time":314.12083333333516,"velocity":0.4094488188976378,"duration":0.11250000000001137},{"name":"A3","midi":57,"time":314.30520833333514,"velocity":0.36220472440944884,"duration":0.28125000000005684},{"name":"E4","midi":64,"time":314.46458333333516,"velocity":0.3779527559055118,"duration":0.12604166666670835},{"name":"F#4","midi":66,"time":314.4708333333352,"velocity":0.4251968503937008,"duration":0.10416666666668561},{"name":"G#4","midi":68,"time":314.6145833333352,"velocity":0.4881889763779528,"duration":0.19895833333333712},{"name":"F#4","midi":66,"time":314.79062500000185,"velocity":0.4330708661417323,"duration":0.11770833333332575},{"name":"E4","midi":64,"time":314.7927083333352,"velocity":0.3858267716535433,"duration":0.11979166666662877},{"name":"A3","midi":57,"time":314.9479166666685,"velocity":0.3858267716535433,"duration":0.36770833333332575},{"name":"F#4","midi":66,"time":315.1447916666685,"velocity":0.36220472440944884,"duration":0.10729166666664014},{"name":"E4","midi":64,"time":315.1656250000018,"velocity":0.33070866141732286,"duration":0.10624999999998863},{"name":"G#4","midi":68,"time":315.3093750000018,"velocity":0.5748031496062992,"duration":0.1395833333333485},{"name":"F#4","midi":66,"time":315.46145833333514,"velocity":0.4330708661417323,"duration":0.14583333333331439},{"name":"E4","midi":64,"time":315.4781250000018,"velocity":0.4015748031496063,"duration":0.12916666666666288},{"name":"A3","midi":57,"time":315.63541666666845,"velocity":0.3779527559055118,"duration":0.3583333333333485},{"name":"F#4","midi":66,"time":315.8187500000018,"velocity":0.4566929133858268,"duration":0.11666666666667425},{"name":"E4","midi":64,"time":315.82916666666847,"velocity":0.3543307086614173,"duration":0.11770833333332575},{"name":"G#4","midi":68,"time":315.9875000000018,"velocity":0.5354330708661418,"duration":0.09479166666670835},{"name":"F#4","midi":66,"time":316.1666666666685,"velocity":0.33070866141732286,"duration":0.09270833333334849},{"name":"A4","midi":69,"time":316.1791666666685,"velocity":0.3464566929133858,"duration":0.09062500000004547},{"name":"E4","midi":64,"time":316.1947916666685,"velocity":0.2440944881889764,"duration":0.09687500000006821},{"name":"A3","midi":57,"time":316.3239583333352,"velocity":0.36220472440944884,"duration":0.25729166666667425},{"name":"A4","midi":69,"time":316.4906250000019,"velocity":0.3779527559055118,"duration":0.13645833333333712},{"name":"F#4","midi":66,"time":316.50729166666855,"velocity":0.3779527559055118,"duration":0.10520833333333712},{"name":"E4","midi":64,"time":316.51250000000186,"velocity":0.33858267716535434,"duration":0.09687500000001137},{"name":"G#4","midi":68,"time":316.6708333333352,"velocity":0.49606299212598426,"duration":0.16354166666667425},{"name":"A4","midi":69,"time":316.8375000000019,"velocity":0.4015748031496063,"duration":0.1416666666666515},{"name":"F#4","midi":66,"time":316.84375000000193,"velocity":0.4645669291338583,"duration":0.12812499999995453},{"name":"E4","midi":64,"time":316.85937500000193,"velocity":0.3543307086614173,"duration":0.10312499999997726},{"name":"A3","midi":57,"time":317.0114583333352,"velocity":0.33070866141732286,"duration":0.3510416666666174},{"name":"A4","midi":69,"time":317.18437500000186,"velocity":0.4251968503937008,"duration":0.14791666666667425},{"name":"F#4","midi":66,"time":317.19375000000184,"velocity":0.47244094488188976,"duration":0.1333333333333826},{"name":"E4","midi":64,"time":317.1979166666685,"velocity":0.3858267716535433,"duration":0.12708333333335986},{"name":"G#4","midi":68,"time":317.3458333333352,"velocity":0.5118110236220472,"duration":0.14895833333332575},{"name":"A4","midi":69,"time":317.51875000000183,"velocity":0.4330708661417323,"duration":0.15312500000004547},{"name":"E4","midi":64,"time":317.5354166666685,"velocity":0.3858267716535433,"duration":0.11979166666668561},{"name":"F#4","midi":66,"time":317.53750000000184,"velocity":0.4881889763779528,"duration":0.12395833333334849},{"name":"A3","midi":57,"time":317.6927083333352,"velocity":0.3937007874015748,"duration":0.377083333333303},{"name":"A4","midi":69,"time":317.8697916666685,"velocity":0.4015748031496063,"duration":0.13229166666667425},{"name":"F#4","midi":66,"time":317.8760416666685,"velocity":0.4409448818897638,"duration":0.11458333333331439},{"name":"E4","midi":64,"time":317.8854166666685,"velocity":0.3228346456692913,"duration":0.10416666666668561},{"name":"G#4","midi":68,"time":318.0260416666685,"velocity":0.5748031496062992,"duration":0.16354166666667425},{"name":"A4","midi":69,"time":318.20000000000186,"velocity":0.4566929133858268,"duration":0.15833333333335986},{"name":"E4","midi":64,"time":318.20937500000184,"velocity":0.4094488188976378,"duration":0.12395833333334849},{"name":"F#4","midi":66,"time":318.21250000000185,"velocity":0.48031496062992124,"duration":0.12708333333335986},{"name":"A3","midi":57,"time":318.3593750000019,"velocity":0.41732283464566927,"duration":0.32291666666662877},{"name":"F#4","midi":66,"time":318.5395833333352,"velocity":0.4645669291338583,"duration":0.11354166666666288},{"name":"A4","midi":69,"time":318.54062500000185,"velocity":0.49606299212598426,"duration":0.125},{"name":"E4","midi":64,"time":318.5447916666685,"velocity":0.3700787401574803,"duration":0.08645833333332575},{"name":"G#4","midi":68,"time":318.7072916666685,"velocity":0.5118110236220472,"duration":0.09166666666664014},{"name":"G#4","midi":68,"time":318.8562500000018,"velocity":0.23622047244094488,"duration":0.13541666666668561},{"name":"E4","midi":64,"time":318.8791666666685,"velocity":0.4251968503937008,"duration":0.13854166666669698},{"name":"B3","midi":59,"time":319.06562500000183,"velocity":0.3858267716535433,"duration":0.29791666666659467},{"name":"G#4","midi":68,"time":319.22187500000183,"velocity":0.4566929133858268,"duration":0.11874999999997726},{"name":"E4","midi":64,"time":319.23750000000183,"velocity":0.33858267716535434,"duration":0.11249999999995453},{"name":"F#4","midi":66,"time":319.3947916666684,"velocity":0.28346456692913385,"duration":0.25937499999997726},{"name":"E4","midi":64,"time":319.56458333333507,"velocity":0.3700787401574803,"duration":0.16979166666664014},{"name":"G#4","midi":68,"time":319.5666666666684,"velocity":0.3779527559055118,"duration":0.11979166666662877},{"name":"B3","midi":59,"time":319.755208333335,"velocity":0.3228346456692913,"duration":0.2718750000000796},{"name":"G#4","midi":68,"time":319.91250000000167,"velocity":0.3937007874015748,"duration":0.11250000000006821},{"name":"E4","midi":64,"time":319.9187500000017,"velocity":0.33858267716535434,"duration":0.10416666666668561},{"name":"F#4","midi":66,"time":320.0687500000018,"velocity":0.36220472440944884,"duration":0.29895833333335986},{"name":"G#4","midi":68,"time":320.2375000000018,"velocity":0.3858267716535433,"duration":0.12395833333334849},{"name":"E4","midi":64,"time":320.24479166666845,"velocity":0.33858267716535434,"duration":0.14166666666670835},{"name":"B3","midi":59,"time":320.42812500000184,"velocity":0.2755905511811024,"duration":0.19791666666668561},{"name":"G#4","midi":68,"time":320.5760416666685,"velocity":0.3858267716535433,"duration":0.13229166666667425},{"name":"E4","midi":64,"time":320.58750000000185,"velocity":0.33858267716535434,"duration":0.12291666666669698},{"name":"F#4","midi":66,"time":320.7489583333352,"velocity":0.3779527559055118,"duration":0.3062500000000341},{"name":"E4","midi":64,"time":320.92395833333524,"velocity":0.3700787401574803,"duration":0.13020833333337123},{"name":"G#4","midi":68,"time":320.9312500000019,"velocity":0.3228346456692913,"duration":0.11562500000002274},{"name":"B3","midi":59,"time":321.1104166666686,"velocity":0.2677165354330709,"duration":0.17916666666667425},{"name":"G#4","midi":68,"time":321.2666666666686,"velocity":0.3779527559055118,"duration":0.1177083333333826},{"name":"E4","midi":64,"time":321.3041666666686,"velocity":0.2204724409448819,"duration":0.09270833333334849},{"name":"F#4","midi":66,"time":321.4479166666686,"velocity":0.33858267716535434,"duration":0.2916666666666856},{"name":"G#4","midi":68,"time":321.61041666666864,"velocity":0.3543307086614173,"duration":0.12916666666666288},{"name":"E4","midi":64,"time":321.61562500000196,"velocity":0.3543307086614173,"duration":0.15937500000001137},{"name":"B3","midi":59,"time":321.8145833333353,"velocity":0.23622047244094488,"duration":0.11458333333331439},{"name":"G#4","midi":68,"time":321.95625000000194,"velocity":0.4094488188976378,"duration":0.10520833333333712},{"name":"E4","midi":64,"time":321.9760416666686,"velocity":0.2440944881889764,"duration":0.11145833333335986},{"name":"F#4","midi":66,"time":322.1239583333353,"velocity":0.30708661417322836,"duration":0.35000000000002274},{"name":"G#4","midi":68,"time":322.2989583333353,"velocity":0.3700787401574803,"duration":0.13854166666669698},{"name":"E4","midi":64,"time":322.30104166666865,"velocity":0.3700787401574803,"duration":0.17604166666666288},{"name":"B3","midi":59,"time":322.51354166666863,"velocity":0.2283464566929134,"duration":0.21875000000005684},{"name":"E4","midi":64,"time":322.656250000002,"velocity":0.31496062992125984,"duration":0.13958333333340533},{"name":"G#4","midi":68,"time":322.65833333333535,"velocity":0.4409448818897638,"duration":0.10416666666668561},{"name":"F#4","midi":66,"time":322.80937500000203,"velocity":0.33070866141732286,"duration":0.24166666666667425},{"name":"G#4","midi":68,"time":322.97083333333535,"velocity":0.4015748031496063,"duration":0.15208333333333712},{"name":"E4","midi":64,"time":322.993750000002,"velocity":0.3700787401574803,"duration":0.11562500000002274},{"name":"B3","midi":59,"time":323.190625000002,"velocity":0.29133858267716534,"duration":0.24270833333332575},{"name":"G#4","midi":68,"time":323.321875000002,"velocity":0.44881889763779526,"duration":0.13958333333329165},{"name":"E4","midi":64,"time":323.3416666666687,"velocity":0.33070866141732286,"duration":0.1322916666666174},{"name":"F#4","midi":66,"time":323.51666666666864,"velocity":0.33070866141732286,"duration":0.22395833333337123},{"name":"G#4","midi":68,"time":323.675000000002,"velocity":0.4094488188976378,"duration":0.1343750000000341},{"name":"E4","midi":64,"time":323.67708333333536,"velocity":0.3700787401574803,"duration":0.1729166666666515},{"name":"B3","midi":59,"time":323.8708333333353,"velocity":0.2755905511811024,"duration":0.20312499999994316},{"name":"G#4","midi":68,"time":324.0083333333353,"velocity":0.41732283464566927,"duration":0.11249999999995453},{"name":"E4","midi":64,"time":324.02187500000196,"velocity":0.31496062992125984,"duration":0.07708333333329165},{"name":"F#4","midi":66,"time":324.1416666666686,"velocity":0.3700787401574803,"duration":0.16979166666664014},{"name":"F#4","midi":66,"time":324.3125000000019,"velocity":0.06299212598425197,"duration":0.12916666666666288},{"name":"E4","midi":64,"time":324.33750000000185,"velocity":0.33858267716535434,"duration":0.09687500000001137},{"name":"A3","midi":57,"time":324.47916666666856,"velocity":0.33070866141732286,"duration":0.2093749999999659},{"name":"F#4","midi":66,"time":324.66666666666856,"velocity":0.3779527559055118,"duration":0.08645833333332575},{"name":"E4","midi":64,"time":324.6833333333352,"velocity":0.28346456692913385,"duration":0.06666666666666288},{"name":"G#4","midi":68,"time":324.8187500000019,"velocity":0.4566929133858268,"duration":0.140625},{"name":"F#4","midi":66,"time":325.0031250000019,"velocity":0.4251968503937008,"duration":0.10729166666669698},{"name":"E4","midi":64,"time":325.0187500000019,"velocity":0.33070866141732286,"duration":0.08437500000002274},{"name":"A3","midi":57,"time":325.16458333333526,"velocity":0.3700787401574803,"duration":0.11250000000001137},{"name":"F#4","midi":66,"time":325.35520833333527,"velocity":0.3779527559055118,"duration":0.10416666666668561},{"name":"E4","midi":64,"time":325.3697916666686,"velocity":0.33858267716535434,"duration":0.08229166666666288},{"name":"G#4","midi":68,"time":325.5239583333353,"velocity":0.4645669291338583,"duration":0.1260416666666515},{"name":"F#4","midi":66,"time":325.69166666666865,"velocity":0.4881889763779528,"duration":0.13541666666662877},{"name":"E4","midi":64,"time":325.7114583333353,"velocity":0.4094488188976378,"duration":0.10624999999998863},{"name":"A3","midi":57,"time":325.8791666666686,"velocity":0.33858267716535434,"duration":0.23750000000001137},{"name":"F#4","midi":66,"time":326.03958333333526,"velocity":0.44881889763779526,"duration":0.13020833333331439},{"name":"E4","midi":64,"time":326.0593750000019,"velocity":0.3858267716535433,"duration":0.109375},{"name":"G#4","midi":68,"time":326.2177083333352,"velocity":0.47244094488188976,"duration":0.1729166666666515},{"name":"F#4","midi":66,"time":326.39270833333524,"velocity":0.4645669291338583,"duration":0.12812500000001137},{"name":"E4","midi":64,"time":326.39895833333526,"velocity":0.4015748031496063,"duration":0.12187499999998863},{"name":"A3","midi":57,"time":326.5718750000019,"velocity":0.3779527559055118,"duration":0.2333333333333485},{"name":"F#4","midi":66,"time":326.7354166666686,"velocity":0.44881889763779526,"duration":0.11666666666667425},{"name":"E4","midi":64,"time":326.7593750000019,"velocity":0.3464566929133858,"duration":0.08958333333333712},{"name":"G#4","midi":68,"time":326.89375000000194,"velocity":0.48031496062992124,"duration":0.125},{"name":"A4","midi":69,"time":327.09687500000194,"velocity":0.33858267716535434,"duration":0.10208333333326891},{"name":"F#4","midi":66,"time":327.10208333333526,"velocity":0.2283464566929134,"duration":0.08124999999995453},{"name":"E4","midi":64,"time":327.1156250000019,"velocity":0.1732283464566929,"duration":0.08854166666662877},{"name":"A3","midi":57,"time":327.2760416666685,"velocity":0.2992125984251969,"duration":0.2270833333333826},{"name":"A4","midi":69,"time":327.4229166666685,"velocity":0.3464566929133858,"duration":0.13020833333337123},{"name":"E4","midi":64,"time":327.42604166666854,"velocity":0.33858267716535434,"duration":0.11979166666668561},{"name":"F#4","midi":66,"time":327.4687500000019,"velocity":0.29133858267716534,"duration":0.06145833333334849},{"name":"G#4","midi":68,"time":327.6093750000019,"velocity":0.4409448818897638,"duration":0.11458333333331439},{"name":"A4","midi":69,"time":327.7500000000019,"velocity":0.4251968503937008,"duration":0.140625},{"name":"E4","midi":64,"time":327.7583333333352,"velocity":0.3543307086614173,"duration":0.1572916666666515},{"name":"A3","midi":57,"time":327.95208333333517,"velocity":0.36220472440944884,"duration":0.36458333333325754},{"name":"E4","midi":64,"time":328.11770833333514,"velocity":0.3937007874015748,"duration":0.13020833333331439},{"name":"A4","midi":69,"time":328.1197916666685,"velocity":0.4015748031496063,"duration":0.11874999999997726},{"name":"G#4","midi":68,"time":328.2958333333351,"velocity":0.33070866141732286,"duration":0.14270833333330302},{"name":"E4","midi":64,"time":328.45000000000175,"velocity":0.4251968503937008,"duration":0.14375000000001137},{"name":"A4","midi":69,"time":328.4562500000018,"velocity":0.4330708661417323,"duration":0.1468749999999659},{"name":"A3","midi":57,"time":328.6156250000017,"velocity":0.36220472440944884,"duration":0.30520833333332575},{"name":"A4","midi":69,"time":328.7916666666684,"velocity":0.49606299212598426,"duration":0.13229166666667425},{"name":"E4","midi":64,"time":328.80104166666837,"velocity":0.3779527559055118,"duration":0.13229166666667425},{"name":"G#4","midi":68,"time":328.96770833333505,"velocity":0.4566929133858268,"duration":0.15937500000001137},{"name":"E4","midi":64,"time":329.1406250000017,"velocity":0.3543307086614173,"duration":0.12604166666670835},{"name":"A4","midi":69,"time":329.14270833333507,"velocity":0.47244094488188976,"duration":0.140625},{"name":"A3","midi":57,"time":329.3041666666684,"velocity":0.3779527559055118,"duration":0.17812500000002274},{"name":"E4","midi":64,"time":329.4635416666684,"velocity":0.3858267716535433,"duration":0.11145833333330302},{"name":"A4","midi":69,"time":329.49895833333505,"velocity":0.31496062992125984,"duration":0.036458333333314386},{"name":"G#4","midi":68,"time":329.63541666666833,"velocity":0.4881889763779528,"duration":0.052083333333314386},{"name":"E4","midi":64,"time":329.84375000000165,"velocity":0.3779527559055118,"duration":0.06041666666664014},{"name":"B3","midi":59,"time":330.00000000000165,"velocity":0.3858267716535433,"duration":0.11562500000002274},{"name":"E4","midi":64,"time":330.20312500000165,"velocity":0.2677165354330709,"duration":0.07083333333332575},{"name":"B4","midi":71,"time":330.37812500000166,"velocity":0.14960629921259844,"duration":0.19270833333331439},{"name":"E4","midi":64,"time":330.5479166666683,"velocity":0.31496062992125984,"duration":0.06562500000001137},{"name":"B3","midi":59,"time":330.7385416666683,"velocity":0.25984251968503935,"duration":0.19687499999997726},{"name":"E4","midi":64,"time":330.9260416666683,"velocity":0.2204724409448819,"duration":0.04270833333333712},{"name":"B4","midi":71,"time":331.0541666666683,"velocity":0.2755905511811024,"duration":0.28020833333329165},{"name":"E4","midi":64,"time":331.27083333333496,"velocity":0.16535433070866143,"duration":0.027083333333337123},{"name":"B3","midi":59,"time":331.40833333333495,"velocity":0.23622047244094488,"duration":0.24479166666668561},{"name":"E4","midi":64,"time":331.60625000000164,"velocity":0.1732283464566929,"duration":0.038541666666674246},{"name":"B4","midi":71,"time":331.75520833333496,"velocity":0.2755905511811024,"duration":0.27291666666667425},{"name":"E4","midi":64,"time":331.9354166666683,"velocity":0.1968503937007874,"duration":0.06145833333334849},{"name":"B3","midi":59,"time":332.105208333335,"velocity":0.23622047244094488,"duration":0.2802083333333485},{"name":"E4","midi":64,"time":332.261458333335,"velocity":0.2283464566929134,"duration":0.10833333333334849},{"name":"B4","midi":71,"time":332.433333333335,"velocity":0.3700787401574803,"duration":0.26562499999994316},{"name":"E4","midi":64,"time":332.59895833333496,"velocity":0.2755905511811024,"duration":0.09479166666665151},{"name":"B3","midi":59,"time":332.8020833333349,"velocity":0.2204724409448819,"duration":0.25729166666667425},{"name":"E4","midi":64,"time":332.93854166666824,"velocity":0.2125984251968504,"duration":0.11562500000002274},{"name":"B4","midi":71,"time":333.12291666666823,"velocity":0.30708661417322836,"duration":0.23333333333329165},{"name":"E4","midi":64,"time":333.2770833333349,"velocity":0.2283464566929134,"duration":0.10520833333333712},{"name":"B3","midi":59,"time":333.43541666666823,"velocity":0.2204724409448819,"duration":0.2864583333333144},{"name":"E4","midi":64,"time":333.6322916666682,"velocity":0.2677165354330709,"duration":0.041666666666685614},{"name":"B4","midi":71,"time":333.7770833333349,"velocity":0.29133858267716534,"duration":0.27395833333332575},{"name":"E4","midi":64,"time":333.9489583333349,"velocity":0.2440944881889764,"duration":0.10208333333332575},{"name":"B3","midi":59,"time":334.1010416666682,"velocity":0.2755905511811024,"duration":0.252083333333303},{"name":"E4","midi":64,"time":334.2854166666682,"velocity":0.33858267716535434,"duration":0.11145833333330302},{"name":"B4","midi":71,"time":334.49166666666815,"velocity":0.2677165354330709,"duration":0.21875},{"name":"E4","midi":64,"time":334.6552083333348,"velocity":0.29133858267716534,"duration":0.02812499999998863},{"name":"B3","midi":59,"time":334.8187500000015,"velocity":0.15748031496062992,"duration":0.24374999999997726},{"name":"E4","midi":64,"time":335.01979166666814,"velocity":0.18110236220472442,"duration":0.04895833333335986},{"name":"B4","midi":71,"time":335.1625000000015,"velocity":0.2992125984251969,"duration":0.01666666666665151},{"name":"E4","midi":64,"time":335.3312500000015,"velocity":0.2677165354330709,"duration":0.046875},{"name":"F#4","midi":66,"time":335.39270833333484,"velocity":0.1889763779527559,"duration":0.03333333333335986},{"name":"A3","midi":57,"time":335.4937500000015,"velocity":0.4015748031496063,"duration":0.054166666666674246},{"name":"F#4","midi":66,"time":335.6447916666682,"velocity":0.3228346456692913,"duration":0.07083333333332575},{"name":"E4","midi":64,"time":335.7104166666682,"velocity":0.16535433070866143,"duration":0.03333333333330302},{"name":"G#4","midi":68,"time":335.8937500000015,"velocity":0.2440944881889764,"duration":0.0843749999999659},{"name":"F#4","midi":66,"time":335.9458333333348,"velocity":0.3700787401574803,"duration":0.08749999999997726},{"name":"E4","midi":64,"time":335.95000000000147,"velocity":0.30708661417322836,"duration":0.09895833333331439},{"name":"A3","midi":57,"time":336.15000000000146,"velocity":0.25984251968503935,"duration":0.16666666666668561},{"name":"E4","midi":64,"time":336.30937500000147,"velocity":0.25984251968503935,"duration":0.11666666666667425},{"name":"F#4","midi":66,"time":336.3156250000015,"velocity":0.3779527559055118,"duration":0.08645833333332575},{"name":"G#4","midi":68,"time":336.5020833333348,"velocity":0.2755905511811024,"duration":0.15520833333329165},{"name":"E4","midi":64,"time":336.64687500000144,"velocity":0.3228346456692913,"duration":0.109375},{"name":"F#4","midi":66,"time":336.6562500000014,"velocity":0.4251968503937008,"duration":0.08958333333333712},{"name":"A3","midi":57,"time":336.8385416666681,"velocity":0.2677165354330709,"duration":0.23333333333329165},{"name":"F#4","midi":66,"time":336.98020833333476,"velocity":0.3937007874015748,"duration":0.109375},{"name":"E4","midi":64,"time":337.00833333333475,"velocity":0.2440944881889764,"duration":0.11458333333337123},{"name":"G#4","midi":68,"time":337.12812500000143,"velocity":0.48031496062992124,"duration":0.14791666666667425},{"name":"F#4","midi":66,"time":337.3145833333348,"velocity":0.44881889763779526,"duration":0.12916666666666288},{"name":"E4","midi":64,"time":337.31875000000144,"velocity":0.3464566929133858,"duration":0.13749999999998863},{"name":"A3","midi":57,"time":337.48333333333477,"velocity":0.2992125984251969,"duration":0.23333333333329165},{"name":"F#4","midi":66,"time":337.6562500000014,"velocity":0.4566929133858268,"duration":0.1156249999999659},{"name":"E4","midi":64,"time":337.6718750000014,"velocity":0.3543307086614173,"duration":0.1166666666666174},{"name":"G#4","midi":68,"time":337.8031250000014,"velocity":0.47244094488188976,"duration":0.09479166666665151},{"name":"F#4","midi":66,"time":337.9895833333347,"velocity":0.3464566929133858,"duration":0.11145833333335986},{"name":"A4","midi":69,"time":337.99166666666804,"velocity":0.3937007874015748,"duration":0.11458333333331439},{"name":"E4","midi":64,"time":337.9927083333347,"velocity":0.30708661417322836,"duration":0.14270833333330302},{"name":"A3","midi":57,"time":338.18958333333467,"velocity":0.3228346456692913,"duration":0.2614583333333371},{"name":"A4","midi":69,"time":338.3208333333347,"velocity":0.3228346456692913,"duration":0.12708333333330302},{"name":"F#4","midi":66,"time":338.33750000000134,"velocity":0.36220472440944884,"duration":0.11458333333331439},{"name":"E4","midi":64,"time":338.34062500000135,"velocity":0.3700787401574803,"duration":0.12291666666664014},{"name":"G#4","midi":68,"time":338.494791666668,"velocity":0.47244094488188976,"duration":0.10208333333332575},{"name":"A4","midi":69,"time":338.65520833333466,"velocity":0.4015748031496063,"duration":0.13854166666675383},{"name":"F#4","midi":66,"time":338.6614583333347,"velocity":0.4645669291338583,"duration":0.12916666666671972},{"name":"E4","midi":64,"time":338.66354166666804,"velocity":0.3700787401574803,"duration":0.1333333333333826},{"name":"A3","midi":57,"time":338.8291666666681,"velocity":0.3779527559055118,"duration":0.22083333333330302},{"name":"A4","midi":69,"time":338.9843750000014,"velocity":0.4015748031496063,"duration":0.14583333333331439},{"name":"F#4","midi":66,"time":339.0010416666681,"velocity":0.4094488188976378,"duration":0.1260416666666515},{"name":"E4","midi":64,"time":339.0062500000014,"velocity":0.33858267716535434,"duration":0.1343750000000341},{"name":"G#4","midi":68,"time":339.1604166666681,"velocity":0.5196850393700787,"duration":0.13333333333332575},{"name":"A4","midi":69,"time":339.32395833333476,"velocity":0.4330708661417323,"duration":0.14791666666667425},{"name":"F#4","midi":66,"time":339.3322916666681,"velocity":0.4409448818897638,"duration":0.14166666666670835},{"name":"E4","midi":64,"time":339.3437500000014,"velocity":0.3543307086614173,"duration":0.12708333333335986},{"name":"A3","midi":57,"time":339.49687500000147,"velocity":0.3779527559055118,"duration":0.22395833333331439},{"name":"F#4","midi":66,"time":339.6822916666681,"velocity":0.4251968503937008,"duration":0.11979166666668561},{"name":"E4","midi":64,"time":339.68645833333477,"velocity":0.3779527559055118,"duration":0.12604166666670835},{"name":"A4","midi":69,"time":339.68854166666813,"velocity":0.4409448818897638,"duration":0.12083333333333712},{"name":"G#4","midi":68,"time":339.8416666666681,"velocity":0.5275590551181102,"duration":0.13645833333333712},{"name":"A4","midi":69,"time":340.01250000000147,"velocity":0.4251968503937008,"duration":0.17291666666670835},{"name":"E4","midi":64,"time":340.0187500000015,"velocity":0.3937007874015748,"duration":0.14583333333337123},{"name":"F#4","midi":66,"time":340.02083333333485,"velocity":0.4645669291338583,"duration":0.16041666666666288},{"name":"A3","midi":57,"time":340.1885416666682,"velocity":0.3779527559055118,"duration":0.21770833333340533},{"name":"F#4","midi":66,"time":340.36250000000155,"velocity":0.44881889763779526,"duration":0.10416666666668561},{"name":"A4","midi":69,"time":340.3697916666682,"velocity":0.4251968503937008,"duration":0.10729166666669698},{"name":"E4","midi":64,"time":340.37291666666823,"velocity":0.3779527559055118,"duration":0.08958333333333712},{"name":"G#4","midi":68,"time":340.51354166666823,"velocity":0.47244094488188976,"duration":0.04479166666664014},{"name":"E4","midi":64,"time":340.7437500000015,"velocity":0.2755905511811024,"duration":0.02812499999998863},{"name":"B3","midi":59,"time":340.9062500000015,"velocity":0.2204724409448819,"duration":0.14479166666666288},{"name":"E4","midi":64,"time":341.05416666666815,"velocity":0.2755905511811024,"duration":0.05833333333333712},{"name":"B4","midi":71,"time":341.24166666666815,"velocity":0.3228346456692913,"duration":0.19479166666667425},{"name":"E4","midi":64,"time":341.40833333333484,"velocity":0.28346456692913385,"duration":0.07708333333334849},{"name":"B3","midi":59,"time":341.58854166666816,"velocity":0.2992125984251969,"duration":0.16145833333331439},{"name":"E4","midi":64,"time":341.75937500000146,"velocity":0.25984251968503935,"duration":0.08125000000001137},{"name":"B4","midi":71,"time":341.92291666666813,"velocity":0.28346456692913385,"duration":0.22187500000001137},{"name":"E4","midi":64,"time":342.1072916666681,"velocity":0.2204724409448819,"duration":0.08125000000001137},{"name":"B3","midi":59,"time":342.29062500000146,"velocity":0.23622047244094488,"duration":0.1875},{"name":"E4","midi":64,"time":342.47500000000144,"velocity":0.16535433070866143,"duration":0.0625},{"name":"B4","midi":71,"time":342.63125000000144,"velocity":0.25984251968503935,"duration":0.24166666666667425},{"name":"E4","midi":64,"time":342.82500000000147,"velocity":0.14173228346456693,"duration":0.05937499999998863},{"name":"B3","midi":59,"time":342.98750000000143,"velocity":0.2047244094488189,"duration":0.2510416666666515},{"name":"E4","midi":64,"time":343.1875000000014,"velocity":0.1732283464566929,"duration":0.05937499999998863},{"name":"B4","midi":71,"time":343.34166666666806,"velocity":0.2204724409448819,"duration":0.23229166666664014},{"name":"E4","midi":64,"time":343.49479166666805,"velocity":0.15748031496062992,"duration":0.14375000000001137},{"name":"B3","midi":59,"time":343.67916666666804,"velocity":0.2204724409448819,"duration":0.28229166666670835},{"name":"E4","midi":64,"time":343.8552083333347,"velocity":0.25984251968503935,"duration":0.10000000000002274},{"name":"B4","midi":71,"time":344.0260416666681,"velocity":0.23622047244094488,"duration":0.2197916666666515},{"name":"E4","midi":64,"time":344.1697916666681,"velocity":0.25984251968503935,"duration":0.08333333333331439},{"name":"B3","midi":59,"time":344.3333333333348,"velocity":0.2204724409448819,"duration":0.28645833333337123},{"name":"E4","midi":64,"time":344.54375000000147,"velocity":0.23622047244094488,"duration":0.03750000000002274},{"name":"B4","midi":71,"time":344.69479166666815,"velocity":0.2125984251968504,"duration":0.265625},{"name":"E4","midi":64,"time":344.88229166666815,"velocity":0.1889763779527559,"duration":0.06145833333334849},{"name":"B3","midi":59,"time":345.0052083333348,"velocity":0.2755905511811024,"duration":0.26249999999998863},{"name":"E4","midi":64,"time":345.2010416666681,"velocity":0.2440944881889764,"duration":0.09270833333334849},{"name":"B4","midi":71,"time":345.3885416666681,"velocity":0.2755905511811024,"duration":0.21875},{"name":"E4","midi":64,"time":345.54791666666813,"velocity":0.30708661417322836,"duration":0.09791666666666288},{"name":"B3","midi":59,"time":345.7343750000015,"velocity":0.1968503937007874,"duration":0.20833333333331439},{"name":"E4","midi":64,"time":345.8645833333348,"velocity":0.33858267716535434,"duration":0.10104166666667425},{"name":"B4","midi":71,"time":346.0677083333348,"velocity":0.23622047244094488,"duration":0.023958333333325754},{"name":"F#4","midi":66,"time":346.24062500000144,"velocity":0.3543307086614173,"duration":0.0625},{"name":"E4","midi":64,"time":346.26666666666813,"velocity":0.16535433070866143,"duration":0.06666666666666288},{"name":"A3","midi":57,"time":346.43645833333477,"velocity":0.2125984251968504,"duration":0.03437500000001137},{"name":"E4","midi":64,"time":346.60312500000146,"velocity":0.23622047244094488,"duration":0.02812499999998863},{"name":"F#4","midi":66,"time":346.6072916666681,"velocity":0.2992125984251969,"duration":0.022916666666674246},{"name":"G#4","midi":68,"time":346.7541666666681,"velocity":0.29133858267716534,"duration":0.10208333333332575},{"name":"F#4","midi":66,"time":346.8916666666681,"velocity":0.3464566929133858,"duration":0.08958333333333712},{"name":"E4","midi":64,"time":346.93229166666805,"velocity":0.1889763779527559,"duration":0.056250000000034106},{"name":"A3","midi":57,"time":347.0541666666681,"velocity":0.29133858267716534,"duration":0.10000000000002274},{"name":"F#4","midi":66,"time":347.25104166666813,"velocity":0.3464566929133858,"duration":0.08541666666667425},{"name":"E4","midi":64,"time":347.25416666666814,"velocity":0.2440944881889764,"duration":0.09062499999998863},{"name":"G#4","midi":68,"time":347.4270833333348,"velocity":0.28346456692913385,"duration":0.13229166666667425},{"name":"F#4","midi":66,"time":347.60312500000146,"velocity":0.4251968503937008,"duration":0.09479166666670835},{"name":"E4","midi":64,"time":347.61354166666814,"velocity":0.2440944881889764,"duration":0.10520833333333712},{"name":"A3","midi":57,"time":347.78333333333484,"velocity":0.2992125984251969,"duration":0.2614583333332803},{"name":"F#4","midi":66,"time":347.94791666666816,"velocity":0.3779527559055118,"duration":0.10729166666664014},{"name":"E4","midi":64,"time":347.9531250000015,"velocity":0.33858267716535434,"duration":0.11770833333332575},{"name":"G#4","midi":68,"time":348.1208333333348,"velocity":0.33858267716535434,"duration":0.11145833333335986},{"name":"E4","midi":64,"time":348.2947916666682,"velocity":0.3543307086614173,"duration":0.10729166666664014},{"name":"F#4","midi":66,"time":348.29895833333484,"velocity":0.3779527559055118,"duration":0.10520833333333712},{"name":"A3","midi":57,"time":348.49166666666815,"velocity":0.28346456692913385,"duration":0.19375000000002274},{"name":"F#4","midi":66,"time":348.6343750000015,"velocity":0.31496062992125984,"duration":0.08020833333330302},{"name":"E4","midi":64,"time":348.67916666666815,"velocity":0.1889763779527559,"duration":0.04270833333333712},{"name":"G#4","midi":68,"time":348.81354166666813,"velocity":0.33070866141732286,"duration":0.08749999999997726},{"name":"E4","midi":64,"time":348.97708333333475,"velocity":0.2283464566929134,"duration":0.1281250000000682},{"name":"A4","midi":69,"time":348.98750000000143,"velocity":0.4094488188976378,"duration":0.1031250000000341},{"name":"F#4","midi":66,"time":348.99062500000144,"velocity":0.2992125984251969,"duration":0.08229166666666288},{"name":"A3","midi":57,"time":349.1614583333348,"velocity":0.2677165354330709,"duration":0.34479166666670835},{"name":"E4","midi":64,"time":349.34270833333477,"velocity":0.2677165354330709,"duration":0.11458333333337123},{"name":"A4","midi":69,"time":349.34479166666813,"velocity":0.3228346456692913,"duration":0.09375},{"name":"F#4","midi":66,"time":349.35312500000146,"velocity":0.25984251968503935,"duration":0.0875000000000341},{"name":"G#4","midi":68,"time":349.5343750000015,"velocity":0.30708661417322836,"duration":0.14791666666667425},{"name":"F#4","midi":66,"time":349.6843750000015,"velocity":0.3228346456692913,"duration":0.109375},{"name":"E4","midi":64,"time":349.6854166666682,"velocity":0.30708661417322836,"duration":0.1187500000000341},{"name":"A4","midi":69,"time":349.6937500000015,"velocity":0.33858267716535434,"duration":0.10000000000002274},{"name":"A3","midi":57,"time":349.88125000000156,"velocity":0.31496062992125984,"duration":0.314583333333303},{"name":"A4","midi":69,"time":350.0208333333349,"velocity":0.3700787401574803,"duration":0.1312499999999659},{"name":"E4","midi":64,"time":350.04062500000157,"velocity":0.2755905511811024,"duration":0.12395833333329165},{"name":"F#4","midi":66,"time":350.0885416666682,"velocity":0.18110236220472442,"duration":0.05000000000001137},{"name":"G#4","midi":68,"time":350.2322916666682,"velocity":0.3228346456692913,"duration":0.11250000000001137},{"name":"E4","midi":64,"time":350.3739583333348,"velocity":0.3937007874015748,"duration":0.11979166666668561},{"name":"A4","midi":69,"time":350.37708333333484,"velocity":0.3464566929133858,"duration":0.1187500000000341},{"name":"F#4","midi":66,"time":350.4020833333348,"velocity":0.30708661417322836,"duration":0.06875000000002274},{"name":"A3","midi":57,"time":350.5739583333349,"velocity":0.3779527559055118,"duration":0.2583333333333826},{"name":"A4","midi":69,"time":350.7177083333349,"velocity":0.3779527559055118,"duration":0.15729166666670835},{"name":"E4","midi":64,"time":350.7291666666682,"velocity":0.30708661417322836,"duration":0.10625000000004547},{"name":"F#4","midi":66,"time":350.7520833333349,"velocity":0.33858267716535434,"duration":0.09791666666671972},{"name":"G#4","midi":68,"time":350.87083333333493,"velocity":0.4645669291338583,"duration":0.10416666666668561},{"name":"F#4","midi":66,"time":351.0625000000016,"velocity":0.1968503937007874,"duration":0.18541666666664014},{"name":"A4","midi":69,"time":351.0781250000016,"velocity":0.30708661417322836,"duration":0.1260416666666515},{"name":"C#5","midi":73,"time":351.0864583333349,"velocity":0.4094488188976378,"duration":0.09895833333331439},{"name":"E4","midi":64,"time":351.1218750000016,"velocity":0.16535433070866143,"duration":0.10624999999998863},{"name":"A3","midi":57,"time":351.28229166666824,"velocity":0.31496062992125984,"duration":0.1750000000000682},{"name":"F#4","midi":66,"time":351.4250000000016,"velocity":0.4330708661417323,"duration":0.13958333333340533},{"name":"A4","midi":69,"time":351.42708333333496,"velocity":0.3464566929133858,"duration":0.1343750000000341},{"name":"E4","midi":64,"time":351.433333333335,"velocity":0.3700787401574803,"duration":0.12187499999998863},{"name":"C#5","midi":73,"time":351.45312500000165,"velocity":0.33858267716535434,"duration":0.08749999999997726},{"name":"G#4","midi":68,"time":351.60729166666835,"velocity":0.4330708661417323,"duration":0.2489583333333485},{"name":"A4","midi":69,"time":351.76354166666835,"velocity":0.4015748031496063,"duration":0.15312499999998863},{"name":"F#4","midi":66,"time":351.767708333335,"velocity":0.4015748031496063,"duration":0.14791666666667425},{"name":"C#5","midi":73,"time":351.786458333335,"velocity":0.4251968503937008,"duration":0.125},{"name":"E4","midi":64,"time":351.7906250000017,"velocity":0.2677165354330709,"duration":0.11979166666668561},{"name":"A3","midi":57,"time":351.95312500000165,"velocity":0.4094488188976378,"duration":0.2697916666667197},{"name":"C#5","midi":73,"time":352.111458333335,"velocity":0.4094488188976378,"duration":0.15625000000005684},{"name":"F#4","midi":66,"time":352.11770833333503,"velocity":0.4409448818897638,"duration":0.16979166666669698},{"name":"E4","midi":64,"time":352.12604166666836,"velocity":0.3779527559055118,"duration":0.1343750000000341},{"name":"A4","midi":69,"time":352.1281250000017,"velocity":0.3779527559055118,"duration":0.13854166666669698},{"name":"G#4","midi":68,"time":352.32708333333505,"velocity":0.33070866141732286,"duration":0.09479166666665151},{"name":"C#5","midi":73,"time":352.458333333335,"velocity":0.44881889763779526,"duration":0.13645833333333712},{"name":"A4","midi":69,"time":352.467708333335,"velocity":0.4094488188976378,"duration":0.1343750000000341},{"name":"E4","midi":64,"time":352.46979166666836,"velocity":0.3858267716535433,"duration":0.11874999999997726},{"name":"F#4","midi":66,"time":352.47916666666833,"velocity":0.4645669291338583,"duration":0.11145833333335986},{"name":"A3","midi":57,"time":352.6510416666684,"velocity":0.4015748031496063,"duration":0.24583333333328028},{"name":"A4","midi":69,"time":352.82083333333503,"velocity":0.44881889763779526,"duration":0.09166666666664014},{"name":"E4","midi":64,"time":352.82916666666836,"velocity":0.4094488188976378,"duration":0.09479166666665151},{"name":"C#5","midi":73,"time":352.8312500000017,"velocity":0.4566929133858268,"duration":0.10729166666664014},{"name":"F#4","midi":66,"time":352.8406250000017,"velocity":0.33070866141732286,"duration":0.04479166666664014},{"name":"G#4","midi":68,"time":353.00416666666837,"velocity":0.5196850393700787,"duration":0.28333333333335986},{"name":"E4","midi":64,"time":353.15520833333505,"velocity":0.4409448818897638,"duration":0.140625},{"name":"C#5","midi":73,"time":353.1750000000017,"velocity":0.3779527559055118,"duration":0.11666666666667425},{"name":"E5","midi":76,"time":353.2135416666684,"velocity":0.28346456692913385,"duration":0.021875000000022737},{"name":"B4","midi":71,"time":353.25000000000176,"velocity":0.2755905511811024,"duration":0.02604166666662877},{"name":"A4","midi":69,"time":353.2635416666684,"velocity":0.15748031496062992,"duration":0.04791666666665151},{"name":"A3","midi":57,"time":353.3593750000017,"velocity":0.3700787401574803,"duration":0.1968750000000341},{"name":"E4","midi":64,"time":353.4937500000017,"velocity":0.4251968503937008,"duration":0.15625000000005684},{"name":"C#5","midi":73,"time":353.5125000000017,"velocity":0.2992125984251969,"duration":0.1031250000000341},{"name":"E5","midi":76,"time":353.520833333335,"velocity":0.3464566929133858,"duration":0.0875000000000341},{"name":"B4","midi":71,"time":353.5229166666684,"velocity":0.3858267716535433,"duration":0.109375},{"name":"A4","midi":69,"time":353.5635416666684,"velocity":0.1732283464566929,"duration":0.09479166666665151},{"name":"G#4","midi":68,"time":353.6729166666684,"velocity":0.5669291338582677,"duration":0.1260416666666515},{"name":"E4","midi":64,"time":353.84062500000175,"velocity":0.44881889763779526,"duration":0.16979166666669698},{"name":"B4","midi":71,"time":353.8760416666684,"velocity":0.3700787401574803,"duration":0.14583333333337123},{"name":"E5","midi":76,"time":353.8791666666684,"velocity":0.3464566929133858,"duration":0.10416666666668561},{"name":"A4","midi":69,"time":353.88229166666844,"velocity":0.23622047244094488,"duration":0.18958333333335986},{"name":"C#5","midi":73,"time":353.9250000000018,"velocity":0.28346456692913385,"duration":0.04583333333334849},{"name":"A3","midi":57,"time":354.0437500000018,"velocity":0.3937007874015748,"duration":0.2531250000000682},{"name":"E4","midi":64,"time":354.19583333333514,"velocity":0.44881889763779526,"duration":0.16041666666677656},{"name":"E5","midi":76,"time":354.20208333333517,"velocity":0.3700787401574803,"duration":0.1437500000000682},{"name":"B4","midi":71,"time":354.2229166666685,"velocity":0.3937007874015748,"duration":0.13750000000010232},{"name":"A4","midi":69,"time":354.2604166666685,"velocity":0.33070866141732286,"duration":0.1250000000001137},{"name":"C#5","midi":73,"time":354.2635416666685,"velocity":0.30708661417322836,"duration":0.059375000000045475},{"name":"F#4","midi":66,"time":354.38333333333526,"velocity":0.4251968503937008,"duration":0.19791666666668561},{"name":"E4","midi":64,"time":354.53750000000196,"velocity":0.48031496062992124,"duration":0.16770833333328028},{"name":"E5","midi":76,"time":354.55833333333527,"velocity":0.31496062992125984,"duration":0.11770833333332575},{"name":"B4","midi":71,"time":354.5750000000019,"velocity":0.3464566929133858,"duration":0.125},{"name":"A4","midi":69,"time":354.5906250000019,"velocity":0.30708661417322836,"duration":0.1156249999999659},{"name":"C#5","midi":73,"time":354.62500000000193,"velocity":0.2755905511811024,"duration":0.03020833333334849},{"name":"A3","midi":57,"time":354.7114583333352,"velocity":0.4094488188976378,"duration":0.23958333333331439},{"name":"E4","midi":64,"time":354.87187500000186,"velocity":0.4645669291338583,"duration":0.14479166666666288},{"name":"E5","midi":76,"time":354.90000000000185,"velocity":0.2992125984251969,"duration":0.08854166666668561},{"name":"C#5","midi":73,"time":354.9145833333352,"velocity":0.33858267716535434,"duration":0.07187499999997726},{"name":"B4","midi":71,"time":354.9239583333352,"velocity":0.33070866141732286,"duration":0.08437500000002274},{"name":"A4","midi":69,"time":354.92812500000184,"velocity":0.31496062992125984,"duration":0.06458333333335986},{"name":"G#4","midi":68,"time":355.0364583333352,"velocity":0.5590551181102362,"duration":0.140625},{"name":"E4","midi":64,"time":355.1979166666685,"velocity":0.48031496062992124,"duration":0.2114583333333826},{"name":"B4","midi":71,"time":355.2239583333352,"velocity":0.33858267716535434,"duration":0.16770833333339397},{"name":"E5","midi":76,"time":355.2364583333352,"velocity":0.4015748031496063,"duration":0.12187500000004547},{"name":"A4","midi":69,"time":355.25625000000184,"velocity":0.2992125984251969,"duration":0.19270833333337123},{"name":"C#5","midi":73,"time":355.2583333333352,"velocity":0.4015748031496063,"duration":0.1031250000000341},{"name":"A3","midi":57,"time":355.39583333333525,"velocity":0.44881889763779526,"duration":0.29479166666664014},{"name":"E4","midi":64,"time":355.55104166666854,"velocity":0.48031496062992124,"duration":0.16770833333333712},{"name":"E5","midi":76,"time":355.5947916666685,"velocity":0.30708661417322836,"duration":0.08333333333337123},{"name":"C#5","midi":73,"time":355.63750000000186,"velocity":0.29133858267716534,"duration":0.0395833333333826},{"name":"B4","midi":71,"time":355.6395833333352,"velocity":0.25984251968503935,"duration":0.054166666666674246},{"name":"A4","midi":69,"time":355.6468750000019,"velocity":0.14173228346456693,"duration":0.055208333333325754},{"name":"F#4","midi":66,"time":355.7375000000019,"velocity":0.4566929133858268,"duration":0.14687500000002274},{"name":"E4","midi":64,"time":355.88645833333527,"velocity":0.5039370078740157,"duration":0.18645833333340533},{"name":"E5","midi":76,"time":355.92812500000196,"velocity":0.36220472440944884,"duration":0.11041666666665151},{"name":"C#5","midi":73,"time":355.93541666666863,"velocity":0.4251968503937008,"duration":0.11770833333332575},{"name":"B4","midi":71,"time":355.9427083333353,"velocity":0.3937007874015748,"duration":0.1343750000000341},{"name":"A4","midi":69,"time":355.9552083333353,"velocity":0.25984251968503935,"duration":0.1489583333333826},{"name":"A3","midi":57,"time":356.0708333333353,"velocity":0.4566929133858268,"duration":0.2572916666667311},{"name":"E4","midi":64,"time":356.221875000002,"velocity":0.5196850393700787,"duration":0.15312500000004547},{"name":"B4","midi":71,"time":356.271875000002,"velocity":0.2047244094488189,"duration":0.09479166666670835},{"name":"E5","midi":76,"time":356.2739583333354,"velocity":0.2677165354330709,"duration":0.05833333333333712},{"name":"C#5","midi":73,"time":356.2958333333354,"velocity":0.3228346456692913,"duration":0.02812499999998863},{"name":"A4","midi":69,"time":356.3208333333354,"velocity":0.2440944881889764,"duration":0.019791666666662877},{"name":"G#4","midi":68,"time":356.3989583333354,"velocity":0.5905511811023622,"duration":0.12812500000001137},{"name":"E4","midi":64,"time":356.5645833333354,"velocity":0.47244094488188976,"duration":0.1781249999999659},{"name":"B4","midi":71,"time":356.5854166666687,"velocity":0.4409448818897638,"duration":0.15312499999998863},{"name":"E5","midi":76,"time":356.5947916666687,"velocity":0.4330708661417323,"duration":0.12604166666670835},{"name":"C#5","midi":73,"time":356.59687500000206,"velocity":0.5118110236220472,"duration":0.13749999999998863},{"name":"A4","midi":69,"time":356.6052083333354,"velocity":0.4015748031496063,"duration":0.1395833333333485},{"name":"A3","midi":57,"time":356.7468750000021,"velocity":0.48031496062992124,"duration":0.3239583333333371},{"name":"E4","midi":64,"time":356.91458333333543,"velocity":0.5275590551181102,"duration":0.18124999999997726},{"name":"E5","midi":76,"time":356.9500000000021,"velocity":0.36220472440944884,"duration":0.10624999999998863},{"name":"B4","midi":71,"time":356.9552083333354,"velocity":0.30708661417322836,"duration":0.12916666666666288},{"name":"C#5","midi":73,"time":356.96145833333543,"velocity":0.33858267716535434,"duration":0.10208333333332575},{"name":"A4","midi":69,"time":356.9864583333354,"velocity":0.2204724409448819,"duration":0.11041666666665151},{"name":"F#4","midi":66,"time":357.10625000000203,"velocity":0.48031496062992124,"duration":0.1416666666666515},{"name":"E4","midi":64,"time":357.2541666666687,"velocity":0.47244094488188976,"duration":0.16354166666667425},{"name":"E5","midi":76,"time":357.2666666666687,"velocity":0.3779527559055118,"duration":0.11666666666673109},{"name":"C#5","midi":73,"time":357.2729166666687,"velocity":0.44881889763779526,"duration":0.13020833333337123},{"name":"B4","midi":71,"time":357.2750000000021,"velocity":0.48031496062992124,"duration":0.13749999999998863},{"name":"A4","midi":69,"time":357.28541666666877,"velocity":0.30708661417322836,"duration":0.1260416666666515},{"name":"A3","midi":57,"time":357.4302083333354,"velocity":0.4409448818897638,"duration":0.30104166666660603},{"name":"E4","midi":64,"time":357.58333333333536,"velocity":0.5826771653543307,"duration":0.19062500000001137},{"name":"B4","midi":71,"time":357.60833333333534,"velocity":0.4251968503937008,"duration":0.14479166666666288},{"name":"E5","midi":76,"time":357.6177083333353,"velocity":0.3858267716535433,"duration":0.13020833333337123},{"name":"C#5","midi":73,"time":357.62395833333534,"velocity":0.36220472440944884,"duration":0.12187499999998863},{"name":"A4","midi":69,"time":357.628125000002,"velocity":0.25984251968503935,"duration":0.15208333333339397},{"name":"G#4","midi":68,"time":357.7635416666687,"velocity":0.5984251968503937,"duration":0.1395833333333485},{"name":"E4","midi":64,"time":357.92708333333536,"velocity":0.5196850393700787,"duration":0.16458333333332575},{"name":"E5","midi":76,"time":357.9354166666687,"velocity":0.4251968503937008,"duration":0.12916666666666288},{"name":"C#5","midi":73,"time":357.94479166666866,"velocity":0.4645669291338583,"duration":0.1395833333333485},{"name":"B4","midi":71,"time":357.946875000002,"velocity":0.4566929133858268,"duration":0.15104166666668561},{"name":"A4","midi":69,"time":357.9572916666687,"velocity":0.3700787401574803,"duration":0.13645833333333712},{"name":"A3","midi":57,"time":358.1072916666687,"velocity":0.4881889763779528,"duration":0.27187500000002274},{"name":"E4","midi":64,"time":358.2583333333354,"velocity":0.5118110236220472,"duration":0.18229166666668561},{"name":"C#5","midi":73,"time":358.28125000000205,"velocity":0.4094488188976378,"duration":0.16354166666667425},{"name":"E5","midi":76,"time":358.2833333333354,"velocity":0.4409448818897638,"duration":0.1468749999999659},{"name":"B4","midi":71,"time":358.28750000000207,"velocity":0.4330708661417323,"duration":0.1729166666666515},{"name":"A4","midi":69,"time":358.2927083333354,"velocity":0.36220472440944884,"duration":0.16666666666668561},{"name":"F#4","midi":66,"time":358.4364583333354,"velocity":0.5275590551181102,"duration":0.20208333333340533},{"name":"E4","midi":64,"time":358.5927083333354,"velocity":0.5511811023622047,"duration":0.16979166666675383},{"name":"E5","midi":76,"time":358.61041666666875,"velocity":0.4330708661417323,"duration":0.1187500000000341},{"name":"C#5","midi":73,"time":358.62604166666875,"velocity":0.5433070866141733,"duration":0.12604166666670835},{"name":"B4","midi":71,"time":358.6281250000021,"velocity":0.4566929133858268,"duration":0.1395833333333485},{"name":"A4","midi":69,"time":358.6416666666688,"velocity":0.4251968503937008,"duration":0.125},{"name":"A3","midi":57,"time":358.77500000000214,"velocity":0.5039370078740157,"duration":0.23958333333331439},{"name":"E4","midi":64,"time":358.9145833333355,"velocity":0.5590551181102362,"duration":0.16770833333333712},{"name":"C#5","midi":73,"time":358.9510416666688,"velocity":0.3543307086614173,"duration":0.12812500000001137},{"name":"B4","midi":71,"time":358.95208333333545,"velocity":0.4015748031496063,"duration":0.13750000000004547},{"name":"E5","midi":76,"time":358.9604166666688,"velocity":0.36220472440944884,"duration":0.08854166666668561},{"name":"A4","midi":69,"time":358.9666666666688,"velocity":0.3700787401574803,"duration":0.10833333333334849},{"name":"G#4","midi":68,"time":359.0927083333355,"velocity":0.6220472440944882,"duration":0.14479166666666288},{"name":"E4","midi":64,"time":359.2406250000022,"velocity":0.5275590551181102,"duration":0.1802083333333826},{"name":"B4","midi":71,"time":359.26666666666887,"velocity":0.4645669291338583,"duration":0.15625000000005684},{"name":"C#5","midi":73,"time":359.2687500000022,"velocity":0.47244094488188976,"duration":0.14895833333332575},{"name":"A4","midi":69,"time":359.2697916666689,"velocity":0.4015748031496063,"duration":0.15520833333340533},{"name":"E5","midi":76,"time":359.27395833333554,"velocity":0.4094488188976378,"duration":0.11770833333332575},{"name":"A3","midi":57,"time":359.44166666666894,"velocity":0.4645669291338583,"duration":0.28333333333335986},{"name":"E4","midi":64,"time":359.5937500000023,"velocity":0.5354330708661418,"duration":0.18958333333335986},{"name":"C#5","midi":73,"time":359.6145833333356,"velocity":0.44881889763779526,"duration":0.17604166666677656},{"name":"E5","midi":76,"time":359.61875000000225,"velocity":0.4881889763779528,"duration":0.1489583333333826},{"name":"B4","midi":71,"time":359.61875000000225,"velocity":0.4409448818897638,"duration":0.16770833333339397},{"name":"A4","midi":69,"time":359.62916666666894,"velocity":0.3700787401574803,"duration":0.15625000000005684},{"name":"F#4","midi":66,"time":359.788541666669,"velocity":0.5511811023622047,"duration":0.1864583333333485},{"name":"E4","midi":64,"time":359.9302083333357,"velocity":0.6220472440944882,"duration":0.1864583333333485},{"name":"E5","midi":76,"time":359.9552083333357,"velocity":0.3937007874015748,"duration":0.12395833333334849},{"name":"C#5","midi":73,"time":359.9677083333357,"velocity":0.49606299212598426,"duration":0.13125000000002274},{"name":"B4","midi":71,"time":359.97812500000236,"velocity":0.3858267716535433,"duration":0.14479166666671972},{"name":"A4","midi":69,"time":359.9843750000024,"velocity":0.2992125984251969,"duration":0.14583333333337123},{"name":"A3","midi":57,"time":360.1208333333357,"velocity":0.5039370078740157,"duration":0.23124999999998863},{"name":"E4","midi":64,"time":360.27812500000243,"velocity":0.5511811023622047,"duration":0.1791666666666174},{"name":"B4","midi":71,"time":360.3031250000024,"velocity":0.4645669291338583,"duration":0.16770833333333712},{"name":"C#5","midi":73,"time":360.3083333333357,"velocity":0.44881889763779526,"duration":0.1645833333333826},{"name":"E5","midi":76,"time":360.3125000000024,"velocity":0.4330708661417323,"duration":0.14687500000002274},{"name":"A4","midi":69,"time":360.3208333333357,"velocity":0.3937007874015748,"duration":0.14687500000002274},{"name":"G#4","midi":68,"time":360.4458333333357,"velocity":0.6299212598425197,"duration":0.16979166666669698},{"name":"E4","midi":64,"time":360.6072916666691,"velocity":0.5826771653543307,"duration":0.17083333333340533},{"name":"E5","midi":76,"time":360.64270833333575,"velocity":0.3543307086614173,"duration":0.10937500000005684},{"name":"C#5","midi":73,"time":360.6541666666691,"velocity":0.48031496062992124,"duration":0.12083333333339397},{"name":"B4","midi":71,"time":360.6572916666691,"velocity":0.47244094488188976,"duration":0.12916666666671972},{"name":"A4","midi":69,"time":360.65937500000246,"velocity":0.4094488188976378,"duration":0.1500000000000341},{"name":"A3","midi":57,"time":360.79270833333584,"velocity":0.5275590551181102,"duration":0.2614583333333371},{"name":"E4","midi":64,"time":360.94791666666913,"velocity":0.4881889763779528,"duration":0.17083333333340533},{"name":"E5","midi":76,"time":360.97187500000246,"velocity":0.4330708661417323,"duration":0.14583333333342807},{"name":"C#5","midi":73,"time":360.9739583333358,"velocity":0.4645669291338583,"duration":0.1572916666667652},{"name":"B4","midi":71,"time":360.9760416666692,"velocity":0.44881889763779526,"duration":0.15312500000004547},{"name":"A4","midi":69,"time":360.9906250000025,"velocity":0.4094488188976378,"duration":0.13645833333333712},{"name":"F#4","midi":66,"time":361.1156250000025,"velocity":0.5748031496062992,"duration":0.2218750000000682},{"name":"E4","midi":64,"time":361.2697916666692,"velocity":0.5905511811023622,"duration":0.1885416666666515},{"name":"E5","midi":76,"time":361.2927083333359,"velocity":0.4645669291338583,"duration":0.1343750000000341},{"name":"C#5","midi":73,"time":361.31250000000256,"velocity":0.5039370078740157,"duration":0.13125000000002274},{"name":"B4","midi":71,"time":361.31562500000257,"velocity":0.44881889763779526,"duration":0.14270833333330302},{"name":"A4","midi":69,"time":361.31979166666923,"velocity":0.3543307086614173,"duration":0.14583333333331439},{"name":"A3","midi":57,"time":361.4489583333359,"velocity":0.4881889763779528,"duration":0.24583333333328028},{"name":"E4","midi":64,"time":361.6083333333359,"velocity":0.5748031496062992,"duration":0.16145833333325754},{"name":"E5","midi":76,"time":361.6291666666692,"velocity":0.4015748031496063,"duration":0.12708333333330302},{"name":"C#5","midi":73,"time":361.63437500000254,"velocity":0.5433070866141733,"duration":0.13749999999998863},{"name":"B4","midi":71,"time":361.6385416666692,"velocity":0.49606299212598426,"duration":0.1489583333333826},{"name":"A4","midi":69,"time":361.65833333333586,"velocity":0.3700787401574803,"duration":0.11562500000002274},{"name":"G#4","midi":68,"time":361.7802083333359,"velocity":0.6456692913385826,"duration":0.15625},{"name":"E4","midi":64,"time":361.94270833333593,"velocity":0.5590551181102362,"duration":0.19062499999995453},{"name":"C#5","midi":73,"time":361.9593750000026,"velocity":0.48031496062992124,"duration":0.16666666666662877},{"name":"B4","midi":71,"time":361.9677083333359,"velocity":0.4881889763779528,"duration":0.16979166666664014},{"name":"A4","midi":69,"time":361.9708333333359,"velocity":0.41732283464566927,"duration":0.1729166666666515},{"name":"E5","midi":76,"time":361.9750000000026,"velocity":0.4566929133858268,"duration":0.13020833333331439},{"name":"A3","midi":57,"time":362.1312500000025,"velocity":0.49606299212598426,"duration":0.26770833333335986},{"name":"E4","midi":64,"time":362.2854166666692,"velocity":0.5590551181102362,"duration":0.1729166666666515},{"name":"E5","midi":76,"time":362.2979166666692,"velocity":0.4094488188976378,"duration":0.15104166666668561},{"name":"C#5","midi":73,"time":362.30000000000257,"velocity":0.5039370078740157,"duration":0.16354166666667425},{"name":"B4","midi":71,"time":362.3052083333359,"velocity":0.5275590551181102,"duration":0.1645833333333826},{"name":"A4","midi":69,"time":362.3187500000025,"velocity":0.47244094488188976,"duration":0.15416666666675383},{"name":"F#4","midi":66,"time":362.4614583333359,"velocity":0.5433070866141733,"duration":0.18750000000005684},{"name":"E4","midi":64,"time":362.6218750000026,"velocity":0.5433070866141733,"duration":0.17187500000005684},{"name":"E5","midi":76,"time":362.6343750000026,"velocity":0.4251968503937008,"duration":0.14583333333337123},{"name":"C#5","midi":73,"time":362.63854166666925,"velocity":0.5275590551181102,"duration":0.16250000000007958},{"name":"B4","midi":71,"time":362.6447916666693,"velocity":0.47244094488188976,"duration":0.1635416666667311},{"name":"A4","midi":69,"time":362.6510416666693,"velocity":0.4251968503937008,"duration":0.1645833333333826},{"name":"A3","midi":57,"time":362.783333333336,"velocity":0.5039370078740157,"duration":0.2427083333333826},{"name":"E4","midi":64,"time":362.94479166666935,"velocity":0.5511811023622047,"duration":0.16250000000002274},{"name":"E5","midi":76,"time":362.95729166666933,"velocity":0.4330708661417323,"duration":0.12812500000001137},{"name":"C#5","midi":73,"time":362.9666666666693,"velocity":0.5433070866141733,"duration":0.1437500000000682},{"name":"B4","midi":71,"time":362.97812500000265,"velocity":0.5118110236220472,"duration":0.14583333333342807},{"name":"A4","midi":69,"time":362.98854166666933,"velocity":0.4094488188976378,"duration":0.12187500000004547},{"name":"G#4","midi":68,"time":363.11250000000274,"velocity":0.6456692913385826,"duration":0.14270833333335986},{"name":"E4","midi":64,"time":363.26666666666944,"velocity":0.5354330708661418,"duration":0.19270833333337123},{"name":"E5","midi":76,"time":363.2843750000028,"velocity":0.4409448818897638,"duration":0.15416666666669698},{"name":"A4","midi":69,"time":363.2937500000028,"velocity":0.44881889763779526,"duration":0.18645833333340533},{"name":"C#5","midi":73,"time":363.29583333333613,"velocity":0.47244094488188976,"duration":0.17291666666670835},{"name":"B4","midi":71,"time":363.2979166666695,"velocity":0.49606299212598426,"duration":0.16874999999998863},{"name":"A3","midi":57,"time":363.4510416666695,"velocity":0.5275590551181102,"duration":0.27500000000009095},{"name":"E4","midi":64,"time":363.6114583333362,"velocity":0.5590551181102362,"duration":0.18541666666675383},{"name":"E5","midi":76,"time":363.62812500000285,"velocity":0.44881889763779526,"duration":0.1479166666667311},{"name":"B4","midi":71,"time":363.64687500000286,"velocity":0.49606299212598426,"duration":0.1572916666667652},{"name":"C#5","midi":73,"time":363.6489583333362,"velocity":0.5590551181102362,"duration":0.14166666666670835},{"name":"A4","midi":69,"time":363.6562500000029,"velocity":0.4409448818897638,"duration":0.15208333333339397},{"name":"F#4","midi":66,"time":363.7875000000029,"velocity":0.5748031496062992,"duration":0.203125},{"name":"E4","midi":64,"time":363.94791666666964,"velocity":0.5905511811023622,"duration":0.18541666666664014},{"name":"E5","midi":76,"time":363.9614583333363,"velocity":0.4566929133858268,"duration":0.14374999999995453},{"name":"C#5","midi":73,"time":363.9666666666696,"velocity":0.5275590551181102,"duration":0.15520833333329165},{"name":"B4","midi":71,"time":363.9718750000029,"velocity":0.5354330708661418,"duration":0.15937500000001137},{"name":"A4","midi":69,"time":363.9916666666696,"velocity":0.4409448818897638,"duration":0.1489583333333826},{"name":"A3","midi":57,"time":364.12916666666956,"velocity":0.5354330708661418,"duration":0.2510416666667652},{"name":"E4","midi":64,"time":364.28854166666963,"velocity":0.6062992125984252,"duration":0.17708333333337123},{"name":"E5","midi":76,"time":364.30729166666964,"velocity":0.3779527559055118,"duration":0.14166666666670835},{"name":"C#5","midi":73,"time":364.31250000000296,"velocity":0.49606299212598426,"duration":0.1489583333333826},{"name":"B4","midi":71,"time":364.3166666666696,"velocity":0.48031496062992124,"duration":0.1437500000000682},{"name":"A4","midi":69,"time":364.3270833333363,"velocity":0.4409448818897638,"duration":0.20937500000007958},{"name":"G#4","midi":68,"time":364.471875000003,"velocity":0.5984251968503937,"duration":0.14687500000002274},{"name":"E4","midi":64,"time":364.61562500000304,"velocity":0.5275590551181102,"duration":0.17812500000019327},{"name":"A4","midi":69,"time":364.6364583333364,"velocity":0.25196850393700787,"duration":0.15833333333347355},{"name":"B4","midi":71,"time":364.6395833333364,"velocity":0.47244094488188976,"duration":0.15000000000009095},{"name":"E5","midi":76,"time":364.6416666666698,"velocity":0.4330708661417323,"duration":0.12916666666671972},{"name":"C#5","midi":73,"time":364.64375000000314,"velocity":0.48031496062992124,"duration":0.1479166666667311},{"name":"A3","midi":57,"time":364.8010416666699,"velocity":0.5118110236220472,"duration":0.3041666666667311},{"name":"E4","midi":64,"time":364.95937500000326,"velocity":0.5196850393700787,"duration":0.18437499999998863},{"name":"A4","midi":69,"time":364.9791666666699,"velocity":0.4881889763779528,"duration":0.17708333333331439},{"name":"B4","midi":71,"time":364.9812500000033,"velocity":0.47244094488188976,"duration":0.17708333333331439},{"name":"E5","midi":76,"time":364.9843750000033,"velocity":0.44881889763779526,"duration":0.15104166666662877},{"name":"C#5","midi":73,"time":364.98541666666995,"velocity":0.4330708661417323,"duration":0.16666666666662877},{"name":"F#4","midi":66,"time":365.12604166666995,"velocity":0.5669291338582677,"duration":0.19687499999997726},{"name":"E4","midi":64,"time":365.2895833333366,"velocity":0.5984251968503937,"duration":0.16770833333328028},{"name":"E5","midi":76,"time":365.2989583333366,"velocity":0.4645669291338583,"duration":0.1416666666666515},{"name":"B4","midi":71,"time":365.31250000000324,"velocity":0.5118110236220472,"duration":0.1552083333333485},{"name":"C#5","midi":73,"time":365.31562500000325,"velocity":0.5669291338582677,"duration":0.14583333333331439},{"name":"A4","midi":69,"time":365.32604166666994,"velocity":0.4566929133858268,"duration":0.140625},{"name":"A3","midi":57,"time":365.4645833333366,"velocity":0.5039370078740157,"duration":0.1906250000000682},{"name":"E4","midi":64,"time":365.6187500000033,"velocity":0.5511811023622047,"duration":0.15833333333335986},{"name":"C#5","midi":73,"time":365.6270833333366,"velocity":0.5118110236220472,"duration":0.17187500000005684},{"name":"E5","midi":76,"time":365.6333333333366,"velocity":0.47244094488188976,"duration":0.15104166666668561},{"name":"A4","midi":69,"time":365.63645833333663,"velocity":0.4645669291338583,"duration":0.14687500000002274},{"name":"B4","midi":71,"time":365.64479166666996,"velocity":0.5275590551181102,"duration":0.15104166666668561},{"name":"G#4","midi":68,"time":365.78020833333665,"velocity":0.6614173228346457,"duration":0.13749999999998863},{"name":"E4","midi":64,"time":365.9427083333366,"velocity":0.5433070866141733,"duration":0.1895833333334167},{"name":"E5","midi":76,"time":365.96041666666997,"velocity":0.4409448818897638,"duration":0.14583333333337123},{"name":"C#5","midi":73,"time":365.96250000000333,"velocity":0.5669291338582677,"duration":0.1791666666667311},{"name":"A4","midi":69,"time":365.96250000000333,"velocity":0.47244094488188976,"duration":0.18437500000010232},{"name":"B4","midi":71,"time":365.96562500000334,"velocity":0.5433070866141733,"duration":0.17812500000007958},{"name":"A3","midi":57,"time":366.13854166667005,"velocity":0.5275590551181102,"duration":0.2645833333333485},{"name":"E4","midi":64,"time":366.2968750000034,"velocity":0.5511811023622047,"duration":0.16562499999997726},{"name":"B4","midi":71,"time":366.3177083333367,"velocity":0.5196850393700787,"duration":0.16666666666674246},{"name":"C#5","midi":73,"time":366.3218750000034,"velocity":0.5511811023622047,"duration":0.1635416666667311},{"name":"E5","midi":76,"time":366.3218750000034,"velocity":0.4881889763779528,"duration":0.14270833333335986},{"name":"A4","midi":69,"time":366.32291666667004,"velocity":0.5039370078740157,"duration":0.1593750000000682},{"name":"F#4","midi":66,"time":366.46770833333676,"velocity":0.6220472440944882,"duration":0.17604166666677656},{"name":"E4","midi":64,"time":366.6281250000035,"velocity":0.5826771653543307,"duration":0.16041666666671972},{"name":"E5","midi":76,"time":366.63541666667015,"velocity":0.48031496062992124,"duration":0.15104166666668561},{"name":"C#5","midi":73,"time":366.6416666666702,"velocity":0.5748031496062992,"duration":0.17812500000002274},{"name":"B4","midi":71,"time":366.6479166666702,"velocity":0.5275590551181102,"duration":0.17395833333335986},{"name":"A4","midi":69,"time":366.6531250000035,"velocity":0.4566929133858268,"duration":0.1656250000000341},{"name":"A3","midi":57,"time":366.79270833333686,"velocity":0.5275590551181102,"duration":0.38645833333339397},{"name":"E4","midi":64,"time":366.9645833333369,"velocity":0.5433070866141733,"duration":0.12916666666666288},{"name":"E5","midi":76,"time":366.9770833333369,"velocity":0.5275590551181102,"duration":0.1343750000000341},{"name":"C#5","midi":73,"time":366.97916666667027,"velocity":0.5826771653543307,"duration":0.15416666666664014},{"name":"A4","midi":69,"time":366.98645833333694,"velocity":0.48031496062992124,"duration":0.22291666666666288},{"name":"B4","midi":71,"time":366.9875000000036,"velocity":0.5275590551181102,"duration":0.1395833333333485},{"name":"G#4","midi":68,"time":367.1281250000036,"velocity":0.6062992125984252,"duration":0.11562500000002274},{"name":"E4","midi":64,"time":367.2718750000036,"velocity":0.5748031496062992,"duration":0.15312500000004547},{"name":"E5","midi":76,"time":367.2791666666703,"velocity":0.5039370078740157,"duration":0.15833333333335986},{"name":"A4","midi":69,"time":367.2854166666703,"velocity":0.31496062992125984,"duration":0.19166666666671972},{"name":"C#5","midi":73,"time":367.2916666666703,"velocity":0.6062992125984252,"duration":0.1708333333333485},{"name":"B4","midi":71,"time":367.3041666666703,"velocity":0.5354330708661418,"duration":0.15625},{"name":"A3","midi":57,"time":367.4343750000036,"velocity":0.5669291338582677,"duration":0.30625000000009095},{"name":"E4","midi":64,"time":367.62083333333703,"velocity":0.5118110236220472,"duration":0.140625},{"name":"E5","midi":76,"time":367.6312500000037,"velocity":0.4566929133858268,"duration":0.16874999999998863},{"name":"A4","midi":69,"time":367.6385416666704,"velocity":0.49606299212598426,"duration":0.14999999999997726},{"name":"B4","midi":71,"time":367.6541666666704,"velocity":0.48031496062992124,"duration":0.16250000000002274},{"name":"C#5","midi":73,"time":367.66145833333707,"velocity":0.47244094488188976,"duration":0.0843749999999659},{"name":"F#4","midi":66,"time":367.80208333333707,"velocity":0.4881889763779528,"duration":0.040625000000034106},{"name":"E4","midi":64,"time":368.51354166667045,"velocity":0.10236220472440945,"duration":18.12708333333319},{"name":"B4","midi":71,"time":368.5843750000038,"velocity":0.15748031496062992,"duration":17.855208333333223}],"controlChanges":{"64":[{"number":64,"time":0.55625,"value":0.10236220472440945},{"number":64,"time":0.5572916666666667,"value":0.10236220472440945},{"number":64,"time":0.5677083333333334,"value":0.2047244094488189},{"number":64,"time":0.5687500000000001,"value":0.2047244094488189},{"number":64,"time":0.5916666666666668,"value":0.33070866141732286},{"number":64,"time":0.5927083333333335,"value":0.33070866141732286},{"number":64,"time":0.6958333333333335,"value":0.44881889763779526},{"number":64,"time":0.6968750000000002,"value":0.44881889763779526},{"number":64,"time":0.7114583333333335,"value":0.48031496062992124},{"number":64,"time":0.7125000000000002,"value":0.48031496062992124},{"number":64,"time":0.791666666666667,"value":0.5118110236220472},{"number":64,"time":0.7927083333333337,"value":0.5118110236220472},{"number":64,"time":0.8718750000000004,"value":0.5433070866141733},{"number":64,"time":0.8729166666666671,"value":0.5433070866141733},{"number":64,"time":0.9281250000000004,"value":0.5748031496062992},{"number":64,"time":0.9291666666666671,"value":0.5748031496062992},{"number":64,"time":1.051041666666667,"value":0.6062992125984252},{"number":64,"time":1.0520833333333337,"value":0.6062992125984252},{"number":64,"time":1.4552083333333337,"value":0.6377952755905512},{"number":64,"time":1.4562500000000003,"value":0.6377952755905512},{"number":64,"time":202.2583333333333,"value":0.6062992125984252},{"number":64,"time":202.2583333333333,"value":0.6062992125984252},{"number":64,"time":369.65625000000375,"value":0.5748031496062992},{"number":64,"time":369.6572916666704,"value":0.5748031496062992},{"number":64,"time":369.8031250000037,"value":0.5433070866141733},{"number":64,"time":369.8031250000037,"value":0.5433070866141733},{"number":64,"time":370.1875000000037,"value":0.5118110236220472},{"number":64,"time":370.18854166667035,"value":0.5118110236220472},{"number":64,"time":370.427083333337,"value":0.48031496062992124},{"number":64,"time":370.427083333337,"value":0.48031496062992124},{"number":64,"time":370.97604166667037,"value":0.3779527559055118},{"number":64,"time":370.977083333337,"value":0.3779527559055118},{"number":64,"time":373.3468750000037,"value":0.2755905511811024},{"number":64,"time":373.34791666667036,"value":0.2755905511811024},{"number":64,"time":378.6031250000037,"value":0.18110236220472442},{"number":64,"time":378.6031250000037,"value":0.18110236220472442},{"number":64,"time":379.29791666667035,"value":0.07874015748031496},{"number":64,"time":379.298958333337,"value":0.07874015748031496},{"number":64,"time":379.389583333337,"value":0},{"number":64,"time":379.39062500000364,"value":0}]},"id":0,"name":"MIDI from piano","channelNumber":0,"isPercussion":false}]}