{"header":{"PPQ":480,"timeSignature":[4,4],"bpm":120,"name":""},"startTime":155.27395833333338,"duration":280.5625000000216,"tracks":[{"startTime":155.27395833333338,"duration":280.5625000000216,"length":1025,"notes":[{"name":"A3","midi":57,"time":155.27395833333338,"velocity":0.30708661417322836,"duration":0.15625000000005684},{"name":"E4","midi":64,"time":155.3875000000001,"velocity":0.31496062992125984,"duration":0.13229166666670267},{"name":"C5","midi":72,"time":155.53020833333346,"velocity":0.29133858267716534,"duration":0.027083333333337123},{"name":"F4","midi":65,"time":155.59687500000013,"velocity":0.4015748031496063,"duration":0.053124999999994316},{"name":"A3","midi":57,"time":155.70833333333346,"velocity":0.33858267716535434,"duration":0.1979166666666572},{"name":"E4","midi":64,"time":155.81145833333346,"velocity":0.29133858267716534,"duration":0.07499999999998863},{"name":"C5","midi":72,"time":155.97916666666677,"velocity":0.25984251968503935,"duration":0.01458333333332007},{"name":"F4","midi":65,"time":156.05104166666675,"velocity":0.25196850393700787,"duration":0.04270833333333712},{"name":"A3","midi":57,"time":156.14166666666677,"velocity":0.31496062992125984,"duration":0.22395833333331439},{"name":"E4","midi":64,"time":156.2437500000001,"velocity":0.36220472440944884,"duration":0.09270833333332007},{"name":"C5","midi":72,"time":156.42395833333342,"velocity":0.25984251968503935,"duration":0.015625},{"name":"F4","midi":65,"time":156.4989583333334,"velocity":0.28346456692913385,"duration":0.04583333333332007},{"name":"A3","midi":57,"time":156.57812500000006,"velocity":0.31496062992125984,"duration":0.18437499999998863},{"name":"E4","midi":64,"time":156.6895833333334,"velocity":0.30708661417322836,"duration":0.08229166666666288},{"name":"C5","midi":72,"time":156.83333333333337,"velocity":0.33858267716535434,"duration":0.06562500000001137},{"name":"F4","midi":65,"time":156.9177083333334,"velocity":0.3543307086614173,"duration":0.06458333333333144},{"name":"A3","midi":57,"time":157.02187500000005,"velocity":0.3858267716535433,"duration":0.22916666666668561},{"name":"E4","midi":64,"time":157.12395833333338,"velocity":0.36220472440944884,"duration":0.08958333333336554},{"name":"C5","midi":72,"time":157.27500000000006,"velocity":0.28346456692913385,"duration":0.09270833333334849},{"name":"A4","midi":69,"time":157.39791666666673,"velocity":0.3228346456692913,"duration":0.038541666666674246},{"name":"A3","midi":57,"time":157.46354166666674,"velocity":0.2677165354330709,"duration":0.18437500000001705},{"name":"E4","midi":64,"time":157.5708333333334,"velocity":0.33858267716535434,"duration":0.08541666666667425},{"name":"C5","midi":72,"time":157.68958333333342,"velocity":0.3937007874015748,"duration":0.11250000000001137},{"name":"A4","midi":69,"time":157.82083333333344,"velocity":0.3543307086614173,"duration":0.053124999999994316},{"name":"A3","midi":57,"time":157.90833333333345,"velocity":0.4251968503937008,"duration":0.22291666666671972},{"name":"E4","midi":64,"time":158.0177083333335,"velocity":0.2992125984251969,"duration":0.09166666666666856},{"name":"C5","midi":72,"time":158.12291666666684,"velocity":0.3700787401574803,"duration":0.10208333333332575},{"name":"A4","midi":69,"time":158.25729166666684,"velocity":0.3464566929133858,"duration":0.05000000000001137},{"name":"A3","midi":57,"time":158.34270833333352,"velocity":0.3543307086614173,"duration":0.18020833333332575},{"name":"E4","midi":64,"time":158.44479166666684,"velocity":0.31496062992125984,"duration":0.08541666666667425},{"name":"C5","midi":72,"time":158.5687500000002,"velocity":0.4094488188976378,"duration":0.09270833333332007},{"name":"A4","midi":69,"time":158.70208333333352,"velocity":0.3543307086614173,"duration":0.04583333333332007},{"name":"G3","midi":55,"time":158.78229166666685,"velocity":0.4409448818897638,"duration":0.24270833333343944},{"name":"E4","midi":64,"time":158.90208333333362,"velocity":0.3228346456692913,"duration":0.16979166666666856},{"name":"C5","midi":72,"time":158.99895833333363,"velocity":0.3700787401574803,"duration":0.10729166666666856},{"name":"A4","midi":69,"time":159.15208333333362,"velocity":0.30708661417322836,"duration":0.037499999999994316},{"name":"G3","midi":55,"time":159.23020833333362,"velocity":0.29133858267716534,"duration":0.20625000000001137},{"name":"E4","midi":64,"time":159.35729166666695,"velocity":0.2755905511811024,"duration":0.07395833333333712},{"name":"C5","midi":72,"time":159.47083333333364,"velocity":0.33858267716535434,"duration":0.07187500000000568},{"name":"A4","midi":69,"time":159.60312500000032,"velocity":0.30708661417322836,"duration":0.022916666666674246},{"name":"G3","midi":55,"time":159.68437500000033,"velocity":0.4015748031496063,"duration":0.20729166666666288},{"name":"E4","midi":64,"time":159.801041666667,"velocity":0.2677165354330709,"duration":0.10416666666665719},{"name":"C5","midi":72,"time":159.92187500000034,"velocity":0.3464566929133858,"duration":0.06354166666667993},{"name":"A4","midi":69,"time":160.01875000000035,"velocity":0.3543307086614173,"duration":0.06041666666666856},{"name":"G3","midi":55,"time":160.11979166666703,"velocity":0.3858267716535433,"duration":0.203125},{"name":"E4","midi":64,"time":160.25416666666703,"velocity":0.2677165354330709,"duration":0.05937499999998863},{"name":"C5","midi":72,"time":160.33854166666703,"velocity":0.3937007874015748,"duration":0.10312500000000568},{"name":"A4","midi":69,"time":160.45937500000036,"velocity":0.33858267716535434,"duration":0.06874999999999432},{"name":"G3","midi":55,"time":160.5395833333337,"velocity":0.3937007874015748,"duration":0.25625000000002274},{"name":"E4","midi":64,"time":160.67083333333375,"velocity":0.2992125984251969,"duration":0.1052083333333087},{"name":"B4","midi":71,"time":160.81145833333372,"velocity":0.2755905511811024,"duration":0.05729166666665719},{"name":"A4","midi":69,"time":160.9302083333337,"velocity":0.30708661417322836,"duration":0.02916666666666856},{"name":"G3","midi":55,"time":161.0083333333337,"velocity":0.3464566929133858,"duration":0.1854166666667254},{"name":"E4","midi":64,"time":161.13854166666707,"velocity":0.25984251968503935,"duration":0.06875000000002274},{"name":"B4","midi":71,"time":161.2385416666671,"velocity":0.3858267716535433,"duration":0.10520833333333712},{"name":"A4","midi":69,"time":161.40520833333377,"velocity":0.30708661417322836,"duration":0.03229166666667993},{"name":"G3","midi":55,"time":161.45104166666712,"velocity":0.4094488188976378,"duration":0.19375000000005116},{"name":"E4","midi":64,"time":161.56979166666716,"velocity":0.31496062992125984,"duration":0.08333333333334281},{"name":"B4","midi":71,"time":161.68125000000052,"velocity":0.3858267716535433,"duration":0.08541666666667425},{"name":"A4","midi":69,"time":161.80312500000053,"velocity":0.36220472440944884,"duration":0.05937500000001705},{"name":"G3","midi":55,"time":161.89791666666721,"velocity":0.3937007874015748,"duration":0.1708333333333769},{"name":"E4","midi":64,"time":162.00833333333392,"velocity":0.3937007874015748,"duration":0.10312500000000568},{"name":"B4","midi":71,"time":162.12083333333393,"velocity":0.41732283464566927,"duration":0.10624999999998863},{"name":"A4","midi":69,"time":162.2552083333339,"velocity":0.4645669291338583,"duration":0.056250000000005684},{"name":"F3","midi":53,"time":162.3500000000006,"velocity":0.5039370078740157,"duration":0.2822916666668789},{"name":"E4","midi":64,"time":162.45000000000073,"velocity":0.4094488188976378,"duration":0.19270833333342807},{"name":"B4","midi":71,"time":162.57916666666745,"velocity":0.4015748031496063,"duration":0.09583333333338828},{"name":"F4","midi":65,"time":162.67812500000085,"velocity":0.4330708661417323,"duration":0.06562500000001137},{"name":"F3","midi":53,"time":162.80104166666752,"velocity":0.4330708661417323,"duration":0.1875000000001137},{"name":"E4","midi":64,"time":162.9125000000009,"velocity":0.3464566929133858,"duration":0.09583333333338828},{"name":"B4","midi":71,"time":163.06145833333431,"velocity":0.36220472440944884,"duration":0.05937499999998863},{"name":"F4","midi":65,"time":163.1302083333343,"velocity":0.3543307086614173,"duration":0.06770833333334281},{"name":"F3","midi":53,"time":163.23125000000098,"velocity":0.3700787401574803,"duration":0.20208333333340533},{"name":"E4","midi":64,"time":163.36875000000103,"velocity":0.29133858267716534,"duration":0.07500000000001705},{"name":"B4","midi":71,"time":163.4927083333344,"velocity":0.3700787401574803,"duration":0.08333333333334281},{"name":"F4","midi":65,"time":163.6062500000011,"velocity":0.30708661417322836,"duration":0.04270833333333712},{"name":"F3","midi":53,"time":163.6843750000011,"velocity":0.3779527559055118,"duration":0.2104166666667595},{"name":"E4","midi":64,"time":163.82291666666785,"velocity":0.2992125984251969,"duration":0.07187500000000568},{"name":"B4","midi":71,"time":163.94270833333454,"velocity":0.33858267716535434,"duration":0.0822916666666913},{"name":"F4","midi":65,"time":164.02187500000122,"velocity":0.3464566929133858,"duration":0.06250000000002842},{"name":"F3","midi":53,"time":164.12395833333457,"velocity":0.4015748031496063,"duration":0.27500000000009095},{"name":"E4","midi":64,"time":164.28437500000132,"velocity":0.2204724409448819,"duration":0.14270833333333144},{"name":"A4","midi":69,"time":164.3531250000013,"velocity":0.36220472440944884,"duration":0.1593750000000398},{"name":"F4","midi":65,"time":164.491666666668,"velocity":0.23622047244094488,"duration":0.04895833333333144},{"name":"F3","midi":53,"time":164.56875000000136,"velocity":0.3858267716535433,"duration":0.2187500000001137},{"name":"E4","midi":64,"time":164.72812500000146,"velocity":0.2755905511811024,"duration":0.07187500000000568},{"name":"A4","midi":69,"time":164.81250000000145,"velocity":0.3464566929133858,"duration":0.09687500000001137},{"name":"F4","midi":65,"time":164.89791666666812,"velocity":0.2755905511811024,"duration":0.06562500000001137},{"name":"F3","midi":53,"time":165.01145833333482,"velocity":0.3937007874015748,"duration":0.25937500000009095},{"name":"E4","midi":64,"time":165.17187500000156,"velocity":0.25196850393700787,"duration":0.08333333333334281},{"name":"A4","midi":69,"time":165.26250000000158,"velocity":0.3700787401574803,"duration":0.08645833333335418},{"name":"F4","midi":65,"time":165.3531250000016,"velocity":0.31496062992125984,"duration":0.06562500000001137},{"name":"F3","midi":53,"time":165.45625000000166,"velocity":0.3937007874015748,"duration":0.32916666666670835},{"name":"E4","midi":64,"time":165.5729166666684,"velocity":0.33858267716535434,"duration":0.13124999999999432},{"name":"A4","midi":69,"time":165.71041666666838,"velocity":0.36220472440944884,"duration":0.07708333333332007},{"name":"F4","midi":65,"time":165.79479166666837,"velocity":0.3779527559055118,"duration":0.06666666666666288},{"name":"G3","midi":55,"time":165.90416666666837,"velocity":0.47244094488188976,"duration":0.2822916666668789},{"name":"D4","midi":62,"time":166.0229166666685,"velocity":0.3937007874015748,"duration":0.303125000000108},{"name":"A4","midi":69,"time":166.13645833333524,"velocity":0.36220472440944884,"duration":0.08854166666668561},{"name":"F4","midi":65,"time":166.2229166666686,"velocity":0.3543307086614173,"duration":0.06458333333333144},{"name":"G3","midi":55,"time":166.3541666666686,"velocity":0.3858267716535433,"duration":0.17812499999999432},{"name":"D4","midi":62,"time":166.50312500000192,"velocity":0.29133858267716534,"duration":0.054166666666674246},{"name":"A4","midi":69,"time":166.54895833333526,"velocity":0.36220472440944884,"duration":0.10520833333333712},{"name":"F4","midi":65,"time":166.6885416666686,"velocity":0.25196850393700787,"duration":0.03229166666667993},{"name":"G3","midi":55,"time":166.7552083333353,"velocity":0.4015748031496063,"duration":0.24791666666675383},{"name":"D4","midi":62,"time":166.88229166666872,"velocity":0.4015748031496063,"duration":0.12604166666667993},{"name":"A4","midi":69,"time":167.00000000000205,"velocity":0.4015748031496063,"duration":0.08854166666668561},{"name":"F4","midi":65,"time":167.10312500000205,"velocity":0.3464566929133858,"duration":0.07187500000000568},{"name":"G3","midi":55,"time":167.2000000000021,"velocity":0.4094488188976378,"duration":0.20000000000004547},{"name":"D4","midi":62,"time":167.31875000000215,"velocity":0.33858267716535434,"duration":0.10937499999997158},{"name":"A4","midi":69,"time":167.4354166666688,"velocity":0.3779527559055118,"duration":0.11354166666666288},{"name":"F4","midi":65,"time":167.5354166666688,"velocity":0.3937007874015748,"duration":0.06979166666667425},{"name":"G3","midi":55,"time":167.64166666666884,"velocity":0.4330708661417323,"duration":0.2500000000002274},{"name":"D4","midi":62,"time":167.73333333333565,"velocity":0.3937007874015748,"duration":0.1947916666667595},{"name":"C5","midi":72,"time":167.87083333333572,"velocity":0.4330708661417323,"duration":0.09687500000003979},{"name":"F4","midi":65,"time":167.9854166666691,"velocity":0.3464566929133858,"duration":0.06770833333334281},{"name":"G3","midi":55,"time":168.08333333333576,"velocity":0.4094488188976378,"duration":0.15833333333333144},{"name":"D4","midi":62,"time":168.21562500000243,"velocity":0.36220472440944884,"duration":0.06666666666666288},{"name":"C5","midi":72,"time":168.34583333333578,"velocity":0.4881889763779528,"duration":0.08437499999999432},{"name":"F4","midi":65,"time":168.44687500000245,"velocity":0.3779527559055118,"duration":0.06562500000001137},{"name":"G3","midi":55,"time":168.54583333333582,"velocity":0.4330708661417323,"duration":0.2437500000001478},{"name":"D4","midi":62,"time":168.66875000000258,"velocity":0.4015748031496063,"duration":0.13541666666674246},{"name":"B4","midi":71,"time":168.77812500000263,"velocity":0.4645669291338583,"duration":0.10833333333334849},{"name":"F4","midi":65,"time":168.89270833333597,"velocity":0.4251968503937008,"duration":0.056250000000005684},{"name":"G3","midi":55,"time":168.97083333333597,"velocity":0.4094488188976378,"duration":0.2802083333334622},{"name":"D4","midi":62,"time":169.11875000000273,"velocity":0.4015748031496063,"duration":0.11562500000002274},{"name":"B4","midi":71,"time":169.1979166666694,"velocity":0.48031496062992124,"duration":0.12812500000001137},{"name":"F4","midi":65,"time":169.31250000000276,"velocity":0.44881889763779526,"duration":0.06458333333333144},{"name":"A3","midi":57,"time":169.42812500000275,"velocity":0.5039370078740157,"duration":0.2593750000001478},{"name":"E4","midi":64,"time":169.55520833333614,"velocity":0.3779527559055118,"duration":0.19270833333342807},{"name":"C5","midi":72,"time":169.6812500000029,"velocity":0.44881889763779526,"duration":0.05729166666665719},{"name":"F4","midi":65,"time":169.83020833333623,"velocity":0.2125984251968504,"duration":0.023958333333325754},{"name":"A3","midi":57,"time":169.8656250000029,"velocity":0.3700787401574803,"duration":0.22291666666674814},{"name":"E4","midi":64,"time":170.01666666666958,"velocity":0.31496062992125984,"duration":0.1270833333334167},{"name":"C5","midi":72,"time":170.15729166666966,"velocity":0.2440944881889764,"duration":0.008333333333354176},{"name":"F4","midi":65,"time":170.2041666666697,"velocity":0.2677165354330709,"duration":0.08125000000001137},{"name":"A3","midi":57,"time":170.32187500000305,"velocity":0.4094488188976378,"duration":0.2072916666666913},{"name":"E4","midi":64,"time":170.43229166666973,"velocity":0.3543307086614173,"duration":0.08333333333334281},{"name":"C5","midi":72,"time":170.58020833333643,"velocity":0.2677165354330709,"duration":0.010416666666657193},{"name":"F4","midi":65,"time":170.62395833333642,"velocity":0.3858267716535433,"duration":0.08020833333333144},{"name":"A3","midi":57,"time":170.75729166666977,"velocity":0.4251968503937008,"duration":0.20416666666673677},{"name":"E4","midi":64,"time":170.90729166666983,"velocity":0.2755905511811024,"duration":0.06145833333334849},{"name":"C5","midi":72,"time":171.01250000000317,"velocity":0.3464566929133858,"duration":0.056250000000005684},{"name":"F4","midi":65,"time":171.09375000000315,"velocity":0.3779527559055118,"duration":0.06874999999999432},{"name":"A3","midi":57,"time":171.19583333333648,"velocity":0.44881889763779526,"duration":0.15833333333338828},{"name":"E4","midi":64,"time":171.28229166666986,"velocity":0.3464566929133858,"duration":0.11250000000003979},{"name":"C5","midi":72,"time":171.39687500000323,"velocity":0.3464566929133858,"duration":0.08229166666666288},{"name":"A4","midi":69,"time":171.50208333333657,"velocity":0.4409448818897638,"duration":0.07187500000000568},{"name":"A3","midi":57,"time":171.60312500000325,"velocity":0.33858267716535434,"duration":0.2593750000001478},{"name":"E4","midi":64,"time":171.7031250000033,"velocity":0.3700787401574803,"duration":0.17500000000009663},{"name":"C5","midi":72,"time":171.8302083333367,"velocity":0.41732283464566927,"duration":0.08333333333334281},{"name":"A4","midi":69,"time":171.9395833333367,"velocity":0.3937007874015748,"duration":0.06875000000002274},{"name":"A3","midi":57,"time":172.03854166667008,"velocity":0.4645669291338583,"duration":0.20833333333348492},{"name":"E4","midi":64,"time":172.1760416666702,"velocity":0.4330708661417323,"duration":0.10625000000004547},{"name":"C5","midi":72,"time":172.2802083333369,"velocity":0.48031496062992124,"duration":0.09270833333332007},{"name":"A4","midi":69,"time":172.40729166667023,"velocity":0.4094488188976378,"duration":0.059375000000045475},{"name":"A3","midi":57,"time":172.4947916666703,"velocity":0.47244094488188976,"duration":0.14479166666674814},{"name":"E4","midi":64,"time":172.62291666667036,"velocity":0.4015748031496063,"duration":0.109375},{"name":"C5","midi":72,"time":172.69479166667037,"velocity":0.5196850393700787,"duration":0.109375},{"name":"A4","midi":69,"time":172.81666666667036,"velocity":0.48031496062992124,"duration":0.06458333333333144},{"name":"G3","midi":55,"time":172.9343750000037,"velocity":0.5118110236220472,"duration":0.22395833333351334},{"name":"E4","midi":64,"time":173.02291666667048,"velocity":0.4251968503937008,"duration":0.17083333333340533},{"name":"C5","midi":72,"time":173.1562500000039,"velocity":0.4330708661417323,"duration":0.08958333333333712},{"name":"A4","midi":69,"time":173.2906250000039,"velocity":0.3464566929133858,"duration":0.03437500000001137},{"name":"G3","midi":55,"time":173.36666666667057,"velocity":0.4251968503937008,"duration":0.2458333333334224},{"name":"E4","midi":64,"time":173.4885416666706,"velocity":0.4015748031496063,"duration":0.10520833333336554},{"name":"C5","midi":72,"time":173.61041666667066,"velocity":0.41732283464566927,"duration":0.09999999999999432},{"name":"A4","midi":69,"time":173.750000000004,"velocity":0.36220472440944884,"duration":0.03020833333332007},{"name":"G3","midi":55,"time":173.80520833333736,"velocity":0.3779527559055118,"duration":0.23125000000010232},{"name":"E4","midi":64,"time":173.98333333333747,"velocity":0.2283464566929134,"duration":0.09687500000001137},{"name":"C5","midi":72,"time":174.06250000000412,"velocity":0.4015748031496063,"duration":0.08020833333335986},{"name":"A4","midi":69,"time":174.17395833333748,"velocity":0.3700787401574803,"duration":0.04791666666667993},{"name":"G3","midi":55,"time":174.28541666667084,"velocity":0.48031496062992124,"duration":0.1437500000000398},{"name":"E4","midi":64,"time":174.4125000000042,"velocity":0.2677165354330709,"duration":0.055208333333354176},{"name":"C5","midi":72,"time":174.4791666666709,"velocity":0.36220472440944884,"duration":0.08645833333332575},{"name":"A4","midi":69,"time":174.58541666667088,"velocity":0.3464566929133858,"duration":0.06979166666667425},{"name":"G3","midi":55,"time":174.69375000000423,"velocity":0.48031496062992124,"duration":0.2208333333335588},{"name":"E4","midi":64,"time":174.81354166667106,"velocity":0.33858267716535434,"duration":0.12083333333339397},{"name":"B4","midi":71,"time":174.95104166667113,"velocity":0.3464566929133858,"duration":0.08229166666666288},{"name":"A4","midi":69,"time":175.06250000000446,"velocity":0.3779527559055118,"duration":0.054166666666674246},{"name":"G3","midi":55,"time":175.15000000000447,"velocity":0.4409448818897638,"duration":0.20312500000005684},{"name":"E4","midi":64,"time":175.27916666667116,"velocity":0.36220472440944884,"duration":0.10625000000004547},{"name":"B4","midi":71,"time":175.4291666666712,"velocity":0.3543307086614173,"duration":0.07291666666665719},{"name":"A4","midi":69,"time":175.5281250000045,"velocity":0.4094488188976378,"duration":0.05104166666666288},{"name":"G3","midi":55,"time":175.60937500000455,"velocity":0.41732283464566927,"duration":0.18854166666667993},{"name":"E4","midi":64,"time":175.72812500000455,"velocity":0.4094488188976378,"duration":0.11666666666667425},{"name":"B4","midi":71,"time":175.85000000000457,"velocity":0.4330708661417323,"duration":0.09270833333332007},{"name":"A4","midi":69,"time":175.9520833333379,"velocity":0.4645669291338583,"duration":0.06145833333337691},{"name":"G3","midi":55,"time":176.0531250000046,"velocity":0.44881889763779526,"duration":0.1552083333333769},{"name":"E4","midi":64,"time":176.1416666666713,"velocity":0.4645669291338583,"duration":0.13229166666664582},{"name":"B4","midi":71,"time":176.2541666666713,"velocity":0.4094488188976378,"duration":0.11249999999998295},{"name":"A4","midi":69,"time":176.3750000000046,"velocity":0.5275590551181102,"duration":0.08541666666667425},{"name":"F3","midi":53,"time":176.48645833333796,"velocity":0.5669291338582677,"duration":0.2395833333335986},{"name":"E4","midi":64,"time":176.60208333333813,"velocity":0.4094488188976378,"duration":0.18125000000011937},{"name":"B4","midi":71,"time":176.68958333333822,"velocity":0.4409448818897638,"duration":0.10104166666670267},{"name":"F4","midi":65,"time":176.80208333333826,"velocity":0.47244094488188976,"duration":0.08125000000001137},{"name":"F3","midi":53,"time":176.93333333333828,"velocity":0.44881889763779526,"duration":0.17083333333343376},{"name":"E4","midi":64,"time":177.02916666667167,"velocity":0.29133858267716534,"duration":0.18333333333339397},{"name":"B4","midi":71,"time":177.18020833333838,"velocity":0.3779527559055118,"duration":0.0510416666666913},{"name":"F4","midi":65,"time":177.24479166667174,"velocity":0.44881889763779526,"duration":0.07395833333336554},{"name":"F3","midi":53,"time":177.34583333333845,"velocity":0.47244094488188976,"duration":0.2572916666667595},{"name":"E4","midi":64,"time":177.47500000000517,"velocity":0.30708661417322836,"duration":0.14479166666671972},{"name":"B4","midi":71,"time":177.63333333333856,"velocity":0.33070866141732286,"duration":0.04166666666665719},{"name":"F4","midi":65,"time":177.7062500000052,"velocity":0.3937007874015748,"duration":0.054166666666674246},{"name":"F3","midi":53,"time":177.78854166667188,"velocity":0.44881889763779526,"duration":0.21145833333346786},{"name":"E4","midi":64,"time":177.92708333333866,"velocity":0.3464566929133858,"duration":0.16979166666669698},{"name":"B4","midi":71,"time":178.06458333333867,"velocity":0.4330708661417323,"duration":0.10416666666668561},{"name":"F4","midi":65,"time":178.19895833333868,"velocity":0.3228346456692913,"duration":0.020833333333342807},{"name":"F3","midi":53,"time":178.25416666667203,"velocity":0.4409448818897638,"duration":0.27291666666681635},{"name":"E4","midi":64,"time":178.3927083333388,"velocity":0.3464566929133858,"duration":0.15000000000006253},{"name":"A4","midi":69,"time":178.53020833333886,"velocity":0.3779527559055118,"duration":0.06666666666666288},{"name":"F4","midi":65,"time":178.65000000000552,"velocity":0.28346456692913385,"duration":0.027083333333337123},{"name":"F3","midi":53,"time":178.7156250000055,"velocity":0.4015748031496063,"duration":0.22187500000015348},{"name":"E4","midi":64,"time":178.85833333333895,"velocity":0.2283464566929134,"duration":0.09583333333338828},{"name":"A4","midi":69,"time":178.96875000000568,"velocity":0.3543307086614173,"duration":0.06041666666666856},{"name":"F4","midi":65,"time":179.04583333333903,"velocity":0.3779527559055118,"duration":0.06874999999999432},{"name":"F3","midi":53,"time":179.1625000000057,"velocity":0.4015748031496063,"duration":0.25625000000005116},{"name":"E4","midi":64,"time":179.30937500000573,"velocity":0.28346456692913385,"duration":0.13645833333336554},{"name":"A4","midi":69,"time":179.42604166667243,"velocity":0.4094488188976378,"duration":0.07708333333332007},{"name":"F4","midi":65,"time":179.5583333333391,"velocity":0.28346456692913385,"duration":0.015625},{"name":"F3","midi":53,"time":179.61979166667248,"velocity":0.4251968503937008,"duration":0.31458333333335986},{"name":"E4","midi":64,"time":179.75520833333917,"velocity":0.3464566929133858,"duration":0.07187500000000568},{"name":"A4","midi":69,"time":179.82083333333918,"velocity":0.4566929133858268,"duration":0.12187499999998863},{"name":"F4","midi":65,"time":179.9447916666725,"velocity":0.3779527559055118,"duration":0.05833333333333712},{"name":"G3","midi":55,"time":180.05208333333917,"velocity":0.5511811023622047,"duration":0.24062500000016485},{"name":"D4","midi":62,"time":180.18333333333928,"velocity":0.3700787401574803,"duration":0.20937500000005116},{"name":"A4","midi":69,"time":180.31666666667266,"velocity":0.3700787401574803,"duration":0.05104166666666288},{"name":"F4","midi":65,"time":180.40416666667267,"velocity":0.3543307086614173,"duration":0.04479166666666856},{"name":"G3","midi":55,"time":180.50104166667268,"velocity":0.4251968503937008,"duration":0.20208333333340533},{"name":"D4","midi":62,"time":180.61145833333939,"velocity":0.33070866141732286,"duration":0.19791666666671404},{"name":"A4","midi":69,"time":180.75104166667276,"velocity":0.36220472440944884,"duration":0.08333333333334281},{"name":"F4","midi":65,"time":180.85208333333944,"velocity":0.30708661417322836,"duration":0.05833333333333712},{"name":"G3","midi":55,"time":180.94583333333944,"velocity":0.4251968503937008,"duration":0.2302083333334224},{"name":"D4","midi":62,"time":181.08750000000617,"velocity":0.3700787401574803,"duration":0.17291666666670835},{"name":"A4","midi":69,"time":181.19479166667287,"velocity":0.3700787401574803,"duration":0.1135416666666913},{"name":"F4","midi":65,"time":181.31250000000622,"velocity":0.2992125984251969,"duration":0.06666666666671972},{"name":"G3","midi":55,"time":181.39479166667294,"velocity":0.4015748031496063,"duration":0.17708333333339965},{"name":"D4","midi":62,"time":181.49166666667296,"velocity":0.30708661417322836,"duration":0.09687500000006821},{"name":"A4","midi":69,"time":181.60312500000634,"velocity":0.4881889763779528,"duration":0.13437500000000568},{"name":"F4","midi":65,"time":181.73541666667302,"velocity":0.36220472440944884,"duration":0.08020833333333144},{"name":"G3","midi":55,"time":181.80937500000636,"velocity":0.4881889763779528,"duration":0.2708333333334281},{"name":"D4","midi":62,"time":181.9291666666731,"velocity":0.4566929133858268,"duration":0.18750000000002842},{"name":"C5","midi":72,"time":182.06666666667311,"velocity":0.48031496062992124,"duration":0.10312500000000568},{"name":"F4","midi":65,"time":182.1927083333398,"velocity":0.4330708661417323,"duration":0.056250000000005684},{"name":"G3","midi":55,"time":182.27291666667315,"velocity":0.4094488188976378,"duration":0.18229166666671404},{"name":"D4","midi":62,"time":182.40208333333987,"velocity":0.4094488188976378,"duration":0.07916666666665151},{"name":"C5","midi":72,"time":182.5104166666732,"velocity":0.5196850393700787,"duration":0.11250000000001137},{"name":"F4","midi":65,"time":182.64270833333987,"velocity":0.4409448818897638,"duration":0.05000000000001137},{"name":"G3","midi":55,"time":182.72916666667322,"velocity":0.5196850393700787,"duration":0.19062500000015348},{"name":"D4","midi":62,"time":182.8447916666733,"velocity":0.4409448818897638,"duration":0.10520833333339397},{"name":"B4","midi":71,"time":182.9937500000067,"velocity":0.3543307086614173,"duration":0.07916666666667993},{"name":"F4","midi":65,"time":183.08437500000673,"velocity":0.49606299212598426,"duration":0.07499999999998863},{"name":"G3","midi":55,"time":183.19062500000672,"velocity":0.4645669291338583,"duration":0.16979166666666856},{"name":"D4","midi":62,"time":183.2854166666734,"velocity":0.4566929133858268,"duration":0.08645833333332575},{"name":"B4","midi":71,"time":183.4635416666734,"velocity":0.4330708661417323,"duration":0.43333333333339397},{"name":"F4","midi":65,"time":183.58125000000672,"velocity":0.47244094488188976,"duration":0.16249999999999432},{"name":"A3","midi":57,"time":183.81041666667338,"velocity":0.4330708661417323,"duration":0.31041666666689594},{"name":"C4","midi":60,"time":183.9927083333402,"velocity":0.4251968503937008,"duration":0.16041666666674814},{"name":"A4","midi":69,"time":184.12395833334028,"velocity":0.3858267716535433,"duration":0.10104166666667425},{"name":"E4","midi":64,"time":184.23958333334028,"velocity":0.33070866141732286,"duration":0.056250000000005684},{"name":"A3","midi":57,"time":184.3260416666736,"velocity":0.4330708661417323,"duration":0.20729166666666288},{"name":"C4","midi":60,"time":184.47395833334028,"velocity":0.3464566929133858,"duration":0.08854166666665719},{"name":"A4","midi":69,"time":184.5416666666736,"velocity":0.4251968503937008,"duration":0.10729166666666856},{"name":"E4","midi":64,"time":184.6885416666736,"velocity":0.3464566929133858,"duration":0.08229166666666288},{"name":"A3","midi":57,"time":184.7656250000069,"velocity":0.4094488188976378,"duration":0.22291666666674814},{"name":"C4","midi":60,"time":184.89791666667364,"velocity":0.36220472440944884,"duration":0.08125000000001137},{"name":"A4","midi":69,"time":185.01250000000698,"velocity":0.3700787401574803,"duration":0.109375},{"name":"E4","midi":64,"time":185.1239583333403,"velocity":0.33858267716535434,"duration":0.056250000000005684},{"name":"A3","midi":57,"time":185.23020833334033,"velocity":0.4409448818897638,"duration":0.22083333333338828},{"name":"C4","midi":60,"time":185.33333333334036,"velocity":0.4094488188976378,"duration":0.09479166666667993},{"name":"A4","midi":69,"time":185.4416666666737,"velocity":0.4409448818897638,"duration":0.14895833333332575},{"name":"E4","midi":64,"time":185.55937500000704,"velocity":0.3937007874015748,"duration":0.07187500000000568},{"name":"A3","midi":57,"time":185.66458333334037,"velocity":0.5039370078740157,"duration":0.2708333333334565},{"name":"C4","midi":60,"time":185.78020833334048,"velocity":0.4566929133858268,"duration":0.14166666666667993},{"name":"C5","midi":72,"time":185.89375000000717,"velocity":0.4645669291338583,"duration":0.10937500000002842},{"name":"E4","midi":64,"time":186.0218750000072,"velocity":0.4094488188976378,"duration":0.06145833333334849},{"name":"A3","midi":57,"time":186.12395833334057,"velocity":0.44881889763779526,"duration":0.24895833333343376},{"name":"C4","midi":60,"time":186.23645833334064,"velocity":0.3937007874015748,"duration":0.10937500000002842},{"name":"C5","midi":72,"time":186.35625000000732,"velocity":0.4251968503937008,"duration":0.11875000000006253},{"name":"E4","midi":64,"time":186.47187500000737,"velocity":0.4330708661417323,"duration":0.06875000000002274},{"name":"A3","midi":57,"time":186.5562500000074,"velocity":0.4251968503937008,"duration":0.25000000000005684},{"name":"C4","midi":60,"time":186.67500000000743,"velocity":0.4094488188976378,"duration":0.10937500000002842},{"name":"C5","midi":72,"time":186.80833333334078,"velocity":0.47244094488188976,"duration":0.09375},{"name":"E4","midi":64,"time":186.92500000000746,"velocity":0.41732283464566927,"duration":0.054166666666674246},{"name":"A3","midi":57,"time":187.0145833333408,"velocity":0.4566929133858268,"duration":0.171875},{"name":"C4","midi":60,"time":187.14375000000746,"velocity":0.4094488188976378,"duration":0.08541666666667425},{"name":"C5","midi":72,"time":187.25625000000747,"velocity":0.5275590551181102,"duration":0.11979166666668561},{"name":"E4","midi":64,"time":187.36770833334083,"velocity":0.4409448818897638,"duration":0.06979166666664582},{"name":"B3","midi":59,"time":187.4645833333408,"velocity":0.5590551181102362,"duration":0.23854166666686183},{"name":"D4","midi":62,"time":187.59583333334092,"velocity":0.4330708661417323,"duration":0.14062500000008527},{"name":"C5","midi":72,"time":187.73125000000766,"velocity":0.4409448818897638,"duration":0.07395833333333712},{"name":"E4","midi":64,"time":187.83541666667432,"velocity":0.4015748031496063,"duration":0.06666666666666288},{"name":"B3","midi":59,"time":187.92187500000765,"velocity":0.3858267716535433,"duration":0.18854166666667993},{"name":"D4","midi":62,"time":188.04270833334098,"velocity":0.3779527559055118,"duration":0.10416666666668561},{"name":"C5","midi":72,"time":188.158333333341,"velocity":0.47244094488188976,"duration":0.10312500000000568},{"name":"E4","midi":64,"time":188.28750000000767,"velocity":0.36220472440944884,"duration":0.06354166666667993},{"name":"B3","midi":59,"time":188.3812500000077,"velocity":0.36220472440944884,"duration":0.2427083333333826},{"name":"D4","midi":62,"time":188.50520833334107,"velocity":0.44881889763779526,"duration":0.10625000000001705},{"name":"C5","midi":72,"time":188.6322916666744,"velocity":0.3858267716535433,"duration":0.056250000000005684},{"name":"E4","midi":64,"time":188.72291666667442,"velocity":0.44881889763779526,"duration":0.06458333333333144},{"name":"B3","midi":59,"time":188.84687500000774,"velocity":0.4409448818897638,"duration":0.18333333333336554},{"name":"D4","midi":62,"time":188.95312500000776,"velocity":0.4409448818897638,"duration":0.10625000000001705},{"name":"C5","midi":72,"time":189.0708333333411,"velocity":0.41732283464566927,"duration":0.08125000000001137},{"name":"E4","midi":64,"time":189.19166666667445,"velocity":0.3700787401574803,"duration":0.05937500000001705},{"name":"B3","midi":59,"time":189.29166666667447,"velocity":0.4409448818897638,"duration":0.1760416666666913},{"name":"D4","midi":62,"time":189.40520833334114,"velocity":0.44881889763779526,"duration":0.10625000000004547},{"name":"C5","midi":72,"time":189.53958333334117,"velocity":0.4645669291338583,"duration":0.08645833333332575},{"name":"E4","midi":64,"time":189.6510416666745,"velocity":0.4330708661417323,"duration":0.06770833333334281},{"name":"B3","midi":59,"time":189.7427083333412,"velocity":0.4409448818897638,"duration":0.1802083333333826},{"name":"D4","midi":62,"time":189.85937500000793,"velocity":0.4251968503937008,"duration":0.039583333333325754},{"name":"C5","midi":72,"time":189.95208333334125,"velocity":0.5196850393700787,"duration":0.13437500000000568},{"name":"E4","midi":64,"time":190.0885416666746,"velocity":0.4330708661417323,"duration":0.0625},{"name":"B3","midi":59,"time":190.1822916666746,"velocity":0.5433070866141733,"duration":0.20312500000005684},{"name":"D4","midi":62,"time":190.3177083333413,"velocity":0.49606299212598426,"duration":0.10312500000000568},{"name":"B4","midi":71,"time":190.4489583333413,"velocity":0.5354330708661418,"duration":0.07916666666667993},{"name":"E4","midi":64,"time":190.55937500000798,"velocity":0.4330708661417323,"duration":0.04583333333337691},{"name":"B3","midi":59,"time":190.63333333334134,"velocity":0.47244094488188976,"duration":0.15625000000002842},{"name":"D4","midi":62,"time":190.76562500000804,"velocity":0.3779527559055118,"duration":0.08229166666666288},{"name":"B4","midi":71,"time":190.85625000000803,"velocity":0.5118110236220472,"duration":0.11770833333332575},{"name":"E4","midi":64,"time":190.98229166667468,"velocity":0.47244094488188976,"duration":0.04270833333333712},{"name":"C4","midi":60,"time":191.09791666667473,"velocity":0.5433070866141733,"duration":0.21562500000024443},{"name":"E4","midi":64,"time":191.22708333334154,"velocity":0.4094488188976378,"duration":0.11145833333344513},{"name":"C5","midi":72,"time":191.33958333334166,"velocity":0.44881889763779526,"duration":0.09375},{"name":"E4","midi":64,"time":191.46354166667498,"velocity":0.3858267716535433,"duration":0.04583333333334849},{"name":"C4","midi":60,"time":191.54687500000833,"velocity":0.4251968503937008,"duration":0.1541666666667254},{"name":"E4","midi":64,"time":191.66666666667504,"velocity":0.4015748031496063,"duration":0.06875000000002274},{"name":"C5","midi":72,"time":191.77708333334172,"velocity":0.4330708661417323,"duration":0.07916666666667993},{"name":"E4","midi":64,"time":191.89166666667506,"velocity":0.33858267716535434,"duration":0.023958333333325754},{"name":"C4","midi":60,"time":191.99895833334173,"velocity":0.49606299212598426,"duration":0.13125000000002274},{"name":"E4","midi":64,"time":192.1010416666751,"velocity":0.4094488188976378,"duration":0.07187500000000568},{"name":"C5","midi":72,"time":192.23541666667512,"velocity":0.5354330708661418,"duration":0.07708333333332007},{"name":"E4","midi":64,"time":192.3322916666751,"velocity":0.4881889763779528,"duration":0.037499999999994316},{"name":"C4","midi":60,"time":192.43958333334177,"velocity":0.4409448818897638,"duration":0.11979166666671404},{"name":"E4","midi":64,"time":192.54479166667517,"velocity":0.4330708661417323,"duration":0.04791666666665151},{"name":"C5","midi":72,"time":192.65729166667515,"velocity":0.5196850393700787,"duration":0.09270833333334849},{"name":"E4","midi":64,"time":192.7593750000085,"velocity":0.3779527559055118,"duration":0.038541666666674246},{"name":"C4","midi":60,"time":192.86979166667518,"velocity":0.5669291338582677,"duration":0.1364583333334224},{"name":"E4","midi":64,"time":192.97291666667527,"velocity":0.4330708661417323,"duration":0.09895833333337123},{"name":"D5","midi":74,"time":193.1229166666753,"velocity":0.5511811023622047,"duration":0.07083333333332575},{"name":"E4","midi":64,"time":193.23645833334197,"velocity":0.48031496062992124,"duration":0.04375000000001705},{"name":"C4","midi":60,"time":193.35312500000867,"velocity":0.5118110236220472,"duration":0.13437500000011937},{"name":"E4","midi":64,"time":193.4520833333421,"velocity":0.36220472440944884,"duration":0.06458333333335986},{"name":"D5","midi":74,"time":193.56770833334213,"velocity":0.5748031496062992,"duration":0.06770833333334281},{"name":"E4","midi":64,"time":193.6875000000088,"velocity":0.4409448818897638,"duration":0.04375000000001705},{"name":"C4","midi":60,"time":193.8010416666755,"velocity":0.5354330708661418,"duration":0.1229166666667254},{"name":"E4","midi":64,"time":193.89166666667555,"velocity":0.3858267716535433,"duration":0.08020833333338828},{"name":"C5","midi":72,"time":194.02812500000894,"velocity":0.5433070866141733,"duration":0.07187500000000568},{"name":"E4","midi":64,"time":194.1364583333423,"velocity":0.4330708661417323,"duration":0.039583333333325754},{"name":"C4","midi":60,"time":194.25937500000896,"velocity":0.5433070866141733,"duration":0.12604166666670835},{"name":"E4","midi":64,"time":194.35729166667565,"velocity":0.30708661417322836,"duration":0.06458333333335986},{"name":"C5","midi":72,"time":194.484375000009,"velocity":0.5118110236220472,"duration":0.08125000000001137},{"name":"E4","midi":64,"time":194.58125000000902,"velocity":0.36220472440944884,"duration":0.0666666666666913},{"name":"B3","midi":59,"time":194.69895833334238,"velocity":0.4881889763779528,"duration":0.19583333333343944},{"name":"D4","midi":62,"time":194.84791666667576,"velocity":0.36220472440944884,"duration":0.06875000000007958},{"name":"C5","midi":72,"time":194.9552083333425,"velocity":0.3228346456692913,"duration":0.03645833333334281},{"name":"E4","midi":64,"time":195.06770833334252,"velocity":0.30708661417322836,"duration":0.03645833333334281},{"name":"B3","midi":59,"time":195.16354166667585,"velocity":0.47244094488188976,"duration":0.17916666666678793},{"name":"D4","midi":62,"time":195.29166666667595,"velocity":0.33858267716535434,"duration":0.056250000000034106},{"name":"C5","midi":72,"time":195.382291666676,"velocity":0.44881889763779526,"duration":0.08125000000001137},{"name":"E4","midi":64,"time":195.53125000000935,"velocity":0.3228346456692913,"duration":0.03437500000001137},{"name":"B3","midi":59,"time":195.6145833333427,"velocity":0.4566929133858268,"duration":0.1750000000000398},{"name":"D4","midi":62,"time":195.7218750000094,"velocity":0.49606299212598426,"duration":0.07395833333333712},{"name":"C5","midi":72,"time":195.8406250000094,"velocity":0.4645669291338583,"duration":0.07604166666666856},{"name":"E4","midi":64,"time":195.94479166667605,"velocity":0.4094488188976378,"duration":0.06354166666667993},{"name":"B3","midi":59,"time":196.0479166666761,"velocity":0.5196850393700787,"duration":0.13333333333341102},{"name":"D4","midi":62,"time":196.19166666667616,"velocity":0.31496062992125984,"duration":0.015625},{"name":"C5","midi":72,"time":196.2562500000095,"velocity":0.5354330708661418,"duration":0.10520833333336554},{"name":"E4","midi":64,"time":196.3729166666762,"velocity":0.4645669291338583,"duration":0.05104166666666288},{"name":"B3","midi":59,"time":196.49062500000954,"velocity":0.5354330708661418,"duration":0.16770833333339397},{"name":"D4","midi":62,"time":196.61458333334292,"velocity":0.4251968503937008,"duration":0.0822916666666913},{"name":"D5","midi":74,"time":196.7125000000096,"velocity":0.5433070866141733,"duration":0.0822916666666913},{"name":"E4","midi":64,"time":196.84479166667631,"velocity":0.4330708661417323,"duration":0.053124999999994316},{"name":"B3","midi":59,"time":196.96354166667632,"velocity":0.5196850393700787,"duration":0.15937500000001137},{"name":"D4","midi":62,"time":197.086458333343,"velocity":0.33070866141732286,"duration":0.06979166666667425},{"name":"D5","midi":74,"time":197.18125000000967,"velocity":0.5905511811023622,"duration":0.07083333333332575},{"name":"E4","midi":64,"time":197.31875000000966,"velocity":0.4409448818897638,"duration":0.04375000000001705},{"name":"B3","midi":59,"time":197.4125000000097,"velocity":0.5196850393700787,"duration":0.1531250000000739},{"name":"D4","midi":62,"time":197.5208333333431,"velocity":0.41732283464566927,"duration":0.07604166666666856},{"name":"C5","midi":72,"time":197.64375000000976,"velocity":0.5590551181102362,"duration":0.10833333333332007},{"name":"E4","midi":64,"time":197.74583333334309,"velocity":0.4251968503937008,"duration":0.04895833333333144},{"name":"B3","midi":59,"time":197.84375000000975,"velocity":0.5039370078740157,"duration":0.15937500000001137},{"name":"D4","midi":62,"time":197.96250000000975,"velocity":0.4645669291338583,"duration":0.07187500000000568},{"name":"B4","midi":71,"time":198.10416666667643,"velocity":0.5590551181102362,"duration":0.15416666666666856},{"name":"E4","midi":64,"time":198.23750000000976,"velocity":0.4566929133858268,"duration":0.09583333333333144},{"name":"A3","midi":57,"time":198.3625000000098,"velocity":0.5354330708661418,"duration":0.2218750000001819},{"name":"C4","midi":60,"time":198.51770833334328,"velocity":0.3858267716535433,"duration":0.1031250000000341},{"name":"C5","midi":72,"time":198.62916666667664,"velocity":0.5039370078740157,"duration":0.07916666666667993},{"name":"E4","midi":64,"time":198.75729166667665,"velocity":0.3464566929133858,"duration":0.04791666666667993},{"name":"A3","midi":57,"time":198.83333333334332,"velocity":0.5433070866141733,"duration":0.2041666666667652},{"name":"C4","midi":60,"time":198.9739583333434,"velocity":0.41732283464566927,"duration":0.06354166666667993},{"name":"C5","midi":72,"time":199.0927083333434,"velocity":0.5039370078740157,"duration":0.07083333333335418},{"name":"E4","midi":64,"time":199.19479166667676,"velocity":0.4330708661417323,"duration":0.05937500000001705},{"name":"A3","midi":57,"time":199.2979166666768,"velocity":0.5354330708661418,"duration":0.1635416666667311},{"name":"C4","midi":60,"time":199.41458333334353,"velocity":0.41732283464566927,"duration":0.07604166666666856},{"name":"C5","midi":72,"time":199.53541666667687,"velocity":0.5826771653543307,"duration":0.08750000000000568},{"name":"E4","midi":64,"time":199.65520833334355,"velocity":0.4409448818897638,"duration":0.04895833333333144},{"name":"A3","midi":57,"time":199.7364583333436,"velocity":0.5196850393700787,"duration":0.15937500000009663},{"name":"C4","midi":60,"time":199.85312500001035,"velocity":0.4409448818897638,"duration":0.08125000000001137},{"name":"C5","midi":72,"time":199.98020833334368,"velocity":0.5669291338582677,"duration":0.08854166666665719},{"name":"E4","midi":64,"time":200.08437500001034,"velocity":0.4251968503937008,"duration":0.05000000000001137},{"name":"A3","midi":57,"time":200.20000000001036,"velocity":0.5511811023622047,"duration":0.18020833333341102},{"name":"C4","midi":60,"time":200.32500000001042,"velocity":0.4409448818897638,"duration":0.06979166666667425},{"name":"D5","midi":74,"time":200.43958333334376,"velocity":0.5669291338582677,"duration":0.06770833333334281},{"name":"E4","midi":64,"time":200.55520833334378,"velocity":0.48031496062992124,"duration":0.054166666666674246},{"name":"A3","midi":57,"time":200.65729166667714,"velocity":0.5511811023622047,"duration":0.13750000000010232},{"name":"C4","midi":60,"time":200.78437500001058,"velocity":0.4094488188976378,"duration":0.06458333333333144},{"name":"D5","midi":74,"time":200.86354166667724,"velocity":0.5118110236220472,"duration":0.1302083333333428},{"name":"E4","midi":64,"time":201.0177083333439,"velocity":0.5590551181102362,"duration":0.07395833333333712},{"name":"A3","midi":57,"time":201.12916666667724,"velocity":0.4645669291338583,"duration":0.11770833333332575},{"name":"C4","midi":60,"time":201.2020833333439,"velocity":0.4409448818897638,"duration":0.05937499999998863},{"name":"C5","midi":72,"time":201.3552083333439,"velocity":0.5669291338582677,"duration":0.12812500000009663},{"name":"E4","midi":64,"time":201.47604166667733,"velocity":0.4251968503937008,"duration":0.0875000000000341},{"name":"A3","midi":57,"time":201.55729166667734,"velocity":0.49606299212598426,"duration":0.16875000000004547},{"name":"C4","midi":60,"time":201.6625000000107,"velocity":0.4330708661417323,"duration":0.09375},{"name":"B4","midi":71,"time":201.80729166667737,"velocity":0.5275590551181102,"duration":0.09999999999999432},{"name":"E4","midi":64,"time":201.9218750000107,"velocity":0.4251968503937008,"duration":0.05729166666665719},{"name":"G3","midi":55,"time":202.008333333344,"velocity":0.5196850393700787,"duration":0.18229166666677088},{"name":"B3","midi":59,"time":202.1395833333441,"velocity":0.4409448818897638,"duration":0.0875000000000341},{"name":"C5","midi":72,"time":202.2656250000108,"velocity":0.48031496062992124,"duration":0.07916666666665151},{"name":"E4","midi":64,"time":202.3750000000108,"velocity":0.36220472440944884,"duration":0.04895833333333144},{"name":"G3","midi":55,"time":202.46354166667746,"velocity":0.47244094488188976,"duration":0.1875000000001421},{"name":"B3","midi":59,"time":202.61145833334422,"velocity":0.31496062992125984,"duration":0.08020833333338828},{"name":"C5","midi":72,"time":202.73125000001093,"velocity":0.5196850393700787,"duration":0.09062500000001705},{"name":"E4","midi":64,"time":202.85208333334427,"velocity":0.3858267716535433,"duration":0.054166666666674246},{"name":"G3","midi":55,"time":202.93958333334427,"velocity":0.4094488188976378,"duration":0.15312500000001705},{"name":"B3","midi":59,"time":203.05625000001095,"velocity":0.3937007874015748,"duration":0.06458333333333144},{"name":"C5","midi":72,"time":203.2052083333443,"velocity":0.5511811023622047,"duration":0.0958333333334167},{"name":"E4","midi":64,"time":203.35000000001105,"velocity":0.2992125984251969,"duration":0.03229166666670835},{"name":"G3","midi":55,"time":203.42083333334446,"velocity":0.4566929133858268,"duration":0.15208333333333712},{"name":"B3","midi":59,"time":203.5197916666778,"velocity":0.4015748031496063,"duration":0.09687499999998295},{"name":"C5","midi":72,"time":203.6572916666778,"velocity":0.5354330708661418,"duration":0.09895833333339965},{"name":"E4","midi":64,"time":203.76145833334454,"velocity":0.4251968503937008,"duration":0.08541666666673109},{"name":"G3","midi":55,"time":203.8739583333446,"velocity":0.5511811023622047,"duration":0.1760416666666913},{"name":"B3","midi":59,"time":204.00729166667796,"velocity":0.44881889763779526,"duration":0.07708333333334849},{"name":"C5","midi":72,"time":204.12291666667798,"velocity":0.5196850393700787,"duration":0.07291666666668561},{"name":"E4","midi":64,"time":204.20625000001135,"velocity":0.44881889763779526,"duration":0.06354166666670835},{"name":"G3","midi":55,"time":204.30520833334472,"velocity":0.5511811023622047,"duration":0.20416666666670835},{"name":"B3","midi":59,"time":204.43645833334477,"velocity":0.47244094488188976,"duration":0.07708333333332007},{"name":"C5","midi":72,"time":204.55833333334476,"velocity":0.5433070866141733,"duration":0.12708333333333144},{"name":"E4","midi":64,"time":204.66458333334475,"velocity":0.44881889763779526,"duration":0.05208333333334281},{"name":"G3","midi":55,"time":204.7687500000115,"velocity":0.5433070866141733,"duration":0.20416666666673677},{"name":"B3","midi":59,"time":204.92187500001154,"velocity":0.4015748031496063,"duration":0.0979166666666913},{"name":"B4","midi":71,"time":205.02187500001156,"velocity":0.47244094488188976,"duration":0.10312500000000568},{"name":"E4","midi":64,"time":205.1302083333449,"velocity":0.4330708661417323,"duration":0.08020833333333144},{"name":"G3","midi":55,"time":205.2625000000116,"velocity":0.48031496062992124,"duration":0.1822916666666572},{"name":"B3","midi":59,"time":205.38541666667828,"velocity":0.33070866141732286,"duration":0.06354166666665151},{"name":"B4","midi":71,"time":205.55416666667827,"velocity":0.49606299212598426,"duration":0.5125000000001023},{"name":"E4","midi":64,"time":205.7031250000116,"velocity":0.3779527559055118,"duration":0.24166666666670267},{"name":"A3","midi":57,"time":205.89791666667827,"velocity":0.5196850393700787,"duration":0.3104166666668391},{"name":"C4","midi":60,"time":206.07187500001172,"velocity":0.31496062992125984,"duration":0.16666666666674246},{"name":"A4","midi":69,"time":206.23541666667845,"velocity":0.4094488188976378,"duration":0.08437500000002274},{"name":"E4","midi":64,"time":206.3687500000118,"velocity":0.2755905511811024,"duration":0.04166666666665719},{"name":"A3","midi":57,"time":206.43541666667846,"velocity":0.4015748031496063,"duration":0.22916666666671404},{"name":"C4","midi":60,"time":206.61770833334515,"velocity":0.28346456692913385,"duration":0.04479166666669698},{"name":"A4","midi":69,"time":206.6677083333452,"velocity":0.3543307086614173,"duration":0.10000000000002274},{"name":"E4","midi":64,"time":206.78541666667854,"velocity":0.30708661417322836,"duration":0.04479166666666856},{"name":"A3","midi":57,"time":206.86979166667854,"velocity":0.44881889763779526,"duration":0.203125},{"name":"C4","midi":60,"time":207.01250000001187,"velocity":0.33858267716535434,"duration":0.10729166666666856},{"name":"A4","midi":69,"time":207.1177083333452,"velocity":0.3464566929133858,"duration":0.08333333333337123},{"name":"E4","midi":64,"time":207.2354166666786,"velocity":0.25196850393700787,"duration":0.023958333333354176},{"name":"A3","midi":57,"time":207.3010416666786,"velocity":0.4645669291338583,"duration":0.16770833333336554},{"name":"C4","midi":60,"time":207.42083333334529,"velocity":0.4094488188976378,"duration":0.0875000000000341},{"name":"A4","midi":69,"time":207.55729166667865,"velocity":0.33858267716535434,"duration":0.1072916666667254},{"name":"E4","midi":64,"time":207.6729166666787,"velocity":0.29133858267716534,"duration":0.01770833333335986},{"name":"A3","midi":57,"time":207.73645833334538,"velocity":0.4645669291338583,"duration":0.21041666666670267},{"name":"C4","midi":60,"time":207.85000000001207,"velocity":0.3937007874015748,"duration":0.07500000000001705},{"name":"C5","midi":72,"time":207.9770833333454,"velocity":0.4015748031496063,"duration":0.07708333333332007},{"name":"E4","midi":64,"time":208.08541666667873,"velocity":0.3858267716535433,"duration":0.05208333333334281},{"name":"A3","midi":57,"time":208.17708333334542,"velocity":0.44881889763779526,"duration":0.16770833333336554},{"name":"C4","midi":60,"time":208.27708333334544,"velocity":0.3543307086614173,"duration":0.09166666666669698},{"name":"C5","midi":72,"time":208.4135416666788,"velocity":0.4330708661417323,"duration":0.08125000000001137},{"name":"E4","midi":64,"time":208.50937500001214,"velocity":0.4251968503937008,"duration":0.05729166666665719},{"name":"A3","midi":57,"time":208.62291666667886,"velocity":0.5118110236220472,"duration":0.16250000000005116},{"name":"C4","midi":60,"time":208.72500000001224,"velocity":0.4094488188976378,"duration":0.09895833333334281},{"name":"C5","midi":72,"time":208.85729166667892,"velocity":0.4330708661417323,"duration":0.06562500000001137},{"name":"E4","midi":64,"time":208.92812500001227,"velocity":0.4409448818897638,"duration":0.07708333333334849},{"name":"A3","midi":57,"time":209.05312500001227,"velocity":0.5196850393700787,"duration":0.1437500000000682},{"name":"C4","midi":60,"time":209.1656250000123,"velocity":0.44881889763779526,"duration":0.07395833333336554},{"name":"C5","midi":72,"time":209.26666666667901,"velocity":0.49606299212598426,"duration":0.11250000000001137},{"name":"E4","midi":64,"time":209.3927083333457,"velocity":0.4409448818897638,"duration":0.04791666666667993},{"name":"B3","midi":59,"time":209.48750000001237,"velocity":0.5984251968503937,"duration":0.21354166666682772},{"name":"D4","midi":62,"time":209.6083333333458,"velocity":0.44881889763779526,"duration":0.13437500000009095},{"name":"C5","midi":72,"time":209.72187500001255,"velocity":0.5118110236220472,"duration":0.08645833333335418},{"name":"E4","midi":64,"time":209.82604166667923,"velocity":0.3700787401574803,"duration":0.05729166666665719},{"name":"B3","midi":59,"time":209.9229166666792,"velocity":0.48031496062992124,"duration":0.17395833333344513},{"name":"D4","midi":62,"time":210.0468750000126,"velocity":0.4330708661417323,"duration":0.09687500000006821},{"name":"C5","midi":72,"time":210.186458333346,"velocity":0.4409448818897638,"duration":0.07083333333335418},{"name":"E4","midi":64,"time":210.267708333346,"velocity":0.3779527559055118,"duration":0.05208333333334281},{"name":"B3","midi":59,"time":210.3854166666794,"velocity":0.47244094488188976,"duration":0.1635416666667595},{"name":"D4","midi":62,"time":210.49270833334612,"velocity":0.4094488188976378,"duration":0.10208333333335418},{"name":"C5","midi":72,"time":210.61562500001284,"velocity":0.4881889763779528,"duration":0.07916666666667993},{"name":"E4","midi":64,"time":210.71666666667952,"velocity":0.3779527559055118,"duration":0.05833333333333712},{"name":"B3","midi":59,"time":210.82916666667955,"velocity":0.4881889763779528,"duration":0.16354166666670267},{"name":"D4","midi":62,"time":210.93333333334627,"velocity":0.4094488188976378,"duration":0.10208333333332575},{"name":"C5","midi":72,"time":211.06770833334627,"velocity":0.48031496062992124,"duration":0.07291666666665719},{"name":"E4","midi":64,"time":211.1541666666796,"velocity":0.4330708661417323,"duration":0.05833333333333712},{"name":"B3","midi":59,"time":211.28229166667964,"velocity":0.5275590551181102,"duration":0.1500000000000341},{"name":"D4","midi":62,"time":211.384375000013,"velocity":0.4566929133858268,"duration":0.0822916666666913},{"name":"C5","midi":72,"time":211.51145833334635,"velocity":0.5511811023622047,"duration":0.10833333333332007},{"name":"E4","midi":64,"time":211.62291666667969,"velocity":0.4330708661417323,"duration":0.0666666666666913},{"name":"B3","midi":59,"time":211.7270833333464,"velocity":0.5669291338582677,"duration":0.15625},{"name":"D4","midi":62,"time":211.8239583333464,"velocity":0.4409448818897638,"duration":0.10208333333332575},{"name":"C5","midi":72,"time":211.9520833333464,"velocity":0.5354330708661418,"duration":0.09999999999999432},{"name":"E4","midi":64,"time":212.0666666666797,"velocity":0.4409448818897638,"duration":0.05000000000001137},{"name":"B3","midi":59,"time":212.17291666667975,"velocity":0.5354330708661418,"duration":0.13958333333340533},{"name":"D4","midi":62,"time":212.28437500001314,"velocity":0.3937007874015748,"duration":0.08125000000001137},{"name":"B4","midi":71,"time":212.40416666667983,"velocity":0.5433070866141733,"duration":0.08750000000000568},{"name":"E4","midi":64,"time":212.5145833333465,"velocity":0.4566929133858268,"duration":0.0510416666666913},{"name":"B3","midi":59,"time":212.62187500001326,"velocity":0.5511811023622047,"duration":0.13645833333339397},{"name":"D4","midi":62,"time":212.7375000000133,"velocity":0.4251968503937008,"duration":0.06354166666667993},{"name":"B4","midi":71,"time":212.84375000001333,"velocity":0.5826771653543307,"duration":0.12083333333333712},{"name":"E4","midi":64,"time":212.96666666668,"velocity":0.3937007874015748,"duration":0.03437500000001137},{"name":"C4","midi":60,"time":213.08125000001334,"velocity":0.5669291338582677,"duration":0.23020833333364976},{"name":"E4","midi":64,"time":213.2458333333469,"velocity":0.4409448818897638,"duration":0.08229166666677656},{"name":"C5","midi":72,"time":213.35416666668033,"velocity":0.4881889763779528,"duration":0.08958333333333712},{"name":"E4","midi":64,"time":213.461458333347,"velocity":0.4409448818897638,"duration":0.03645833333334281},{"name":"C4","midi":60,"time":213.56666666668033,"velocity":0.5275590551181102,"duration":0.09166666666666856},{"name":"E4","midi":64,"time":213.64479166668033,"velocity":0.3858267716535433,"duration":0.03020833333334849},{"name":"C5","midi":72,"time":213.76979166668036,"velocity":0.5275590551181102,"duration":0.07500000000001705},{"name":"E4","midi":64,"time":213.84166666668037,"velocity":0.3779527559055118,"duration":0.056250000000005684},{"name":"C4","midi":60,"time":213.97604166668043,"velocity":0.4881889763779528,"duration":0.11666666666667425},{"name":"E4","midi":64,"time":214.1145833333471,"velocity":0.25984251968503935,"duration":0.019791666666662877},{"name":"C5","midi":72,"time":214.20937500001378,"velocity":0.5748031496062992,"duration":0.06874999999999432},{"name":"E4","midi":64,"time":214.3052083333471,"velocity":0.4409448818897638,"duration":0.056250000000005684},{"name":"C4","midi":60,"time":214.43333333334712,"velocity":0.48031496062992124,"duration":0.11562500000005116},{"name":"E4","midi":64,"time":214.50104166668046,"velocity":0.4881889763779528,"duration":0.06354166666670835},{"name":"C5","midi":72,"time":214.6604166666805,"velocity":0.5511811023622047,"duration":0.06458333333333144},{"name":"E4","midi":64,"time":214.75208333334717,"velocity":0.41732283464566927,"duration":0.03333333333333144},{"name":"C4","midi":60,"time":214.86770833334717,"velocity":0.49606299212598426,"duration":0.1281250000000682},{"name":"E4","midi":64,"time":214.9437500000139,"velocity":0.2992125984251969,"duration":0.07395833333333712},{"name":"D5","midi":74,"time":215.09895833334724,"velocity":0.5826771653543307,"duration":0.06979166666667425},{"name":"E4","midi":64,"time":215.2135416666806,"velocity":0.4330708661417323,"duration":0.039583333333325754},{"name":"C4","midi":60,"time":215.3260416666806,"velocity":0.5669291338582677,"duration":0.13437500000006253},{"name":"E4","midi":64,"time":215.4427083333473,"velocity":0.44881889763779526,"duration":0.07500000000004547},{"name":"D5","midi":74,"time":215.56770833334735,"velocity":0.6220472440944882,"duration":0.07083333333332575},{"name":"E4","midi":64,"time":215.71770833334736,"velocity":0.3543307086614173,"duration":0.007291666666674246},{"name":"C4","midi":60,"time":215.78645833334735,"velocity":0.5511811023622047,"duration":0.12916666666674814},{"name":"E4","midi":64,"time":215.8968750000141,"velocity":0.25196850393700787,"duration":0.05729166666665719},{"name":"C5","midi":72,"time":216.01770833334743,"velocity":0.6141732283464567,"duration":0.08437500000002274},{"name":"E4","midi":64,"time":216.10000000001412,"velocity":0.4409448818897638,"duration":0.055208333333325754},{"name":"C4","midi":60,"time":216.23541666668078,"velocity":0.5669291338582677,"duration":0.11666666666664582},{"name":"E4","midi":64,"time":216.32604166668077,"velocity":0.4094488188976378,"duration":0.07291666666665719},{"name":"B4","midi":71,"time":216.4812500000141,"velocity":0.5590551181102362,"duration":0.08750000000000568},{"name":"E4","midi":64,"time":216.5843750000141,"velocity":0.4566929133858268,"duration":0.07187500000000568},{"name":"B3","midi":59,"time":216.70520833334743,"velocity":0.5433070866141733,"duration":0.22187500000015348},{"name":"D4","midi":62,"time":216.85833333334756,"velocity":0.44881889763779526,"duration":0.08958333333336554},{"name":"C5","midi":72,"time":216.95416666668092,"velocity":0.5039370078740157,"duration":0.05833333333333712},{"name":"E4","midi":64,"time":217.08854166668092,"velocity":0.33858267716535434,"duration":0.013541666666668561},{"name":"B3","midi":59,"time":217.13958333334762,"velocity":0.4645669291338583,"duration":0.16458333333335418},{"name":"D4","midi":62,"time":217.2687500000143,"velocity":0.4566929133858268,"duration":0.07083333333332575},{"name":"C5","midi":72,"time":217.38229166668097,"velocity":0.5354330708661418,"duration":0.07083333333335418},{"name":"E4","midi":64,"time":217.482291666681,"velocity":0.4094488188976378,"duration":0.04374999999998863},{"name":"B3","midi":59,"time":217.5906250000143,"velocity":0.5590551181102362,"duration":0.18020833333349628},{"name":"D4","midi":62,"time":217.7177083333478,"velocity":0.44881889763779526,"duration":0.10729166666669698},{"name":"C5","midi":72,"time":217.8281250000145,"velocity":0.5354330708661418,"duration":0.08229166666666288},{"name":"E4","midi":64,"time":217.92916666668117,"velocity":0.4409448818897638,"duration":0.05000000000001137},{"name":"B3","midi":59,"time":218.0354166666812,"velocity":0.5354330708661418,"duration":0.14791666666681635},{"name":"D4","midi":62,"time":218.14791666668128,"velocity":0.4251968503937008,"duration":0.09895833333339965},{"name":"C5","midi":72,"time":218.25833333334802,"velocity":0.5826771653543307,"duration":0.09166666666666856},{"name":"E4","midi":64,"time":218.3656250000147,"velocity":0.4251968503937008,"duration":0.055208333333325754},{"name":"B3","midi":59,"time":218.47187500001468,"velocity":0.5590551181102362,"duration":0.19375000000013642},{"name":"D4","midi":62,"time":218.59687500001476,"velocity":0.49606299212598426,"duration":0.14062500000005684},{"name":"D5","midi":74,"time":218.70833333334815,"velocity":0.5748031496062992,"duration":0.0979166666666913},{"name":"E4","midi":64,"time":218.82083333334816,"velocity":0.5118110236220472,"duration":0.05833333333333712},{"name":"B3","midi":59,"time":218.9322916666815,"velocity":0.5669291338582677,"duration":0.1354166666667993},{"name":"D4","midi":62,"time":219.05625000001493,"velocity":0.4409448818897638,"duration":0.06875000000005116},{"name":"D5","midi":74,"time":219.1552083333483,"velocity":0.6456692913385826,"duration":0.08645833333332575},{"name":"E4","midi":64,"time":219.27916666668162,"velocity":0.4566929133858268,"duration":0.04166666666665719},{"name":"B3","midi":59,"time":219.36250000001493,"velocity":0.5511811023622047,"duration":0.16979166666681067},{"name":"D4","midi":62,"time":219.4791666666817,"velocity":0.4094488188976378,"duration":0.10937500000005684},{"name":"C5","midi":72,"time":219.6000000000151,"velocity":0.6141732283464567,"duration":0.09270833333332007},{"name":"E4","midi":64,"time":219.72291666668173,"velocity":0.36220472440944884,"duration":0.040625000000005684},{"name":"B3","midi":59,"time":219.8104166666818,"velocity":0.5511811023622047,"duration":0.12500000000002842},{"name":"D4","midi":62,"time":219.95104166668182,"velocity":0.3543307086614173,"duration":0.06041666666666856},{"name":"B4","midi":71,"time":220.08020833334848,"velocity":0.5433070866141733,"duration":0.12916666666666288},{"name":"E4","midi":64,"time":220.20208333334847,"velocity":0.48031496062992124,"duration":0.08333333333334281},{"name":"A3","midi":57,"time":220.38333333334847,"velocity":0.5905511811023622,"duration":0.26770833333361566},{"name":"C4","midi":60,"time":220.55833333334866,"velocity":0.4094488188976378,"duration":0.14375000000009663},{"name":"C5","midi":72,"time":220.6822916666821,"velocity":0.48031496062992124,"duration":0.08437499999999432},{"name":"E4","midi":64,"time":220.78750000001543,"velocity":0.3858267716535433,"duration":0.040625000000005684},{"name":"A3","midi":57,"time":220.86562500001543,"velocity":0.5039370078740157,"duration":0.16562500000000568},{"name":"C4","midi":60,"time":221.00000000001543,"velocity":0.4330708661417323,"duration":0.06979166666667425},{"name":"C5","midi":72,"time":221.11875000001544,"velocity":0.5354330708661418,"duration":0.08541666666670267},{"name":"E4","midi":64,"time":221.22604166668214,"velocity":0.4251968503937008,"duration":0.040625000000005684},{"name":"A3","midi":57,"time":221.31979166668214,"velocity":0.4881889763779528,"duration":0.13229166666664582},{"name":"C4","midi":60,"time":221.45000000001545,"velocity":0.4015748031496063,"duration":0.037499999999994316},{"name":"C5","midi":72,"time":221.57500000001545,"velocity":0.6062992125984252,"duration":0.06666666666666288},{"name":"E4","midi":64,"time":221.6770833333488,"velocity":0.3937007874015748,"duration":0.04583333333334849},{"name":"A3","midi":57,"time":221.75416666668218,"velocity":0.5669291338582677,"duration":0.15312500000001705},{"name":"C4","midi":60,"time":221.89270833334888,"velocity":0.4251968503937008,"duration":0.05937499999998863},{"name":"C5","midi":72,"time":222.0010416666822,"velocity":0.6299212598425197,"duration":0.11458333333337123},{"name":"E4","midi":64,"time":222.12291666668227,"velocity":0.4330708661417323,"duration":0.04791666666665151},{"name":"A3","midi":57,"time":222.19895833334894,"velocity":0.5511811023622047,"duration":0.16666666666671404},{"name":"C4","midi":60,"time":222.33437500001565,"velocity":0.4881889763779528,"duration":0.08229166666666288},{"name":"D5","midi":74,"time":222.45208333334898,"velocity":0.6614173228346457,"duration":0.10312500000006253},{"name":"E4","midi":64,"time":222.57083333334904,"velocity":0.4566929133858268,"duration":0.06354166666670835},{"name":"A3","midi":57,"time":222.6395833333491,"velocity":0.5590551181102362,"duration":0.14375000000001137},{"name":"C4","midi":60,"time":222.77812500001576,"velocity":0.44881889763779526,"duration":0.057291666666685614},{"name":"D5","midi":74,"time":222.89062500001577,"velocity":0.6535433070866141,"duration":0.10312500000009095},{"name":"E4","midi":64,"time":223.00312500001587,"velocity":0.4645669291338583,"duration":0.061458333333405335},{"name":"A3","midi":57,"time":223.0979166666826,"velocity":0.5748031496062992,"duration":0.15000000000000568},{"name":"C4","midi":60,"time":223.21458333334928,"velocity":0.49606299212598426,"duration":0.07916666666665151},{"name":"C5","midi":72,"time":223.32812500001594,"velocity":0.6220472440944882,"duration":0.10312500000006253},{"name":"E4","midi":64,"time":223.42083333334932,"velocity":0.4330708661417323,"duration":0.06770833333337123},{"name":"A3","midi":57,"time":223.5322916666827,"velocity":0.5984251968503937,"duration":0.16875000000001705},{"name":"C4","midi":60,"time":223.6458333333494,"velocity":0.5118110236220472,"duration":0.09479166666665151},{"name":"B4","midi":71,"time":223.76979166668272,"velocity":0.6377952755905512,"duration":0.109375},{"name":"E4","midi":64,"time":223.89791666668273,"velocity":0.4645669291338583,"duration":0.055208333333325754},{"name":"G3","midi":55,"time":223.98437500001612,"velocity":0.5590551181102362,"duration":0.19479166666678793},{"name":"B3","midi":59,"time":224.09270833334952,"velocity":0.49606299212598426,"duration":0.17395833333335986},{"name":"C5","midi":72,"time":224.21562500001622,"velocity":0.5590551181102362,"duration":0.09166666666666856},{"name":"E4","midi":64,"time":224.32083333334955,"velocity":0.4094488188976378,"duration":0.055208333333325754},{"name":"G3","midi":55,"time":224.43229166668294,"velocity":0.44881889763779526,"duration":0.16250000000005116},{"name":"B3","midi":59,"time":224.55000000001633,"velocity":0.4330708661417323,"duration":0.09583333333333144},{"name":"C5","midi":72,"time":224.68020833334964,"velocity":0.6141732283464567,"duration":0.12604166666667993},{"name":"E4","midi":64,"time":224.80833333334965,"velocity":0.3858267716535433,"duration":0.056250000000034106},{"name":"G3","midi":55,"time":224.89270833334973,"velocity":0.5196850393700787,"duration":0.1812500000000341},{"name":"B3","midi":59,"time":224.99583333334976,"velocity":0.4409448818897638,"duration":0.15416666666666856},{"name":"B4","midi":71,"time":225.15520833334978,"velocity":0.5748031496062992,"duration":0.08854166666665719},{"name":"E4","midi":64,"time":225.26458333334978,"velocity":0.4409448818897638,"duration":0.05937500000001705},{"name":"G3","midi":55,"time":225.35208333334984,"velocity":0.5275590551181102,"duration":0.15729166666673677},{"name":"B3","midi":59,"time":225.45625000001658,"velocity":0.5118110236220472,"duration":0.08437499999999432},{"name":"B4","midi":71,"time":225.5864583333499,"velocity":0.6220472440944882,"duration":0.09687500000001137},{"name":"E4","midi":64,"time":225.69375000001656,"velocity":0.4645669291338583,"duration":0.055208333333325754},{"name":"G3","midi":55,"time":225.78437500001658,"velocity":0.5826771653543307,"duration":0.17916666666690162},{"name":"B3","midi":59,"time":225.87187500001667,"velocity":0.5039370078740157,"duration":0.13645833333347923},{"name":"D5","midi":74,"time":226.01250000001681,"velocity":0.6377952755905512,"duration":0.12395833333334849},{"name":"E4","midi":64,"time":226.13437500001683,"velocity":0.4645669291338583,"duration":0.08333333333334281},{"name":"G3","midi":55,"time":226.2197916666835,"velocity":0.6141732283464567,"duration":0.1760416666668334},{"name":"B3","midi":59,"time":226.35104166668364,"velocity":0.4409448818897638,"duration":0.09062500000001705},{"name":"D5","midi":74,"time":226.462500000017,"velocity":0.6692913385826772,"duration":0.11770833333335418},{"name":"E4","midi":64,"time":226.58958333335036,"velocity":0.5354330708661418,"duration":0.06666666666666288},{"name":"G3","midi":55,"time":226.70312500001702,"velocity":0.6850393700787402,"duration":0.19479166666681635},{"name":"B3","midi":59,"time":226.83437500001713,"velocity":0.47244094488188976,"duration":0.10937500000005684},{"name":"E5","midi":76,"time":226.97291666668386,"velocity":0.7165354330708661,"duration":0.08541666666667425},{"name":"E4","midi":64,"time":227.09791666668386,"velocity":0.44881889763779526,"duration":0.046875},{"name":"G3","midi":55,"time":227.1916666666839,"velocity":0.5433070866141733,"duration":0.16145833333339965},{"name":"B3","midi":59,"time":227.32812500001728,"velocity":0.4881889763779528,"duration":0.09479166666667993},{"name":"E5","midi":76,"time":227.49791666668395,"velocity":0.6771653543307087,"duration":0.08750000000000568},{"name":"E4","midi":64,"time":227.6437500000173,"velocity":0.47244094488188976,"duration":0.04583333333332007},{"name":"A3","midi":57,"time":227.81770833335062,"velocity":0.6692913385826772,"duration":0.2552083333334565},{"name":"C4","midi":60,"time":227.9864583333507,"velocity":0.47244094488188976,"duration":0.15104166666671404},{"name":"C5","midi":72,"time":228.1375000000174,"velocity":0.49606299212598426,"duration":0.07604166666669698},{"name":"E4","midi":64,"time":228.22083333335078,"velocity":0.5039370078740157,"duration":0.04270833333333712},{"name":"A3","midi":57,"time":228.35104166668413,"velocity":0.5196850393700787,"duration":0.15000000000006253},{"name":"C4","midi":60,"time":228.44375000001753,"velocity":0.4251968503937008,"duration":0.11041666666667993},{"name":"C5","midi":72,"time":228.5864583333509,"velocity":0.5984251968503937,"duration":0.07604166666666856},{"name":"E4","midi":64,"time":228.68229166668422,"velocity":0.44881889763779526,"duration":0.03645833333334281},{"name":"A3","midi":57,"time":228.7791666666843,"velocity":0.48031496062992124,"duration":0.16250000000005116},{"name":"C4","midi":60,"time":228.88541666668434,"velocity":0.36220472440944884,"duration":0.09270833333334849},{"name":"C5","midi":72,"time":229.01041666668436,"velocity":0.6220472440944882,"duration":0.07499999999998863},{"name":"E4","midi":64,"time":229.13854166668435,"velocity":0.3937007874015748,"duration":0.019791666666662877},{"name":"A3","midi":57,"time":229.21770833335106,"velocity":0.5196850393700787,"duration":0.15208333333336554},{"name":"C4","midi":60,"time":229.31666666668443,"velocity":0.4015748031496063,"duration":0.08958333333333712},{"name":"C5","midi":72,"time":229.4437500000178,"velocity":0.5826771653543307,"duration":0.09791666666666288},{"name":"E4","midi":64,"time":229.55625000001777,"velocity":0.4566929133858268,"duration":0.04791666666667993},{"name":"A3","midi":57,"time":229.6552083333512,"velocity":0.5196850393700787,"duration":0.17395833333344513},{"name":"C4","midi":60,"time":229.76875000001795,"velocity":0.4251968503937008,"duration":0.10000000000002274},{"name":"D5","midi":74,"time":229.88229166668464,"velocity":0.6141732283464567,"duration":0.09166666666666856},{"name":"E4","midi":64,"time":229.99166666668464,"velocity":0.44881889763779526,"duration":0.04583333333332007},{"name":"A3","midi":57,"time":230.10416666668465,"velocity":0.5196850393700787,"duration":0.12604166666673677},{"name":"C4","midi":60,"time":230.20312500001802,"velocity":0.4094488188976378,"duration":0.09270833333337691},{"name":"D5","midi":74,"time":230.31979166668472,"velocity":0.6062992125984252,"duration":0.06770833333334281},{"name":"E4","midi":64,"time":230.46458333335138,"velocity":0.31496062992125984,"duration":0.015625},{"name":"A3","midi":57,"time":230.52916666668474,"velocity":0.5196850393700787,"duration":0.18020833333341102},{"name":"C4","midi":60,"time":230.6416666666848,"velocity":0.4015748031496063,"duration":0.10729166666666856},{"name":"C5","midi":72,"time":230.76562500001816,"velocity":0.5984251968503937,"duration":0.09166666666666856},{"name":"E4","midi":64,"time":230.86250000001817,"velocity":0.44881889763779526,"duration":0.053124999999994316},{"name":"A3","midi":57,"time":230.97708333335152,"velocity":0.5354330708661418,"duration":0.15208333333336554},{"name":"C4","midi":60,"time":231.09166666668486,"velocity":0.4645669291338583,"duration":0.08437500000002274},{"name":"B4","midi":71,"time":231.20833333335156,"velocity":0.5511811023622047,"duration":0.08437499999999432},{"name":"E4","midi":64,"time":231.31770833335156,"velocity":0.4645669291338583,"duration":0.046875},{"name":"B3","midi":59,"time":231.4385416666849,"velocity":0.5590551181102362,"duration":0.17916666666678793},{"name":"D4","midi":62,"time":231.53645833335167,"velocity":0.4645669291338583,"duration":0.13750000000001705},{"name":"C5","midi":72,"time":231.6677083333517,"velocity":0.5433070866141733,"duration":0.07291666666665719},{"name":"E4","midi":64,"time":231.77916666668503,"velocity":0.4015748031496063,"duration":0.04583333333332007},{"name":"B3","midi":59,"time":231.87812500001837,"velocity":0.4330708661417323,"duration":0.19375000000005116},{"name":"D4","midi":62,"time":231.99583333335175,"velocity":0.4094488188976378,"duration":0.08854166666665719},{"name":"C5","midi":72,"time":232.11145833335175,"velocity":0.5118110236220472,"duration":0.07395833333333712},{"name":"E4","midi":64,"time":232.2041666666851,"velocity":0.4330708661417323,"duration":0.05729166666665719},{"name":"B3","midi":59,"time":232.31979166668512,"velocity":0.5118110236220472,"duration":0.14791666666670267},{"name":"D4","midi":62,"time":232.43854166668515,"velocity":0.4251968503937008,"duration":0.08645833333332575},{"name":"C5","midi":72,"time":232.55729166668516,"velocity":0.5275590551181102,"duration":0.08229166666666288},{"name":"E4","midi":64,"time":232.65937500001849,"velocity":0.4330708661417323,"duration":0.053124999999994316},{"name":"B3","midi":59,"time":232.76458333335185,"velocity":0.49606299212598426,"duration":0.13020833333348492},{"name":"D4","midi":62,"time":232.8791666666853,"velocity":0.4251968503937008,"duration":0.08645833333335418},{"name":"C5","midi":72,"time":232.998958333352,"velocity":0.5984251968503937,"duration":0.09270833333334849},{"name":"E4","midi":64,"time":233.11979166668533,"velocity":0.4015748031496063,"duration":0.04479166666666856},{"name":"B3","midi":59,"time":233.21770833335202,"velocity":0.5590551181102362,"duration":0.1520833333334508},{"name":"D4","midi":62,"time":233.34062500001878,"velocity":0.41732283464566927,"duration":0.06979166666670267},{"name":"D5","midi":74,"time":233.44583333335214,"velocity":0.6377952755905512,"duration":0.08125000000001137},{"name":"E4","midi":64,"time":233.58125000001883,"velocity":0.4330708661417323,"duration":0.042708333333393966},{"name":"B3","midi":59,"time":233.6562500000189,"velocity":0.5275590551181102,"duration":0.12083333333336554},{"name":"D4","midi":62,"time":233.7666666666856,"velocity":0.48031496062992124,"duration":0.04479166666666856},{"name":"D5","midi":74,"time":233.8604166666856,"velocity":0.5590551181102362,"duration":0.08750000000000568},{"name":"E4","midi":64,"time":233.9604166666856,"velocity":0.4566929133858268,"duration":0.053124999999994316},{"name":"B3","midi":59,"time":234.09479166668564,"velocity":0.5905511811023622,"duration":0.15208333333347923},{"name":"D4","midi":62,"time":234.18229166668573,"velocity":0.3779527559055118,"duration":0.12708333333338828},{"name":"C5","midi":72,"time":234.2947916666858,"velocity":0.5984251968503937,"duration":0.12604166666667993},{"name":"E4","midi":64,"time":234.42708333335247,"velocity":0.4094488188976378,"duration":0.053124999999994316},{"name":"B3","midi":59,"time":234.51562500001913,"velocity":0.5669291338582677,"duration":0.13333333333332575},{"name":"D4","midi":62,"time":234.63750000001912,"velocity":0.4645669291338583,"duration":0.07187500000000568},{"name":"B4","midi":71,"time":234.75104166668578,"velocity":0.5354330708661418,"duration":0.12291666666666856},{"name":"E4","midi":64,"time":234.8687500000191,"velocity":0.5275590551181102,"duration":0.05104166666666288},{"name":"C4","midi":60,"time":235.0187500000191,"velocity":0.6141732283464567,"duration":0.19583333333343944},{"name":"E4","midi":64,"time":235.18958333335252,"velocity":0.49606299212598426,"duration":0.08958333333339397},{"name":"C5","midi":72,"time":235.30937500001923,"velocity":0.6220472440944882,"duration":0.08750000000000568},{"name":"E4","midi":64,"time":235.43645833335256,"velocity":0.3700787401574803,"duration":0.015625},{"name":"C4","midi":60,"time":235.52708333335258,"velocity":0.5590551181102362,"duration":0.13437500000006253},{"name":"E4","midi":64,"time":235.6458333333526,"velocity":0.36220472440944884,"duration":0.08125000000003979},{"name":"C5","midi":72,"time":235.7656250000193,"velocity":0.5984251968503937,"duration":0.07708333333332007},{"name":"E4","midi":64,"time":235.85729166668594,"velocity":0.3937007874015748,"duration":0.040625000000005684},{"name":"C4","midi":60,"time":235.9625000000193,"velocity":0.5433070866141733,"duration":0.1489583333333826},{"name":"E4","midi":64,"time":236.104166666686,"velocity":0.4094488188976378,"duration":0.07291666666668561},{"name":"C5","midi":72,"time":236.22604166668603,"velocity":0.6062992125984252,"duration":0.08125000000001137},{"name":"E4","midi":64,"time":236.33125000001937,"velocity":0.4409448818897638,"duration":0.04375000000001705},{"name":"C4","midi":60,"time":236.4125000000194,"velocity":0.48031496062992124,"duration":0.16145833333339965},{"name":"E4","midi":64,"time":236.5489583333528,"velocity":0.3937007874015748,"duration":0.05833333333333712},{"name":"C5","midi":72,"time":236.65416666668614,"velocity":0.5748031496062992,"duration":0.08437500000002274},{"name":"E4","midi":64,"time":236.72187500001948,"velocity":0.49606299212598426,"duration":0.08020833333335986},{"name":"C4","midi":60,"time":236.87395833335287,"velocity":0.5748031496062992,"duration":0.14687500000007958},{"name":"E4","midi":64,"time":237.00208333335294,"velocity":0.44881889763779526,"duration":0.0510416666666913},{"name":"D5","midi":74,"time":237.09687500001962,"velocity":0.6220472440944882,"duration":0.0718750000000341},{"name":"E4","midi":64,"time":237.22291666668633,"velocity":0.4094488188976378,"duration":0.039583333333325754},{"name":"C4","midi":60,"time":237.31875000001966,"velocity":0.5511811023622047,"duration":0.1260416666667652},{"name":"E4","midi":64,"time":237.43645833335307,"velocity":0.4094488188976378,"duration":0.06041666666669698},{"name":"D5","midi":74,"time":237.5395833333531,"velocity":0.6535433070866141,"duration":0.07083333333335418},{"name":"E4","midi":64,"time":237.65625000001978,"velocity":0.44881889763779526,"duration":0.040625000000005684},{"name":"C4","midi":60,"time":237.76875000001982,"velocity":0.5590551181102362,"duration":0.1541666666667254},{"name":"E4","midi":64,"time":237.88958333335322,"velocity":0.4330708661417323,"duration":0.06145833333332007},{"name":"C5","midi":72,"time":238.0062500000199,"velocity":0.6299212598425197,"duration":0.09479166666667993},{"name":"E4","midi":64,"time":238.09895833335324,"velocity":0.48031496062992124,"duration":0.05833333333333712},{"name":"C4","midi":60,"time":238.2072916666866,"velocity":0.5826771653543307,"duration":0.1572916666666515},{"name":"E4","midi":64,"time":238.3250000000199,"velocity":0.5118110236220472,"duration":0.08437499999999432},{"name":"B4","midi":71,"time":238.4531250000199,"velocity":0.6614173228346457,"duration":0.11770833333332575},{"name":"E4","midi":64,"time":238.58229166668656,"velocity":0.5039370078740157,"duration":0.05937499999998863},{"name":"D4","midi":62,"time":238.72812500001987,"velocity":0.6614173228346457,"duration":0.20729166666680499},{"name":"F4","midi":65,"time":238.8927083333533,"velocity":0.4645669291338583,"duration":0.10833333333337691},{"name":"C5","midi":72,"time":239.00833333335336,"velocity":0.6299212598425197,"duration":0.08125000000001137},{"name":"E4","midi":64,"time":239.12812500002005,"velocity":0.4330708661417323,"duration":0.04270833333333712},{"name":"D4","midi":62,"time":239.20520833335343,"velocity":0.5354330708661418,"duration":0.15208333333339397},{"name":"F4","midi":65,"time":239.3385416666868,"velocity":0.49606299212598426,"duration":0.08125000000003979},{"name":"C5","midi":72,"time":239.42291666668686,"velocity":0.6220472440944882,"duration":0.06874999999999432},{"name":"E4","midi":64,"time":239.51145833335352,"velocity":0.48031496062992124,"duration":0.06458333333338828},{"name":"D4","midi":62,"time":239.61770833335356,"velocity":0.5905511811023622,"duration":0.15208333333336554},{"name":"F4","midi":65,"time":239.7302083333536,"velocity":0.5590551181102362,"duration":0.09375},{"name":"C5","midi":72,"time":239.8427083333536,"velocity":0.7244094488188977,"duration":0.07291666666665719},{"name":"E4","midi":64,"time":239.9520833333536,"velocity":0.4566929133858268,"duration":0.04583333333332007},{"name":"D4","midi":62,"time":240.04583333335364,"velocity":0.5984251968503937,"duration":0.1333333333333826},{"name":"F4","midi":65,"time":240.160416666687,"velocity":0.5433070866141733,"duration":0.09375},{"name":"C5","midi":72,"time":240.26770833335368,"velocity":0.6141732283464567,"duration":0.09687500000001137},{"name":"E4","midi":64,"time":240.38437500002036,"velocity":0.4015748031496063,"duration":0.05000000000001137},{"name":"D4","midi":62,"time":240.4770833333537,"velocity":0.6141732283464567,"duration":0.1562500000001421},{"name":"F4","midi":65,"time":240.59270833335384,"velocity":0.5196850393700787,"duration":0.12395833333334849},{"name":"B4","midi":71,"time":240.69270833335386,"velocity":0.6771653543307087,"duration":0.125},{"name":"E4","midi":64,"time":240.8291666666872,"velocity":0.4881889763779528,"duration":0.06874999999999432},{"name":"D4","midi":62,"time":240.90833333335385,"velocity":0.5590551181102362,"duration":0.1697916666667254},{"name":"F4","midi":65,"time":241.05625000002058,"velocity":0.5511811023622047,"duration":0.09270833333334849},{"name":"B4","midi":71,"time":241.14270833335394,"velocity":0.6692913385826772,"duration":0.10520833333333712},{"name":"E4","midi":64,"time":241.2500000000206,"velocity":0.47244094488188976,"duration":0.06562500000001137},{"name":"D4","midi":62,"time":241.35937500002063,"velocity":0.6377952755905512,"duration":0.16145833333339965},{"name":"F4","midi":65,"time":241.4875000000207,"velocity":0.5354330708661418,"duration":0.10208333333335418},{"name":"D5","midi":74,"time":241.57083333335405,"velocity":0.6771653543307087,"duration":0.10416666666668561},{"name":"E4","midi":64,"time":241.71875000002072,"velocity":0.3858267716535433,"duration":0.040625000000005684},{"name":"D4","midi":62,"time":241.80729166668743,"velocity":0.6220472440944882,"duration":0.1437500000000682},{"name":"F4","midi":65,"time":241.92395833335416,"velocity":0.5826771653543307,"duration":0.08020833333333144},{"name":"D5","midi":74,"time":242.08958333335417,"velocity":0.6614173228346457,"duration":0.15208333333333712},{"name":"E4","midi":64,"time":242.25520833335418,"velocity":0.5748031496062992,"duration":0.09062499999998863},{"name":"A3","midi":57,"time":242.43854166668748,"velocity":0.7007874015748031,"duration":0.5677083333335986},{"name":"E4","midi":64,"time":242.67187500002106,"velocity":0.5118110236220472,"duration":0.35104166666670267},{"name":"C5","midi":72,"time":242.88229166668776,"velocity":0.6614173228346457,"duration":0.15833333333333144},{"name":"F4","midi":65,"time":243.02916666668776,"velocity":0.5433070866141733,"duration":0.08958333333333712},{"name":"A3","midi":57,"time":243.18854166668777,"velocity":0.6220472440944882,"duration":0.20208333333343376},{"name":"E4","midi":64,"time":243.32604166668787,"velocity":0.47244094488188976,"duration":0.08541666666667425},{"name":"C5","midi":72,"time":243.45416666668788,"velocity":0.6535433070866141,"duration":0.06562500000001137},{"name":"F4","midi":65,"time":243.58645833335456,"velocity":0.33070866141732286,"duration":0.004166666666662877},{"name":"A3","midi":57,"time":243.65416666668793,"velocity":0.6535433070866141,"duration":0.11562500000005116},{"name":"E4","midi":64,"time":243.77604166668797,"velocity":0.4409448818897638,"duration":0.08020833333333144},{"name":"C5","midi":72,"time":243.9125000000213,"velocity":0.5118110236220472,"duration":0.078125},{"name":"F4","midi":65,"time":244.01666666668797,"velocity":0.4409448818897638,"duration":0.037499999999994316},{"name":"A3","midi":57,"time":244.10937500002137,"velocity":0.6141732283464567,"duration":0.10104166666670267},{"name":"E4","midi":64,"time":244.21562500002142,"velocity":0.4330708661417323,"duration":0.08750000000000568},{"name":"C5","midi":72,"time":244.33020833335476,"velocity":0.5196850393700787,"duration":0.09687500000001137},{"name":"F4","midi":65,"time":244.4385416666881,"velocity":0.4251968503937008,"duration":0.040625000000005684},{"name":"A3","midi":57,"time":244.52187500002148,"velocity":0.6377952755905512,"duration":0.11458333333337123},{"name":"E4","midi":64,"time":244.63854166668818,"velocity":0.4566929133858268,"duration":0.07916666666667993},{"name":"C5","midi":72,"time":244.7416666666882,"velocity":0.4566929133858268,"duration":0.078125},{"name":"A4","midi":69,"time":244.8354166666882,"velocity":0.4881889763779528,"duration":0.07708333333334849},{"name":"A3","midi":57,"time":244.9500000000216,"velocity":0.6141732283464567,"duration":0.10520833333339397},{"name":"E4","midi":64,"time":245.0541666666883,"velocity":0.47244094488188976,"duration":0.06770833333337123},{"name":"C5","midi":72,"time":245.15312500002167,"velocity":0.5196850393700787,"duration":0.12083333333333712},{"name":"A4","midi":69,"time":245.26562500002169,"velocity":0.5196850393700787,"duration":0.07499999999998863},{"name":"A3","midi":57,"time":245.38645833335502,"velocity":0.6220472440944882,"duration":0.11458333333331439},{"name":"E4","midi":64,"time":245.47916666668834,"velocity":0.4251968503937008,"duration":0.06979166666667425},{"name":"C5","midi":72,"time":245.6031250000217,"velocity":0.5590551181102362,"duration":0.09895833333334281},{"name":"A4","midi":69,"time":245.7093750000217,"velocity":0.5354330708661418,"duration":0.06458333333338828},{"name":"A3","midi":57,"time":245.80625000002178,"velocity":0.5905511811023622,"duration":0.09479166666670835},{"name":"E4","midi":64,"time":245.90833333335516,"velocity":0.49606299212598426,"duration":0.07187500000000568},{"name":"C5","midi":72,"time":246.0166666666885,"velocity":0.6220472440944882,"duration":0.11250000000001137},{"name":"A4","midi":69,"time":246.13229166668853,"velocity":0.5590551181102362,"duration":0.07395833333333712},{"name":"G3","midi":55,"time":246.24375000002186,"velocity":0.6692913385826772,"duration":0.18750000000017053},{"name":"E4","midi":64,"time":246.36562500002196,"velocity":0.5039370078740157,"duration":0.1177083333333826},{"name":"C5","midi":72,"time":246.48125000002202,"velocity":0.5590551181102362,"duration":0.11666666666667425},{"name":"A4","midi":69,"time":246.60416666668868,"velocity":0.5039370078740157,"duration":0.04791666666667993},{"name":"G3","midi":55,"time":246.6885416666887,"velocity":0.5196850393700787,"duration":0.12708333333344513},{"name":"E4","midi":64,"time":246.81250000002214,"velocity":0.4094488188976378,"duration":0.05000000000001137},{"name":"C5","midi":72,"time":246.90833333335547,"velocity":0.5039370078740157,"duration":0.08333333333334281},{"name":"A4","midi":69,"time":247.0083333333555,"velocity":0.49606299212598426,"duration":0.06041666666666856},{"name":"G3","midi":55,"time":247.1208333333555,"velocity":0.5826771653543307,"duration":0.1187500000000341},{"name":"E4","midi":64,"time":247.23645833335553,"velocity":0.4330708661417323,"duration":0.046875},{"name":"C5","midi":72,"time":247.3406250000222,"velocity":0.5039370078740157,"duration":0.07916666666667993},{"name":"A4","midi":69,"time":247.43854166668888,"velocity":0.47244094488188976,"duration":0.07083333333332575},{"name":"G3","midi":55,"time":247.5500000000222,"velocity":0.5354330708661418,"duration":0.10625000000004547},{"name":"E4","midi":64,"time":247.6520833333556,"velocity":0.4330708661417323,"duration":0.06250000000002842},{"name":"C5","midi":72,"time":247.75104166668896,"velocity":0.5039370078740157,"duration":0.11145833333335986},{"name":"A4","midi":69,"time":247.87187500002233,"velocity":0.4566929133858268,"duration":0.055208333333325754},{"name":"G3","midi":55,"time":247.979166666689,"velocity":0.6220472440944882,"duration":0.14479166666677656},{"name":"E4","midi":64,"time":248.1135416666891,"velocity":0.4330708661417323,"duration":0.1031250000000341},{"name":"B4","midi":71,"time":248.19583333335578,"velocity":0.4645669291338583,"duration":0.10937500000002842},{"name":"A4","midi":69,"time":248.31875000002248,"velocity":0.4881889763779528,"duration":0.07083333333332575},{"name":"G3","midi":55,"time":248.41979166668918,"velocity":0.5669291338582677,"duration":0.14479166666671972},{"name":"E4","midi":64,"time":248.51666666668925,"velocity":0.4566929133858268,"duration":0.07812499999997158},{"name":"B4","midi":71,"time":248.62916666668923,"velocity":0.48031496062992124,"duration":0.09479166666667993},{"name":"A4","midi":69,"time":248.73125000002258,"velocity":0.5196850393700787,"duration":0.06770833333334281},{"name":"G3","midi":55,"time":248.85937500002265,"velocity":0.5748031496062992,"duration":0.12187500000001705},{"name":"E4","midi":64,"time":248.967708333356,"velocity":0.44881889763779526,"duration":0.08645833333332575},{"name":"B4","midi":71,"time":249.09375000002265,"velocity":0.5039370078740157,"duration":0.08541666666667425},{"name":"A4","midi":69,"time":249.19687500002266,"velocity":0.5590551181102362,"duration":0.08020833333333144},{"name":"G3","midi":55,"time":249.298958333356,"velocity":0.5748031496062992,"duration":0.10937500000005684},{"name":"E4","midi":64,"time":249.39687500002273,"velocity":0.4645669291338583,"duration":0.09999999999999432},{"name":"B4","midi":71,"time":249.52708333335605,"velocity":0.6062992125984252,"duration":0.11145833333333144},{"name":"A4","midi":69,"time":249.65000000002271,"velocity":0.5590551181102362,"duration":0.17604166666671972},{"name":"F3","midi":53,"time":249.76770833335607,"velocity":0.6299212598425197,"duration":0.21145833333349628},{"name":"E4","midi":64,"time":249.9072916666895,"velocity":0.49606299212598426,"duration":0.14166666666673677},{"name":"B4","midi":71,"time":250.03541666668957,"velocity":0.4015748031496063,"duration":0.07395833333333712},{"name":"F4","midi":65,"time":250.13229166668958,"velocity":0.5039370078740157,"duration":0.05208333333334281},{"name":"F3","midi":53,"time":250.23333333335626,"velocity":0.5984251968503937,"duration":0.15416666666675383},{"name":"E4","midi":64,"time":250.34687500002298,"velocity":0.44881889763779526,"duration":0.09375000000002842},{"name":"B4","midi":71,"time":250.4510416666897,"velocity":0.48031496062992124,"duration":0.07916666666667993},{"name":"F4","midi":65,"time":250.5479166666897,"velocity":0.47244094488188976,"duration":0.04583333333332007},{"name":"F3","midi":53,"time":250.65104166668974,"velocity":0.5354330708661418,"duration":0.17083333333340533},{"name":"E4","midi":64,"time":250.75937500002314,"velocity":0.4251968503937008,"duration":0.09583333333333144},{"name":"B4","midi":71,"time":250.9041666666898,"velocity":0.49606299212598426,"duration":0.10416666666668561},{"name":"F4","midi":65,"time":251.01562500002316,"velocity":0.5039370078740157,"duration":0.04270833333333712},{"name":"F3","midi":53,"time":251.10312500002317,"velocity":0.5905511811023622,"duration":0.1750000000001819},{"name":"E4","midi":64,"time":251.2156250000233,"velocity":0.4881889763779528,"duration":0.09062500000004547},{"name":"B4","midi":71,"time":251.31770833335668,"velocity":0.5590551181102362,"duration":0.09895833333334281},{"name":"F4","midi":65,"time":251.4239583333567,"velocity":0.4566929133858268,"duration":0.056250000000005684},{"name":"F3","midi":53,"time":251.5270833333567,"velocity":0.6062992125984252,"duration":0.20208333333346218},{"name":"E4","midi":64,"time":251.6479166666901,"velocity":0.4409448818897638,"duration":0.10833333333340533},{"name":"A4","midi":69,"time":251.7593750000235,"velocity":0.5196850393700787,"duration":0.109375},{"name":"F4","midi":65,"time":251.8687500000235,"velocity":0.4566929133858268,"duration":0.04374999999998863},{"name":"F3","midi":53,"time":251.96979166669018,"velocity":0.6141732283464567,"duration":0.15625},{"name":"E4","midi":64,"time":252.0916666666902,"velocity":0.4409448818897638,"duration":0.08749999999997726},{"name":"A4","midi":69,"time":252.1812500000235,"velocity":0.5433070866141733,"duration":0.09375000000002842},{"name":"F4","midi":65,"time":252.28645833335688,"velocity":0.4645669291338583,"duration":0.04895833333333144},{"name":"F3","midi":53,"time":252.3822916666902,"velocity":0.6299212598425197,"duration":0.18125000000006253},{"name":"E4","midi":64,"time":252.5156250000236,"velocity":0.41732283464566927,"duration":0.10937500000005684},{"name":"A4","midi":69,"time":252.60416666669028,"velocity":0.5511811023622047,"duration":0.11250000000003979},{"name":"F4","midi":65,"time":252.7385416666903,"velocity":0.48031496062992124,"duration":0.04270833333333712},{"name":"F3","midi":53,"time":252.81562500002366,"velocity":0.5354330708661418,"duration":0.17708333333339965},{"name":"E4","midi":64,"time":252.92604166669037,"velocity":0.4409448818897638,"duration":0.06354166666667993},{"name":"A4","midi":69,"time":253.05520833335706,"velocity":0.5275590551181102,"duration":0.11354166666666288},{"name":"F4","midi":65,"time":253.1666666666904,"velocity":0.5433070866141733,"duration":0.06874999999999432},{"name":"G3","midi":55,"time":253.27187500002373,"velocity":0.6614173228346457,"duration":0.26250000000030127},{"name":"D4","midi":62,"time":253.40104166669053,"velocity":0.5196850393700787,"duration":0.19687500000017621},{"name":"A4","midi":69,"time":253.50416666669068,"velocity":0.5196850393700787,"duration":0.10208333333335418},{"name":"F4","midi":65,"time":253.60937500002404,"velocity":0.5039370078740157,"duration":0.05104166666666288},{"name":"G3","midi":55,"time":253.7083333333574,"velocity":0.49606299212598426,"duration":0.1406250000001137},{"name":"D4","midi":62,"time":253.82083333335746,"velocity":0.31496062992125984,"duration":0.12083333333339397},{"name":"A4","midi":69,"time":253.91979166669083,"velocity":0.5039370078740157,"duration":0.08854166666668561},{"name":"F4","midi":65,"time":254.0156250000242,"velocity":0.4409448818897638,"duration":0.05937499999998863},{"name":"G3","midi":55,"time":254.1187500000242,"velocity":0.4881889763779528,"duration":0.14166666666667993},{"name":"D4","midi":62,"time":254.24270833335754,"velocity":0.36220472440944884,"duration":0.08333333333334281},{"name":"A4","midi":69,"time":254.34895833335756,"velocity":0.4645669291338583,"duration":0.08750000000000568},{"name":"F4","midi":65,"time":254.45208333335756,"velocity":0.4881889763779528,"duration":0.05000000000001137},{"name":"G3","midi":55,"time":254.56458333335758,"velocity":0.6299212598425197,"duration":0.15104166666674246},{"name":"D4","midi":62,"time":254.68958333335766,"velocity":0.5039370078740157,"duration":0.07499999999998863},{"name":"A4","midi":69,"time":254.77812500002432,"velocity":0.4881889763779528,"duration":0.11666666666667425},{"name":"F4","midi":65,"time":254.897916666691,"velocity":0.49606299212598426,"duration":0.05208333333334281},{"name":"G3","midi":55,"time":255.00625000002435,"velocity":0.5984251968503937,"duration":0.1416666666667652},{"name":"D4","midi":62,"time":255.11458333335776,"velocity":0.5039370078740157,"duration":0.1593750000000682},{"name":"C5","midi":72,"time":255.2302083333578,"velocity":0.5984251968503937,"duration":0.08020833333335986},{"name":"F4","midi":65,"time":255.3593750000245,"velocity":0.5275590551181102,"duration":0.04166666666665719},{"name":"G3","midi":55,"time":255.4604166666912,"velocity":0.5039370078740157,"duration":0.11250000000001137},{"name":"D4","midi":62,"time":255.57812500002456,"velocity":0.49606299212598426,"duration":0.08854166666665719},{"name":"C5","midi":72,"time":255.67604166669122,"velocity":0.6377952755905512,"duration":0.10729166666666856},{"name":"F4","midi":65,"time":255.7916666666912,"velocity":0.5354330708661418,"duration":0.055208333333325754},{"name":"G3","midi":55,"time":255.90937500002457,"velocity":0.5669291338582677,"duration":0.16145833333337123},{"name":"D4","midi":62,"time":256.03020833335796,"velocity":0.5118110236220472,"duration":0.10416666666662877},{"name":"B4","midi":71,"time":256.14791666669123,"velocity":0.6141732283464567,"duration":0.10729166666664014},{"name":"F4","midi":65,"time":256.2791666666912,"velocity":0.5196850393700787,"duration":0.04791666666665151},{"name":"G3","midi":55,"time":256.3718750000245,"velocity":0.5905511811023622,"duration":0.5874999999999773},{"name":"D4","midi":62,"time":256.49583333335784,"velocity":0.5275590551181102,"duration":0.32083333333332575},{"name":"B4","midi":71,"time":256.6322916666912,"velocity":0.5905511811023622,"duration":0.32291666666662877},{"name":"F4","midi":65,"time":256.7843750000245,"velocity":0.5511811023622047,"duration":0.16979166666664014},{"name":"A3","midi":57,"time":256.96562500002443,"velocity":0.6929133858267716,"duration":0.30520833333321207},{"name":"C4","midi":60,"time":257.14479166669105,"velocity":0.4566929133858268,"duration":0.21874999999994316},{"name":"C5","midi":72,"time":257.297916666691,"velocity":0.6062992125984252,"duration":0.24791666666664014},{"name":"G4","midi":67,"time":257.45625000002434,"velocity":0.5748031496062992,"duration":0.1374999999999318},{"name":"A3","midi":57,"time":257.5968750000243,"velocity":0.6141732283464567,"duration":0.20833333333331439},{"name":"C4","midi":60,"time":257.72291666669094,"velocity":0.3858267716535433,"duration":0.1395833333333485},{"name":"C5","midi":72,"time":257.83541666669095,"velocity":0.6771653543307087,"duration":0.13020833333331439},{"name":"G4","midi":67,"time":257.9510416666909,"velocity":0.5039370078740157,"duration":0.056250000000034106},{"name":"A3","midi":57,"time":258.0395833333576,"velocity":0.5118110236220472,"duration":0.16770833333333712},{"name":"C4","midi":60,"time":258.16666666669096,"velocity":0.44881889763779526,"duration":0.11041666666665151},{"name":"C5","midi":72,"time":258.2812500000243,"velocity":0.6299212598425197,"duration":0.12083333333328028},{"name":"G4","midi":67,"time":258.3729166666909,"velocity":0.5354330708661418,"duration":0.08229166666666288},{"name":"A3","midi":57,"time":258.4864583333575,"velocity":0.5748031496062992,"duration":0.1708333333333485},{"name":"C4","midi":60,"time":258.6270833333575,"velocity":0.4409448818897638,"duration":0.09375000000005684},{"name":"C5","midi":72,"time":258.7031250000242,"velocity":0.6141732283464567,"duration":0.13125000000002274},{"name":"G4","midi":67,"time":258.8385416666909,"velocity":0.5118110236220472,"duration":0.1010416666666174},{"name":"A3","midi":57,"time":258.92708333335753,"velocity":0.5590551181102362,"duration":0.20208333333329165},{"name":"C4","midi":60,"time":259.06458333335746,"velocity":0.4566929133858268,"duration":0.13229166666667425},{"name":"C5","midi":72,"time":259.1677083333575,"velocity":0.5511811023622047,"duration":0.109375},{"name":"F4","midi":65,"time":259.28125000002416,"velocity":0.49606299212598426,"duration":0.06249999999994316},{"name":"A3","midi":57,"time":259.3822916666908,"velocity":0.5669291338582677,"duration":0.15208333333328028},{"name":"C4","midi":60,"time":259.50833333335737,"velocity":0.4330708661417323,"duration":0.09687500000001137},{"name":"C5","midi":72,"time":259.6010416666907,"velocity":0.5196850393700787,"duration":0.12083333333333712},{"name":"F4","midi":65,"time":259.7239583333574,"velocity":0.5433070866141733,"duration":0.06770833333331439},{"name":"A3","midi":57,"time":259.82812500002404,"velocity":0.4645669291338583,"duration":0.19791666666662877},{"name":"C4","midi":60,"time":259.93437500002403,"velocity":0.3779527559055118,"duration":0.10208333333332575},{"name":"C5","midi":72,"time":260.056250000024,"velocity":0.4881889763779528,"duration":0.10833333333329165},{"name":"E4","midi":64,"time":260.159375000024,"velocity":0.41732283464566927,"duration":0.07083333333332575},{"name":"A3","midi":57,"time":260.2572916666906,"velocity":0.44881889763779526,"duration":0.17708333333337123},{"name":"C4","midi":60,"time":260.371875000024,"velocity":0.4015748031496063,"duration":0.10208333333332575},{"name":"C5","midi":72,"time":260.512500000024,"velocity":0.4645669291338583,"duration":0.12708333333335986},{"name":"E4","midi":64,"time":260.6364583333573,"velocity":0.36220472440944884,"duration":0.054166666666674246},{"name":"A3","midi":57,"time":260.75104166669064,"velocity":0.44881889763779526,"duration":0.3031249999998522},{"name":"C4","midi":60,"time":260.88229166669055,"velocity":0.4094488188976378,"duration":0.16562499999992042},{"name":"C5","midi":72,"time":261.00312500002383,"velocity":0.4409448818897638,"duration":0.09687500000001137},{"name":"G4","midi":67,"time":261.1114583333572,"velocity":0.4566929133858268,"duration":0.07291666666668561},{"name":"A3","midi":57,"time":261.2270833333572,"velocity":0.4251968503937008,"duration":0.21249999999997726},{"name":"C4","midi":60,"time":261.3416666666905,"velocity":0.4094488188976378,"duration":0.08541666666667425},{"name":"C5","midi":72,"time":261.4354166666905,"velocity":0.48031496062992124,"duration":0.10937499999994316},{"name":"G4","midi":67,"time":261.5593750000238,"velocity":0.3937007874015748,"duration":0.05729166666662877},{"name":"A3","midi":57,"time":261.6625000000237,"velocity":0.4645669291338583,"duration":0.2406249999999659},{"name":"C4","midi":60,"time":261.78750000002367,"velocity":0.3700787401574803,"duration":0.10833333333334849},{"name":"C5","midi":72,"time":261.880208333357,"velocity":0.47244094488188976,"duration":0.11666666666667425},{"name":"G4","midi":67,"time":262.005208333357,"velocity":0.4094488188976378,"duration":0.06354166666659467},{"name":"A3","midi":57,"time":262.09583333335695,"velocity":0.3779527559055118,"duration":0.20624999999995453},{"name":"C4","midi":60,"time":262.2343750000236,"velocity":0.3700787401574803,"duration":0.0687499999999659},{"name":"C5","midi":72,"time":262.29791666669024,"velocity":0.41732283464566927,"duration":0.140625},{"name":"G4","midi":67,"time":262.4395833333569,"velocity":0.3779527559055118,"duration":0.07604166666664014},{"name":"A3","midi":57,"time":262.55312500002356,"velocity":0.4645669291338583,"duration":0.20416666666659467},{"name":"C4","midi":60,"time":262.6708333333568,"velocity":0.36220472440944884,"duration":0.13749999999998863},{"name":"C5","midi":72,"time":262.7802083333568,"velocity":0.4566929133858268,"duration":0.11250000000001137},{"name":"F4","midi":65,"time":262.89583333335685,"velocity":0.3779527559055118,"duration":0.06354166666665151},{"name":"A3","midi":57,"time":263.0093750000235,"velocity":0.4566929133858268,"duration":0.18437499999998863},{"name":"C4","midi":60,"time":263.1520833333568,"velocity":0.25984251968503935,"duration":0.07604166666669698},{"name":"C5","midi":72,"time":263.2312500000235,"velocity":0.3937007874015748,"duration":0.12083333333333712},{"name":"F4","midi":65,"time":263.3541666666902,"velocity":0.3543307086614173,"duration":0.07187499999997726},{"name":"A3","midi":57,"time":263.4604166666902,"velocity":0.4094488188976378,"duration":0.20833333333325754},{"name":"C4","midi":60,"time":263.5791666666901,"velocity":0.3464566929133858,"duration":0.1312499999999659},{"name":"C5","midi":72,"time":263.70937500002344,"velocity":0.41732283464566927,"duration":0.12187499999998863},{"name":"E4","midi":64,"time":263.8354166666901,"velocity":0.3779527559055118,"duration":0.06562499999995453},{"name":"A3","midi":57,"time":263.92291666669,"velocity":0.3779527559055118,"duration":0.21562499999998863},{"name":"C4","midi":60,"time":264.05312500002333,"velocity":0.33858267716535434,"duration":0.07708333333334849},{"name":"C5","midi":72,"time":264.1614583333567,"velocity":0.3937007874015748,"duration":0.12291666666664014},{"name":"E4","midi":64,"time":264.30416666669,"velocity":0.33070866141732286,"duration":0.07083333333332575},{"name":"A3","midi":57,"time":264.42604166668997,"velocity":0.4330708661417323,"duration":0.3062499999999204},{"name":"C4","midi":60,"time":264.55104166668997,"velocity":0.3228346456692913,"duration":0.14479166666660603},{"name":"C5","midi":72,"time":264.6708333333566,"velocity":0.3937007874015748,"duration":0.11770833333326891},{"name":"F4","midi":65,"time":264.8104166666899,"velocity":0.3464566929133858,"duration":0.06666666666666288},{"name":"A3","midi":57,"time":264.9125000000232,"velocity":0.3464566929133858,"duration":0.20312499999994316},{"name":"C4","midi":60,"time":265.0312500000232,"velocity":0.2677165354330709,"duration":0.08124999999995453},{"name":"C5","midi":72,"time":265.14062500002314,"velocity":0.3543307086614173,"duration":0.08229166666666288},{"name":"F4","midi":65,"time":265.27083333335645,"velocity":0.2755905511811024,"duration":0.03333333333335986},{"name":"A3","midi":57,"time":265.33645833335646,"velocity":0.3779527559055118,"duration":0.2552083333333144},{"name":"C4","midi":60,"time":265.5114583333564,"velocity":0.2677165354330709,"duration":0.04583333333334849},{"name":"C5","midi":72,"time":265.5770833333564,"velocity":0.3700787401574803,"duration":0.09375},{"name":"F4","midi":65,"time":265.6812500000231,"velocity":0.36220472440944884,"duration":0.06666666666666288},{"name":"A3","midi":57,"time":265.7927083333564,"velocity":0.3779527559055118,"duration":0.23645833333330302},{"name":"C4","midi":60,"time":265.9427083333564,"velocity":0.2992125984251969,"duration":0.05312500000002274},{"name":"C5","midi":72,"time":266.01666666668973,"velocity":0.2992125984251969,"duration":0.08749999999997726},{"name":"F4","midi":65,"time":266.1197916666897,"velocity":0.31496062992125984,"duration":0.06770833333331439},{"name":"A3","midi":57,"time":266.2447916666897,"velocity":0.3858267716535433,"duration":0.2427083333332689},{"name":"C4","midi":60,"time":266.38333333335635,"velocity":0.25984251968503935,"duration":0.11041666666665151},{"name":"C5","midi":72,"time":266.48958333335634,"velocity":0.3228346456692913,"duration":0.08645833333326891},{"name":"E4","midi":64,"time":266.5854166666896,"velocity":0.2992125984251969,"duration":0.07083333333326891},{"name":"A3","midi":57,"time":266.70625000002286,"velocity":0.4094488188976378,"duration":0.2593749999998636},{"name":"C4","midi":60,"time":266.87604166668945,"velocity":0.25984251968503935,"duration":0.05833333333328028},{"name":"C5","midi":72,"time":266.95520833335604,"velocity":0.3464566929133858,"duration":0.07916666666670835},{"name":"E4","midi":64,"time":267.05625000002277,"velocity":0.3937007874015748,"duration":0.078125},{"name":"A3","midi":57,"time":267.1614583333561,"velocity":0.3779527559055118,"duration":0.2729166666666174},{"name":"C4","midi":60,"time":267.3510416666894,"velocity":0.28346456692913385,"duration":0.05937499999998863},{"name":"C5","midi":72,"time":267.39583333335605,"velocity":0.3937007874015748,"duration":0.11562500000002274},{"name":"E4","midi":64,"time":267.5479166666894,"velocity":0.2677165354330709,"duration":0.04479166666664014},{"name":"A3","midi":57,"time":267.6343750000227,"velocity":0.3779527559055118,"duration":0.23541666666659467},{"name":"C4","midi":60,"time":267.7885416666893,"velocity":0.28346456692913385,"duration":0.05937499999998863},{"name":"C5","midi":72,"time":267.85520833335596,"velocity":0.3464566929133858,"duration":0.16354166666667425},{"name":"E4","midi":64,"time":268.02395833335595,"velocity":0.2992125984251969,"duration":0.03437500000001137},{"name":"A3","midi":57,"time":268.1104166666893,"velocity":0.3858267716535433,"duration":0.23958333333325754},{"name":"C4","midi":60,"time":268.2843750000225,"velocity":0.2755905511811024,"duration":0.11770833333332575},{"name":"C5","midi":72,"time":268.3791666666892,"velocity":0.3464566929133858,"duration":0.1010416666666174},{"name":"F4","midi":65,"time":268.5062500000225,"velocity":0.2677165354330709,"duration":0.05624999999997726},{"name":"A3","midi":57,"time":268.6156250000225,"velocity":0.4251968503937008,"duration":0.2395833333332007},{"name":"C4","midi":60,"time":268.76666666668905,"velocity":0.2677165354330709,"duration":0.11354166666660603},{"name":"C5","midi":72,"time":268.882291666689,"velocity":0.2992125984251969,"duration":0.07187499999997726},{"name":"F4","midi":65,"time":268.982291666689,"velocity":0.36220472440944884,"duration":0.078125},{"name":"A3","midi":57,"time":269.126041666689,"velocity":0.33858267716535434,"duration":0.20624999999995453},{"name":"C4","midi":60,"time":269.28854166668896,"velocity":0.2047244094488189,"duration":0.10312499999997726},{"name":"C5","midi":72,"time":269.3802083333556,"velocity":0.3464566929133858,"duration":0.08749999999997726},{"name":"F4","midi":65,"time":269.51145833335556,"velocity":0.29133858267716534,"duration":0.06458333333335986},{"name":"A3","midi":57,"time":269.6406250000222,"velocity":0.3779527559055118,"duration":0.20520833333324617},{"name":"C4","midi":60,"time":269.7760416666888,"velocity":0.2677165354330709,"duration":0.13125000000002274},{"name":"C5","midi":72,"time":269.90312500002216,"velocity":0.31496062992125984,"duration":0.10729166666664014},{"name":"F4","midi":65,"time":270.0625000000221,"velocity":0.2283464566929134,"duration":0.05000000000001137},{"name":"A3","midi":57,"time":270.16562500002215,"velocity":0.3700787401574803,"duration":0.3406249999999318},{"name":"C4","midi":60,"time":270.3687500000221,"velocity":0.2047244094488189,"duration":0.15208333333333712},{"name":"C5","midi":72,"time":270.4437500000221,"velocity":0.30708661417322836,"duration":0.15104166666668561},{"name":"E4","midi":64,"time":270.6343750000221,"velocity":0.2204724409448819,"duration":0.06770833333331439},{"name":"A3","midi":57,"time":270.7427083333554,"velocity":0.36220472440944884,"duration":0.29166666666662877},{"name":"C4","midi":60,"time":270.92395833335536,"velocity":0.23622047244094488,"duration":0.11770833333332575},{"name":"C5","midi":72,"time":271.0635416666887,"velocity":0.2992125984251969,"duration":0.13333333333332575},{"name":"E4","midi":64,"time":271.2145833333554,"velocity":0.2440944881889764,"duration":0.11770833333332575},{"name":"A3","midi":57,"time":271.34583333335536,"velocity":0.3543307086614173,"duration":0.3395833333332803},{"name":"C4","midi":60,"time":271.556250000022,"velocity":0.25984251968503935,"duration":0.09479166666665151},{"name":"C5","midi":72,"time":271.7052083333553,"velocity":0.3464566929133858,"duration":0.22395833333325754},{"name":"E4","midi":64,"time":271.8885416666886,"velocity":0.2992125984251969,"duration":0.15208333333333712},{"name":"A3","midi":57,"time":272.0739583333553,"velocity":0.33070866141732286,"duration":0.5531249999998522},{"name":"C4","midi":60,"time":272.3229166666885,"velocity":0.33858267716535434,"duration":0.27499999999997726},{"name":"C5","midi":72,"time":272.6187500000218,"velocity":0.29133858267716534,"duration":0.5677083333333144},{"name":"E4","midi":64,"time":273.02395833335515,"velocity":0.2440944881889764,"duration":0.13020833333331439},{"name":"A2","midi":45,"time":273.9333333333551,"velocity":0.33070866141732286,"duration":6.629166666666492}],"controlChanges":{"64":[{"number":64,"time":155.25729166666667,"value":0.12598425196850394},{"number":64,"time":155.25833333333335,"value":0.12598425196850394},{"number":64,"time":155.26562500000003,"value":0.25196850393700787},{"number":64,"time":155.2666666666667,"value":0.25196850393700787},{"number":64,"time":155.2770833333334,"value":0.3779527559055118},{"number":64,"time":155.27812500000007,"value":0.3779527559055118},{"number":64,"time":155.29791666666674,"value":0.48031496062992124},{"number":64,"time":155.29791666666674,"value":0.48031496062992124},{"number":64,"time":155.33020833333342,"value":0.5118110236220472},{"number":64,"time":155.33020833333342,"value":0.5118110236220472},{"number":64,"time":155.34583333333342,"value":0.5433070866141733},{"number":64,"time":155.3468750000001,"value":0.5433070866141733},{"number":64,"time":155.3687500000001,"value":0.5748031496062992},{"number":64,"time":155.36979166666677,"value":0.5748031496062992},{"number":64,"time":155.38958333333343,"value":0.6062992125984252},{"number":64,"time":155.3906250000001,"value":0.6062992125984252},{"number":64,"time":155.40520833333343,"value":0.6377952755905512},{"number":64,"time":155.4062500000001,"value":0.6377952755905512},{"number":64,"time":155.46458333333345,"value":0.7322834645669292},{"number":64,"time":155.46458333333345,"value":0.7322834645669292},{"number":64,"time":155.51770833333345,"value":0.8267716535433071},{"number":64,"time":155.51875000000013,"value":0.8267716535433071},{"number":64,"time":157.1791666666667,"value":0.7322834645669292},{"number":64,"time":157.18020833333338,"value":0.7322834645669292},{"number":64,"time":157.19583333333338,"value":0.6535433070866141},{"number":64,"time":157.19687500000006,"value":0.6535433070866141},{"number":64,"time":157.36562500000005,"value":0.7559055118110236},{"number":64,"time":157.36666666666673,"value":0.7559055118110236},{"number":64,"time":157.59583333333342,"value":0.8503937007874016},{"number":64,"time":157.5968750000001,"value":0.8503937007874016},{"number":64,"time":157.93125000000012,"value":0.7559055118110236},{"number":64,"time":157.9322916666668,"value":0.7559055118110236},{"number":64,"time":157.94687500000012,"value":0.6535433070866141},{"number":64,"time":157.9479166666668,"value":0.6535433070866141},{"number":64,"time":157.96770833333346,"value":0.6220472440944882},{"number":64,"time":157.96875000000014,"value":0.6220472440944882},{"number":64,"time":158.01145833333348,"value":0.6535433070866141},{"number":64,"time":158.01250000000016,"value":0.6535433070866141},{"number":64,"time":158.0552083333335,"value":0.7559055118110236},{"number":64,"time":158.05625000000018,"value":0.7559055118110236},{"number":64,"time":158.1395833333335,"value":0.8503937007874016},{"number":64,"time":158.14062500000017,"value":0.8503937007874016},{"number":64,"time":158.81458333333353,"value":0.7559055118110236},{"number":64,"time":158.8156250000002,"value":0.7559055118110236},{"number":64,"time":158.82291666666688,"value":0.6614173228346457},{"number":64,"time":158.82395833333356,"value":0.6614173228346457},{"number":64,"time":158.83125000000024,"value":0.6220472440944882},{"number":64,"time":158.83125000000024,"value":0.6220472440944882},{"number":64,"time":158.8385416666669,"value":0.5905511811023622},{"number":64,"time":158.8395833333336,"value":0.5905511811023622},{"number":64,"time":158.8458333333336,"value":0.5590551181102362},{"number":64,"time":158.84687500000027,"value":0.5590551181102362},{"number":64,"time":158.85416666666694,"value":0.5275590551181102},{"number":64,"time":158.85520833333362,"value":0.5275590551181102},{"number":64,"time":158.8625000000003,"value":0.49606299212598426},{"number":64,"time":158.8625000000003,"value":0.49606299212598426},{"number":64,"time":158.92708333333363,"value":0.5354330708661418},{"number":64,"time":158.9281250000003,"value":0.5354330708661418},{"number":64,"time":158.94270833333363,"value":0.5669291338582677},{"number":64,"time":158.94270833333363,"value":0.5669291338582677},{"number":64,"time":158.95833333333363,"value":0.5984251968503937},{"number":64,"time":158.95833333333363,"value":0.5984251968503937},{"number":64,"time":158.97083333333362,"value":0.6299212598425197},{"number":64,"time":158.97083333333362,"value":0.6299212598425197},{"number":64,"time":158.99479166666694,"value":0.7559055118110236},{"number":64,"time":158.99583333333362,"value":0.7559055118110236},{"number":64,"time":159.06250000000028,"value":0.8503937007874016},{"number":64,"time":159.06250000000028,"value":0.8503937007874016},{"number":64,"time":160.5708333333337,"value":0.7322834645669292},{"number":64,"time":160.5708333333337,"value":0.7322834645669292},{"number":64,"time":160.57812500000037,"value":0.6535433070866141},{"number":64,"time":160.57916666666705,"value":0.6535433070866141},{"number":64,"time":160.58645833333372,"value":0.6141732283464567},{"number":64,"time":160.5875000000004,"value":0.6141732283464567},{"number":64,"time":160.59791666666706,"value":0.5748031496062992},{"number":64,"time":160.59895833333374,"value":0.5748031496062992},{"number":64,"time":160.61041666666708,"value":0.5433070866141733},{"number":64,"time":160.61145833333376,"value":0.5433070866141733},{"number":64,"time":160.62187500000041,"value":0.5118110236220472},{"number":64,"time":160.6229166666671,"value":0.5118110236220472},{"number":64,"time":160.66666666666708,"value":0.5433070866141733},{"number":64,"time":160.66666666666708,"value":0.5433070866141733},{"number":64,"time":160.68229166666708,"value":0.5748031496062992},{"number":64,"time":160.68229166666708,"value":0.5748031496062992},{"number":64,"time":160.69479166666707,"value":0.6062992125984252},{"number":64,"time":160.69479166666707,"value":0.6062992125984252},{"number":64,"time":160.7062500000004,"value":0.6456692913385826},{"number":64,"time":160.7062500000004,"value":0.6456692913385826},{"number":64,"time":160.7187500000004,"value":0.7559055118110236},{"number":64,"time":160.7187500000004,"value":0.7559055118110236},{"number":64,"time":160.74270833333372,"value":0.8503937007874016},{"number":64,"time":160.74270833333372,"value":0.8503937007874016},{"number":64,"time":161.0333333333337,"value":0.7559055118110236},{"number":64,"time":161.03437500000038,"value":0.7559055118110236},{"number":64,"time":161.0489583333337,"value":0.6614173228346457},{"number":64,"time":161.05000000000038,"value":0.6614173228346457},{"number":64,"time":161.0687500000004,"value":0.6299212598425197},{"number":64,"time":161.07083333333372,"value":0.6299212598425197},{"number":64,"time":161.13333333333372,"value":0.7322834645669292},{"number":64,"time":161.1343750000004,"value":0.7322834645669292},{"number":64,"time":161.1812500000004,"value":0.8267716535433071},{"number":64,"time":161.18229166666708,"value":0.8267716535433071},{"number":64,"time":161.28958333333375,"value":0.937007874015748},{"number":64,"time":161.29062500000043,"value":0.937007874015748},{"number":64,"time":161.34895833333377,"value":1},{"number":64,"time":161.35000000000045,"value":1},{"number":64,"time":161.43437500000044,"value":0.8661417322834646},{"number":64,"time":161.43437500000044,"value":0.8661417322834646},{"number":64,"time":161.46875000000045,"value":0.7322834645669292},{"number":64,"time":161.46979166666713,"value":0.7322834645669292},{"number":64,"time":161.48125000000047,"value":0.6535433070866141},{"number":64,"time":161.48125000000047,"value":0.6535433070866141},{"number":64,"time":161.49791666666715,"value":0.6220472440944882},{"number":64,"time":161.49895833333383,"value":0.6220472440944882},{"number":64,"time":161.55520833333384,"value":0.6535433070866141},{"number":64,"time":161.55520833333384,"value":0.6535433070866141},{"number":64,"time":161.60937500000048,"value":0.7559055118110236},{"number":64,"time":161.61041666666716,"value":0.7559055118110236},{"number":64,"time":161.66145833333383,"value":0.8503937007874016},{"number":64,"time":161.6625000000005,"value":0.8503937007874016},{"number":64,"time":161.83750000000055,"value":0.7559055118110236},{"number":64,"time":161.83854166666723,"value":0.7559055118110236},{"number":64,"time":161.85312500000055,"value":0.6614173228346457},{"number":64,"time":161.85416666666723,"value":0.6614173228346457},{"number":64,"time":161.86875000000055,"value":0.6220472440944882},{"number":64,"time":161.86979166666723,"value":0.6220472440944882},{"number":64,"time":161.9208333333339,"value":0.6535433070866141},{"number":64,"time":161.92187500000057,"value":0.6535433070866141},{"number":64,"time":161.94479166666724,"value":0.7559055118110236},{"number":64,"time":161.94583333333392,"value":0.7559055118110236},{"number":64,"time":162.0052083333339,"value":0.8503937007874016},{"number":64,"time":162.0062500000006,"value":0.8503937007874016},{"number":64,"time":162.37708333333393,"value":0.7086614173228346},{"number":64,"time":162.3781250000006,"value":0.7086614173228346},{"number":64,"time":162.38125000000062,"value":0.6535433070866141},{"number":64,"time":162.3822916666673,"value":0.6535433070866141},{"number":64,"time":162.38958333333397,"value":0.6062992125984252},{"number":64,"time":162.39062500000065,"value":0.6062992125984252},{"number":64,"time":162.39687500000065,"value":0.5669291338582677},{"number":64,"time":162.39791666666733,"value":0.5669291338582677},{"number":64,"time":162.405208333334,"value":0.5118110236220472},{"number":64,"time":162.40625000000068,"value":0.5118110236220472},{"number":64,"time":162.4093750000007,"value":0.48031496062992124},{"number":64,"time":162.41041666666737,"value":0.48031496062992124},{"number":64,"time":162.41770833333405,"value":0.3779527559055118},{"number":64,"time":162.41770833333405,"value":0.3779527559055118},{"number":64,"time":162.42916666666738,"value":0.2755905511811024},{"number":64,"time":162.42916666666738,"value":0.2755905511811024},{"number":64,"time":162.48958333333405,"value":0.4015748031496063},{"number":64,"time":162.49062500000073,"value":0.4015748031496063},{"number":64,"time":162.49687500000073,"value":0.47244094488188976},{"number":64,"time":162.4979166666674,"value":0.47244094488188976},{"number":64,"time":162.50520833333408,"value":0.5118110236220472},{"number":64,"time":162.50520833333408,"value":0.5118110236220472},{"number":64,"time":162.5135416666674,"value":0.5433070866141733},{"number":64,"time":162.5145833333341,"value":0.5433070866141733},{"number":64,"time":162.5291666666674,"value":0.5748031496062992},{"number":64,"time":162.5291666666674,"value":0.5748031496062992},{"number":64,"time":162.5458333333341,"value":0.6062992125984252},{"number":64,"time":162.54687500000077,"value":0.6062992125984252},{"number":64,"time":162.55729166666742,"value":0.6377952755905512},{"number":64,"time":162.5583333333341,"value":0.6377952755905512},{"number":64,"time":162.59270833333412,"value":0.7559055118110236},{"number":64,"time":162.5937500000008,"value":0.7559055118110236},{"number":64,"time":162.6375000000008,"value":0.8503937007874016},{"number":64,"time":162.6385416666675,"value":0.8503937007874016},{"number":64,"time":162.86145833333418,"value":0.7559055118110236},{"number":64,"time":162.86250000000086,"value":0.7559055118110236},{"number":64,"time":162.87291666666752,"value":0.6535433070866141},{"number":64,"time":162.8739583333342,"value":0.6535433070866141},{"number":64,"time":162.88541666666754,"value":0.6141732283464567},{"number":64,"time":162.88645833333422,"value":0.6141732283464567},{"number":64,"time":162.9093750000009,"value":0.5826771653543307},{"number":64,"time":162.91041666666757,"value":0.5826771653543307},{"number":64,"time":162.94895833333425,"value":0.6141732283464567},{"number":64,"time":162.95000000000093,"value":0.6141732283464567},{"number":64,"time":162.96562500000093,"value":0.6456692913385826},{"number":64,"time":162.9666666666676,"value":0.6456692913385826},{"number":64,"time":162.98541666666762,"value":0.7559055118110236},{"number":64,"time":162.9864583333343,"value":0.7559055118110236},{"number":64,"time":163.05312500000096,"value":0.8503937007874016},{"number":64,"time":163.05416666666764,"value":0.8503937007874016},{"number":64,"time":163.1770833333343,"value":1},{"number":64,"time":163.1770833333343,"value":1},{"number":64,"time":163.25312500000098,"value":0.8661417322834646},{"number":64,"time":163.25312500000098,"value":0.8661417322834646},{"number":64,"time":163.28125000000097,"value":0.7559055118110236},{"number":64,"time":163.28229166666765,"value":0.7559055118110236},{"number":64,"time":163.28958333333432,"value":0.6614173228346457},{"number":64,"time":163.290625000001,"value":0.6614173228346457},{"number":64,"time":163.29791666666767,"value":0.6299212598425197},{"number":64,"time":163.29895833333435,"value":0.6299212598425197},{"number":64,"time":163.309375000001,"value":0.5905511811023622},{"number":64,"time":163.3104166666677,"value":0.5905511811023622},{"number":64,"time":163.3291666666677,"value":0.5590551181102362},{"number":64,"time":163.3291666666677,"value":0.5590551181102362},{"number":64,"time":163.37083333333436,"value":0.5905511811023622},{"number":64,"time":163.37187500000104,"value":0.5905511811023622},{"number":64,"time":163.3854166666677,"value":0.6220472440944882},{"number":64,"time":163.3864583333344,"value":0.6220472440944882},{"number":64,"time":163.4177083333344,"value":0.7322834645669292},{"number":64,"time":163.41875000000107,"value":0.7322834645669292},{"number":64,"time":163.46875000000105,"value":0.8267716535433071},{"number":64,"time":163.46979166666773,"value":0.8267716535433071},{"number":64,"time":163.57812500000108,"value":0.937007874015748},{"number":64,"time":163.57916666666776,"value":0.937007874015748},{"number":64,"time":163.62395833333443,"value":1},{"number":64,"time":163.6250000000011,"value":1},{"number":64,"time":163.69166666666777,"value":0.8661417322834646},{"number":64,"time":163.69270833333445,"value":0.8661417322834646},{"number":64,"time":163.71666666666778,"value":0.7322834645669292},{"number":64,"time":163.71666666666778,"value":0.7322834645669292},{"number":64,"time":163.72916666666777,"value":0.6377952755905512},{"number":64,"time":163.73020833333445,"value":0.6377952755905512},{"number":64,"time":163.73750000000112,"value":0.6062992125984252},{"number":64,"time":163.7385416666678,"value":0.6062992125984252},{"number":64,"time":163.74895833333446,"value":0.5748031496062992},{"number":64,"time":163.75000000000114,"value":0.5748031496062992},{"number":64,"time":163.76458333333446,"value":0.5433070866141733},{"number":64,"time":163.76562500000114,"value":0.5433070866141733},{"number":64,"time":163.8041666666678,"value":0.5748031496062992},{"number":64,"time":163.8052083333345,"value":0.5748031496062992},{"number":64,"time":163.8208333333345,"value":0.6062992125984252},{"number":64,"time":163.82187500000117,"value":0.6062992125984252},{"number":64,"time":163.83229166666786,"value":0.6456692913385826},{"number":64,"time":163.83333333333454,"value":0.6456692913385826},{"number":64,"time":163.84791666666786,"value":0.7559055118110236},{"number":64,"time":163.84895833333454,"value":0.7559055118110236},{"number":64,"time":163.91666666666785,"value":0.8503937007874016},{"number":64,"time":163.91770833333453,"value":0.8503937007874016},{"number":64,"time":164.07708333333457,"value":1},{"number":64,"time":164.07812500000125,"value":1},{"number":64,"time":164.14062500000125,"value":0.8661417322834646},{"number":64,"time":164.14166666666793,"value":0.8661417322834646},{"number":64,"time":164.1645833333346,"value":0.7322834645669292},{"number":64,"time":164.16562500000128,"value":0.7322834645669292},{"number":64,"time":164.17187500000128,"value":0.6456692913385826},{"number":64,"time":164.17291666666796,"value":0.6456692913385826},{"number":64,"time":164.18020833333463,"value":0.6062992125984252},{"number":64,"time":164.1812500000013,"value":0.6062992125984252},{"number":64,"time":164.188541666668,"value":0.5748031496062992},{"number":64,"time":164.188541666668,"value":0.5748031496062992},{"number":64,"time":164.1968750000013,"value":0.5433070866141733},{"number":64,"time":164.197916666668,"value":0.5433070866141733},{"number":64,"time":164.204166666668,"value":0.5118110236220472},{"number":64,"time":164.20520833333467,"value":0.5118110236220472},{"number":64,"time":164.260416666668,"value":0.5433070866141733},{"number":64,"time":164.26145833333467,"value":0.5433070866141733},{"number":64,"time":164.276041666668,"value":0.5748031496062992},{"number":64,"time":164.276041666668,"value":0.5748031496062992},{"number":64,"time":164.28854166666798,"value":0.6062992125984252},{"number":64,"time":164.28854166666798,"value":0.6062992125984252},{"number":64,"time":164.30000000000132,"value":0.6377952755905512},{"number":64,"time":164.30000000000132,"value":0.6377952755905512},{"number":64,"time":164.3281250000013,"value":0.7322834645669292},{"number":64,"time":164.329166666668,"value":0.7322834645669292},{"number":64,"time":164.3843750000013,"value":0.8267716535433071},{"number":64,"time":164.385416666668,"value":0.8267716535433071},{"number":64,"time":164.46770833333466,"value":0.937007874015748},{"number":64,"time":164.46875000000134,"value":0.937007874015748},{"number":64,"time":164.56458333333467,"value":0.8267716535433071},{"number":64,"time":164.56562500000135,"value":0.8267716535433071},{"number":64,"time":164.5802083333347,"value":0.7322834645669292},{"number":64,"time":164.58125000000138,"value":0.7322834645669292},{"number":64,"time":164.58854166666805,"value":0.6535433070866141},{"number":64,"time":164.58854166666805,"value":0.6535433070866141},{"number":64,"time":164.59583333333472,"value":0.6141732283464567},{"number":64,"time":164.5968750000014,"value":0.6141732283464567},{"number":64,"time":164.60833333333474,"value":0.5748031496062992},{"number":64,"time":164.60937500000142,"value":0.5748031496062992},{"number":64,"time":164.62395833333474,"value":0.5433070866141733},{"number":64,"time":164.62500000000142,"value":0.5433070866141733},{"number":64,"time":164.68020833333475,"value":0.5748031496062992},{"number":64,"time":164.68125000000143,"value":0.5748031496062992},{"number":64,"time":164.69166666666808,"value":0.6062992125984252},{"number":64,"time":164.69270833333476,"value":0.6062992125984252},{"number":64,"time":164.7041666666681,"value":0.6456692913385826},{"number":64,"time":164.70520833333478,"value":0.6456692913385826},{"number":64,"time":164.7197916666681,"value":0.7559055118110236},{"number":64,"time":164.72083333333478,"value":0.7559055118110236},{"number":64,"time":164.78437500000146,"value":0.8503937007874016},{"number":64,"time":164.78541666666814,"value":0.8503937007874016},{"number":64,"time":164.92812500000147,"value":1},{"number":64,"time":164.92812500000147,"value":1},{"number":64,"time":165.0083333333348,"value":0.8661417322834646},{"number":64,"time":165.00937500000148,"value":0.8661417322834646},{"number":64,"time":165.03229166666816,"value":0.7322834645669292},{"number":64,"time":165.03333333333484,"value":0.7322834645669292},{"number":64,"time":165.03958333333483,"value":0.6535433070866141},{"number":64,"time":165.0406250000015,"value":0.6535433070866141},{"number":64,"time":165.0479166666682,"value":0.6141732283464567},{"number":64,"time":165.04895833333487,"value":0.6141732283464567},{"number":64,"time":165.05625000000154,"value":0.5826771653543307},{"number":64,"time":165.05729166666822,"value":0.5826771653543307},{"number":64,"time":165.06770833333488,"value":0.5511811023622047},{"number":64,"time":165.06875000000156,"value":0.5511811023622047},{"number":64,"time":165.12812500000155,"value":0.5826771653543307},{"number":64,"time":165.12916666666823,"value":0.5826771653543307},{"number":64,"time":165.14375000000155,"value":0.6220472440944882},{"number":64,"time":165.14479166666823,"value":0.6220472440944882},{"number":64,"time":165.1645833333349,"value":0.7322834645669292},{"number":64,"time":165.1645833333349,"value":0.7322834645669292},{"number":64,"time":165.21562500000155,"value":0.8267716535433071},{"number":64,"time":165.21666666666823,"value":0.8267716535433071},{"number":64,"time":165.28437500000157,"value":0.937007874015748},{"number":64,"time":165.28541666666825,"value":0.937007874015748},{"number":64,"time":165.39583333333493,"value":0.8267716535433071},{"number":64,"time":165.39687500000161,"value":0.8267716535433071},{"number":64,"time":165.41250000000161,"value":0.7322834645669292},{"number":64,"time":165.41250000000161,"value":0.7322834645669292},{"number":64,"time":165.42395833333495,"value":0.6456692913385826},{"number":64,"time":165.42500000000163,"value":0.6456692913385826},{"number":64,"time":165.4322916666683,"value":0.6141732283464567},{"number":64,"time":165.43333333333499,"value":0.6141732283464567},{"number":64,"time":165.44375000000164,"value":0.5826771653543307},{"number":64,"time":165.44479166666832,"value":0.5826771653543307},{"number":64,"time":165.508333333335,"value":0.6141732283464567},{"number":64,"time":165.50937500000168,"value":0.6141732283464567},{"number":64,"time":165.51979166666834,"value":0.6535433070866141},{"number":64,"time":165.52083333333502,"value":0.6535433070866141},{"number":64,"time":165.53229166666836,"value":0.7559055118110236},{"number":64,"time":165.53333333333504,"value":0.7559055118110236},{"number":64,"time":165.5562500000017,"value":0.8503937007874016},{"number":64,"time":165.5572916666684,"value":0.8503937007874016},{"number":64,"time":165.93958333333504,"value":0.7322834645669292},{"number":64,"time":165.94062500000172,"value":0.7322834645669292},{"number":64,"time":165.94895833333504,"value":0.6299212598425197},{"number":64,"time":165.94895833333504,"value":0.6299212598425197},{"number":64,"time":165.95625000000172,"value":0.5826771653543307},{"number":64,"time":165.9572916666684,"value":0.5826771653543307},{"number":64,"time":165.96458333333507,"value":0.5275590551181102},{"number":64,"time":165.96562500000175,"value":0.5275590551181102},{"number":64,"time":165.96770833333508,"value":0.4881889763779528},{"number":64,"time":165.96875000000176,"value":0.4881889763779528},{"number":64,"time":165.97604166666844,"value":0.3543307086614173},{"number":64,"time":165.97708333333512,"value":0.3543307086614173},{"number":64,"time":165.9843750000018,"value":0.2047244094488189},{"number":64,"time":165.98541666666847,"value":0.2047244094488189},{"number":64,"time":165.99166666666846,"value":0.10236220472440945},{"number":64,"time":165.99270833333514,"value":0.10236220472440945},{"number":64,"time":166.01562500000182,"value":0},{"number":64,"time":166.0166666666685,"value":0},{"number":64,"time":166.05625000000182,"value":0.12598425196850394},{"number":64,"time":166.0572916666685,"value":0.12598425196850394},{"number":64,"time":166.06458333333518,"value":0.25196850393700787},{"number":64,"time":166.06458333333518,"value":0.25196850393700787},{"number":64,"time":166.07083333333517,"value":0.3779527559055118},{"number":64,"time":166.07187500000185,"value":0.3779527559055118},{"number":64,"time":166.07604166666852,"value":0.47244094488188976},{"number":64,"time":166.07604166666852,"value":0.47244094488188976},{"number":64,"time":166.0833333333352,"value":0.5275590551181102},{"number":64,"time":166.08437500000187,"value":0.5275590551181102},{"number":64,"time":166.09166666666854,"value":0.5590551181102362},{"number":64,"time":166.09270833333522,"value":0.5590551181102362},{"number":64,"time":166.10833333333522,"value":0.5984251968503937},{"number":64,"time":166.1093750000019,"value":0.5984251968503937},{"number":64,"time":166.12291666666857,"value":0.6299212598425197},{"number":64,"time":166.12395833333525,"value":0.6299212598425197},{"number":64,"time":166.1718750000019,"value":0.7322834645669292},{"number":64,"time":166.17291666666858,"value":0.7322834645669292},{"number":64,"time":166.21979166666858,"value":0.8267716535433071},{"number":64,"time":166.22083333333526,"value":0.8267716535433071},{"number":64,"time":166.59895833333525,"value":0.937007874015748},{"number":64,"time":166.60000000000193,"value":0.937007874015748},{"number":64,"time":166.7354166666686,"value":0.8267716535433071},{"number":64,"time":166.7364583333353,"value":0.8267716535433071},{"number":64,"time":166.7520833333353,"value":0.7322834645669292},{"number":64,"time":166.7520833333353,"value":0.7322834645669292},{"number":64,"time":166.76250000000198,"value":0.6456692913385826},{"number":64,"time":166.7645833333353,"value":0.6456692913385826},{"number":64,"time":166.7708333333353,"value":0.6141732283464567},{"number":64,"time":166.77187500000198,"value":0.6141732283464567},{"number":64,"time":166.78333333333532,"value":0.5826771653543307},{"number":64,"time":166.784375000002,"value":0.5826771653543307},{"number":64,"time":166.85208333333534,"value":0.6220472440944882},{"number":64,"time":166.85208333333534,"value":0.6220472440944882},{"number":64,"time":166.86354166666868,"value":0.6535433070866141},{"number":64,"time":166.86354166666868,"value":0.6535433070866141},{"number":64,"time":166.88020833333536,"value":0.7559055118110236},{"number":64,"time":166.88125000000204,"value":0.7559055118110236},{"number":64,"time":166.95520833333538,"value":0.8503937007874016},{"number":64,"time":166.95625000000206,"value":0.8503937007874016},{"number":64,"time":167.12291666666871,"value":1},{"number":64,"time":167.12291666666871,"value":1},{"number":64,"time":167.1958333333354,"value":0.8661417322834646},{"number":64,"time":167.19687500000208,"value":0.8661417322834646},{"number":64,"time":167.21979166666875,"value":0.7322834645669292},{"number":64,"time":167.22083333333543,"value":0.7322834645669292},{"number":64,"time":167.23229166666877,"value":0.6377952755905512},{"number":64,"time":167.23333333333545,"value":0.6377952755905512},{"number":64,"time":167.2385416666688,"value":0.6062992125984252},{"number":64,"time":167.23958333333547,"value":0.6062992125984252},{"number":64,"time":167.24687500000215,"value":0.5748031496062992},{"number":64,"time":167.24687500000215,"value":0.5748031496062992},{"number":64,"time":167.26354166666883,"value":0.5354330708661418},{"number":64,"time":167.26354166666883,"value":0.5354330708661418},{"number":64,"time":167.30729166666882,"value":0.5669291338582677},{"number":64,"time":167.3083333333355,"value":0.5669291338582677},{"number":64,"time":167.32291666666882,"value":0.5984251968503937},{"number":64,"time":167.32291666666882,"value":0.5984251968503937},{"number":64,"time":167.3354166666688,"value":0.6299212598425197},{"number":64,"time":167.3354166666688,"value":0.6299212598425197},{"number":64,"time":167.35520833333547,"value":0.7559055118110236},{"number":64,"time":167.35625000000215,"value":0.7559055118110236},{"number":64,"time":167.44687500000214,"value":0.8503937007874016},{"number":64,"time":167.44687500000214,"value":0.8503937007874016},{"number":64,"time":167.63750000000215,"value":0.7322834645669292},{"number":64,"time":167.63854166666883,"value":0.7322834645669292},{"number":64,"time":167.64375000000217,"value":0.6535433070866141},{"number":64,"time":167.64479166666885,"value":0.6535433070866141},{"number":64,"time":167.64791666666886,"value":0.6220472440944882},{"number":64,"time":167.64895833333554,"value":0.6220472440944882},{"number":64,"time":167.65416666666889,"value":0.5748031496062992},{"number":64,"time":167.65520833333557,"value":0.5748031496062992},{"number":64,"time":167.65937500000223,"value":0.5433070866141733},{"number":64,"time":167.6604166666689,"value":0.5433070866141733},{"number":64,"time":167.66250000000224,"value":0.5039370078740157},{"number":64,"time":167.66354166666892,"value":0.5039370078740157},{"number":64,"time":167.6697916666689,"value":0.3779527559055118},{"number":64,"time":167.6708333333356,"value":0.3779527559055118},{"number":64,"time":167.67500000000226,"value":0.2755905511811024},{"number":64,"time":167.67604166666894,"value":0.2755905511811024},{"number":64,"time":167.6833333333356,"value":0.12598425196850394},{"number":64,"time":167.6843750000023,"value":0.12598425196850394},{"number":64,"time":167.69062500000229,"value":0.031496062992125984},{"number":64,"time":167.69166666666897,"value":0.031496062992125984},{"number":64,"time":167.69479166666898,"value":0},{"number":64,"time":167.69583333333566,"value":0},{"number":64,"time":167.76562500000233,"value":0.18110236220472442},{"number":64,"time":167.766666666669,"value":0.18110236220472442},{"number":64,"time":167.77500000000234,"value":0.33070866141732286},{"number":64,"time":167.77604166666902,"value":0.33070866141732286},{"number":64,"time":167.782291666669,"value":0.48031496062992124},{"number":64,"time":167.7833333333357,"value":0.48031496062992124},{"number":64,"time":167.79062500000236,"value":0.5275590551181102},{"number":64,"time":167.79166666666904,"value":0.5275590551181102},{"number":64,"time":167.79791666666904,"value":0.5590551181102362},{"number":64,"time":167.79895833333572,"value":0.5590551181102362},{"number":64,"time":167.81354166666904,"value":0.5905511811023622},{"number":64,"time":167.81458333333572,"value":0.5905511811023622},{"number":64,"time":167.83541666666906,"value":0.6220472440944882},{"number":64,"time":167.83541666666906,"value":0.6220472440944882},{"number":64,"time":167.85520833333572,"value":0.6535433070866141},{"number":64,"time":167.8562500000024,"value":0.6535433070866141},{"number":64,"time":167.8833333333357,"value":0.7559055118110236},{"number":64,"time":167.8843750000024,"value":0.7559055118110236},{"number":64,"time":167.93541666666908,"value":0.8503937007874016},{"number":64,"time":167.93541666666908,"value":0.8503937007874016},{"number":64,"time":168.4666666666691,"value":1},{"number":64,"time":168.4677083333358,"value":1},{"number":64,"time":168.52187500000247,"value":0.8661417322834646},{"number":64,"time":168.52187500000247,"value":0.8661417322834646},{"number":64,"time":168.5427083333358,"value":0.7322834645669292},{"number":64,"time":168.5437500000025,"value":0.7322834645669292},{"number":64,"time":168.55104166666916,"value":0.6299212598425197},{"number":64,"time":168.55208333333584,"value":0.6299212598425197},{"number":64,"time":168.55833333333584,"value":0.5826771653543307},{"number":64,"time":168.55833333333584,"value":0.5826771653543307},{"number":64,"time":168.5656250000025,"value":0.5275590551181102},{"number":64,"time":168.5666666666692,"value":0.5275590551181102},{"number":64,"time":168.57083333333586,"value":0.49606299212598426},{"number":64,"time":168.57187500000254,"value":0.49606299212598426},{"number":64,"time":168.5791666666692,"value":0.3543307086614173},{"number":64,"time":168.5802083333359,"value":0.3543307086614173},{"number":64,"time":168.58541666666923,"value":0.2283464566929134},{"number":64,"time":168.5864583333359,"value":0.2283464566929134},{"number":64,"time":168.6458333333359,"value":0.3543307086614173},{"number":64,"time":168.6458333333359,"value":0.3543307086614173},{"number":64,"time":168.6583333333359,"value":0.4881889763779528},{"number":64,"time":168.6583333333359,"value":0.4881889763779528},{"number":64,"time":168.66562500000256,"value":0.5275590551181102},{"number":64,"time":168.66666666666924,"value":0.5275590551181102},{"number":64,"time":168.67395833333592,"value":0.5669291338582677},{"number":64,"time":168.6750000000026,"value":0.5669291338582677},{"number":64,"time":168.68541666666925,"value":0.5984251968503937},{"number":64,"time":168.68645833333593,"value":0.5984251968503937},{"number":64,"time":168.69791666666927,"value":0.6299212598425197},{"number":64,"time":168.69791666666927,"value":0.6299212598425197},{"number":64,"time":168.71875000000261,"value":0.7559055118110236},{"number":64,"time":168.7197916666693,"value":0.7559055118110236},{"number":64,"time":168.80208333333596,"value":0.8503937007874016},{"number":64,"time":168.80312500000264,"value":0.8503937007874016},{"number":64,"time":169.00937500000265,"value":0.7322834645669292},{"number":64,"time":169.00937500000265,"value":0.7322834645669292},{"number":64,"time":169.020833333336,"value":0.6456692913385826},{"number":64,"time":169.02187500000267,"value":0.6456692913385826},{"number":64,"time":169.033333333336,"value":0.6141732283464567},{"number":64,"time":169.03437500000268,"value":0.6141732283464567},{"number":64,"time":169.05000000000268,"value":0.5826771653543307},{"number":64,"time":169.05104166666936,"value":0.5826771653543307},{"number":64,"time":169.0843750000027,"value":0.6141732283464567},{"number":64,"time":169.08541666666937,"value":0.6141732283464567},{"number":64,"time":169.10208333333605,"value":0.6456692913385826},{"number":64,"time":169.10312500000273,"value":0.6456692913385826},{"number":64,"time":169.11770833333605,"value":0.7559055118110236},{"number":64,"time":169.11875000000273,"value":0.7559055118110236},{"number":64,"time":169.17708333333607,"value":0.8503937007874016},{"number":64,"time":169.17812500000275,"value":0.8503937007874016},{"number":64,"time":169.4697916666694,"value":0.7086614173228346},{"number":64,"time":169.4697916666694,"value":0.7086614173228346},{"number":64,"time":169.47812500000273,"value":0.6299212598425197},{"number":64,"time":169.4791666666694,"value":0.6299212598425197},{"number":64,"time":169.48437500000276,"value":0.5826771653543307},{"number":64,"time":169.48541666666944,"value":0.5826771653543307},{"number":64,"time":169.49375000000276,"value":0.5275590551181102},{"number":64,"time":169.49479166666944,"value":0.5275590551181102},{"number":64,"time":169.49687500000277,"value":0.4881889763779528},{"number":64,"time":169.49687500000277,"value":0.4881889763779528},{"number":64,"time":169.5052083333361,"value":0.3543307086614173},{"number":64,"time":169.50625000000278,"value":0.3543307086614173},{"number":64,"time":169.51250000000277,"value":0.2047244094488189},{"number":64,"time":169.51354166666945,"value":0.2047244094488189},{"number":64,"time":169.5250000000028,"value":0.10236220472440945},{"number":64,"time":169.52604166666947,"value":0.10236220472440945},{"number":64,"time":169.58541666666946,"value":0.25196850393700787},{"number":64,"time":169.58541666666946,"value":0.25196850393700787},{"number":64,"time":169.59270833333613,"value":0.3779527559055118},{"number":64,"time":169.5937500000028,"value":0.3779527559055118},{"number":64,"time":169.6010416666695,"value":0.4881889763779528},{"number":64,"time":169.60208333333617,"value":0.4881889763779528},{"number":64,"time":169.60937500000284,"value":0.5354330708661418},{"number":64,"time":169.60937500000284,"value":0.5354330708661418},{"number":64,"time":169.61666666666952,"value":0.5669291338582677},{"number":64,"time":169.6177083333362,"value":0.5669291338582677},{"number":64,"time":169.62916666666953,"value":0.5984251968503937},{"number":64,"time":169.6302083333362,"value":0.5984251968503937},{"number":64,"time":169.64062500000287,"value":0.6299212598425197},{"number":64,"time":169.64166666666955,"value":0.6299212598425197},{"number":64,"time":169.6770833333362,"value":0.7322834645669292},{"number":64,"time":169.6781250000029,"value":0.7322834645669292},{"number":64,"time":169.8250000000029,"value":0.8267716535433071},{"number":64,"time":169.82604166666957,"value":0.8267716535433071},{"number":64,"time":169.9531250000029,"value":0.937007874015748},{"number":64,"time":169.95416666666958,"value":0.937007874015748},{"number":64,"time":170.0406250000029,"value":0.8267716535433071},{"number":64,"time":170.04166666666958,"value":0.8267716535433071},{"number":64,"time":170.0604166666696,"value":0.7322834645669292},{"number":64,"time":170.06145833333628,"value":0.7322834645669292},{"number":64,"time":170.0729166666696,"value":0.6535433070866141},{"number":64,"time":170.0739583333363,"value":0.6535433070866141},{"number":64,"time":170.08437500000295,"value":0.6220472440944882},{"number":64,"time":170.08541666666963,"value":0.6220472440944882},{"number":64,"time":170.14062500000298,"value":0.6535433070866141},{"number":64,"time":170.14166666666966,"value":0.6535433070866141},{"number":64,"time":170.16041666666968,"value":0.7559055118110236},{"number":64,"time":170.16145833333636,"value":0.7559055118110236},{"number":64,"time":170.2291666666697,"value":0.8503937007874016},{"number":64,"time":170.23020833333638,"value":0.8503937007874016},{"number":64,"time":170.4052083333364,"value":0.7559055118110236},{"number":64,"time":170.40625000000307,"value":0.7559055118110236},{"number":64,"time":170.4208333333364,"value":0.6535433070866141},{"number":64,"time":170.4208333333364,"value":0.6535433070866141},{"number":64,"time":170.4364583333364,"value":0.6220472440944882},{"number":64,"time":170.43750000000307,"value":0.6220472440944882},{"number":64,"time":170.48125000000306,"value":0.6535433070866141},{"number":64,"time":170.48229166666974,"value":0.6535433070866141},{"number":64,"time":170.5177083333364,"value":0.7559055118110236},{"number":64,"time":170.51875000000308,"value":0.7559055118110236},{"number":64,"time":170.57708333333642,"value":0.8503937007874016},{"number":64,"time":170.5781250000031,"value":0.8503937007874016},{"number":64,"time":170.7093750000031,"value":1},{"number":64,"time":170.7093750000031,"value":1},{"number":64,"time":170.76458333333645,"value":0.8661417322834646},{"number":64,"time":170.76562500000313,"value":0.8661417322834646},{"number":64,"time":170.8010416666698,"value":0.7322834645669292},{"number":64,"time":170.80208333333647,"value":0.7322834645669292},{"number":64,"time":170.81250000000313,"value":0.6535433070866141},{"number":64,"time":170.8135416666698,"value":0.6535433070866141},{"number":64,"time":170.8291666666698,"value":0.6220472440944882},{"number":64,"time":170.8302083333365,"value":0.6220472440944882},{"number":64,"time":170.88125000000315,"value":0.6535433070866141},{"number":64,"time":170.88125000000315,"value":0.6535433070866141},{"number":64,"time":170.90520833333647,"value":0.7559055118110236},{"number":64,"time":170.90625000000315,"value":0.7559055118110236},{"number":64,"time":170.9364583333365,"value":0.8503937007874016},{"number":64,"time":170.93750000000318,"value":0.8503937007874016},{"number":64,"time":171.08125000000317,"value":1},{"number":64,"time":171.08125000000317,"value":1},{"number":64,"time":171.18437500000314,"value":0.8661417322834646},{"number":64,"time":171.18541666666982,"value":0.8661417322834646},{"number":64,"time":171.20833333333647,"value":0.7559055118110236},{"number":64,"time":171.20937500000315,"value":0.7559055118110236},{"number":64,"time":171.21666666666982,"value":0.6614173228346457},{"number":64,"time":171.2177083333365,"value":0.6614173228346457},{"number":64,"time":171.22604166666983,"value":0.6220472440944882},{"number":64,"time":171.2270833333365,"value":0.6220472440944882},{"number":64,"time":171.23541666666983,"value":0.5826771653543307},{"number":64,"time":171.23645833333651,"value":0.5826771653543307},{"number":64,"time":171.2489583333365,"value":0.5511811023622047},{"number":64,"time":171.25000000000318,"value":0.5511811023622047},{"number":64,"time":171.30833333333652,"value":0.5826771653543307},{"number":64,"time":171.3093750000032,"value":0.5826771653543307},{"number":64,"time":171.3250000000032,"value":0.6220472440944882},{"number":64,"time":171.3250000000032,"value":0.6220472440944882},{"number":64,"time":171.3406250000032,"value":0.6535433070866141},{"number":64,"time":171.3406250000032,"value":0.6535433070866141},{"number":64,"time":171.37708333333654,"value":0.7559055118110236},{"number":64,"time":171.37812500000322,"value":0.7559055118110236},{"number":64,"time":171.4166666666699,"value":0.8503937007874016},{"number":64,"time":171.4166666666699,"value":0.8503937007874016},{"number":64,"time":171.52812500000323,"value":1},{"number":64,"time":171.5291666666699,"value":1},{"number":64,"time":171.6239583333366,"value":0.8661417322834646},{"number":64,"time":171.62500000000327,"value":0.8661417322834646},{"number":64,"time":171.6395833333366,"value":0.7559055118110236},{"number":64,"time":171.64062500000327,"value":0.7559055118110236},{"number":64,"time":171.6489583333366,"value":0.6614173228346457},{"number":64,"time":171.65000000000327,"value":0.6614173228346457},{"number":64,"time":171.65625000000327,"value":0.6141732283464567},{"number":64,"time":171.65625000000327,"value":0.6141732283464567},{"number":64,"time":171.6645833333366,"value":0.5748031496062992},{"number":64,"time":171.66562500000327,"value":0.5748031496062992},{"number":64,"time":171.67187500000327,"value":0.5354330708661418},{"number":64,"time":171.67291666666995,"value":0.5354330708661418},{"number":64,"time":171.68020833333662,"value":0.4881889763779528},{"number":64,"time":171.6812500000033,"value":0.4881889763779528},{"number":64,"time":171.69166666666996,"value":0.4015748031496063},{"number":64,"time":171.69270833333664,"value":0.4015748031496063},{"number":64,"time":171.72395833333664,"value":0.47244094488188976},{"number":64,"time":171.72500000000332,"value":0.47244094488188976},{"number":64,"time":171.73541666666998,"value":0.5039370078740157},{"number":64,"time":171.73645833333666,"value":0.5039370078740157},{"number":64,"time":171.74791666667,"value":0.5433070866141733},{"number":64,"time":171.74895833333667,"value":0.5433070866141733},{"number":64,"time":171.75937500000333,"value":0.5748031496062992},{"number":64,"time":171.76041666667,"value":0.5748031496062992},{"number":64,"time":171.77604166667,"value":0.6062992125984252},{"number":64,"time":171.7770833333367,"value":0.6062992125984252},{"number":64,"time":171.78750000000335,"value":0.6456692913385826},{"number":64,"time":171.78854166667003,"value":0.6456692913385826},{"number":64,"time":171.81562500000337,"value":0.7559055118110236},{"number":64,"time":171.81666666667005,"value":0.7559055118110236},{"number":64,"time":171.86041666667003,"value":0.8503937007874016},{"number":64,"time":171.8614583333367,"value":0.8503937007874016},{"number":64,"time":171.97604166667006,"value":1},{"number":64,"time":171.97708333333674,"value":1},{"number":64,"time":172.03229166667006,"value":0.8661417322834646},{"number":64,"time":172.03333333333674,"value":0.8661417322834646},{"number":64,"time":172.05208333333675,"value":0.7559055118110236},{"number":64,"time":172.05312500000343,"value":0.7559055118110236},{"number":64,"time":172.0604166666701,"value":0.6614173228346457},{"number":64,"time":172.06250000000344,"value":0.6614173228346457},{"number":64,"time":172.06770833333678,"value":0.6220472440944882},{"number":64,"time":172.06875000000346,"value":0.6220472440944882},{"number":64,"time":172.07604166667014,"value":0.5905511811023622},{"number":64,"time":172.07708333333682,"value":0.5905511811023622},{"number":64,"time":172.08750000000347,"value":0.5511811023622047},{"number":64,"time":172.08854166667015,"value":0.5511811023622047},{"number":64,"time":172.14791666667014,"value":0.5826771653543307},{"number":64,"time":172.14895833333682,"value":0.5826771653543307},{"number":64,"time":172.15937500000348,"value":0.6141732283464567},{"number":64,"time":172.16041666667016,"value":0.6141732283464567},{"number":64,"time":172.1718750000035,"value":0.6535433070866141},{"number":64,"time":172.17291666667018,"value":0.6535433070866141},{"number":64,"time":172.18333333333686,"value":0.7559055118110236},{"number":64,"time":172.18437500000354,"value":0.7559055118110236},{"number":64,"time":172.21145833333688,"value":0.8503937007874016},{"number":64,"time":172.21250000000356,"value":0.8503937007874016},{"number":64,"time":172.34375000000355,"value":1},{"number":64,"time":172.34375000000355,"value":1},{"number":64,"time":172.4395833333369,"value":0.8661417322834646},{"number":64,"time":172.4406250000036,"value":0.8661417322834646},{"number":64,"time":172.46354166667027,"value":0.7322834645669292},{"number":64,"time":172.46458333333695,"value":0.7322834645669292},{"number":64,"time":172.47604166667028,"value":0.6456692913385826},{"number":64,"time":172.47708333333696,"value":0.6456692913385826},{"number":64,"time":172.48333333333696,"value":0.6141732283464567},{"number":64,"time":172.48437500000364,"value":0.6141732283464567},{"number":64,"time":172.49687500000363,"value":0.5748031496062992},{"number":64,"time":172.4979166666703,"value":0.5748031496062992},{"number":64,"time":172.51562500000364,"value":0.5433070866141733},{"number":64,"time":172.51666666667032,"value":0.5433070866141733},{"number":64,"time":172.54375000000366,"value":0.5748031496062992},{"number":64,"time":172.54375000000366,"value":0.5748031496062992},{"number":64,"time":172.56041666667033,"value":0.6062992125984252},{"number":64,"time":172.56145833333701,"value":0.6062992125984252},{"number":64,"time":172.5687500000037,"value":0.6456692913385826},{"number":64,"time":172.56979166667037,"value":0.6456692913385826},{"number":64,"time":172.58020833333703,"value":0.7559055118110236},{"number":64,"time":172.58020833333703,"value":0.7559055118110236},{"number":64,"time":172.59166666667036,"value":0.8503937007874016},{"number":64,"time":172.59166666667036,"value":0.8503937007874016},{"number":64,"time":172.87187500000368,"value":1},{"number":64,"time":172.87291666667036,"value":1},{"number":64,"time":172.9312500000037,"value":0.8661417322834646},{"number":64,"time":172.93229166667038,"value":0.8661417322834646},{"number":64,"time":172.94791666667038,"value":0.7559055118110236},{"number":64,"time":172.94895833333706,"value":0.7559055118110236},{"number":64,"time":172.95625000000373,"value":0.6456692913385826},{"number":64,"time":172.95625000000373,"value":0.6456692913385826},{"number":64,"time":172.9635416666704,"value":0.5984251968503937},{"number":64,"time":172.9645833333371,"value":0.5984251968503937},{"number":64,"time":172.97187500000376,"value":0.5511811023622047},{"number":64,"time":172.97291666667044,"value":0.5511811023622047},{"number":64,"time":172.97604166667045,"value":0.5196850393700787},{"number":64,"time":172.97708333333713,"value":0.5196850393700787},{"number":64,"time":172.9875000000038,"value":0.3779527559055118},{"number":64,"time":172.98854166667047,"value":0.3779527559055118},{"number":64,"time":173.0000000000038,"value":0.2755905511811024},{"number":64,"time":173.0010416666705,"value":0.2755905511811024},{"number":64,"time":173.0562500000038,"value":0.3779527559055118},{"number":64,"time":173.0562500000038,"value":0.3779527559055118},{"number":64,"time":173.0635416666705,"value":0.47244094488188976},{"number":64,"time":173.06458333333717,"value":0.47244094488188976},{"number":64,"time":173.07187500000384,"value":0.5196850393700787},{"number":64,"time":173.07291666667052,"value":0.5196850393700787},{"number":64,"time":173.0802083333372,"value":0.5511811023622047},{"number":64,"time":173.0802083333372,"value":0.5511811023622047},{"number":64,"time":173.09166666667053,"value":0.5826771653543307},{"number":64,"time":173.09166666667053,"value":0.5826771653543307},{"number":64,"time":173.10416666667052,"value":0.6141732283464567},{"number":64,"time":173.10416666667052,"value":0.6141732283464567},{"number":64,"time":173.1114583333372,"value":0.6456692913385826},{"number":64,"time":173.11250000000388,"value":0.6456692913385826},{"number":64,"time":173.1395833333372,"value":0.7559055118110236},{"number":64,"time":173.1406250000039,"value":0.7559055118110236},{"number":64,"time":173.19166666667056,"value":0.8503937007874016},{"number":64,"time":173.19166666667056,"value":0.8503937007874016},{"number":64,"time":173.33541666667057,"value":1},{"number":64,"time":173.33645833333725,"value":1},{"number":64,"time":173.40416666667056,"value":0.8661417322834646},{"number":64,"time":173.40416666667056,"value":0.8661417322834646},{"number":64,"time":173.4312500000039,"value":0.7559055118110236},{"number":64,"time":173.43229166667058,"value":0.7559055118110236},{"number":64,"time":173.44375000000392,"value":0.6535433070866141},{"number":64,"time":173.4447916666706,"value":0.6535433070866141},{"number":64,"time":173.45208333333727,"value":0.6220472440944882},{"number":64,"time":173.45312500000395,"value":0.6220472440944882},{"number":64,"time":173.4635416666706,"value":0.5905511811023622},{"number":64,"time":173.4645833333373,"value":0.5905511811023622},{"number":64,"time":173.5197916666706,"value":0.6220472440944882},{"number":64,"time":173.5208333333373,"value":0.6220472440944882},{"number":64,"time":173.5520833333373,"value":0.7322834645669292},{"number":64,"time":173.55312500000397,"value":0.7322834645669292},{"number":64,"time":173.60416666667064,"value":0.8267716535433071},{"number":64,"time":173.60520833333732,"value":0.8267716535433071},{"number":64,"time":173.64791666667065,"value":0.937007874015748},{"number":64,"time":173.64895833333733,"value":0.937007874015748},{"number":64,"time":173.715625000004,"value":1},{"number":64,"time":173.715625000004,"value":1},{"number":64,"time":173.787500000004,"value":0.8661417322834646},{"number":64,"time":173.78854166667068,"value":0.8661417322834646},{"number":64,"time":173.81145833333736,"value":0.7322834645669292},{"number":64,"time":173.81250000000404,"value":0.7322834645669292},{"number":64,"time":173.8197916666707,"value":0.6535433070866141},{"number":64,"time":173.8208333333374,"value":0.6535433070866141},{"number":64,"time":173.82812500000406,"value":0.6220472440944882},{"number":64,"time":173.82812500000406,"value":0.6220472440944882},{"number":64,"time":173.8395833333374,"value":0.5905511811023622},{"number":64,"time":173.8395833333374,"value":0.5905511811023622},{"number":64,"time":173.86041666667074,"value":0.5590551181102362},{"number":64,"time":173.86145833333742,"value":0.5590551181102362},{"number":64,"time":173.89583333333744,"value":0.5905511811023622},{"number":64,"time":173.89687500000412,"value":0.5905511811023622},{"number":64,"time":173.91666666667078,"value":0.6220472440944882},{"number":64,"time":173.91666666667078,"value":0.6220472440944882},{"number":64,"time":173.94375000000412,"value":0.7322834645669292},{"number":64,"time":173.9447916666708,"value":0.7322834645669292},{"number":64,"time":173.9760416666708,"value":0.8267716535433071},{"number":64,"time":173.97708333333748,"value":0.8267716535433071},{"number":64,"time":174.06770833333746,"value":0.937007874015748},{"number":64,"time":174.06875000000414,"value":0.937007874015748},{"number":64,"time":174.12708333333748,"value":1},{"number":64,"time":174.12812500000416,"value":1},{"number":64,"time":174.20312500000415,"value":0.8661417322834646},{"number":64,"time":174.20416666667083,"value":0.8661417322834646},{"number":64,"time":174.2270833333375,"value":0.7322834645669292},{"number":64,"time":174.2270833333375,"value":0.7322834645669292},{"number":64,"time":174.2395833333375,"value":0.6377952755905512},{"number":64,"time":174.24062500000417,"value":0.6377952755905512},{"number":64,"time":174.24687500000417,"value":0.6062992125984252},{"number":64,"time":174.24791666667085,"value":0.6062992125984252},{"number":64,"time":174.2583333333375,"value":0.5748031496062992},{"number":64,"time":174.25937500000418,"value":0.5748031496062992},{"number":64,"time":174.3270833333375,"value":0.6141732283464567},{"number":64,"time":174.32812500000418,"value":0.6141732283464567},{"number":64,"time":174.33437500000417,"value":0.6456692913385826},{"number":64,"time":174.33541666667085,"value":0.6456692913385826},{"number":64,"time":174.35208333333753,"value":0.7795275590551181},{"number":64,"time":174.3531250000042,"value":0.7795275590551181},{"number":64,"time":174.4187500000042,"value":0.889763779527559},{"number":64,"time":174.41979166667087,"value":0.889763779527559},{"number":64,"time":174.62291666667087,"value":1},{"number":64,"time":174.62395833333755,"value":1},{"number":64,"time":174.6916666666709,"value":0.8661417322834646},{"number":64,"time":174.6916666666709,"value":0.8661417322834646},{"number":64,"time":174.71458333333757,"value":0.7322834645669292},{"number":64,"time":174.71562500000425,"value":0.7322834645669292},{"number":64,"time":174.72291666667093,"value":0.6456692913385826},{"number":64,"time":174.7239583333376,"value":0.6456692913385826},{"number":64,"time":174.73125000000428,"value":0.6062992125984252},{"number":64,"time":174.73229166667096,"value":0.6062992125984252},{"number":64,"time":174.73854166667095,"value":0.5748031496062992},{"number":64,"time":174.73958333333763,"value":0.5748031496062992},{"number":64,"time":174.7468750000043,"value":0.5433070866141733},{"number":64,"time":174.747916666671,"value":0.5433070866141733},{"number":64,"time":174.75416666667098,"value":0.5039370078740157},{"number":64,"time":174.75520833333766,"value":0.5039370078740157},{"number":64,"time":174.766666666671,"value":0.47244094488188976},{"number":64,"time":174.766666666671,"value":0.47244094488188976},{"number":64,"time":174.79895833333768,"value":0.5039370078740157},{"number":64,"time":174.80000000000436,"value":0.5039370078740157},{"number":64,"time":174.8114583333377,"value":0.5354330708661418},{"number":64,"time":174.81250000000438,"value":0.5354330708661418},{"number":64,"time":174.82291666667106,"value":0.5669291338582677},{"number":64,"time":174.82395833333774,"value":0.5669291338582677},{"number":64,"time":174.84270833333775,"value":0.5984251968503937},{"number":64,"time":174.84375000000443,"value":0.5984251968503937},{"number":64,"time":174.85520833333777,"value":0.6299212598425197},{"number":64,"time":174.85520833333777,"value":0.6299212598425197},{"number":64,"time":174.8822916666711,"value":0.7322834645669292},{"number":64,"time":174.8833333333378,"value":0.7322834645669292},{"number":64,"time":174.94687500000444,"value":0.8267716535433071},{"number":64,"time":174.94791666667112,"value":0.8267716535433071},{"number":64,"time":175.0645833333378,"value":0.937007874015748},{"number":64,"time":175.0645833333378,"value":0.937007874015748},{"number":64,"time":175.10312500000447,"value":1},{"number":64,"time":175.10312500000447,"value":1},{"number":64,"time":175.1520833333378,"value":0.8661417322834646},{"number":64,"time":175.15312500000448,"value":0.8661417322834646},{"number":64,"time":175.17500000000447,"value":0.7322834645669292},{"number":64,"time":175.17604166667115,"value":0.7322834645669292},{"number":64,"time":175.18229166667115,"value":0.6456692913385826},{"number":64,"time":175.18333333333783,"value":0.6456692913385826},{"number":64,"time":175.1906250000045,"value":0.6062992125984252},{"number":64,"time":175.1906250000045,"value":0.6062992125984252},{"number":64,"time":175.2031250000045,"value":0.5669291338582677},{"number":64,"time":175.2031250000045,"value":0.5669291338582677},{"number":64,"time":175.21458333333783,"value":0.5275590551181102},{"number":64,"time":175.21458333333783,"value":0.5275590551181102},{"number":64,"time":175.22708333333782,"value":0.49606299212598426},{"number":64,"time":175.22708333333782,"value":0.49606299212598426},{"number":64,"time":175.26250000000448,"value":0.5275590551181102},{"number":64,"time":175.26354166667116,"value":0.5275590551181102},{"number":64,"time":175.27708333333783,"value":0.5590551181102362},{"number":64,"time":175.27708333333783,"value":0.5590551181102362},{"number":64,"time":175.2906250000045,"value":0.5905511811023622},{"number":64,"time":175.29166666667118,"value":0.5905511811023622},{"number":64,"time":175.3031250000045,"value":0.6220472440944882},{"number":64,"time":175.3031250000045,"value":0.6220472440944882},{"number":64,"time":175.3104166666712,"value":0.6535433070866141},{"number":64,"time":175.31145833333787,"value":0.6535433070866141},{"number":64,"time":175.32708333333787,"value":0.7559055118110236},{"number":64,"time":175.32708333333787,"value":0.7559055118110236},{"number":64,"time":175.3822916666712,"value":0.8503937007874016},{"number":64,"time":175.38333333333787,"value":0.8503937007874016},{"number":64,"time":175.47083333333785,"value":1},{"number":64,"time":175.47187500000453,"value":1},{"number":64,"time":175.55833333333783,"value":0.8661417322834646},{"number":64,"time":175.5593750000045,"value":0.8661417322834646},{"number":64,"time":175.58645833333784,"value":0.7322834645669292},{"number":64,"time":175.58750000000452,"value":0.7322834645669292},{"number":64,"time":175.59895833333786,"value":0.6456692913385826},{"number":64,"time":175.60000000000454,"value":0.6456692913385826},{"number":64,"time":175.60625000000454,"value":0.6141732283464567},{"number":64,"time":175.60729166667122,"value":0.6141732283464567},{"number":64,"time":175.67083333333787,"value":0.6456692913385826},{"number":64,"time":175.67187500000455,"value":0.6456692913385826},{"number":64,"time":175.68645833333787,"value":0.7559055118110236},{"number":64,"time":175.68750000000455,"value":0.7559055118110236},{"number":64,"time":175.70312500000455,"value":0.8503937007874016},{"number":64,"time":175.70312500000455,"value":0.8503937007874016},{"number":64,"time":175.8520833333379,"value":1},{"number":64,"time":175.8520833333379,"value":1},{"number":64,"time":175.94687500000455,"value":0.8661417322834646},{"number":64,"time":175.94791666667123,"value":0.8661417322834646},{"number":64,"time":175.97500000000457,"value":0.7322834645669292},{"number":64,"time":175.97604166667125,"value":0.7322834645669292},{"number":64,"time":175.9864583333379,"value":0.6456692913385826},{"number":64,"time":175.9875000000046,"value":0.6456692913385826},{"number":64,"time":175.99479166667126,"value":0.6141732283464567},{"number":64,"time":175.99583333333794,"value":0.6141732283464567},{"number":64,"time":176.01041666667126,"value":0.5826771653543307},{"number":64,"time":176.01145833333794,"value":0.5826771653543307},{"number":64,"time":176.0750000000046,"value":0.6220472440944882},{"number":64,"time":176.07604166667127,"value":0.6220472440944882},{"number":64,"time":176.09479166667128,"value":0.7559055118110236},{"number":64,"time":176.09583333333796,"value":0.7559055118110236},{"number":64,"time":176.11458333333798,"value":0.8503937007874016},{"number":64,"time":176.11562500000466,"value":0.8503937007874016},{"number":64,"time":176.39479166667127,"value":1},{"number":64,"time":176.39583333333795,"value":1},{"number":64,"time":176.46666666667127,"value":0.8661417322834646},{"number":64,"time":176.46770833333795,"value":0.8661417322834646},{"number":64,"time":176.48229166667127,"value":0.7559055118110236},{"number":64,"time":176.48333333333795,"value":0.7559055118110236},{"number":64,"time":176.48750000000464,"value":0.6614173228346457},{"number":64,"time":176.48854166667132,"value":0.6614173228346457},{"number":64,"time":176.49375000000467,"value":0.6062992125984252},{"number":64,"time":176.49479166667135,"value":0.6062992125984252},{"number":64,"time":176.50312500000467,"value":0.5590551181102362},{"number":64,"time":176.50312500000467,"value":0.5590551181102362},{"number":64,"time":176.50625000000468,"value":0.5275590551181102},{"number":64,"time":176.50729166667136,"value":0.5275590551181102},{"number":64,"time":176.51041666667138,"value":0.49606299212598426},{"number":64,"time":176.51145833333806,"value":0.49606299212598426},{"number":64,"time":176.51875000000473,"value":0.3543307086614173},{"number":64,"time":176.5197916666714,"value":0.3543307086614173},{"number":64,"time":176.52708333333808,"value":0.2283464566929134},{"number":64,"time":176.52708333333808,"value":0.2283464566929134},{"number":64,"time":176.53437500000476,"value":0.12598425196850394},{"number":64,"time":176.53541666667144,"value":0.12598425196850394},{"number":64,"time":176.55104166667144,"value":0.031496062992125984},{"number":64,"time":176.55208333333812,"value":0.031496062992125984},{"number":64,"time":176.5583333333381,"value":0},{"number":64,"time":176.5593750000048,"value":0},{"number":64,"time":176.60416666667146,"value":0.14960629921259844},{"number":64,"time":176.60520833333814,"value":0.14960629921259844},{"number":64,"time":176.61041666667148,"value":0.2755905511811024},{"number":64,"time":176.61145833333816,"value":0.2755905511811024},{"number":64,"time":176.61875000000484,"value":0.4015748031496063},{"number":64,"time":176.61979166667152,"value":0.4015748031496063},{"number":64,"time":176.62291666667153,"value":0.47244094488188976},{"number":64,"time":176.6239583333382,"value":0.47244094488188976},{"number":64,"time":176.62604166667154,"value":0.5039370078740157},{"number":64,"time":176.62604166667154,"value":0.5039370078740157},{"number":64,"time":176.63437500000487,"value":0.5433070866141733},{"number":64,"time":176.63541666667155,"value":0.5433070866141733},{"number":64,"time":176.64166666667154,"value":0.5748031496062992},{"number":64,"time":176.64270833333822,"value":0.5748031496062992},{"number":64,"time":176.65729166667154,"value":0.6062992125984252},{"number":64,"time":176.65833333333822,"value":0.6062992125984252},{"number":64,"time":176.66979166667156,"value":0.6377952755905512},{"number":64,"time":176.66979166667156,"value":0.6377952755905512},{"number":64,"time":176.71041666667156,"value":0.7322834645669292},{"number":64,"time":176.71145833333824,"value":0.7322834645669292},{"number":64,"time":176.74583333333823,"value":0.8267716535433071},{"number":64,"time":176.7468750000049,"value":0.8267716535433071},{"number":64,"time":176.85833333333827,"value":0.937007874015748},{"number":64,"time":176.85833333333827,"value":0.937007874015748},{"number":64,"time":176.96562500000496,"value":0.8267716535433071},{"number":64,"time":176.96666666667164,"value":0.8267716535433071},{"number":64,"time":176.98125000000496,"value":0.7086614173228346},{"number":64,"time":176.98229166667164,"value":0.7086614173228346},{"number":64,"time":176.99062500000497,"value":0.6377952755905512},{"number":64,"time":176.99166666667165,"value":0.6377952755905512},{"number":64,"time":176.99791666667164,"value":0.5984251968503937},{"number":64,"time":176.99895833333832,"value":0.5984251968503937},{"number":64,"time":177.00937500000498,"value":0.5590551181102362},{"number":64,"time":177.01041666667166,"value":0.5590551181102362},{"number":64,"time":177.01770833333833,"value":0.5275590551181102},{"number":64,"time":177.018750000005,"value":0.5275590551181102},{"number":64,"time":177.031250000005,"value":0.49606299212598426},{"number":64,"time":177.03229166667168,"value":0.49606299212598426},{"number":64,"time":177.0666666666717,"value":0.5275590551181102},{"number":64,"time":177.06770833333837,"value":0.5275590551181102},{"number":64,"time":177.07812500000503,"value":0.5590551181102362},{"number":64,"time":177.0791666666717,"value":0.5590551181102362},{"number":64,"time":177.09375000000503,"value":0.5905511811023622},{"number":64,"time":177.0947916666717,"value":0.5905511811023622},{"number":64,"time":177.10625000000505,"value":0.6220472440944882},{"number":64,"time":177.10729166667173,"value":0.6220472440944882},{"number":64,"time":177.13333333333838,"value":0.7322834645669292},{"number":64,"time":177.13437500000506,"value":0.7322834645669292},{"number":64,"time":177.19062500000504,"value":0.8267716535433071},{"number":64,"time":177.19166666667172,"value":0.8267716535433071},{"number":64,"time":177.2500000000051,"value":0.937007874015748},{"number":64,"time":177.25104166667177,"value":0.937007874015748},{"number":64,"time":177.30520833333844,"value":1},{"number":64,"time":177.30625000000512,"value":1},{"number":64,"time":177.3812500000051,"value":0.8661417322834646},{"number":64,"time":177.3822916666718,"value":0.8661417322834646},{"number":64,"time":177.40520833333846,"value":0.7322834645669292},{"number":64,"time":177.40625000000514,"value":0.7322834645669292},{"number":64,"time":177.41770833333848,"value":0.6456692913385826},{"number":64,"time":177.41875000000516,"value":0.6456692913385826},{"number":64,"time":177.42604166667184,"value":0.6141732283464567},{"number":64,"time":177.42604166667184,"value":0.6141732283464567},{"number":64,"time":177.43750000000517,"value":0.5748031496062992},{"number":64,"time":177.43750000000517,"value":0.5748031496062992},{"number":64,"time":177.50937500000518,"value":0.6062992125984252},{"number":64,"time":177.51041666667186,"value":0.6062992125984252},{"number":64,"time":177.5218750000052,"value":0.6456692913385826},{"number":64,"time":177.52291666667188,"value":0.6456692913385826},{"number":64,"time":177.5375000000052,"value":0.7559055118110236},{"number":64,"time":177.53854166667188,"value":0.7559055118110236},{"number":64,"time":177.57395833333854,"value":0.8503937007874016},{"number":64,"time":177.57500000000522,"value":0.8503937007874016},{"number":64,"time":177.7135416666719,"value":1},{"number":64,"time":177.7135416666719,"value":1},{"number":64,"time":177.79375000000522,"value":0.8661417322834646},{"number":64,"time":177.7947916666719,"value":0.8661417322834646},{"number":64,"time":177.8135416666719,"value":0.7559055118110236},{"number":64,"time":177.8145833333386,"value":0.7559055118110236},{"number":64,"time":177.82187500000526,"value":0.6614173228346457},{"number":64,"time":177.82291666667194,"value":0.6614173228346457},{"number":64,"time":177.82916666667194,"value":0.6220472440944882},{"number":64,"time":177.83020833333862,"value":0.6220472440944882},{"number":64,"time":177.8375000000053,"value":0.5905511811023622},{"number":64,"time":177.83854166667197,"value":0.5905511811023622},{"number":64,"time":177.8500000000053,"value":0.5511811023622047},{"number":64,"time":177.8500000000053,"value":0.5511811023622047},{"number":64,"time":177.86145833333865,"value":0.5118110236220472},{"number":64,"time":177.86145833333865,"value":0.5118110236220472},{"number":64,"time":177.90208333333865,"value":0.5433070866141733},{"number":64,"time":177.90312500000533,"value":0.5433070866141733},{"number":64,"time":177.91770833333865,"value":0.5748031496062992},{"number":64,"time":177.91875000000533,"value":0.5748031496062992},{"number":64,"time":177.929166666672,"value":0.6062992125984252},{"number":64,"time":177.93020833333867,"value":0.6062992125984252},{"number":64,"time":177.93750000000534,"value":0.6377952755905512},{"number":64,"time":177.93750000000534,"value":0.6377952755905512},{"number":64,"time":177.95000000000533,"value":0.7322834645669292},{"number":64,"time":177.95000000000533,"value":0.7322834645669292},{"number":64,"time":177.96562500000533,"value":0.8267716535433071},{"number":64,"time":177.966666666672,"value":0.8267716535433071},{"number":64,"time":178.09375000000534,"value":0.937007874015748},{"number":64,"time":178.09479166667202,"value":0.937007874015748},{"number":64,"time":178.16562500000535,"value":1},{"number":64,"time":178.16666666667203,"value":1},{"number":64,"time":178.24166666667202,"value":0.8661417322834646},{"number":64,"time":178.2427083333387,"value":0.8661417322834646},{"number":64,"time":178.26041666667203,"value":0.7322834645669292},{"number":64,"time":178.26041666667203,"value":0.7322834645669292},{"number":64,"time":178.26979166667203,"value":0.6456692913385826},{"number":64,"time":178.26979166667203,"value":0.6456692913385826},{"number":64,"time":178.2770833333387,"value":0.6062992125984252},{"number":64,"time":178.2781250000054,"value":0.6062992125984252},{"number":64,"time":178.28541666667206,"value":0.5669291338582677},{"number":64,"time":178.28645833333874,"value":0.5669291338582677},{"number":64,"time":178.29375000000542,"value":0.5354330708661418},{"number":64,"time":178.2947916666721,"value":0.5354330708661418},{"number":64,"time":178.3010416666721,"value":0.49606299212598426},{"number":64,"time":178.30312500000542,"value":0.49606299212598426},{"number":64,"time":178.36145833333876,"value":0.5275590551181102},{"number":64,"time":178.36250000000544,"value":0.5275590551181102},{"number":64,"time":178.37395833333878,"value":0.5669291338582677},{"number":64,"time":178.37395833333878,"value":0.5669291338582677},{"number":64,"time":178.38958333333878,"value":0.6062992125984252},{"number":64,"time":178.39062500000546,"value":0.6062992125984252},{"number":64,"time":178.39791666667213,"value":0.6377952755905512},{"number":64,"time":178.3989583333388,"value":0.6377952755905512},{"number":64,"time":178.40937500000547,"value":0.7322834645669292},{"number":64,"time":178.41041666667215,"value":0.7322834645669292},{"number":64,"time":178.42916666667216,"value":0.8267716535433071},{"number":64,"time":178.43020833333884,"value":0.8267716535433071},{"number":64,"time":178.5854166666722,"value":0.937007874015748},{"number":64,"time":178.58645833333887,"value":0.937007874015748},{"number":64,"time":178.63750000000553,"value":1},{"number":64,"time":178.63750000000553,"value":1},{"number":64,"time":178.70104166667218,"value":0.8661417322834646},{"number":64,"time":178.7031250000055,"value":0.8661417322834646},{"number":64,"time":178.7250000000055,"value":0.7322834645669292},{"number":64,"time":178.7260416666722,"value":0.7322834645669292},{"number":64,"time":178.73333333333886,"value":0.6535433070866141},{"number":64,"time":178.73437500000554,"value":0.6535433070866141},{"number":64,"time":178.74166666667222,"value":0.6141732283464567},{"number":64,"time":178.7427083333389,"value":0.6141732283464567},{"number":64,"time":178.75000000000557,"value":0.5826771653543307},{"number":64,"time":178.75000000000557,"value":0.5826771653543307},{"number":64,"time":178.75625000000556,"value":0.5511811023622047},{"number":64,"time":178.75729166667224,"value":0.5511811023622047},{"number":64,"time":178.76458333333892,"value":0.5196850393700787},{"number":64,"time":178.7656250000056,"value":0.5196850393700787},{"number":64,"time":178.77604166667226,"value":0.48031496062992124},{"number":64,"time":178.77708333333894,"value":0.48031496062992124},{"number":64,"time":178.81666666667226,"value":0.5196850393700787},{"number":64,"time":178.81666666667226,"value":0.5196850393700787},{"number":64,"time":178.83333333333894,"value":0.5590551181102362},{"number":64,"time":178.83437500000562,"value":0.5590551181102362},{"number":64,"time":178.84895833333894,"value":0.5905511811023622},{"number":64,"time":178.84895833333894,"value":0.5905511811023622},{"number":64,"time":178.86458333333894,"value":0.6220472440944882},{"number":64,"time":178.86562500000562,"value":0.6220472440944882},{"number":64,"time":178.87708333333896,"value":0.6535433070866141},{"number":64,"time":178.87812500000564,"value":0.6535433070866141},{"number":64,"time":178.90937500000564,"value":0.7559055118110236},{"number":64,"time":178.91041666667232,"value":0.7559055118110236},{"number":64,"time":178.96562500000567,"value":0.8503937007874016},{"number":64,"time":178.96666666667235,"value":0.8503937007874016},{"number":64,"time":179.1687500000057,"value":0.7322834645669292},{"number":64,"time":179.1687500000057,"value":0.7322834645669292},{"number":64,"time":179.1812500000057,"value":0.6456692913385826},{"number":64,"time":179.18229166667237,"value":0.6456692913385826},{"number":64,"time":179.18854166667236,"value":0.6141732283464567},{"number":64,"time":179.18958333333904,"value":0.6141732283464567},{"number":64,"time":179.2000000000057,"value":0.5826771653543307},{"number":64,"time":179.20104166667238,"value":0.5826771653543307},{"number":64,"time":179.26770833333904,"value":0.6220472440944882},{"number":64,"time":179.26875000000572,"value":0.6220472440944882},{"number":64,"time":179.30000000000572,"value":0.7559055118110236},{"number":64,"time":179.30000000000572,"value":0.7559055118110236},{"number":64,"time":179.35937500000574,"value":0.8503937007874016},{"number":64,"time":179.36041666667242,"value":0.8503937007874016},{"number":64,"time":179.4989583333391,"value":1},{"number":64,"time":179.50104166667242,"value":1},{"number":64,"time":179.55625000000575,"value":0.8661417322834646},{"number":64,"time":179.55729166667243,"value":0.8661417322834646},{"number":64,"time":179.5833333333391,"value":0.7559055118110236},{"number":64,"time":179.5843750000058,"value":0.7559055118110236},{"number":64,"time":179.59583333333913,"value":0.6614173228346457},{"number":64,"time":179.5968750000058,"value":0.6614173228346457},{"number":64,"time":179.60729166667247,"value":0.6299212598425197},{"number":64,"time":179.60833333333915,"value":0.6299212598425197},{"number":64,"time":179.6916666666725,"value":0.7322834645669292},{"number":64,"time":179.69270833333917,"value":0.7322834645669292},{"number":64,"time":179.74375000000583,"value":0.8267716535433071},{"number":64,"time":179.7447916666725,"value":0.8267716535433071},{"number":64,"time":179.9760416666725,"value":0.937007874015748},{"number":64,"time":179.97708333333918,"value":0.937007874015748},{"number":64,"time":180.0791666666725,"value":0.8267716535433071},{"number":64,"time":180.0802083333392,"value":0.8267716535433071},{"number":64,"time":180.09166666667252,"value":0.7086614173228346},{"number":64,"time":180.0927083333392,"value":0.7086614173228346},{"number":64,"time":180.10000000000588,"value":0.6377952755905512},{"number":64,"time":180.10104166667256,"value":0.6377952755905512},{"number":64,"time":180.10729166667255,"value":0.5984251968503937},{"number":64,"time":180.10833333333923,"value":0.5984251968503937},{"number":64,"time":180.1156250000059,"value":0.5669291338582677},{"number":64,"time":180.1166666666726,"value":0.5669291338582677},{"number":64,"time":180.12395833333926,"value":0.5354330708661418},{"number":64,"time":180.12395833333926,"value":0.5354330708661418},{"number":64,"time":180.13125000000593,"value":0.49606299212598426},{"number":64,"time":180.13229166667261,"value":0.49606299212598426},{"number":64,"time":180.1916666666726,"value":0.5275590551181102},{"number":64,"time":180.19270833333928,"value":0.5275590551181102},{"number":64,"time":180.20312500000594,"value":0.5590551181102362},{"number":64,"time":180.20416666667262,"value":0.5590551181102362},{"number":64,"time":180.21562500000596,"value":0.5905511811023622},{"number":64,"time":180.21666666667264,"value":0.5905511811023622},{"number":64,"time":180.2270833333393,"value":0.6220472440944882},{"number":64,"time":180.22812500000597,"value":0.6220472440944882},{"number":64,"time":180.23541666667265,"value":0.6535433070866141},{"number":64,"time":180.23645833333933,"value":0.6535433070866141},{"number":64,"time":180.24791666667267,"value":0.7559055118110236},{"number":64,"time":180.24895833333935,"value":0.7559055118110236},{"number":64,"time":180.33125000000598,"value":0.8503937007874016},{"number":64,"time":180.33229166667266,"value":0.8503937007874016},{"number":64,"time":180.5354166666727,"value":0.7322834645669292},{"number":64,"time":180.5354166666727,"value":0.7322834645669292},{"number":64,"time":180.54791666667268,"value":0.6456692913385826},{"number":64,"time":180.54895833333936,"value":0.6456692913385826},{"number":64,"time":180.55520833333935,"value":0.6062992125984252},{"number":64,"time":180.55625000000603,"value":0.6062992125984252},{"number":64,"time":180.56770833333937,"value":0.5748031496062992},{"number":64,"time":180.56875000000605,"value":0.5748031496062992},{"number":64,"time":180.58333333333937,"value":0.5433070866141733},{"number":64,"time":180.58437500000605,"value":0.5433070866141733},{"number":64,"time":180.63125000000605,"value":0.5748031496062992},{"number":64,"time":180.63229166667273,"value":0.5748031496062992},{"number":64,"time":180.64791666667273,"value":0.6062992125984252},{"number":64,"time":180.6489583333394,"value":0.6062992125984252},{"number":64,"time":180.65937500000607,"value":0.6377952755905512},{"number":64,"time":180.65937500000607,"value":0.6377952755905512},{"number":64,"time":180.68437500000607,"value":0.7322834645669292},{"number":64,"time":180.68437500000607,"value":0.7322834645669292},{"number":64,"time":180.73958333333943,"value":0.8267716535433071},{"number":64,"time":180.7406250000061,"value":0.8267716535433071},{"number":64,"time":180.83645833333944,"value":0.937007874015748},{"number":64,"time":180.83645833333944,"value":0.937007874015748},{"number":64,"time":180.95104166667278,"value":0.8267716535433071},{"number":64,"time":180.95208333333946,"value":0.8267716535433071},{"number":64,"time":180.96770833333946,"value":0.7322834645669292},{"number":64,"time":180.96875000000614,"value":0.7322834645669292},{"number":64,"time":180.9791666666728,"value":0.6456692913385826},{"number":64,"time":180.98020833333948,"value":0.6456692913385826},{"number":64,"time":180.9916666666728,"value":0.6141732283464567},{"number":64,"time":180.9927083333395,"value":0.6141732283464567},{"number":64,"time":181.0072916666728,"value":0.5826771653543307},{"number":64,"time":181.0072916666728,"value":0.5826771653543307},{"number":64,"time":181.05625000000614,"value":0.6141732283464567},{"number":64,"time":181.05729166667282,"value":0.6141732283464567},{"number":64,"time":181.06770833333948,"value":0.6456692913385826},{"number":64,"time":181.06875000000616,"value":0.6456692913385826},{"number":64,"time":181.09166666667284,"value":0.7559055118110236},{"number":64,"time":181.09270833333952,"value":0.7559055118110236},{"number":64,"time":181.15520833333952,"value":0.8503937007874016},{"number":64,"time":181.1562500000062,"value":0.8503937007874016},{"number":64,"time":181.21979166667288,"value":1},{"number":64,"time":181.22083333333956,"value":1},{"number":64,"time":181.32291666667288,"value":0.8661417322834646},{"number":64,"time":181.32395833333956,"value":0.8661417322834646},{"number":64,"time":181.3510416666729,"value":0.7322834645669292},{"number":64,"time":181.35208333333958,"value":0.7322834645669292},{"number":64,"time":181.36354166667292,"value":0.6456692913385826},{"number":64,"time":181.3645833333396,"value":0.6456692913385826},{"number":64,"time":181.37500000000625,"value":0.6141732283464567},{"number":64,"time":181.37604166667293,"value":0.6141732283464567},{"number":64,"time":181.39687500000628,"value":0.5826771653543307},{"number":64,"time":181.39687500000628,"value":0.5826771653543307},{"number":64,"time":181.45104166667295,"value":0.6141732283464567},{"number":64,"time":181.45208333333963,"value":0.6141732283464567},{"number":64,"time":181.4718750000063,"value":0.6535433070866141},{"number":64,"time":181.4718750000063,"value":0.6535433070866141},{"number":64,"time":181.5031250000063,"value":0.7559055118110236},{"number":64,"time":181.50416666667297,"value":0.7559055118110236},{"number":64,"time":181.56770833333965,"value":0.8503937007874016},{"number":64,"time":181.56875000000633,"value":0.8503937007874016},{"number":64,"time":181.75520833333968,"value":1},{"number":64,"time":181.75625000000636,"value":1},{"number":64,"time":181.82291666667302,"value":0.8661417322834646},{"number":64,"time":181.8239583333397,"value":0.8661417322834646},{"number":64,"time":181.84375000000637,"value":0.7559055118110236},{"number":64,"time":181.84479166667305,"value":0.7559055118110236},{"number":64,"time":181.85104166667304,"value":0.6614173228346457},{"number":64,"time":181.85208333333972,"value":0.6614173228346457},{"number":64,"time":181.8593750000064,"value":0.6220472440944882},{"number":64,"time":181.8593750000064,"value":0.6220472440944882},{"number":64,"time":181.86770833333972,"value":0.5905511811023622},{"number":64,"time":181.8687500000064,"value":0.5905511811023622},{"number":64,"time":181.8750000000064,"value":0.5590551181102362},{"number":64,"time":181.87604166667307,"value":0.5590551181102362},{"number":64,"time":181.88333333333975,"value":0.5275590551181102},{"number":64,"time":181.88437500000643,"value":0.5275590551181102},{"number":64,"time":181.93958333333975,"value":0.5590551181102362},{"number":64,"time":181.94062500000643,"value":0.5590551181102362},{"number":64,"time":181.95520833333975,"value":0.5905511811023622},{"number":64,"time":181.95625000000643,"value":0.5905511811023622},{"number":64,"time":181.9666666666731,"value":0.6220472440944882},{"number":64,"time":181.96770833333977,"value":0.6220472440944882},{"number":64,"time":181.98645833333978,"value":0.7559055118110236},{"number":64,"time":181.98750000000646,"value":0.7559055118110236},{"number":64,"time":182.0583333333398,"value":0.8503937007874016},{"number":64,"time":182.0583333333398,"value":0.8503937007874016},{"number":64,"time":182.17812500000645,"value":1},{"number":64,"time":182.17916666667313,"value":1},{"number":64,"time":182.23854166667311,"value":0.8661417322834646},{"number":64,"time":182.2395833333398,"value":0.8661417322834646},{"number":64,"time":182.2708333333398,"value":0.7322834645669292},{"number":64,"time":182.27187500000647,"value":0.7322834645669292},{"number":64,"time":182.2833333333398,"value":0.6456692913385826},{"number":64,"time":182.2843750000065,"value":0.6456692913385826},{"number":64,"time":182.29479166667315,"value":0.6141732283464567},{"number":64,"time":182.29583333333983,"value":0.6141732283464567},{"number":64,"time":182.36354166667317,"value":0.6456692913385826},{"number":64,"time":182.36354166667317,"value":0.6456692913385826},{"number":64,"time":182.38229166667318,"value":0.7559055118110236},{"number":64,"time":182.38333333333986,"value":0.7559055118110236},{"number":64,"time":182.43020833333986,"value":0.8503937007874016},{"number":64,"time":182.43125000000654,"value":0.8503937007874016},{"number":64,"time":182.6447916666732,"value":1},{"number":64,"time":182.64583333333988,"value":1},{"number":64,"time":182.71875000000654,"value":0.8661417322834646},{"number":64,"time":182.71979166667322,"value":0.8661417322834646},{"number":64,"time":182.7427083333399,"value":0.7322834645669292},{"number":64,"time":182.74375000000657,"value":0.7322834645669292},{"number":64,"time":182.7552083333399,"value":0.6377952755905512},{"number":64,"time":182.7562500000066,"value":0.6377952755905512},{"number":64,"time":182.76250000000658,"value":0.6062992125984252},{"number":64,"time":182.76354166667326,"value":0.6062992125984252},{"number":64,"time":182.77395833333992,"value":0.5669291338582677},{"number":64,"time":182.7750000000066,"value":0.5669291338582677},{"number":64,"time":182.78645833333994,"value":0.5354330708661418},{"number":64,"time":182.78750000000662,"value":0.5354330708661418},{"number":64,"time":182.79895833333995,"value":0.5039370078740157},{"number":64,"time":182.79895833333995,"value":0.5039370078740157},{"number":64,"time":182.83437500000662,"value":0.5354330708661418},{"number":64,"time":182.8354166666733,"value":0.5354330708661418},{"number":64,"time":182.85000000000664,"value":0.5669291338582677},{"number":64,"time":182.85104166667332,"value":0.5669291338582677},{"number":64,"time":182.86666666667332,"value":0.5984251968503937},{"number":64,"time":182.86770833334,"value":0.5984251968503937},{"number":64,"time":182.87812500000666,"value":0.6299212598425197},{"number":64,"time":182.87916666667334,"value":0.6299212598425197},{"number":64,"time":182.89791666667335,"value":0.7322834645669292},{"number":64,"time":182.89895833334003,"value":0.7322834645669292},{"number":64,"time":182.96666666667338,"value":0.8267716535433071},{"number":64,"time":182.96770833334006,"value":0.8267716535433071},{"number":64,"time":183.85833333334006,"value":0.7322834645669292},{"number":64,"time":183.85937500000674,"value":0.7322834645669292},{"number":64,"time":183.86770833334006,"value":0.6377952755905512},{"number":64,"time":183.86770833334006,"value":0.6377952755905512},{"number":64,"time":183.87395833334006,"value":0.5984251968503937},{"number":64,"time":183.87500000000674,"value":0.5984251968503937},{"number":64,"time":183.8822916666734,"value":0.5590551181102362},{"number":64,"time":183.8822916666734,"value":0.5590551181102362},{"number":64,"time":183.88645833334007,"value":0.5275590551181102},{"number":64,"time":183.88750000000675,"value":0.5275590551181102},{"number":64,"time":183.89062500000676,"value":0.49606299212598426},{"number":64,"time":183.89166666667344,"value":0.49606299212598426},{"number":64,"time":183.89895833334012,"value":0.4015748031496063},{"number":64,"time":183.9000000000068,"value":0.4015748031496063},{"number":64,"time":183.9062500000068,"value":0.2992125984251969},{"number":64,"time":183.90729166667347,"value":0.2992125984251969},{"number":64,"time":183.92604166667348,"value":0.2047244094488189},{"number":64,"time":183.92708333334016,"value":0.2047244094488189},{"number":64,"time":183.99062500000684,"value":0.33070866141732286},{"number":64,"time":183.99166666667352,"value":0.33070866141732286},{"number":64,"time":184.0020833333402,"value":0.47244094488188976},{"number":64,"time":184.0031250000069,"value":0.47244094488188976},{"number":64,"time":184.01041666667356,"value":0.5118110236220472},{"number":64,"time":184.01145833334024,"value":0.5118110236220472},{"number":64,"time":184.01875000000692,"value":0.5433070866141733},{"number":64,"time":184.0197916666736,"value":0.5433070866141733},{"number":64,"time":184.03020833334025,"value":0.5748031496062992},{"number":64,"time":184.03125000000693,"value":0.5748031496062992},{"number":64,"time":184.04687500000693,"value":0.6062992125984252},{"number":64,"time":184.04791666667361,"value":0.6062992125984252},{"number":64,"time":184.06250000000693,"value":0.6456692913385826},{"number":64,"time":184.06354166667361,"value":0.6456692913385826},{"number":64,"time":184.09375000000693,"value":0.7559055118110236},{"number":64,"time":184.09479166667361,"value":0.7559055118110236},{"number":64,"time":184.15000000000694,"value":0.8503937007874016},{"number":64,"time":184.15104166667362,"value":0.8503937007874016},{"number":64,"time":184.79375000000692,"value":0.7559055118110236},{"number":64,"time":184.7947916666736,"value":0.7559055118110236},{"number":64,"time":184.82083333334026,"value":0.6614173228346457},{"number":64,"time":184.82187500000694,"value":0.6614173228346457},{"number":64,"time":184.87812500000695,"value":0.7559055118110236},{"number":64,"time":184.87916666667363,"value":0.7559055118110236},{"number":64,"time":184.95729166667363,"value":0.8503937007874016},{"number":64,"time":184.9583333333403,"value":0.8503937007874016},{"number":64,"time":185.15416666667363,"value":0.7559055118110236},{"number":64,"time":185.15416666667363,"value":0.7559055118110236},{"number":64,"time":185.17812500000696,"value":0.6535433070866141},{"number":64,"time":185.17916666667364,"value":0.6535433070866141},{"number":64,"time":185.237500000007,"value":0.7559055118110236},{"number":64,"time":185.23854166667368,"value":0.7559055118110236},{"number":64,"time":185.34895833334036,"value":0.8503937007874016},{"number":64,"time":185.35000000000704,"value":0.8503937007874016},{"number":64,"time":185.6010416666737,"value":1},{"number":64,"time":185.60208333334037,"value":1},{"number":64,"time":185.68541666667372,"value":0.8661417322834646},{"number":64,"time":185.6864583333404,"value":0.8661417322834646},{"number":64,"time":185.70937500000707,"value":0.7322834645669292},{"number":64,"time":185.71041666667375,"value":0.7322834645669292},{"number":64,"time":185.71666666667375,"value":0.6535433070866141},{"number":64,"time":185.71770833334043,"value":0.6535433070866141},{"number":64,"time":185.7250000000071,"value":0.6220472440944882},{"number":64,"time":185.72604166667378,"value":0.6220472440944882},{"number":64,"time":185.73333333334045,"value":0.5905511811023622},{"number":64,"time":185.73333333334045,"value":0.5905511811023622},{"number":64,"time":185.75000000000713,"value":0.5590551181102362},{"number":64,"time":185.7510416666738,"value":0.5590551181102362},{"number":64,"time":185.80625000000714,"value":0.5905511811023622},{"number":64,"time":185.80625000000714,"value":0.5905511811023622},{"number":64,"time":185.82083333334046,"value":0.6220472440944882},{"number":64,"time":185.82187500000714,"value":0.6220472440944882},{"number":64,"time":185.8447916666738,"value":0.7322834645669292},{"number":64,"time":185.8458333333405,"value":0.7322834645669292},{"number":64,"time":185.86875000000717,"value":0.8267716535433071},{"number":64,"time":185.86979166667385,"value":0.8267716535433071},{"number":64,"time":185.98541666667384,"value":0.937007874015748},{"number":64,"time":185.98645833334052,"value":0.937007874015748},{"number":64,"time":186.0447916666739,"value":1},{"number":64,"time":186.04583333334057,"value":1},{"number":64,"time":186.13333333334057,"value":0.8661417322834646},{"number":64,"time":186.13437500000725,"value":0.8661417322834646},{"number":64,"time":186.15729166667393,"value":0.7559055118110236},{"number":64,"time":186.1583333333406,"value":0.7559055118110236},{"number":64,"time":186.16562500000728,"value":0.6614173228346457},{"number":64,"time":186.16562500000728,"value":0.6614173228346457},{"number":64,"time":186.1739583333406,"value":0.6299212598425197},{"number":64,"time":186.1750000000073,"value":0.6299212598425197},{"number":64,"time":186.18541666667394,"value":0.5905511811023622},{"number":64,"time":186.18645833334062,"value":0.5905511811023622},{"number":64,"time":186.20520833334064,"value":0.5590551181102362},{"number":64,"time":186.20520833334064,"value":0.5590551181102362},{"number":64,"time":186.24895833334062,"value":0.5905511811023622},{"number":64,"time":186.2500000000073,"value":0.5905511811023622},{"number":64,"time":186.2656250000073,"value":0.6220472440944882},{"number":64,"time":186.26666666667398,"value":0.6220472440944882},{"number":64,"time":186.29270833334064,"value":0.7322834645669292},{"number":64,"time":186.29375000000732,"value":0.7322834645669292},{"number":64,"time":186.37708333334066,"value":0.8267716535433071},{"number":64,"time":186.37812500000734,"value":0.8267716535433071},{"number":64,"time":186.4614583333407,"value":0.937007874015748},{"number":64,"time":186.46250000000737,"value":0.937007874015748},{"number":64,"time":186.50104166667404,"value":1},{"number":64,"time":186.50208333334072,"value":1},{"number":64,"time":186.54895833334072,"value":0.8661417322834646},{"number":64,"time":186.5500000000074,"value":0.8661417322834646},{"number":64,"time":186.57708333334074,"value":0.7559055118110236},{"number":64,"time":186.57708333334074,"value":0.7559055118110236},{"number":64,"time":186.58958333334073,"value":0.6614173228346457},{"number":64,"time":186.5906250000074,"value":0.6614173228346457},{"number":64,"time":186.60104166667406,"value":0.6220472440944882},{"number":64,"time":186.60208333334074,"value":0.6220472440944882},{"number":64,"time":186.62500000000742,"value":0.5905511811023622},{"number":64,"time":186.6260416666741,"value":0.5905511811023622},{"number":64,"time":186.66145833334076,"value":0.6220472440944882},{"number":64,"time":186.66250000000744,"value":0.6220472440944882},{"number":64,"time":186.68125000000742,"value":0.6535433070866141},{"number":64,"time":186.68125000000742,"value":0.6535433070866141},{"number":64,"time":186.70208333334077,"value":0.7559055118110236},{"number":64,"time":186.70312500000745,"value":0.7559055118110236},{"number":64,"time":186.76562500000745,"value":0.8503937007874016},{"number":64,"time":186.76562500000745,"value":0.8503937007874016},{"number":64,"time":187.34791666667414,"value":1},{"number":64,"time":187.34895833334082,"value":1},{"number":64,"time":187.46666666667414,"value":0.8661417322834646},{"number":64,"time":187.46666666667414,"value":0.8661417322834646},{"number":64,"time":187.48437500000747,"value":0.7086614173228346},{"number":64,"time":187.48541666667415,"value":0.7086614173228346},{"number":64,"time":187.49375000000748,"value":0.6299212598425197},{"number":64,"time":187.49479166667416,"value":0.6299212598425197},{"number":64,"time":187.5000000000075,"value":0.5905511811023622},{"number":64,"time":187.50104166667418,"value":0.5905511811023622},{"number":64,"time":187.50833333334086,"value":0.5511811023622047},{"number":64,"time":187.50937500000754,"value":0.5511811023622047},{"number":64,"time":187.5166666666742,"value":0.5039370078740157},{"number":64,"time":187.5166666666742,"value":0.5039370078740157},{"number":64,"time":187.52812500000755,"value":0.4015748031496063},{"number":64,"time":187.52916666667423,"value":0.4015748031496063},{"number":64,"time":187.54479166667423,"value":0.2992125984251969},{"number":64,"time":187.5458333333409,"value":0.2992125984251969},{"number":64,"time":187.60000000000758,"value":0.4015748031496063},{"number":64,"time":187.60104166667426,"value":0.4015748031496063},{"number":64,"time":187.60833333334094,"value":0.47244094488188976},{"number":64,"time":187.60937500000762,"value":0.47244094488188976},{"number":64,"time":187.6156250000076,"value":0.5039370078740157},{"number":64,"time":187.6166666666743,"value":0.5039370078740157},{"number":64,"time":187.62395833334097,"value":0.5354330708661418},{"number":64,"time":187.62500000000765,"value":0.5354330708661418},{"number":64,"time":187.63645833334098,"value":0.5669291338582677},{"number":64,"time":187.63750000000766,"value":0.5669291338582677},{"number":64,"time":187.65312500000766,"value":0.5984251968503937},{"number":64,"time":187.65312500000766,"value":0.5984251968503937},{"number":64,"time":187.66562500000765,"value":0.6299212598425197},{"number":64,"time":187.66562500000765,"value":0.6299212598425197},{"number":64,"time":187.68854166667433,"value":0.7322834645669292},{"number":64,"time":187.689583333341,"value":0.7322834645669292},{"number":64,"time":187.733333333341,"value":0.8267716535433071},{"number":64,"time":187.73437500000767,"value":0.8267716535433071},{"number":64,"time":188.19166666667434,"value":0.937007874015748},{"number":64,"time":188.19270833334102,"value":0.937007874015748},{"number":64,"time":188.252083333341,"value":1},{"number":64,"time":188.252083333341,"value":1},{"number":64,"time":188.34791666667434,"value":0.8661417322834646},{"number":64,"time":188.34895833334102,"value":0.8661417322834646},{"number":64,"time":188.37604166667435,"value":0.7322834645669292},{"number":64,"time":188.37708333334103,"value":0.7322834645669292},{"number":64,"time":188.38854166667437,"value":0.6456692913385826},{"number":64,"time":188.38854166667437,"value":0.6456692913385826},{"number":64,"time":188.4000000000077,"value":0.6141732283464567},{"number":64,"time":188.4010416666744,"value":0.6141732283464567},{"number":64,"time":188.4166666666744,"value":0.5826771653543307},{"number":64,"time":188.4166666666744,"value":0.5826771653543307},{"number":64,"time":188.4562500000077,"value":0.6141732283464567},{"number":64,"time":188.4572916666744,"value":0.6141732283464567},{"number":64,"time":188.4718750000077,"value":0.6456692913385826},{"number":64,"time":188.4729166666744,"value":0.6456692913385826},{"number":64,"time":188.4916666666744,"value":0.7559055118110236},{"number":64,"time":188.49270833334108,"value":0.7559055118110236},{"number":64,"time":188.53645833334107,"value":0.8503937007874016},{"number":64,"time":188.53750000000775,"value":0.8503937007874016},{"number":64,"time":188.7197916666744,"value":1},{"number":64,"time":188.7208333333411,"value":1},{"number":64,"time":188.87500000000773,"value":0.8661417322834646},{"number":64,"time":188.8760416666744,"value":0.8661417322834646},{"number":64,"time":188.90000000000774,"value":0.7322834645669292},{"number":64,"time":188.90000000000774,"value":0.7322834645669292},{"number":64,"time":188.91250000000773,"value":0.6456692913385826},{"number":64,"time":188.9135416666744,"value":0.6456692913385826},{"number":64,"time":188.9197916666744,"value":0.6141732283464567},{"number":64,"time":188.92083333334108,"value":0.6141732283464567},{"number":64,"time":188.93229166667442,"value":0.5826771653543307},{"number":64,"time":188.9333333333411,"value":0.5826771653543307},{"number":64,"time":188.99895833334108,"value":0.6220472440944882},{"number":64,"time":189.00000000000776,"value":0.6220472440944882},{"number":64,"time":189.0270833333411,"value":0.7322834645669292},{"number":64,"time":189.0270833333411,"value":0.7322834645669292},{"number":64,"time":189.07291666667444,"value":0.8267716535433071},{"number":64,"time":189.07395833334112,"value":0.8267716535433071},{"number":64,"time":189.1406250000078,"value":0.937007874015748},{"number":64,"time":189.14166666667447,"value":0.937007874015748},{"number":64,"time":189.20833333334113,"value":1},{"number":64,"time":189.2093750000078,"value":1},{"number":64,"time":189.31250000000782,"value":0.8661417322834646},{"number":64,"time":189.3135416666745,"value":0.8661417322834646},{"number":64,"time":189.33958333334115,"value":0.7559055118110236},{"number":64,"time":189.33958333334115,"value":0.7559055118110236},{"number":64,"time":189.35208333334114,"value":0.6535433070866141},{"number":64,"time":189.35208333334114,"value":0.6535433070866141},{"number":64,"time":189.36458333334113,"value":0.6220472440944882},{"number":64,"time":189.36458333334113,"value":0.6220472440944882},{"number":64,"time":189.3843750000078,"value":0.5905511811023622},{"number":64,"time":189.38541666667447,"value":0.5905511811023622},{"number":64,"time":189.4187500000078,"value":0.6220472440944882},{"number":64,"time":189.41979166667448,"value":0.6220472440944882},{"number":64,"time":189.43541666667448,"value":0.6535433070866141},{"number":64,"time":189.43645833334116,"value":0.6535433070866141},{"number":64,"time":189.45104166667448,"value":0.7559055118110236},{"number":64,"time":189.45208333334116,"value":0.7559055118110236},{"number":64,"time":189.48333333334116,"value":0.8503937007874016},{"number":64,"time":189.48437500000784,"value":0.8503937007874016},{"number":64,"time":189.5885416666745,"value":1},{"number":64,"time":189.5885416666745,"value":1},{"number":64,"time":189.69583333334117,"value":0.8661417322834646},{"number":64,"time":189.69687500000785,"value":0.8661417322834646},{"number":64,"time":189.72083333334118,"value":0.7322834645669292},{"number":64,"time":189.72187500000786,"value":0.7322834645669292},{"number":64,"time":189.7322916666745,"value":0.6377952755905512},{"number":64,"time":189.7322916666745,"value":0.6377952755905512},{"number":64,"time":189.7395833333412,"value":0.6062992125984252},{"number":64,"time":189.74062500000787,"value":0.6062992125984252},{"number":64,"time":189.75312500000786,"value":0.5748031496062992},{"number":64,"time":189.75312500000786,"value":0.5748031496062992},{"number":64,"time":189.76875000000786,"value":0.5354330708661418},{"number":64,"time":189.76875000000786,"value":0.5354330708661418},{"number":64,"time":189.81562500000786,"value":0.5669291338582677},{"number":64,"time":189.81666666667454,"value":0.5669291338582677},{"number":64,"time":189.83229166667454,"value":0.5984251968503937},{"number":64,"time":189.83333333334122,"value":0.5984251968503937},{"number":64,"time":189.84270833334122,"value":0.6377952755905512},{"number":64,"time":189.8437500000079,"value":0.6377952755905512},{"number":64,"time":189.85520833334124,"value":0.7322834645669292},{"number":64,"time":189.85625000000792,"value":0.7322834645669292},{"number":64,"time":189.87395833334125,"value":0.8503937007874016},{"number":64,"time":189.87500000000793,"value":0.8503937007874016},{"number":64,"time":190.06354166667458,"value":1},{"number":64,"time":190.06354166667458,"value":1},{"number":64,"time":190.22604166667458,"value":0.8661417322834646},{"number":64,"time":190.22708333334126,"value":0.8661417322834646},{"number":64,"time":190.24583333334127,"value":0.7559055118110236},{"number":64,"time":190.24687500000795,"value":0.7559055118110236},{"number":64,"time":190.25520833334127,"value":0.6614173228346457},{"number":64,"time":190.25625000000795,"value":0.6614173228346457},{"number":64,"time":190.26250000000795,"value":0.6299212598425197},{"number":64,"time":190.26354166667463,"value":0.6299212598425197},{"number":64,"time":190.26979166667462,"value":0.5984251968503937},{"number":64,"time":190.2708333333413,"value":0.5984251968503937},{"number":64,"time":190.2864583333413,"value":0.5669291338582677},{"number":64,"time":190.28750000000798,"value":0.5669291338582677},{"number":64,"time":190.32604166667463,"value":0.5984251968503937},{"number":64,"time":190.3270833333413,"value":0.5984251968503937},{"number":64,"time":190.34166666667463,"value":0.6299212598425197},{"number":64,"time":190.3427083333413,"value":0.6299212598425197},{"number":64,"time":190.36250000000797,"value":0.7559055118110236},{"number":64,"time":190.36354166667465,"value":0.7559055118110236},{"number":64,"time":190.39375000000797,"value":0.8503937007874016},{"number":64,"time":190.39479166667465,"value":0.8503937007874016},{"number":64,"time":190.5614583333413,"value":0.7322834645669292},{"number":64,"time":190.562500000008,"value":0.7322834645669292},{"number":64,"time":190.57395833334132,"value":0.6456692913385826},{"number":64,"time":190.575000000008,"value":0.6456692913385826},{"number":64,"time":190.58229166667468,"value":0.6141732283464567},{"number":64,"time":190.58333333334136,"value":0.6141732283464567},{"number":64,"time":190.59375000000801,"value":0.5826771653543307},{"number":64,"time":190.5947916666747,"value":0.5826771653543307},{"number":64,"time":190.65416666667468,"value":0.6220472440944882},{"number":64,"time":190.65520833334136,"value":0.6220472440944882},{"number":64,"time":190.67395833334137,"value":0.7559055118110236},{"number":64,"time":190.67395833334137,"value":0.7559055118110236},{"number":64,"time":190.69895833334138,"value":0.8503937007874016},{"number":64,"time":190.69895833334138,"value":0.8503937007874016},{"number":64,"time":191.03020833334136,"value":1},{"number":64,"time":191.03125000000804,"value":1},{"number":64,"time":191.09375000000804,"value":0.8661417322834646},{"number":64,"time":191.09479166667472,"value":0.8661417322834646},{"number":64,"time":191.11041666667472,"value":0.7559055118110236},{"number":64,"time":191.1114583333414,"value":0.7559055118110236},{"number":64,"time":191.11875000000808,"value":0.6377952755905512},{"number":64,"time":191.11979166667476,"value":0.6377952755905512},{"number":64,"time":191.12604166667475,"value":0.5905511811023622},{"number":64,"time":191.12708333334143,"value":0.5905511811023622},{"number":64,"time":191.1343750000081,"value":0.5354330708661418},{"number":64,"time":191.1354166666748,"value":0.5354330708661418},{"number":64,"time":191.13750000000812,"value":0.5039370078740157},{"number":64,"time":191.1385416666748,"value":0.5039370078740157},{"number":64,"time":191.14583333334147,"value":0.3779527559055118},{"number":64,"time":191.14687500000815,"value":0.3779527559055118},{"number":64,"time":191.15416666667483,"value":0.2283464566929134},{"number":64,"time":191.1552083333415,"value":0.2283464566929134},{"number":64,"time":191.16250000000818,"value":0.12598425196850394},{"number":64,"time":191.16250000000818,"value":0.12598425196850394},{"number":64,"time":191.18229166667484,"value":0.031496062992125984},{"number":64,"time":191.18333333334152,"value":0.031496062992125984},{"number":64,"time":191.18645833334153,"value":0},{"number":64,"time":191.1875000000082,"value":0},{"number":64,"time":191.22812500000822,"value":0.10236220472440945},{"number":64,"time":191.2291666666749,"value":0.10236220472440945},{"number":64,"time":191.23437500000824,"value":0.2047244094488189},{"number":64,"time":191.23437500000824,"value":0.2047244094488189},{"number":64,"time":191.24166666667492,"value":0.33070866141732286},{"number":64,"time":191.2427083333416,"value":0.33070866141732286},{"number":64,"time":191.25000000000827,"value":0.47244094488188976},{"number":64,"time":191.25000000000827,"value":0.47244094488188976},{"number":64,"time":191.2583333333416,"value":0.5196850393700787},{"number":64,"time":191.25937500000828,"value":0.5196850393700787},{"number":64,"time":191.26562500000827,"value":0.5590551181102362},{"number":64,"time":191.26666666667495,"value":0.5590551181102362},{"number":64,"time":191.28229166667495,"value":0.5984251968503937},{"number":64,"time":191.28333333334163,"value":0.5984251968503937},{"number":64,"time":191.2937500000083,"value":0.6299212598425197},{"number":64,"time":191.29479166667497,"value":0.6299212598425197},{"number":64,"time":191.3218750000083,"value":0.7322834645669292},{"number":64,"time":191.3218750000083,"value":0.7322834645669292},{"number":64,"time":191.37395833334168,"value":0.8267716535433071},{"number":64,"time":191.37395833334168,"value":0.8267716535433071},{"number":64,"time":191.50625000000832,"value":0.937007874015748},{"number":64,"time":191.507291666675,"value":0.937007874015748},{"number":64,"time":191.57812500000833,"value":0.8267716535433071},{"number":64,"time":191.579166666675,"value":0.8267716535433071},{"number":64,"time":191.59375000000833,"value":0.7322834645669292},{"number":64,"time":191.594791666675,"value":0.7322834645669292},{"number":64,"time":191.60625000000834,"value":0.6535433070866141},{"number":64,"time":191.60729166667502,"value":0.6535433070866141},{"number":64,"time":191.6145833333417,"value":0.6220472440944882},{"number":64,"time":191.61562500000838,"value":0.6220472440944882},{"number":64,"time":191.67812500000838,"value":0.6535433070866141},{"number":64,"time":191.67812500000838,"value":0.6535433070866141},{"number":64,"time":191.69895833334172,"value":0.7559055118110236},{"number":64,"time":191.69895833334172,"value":0.7559055118110236},{"number":64,"time":191.7218750000084,"value":0.8503937007874016},{"number":64,"time":191.7218750000084,"value":0.8503937007874016},{"number":64,"time":191.8781250000084,"value":1},{"number":64,"time":191.87916666667508,"value":1},{"number":64,"time":191.98958333334173,"value":0.8661417322834646},{"number":64,"time":191.9906250000084,"value":0.8661417322834646},{"number":64,"time":192.02604166667507,"value":0.7322834645669292},{"number":64,"time":192.02708333334175,"value":0.7322834645669292},{"number":64,"time":192.04166666667507,"value":0.6535433070866141},{"number":64,"time":192.04270833334175,"value":0.6535433070866141},{"number":64,"time":192.11354166667508,"value":0.7559055118110236},{"number":64,"time":192.11458333334176,"value":0.7559055118110236},{"number":64,"time":192.19375000000844,"value":0.8503937007874016},{"number":64,"time":192.19479166667512,"value":0.8503937007874016},{"number":64,"time":192.29791666667512,"value":1},{"number":64,"time":192.29791666667512,"value":1},{"number":64,"time":192.40208333334178,"value":0.8661417322834646},{"number":64,"time":192.40208333334178,"value":0.8661417322834646},{"number":64,"time":192.43020833334177,"value":0.7559055118110236},{"number":64,"time":192.43020833334177,"value":0.7559055118110236},{"number":64,"time":192.4416666666751,"value":0.6614173228346457},{"number":64,"time":192.44270833334178,"value":0.6614173228346457},{"number":64,"time":192.45416666667512,"value":0.6299212598425197},{"number":64,"time":192.4552083333418,"value":0.6299212598425197},{"number":64,"time":192.52500000000848,"value":0.7322834645669292},{"number":64,"time":192.52604166667516,"value":0.7322834645669292},{"number":64,"time":192.5468750000085,"value":0.8503937007874016},{"number":64,"time":192.5468750000085,"value":0.8503937007874016},{"number":64,"time":192.74479166667516,"value":1},{"number":64,"time":192.74583333334184,"value":1},{"number":64,"time":192.90520833334185,"value":0.8661417322834646},{"number":64,"time":192.90625000000853,"value":0.8661417322834646},{"number":64,"time":192.92500000000854,"value":0.7559055118110236},{"number":64,"time":192.92604166667522,"value":0.7559055118110236},{"number":64,"time":192.9333333333419,"value":0.6614173228346457},{"number":64,"time":192.93437500000857,"value":0.6614173228346457},{"number":64,"time":192.94062500000857,"value":0.6141732283464567},{"number":64,"time":192.94166666667525,"value":0.6141732283464567},{"number":64,"time":192.95312500000858,"value":0.5748031496062992},{"number":64,"time":192.95416666667526,"value":0.5748031496062992},{"number":64,"time":192.96458333334192,"value":0.5354330708661418},{"number":64,"time":192.9656250000086,"value":0.5354330708661418},{"number":64,"time":192.97708333334194,"value":0.5039370078740157},{"number":64,"time":192.97812500000862,"value":0.5039370078740157},{"number":64,"time":193.01354166667528,"value":0.5354330708661418},{"number":64,"time":193.01458333334196,"value":0.5354330708661418},{"number":64,"time":193.02916666667528,"value":0.5669291338582677},{"number":64,"time":193.03020833334196,"value":0.5669291338582677},{"number":64,"time":193.04062500000862,"value":0.5984251968503937},{"number":64,"time":193.0416666666753,"value":0.5984251968503937},{"number":64,"time":193.05312500000863,"value":0.6299212598425197},{"number":64,"time":193.05416666667531,"value":0.6299212598425197},{"number":64,"time":193.06875000000863,"value":0.7322834645669292},{"number":64,"time":193.06979166667531,"value":0.7322834645669292},{"number":64,"time":193.09687500000865,"value":0.8267716535433071},{"number":64,"time":193.09687500000865,"value":0.8267716535433071},{"number":64,"time":193.20208333334196,"value":0.937007874015748},{"number":64,"time":193.20312500000864,"value":0.937007874015748},{"number":64,"time":193.25729166667531,"value":1},{"number":64,"time":193.25729166667531,"value":1},{"number":64,"time":193.336458333342,"value":0.8661417322834646},{"number":64,"time":193.33750000000867,"value":0.8661417322834646},{"number":64,"time":193.36041666667535,"value":0.7559055118110236},{"number":64,"time":193.36145833334203,"value":0.7559055118110236},{"number":64,"time":193.37291666667537,"value":0.6535433070866141},{"number":64,"time":193.37395833334205,"value":0.6535433070866141},{"number":64,"time":193.38125000000872,"value":0.6220472440944882},{"number":64,"time":193.3822916666754,"value":0.6220472440944882},{"number":64,"time":193.39270833334206,"value":0.5905511811023622},{"number":64,"time":193.39375000000874,"value":0.5905511811023622},{"number":64,"time":193.41250000000875,"value":0.5590551181102362},{"number":64,"time":193.41458333334208,"value":0.5590551181102362},{"number":64,"time":193.4489583333421,"value":0.5905511811023622},{"number":64,"time":193.45000000000877,"value":0.5905511811023622},{"number":64,"time":193.46875000000878,"value":0.6220472440944882},{"number":64,"time":193.46979166667546,"value":0.6220472440944882},{"number":64,"time":193.49270833334214,"value":0.7322834645669292},{"number":64,"time":193.49270833334214,"value":0.7322834645669292},{"number":64,"time":193.52916666667545,"value":0.8267716535433071},{"number":64,"time":193.53020833334213,"value":0.8267716535433071},{"number":64,"time":193.58854166667547,"value":0.937007874015748},{"number":64,"time":193.58958333334215,"value":0.937007874015748},{"number":64,"time":193.69270833334215,"value":1},{"number":64,"time":193.69375000000883,"value":1},{"number":64,"time":193.79687500000884,"value":0.8661417322834646},{"number":64,"time":193.79687500000884,"value":0.8661417322834646},{"number":64,"time":193.82083333334216,"value":0.7322834645669292},{"number":64,"time":193.82187500000884,"value":0.7322834645669292},{"number":64,"time":193.82916666667552,"value":0.6535433070866141},{"number":64,"time":193.8302083333422,"value":0.6535433070866141},{"number":64,"time":193.8364583333422,"value":0.6141732283464567},{"number":64,"time":193.83750000000887,"value":0.6141732283464567},{"number":64,"time":193.85312500000887,"value":0.5826771653543307},{"number":64,"time":193.85416666667555,"value":0.5826771653543307},{"number":64,"time":193.91666666667555,"value":0.6141732283464567},{"number":64,"time":193.91770833334223,"value":0.6141732283464567},{"number":64,"time":193.92916666667557,"value":0.6535433070866141},{"number":64,"time":193.93020833334225,"value":0.6535433070866141},{"number":64,"time":193.9406250000089,"value":0.7559055118110236},{"number":64,"time":193.9416666666756,"value":0.7559055118110236},{"number":64,"time":193.96875000000892,"value":0.8503937007874016},{"number":64,"time":193.9697916666756,"value":0.8503937007874016},{"number":64,"time":194.0572916666756,"value":1},{"number":64,"time":194.0583333333423,"value":1},{"number":64,"time":194.16041666667562,"value":0.8661417322834646},{"number":64,"time":194.1614583333423,"value":0.8661417322834646},{"number":64,"time":194.1885416666756,"value":0.7559055118110236},{"number":64,"time":194.18958333334228,"value":0.7559055118110236},{"number":64,"time":194.20104166667562,"value":0.6614173228346457},{"number":64,"time":194.2020833333423,"value":0.6614173228346457},{"number":64,"time":194.21250000000896,"value":0.6220472440944882},{"number":64,"time":194.21354166667564,"value":0.6220472440944882},{"number":64,"time":194.28125000000895,"value":0.6535433070866141},{"number":64,"time":194.28229166667563,"value":0.6535433070866141},{"number":64,"time":194.30104166667564,"value":0.7559055118110236},{"number":64,"time":194.30208333334232,"value":0.7559055118110236},{"number":64,"time":194.368750000009,"value":0.8503937007874016},{"number":64,"time":194.368750000009,"value":0.8503937007874016},{"number":64,"time":194.59687500000902,"value":1},{"number":64,"time":194.5979166666757,"value":1},{"number":64,"time":194.69270833334238,"value":0.8661417322834646},{"number":64,"time":194.69270833334238,"value":0.8661417322834646},{"number":64,"time":194.71250000000904,"value":0.7322834645669292},{"number":64,"time":194.71354166667572,"value":0.7322834645669292},{"number":64,"time":194.7208333333424,"value":0.6535433070866141},{"number":64,"time":194.7208333333424,"value":0.6535433070866141},{"number":64,"time":194.72916666667572,"value":0.6141732283464567},{"number":64,"time":194.7302083333424,"value":0.6141732283464567},{"number":64,"time":194.7364583333424,"value":0.5826771653543307},{"number":64,"time":194.73750000000908,"value":0.5826771653543307},{"number":64,"time":194.74479166667575,"value":0.5511811023622047},{"number":64,"time":194.74479166667575,"value":0.5511811023622047},{"number":64,"time":194.75312500000908,"value":0.5196850393700787},{"number":64,"time":194.75416666667576,"value":0.5196850393700787},{"number":64,"time":194.76458333334242,"value":0.4881889763779528},{"number":64,"time":194.7656250000091,"value":0.4881889763779528},{"number":64,"time":194.80937500000908,"value":0.5196850393700787},{"number":64,"time":194.81041666667576,"value":0.5196850393700787},{"number":64,"time":194.82500000000908,"value":0.5590551181102362},{"number":64,"time":194.82604166667576,"value":0.5590551181102362},{"number":64,"time":194.84062500000908,"value":0.5905511811023622},{"number":64,"time":194.84166666667576,"value":0.5905511811023622},{"number":64,"time":194.8531250000091,"value":0.6220472440944882},{"number":64,"time":194.85416666667578,"value":0.6220472440944882},{"number":64,"time":194.86041666667577,"value":0.6535433070866141},{"number":64,"time":194.86145833334245,"value":0.6535433070866141},{"number":64,"time":194.8729166666758,"value":0.7559055118110236},{"number":64,"time":194.87395833334247,"value":0.7559055118110236},{"number":64,"time":194.89687500000915,"value":0.8503937007874016},{"number":64,"time":194.89791666667583,"value":0.8503937007874016},{"number":64,"time":195.0645833333425,"value":1},{"number":64,"time":195.0656250000092,"value":1},{"number":64,"time":195.17604166667584,"value":0.8661417322834646},{"number":64,"time":195.17708333334252,"value":0.8661417322834646},{"number":64,"time":195.19583333334253,"value":0.7559055118110236},{"number":64,"time":195.19687500000921,"value":0.7559055118110236},{"number":64,"time":195.2041666666759,"value":0.6614173228346457},{"number":64,"time":195.20520833334257,"value":0.6614173228346457},{"number":64,"time":195.21250000000924,"value":0.6299212598425197},{"number":64,"time":195.21354166667592,"value":0.6299212598425197},{"number":64,"time":195.21979166667592,"value":0.5984251968503937},{"number":64,"time":195.21979166667592,"value":0.5984251968503937},{"number":64,"time":195.2322916666759,"value":0.5669291338582677},{"number":64,"time":195.2322916666759,"value":0.5669291338582677},{"number":64,"time":195.24375000000924,"value":0.5354330708661418},{"number":64,"time":195.24479166667592,"value":0.5354330708661418},{"number":64,"time":195.2833333333426,"value":0.5669291338582677},{"number":64,"time":195.28437500000928,"value":0.5669291338582677},{"number":64,"time":195.30000000000928,"value":0.5984251968503937},{"number":64,"time":195.30104166667596,"value":0.5984251968503937},{"number":64,"time":195.3114583333426,"value":0.6299212598425197},{"number":64,"time":195.3125000000093,"value":0.6299212598425197},{"number":64,"time":195.32916666667597,"value":0.7559055118110236},{"number":64,"time":195.33020833334265,"value":0.7559055118110236},{"number":64,"time":195.34479166667597,"value":0.8503937007874016},{"number":64,"time":195.34583333334265,"value":0.8503937007874016},{"number":64,"time":195.47187500000933,"value":1},{"number":64,"time":195.472916666676,"value":1},{"number":64,"time":195.60000000000937,"value":0.8661417322834646},{"number":64,"time":195.60000000000937,"value":0.8661417322834646},{"number":64,"time":195.6239583333427,"value":0.7559055118110236},{"number":64,"time":195.62500000000938,"value":0.7559055118110236},{"number":64,"time":195.63229166667605,"value":0.6614173228346457},{"number":64,"time":195.63333333334273,"value":0.6614173228346457},{"number":64,"time":195.6437500000094,"value":0.6220472440944882},{"number":64,"time":195.64479166667607,"value":0.6220472440944882},{"number":64,"time":195.65729166667606,"value":0.5905511811023622},{"number":64,"time":195.65729166667606,"value":0.5905511811023622},{"number":64,"time":195.73541666667606,"value":0.6220472440944882},{"number":64,"time":195.7375000000094,"value":0.6220472440944882},{"number":64,"time":195.76354166667605,"value":0.7559055118110236},{"number":64,"time":195.76458333334273,"value":0.7559055118110236},{"number":64,"time":195.7937500000094,"value":0.8503937007874016},{"number":64,"time":195.7937500000094,"value":0.8503937007874016},{"number":64,"time":195.89166666667606,"value":1},{"number":64,"time":195.89270833334274,"value":1},{"number":64,"time":196.01979166667607,"value":0.8661417322834646},{"number":64,"time":196.01979166667607,"value":0.8661417322834646},{"number":64,"time":196.04479166667608,"value":0.7322834645669292},{"number":64,"time":196.04583333334276,"value":0.7322834645669292},{"number":64,"time":196.05208333334275,"value":0.6535433070866141},{"number":64,"time":196.05312500000943,"value":0.6535433070866141},{"number":64,"time":196.05937500000942,"value":0.6220472440944882},{"number":64,"time":196.0604166666761,"value":0.6220472440944882},{"number":64,"time":196.06770833334278,"value":0.5905511811023622},{"number":64,"time":196.06770833334278,"value":0.5905511811023622},{"number":64,"time":196.08437500000946,"value":0.5590551181102362},{"number":64,"time":196.08541666667614,"value":0.5590551181102362},{"number":64,"time":196.14062500000946,"value":0.5905511811023622},{"number":64,"time":196.14166666667614,"value":0.5905511811023622},{"number":64,"time":196.1520833333428,"value":0.6220472440944882},{"number":64,"time":196.15312500000948,"value":0.6220472440944882},{"number":64,"time":196.15937500000948,"value":0.6535433070866141},{"number":64,"time":196.16041666667616,"value":0.6535433070866141},{"number":64,"time":196.1718750000095,"value":0.7795275590551181},{"number":64,"time":196.17291666667617,"value":0.7795275590551181},{"number":64,"time":196.20416666667614,"value":0.889763779527559},{"number":64,"time":196.20416666667614,"value":0.889763779527559},{"number":64,"time":196.31979166667617,"value":1},{"number":64,"time":196.32083333334285,"value":1},{"number":64,"time":196.46770833334284,"value":0.8661417322834646},{"number":64,"time":196.46875000000952,"value":0.8661417322834646},{"number":64,"time":196.48750000000953,"value":0.7559055118110236},{"number":64,"time":196.4885416666762,"value":0.7559055118110236},{"number":64,"time":196.4958333333429,"value":0.6614173228346457},{"number":64,"time":196.49687500000957,"value":0.6614173228346457},{"number":64,"time":196.5052083333429,"value":0.6299212598425197},{"number":64,"time":196.5052083333429,"value":0.6299212598425197},{"number":64,"time":196.5114583333429,"value":0.5984251968503937},{"number":64,"time":196.51250000000957,"value":0.5984251968503937},{"number":64,"time":196.5239583333429,"value":0.5669291338582677},{"number":64,"time":196.52500000000958,"value":0.5669291338582677},{"number":64,"time":196.53541666667624,"value":0.5354330708661418},{"number":64,"time":196.53645833334292,"value":0.5354330708661418},{"number":64,"time":196.59166666667625,"value":0.5669291338582677},{"number":64,"time":196.59166666667625,"value":0.5669291338582677},{"number":64,"time":196.60833333334293,"value":0.6062992125984252},{"number":64,"time":196.60833333334293,"value":0.6062992125984252},{"number":64,"time":196.61979166667626,"value":0.6456692913385826},{"number":64,"time":196.61979166667626,"value":0.6456692913385826},{"number":64,"time":196.63229166667625,"value":0.7559055118110236},{"number":64,"time":196.63229166667625,"value":0.7559055118110236},{"number":64,"time":196.65208333334292,"value":0.8503937007874016},{"number":64,"time":196.6531250000096,"value":0.8503937007874016},{"number":64,"time":196.78020833334296,"value":1},{"number":64,"time":196.78125000000963,"value":1},{"number":64,"time":196.92812500000963,"value":0.8661417322834646},{"number":64,"time":196.92812500000963,"value":0.8661417322834646},{"number":64,"time":196.9479166666763,"value":0.7559055118110236},{"number":64,"time":196.94895833334297,"value":0.7559055118110236},{"number":64,"time":196.95520833334297,"value":0.6614173228346457},{"number":64,"time":196.95625000000965,"value":0.6614173228346457},{"number":64,"time":196.96562500000965,"value":0.6299212598425197},{"number":64,"time":196.96562500000965,"value":0.6299212598425197},{"number":64,"time":196.9760416666763,"value":0.5905511811023622},{"number":64,"time":196.977083333343,"value":0.5905511811023622},{"number":64,"time":196.9916666666763,"value":0.5590551181102362},{"number":64,"time":196.9916666666763,"value":0.5590551181102362},{"number":64,"time":197.0447916666763,"value":0.5984251968503937},{"number":64,"time":197.04583333334298,"value":0.5984251968503937},{"number":64,"time":197.05625000000964,"value":0.6299212598425197},{"number":64,"time":197.05625000000964,"value":0.6299212598425197},{"number":64,"time":197.06770833334298,"value":0.7322834645669292},{"number":64,"time":197.06875000000966,"value":0.7322834645669292},{"number":64,"time":197.08333333334298,"value":0.8503937007874016},{"number":64,"time":197.08437500000966,"value":0.8503937007874016},{"number":64,"time":197.17187500000966,"value":1},{"number":64,"time":197.17291666667634,"value":1},{"number":64,"time":197.33229166667633,"value":0.8661417322834646},{"number":64,"time":197.33229166667633,"value":0.8661417322834646},{"number":64,"time":197.352083333343,"value":0.7322834645669292},{"number":64,"time":197.35312500000967,"value":0.7322834645669292},{"number":64,"time":197.35937500000966,"value":0.6535433070866141},{"number":64,"time":197.36041666667634,"value":0.6535433070866141},{"number":64,"time":197.36770833334302,"value":0.6141732283464567},{"number":64,"time":197.36770833334302,"value":0.6141732283464567},{"number":64,"time":197.380208333343,"value":0.5748031496062992},{"number":64,"time":197.3812500000097,"value":0.5748031496062992},{"number":64,"time":197.395833333343,"value":0.5354330708661418},{"number":64,"time":197.3968750000097,"value":0.5354330708661418},{"number":64,"time":197.43958333334302,"value":0.5669291338582677},{"number":64,"time":197.4406250000097,"value":0.5669291338582677},{"number":64,"time":197.45208333334304,"value":0.5984251968503937},{"number":64,"time":197.45312500000972,"value":0.5984251968503937},{"number":64,"time":197.46354166667638,"value":0.6377952755905512},{"number":64,"time":197.46458333334306,"value":0.6377952755905512},{"number":64,"time":197.4760416666764,"value":0.7322834645669292},{"number":64,"time":197.47708333334307,"value":0.7322834645669292},{"number":64,"time":197.48750000000973,"value":0.8267716535433071},{"number":64,"time":197.4885416666764,"value":0.8267716535433071},{"number":64,"time":197.78333333334308,"value":0.937007874015748},{"number":64,"time":197.78437500000976,"value":0.937007874015748},{"number":64,"time":198.2552083333431,"value":1},{"number":64,"time":198.25625000000977,"value":1},{"number":64,"time":198.34375000000975,"value":0.8661417322834646},{"number":64,"time":198.34375000000975,"value":0.8661417322834646},{"number":64,"time":198.36041666667643,"value":0.7559055118110236},{"number":64,"time":198.3614583333431,"value":0.7559055118110236},{"number":64,"time":198.36666666667645,"value":0.6456692913385826},{"number":64,"time":198.36770833334313,"value":0.6456692913385826},{"number":64,"time":198.3750000000098,"value":0.6062992125984252},{"number":64,"time":198.37604166667649,"value":0.6062992125984252},{"number":64,"time":198.38333333334316,"value":0.5669291338582677},{"number":64,"time":198.38437500000984,"value":0.5669291338582677},{"number":64,"time":198.39062500000983,"value":0.5118110236220472},{"number":64,"time":198.3916666666765,"value":0.5118110236220472},{"number":64,"time":198.40312500000985,"value":0.4015748031496063},{"number":64,"time":198.40416666667653,"value":0.4015748031496063},{"number":64,"time":198.4145833333432,"value":0.2992125984251969},{"number":64,"time":198.41562500000987,"value":0.2992125984251969},{"number":64,"time":198.47916666667655,"value":0.4015748031496063},{"number":64,"time":198.48020833334323,"value":0.4015748031496063},{"number":64,"time":198.4875000000099,"value":0.48031496062992124},{"number":64,"time":198.48854166667658,"value":0.48031496062992124},{"number":64,"time":198.49479166667658,"value":0.5196850393700787},{"number":64,"time":198.49583333334326,"value":0.5196850393700787},{"number":64,"time":198.50312500000993,"value":0.5511811023622047},{"number":64,"time":198.5041666666766,"value":0.5511811023622047},{"number":64,"time":198.51562500000995,"value":0.5826771653543307},{"number":64,"time":198.51562500000995,"value":0.5826771653543307},{"number":64,"time":198.52708333334328,"value":0.6299212598425197},{"number":64,"time":198.52812500000996,"value":0.6299212598425197},{"number":64,"time":198.54375000000996,"value":0.7559055118110236},{"number":64,"time":198.54375000000996,"value":0.7559055118110236},{"number":64,"time":198.5677083333433,"value":0.8503937007874016},{"number":64,"time":198.56875000000997,"value":0.8503937007874016},{"number":64,"time":198.85833333334332,"value":0.7322834645669292},{"number":64,"time":198.85937500001,"value":0.7322834645669292},{"number":64,"time":198.87083333334334,"value":0.6456692913385826},{"number":64,"time":198.87187500001002,"value":0.6456692913385826},{"number":64,"time":198.8791666666767,"value":0.6141732283464567},{"number":64,"time":198.8791666666767,"value":0.6141732283464567},{"number":64,"time":198.8947916666767,"value":0.5826771653543307},{"number":64,"time":198.89583333334338,"value":0.5826771653543307},{"number":64,"time":198.94687500001004,"value":0.6220472440944882},{"number":64,"time":198.94791666667672,"value":0.6220472440944882},{"number":64,"time":198.95833333334338,"value":0.6535433070866141},{"number":64,"time":198.95937500001006,"value":0.6535433070866141},{"number":64,"time":198.9708333333434,"value":0.7559055118110236},{"number":64,"time":198.97187500001007,"value":0.7559055118110236},{"number":64,"time":198.9864583333434,"value":0.8503937007874016},{"number":64,"time":198.98750000001007,"value":0.8503937007874016},{"number":64,"time":199.15104166667675,"value":1},{"number":64,"time":199.15208333334343,"value":1},{"number":64,"time":199.2468750000101,"value":0.8661417322834646},{"number":64,"time":199.2479166666768,"value":0.8661417322834646},{"number":64,"time":199.27500000001012,"value":0.7559055118110236},{"number":64,"time":199.2760416666768,"value":0.7559055118110236},{"number":64,"time":199.29062500001012,"value":0.6535433070866141},{"number":64,"time":199.29062500001012,"value":0.6535433070866141},{"number":64,"time":199.3104166666768,"value":0.6220472440944882},{"number":64,"time":199.31145833334347,"value":0.6220472440944882},{"number":64,"time":199.34687500001013,"value":0.6535433070866141},{"number":64,"time":199.3479166666768,"value":0.6535433070866141},{"number":64,"time":199.37083333334348,"value":0.7559055118110236},{"number":64,"time":199.37187500001016,"value":0.7559055118110236},{"number":64,"time":199.40625000001017,"value":0.8503937007874016},{"number":64,"time":199.40729166667685,"value":0.8503937007874016},{"number":64,"time":199.5468750000102,"value":1},{"number":64,"time":199.54791666667688,"value":1},{"number":64,"time":199.69479166667688,"value":0.8661417322834646},{"number":64,"time":199.69583333334356,"value":0.8661417322834646},{"number":64,"time":199.71770833334355,"value":0.7322834645669292},{"number":64,"time":199.71875000001023,"value":0.7322834645669292},{"number":64,"time":199.72708333334356,"value":0.6456692913385826},{"number":64,"time":199.72812500001024,"value":0.6456692913385826},{"number":64,"time":199.73333333334358,"value":0.6062992125984252},{"number":64,"time":199.73437500001026,"value":0.6062992125984252},{"number":64,"time":199.7458333333436,"value":0.5669291338582677},{"number":64,"time":199.74687500001028,"value":0.5669291338582677},{"number":64,"time":199.75729166667693,"value":0.5354330708661418},{"number":64,"time":199.75833333334361,"value":0.5354330708661418},{"number":64,"time":199.76979166667695,"value":0.5039370078740157},{"number":64,"time":199.77083333334363,"value":0.5039370078740157},{"number":64,"time":199.79791666667697,"value":0.5354330708661418},{"number":64,"time":199.79895833334365,"value":0.5354330708661418},{"number":64,"time":199.81354166667697,"value":0.5669291338582677},{"number":64,"time":199.81354166667697,"value":0.5669291338582677},{"number":64,"time":199.82708333334364,"value":0.5984251968503937},{"number":64,"time":199.82812500001032,"value":0.5984251968503937},{"number":64,"time":199.8343750000103,"value":0.6299212598425197},{"number":64,"time":199.835416666677,"value":0.6299212598425197},{"number":64,"time":199.851041666677,"value":0.7559055118110236},{"number":64,"time":199.85208333334367,"value":0.7559055118110236},{"number":64,"time":199.86145833334368,"value":0.8503937007874016},{"number":64,"time":199.86250000001036,"value":0.8503937007874016},{"number":64,"time":200.094791666677,"value":1},{"number":64,"time":200.09583333334368,"value":1},{"number":64,"time":200.21354166667703,"value":0.8661417322834646},{"number":64,"time":200.2145833333437,"value":0.8661417322834646},{"number":64,"time":200.23437500001037,"value":0.7559055118110236},{"number":64,"time":200.23541666667705,"value":0.7559055118110236},{"number":64,"time":200.24270833334373,"value":0.6614173228346457},{"number":64,"time":200.2437500000104,"value":0.6614173228346457},{"number":64,"time":200.25104166667708,"value":0.6299212598425197},{"number":64,"time":200.25104166667708,"value":0.6299212598425197},{"number":64,"time":200.25729166667708,"value":0.5984251968503937},{"number":64,"time":200.25833333334376,"value":0.5984251968503937},{"number":64,"time":200.27291666667708,"value":0.5669291338582677},{"number":64,"time":200.27291666667708,"value":0.5669291338582677},{"number":64,"time":200.33020833334376,"value":0.5984251968503937},{"number":64,"time":200.33125000001044,"value":0.5984251968503937},{"number":64,"time":200.3416666666771,"value":0.6299212598425197},{"number":64,"time":200.34270833334378,"value":0.6299212598425197},{"number":64,"time":200.3572916666771,"value":0.7322834645669292},{"number":64,"time":200.35833333334378,"value":0.7322834645669292},{"number":64,"time":200.3729166666771,"value":0.8267716535433071},{"number":64,"time":200.37395833334378,"value":0.8267716535433071},{"number":64,"time":200.5166666666771,"value":0.937007874015748},{"number":64,"time":200.5177083333438,"value":0.937007874015748},{"number":64,"time":200.55312500001045,"value":1},{"number":64,"time":200.55312500001045,"value":1},{"number":64,"time":200.64062500001046,"value":0.8661417322834646},{"number":64,"time":200.64166666667714,"value":0.8661417322834646},{"number":64,"time":200.6614583333438,"value":0.7559055118110236},{"number":64,"time":200.6614583333438,"value":0.7559055118110236},{"number":64,"time":200.66875000001048,"value":0.6614173228346457},{"number":64,"time":200.66979166667716,"value":0.6614173228346457},{"number":64,"time":200.67708333334383,"value":0.6299212598425197},{"number":64,"time":200.6781250000105,"value":0.6299212598425197},{"number":64,"time":200.6843750000105,"value":0.5984251968503937},{"number":64,"time":200.68541666667718,"value":0.5984251968503937},{"number":64,"time":200.7041666666772,"value":0.5669291338582677},{"number":64,"time":200.70520833334388,"value":0.5669291338582677},{"number":64,"time":200.74583333334388,"value":0.5984251968503937},{"number":64,"time":200.74687500001056,"value":0.5984251968503937},{"number":64,"time":200.75625000001057,"value":0.6299212598425197},{"number":64,"time":200.75729166667725,"value":0.6299212598425197},{"number":64,"time":200.77291666667725,"value":0.7559055118110236},{"number":64,"time":200.77395833334393,"value":0.7559055118110236},{"number":64,"time":200.78645833334392,"value":0.8503937007874016},{"number":64,"time":200.78645833334392,"value":0.8503937007874016},{"number":64,"time":201.2166666666772,"value":1},{"number":64,"time":201.2177083333439,"value":1},{"number":64,"time":201.3322916666772,"value":0.8661417322834646},{"number":64,"time":201.3333333333439,"value":0.8661417322834646},{"number":64,"time":201.3520833333439,"value":0.7086614173228346},{"number":64,"time":201.35416666667723,"value":0.7086614173228346},{"number":64,"time":201.3614583333439,"value":0.6377952755905512},{"number":64,"time":201.3614583333439,"value":0.6377952755905512},{"number":64,"time":201.36875000001058,"value":0.5984251968503937},{"number":64,"time":201.36979166667726,"value":0.5984251968503937},{"number":64,"time":201.37708333334393,"value":0.5669291338582677},{"number":64,"time":201.37708333334393,"value":0.5669291338582677},{"number":64,"time":201.3843750000106,"value":0.5275590551181102},{"number":64,"time":201.3854166666773,"value":0.5275590551181102},{"number":64,"time":201.39270833334396,"value":0.4881889763779528},{"number":64,"time":201.39375000001064,"value":0.4881889763779528},{"number":64,"time":201.4447916666773,"value":0.5196850393700787},{"number":64,"time":201.44583333334398,"value":0.5196850393700787},{"number":64,"time":201.45625000001064,"value":0.5590551181102362},{"number":64,"time":201.45729166667732,"value":0.5590551181102362},{"number":64,"time":201.47291666667732,"value":0.5984251968503937},{"number":64,"time":201.473958333344,"value":0.5984251968503937},{"number":64,"time":201.48541666667734,"value":0.6299212598425197},{"number":64,"time":201.48645833334402,"value":0.6299212598425197},{"number":64,"time":201.50104166667734,"value":0.7559055118110236},{"number":64,"time":201.50104166667734,"value":0.7559055118110236},{"number":64,"time":201.56041666667736,"value":0.8503937007874016},{"number":64,"time":201.56145833334404,"value":0.8503937007874016},{"number":64,"time":201.90520833334404,"value":1},{"number":64,"time":201.90520833334404,"value":1},{"number":64,"time":201.99687500001068,"value":0.8661417322834646},{"number":64,"time":201.99791666667736,"value":0.8661417322834646},{"number":64,"time":202.01250000001068,"value":0.7322834645669292},{"number":64,"time":202.01354166667736,"value":0.7322834645669292},{"number":64,"time":202.02083333334403,"value":0.6456692913385826},{"number":64,"time":202.0218750000107,"value":0.6456692913385826},{"number":64,"time":202.0281250000107,"value":0.6062992125984252},{"number":64,"time":202.02916666667738,"value":0.6062992125984252},{"number":64,"time":202.03645833334406,"value":0.5669291338582677},{"number":64,"time":202.03645833334406,"value":0.5669291338582677},{"number":64,"time":202.04479166667738,"value":0.5354330708661418},{"number":64,"time":202.04583333334406,"value":0.5354330708661418},{"number":64,"time":202.05208333334406,"value":0.4881889763779528},{"number":64,"time":202.05312500001074,"value":0.4881889763779528},{"number":64,"time":202.10833333334406,"value":0.5275590551181102},{"number":64,"time":202.10937500001074,"value":0.5275590551181102},{"number":64,"time":202.12083333334408,"value":0.5590551181102362},{"number":64,"time":202.12187500001076,"value":0.5590551181102362},{"number":64,"time":202.13645833334408,"value":0.5984251968503937},{"number":64,"time":202.13750000001076,"value":0.5984251968503937},{"number":64,"time":202.1489583333441,"value":0.6377952755905512},{"number":64,"time":202.1489583333441,"value":0.6377952755905512},{"number":64,"time":202.16041666667743,"value":0.7322834645669292},{"number":64,"time":202.16041666667743,"value":0.7322834645669292},{"number":64,"time":202.17708333334411,"value":0.8267716535433071},{"number":64,"time":202.17708333334411,"value":0.8267716535433071},{"number":64,"time":202.3250000000108,"value":0.937007874015748},{"number":64,"time":202.3250000000108,"value":0.937007874015748},{"number":64,"time":202.36875000001078,"value":1},{"number":64,"time":202.36979166667746,"value":1},{"number":64,"time":202.4843750000108,"value":0.8661417322834646},{"number":64,"time":202.48541666667748,"value":0.8661417322834646},{"number":64,"time":202.50833333334415,"value":0.7559055118110236},{"number":64,"time":202.50937500001083,"value":0.7559055118110236},{"number":64,"time":202.5166666666775,"value":0.6614173228346457},{"number":64,"time":202.5177083333442,"value":0.6614173228346457},{"number":64,"time":202.52500000001086,"value":0.6220472440944882},{"number":64,"time":202.52604166667754,"value":0.6220472440944882},{"number":64,"time":202.5364583333442,"value":0.5826771653543307},{"number":64,"time":202.53750000001088,"value":0.5826771653543307},{"number":64,"time":202.54895833334422,"value":0.5511811023622047},{"number":64,"time":202.54895833334422,"value":0.5511811023622047},{"number":64,"time":202.6083333333442,"value":0.5826771653543307},{"number":64,"time":202.60937500001089,"value":0.5826771653543307},{"number":64,"time":202.62083333334422,"value":0.6141732283464567},{"number":64,"time":202.6218750000109,"value":0.6141732283464567},{"number":64,"time":202.62916666667758,"value":0.6456692913385826},{"number":64,"time":202.62916666667758,"value":0.6456692913385826},{"number":64,"time":202.64479166667758,"value":0.7559055118110236},{"number":64,"time":202.64583333334426,"value":0.7559055118110236},{"number":64,"time":202.66458333334427,"value":0.8503937007874016},{"number":64,"time":202.66562500001095,"value":0.8503937007874016},{"number":64,"time":202.79687500001094,"value":1},{"number":64,"time":202.79687500001094,"value":1},{"number":64,"time":202.88437500001095,"value":0.8661417322834646},{"number":64,"time":202.88437500001095,"value":0.8661417322834646},{"number":64,"time":203.12812500001095,"value":1},{"number":64,"time":203.12916666667763,"value":1},{"number":64,"time":203.2395833333443,"value":0.8661417322834646},{"number":64,"time":203.240625000011,"value":0.8661417322834646},{"number":64,"time":203.26354166667767,"value":0.7559055118110236},{"number":64,"time":203.26458333334435,"value":0.7559055118110236},{"number":64,"time":203.27187500001102,"value":0.6614173228346457},{"number":64,"time":203.2729166666777,"value":0.6614173228346457},{"number":64,"time":203.28125000001103,"value":0.6299212598425197},{"number":64,"time":203.2822916666777,"value":0.6299212598425197},{"number":64,"time":203.29270833334436,"value":0.5905511811023622},{"number":64,"time":203.29375000001104,"value":0.5905511811023622},{"number":64,"time":203.35937500001106,"value":0.6220472440944882},{"number":64,"time":203.36041666667774,"value":0.6220472440944882},{"number":64,"time":203.3802083333444,"value":0.7559055118110236},{"number":64,"time":203.38125000001108,"value":0.7559055118110236},{"number":64,"time":203.39895833334444,"value":0.8503937007874016},{"number":64,"time":203.40000000001112,"value":0.8503937007874016},{"number":64,"time":203.5072916666778,"value":1},{"number":64,"time":203.50833333334447,"value":1},{"number":64,"time":203.6885416666778,"value":0.8661417322834646},{"number":64,"time":203.68958333334447,"value":0.8661417322834646},{"number":64,"time":203.71562500001113,"value":0.7322834645669292},{"number":64,"time":203.7166666666778,"value":0.7322834645669292},{"number":64,"time":203.72708333334447,"value":0.6456692913385826},{"number":64,"time":203.72812500001115,"value":0.6456692913385826},{"number":64,"time":203.73541666667782,"value":0.6141732283464567},{"number":64,"time":203.73541666667782,"value":0.6141732283464567},{"number":64,"time":203.7520833333445,"value":0.5826771653543307},{"number":64,"time":203.75312500001118,"value":0.5826771653543307},{"number":64,"time":203.8000000000112,"value":0.6141732283464567},{"number":64,"time":203.8010416666779,"value":0.6141732283464567},{"number":64,"time":203.81250000001123,"value":0.6456692913385826},{"number":64,"time":203.8135416666779,"value":0.6456692913385826},{"number":64,"time":203.8229166666779,"value":0.7559055118110236},{"number":64,"time":203.8239583333446,"value":0.7559055118110236},{"number":64,"time":203.8395833333446,"value":0.8503937007874016},{"number":64,"time":203.84062500001127,"value":0.8503937007874016},{"number":64,"time":203.9270833333446,"value":1},{"number":64,"time":203.92812500001128,"value":1},{"number":64,"time":204.179166666678,"value":0.8661417322834646},{"number":64,"time":204.18020833334467,"value":0.8661417322834646},{"number":64,"time":204.20312500001134,"value":0.7322834645669292},{"number":64,"time":204.20416666667802,"value":0.7322834645669292},{"number":64,"time":204.2114583333447,"value":0.6535433070866141},{"number":64,"time":204.21250000001137,"value":0.6535433070866141},{"number":64,"time":204.22291666667803,"value":0.6220472440944882},{"number":64,"time":204.2239583333447,"value":0.6220472440944882},{"number":64,"time":204.2395833333447,"value":0.5905511811023622},{"number":64,"time":204.2406250000114,"value":0.5905511811023622},{"number":64,"time":204.28333333334473,"value":0.6220472440944882},{"number":64,"time":204.28333333334473,"value":0.6220472440944882},{"number":64,"time":204.30833333334473,"value":0.7322834645669292},{"number":64,"time":204.3093750000114,"value":0.7322834645669292},{"number":64,"time":204.32812500001143,"value":0.8503937007874016},{"number":64,"time":204.3291666666781,"value":0.8503937007874016},{"number":64,"time":204.40833333334479,"value":1},{"number":64,"time":204.40833333334479,"value":1},{"number":64,"time":204.69583333334475,"value":0.8661417322834646},{"number":64,"time":204.69687500001143,"value":0.8661417322834646},{"number":64,"time":204.71145833334475,"value":0.7559055118110236},{"number":64,"time":204.71250000001143,"value":0.7559055118110236},{"number":64,"time":204.7197916666781,"value":0.6535433070866141},{"number":64,"time":204.72083333334479,"value":0.6535433070866141},{"number":64,"time":204.72708333334478,"value":0.6062992125984252},{"number":64,"time":204.72812500001146,"value":0.6062992125984252},{"number":64,"time":204.73541666667813,"value":0.5748031496062992},{"number":64,"time":204.7364583333448,"value":0.5748031496062992},{"number":64,"time":204.74687500001147,"value":0.5275590551181102},{"number":64,"time":204.74791666667815,"value":0.5275590551181102},{"number":64,"time":204.7989583333448,"value":0.5590551181102362},{"number":64,"time":204.8000000000115,"value":0.5590551181102362},{"number":64,"time":204.8156250000115,"value":0.5984251968503937},{"number":64,"time":204.81666666667817,"value":0.5984251968503937},{"number":64,"time":204.82395833334485,"value":0.6299212598425197},{"number":64,"time":204.82395833334485,"value":0.6299212598425197},{"number":64,"time":204.83541666667819,"value":0.7322834645669292},{"number":64,"time":204.83645833334486,"value":0.7322834645669292},{"number":64,"time":204.84687500001152,"value":0.8267716535433071},{"number":64,"time":204.8479166666782,"value":0.8267716535433071},{"number":64,"time":204.92708333334488,"value":0.937007874015748},{"number":64,"time":204.92812500001156,"value":0.937007874015748},{"number":64,"time":204.98750000001155,"value":1},{"number":64,"time":204.98854166667823,"value":1},{"number":64,"time":205.1833333333449,"value":0.8661417322834646},{"number":64,"time":205.1833333333449,"value":0.8661417322834646},{"number":64,"time":205.21562500001158,"value":0.7322834645669292},{"number":64,"time":205.21666666667826,"value":0.7322834645669292},{"number":64,"time":205.23541666667828,"value":0.6535433070866141},{"number":64,"time":205.23541666667828,"value":0.6535433070866141},{"number":64,"time":205.2750000000116,"value":0.7559055118110236},{"number":64,"time":205.27604166667828,"value":0.7559055118110236},{"number":64,"time":205.29583333334494,"value":0.8503937007874016},{"number":64,"time":205.29583333334494,"value":0.8503937007874016},{"number":64,"time":205.53541666667826,"value":1},{"number":64,"time":205.53645833334494,"value":1},{"number":64,"time":205.91041666667826,"value":0.8661417322834646},{"number":64,"time":205.91041666667826,"value":0.8661417322834646},{"number":64,"time":205.9281250000116,"value":0.7322834645669292},{"number":64,"time":205.92916666667827,"value":0.7322834645669292},{"number":64,"time":205.93541666667826,"value":0.6299212598425197},{"number":64,"time":205.93645833334494,"value":0.6299212598425197},{"number":64,"time":205.94375000001162,"value":0.5826771653543307},{"number":64,"time":205.9447916666783,"value":0.5826771653543307},{"number":64,"time":205.95000000001164,"value":0.5275590551181102},{"number":64,"time":205.95104166667832,"value":0.5275590551181102},{"number":64,"time":205.95416666667833,"value":0.49606299212598426},{"number":64,"time":205.955208333345,"value":0.49606299212598426},{"number":64,"time":205.96354166667834,"value":0.3779527559055118},{"number":64,"time":205.96458333334502,"value":0.3779527559055118},{"number":64,"time":205.970833333345,"value":0.2755905511811024},{"number":64,"time":205.970833333345,"value":0.2755905511811024},{"number":64,"time":206.0500000000117,"value":0.4015748031496063},{"number":64,"time":206.05104166667837,"value":0.4015748031496063},{"number":64,"time":206.0593750000117,"value":0.4881889763779528},{"number":64,"time":206.06041666667838,"value":0.4881889763779528},{"number":64,"time":206.0687500000117,"value":0.5275590551181102},{"number":64,"time":206.0687500000117,"value":0.5275590551181102},{"number":64,"time":206.07500000001173,"value":0.5590551181102362},{"number":64,"time":206.0760416666784,"value":0.5590551181102362},{"number":64,"time":206.08645833334506,"value":0.5905511811023622},{"number":64,"time":206.08750000001174,"value":0.5905511811023622},{"number":64,"time":206.09895833334508,"value":0.6220472440944882},{"number":64,"time":206.10000000001176,"value":0.6220472440944882},{"number":64,"time":206.10625000001176,"value":0.6535433070866141},{"number":64,"time":206.10729166667844,"value":0.6535433070866141},{"number":64,"time":206.12291666667844,"value":0.7559055118110236},{"number":64,"time":206.12395833334512,"value":0.7559055118110236},{"number":64,"time":206.19479166667844,"value":0.8503937007874016},{"number":64,"time":206.19479166667844,"value":0.8503937007874016},{"number":64,"time":206.50208333334513,"value":1},{"number":64,"time":206.5031250000118,"value":1},{"number":64,"time":206.61458333334514,"value":0.8661417322834646},{"number":64,"time":206.61562500001182,"value":0.8661417322834646},{"number":64,"time":206.6385416666785,"value":0.7322834645669292},{"number":64,"time":206.63958333334517,"value":0.7322834645669292},{"number":64,"time":206.64583333334517,"value":0.6535433070866141},{"number":64,"time":206.6479166666785,"value":0.6535433070866141},{"number":64,"time":206.6541666666785,"value":0.6220472440944882},{"number":64,"time":206.65520833334517,"value":0.6220472440944882},{"number":64,"time":206.66979166667852,"value":0.5905511811023622},{"number":64,"time":206.66979166667852,"value":0.5905511811023622},{"number":64,"time":206.72604166667853,"value":0.6220472440944882},{"number":64,"time":206.7270833333452,"value":0.6220472440944882},{"number":64,"time":206.74687500001187,"value":0.7559055118110236},{"number":64,"time":206.74687500001187,"value":0.7559055118110236},{"number":64,"time":206.76250000001187,"value":0.8503937007874016},{"number":64,"time":206.76354166667855,"value":0.8503937007874016},{"number":64,"time":206.97812500001186,"value":1},{"number":64,"time":206.97916666667854,"value":1},{"number":64,"time":207.1145833333452,"value":0.8661417322834646},{"number":64,"time":207.11562500001187,"value":0.8661417322834646},{"number":64,"time":207.13854166667855,"value":0.7559055118110236},{"number":64,"time":207.13958333334523,"value":0.7559055118110236},{"number":64,"time":207.1500000000119,"value":0.6535433070866141},{"number":64,"time":207.15104166667857,"value":0.6535433070866141},{"number":64,"time":207.1625000000119,"value":0.6220472440944882},{"number":64,"time":207.16354166667858,"value":0.6220472440944882},{"number":64,"time":207.2385416666786,"value":0.7322834645669292},{"number":64,"time":207.23958333334528,"value":0.7322834645669292},{"number":64,"time":207.2541666666786,"value":0.8267716535433071},{"number":64,"time":207.25520833334528,"value":0.8267716535433071},{"number":64,"time":207.3666666666786,"value":0.937007874015748},{"number":64,"time":207.3677083333453,"value":0.937007874015748},{"number":64,"time":207.49062500001196,"value":1},{"number":64,"time":207.49166666667864,"value":1},{"number":64,"time":207.60625000001198,"value":0.8661417322834646},{"number":64,"time":207.60625000001198,"value":0.8661417322834646},{"number":64,"time":207.631250000012,"value":0.7322834645669292},{"number":64,"time":207.631250000012,"value":0.7322834645669292},{"number":64,"time":207.63854166667866,"value":0.6456692913385826},{"number":64,"time":207.63958333334534,"value":0.6456692913385826},{"number":64,"time":207.64687500001202,"value":0.6141732283464567},{"number":64,"time":207.64687500001202,"value":0.6141732283464567},{"number":64,"time":207.65833333334535,"value":0.5748031496062992},{"number":64,"time":207.65937500001203,"value":0.5748031496062992},{"number":64,"time":207.67812500001205,"value":0.5433070866141733},{"number":64,"time":207.67916666667873,"value":0.5433070866141733},{"number":64,"time":207.7145833333454,"value":0.5748031496062992},{"number":64,"time":207.71562500001207,"value":0.5748031496062992},{"number":64,"time":207.7302083333454,"value":0.6062992125984252},{"number":64,"time":207.7302083333454,"value":0.6062992125984252},{"number":64,"time":207.7385416666787,"value":0.6456692913385826},{"number":64,"time":207.7395833333454,"value":0.6456692913385826},{"number":64,"time":207.75000000001205,"value":0.7559055118110236},{"number":64,"time":207.75104166667873,"value":0.7559055118110236},{"number":64,"time":207.76666666667873,"value":0.8661417322834646},{"number":64,"time":207.76666666667873,"value":0.8661417322834646},{"number":64,"time":207.91041666667874,"value":1},{"number":64,"time":207.91145833334542,"value":1},{"number":64,"time":208.10625000001207,"value":0.8661417322834646},{"number":64,"time":208.10625000001207,"value":0.8661417322834646},{"number":64,"time":208.13125000001207,"value":0.7322834645669292},{"number":64,"time":208.13125000001207,"value":0.7322834645669292},{"number":64,"time":208.1395833333454,"value":0.6535433070866141},{"number":64,"time":208.14062500001208,"value":0.6535433070866141},{"number":64,"time":208.15000000001208,"value":0.6141732283464567},{"number":64,"time":208.15104166667876,"value":0.6141732283464567},{"number":64,"time":208.16666666667876,"value":0.5826771653543307},{"number":64,"time":208.16666666667876,"value":0.5826771653543307},{"number":64,"time":208.2093750000121,"value":0.6141732283464567},{"number":64,"time":208.21041666667878,"value":0.6141732283464567},{"number":64,"time":208.22187500001212,"value":0.6535433070866141},{"number":64,"time":208.22187500001212,"value":0.6535433070866141},{"number":64,"time":208.2343750000121,"value":0.7559055118110236},{"number":64,"time":208.2354166666788,"value":0.7559055118110236},{"number":64,"time":208.24583333334544,"value":0.8503937007874016},{"number":64,"time":208.24687500001212,"value":0.8503937007874016},{"number":64,"time":208.34687500001212,"value":1},{"number":64,"time":208.3479166666788,"value":1},{"number":64,"time":208.55312500001213,"value":0.8661417322834646},{"number":64,"time":208.5541666666788,"value":0.8661417322834646},{"number":64,"time":208.5729166666788,"value":0.7322834645669292},{"number":64,"time":208.57395833334547,"value":0.7322834645669292},{"number":64,"time":208.58125000001215,"value":0.6456692913385826},{"number":64,"time":208.58229166667883,"value":0.6456692913385826},{"number":64,"time":208.5895833333455,"value":0.6141732283464567},{"number":64,"time":208.59062500001218,"value":0.6141732283464567},{"number":64,"time":208.60104166667884,"value":0.5748031496062992},{"number":64,"time":208.60208333334552,"value":0.5748031496062992},{"number":64,"time":208.62916666667886,"value":0.5433070866141733},{"number":64,"time":208.62916666667886,"value":0.5433070866141733},{"number":64,"time":208.6500000000122,"value":0.5748031496062992},{"number":64,"time":208.65104166667888,"value":0.5748031496062992},{"number":64,"time":208.6656250000122,"value":0.6141732283464567},{"number":64,"time":208.6656250000122,"value":0.6141732283464567},{"number":64,"time":208.67291666667887,"value":0.6456692913385826},{"number":64,"time":208.67395833334555,"value":0.6456692913385826},{"number":64,"time":208.6854166666789,"value":0.7795275590551181},{"number":64,"time":208.68645833334557,"value":0.7795275590551181},{"number":64,"time":208.7010416666789,"value":0.889763779527559},{"number":64,"time":208.70208333334557,"value":0.889763779527559},{"number":64,"time":208.79062500001226,"value":1},{"number":64,"time":208.79062500001226,"value":1},{"number":64,"time":208.9927083333456,"value":0.8661417322834646},{"number":64,"time":208.99375000001228,"value":0.8661417322834646},{"number":64,"time":209.0177083333456,"value":0.7559055118110236},{"number":64,"time":209.0187500000123,"value":0.7559055118110236},{"number":64,"time":209.02916666667895,"value":0.6535433070866141},{"number":64,"time":209.03020833334563,"value":0.6535433070866141},{"number":64,"time":209.04270833334562,"value":0.6220472440944882},{"number":64,"time":209.04270833334562,"value":0.6220472440944882},{"number":64,"time":209.10104166667895,"value":0.7559055118110236},{"number":64,"time":209.10208333334563,"value":0.7559055118110236},{"number":64,"time":209.11770833334563,"value":0.8661417322834646},{"number":64,"time":209.11770833334563,"value":0.8661417322834646},{"number":64,"time":209.172916666679,"value":1},{"number":64,"time":209.17395833334567,"value":1},{"number":64,"time":209.5052083333457,"value":0.8661417322834646},{"number":64,"time":209.5052083333457,"value":0.8661417322834646},{"number":64,"time":209.5177083333457,"value":0.7559055118110236},{"number":64,"time":209.5177083333457,"value":0.7559055118110236},{"number":64,"time":209.52500000001237,"value":0.6456692913385826},{"number":64,"time":209.52604166667905,"value":0.6456692913385826},{"number":64,"time":209.53333333334572,"value":0.5984251968503937},{"number":64,"time":209.5343750000124,"value":0.5984251968503937},{"number":64,"time":209.54166666667908,"value":0.5511811023622047},{"number":64,"time":209.54270833334576,"value":0.5511811023622047},{"number":64,"time":209.54895833334575,"value":0.49606299212598426},{"number":64,"time":209.55000000001243,"value":0.49606299212598426},{"number":64,"time":209.5572916666791,"value":0.4015748031496063},{"number":64,"time":209.5583333333458,"value":0.4015748031496063},{"number":64,"time":209.56979166667912,"value":0.2992125984251969},{"number":64,"time":209.56979166667912,"value":0.2992125984251969},{"number":64,"time":209.6052083333458,"value":0.4015748031496063},{"number":64,"time":209.60625000001247,"value":0.4015748031496063},{"number":64,"time":209.61354166667914,"value":0.47244094488188976},{"number":64,"time":209.61458333334582,"value":0.47244094488188976},{"number":64,"time":209.62083333334581,"value":0.5039370078740157},{"number":64,"time":209.6218750000125,"value":0.5039370078740157},{"number":64,"time":209.62916666667917,"value":0.5433070866141733},{"number":64,"time":209.62916666667917,"value":0.5433070866141733},{"number":64,"time":209.6375000000125,"value":0.5748031496062992},{"number":64,"time":209.63854166667917,"value":0.5748031496062992},{"number":64,"time":209.64895833334583,"value":0.6141732283464567},{"number":64,"time":209.6500000000125,"value":0.6141732283464567},{"number":64,"time":209.66145833334585,"value":0.7322834645669292},{"number":64,"time":209.66250000001253,"value":0.7322834645669292},{"number":64,"time":209.6697916666792,"value":0.8267716535433071},{"number":64,"time":209.6697916666792,"value":0.8267716535433071},{"number":64,"time":209.6854166666792,"value":0.937007874015748},{"number":64,"time":209.68645833334588,"value":0.937007874015748},{"number":64,"time":209.7614583333459,"value":1},{"number":64,"time":209.76250000001258,"value":1},{"number":64,"time":209.96562500001255,"value":0.8661417322834646},{"number":64,"time":209.96562500001255,"value":0.8661417322834646},{"number":64,"time":209.98958333334588,"value":0.7322834645669292},{"number":64,"time":209.99062500001256,"value":0.7322834645669292},{"number":64,"time":209.99687500001255,"value":0.6535433070866141},{"number":64,"time":209.99791666667923,"value":0.6535433070866141},{"number":64,"time":210.00937500001257,"value":0.6141732283464567},{"number":64,"time":210.01041666667925,"value":0.6141732283464567},{"number":64,"time":210.0656250000126,"value":0.6456692913385826},{"number":64,"time":210.06666666667928,"value":0.6456692913385826},{"number":64,"time":210.08020833334595,"value":0.7559055118110236},{"number":64,"time":210.08125000001263,"value":0.7559055118110236},{"number":64,"time":210.09270833334597,"value":0.8503937007874016},{"number":64,"time":210.09375000001265,"value":0.8503937007874016},{"number":64,"time":210.189583333346,"value":1},{"number":64,"time":210.1906250000127,"value":1},{"number":64,"time":210.36770833334603,"value":0.8661417322834646},{"number":64,"time":210.3687500000127,"value":0.8661417322834646},{"number":64,"time":210.39270833334606,"value":0.7322834645669292},{"number":64,"time":210.39375000001274,"value":0.7322834645669292},{"number":64,"time":210.40000000001274,"value":0.6535433070866141},{"number":64,"time":210.40104166667942,"value":0.6535433070866141},{"number":64,"time":210.4135416666794,"value":0.6141732283464567},{"number":64,"time":210.4145833333461,"value":0.6141732283464567},{"number":64,"time":210.43229166667942,"value":0.5748031496062992},{"number":64,"time":210.4333333333461,"value":0.5748031496062992},{"number":64,"time":210.46875000001276,"value":0.6062992125984252},{"number":64,"time":210.4708333333461,"value":0.6062992125984252},{"number":64,"time":210.48437500001276,"value":0.6377952755905512},{"number":64,"time":210.48541666667944,"value":0.6377952755905512},{"number":64,"time":210.5000000000128,"value":0.7559055118110236},{"number":64,"time":210.50104166667947,"value":0.7559055118110236},{"number":64,"time":210.51666666667947,"value":0.8503937007874016},{"number":64,"time":210.51666666667947,"value":0.8503937007874016},{"number":64,"time":210.61354166667948,"value":1},{"number":64,"time":210.61458333334616,"value":1},{"number":64,"time":210.78125000001285,"value":0.8661417322834646},{"number":64,"time":210.78229166667953,"value":0.8661417322834646},{"number":64,"time":210.8052083333462,"value":0.7322834645669292},{"number":64,"time":210.8052083333462,"value":0.7322834645669292},{"number":64,"time":210.81354166667953,"value":0.6535433070866141},{"number":64,"time":210.8145833333462,"value":0.6535433070866141},{"number":64,"time":210.8208333333462,"value":0.6141732283464567},{"number":64,"time":210.82187500001288,"value":0.6141732283464567},{"number":64,"time":210.83229166667957,"value":0.5826771653543307},{"number":64,"time":210.83229166667957,"value":0.5826771653543307},{"number":64,"time":210.84895833334625,"value":0.5511811023622047},{"number":64,"time":210.85000000001293,"value":0.5511811023622047},{"number":64,"time":210.89583333334625,"value":0.5826771653543307},{"number":64,"time":210.89687500001293,"value":0.5826771653543307},{"number":64,"time":210.90937500001291,"value":0.6141732283464567},{"number":64,"time":210.9104166666796,"value":0.6141732283464567},{"number":64,"time":210.9166666666796,"value":0.6535433070866141},{"number":64,"time":210.91770833334627,"value":0.6535433070866141},{"number":64,"time":210.92812500001293,"value":0.7795275590551181},{"number":64,"time":210.9291666666796,"value":0.7795275590551181},{"number":64,"time":210.95312500001293,"value":0.9133858267716536},{"number":64,"time":210.95312500001293,"value":0.9133858267716536},{"number":64,"time":211.04791666667958,"value":1},{"number":64,"time":211.04895833334626,"value":1},{"number":64,"time":211.2072916666796,"value":0.8661417322834646},{"number":64,"time":211.20833333334627,"value":0.8661417322834646},{"number":64,"time":211.23125000001295,"value":0.7322834645669292},{"number":64,"time":211.23125000001295,"value":0.7322834645669292},{"number":64,"time":211.23958333334627,"value":0.6535433070866141},{"number":64,"time":211.24062500001295,"value":0.6535433070866141},{"number":64,"time":211.2510416666796,"value":0.6220472440944882},{"number":64,"time":211.2520833333463,"value":0.6220472440944882},{"number":64,"time":211.2677083333463,"value":0.5905511811023622},{"number":64,"time":211.26875000001297,"value":0.5905511811023622},{"number":64,"time":211.30729166667965,"value":0.6220472440944882},{"number":64,"time":211.30833333334633,"value":0.6220472440944882},{"number":64,"time":211.31979166667966,"value":0.6535433070866141},{"number":64,"time":211.31979166667966,"value":0.6535433070866141},{"number":64,"time":211.33333333334633,"value":0.7559055118110236},{"number":64,"time":211.33333333334633,"value":0.7559055118110236},{"number":64,"time":211.343750000013,"value":0.8503937007874016},{"number":64,"time":211.343750000013,"value":0.8503937007874016},{"number":64,"time":211.43958333334635,"value":1},{"number":64,"time":211.44062500001303,"value":1},{"number":64,"time":211.65104166667967,"value":0.8661417322834646},{"number":64,"time":211.65208333334635,"value":0.8661417322834646},{"number":64,"time":211.67083333334637,"value":0.7322834645669292},{"number":64,"time":211.67187500001305,"value":0.7322834645669292},{"number":64,"time":211.68437500001303,"value":0.6377952755905512},{"number":64,"time":211.6854166666797,"value":0.6377952755905512},{"number":64,"time":211.69479166667972,"value":0.5984251968503937},{"number":64,"time":211.6958333333464,"value":0.5984251968503937},{"number":64,"time":211.71562500001306,"value":0.5669291338582677},{"number":64,"time":211.71666666667974,"value":0.5669291338582677},{"number":64,"time":211.7552083333464,"value":0.5984251968503937},{"number":64,"time":211.75625000001307,"value":0.5984251968503937},{"number":64,"time":211.76666666667973,"value":0.6299212598425197},{"number":64,"time":211.7677083333464,"value":0.6299212598425197},{"number":64,"time":211.77916666667974,"value":0.7322834645669292},{"number":64,"time":211.77916666667974,"value":0.7322834645669292},{"number":64,"time":211.79166666667973,"value":0.8503937007874016},{"number":64,"time":211.7927083333464,"value":0.8503937007874016},{"number":64,"time":211.90312500001306,"value":1},{"number":64,"time":211.90416666667974,"value":1},{"number":64,"time":212.13125000001304,"value":0.8661417322834646},{"number":64,"time":212.13229166667972,"value":0.8661417322834646},{"number":64,"time":212.15104166667973,"value":0.7322834645669292},{"number":64,"time":212.15104166667973,"value":0.7322834645669292},{"number":64,"time":212.1645833333464,"value":0.6377952755905512},{"number":64,"time":212.16562500001308,"value":0.6377952755905512},{"number":64,"time":212.17395833334643,"value":0.6062992125984252},{"number":64,"time":212.1750000000131,"value":0.6062992125984252},{"number":64,"time":212.18333333334644,"value":0.5748031496062992},{"number":64,"time":212.18437500001312,"value":0.5748031496062992},{"number":64,"time":212.20312500001313,"value":0.5354330708661418},{"number":64,"time":212.20312500001313,"value":0.5354330708661418},{"number":64,"time":212.2354166666798,"value":0.5669291338582677},{"number":64,"time":212.2364583333465,"value":0.5669291338582677},{"number":64,"time":212.2510416666798,"value":0.5984251968503937},{"number":64,"time":212.2510416666798,"value":0.5984251968503937},{"number":64,"time":212.2635416666798,"value":0.6299212598425197},{"number":64,"time":212.2635416666798,"value":0.6299212598425197},{"number":64,"time":212.27500000001314,"value":0.7322834645669292},{"number":64,"time":212.27604166667982,"value":0.7322834645669292},{"number":64,"time":212.28750000001315,"value":0.8267716535433071},{"number":64,"time":212.28750000001315,"value":0.8267716535433071},{"number":64,"time":212.32708333334648,"value":0.937007874015748},{"number":64,"time":212.32708333334648,"value":0.937007874015748},{"number":64,"time":212.3760416666798,"value":1},{"number":64,"time":212.3770833333465,"value":1},{"number":64,"time":212.5552083333465,"value":0.8661417322834646},{"number":64,"time":212.5562500000132,"value":0.8661417322834646},{"number":64,"time":212.57916666667987,"value":0.7322834645669292},{"number":64,"time":212.58020833334655,"value":0.7322834645669292},{"number":64,"time":212.5906250000132,"value":0.6456692913385826},{"number":64,"time":212.59166666667988,"value":0.6456692913385826},{"number":64,"time":212.59895833334656,"value":0.6141732283464567},{"number":64,"time":212.60000000001324,"value":0.6141732283464567},{"number":64,"time":212.61875000001325,"value":0.5826771653543307},{"number":64,"time":212.61979166667993,"value":0.5826771653543307},{"number":64,"time":212.6427083333466,"value":0.6141732283464567},{"number":64,"time":212.64375000001328,"value":0.6141732283464567},{"number":64,"time":212.65520833334662,"value":0.6535433070866141},{"number":64,"time":212.6562500000133,"value":0.6535433070866141},{"number":64,"time":212.66666666667996,"value":0.7795275590551181},{"number":64,"time":212.66770833334664,"value":0.7795275590551181},{"number":64,"time":212.68333333334664,"value":0.889763779527559},{"number":64,"time":212.68437500001332,"value":0.889763779527559},{"number":64,"time":212.69479166667998,"value":1},{"number":64,"time":212.69583333334666,"value":1},{"number":64,"time":213.09479166668,"value":0.8661417322834646},{"number":64,"time":213.0958333333467,"value":0.8661417322834646},{"number":64,"time":213.10729166668003,"value":0.7559055118110236},{"number":64,"time":213.1083333333467,"value":0.7559055118110236},{"number":64,"time":213.11145833334672,"value":0.6614173228346457},{"number":64,"time":213.1125000000134,"value":0.6614173228346457},{"number":64,"time":213.1156250000134,"value":0.6299212598425197},{"number":64,"time":213.1166666666801,"value":0.6299212598425197},{"number":64,"time":213.12291666668008,"value":0.5748031496062992},{"number":64,"time":213.12395833334676,"value":0.5748031496062992},{"number":64,"time":213.13125000001344,"value":0.5196850393700787},{"number":64,"time":213.13229166668012,"value":0.5196850393700787},{"number":64,"time":213.13541666668013,"value":0.48031496062992124},{"number":64,"time":213.1364583333468,"value":0.48031496062992124},{"number":64,"time":213.1427083333468,"value":0.33070866141732286},{"number":64,"time":213.14375000001348,"value":0.33070866141732286},{"number":64,"time":213.15104166668016,"value":0.18110236220472442},{"number":64,"time":213.15104166668016,"value":0.18110236220472442},{"number":64,"time":213.16354166668015,"value":0.05511811023622047},{"number":64,"time":213.16458333334683,"value":0.05511811023622047},{"number":64,"time":213.17604166668016,"value":0},{"number":64,"time":213.17708333334684,"value":0},{"number":64,"time":213.22708333334685,"value":0.12598425196850394},{"number":64,"time":213.22812500001353,"value":0.12598425196850394},{"number":64,"time":213.2354166666802,"value":0.25196850393700787},{"number":64,"time":213.2364583333469,"value":0.25196850393700787},{"number":64,"time":213.24270833334688,"value":0.4015748031496063},{"number":64,"time":213.24375000001356,"value":0.4015748031496063},{"number":64,"time":213.24791666668023,"value":0.48031496062992124},{"number":64,"time":213.2489583333469,"value":0.48031496062992124},{"number":64,"time":213.25104166668024,"value":0.5118110236220472},{"number":64,"time":213.25208333334692,"value":0.5118110236220472},{"number":64,"time":213.25520833334693,"value":0.5433070866141733},{"number":64,"time":213.2562500000136,"value":0.5433070866141733},{"number":64,"time":213.26354166668028,"value":0.5748031496062992},{"number":64,"time":213.26354166668028,"value":0.5748031496062992},{"number":64,"time":213.27500000001362,"value":0.6062992125984252},{"number":64,"time":213.2760416666803,"value":0.6062992125984252},{"number":64,"time":213.28333333334697,"value":0.6377952755905512},{"number":64,"time":213.28437500001365,"value":0.6377952755905512},{"number":64,"time":213.29895833334697,"value":0.7559055118110236},{"number":64,"time":213.30000000001365,"value":0.7559055118110236},{"number":64,"time":213.339583333347,"value":0.8503937007874016},{"number":64,"time":213.339583333347,"value":0.8503937007874016},{"number":64,"time":213.52291666668035,"value":1},{"number":64,"time":213.52291666668035,"value":1},{"number":64,"time":213.91041666668036,"value":0.8661417322834646},{"number":64,"time":213.91145833334704,"value":0.8661417322834646},{"number":64,"time":213.94583333334705,"value":0.7322834645669292},{"number":64,"time":213.94687500001373,"value":0.7322834645669292},{"number":64,"time":213.95833333334707,"value":0.6535433070866141},{"number":64,"time":213.95937500001375,"value":0.6535433070866141},{"number":64,"time":213.97500000001375,"value":0.6220472440944882},{"number":64,"time":213.97604166668043,"value":0.6220472440944882},{"number":64,"time":214.01562500001376,"value":0.6535433070866141},{"number":64,"time":214.01666666668044,"value":0.6535433070866141},{"number":64,"time":214.03854166668043,"value":0.7559055118110236},{"number":64,"time":214.03854166668043,"value":0.7559055118110236},{"number":64,"time":214.0583333333471,"value":0.8503937007874016},{"number":64,"time":214.05937500001377,"value":0.8503937007874016},{"number":64,"time":214.19791666668044,"value":1},{"number":64,"time":214.19895833334712,"value":1},{"number":64,"time":214.39479166668045,"value":0.8661417322834646},{"number":64,"time":214.39583333334713,"value":0.8661417322834646},{"number":64,"time":214.41770833334712,"value":0.7559055118110236},{"number":64,"time":214.4187500000138,"value":0.7559055118110236},{"number":64,"time":214.43541666668045,"value":0.6535433070866141},{"number":64,"time":214.43541666668045,"value":0.6535433070866141},{"number":64,"time":214.45833333334713,"value":0.6220472440944882},{"number":64,"time":214.4593750000138,"value":0.6220472440944882},{"number":64,"time":214.48645833334714,"value":0.6535433070866141},{"number":64,"time":214.48645833334714,"value":0.6535433070866141},{"number":64,"time":214.5062500000138,"value":0.7559055118110236},{"number":64,"time":214.5072916666805,"value":0.7559055118110236},{"number":64,"time":214.5260416666805,"value":0.8503937007874016},{"number":64,"time":214.5260416666805,"value":0.8503937007874016},{"number":64,"time":214.72187500001382,"value":1},{"number":64,"time":214.72187500001382,"value":1},{"number":64,"time":214.87812500001382,"value":0.8661417322834646},{"number":64,"time":214.8791666666805,"value":0.8661417322834646},{"number":64,"time":214.90208333334718,"value":0.7559055118110236},{"number":64,"time":214.90312500001386,"value":0.7559055118110236},{"number":64,"time":214.9145833333472,"value":0.6535433070866141},{"number":64,"time":214.9145833333472,"value":0.6535433070866141},{"number":64,"time":214.92604166668053,"value":0.6220472440944882},{"number":64,"time":214.9270833333472,"value":0.6220472440944882},{"number":64,"time":215.0062500000139,"value":0.7559055118110236},{"number":64,"time":215.00729166668057,"value":0.7559055118110236},{"number":64,"time":215.02604166668056,"value":0.8503937007874016},{"number":64,"time":215.02708333334724,"value":0.8503937007874016},{"number":64,"time":215.18958333334726,"value":1},{"number":64,"time":215.19062500001394,"value":1},{"number":64,"time":215.35000000001392,"value":0.8661417322834646},{"number":64,"time":215.3510416666806,"value":0.8661417322834646},{"number":64,"time":215.3697916666806,"value":0.7559055118110236},{"number":64,"time":215.3697916666806,"value":0.7559055118110236},{"number":64,"time":215.3822916666806,"value":0.6535433070866141},{"number":64,"time":215.38333333334728,"value":0.6535433070866141},{"number":64,"time":215.39375000001394,"value":0.6141732283464567},{"number":64,"time":215.39479166668062,"value":0.6141732283464567},{"number":64,"time":215.4583333333473,"value":0.6456692913385826},{"number":64,"time":215.45937500001398,"value":0.6456692913385826},{"number":64,"time":215.47395833334733,"value":0.7559055118110236},{"number":64,"time":215.475000000014,"value":0.7559055118110236},{"number":64,"time":215.48541666668066,"value":0.8503937007874016},{"number":64,"time":215.48645833334734,"value":0.8503937007874016},{"number":64,"time":215.578125000014,"value":1},{"number":64,"time":215.5791666666807,"value":1},{"number":64,"time":215.79375000001403,"value":0.8661417322834646},{"number":64,"time":215.7947916666807,"value":0.8661417322834646},{"number":64,"time":215.81354166668072,"value":0.7322834645669292},{"number":64,"time":215.8145833333474,"value":0.7322834645669292},{"number":64,"time":215.82187500001407,"value":0.6456692913385826},{"number":64,"time":215.82187500001407,"value":0.6456692913385826},{"number":64,"time":215.8302083333474,"value":0.6141732283464567},{"number":64,"time":215.83125000001408,"value":0.6141732283464567},{"number":64,"time":215.84166666668074,"value":0.5826771653543307},{"number":64,"time":215.84270833334742,"value":0.5826771653543307},{"number":64,"time":215.85833333334742,"value":0.5511811023622047},{"number":64,"time":215.85833333334742,"value":0.5511811023622047},{"number":64,"time":215.88958333334742,"value":0.5826771653543307},{"number":64,"time":215.8906250000141,"value":0.5826771653543307},{"number":64,"time":215.9062500000141,"value":0.6220472440944882},{"number":64,"time":215.90729166668078,"value":0.6220472440944882},{"number":64,"time":215.9218750000141,"value":0.7322834645669292},{"number":64,"time":215.9218750000141,"value":0.7322834645669292},{"number":64,"time":215.9343750000141,"value":0.8267716535433071},{"number":64,"time":215.9343750000141,"value":0.8267716535433071},{"number":64,"time":215.9895833333474,"value":0.937007874015748},{"number":64,"time":215.9906250000141,"value":0.937007874015748},{"number":64,"time":216.0781250000141,"value":1},{"number":64,"time":216.07916666668078,"value":1},{"number":64,"time":216.70729166668076,"value":0.8661417322834646},{"number":64,"time":216.70833333334744,"value":0.8661417322834646},{"number":64,"time":216.72500000001412,"value":0.7086614173228346},{"number":64,"time":216.7260416666808,"value":0.7086614173228346},{"number":64,"time":216.7291666666808,"value":0.6535433070866141},{"number":64,"time":216.7302083333475,"value":0.6535433070866141},{"number":64,"time":216.73645833334749,"value":0.6062992125984252},{"number":64,"time":216.73750000001417,"value":0.6062992125984252},{"number":64,"time":216.74479166668084,"value":0.5748031496062992},{"number":64,"time":216.74583333334752,"value":0.5748031496062992},{"number":64,"time":216.7531250000142,"value":0.5354330708661418},{"number":64,"time":216.7531250000142,"value":0.5354330708661418},{"number":64,"time":216.76145833334752,"value":0.4881889763779528},{"number":64,"time":216.7625000000142,"value":0.4881889763779528},{"number":64,"time":216.77708333334752,"value":0.4015748031496063},{"number":64,"time":216.7781250000142,"value":0.4015748031496063},{"number":64,"time":216.8125000000142,"value":0.47244094488188976},{"number":64,"time":216.8135416666809,"value":0.47244094488188976},{"number":64,"time":216.82500000001423,"value":0.5118110236220472},{"number":64,"time":216.8260416666809,"value":0.5118110236220472},{"number":64,"time":216.83645833334757,"value":0.5511811023622047},{"number":64,"time":216.8385416666809,"value":0.5511811023622047},{"number":64,"time":216.85312500001422,"value":0.5905511811023622},{"number":64,"time":216.8541666666809,"value":0.5905511811023622},{"number":64,"time":216.86562500001423,"value":0.6299212598425197},{"number":64,"time":216.8666666666809,"value":0.6299212598425197},{"number":64,"time":216.88125000001423,"value":0.7559055118110236},{"number":64,"time":216.8822916666809,"value":0.7559055118110236},{"number":64,"time":216.89687500001423,"value":0.8503937007874016},{"number":64,"time":216.8979166666809,"value":0.8503937007874016},{"number":64,"time":217.00937500001424,"value":1},{"number":64,"time":217.01041666668092,"value":1},{"number":64,"time":217.09062500001426,"value":0.8661417322834646},{"number":64,"time":217.09166666668094,"value":0.8661417322834646},{"number":64,"time":217.1166666666809,"value":0.7322834645669292},{"number":64,"time":217.1177083333476,"value":0.7322834645669292},{"number":64,"time":217.12500000001427,"value":0.6535433070866141},{"number":64,"time":217.12604166668095,"value":0.6535433070866141},{"number":64,"time":217.1364583333476,"value":0.6141732283464567},{"number":64,"time":217.13750000001428,"value":0.6141732283464567},{"number":64,"time":217.16458333334762,"value":0.5826771653543307},{"number":64,"time":217.16666666668095,"value":0.5826771653543307},{"number":64,"time":217.18854166668095,"value":0.6141732283464567},{"number":64,"time":217.18958333334763,"value":0.6141732283464567},{"number":64,"time":217.20104166668096,"value":0.6456692913385826},{"number":64,"time":217.20208333334764,"value":0.6456692913385826},{"number":64,"time":217.21666666668096,"value":0.7559055118110236},{"number":64,"time":217.21770833334764,"value":0.7559055118110236},{"number":64,"time":217.23229166668096,"value":0.8503937007874016},{"number":64,"time":217.23333333334764,"value":0.8503937007874016},{"number":64,"time":217.38541666668098,"value":1},{"number":64,"time":217.38541666668098,"value":1},{"number":64,"time":217.56875000001432,"value":0.8661417322834646},{"number":64,"time":217.56875000001432,"value":0.8661417322834646},{"number":64,"time":217.591666666681,"value":0.7086614173228346},{"number":64,"time":217.59270833334767,"value":0.7086614173228346},{"number":64,"time":217.59791666668102,"value":0.6299212598425197},{"number":64,"time":217.5989583333477,"value":0.6299212598425197},{"number":64,"time":217.6052083333477,"value":0.5984251968503937},{"number":64,"time":217.60625000001437,"value":0.5984251968503937},{"number":64,"time":217.61354166668104,"value":0.5669291338582677},{"number":64,"time":217.61354166668104,"value":0.5669291338582677},{"number":64,"time":217.62083333334772,"value":0.5275590551181102},{"number":64,"time":217.62083333334772,"value":0.5275590551181102},{"number":64,"time":217.62916666668104,"value":0.49606299212598426},{"number":64,"time":217.63020833334772,"value":0.49606299212598426},{"number":64,"time":217.66458333334774,"value":0.5275590551181102},{"number":64,"time":217.66562500001442,"value":0.5275590551181102},{"number":64,"time":217.67708333334775,"value":0.5669291338582677},{"number":64,"time":217.67812500001443,"value":0.5669291338582677},{"number":64,"time":217.6885416666811,"value":0.6062992125984252},{"number":64,"time":217.68958333334777,"value":0.6062992125984252},{"number":64,"time":217.69687500001444,"value":0.6377952755905512},{"number":64,"time":217.69687500001444,"value":0.6377952755905512},{"number":64,"time":217.70520833334777,"value":0.7322834645669292},{"number":64,"time":217.70625000001445,"value":0.7322834645669292},{"number":64,"time":217.71250000001444,"value":0.8267716535433071},{"number":64,"time":217.71354166668112,"value":0.8267716535433071},{"number":64,"time":217.72500000001446,"value":0.937007874015748},{"number":64,"time":217.72604166668114,"value":0.937007874015748},{"number":64,"time":217.7927083333478,"value":1},{"number":64,"time":217.7927083333478,"value":1},{"number":64,"time":218.0250000000145,"value":0.8661417322834646},{"number":64,"time":218.02604166668118,"value":0.8661417322834646},{"number":64,"time":218.04062500001453,"value":0.7559055118110236},{"number":64,"time":218.0416666666812,"value":0.7559055118110236},{"number":64,"time":218.04895833334788,"value":0.6614173228346457},{"number":64,"time":218.05000000001456,"value":0.6614173228346457},{"number":64,"time":218.05729166668124,"value":0.6141732283464567},{"number":64,"time":218.05729166668124,"value":0.6141732283464567},{"number":64,"time":218.0645833333479,"value":0.5826771653543307},{"number":64,"time":218.0656250000146,"value":0.5826771653543307},{"number":64,"time":218.07708333334793,"value":0.5511811023622047},{"number":64,"time":218.0781250000146,"value":0.5511811023622047},{"number":64,"time":218.09270833334793,"value":0.5196850393700787},{"number":64,"time":218.09270833334793,"value":0.5196850393700787},{"number":64,"time":218.1218750000146,"value":0.5511811023622047},{"number":64,"time":218.1218750000146,"value":0.5511811023622047},{"number":64,"time":218.13333333334793,"value":0.5826771653543307},{"number":64,"time":218.13333333334793,"value":0.5826771653543307},{"number":64,"time":218.14479166668127,"value":0.6220472440944882},{"number":64,"time":218.14583333334795,"value":0.6220472440944882},{"number":64,"time":218.1572916666813,"value":0.7322834645669292},{"number":64,"time":218.1572916666813,"value":0.7322834645669292},{"number":64,"time":218.16458333334796,"value":0.8267716535433071},{"number":64,"time":218.16562500001464,"value":0.8267716535433071},{"number":64,"time":218.18125000001464,"value":0.937007874015748},{"number":64,"time":218.18229166668132,"value":0.937007874015748},{"number":64,"time":218.26041666668135,"value":1},{"number":64,"time":218.26145833334803,"value":1},{"number":64,"time":218.48854166668136,"value":0.8661417322834646},{"number":64,"time":218.48958333334804,"value":0.8661417322834646},{"number":64,"time":218.5093750000147,"value":0.7322834645669292},{"number":64,"time":218.5093750000147,"value":0.7322834645669292},{"number":64,"time":218.51666666668137,"value":0.6456692913385826},{"number":64,"time":218.51770833334805,"value":0.6456692913385826},{"number":64,"time":218.52500000001473,"value":0.6062992125984252},{"number":64,"time":218.5260416666814,"value":0.6062992125984252},{"number":64,"time":218.53645833334807,"value":0.5669291338582677},{"number":64,"time":218.53750000001475,"value":0.5669291338582677},{"number":64,"time":218.54895833334808,"value":0.5354330708661418},{"number":64,"time":218.55000000001476,"value":0.5354330708661418},{"number":64,"time":218.60104166668143,"value":0.5669291338582677},{"number":64,"time":218.6020833333481,"value":0.5669291338582677},{"number":64,"time":218.61250000001476,"value":0.5984251968503937},{"number":64,"time":218.61354166668144,"value":0.5984251968503937},{"number":64,"time":218.62500000001478,"value":0.6377952755905512},{"number":64,"time":218.62604166668146,"value":0.6377952755905512},{"number":64,"time":218.63645833334812,"value":0.7322834645669292},{"number":64,"time":218.6375000000148,"value":0.7322834645669292},{"number":64,"time":218.64895833334813,"value":0.8267716535433071},{"number":64,"time":218.6500000000148,"value":0.8267716535433071},{"number":64,"time":218.72083333334814,"value":0.937007874015748},{"number":64,"time":218.72083333334814,"value":0.937007874015748},{"number":64,"time":218.78958333334816,"value":1},{"number":64,"time":218.79062500001484,"value":1},{"number":64,"time":218.94375000001483,"value":0.8661417322834646},{"number":64,"time":218.9447916666815,"value":0.8661417322834646},{"number":64,"time":218.96354166668152,"value":0.7322834645669292},{"number":64,"time":218.9645833333482,"value":0.7322834645669292},{"number":64,"time":218.97187500001488,"value":0.6456692913385826},{"number":64,"time":218.97291666668156,"value":0.6456692913385826},{"number":64,"time":218.98020833334823,"value":0.6062992125984252},{"number":64,"time":218.9812500000149,"value":0.6062992125984252},{"number":64,"time":218.99270833334825,"value":0.5669291338582677},{"number":64,"time":218.99375000001493,"value":0.5669291338582677},{"number":64,"time":219.00416666668158,"value":0.5354330708661418},{"number":64,"time":219.00416666668158,"value":0.5354330708661418},{"number":64,"time":219.04791666668157,"value":0.5669291338582677},{"number":64,"time":219.04895833334825,"value":0.5669291338582677},{"number":64,"time":219.05937500001494,"value":0.5984251968503937},{"number":64,"time":219.06041666668162,"value":0.5984251968503937},{"number":64,"time":219.06979166668162,"value":0.6299212598425197},{"number":64,"time":219.0708333333483,"value":0.6299212598425197},{"number":64,"time":219.08125000001496,"value":0.7559055118110236},{"number":64,"time":219.08125000001496,"value":0.7559055118110236},{"number":64,"time":219.09166666668162,"value":0.8503937007874016},{"number":64,"time":219.0927083333483,"value":0.8503937007874016},{"number":64,"time":219.21250000001496,"value":1},{"number":64,"time":219.21354166668164,"value":1},{"number":64,"time":219.3760416666816,"value":0.8661417322834646},{"number":64,"time":219.3760416666816,"value":0.8661417322834646},{"number":64,"time":219.39583333334826,"value":0.7086614173228346},{"number":64,"time":219.39687500001494,"value":0.7086614173228346},{"number":64,"time":219.40520833334827,"value":0.6377952755905512},{"number":64,"time":219.40625000001495,"value":0.6377952755905512},{"number":64,"time":219.4114583333483,"value":0.6062992125984252},{"number":64,"time":219.41250000001497,"value":0.6062992125984252},{"number":64,"time":219.41979166668165,"value":0.5748031496062992},{"number":64,"time":219.42083333334833,"value":0.5748031496062992},{"number":64,"time":219.43229166668166,"value":0.5433070866141733},{"number":64,"time":219.43333333334834,"value":0.5433070866141733},{"number":64,"time":219.47604166668168,"value":0.5748031496062992},{"number":64,"time":219.47708333334836,"value":0.5748031496062992},{"number":64,"time":219.48750000001502,"value":0.6062992125984252},{"number":64,"time":219.4885416666817,"value":0.6062992125984252},{"number":64,"time":219.49583333334837,"value":0.6456692913385826},{"number":64,"time":219.49687500001505,"value":0.6456692913385826},{"number":64,"time":219.5083333333484,"value":0.7795275590551181},{"number":64,"time":219.50937500001507,"value":0.7795275590551181},{"number":64,"time":219.52500000001507,"value":0.889763779527559},{"number":64,"time":219.52604166668175,"value":0.889763779527559},{"number":64,"time":219.54375000001508,"value":1},{"number":64,"time":219.54479166668176,"value":1},{"number":64,"time":219.76562500001506,"value":0.8661417322834646},{"number":64,"time":219.76666666668174,"value":0.8661417322834646},{"number":64,"time":219.7875000000151,"value":0.7322834645669292},{"number":64,"time":219.78854166668177,"value":0.7322834645669292},{"number":64,"time":219.8000000000151,"value":0.6456692913385826},{"number":64,"time":219.80104166668178,"value":0.6456692913385826},{"number":64,"time":219.80729166668178,"value":0.6141732283464567},{"number":64,"time":219.80833333334846,"value":0.6141732283464567},{"number":64,"time":219.82812500001512,"value":0.5748031496062992},{"number":64,"time":219.82812500001512,"value":0.5748031496062992},{"number":64,"time":219.85937500001512,"value":0.6062992125984252},{"number":64,"time":219.8604166666818,"value":0.6062992125984252},{"number":64,"time":219.8760416666818,"value":0.6456692913385826},{"number":64,"time":219.87708333334848,"value":0.6456692913385826},{"number":64,"time":219.88750000001514,"value":0.7559055118110236},{"number":64,"time":219.88854166668182,"value":0.7559055118110236},{"number":64,"time":219.90000000001515,"value":0.8503937007874016},{"number":64,"time":219.90000000001515,"value":0.8503937007874016},{"number":64,"time":220.0822916666818,"value":1},{"number":64,"time":220.0822916666818,"value":1},{"number":64,"time":220.42812500001514,"value":0.8661417322834646},{"number":64,"time":220.42916666668182,"value":0.8661417322834646},{"number":64,"time":220.44375000001514,"value":0.7086614173228346},{"number":64,"time":220.44479166668182,"value":0.7086614173228346},{"number":64,"time":220.44791666668183,"value":0.6456692913385826},{"number":64,"time":220.44895833334851,"value":0.6456692913385826},{"number":64,"time":220.45312500001518,"value":0.6141732283464567},{"number":64,"time":220.45312500001518,"value":0.6141732283464567},{"number":64,"time":220.45937500001517,"value":0.5669291338582677},{"number":64,"time":220.46041666668185,"value":0.5669291338582677},{"number":64,"time":220.46354166668186,"value":0.5275590551181102},{"number":64,"time":220.46458333334854,"value":0.5275590551181102},{"number":64,"time":220.46770833334855,"value":0.48031496062992124},{"number":64,"time":220.46875000001523,"value":0.48031496062992124},{"number":64,"time":220.47187500001525,"value":0.3779527559055118},{"number":64,"time":220.47291666668193,"value":0.3779527559055118},{"number":64,"time":220.4802083333486,"value":0.18110236220472442},{"number":64,"time":220.48125000001528,"value":0.18110236220472442},{"number":64,"time":220.4833333333486,"value":0.05511811023622047},{"number":64,"time":220.4843750000153,"value":0.05511811023622047},{"number":64,"time":220.4875000000153,"value":0},{"number":64,"time":220.48854166668198,"value":0},{"number":64,"time":220.591666666682,"value":0.10236220472440945},{"number":64,"time":220.591666666682,"value":0.10236220472440945},{"number":64,"time":220.59583333334865,"value":0.2283464566929134},{"number":64,"time":220.59687500001533,"value":0.2283464566929134},{"number":64,"time":220.60000000001534,"value":0.33070866141732286},{"number":64,"time":220.60104166668202,"value":0.33070866141732286},{"number":64,"time":220.60729166668202,"value":0.49606299212598426},{"number":64,"time":220.6083333333487,"value":0.49606299212598426},{"number":64,"time":220.6114583333487,"value":0.5275590551181102},{"number":64,"time":220.6125000000154,"value":0.5275590551181102},{"number":64,"time":220.61979166668206,"value":0.5669291338582677},{"number":64,"time":220.62083333334874,"value":0.5669291338582677},{"number":64,"time":220.6312500000154,"value":0.5984251968503937},{"number":64,"time":220.63229166668208,"value":0.5984251968503937},{"number":64,"time":220.64375000001542,"value":0.6299212598425197},{"number":64,"time":220.6447916666821,"value":0.6299212598425197},{"number":64,"time":220.66354166668208,"value":0.7559055118110236},{"number":64,"time":220.66458333334876,"value":0.7559055118110236},{"number":64,"time":220.6916666666821,"value":0.8503937007874016},{"number":64,"time":220.6916666666821,"value":0.8503937007874016},{"number":64,"time":220.92812500001543,"value":1},{"number":64,"time":220.92812500001543,"value":1},{"number":64,"time":221.02395833334876,"value":0.8661417322834646},{"number":64,"time":221.02500000001544,"value":0.8661417322834646},{"number":64,"time":221.0510416666821,"value":0.7559055118110236},{"number":64,"time":221.05208333334878,"value":0.7559055118110236},{"number":64,"time":221.0666666666821,"value":0.6535433070866141},{"number":64,"time":221.06770833334878,"value":0.6535433070866141},{"number":64,"time":221.12812500001544,"value":0.7559055118110236},{"number":64,"time":221.12812500001544,"value":0.7559055118110236},{"number":64,"time":221.14687500001546,"value":0.8503937007874016},{"number":64,"time":221.14791666668214,"value":0.8503937007874016},{"number":64,"time":221.32812500001546,"value":1},{"number":64,"time":221.32812500001546,"value":1},{"number":64,"time":221.67500000001544,"value":0.8661417322834646},{"number":64,"time":221.67604166668212,"value":0.8661417322834646},{"number":64,"time":221.70312500001546,"value":0.7559055118110236},{"number":64,"time":221.70416666668214,"value":0.7559055118110236},{"number":64,"time":221.74583333334883,"value":0.6614173228346457},{"number":64,"time":221.7468750000155,"value":0.6614173228346457},{"number":64,"time":221.76562500001552,"value":0.7559055118110236},{"number":64,"time":221.7666666666822,"value":0.7559055118110236},{"number":64,"time":221.7916666666822,"value":0.8503937007874016},{"number":64,"time":221.7916666666822,"value":0.8503937007874016},{"number":64,"time":221.8541666666822,"value":1},{"number":64,"time":221.85520833334888,"value":1},{"number":64,"time":222.07395833334886,"value":0.8661417322834646},{"number":64,"time":222.07500000001554,"value":0.8661417322834646},{"number":64,"time":222.0979166666822,"value":0.7322834645669292},{"number":64,"time":222.0989583333489,"value":0.7322834645669292},{"number":64,"time":222.10937500001555,"value":0.6456692913385826},{"number":64,"time":222.11041666668223,"value":0.6456692913385826},{"number":64,"time":222.11875000001558,"value":0.6141732283464567},{"number":64,"time":222.11979166668226,"value":0.6141732283464567},{"number":64,"time":222.13333333334893,"value":0.5826771653543307},{"number":64,"time":222.13541666668226,"value":0.5826771653543307},{"number":64,"time":222.18645833334892,"value":0.6220472440944882},{"number":64,"time":222.1875000000156,"value":0.6220472440944882},{"number":64,"time":222.20520833334893,"value":0.7322834645669292},{"number":64,"time":222.20625000001561,"value":0.7322834645669292},{"number":64,"time":222.21770833334895,"value":0.8503937007874016},{"number":64,"time":222.21875000001563,"value":0.8503937007874016},{"number":64,"time":222.31458333334896,"value":1},{"number":64,"time":222.31562500001564,"value":1},{"number":64,"time":222.4854166666823,"value":0.8661417322834646},{"number":64,"time":222.486458333349,"value":0.8661417322834646},{"number":64,"time":222.505208333349,"value":0.7559055118110236},{"number":64,"time":222.50625000001568,"value":0.7559055118110236},{"number":64,"time":222.51354166668236,"value":0.6614173228346457},{"number":64,"time":222.51458333334904,"value":0.6614173228346457},{"number":64,"time":222.52291666668236,"value":0.6299212598425197},{"number":64,"time":222.52395833334904,"value":0.6299212598425197},{"number":64,"time":222.5343750000157,"value":0.5905511811023622},{"number":64,"time":222.5343750000157,"value":0.5905511811023622},{"number":64,"time":222.59791666668238,"value":0.6299212598425197},{"number":64,"time":222.59895833334906,"value":0.6299212598425197},{"number":64,"time":222.60937500001572,"value":0.7322834645669292},{"number":64,"time":222.6104166666824,"value":0.7322834645669292},{"number":64,"time":222.62187500001573,"value":0.8503937007874016},{"number":64,"time":222.6229166666824,"value":0.8503937007874016},{"number":64,"time":222.65729166668243,"value":1},{"number":64,"time":222.6583333333491,"value":1},{"number":64,"time":222.9020833333491,"value":0.8661417322834646},{"number":64,"time":222.9031250000158,"value":0.8661417322834646},{"number":64,"time":222.9177083333491,"value":0.7559055118110236},{"number":64,"time":222.9187500000158,"value":0.7559055118110236},{"number":64,"time":222.92604166668247,"value":0.6614173228346457},{"number":64,"time":222.92708333334915,"value":0.6614173228346457},{"number":64,"time":222.93333333334914,"value":0.6220472440944882},{"number":64,"time":222.93437500001582,"value":0.6220472440944882},{"number":64,"time":222.9416666666825,"value":0.5826771653543307},{"number":64,"time":222.94270833334917,"value":0.5826771653543307},{"number":64,"time":222.9541666666825,"value":0.5433070866141733},{"number":64,"time":222.9541666666825,"value":0.5433070866141733},{"number":64,"time":222.96145833334919,"value":0.5118110236220472},{"number":64,"time":222.96250000001586,"value":0.5118110236220472},{"number":64,"time":223.00625000001588,"value":0.5433070866141733},{"number":64,"time":223.00729166668256,"value":0.5433070866141733},{"number":64,"time":223.01770833334922,"value":0.5748031496062992},{"number":64,"time":223.0187500000159,"value":0.5748031496062992},{"number":64,"time":223.02916666668256,"value":0.6062992125984252},{"number":64,"time":223.03020833334924,"value":0.6062992125984252},{"number":64,"time":223.0375000000159,"value":0.6456692913385826},{"number":64,"time":223.0385416666826,"value":0.6456692913385826},{"number":64,"time":223.05000000001593,"value":0.7795275590551181},{"number":64,"time":223.0510416666826,"value":0.7795275590551181},{"number":64,"time":223.06145833334926,"value":0.889763779527559},{"number":64,"time":223.06250000001594,"value":0.889763779527559},{"number":64,"time":223.1291666666826,"value":1},{"number":64,"time":223.1302083333493,"value":1},{"number":64,"time":223.38125000001594,"value":0.8661417322834646},{"number":64,"time":223.38229166668262,"value":0.8661417322834646},{"number":64,"time":223.4052083333493,"value":0.7322834645669292},{"number":64,"time":223.40625000001597,"value":0.7322834645669292},{"number":64,"time":223.4177083333493,"value":0.6456692913385826},{"number":64,"time":223.4177083333493,"value":0.6456692913385826},{"number":64,"time":223.42604166668266,"value":0.6141732283464567},{"number":64,"time":223.42708333334934,"value":0.6141732283464567},{"number":64,"time":223.45416666668268,"value":0.5826771653543307},{"number":64,"time":223.45416666668268,"value":0.5826771653543307},{"number":64,"time":223.47395833334934,"value":0.6141732283464567},{"number":64,"time":223.47500000001602,"value":0.6141732283464567},{"number":64,"time":223.48541666668268,"value":0.6456692913385826},{"number":64,"time":223.48645833334936,"value":0.6456692913385826},{"number":64,"time":223.50208333334936,"value":0.7795275590551181},{"number":64,"time":223.50312500001604,"value":0.7795275590551181},{"number":64,"time":223.51770833334936,"value":0.889763779527559},{"number":64,"time":223.51875000001604,"value":0.889763779527559},{"number":64,"time":223.55312500001605,"value":1},{"number":64,"time":223.55416666668273,"value":1},{"number":64,"time":223.95729166668272,"value":0.8661417322834646},{"number":64,"time":223.9583333333494,"value":0.8661417322834646},{"number":64,"time":223.96979166668274,"value":0.7322834645669292},{"number":64,"time":223.97083333334942,"value":0.7322834645669292},{"number":64,"time":223.97916666668274,"value":0.6299212598425197},{"number":64,"time":223.98020833334942,"value":0.6299212598425197},{"number":64,"time":223.9812500000161,"value":0.5984251968503937},{"number":64,"time":223.98229166668278,"value":0.5984251968503937},{"number":64,"time":223.98958333334946,"value":0.5511811023622047},{"number":64,"time":223.98958333334946,"value":0.5511811023622047},{"number":64,"time":223.99375000001612,"value":0.5196850393700787},{"number":64,"time":223.9947916666828,"value":0.5196850393700787},{"number":64,"time":223.9979166666828,"value":0.4881889763779528},{"number":64,"time":223.9989583333495,"value":0.4881889763779528},{"number":64,"time":224.0052083333495,"value":0.3543307086614173},{"number":64,"time":224.00625000001617,"value":0.3543307086614173},{"number":64,"time":224.01354166668284,"value":0.25196850393700787},{"number":64,"time":224.01354166668284,"value":0.25196850393700787},{"number":64,"time":224.02604166668283,"value":0.14960629921259844},{"number":64,"time":224.02604166668283,"value":0.14960629921259844},{"number":64,"time":224.06562500001615,"value":0.25196850393700787},{"number":64,"time":224.06562500001615,"value":0.25196850393700787},{"number":64,"time":224.07395833334948,"value":0.3543307086614173},{"number":64,"time":224.07500000001616,"value":0.3543307086614173},{"number":64,"time":224.08125000001615,"value":0.47244094488188976},{"number":64,"time":224.08229166668283,"value":0.47244094488188976},{"number":64,"time":224.0895833333495,"value":0.5196850393700787},{"number":64,"time":224.0906250000162,"value":0.5196850393700787},{"number":64,"time":224.09791666668286,"value":0.5590551181102362},{"number":64,"time":224.09895833334954,"value":0.5590551181102362},{"number":64,"time":224.10520833334954,"value":0.5905511811023622},{"number":64,"time":224.10625000001622,"value":0.5905511811023622},{"number":64,"time":224.1135416666829,"value":0.6220472440944882},{"number":64,"time":224.1135416666829,"value":0.6220472440944882},{"number":64,"time":224.12604166668288,"value":0.7322834645669292},{"number":64,"time":224.12708333334956,"value":0.7322834645669292},{"number":64,"time":224.13437500001623,"value":0.8267716535433071},{"number":64,"time":224.13437500001623,"value":0.8267716535433071},{"number":64,"time":224.1447916666829,"value":0.937007874015748},{"number":64,"time":224.14583333334957,"value":0.937007874015748},{"number":64,"time":224.18958333334956,"value":1},{"number":64,"time":224.18958333334956,"value":1},{"number":64,"time":224.38854166668287,"value":0.8661417322834646},{"number":64,"time":224.38958333334955,"value":0.8661417322834646},{"number":64,"time":224.41250000001622,"value":0.7322834645669292},{"number":64,"time":224.4135416666829,"value":0.7322834645669292},{"number":64,"time":224.42083333334958,"value":0.6456692913385826},{"number":64,"time":224.42187500001626,"value":0.6456692913385826},{"number":64,"time":224.42916666668293,"value":0.6141732283464567},{"number":64,"time":224.4302083333496,"value":0.6141732283464567},{"number":64,"time":224.44166666668295,"value":0.5826771653543307},{"number":64,"time":224.44270833334963,"value":0.5826771653543307},{"number":64,"time":224.48958333334963,"value":0.6141732283464567},{"number":64,"time":224.48958333334963,"value":0.6141732283464567},{"number":64,"time":224.4968750000163,"value":0.6456692913385826},{"number":64,"time":224.49791666668298,"value":0.6456692913385826},{"number":64,"time":224.50937500001632,"value":0.7559055118110236},{"number":64,"time":224.510416666683,"value":0.7559055118110236},{"number":64,"time":224.52083333334966,"value":0.8503937007874016},{"number":64,"time":224.52187500001634,"value":0.8503937007874016},{"number":64,"time":224.66979166668298,"value":1},{"number":64,"time":224.66979166668298,"value":1},{"number":64,"time":224.844791666683,"value":0.8661417322834646},{"number":64,"time":224.84583333334967,"value":0.8661417322834646},{"number":64,"time":224.86145833334967,"value":0.7086614173228346},{"number":64,"time":224.86250000001635,"value":0.7086614173228346},{"number":64,"time":224.86666666668302,"value":0.6456692913385826},{"number":64,"time":224.8677083333497,"value":0.6456692913385826},{"number":64,"time":224.87291666668304,"value":0.5984251968503937},{"number":64,"time":224.87395833334972,"value":0.5984251968503937},{"number":64,"time":224.8802083333497,"value":0.5590551181102362},{"number":64,"time":224.8812500000164,"value":0.5590551181102362},{"number":64,"time":224.88958333334972,"value":0.5039370078740157},{"number":64,"time":224.8906250000164,"value":0.5039370078740157},{"number":64,"time":224.90104166668306,"value":0.4015748031496063},{"number":64,"time":224.90104166668306,"value":0.4015748031496063},{"number":64,"time":224.93645833334972,"value":0.47244094488188976},{"number":64,"time":224.93645833334972,"value":0.47244094488188976},{"number":64,"time":224.94479166668305,"value":0.5039370078740157},{"number":64,"time":224.94583333334973,"value":0.5039370078740157},{"number":64,"time":224.95208333334972,"value":0.5433070866141733},{"number":64,"time":224.9531250000164,"value":0.5433070866141733},{"number":64,"time":224.96041666668307,"value":0.5748031496062992},{"number":64,"time":224.96041666668307,"value":0.5748031496062992},{"number":64,"time":224.97291666668306,"value":0.6141732283464567},{"number":64,"time":224.97395833334974,"value":0.6141732283464567},{"number":64,"time":224.9843750000164,"value":0.7322834645669292},{"number":64,"time":224.98541666668308,"value":0.7322834645669292},{"number":64,"time":224.99270833334975,"value":0.8503937007874016},{"number":64,"time":224.99375000001643,"value":0.8503937007874016},{"number":64,"time":225.00520833334977,"value":1},{"number":64,"time":225.00520833334977,"value":1},{"number":64,"time":225.32083333334978,"value":0.8661417322834646},{"number":64,"time":225.32187500001646,"value":0.8661417322834646},{"number":64,"time":225.34062500001647,"value":0.7322834645669292},{"number":64,"time":225.34166666668315,"value":0.7322834645669292},{"number":64,"time":225.35000000001648,"value":0.6535433070866141},{"number":64,"time":225.35104166668316,"value":0.6535433070866141},{"number":64,"time":225.3562500000165,"value":0.6141732283464567},{"number":64,"time":225.35729166668318,"value":0.6141732283464567},{"number":64,"time":225.36875000001652,"value":0.5826771653543307},{"number":64,"time":225.3697916666832,"value":0.5826771653543307},{"number":64,"time":225.4166666666832,"value":0.6141732283464567},{"number":64,"time":225.41770833334988,"value":0.6141732283464567},{"number":64,"time":225.42500000001655,"value":0.6456692913385826},{"number":64,"time":225.42500000001655,"value":0.6456692913385826},{"number":64,"time":225.4364583333499,"value":0.7559055118110236},{"number":64,"time":225.43750000001657,"value":0.7559055118110236},{"number":64,"time":225.4489583333499,"value":0.8661417322834646},{"number":64,"time":225.4500000000166,"value":0.8661417322834646},{"number":64,"time":225.46875000001657,"value":1},{"number":64,"time":225.46979166668325,"value":1},{"number":64,"time":225.7802083333499,"value":0.8661417322834646},{"number":64,"time":225.78125000001657,"value":0.8661417322834646},{"number":64,"time":225.7927083333499,"value":0.7559055118110236},{"number":64,"time":225.7937500000166,"value":0.7559055118110236},{"number":64,"time":225.8020833333499,"value":0.6377952755905512},{"number":64,"time":225.8020833333499,"value":0.6377952755905512},{"number":64,"time":225.80416666668324,"value":0.6062992125984252},{"number":64,"time":225.80520833334992,"value":0.6062992125984252},{"number":64,"time":225.8125000000166,"value":0.5590551181102362},{"number":64,"time":225.81354166668328,"value":0.5590551181102362},{"number":64,"time":225.82083333334995,"value":0.49606299212598426},{"number":64,"time":225.82187500001663,"value":0.49606299212598426},{"number":64,"time":225.82812500001663,"value":0.3779527559055118},{"number":64,"time":225.8291666666833,"value":0.3779527559055118},{"number":64,"time":225.83645833334998,"value":0.25196850393700787},{"number":64,"time":225.83750000001666,"value":0.25196850393700787},{"number":64,"time":225.88854166668335,"value":0.3779527559055118},{"number":64,"time":225.88958333335003,"value":0.3779527559055118},{"number":64,"time":225.8968750000167,"value":0.47244094488188976},{"number":64,"time":225.8968750000167,"value":0.47244094488188976},{"number":64,"time":225.90416666668338,"value":0.5196850393700787},{"number":64,"time":225.90520833335006,"value":0.5196850393700787},{"number":64,"time":225.91250000001673,"value":0.5590551181102362},{"number":64,"time":225.91354166668341,"value":0.5590551181102362},{"number":64,"time":225.92395833335007,"value":0.5984251968503937},{"number":64,"time":225.92500000001675,"value":0.5984251968503937},{"number":64,"time":225.93229166668343,"value":0.6377952755905512},{"number":64,"time":225.9333333333501,"value":0.6377952755905512},{"number":64,"time":225.94479166668344,"value":0.7795275590551181},{"number":64,"time":225.94583333335012,"value":0.7795275590551181},{"number":64,"time":225.96145833335012,"value":0.889763779527559},{"number":64,"time":225.9625000000168,"value":0.889763779527559},{"number":64,"time":226.0447916666835,"value":1},{"number":64,"time":226.04583333335017,"value":1},{"number":64,"time":226.22812500001683,"value":0.8661417322834646},{"number":64,"time":226.2291666666835,"value":0.8661417322834646},{"number":64,"time":226.24895833335017,"value":0.7322834645669292},{"number":64,"time":226.24895833335017,"value":0.7322834645669292},{"number":64,"time":226.25625000001685,"value":0.6456692913385826},{"number":64,"time":226.25729166668353,"value":0.6456692913385826},{"number":64,"time":226.2645833333502,"value":0.6062992125984252},{"number":64,"time":226.26562500001688,"value":0.6062992125984252},{"number":64,"time":226.27291666668356,"value":0.5748031496062992},{"number":64,"time":226.27291666668356,"value":0.5748031496062992},{"number":64,"time":226.2843750000169,"value":0.5433070866141733},{"number":64,"time":226.28541666668357,"value":0.5433070866141733},{"number":64,"time":226.3281250000169,"value":0.5826771653543307},{"number":64,"time":226.3291666666836,"value":0.5826771653543307},{"number":64,"time":226.34062500001693,"value":0.6141732283464567},{"number":64,"time":226.3416666666836,"value":0.6141732283464567},{"number":64,"time":226.34895833335028,"value":0.6535433070866141},{"number":64,"time":226.35000000001696,"value":0.6535433070866141},{"number":64,"time":226.35625000001698,"value":0.7559055118110236},{"number":64,"time":226.35729166668366,"value":0.7559055118110236},{"number":64,"time":226.368750000017,"value":0.8661417322834646},{"number":64,"time":226.36979166668368,"value":0.8661417322834646},{"number":64,"time":226.52083333335034,"value":1},{"number":64,"time":226.52187500001702,"value":1},{"number":64,"time":226.700000000017,"value":0.8661417322834646},{"number":64,"time":226.7010416666837,"value":0.8661417322834646},{"number":64,"time":226.7166666666837,"value":0.7559055118110236},{"number":64,"time":226.71770833335037,"value":0.7559055118110236},{"number":64,"time":226.72500000001705,"value":0.6377952755905512},{"number":64,"time":226.72500000001705,"value":0.6377952755905512},{"number":64,"time":226.73333333335037,"value":0.5984251968503937},{"number":64,"time":226.73437500001705,"value":0.5984251968503937},{"number":64,"time":226.74062500001705,"value":0.5590551181102362},{"number":64,"time":226.74166666668373,"value":0.5590551181102362},{"number":64,"time":226.7489583333504,"value":0.5118110236220472},{"number":64,"time":226.7489583333504,"value":0.5118110236220472},{"number":64,"time":226.75625000001708,"value":0.47244094488188976},{"number":64,"time":226.75729166668376,"value":0.47244094488188976},{"number":64,"time":226.8000000000171,"value":0.5039370078740157},{"number":64,"time":226.80208333335042,"value":0.5039370078740157},{"number":64,"time":226.81145833335043,"value":0.5433070866141733},{"number":64,"time":226.81145833335043,"value":0.5433070866141733},{"number":64,"time":226.81979166668376,"value":0.5748031496062992},{"number":64,"time":226.82083333335044,"value":0.5748031496062992},{"number":64,"time":226.83229166668377,"value":0.6141732283464567},{"number":64,"time":226.83333333335045,"value":0.6141732283464567},{"number":64,"time":226.83958333335048,"value":0.6535433070866141},{"number":64,"time":226.84062500001716,"value":0.6535433070866141},{"number":64,"time":226.84791666668383,"value":0.7559055118110236},{"number":64,"time":226.8489583333505,"value":0.7559055118110236},{"number":64,"time":226.8552083333505,"value":0.8503937007874016},{"number":64,"time":226.85625000001718,"value":0.8503937007874016},{"number":64,"time":226.93541666668384,"value":1},{"number":64,"time":226.93645833335052,"value":1},{"number":64,"time":227.16354166668387,"value":0.8661417322834646},{"number":64,"time":227.16458333335055,"value":0.8661417322834646},{"number":64,"time":227.19375000001722,"value":0.7559055118110236},{"number":64,"time":227.1947916666839,"value":0.7559055118110236},{"number":64,"time":227.25520833335057,"value":0.8503937007874016},{"number":64,"time":227.25625000001725,"value":0.8503937007874016},{"number":64,"time":227.31979166668393,"value":1},{"number":64,"time":227.3208333333506,"value":1},{"number":64,"time":227.84375000001728,"value":0.8661417322834646},{"number":64,"time":227.84479166668396,"value":0.8661417322834646},{"number":64,"time":227.85520833335062,"value":0.7559055118110236},{"number":64,"time":227.8562500000173,"value":0.7559055118110236},{"number":64,"time":227.86458333335062,"value":0.6377952755905512},{"number":64,"time":227.8656250000173,"value":0.6377952755905512},{"number":64,"time":227.8718750000173,"value":0.5905511811023622},{"number":64,"time":227.87291666668398,"value":0.5905511811023622},{"number":64,"time":227.87916666668397,"value":0.5354330708661418},{"number":64,"time":227.88020833335065,"value":0.5354330708661418},{"number":64,"time":227.88333333335066,"value":0.5039370078740157},{"number":64,"time":227.88333333335066,"value":0.5039370078740157},{"number":64,"time":227.88750000001733,"value":0.47244094488188976},{"number":64,"time":227.888541666684,"value":0.47244094488188976},{"number":64,"time":227.89583333335068,"value":0.33070866141732286},{"number":64,"time":227.89583333335068,"value":0.33070866141732286},{"number":64,"time":227.90729166668402,"value":0.2283464566929134},{"number":64,"time":227.9083333333507,"value":0.2283464566929134},{"number":64,"time":227.95937500001736,"value":0.33070866141732286},{"number":64,"time":227.95937500001736,"value":0.33070866141732286},{"number":64,"time":227.97187500001735,"value":0.47244094488188976},{"number":64,"time":227.97187500001735,"value":0.47244094488188976},{"number":64,"time":227.97916666668402,"value":0.5118110236220472},{"number":64,"time":227.9802083333507,"value":0.5118110236220472},{"number":64,"time":227.98854166668403,"value":0.5511811023622047},{"number":64,"time":227.9895833333507,"value":0.5511811023622047},{"number":64,"time":227.9989583333507,"value":0.5905511811023622},{"number":64,"time":228.0000000000174,"value":0.5905511811023622},{"number":64,"time":228.01145833335073,"value":0.6377952755905512},{"number":64,"time":228.01145833335073,"value":0.6377952755905512},{"number":64,"time":228.01979166668406,"value":0.7322834645669292},{"number":64,"time":228.02083333335074,"value":0.7322834645669292},{"number":64,"time":228.0312500000174,"value":0.8267716535433071},{"number":64,"time":228.03229166668407,"value":0.8267716535433071},{"number":64,"time":228.11145833335075,"value":0.937007874015748},{"number":64,"time":228.11145833335075,"value":0.937007874015748},{"number":64,"time":228.18750000001742,"value":1},{"number":64,"time":228.1885416666841,"value":1},{"number":64,"time":228.3395833333508,"value":0.8661417322834646},{"number":64,"time":228.34062500001747,"value":0.8661417322834646},{"number":64,"time":228.3552083333508,"value":0.7559055118110236},{"number":64,"time":228.35625000001747,"value":0.7559055118110236},{"number":64,"time":228.36354166668414,"value":0.6614173228346457},{"number":64,"time":228.36458333335082,"value":0.6614173228346457},{"number":64,"time":228.3718750000175,"value":0.6220472440944882},{"number":64,"time":228.37291666668418,"value":0.6220472440944882},{"number":64,"time":228.37916666668417,"value":0.5905511811023622},{"number":64,"time":228.38020833335085,"value":0.5905511811023622},{"number":64,"time":228.39583333335085,"value":0.5590551181102362},{"number":64,"time":228.39583333335085,"value":0.5590551181102362},{"number":64,"time":228.43541666668418,"value":0.5984251968503937},{"number":64,"time":228.43645833335086,"value":0.5984251968503937},{"number":64,"time":228.4479166666842,"value":0.6377952755905512},{"number":64,"time":228.4479166666842,"value":0.6377952755905512},{"number":64,"time":228.45937500001753,"value":0.7559055118110236},{"number":64,"time":228.45937500001753,"value":0.7559055118110236},{"number":64,"time":228.47187500001752,"value":0.8661417322834646},{"number":64,"time":228.4729166666842,"value":0.8661417322834646},{"number":64,"time":228.53958333335086,"value":1},{"number":64,"time":228.54062500001754,"value":1},{"number":64,"time":228.73125000001755,"value":0.8661417322834646},{"number":64,"time":228.73125000001755,"value":0.8661417322834646},{"number":64,"time":228.74791666668423,"value":0.7559055118110236},{"number":64,"time":228.7489583333509,"value":0.7559055118110236},{"number":64,"time":228.7562500000176,"value":0.6614173228346457},{"number":64,"time":228.75729166668427,"value":0.6614173228346457},{"number":64,"time":228.76354166668426,"value":0.6141732283464567},{"number":64,"time":228.76458333335094,"value":0.6141732283464567},{"number":64,"time":228.77187500001762,"value":0.5826771653543307},{"number":64,"time":228.77187500001762,"value":0.5826771653543307},{"number":64,"time":228.78333333335095,"value":0.5433070866141733},{"number":64,"time":228.78333333335095,"value":0.5433070866141733},{"number":64,"time":228.79583333335094,"value":0.5118110236220472},{"number":64,"time":228.79687500001762,"value":0.5118110236220472},{"number":64,"time":228.8354166666843,"value":0.5511811023622047},{"number":64,"time":228.83645833335098,"value":0.5511811023622047},{"number":64,"time":228.8479166666843,"value":0.5826771653543307},{"number":64,"time":228.8479166666843,"value":0.5826771653543307},{"number":64,"time":228.85937500001765,"value":0.6220472440944882},{"number":64,"time":228.86041666668433,"value":0.6220472440944882},{"number":64,"time":228.87500000001765,"value":0.7795275590551181},{"number":64,"time":228.87604166668433,"value":0.7795275590551181},{"number":64,"time":228.89166666668433,"value":0.889763779527559},{"number":64,"time":228.892708333351,"value":0.889763779527559},{"number":64,"time":228.95937500001767,"value":1},{"number":64,"time":228.96041666668435,"value":1},{"number":64,"time":229.15104166668434,"value":0.8661417322834646},{"number":64,"time":229.15208333335102,"value":0.8661417322834646},{"number":64,"time":229.17187500001768,"value":0.7559055118110236},{"number":64,"time":229.17187500001768,"value":0.7559055118110236},{"number":64,"time":229.18333333335102,"value":0.6535433070866141},{"number":64,"time":229.1843750000177,"value":0.6535433070866141},{"number":64,"time":229.19166666668437,"value":0.6220472440944882},{"number":64,"time":229.19270833335105,"value":0.6220472440944882},{"number":64,"time":229.2031250000177,"value":0.5905511811023622},{"number":64,"time":229.2041666666844,"value":0.5905511811023622},{"number":64,"time":229.24687500001772,"value":0.6299212598425197},{"number":64,"time":229.2479166666844,"value":0.6299212598425197},{"number":64,"time":229.2635416666844,"value":0.7322834645669292},{"number":64,"time":229.26458333335108,"value":0.7322834645669292},{"number":64,"time":229.2739583333511,"value":0.8503937007874016},{"number":64,"time":229.27500000001777,"value":0.8503937007874016},{"number":64,"time":229.41562500001777,"value":1},{"number":64,"time":229.41666666668445,"value":1},{"number":64,"time":229.61041666668444,"value":0.8661417322834646},{"number":64,"time":229.61145833335112,"value":0.8661417322834646},{"number":64,"time":229.63020833335113,"value":0.7322834645669292},{"number":64,"time":229.63125000001781,"value":0.7322834645669292},{"number":64,"time":229.64270833335115,"value":0.6456692913385826},{"number":64,"time":229.64375000001783,"value":0.6456692913385826},{"number":64,"time":229.6510416666845,"value":0.6062992125984252},{"number":64,"time":229.6520833333512,"value":0.6062992125984252},{"number":64,"time":229.66666666668453,"value":0.5669291338582677},{"number":64,"time":229.66770833335121,"value":0.5669291338582677},{"number":64,"time":229.70208333335123,"value":0.5984251968503937},{"number":64,"time":229.7031250000179,"value":0.5984251968503937},{"number":64,"time":229.71458333335124,"value":0.6299212598425197},{"number":64,"time":229.71562500001792,"value":0.6299212598425197},{"number":64,"time":229.73020833335124,"value":0.7559055118110236},{"number":64,"time":229.73125000001792,"value":0.7559055118110236},{"number":64,"time":229.74270833335126,"value":0.8661417322834646},{"number":64,"time":229.74375000001794,"value":0.8661417322834646},{"number":64,"time":229.81145833335128,"value":1},{"number":64,"time":229.81250000001796,"value":1},{"number":64,"time":230.06250000001796,"value":0.8661417322834646},{"number":64,"time":230.06354166668464,"value":0.8661417322834646},{"number":64,"time":230.08645833335132,"value":0.7322834645669292},{"number":64,"time":230.087500000018,"value":0.7322834645669292},{"number":64,"time":230.09791666668465,"value":0.6456692913385826},{"number":64,"time":230.10000000001799,"value":0.6456692913385826},{"number":64,"time":230.11041666668464,"value":0.6141732283464567},{"number":64,"time":230.11145833335132,"value":0.6141732283464567},{"number":64,"time":230.13125000001799,"value":0.5826771653543307},{"number":64,"time":230.13125000001799,"value":0.5826771653543307},{"number":64,"time":230.15833333335132,"value":0.6220472440944882},{"number":64,"time":230.159375000018,"value":0.6220472440944882},{"number":64,"time":230.178125000018,"value":0.7322834645669292},{"number":64,"time":230.1791666666847,"value":0.7322834645669292},{"number":64,"time":230.19062500001803,"value":0.8267716535433071},{"number":64,"time":230.19062500001803,"value":0.8267716535433071},{"number":64,"time":230.2104166666847,"value":0.937007874015748},{"number":64,"time":230.21145833335137,"value":0.937007874015748},{"number":64,"time":230.21875000001805,"value":1},{"number":64,"time":230.21979166668473,"value":1},{"number":64,"time":230.49062500001804,"value":0.8661417322834646},{"number":64,"time":230.49166666668472,"value":0.8661417322834646},{"number":64,"time":230.51041666668473,"value":0.7322834645669292},{"number":64,"time":230.5114583333514,"value":0.7322834645669292},{"number":64,"time":230.5187500000181,"value":0.6456692913385826},{"number":64,"time":230.5187500000181,"value":0.6456692913385826},{"number":64,"time":230.5270833333514,"value":0.6141732283464567},{"number":64,"time":230.5270833333514,"value":0.6141732283464567},{"number":64,"time":230.5343750000181,"value":0.5826771653543307},{"number":64,"time":230.53541666668477,"value":0.5826771653543307},{"number":64,"time":230.5500000000181,"value":0.5511811023622047},{"number":64,"time":230.55104166668477,"value":0.5511811023622047},{"number":64,"time":230.5906250000181,"value":0.5826771653543307},{"number":64,"time":230.59166666668477,"value":0.5826771653543307},{"number":64,"time":230.60208333335143,"value":0.6141732283464567},{"number":64,"time":230.6031250000181,"value":0.6141732283464567},{"number":64,"time":230.61041666668478,"value":0.6456692913385826},{"number":64,"time":230.61145833335146,"value":0.6456692913385826},{"number":64,"time":230.62187500001812,"value":0.7795275590551181},{"number":64,"time":230.6229166666848,"value":0.7795275590551181},{"number":64,"time":230.6385416666848,"value":0.889763779527559},{"number":64,"time":230.6385416666848,"value":0.889763779527559},{"number":64,"time":230.70625000001814,"value":1},{"number":64,"time":230.70729166668482,"value":1},{"number":64,"time":230.92187500001816,"value":0.8661417322834646},{"number":64,"time":230.92291666668484,"value":0.8661417322834646},{"number":64,"time":230.94687500001817,"value":0.7322834645669292},{"number":64,"time":230.94687500001817,"value":0.7322834645669292},{"number":64,"time":230.9583333333515,"value":0.6456692913385826},{"number":64,"time":230.95937500001818,"value":0.6456692913385826},{"number":64,"time":230.97083333335152,"value":0.6141732283464567},{"number":64,"time":230.97083333335152,"value":0.6141732283464567},{"number":64,"time":231.01875000001817,"value":0.6456692913385826},{"number":64,"time":231.01875000001817,"value":0.6456692913385826},{"number":64,"time":231.03437500001817,"value":0.7559055118110236},{"number":64,"time":231.03541666668485,"value":0.7559055118110236},{"number":64,"time":231.0468750000182,"value":0.8503937007874016},{"number":64,"time":231.0468750000182,"value":0.8503937007874016},{"number":64,"time":231.12604166668487,"value":1},{"number":64,"time":231.12708333335155,"value":1},{"number":64,"time":231.41041666668488,"value":0.8661417322834646},{"number":64,"time":231.41145833335156,"value":0.8661417322834646},{"number":64,"time":231.42187500001822,"value":0.7559055118110236},{"number":64,"time":231.4229166666849,"value":0.7559055118110236},{"number":64,"time":231.4291666666849,"value":0.6535433070866141},{"number":64,"time":231.4291666666849,"value":0.6535433070866141},{"number":64,"time":231.4354166666849,"value":0.6220472440944882},{"number":64,"time":231.43645833335157,"value":0.6220472440944882},{"number":64,"time":231.44270833335156,"value":0.5826771653543307},{"number":64,"time":231.44375000001824,"value":0.5826771653543307},{"number":64,"time":231.45000000001824,"value":0.5433070866141733},{"number":64,"time":231.45104166668492,"value":0.5433070866141733},{"number":64,"time":231.4583333333516,"value":0.49606299212598426},{"number":64,"time":231.45937500001827,"value":0.49606299212598426},{"number":64,"time":231.4739583333516,"value":0.4015748031496063},{"number":64,"time":231.47500000001827,"value":0.4015748031496063},{"number":64,"time":231.49375000001828,"value":0.47244094488188976},{"number":64,"time":231.49479166668496,"value":0.47244094488188976},{"number":64,"time":231.5062500000183,"value":0.5118110236220472},{"number":64,"time":231.50729166668498,"value":0.5118110236220472},{"number":64,"time":231.51458333335165,"value":0.5433070866141733},{"number":64,"time":231.51562500001833,"value":0.5433070866141733},{"number":64,"time":231.52500000001834,"value":0.5826771653543307},{"number":64,"time":231.52604166668502,"value":0.5826771653543307},{"number":64,"time":231.538541666685,"value":0.6299212598425197},{"number":64,"time":231.5395833333517,"value":0.6299212598425197},{"number":64,"time":231.55000000001834,"value":0.7559055118110236},{"number":64,"time":231.55104166668502,"value":0.7559055118110236},{"number":64,"time":231.55729166668502,"value":0.8503937007874016},{"number":64,"time":231.5583333333517,"value":0.8503937007874016},{"number":64,"time":231.56979166668503,"value":1},{"number":64,"time":231.57187500001837,"value":1},{"number":64,"time":231.85416666668502,"value":0.8661417322834646},{"number":64,"time":231.85416666668502,"value":0.8661417322834646},{"number":64,"time":231.87500000001836,"value":0.7322834645669292},{"number":64,"time":231.87604166668504,"value":0.7322834645669292},{"number":64,"time":231.88333333335171,"value":0.6456692913385826},{"number":64,"time":231.88333333335171,"value":0.6456692913385826},{"number":64,"time":231.8906250000184,"value":0.6062992125984252},{"number":64,"time":231.89166666668507,"value":0.6062992125984252},{"number":64,"time":231.90208333335173,"value":0.5748031496062992},{"number":64,"time":231.9031250000184,"value":0.5748031496062992},{"number":64,"time":231.9187500000184,"value":0.5433070866141733},{"number":64,"time":231.9187500000184,"value":0.5433070866141733},{"number":64,"time":231.94583333335174,"value":0.5748031496062992},{"number":64,"time":231.94687500001842,"value":0.5748031496062992},{"number":64,"time":231.95729166668508,"value":0.6062992125984252},{"number":64,"time":231.95833333335176,"value":0.6062992125984252},{"number":64,"time":231.9666666666851,"value":0.6377952755905512},{"number":64,"time":231.9666666666851,"value":0.6377952755905512},{"number":64,"time":231.97708333335174,"value":0.7795275590551181},{"number":64,"time":231.97812500001842,"value":0.7795275590551181},{"number":64,"time":231.99375000001842,"value":0.889763779527559},{"number":64,"time":231.99375000001842,"value":0.889763779527559},{"number":64,"time":232.0531250000184,"value":1},{"number":64,"time":232.0541666666851,"value":1},{"number":64,"time":232.29270833335175,"value":0.8661417322834646},{"number":64,"time":232.29270833335175,"value":0.8661417322834646},{"number":64,"time":232.31770833335176,"value":0.7322834645669292},{"number":64,"time":232.31875000001844,"value":0.7322834645669292},{"number":64,"time":232.32395833335178,"value":0.6535433070866141},{"number":64,"time":232.32500000001846,"value":0.6535433070866141},{"number":64,"time":232.3333333333518,"value":0.6141732283464567},{"number":64,"time":232.3333333333518,"value":0.6141732283464567},{"number":64,"time":232.34583333335178,"value":0.5826771653543307},{"number":64,"time":232.34583333335178,"value":0.5826771653543307},{"number":64,"time":232.40937500001846,"value":0.6141732283464567},{"number":64,"time":232.41041666668514,"value":0.6141732283464567},{"number":64,"time":232.4177083333518,"value":0.6535433070866141},{"number":64,"time":232.4177083333518,"value":0.6535433070866141},{"number":64,"time":232.42916666668515,"value":0.8031496062992126},{"number":64,"time":232.43020833335183,"value":0.8031496062992126},{"number":64,"time":232.44583333335183,"value":0.9133858267716536},{"number":64,"time":232.44583333335183,"value":0.9133858267716536},{"number":64,"time":232.45625000001849,"value":1},{"number":64,"time":232.45729166668517,"value":1},{"number":64,"time":232.73229166668514,"value":0.8661417322834646},{"number":64,"time":232.73333333335182,"value":0.8661417322834646},{"number":64,"time":232.74791666668514,"value":0.7322834645669292},{"number":64,"time":232.74895833335182,"value":0.7322834645669292},{"number":64,"time":232.7562500000185,"value":0.6456692913385826},{"number":64,"time":232.75729166668518,"value":0.6456692913385826},{"number":64,"time":232.76666666668518,"value":0.6062992125984252},{"number":64,"time":232.76666666668518,"value":0.6062992125984252},{"number":64,"time":232.77291666668518,"value":0.5748031496062992},{"number":64,"time":232.77395833335186,"value":0.5748031496062992},{"number":64,"time":232.78020833335185,"value":0.5433070866141733},{"number":64,"time":232.78125000001853,"value":0.5433070866141733},{"number":64,"time":232.79270833335187,"value":0.5118110236220472},{"number":64,"time":232.79270833335187,"value":0.5118110236220472},{"number":64,"time":232.82395833335187,"value":0.5433070866141733},{"number":64,"time":232.82500000001855,"value":0.5433070866141733},{"number":64,"time":232.83645833335189,"value":0.5748031496062992},{"number":64,"time":232.83750000001857,"value":0.5748031496062992},{"number":64,"time":232.84791666668522,"value":0.6062992125984252},{"number":64,"time":232.8489583333519,"value":0.6062992125984252},{"number":64,"time":232.85625000001858,"value":0.6377952755905512},{"number":64,"time":232.85729166668526,"value":0.6377952755905512},{"number":64,"time":232.86458333335193,"value":0.7322834645669292},{"number":64,"time":232.8656250000186,"value":0.7322834645669292},{"number":64,"time":232.87708333335195,"value":0.8267716535433071},{"number":64,"time":232.87812500001863,"value":0.8267716535433071},{"number":64,"time":232.89270833335198,"value":0.937007874015748},{"number":64,"time":232.89375000001866,"value":0.937007874015748},{"number":64,"time":233.01979166668534,"value":1},{"number":64,"time":233.02083333335202,"value":1},{"number":64,"time":233.21250000001868,"value":0.8661417322834646},{"number":64,"time":233.21354166668536,"value":0.8661417322834646},{"number":64,"time":233.23645833335203,"value":0.7322834645669292},{"number":64,"time":233.2375000000187,"value":0.7322834645669292},{"number":64,"time":233.2437500000187,"value":0.6535433070866141},{"number":64,"time":233.2447916666854,"value":0.6535433070866141},{"number":64,"time":233.25625000001872,"value":0.6141732283464567},{"number":64,"time":233.25625000001872,"value":0.6141732283464567},{"number":64,"time":233.2729166666854,"value":0.5826771653543307},{"number":64,"time":233.27395833335208,"value":0.5826771653543307},{"number":64,"time":233.31250000001876,"value":0.6220472440944882},{"number":64,"time":233.31354166668544,"value":0.6220472440944882},{"number":64,"time":233.33229166668545,"value":0.7559055118110236},{"number":64,"time":233.33229166668545,"value":0.7559055118110236},{"number":64,"time":233.3437500000188,"value":0.8661417322834646},{"number":64,"time":233.34479166668547,"value":0.8661417322834646},{"number":64,"time":233.36458333335213,"value":1},{"number":64,"time":233.36458333335213,"value":1},{"number":64,"time":233.58437500001884,"value":0.8661417322834646},{"number":64,"time":233.58541666668552,"value":0.8661417322834646},{"number":64,"time":233.60416666668553,"value":0.7086614173228346},{"number":64,"time":233.60416666668553,"value":0.7086614173228346},{"number":64,"time":233.61250000001885,"value":0.6456692913385826},{"number":64,"time":233.61354166668553,"value":0.6456692913385826},{"number":64,"time":233.61979166668553,"value":0.6062992125984252},{"number":64,"time":233.6208333333522,"value":0.6062992125984252},{"number":64,"time":233.63229166668555,"value":0.5748031496062992},{"number":64,"time":233.63333333335223,"value":0.5748031496062992},{"number":64,"time":233.65208333335224,"value":0.5354330708661418},{"number":64,"time":233.65208333335224,"value":0.5354330708661418},{"number":64,"time":233.68020833335223,"value":0.5669291338582677},{"number":64,"time":233.6812500000189,"value":0.5669291338582677},{"number":64,"time":233.69166666668556,"value":0.5984251968503937},{"number":64,"time":233.69270833335224,"value":0.5984251968503937},{"number":64,"time":233.70416666668558,"value":0.6377952755905512},{"number":64,"time":233.70520833335226,"value":0.6377952755905512},{"number":64,"time":233.7166666666856,"value":0.7559055118110236},{"number":64,"time":233.71770833335228,"value":0.7559055118110236},{"number":64,"time":233.72812500001893,"value":0.8661417322834646},{"number":64,"time":233.72916666668561,"value":0.8661417322834646},{"number":64,"time":233.90000000001893,"value":1},{"number":64,"time":233.90000000001893,"value":1},{"number":64,"time":234.07187500001893,"value":0.8661417322834646},{"number":64,"time":234.07291666668561,"value":0.8661417322834646},{"number":64,"time":234.09166666668563,"value":0.7559055118110236},{"number":64,"time":234.0927083333523,"value":0.7559055118110236},{"number":64,"time":234.10000000001898,"value":0.6614173228346457},{"number":64,"time":234.10104166668566,"value":0.6614173228346457},{"number":64,"time":234.10833333335233,"value":0.6220472440944882},{"number":64,"time":234.109375000019,"value":0.6220472440944882},{"number":64,"time":234.11979166668567,"value":0.5905511811023622},{"number":64,"time":234.12083333335235,"value":0.5905511811023622},{"number":64,"time":234.13645833335235,"value":0.5590551181102362},{"number":64,"time":234.13750000001903,"value":0.5590551181102362},{"number":64,"time":234.17187500001904,"value":0.5905511811023622},{"number":64,"time":234.17291666668572,"value":0.5905511811023622},{"number":64,"time":234.18854166668572,"value":0.6299212598425197},{"number":64,"time":234.18854166668572,"value":0.6299212598425197},{"number":64,"time":234.20000000001906,"value":0.7322834645669292},{"number":64,"time":234.20104166668574,"value":0.7322834645669292},{"number":64,"time":234.21250000001908,"value":0.8267716535433071},{"number":64,"time":234.21354166668576,"value":0.8267716535433071},{"number":64,"time":234.23229166668577,"value":0.937007874015748},{"number":64,"time":234.23333333335245,"value":0.937007874015748},{"number":64,"time":234.3885416666858,"value":1},{"number":64,"time":234.38958333335248,"value":1},{"number":64,"time":235.0562500000191,"value":0.8661417322834646},{"number":64,"time":235.05729166668579,"value":0.8661417322834646},{"number":64,"time":235.07083333335245,"value":0.7322834645669292},{"number":64,"time":235.07187500001913,"value":0.7322834645669292},{"number":64,"time":235.08020833335246,"value":0.6377952755905512},{"number":64,"time":235.08125000001914,"value":0.6377952755905512},{"number":64,"time":235.08750000001913,"value":0.5905511811023622},{"number":64,"time":235.0885416666858,"value":0.5905511811023622},{"number":64,"time":235.0947916666858,"value":0.5590551181102362},{"number":64,"time":235.0958333333525,"value":0.5590551181102362},{"number":64,"time":235.10312500001916,"value":0.5039370078740157},{"number":64,"time":235.10416666668584,"value":0.5039370078740157},{"number":64,"time":235.11875000001916,"value":0.3779527559055118},{"number":64,"time":235.11979166668584,"value":0.3779527559055118},{"number":64,"time":235.16666666668584,"value":0.47244094488188976},{"number":64,"time":235.16875000001917,"value":0.47244094488188976},{"number":64,"time":235.17500000001917,"value":0.5039370078740157},{"number":64,"time":235.17604166668585,"value":0.5039370078740157},{"number":64,"time":235.18854166668584,"value":0.5433070866141733},{"number":64,"time":235.18854166668584,"value":0.5433070866141733},{"number":64,"time":235.19895833335252,"value":0.5748031496062992},{"number":64,"time":235.2000000000192,"value":0.5748031496062992},{"number":64,"time":235.2125000000192,"value":0.6062992125984252},{"number":64,"time":235.21354166668587,"value":0.6062992125984252},{"number":64,"time":235.2187500000192,"value":0.6456692913385826},{"number":64,"time":235.2197916666859,"value":0.6456692913385826},{"number":64,"time":235.23125000001923,"value":0.7795275590551181},{"number":64,"time":235.2322916666859,"value":0.7795275590551181},{"number":64,"time":235.25104166668592,"value":0.889763779527559},{"number":64,"time":235.25104166668592,"value":0.889763779527559},{"number":64,"time":235.34687500001922,"value":1},{"number":64,"time":235.3479166666859,"value":1},{"number":64,"time":235.51458333335256,"value":0.8661417322834646},{"number":64,"time":235.51562500001924,"value":0.8661417322834646},{"number":64,"time":235.5354166666859,"value":0.7559055118110236},{"number":64,"time":235.53645833335258,"value":0.7559055118110236},{"number":64,"time":235.54270833335258,"value":0.6614173228346457},{"number":64,"time":235.54375000001926,"value":0.6614173228346457},{"number":64,"time":235.55208333335258,"value":0.6299212598425197},{"number":64,"time":235.55208333335258,"value":0.6299212598425197},{"number":64,"time":235.56354166668592,"value":0.5905511811023622},{"number":64,"time":235.56354166668592,"value":0.5905511811023622},{"number":64,"time":235.6270833333526,"value":0.6299212598425197},{"number":64,"time":235.62812500001928,"value":0.6299212598425197},{"number":64,"time":235.6427083333526,"value":0.7322834645669292},{"number":64,"time":235.64375000001928,"value":0.7322834645669292},{"number":64,"time":235.65520833335262,"value":0.8267716535433071},{"number":64,"time":235.6562500000193,"value":0.8267716535433071},{"number":64,"time":235.6750000000193,"value":0.937007874015748},{"number":64,"time":235.6750000000193,"value":0.937007874015748},{"number":64,"time":235.73958333335264,"value":1},{"number":64,"time":235.73958333335264,"value":1},{"number":64,"time":235.93541666668594,"value":0.8661417322834646},{"number":64,"time":235.93645833335262,"value":0.8661417322834646},{"number":64,"time":235.9593750000193,"value":0.7322834645669292},{"number":64,"time":235.96041666668597,"value":0.7322834645669292},{"number":64,"time":235.97083333335263,"value":0.6456692913385826},{"number":64,"time":235.9718750000193,"value":0.6456692913385826},{"number":64,"time":235.98333333335265,"value":0.6141732283464567},{"number":64,"time":235.98437500001933,"value":0.6141732283464567},{"number":64,"time":236.03125000001933,"value":0.6456692913385826},{"number":64,"time":236.032291666686,"value":0.6456692913385826},{"number":64,"time":236.04270833335266,"value":0.7559055118110236},{"number":64,"time":236.04375000001934,"value":0.7559055118110236},{"number":64,"time":236.05937500001934,"value":0.8661417322834646},{"number":64,"time":236.06041666668602,"value":0.8661417322834646},{"number":64,"time":236.19479166668603,"value":1},{"number":64,"time":236.1958333333527,"value":1},{"number":64,"time":236.36666666668603,"value":0.8661417322834646},{"number":64,"time":236.3677083333527,"value":0.8661417322834646},{"number":64,"time":236.39062500001938,"value":0.7322834645669292},{"number":64,"time":236.39166666668606,"value":0.7322834645669292},{"number":64,"time":236.39895833335274,"value":0.6535433070866141},{"number":64,"time":236.39895833335274,"value":0.6535433070866141},{"number":64,"time":236.40729166668606,"value":0.6220472440944882},{"number":64,"time":236.40833333335274,"value":0.6220472440944882},{"number":64,"time":236.4187500000194,"value":0.5905511811023622},{"number":64,"time":236.41979166668608,"value":0.5905511811023622},{"number":64,"time":236.47083333335274,"value":0.6220472440944882},{"number":64,"time":236.47187500001942,"value":0.6220472440944882},{"number":64,"time":236.4791666666861,"value":0.6535433070866141},{"number":64,"time":236.4791666666861,"value":0.6535433070866141},{"number":64,"time":236.4916666666861,"value":0.7795275590551181},{"number":64,"time":236.49270833335277,"value":0.7795275590551181},{"number":64,"time":236.51145833335278,"value":0.889763779527559},{"number":64,"time":236.51250000001946,"value":0.889763779527559},{"number":64,"time":236.69479166668614,"value":1},{"number":64,"time":236.69583333335282,"value":1},{"number":64,"time":236.84270833335285,"value":0.8661417322834646},{"number":64,"time":236.84375000001953,"value":0.8661417322834646},{"number":64,"time":236.8635416666862,"value":0.7322834645669292},{"number":64,"time":236.8635416666862,"value":0.7322834645669292},{"number":64,"time":236.87083333335286,"value":0.6456692913385826},{"number":64,"time":236.87187500001954,"value":0.6456692913385826},{"number":64,"time":236.87916666668622,"value":0.6141732283464567},{"number":64,"time":236.8802083333529,"value":0.6141732283464567},{"number":64,"time":236.89062500001955,"value":0.5748031496062992},{"number":64,"time":236.89166666668623,"value":0.5748031496062992},{"number":64,"time":236.9114583333529,"value":0.5433070866141733},{"number":64,"time":236.91250000001958,"value":0.5433070866141733},{"number":64,"time":236.9395833333529,"value":0.5748031496062992},{"number":64,"time":236.9395833333529,"value":0.5748031496062992},{"number":64,"time":236.9552083333529,"value":0.6141732283464567},{"number":64,"time":236.9562500000196,"value":0.6141732283464567},{"number":64,"time":236.9708333333529,"value":0.7086614173228346},{"number":64,"time":236.9718750000196,"value":0.7086614173228346},{"number":64,"time":236.98333333335293,"value":0.8031496062992126},{"number":64,"time":236.9843750000196,"value":0.8031496062992126},{"number":64,"time":237.04270833335295,"value":0.9133858267716536},{"number":64,"time":237.04375000001963,"value":0.9133858267716536},{"number":64,"time":237.1510416666863,"value":1},{"number":64,"time":237.15208333335298,"value":1},{"number":64,"time":237.311458333353,"value":0.8661417322834646},{"number":64,"time":237.31250000001967,"value":0.8661417322834646},{"number":64,"time":237.33125000001965,"value":0.7322834645669292},{"number":64,"time":237.33229166668633,"value":0.7322834645669292},{"number":64,"time":237.339583333353,"value":0.6535433070866141},{"number":64,"time":237.34062500001968,"value":0.6535433070866141},{"number":64,"time":237.34687500001968,"value":0.6220472440944882},{"number":64,"time":237.34791666668636,"value":0.6220472440944882},{"number":64,"time":237.3593750000197,"value":0.5905511811023622},{"number":64,"time":237.3593750000197,"value":0.5905511811023622},{"number":64,"time":237.41041666668636,"value":0.6220472440944882},{"number":64,"time":237.41145833335304,"value":0.6220472440944882},{"number":64,"time":237.43020833335305,"value":0.7559055118110236},{"number":64,"time":237.43125000001973,"value":0.7559055118110236},{"number":64,"time":237.44270833335307,"value":0.8503937007874016},{"number":64,"time":237.44375000001975,"value":0.8503937007874016},{"number":64,"time":237.5708333333531,"value":1},{"number":64,"time":237.5718750000198,"value":1},{"number":64,"time":237.7625000000198,"value":0.8661417322834646},{"number":64,"time":237.76354166668648,"value":0.8661417322834646},{"number":64,"time":237.7822916666865,"value":0.7559055118110236},{"number":64,"time":237.78333333335317,"value":0.7559055118110236},{"number":64,"time":237.79062500001984,"value":0.6614173228346457},{"number":64,"time":237.79166666668652,"value":0.6614173228346457},{"number":64,"time":237.7989583333532,"value":0.6299212598425197},{"number":64,"time":237.80000000001988,"value":0.6299212598425197},{"number":64,"time":237.81041666668654,"value":0.5905511811023622},{"number":64,"time":237.81145833335322,"value":0.5905511811023622},{"number":64,"time":237.83020833335323,"value":0.5590551181102362},{"number":64,"time":237.83229166668656,"value":0.5590551181102362},{"number":64,"time":237.86770833335322,"value":0.5905511811023622},{"number":64,"time":237.86770833335322,"value":0.5905511811023622},{"number":64,"time":237.88229166668654,"value":0.6299212598425197},{"number":64,"time":237.88333333335322,"value":0.6299212598425197},{"number":64,"time":237.89791666668654,"value":0.7322834645669292},{"number":64,"time":237.89791666668654,"value":0.7322834645669292},{"number":64,"time":237.91041666668653,"value":0.8267716535433071},{"number":64,"time":237.9114583333532,"value":0.8267716535433071},{"number":64,"time":237.96250000001987,"value":0.937007874015748},{"number":64,"time":237.96354166668655,"value":0.937007874015748},{"number":64,"time":238.00833333335322,"value":1},{"number":64,"time":238.0093750000199,"value":1},{"number":64,"time":238.73437500001987,"value":0.8661417322834646},{"number":64,"time":238.73437500001987,"value":0.8661417322834646},{"number":64,"time":238.75000000001987,"value":0.7322834645669292},{"number":64,"time":238.75000000001987,"value":0.7322834645669292},{"number":64,"time":238.7583333333532,"value":0.6456692913385826},{"number":64,"time":238.7583333333532,"value":0.6456692913385826},{"number":64,"time":238.76562500001987,"value":0.6062992125984252},{"number":64,"time":238.76666666668655,"value":0.6062992125984252},{"number":64,"time":238.77395833335322,"value":0.5748031496062992},{"number":64,"time":238.7750000000199,"value":0.5748031496062992},{"number":64,"time":238.78229166668658,"value":0.5354330708661418},{"number":64,"time":238.78333333335326,"value":0.5354330708661418},{"number":64,"time":238.78958333335325,"value":0.49606299212598426},{"number":64,"time":238.79062500001993,"value":0.49606299212598426},{"number":64,"time":238.8416666666866,"value":0.5275590551181102},{"number":64,"time":238.84270833335327,"value":0.5275590551181102},{"number":64,"time":238.8541666666866,"value":0.5590551181102362},{"number":64,"time":238.8552083333533,"value":0.5590551181102362},{"number":64,"time":238.86666666668663,"value":0.5905511811023622},{"number":64,"time":238.86666666668663,"value":0.5905511811023622},{"number":64,"time":238.87812500001996,"value":0.6377952755905512},{"number":64,"time":238.87916666668664,"value":0.6377952755905512},{"number":64,"time":238.8895833333533,"value":0.7559055118110236},{"number":64,"time":238.89062500001998,"value":0.7559055118110236},{"number":64,"time":238.90208333335332,"value":0.8661417322834646},{"number":64,"time":238.90312500002,"value":0.8661417322834646},{"number":64,"time":239.0416666666867,"value":1},{"number":64,"time":239.04270833335337,"value":1},{"number":64,"time":239.18229166668672,"value":0.8661417322834646},{"number":64,"time":239.1833333333534,"value":0.8661417322834646},{"number":64,"time":239.20208333335341,"value":0.7559055118110236},{"number":64,"time":239.2031250000201,"value":0.7559055118110236},{"number":64,"time":239.21354166668675,"value":0.6456692913385826},{"number":64,"time":239.21458333335343,"value":0.6456692913385826},{"number":64,"time":239.22604166668677,"value":0.6141732283464567},{"number":64,"time":239.22708333335345,"value":0.6141732283464567},{"number":64,"time":239.24166666668677,"value":0.5826771653543307},{"number":64,"time":239.24270833335345,"value":0.5826771653543307},{"number":64,"time":239.27395833335345,"value":0.6220472440944882},{"number":64,"time":239.27500000002013,"value":0.6220472440944882},{"number":64,"time":239.2979166666868,"value":0.7559055118110236},{"number":64,"time":239.29895833335348,"value":0.7559055118110236},{"number":64,"time":239.31041666668682,"value":0.8503937007874016},{"number":64,"time":239.31041666668682,"value":0.8503937007874016},{"number":64,"time":239.39791666668683,"value":1},{"number":64,"time":239.3989583333535,"value":1},{"number":64,"time":239.51354166668685,"value":0.8661417322834646},{"number":64,"time":239.51458333335353,"value":0.8661417322834646},{"number":64,"time":239.53854166668685,"value":0.7322834645669292},{"number":64,"time":239.53854166668685,"value":0.7322834645669292},{"number":64,"time":239.54583333335353,"value":0.6535433070866141},{"number":64,"time":239.5468750000202,"value":0.6535433070866141},{"number":64,"time":239.55416666668688,"value":0.6220472440944882},{"number":64,"time":239.55520833335356,"value":0.6220472440944882},{"number":64,"time":239.56562500002022,"value":0.5905511811023622},{"number":64,"time":239.5666666666869,"value":0.5905511811023622},{"number":64,"time":239.6260416666869,"value":0.6299212598425197},{"number":64,"time":239.62708333335357,"value":0.6299212598425197},{"number":64,"time":239.6385416666869,"value":0.7322834645669292},{"number":64,"time":239.6385416666869,"value":0.7322834645669292},{"number":64,"time":239.65000000002024,"value":0.8267716535433071},{"number":64,"time":239.65000000002024,"value":0.8267716535433071},{"number":64,"time":239.66666666668692,"value":0.937007874015748},{"number":64,"time":239.66666666668692,"value":0.937007874015748},{"number":64,"time":239.8302083333536,"value":1},{"number":64,"time":239.83125000002028,"value":1},{"number":64,"time":240.00104166668694,"value":0.8661417322834646},{"number":64,"time":240.00208333335362,"value":0.8661417322834646},{"number":64,"time":240.0250000000203,"value":0.7322834645669292},{"number":64,"time":240.02604166668698,"value":0.7322834645669292},{"number":64,"time":240.03750000002032,"value":0.6456692913385826},{"number":64,"time":240.03750000002032,"value":0.6456692913385826},{"number":64,"time":240.0500000000203,"value":0.6141732283464567},{"number":64,"time":240.05104166668698,"value":0.6141732283464567},{"number":64,"time":240.10520833335366,"value":0.6456692913385826},{"number":64,"time":240.10625000002034,"value":0.6456692913385826},{"number":64,"time":240.11770833335368,"value":0.7559055118110236},{"number":64,"time":240.11875000002036,"value":0.7559055118110236},{"number":64,"time":240.13333333335368,"value":0.8661417322834646},{"number":64,"time":240.13333333335368,"value":0.8661417322834646},{"number":64,"time":240.27291666668702,"value":1},{"number":64,"time":240.2739583333537,"value":1},{"number":64,"time":240.4739583333537,"value":0.8661417322834646},{"number":64,"time":240.47500000002037,"value":0.8661417322834646},{"number":64,"time":240.48854166668704,"value":0.7559055118110236},{"number":64,"time":240.48958333335372,"value":0.7559055118110236},{"number":64,"time":240.4968750000204,"value":0.6535433070866141},{"number":64,"time":240.49791666668708,"value":0.6535433070866141},{"number":64,"time":240.50520833335375,"value":0.6062992125984252},{"number":64,"time":240.50625000002043,"value":0.6062992125984252},{"number":64,"time":240.51250000002042,"value":0.5748031496062992},{"number":64,"time":240.5135416666871,"value":0.5748031496062992},{"number":64,"time":240.52083333335378,"value":0.5433070866141733},{"number":64,"time":240.52187500002046,"value":0.5433070866141733},{"number":64,"time":240.52916666668713,"value":0.5039370078740157},{"number":64,"time":240.5302083333538,"value":0.5039370078740157},{"number":64,"time":240.57291666668715,"value":0.5354330708661418},{"number":64,"time":240.57395833335383,"value":0.5354330708661418},{"number":64,"time":240.58541666668717,"value":0.5669291338582677},{"number":64,"time":240.58541666668717,"value":0.5669291338582677},{"number":64,"time":240.60104166668717,"value":0.6062992125984252},{"number":64,"time":240.60208333335385,"value":0.6062992125984252},{"number":64,"time":240.61041666668717,"value":0.6456692913385826},{"number":64,"time":240.61145833335385,"value":0.6456692913385826},{"number":64,"time":240.62083333335386,"value":0.7795275590551181},{"number":64,"time":240.62083333335386,"value":0.7795275590551181},{"number":64,"time":240.63645833335386,"value":0.889763779527559},{"number":64,"time":240.63750000002054,"value":0.889763779527559},{"number":64,"time":240.74479166668718,"value":1},{"number":64,"time":240.74583333335386,"value":1},{"number":64,"time":240.91250000002051,"value":0.8661417322834646},{"number":64,"time":240.9135416666872,"value":0.8661417322834646},{"number":64,"time":240.9291666666872,"value":0.7559055118110236},{"number":64,"time":240.93020833335387,"value":0.7559055118110236},{"number":64,"time":240.93645833335387,"value":0.6614173228346457},{"number":64,"time":240.93750000002055,"value":0.6614173228346457},{"number":64,"time":240.94583333335387,"value":0.6220472440944882},{"number":64,"time":240.94687500002055,"value":0.6220472440944882},{"number":64,"time":240.95312500002055,"value":0.5905511811023622},{"number":64,"time":240.95416666668723,"value":0.5905511811023622},{"number":64,"time":240.96875000002055,"value":0.5590551181102362},{"number":64,"time":240.96875000002055,"value":0.5590551181102362},{"number":64,"time":241.01770833335388,"value":0.5984251968503937},{"number":64,"time":241.01875000002056,"value":0.5984251968503937},{"number":64,"time":241.02916666668722,"value":0.6299212598425197},{"number":64,"time":241.0302083333539,"value":0.6299212598425197},{"number":64,"time":241.04062500002055,"value":0.7322834645669292},{"number":64,"time":241.04166666668723,"value":0.7322834645669292},{"number":64,"time":241.0552083333539,"value":0.8267716535433071},{"number":64,"time":241.05625000002058,"value":0.8267716535433071},{"number":64,"time":241.0927083333539,"value":0.937007874015748},{"number":64,"time":241.09375000002058,"value":0.937007874015748},{"number":64,"time":241.13229166668725,"value":1},{"number":64,"time":241.13333333335393,"value":1},{"number":64,"time":241.34062500002062,"value":0.8661417322834646},{"number":64,"time":241.3416666666873,"value":0.8661417322834646},{"number":64,"time":241.36145833335397,"value":0.7559055118110236},{"number":64,"time":241.36250000002065,"value":0.7559055118110236},{"number":64,"time":241.3729166666873,"value":0.6535433070866141},{"number":64,"time":241.37395833335398,"value":0.6535433070866141},{"number":64,"time":241.38541666668732,"value":0.6141732283464567},{"number":64,"time":241.38541666668732,"value":0.6141732283464567},{"number":64,"time":241.448958333354,"value":0.6456692913385826},{"number":64,"time":241.45000000002068,"value":0.6456692913385826},{"number":64,"time":241.464583333354,"value":0.7795275590551181},{"number":64,"time":241.46562500002068,"value":0.7795275590551181},{"number":64,"time":241.4843750000207,"value":0.889763779527559},{"number":64,"time":241.48541666668737,"value":0.889763779527559},{"number":64,"time":241.59687500002073,"value":1},{"number":64,"time":241.5979166666874,"value":1},{"number":64,"time":241.78437500002073,"value":0.8661417322834646},{"number":64,"time":241.7854166666874,"value":0.8661417322834646},{"number":64,"time":241.80520833335407,"value":0.7322834645669292},{"number":64,"time":241.80625000002075,"value":0.7322834645669292},{"number":64,"time":241.81250000002078,"value":0.6535433070866141},{"number":64,"time":241.81354166668746,"value":0.6535433070866141},{"number":64,"time":241.8250000000208,"value":0.6141732283464567},{"number":64,"time":241.82604166668747,"value":0.6141732283464567},{"number":64,"time":241.84479166668748,"value":0.5826771653543307},{"number":64,"time":241.84583333335416,"value":0.5826771653543307},{"number":64,"time":241.86875000002084,"value":0.6220472440944882},{"number":64,"time":241.86875000002084,"value":0.6220472440944882},{"number":64,"time":241.88125000002083,"value":0.6535433070866141},{"number":64,"time":241.8822916666875,"value":0.6535433070866141},{"number":64,"time":241.89270833335416,"value":0.7795275590551181},{"number":64,"time":241.89270833335416,"value":0.7795275590551181},{"number":64,"time":241.90937500002084,"value":0.889763779527559},{"number":64,"time":241.90937500002084,"value":0.889763779527559},{"number":64,"time":241.99687500002082,"value":1},{"number":64,"time":241.9979166666875,"value":1},{"number":64,"time":242.4843750000208,"value":0.8661417322834646},{"number":64,"time":242.48541666668748,"value":0.8661417322834646},{"number":64,"time":242.49583333335414,"value":0.7559055118110236},{"number":64,"time":242.49687500002082,"value":0.7559055118110236},{"number":64,"time":242.50520833335415,"value":0.6377952755905512},{"number":64,"time":242.50625000002083,"value":0.6377952755905512},{"number":64,"time":242.51145833335417,"value":0.5905511811023622},{"number":64,"time":242.51250000002085,"value":0.5905511811023622},{"number":64,"time":242.52083333335418,"value":0.5354330708661418},{"number":64,"time":242.52187500002086,"value":0.5354330708661418},{"number":64,"time":242.52500000002087,"value":0.49606299212598426},{"number":64,"time":242.52604166668755,"value":0.49606299212598426},{"number":64,"time":242.53333333335422,"value":0.3779527559055118},{"number":64,"time":242.53333333335422,"value":0.3779527559055118},{"number":64,"time":242.5406250000209,"value":0.2283464566929134},{"number":64,"time":242.54166666668758,"value":0.2283464566929134},{"number":64,"time":242.54895833335425,"value":0.12598425196850394},{"number":64,"time":242.55000000002093,"value":0.12598425196850394},{"number":64,"time":242.56458333335425,"value":0.031496062992125984},{"number":64,"time":242.56562500002093,"value":0.031496062992125984},{"number":64,"time":242.56875000002094,"value":0},{"number":64,"time":242.56979166668762,"value":0},{"number":64,"time":242.62083333335428,"value":0.10236220472440945},{"number":64,"time":242.62187500002096,"value":0.10236220472440945},{"number":64,"time":242.62812500002096,"value":0.25196850393700787},{"number":64,"time":242.62916666668764,"value":0.25196850393700787},{"number":64,"time":242.63541666668763,"value":0.4015748031496063},{"number":64,"time":242.6364583333543,"value":0.4015748031496063},{"number":64,"time":242.63958333335432,"value":0.48031496062992124},{"number":64,"time":242.640625000021,"value":0.48031496062992124},{"number":64,"time":242.64375000002102,"value":0.5118110236220472},{"number":64,"time":242.6447916666877,"value":0.5118110236220472},{"number":64,"time":242.65208333335437,"value":0.5511811023622047},{"number":64,"time":242.65312500002105,"value":0.5511811023622047},{"number":64,"time":242.6635416666877,"value":0.5826771653543307},{"number":64,"time":242.6645833333544,"value":0.5826771653543307},{"number":64,"time":242.6770833333544,"value":0.6141732283464567},{"number":64,"time":242.67812500002108,"value":0.6141732283464567},{"number":64,"time":242.6864583333544,"value":0.6456692913385826},{"number":64,"time":242.6875000000211,"value":0.6456692913385826},{"number":64,"time":242.73020833335443,"value":0.7559055118110236},{"number":64,"time":242.7312500000211,"value":0.7559055118110236},{"number":64,"time":242.77708333335443,"value":0.8503937007874016},{"number":64,"time":242.7781250000211,"value":0.8503937007874016},{"number":64,"time":243.0875000000211,"value":1},{"number":64,"time":243.08854166668777,"value":1},{"number":64,"time":243.21041666668776,"value":0.8661417322834646},{"number":64,"time":243.21145833335444,"value":0.8661417322834646},{"number":64,"time":243.23020833335445,"value":0.7559055118110236},{"number":64,"time":243.23125000002113,"value":0.7559055118110236},{"number":64,"time":243.2385416666878,"value":0.6614173228346457},{"number":64,"time":243.2395833333545,"value":0.6614173228346457},{"number":64,"time":243.24791666668781,"value":0.6299212598425197},{"number":64,"time":243.2489583333545,"value":0.6299212598425197},{"number":64,"time":243.2583333333545,"value":0.5984251968503937},{"number":64,"time":243.25937500002118,"value":0.5984251968503937},{"number":64,"time":243.30625000002118,"value":0.6299212598425197},{"number":64,"time":243.3083333333545,"value":0.6299212598425197},{"number":64,"time":243.3239583333545,"value":0.7322834645669292},{"number":64,"time":243.3250000000212,"value":0.7322834645669292},{"number":64,"time":243.3343750000212,"value":0.8267716535433071},{"number":64,"time":243.33645833335453,"value":0.8267716535433071},{"number":64,"time":243.35833333335452,"value":0.937007874015748},{"number":64,"time":243.3593750000212,"value":0.937007874015748},{"number":64,"time":243.42708333335455,"value":1},{"number":64,"time":243.42812500002123,"value":1},{"number":64,"time":243.62708333335456,"value":0.8661417322834646},{"number":64,"time":243.62812500002124,"value":0.8661417322834646},{"number":64,"time":243.65208333335457,"value":0.7322834645669292},{"number":64,"time":243.65312500002125,"value":0.7322834645669292},{"number":64,"time":243.6583333333546,"value":0.6456692913385826},{"number":64,"time":243.65937500002127,"value":0.6456692913385826},{"number":64,"time":243.66666666668795,"value":0.6141732283464567},{"number":64,"time":243.66770833335462,"value":0.6141732283464567},{"number":64,"time":243.68229166668795,"value":0.5826771653543307},{"number":64,"time":243.68333333335462,"value":0.5826771653543307},{"number":64,"time":243.7270833333546,"value":0.6141732283464567},{"number":64,"time":243.7281250000213,"value":0.6141732283464567},{"number":64,"time":243.73854166668795,"value":0.6535433070866141},{"number":64,"time":243.73958333335463,"value":0.6535433070866141},{"number":64,"time":243.75104166668797,"value":0.7559055118110236},{"number":64,"time":243.75208333335465,"value":0.7559055118110236},{"number":64,"time":243.7625000000213,"value":0.8503937007874016},{"number":64,"time":243.76354166668798,"value":0.8503937007874016},{"number":64,"time":243.89895833335464,"value":1},{"number":64,"time":243.90000000002132,"value":1},{"number":64,"time":244.04270833335462,"value":0.8661417322834646},{"number":64,"time":244.04270833335462,"value":0.8661417322834646},{"number":64,"time":244.0625000000213,"value":0.7322834645669292},{"number":64,"time":244.06354166668797,"value":0.7322834645669292},{"number":64,"time":244.07083333335464,"value":0.6456692913385826},{"number":64,"time":244.07187500002132,"value":0.6456692913385826},{"number":64,"time":244.079166666688,"value":0.6062992125984252},{"number":64,"time":244.079166666688,"value":0.6062992125984252},{"number":64,"time":244.08645833335467,"value":0.5748031496062992},{"number":64,"time":244.08750000002135,"value":0.5748031496062992},{"number":64,"time":244.09479166668802,"value":0.5433070866141733},{"number":64,"time":244.0958333333547,"value":0.5433070866141733},{"number":64,"time":244.10625000002136,"value":0.5118110236220472},{"number":64,"time":244.1083333333547,"value":0.5118110236220472},{"number":64,"time":244.1427083333547,"value":0.5433070866141733},{"number":64,"time":244.1427083333547,"value":0.5433070866141733},{"number":64,"time":244.1552083333547,"value":0.5748031496062992},{"number":64,"time":244.1552083333547,"value":0.5748031496062992},{"number":64,"time":244.16666666668803,"value":0.6062992125984252},{"number":64,"time":244.1677083333547,"value":0.6062992125984252},{"number":64,"time":244.17500000002138,"value":0.6456692913385826},{"number":64,"time":244.17604166668806,"value":0.6456692913385826},{"number":64,"time":244.18645833335472,"value":0.7559055118110236},{"number":64,"time":244.1875000000214,"value":0.7559055118110236},{"number":64,"time":244.19895833335474,"value":0.8503937007874016},{"number":64,"time":244.20000000002142,"value":0.8503937007874016},{"number":64,"time":244.3322916666881,"value":1},{"number":64,"time":244.3322916666881,"value":1},{"number":64,"time":244.49895833335478,"value":0.8661417322834646},{"number":64,"time":244.50000000002146,"value":0.8661417322834646},{"number":64,"time":244.51875000002147,"value":0.7559055118110236},{"number":64,"time":244.51875000002147,"value":0.7559055118110236},{"number":64,"time":244.52708333335482,"value":0.6614173228346457},{"number":64,"time":244.52708333335482,"value":0.6614173228346457},{"number":64,"time":244.53854166668816,"value":0.6220472440944882},{"number":64,"time":244.53854166668816,"value":0.6220472440944882},{"number":64,"time":244.55520833335484,"value":0.5905511811023622},{"number":64,"time":244.55520833335484,"value":0.5905511811023622},{"number":64,"time":244.59479166668817,"value":0.6220472440944882},{"number":64,"time":244.59583333335485,"value":0.6220472440944882},{"number":64,"time":244.60729166668818,"value":0.6535433070866141},{"number":64,"time":244.60729166668818,"value":0.6535433070866141},{"number":64,"time":244.61875000002152,"value":0.7559055118110236},{"number":64,"time":244.6197916666882,"value":0.7559055118110236},{"number":64,"time":244.63020833335486,"value":0.8503937007874016},{"number":64,"time":244.6322916666882,"value":0.8503937007874016},{"number":64,"time":244.71458333335485,"value":1},{"number":64,"time":244.71458333335485,"value":1},{"number":64,"time":244.90312500002153,"value":0.8661417322834646},{"number":64,"time":244.90312500002153,"value":0.8661417322834646},{"number":64,"time":244.9229166666882,"value":0.7322834645669292},{"number":64,"time":244.92395833335488,"value":0.7322834645669292},{"number":64,"time":244.93125000002155,"value":0.6456692913385826},{"number":64,"time":244.93229166668823,"value":0.6456692913385826},{"number":64,"time":244.93854166668822,"value":0.6062992125984252},{"number":64,"time":244.9395833333549,"value":0.6062992125984252},{"number":64,"time":244.94687500002158,"value":0.5748031496062992},{"number":64,"time":244.94791666668826,"value":0.5748031496062992},{"number":64,"time":244.95833333335491,"value":0.5433070866141733},{"number":64,"time":244.9593750000216,"value":0.5433070866141733},{"number":64,"time":245.01458333335492,"value":0.5748031496062992},{"number":64,"time":245.0156250000216,"value":0.5748031496062992},{"number":64,"time":245.02708333335494,"value":0.6062992125984252},{"number":64,"time":245.02812500002162,"value":0.6062992125984252},{"number":64,"time":245.03854166668827,"value":0.6456692913385826},{"number":64,"time":245.03958333335495,"value":0.6456692913385826},{"number":64,"time":245.0510416666883,"value":0.7559055118110236},{"number":64,"time":245.05208333335497,"value":0.7559055118110236},{"number":64,"time":245.06666666668832,"value":0.8503937007874016},{"number":64,"time":245.067708333355,"value":0.8503937007874016},{"number":64,"time":245.16666666668834,"value":1},{"number":64,"time":245.16770833335502,"value":1},{"number":64,"time":245.32916666668834,"value":0.8661417322834646},{"number":64,"time":245.33020833335502,"value":0.8661417322834646},{"number":64,"time":245.35416666668834,"value":0.7559055118110236},{"number":64,"time":245.35416666668834,"value":0.7559055118110236},{"number":64,"time":245.36250000002167,"value":0.6614173228346457},{"number":64,"time":245.36250000002167,"value":0.6614173228346457},{"number":64,"time":245.373958333355,"value":0.6299212598425197},{"number":64,"time":245.37500000002169,"value":0.6299212598425197},{"number":64,"time":245.38125000002168,"value":0.5984251968503937},{"number":64,"time":245.38229166668836,"value":0.5984251968503937},{"number":64,"time":245.445833333355,"value":0.6299212598425197},{"number":64,"time":245.4468750000217,"value":0.6299212598425197},{"number":64,"time":245.46666666668835,"value":0.7559055118110236},{"number":64,"time":245.46666666668835,"value":0.7559055118110236},{"number":64,"time":245.48541666668834,"value":0.8503937007874016},{"number":64,"time":245.48645833335502,"value":0.8503937007874016},{"number":64,"time":245.55312500002168,"value":1},{"number":64,"time":245.55416666668836,"value":1},{"number":64,"time":245.7218750000217,"value":0.8661417322834646},{"number":64,"time":245.72291666668838,"value":0.8661417322834646},{"number":64,"time":245.74583333335505,"value":0.7322834645669292},{"number":64,"time":245.74687500002173,"value":0.7322834645669292},{"number":64,"time":245.75312500002173,"value":0.6535433070866141},{"number":64,"time":245.75520833335506,"value":0.6535433070866141},{"number":64,"time":245.76250000002173,"value":0.6220472440944882},{"number":64,"time":245.7635416666884,"value":0.6220472440944882},{"number":64,"time":245.7697916666884,"value":0.5905511811023622},{"number":64,"time":245.77083333335509,"value":0.5905511811023622},{"number":64,"time":245.79062500002178,"value":0.5590551181102362},{"number":64,"time":245.79062500002178,"value":0.5590551181102362},{"number":64,"time":245.82187500002178,"value":0.5905511811023622},{"number":64,"time":245.82291666668846,"value":0.5905511811023622},{"number":64,"time":245.8333333333551,"value":0.6220472440944882},{"number":64,"time":245.8343750000218,"value":0.6220472440944882},{"number":64,"time":245.84166666668847,"value":0.6535433070866141},{"number":64,"time":245.84270833335515,"value":0.6535433070866141},{"number":64,"time":245.85416666668849,"value":0.7795275590551181},{"number":64,"time":245.85416666668849,"value":0.7795275590551181},{"number":64,"time":245.86979166668849,"value":0.889763779527559},{"number":64,"time":245.87083333335516,"value":0.889763779527559},{"number":64,"time":246.03437500002184,"value":1},{"number":64,"time":246.03541666668852,"value":1},{"number":64,"time":246.28125000002186,"value":0.8661417322834646},{"number":64,"time":246.28229166668854,"value":0.8661417322834646},{"number":64,"time":246.29791666668854,"value":0.7559055118110236},{"number":64,"time":246.29895833335522,"value":0.7559055118110236},{"number":64,"time":246.3052083333552,"value":0.6535433070866141},{"number":64,"time":246.3062500000219,"value":0.6535433070866141},{"number":64,"time":246.31354166668856,"value":0.6062992125984252},{"number":64,"time":246.31458333335524,"value":0.6062992125984252},{"number":64,"time":246.32187500002192,"value":0.5669291338582677},{"number":64,"time":246.3229166666886,"value":0.5669291338582677},{"number":64,"time":246.3291666666886,"value":0.5275590551181102},{"number":64,"time":246.33020833335527,"value":0.5275590551181102},{"number":64,"time":246.33750000002195,"value":0.4881889763779528},{"number":64,"time":246.33854166668863,"value":0.4881889763779528},{"number":64,"time":246.35416666668863,"value":0.4015748031496063},{"number":64,"time":246.35416666668863,"value":0.4015748031496063},{"number":64,"time":246.37812500002195,"value":0.47244094488188976},{"number":64,"time":246.37812500002195,"value":0.47244094488188976},{"number":64,"time":246.38541666668863,"value":0.5039370078740157},{"number":64,"time":246.3864583333553,"value":0.5039370078740157},{"number":64,"time":246.39791666668864,"value":0.5433070866141733},{"number":64,"time":246.39895833335532,"value":0.5433070866141733},{"number":64,"time":246.40937500002198,"value":0.5748031496062992},{"number":64,"time":246.41041666668866,"value":0.5748031496062992},{"number":64,"time":246.41770833335534,"value":0.6062992125984252},{"number":64,"time":246.41875000002202,"value":0.6062992125984252},{"number":64,"time":246.4260416666887,"value":0.6377952755905512},{"number":64,"time":246.42708333335537,"value":0.6377952755905512},{"number":64,"time":246.43750000002203,"value":0.7559055118110236},{"number":64,"time":246.43750000002203,"value":0.7559055118110236},{"number":64,"time":246.45000000002202,"value":0.8503937007874016},{"number":64,"time":246.45000000002202,"value":0.8503937007874016},{"number":64,"time":246.53750000002202,"value":1},{"number":64,"time":246.5385416666887,"value":1},{"number":64,"time":246.6854166666887,"value":0.8661417322834646},{"number":64,"time":246.68645833335538,"value":0.8661417322834646},{"number":64,"time":246.7052083333554,"value":0.7559055118110236},{"number":64,"time":246.70625000002207,"value":0.7559055118110236},{"number":64,"time":246.71354166668874,"value":0.6614173228346457},{"number":64,"time":246.71354166668874,"value":0.6614173228346457},{"number":64,"time":246.72291666668875,"value":0.6299212598425197},{"number":64,"time":246.72395833335543,"value":0.6299212598425197},{"number":64,"time":246.73333333335543,"value":0.5984251968503937},{"number":64,"time":246.7343750000221,"value":0.5984251968503937},{"number":64,"time":246.7812500000221,"value":0.6299212598425197},{"number":64,"time":246.7822916666888,"value":0.6299212598425197},{"number":64,"time":246.7979166666888,"value":0.7322834645669292},{"number":64,"time":246.79895833335547,"value":0.7322834645669292},{"number":64,"time":246.80937500002213,"value":0.8267716535433071},{"number":64,"time":246.8104166666888,"value":0.8267716535433071},{"number":64,"time":246.83437500002216,"value":0.937007874015748},{"number":64,"time":246.83437500002216,"value":0.937007874015748},{"number":64,"time":246.90208333335548,"value":1},{"number":64,"time":246.90208333335548,"value":1},{"number":64,"time":247.10937500002217,"value":0.8661417322834646},{"number":64,"time":247.11041666668885,"value":0.8661417322834646},{"number":64,"time":247.1333333333555,"value":0.7559055118110236},{"number":64,"time":247.13437500002217,"value":0.7559055118110236},{"number":64,"time":247.1458333333555,"value":0.6535433070866141},{"number":64,"time":247.1468750000222,"value":0.6535433070866141},{"number":64,"time":247.15729166668885,"value":0.6220472440944882},{"number":64,"time":247.15833333335553,"value":0.6220472440944882},{"number":64,"time":247.19791666668885,"value":0.6535433070866141},{"number":64,"time":247.19895833335553,"value":0.6535433070866141},{"number":64,"time":247.21354166668885,"value":0.7559055118110236},{"number":64,"time":247.21458333335553,"value":0.7559055118110236},{"number":64,"time":247.2343750000222,"value":0.8503937007874016},{"number":64,"time":247.2343750000222,"value":0.8503937007874016},{"number":64,"time":247.32916666668885,"value":1},{"number":64,"time":247.33020833335553,"value":1},{"number":64,"time":247.5375000000222,"value":0.8661417322834646},{"number":64,"time":247.53854166668887,"value":0.8661417322834646},{"number":64,"time":247.56145833335555,"value":0.7322834645669292},{"number":64,"time":247.56250000002223,"value":0.7322834645669292},{"number":64,"time":247.57395833335556,"value":0.6456692913385826},{"number":64,"time":247.57500000002224,"value":0.6456692913385826},{"number":64,"time":247.58958333335556,"value":0.6062992125984252},{"number":64,"time":247.59062500002224,"value":0.6062992125984252},{"number":64,"time":247.62916666668892,"value":0.6377952755905512},{"number":64,"time":247.6302083333556,"value":0.6377952755905512},{"number":64,"time":247.65000000002226,"value":0.7559055118110236},{"number":64,"time":247.65000000002226,"value":0.7559055118110236},{"number":64,"time":247.66562500002226,"value":0.8503937007874016},{"number":64,"time":247.66666666668894,"value":0.8503937007874016},{"number":64,"time":247.78958333335564,"value":1},{"number":64,"time":247.79062500002232,"value":1},{"number":64,"time":247.9687500000223,"value":0.8661417322834646},{"number":64,"time":247.969791666689,"value":0.8661417322834646},{"number":64,"time":247.988541666689,"value":0.7559055118110236},{"number":64,"time":247.98958333335568,"value":0.7559055118110236},{"number":64,"time":247.99687500002236,"value":0.6614173228346457},{"number":64,"time":247.99791666668904,"value":0.6614173228346457},{"number":64,"time":248.00625000002236,"value":0.6220472440944882},{"number":64,"time":248.00729166668904,"value":0.6220472440944882},{"number":64,"time":248.01250000002238,"value":0.5905511811023622},{"number":64,"time":248.01250000002238,"value":0.5905511811023622},{"number":64,"time":248.03020833335572,"value":0.5511811023622047},{"number":64,"time":248.0312500000224,"value":0.5511811023622047},{"number":64,"time":248.0781250000224,"value":0.5905511811023622},{"number":64,"time":248.07916666668908,"value":0.5905511811023622},{"number":64,"time":248.09270833335574,"value":0.6299212598425197},{"number":64,"time":248.09375000002242,"value":0.6299212598425197},{"number":64,"time":248.10520833335576,"value":0.7322834645669292},{"number":64,"time":248.10520833335576,"value":0.7322834645669292},{"number":64,"time":248.1218750000224,"value":0.8267716535433071},{"number":64,"time":248.1229166666891,"value":0.8267716535433071},{"number":64,"time":248.20104166668912,"value":0.937007874015748},{"number":64,"time":248.2020833333558,"value":0.937007874015748},{"number":64,"time":248.23645833335578,"value":1},{"number":64,"time":248.23750000002246,"value":1},{"number":64,"time":248.39687500002248,"value":0.8661417322834646},{"number":64,"time":248.39791666668916,"value":0.8661417322834646},{"number":64,"time":248.41770833335582,"value":0.7559055118110236},{"number":64,"time":248.4187500000225,"value":0.7559055118110236},{"number":64,"time":248.42395833335584,"value":0.6614173228346457},{"number":64,"time":248.42500000002252,"value":0.6614173228346457},{"number":64,"time":248.43437500002253,"value":0.6299212598425197},{"number":64,"time":248.43437500002253,"value":0.6299212598425197},{"number":64,"time":248.44583333335586,"value":0.5905511811023622},{"number":64,"time":248.44687500002254,"value":0.5905511811023622},{"number":64,"time":248.4604166666892,"value":0.5590551181102362},{"number":64,"time":248.4604166666892,"value":0.5590551181102362},{"number":64,"time":248.49687500002256,"value":0.5905511811023622},{"number":64,"time":248.49791666668924,"value":0.5905511811023622},{"number":64,"time":248.51354166668924,"value":0.6220472440944882},{"number":64,"time":248.51458333335592,"value":0.6220472440944882},{"number":64,"time":248.5208333333559,"value":0.6535433070866141},{"number":64,"time":248.5218750000226,"value":0.6535433070866141},{"number":64,"time":248.53229166668925,"value":0.7559055118110236},{"number":64,"time":248.53333333335593,"value":0.7559055118110236},{"number":64,"time":248.54791666668925,"value":0.8503937007874016},{"number":64,"time":248.55000000002258,"value":0.8503937007874016},{"number":64,"time":248.6364583333559,"value":1},{"number":64,"time":248.6364583333559,"value":1},{"number":64,"time":248.80833333335593,"value":0.8661417322834646},{"number":64,"time":248.8093750000226,"value":0.8661417322834646},{"number":64,"time":248.8322916666893,"value":0.7559055118110236},{"number":64,"time":248.83333333335597,"value":0.7559055118110236},{"number":64,"time":248.8447916666893,"value":0.6535433070866141},{"number":64,"time":248.84583333335598,"value":0.6535433070866141},{"number":64,"time":248.85625000002264,"value":0.6220472440944882},{"number":64,"time":248.85729166668932,"value":0.6220472440944882},{"number":64,"time":248.90416666668932,"value":0.6535433070866141},{"number":64,"time":248.905208333356,"value":0.6535433070866141},{"number":64,"time":248.92500000002266,"value":0.7559055118110236},{"number":64,"time":248.92500000002266,"value":0.7559055118110236},{"number":64,"time":248.94479166668933,"value":0.8503937007874016},{"number":64,"time":248.945833333356,"value":0.8503937007874016},{"number":64,"time":249.04062500002266,"value":1},{"number":64,"time":249.04062500002266,"value":1},{"number":64,"time":249.22500000002265,"value":0.8661417322834646},{"number":64,"time":249.22500000002265,"value":0.8661417322834646},{"number":64,"time":249.24895833335597,"value":0.7322834645669292},{"number":64,"time":249.24895833335597,"value":0.7322834645669292},{"number":64,"time":249.2604166666893,"value":0.6456692913385826},{"number":64,"time":249.2604166666893,"value":0.6456692913385826},{"number":64,"time":249.27500000002263,"value":0.6141732283464567},{"number":64,"time":249.2760416666893,"value":0.6141732283464567},{"number":64,"time":249.292708333356,"value":0.5826771653543307},{"number":64,"time":249.29375000002267,"value":0.5826771653543307},{"number":64,"time":249.320833333356,"value":0.6220472440944882},{"number":64,"time":249.3218750000227,"value":0.6220472440944882},{"number":64,"time":249.34479166668936,"value":0.7322834645669292},{"number":64,"time":249.34583333335604,"value":0.7322834645669292},{"number":64,"time":249.36041666668936,"value":0.8267716535433071},{"number":64,"time":249.36145833335604,"value":0.8267716535433071},{"number":64,"time":249.38437500002271,"value":0.937007874015748},{"number":64,"time":249.3854166666894,"value":0.937007874015748},{"number":64,"time":249.52083333335605,"value":1},{"number":64,"time":249.52083333335605,"value":1},{"number":64,"time":249.76458333335606,"value":0.8661417322834646},{"number":64,"time":249.76458333335606,"value":0.8661417322834646},{"number":64,"time":249.77708333335607,"value":0.7559055118110236},{"number":64,"time":249.77708333335607,"value":0.7559055118110236},{"number":64,"time":249.78437500002275,"value":0.6456692913385826},{"number":64,"time":249.78437500002275,"value":0.6456692913385826},{"number":64,"time":249.79270833335607,"value":0.5984251968503937},{"number":64,"time":249.79375000002275,"value":0.5984251968503937},{"number":64,"time":249.80104166668943,"value":0.5590551181102362},{"number":64,"time":249.80104166668943,"value":0.5590551181102362},{"number":64,"time":249.8083333333561,"value":0.5039370078740157},{"number":64,"time":249.8083333333561,"value":0.5039370078740157},{"number":64,"time":249.8208333333561,"value":0.4015748031496063},{"number":64,"time":249.82187500002277,"value":0.4015748031496063},{"number":64,"time":249.8802083333561,"value":0.47244094488188976},{"number":64,"time":249.8812500000228,"value":0.47244094488188976},{"number":64,"time":249.88854166668946,"value":0.5118110236220472},{"number":64,"time":249.88958333335614,"value":0.5118110236220472},{"number":64,"time":249.89687500002282,"value":0.5433070866141733},{"number":64,"time":249.8979166666895,"value":0.5433070866141733},{"number":64,"time":249.9041666666895,"value":0.5748031496062992},{"number":64,"time":249.90520833335617,"value":0.5748031496062992},{"number":64,"time":249.9166666666895,"value":0.6141732283464567},{"number":64,"time":249.9177083333562,"value":0.6141732283464567},{"number":64,"time":249.92500000002286,"value":0.6535433070866141},{"number":64,"time":249.92500000002286,"value":0.6535433070866141},{"number":64,"time":249.93229166668954,"value":0.7559055118110236},{"number":64,"time":249.93333333335622,"value":0.7559055118110236},{"number":64,"time":249.94479166668955,"value":0.8661417322834646},{"number":64,"time":249.94583333335623,"value":0.8661417322834646},{"number":64,"time":250.0687500000229,"value":1},{"number":64,"time":250.06979166668958,"value":1},{"number":64,"time":250.22395833335625,"value":0.8661417322834646},{"number":64,"time":250.22500000002293,"value":0.8661417322834646},{"number":64,"time":250.2447916666896,"value":0.7559055118110236},{"number":64,"time":250.24583333335627,"value":0.7559055118110236},{"number":64,"time":250.25208333335627,"value":0.6614173228346457},{"number":64,"time":250.25312500002295,"value":0.6614173228346457},{"number":64,"time":250.26145833335627,"value":0.6299212598425197},{"number":64,"time":250.26145833335627,"value":0.6299212598425197},{"number":64,"time":250.26875000002295,"value":0.5984251968503937},{"number":64,"time":250.26979166668963,"value":0.5984251968503937},{"number":64,"time":250.28437500002295,"value":0.5669291338582677},{"number":64,"time":250.28541666668963,"value":0.5669291338582677},{"number":64,"time":250.3208333333563,"value":0.5984251968503937},{"number":64,"time":250.32187500002297,"value":0.5984251968503937},{"number":64,"time":250.33229166668963,"value":0.6299212598425197},{"number":64,"time":250.3333333333563,"value":0.6299212598425197},{"number":64,"time":250.34791666668966,"value":0.7559055118110236},{"number":64,"time":250.34895833335634,"value":0.7559055118110236},{"number":64,"time":250.36041666668967,"value":0.8503937007874016},{"number":64,"time":250.36041666668967,"value":0.8503937007874016},{"number":64,"time":250.44791666668968,"value":1},{"number":64,"time":250.44895833335636,"value":1},{"number":64,"time":250.60833333335634,"value":0.8661417322834646},{"number":64,"time":250.60833333335634,"value":0.8661417322834646},{"number":64,"time":250.62708333335635,"value":0.7322834645669292},{"number":64,"time":250.62812500002303,"value":0.7322834645669292},{"number":64,"time":250.6354166666897,"value":0.6456692913385826},{"number":64,"time":250.6364583333564,"value":0.6456692913385826},{"number":64,"time":250.64375000002306,"value":0.6141732283464567},{"number":64,"time":250.64479166668974,"value":0.6141732283464567},{"number":64,"time":250.65625000002308,"value":0.5748031496062992},{"number":64,"time":250.65729166668976,"value":0.5748031496062992},{"number":64,"time":250.68750000002308,"value":0.5433070866141733},{"number":64,"time":250.68854166668976,"value":0.5433070866141733},{"number":64,"time":250.70729166668977,"value":0.5748031496062992},{"number":64,"time":250.70833333335645,"value":0.5748031496062992},{"number":64,"time":250.7197916666898,"value":0.6062992125984252},{"number":64,"time":250.72083333335647,"value":0.6062992125984252},{"number":64,"time":250.73125000002312,"value":0.6456692913385826},{"number":64,"time":250.7322916666898,"value":0.6456692913385826},{"number":64,"time":250.74375000002314,"value":0.7559055118110236},{"number":64,"time":250.74479166668982,"value":0.7559055118110236},{"number":64,"time":250.76145833335647,"value":0.8503937007874016},{"number":64,"time":250.76250000002315,"value":0.8503937007874016},{"number":64,"time":250.91145833335648,"value":1},{"number":64,"time":250.91145833335648,"value":1},{"number":64,"time":251.08750000002317,"value":0.8661417322834646},{"number":64,"time":251.08854166668985,"value":0.8661417322834646},{"number":64,"time":251.1052083333565,"value":0.7559055118110236},{"number":64,"time":251.10625000002318,"value":0.7559055118110236},{"number":64,"time":251.11145833335652,"value":0.6614173228346457},{"number":64,"time":251.1125000000232,"value":0.6614173228346457},{"number":64,"time":251.11979166668988,"value":0.6141732283464567},{"number":64,"time":251.12083333335656,"value":0.6141732283464567},{"number":64,"time":251.13125000002321,"value":0.5748031496062992},{"number":64,"time":251.1322916666899,"value":0.5748031496062992},{"number":64,"time":251.14375000002323,"value":0.5433070866141733},{"number":64,"time":251.1447916666899,"value":0.5433070866141733},{"number":64,"time":251.15625000002325,"value":0.5118110236220472},{"number":64,"time":251.15729166668993,"value":0.5118110236220472},{"number":64,"time":251.18854166668993,"value":0.5433070866141733},{"number":64,"time":251.1895833333566,"value":0.5433070866141733},{"number":64,"time":251.20000000002327,"value":0.5748031496062992},{"number":64,"time":251.20104166668995,"value":0.5748031496062992},{"number":64,"time":251.21250000002328,"value":0.6062992125984252},{"number":64,"time":251.21354166668996,"value":0.6062992125984252},{"number":64,"time":251.22291666668997,"value":0.6535433070866141},{"number":64,"time":251.22395833335665,"value":0.6535433070866141},{"number":64,"time":251.23541666668999,"value":0.7795275590551181},{"number":64,"time":251.23645833335667,"value":0.7795275590551181},{"number":64,"time":251.25520833335668,"value":0.889763779527559},{"number":64,"time":251.25625000002336,"value":0.889763779527559},{"number":64,"time":251.35520833335667,"value":1},{"number":64,"time":251.35625000002335,"value":1},{"number":64,"time":251.54375000002338,"value":0.8661417322834646},{"number":64,"time":251.54479166669006,"value":0.8661417322834646},{"number":64,"time":251.56770833335673,"value":0.7322834645669292},{"number":64,"time":251.5687500000234,"value":0.7322834645669292},{"number":64,"time":251.57916666669007,"value":0.6456692913385826},{"number":64,"time":251.58020833335675,"value":0.6456692913385826},{"number":64,"time":251.58750000002343,"value":0.6141732283464567},{"number":64,"time":251.5885416666901,"value":0.6141732283464567},{"number":64,"time":251.64895833335677,"value":0.6456692913385826},{"number":64,"time":251.65000000002345,"value":0.6456692913385826},{"number":64,"time":251.66354166669012,"value":0.7795275590551181},{"number":64,"time":251.6645833333568,"value":0.7795275590551181},{"number":64,"time":251.6833333333568,"value":0.889763779527559},{"number":64,"time":251.6843750000235,"value":0.889763779527559},{"number":64,"time":251.77916666669017,"value":1},{"number":64,"time":251.78020833335685,"value":1},{"number":64,"time":251.96770833335682,"value":0.8661417322834646},{"number":64,"time":251.9687500000235,"value":0.8661417322834646},{"number":64,"time":251.98750000002352,"value":0.7559055118110236},{"number":64,"time":251.9885416666902,"value":0.7559055118110236},{"number":64,"time":251.99583333335687,"value":0.6614173228346457},{"number":64,"time":251.99583333335687,"value":0.6614173228346457},{"number":64,"time":252.0041666666902,"value":0.6299212598425197},{"number":64,"time":252.00520833335688,"value":0.6299212598425197},{"number":64,"time":252.01562500002353,"value":0.5905511811023622},{"number":64,"time":252.0166666666902,"value":0.5905511811023622},{"number":64,"time":252.0760416666902,"value":0.6220472440944882},{"number":64,"time":252.0760416666902,"value":0.6220472440944882},{"number":64,"time":252.08333333335688,"value":0.6535433070866141},{"number":64,"time":252.08333333335688,"value":0.6535433070866141},{"number":64,"time":252.09583333335686,"value":0.7795275590551181},{"number":64,"time":252.09583333335686,"value":0.7795275590551181},{"number":64,"time":252.11145833335686,"value":0.889763779527559},{"number":64,"time":252.11145833335686,"value":0.889763779527559},{"number":64,"time":252.18437500002352,"value":1},{"number":64,"time":252.1854166666902,"value":1},{"number":64,"time":252.37500000002353,"value":0.8661417322834646},{"number":64,"time":252.3760416666902,"value":0.8661417322834646},{"number":64,"time":252.3947916666902,"value":0.7559055118110236},{"number":64,"time":252.39583333335688,"value":0.7559055118110236},{"number":64,"time":252.40312500002355,"value":0.6614173228346457},{"number":64,"time":252.40416666669023,"value":0.6614173228346457},{"number":64,"time":252.41250000002356,"value":0.6299212598425197},{"number":64,"time":252.41354166669024,"value":0.6299212598425197},{"number":64,"time":252.41979166669023,"value":0.5984251968503937},{"number":64,"time":252.41979166669023,"value":0.5984251968503937},{"number":64,"time":252.43541666669023,"value":0.5669291338582677},{"number":64,"time":252.4364583333569,"value":0.5669291338582677},{"number":64,"time":252.47187500002357,"value":0.5984251968503937},{"number":64,"time":252.47187500002357,"value":0.5984251968503937},{"number":64,"time":252.4833333333569,"value":0.6299212598425197},{"number":64,"time":252.4833333333569,"value":0.6299212598425197},{"number":64,"time":252.5000000000236,"value":0.7559055118110236},{"number":64,"time":252.5000000000236,"value":0.7559055118110236},{"number":64,"time":252.51145833335693,"value":0.8503937007874016},{"number":64,"time":252.51145833335693,"value":0.8503937007874016},{"number":64,"time":252.6229166666903,"value":1},{"number":64,"time":252.62395833335697,"value":1},{"number":64,"time":252.7916666666903,"value":0.8661417322834646},{"number":64,"time":252.79270833335698,"value":0.8661417322834646},{"number":64,"time":252.81041666669032,"value":0.7559055118110236},{"number":64,"time":252.81041666669032,"value":0.7559055118110236},{"number":64,"time":252.81979166669032,"value":0.6614173228346457},{"number":64,"time":252.81979166669032,"value":0.6614173228346457},{"number":64,"time":252.827083333357,"value":0.6299212598425197},{"number":64,"time":252.82812500002368,"value":0.6299212598425197},{"number":64,"time":252.839583333357,"value":0.5984251968503937},{"number":64,"time":252.8406250000237,"value":0.5984251968503937},{"number":64,"time":252.87916666669037,"value":0.6299212598425197},{"number":64,"time":252.88020833335705,"value":0.6299212598425197},{"number":64,"time":252.9000000000237,"value":0.7559055118110236},{"number":64,"time":252.9000000000237,"value":0.7559055118110236},{"number":64,"time":252.91145833335705,"value":0.8503937007874016},{"number":64,"time":252.91145833335705,"value":0.8503937007874016},{"number":64,"time":252.97916666669036,"value":1},{"number":64,"time":252.98020833335704,"value":1},{"number":64,"time":253.29895833335706,"value":0.8503937007874016},{"number":64,"time":253.30000000002374,"value":0.8503937007874016},{"number":64,"time":253.3104166666904,"value":0.7086614173228346},{"number":64,"time":253.31145833335708,"value":0.7086614173228346},{"number":64,"time":253.3145833333571,"value":0.6456692913385826},{"number":64,"time":253.31562500002377,"value":0.6456692913385826},{"number":64,"time":253.31979166669043,"value":0.6141732283464567},{"number":64,"time":253.31979166669043,"value":0.6141732283464567},{"number":64,"time":253.32604166669043,"value":0.5590551181102362},{"number":64,"time":253.3270833333571,"value":0.5590551181102362},{"number":64,"time":253.33020833335712,"value":0.5275590551181102},{"number":64,"time":253.3312500000238,"value":0.5275590551181102},{"number":64,"time":253.3343750000238,"value":0.4881889763779528},{"number":64,"time":253.3354166666905,"value":0.4881889763779528},{"number":64,"time":253.34270833335717,"value":0.3543307086614173},{"number":64,"time":253.34375000002385,"value":0.3543307086614173},{"number":64,"time":253.35000000002384,"value":0.2047244094488189},{"number":64,"time":253.35104166669052,"value":0.2047244094488189},{"number":64,"time":253.35937500002385,"value":0.10236220472440945},{"number":64,"time":253.35937500002385,"value":0.10236220472440945},{"number":64,"time":253.3791666666905,"value":0},{"number":64,"time":253.3802083333572,"value":0},{"number":64,"time":253.4145833333572,"value":0.10236220472440945},{"number":64,"time":253.41562500002388,"value":0.10236220472440945},{"number":64,"time":253.42187500002387,"value":0.2283464566929134},{"number":64,"time":253.42291666669055,"value":0.2283464566929134},{"number":64,"time":253.43020833335723,"value":0.3543307086614173},{"number":64,"time":253.43020833335723,"value":0.3543307086614173},{"number":64,"time":253.43854166669055,"value":0.48031496062992124},{"number":64,"time":253.43958333335723,"value":0.48031496062992124},{"number":64,"time":253.44270833335725,"value":0.5118110236220472},{"number":64,"time":253.44375000002393,"value":0.5118110236220472},{"number":64,"time":253.44895833335727,"value":0.5511811023622047},{"number":64,"time":253.45000000002395,"value":0.5511811023622047},{"number":64,"time":253.45937500002395,"value":0.5826771653543307},{"number":64,"time":253.46041666669063,"value":0.5826771653543307},{"number":64,"time":253.46979166669064,"value":0.6141732283464567},{"number":64,"time":253.47083333335732,"value":0.6141732283464567},{"number":64,"time":253.478125000024,"value":0.6456692913385826},{"number":64,"time":253.47916666669067,"value":0.6456692913385826},{"number":64,"time":253.48958333335733,"value":0.7559055118110236},{"number":64,"time":253.490625000024,"value":0.7559055118110236},{"number":64,"time":253.51354166669068,"value":0.8503937007874016},{"number":64,"time":253.51458333335736,"value":0.8503937007874016},{"number":64,"time":253.59062500002403,"value":1},{"number":64,"time":253.5916666666907,"value":1},{"number":64,"time":253.70625000002403,"value":0.8661417322834646},{"number":64,"time":253.7072916666907,"value":0.8661417322834646},{"number":64,"time":253.7270833333574,"value":0.7322834645669292},{"number":64,"time":253.72812500002408,"value":0.7322834645669292},{"number":64,"time":253.73437500002407,"value":0.6535433070866141},{"number":64,"time":253.73541666669075,"value":0.6535433070866141},{"number":64,"time":253.74270833335743,"value":0.6141732283464567},{"number":64,"time":253.7437500000241,"value":0.6141732283464567},{"number":64,"time":253.75833333335743,"value":0.5826771653543307},{"number":64,"time":253.7593750000241,"value":0.5826771653543307},{"number":64,"time":253.80104166669076,"value":0.6141732283464567},{"number":64,"time":253.80208333335744,"value":0.6141732283464567},{"number":64,"time":253.81041666669077,"value":0.6456692913385826},{"number":64,"time":253.81145833335745,"value":0.6456692913385826},{"number":64,"time":253.8260416666908,"value":0.7795275590551181},{"number":64,"time":253.82708333335748,"value":0.7795275590551181},{"number":64,"time":253.84791666669082,"value":0.889763779527559},{"number":64,"time":253.84791666669082,"value":0.889763779527559},{"number":64,"time":253.92500000002417,"value":1},{"number":64,"time":253.92604166669085,"value":1},{"number":64,"time":254.1093750000242,"value":0.8661417322834646},{"number":64,"time":254.1093750000242,"value":0.8661417322834646},{"number":64,"time":254.12916666669085,"value":0.7559055118110236},{"number":64,"time":254.12916666669085,"value":0.7559055118110236},{"number":64,"time":254.13750000002418,"value":0.6614173228346457},{"number":64,"time":254.13854166669086,"value":0.6614173228346457},{"number":64,"time":254.14687500002418,"value":0.6220472440944882},{"number":64,"time":254.14791666669086,"value":0.6220472440944882},{"number":64,"time":254.15729166669087,"value":0.5826771653543307},{"number":64,"time":254.15833333335755,"value":0.5826771653543307},{"number":64,"time":254.2093750000242,"value":0.6141732283464567},{"number":64,"time":254.2093750000242,"value":0.6141732283464567},{"number":64,"time":254.21770833335754,"value":0.6456692913385826},{"number":64,"time":254.21875000002422,"value":0.6456692913385826},{"number":64,"time":254.23333333335754,"value":0.7795275590551181},{"number":64,"time":254.23437500002422,"value":0.7795275590551181},{"number":64,"time":254.25729166669086,"value":0.9133858267716536},{"number":64,"time":254.25729166669086,"value":0.9133858267716536},{"number":64,"time":254.38125000002424,"value":1},{"number":64,"time":254.38125000002424,"value":1},{"number":64,"time":254.54583333335756,"value":0.8661417322834646},{"number":64,"time":254.54583333335756,"value":0.8661417322834646},{"number":64,"time":254.5666666666909,"value":0.7559055118110236},{"number":64,"time":254.5677083333576,"value":0.7559055118110236},{"number":64,"time":254.5770833333576,"value":0.6535433070866141},{"number":64,"time":254.57812500002427,"value":0.6535433070866141},{"number":64,"time":254.58541666669095,"value":0.6220472440944882},{"number":64,"time":254.58645833335763,"value":0.6220472440944882},{"number":64,"time":254.64895833335763,"value":0.7322834645669292},{"number":64,"time":254.6500000000243,"value":0.7322834645669292},{"number":64,"time":254.6656250000243,"value":0.8267716535433071},{"number":64,"time":254.666666666691,"value":0.8267716535433071},{"number":64,"time":254.74583333335764,"value":0.937007874015748},{"number":64,"time":254.74687500002432,"value":0.937007874015748},{"number":64,"time":254.84895833335764,"value":1},{"number":64,"time":254.85000000002432,"value":1},{"number":64,"time":255.02083333335767,"value":0.8661417322834646},{"number":64,"time":255.02187500002435,"value":0.8661417322834646},{"number":64,"time":255.04166666669101,"value":0.7322834645669292},{"number":64,"time":255.0427083333577,"value":0.7322834645669292},{"number":64,"time":255.0489583333577,"value":0.6456692913385826},{"number":64,"time":255.05000000002437,"value":0.6456692913385826},{"number":64,"time":255.05729166669104,"value":0.6141732283464567},{"number":64,"time":255.05833333335772,"value":0.6141732283464567},{"number":64,"time":255.08541666669106,"value":0.5826771653543307},{"number":64,"time":255.08645833335774,"value":0.5826771653543307},{"number":64,"time":255.10520833335775,"value":0.6141732283464567},{"number":64,"time":255.10520833335775,"value":0.6141732283464567},{"number":64,"time":255.11770833335777,"value":0.6456692913385826},{"number":64,"time":255.11875000002445,"value":0.6456692913385826},{"number":64,"time":255.13333333335777,"value":0.7795275590551181},{"number":64,"time":255.13437500002445,"value":0.7795275590551181},{"number":64,"time":255.15729166669112,"value":0.889763779527559},{"number":64,"time":255.1583333333578,"value":0.889763779527559},{"number":64,"time":255.24895833335782,"value":1},{"number":64,"time":255.2500000000245,"value":1},{"number":64,"time":255.42083333335782,"value":0.8661417322834646},{"number":64,"time":255.4218750000245,"value":0.8661417322834646},{"number":64,"time":255.44479166669117,"value":0.7559055118110236},{"number":64,"time":255.44583333335785,"value":0.7559055118110236},{"number":64,"time":255.4572916666912,"value":0.6535433070866141},{"number":64,"time":255.4572916666912,"value":0.6535433070866141},{"number":64,"time":255.46875000002453,"value":0.6220472440944882},{"number":64,"time":255.4697916666912,"value":0.6220472440944882},{"number":64,"time":255.5135416666912,"value":0.6535433070866141},{"number":64,"time":255.51458333335788,"value":0.6535433070866141},{"number":64,"time":255.52500000002453,"value":0.7559055118110236},{"number":64,"time":255.5260416666912,"value":0.7559055118110236},{"number":64,"time":255.5416666666912,"value":0.8503937007874016},{"number":64,"time":255.5427083333579,"value":0.8503937007874016},{"number":64,"time":255.7135416666912,"value":1},{"number":64,"time":255.7145833333579,"value":1},{"number":64,"time":255.88437500002453,"value":0.8661417322834646},{"number":64,"time":255.8854166666912,"value":0.8661417322834646},{"number":64,"time":255.90520833335788,"value":0.7559055118110236},{"number":64,"time":255.90625000002456,"value":0.7559055118110236},{"number":64,"time":255.91250000002458,"value":0.6614173228346457},{"number":64,"time":255.91354166669126,"value":0.6614173228346457},{"number":64,"time":255.92083333335793,"value":0.6299212598425197},{"number":64,"time":255.9218750000246,"value":0.6299212598425197},{"number":64,"time":255.93229166669127,"value":0.5984251968503937},{"number":64,"time":255.93333333335795,"value":0.5984251968503937},{"number":64,"time":255.9916666666913,"value":0.6299212598425197},{"number":64,"time":255.99270833335797,"value":0.6299212598425197},{"number":64,"time":256.008333333358,"value":0.7322834645669292},{"number":64,"time":256.00937500002465,"value":0.7322834645669292},{"number":64,"time":256.01979166669133,"value":0.8267716535433071},{"number":64,"time":256.020833333358,"value":0.8267716535433071},{"number":64,"time":256.04062500002465,"value":0.937007874015748},{"number":64,"time":256.0416666666913,"value":0.937007874015748},{"number":64,"time":256.12083333335795,"value":1},{"number":64,"time":256.12083333335795,"value":1},{"number":64,"time":256.9635416666911,"value":0.8503937007874016},{"number":64,"time":256.9645833333578,"value":0.8503937007874016},{"number":64,"time":256.97187500002445,"value":0.7322834645669292},{"number":64,"time":256.9729166666911,"value":0.7322834645669292},{"number":64,"time":256.98125000002443,"value":0.6377952755905512},{"number":64,"time":256.98125000002443,"value":0.6377952755905512},{"number":64,"time":256.98437500002444,"value":0.6062992125984252},{"number":64,"time":256.9854166666911,"value":0.6062992125984252},{"number":64,"time":256.9916666666911,"value":0.5590551181102362},{"number":64,"time":256.99270833335777,"value":0.5590551181102362},{"number":64,"time":257.00000000002444,"value":0.5039370078740157},{"number":64,"time":257.0010416666911,"value":0.5039370078740157},{"number":64,"time":257.0041666666911,"value":0.47244094488188976},{"number":64,"time":257.0041666666911,"value":0.47244094488188976},{"number":64,"time":257.01250000002443,"value":0.33070866141732286},{"number":64,"time":257.0135416666911,"value":0.33070866141732286},{"number":64,"time":257.0843750000244,"value":0.47244094488188976},{"number":64,"time":257.08541666669106,"value":0.47244094488188976},{"number":64,"time":257.0916666666911,"value":0.5118110236220472},{"number":64,"time":257.09270833335773,"value":0.5118110236220472},{"number":64,"time":257.1000000000244,"value":0.5433070866141733},{"number":64,"time":257.10104166669106,"value":0.5433070866141733},{"number":64,"time":257.1125000000244,"value":0.5748031496062992},{"number":64,"time":257.11354166669105,"value":0.5748031496062992},{"number":64,"time":257.12395833335773,"value":0.6062992125984252},{"number":64,"time":257.1250000000244,"value":0.6062992125984252},{"number":64,"time":257.13229166669106,"value":0.6456692913385826},{"number":64,"time":257.1333333333577,"value":0.6456692913385826},{"number":64,"time":257.1458333333577,"value":0.7559055118110236},{"number":64,"time":257.14687500002435,"value":0.7559055118110236},{"number":64,"time":257.160416666691,"value":0.8503937007874016},{"number":64,"time":257.16145833335764,"value":0.8503937007874016},{"number":64,"time":257.504166666691,"value":1},{"number":64,"time":257.50520833335764,"value":1},{"number":64,"time":257.6364583333576,"value":0.8661417322834646},{"number":64,"time":257.63750000002426,"value":0.8661417322834646},{"number":64,"time":257.66041666669094,"value":0.7322834645669292},{"number":64,"time":257.6614583333576,"value":0.7322834645669292},{"number":64,"time":257.6718750000243,"value":0.6535433070866141},{"number":64,"time":257.6729166666909,"value":0.6535433070866141},{"number":64,"time":257.68437500002426,"value":0.6220472440944882},{"number":64,"time":257.6854166666909,"value":0.6220472440944882},{"number":64,"time":257.7197916666909,"value":0.6535433070866141},{"number":64,"time":257.7208333333576,"value":0.6535433070866141},{"number":64,"time":257.7406250000243,"value":0.7559055118110236},{"number":64,"time":257.7406250000243,"value":0.7559055118110236},{"number":64,"time":257.7562500000243,"value":0.8503937007874016},{"number":64,"time":257.75729166669095,"value":0.8503937007874016},{"number":64,"time":257.87187500002426,"value":1},{"number":64,"time":257.8729166666909,"value":1},{"number":64,"time":257.97604166669095,"value":0.8661417322834646},{"number":64,"time":257.97604166669095,"value":0.8661417322834646},{"number":64,"time":258.17604166669094,"value":1},{"number":64,"time":258.1770833333576,"value":1},{"number":64,"time":258.40000000002425,"value":0.8661417322834646},{"number":64,"time":258.4010416666909,"value":0.8661417322834646},{"number":64,"time":258.4395833333576,"value":0.7559055118110236},{"number":64,"time":258.4406250000242,"value":0.7559055118110236},{"number":64,"time":258.4843750000242,"value":0.8503937007874016},{"number":64,"time":258.48541666669087,"value":0.8503937007874016},{"number":64,"time":258.62291666669086,"value":1},{"number":64,"time":258.6239583333575,"value":1},{"number":64,"time":258.8510416666909,"value":0.8661417322834646},{"number":64,"time":258.85208333335754,"value":0.8661417322834646},{"number":64,"time":258.8750000000242,"value":0.7559055118110236},{"number":64,"time":258.8750000000242,"value":0.7559055118110236},{"number":64,"time":258.8875000000242,"value":0.6535433070866141},{"number":64,"time":258.88854166669086,"value":0.6535433070866141},{"number":64,"time":258.9000000000242,"value":0.6220472440944882},{"number":64,"time":258.9000000000242,"value":0.6220472440944882},{"number":64,"time":258.9593750000242,"value":0.6535433070866141},{"number":64,"time":258.96041666669083,"value":0.6535433070866141},{"number":64,"time":258.9708333333575,"value":0.7559055118110236},{"number":64,"time":258.97187500002417,"value":0.7559055118110236},{"number":64,"time":258.98750000002417,"value":0.8503937007874016},{"number":64,"time":258.9885416666908,"value":0.8503937007874016},{"number":64,"time":259.13229166669083,"value":1},{"number":64,"time":259.1333333333575,"value":1},{"number":64,"time":259.29062500002414,"value":0.8661417322834646},{"number":64,"time":259.2916666666908,"value":0.8661417322834646},{"number":64,"time":259.31145833335745,"value":0.7559055118110236},{"number":64,"time":259.3125000000241,"value":0.7559055118110236},{"number":64,"time":259.3187500000241,"value":0.6614173228346457},{"number":64,"time":259.3197916666908,"value":0.6614173228346457},{"number":64,"time":259.3281250000241,"value":0.6299212598425197},{"number":64,"time":259.32916666669075,"value":0.6299212598425197},{"number":64,"time":259.33854166669073,"value":0.5905511811023622},{"number":64,"time":259.3406250000241,"value":0.5905511811023622},{"number":64,"time":259.39479166669076,"value":0.6220472440944882},{"number":64,"time":259.3958333333574,"value":0.6220472440944882},{"number":64,"time":259.4156250000241,"value":0.7559055118110236},{"number":64,"time":259.4156250000241,"value":0.7559055118110236},{"number":64,"time":259.4312500000241,"value":0.8503937007874016},{"number":64,"time":259.43229166669073,"value":0.8503937007874016},{"number":64,"time":259.5833333333574,"value":1},{"number":64,"time":259.58437500002407,"value":1},{"number":64,"time":259.75104166669075,"value":0.8661417322834646},{"number":64,"time":259.75104166669075,"value":0.8661417322834646},{"number":64,"time":259.77604166669073,"value":0.7322834645669292},{"number":64,"time":259.7770833333574,"value":0.7322834645669292},{"number":64,"time":259.78750000002407,"value":0.6456692913385826},{"number":64,"time":259.7885416666907,"value":0.6456692913385826},{"number":64,"time":259.80729166669073,"value":0.6141732283464567},{"number":64,"time":259.8083333333574,"value":0.6141732283464567},{"number":64,"time":259.84687500002406,"value":0.6456692913385826},{"number":64,"time":259.8479166666907,"value":0.6456692913385826},{"number":64,"time":259.8708333333574,"value":0.7559055118110236},{"number":64,"time":259.87187500002403,"value":0.7559055118110236},{"number":64,"time":259.92708333335736,"value":0.8503937007874016},{"number":64,"time":259.928125000024,"value":0.8503937007874016},{"number":64,"time":260.04687500002404,"value":1},{"number":64,"time":260.0479166666907,"value":1},{"number":64,"time":260.17916666669066,"value":0.8661417322834646},{"number":64,"time":260.1802083333573,"value":0.8661417322834646},{"number":64,"time":260.203125000024,"value":0.7559055118110236},{"number":64,"time":260.203125000024,"value":0.7559055118110236},{"number":64,"time":260.215625000024,"value":0.6535433070866141},{"number":64,"time":260.215625000024,"value":0.6535433070866141},{"number":64,"time":260.2270833333573,"value":0.6141732283464567},{"number":64,"time":260.22812500002397,"value":0.6141732283464567},{"number":64,"time":260.246875000024,"value":0.5826771653543307},{"number":64,"time":260.2479166666906,"value":0.5826771653543307},{"number":64,"time":260.2833333333573,"value":0.6220472440944882},{"number":64,"time":260.28437500002394,"value":0.6220472440944882},{"number":64,"time":260.3072916666906,"value":0.7322834645669292},{"number":64,"time":260.30833333335727,"value":0.7322834645669292},{"number":64,"time":260.3229166666906,"value":0.8503937007874016},{"number":64,"time":260.3229166666906,"value":0.8503937007874016},{"number":64,"time":260.41562500002397,"value":1},{"number":64,"time":260.4166666666906,"value":1},{"number":64,"time":260.7552083333573,"value":0.8661417322834646},{"number":64,"time":260.75625000002395,"value":0.8661417322834646},{"number":64,"time":260.7708333333573,"value":0.7559055118110236},{"number":64,"time":260.77187500002395,"value":0.7559055118110236},{"number":64,"time":260.7791666666906,"value":0.6535433070866141},{"number":64,"time":260.7791666666906,"value":0.6535433070866141},{"number":64,"time":260.78437500002394,"value":0.6220472440944882},{"number":64,"time":260.7854166666906,"value":0.6220472440944882},{"number":64,"time":260.7906250000239,"value":0.5826771653543307},{"number":64,"time":260.79166666669056,"value":0.5826771653543307},{"number":64,"time":260.79895833335723,"value":0.5433070866141733},{"number":64,"time":260.8000000000239,"value":0.5433070866141733},{"number":64,"time":260.8031250000239,"value":0.5118110236220472},{"number":64,"time":260.80416666669055,"value":0.5118110236220472},{"number":64,"time":260.8114583333572,"value":0.47244094488188976},{"number":64,"time":260.8125000000239,"value":0.47244094488188976},{"number":64,"time":260.8677083333572,"value":0.5039370078740157},{"number":64,"time":260.8677083333572,"value":0.5039370078740157},{"number":64,"time":260.87916666669054,"value":0.5354330708661418},{"number":64,"time":260.8802083333572,"value":0.5354330708661418},{"number":64,"time":260.8906250000239,"value":0.5669291338582677},{"number":64,"time":260.8916666666905,"value":0.5669291338582677},{"number":64,"time":260.90312500002386,"value":0.5984251968503937},{"number":64,"time":260.9041666666905,"value":0.5984251968503937},{"number":64,"time":260.9114583333572,"value":0.6299212598425197},{"number":64,"time":260.9114583333572,"value":0.6299212598425197},{"number":64,"time":260.9229166666905,"value":0.7795275590551181},{"number":64,"time":260.9229166666905,"value":0.7795275590551181},{"number":64,"time":260.9395833333572,"value":0.889763779527559},{"number":64,"time":260.94062500002383,"value":0.889763779527559},{"number":64,"time":261.2708333333572,"value":1},{"number":64,"time":261.27187500002384,"value":1},{"number":64,"time":261.4895833333572,"value":0.8661417322834646},{"number":64,"time":261.49062500002384,"value":0.8661417322834646},{"number":64,"time":261.5177083333572,"value":0.7322834645669292},{"number":64,"time":261.51875000002383,"value":0.7322834645669292},{"number":64,"time":261.53020833335717,"value":0.6456692913385826},{"number":64,"time":261.5312500000238,"value":0.6456692913385826},{"number":64,"time":261.54270833335715,"value":0.6141732283464567},{"number":64,"time":261.5437500000238,"value":0.6141732283464567},{"number":64,"time":261.58958333335715,"value":0.6456692913385826},{"number":64,"time":261.5906250000238,"value":0.6456692913385826},{"number":64,"time":261.6114583333571,"value":0.7559055118110236},{"number":64,"time":261.6125000000238,"value":0.7559055118110236},{"number":64,"time":261.6260416666904,"value":0.8503937007874016},{"number":64,"time":261.62708333335706,"value":0.8503937007874016},{"number":64,"time":261.75416666669037,"value":1},{"number":64,"time":261.755208333357,"value":1},{"number":64,"time":262.02604166669033,"value":0.8661417322834646},{"number":64,"time":262.027083333357,"value":0.8661417322834646},{"number":64,"time":262.0541666666903,"value":0.7559055118110236},{"number":64,"time":262.055208333357,"value":0.7559055118110236},{"number":64,"time":262.13020833335696,"value":0.8503937007874016},{"number":64,"time":262.1312500000236,"value":0.8503937007874016},{"number":64,"time":262.3583333333569,"value":1},{"number":64,"time":262.3583333333569,"value":1},{"number":64,"time":262.52187500002356,"value":0.8661417322834646},{"number":64,"time":262.5229166666902,"value":0.8661417322834646},{"number":64,"time":262.5416666666902,"value":0.7322834645669292},{"number":64,"time":262.54270833335687,"value":0.7322834645669292},{"number":64,"time":262.5510416666902,"value":0.6456692913385826},{"number":64,"time":262.5510416666902,"value":0.6456692913385826},{"number":64,"time":262.55833333335687,"value":0.6141732283464567},{"number":64,"time":262.55833333335687,"value":0.6141732283464567},{"number":64,"time":262.5697916666902,"value":0.5826771653543307},{"number":64,"time":262.57083333335686,"value":0.5826771653543307},{"number":64,"time":262.63020833335685,"value":0.6141732283464567},{"number":64,"time":262.6312500000235,"value":0.6141732283464567},{"number":64,"time":262.6385416666902,"value":0.6456692913385826},{"number":64,"time":262.6385416666902,"value":0.6456692913385826},{"number":64,"time":262.6500000000235,"value":0.7559055118110236},{"number":64,"time":262.65104166669016,"value":0.7559055118110236},{"number":64,"time":262.66666666669016,"value":0.8661417322834646},{"number":64,"time":262.66666666669016,"value":0.8661417322834646},{"number":64,"time":262.75416666669014,"value":1},{"number":64,"time":262.7552083333568,"value":1},{"number":64,"time":262.9822916666902,"value":0.8661417322834646},{"number":64,"time":262.9822916666902,"value":0.8661417322834646},{"number":64,"time":263.0062500000235,"value":0.7322834645669292},{"number":64,"time":263.00729166669015,"value":0.7322834645669292},{"number":64,"time":263.01770833335684,"value":0.6535433070866141},{"number":64,"time":263.0187500000235,"value":0.6535433070866141},{"number":64,"time":263.0302083333568,"value":0.6220472440944882},{"number":64,"time":263.0312500000235,"value":0.6220472440944882},{"number":64,"time":263.08229166669014,"value":0.6535433070866141},{"number":64,"time":263.0833333333568,"value":0.6535433070866141},{"number":64,"time":263.09791666669014,"value":0.7795275590551181},{"number":64,"time":263.0989583333568,"value":0.7795275590551181},{"number":64,"time":263.12187500002346,"value":0.889763779527559},{"number":64,"time":263.12187500002346,"value":0.889763779527559},{"number":64,"time":263.23750000002354,"value":1},{"number":64,"time":263.2385416666902,"value":1},{"number":64,"time":263.4343750000235,"value":0.8661417322834646},{"number":64,"time":263.4343750000235,"value":0.8661417322834646},{"number":64,"time":263.45833333335685,"value":0.7322834645669292},{"number":64,"time":263.45833333335685,"value":0.7322834645669292},{"number":64,"time":263.4697916666902,"value":0.6535433070866141},{"number":64,"time":263.47083333335684,"value":0.6535433070866141},{"number":64,"time":263.47708333335686,"value":0.6220472440944882},{"number":64,"time":263.4781250000235,"value":0.6220472440944882},{"number":64,"time":263.55416666669015,"value":0.7559055118110236},{"number":64,"time":263.5552083333568,"value":0.7559055118110236},{"number":64,"time":263.57291666669016,"value":0.8503937007874016},{"number":64,"time":263.5739583333568,"value":0.8503937007874016},{"number":64,"time":263.66562500002345,"value":1},{"number":64,"time":263.6666666666901,"value":1},{"number":64,"time":263.85312500002345,"value":0.8661417322834646},{"number":64,"time":263.8541666666901,"value":0.8661417322834646},{"number":64,"time":263.8822916666901,"value":0.7559055118110236},{"number":64,"time":263.8822916666901,"value":0.7559055118110236},{"number":64,"time":263.89166666669007,"value":0.6535433070866141},{"number":64,"time":263.8927083333567,"value":0.6535433070866141},{"number":64,"time":263.9083333333567,"value":0.6220472440944882},{"number":64,"time":263.9093750000234,"value":0.6220472440944882},{"number":64,"time":263.9489583333567,"value":0.6535433070866141},{"number":64,"time":263.95000000002335,"value":0.6535433070866141},{"number":64,"time":263.96562500002335,"value":0.7559055118110236},{"number":64,"time":263.96666666669,"value":0.7559055118110236},{"number":64,"time":263.98229166669,"value":0.8503937007874016},{"number":64,"time":263.98229166669,"value":0.8503937007874016},{"number":64,"time":264.2739583333567,"value":1},{"number":64,"time":264.27500000002334,"value":1},{"number":64,"time":264.44479166669,"value":0.8661417322834646},{"number":64,"time":264.44583333335663,"value":0.8661417322834646},{"number":64,"time":264.46770833335665,"value":0.7322834645669292},{"number":64,"time":264.4687500000233,"value":0.7322834645669292},{"number":64,"time":264.47708333335663,"value":0.6535433070866141},{"number":64,"time":264.4781250000233,"value":0.6535433070866141},{"number":64,"time":264.4843750000233,"value":0.6141732283464567},{"number":64,"time":264.4843750000233,"value":0.6141732283464567},{"number":64,"time":264.4968750000233,"value":0.5826771653543307},{"number":64,"time":264.49791666668995,"value":0.5826771653543307},{"number":64,"time":264.56354166668996,"value":0.6141732283464567},{"number":64,"time":264.5645833333566,"value":0.6141732283464567},{"number":64,"time":264.57604166668995,"value":0.6535433070866141},{"number":64,"time":264.5770833333566,"value":0.6535433070866141},{"number":64,"time":264.5875000000233,"value":0.7559055118110236},{"number":64,"time":264.58854166668993,"value":0.7559055118110236},{"number":64,"time":264.6000000000233,"value":0.8503937007874016},{"number":64,"time":264.6000000000233,"value":0.8503937007874016},{"number":64,"time":264.7197916666899,"value":1},{"number":64,"time":264.7197916666899,"value":1},{"number":64,"time":264.90833333335655,"value":0.8661417322834646},{"number":64,"time":264.9093750000232,"value":0.8661417322834646},{"number":64,"time":264.9322916666899,"value":0.7559055118110236},{"number":64,"time":264.93333333335653,"value":0.7559055118110236},{"number":64,"time":264.93958333335655,"value":0.6614173228346457},{"number":64,"time":264.9406250000232,"value":0.6614173228346457},{"number":64,"time":264.95208333335654,"value":0.6220472440944882},{"number":64,"time":264.9531250000232,"value":0.6220472440944882},{"number":64,"time":264.9635416666899,"value":0.5905511811023622},{"number":64,"time":264.96458333335653,"value":0.5905511811023622},{"number":64,"time":265.01979166668985,"value":0.6220472440944882},{"number":64,"time":265.01979166668985,"value":0.6220472440944882},{"number":64,"time":265.03333333335655,"value":0.6535433070866141},{"number":64,"time":265.0343750000232,"value":0.6535433070866141},{"number":64,"time":265.0437500000232,"value":0.7559055118110236},{"number":64,"time":265.0437500000232,"value":0.7559055118110236},{"number":64,"time":265.06041666668983,"value":0.8503937007874016},{"number":64,"time":265.0614583333565,"value":0.8503937007874016},{"number":64,"time":265.14375000002315,"value":1},{"number":64,"time":265.14375000002315,"value":1},{"number":64,"time":265.32812500002314,"value":0.8661417322834646},{"number":64,"time":265.3291666666898,"value":0.8661417322834646},{"number":64,"time":265.35208333335646,"value":0.7322834645669292},{"number":64,"time":265.3531250000231,"value":0.7322834645669292},{"number":64,"time":265.35937500002314,"value":0.6535433070866141},{"number":64,"time":265.3604166666898,"value":0.6535433070866141},{"number":64,"time":265.3718750000231,"value":0.6141732283464567},{"number":64,"time":265.3729166666898,"value":0.6141732283464567},{"number":64,"time":265.3916666666898,"value":0.5748031496062992},{"number":64,"time":265.39270833335644,"value":0.5748031496062992},{"number":64,"time":265.4281250000231,"value":0.6062992125984252},{"number":64,"time":265.4281250000231,"value":0.6062992125984252},{"number":64,"time":265.4437500000231,"value":0.6456692913385826},{"number":64,"time":265.44479166668975,"value":0.6456692913385826},{"number":64,"time":265.4593750000231,"value":0.7559055118110236},{"number":64,"time":265.46041666668975,"value":0.7559055118110236},{"number":64,"time":265.47604166668975,"value":0.8503937007874016},{"number":64,"time":265.4770833333564,"value":0.8503937007874016},{"number":64,"time":265.5875000000231,"value":1},{"number":64,"time":265.58854166668976,"value":1},{"number":64,"time":265.77604166668976,"value":0.8661417322834646},{"number":64,"time":265.7770833333564,"value":0.8661417322834646},{"number":64,"time":265.80416666668975,"value":0.7322834645669292},{"number":64,"time":265.8052083333564,"value":0.7322834645669292},{"number":64,"time":265.8156250000231,"value":0.6535433070866141},{"number":64,"time":265.8156250000231,"value":0.6535433070866141},{"number":64,"time":265.83229166668974,"value":0.6220472440944882},{"number":64,"time":265.8333333333564,"value":0.6220472440944882},{"number":64,"time":265.87604166668973,"value":0.6535433070866141},{"number":64,"time":265.8770833333564,"value":0.6535433070866141},{"number":64,"time":265.8958333333564,"value":0.7559055118110236},{"number":64,"time":265.89687500002304,"value":0.7559055118110236},{"number":64,"time":265.91562500002306,"value":0.8503937007874016},{"number":64,"time":265.9166666666897,"value":0.8503937007874016},{"number":64,"time":266.0958333333564,"value":1},{"number":64,"time":266.09687500002303,"value":1},{"number":64,"time":266.28229166668973,"value":0.8661417322834646},{"number":64,"time":266.2833333333564,"value":0.8661417322834646},{"number":64,"time":266.3041666666897,"value":0.7322834645669292},{"number":64,"time":266.3041666666897,"value":0.7322834645669292},{"number":64,"time":266.31562500002303,"value":0.6456692913385826},{"number":64,"time":266.3166666666897,"value":0.6456692913385826},{"number":64,"time":266.32395833335636,"value":0.6141732283464567},{"number":64,"time":266.325000000023,"value":0.6141732283464567},{"number":64,"time":266.3354166666897,"value":0.5826771653543307},{"number":64,"time":266.33645833335635,"value":0.5826771653543307},{"number":64,"time":266.40416666668966,"value":0.6220472440944882},{"number":64,"time":266.4052083333563,"value":0.6220472440944882},{"number":64,"time":266.4229166666897,"value":0.7322834645669292},{"number":64,"time":266.4239583333563,"value":0.7322834645669292},{"number":64,"time":266.4395833333563,"value":0.8267716535433071},{"number":64,"time":266.440625000023,"value":0.8267716535433071},{"number":64,"time":266.5302083333563,"value":0.937007874015748},{"number":64,"time":266.53125000002296,"value":0.937007874015748},{"number":64,"time":266.59479166668956,"value":1},{"number":64,"time":266.5958333333562,"value":1},{"number":64,"time":266.7541666666895,"value":0.8661417322834646},{"number":64,"time":266.7562500000229,"value":0.8661417322834646},{"number":64,"time":266.7750000000229,"value":0.7559055118110236},{"number":64,"time":266.77604166668954,"value":0.7559055118110236},{"number":64,"time":266.7833333333562,"value":0.6614173228346457},{"number":64,"time":266.78437500002286,"value":0.6614173228346457},{"number":64,"time":266.79166666668954,"value":0.6299212598425197},{"number":64,"time":266.7927083333562,"value":0.6299212598425197},{"number":64,"time":266.8041666666895,"value":0.5984251968503937},{"number":64,"time":266.8052083333562,"value":0.5984251968503937},{"number":64,"time":266.8187500000228,"value":0.5669291338582677},{"number":64,"time":266.8187500000228,"value":0.5669291338582677},{"number":64,"time":266.87083333335613,"value":0.5984251968503937},{"number":64,"time":266.8718750000228,"value":0.5984251968503937},{"number":64,"time":266.88645833335613,"value":0.6299212598425197},{"number":64,"time":266.8875000000228,"value":0.6299212598425197},{"number":64,"time":266.9031250000228,"value":0.7559055118110236},{"number":64,"time":266.90416666668943,"value":0.7559055118110236},{"number":64,"time":266.9239583333561,"value":0.8503937007874016},{"number":64,"time":266.92500000002275,"value":0.8503937007874016},{"number":64,"time":267.0145833333561,"value":1},{"number":64,"time":267.01562500002274,"value":1},{"number":64,"time":267.17916666668947,"value":0.8661417322834646},{"number":64,"time":267.17916666668947,"value":0.8661417322834646},{"number":64,"time":267.2031250000228,"value":0.7322834645669292},{"number":64,"time":267.20416666668945,"value":0.7322834645669292},{"number":64,"time":267.21041666668947,"value":0.6535433070866141},{"number":64,"time":267.2114583333561,"value":0.6535433070866141},{"number":64,"time":267.22291666668946,"value":0.6141732283464567},{"number":64,"time":267.2239583333561,"value":0.6141732283464567},{"number":64,"time":267.2864583333561,"value":0.6456692913385826},{"number":64,"time":267.28750000002276,"value":0.6456692913385826},{"number":64,"time":267.30312500002276,"value":0.7559055118110236},{"number":64,"time":267.3041666666894,"value":0.7559055118110236},{"number":64,"time":267.3145833333561,"value":0.8503937007874016},{"number":64,"time":267.31562500002275,"value":0.8503937007874016},{"number":64,"time":267.4187500000227,"value":1},{"number":64,"time":267.4197916666894,"value":1},{"number":64,"time":267.6229166666894,"value":0.8661417322834646},{"number":64,"time":267.62395833335603,"value":0.8661417322834646},{"number":64,"time":267.6468750000227,"value":0.7322834645669292},{"number":64,"time":267.64791666668935,"value":0.7322834645669292},{"number":64,"time":267.65833333335604,"value":0.6456692913385826},{"number":64,"time":267.6593750000227,"value":0.6456692913385826},{"number":64,"time":267.66666666668937,"value":0.6141732283464567},{"number":64,"time":267.667708333356,"value":0.6141732283464567},{"number":64,"time":267.6906250000227,"value":0.5826771653543307},{"number":64,"time":267.6906250000227,"value":0.5826771653543307},{"number":64,"time":267.727083333356,"value":0.6141732283464567},{"number":64,"time":267.72812500002266,"value":0.6141732283464567},{"number":64,"time":267.73854166668934,"value":0.6456692913385826},{"number":64,"time":267.739583333356,"value":0.6456692913385826},{"number":64,"time":267.75416666668934,"value":0.7795275590551181},{"number":64,"time":267.755208333356,"value":0.7795275590551181},{"number":64,"time":267.77500000002266,"value":0.889763779527559},{"number":64,"time":267.7760416666893,"value":0.889763779527559},{"number":64,"time":267.91875000002267,"value":1},{"number":64,"time":267.9197916666893,"value":1},{"number":64,"time":268.13854166668926,"value":0.8661417322834646},{"number":64,"time":268.1395833333559,"value":0.8661417322834646},{"number":64,"time":268.1583333333559,"value":0.7322834645669292},{"number":64,"time":268.1593750000226,"value":0.7322834645669292},{"number":64,"time":268.17187500002257,"value":0.6377952755905512},{"number":64,"time":268.1729166666892,"value":0.6377952755905512},{"number":64,"time":268.17916666668924,"value":0.6062992125984252},{"number":64,"time":268.17916666668924,"value":0.6062992125984252},{"number":64,"time":268.1906250000226,"value":0.5748031496062992},{"number":64,"time":268.1906250000226,"value":0.5748031496062992},{"number":64,"time":268.23125000002256,"value":0.5433070866141733},{"number":64,"time":268.2322916666892,"value":0.5433070866141733},{"number":64,"time":268.2510416666892,"value":0.5748031496062992},{"number":64,"time":268.25208333335587,"value":0.5748031496062992},{"number":64,"time":268.2666666666892,"value":0.6062992125984252},{"number":64,"time":268.2666666666892,"value":0.6062992125984252},{"number":64,"time":268.27500000002254,"value":0.6377952755905512},{"number":64,"time":268.2760416666892,"value":0.6377952755905512},{"number":64,"time":268.2864583333559,"value":0.7322834645669292},{"number":64,"time":268.28750000002253,"value":0.7322834645669292},{"number":64,"time":268.30312500002253,"value":0.8267716535433071},{"number":64,"time":268.30312500002253,"value":0.8267716535433071},{"number":64,"time":268.38645833335585,"value":0.937007874015748},{"number":64,"time":268.3875000000225,"value":0.937007874015748},{"number":64,"time":268.4343750000225,"value":1},{"number":64,"time":268.43541666668915,"value":1},{"number":64,"time":268.6343750000225,"value":0.8661417322834646},{"number":64,"time":268.63541666668914,"value":0.8661417322834646},{"number":64,"time":268.6583333333558,"value":0.7559055118110236},{"number":64,"time":268.65937500002246,"value":0.7559055118110236},{"number":64,"time":268.66666666668914,"value":0.6614173228346457},{"number":64,"time":268.66666666668914,"value":0.6614173228346457},{"number":64,"time":268.6760416666891,"value":0.6299212598425197},{"number":64,"time":268.67708333335577,"value":0.6299212598425197},{"number":64,"time":268.68645833335574,"value":0.5905511811023622},{"number":64,"time":268.6875000000224,"value":0.5905511811023622},{"number":64,"time":268.75416666668906,"value":0.6220472440944882},{"number":64,"time":268.7552083333557,"value":0.6220472440944882},{"number":64,"time":268.7750000000224,"value":0.7322834645669292},{"number":64,"time":268.776041666689,"value":0.7322834645669292},{"number":64,"time":268.7906250000224,"value":0.8267716535433071},{"number":64,"time":268.791666666689,"value":0.8267716535433071},{"number":64,"time":268.8583333333557,"value":0.937007874015748},{"number":64,"time":268.85937500002234,"value":0.937007874015748},{"number":64,"time":268.8864583333557,"value":1},{"number":64,"time":268.8875000000223,"value":1},{"number":64,"time":269.0895833333556,"value":0.8661417322834646},{"number":64,"time":269.0895833333556,"value":0.8661417322834646},{"number":64,"time":269.11145833335564,"value":0.7559055118110236},{"number":64,"time":269.1125000000223,"value":0.7559055118110236},{"number":64,"time":269.122916666689,"value":0.6535433070866141},{"number":64,"time":269.12395833335563,"value":0.6535433070866141},{"number":64,"time":269.13333333335567,"value":0.6220472440944882},{"number":64,"time":269.1343750000223,"value":0.6220472440944882},{"number":64,"time":269.21770833335563,"value":0.7559055118110236},{"number":64,"time":269.2187500000223,"value":0.7559055118110236},{"number":64,"time":269.2375000000223,"value":0.8503937007874016},{"number":64,"time":269.23854166668895,"value":0.8503937007874016},{"number":64,"time":269.3416666666889,"value":1},{"number":64,"time":269.3427083333556,"value":1},{"number":64,"time":269.6177083333556,"value":0.8661417322834646},{"number":64,"time":269.61875000002226,"value":0.8661417322834646},{"number":64,"time":269.6385416666889,"value":0.7559055118110236},{"number":64,"time":269.6395833333556,"value":0.7559055118110236},{"number":64,"time":269.6500000000222,"value":0.6535433070866141},{"number":64,"time":269.65104166668885,"value":0.6535433070866141},{"number":64,"time":269.66145833335554,"value":0.6141732283464567},{"number":64,"time":269.6625000000222,"value":0.6141732283464567},{"number":64,"time":269.68229166668885,"value":0.5826771653543307},{"number":64,"time":269.6833333333555,"value":0.5826771653543307},{"number":64,"time":269.7177083333555,"value":0.6141732283464567},{"number":64,"time":269.71875000002217,"value":0.6141732283464567},{"number":64,"time":269.73437500002217,"value":0.6456692913385826},{"number":64,"time":269.73437500002217,"value":0.6456692913385826},{"number":64,"time":269.75000000002217,"value":0.7559055118110236},{"number":64,"time":269.75000000002217,"value":0.7559055118110236},{"number":64,"time":269.76979166668883,"value":0.8503937007874016},{"number":64,"time":269.7708333333555,"value":0.8503937007874016},{"number":64,"time":270.0177083333555,"value":1},{"number":64,"time":270.0187500000221,"value":1},{"number":64,"time":270.1895833333555,"value":0.8661417322834646},{"number":64,"time":270.1906250000221,"value":0.8661417322834646},{"number":64,"time":270.20937500002213,"value":0.7322834645669292},{"number":64,"time":270.2104166666888,"value":0.7322834645669292},{"number":64,"time":270.21770833335546,"value":0.6456692913385826},{"number":64,"time":270.2187500000221,"value":0.6456692913385826},{"number":64,"time":270.2260416666888,"value":0.6141732283464567},{"number":64,"time":270.2260416666888,"value":0.6141732283464567},{"number":64,"time":270.2343750000221,"value":0.5826771653543307},{"number":64,"time":270.2343750000221,"value":0.5826771653543307},{"number":64,"time":270.24583333335545,"value":0.5433070866141733},{"number":64,"time":270.2468750000221,"value":0.5433070866141733},{"number":64,"time":270.26145833335545,"value":0.5039370078740157},{"number":64,"time":270.26145833335545,"value":0.5039370078740157},{"number":64,"time":270.2937500000221,"value":0.5354330708661418},{"number":64,"time":270.29479166668875,"value":0.5354330708661418},{"number":64,"time":270.3093750000221,"value":0.5669291338582677},{"number":64,"time":270.31041666668875,"value":0.5669291338582677},{"number":64,"time":270.32604166668875,"value":0.5984251968503937},{"number":64,"time":270.32604166668875,"value":0.5984251968503937},{"number":64,"time":270.3333333333554,"value":0.6299212598425197},{"number":64,"time":270.3343750000221,"value":0.6299212598425197},{"number":64,"time":270.3500000000221,"value":0.7559055118110236},{"number":64,"time":270.3500000000221,"value":0.7559055118110236},{"number":64,"time":270.3614583333554,"value":0.8503937007874016},{"number":64,"time":270.3614583333554,"value":0.8503937007874016},{"number":64,"time":270.51354166668875,"value":1},{"number":64,"time":270.5145833333554,"value":1},{"number":64,"time":270.72916666668874,"value":0.8661417322834646},{"number":64,"time":270.7302083333554,"value":0.8661417322834646},{"number":64,"time":270.75312500002207,"value":0.7322834645669292},{"number":64,"time":270.7541666666887,"value":0.7322834645669292},{"number":64,"time":270.76562500002206,"value":0.6456692913385826},{"number":64,"time":270.7666666666887,"value":0.6456692913385826},{"number":64,"time":270.77812500002204,"value":0.6141732283464567},{"number":64,"time":270.7791666666887,"value":0.6141732283464567},{"number":64,"time":270.8416666666887,"value":0.6456692913385826},{"number":64,"time":270.8416666666887,"value":0.6456692913385826},{"number":64,"time":270.85833333335535,"value":0.7559055118110236},{"number":64,"time":270.859375000022,"value":0.7559055118110236},{"number":64,"time":270.87395833335535,"value":0.8661417322834646},{"number":64,"time":270.875000000022,"value":0.8661417322834646},{"number":64,"time":270.9854166666887,"value":1},{"number":64,"time":270.98645833335536,"value":1},{"number":64,"time":271.3291666666887,"value":0.8661417322834646},{"number":64,"time":271.33020833335536,"value":0.8661417322834646},{"number":64,"time":271.35312500002203,"value":0.7322834645669292},{"number":64,"time":271.3541666666887,"value":0.7322834645669292},{"number":64,"time":271.36145833335536,"value":0.6535433070866141},{"number":64,"time":271.362500000022,"value":0.6535433070866141},{"number":64,"time":271.3697916666887,"value":0.6220472440944882},{"number":64,"time":271.37083333335534,"value":0.6220472440944882},{"number":64,"time":271.381250000022,"value":0.5905511811023622},{"number":64,"time":271.3822916666887,"value":0.5905511811023622},{"number":64,"time":271.44166666668866,"value":0.6220472440944882},{"number":64,"time":271.4427083333553,"value":0.6220472440944882},{"number":64,"time":271.453125000022,"value":0.6535433070866141},{"number":64,"time":271.45416666668865,"value":0.6535433070866141},{"number":64,"time":271.465625000022,"value":0.7559055118110236},{"number":64,"time":271.46666666668864,"value":0.7559055118110236},{"number":64,"time":271.48541666668865,"value":0.8503937007874016},{"number":64,"time":271.48541666668865,"value":0.8503937007874016},{"number":64,"time":271.81250000002194,"value":1},{"number":64,"time":271.81250000002194,"value":1},{"number":64,"time":272.07604166668864,"value":0.8661417322834646},{"number":64,"time":272.0770833333553,"value":0.8661417322834646},{"number":64,"time":272.1010416666886,"value":0.7322834645669292},{"number":64,"time":272.10208333335527,"value":0.7322834645669292},{"number":64,"time":272.10937500002194,"value":0.6535433070866141},{"number":64,"time":272.1104166666886,"value":0.6535433070866141},{"number":64,"time":272.1166666666886,"value":0.6220472440944882},{"number":64,"time":272.11770833335527,"value":0.6220472440944882},{"number":64,"time":272.12812500002195,"value":0.5905511811023622},{"number":64,"time":272.1291666666886,"value":0.5905511811023622},{"number":64,"time":272.1854166666886,"value":0.6220472440944882},{"number":64,"time":272.18645833335523,"value":0.6220472440944882},{"number":64,"time":272.2041666666886,"value":0.7559055118110236},{"number":64,"time":272.20520833335524,"value":0.7559055118110236},{"number":64,"time":272.2166666666886,"value":0.8503937007874016},{"number":64,"time":272.21770833335523,"value":0.8503937007874016},{"number":64,"time":272.2812500000219,"value":1},{"number":64,"time":272.28229166668854,"value":1},{"number":64,"time":273.99687500002176,"value":0.8661417322834646},{"number":64,"time":273.99687500002176,"value":0.8661417322834646},{"number":64,"time":274.01562500002177,"value":0.7322834645669292},{"number":64,"time":274.0166666666884,"value":0.7322834645669292},{"number":64,"time":274.02500000002175,"value":0.6377952755905512},{"number":64,"time":274.0260416666884,"value":0.6377952755905512},{"number":64,"time":274.0322916666884,"value":0.5984251968503937},{"number":64,"time":274.0333333333551,"value":0.5984251968503937},{"number":64,"time":274.0447916666884,"value":0.5590551181102362},{"number":64,"time":274.04583333335506,"value":0.5590551181102362},{"number":64,"time":274.05625000002175,"value":0.5275590551181102},{"number":64,"time":274.0572916666884,"value":0.5275590551181102},{"number":64,"time":274.1041666666884,"value":0.5590551181102362},{"number":64,"time":274.10520833335505,"value":0.5590551181102362},{"number":64,"time":274.12395833335506,"value":0.5905511811023622},{"number":64,"time":274.1250000000217,"value":0.5905511811023622},{"number":64,"time":274.1354166666884,"value":0.6299212598425197},{"number":64,"time":274.13645833335505,"value":0.6299212598425197},{"number":64,"time":274.15208333335505,"value":0.7559055118110236},{"number":64,"time":274.1531250000217,"value":0.7559055118110236},{"number":64,"time":274.1687500000217,"value":0.8503937007874016},{"number":64,"time":274.16979166668835,"value":0.8503937007874016},{"number":64,"time":280.31562500002167,"value":0.7559055118110236},{"number":64,"time":280.3166666666883,"value":0.7559055118110236},{"number":64,"time":280.42395833335496,"value":0.6614173228346457},{"number":64,"time":280.4250000000216,"value":0.6614173228346457},{"number":64,"time":280.48854166668826,"value":0.6299212598425197},{"number":64,"time":280.48854166668826,"value":0.6299212598425197},{"number":64,"time":280.5083333333549,"value":0.5984251968503937},{"number":64,"time":280.5093750000216,"value":0.5984251968503937},{"number":64,"time":280.5406250000216,"value":0.5669291338582677},{"number":64,"time":280.5406250000216,"value":0.5669291338582677},{"number":64,"time":280.59166666668824,"value":0.5354330708661418},{"number":64,"time":280.5927083333549,"value":0.5354330708661418},{"number":64,"time":280.6239583333549,"value":0.5039370078740157},{"number":64,"time":280.62500000002154,"value":0.5039370078740157},{"number":64,"time":280.64375000002156,"value":0.47244094488188976},{"number":64,"time":280.6447916666882,"value":0.47244094488188976},{"number":64,"time":280.6885416666882,"value":0.3779527559055118},{"number":64,"time":280.6885416666882,"value":0.3779527559055118},{"number":64,"time":280.75208333335485,"value":0.2755905511811024},{"number":64,"time":280.75208333335485,"value":0.2755905511811024},{"number":64,"time":280.7968750000215,"value":0.18110236220472442},{"number":64,"time":280.79791666668814,"value":0.18110236220472442},{"number":64,"time":280.8250000000215,"value":0.05511811023622047},{"number":64,"time":280.8260416666881,"value":0.05511811023622047},{"number":64,"time":280.8364583333548,"value":0},{"number":64,"time":280.83750000002146,"value":0}]},"id":0,"name":"MIDI from piano","channelNumber":0,"isPercussion":false}]}