{"header":{"PPQ":480,"timeSignature":[4,4],"bpm":120,"name":""},"startTime":0,"duration":264.934375000005,"tracks":[{"startTime":0,"duration":0,"length":0,"notes":[],"controlChanges":{},"id":0},{"startTime":1.259375,"duration":35.76145833333329,"length":118,"notes":[{"name":"A4","midi":69,"time":1.259375,"velocity":0.5275590551181102,"duration":0.7312499999999997},{"name":"A3","midi":57,"time":1.2864583333333333,"velocity":0.30708661417322836,"duration":0.720833333333333},{"name":"C#4","midi":61,"time":1.296875,"velocity":0.31496062992125984,"duration":0.6947916666666663},{"name":"E4","midi":64,"time":1.2989583333333334,"velocity":0.3543307086614173,"duration":0.8104166666666661},{"name":"B3","midi":59,"time":1.3041666666666667,"velocity":0.3464566929133858,"duration":0.7447916666666661},{"name":"F#3","midi":54,"time":2.820833333333333,"velocity":0.36220472440944884,"duration":0.07916666666666661},{"name":"E4","midi":64,"time":2.8312499999999994,"velocity":0.4094488188976378,"duration":0.32604166666666634},{"name":"B3","midi":59,"time":2.832291666666666,"velocity":0.3858267716535433,"duration":0.29270833333333357},{"name":"E3","midi":52,"time":2.8406249999999993,"velocity":0.2755905511811024,"duration":0.05937500000000018},{"name":"G#4","midi":68,"time":3.169791666666666,"velocity":0.47244094488188976,"duration":0.5499999999999994},{"name":"E2","midi":40,"time":3.224999999999999,"velocity":0.2755905511811024,"duration":0.5333333333333328},{"name":"G#3","midi":56,"time":3.2374999999999994,"velocity":0.2204724409448819,"duration":0.4697916666666657},{"name":"F#3","midi":54,"time":5.746874999999998,"velocity":0.30708661417322836,"duration":0.9791666666666661},{"name":"G#4","midi":68,"time":5.752083333333331,"velocity":0.5354330708661418,"duration":0.9333333333333336},{"name":"C#4","midi":61,"time":5.763541666666665,"velocity":0.28346456692913385,"duration":0.9437499999999996},{"name":"F#4","midi":66,"time":5.766666666666665,"velocity":0.4566929133858268,"duration":0.9645833333333327},{"name":"A3","midi":57,"time":5.767708333333331,"velocity":0.28346456692913385,"duration":1.0874999999999995},{"name":"F#4","midi":66,"time":7.264583333333331,"velocity":0.5354330708661418,"duration":0.3937499999999954},{"name":"E4","midi":64,"time":7.27083333333333,"velocity":0.4409448818897638,"duration":0.3687499999999959},{"name":"B3","midi":59,"time":7.27395833333333,"velocity":0.3228346456692913,"duration":0.42083333333332895},{"name":"A3","midi":57,"time":7.28020833333333,"velocity":0.3779527559055118,"duration":0.45104166666666234},{"name":"E3","midi":52,"time":7.287499999999996,"velocity":0.3464566929133858,"duration":0.32916666666666394},{"name":"C#4","midi":61,"time":7.295833333333329,"velocity":0.3858267716535433,"duration":0.3687499999999968},{"name":"A4","midi":69,"time":8.103124999999993,"velocity":0.48031496062992124,"duration":1.0343750000000096},{"name":"A3","midi":57,"time":8.118749999999995,"velocity":0.3228346456692913,"duration":0.9781250000000075},{"name":"F#3","midi":54,"time":8.130208333333329,"velocity":0.36220472440944884,"duration":1.138541666666674},{"name":"D4","midi":62,"time":8.137499999999996,"velocity":0.4094488188976378,"duration":1.109375000000007},{"name":"E4","midi":64,"time":8.139583333333329,"velocity":0.4251968503937008,"duration":1.0656250000000078},{"name":"B4","midi":71,"time":9.546875000000004,"velocity":0.6220472440944882,"duration":0.3645833333333428},{"name":"F#3","midi":54,"time":9.57083333333334,"velocity":0.4015748031496063,"duration":0.8083333333333407},{"name":"D4","midi":62,"time":9.575000000000006,"velocity":0.5275590551181102,"duration":0.3770833333333421},{"name":"E4","midi":64,"time":9.576041666666674,"velocity":0.5433070866141733,"duration":0.3572916666666739},{"name":"A3","midi":57,"time":9.579166666666675,"velocity":0.3464566929133858,"duration":0.4812500000000064},{"name":"B3","midi":59,"time":9.586458333333342,"velocity":0.2440944881889764,"duration":0.32812500000000533},{"name":"A4","midi":69,"time":10.402083333333348,"velocity":0.4881889763779528,"duration":1.0083333333333524},{"name":"A3","midi":57,"time":10.403125000000015,"velocity":0.12598425196850394,"duration":1.0625000000000178},{"name":"E3","midi":52,"time":10.42083333333335,"velocity":0.4094488188976378,"duration":1.0854166666666831},{"name":"C#4","midi":61,"time":10.426041666666684,"velocity":0.3937007874015748,"duration":1.0270833333333496},{"name":"B3","midi":59,"time":10.433333333333353,"velocity":0.33070866141732286,"duration":1.09479166666668},{"name":"E4","midi":64,"time":10.442708333333355,"velocity":0.4094488188976378,"duration":1.0041666666666789},{"name":"B3","midi":59,"time":12.005208333333368,"velocity":0.44881889763779526,"duration":0.30937500000000817},{"name":"E4","midi":64,"time":12.011458333333369,"velocity":0.47244094488188976,"duration":0.8416666666666792},{"name":"E3","midi":52,"time":12.016666666666703,"velocity":0.33070866141732286,"duration":0.22291666666667176},{"name":"F#3","midi":54,"time":12.018750000000036,"velocity":0.3858267716535433,"duration":0.20208333333333783},{"name":"G#4","midi":68,"time":12.758333333333377,"velocity":0.3779527559055118,"duration":0.5802083333333403},{"name":"E2","midi":40,"time":12.787500000000044,"velocity":0.2047244094488189,"duration":0.5833333333333393},{"name":"G#3","midi":56,"time":12.805208333333379,"velocity":0.2204724409448819,"duration":0.5354166666666718},{"name":"G#4","midi":68,"time":14.527083333333383,"velocity":0.5590551181102362,"duration":0.16979166666666679},{"name":"G#4","midi":68,"time":14.798958333333383,"velocity":0.5511811023622047,"duration":0.9989583333333414},{"name":"F#3","midi":54,"time":15.058333333333383,"velocity":0.2677165354330709,"duration":3.286458333333332},{"name":"C#4","midi":61,"time":15.07187500000005,"velocity":0.33070866141732286,"duration":1.3833333333333417},{"name":"A3","midi":57,"time":15.08125000000005,"velocity":0.25984251968503935,"duration":1.437500000000007},{"name":"A4","midi":69,"time":16.470833333333392,"velocity":0.36220472440944884,"duration":0.23020833333333357},{"name":"G#4","midi":68,"time":16.719791666666726,"velocity":0.4645669291338583,"duration":0.25416666666666643},{"name":"F#4","midi":66,"time":16.970833333333392,"velocity":0.41732283464566927,"duration":0.661458333333325},{"name":"E4","midi":64,"time":17.268750000000054,"velocity":0.25984251968503935,"duration":1.1843749999999957},{"name":"A3","midi":57,"time":17.27083333333339,"velocity":0.2204724409448819,"duration":1.0916666666666615},{"name":"D4","midi":62,"time":17.27083333333339,"velocity":0.23622047244094488,"duration":1.1864583333333272},{"name":"E5","midi":76,"time":18.882291666666717,"velocity":0.4881889763779528,"duration":0.15104166666666785},{"name":"E5","midi":76,"time":19.18541666666672,"velocity":0.5039370078740157,"duration":1.0197916666666522},{"name":"E4","midi":64,"time":19.452083333333377,"velocity":0.2992125984251969,"duration":0.696874999999995},{"name":"A3","midi":57,"time":19.45833333333338,"velocity":0.2204724409448819,"duration":0.6572916666666622},{"name":"C#4","midi":61,"time":19.471875000000043,"velocity":0.3228346456692913,"duration":0.7614583333333265},{"name":"A4","midi":69,"time":19.48229166666671,"velocity":0.2047244094488189,"duration":0.7604166666666572},{"name":"B4","midi":71,"time":19.496875000000042,"velocity":0.2677165354330709,"duration":0.6312499999999979},{"name":"B5","midi":83,"time":20.9979166666667,"velocity":0.5118110236220472,"duration":0.23333333333333428},{"name":"G#5","midi":80,"time":21.2479166666667,"velocity":0.5039370078740157,"duration":0.9697916666666586},{"name":"E4","midi":64,"time":21.557291666666696,"velocity":0.1889763779527559,"duration":1.0354166666666629},{"name":"B4","midi":71,"time":21.572916666666696,"velocity":0.2755905511811024,"duration":0.810416666666665},{"name":"C#5","midi":73,"time":21.577083333333363,"velocity":0.3543307086614173,"duration":0.7447916666666643},{"name":"F#4","midi":66,"time":21.58437500000003,"velocity":0.25984251968503935,"duration":0.9249999999999972},{"name":"E5","midi":76,"time":21.586458333333365,"velocity":0.18110236220472442,"duration":0.6385416666666615},{"name":"E5","midi":76,"time":23.06145833333336,"velocity":0.4015748031496063,"duration":0.20416666666666572},{"name":"C#5","midi":73,"time":23.31666666666669,"velocity":0.4645669291338583,"duration":1.0802083333333208},{"name":"F#3","midi":54,"time":23.567708333333357,"velocity":0.25196850393700787,"duration":1.491666666666653},{"name":"E4","midi":64,"time":23.587500000000023,"velocity":0.1968503937007874,"duration":1.3885416666666544},{"name":"A3","midi":57,"time":23.598958333333357,"velocity":0.2283464566929134,"duration":1.4239583333333208},{"name":"B3","midi":59,"time":23.60520833333336,"velocity":0.25984251968503935,"duration":1.3864583333333194},{"name":"F#4","midi":66,"time":23.63645833333336,"velocity":0.2283464566929134,"duration":0.65937499999999},{"name":"A4","midi":69,"time":23.662500000000023,"velocity":0.1732283464566929,"duration":0.6177083333333258},{"name":"A5","midi":81,"time":25.151041666666675,"velocity":0.5905511811023622,"duration":0.09583333333333144},{"name":"A4","midi":69,"time":25.189583333333342,"velocity":0.31496062992125984,"duration":0.02083333333333215},{"name":"F#5","midi":78,"time":25.640625000000007,"velocity":0.5826771653543307,"duration":0.24166666666666714},{"name":"A3","midi":57,"time":25.640625000000007,"velocity":0.3543307086614173,"duration":1.5145833333333236},{"name":"D5","midi":74,"time":25.651041666666675,"velocity":0.4881889763779528,"duration":0.26979166666666643},{"name":"F#3","midi":54,"time":25.654166666666676,"velocity":0.44881889763779526,"duration":1.6072916666666544},{"name":"E4","midi":64,"time":25.66250000000001,"velocity":0.2677165354330709,"duration":1.4552083333333208},{"name":"D4","midi":62,"time":25.67187500000001,"velocity":0.2677165354330709,"duration":1.4104166666666522},{"name":"F#4","midi":66,"time":25.67500000000001,"velocity":0.3779527559055118,"duration":0.5322916666666622},{"name":"D3","midi":50,"time":25.679166666666678,"velocity":0.25984251968503935,"duration":1.3624999999999865},{"name":"E5","midi":76,"time":26.125000000000007,"velocity":0.3700787401574803,"duration":0.09062499999999929},{"name":"D5","midi":74,"time":26.367708333333336,"velocity":0.4566929133858268,"duration":0.43437499999999574},{"name":"F#4","midi":66,"time":26.396875,"velocity":0.3464566929133858,"duration":0.8885416666666615},{"name":"C#5","midi":73,"time":27.18958333333333,"velocity":0.4409448818897638,"duration":0.41145833333333215},{"name":"D5","midi":74,"time":27.665625,"velocity":0.33858267716535434,"duration":0.26041666666666785},{"name":"A3","midi":57,"time":27.680208333333333,"velocity":0.30708661417322836,"duration":1.3468749999999972},{"name":"C#4","midi":61,"time":27.69375,"velocity":0.29133858267716534,"duration":1.4812499999999957},{"name":"E4","midi":64,"time":27.737499999999997,"velocity":0.1889763779527559,"duration":1.2583333333333329},{"name":"A4","midi":69,"time":27.74895833333333,"velocity":0.25196850393700787,"duration":0.2822916666666657},{"name":"C#5","midi":73,"time":27.966666666666665,"velocity":0.3779527559055118,"duration":0.232291666666665},{"name":"A4","midi":69,"time":28.22083333333333,"velocity":0.23622047244094488,"duration":0.9083333333333314},{"name":"B4","midi":71,"time":29.90833333333333,"velocity":0.44881889763779526,"duration":1.2802083333333343},{"name":"F#4","midi":66,"time":29.928125,"velocity":0.28346456692913385,"duration":1.1708333333333307},{"name":"E4","midi":64,"time":29.941666666666666,"velocity":0.23622047244094488,"duration":1.1875},{"name":"G#4","midi":68,"time":29.945833333333333,"velocity":0.2677165354330709,"duration":1.0927083333333343},{"name":"F#5","midi":78,"time":30.48125,"velocity":0.3700787401574803,"duration":0.7718750000000014},{"name":"F#3","midi":54,"time":32.12083333333334,"velocity":0.2047244094488189,"duration":1.0541666666666387},{"name":"E4","midi":64,"time":32.13125,"velocity":0.2047244094488189,"duration":1.0635416666666444},{"name":"B3","midi":59,"time":32.140625,"velocity":0.23622047244094488,"duration":1.0406249999999773},{"name":"C#4","midi":61,"time":32.14270833333333,"velocity":0.29133858267716534,"duration":1.0749999999999815},{"name":"F#4","midi":66,"time":32.146875,"velocity":0.3228346456692913,"duration":1.1635416666666458},{"name":"A3","midi":57,"time":32.21041666666666,"velocity":0.2047244094488189,"duration":0.9885416666666558},{"name":"C#5","midi":73,"time":32.74479166666664,"velocity":0.31496062992125984,"duration":3.054166666666646},{"name":"F#3","midi":54,"time":34.38645833333331,"velocity":0.2677165354330709,"duration":1.4812499999999744},{"name":"D3","midi":50,"time":34.393749999999976,"velocity":0.16535433070866143,"duration":1.3510416666666458},{"name":"D4","midi":62,"time":34.39479166666664,"velocity":0.2283464566929134,"duration":1.2031249999999787},{"name":"F#4","midi":66,"time":34.41145833333331,"velocity":0.18110236220472442,"duration":1.4531249999999787},{"name":"E4","midi":64,"time":34.41770833333331,"velocity":0.1732283464566929,"duration":1.3437499999999787}],"controlChanges":{"64":[{"number":64,"time":1.5364583333333335,"value":0.10236220472440945},{"number":64,"time":1.5375,"value":0.10236220472440945},{"number":64,"time":1.5479166666666668,"value":0.2047244094488189},{"number":64,"time":1.5489583333333334,"value":0.2047244094488189},{"number":64,"time":1.5718750000000001,"value":0.3543307086614173},{"number":64,"time":1.5729166666666667,"value":0.3543307086614173},{"number":64,"time":1.6395833333333334,"value":0.47244094488188976},{"number":64,"time":1.640625,"value":0.47244094488188976},{"number":64,"time":1.671875,"value":0.5039370078740157},{"number":64,"time":1.6729166666666666,"value":0.5039370078740157},{"number":64,"time":1.7,"value":0.5354330708661418},{"number":64,"time":1.7,"value":0.5354330708661418},{"number":64,"time":1.7322916666666666,"value":0.5748031496062992},{"number":64,"time":1.7333333333333332,"value":0.5748031496062992},{"number":64,"time":1.7635416666666666,"value":0.6062992125984252},{"number":64,"time":1.7645833333333332,"value":0.6062992125984252},{"number":64,"time":1.7843749999999998,"value":0.6377952755905512},{"number":64,"time":1.7854166666666664,"value":0.6377952755905512},{"number":64,"time":1.8156249999999998,"value":0.7322834645669292},{"number":64,"time":1.8166666666666664,"value":0.7322834645669292},{"number":64,"time":1.8562499999999997,"value":0.8267716535433071},{"number":64,"time":1.8572916666666663,"value":0.8267716535433071},{"number":64,"time":1.9593749999999996,"value":0.937007874015748},{"number":64,"time":1.9604166666666663,"value":0.937007874015748},{"number":64,"time":1.983333333333333,"value":1},{"number":64,"time":1.9843749999999996,"value":1},{"number":64,"time":3.0760416666666663,"value":0.8661417322834646},{"number":64,"time":3.077083333333333,"value":0.8661417322834646},{"number":64,"time":3.1270833333333328,"value":0.7559055118110236},{"number":64,"time":3.1281249999999994,"value":0.7559055118110236},{"number":64,"time":3.1395833333333325,"value":0.6614173228346457},{"number":64,"time":3.1395833333333325,"value":0.6614173228346457},{"number":64,"time":3.1510416666666656,"value":0.6299212598425197},{"number":64,"time":3.1520833333333322,"value":0.6299212598425197},{"number":64,"time":3.162499999999999,"value":0.5905511811023622},{"number":64,"time":3.163541666666666,"value":0.5905511811023622},{"number":64,"time":3.1749999999999994,"value":0.5590551181102362},{"number":64,"time":3.176041666666666,"value":0.5590551181102362},{"number":64,"time":3.1833333333333327,"value":0.5275590551181102},{"number":64,"time":3.1843749999999993,"value":0.5275590551181102},{"number":64,"time":3.1895833333333328,"value":0.49606299212598426},{"number":64,"time":3.1906249999999994,"value":0.49606299212598426},{"number":64,"time":3.2062499999999994,"value":0.4015748031496063},{"number":64,"time":3.207291666666666,"value":0.4015748031496063},{"number":64,"time":3.2395833333333326,"value":0.2992125984251969},{"number":64,"time":3.240624999999999,"value":0.2992125984251969},{"number":64,"time":3.2583333333333324,"value":0.2047244094488189},{"number":64,"time":3.2583333333333324,"value":0.2047244094488189},{"number":64,"time":3.2697916666666655,"value":0.10236220472440945},{"number":64,"time":3.270833333333332,"value":0.10236220472440945},{"number":64,"time":3.2822916666666653,"value":0},{"number":64,"time":3.283333333333332,"value":0},{"number":64,"time":6.157291666666665,"value":0.10236220472440945},{"number":64,"time":6.157291666666665,"value":0.10236220472440945},{"number":64,"time":6.172916666666665,"value":0.2047244094488189},{"number":64,"time":6.173958333333331,"value":0.2047244094488189},{"number":64,"time":6.224999999999998,"value":0.33070866141732286},{"number":64,"time":6.2260416666666645,"value":0.33070866141732286},{"number":64,"time":6.2885416666666645,"value":0.44881889763779526},{"number":64,"time":6.289583333333331,"value":0.44881889763779526},{"number":64,"time":6.301041666666665,"value":0.48031496062992124},{"number":64,"time":6.302083333333331,"value":0.48031496062992124},{"number":64,"time":6.333333333333331,"value":0.5118110236220472},{"number":64,"time":6.333333333333331,"value":0.5118110236220472},{"number":64,"time":6.368749999999998,"value":0.5433070866141733},{"number":64,"time":6.369791666666664,"value":0.5433070866141733},{"number":64,"time":6.409374999999998,"value":0.5748031496062992},{"number":64,"time":6.409374999999998,"value":0.5748031496062992},{"number":64,"time":6.440624999999998,"value":0.6062992125984252},{"number":64,"time":6.441666666666665,"value":0.6062992125984252},{"number":64,"time":6.457291666666665,"value":0.6377952755905512},{"number":64,"time":6.457291666666665,"value":0.6377952755905512},{"number":64,"time":6.496874999999998,"value":0.7322834645669292},{"number":64,"time":6.497916666666665,"value":0.7322834645669292},{"number":64,"time":6.577083333333332,"value":0.8267716535433071},{"number":64,"time":6.578124999999998,"value":0.8267716535433071},{"number":64,"time":7.293749999999996,"value":0.7322834645669292},{"number":64,"time":7.294791666666662,"value":0.7322834645669292},{"number":64,"time":7.306249999999996,"value":0.6377952755905512},{"number":64,"time":7.306249999999996,"value":0.6377952755905512},{"number":64,"time":7.312499999999996,"value":0.6062992125984252},{"number":64,"time":7.313541666666662,"value":0.6062992125984252},{"number":64,"time":7.320833333333328,"value":0.5748031496062992},{"number":64,"time":7.321874999999995,"value":0.5748031496062992},{"number":64,"time":7.329166666666661,"value":0.5433070866141733},{"number":64,"time":7.330208333333328,"value":0.5433070866141733},{"number":64,"time":7.3364583333333275,"value":0.49606299212598426},{"number":64,"time":7.337499999999994,"value":0.49606299212598426},{"number":64,"time":7.34479166666666,"value":0.4015748031496063},{"number":64,"time":7.345833333333327,"value":0.4015748031496063},{"number":64,"time":7.356249999999994,"value":0.2992125984251969},{"number":64,"time":7.357291666666661,"value":0.2992125984251969},{"number":64,"time":7.460416666666661,"value":0.4015748031496063},{"number":64,"time":7.4614583333333275,"value":0.4015748031496063},{"number":64,"time":7.472916666666661,"value":0.47244094488188976},{"number":64,"time":7.473958333333328,"value":0.47244094488188976},{"number":64,"time":7.481249999999994,"value":0.5039370078740157},{"number":64,"time":7.481249999999994,"value":0.5039370078740157},{"number":64,"time":7.4927083333333275,"value":0.5354330708661418},{"number":64,"time":7.4927083333333275,"value":0.5354330708661418},{"number":64,"time":7.513541666666661,"value":0.5669291338582677},{"number":64,"time":7.514583333333327,"value":0.5669291338582677},{"number":64,"time":7.53229166666666,"value":0.5984251968503937},{"number":64,"time":7.533333333333327,"value":0.5984251968503937},{"number":64,"time":7.553124999999993,"value":0.6377952755905512},{"number":64,"time":7.55416666666666,"value":0.6377952755905512},{"number":64,"time":7.59479166666666,"value":0.7322834645669292},{"number":64,"time":7.595833333333327,"value":0.7322834645669292},{"number":64,"time":7.898958333333326,"value":0.8267716535433071},{"number":64,"time":7.899999999999992,"value":0.8267716535433071},{"number":64,"time":8.080208333333326,"value":0.7322834645669292},{"number":64,"time":8.080208333333326,"value":0.7322834645669292},{"number":64,"time":8.10104166666666,"value":0.6535433070866141},{"number":64,"time":8.10104166666666,"value":0.6535433070866141},{"number":64,"time":8.11666666666666,"value":0.6141732283464567},{"number":64,"time":8.117708333333328,"value":0.6141732283464567},{"number":64,"time":8.13333333333333,"value":0.5748031496062992},{"number":64,"time":8.135416666666663,"value":0.5748031496062992},{"number":64,"time":8.144791666666663,"value":0.5433070866141733},{"number":64,"time":8.14583333333333,"value":0.5433070866141733},{"number":64,"time":8.15208333333333,"value":0.5118110236220472},{"number":64,"time":8.153124999999998,"value":0.5118110236220472},{"number":64,"time":8.159374999999997,"value":0.48031496062992124},{"number":64,"time":8.160416666666665,"value":0.48031496062992124},{"number":64,"time":8.176041666666665,"value":0.3543307086614173},{"number":64,"time":8.177083333333332,"value":0.3543307086614173},{"number":64,"time":8.2,"value":0.25196850393700787},{"number":64,"time":8.201041666666667,"value":0.25196850393700787},{"number":64,"time":8.223958333333334,"value":0.14960629921259844},{"number":64,"time":8.225000000000001,"value":0.14960629921259844},{"number":64,"time":8.235416666666667,"value":0.05511811023622047},{"number":64,"time":8.235416666666667,"value":0.05511811023622047},{"number":64,"time":8.24375,"value":0},{"number":64,"time":8.244791666666668,"value":0},{"number":64,"time":8.471875,"value":0.12598425196850394},{"number":64,"time":8.471875,"value":0.12598425196850394},{"number":64,"time":8.480208333333334,"value":0.25196850393700787},{"number":64,"time":8.480208333333334,"value":0.25196850393700787},{"number":64,"time":8.490625,"value":0.3779527559055118},{"number":64,"time":8.490625,"value":0.3779527559055118},{"number":64,"time":8.511458333333334,"value":0.48031496062992124},{"number":64,"time":8.512500000000001,"value":0.48031496062992124},{"number":64,"time":8.571875,"value":0.5118110236220472},{"number":64,"time":8.571875,"value":0.5118110236220472},{"number":64,"time":8.614583333333334,"value":0.5433070866141733},{"number":64,"time":8.615625000000001,"value":0.5433070866141733},{"number":64,"time":8.651041666666668,"value":0.5748031496062992},{"number":64,"time":8.652083333333335,"value":0.5748031496062992},{"number":64,"time":8.727083333333335,"value":0.6062992125984252},{"number":64,"time":8.728125000000002,"value":0.6062992125984252},{"number":64,"time":8.834375000000001,"value":0.6377952755905512},{"number":64,"time":8.835416666666669,"value":0.6377952755905512},{"number":64,"time":9.534375000000002,"value":0.6062992125984252},{"number":64,"time":9.53541666666667,"value":0.6062992125984252},{"number":64,"time":9.55104166666667,"value":0.5748031496062992},{"number":64,"time":9.552083333333337,"value":0.5748031496062992},{"number":64,"time":9.558333333333337,"value":0.5433070866141733},{"number":64,"time":9.559375000000005,"value":0.5433070866141733},{"number":64,"time":9.566666666666672,"value":0.5039370078740157},{"number":64,"time":9.56770833333334,"value":0.5039370078740157},{"number":64,"time":9.583333333333341,"value":0.4015748031496063},{"number":64,"time":9.583333333333341,"value":0.4015748031496063},{"number":64,"time":9.590625000000008,"value":0.2755905511811024},{"number":64,"time":9.590625000000008,"value":0.2755905511811024},{"number":64,"time":9.635416666666675,"value":0.18110236220472442},{"number":64,"time":9.635416666666675,"value":0.18110236220472442},{"number":64,"time":9.706250000000008,"value":0.2992125984251969},{"number":64,"time":9.707291666666675,"value":0.2992125984251969},{"number":64,"time":9.718750000000009,"value":0.4015748031496063},{"number":64,"time":9.719791666666676,"value":0.4015748031496063},{"number":64,"time":9.730208333333342,"value":0.48031496062992124},{"number":64,"time":9.73125000000001,"value":0.48031496062992124},{"number":64,"time":9.742708333333344,"value":0.5196850393700787},{"number":64,"time":9.742708333333344,"value":0.5196850393700787},{"number":64,"time":9.763541666666677,"value":0.5511811023622047},{"number":64,"time":9.764583333333345,"value":0.5511811023622047},{"number":64,"time":9.791666666666679,"value":0.5826771653543307},{"number":64,"time":9.791666666666679,"value":0.5826771653543307},{"number":64,"time":9.827083333333345,"value":0.6141732283464567},{"number":64,"time":9.828125000000012,"value":0.6141732283464567},{"number":64,"time":9.88229166666668,"value":0.6456692913385826},{"number":64,"time":9.883333333333347,"value":0.6456692913385826},{"number":64,"time":10.386458333333348,"value":0.6141732283464567},{"number":64,"time":10.387500000000015,"value":0.6141732283464567},{"number":64,"time":10.407291666666682,"value":0.5826771653543307},{"number":64,"time":10.407291666666682,"value":0.5826771653543307},{"number":64,"time":10.418750000000015,"value":0.5511811023622047},{"number":64,"time":10.419791666666683,"value":0.5511811023622047},{"number":64,"time":10.431250000000018,"value":0.5039370078740157},{"number":64,"time":10.432291666666686,"value":0.5039370078740157},{"number":64,"time":10.44062500000002,"value":0.47244094488188976},{"number":64,"time":10.441666666666688,"value":0.47244094488188976},{"number":64,"time":10.450000000000022,"value":0.3779527559055118},{"number":64,"time":10.45104166666669,"value":0.3779527559055118},{"number":64,"time":10.465625000000022,"value":0.2755905511811024},{"number":64,"time":10.46666666666669,"value":0.2755905511811024},{"number":64,"time":10.489583333333357,"value":0.18110236220472442},{"number":64,"time":10.490625000000025,"value":0.18110236220472442},{"number":64,"time":10.502083333333358,"value":0.07874015748031496},{"number":64,"time":10.503125000000026,"value":0.07874015748031496},{"number":64,"time":10.509375000000025,"value":0},{"number":64,"time":10.510416666666693,"value":0},{"number":64,"time":10.906250000000027,"value":0.10236220472440945},{"number":64,"time":10.907291666666694,"value":0.10236220472440945},{"number":64,"time":10.91770833333336,"value":0.2047244094488189},{"number":64,"time":10.918750000000028,"value":0.2047244094488189},{"number":64,"time":10.950000000000028,"value":0.33070866141732286},{"number":64,"time":10.951041666666695,"value":0.33070866141732286},{"number":64,"time":10.997916666666695,"value":0.44881889763779526},{"number":64,"time":10.998958333333363,"value":0.44881889763779526},{"number":64,"time":11.013541666666695,"value":0.48031496062992124},{"number":64,"time":11.014583333333363,"value":0.48031496062992124},{"number":64,"time":11.045833333333363,"value":0.5118110236220472},{"number":64,"time":11.04687500000003,"value":0.5118110236220472},{"number":64,"time":11.081250000000031,"value":0.5433070866141733},{"number":64,"time":11.082291666666698,"value":0.5433070866141733},{"number":64,"time":11.127083333333365,"value":0.5748031496062992},{"number":64,"time":11.127083333333365,"value":0.5748031496062992},{"number":64,"time":11.161458333333366,"value":0.6062992125984252},{"number":64,"time":11.162500000000033,"value":0.6062992125984252},{"number":64,"time":11.2135416666667,"value":0.6377952755905512},{"number":64,"time":11.2135416666667,"value":0.6377952755905512},{"number":64,"time":11.2822916666667,"value":0.7322834645669292},{"number":64,"time":11.283333333333367,"value":0.7322834645669292},{"number":64,"time":11.965625000000033,"value":0.6456692913385826},{"number":64,"time":11.9666666666667,"value":0.6456692913385826},{"number":64,"time":11.978125000000034,"value":0.6062992125984252},{"number":64,"time":11.978125000000034,"value":0.6062992125984252},{"number":64,"time":11.989583333333368,"value":0.5748031496062992},{"number":64,"time":11.989583333333368,"value":0.5748031496062992},{"number":64,"time":11.9979166666667,"value":0.5433070866141733},{"number":64,"time":11.998958333333368,"value":0.5433070866141733},{"number":64,"time":12.006250000000035,"value":0.5118110236220472},{"number":64,"time":12.007291666666703,"value":0.5118110236220472},{"number":64,"time":12.02083333333337,"value":0.48031496062992124},{"number":64,"time":12.021875000000037,"value":0.48031496062992124},{"number":64,"time":12.08958333333337,"value":0.5118110236220472},{"number":64,"time":12.090625000000038,"value":0.5118110236220472},{"number":64,"time":12.113541666666706,"value":0.5511811023622047},{"number":64,"time":12.114583333333373,"value":0.5511811023622047},{"number":64,"time":12.13750000000004,"value":0.5826771653543307},{"number":64,"time":12.138541666666708,"value":0.5826771653543307},{"number":64,"time":12.15312500000004,"value":0.6141732283464567},{"number":64,"time":12.154166666666708,"value":0.6141732283464567},{"number":64,"time":12.17812500000004,"value":0.6456692913385826},{"number":64,"time":12.17812500000004,"value":0.6456692913385826},{"number":64,"time":12.278125000000042,"value":0.7559055118110236},{"number":64,"time":12.278125000000042,"value":0.7559055118110236},{"number":64,"time":12.421875000000043,"value":0.8503937007874016},{"number":64,"time":12.42291666666671,"value":0.8503937007874016},{"number":64,"time":12.74166666666671,"value":0.7559055118110236},{"number":64,"time":12.742708333333377,"value":0.7559055118110236},{"number":64,"time":12.765625000000044,"value":0.6614173228346457},{"number":64,"time":12.766666666666712,"value":0.6614173228346457},{"number":64,"time":12.779166666666711,"value":0.6299212598425197},{"number":64,"time":12.779166666666711,"value":0.6299212598425197},{"number":64,"time":12.789583333333377,"value":0.5984251968503937},{"number":64,"time":12.790625000000045,"value":0.5984251968503937},{"number":64,"time":12.802083333333378,"value":0.5669291338582677},{"number":64,"time":12.803125000000046,"value":0.5669291338582677},{"number":64,"time":12.809375000000045,"value":0.5354330708661418},{"number":64,"time":12.810416666666713,"value":0.5354330708661418},{"number":64,"time":12.81770833333338,"value":0.5039370078740157},{"number":64,"time":12.818750000000048,"value":0.5039370078740157},{"number":64,"time":12.826041666666715,"value":0.47244094488188976},{"number":64,"time":12.826041666666715,"value":0.47244094488188976},{"number":64,"time":12.837500000000048,"value":0.3779527559055118},{"number":64,"time":12.837500000000048,"value":0.3779527559055118},{"number":64,"time":12.858333333333382,"value":0.2755905511811024},{"number":64,"time":12.85937500000005,"value":0.2755905511811024},{"number":64,"time":12.882291666666717,"value":0.18110236220472442},{"number":64,"time":12.883333333333384,"value":0.18110236220472442},{"number":64,"time":12.89375000000005,"value":0.07874015748031496},{"number":64,"time":12.894791666666718,"value":0.07874015748031496},{"number":64,"time":12.902083333333385,"value":0},{"number":64,"time":12.902083333333385,"value":0},{"number":64,"time":15.216666666666717,"value":0.10236220472440945},{"number":64,"time":15.217708333333384,"value":0.10236220472440945},{"number":64,"time":15.22812500000005,"value":0.2283464566929134},{"number":64,"time":15.229166666666718,"value":0.2283464566929134},{"number":64,"time":15.244791666666718,"value":0.33070866141732286},{"number":64,"time":15.245833333333385,"value":0.33070866141732286},{"number":64,"time":15.272916666666719,"value":0.44881889763779526},{"number":64,"time":15.273958333333386,"value":0.44881889763779526},{"number":64,"time":15.288541666666719,"value":0.48031496062992124},{"number":64,"time":15.289583333333386,"value":0.48031496062992124},{"number":64,"time":15.33229166666672,"value":0.5118110236220472},{"number":64,"time":15.333333333333387,"value":0.5118110236220472},{"number":64,"time":15.368750000000054,"value":0.5433070866141733},{"number":64,"time":15.368750000000054,"value":0.5433070866141733},{"number":64,"time":15.425000000000054,"value":0.5748031496062992},{"number":64,"time":15.426041666666721,"value":0.5748031496062992},{"number":64,"time":15.477083333333388,"value":0.6062992125984252},{"number":64,"time":15.477083333333388,"value":0.6062992125984252},{"number":64,"time":15.556250000000055,"value":0.6377952755905512},{"number":64,"time":15.557291666666723,"value":0.6377952755905512},{"number":64,"time":15.676041666666723,"value":0.7322834645669292},{"number":64,"time":15.67708333333339,"value":0.7322834645669292},{"number":64,"time":17.051041666666727,"value":0.6535433070866141},{"number":64,"time":17.052083333333393,"value":0.6535433070866141},{"number":64,"time":17.091666666666725,"value":0.6220472440944882},{"number":64,"time":17.09270833333339,"value":0.6220472440944882},{"number":64,"time":17.122916666666725,"value":0.5905511811023622},{"number":64,"time":17.12395833333339,"value":0.5905511811023622},{"number":64,"time":17.147916666666724,"value":0.5590551181102362},{"number":64,"time":17.147916666666724,"value":0.5590551181102362},{"number":64,"time":17.159375000000058,"value":0.5275590551181102},{"number":64,"time":17.160416666666723,"value":0.5275590551181102},{"number":64,"time":17.171875000000057,"value":0.49606299212598426},{"number":64,"time":17.171875000000057,"value":0.49606299212598426},{"number":64,"time":17.191666666666723,"value":0.4015748031496063},{"number":64,"time":17.19270833333339,"value":0.4015748031496063},{"number":64,"time":17.222916666666723,"value":0.2992125984251969},{"number":64,"time":17.22395833333339,"value":0.2992125984251969},{"number":64,"time":17.23958333333339,"value":0.2047244094488189},{"number":64,"time":17.240625000000055,"value":0.2047244094488189},{"number":64,"time":17.251041666666723,"value":0.10236220472440945},{"number":64,"time":17.25208333333339,"value":0.10236220472440945},{"number":64,"time":17.263541666666722,"value":0},{"number":64,"time":17.264583333333388,"value":0},{"number":64,"time":17.471875000000054,"value":0.12598425196850394},{"number":64,"time":17.47291666666672,"value":0.12598425196850394},{"number":64,"time":17.47916666666672,"value":0.2755905511811024},{"number":64,"time":17.480208333333387,"value":0.2755905511811024},{"number":64,"time":17.487500000000054,"value":0.3779527559055118},{"number":64,"time":17.48854166666672,"value":0.3779527559055118},{"number":64,"time":17.495833333333387,"value":0.47244094488188976},{"number":64,"time":17.495833333333387,"value":0.47244094488188976},{"number":64,"time":17.503125000000054,"value":0.5039370078740157},{"number":64,"time":17.50416666666672,"value":0.5039370078740157},{"number":64,"time":17.555208333333386,"value":0.5354330708661418},{"number":64,"time":17.556250000000052,"value":0.5354330708661418},{"number":64,"time":17.59166666666672,"value":0.5669291338582677},{"number":64,"time":17.592708333333384,"value":0.5669291338582677},{"number":64,"time":17.61562500000005,"value":0.5984251968503937},{"number":64,"time":17.616666666666717,"value":0.5984251968503937},{"number":64,"time":17.635416666666718,"value":0.6299212598425197},{"number":64,"time":17.635416666666718,"value":0.6299212598425197},{"number":64,"time":17.73229166666672,"value":0.7322834645669292},{"number":64,"time":17.733333333333384,"value":0.7322834645669292},{"number":64,"time":17.94375000000005,"value":0.8267716535433071},{"number":64,"time":17.944791666666717,"value":0.8267716535433071},{"number":64,"time":19.12916666666672,"value":0.7322834645669292},{"number":64,"time":19.12916666666672,"value":0.7322834645669292},{"number":64,"time":19.205208333333385,"value":0.6535433070866141},{"number":64,"time":19.20625000000005,"value":0.6535433070866141},{"number":64,"time":19.254166666666716,"value":0.6220472440944882},{"number":64,"time":19.255208333333382,"value":0.6220472440944882},{"number":64,"time":19.348958333333382,"value":0.5905511811023622},{"number":64,"time":19.350000000000048,"value":0.5905511811023622},{"number":64,"time":19.381250000000048,"value":0.5590551181102362},{"number":64,"time":19.381250000000048,"value":0.5590551181102362},{"number":64,"time":19.40208333333338,"value":0.5275590551181102},{"number":64,"time":19.403125000000045,"value":0.5275590551181102},{"number":64,"time":19.41770833333338,"value":0.49606299212598426},{"number":64,"time":19.41770833333338,"value":0.49606299212598426},{"number":64,"time":19.44583333333338,"value":0.3779527559055118},{"number":64,"time":19.446875000000045,"value":0.3779527559055118},{"number":64,"time":19.469791666666712,"value":0.2755905511811024},{"number":64,"time":19.470833333333378,"value":0.2755905511811024},{"number":64,"time":19.486458333333378,"value":0.18110236220472442},{"number":64,"time":19.487500000000043,"value":0.18110236220472442},{"number":64,"time":19.498958333333377,"value":0.05511811023622047},{"number":64,"time":19.500000000000043,"value":0.05511811023622047},{"number":64,"time":19.506250000000044,"value":0},{"number":64,"time":19.506250000000044,"value":0},{"number":64,"time":19.72604166666671,"value":0.12598425196850394},{"number":64,"time":19.727083333333375,"value":0.12598425196850394},{"number":64,"time":19.733333333333377,"value":0.25196850393700787},{"number":64,"time":19.734375000000043,"value":0.25196850393700787},{"number":64,"time":19.74166666666671,"value":0.3543307086614173},{"number":64,"time":19.742708333333375,"value":0.3543307086614173},{"number":64,"time":19.753125000000043,"value":0.47244094488188976},{"number":64,"time":19.753125000000043,"value":0.47244094488188976},{"number":64,"time":19.773958333333375,"value":0.5039370078740157},{"number":64,"time":19.77500000000004,"value":0.5039370078740157},{"number":64,"time":19.83750000000004,"value":0.5354330708661418},{"number":64,"time":19.838541666666707,"value":0.5354330708661418},{"number":64,"time":19.869791666666707,"value":0.5669291338582677},{"number":64,"time":19.869791666666707,"value":0.5669291338582677},{"number":64,"time":19.90625000000004,"value":0.5984251968503937},{"number":64,"time":19.90625000000004,"value":0.5984251968503937},{"number":64,"time":19.95312500000004,"value":0.6299212598425197},{"number":64,"time":19.95312500000004,"value":0.6299212598425197},{"number":64,"time":21.4291666666667,"value":0.5984251968503937},{"number":64,"time":21.430208333333365,"value":0.5984251968503937},{"number":64,"time":21.48125000000003,"value":0.5669291338582677},{"number":64,"time":21.482291666666697,"value":0.5669291338582677},{"number":64,"time":21.50937500000003,"value":0.5354330708661418},{"number":64,"time":21.510416666666696,"value":0.5354330708661418},{"number":64,"time":21.533333333333363,"value":0.5039370078740157},{"number":64,"time":21.53437500000003,"value":0.5039370078740157},{"number":64,"time":21.548958333333363,"value":0.47244094488188976},{"number":64,"time":21.55000000000003,"value":0.47244094488188976},{"number":64,"time":21.57500000000003,"value":0.3779527559055118},{"number":64,"time":21.576041666666697,"value":0.3779527559055118},{"number":64,"time":21.596875000000033,"value":0.2755905511811024},{"number":64,"time":21.5979166666667,"value":0.2755905511811024},{"number":64,"time":21.6291666666667,"value":0.18110236220472442},{"number":64,"time":21.630208333333364,"value":0.18110236220472442},{"number":64,"time":21.6447916666667,"value":0.07874015748031496},{"number":64,"time":21.645833333333364,"value":0.07874015748031496},{"number":64,"time":21.669791666666697,"value":0},{"number":64,"time":21.669791666666697,"value":0},{"number":64,"time":21.880208333333364,"value":0.10236220472440945},{"number":64,"time":21.88125000000003,"value":0.10236220472440945},{"number":64,"time":21.888541666666697,"value":0.2047244094488189},{"number":64,"time":21.889583333333363,"value":0.2047244094488189},{"number":64,"time":21.90000000000003,"value":0.33070866141732286},{"number":64,"time":21.901041666666696,"value":0.33070866141732286},{"number":64,"time":21.916666666666696,"value":0.44881889763779526},{"number":64,"time":21.917708333333362,"value":0.44881889763779526},{"number":64,"time":21.920833333333363,"value":0.48031496062992124},{"number":64,"time":21.92187500000003,"value":0.48031496062992124},{"number":64,"time":21.97708333333336,"value":0.5118110236220472},{"number":64,"time":21.978125000000027,"value":0.5118110236220472},{"number":64,"time":22.016666666666694,"value":0.5433070866141733},{"number":64,"time":22.016666666666694,"value":0.5433070866141733},{"number":64,"time":22.047916666666694,"value":0.5748031496062992},{"number":64,"time":22.04895833333336,"value":0.5748031496062992},{"number":64,"time":22.116666666666692,"value":0.6062992125984252},{"number":64,"time":22.116666666666692,"value":0.6062992125984252},{"number":64,"time":23.460416666666692,"value":0.5748031496062992},{"number":64,"time":23.461458333333358,"value":0.5748031496062992},{"number":64,"time":23.49583333333336,"value":0.5354330708661418},{"number":64,"time":23.496875000000024,"value":0.5354330708661418},{"number":64,"time":23.53229166666669,"value":0.5039370078740157},{"number":64,"time":23.533333333333356,"value":0.5039370078740157},{"number":64,"time":23.571875000000023,"value":0.4015748031496063},{"number":64,"time":23.57291666666669,"value":0.4015748031496063},{"number":64,"time":23.58958333333336,"value":0.2992125984251969},{"number":64,"time":23.590625000000024,"value":0.2992125984251969},{"number":64,"time":23.60833333333336,"value":0.2047244094488189},{"number":64,"time":23.609375000000025,"value":0.2047244094488189},{"number":64,"time":23.62395833333336,"value":0.10236220472440945},{"number":64,"time":23.62395833333336,"value":0.10236220472440945},{"number":64,"time":23.64479166666669,"value":0},{"number":64,"time":23.645833333333357,"value":0},{"number":64,"time":23.94791666666669,"value":0.12598425196850394},{"number":64,"time":23.948958333333355,"value":0.12598425196850394},{"number":64,"time":23.956250000000022,"value":0.25196850393700787},{"number":64,"time":23.957291666666688,"value":0.25196850393700787},{"number":64,"time":23.96875000000002,"value":0.3779527559055118},{"number":64,"time":23.96875000000002,"value":0.3779527559055118},{"number":64,"time":23.98437500000002,"value":0.47244094488188976},{"number":64,"time":23.985416666666687,"value":0.47244094488188976},{"number":64,"time":24.07187500000002,"value":0.5039370078740157},{"number":64,"time":24.072916666666686,"value":0.5039370078740157},{"number":64,"time":24.14375000000002,"value":0.5354330708661418},{"number":64,"time":24.144791666666684,"value":0.5354330708661418},{"number":64,"time":24.215625000000017,"value":0.5669291338582677},{"number":64,"time":24.216666666666683,"value":0.5669291338582677},{"number":64,"time":24.356250000000014,"value":0.5984251968503937},{"number":64,"time":24.35729166666668,"value":0.5984251968503937},{"number":64,"time":25.637500000000006,"value":0.5669291338582677},{"number":64,"time":25.637500000000006,"value":0.5669291338582677},{"number":64,"time":25.647916666666674,"value":0.5354330708661418},{"number":64,"time":25.64895833333334,"value":0.5354330708661418},{"number":64,"time":25.658333333333342,"value":0.49606299212598426},{"number":64,"time":25.659375000000008,"value":0.49606299212598426},{"number":64,"time":25.66875000000001,"value":0.3779527559055118},{"number":64,"time":25.66875000000001,"value":0.3779527559055118},{"number":64,"time":25.680208333333344,"value":0.25196850393700787},{"number":64,"time":25.68125000000001,"value":0.25196850393700787},{"number":64,"time":25.68750000000001,"value":0.12598425196850394},{"number":64,"time":25.688541666666676,"value":0.12598425196850394},{"number":64,"time":25.698958333333344,"value":0.031496062992125984},{"number":64,"time":25.698958333333344,"value":0.031496062992125984},{"number":64,"time":25.707291666666677,"value":0},{"number":64,"time":25.708333333333343,"value":0},{"number":64,"time":25.81145833333334,"value":0.10236220472440945},{"number":64,"time":25.812500000000007,"value":0.10236220472440945},{"number":64,"time":25.81875000000001,"value":0.2283464566929134},{"number":64,"time":25.819791666666674,"value":0.2283464566929134},{"number":64,"time":25.82708333333334,"value":0.33070866141732286},{"number":64,"time":25.828125000000007,"value":0.33070866141732286},{"number":64,"time":25.838541666666675,"value":0.47244094488188976},{"number":64,"time":25.83958333333334,"value":0.47244094488188976},{"number":64,"time":25.846875000000008,"value":0.5039370078740157},{"number":64,"time":25.847916666666674,"value":0.5039370078740157},{"number":64,"time":25.866666666666674,"value":0.5354330708661418},{"number":64,"time":25.86770833333334,"value":0.5354330708661418},{"number":64,"time":25.98333333333334,"value":0.5669291338582677},{"number":64,"time":25.984375000000007,"value":0.5669291338582677},{"number":64,"time":26.303125000000005,"value":0.5354330708661418},{"number":64,"time":26.303125000000005,"value":0.5354330708661418},{"number":64,"time":26.323958333333337,"value":0.5039370078740157},{"number":64,"time":26.323958333333337,"value":0.5039370078740157},{"number":64,"time":26.33541666666667,"value":0.47244094488188976},{"number":64,"time":26.336458333333336,"value":0.47244094488188976},{"number":64,"time":26.346875000000004,"value":0.3779527559055118},{"number":64,"time":26.34791666666667,"value":0.3779527559055118},{"number":64,"time":26.362500000000004,"value":0.25196850393700787},{"number":64,"time":26.36354166666667,"value":0.25196850393700787},{"number":64,"time":26.375000000000004,"value":0.12598425196850394},{"number":64,"time":26.375000000000004,"value":0.12598425196850394},{"number":64,"time":26.383333333333336,"value":0.031496062992125984},{"number":64,"time":26.384375000000002,"value":0.031496062992125984},{"number":64,"time":26.387500000000003,"value":0},{"number":64,"time":26.387500000000003,"value":0},{"number":64,"time":26.63854166666667,"value":0.12598425196850394},{"number":64,"time":26.639583333333334,"value":0.12598425196850394},{"number":64,"time":26.646875,"value":0.25196850393700787},{"number":64,"time":26.647916666666667,"value":0.25196850393700787},{"number":64,"time":26.655208333333334,"value":0.3543307086614173},{"number":64,"time":26.65625,"value":0.3543307086614173},{"number":64,"time":26.666666666666668,"value":0.47244094488188976},{"number":64,"time":26.667708333333334,"value":0.47244094488188976},{"number":64,"time":26.679166666666667,"value":0.5039370078740157},{"number":64,"time":26.680208333333333,"value":0.5039370078740157},{"number":64,"time":26.73125,"value":0.5354330708661418},{"number":64,"time":26.732291666666665,"value":0.5354330708661418},{"number":64,"time":26.779166666666665,"value":0.5748031496062992},{"number":64,"time":26.78020833333333,"value":0.5748031496062992},{"number":64,"time":26.81458333333333,"value":0.6062992125984252},{"number":64,"time":26.815624999999997,"value":0.6062992125984252},{"number":64,"time":27.6875,"value":0.5748031496062992},{"number":64,"time":27.6875,"value":0.5748031496062992},{"number":64,"time":27.702083333333334,"value":0.5433070866141733},{"number":64,"time":27.702083333333334,"value":0.5433070866141733},{"number":64,"time":27.714583333333334,"value":0.5039370078740157},{"number":64,"time":27.715625,"value":0.5039370078740157},{"number":64,"time":27.722916666666666,"value":0.47244094488188976},{"number":64,"time":27.723958333333332,"value":0.47244094488188976},{"number":64,"time":27.735416666666666,"value":0.3779527559055118},{"number":64,"time":27.73645833333333,"value":0.3779527559055118},{"number":64,"time":27.751041666666666,"value":0.2755905511811024},{"number":64,"time":27.75208333333333,"value":0.2755905511811024},{"number":64,"time":27.769791666666666,"value":0.18110236220472442},{"number":64,"time":27.770833333333332,"value":0.18110236220472442},{"number":64,"time":27.778125,"value":0.07874015748031496},{"number":64,"time":27.779166666666665,"value":0.07874015748031496},{"number":64,"time":27.789583333333333,"value":0},{"number":64,"time":27.790625,"value":0},{"number":64,"time":28.65,"value":0.12598425196850394},{"number":64,"time":28.65,"value":0.12598425196850394},{"number":64,"time":28.65833333333333,"value":0.2283464566929134},{"number":64,"time":28.65833333333333,"value":0.2283464566929134},{"number":64,"time":28.669791666666665,"value":0.33070866141732286},{"number":64,"time":28.67083333333333,"value":0.33070866141732286},{"number":64,"time":28.697916666666664,"value":0.44881889763779526},{"number":64,"time":28.69895833333333,"value":0.44881889763779526},{"number":64,"time":28.73020833333333,"value":0.48031496062992124},{"number":64,"time":28.731249999999996,"value":0.48031496062992124},{"number":64,"time":28.768749999999997,"value":0.5118110236220472},{"number":64,"time":28.769791666666663,"value":0.5118110236220472},{"number":64,"time":28.816666666666663,"value":0.5433070866141733},{"number":64,"time":28.81770833333333,"value":0.5433070866141733},{"number":64,"time":28.884374999999995,"value":0.5748031496062992},{"number":64,"time":28.88541666666666,"value":0.5748031496062992},{"number":64,"time":28.938541666666662,"value":0.6062992125984252},{"number":64,"time":28.938541666666662,"value":0.6062992125984252},{"number":64,"time":29.888541666666665,"value":0.5748031496062992},{"number":64,"time":29.88958333333333,"value":0.5748031496062992},{"number":64,"time":29.910416666666666,"value":0.5433070866141733},{"number":64,"time":29.910416666666666,"value":0.5433070866141733},{"number":64,"time":29.920833333333334,"value":0.5118110236220472},{"number":64,"time":29.921875,"value":0.5118110236220472},{"number":64,"time":29.933333333333334,"value":0.48031496062992124},{"number":64,"time":29.933333333333334,"value":0.48031496062992124},{"number":64,"time":29.953125,"value":0.3543307086614173},{"number":64,"time":29.954166666666666,"value":0.3543307086614173},{"number":64,"time":29.977083333333333,"value":0.25196850393700787},{"number":64,"time":29.978125,"value":0.25196850393700787},{"number":64,"time":29.996875,"value":0.12598425196850394},{"number":64,"time":29.997916666666665,"value":0.12598425196850394},{"number":64,"time":30.0125,"value":0.031496062992125984},{"number":64,"time":30.013541666666665,"value":0.031496062992125984},{"number":64,"time":30.016666666666666,"value":0},{"number":64,"time":30.01770833333333,"value":0},{"number":64,"time":30.623958333333334,"value":0.10236220472440945},{"number":64,"time":30.625,"value":0.10236220472440945},{"number":64,"time":30.63125,"value":0.2283464566929134},{"number":64,"time":30.632291666666667,"value":0.2283464566929134},{"number":64,"time":30.639583333333334,"value":0.33070866141732286},{"number":64,"time":30.640625,"value":0.33070866141732286},{"number":64,"time":30.652083333333334,"value":0.44881889763779526},{"number":64,"time":30.653125,"value":0.44881889763779526},{"number":64,"time":30.659375,"value":0.48031496062992124},{"number":64,"time":30.660416666666666,"value":0.48031496062992124},{"number":64,"time":30.748958333333334,"value":0.5118110236220472},{"number":64,"time":30.75,"value":0.5118110236220472},{"number":64,"time":30.783333333333335,"value":0.5433070866141733},{"number":64,"time":30.784375,"value":0.5433070866141733},{"number":64,"time":30.863541666666666,"value":0.5748031496062992},{"number":64,"time":30.864583333333332,"value":0.5748031496062992},{"number":64,"time":30.919791666666665,"value":0.6062992125984252},{"number":64,"time":30.919791666666665,"value":0.6062992125984252},{"number":64,"time":31,"value":0.6377952755905512},{"number":64,"time":31.001041666666666,"value":0.6377952755905512},{"number":64,"time":32.16770833333334,"value":0.6062992125984252},{"number":64,"time":32.16875,"value":0.6062992125984252},{"number":64,"time":32.18020833333333,"value":0.5748031496062992},{"number":64,"time":32.18125,"value":0.5748031496062992},{"number":64,"time":32.19166666666666,"value":0.5354330708661418},{"number":64,"time":32.19166666666666,"value":0.5354330708661418},{"number":64,"time":32.199999999999996,"value":0.4881889763779528},{"number":64,"time":32.20104166666666,"value":0.4881889763779528},{"number":64,"time":32.20729166666666,"value":0.4015748031496063},{"number":64,"time":32.20833333333333,"value":0.4015748031496063},{"number":64,"time":32.21979166666666,"value":0.2992125984251969},{"number":64,"time":32.220833333333324,"value":0.2992125984251969},{"number":64,"time":32.24374999999999,"value":0.2047244094488189},{"number":64,"time":32.24479166666666,"value":0.2047244094488189},{"number":64,"time":32.363541666666656,"value":0.33070866141732286},{"number":64,"time":32.36458333333332,"value":0.33070866141732286},{"number":64,"time":32.38749999999999,"value":0.44881889763779526},{"number":64,"time":32.388541666666654,"value":0.44881889763779526},{"number":64,"time":32.39583333333332,"value":0.48031496062992124},{"number":64,"time":32.39687499999999,"value":0.48031496062992124},{"number":64,"time":32.42395833333332,"value":0.5118110236220472},{"number":64,"time":32.42499999999998,"value":0.5118110236220472},{"number":64,"time":32.495833333333316,"value":0.5433070866141733},{"number":64,"time":32.49687499999998,"value":0.5433070866141733},{"number":64,"time":32.63958333333331,"value":0.5748031496062992},{"number":64,"time":32.64062499999998,"value":0.5748031496062992},{"number":64,"time":33.20729166666665,"value":0.6062992125984252},{"number":64,"time":33.20729166666665,"value":0.6062992125984252},{"number":64,"time":33.382291666666646,"value":0.6377952755905512},{"number":64,"time":33.38333333333331,"value":0.6377952755905512},{"number":64,"time":34.44270833333331,"value":0.6062992125984252},{"number":64,"time":34.44270833333331,"value":0.6062992125984252},{"number":64,"time":34.46666666666664,"value":0.5748031496062992},{"number":64,"time":34.467708333333306,"value":0.5748031496062992},{"number":64,"time":34.479166666666636,"value":0.5433070866141733},{"number":64,"time":34.479166666666636,"value":0.5433070866141733},{"number":64,"time":34.4864583333333,"value":0.5118110236220472},{"number":64,"time":34.48749999999997,"value":0.5118110236220472},{"number":64,"time":34.4989583333333,"value":0.47244094488188976},{"number":64,"time":34.499999999999964,"value":0.47244094488188976},{"number":64,"time":34.527083333333294,"value":0.3779527559055118},{"number":64,"time":34.527083333333294,"value":0.3779527559055118},{"number":64,"time":34.638541666666626,"value":0.47244094488188976},{"number":64,"time":34.638541666666626,"value":0.47244094488188976},{"number":64,"time":34.679166666666625,"value":0.5039370078740157},{"number":64,"time":34.68020833333329,"value":0.5039370078740157},{"number":64,"time":34.72291666666662,"value":0.5354330708661418},{"number":64,"time":34.723958333333286,"value":0.5354330708661418},{"number":64,"time":34.77812499999995,"value":0.5669291338582677},{"number":64,"time":34.77916666666662,"value":0.5669291338582677},{"number":64,"time":34.91041666666662,"value":0.5984251968503937},{"number":64,"time":34.911458333333286,"value":0.5984251968503937},{"number":64,"time":36.061458333333285,"value":0.5669291338582677},{"number":64,"time":36.06249999999995,"value":0.5669291338582677},{"number":64,"time":36.10520833333328,"value":0.5354330708661418},{"number":64,"time":36.106249999999946,"value":0.5354330708661418},{"number":64,"time":36.12916666666661,"value":0.49606299212598426},{"number":64,"time":36.13020833333328,"value":0.49606299212598426},{"number":64,"time":36.17916666666661,"value":0.4015748031496063},{"number":64,"time":36.180208333333276,"value":0.4015748031496063},{"number":64,"time":36.227083333333276,"value":0.2992125984251969},{"number":64,"time":36.227083333333276,"value":0.2992125984251969},{"number":64,"time":36.25312499999994,"value":0.2047244094488189},{"number":64,"time":36.254166666666606,"value":0.2047244094488189},{"number":64,"time":36.285416666666606,"value":0.10236220472440945},{"number":64,"time":36.28645833333327,"value":0.10236220472440945},{"number":64,"time":36.31874999999994,"value":0},{"number":64,"time":36.3197916666666,"value":0}]},"id":1,"name":"MIDI from piano","channelNumber":0,"isPercussion":false},{"startTime":37.03541666666667,"duration":104.19999999999956,"length":319,"notes":[{"name":"A4","midi":69,"time":37.03541666666667,"velocity":0.4094488188976378,"duration":0.8489583333333286},{"name":"C#4","midi":61,"time":37.0375,"velocity":0.4251968503937008,"duration":0.6739583333333243},{"name":"A3","midi":57,"time":37.0875,"velocity":0.2047244094488189,"duration":0.56979166666666},{"name":"B3","midi":59,"time":37.11354166666666,"velocity":0.1968503937007874,"duration":0.5593749999999957},{"name":"A2","midi":45,"time":37.320833333333326,"velocity":0.2755905511811024,"duration":0.34166666666666856},{"name":"E3","midi":52,"time":37.613541666666656,"velocity":0.23622047244094488,"duration":0.03750000000000142},{"name":"E3","midi":52,"time":37.81041666666666,"velocity":0.36220472440944884,"duration":0.23645833333333854},{"name":"A2","midi":45,"time":37.815625,"velocity":0.36220472440944884,"duration":0.0677083333333357},{"name":"E3","midi":52,"time":38.046875,"velocity":0.18110236220472442,"duration":0.15729166666666572},{"name":"A2","midi":45,"time":38.05520833333333,"velocity":0.3228346456692913,"duration":0.16979166666666856},{"name":"B3","midi":59,"time":38.06666666666666,"velocity":0.33858267716535434,"duration":0.10104166666666714},{"name":"A3","midi":57,"time":38.08125,"velocity":0.3700787401574803,"duration":0.07916666666666572},{"name":"C#4","midi":61,"time":38.28958333333333,"velocity":0.4409448818897638,"duration":0.08645833333333286},{"name":"E4","midi":64,"time":38.291666666666664,"velocity":0.41732283464566927,"duration":0.11354166666666998},{"name":"E3","midi":52,"time":38.53333333333333,"velocity":0.33858267716535434,"duration":0.10833333333333428},{"name":"B4","midi":71,"time":38.81770833333332,"velocity":0.4881889763779528,"duration":1.116666666666653},{"name":"F#4","midi":66,"time":38.826041666666654,"velocity":0.4645669291338583,"duration":1.499999999999993},{"name":"E4","midi":64,"time":38.843749999999986,"velocity":0.33070866141732286,"duration":1.2479166666666544},{"name":"A3","midi":57,"time":38.86458333333332,"velocity":0.30708661417322836,"duration":1.1020833333333186},{"name":"B3","midi":59,"time":38.86666666666665,"velocity":0.2755905511811024,"duration":1.1145833333333215},{"name":"E2","midi":40,"time":39.290624999999984,"velocity":0.36220472440944884,"duration":0.09479166666665861},{"name":"B2","midi":47,"time":39.534374999999976,"velocity":0.4409448818897638,"duration":0.06562499999999716},{"name":"E3","midi":52,"time":39.789583333333304,"velocity":0.3464566929133858,"duration":0.0520833333333357},{"name":"B2","midi":47,"time":39.79479166666664,"velocity":0.30708661417322836,"duration":0.028125000000002842},{"name":"B2","midi":47,"time":39.99166666666664,"velocity":0.3228346456692913,"duration":0.13645833333333712},{"name":"B3","midi":59,"time":40.251041666666644,"velocity":0.4094488188976378,"duration":0.17395833333333854},{"name":"A4","midi":69,"time":40.25833333333331,"velocity":0.5196850393700787,"duration":0.2489583333333414},{"name":"F#3","midi":54,"time":40.51249999999999,"velocity":0.3937007874015748,"duration":0.05104166666666288},{"name":"E3","midi":52,"time":40.53854166666665,"velocity":0.2677165354330709,"duration":0.04374999999999574},{"name":"G#4","midi":68,"time":40.74270833333332,"velocity":0.6062992125984252,"duration":0.7895833333333258},{"name":"F#3","midi":54,"time":40.78124999999998,"velocity":0.3937007874015748,"duration":0.6854166666666686},{"name":"G#3","midi":56,"time":40.782291666666644,"velocity":0.2677165354330709,"duration":0.75416666666667},{"name":"F#2","midi":42,"time":41.21874999999998,"velocity":0.3937007874015748,"duration":0.34166666666666856},{"name":"C#3","midi":49,"time":41.47812499999998,"velocity":0.5118110236220472,"duration":0.0885416666666714},{"name":"C#3","midi":49,"time":41.71770833333331,"velocity":0.36220472440944884,"duration":0.0677083333333357},{"name":"F#2","midi":42,"time":41.72291666666665,"velocity":0.3464566929133858,"duration":0.06145833333333428},{"name":"F#3","midi":54,"time":41.73749999999998,"velocity":0.28346456692913385,"duration":0.04479166666666856},{"name":"G#3","midi":56,"time":41.749999999999986,"velocity":0.16535433070866143,"duration":0.09062499999999574},{"name":"F#2","midi":42,"time":41.92812499999998,"velocity":0.3779527559055118,"duration":0.109375},{"name":"C#3","midi":49,"time":41.94583333333331,"velocity":0.4251968503937008,"duration":0.15312500000000284},{"name":"F#3","midi":54,"time":41.95104166666665,"velocity":0.3464566929133858,"duration":0.20208333333333428},{"name":"G#3","midi":56,"time":41.95312499999998,"velocity":0.5118110236220472,"duration":0.20416666666667282},{"name":"A4","midi":69,"time":42.17604166666665,"velocity":0.5118110236220472,"duration":0.11249999999999716},{"name":"E4","midi":64,"time":42.179166666666646,"velocity":0.4251968503937008,"duration":0.1197916666666643},{"name":"A3","midi":57,"time":42.19374999999998,"velocity":0.3937007874015748,"duration":0.15312499999999574},{"name":"D4","midi":62,"time":42.24062499999998,"velocity":0.25196850393700787,"duration":0.03125},{"name":"C#3","midi":49,"time":42.429166666666646,"velocity":0.3858267716535433,"duration":0.08437500000000142},{"name":"G#3","midi":56,"time":42.43749999999998,"velocity":0.25984251968503935,"duration":0.02395833333333286},{"name":"F#3","midi":54,"time":42.454166666666644,"velocity":0.14173228346456693,"duration":0.06041666666666856},{"name":"F#4","midi":66,"time":42.68124999999998,"velocity":0.5354330708661418,"duration":0.9645833333333371},{"name":"E4","midi":64,"time":42.69583333333331,"velocity":0.4251968503937008,"duration":0.9427083333333357},{"name":"F#3","midi":54,"time":42.69687499999998,"velocity":0.23622047244094488,"duration":0.8895833333333414},{"name":"D4","midi":62,"time":42.70208333333331,"velocity":0.3937007874015748,"duration":0.89479166666667},{"name":"D2","midi":38,"time":43.14270833333332,"velocity":0.3858267716535433,"duration":0.13645833333333002},{"name":"D2","midi":38,"time":43.38437499999998,"velocity":0.2047244094488189,"duration":0.07500000000000284},{"name":"A2","midi":45,"time":43.387499999999974,"velocity":0.41732283464566927,"duration":0.0937500000000071},{"name":"D2","midi":38,"time":43.61249999999998,"velocity":0.3858267716535433,"duration":0.07604166666666146},{"name":"A2","midi":45,"time":43.62395833333331,"velocity":0.4015748031496063,"duration":0.09166666666666146},{"name":"A2","midi":45,"time":43.84895833333331,"velocity":0.30708661417322836,"duration":0.10833333333334139},{"name":"D3","midi":50,"time":43.87083333333331,"velocity":0.36220472440944884,"duration":0.057291666666671404},{"name":"D2","midi":38,"time":43.87708333333331,"velocity":0.3779527559055118,"duration":0.04583333333333428},{"name":"E3","midi":52,"time":43.882291666666646,"velocity":0.3779527559055118,"duration":0.03750000000000142},{"name":"E3","midi":52,"time":44.054166666666646,"velocity":0.2204724409448819,"duration":0.04583333333333428},{"name":"D3","midi":50,"time":44.07708333333331,"velocity":0.15748031496062992,"duration":0.02499999999999858},{"name":"A4","midi":69,"time":44.10937499999998,"velocity":0.5118110236220472,"duration":0.1552083333333414},{"name":"A3","midi":57,"time":44.11354166666665,"velocity":0.33858267716535434,"duration":0.17604166666666998},{"name":"B3","midi":59,"time":44.15833333333332,"velocity":0.31496062992125984,"duration":0.02187500000000142},{"name":"A2","midi":45,"time":44.31770833333332,"velocity":0.36220472440944884,"duration":0.05104166666666288},{"name":"D3","midi":50,"time":44.326041666666654,"velocity":0.10236220472440945,"duration":0.0937499999999929},{"name":"E3","midi":52,"time":44.38541666666665,"velocity":0.11023622047244094,"duration":0.037499999999994316},{"name":"A4","midi":69,"time":44.55104166666664,"velocity":0.5433070866141733,"duration":0.8854166666666501},{"name":"E4","midi":64,"time":44.56041666666664,"velocity":0.47244094488188976,"duration":0.6937499999999872},{"name":"A3","midi":57,"time":44.56354166666664,"velocity":0.4015748031496063,"duration":0.6052083333333229},{"name":"D4","midi":62,"time":44.56770833333331,"velocity":0.49606299212598426,"duration":0.5854166666666529},{"name":"A2","midi":45,"time":44.79687499999997,"velocity":0.4409448818897638,"duration":0.31979166666666003},{"name":"E3","midi":52,"time":45.04166666666663,"velocity":0.3779527559055118,"duration":0.07500000000000284},{"name":"A2","midi":45,"time":45.2739583333333,"velocity":0.4094488188976378,"duration":0.06666666666666288},{"name":"E3","midi":52,"time":45.27604166666663,"velocity":0.4330708661417323,"duration":0.12083333333333002},{"name":"E3","midi":52,"time":45.509374999999956,"velocity":0.25196850393700787,"duration":0.11249999999999005},{"name":"A2","midi":45,"time":45.520833333333286,"velocity":0.33070866141732286,"duration":0.07187499999999858},{"name":"A3","midi":57,"time":45.55833333333329,"velocity":0.30708661417322836,"duration":0.037499999999994316},{"name":"B3","midi":59,"time":45.567708333333286,"velocity":0.25984251968503935,"duration":0.02291666666666714},{"name":"A3","midi":57,"time":45.758333333333276,"velocity":0.4015748031496063,"duration":0.12708333333333144},{"name":"B3","midi":59,"time":45.76145833333327,"velocity":0.44881889763779526,"duration":0.08645833333333286},{"name":"E3","midi":52,"time":45.769791666666606,"velocity":0.4094488188976378,"duration":0.11145833333333144},{"name":"A2","midi":45,"time":45.8510416666666,"velocity":0.12598425196850394,"duration":0.04583333333333428},{"name":"C#4","midi":61,"time":46.01041666666661,"velocity":0.5354330708661418,"duration":0.05833333333333002},{"name":"E4","midi":64,"time":46.01041666666661,"velocity":0.49606299212598426,"duration":0.09479166666666572},{"name":"E3","midi":52,"time":46.24583333333327,"velocity":0.4645669291338583,"duration":0.04375000000000284},{"name":"B4","midi":71,"time":46.484374999999936,"velocity":0.5669291338582677,"duration":0.916666666666643},{"name":"F#4","midi":66,"time":46.49270833333327,"velocity":0.4881889763779528,"duration":1.1708333333333059},{"name":"E4","midi":64,"time":46.50624999999994,"velocity":0.36220472440944884,"duration":1.0281249999999673},{"name":"A3","midi":57,"time":46.52187499999994,"velocity":0.31496062992125984,"duration":0.8885416666666401},{"name":"B3","midi":59,"time":46.52708333333327,"velocity":0.2677165354330709,"duration":0.8906249999999716},{"name":"E2","midi":40,"time":46.74479166666659,"velocity":0.4566929133858268,"duration":0.13958333333332718},{"name":"B2","midi":47,"time":46.979166666666586,"velocity":0.4566929133858268,"duration":0.05937499999999574},{"name":"B2","midi":47,"time":47.21145833333325,"velocity":0.4251968503937008,"duration":0.05624999999999858},{"name":"E3","midi":52,"time":47.25937499999991,"velocity":0.31496062992125984,"duration":0.03229166666666572},{"name":"B2","midi":47,"time":47.43437499999991,"velocity":0.4409448818897638,"duration":0.07395833333333002},{"name":"F#3","midi":54,"time":47.67187499999991,"velocity":0.6220472440944882,"duration":0.06875000000000142},{"name":"E3","midi":52,"time":47.681249999999906,"velocity":0.44881889763779526,"duration":0.16979166666666856},{"name":"A4","midi":69,"time":47.90312499999991,"velocity":0.5039370078740157,"duration":0.10624999999999574},{"name":"B3","midi":59,"time":47.919791666666576,"velocity":0.3858267716535433,"duration":0.07916666666666572},{"name":"F#3","midi":54,"time":48.159374999999905,"velocity":0.30708661417322836,"duration":0.03437499999999716},{"name":"G#4","midi":68,"time":48.40416666666657,"velocity":0.6299212598425197,"duration":0.556249999999963},{"name":"F#3","midi":54,"time":48.4124999999999,"velocity":0.3937007874015748,"duration":0.4687499999999716},{"name":"G#3","midi":56,"time":48.42604166666656,"velocity":0.31496062992125984,"duration":0.48229166666664014},{"name":"F#2","midi":42,"time":48.66458333333322,"velocity":0.44881889763779526,"duration":0.2729166666666458},{"name":"C#3","midi":49,"time":48.86979166666654,"velocity":0.4251968503937008,"duration":0.05729166666665719},{"name":"F#2","midi":42,"time":49.11979166666653,"velocity":0.47244094488188976,"duration":0.09479166666667282},{"name":"C#3","midi":49,"time":49.1239583333332,"velocity":0.3937007874015748,"duration":0.08125000000000426},{"name":"F#3","midi":54,"time":49.13229166666653,"velocity":0.29133858267716534,"duration":0.05937500000000284},{"name":"F#3","midi":54,"time":49.36874999999987,"velocity":0.2992125984251969,"duration":0.05416666666666714},{"name":"F#2","midi":42,"time":49.37604166666654,"velocity":0.3464566929133858,"duration":0.05624999999999858},{"name":"C#3","midi":49,"time":49.37604166666654,"velocity":0.4330708661417323,"duration":0.06041666666666856},{"name":"G#3","midi":56,"time":49.39166666666654,"velocity":0.3700787401574803,"duration":0.019791666666669983},{"name":"F#3","midi":54,"time":49.57395833333321,"velocity":0.5275590551181102,"duration":0.10520833333333002},{"name":"C#3","midi":49,"time":49.58437499999987,"velocity":0.5433070866141733,"duration":0.1354166666666643},{"name":"G#3","midi":56,"time":49.59166666666654,"velocity":0.4409448818897638,"duration":0.07916666666666572},{"name":"A4","midi":69,"time":49.80937499999987,"velocity":0.6456692913385826,"duration":0.10000000000000142},{"name":"B4","midi":71,"time":49.872916666666534,"velocity":0.6141732283464567,"duration":0.10729166666666856},{"name":"B3","midi":59,"time":49.879166666666535,"velocity":0.28346456692913385,"duration":0.11354166666666998},{"name":"A3","midi":57,"time":49.881249999999866,"velocity":0.29133858267716534,"duration":0.16875000000000995},{"name":"F#3","midi":54,"time":50.04479166666654,"velocity":0.44881889763779526,"duration":0.06145833333333428},{"name":"C#3","midi":49,"time":50.05208333333321,"velocity":0.4881889763779528,"duration":0.0625},{"name":"G#3","midi":56,"time":50.05729166666654,"velocity":0.4251968503937008,"duration":0.046875},{"name":"A4","midi":69,"time":50.26145833333321,"velocity":0.5984251968503937,"duration":1.104166666666643},{"name":"A3","midi":57,"time":50.27187499999987,"velocity":0.4645669291338583,"duration":0.9583333333333144},{"name":"E4","midi":64,"time":50.27708333333321,"velocity":0.47244094488188976,"duration":1.0083333333333115},{"name":"D4","midi":62,"time":50.29479166666654,"velocity":0.3700787401574803,"duration":0.862499999999983},{"name":"D2","midi":38,"time":50.53020833333319,"velocity":0.49606299212598426,"duration":0.28958333333332575},{"name":"A2","midi":45,"time":50.76354166666653,"velocity":0.4094488188976378,"duration":0.07291666666665719},{"name":"D2","midi":38,"time":50.98749999999985,"velocity":0.48031496062992124,"duration":0.07500000000000284},{"name":"A2","midi":45,"time":50.98749999999985,"velocity":0.5118110236220472,"duration":0.09479166666667282},{"name":"A2","midi":45,"time":51.21458333333319,"velocity":0.4566929133858268,"duration":0.1041666666666643},{"name":"D2","midi":38,"time":51.21458333333319,"velocity":0.4566929133858268,"duration":0.0572916666666643},{"name":"E3","midi":52,"time":51.22083333333319,"velocity":0.25196850393700787,"duration":0.04583333333333428},{"name":"D3","midi":50,"time":51.231249999999854,"velocity":0.2283464566929134,"duration":0.03750000000000142},{"name":"D2","midi":38,"time":51.44687499999985,"velocity":0.48031496062992124,"duration":0.18333333333333002},{"name":"E3","midi":52,"time":51.44895833333318,"velocity":0.4330708661417323,"duration":0.1927083333333286},{"name":"D3","midi":50,"time":51.44999999999985,"velocity":0.4094488188976378,"duration":0.19062499999999716},{"name":"A2","midi":45,"time":51.45520833333318,"velocity":0.4881889763779528,"duration":0.14270833333333144},{"name":"E5","midi":76,"time":51.646874999999845,"velocity":0.6377952755905512,"duration":0.19166666666666998},{"name":"E4","midi":64,"time":51.65208333333318,"velocity":0.4566929133858268,"duration":0.17083333333333428},{"name":"A2","midi":45,"time":51.89166666666652,"velocity":0.5748031496062992,"duration":0.07604166666666856},{"name":"B4","midi":71,"time":52.10937499999985,"velocity":0.6062992125984252,"duration":1.04583333333332},{"name":"E5","midi":76,"time":52.11249999999985,"velocity":0.6535433070866141,"duration":1.0645833333333243},{"name":"A4","midi":69,"time":52.12083333333318,"velocity":0.4881889763779528,"duration":0.8458333333333243},{"name":"E4","midi":64,"time":52.12604166666652,"velocity":0.4645669291338583,"duration":0.8885416666666544},{"name":"A1","midi":33,"time":52.36041666666652,"velocity":0.5826771653543307,"duration":0.15416666666665435},{"name":"A2","midi":45,"time":52.367708333333184,"velocity":0.49606299212598426,"duration":0.2249999999999872},{"name":"B2","midi":47,"time":52.36874999999985,"velocity":0.4330708661417323,"duration":0.24270833333332575},{"name":"E2","midi":40,"time":52.571874999999835,"velocity":0.25196850393700787,"duration":0.03541666666666998},{"name":"E3","midi":52,"time":52.81874999999984,"velocity":0.4645669291338583,"duration":0.20520833333333144},{"name":"E2","midi":40,"time":52.823958333333174,"velocity":0.47244094488188976,"duration":0.1510416666666643},{"name":"B2","midi":47,"time":52.993749999999835,"velocity":0.4251968503937008,"duration":0.0520833333333357},{"name":"A2","midi":45,"time":53.27499999999984,"velocity":0.5590551181102362,"duration":0.13437499999999858},{"name":"A3","midi":57,"time":53.277083333333174,"velocity":0.5196850393700787,"duration":0.18645833333333428},{"name":"B3","midi":59,"time":53.292708333333174,"velocity":0.4015748031496063,"duration":0.19166666666666998},{"name":"E3","midi":52,"time":53.45729166666651,"velocity":0.2440944881889764,"duration":0.03541666666666998},{"name":"B5","midi":83,"time":53.511458333333174,"velocity":0.6614173228346457,"duration":0.06562500000000426},{"name":"B4","midi":71,"time":53.52499999999984,"velocity":0.33858267716535434,"duration":0.026041666666671404},{"name":"E5","midi":76,"time":53.53020833333318,"velocity":0.5669291338582677,"duration":0.0364583333333357},{"name":"B4","midi":71,"time":53.72187499999985,"velocity":0.4251968503937008,"duration":0.07083333333333286},{"name":"B3","midi":59,"time":53.77916666666651,"velocity":0.15748031496062992,"duration":0.09375},{"name":"A3","midi":57,"time":53.78645833333318,"velocity":0.29133858267716534,"duration":0.16250000000000142},{"name":"G#5","midi":80,"time":53.97812499999985,"velocity":0.7165354330708661,"duration":0.6343749999999844},{"name":"G#4","midi":68,"time":53.99166666666652,"velocity":0.6456692913385826,"duration":0.7041666666666515},{"name":"E5","midi":76,"time":53.99374999999985,"velocity":0.6141732283464567,"duration":0.6499999999999844},{"name":"E1","midi":28,"time":54.20520833333317,"velocity":0.6220472440944882,"duration":0.15729166666666572},{"name":"E2","midi":40,"time":54.206249999999834,"velocity":0.47244094488188976,"duration":0.23333333333333428},{"name":"B1","midi":35,"time":54.679166666666504,"velocity":0.48031496062992124,"duration":0.1614583333333357},{"name":"B2","midi":47,"time":54.681249999999835,"velocity":0.5196850393700787,"duration":0.2291666666666714},{"name":"E2","midi":40,"time":54.85937499999984,"velocity":0.4015748031496063,"duration":0.03854166666666714},{"name":"E3","midi":52,"time":55.14166666666651,"velocity":0.4251968503937008,"duration":0.22812500000000568},{"name":"E2","midi":40,"time":55.14479166666651,"velocity":0.4330708661417323,"duration":0.13854166666666856},{"name":"E5","midi":76,"time":55.349999999999845,"velocity":0.6220472440944882,"duration":0.07499999999999574},{"name":"B2","midi":47,"time":55.35624999999985,"velocity":0.1889763779527559,"duration":0.013541666666668561},{"name":"C#5","midi":73,"time":55.35833333333318,"velocity":0.6299212598425197,"duration":0.06458333333333144},{"name":"E4","midi":64,"time":55.363541666666514,"velocity":0.4566929133858268,"duration":0.03333333333333144},{"name":"B3","midi":59,"time":55.57291666666651,"velocity":0.5354330708661418,"duration":0.0416666666666643},{"name":"B2","midi":47,"time":55.616666666666504,"velocity":0.2992125984251969,"duration":0.1614583333333357},{"name":"C#5","midi":73,"time":55.804166666666504,"velocity":0.7637795275590551,"duration":1.1739583333333314},{"name":"A4","midi":69,"time":55.8135416666665,"velocity":0.5590551181102362,"duration":1.0885416666666643},{"name":"C#4","midi":61,"time":55.815624999999834,"velocity":0.6299212598425197,"duration":1.05833333333333},{"name":"F#1","midi":30,"time":56.02812499999984,"velocity":0.6299212598425197,"duration":0.0833333333333286},{"name":"F#2","midi":42,"time":56.03437499999984,"velocity":0.5275590551181102,"duration":0.07708333333332718},{"name":"G#2","midi":44,"time":56.2635416666665,"velocity":0.3464566929133858,"duration":0.0416666666666643},{"name":"G#1","midi":32,"time":56.2791666666665,"velocity":0.16535433070866143,"duration":0.08749999999999858},{"name":"A2","midi":45,"time":56.4916666666665,"velocity":0.4094488188976378,"duration":0.04479166666666856},{"name":"A1","midi":33,"time":56.49270833333316,"velocity":0.3858267716535433,"duration":0.04479166666666856},{"name":"B2","midi":47,"time":56.7104166666665,"velocity":0.4409448818897638,"duration":0.04583333333333428},{"name":"B1","midi":35,"time":56.72812499999983,"velocity":0.36220472440944884,"duration":0.012500000000002842},{"name":"C#3","midi":49,"time":56.9229166666665,"velocity":0.7165354330708661,"duration":0.04270833333333002},{"name":"C#2","midi":37,"time":56.956249999999834,"velocity":0.4330708661417323,"duration":0.027083333333337123},{"name":"D3","midi":50,"time":57.15937499999984,"velocity":0.29133858267716534,"duration":0.03125},{"name":"D2","midi":38,"time":57.198958333333174,"velocity":0.2992125984251969,"duration":0.0364583333333357},{"name":"A5","midi":81,"time":57.37187499999984,"velocity":0.7322834645669292,"duration":0.06979166666666714},{"name":"E3","midi":52,"time":57.372916666666505,"velocity":0.5196850393700787,"duration":0.03958333333333286},{"name":"C#5","midi":73,"time":57.38749999999984,"velocity":0.5590551181102362,"duration":0.03333333333333144},{"name":"A4","midi":69,"time":57.39062499999984,"velocity":0.49606299212598426,"duration":0.015625},{"name":"E2","midi":40,"time":57.40208333333317,"velocity":0.36220472440944884,"duration":0.008333333333339965},{"name":"F#3","midi":54,"time":57.59270833333317,"velocity":0.6377952755905512,"duration":0.03229166666666572},{"name":"F#2","midi":42,"time":57.63020833333317,"velocity":0.2125984251968504,"duration":0.05416666666666714},{"name":"F#5","midi":78,"time":57.85624999999983,"velocity":0.7401574803149606,"duration":0.20520833333332433},{"name":"D5","midi":74,"time":57.86770833333317,"velocity":0.5984251968503937,"duration":0.17083333333332007},{"name":"F#4","midi":66,"time":57.868749999999835,"velocity":0.6535433070866141,"duration":0.1666666666666572},{"name":"D3","midi":50,"time":57.872916666666505,"velocity":0.5590551181102362,"duration":1.1468749999999872},{"name":"D2","midi":38,"time":57.8760416666665,"velocity":0.5669291338582677,"duration":1.19062499999999},{"name":"A2","midi":45,"time":57.878124999999834,"velocity":0.4409448818897638,"duration":1.2437499999999915},{"name":"E5","midi":76,"time":58.20312499999982,"velocity":0.6220472440944882,"duration":0.07500000000000284},{"name":"C#5","midi":73,"time":58.209374999999824,"velocity":0.5984251968503937,"duration":0.09062499999999574},{"name":"E4","midi":64,"time":58.211458333333155,"velocity":0.5354330708661418,"duration":0.06875000000000142},{"name":"D4","midi":62,"time":58.551041666666485,"velocity":0.4881889763779528,"duration":0.046874999999992895},{"name":"D5","midi":74,"time":58.55312499999982,"velocity":0.5984251968503937,"duration":0.05833333333333002},{"name":"B4","midi":71,"time":58.55520833333315,"velocity":0.5905511811023622,"duration":0.07916666666666572},{"name":"D5","midi":74,"time":58.78749999999982,"velocity":0.6929133858267716,"duration":0.11354166666666998},{"name":"D4","midi":62,"time":58.79583333333315,"velocity":0.6377952755905512,"duration":0.06979166666666714},{"name":"B4","midi":71,"time":58.80416666666648,"velocity":0.5905511811023622,"duration":0.1562500000000071},{"name":"C#5","midi":73,"time":59.22812499999983,"velocity":0.6614173228346457,"duration":0.09791666666667709},{"name":"A4","midi":69,"time":59.24062499999983,"velocity":0.47244094488188976,"duration":0.03541666666666998},{"name":"C#4","midi":61,"time":59.24583333333317,"velocity":0.4566929133858268,"duration":0.04375000000000284},{"name":"A4","midi":69,"time":59.470833333333175,"velocity":0.5826771653543307,"duration":1.3041666666666671},{"name":"C#4","midi":61,"time":59.49479166666651,"velocity":0.5196850393700787,"duration":0.12291666666666856},{"name":"A3","midi":57,"time":59.499999999999844,"velocity":0.4409448818897638,"duration":1.1947916666666671},{"name":"A1","midi":33,"time":59.71041666666651,"velocity":0.5826771653543307,"duration":0.3583333333333343},{"name":"A2","midi":45,"time":60.17708333333318,"velocity":0.2755905511811024,"duration":0.02291666666666714},{"name":"A2","midi":45,"time":60.624999999999844,"velocity":0.31496062992125984,"duration":0.44479166666666714},{"name":"E3","midi":52,"time":61.11770833333318,"velocity":0.29133858267716534,"duration":0.5770833333333272},{"name":"F#4","midi":66,"time":61.58229166666651,"velocity":0.5196850393700787,"duration":0.24791666666666146},{"name":"B4","midi":71,"time":61.58437499999984,"velocity":0.4881889763779528,"duration":0.20624999999999716},{"name":"B3","midi":59,"time":61.59062499999984,"velocity":0.4015748031496063,"duration":0.11770833333333286},{"name":"E2","midi":40,"time":61.595833333333175,"velocity":0.3464566929133858,"duration":0.4541666666666586},{"name":"F#5","midi":78,"time":62.0822916666665,"velocity":0.5669291338582677,"duration":0.5291666666666686},{"name":"E3","midi":52,"time":62.0885416666665,"velocity":0.25196850393700787,"duration":0.05833333333333002},{"name":"B4","midi":71,"time":62.11562499999983,"velocity":0.36220472440944884,"duration":0.4989583333333343},{"name":"F#4","midi":66,"time":62.1822916666665,"velocity":0.1732283464566929,"duration":0.50312499999999},{"name":"E3","midi":52,"time":62.61770833333316,"velocity":0.18110236220472442,"duration":0.48020833333333},{"name":"B3","midi":59,"time":63.10729166666649,"velocity":0.1889763779527559,"duration":0.02499999999999858},{"name":"F#3","midi":54,"time":63.570833333333155,"velocity":0.4094488188976378,"duration":0.06666666666666288},{"name":"F#4","midi":66,"time":63.59895833333316,"velocity":0.47244094488188976,"duration":0.11041666666665861},{"name":"E4","midi":64,"time":63.602083333333155,"velocity":0.29133858267716534,"duration":0.07708333333332718},{"name":"C#4","midi":61,"time":63.617708333333155,"velocity":0.09448818897637795,"duration":0.056249999999991473},{"name":"F#2","midi":42,"time":63.62604166666649,"velocity":0.30708661417322836,"duration":0.4593750000000014},{"name":"F#4","midi":66,"time":63.87395833333315,"velocity":0.3464566929133858,"duration":0.9406250000000114},{"name":"C#5","midi":73,"time":63.88229166666648,"velocity":0.4094488188976378,"duration":3.7885416666666814},{"name":"C#4","midi":61,"time":63.88958333333315,"velocity":0.2125984251968504,"duration":0.9395833333333456},{"name":"E4","midi":64,"time":63.90937499999982,"velocity":0.2204724409448819,"duration":0.8270833333333414},{"name":"E3","midi":52,"time":64.16666666666649,"velocity":0.18110236220472442,"duration":0.01666666666666572},{"name":"A3","midi":57,"time":64.74687499999983,"velocity":0.23622047244094488,"duration":0.10833333333333428},{"name":"F#3","midi":54,"time":64.76458333333316,"velocity":0.2204724409448819,"duration":0.12291666666666856},{"name":"E3","midi":52,"time":64.77187499999982,"velocity":0.1889763779527559,"duration":0.08541666666667425},{"name":"A3","midi":57,"time":66.0916666666665,"velocity":0.14960629921259844,"duration":1.4281249999999943},{"name":"D4","midi":62,"time":66.0916666666665,"velocity":0.23622047244094488,"duration":1.3406250000000028},{"name":"E3","midi":52,"time":66.1104166666665,"velocity":0.16535433070866143,"duration":1.4239583333333314},{"name":"D3","midi":50,"time":66.13333333333317,"velocity":0.13385826771653545,"duration":1.3687499999999915},{"name":"A5","midi":81,"time":68.91354166666649,"velocity":0.4881889763779528,"duration":2.4166666666666714},{"name":"E4","midi":64,"time":68.92604166666649,"velocity":0.1968503937007874,"duration":2.489583333333343},{"name":"G#5","midi":80,"time":71.32812499999983,"velocity":0.47244094488188976,"duration":2.292708333333337},{"name":"A3","midi":57,"time":71.3572916666665,"velocity":0.2125984251968504,"duration":2.292708333333337},{"name":"F#3","midi":54,"time":73.5416666666665,"velocity":0.2440944881889764,"duration":2.503124999999997},{"name":"E5","midi":76,"time":73.57499999999983,"velocity":0.2755905511811024,"duration":2.378124999999997},{"name":"E5","midi":76,"time":78.38020833333316,"velocity":0.4094488188976378,"duration":2.0395833333333258},{"name":"A3","midi":57,"time":78.41562499999982,"velocity":0.1732283464566929,"duration":1.3395833333333371},{"name":"D5","midi":74,"time":80.38229166666649,"velocity":0.48031496062992124,"duration":1.0979166666666487},{"name":"B3","midi":59,"time":80.41041666666649,"velocity":0.23622047244094488,"duration":1.7479166666666401},{"name":"A3","midi":57,"time":80.41458333333316,"velocity":0.2204724409448819,"duration":1.0833333333333144},{"name":"C#5","midi":73,"time":82.43333333333314,"velocity":0.5748031496062992,"duration":0.8312499999999687},{"name":"B3","midi":59,"time":82.44895833333314,"velocity":0.3228346456692913,"duration":1.5927083333333059},{"name":"A3","midi":57,"time":82.51979166666645,"velocity":0.2204724409448819,"duration":1.1906249999999972},{"name":"C#4","midi":61,"time":82.52083333333312,"velocity":0.2440944881889764,"duration":1.5489583333333314},{"name":"E5","midi":76,"time":82.84479166666644,"velocity":0.49606299212598426,"duration":0.46041666666667425},{"name":"F#5","midi":78,"time":83.21666666666644,"velocity":0.5905511811023622,"duration":2.9760416666666316},{"name":"C#5","midi":73,"time":83.53854166666645,"velocity":0.5196850393700787,"duration":1.41249999999998},{"name":"D4","midi":62,"time":84.68854166666645,"velocity":0.23622047244094488,"duration":1.5416666666666146},{"name":"C#4","midi":61,"time":84.69687499999978,"velocity":0.2440944881889764,"duration":1.6333333333332831},{"name":"A3","midi":57,"time":84.69999999999978,"velocity":0.1732283464566929,"duration":1.3427083333333059},{"name":"B3","midi":59,"time":84.7052083333331,"velocity":0.25984251968503935,"duration":1.4697916666666373},{"name":"D5","midi":74,"time":84.71979166666644,"velocity":0.29133858267716534,"duration":1.5895833333332945},{"name":"A4","midi":69,"time":84.72291666666644,"velocity":0.1889763779527559,"duration":1.4739583333333002},{"name":"A5","midi":81,"time":87.47916666666639,"velocity":0.5433070866141733,"duration":1.2072916666666345},{"name":"A3","midi":57,"time":87.50208333333305,"velocity":0.2047244094488189,"duration":1.20937499999998},{"name":"B4","midi":71,"time":87.51249999999972,"velocity":0.36220472440944884,"duration":1.2124999999999773},{"name":"C#4","midi":61,"time":87.51770833333305,"velocity":0.2755905511811024,"duration":1.3072916666666572},{"name":"B3","midi":59,"time":87.52395833333304,"velocity":0.28346456692913385,"duration":1.28854166666666},{"name":"A4","midi":69,"time":87.52708333333304,"velocity":0.2204724409448819,"duration":1.2135416666666572},{"name":"E4","midi":64,"time":87.52708333333304,"velocity":0.23622047244094488,"duration":1.4020833333333371},{"name":"E4","midi":64,"time":89.53749999999971,"velocity":0.1968503937007874,"duration":1.3093749999999744},{"name":"G#3","midi":56,"time":89.54791666666638,"velocity":0.3464566929133858,"duration":1.3989583333332973},{"name":"G#5","midi":80,"time":89.55729166666637,"velocity":0.5984251968503937,"duration":0.48333333333332007},{"name":"F#4","midi":66,"time":89.56458333333303,"velocity":0.25984251968503935,"duration":1.4177083333333087},{"name":"B3","midi":59,"time":89.57604166666637,"velocity":0.3464566929133858,"duration":1.4406249999999687},{"name":"G#4","midi":68,"time":89.59270833333304,"velocity":0.2992125984251969,"duration":1.299999999999983},{"name":"B4","midi":71,"time":89.59583333333303,"velocity":0.3779527559055118,"duration":0.33124999999999716},{"name":"C#6","midi":85,"time":90.65729166666635,"velocity":0.6299212598425197,"duration":0.42499999999998295},{"name":"A5","midi":81,"time":90.68645833333302,"velocity":0.4409448818897638,"duration":0.4427083333333144},{"name":"C#5","midi":73,"time":90.70729166666635,"velocity":0.36220472440944884,"duration":0.3531249999999915},{"name":"F#4","midi":66,"time":91.79687499999967,"velocity":0.31496062992125984,"duration":0.3416666666665975},{"name":"C#6","midi":85,"time":91.802083333333,"velocity":0.6220472440944882,"duration":0.3052083333332547},{"name":"F#3","midi":54,"time":91.80416666666633,"velocity":0.3779527559055118,"duration":3.2104166666666174},{"name":"A5","midi":81,"time":91.808333333333,"velocity":0.5275590551181102,"duration":0.3208333333332689},{"name":"D#5","midi":75,"time":91.81562499999966,"velocity":0.5196850393700787,"duration":0.2937499999999318},{"name":"D#4","midi":63,"time":91.82187499999965,"velocity":0.4251968503937008,"duration":0.1843749999999602},{"name":"C#5","midi":73,"time":91.82187499999965,"velocity":0.48031496062992124,"duration":0.29687499999994316},{"name":"A3","midi":57,"time":91.85312499999964,"velocity":0.36220472440944884,"duration":3.20104166666664},{"name":"B3","midi":59,"time":91.8572916666663,"velocity":0.31496062992125984,"duration":3.213541666666643},{"name":"F#5","midi":78,"time":92.60104166666628,"velocity":0.5118110236220472,"duration":2.3885416666666686},{"name":"G#4","midi":68,"time":92.62499999999962,"velocity":0.3937007874015748,"duration":2.394791666666663},{"name":"F#4","midi":66,"time":92.62708333333295,"velocity":0.36220472440944884,"duration":2.4197916666666686},{"name":"C#4","midi":61,"time":92.62916666666628,"velocity":0.29133858267716534,"duration":2.4083333333333314},{"name":"E5","midi":76,"time":96.52187499999961,"velocity":0.44881889763779526,"duration":2.1145833333333286},{"name":"E4","midi":64,"time":96.52916666666627,"velocity":0.2677165354330709,"duration":3.0333333333333314},{"name":"A3","midi":57,"time":96.54270833333294,"velocity":0.1889763779527559,"duration":4.197916666666615},{"name":"D5","midi":74,"time":98.59270833333294,"velocity":0.3937007874015748,"duration":0.9874999999999972},{"name":"C#5","midi":73,"time":100.6593749999996,"velocity":0.47244094488188976,"duration":2.1520833333333087},{"name":"C#4","midi":61,"time":100.66666666666626,"velocity":0.3543307086614173,"duration":3.7499999999999716},{"name":"E3","midi":52,"time":100.69166666666625,"velocity":0.1889763779527559,"duration":3.604166666666643},{"name":"B2","midi":47,"time":100.69583333333291,"velocity":0.11811023622047244,"duration":3.68645833333332},{"name":"B4","midi":71,"time":102.7864583333329,"velocity":0.2992125984251969,"duration":1.41354166666666}],"controlChanges":{"64":[{"number":64,"time":37.2125,"value":0.10236220472440945},{"number":64,"time":37.213541666666664,"value":0.10236220472440945},{"number":64,"time":37.22083333333333,"value":0.2047244094488189},{"number":64,"time":37.22083333333333,"value":0.2047244094488189},{"number":64,"time":37.240625,"value":0.3543307086614173},{"number":64,"time":37.24166666666667,"value":0.3543307086614173},{"number":64,"time":37.284375,"value":0.47244094488188976},{"number":64,"time":37.28541666666666,"value":0.47244094488188976},{"number":64,"time":37.31249999999999,"value":0.5039370078740157},{"number":64,"time":37.31354166666666,"value":0.5039370078740157},{"number":64,"time":37.332291666666656,"value":0.5354330708661418},{"number":64,"time":37.33333333333332,"value":0.5354330708661418},{"number":64,"time":37.36874999999999,"value":0.5748031496062992},{"number":64,"time":37.36874999999999,"value":0.5748031496062992},{"number":64,"time":37.408333333333324,"value":0.6062992125984252},{"number":64,"time":37.408333333333324,"value":0.6062992125984252},{"number":64,"time":37.472916666666656,"value":0.6377952755905512},{"number":64,"time":37.472916666666656,"value":0.6377952755905512},{"number":64,"time":37.60416666666666,"value":0.7322834645669292},{"number":64,"time":37.60520833333332,"value":0.7322834645669292},{"number":64,"time":38.63645833333333,"value":0.6535433070866141},{"number":64,"time":38.637499999999996,"value":0.6535433070866141},{"number":64,"time":38.684374999999996,"value":0.6220472440944882},{"number":64,"time":38.68541666666666,"value":0.6220472440944882},{"number":64,"time":38.71979166666666,"value":0.5905511811023622},{"number":64,"time":38.720833333333324,"value":0.5905511811023622},{"number":64,"time":38.75104166666666,"value":0.5590551181102362},{"number":64,"time":38.75104166666666,"value":0.5590551181102362},{"number":64,"time":38.77604166666666,"value":0.5275590551181102},{"number":64,"time":38.77708333333332,"value":0.5275590551181102},{"number":64,"time":38.79999999999999,"value":0.49606299212598426},{"number":64,"time":38.801041666666656,"value":0.49606299212598426},{"number":64,"time":38.859374999999986,"value":0.4015748031496063},{"number":64,"time":38.86041666666665,"value":0.4015748031496063},{"number":64,"time":38.89166666666665,"value":0.2992125984251969},{"number":64,"time":38.89270833333332,"value":0.2992125984251969},{"number":64,"time":38.915624999999984,"value":0.2047244094488189},{"number":64,"time":38.91666666666665,"value":0.2047244094488189},{"number":64,"time":38.94791666666665,"value":0.10236220472440945},{"number":64,"time":38.948958333333316,"value":0.10236220472440945},{"number":64,"time":38.97916666666665,"value":0},{"number":64,"time":38.980208333333316,"value":0},{"number":64,"time":39.29166666666665,"value":0.12598425196850394},{"number":64,"time":39.292708333333316,"value":0.12598425196850394},{"number":64,"time":39.29895833333332,"value":0.2283464566929134},{"number":64,"time":39.29999999999998,"value":0.2283464566929134},{"number":64,"time":39.31145833333331,"value":0.3543307086614173},{"number":64,"time":39.31249999999998,"value":0.3543307086614173},{"number":64,"time":39.33958333333331,"value":0.47244094488188976},{"number":64,"time":39.33958333333331,"value":0.47244094488188976},{"number":64,"time":39.403124999999974,"value":0.5039370078740157},{"number":64,"time":39.40416666666664,"value":0.5039370078740157},{"number":64,"time":39.43229166666664,"value":0.5354330708661418},{"number":64,"time":39.43333333333331,"value":0.5354330708661418},{"number":64,"time":39.46354166666664,"value":0.5669291338582677},{"number":64,"time":39.46354166666664,"value":0.5669291338582677},{"number":64,"time":39.518749999999976,"value":0.5984251968503937},{"number":64,"time":39.51979166666664,"value":0.5984251968503937},{"number":64,"time":39.56770833333331,"value":0.6299212598425197},{"number":64,"time":39.56770833333331,"value":0.6299212598425197},{"number":64,"time":39.80729166666664,"value":0.7322834645669292},{"number":64,"time":39.80833333333331,"value":0.7322834645669292},{"number":64,"time":40.68229166666665,"value":0.6535433070866141},{"number":64,"time":40.683333333333316,"value":0.6535433070866141},{"number":64,"time":40.71354166666665,"value":0.6220472440944882},{"number":64,"time":40.714583333333316,"value":0.6220472440944882},{"number":64,"time":40.745833333333316,"value":0.5905511811023622},{"number":64,"time":40.74687499999998,"value":0.5905511811023622},{"number":64,"time":40.77395833333331,"value":0.5511811023622047},{"number":64,"time":40.77395833333331,"value":0.5511811023622047},{"number":64,"time":40.793749999999974,"value":0.5118110236220472},{"number":64,"time":40.79479166666664,"value":0.5118110236220472},{"number":64,"time":40.81041666666664,"value":0.48031496062992124},{"number":64,"time":40.811458333333306,"value":0.48031496062992124},{"number":64,"time":40.84166666666664,"value":0.3779527559055118},{"number":64,"time":40.842708333333306,"value":0.3779527559055118},{"number":64,"time":40.88645833333331,"value":0.2755905511811024},{"number":64,"time":40.88645833333331,"value":0.2755905511811024},{"number":64,"time":40.91458333333331,"value":0.18110236220472442},{"number":64,"time":40.91458333333331,"value":0.18110236220472442},{"number":64,"time":40.93020833333331,"value":0.07874015748031496},{"number":64,"time":40.93124999999998,"value":0.07874015748031496},{"number":64,"time":40.94583333333331,"value":0},{"number":64,"time":40.94687499999998,"value":0},{"number":64,"time":41.24583333333331,"value":0.12598425196850394},{"number":64,"time":41.246874999999974,"value":0.12598425196850394},{"number":64,"time":41.25416666666664,"value":0.2283464566929134},{"number":64,"time":41.25520833333331,"value":0.2283464566929134},{"number":64,"time":41.262499999999974,"value":0.33070866141732286},{"number":64,"time":41.262499999999974,"value":0.33070866141732286},{"number":64,"time":41.278124999999974,"value":0.44881889763779526},{"number":64,"time":41.278124999999974,"value":0.44881889763779526},{"number":64,"time":41.28645833333331,"value":0.48031496062992124},{"number":64,"time":41.28645833333331,"value":0.48031496062992124},{"number":64,"time":41.33020833333331,"value":0.5118110236220472},{"number":64,"time":41.331249999999976,"value":0.5118110236220472},{"number":64,"time":41.36979166666664,"value":0.5433070866141733},{"number":64,"time":41.37083333333331,"value":0.5433070866141733},{"number":64,"time":41.39270833333331,"value":0.5748031496062992},{"number":64,"time":41.393749999999976,"value":0.5748031496062992},{"number":64,"time":41.429166666666646,"value":0.6062992125984252},{"number":64,"time":41.43020833333331,"value":0.6062992125984252},{"number":64,"time":41.53020833333331,"value":0.6377952755905512},{"number":64,"time":41.53124999999998,"value":0.6377952755905512},{"number":64,"time":42.59270833333331,"value":0.6062992125984252},{"number":64,"time":42.59374999999998,"value":0.6062992125984252},{"number":64,"time":42.65312499999998,"value":0.5748031496062992},{"number":64,"time":42.65416666666665,"value":0.5748031496062992},{"number":64,"time":42.672916666666644,"value":0.5433070866141733},{"number":64,"time":42.672916666666644,"value":0.5433070866141733},{"number":64,"time":42.688541666666644,"value":0.5118110236220472},{"number":64,"time":42.68958333333331,"value":0.5118110236220472},{"number":64,"time":42.70937499999998,"value":0.48031496062992124},{"number":64,"time":42.70937499999998,"value":0.48031496062992124},{"number":64,"time":42.74479166666665,"value":0.3779527559055118},{"number":64,"time":42.745833333333316,"value":0.3779527559055118},{"number":64,"time":42.777083333333316,"value":0.2755905511811024},{"number":64,"time":42.777083333333316,"value":0.2755905511811024},{"number":64,"time":42.80520833333332,"value":0.18110236220472442},{"number":64,"time":42.806249999999984,"value":0.18110236220472442},{"number":64,"time":42.82083333333332,"value":0.07874015748031496},{"number":64,"time":42.821874999999984,"value":0.07874015748031496},{"number":64,"time":42.84062499999998,"value":0},{"number":64,"time":42.84166666666665,"value":0},{"number":64,"time":43.21354166666665,"value":0.12598425196850394},{"number":64,"time":43.21354166666665,"value":0.12598425196850394},{"number":64,"time":43.22083333333332,"value":0.2283464566929134},{"number":64,"time":43.22187499999998,"value":0.2283464566929134},{"number":64,"time":43.23333333333331,"value":0.3543307086614173},{"number":64,"time":43.23437499999998,"value":0.3543307086614173},{"number":64,"time":43.257291666666646,"value":0.48031496062992124},{"number":64,"time":43.25833333333331,"value":0.48031496062992124},{"number":64,"time":43.313541666666644,"value":0.5118110236220472},{"number":64,"time":43.313541666666644,"value":0.5118110236220472},{"number":64,"time":43.35312499999998,"value":0.5511811023622047},{"number":64,"time":43.35416666666664,"value":0.5511811023622047},{"number":64,"time":43.39270833333331,"value":0.5826771653543307},{"number":64,"time":43.393749999999976,"value":0.5826771653543307},{"number":64,"time":43.45312499999998,"value":0.6141732283464567},{"number":64,"time":43.454166666666644,"value":0.6141732283464567},{"number":64,"time":43.54895833333332,"value":0.6456692913385826},{"number":64,"time":43.54999999999998,"value":0.6456692913385826},{"number":64,"time":44.50416666666664,"value":0.6141732283464567},{"number":64,"time":44.50520833333331,"value":0.6141732283464567},{"number":64,"time":44.54062499999998,"value":0.5826771653543307},{"number":64,"time":44.54166666666664,"value":0.5826771653543307},{"number":64,"time":44.55729166666664,"value":0.5511811023622047},{"number":64,"time":44.55833333333331,"value":0.5511811023622047},{"number":64,"time":44.56979166666664,"value":0.5196850393700787},{"number":64,"time":44.570833333333304,"value":0.5196850393700787},{"number":64,"time":44.5802083333333,"value":0.48031496062992124},{"number":64,"time":44.58124999999997,"value":0.48031496062992124},{"number":64,"time":44.5958333333333,"value":0.3543307086614173},{"number":64,"time":44.59687499999997,"value":0.3543307086614173},{"number":64,"time":44.6208333333333,"value":0.25196850393700787},{"number":64,"time":44.62187499999997,"value":0.25196850393700787},{"number":64,"time":44.644791666666634,"value":0.12598425196850394},{"number":64,"time":44.644791666666634,"value":0.12598425196850394},{"number":64,"time":44.660416666666634,"value":0.031496062992125984},{"number":64,"time":44.6614583333333,"value":0.031496062992125984},{"number":64,"time":44.66562499999997,"value":0},{"number":64,"time":44.66562499999997,"value":0},{"number":64,"time":44.87604166666664,"value":0.14960629921259844},{"number":64,"time":44.8770833333333,"value":0.14960629921259844},{"number":64,"time":44.88437499999997,"value":0.2755905511811024},{"number":64,"time":44.885416666666636,"value":0.2755905511811024},{"number":64,"time":44.89166666666664,"value":0.3779527559055118},{"number":64,"time":44.8927083333333,"value":0.3779527559055118},{"number":64,"time":44.90416666666663,"value":0.48031496062992124},{"number":64,"time":44.9052083333333,"value":0.48031496062992124},{"number":64,"time":44.91562499999996,"value":0.5118110236220472},{"number":64,"time":44.91666666666663,"value":0.5118110236220472},{"number":64,"time":44.98749999999996,"value":0.5433070866141733},{"number":64,"time":44.98854166666663,"value":0.5433070866141733},{"number":64,"time":45.03541666666663,"value":0.5748031496062992},{"number":64,"time":45.03645833333329,"value":0.5748031496062992},{"number":64,"time":45.14166666666663,"value":0.6062992125984252},{"number":64,"time":45.142708333333296,"value":0.6062992125984252},{"number":64,"time":46.48020833333327,"value":0.5748031496062992},{"number":64,"time":46.48124999999994,"value":0.5748031496062992},{"number":64,"time":46.509374999999935,"value":0.5433070866141733},{"number":64,"time":46.509374999999935,"value":0.5433070866141733},{"number":64,"time":46.53020833333327,"value":0.5118110236220472},{"number":64,"time":46.531249999999936,"value":0.5118110236220472},{"number":64,"time":46.54374999999994,"value":0.48031496062992124},{"number":64,"time":46.544791666666605,"value":0.48031496062992124},{"number":64,"time":46.571874999999935,"value":0.3543307086614173},{"number":64,"time":46.5729166666666,"value":0.3543307086614173},{"number":64,"time":46.59583333333327,"value":0.25196850393700787},{"number":64,"time":46.59687499999993,"value":0.25196850393700787},{"number":64,"time":46.61145833333327,"value":0.14960629921259844},{"number":64,"time":46.61249999999993,"value":0.14960629921259844},{"number":64,"time":46.62395833333326,"value":0.05511811023622047},{"number":64,"time":46.62499999999993,"value":0.05511811023622047},{"number":64,"time":46.632291666666596,"value":0},{"number":64,"time":46.63333333333326,"value":0},{"number":64,"time":46.82812499999993,"value":0.12598425196850394},{"number":64,"time":46.829166666666595,"value":0.12598425196850394},{"number":64,"time":46.835416666666596,"value":0.25196850393700787},{"number":64,"time":46.83645833333326,"value":0.25196850393700787},{"number":64,"time":46.84374999999993,"value":0.3543307086614173},{"number":64,"time":46.844791666666595,"value":0.3543307086614173},{"number":64,"time":46.856249999999925,"value":0.47244094488188976},{"number":64,"time":46.85729166666659,"value":0.47244094488188976},{"number":64,"time":46.867708333333255,"value":0.5118110236220472},{"number":64,"time":46.867708333333255,"value":0.5118110236220472},{"number":64,"time":46.920833333333256,"value":0.5433070866141733},{"number":64,"time":46.920833333333256,"value":0.5433070866141733},{"number":64,"time":46.967708333333256,"value":0.5748031496062992},{"number":64,"time":46.96874999999992,"value":0.5748031496062992},{"number":64,"time":47.035416666666585,"value":0.6062992125984252},{"number":64,"time":47.03645833333325,"value":0.6062992125984252},{"number":64,"time":48.422916666666566,"value":0.5748031496062992},{"number":64,"time":48.42395833333323,"value":0.5748031496062992},{"number":64,"time":48.45104166666656,"value":0.5433070866141733},{"number":64,"time":48.45208333333323,"value":0.5433070866141733},{"number":64,"time":48.46249999999989,"value":0.5118110236220472},{"number":64,"time":48.46354166666656,"value":0.5118110236220472},{"number":64,"time":48.470833333333225,"value":0.48031496062992124},{"number":64,"time":48.47187499999989,"value":0.48031496062992124},{"number":64,"time":48.486458333333225,"value":0.3779527559055118},{"number":64,"time":48.48749999999989,"value":0.3779527559055118},{"number":64,"time":48.50312499999989,"value":0.2755905511811024},{"number":64,"time":48.504166666666556,"value":0.2755905511811024},{"number":64,"time":48.51874999999989,"value":0.18110236220472442},{"number":64,"time":48.519791666666556,"value":0.18110236220472442},{"number":64,"time":48.535416666666556,"value":0.07874015748031496},{"number":64,"time":48.535416666666556,"value":0.07874015748031496},{"number":64,"time":48.546874999999886,"value":0},{"number":64,"time":48.54791666666655,"value":0},{"number":64,"time":48.75520833333322,"value":0.12598425196850394},{"number":64,"time":48.75520833333322,"value":0.12598425196850394},{"number":64,"time":48.76249999999989,"value":0.25196850393700787},{"number":64,"time":48.763541666666555,"value":0.25196850393700787},{"number":64,"time":48.77083333333322,"value":0.3543307086614173},{"number":64,"time":48.77187499999989,"value":0.3543307086614173},{"number":64,"time":48.78229166666655,"value":0.47244094488188976},{"number":64,"time":48.78333333333322,"value":0.47244094488188976},{"number":64,"time":48.79479166666655,"value":0.5039370078740157},{"number":64,"time":48.79583333333321,"value":0.5039370078740157},{"number":64,"time":48.85833333333321,"value":0.5354330708661418},{"number":64,"time":48.85937499999988,"value":0.5354330708661418},{"number":64,"time":48.898958333333205,"value":0.5669291338582677},{"number":64,"time":48.89999999999987,"value":0.5669291338582677},{"number":64,"time":49.37291666666654,"value":0.5984251968503937},{"number":64,"time":49.373958333333206,"value":0.5984251968503937},{"number":64,"time":50.36458333333321,"value":0.5669291338582677},{"number":64,"time":50.36458333333321,"value":0.5669291338582677},{"number":64,"time":50.38124999999987,"value":0.5354330708661418},{"number":64,"time":50.38229166666654,"value":0.5354330708661418},{"number":64,"time":50.39166666666654,"value":0.5039370078740157},{"number":64,"time":50.39166666666654,"value":0.5039370078740157},{"number":64,"time":50.39791666666654,"value":0.47244094488188976},{"number":64,"time":50.398958333333205,"value":0.47244094488188976},{"number":64,"time":50.410416666666535,"value":0.3779527559055118},{"number":64,"time":50.4114583333332,"value":0.3779527559055118},{"number":64,"time":50.421874999999865,"value":0.2755905511811024},{"number":64,"time":50.42291666666653,"value":0.2755905511811024},{"number":64,"time":50.43437499999986,"value":0.18110236220472442},{"number":64,"time":50.43541666666653,"value":0.18110236220472442},{"number":64,"time":50.44166666666653,"value":0.07874015748031496},{"number":64,"time":50.442708333333194,"value":0.07874015748031496},{"number":64,"time":50.44999999999986,"value":0},{"number":64,"time":50.45104166666653,"value":0},{"number":64,"time":50.661458333333194,"value":0.14960629921259844},{"number":64,"time":50.66249999999986,"value":0.14960629921259844},{"number":64,"time":50.66979166666653,"value":0.2755905511811024},{"number":64,"time":50.66979166666653,"value":0.2755905511811024},{"number":64,"time":50.677083333333194,"value":0.3779527559055118},{"number":64,"time":50.679166666666525,"value":0.3779527559055118},{"number":64,"time":50.68437499999986,"value":0.47244094488188976},{"number":64,"time":50.68541666666653,"value":0.47244094488188976},{"number":64,"time":50.69791666666653,"value":0.5039370078740157},{"number":64,"time":50.698958333333195,"value":0.5039370078740157},{"number":64,"time":50.76562499999986,"value":0.5354330708661418},{"number":64,"time":50.76562499999986,"value":0.5354330708661418},{"number":64,"time":50.80729166666652,"value":0.5669291338582677},{"number":64,"time":50.80833333333319,"value":0.5669291338582677},{"number":64,"time":50.92916666666652,"value":0.5984251968503937},{"number":64,"time":50.930208333333184,"value":0.5984251968503937},{"number":64,"time":52.23645833333318,"value":0.5669291338582677},{"number":64,"time":52.23645833333318,"value":0.5669291338582677},{"number":64,"time":52.248958333333185,"value":0.5196850393700787},{"number":64,"time":52.24999999999985,"value":0.5196850393700787},{"number":64,"time":52.25624999999985,"value":0.47244094488188976},{"number":64,"time":52.25729166666652,"value":0.47244094488188976},{"number":64,"time":52.264583333333185,"value":0.33070866141732286},{"number":64,"time":52.26562499999985,"value":0.33070866141732286},{"number":64,"time":52.27291666666652,"value":0.18110236220472442},{"number":64,"time":52.273958333333184,"value":0.18110236220472442},{"number":64,"time":52.27708333333318,"value":0.07874015748031496},{"number":64,"time":52.27708333333318,"value":0.07874015748031496},{"number":64,"time":52.28124999999985,"value":0},{"number":64,"time":52.28229166666652,"value":0},{"number":64,"time":52.44062499999985,"value":0.18110236220472442},{"number":64,"time":52.441666666666514,"value":0.18110236220472442},{"number":64,"time":52.44895833333318,"value":0.33070866141732286},{"number":64,"time":52.44895833333318,"value":0.33070866141732286},{"number":64,"time":52.45624999999985,"value":0.44881889763779526},{"number":64,"time":52.457291666666514,"value":0.44881889763779526},{"number":64,"time":52.46041666666651,"value":0.4881889763779528},{"number":64,"time":52.46145833333318,"value":0.4881889763779528},{"number":64,"time":52.468749999999844,"value":0.5196850393700787},{"number":64,"time":52.46979166666651,"value":0.5196850393700787},{"number":64,"time":52.48854166666651,"value":0.5511811023622047},{"number":64,"time":52.48854166666651,"value":0.5511811023622047},{"number":64,"time":52.560416666666505,"value":0.5826771653543307},{"number":64,"time":52.56145833333317,"value":0.5826771653543307},{"number":64,"time":52.61458333333317,"value":0.6141732283464567},{"number":64,"time":52.61562499999984,"value":0.6141732283464567},{"number":64,"time":54.00729166666652,"value":0.6456692913385826},{"number":64,"time":54.008333333333184,"value":0.6456692913385826},{"number":64,"time":54.09166666666652,"value":0.6141732283464567},{"number":64,"time":54.092708333333185,"value":0.6141732283464567},{"number":64,"time":54.10729166666652,"value":0.5748031496062992},{"number":64,"time":54.108333333333185,"value":0.5748031496062992},{"number":64,"time":54.119791666666515,"value":0.5354330708661418},{"number":64,"time":54.12083333333318,"value":0.5354330708661418},{"number":64,"time":54.12395833333318,"value":0.5039370078740157},{"number":64,"time":54.124999999999844,"value":0.5039370078740157},{"number":64,"time":54.13541666666651,"value":0.3779527559055118},{"number":64,"time":54.136458333333174,"value":0.3779527559055118},{"number":64,"time":54.14374999999984,"value":0.2755905511811024},{"number":64,"time":54.14479166666651,"value":0.2755905511811024},{"number":64,"time":54.15104166666651,"value":0.18110236220472442},{"number":64,"time":54.152083333333174,"value":0.18110236220472442},{"number":64,"time":54.163541666666504,"value":0.07874015748031496},{"number":64,"time":54.16458333333317,"value":0.07874015748031496},{"number":64,"time":54.174999999999834,"value":0},{"number":64,"time":54.1760416666665,"value":0},{"number":64,"time":54.2916666666665,"value":0.10236220472440945},{"number":64,"time":54.29270833333317,"value":0.10236220472440945},{"number":64,"time":54.299999999999834,"value":0.25196850393700787},{"number":64,"time":54.299999999999834,"value":0.25196850393700787},{"number":64,"time":54.3072916666665,"value":0.3779527559055118},{"number":64,"time":54.30833333333317,"value":0.3779527559055118},{"number":64,"time":54.315624999999834,"value":0.48031496062992124},{"number":64,"time":54.3166666666665,"value":0.48031496062992124},{"number":64,"time":54.32395833333317,"value":0.5196850393700787},{"number":64,"time":54.32395833333317,"value":0.5196850393700787},{"number":64,"time":54.35520833333317,"value":0.5511811023622047},{"number":64,"time":54.35624999999983,"value":0.5511811023622047},{"number":64,"time":54.42395833333317,"value":0.5826771653543307},{"number":64,"time":54.42395833333317,"value":0.5826771653543307},{"number":64,"time":54.45520833333317,"value":0.6141732283464567},{"number":64,"time":54.456249999999834,"value":0.6141732283464567},{"number":64,"time":54.54374999999983,"value":0.6456692913385826},{"number":64,"time":54.5447916666665,"value":0.6456692913385826},{"number":64,"time":55.91458333333317,"value":0.6141732283464567},{"number":64,"time":55.915624999999835,"value":0.6141732283464567},{"number":64,"time":55.9260416666665,"value":0.5748031496062992},{"number":64,"time":55.927083333333165,"value":0.5748031496062992},{"number":64,"time":55.93437499999983,"value":0.5354330708661418},{"number":64,"time":55.9354166666665,"value":0.5354330708661418},{"number":64,"time":55.93958333333317,"value":0.5039370078740157},{"number":64,"time":55.940624999999834,"value":0.5039370078740157},{"number":64,"time":55.944791666666504,"value":0.47244094488188976},{"number":64,"time":55.94583333333317,"value":0.47244094488188976},{"number":64,"time":55.951041666666505,"value":0.2992125984251969},{"number":64,"time":55.95208333333317,"value":0.2992125984251969},{"number":64,"time":55.95833333333317,"value":0.14960629921259844},{"number":64,"time":55.95937499999984,"value":0.14960629921259844},{"number":64,"time":55.966666666666505,"value":0.031496062992125984},{"number":64,"time":55.96770833333317,"value":0.031496062992125984},{"number":64,"time":55.97187499999984,"value":0},{"number":64,"time":55.97291666666651,"value":0},{"number":64,"time":56.07916666666651,"value":0.18110236220472442},{"number":64,"time":56.080208333333175,"value":0.18110236220472442},{"number":64,"time":56.091666666666505,"value":0.3543307086614173},{"number":64,"time":56.09270833333317,"value":0.3543307086614173},{"number":64,"time":56.09791666666651,"value":0.47244094488188976},{"number":64,"time":56.09895833333317,"value":0.47244094488188976},{"number":64,"time":56.10833333333317,"value":0.5039370078740157},{"number":64,"time":56.10937499999984,"value":0.5039370078740157},{"number":64,"time":56.1197916666665,"value":0.5354330708661418},{"number":64,"time":56.1197916666665,"value":0.5354330708661418},{"number":64,"time":56.14687499999983,"value":0.5669291338582677},{"number":64,"time":56.14687499999983,"value":0.5669291338582677},{"number":64,"time":56.2104166666665,"value":0.5984251968503937},{"number":64,"time":56.21145833333316,"value":0.5984251968503937},{"number":64,"time":57.82187499999984,"value":0.5590551181102362},{"number":64,"time":57.82291666666651,"value":0.5590551181102362},{"number":64,"time":57.830208333333175,"value":0.5118110236220472},{"number":64,"time":57.83124999999984,"value":0.5118110236220472},{"number":64,"time":57.83437499999984,"value":0.48031496062992124},{"number":64,"time":57.83437499999984,"value":0.48031496062992124},{"number":64,"time":57.84270833333317,"value":0.33070866141732286},{"number":64,"time":57.84374999999984,"value":0.33070866141732286},{"number":64,"time":57.846874999999834,"value":0.2283464566929134},{"number":64,"time":57.8479166666665,"value":0.2283464566929134},{"number":64,"time":57.85208333333317,"value":0.12598425196850394},{"number":64,"time":57.853124999999835,"value":0.12598425196850394},{"number":64,"time":57.8604166666665,"value":0.031496062992125984},{"number":64,"time":57.86145833333317,"value":0.031496062992125984},{"number":64,"time":57.866666666666504,"value":0},{"number":64,"time":57.86770833333317,"value":0},{"number":64,"time":57.9822916666665,"value":0.12598425196850394},{"number":64,"time":57.9822916666665,"value":0.12598425196850394},{"number":64,"time":57.99062499999983,"value":0.2755905511811024},{"number":64,"time":57.9916666666665,"value":0.2755905511811024},{"number":64,"time":57.9979166666665,"value":0.4251968503937008},{"number":64,"time":57.99999999999983,"value":0.4251968503937008},{"number":64,"time":58.00208333333316,"value":0.47244094488188976},{"number":64,"time":58.00312499999983,"value":0.47244094488188976},{"number":64,"time":58.010416666666494,"value":0.5039370078740157},{"number":64,"time":58.01145833333316,"value":0.5039370078740157},{"number":64,"time":58.026041666666494,"value":0.5354330708661418},{"number":64,"time":58.02708333333316,"value":0.5354330708661418},{"number":64,"time":58.090624999999825,"value":0.5669291338582677},{"number":64,"time":58.09166666666649,"value":0.5669291338582677},{"number":64,"time":58.283333333333154,"value":0.5984251968503937},{"number":64,"time":58.28437499999982,"value":0.5984251968503937},{"number":64,"time":59.66979166666651,"value":0.5669291338582677},{"number":64,"time":59.67083333333318,"value":0.5669291338582677},{"number":64,"time":59.67708333333318,"value":0.5354330708661418},{"number":64,"time":59.678124999999845,"value":0.5354330708661418},{"number":64,"time":59.68541666666651,"value":0.49606299212598426},{"number":64,"time":59.68645833333318,"value":0.49606299212598426},{"number":64,"time":59.69687499999984,"value":0.4015748031496063},{"number":64,"time":59.69791666666651,"value":0.4015748031496063},{"number":64,"time":59.71354166666651,"value":0.2992125984251969},{"number":64,"time":59.714583333333174,"value":0.2992125984251969},{"number":64,"time":59.781249999999844,"value":0.4015748031496063},{"number":64,"time":59.781249999999844,"value":0.4015748031496063},{"number":64,"time":59.79374999999985,"value":0.48031496062992124},{"number":64,"time":59.79374999999985,"value":0.48031496062992124},{"number":64,"time":59.80937499999985,"value":0.5196850393700787},{"number":64,"time":59.80937499999985,"value":0.5196850393700787},{"number":64,"time":59.83333333333318,"value":0.5511811023622047},{"number":64,"time":59.834374999999845,"value":0.5511811023622047},{"number":64,"time":59.869791666666515,"value":0.5826771653543307},{"number":64,"time":59.869791666666515,"value":0.5826771653543307},{"number":64,"time":59.89374999999985,"value":0.6141732283464567},{"number":64,"time":59.894791666666514,"value":0.6141732283464567},{"number":64,"time":61.51979166666651,"value":0.5826771653543307},{"number":64,"time":61.52083333333317,"value":0.5826771653543307},{"number":64,"time":61.53645833333317,"value":0.5433070866141733},{"number":64,"time":61.53645833333317,"value":0.5433070866141733},{"number":64,"time":61.544791666666505,"value":0.5118110236220472},{"number":64,"time":61.544791666666505,"value":0.5118110236220472},{"number":64,"time":61.55208333333317,"value":0.48031496062992124},{"number":64,"time":61.55208333333317,"value":0.48031496062992124},{"number":64,"time":61.56874999999984,"value":0.3779527559055118},{"number":64,"time":61.56874999999984,"value":0.3779527559055118},{"number":64,"time":61.652083333333174,"value":0.48031496062992124},{"number":64,"time":61.652083333333174,"value":0.48031496062992124},{"number":64,"time":61.66874999999984,"value":0.5196850393700787},{"number":64,"time":61.669791666666505,"value":0.5196850393700787},{"number":64,"time":61.68437499999984,"value":0.5511811023622047},{"number":64,"time":61.685416666666505,"value":0.5511811023622047},{"number":64,"time":61.71874999999984,"value":0.5826771653543307},{"number":64,"time":61.7197916666665,"value":0.5826771653543307},{"number":64,"time":61.7604166666665,"value":0.6141732283464567},{"number":64,"time":61.76145833333317,"value":0.6141732283464567},{"number":64,"time":63.383333333333155,"value":0.6456692913385826},{"number":64,"time":63.38437499999982,"value":0.6456692913385826},{"number":64,"time":63.48333333333316,"value":0.6141732283464567},{"number":64,"time":63.48437499999982,"value":0.6141732283464567},{"number":64,"time":63.51458333333316,"value":0.5826771653543307},{"number":64,"time":63.51562499999982,"value":0.5826771653543307},{"number":64,"time":63.53541666666649,"value":0.5511811023622047},{"number":64,"time":63.53645833333316,"value":0.5511811023622047},{"number":64,"time":63.67083333333315,"value":0.5826771653543307},{"number":64,"time":63.671874999999815,"value":0.5826771653543307},{"number":64,"time":63.794791666666484,"value":0.6141732283464567},{"number":64,"time":63.79583333333315,"value":0.6141732283464567},{"number":64,"time":66.07395833333317,"value":0.5826771653543307},{"number":64,"time":66.07499999999983,"value":0.5826771653543307},{"number":64,"time":66.10624999999983,"value":0.5511811023622047},{"number":64,"time":66.1072916666665,"value":0.5511811023622047},{"number":64,"time":66.12187499999983,"value":0.5118110236220472},{"number":64,"time":66.1229166666665,"value":0.5118110236220472},{"number":64,"time":66.1354166666665,"value":0.48031496062992124},{"number":64,"time":66.13645833333317,"value":0.48031496062992124},{"number":64,"time":66.14999999999984,"value":0.3543307086614173},{"number":64,"time":66.14999999999984,"value":0.3543307086614173},{"number":64,"time":66.1791666666665,"value":0.25196850393700787},{"number":64,"time":66.1791666666665,"value":0.25196850393700787},{"number":64,"time":66.20624999999984,"value":0.14960629921259844},{"number":64,"time":66.2072916666665,"value":0.14960629921259844},{"number":64,"time":66.3822916666665,"value":0.25196850393700787},{"number":64,"time":66.38333333333317,"value":0.25196850393700787},{"number":64,"time":66.40624999999983,"value":0.3543307086614173},{"number":64,"time":66.4072916666665,"value":0.3543307086614173},{"number":64,"time":66.46562499999983,"value":0.47244094488188976},{"number":64,"time":66.4666666666665,"value":0.47244094488188976},{"number":64,"time":66.5260416666665,"value":0.5039370078740157},{"number":64,"time":66.52708333333317,"value":0.5039370078740157},{"number":64,"time":66.59374999999983,"value":0.5354330708661418},{"number":64,"time":66.5947916666665,"value":0.5354330708661418},{"number":64,"time":67.93645833333316,"value":0.5039370078740157},{"number":64,"time":67.93749999999983,"value":0.5039370078740157},{"number":64,"time":67.97708333333317,"value":0.47244094488188976},{"number":64,"time":67.97812499999984,"value":0.47244094488188976},{"number":64,"time":68.02499999999984,"value":0.3779527559055118},{"number":64,"time":68.0260416666665,"value":0.3779527559055118},{"number":64,"time":68.0604166666665,"value":0.2755905511811024},{"number":64,"time":68.06145833333316,"value":0.2755905511811024},{"number":64,"time":68.09687499999983,"value":0.18110236220472442},{"number":64,"time":68.09687499999983,"value":0.18110236220472442},{"number":64,"time":68.12916666666649,"value":0.07874015748031496},{"number":64,"time":68.13020833333316,"value":0.07874015748031496},{"number":64,"time":68.1572916666665,"value":0},{"number":64,"time":68.15833333333316,"value":0},{"number":64,"time":70.32395833333315,"value":0.10236220472440945},{"number":64,"time":70.32499999999982,"value":0.10236220472440945},{"number":64,"time":70.34374999999982,"value":0.2047244094488189},{"number":64,"time":70.34479166666648,"value":0.2047244094488189},{"number":64,"time":70.38749999999982,"value":0.33070866141732286},{"number":64,"time":70.38854166666648,"value":0.33070866141732286},{"number":64,"time":70.51145833333315,"value":0.44881889763779526},{"number":64,"time":70.51249999999982,"value":0.44881889763779526},{"number":64,"time":70.56770833333316,"value":0.48031496062992124},{"number":64,"time":70.56770833333316,"value":0.48031496062992124},{"number":64,"time":71.33958333333317,"value":0.3779527559055118},{"number":64,"time":71.34062499999983,"value":0.3779527559055118},{"number":64,"time":71.36770833333317,"value":0.2755905511811024},{"number":64,"time":71.36770833333317,"value":0.2755905511811024},{"number":64,"time":71.38437499999984,"value":0.18110236220472442},{"number":64,"time":71.3854166666665,"value":0.18110236220472442},{"number":64,"time":71.39583333333317,"value":0.07874015748031496},{"number":64,"time":71.39687499999984,"value":0.07874015748031496},{"number":64,"time":71.40833333333318,"value":0},{"number":64,"time":71.40833333333318,"value":0},{"number":64,"time":79.02395833333316,"value":0.10236220472440945},{"number":64,"time":79.02395833333316,"value":0.10236220472440945},{"number":64,"time":79.03541666666649,"value":0.2283464566929134},{"number":64,"time":79.03645833333316,"value":0.2283464566929134},{"number":64,"time":79.05104166666649,"value":0.3543307086614173},{"number":64,"time":79.05208333333316,"value":0.3543307086614173},{"number":64,"time":79.15104166666649,"value":0.47244094488188976},{"number":64,"time":79.15208333333315,"value":0.47244094488188976},{"number":64,"time":79.21145833333316,"value":0.5039370078740157},{"number":64,"time":79.21249999999982,"value":0.5039370078740157},{"number":64,"time":79.28749999999982,"value":0.5354330708661418},{"number":64,"time":79.28854166666649,"value":0.5354330708661418},{"number":64,"time":79.35104166666649,"value":0.5669291338582677},{"number":64,"time":79.35208333333316,"value":0.5669291338582677},{"number":64,"time":79.43124999999982,"value":0.5984251968503937},{"number":64,"time":79.43229166666649,"value":0.5984251968503937},{"number":64,"time":79.59895833333316,"value":0.6299212598425197},{"number":64,"time":79.59999999999982,"value":0.6299212598425197},{"number":64,"time":80.4072916666665,"value":0.5984251968503937},{"number":64,"time":80.40833333333316,"value":0.5984251968503937},{"number":64,"time":80.43541666666648,"value":0.5669291338582677},{"number":64,"time":80.43541666666648,"value":0.5669291338582677},{"number":64,"time":80.44791666666649,"value":0.5275590551181102},{"number":64,"time":80.44895833333315,"value":0.5275590551181102},{"number":64,"time":80.45520833333315,"value":0.49606299212598426},{"number":64,"time":80.45624999999981,"value":0.49606299212598426},{"number":64,"time":80.47187499999981,"value":0.4015748031496063},{"number":64,"time":80.47187499999981,"value":0.4015748031496063},{"number":64,"time":80.50729166666648,"value":0.2992125984251969},{"number":64,"time":80.50729166666648,"value":0.2992125984251969},{"number":64,"time":80.59166666666647,"value":0.4015748031496063},{"number":64,"time":80.59270833333314,"value":0.4015748031496063},{"number":64,"time":80.6437499999998,"value":0.47244094488188976},{"number":64,"time":80.6437499999998,"value":0.47244094488188976},{"number":64,"time":80.68333333333314,"value":0.5039370078740157},{"number":64,"time":80.6843749999998,"value":0.5039370078740157},{"number":64,"time":80.7312499999998,"value":0.5354330708661418},{"number":64,"time":80.7312499999998,"value":0.5354330708661418},{"number":64,"time":80.79166666666647,"value":0.5669291338582677},{"number":64,"time":80.79270833333314,"value":0.5669291338582677},{"number":64,"time":80.9156249999998,"value":0.5984251968503937},{"number":64,"time":80.91666666666647,"value":0.5984251968503937},{"number":64,"time":81.40208333333314,"value":0.6299212598425197},{"number":64,"time":81.4031249999998,"value":0.6299212598425197},{"number":64,"time":82.45416666666647,"value":0.5984251968503937},{"number":64,"time":82.45520833333313,"value":0.5984251968503937},{"number":64,"time":82.47083333333313,"value":0.5669291338582677},{"number":64,"time":82.47083333333313,"value":0.5669291338582677},{"number":64,"time":82.48229166666647,"value":0.5354330708661418},{"number":64,"time":82.48333333333314,"value":0.5354330708661418},{"number":64,"time":82.4906249999998,"value":0.5039370078740157},{"number":64,"time":82.49166666666646,"value":0.5039370078740157},{"number":64,"time":82.49791666666646,"value":0.47244094488188976},{"number":64,"time":82.49895833333312,"value":0.47244094488188976},{"number":64,"time":82.51458333333312,"value":0.3779527559055118},{"number":64,"time":82.51562499999979,"value":0.3779527559055118},{"number":64,"time":82.73020833333311,"value":0.48031496062992124},{"number":64,"time":82.73124999999978,"value":0.48031496062992124},{"number":64,"time":82.76249999999978,"value":0.5118110236220472},{"number":64,"time":82.76354166666644,"value":0.5118110236220472},{"number":64,"time":82.81354166666644,"value":0.5433070866141733},{"number":64,"time":82.8145833333331,"value":0.5433070866141733},{"number":64,"time":82.89062499999977,"value":0.5748031496062992},{"number":64,"time":82.89166666666644,"value":0.5748031496062992},{"number":64,"time":84.02812499999978,"value":0.6062992125984252},{"number":64,"time":84.02916666666644,"value":0.6062992125984252},{"number":64,"time":84.66041666666645,"value":0.5748031496062992},{"number":64,"time":84.66145833333312,"value":0.5748031496062992},{"number":64,"time":84.68020833333311,"value":0.5433070866141733},{"number":64,"time":84.68020833333311,"value":0.5433070866141733},{"number":64,"time":84.69270833333312,"value":0.5118110236220472},{"number":64,"time":84.69374999999978,"value":0.5118110236220472},{"number":64,"time":84.70416666666644,"value":0.48031496062992124},{"number":64,"time":84.7052083333331,"value":0.48031496062992124},{"number":64,"time":84.7177083333331,"value":0.3779527559055118},{"number":64,"time":84.71874999999977,"value":0.3779527559055118},{"number":64,"time":84.74062499999977,"value":0.2755905511811024},{"number":64,"time":84.74062499999977,"value":0.2755905511811024},{"number":64,"time":84.78854166666643,"value":0.18110236220472442},{"number":64,"time":84.7895833333331,"value":0.18110236220472442},{"number":64,"time":84.81979166666643,"value":0.07874015748031496},{"number":64,"time":84.8208333333331,"value":0.07874015748031496},{"number":64,"time":84.9083333333331,"value":0.18110236220472442},{"number":64,"time":84.90937499999977,"value":0.18110236220472442},{"number":64,"time":84.93229166666643,"value":0.2992125984251969},{"number":64,"time":84.9333333333331,"value":0.2992125984251969},{"number":64,"time":84.95312499999976,"value":0.4251968503937008},{"number":64,"time":84.95416666666642,"value":0.4251968503937008},{"number":64,"time":84.97187499999976,"value":0.47244094488188976},{"number":64,"time":84.97291666666642,"value":0.47244094488188976},{"number":64,"time":85.03645833333309,"value":0.5039370078740157},{"number":64,"time":85.03749999999975,"value":0.5039370078740157},{"number":64,"time":85.10416666666642,"value":0.5354330708661418},{"number":64,"time":85.10416666666642,"value":0.5354330708661418},{"number":64,"time":85.17291666666641,"value":0.5669291338582677},{"number":64,"time":85.17395833333308,"value":0.5669291338582677},{"number":64,"time":85.38854166666641,"value":0.5984251968503937},{"number":64,"time":85.38958333333308,"value":0.5984251968503937},{"number":64,"time":86.48437499999973,"value":0.5669291338582677},{"number":64,"time":86.4854166666664,"value":0.5669291338582677},{"number":64,"time":86.5916666666664,"value":0.5354330708661418},{"number":64,"time":86.5916666666664,"value":0.5354330708661418},{"number":64,"time":86.6229166666664,"value":0.5039370078740157},{"number":64,"time":86.62395833333306,"value":0.5039370078740157},{"number":64,"time":86.67083333333306,"value":0.47244094488188976},{"number":64,"time":86.67187499999973,"value":0.47244094488188976},{"number":64,"time":86.71874999999973,"value":0.3779527559055118},{"number":64,"time":86.7197916666664,"value":0.3779527559055118},{"number":64,"time":86.75937499999974,"value":0.2755905511811024},{"number":64,"time":86.7604166666664,"value":0.2755905511811024},{"number":64,"time":86.8072916666664,"value":0.18110236220472442},{"number":64,"time":86.80833333333307,"value":0.18110236220472442},{"number":64,"time":86.83124999999973,"value":0.05511811023622047},{"number":64,"time":86.83229166666639,"value":0.05511811023622047},{"number":64,"time":86.85104166666639,"value":0},{"number":64,"time":86.85208333333306,"value":0},{"number":64,"time":87.97812499999971,"value":0.10236220472440945},{"number":64,"time":87.97916666666637,"value":0.10236220472440945},{"number":64,"time":87.99374999999971,"value":0.2047244094488189},{"number":64,"time":87.99479166666637,"value":0.2047244094488189},{"number":64,"time":88.01770833333303,"value":0.33070866141732286},{"number":64,"time":88.0187499999997,"value":0.33070866141732286},{"number":64,"time":88.11770833333303,"value":0.44881889763779526},{"number":64,"time":88.1187499999997,"value":0.44881889763779526},{"number":64,"time":88.14583333333303,"value":0.48031496062992124},{"number":64,"time":88.1468749999997,"value":0.48031496062992124},{"number":64,"time":88.2499999999997,"value":0.5118110236220472},{"number":64,"time":88.25104166666637,"value":0.5118110236220472},{"number":64,"time":88.31770833333303,"value":0.5433070866141733},{"number":64,"time":88.3187499999997,"value":0.5433070866141733},{"number":64,"time":88.39791666666636,"value":0.5748031496062992},{"number":64,"time":88.39791666666636,"value":0.5748031496062992},{"number":64,"time":88.48645833333303,"value":0.6062992125984252},{"number":64,"time":88.48645833333303,"value":0.6062992125984252},{"number":64,"time":88.58645833333303,"value":0.6377952755905512},{"number":64,"time":88.58645833333303,"value":0.6377952755905512},{"number":64,"time":88.7499999999997,"value":0.7322834645669292},{"number":64,"time":88.75104166666637,"value":0.7322834645669292},{"number":64,"time":89.55416666666638,"value":0.6535433070866141},{"number":64,"time":89.55520833333304,"value":0.6535433070866141},{"number":64,"time":89.57395833333304,"value":0.6220472440944882},{"number":64,"time":89.5749999999997,"value":0.6220472440944882},{"number":64,"time":89.58958333333304,"value":0.5826771653543307},{"number":64,"time":89.5906249999997,"value":0.5826771653543307},{"number":64,"time":89.60520833333304,"value":0.5433070866141733},{"number":64,"time":89.6062499999997,"value":0.5433070866141733},{"number":64,"time":89.61666666666638,"value":0.5118110236220472},{"number":64,"time":89.61770833333304,"value":0.5118110236220472},{"number":64,"time":89.62916666666638,"value":0.48031496062992124},{"number":64,"time":89.63020833333304,"value":0.48031496062992124},{"number":64,"time":89.74166666666638,"value":0.5118110236220472},{"number":64,"time":89.74270833333304,"value":0.5118110236220472},{"number":64,"time":89.78541666666638,"value":0.5433070866141733},{"number":64,"time":89.78645833333304,"value":0.5433070866141733},{"number":64,"time":89.8249999999997,"value":0.5748031496062992},{"number":64,"time":89.82604166666637,"value":0.5748031496062992},{"number":64,"time":89.85729166666637,"value":0.6062992125984252},{"number":64,"time":89.85833333333304,"value":0.6062992125984252},{"number":64,"time":89.93437499999969,"value":0.6377952755905512},{"number":64,"time":89.93541666666636,"value":0.6377952755905512},{"number":64,"time":91.48541666666634,"value":0.7322834645669292},{"number":64,"time":91.48541666666634,"value":0.7322834645669292},{"number":64,"time":91.79999999999967,"value":0.6535433070866141},{"number":64,"time":91.80104166666634,"value":0.6535433070866141},{"number":64,"time":91.81354166666632,"value":0.6141732283464567},{"number":64,"time":91.81458333333299,"value":0.6141732283464567},{"number":64,"time":91.82499999999965,"value":0.5826771653543307},{"number":64,"time":91.82604166666631,"value":0.5826771653543307},{"number":64,"time":91.83645833333298,"value":0.5433070866141733},{"number":64,"time":91.83749999999965,"value":0.5433070866141733},{"number":64,"time":91.84479166666631,"value":0.5039370078740157},{"number":64,"time":91.84583333333298,"value":0.5039370078740157},{"number":64,"time":91.85624999999963,"value":0.47244094488188976},{"number":64,"time":91.85624999999963,"value":0.47244094488188976},{"number":64,"time":91.86458333333296,"value":0.3779527559055118},{"number":64,"time":91.86562499999962,"value":0.3779527559055118},{"number":64,"time":91.96458333333295,"value":0.47244094488188976},{"number":64,"time":91.96562499999962,"value":0.47244094488188976},{"number":64,"time":91.98124999999962,"value":0.5039370078740157},{"number":64,"time":91.98229166666628,"value":0.5039370078740157},{"number":64,"time":92.00104166666628,"value":0.5354330708661418},{"number":64,"time":92.00208333333295,"value":0.5354330708661418},{"number":64,"time":92.02499999999961,"value":0.5669291338582677},{"number":64,"time":92.02604166666627,"value":0.5669291338582677},{"number":64,"time":92.06458333333293,"value":0.5984251968503937},{"number":64,"time":92.0656249999996,"value":0.5984251968503937},{"number":64,"time":92.10104166666626,"value":0.6299212598425197},{"number":64,"time":92.10208333333293,"value":0.6299212598425197},{"number":64,"time":95.53749999999961,"value":0.5984251968503937},{"number":64,"time":95.53854166666628,"value":0.5984251968503937},{"number":64,"time":95.67395833333295,"value":0.5669291338582677},{"number":64,"time":95.67499999999961,"value":0.5669291338582677},{"number":64,"time":95.71770833333295,"value":0.5354330708661418},{"number":64,"time":95.71770833333295,"value":0.5354330708661418},{"number":64,"time":95.78645833333294,"value":0.5039370078740157},{"number":64,"time":95.78749999999961,"value":0.5039370078740157},{"number":64,"time":95.93333333333294,"value":0.47244094488188976},{"number":64,"time":95.9343749999996,"value":0.47244094488188976},{"number":64,"time":96.01770833333293,"value":0.3779527559055118},{"number":64,"time":96.01770833333293,"value":0.3779527559055118},{"number":64,"time":96.1781249999996,"value":0.2755905511811024},{"number":64,"time":96.1781249999996,"value":0.2755905511811024},{"number":64,"time":96.22604166666626,"value":0.18110236220472442},{"number":64,"time":96.22708333333293,"value":0.18110236220472442},{"number":64,"time":96.25416666666626,"value":0.07874015748031496},{"number":64,"time":96.25416666666626,"value":0.07874015748031496},{"number":64,"time":96.2781249999996,"value":0},{"number":64,"time":96.27916666666627,"value":0},{"number":64,"time":99.13229166666628,"value":0.10236220472440945},{"number":64,"time":99.13333333333294,"value":0.10236220472440945},{"number":64,"time":99.1562499999996,"value":0.2047244094488189},{"number":64,"time":99.15729166666627,"value":0.2047244094488189},{"number":64,"time":99.20104166666627,"value":0.33070866141732286},{"number":64,"time":99.20208333333294,"value":0.33070866141732286},{"number":64,"time":99.31666666666626,"value":0.44881889763779526},{"number":64,"time":99.31770833333293,"value":0.44881889763779526},{"number":64,"time":99.33645833333293,"value":0.48031496062992124},{"number":64,"time":99.33645833333293,"value":0.48031496062992124},{"number":64,"time":99.37708333333293,"value":0.5118110236220472},{"number":64,"time":99.3781249999996,"value":0.5118110236220472},{"number":64,"time":99.42916666666626,"value":0.5433070866141733},{"number":64,"time":99.43020833333293,"value":0.5433070866141733},{"number":64,"time":99.47291666666626,"value":0.5748031496062992},{"number":64,"time":99.47395833333293,"value":0.5748031496062992},{"number":64,"time":99.51666666666627,"value":0.6062992125984252},{"number":64,"time":99.51770833333293,"value":0.6062992125984252},{"number":64,"time":99.57604166666627,"value":0.6377952755905512},{"number":64,"time":99.5781249999996,"value":0.6377952755905512},{"number":64,"time":99.73229166666627,"value":0.7322834645669292},{"number":64,"time":99.73333333333294,"value":0.7322834645669292},{"number":64,"time":100.62395833333294,"value":0.6535433070866141},{"number":64,"time":100.6249999999996,"value":0.6535433070866141},{"number":64,"time":100.64791666666626,"value":0.6220472440944882},{"number":64,"time":100.64791666666626,"value":0.6220472440944882},{"number":64,"time":100.66874999999959,"value":0.5905511811023622},{"number":64,"time":100.66979166666626,"value":0.5905511811023622},{"number":64,"time":100.68854166666625,"value":0.5511811023622047},{"number":64,"time":100.68854166666625,"value":0.5511811023622047},{"number":64,"time":100.70312499999957,"value":0.5118110236220472},{"number":64,"time":100.70416666666624,"value":0.5118110236220472},{"number":64,"time":100.7114583333329,"value":0.48031496062992124},{"number":64,"time":100.71249999999957,"value":0.48031496062992124},{"number":64,"time":100.73229166666623,"value":0.3779527559055118},{"number":64,"time":100.7333333333329,"value":0.3779527559055118},{"number":64,"time":100.75520833333289,"value":0.2755905511811024},{"number":64,"time":100.75624999999955,"value":0.2755905511811024},{"number":64,"time":100.7802083333329,"value":0.18110236220472442},{"number":64,"time":100.78124999999956,"value":0.18110236220472442},{"number":64,"time":100.7958333333329,"value":0.07874015748031496},{"number":64,"time":100.79687499999956,"value":0.07874015748031496},{"number":64,"time":100.80729166666623,"value":0},{"number":64,"time":100.8083333333329,"value":0},{"number":64,"time":103.6739583333329,"value":0.10236220472440945},{"number":64,"time":103.67499999999957,"value":0.10236220472440945},{"number":64,"time":103.71874999999957,"value":0.2047244094488189},{"number":64,"time":103.71979166666624,"value":0.2047244094488189},{"number":64,"time":103.7708333333329,"value":0.33070866141732286},{"number":64,"time":103.7708333333329,"value":0.33070866141732286},{"number":64,"time":103.86666666666623,"value":0.44881889763779526},{"number":64,"time":103.8677083333329,"value":0.44881889763779526},{"number":64,"time":103.8989583333329,"value":0.48031496062992124},{"number":64,"time":103.89999999999957,"value":0.48031496062992124},{"number":64,"time":103.98229166666623,"value":0.5118110236220472},{"number":64,"time":103.9833333333329,"value":0.5118110236220472},{"number":64,"time":104.12187499999956,"value":0.5433070866141733},{"number":64,"time":104.12291666666623,"value":0.5433070866141733},{"number":64,"time":104.48645833333289,"value":0.5118110236220472},{"number":64,"time":104.48749999999956,"value":0.5118110236220472},{"number":64,"time":104.50937499999955,"value":0.48031496062992124},{"number":64,"time":104.50937499999955,"value":0.48031496062992124},{"number":64,"time":104.53333333333289,"value":0.3779527559055118},{"number":64,"time":104.53437499999956,"value":0.3779527559055118},{"number":64,"time":104.56562499999956,"value":0.2755905511811024},{"number":64,"time":104.56666666666622,"value":0.2755905511811024},{"number":64,"time":104.58958333333288,"value":0.18110236220472442},{"number":64,"time":104.59062499999955,"value":0.18110236220472442},{"number":64,"time":104.60937499999955,"value":0.07874015748031496},{"number":64,"time":104.61041666666621,"value":0.07874015748031496},{"number":64,"time":104.62499999999955,"value":0},{"number":64,"time":104.62604166666621,"value":0}]},"id":2,"name":"MIDI from piano","channelNumber":0,"isPercussion":false},{"startTime":105.15729166666667,"duration":142.2510416666668,"length":305,"notes":[{"name":"A4","midi":69,"time":105.15729166666667,"velocity":0.4015748031496063,"duration":0.5208333333333144},{"name":"A1","midi":33,"time":105.16458333333333,"velocity":0.2204724409448819,"duration":0.20104166666664014},{"name":"E4","midi":64,"time":105.17083333333332,"velocity":0.28346456692913385,"duration":0.2510416666666373},{"name":"A3","midi":57,"time":105.41041666666662,"velocity":0.31496062992125984,"duration":0.021875000000008527},{"name":"A2","midi":45,"time":105.45416666666664,"velocity":0.1889763779527559,"duration":0.038541666666660035},{"name":"A2","midi":45,"time":105.65729166666664,"velocity":0.2047244094488189,"duration":0.8625000000000256},{"name":"A3","midi":57,"time":105.70729166666665,"velocity":0.13385826771653545,"duration":0.018749999999997158},{"name":"A3","midi":57,"time":105.89687499999998,"velocity":0.31496062992125984,"duration":0.037500000000008527},{"name":"E3","midi":52,"time":105.92187499999999,"velocity":0.2204724409448819,"duration":0.04791666666667993},{"name":"E4","midi":64,"time":105.94270833333333,"velocity":0.2204724409448819,"duration":0.023958333333339965},{"name":"E4","midi":64,"time":106.15,"velocity":0.33070866141732286,"duration":0.05937499999998863},{"name":"E3","midi":52,"time":106.15520833333333,"velocity":0.29133858267716534,"duration":0.45624999999999716},{"name":"A3","midi":57,"time":106.171875,"velocity":0.3464566929133858,"duration":0.03437499999999716},{"name":"E4","midi":64,"time":106.36770833333333,"velocity":0.44881889763779526,"duration":0.2854166666666629},{"name":"C#4","midi":61,"time":106.38333333333333,"velocity":0.44881889763779526,"duration":0.15937499999999716},{"name":"A3","midi":57,"time":106.64583333333333,"velocity":0.3464566929133858,"duration":0.020833333333328596},{"name":"A2","midi":45,"time":106.68958333333332,"velocity":0.14960629921259844,"duration":0.027083333333337123},{"name":"B4","midi":71,"time":106.84791666666665,"velocity":0.5905511811023622,"duration":0.4718750000000256},{"name":"E4","midi":64,"time":106.86145833333332,"velocity":0.4015748031496063,"duration":0.4718750000000256},{"name":"B3","midi":59,"time":106.90104166666666,"velocity":0.28346456692913385,"duration":0.041666666666671404},{"name":"E1","midi":28,"time":107.09583333333333,"velocity":0.4881889763779528,"duration":0.16770833333333712},{"name":"E2","midi":40,"time":107.36145833333335,"velocity":0.2755905511811024,"duration":0.03125},{"name":"B3","midi":59,"time":107.36458333333334,"velocity":0.31496062992125984,"duration":0.05000000000001137},{"name":"E2","midi":40,"time":107.56458333333336,"velocity":0.1889763779527559,"duration":0.8562499999999744},{"name":"B3","midi":59,"time":107.58020833333336,"velocity":0.36220472440944884,"duration":0.037499999999994316},{"name":"B2","midi":47,"time":107.78541666666669,"velocity":0.3464566929133858,"duration":0.3479166666666629},{"name":"E4","midi":64,"time":107.78958333333335,"velocity":0.48031496062992124,"duration":0.08437499999999432},{"name":"B3","midi":59,"time":107.80312500000002,"velocity":0.31496062992125984,"duration":0.03541666666666288},{"name":"E3","midi":52,"time":108.01666666666668,"velocity":0.3779527559055118,"duration":0.34166666666665435},{"name":"E4","midi":64,"time":108.04166666666669,"velocity":0.4645669291338583,"duration":0.11354166666666288},{"name":"B3","midi":59,"time":108.05208333333336,"velocity":0.4251968503937008,"duration":0.03020833333333428},{"name":"G#4","midi":68,"time":108.24687500000002,"velocity":0.5826771653543307,"duration":0.12499999999998579},{"name":"G#3","midi":56,"time":108.25416666666668,"velocity":0.5354330708661418,"duration":0.06041666666665435},{"name":"E4","midi":64,"time":108.26145833333334,"velocity":0.3228346456692913,"duration":0.16979166666666856},{"name":"B2","midi":47,"time":108.48645833333335,"velocity":0.2755905511811024,"duration":0.012500000000002842},{"name":"G#3","midi":56,"time":108.51250000000002,"velocity":0.4330708661417323,"duration":0.0729166666666714},{"name":"G#4","midi":68,"time":108.7197916666667,"velocity":0.6535433070866141,"duration":0.47812499999994884},{"name":"E4","midi":64,"time":108.72604166666669,"velocity":0.48031496062992124,"duration":0.7333333333332774},{"name":"G#3","midi":56,"time":108.74375000000002,"velocity":0.3937007874015748,"duration":0.3020833333333002},{"name":"F#3","midi":54,"time":108.75520833333336,"velocity":0.4409448818897638,"duration":0.2666666666666373},{"name":"F#1","midi":30,"time":108.94270833333334,"velocity":0.4094488188976378,"duration":0.20729166666663446},{"name":"F#2","midi":42,"time":109.16979166666664,"velocity":0.3779527559055118,"duration":0.0677083333333286},{"name":"G#3","midi":56,"time":109.19583333333331,"velocity":0.33070866141732286,"duration":0.08124999999998295},{"name":"F#3","midi":54,"time":109.21666666666664,"velocity":0.3543307086614173,"duration":0.027083333333322912},{"name":"F#2","midi":42,"time":109.4020833333333,"velocity":0.33858267716535434,"duration":0.6093750000000284},{"name":"G#3","midi":56,"time":109.4177083333333,"velocity":0.31496062992125984,"duration":0.11354166666667709},{"name":"C#3","midi":49,"time":109.64895833333331,"velocity":0.36220472440944884,"duration":0.19583333333333997},{"name":"G#3","midi":56,"time":109.65416666666664,"velocity":0.15748031496062992,"duration":0.05937500000000284},{"name":"F#3","midi":54,"time":109.68333333333331,"velocity":0.15748031496062992,"duration":0.08541666666667425},{"name":"G#3","midi":56,"time":109.86874999999999,"velocity":0.4409448818897638,"duration":0.07708333333333428},{"name":"F#3","midi":54,"time":109.87187499999999,"velocity":0.5984251968503937,"duration":0.2395833333333428},{"name":"F#4","midi":66,"time":110.08333333333333,"velocity":0.6377952755905512,"duration":0.28958333333332575},{"name":"D4","midi":62,"time":110.09895833333333,"velocity":0.4330708661417323,"duration":0.21562500000000284},{"name":"F#3","midi":54,"time":110.3125,"velocity":0.4409448818897638,"duration":0.039583333333325754},{"name":"F#2","midi":42,"time":110.33541666666666,"velocity":0.3464566929133858,"duration":0.03229166666666572},{"name":"D4","midi":62,"time":110.54687499999999,"velocity":0.5511811023622047,"duration":0.5479166666665662},{"name":"A4","midi":69,"time":110.55208333333331,"velocity":0.7007874015748031,"duration":0.5562499999999062},{"name":"A3","midi":57,"time":110.58749999999998,"velocity":0.3937007874015748,"duration":0.7104166666665748},{"name":"D1","midi":26,"time":110.77291666666657,"velocity":0.49606299212598426,"duration":0.15104166666664298},{"name":"D2","midi":38,"time":110.99374999999988,"velocity":0.3700787401574803,"duration":0.06666666666666288},{"name":"G#4","midi":68,"time":111.06874999999988,"velocity":0.5511811023622047,"duration":0.10833333333333428},{"name":"F#4","midi":66,"time":111.18020833333321,"velocity":0.4881889763779528,"duration":0.1875000000000142},{"name":"D2","midi":38,"time":111.22291666666655,"velocity":0.3700787401574803,"duration":0.8395833333333229},{"name":"A2","midi":45,"time":111.43229166666656,"velocity":0.2755905511811024,"duration":0.26249999999998863},{"name":"D4","midi":62,"time":111.43437499999989,"velocity":0.3858267716535433,"duration":0.046875},{"name":"A3","midi":57,"time":111.47291666666655,"velocity":0.2992125984251969,"duration":0.021875000000008527},{"name":"A3","midi":57,"time":111.64166666666655,"velocity":0.30708661417322836,"duration":0.06979166666666003},{"name":"D3","midi":50,"time":111.64583333333321,"velocity":0.4330708661417323,"duration":0.38749999999998863},{"name":"D4","midi":62,"time":111.64895833333321,"velocity":0.4015748031496063,"duration":0.06458333333333144},{"name":"A3","midi":57,"time":111.86979166666654,"velocity":0.5511811023622047,"duration":0.06874999999999432},{"name":"A4","midi":69,"time":111.87499999999987,"velocity":0.6062992125984252,"duration":0.15208333333333712},{"name":"A2","midi":45,"time":112.0833333333332,"velocity":0.3700787401574803,"duration":0.04479166666666856},{"name":"A3","midi":57,"time":112.0927083333332,"velocity":0.5748031496062992,"duration":0.07395833333332291},{"name":"A4","midi":69,"time":112.34166666666653,"velocity":0.6535433070866141,"duration":0.5156249999999432},{"name":"E4","midi":64,"time":112.34374999999986,"velocity":0.5511811023622047,"duration":0.340624999999946},{"name":"A3","midi":57,"time":112.34791666666652,"velocity":0.5354330708661418,"duration":0.24166666666664582},{"name":"A1","midi":33,"time":112.55833333333317,"velocity":0.5511811023622047,"duration":0.15937499999996874},{"name":"A3","midi":57,"time":112.76354166666647,"velocity":0.4094488188976378,"duration":0.06458333333333144},{"name":"A2","midi":45,"time":112.76666666666647,"velocity":0.3700787401574803,"duration":0.07083333333333997},{"name":"A3","midi":57,"time":112.99583333333314,"velocity":0.49606299212598426,"duration":0.11041666666666572},{"name":"A2","midi":45,"time":113.00104166666647,"velocity":0.3779527559055118,"duration":0.78125},{"name":"E3","midi":52,"time":113.21666666666647,"velocity":0.3464566929133858,"duration":0.11249999999999716},{"name":"A3","midi":57,"time":113.23541666666647,"velocity":0.4094488188976378,"duration":0.07708333333333428},{"name":"E4","midi":64,"time":113.2499999999998,"velocity":0.3464566929133858,"duration":0.0677083333333286},{"name":"B3","midi":59,"time":113.2624999999998,"velocity":0.3228346456692913,"duration":0.04895833333333144},{"name":"E3","midi":52,"time":113.4468749999998,"velocity":0.2677165354330709,"duration":0.33645833333332575},{"name":"E4","midi":64,"time":113.47395833333314,"velocity":0.48031496062992124,"duration":0.07708333333333428},{"name":"A3","midi":57,"time":113.48645833333315,"velocity":0.3858267716535433,"duration":0.040624999999991473},{"name":"B3","midi":59,"time":113.4937499999998,"velocity":0.33858267716535434,"duration":0.028125000000002842},{"name":"E4","midi":64,"time":113.66979166666648,"velocity":0.5748031496062992,"duration":0.14895833333331154},{"name":"A3","midi":57,"time":113.67604166666648,"velocity":0.5039370078740157,"duration":0.06874999999999432},{"name":"B3","midi":59,"time":113.67812499999981,"velocity":0.49606299212598426,"duration":0.06979166666666003},{"name":"A2","midi":45,"time":113.9124999999998,"velocity":0.30708661417322836,"duration":0.01770833333333144},{"name":"A3","midi":57,"time":113.94895833333312,"velocity":0.3464566929133858,"duration":0.006249999999994316},{"name":"B3","midi":59,"time":113.96562499999979,"velocity":0.23622047244094488,"duration":0.01666666666666572},{"name":"B3","midi":59,"time":114.1312499999998,"velocity":0.4251968503937008,"duration":0.3114583333332632},{"name":"B4","midi":71,"time":114.13854166666646,"velocity":0.6377952755905512,"duration":0.43749999999992895},{"name":"E4","midi":64,"time":114.14166666666645,"velocity":0.5826771653543307,"duration":0.4520833333332632},{"name":"E1","midi":28,"time":114.36874999999975,"velocity":0.5590551181102362,"duration":0.13958333333330586},{"name":"E2","midi":40,"time":114.58541666666638,"velocity":0.3543307086614173,"duration":0.046875},{"name":"B3","midi":59,"time":114.60937499999972,"velocity":0.3700787401574803,"duration":0.039583333333325754},{"name":"B3","midi":59,"time":114.79895833333303,"velocity":0.44881889763779526,"duration":0.08854166666665719},{"name":"E2","midi":40,"time":114.8343749999997,"velocity":0.16535433070866143,"duration":0.8458333333332888},{"name":"B3","midi":59,"time":115.01874999999968,"velocity":0.3779527559055118,"duration":0.06354166666666572},{"name":"B2","midi":47,"time":115.02395833333301,"velocity":0.36220472440944884,"duration":0.20000000000000284},{"name":"E4","midi":64,"time":115.03541666666635,"velocity":0.4015748031496063,"duration":0.056250000000005684},{"name":"E3","midi":52,"time":115.23124999999968,"velocity":0.49606299212598426,"duration":0.4218749999999716},{"name":"B3","midi":59,"time":115.24999999999967,"velocity":0.47244094488188976,"duration":0.05104166666666288},{"name":"E4","midi":64,"time":115.252083333333,"velocity":0.41732283464566927,"duration":0.07187499999999147},{"name":"A4","midi":69,"time":115.45312499999966,"velocity":0.7165354330708661,"duration":0.12499999999998579},{"name":"A3","midi":57,"time":115.47604166666632,"velocity":0.5433070866141733,"duration":0.04999999999999716},{"name":"B2","midi":47,"time":115.66666666666632,"velocity":0.44881889763779526,"duration":0.053125000000008527},{"name":"A3","midi":57,"time":115.69062499999966,"velocity":0.6062992125984252,"duration":0.06041666666666856},{"name":"E4","midi":64,"time":115.88437499999966,"velocity":0.5826771653543307,"duration":0.3156249999999545},{"name":"B4","midi":71,"time":115.89166666666632,"velocity":0.6771653543307087,"duration":0.2885416666666316},{"name":"A3","midi":57,"time":115.89166666666632,"velocity":0.5275590551181102,"duration":0.27395833333329733},{"name":"B3","midi":59,"time":115.90104166666633,"velocity":0.48031496062992124,"duration":0.25937499999996305},{"name":"F#1","midi":30,"time":116.1135416666663,"velocity":0.5433070866141733,"duration":0.18437499999998863},{"name":"F#4","midi":66,"time":116.31874999999961,"velocity":0.48031496062992124,"duration":0.09270833333330586},{"name":"F#2","midi":42,"time":116.32187499999961,"velocity":0.44881889763779526,"duration":0.05729166666665719},{"name":"B4","midi":71,"time":116.3374999999996,"velocity":0.3464566929133858,"duration":0.06874999999999432},{"name":"B3","midi":59,"time":116.3687499999996,"velocity":0.2755905511811024,"duration":0.02916666666666856},{"name":"A3","midi":57,"time":116.37083333333293,"velocity":0.28346456692913385,"duration":0.03020833333333428},{"name":"F#2","midi":42,"time":116.54687499999959,"velocity":0.31496062992125984,"duration":0.8729166666666259},{"name":"B4","midi":71,"time":116.55416666666625,"velocity":0.4094488188976378,"duration":0.08541666666666003},{"name":"F#4","midi":66,"time":116.55833333333291,"velocity":0.6062992125984252,"duration":0.09999999999999432},{"name":"A3","midi":57,"time":116.56041666666624,"velocity":0.36220472440944884,"duration":0.06666666666666288},{"name":"B3","midi":59,"time":116.5645833333329,"velocity":0.29133858267716534,"duration":0.06458333333333144},{"name":"C#3","midi":49,"time":116.75416666666624,"velocity":0.4330708661417323,"duration":0.22916666666668561},{"name":"B4","midi":71,"time":116.76666666666624,"velocity":0.4566929133858268,"duration":0.07812500000001421},{"name":"G#4","midi":68,"time":116.78229166666624,"velocity":0.5354330708661418,"duration":0.06458333333334565},{"name":"A3","midi":57,"time":116.79479166666624,"velocity":0.36220472440944884,"duration":0.039583333333339965},{"name":"B3","midi":59,"time":116.80312499999958,"velocity":0.2992125984251969,"duration":0.028125000000002842},{"name":"G#4","midi":68,"time":116.99791666666626,"velocity":0.6456692913385826,"duration":0.0999999999999801},{"name":"F#3","midi":54,"time":117.00416666666625,"velocity":0.6299212598425197,"duration":0.43020833333329733},{"name":"B4","midi":71,"time":117.00937499999958,"velocity":0.47244094488188976,"duration":0.04166666666665719},{"name":"B3","midi":59,"time":117.02187499999958,"velocity":0.3779527559055118,"duration":0.024999999999991473},{"name":"A3","midi":57,"time":117.02708333333291,"velocity":0.3779527559055118,"duration":0.01770833333333144},{"name":"A4","midi":69,"time":117.21041666666623,"velocity":0.5905511811023622,"duration":0.18541666666664014},{"name":"C#5","midi":73,"time":117.21666666666623,"velocity":0.6614173228346457,"duration":0.1562499999999858},{"name":"C#4","midi":61,"time":117.23958333333289,"velocity":0.48031496062992124,"duration":0.07187499999999147},{"name":"C#3","midi":49,"time":117.43229166666622,"velocity":0.49606299212598426,"duration":0.03437500000001137},{"name":"C#4","midi":61,"time":117.44270833333289,"velocity":0.6456692913385826,"duration":0.05104166666667709},{"name":"A4","midi":69,"time":117.66874999999956,"velocity":0.6771653543307087,"duration":0.32395833333326607},{"name":"D4","midi":62,"time":117.67499999999956,"velocity":0.6692913385826772,"duration":0.32916666666659467},{"name":"D5","midi":74,"time":117.68020833333289,"velocity":0.7165354330708661,"duration":0.31666666666660603},{"name":"D1","midi":26,"time":117.89166666666618,"velocity":0.6692913385826772,"duration":0.1947916666666316},{"name":"D4","midi":62,"time":118.10104166666615,"velocity":0.2677165354330709,"duration":0.10312500000000568},{"name":"D2","midi":38,"time":118.11145833333282,"velocity":0.4645669291338583,"duration":0.07708333333333428},{"name":"A4","midi":69,"time":118.12291666666616,"velocity":0.4015748031496063,"duration":0.09270833333333428},{"name":"D5","midi":74,"time":118.16354166666615,"velocity":0.3543307086614173,"duration":0.03645833333334281},{"name":"A4","midi":69,"time":118.34895833333283,"velocity":0.48031496062992124,"duration":0.10312499999999147},{"name":"D2","midi":38,"time":118.35104166666616,"velocity":0.48031496062992124,"duration":0.8479166666666345},{"name":"D4","midi":62,"time":118.37083333333283,"velocity":0.41732283464566927,"duration":0.053124999999994316},{"name":"D5","midi":74,"time":118.38958333333282,"velocity":0.3543307086614173,"duration":0.03229166666666572},{"name":"A2","midi":45,"time":118.54999999999949,"velocity":0.4094488188976378,"duration":0.20729166666664867},{"name":"D5","midi":74,"time":118.55312499999948,"velocity":0.5669291338582677,"duration":0.09166666666665435},{"name":"D4","midi":62,"time":118.55312499999948,"velocity":0.5905511811023622,"duration":0.07083333333332575},{"name":"B4","midi":71,"time":118.55520833333281,"velocity":0.6299212598425197,"duration":0.11979166666665719},{"name":"D3","midi":50,"time":118.75937499999947,"velocity":0.5433070866141733,"duration":0.4468749999999915},{"name":"B4","midi":71,"time":118.76562499999946,"velocity":0.41732283464566927,"duration":0.0989583333333286},{"name":"D4","midi":62,"time":118.77812499999946,"velocity":0.5511811023622047,"duration":0.06145833333333428},{"name":"D5","midi":74,"time":118.78333333333279,"velocity":0.6299212598425197,"duration":0.07916666666666572},{"name":"E4","midi":64,"time":118.79166666666613,"velocity":0.5039370078740157,"duration":0.04583333333333428},{"name":"E5","midi":76,"time":118.98854166666612,"velocity":0.8031496062992126,"duration":0.16562500000000568},{"name":"E4","midi":64,"time":118.99791666666613,"velocity":0.6850393700787402,"duration":0.14374999999999716},{"name":"A2","midi":45,"time":119.1958333333328,"velocity":0.5354330708661418,"duration":0.04479166666665435},{"name":"E4","midi":64,"time":119.25624999999945,"velocity":0.44881889763779526,"duration":0.07708333333333428},{"name":"E4","midi":64,"time":119.38333333333279,"velocity":0.49606299212598426,"duration":0.3718749999999176},{"name":"E5","midi":76,"time":119.39895833333279,"velocity":0.7716535433070866,"duration":0.39166666666658045},{"name":"A4","midi":69,"time":119.40312499999945,"velocity":0.7480314960629921,"duration":0.3635416666665918},{"name":"A1","midi":33,"time":119.61874999999941,"velocity":0.6771653543307087,"duration":0.184374999999946},{"name":"E4","midi":64,"time":119.84062499999935,"velocity":0.31496062992125984,"duration":0.10208333333332575},{"name":"A2","midi":45,"time":119.84479166666601,"velocity":0.4094488188976378,"duration":0.06041666666666856},{"name":"B4","midi":71,"time":119.85416666666602,"velocity":0.5039370078740157,"duration":0.07604166666666856},{"name":"E5","midi":76,"time":119.86041666666601,"velocity":0.25196850393700787,"duration":0.07500000000000284},{"name":"A2","midi":45,"time":120.07916666666601,"velocity":0.4015748031496063,"duration":0.878124999999983},{"name":"E4","midi":64,"time":120.08020833333268,"velocity":0.49606299212598426,"duration":0.0677083333333286},{"name":"B4","midi":71,"time":120.08124999999934,"velocity":0.6299212598425197,"duration":0.09375},{"name":"E5","midi":76,"time":120.08437499999934,"velocity":0.4645669291338583,"duration":0.0729166666666714},{"name":"E3","midi":52,"time":120.27083333333267,"velocity":0.4566929133858268,"duration":0.21979166666666572},{"name":"E5","midi":76,"time":120.272916666666,"velocity":0.5826771653543307,"duration":0.07708333333333428},{"name":"E4","midi":64,"time":120.27812499999933,"velocity":0.6377952755905512,"duration":0.06666666666667709},{"name":"C#5","midi":73,"time":120.28749999999934,"velocity":0.6771653543307087,"duration":0.08229166666666288},{"name":"E4","midi":64,"time":120.47708333333267,"velocity":0.6929133858267716,"duration":0.056249999999991473},{"name":"C#5","midi":73,"time":120.491666666666,"velocity":0.7716535433070866,"duration":0.08020833333331723},{"name":"A3","midi":57,"time":120.49895833333267,"velocity":0.6377952755905512,"duration":0.4229166666666657},{"name":"E5","midi":76,"time":120.54062499999932,"velocity":0.18110236220472442,"duration":0.037499999999994316},{"name":"E5","midi":76,"time":120.71354166666599,"velocity":0.5826771653543307,"duration":0.20937500000000853},{"name":"C#6","midi":85,"time":120.71562499999932,"velocity":0.7874015748031497,"duration":0.18020833333333997},{"name":"C#5","midi":73,"time":120.92812499999933,"velocity":0.5354330708661418,"duration":0.04583333333333428},{"name":"E3","midi":52,"time":120.95208333333267,"velocity":0.49606299212598426,"duration":0.03541666666666288},{"name":"B5","midi":83,"time":121.154166666666,"velocity":0.7952755905511811,"duration":0.4145833333332405},{"name":"F#5","midi":78,"time":121.15624999999933,"velocity":0.7401574803149606,"duration":0.4718749999999119},{"name":"E5","midi":76,"time":121.160416666666,"velocity":0.6535433070866141,"duration":0.4562499999999119},{"name":"E1","midi":28,"time":121.38749999999926,"velocity":0.6692913385826772,"duration":0.1989583333333087},{"name":"E2","midi":40,"time":121.60312499999924,"velocity":0.4251968503937008,"duration":0.056250000000005684},{"name":"B4","midi":71,"time":121.61458333333258,"velocity":0.5590551181102362,"duration":0.040625000000005684},{"name":"B4","midi":71,"time":121.81666666666591,"velocity":0.6141732283464567,"duration":0.19999999999998863},{"name":"E2","midi":40,"time":121.82708333333258,"velocity":0.3858267716535433,"duration":0.8593749999999574},{"name":"F#4","midi":66,"time":121.82812499999925,"velocity":0.5905511811023622,"duration":0.15937499999999716},{"name":"E4","midi":64,"time":121.83645833333259,"velocity":0.4566929133858268,"duration":0.1833333333333087},{"name":"F2","midi":41,"time":121.85937499999925,"velocity":0.3858267716535433,"duration":0.11666666666666003},{"name":"B3","midi":59,"time":122.0104166666659,"velocity":0.48031496062992124,"duration":0.23854166666664867},{"name":"B2","midi":47,"time":122.01874999999923,"velocity":0.4645669291338583,"duration":0.22604166666666003},{"name":"E3","midi":52,"time":122.22812499999922,"velocity":0.6299212598425197,"duration":0.4385416666666373},{"name":"F#4","midi":66,"time":122.24687499999922,"velocity":0.6220472440944882,"duration":0.07604166666665435},{"name":"B4","midi":71,"time":122.25208333333255,"velocity":0.5196850393700787,"duration":0.04999999999999716},{"name":"E4","midi":64,"time":122.30729166666588,"velocity":0.2283464566929134,"duration":0.012500000000002842},{"name":"C#5","midi":73,"time":122.4499999999992,"velocity":0.7086614173228346,"duration":0.22812499999999147},{"name":"G#4","midi":68,"time":122.45729166666587,"velocity":0.6220472440944882,"duration":0.06979166666666003},{"name":"B4","midi":71,"time":122.45833333333253,"velocity":0.6299212598425197,"duration":0.21770833333333428},{"name":"G5","midi":79,"time":122.46979166666587,"velocity":0.5511811023622047,"duration":0.13124999999999432},{"name":"F#5","midi":78,"time":122.50729166666586,"velocity":0.28346456692913385,"duration":0.013541666666668561},{"name":"B2","midi":47,"time":122.68854166666587,"velocity":0.49606299212598426,"duration":0.03333333333333144},{"name":"G#4","midi":68,"time":122.70520833333254,"velocity":0.5039370078740157,"duration":0.02916666666666856},{"name":"G#4","midi":68,"time":122.89895833333254,"velocity":0.4251968503937008,"duration":0.31041666666662593},{"name":"C#5","midi":73,"time":122.90729166666588,"velocity":0.7007874015748031,"duration":0.324999999999946},{"name":"C#4","midi":61,"time":122.91458333333254,"velocity":0.7322834645669292,"duration":0.31249999999995737},{"name":"A4","midi":69,"time":122.91666666666588,"velocity":0.5275590551181102,"duration":0.3208333333332831},{"name":"F#1","midi":30,"time":123.13229166666585,"velocity":0.7322834645669292,"duration":0.2145833333332945},{"name":"F#2","midi":42,"time":123.34270833333248,"velocity":0.5118110236220472,"duration":0.06041666666665435},{"name":"F#4","midi":66,"time":123.34895833333248,"velocity":0.5669291338582677,"duration":0.07499999999998863},{"name":"C#4","midi":61,"time":123.36874999999914,"velocity":0.4251968503937008,"duration":0.053124999999994316},{"name":"C#5","midi":73,"time":123.40937499999913,"velocity":0.3543307086614173,"duration":0.01458333333333428},{"name":"F#2","midi":42,"time":123.54687499999913,"velocity":0.5511811023622047,"duration":1.0760416666666544},{"name":"C#5","midi":73,"time":123.5510416666658,"velocity":0.5354330708661418,"duration":0.1354166666666714},{"name":"C#4","midi":61,"time":123.55312499999913,"velocity":0.6220472440944882,"duration":0.09270833333333428},{"name":"G4","midi":67,"time":123.63124999999913,"velocity":0.16535433070866143,"duration":0.08020833333334565},{"name":"C#3","midi":49,"time":123.74687499999914,"velocity":0.6535433070866141,"duration":0.2447916666666714},{"name":"C#5","midi":73,"time":123.7822916666658,"velocity":0.4330708661417323,"duration":0.06770833333334281},{"name":"C#4","midi":61,"time":123.78333333333246,"velocity":0.5433070866141733,"duration":0.054166666666674246},{"name":"G#4","midi":68,"time":123.79270833333247,"velocity":0.5984251968503937,"duration":0.08541666666667425},{"name":"C#4","midi":61,"time":123.97291666666581,"velocity":0.6456692913385826,"duration":0.06874999999999432},{"name":"F#3","midi":54,"time":123.97604166666581,"velocity":0.7401574803149606,"duration":0.3197916666666458},{"name":"C#5","midi":73,"time":123.98541666666581,"velocity":0.6692913385826772,"duration":0.11666666666664582},{"name":"A4","midi":69,"time":123.98749999999914,"velocity":0.5905511811023622,"duration":0.09270833333332007},{"name":"C#3","midi":49,"time":124.1947916666658,"velocity":0.5905511811023622,"duration":0.44583333333332575},{"name":"A5","midi":81,"time":124.40520833333245,"velocity":0.7795275590551181,"duration":0.07500000000000284},{"name":"E5","midi":76,"time":124.41145833333245,"velocity":0.6850393700787402,"duration":0.056250000000005684},{"name":"A4","midi":69,"time":124.41666666666578,"velocity":0.5433070866141733,"duration":0.027083333333337123},{"name":"F#3","midi":54,"time":124.66354166666578,"velocity":0.4251968503937008,"duration":0.009375000000005684},{"name":"F#6","midi":90,"time":124.86666666666574,"velocity":0.7637795275590551,"duration":0.21249999999997726},{"name":"D6","midi":86,"time":124.87499999999908,"velocity":0.6377952755905512,"duration":0.18020833333331154},{"name":"F#5","midi":78,"time":124.87499999999908,"velocity":0.7165354330708661,"duration":0.22187499999996874},{"name":"D1","midi":26,"time":124.88854166666574,"velocity":0.7165354330708661,"duration":0.1729166666666373},{"name":"D2","midi":38,"time":125.09062499999905,"velocity":0.4015748031496063,"duration":0.036458333333328596},{"name":"D2","midi":38,"time":125.29062499999904,"velocity":0.49606299212598426,"duration":0.20208333333332007},{"name":"C#6","midi":85,"time":125.2979166666657,"velocity":0.7086614173228346,"duration":0.10624999999998863},{"name":"E6","midi":88,"time":125.3010416666657,"velocity":0.7165354330708661,"duration":0.08854166666665719},{"name":"E5","midi":76,"time":125.30312499999903,"velocity":0.6692913385826772,"duration":0.06979166666666003},{"name":"A2","midi":45,"time":125.51562499999902,"velocity":0.4330708661417323,"duration":0.026041666666671404},{"name":"D6","midi":86,"time":125.54687499999902,"velocity":0.7322834645669292,"duration":0.17604166666666288},{"name":"D5","midi":74,"time":125.55520833333236,"velocity":0.6771653543307087,"duration":0.1364583333333229},{"name":"A#5","midi":82,"time":125.55729166666569,"velocity":0.4330708661417323,"duration":0.13854166666665435},{"name":"B5","midi":83,"time":125.56249999999902,"velocity":0.6220472440944882,"duration":0.330208333333303},{"name":"D3","midi":50,"time":125.72812499999901,"velocity":0.6771653543307087,"duration":0.4572916666666629},{"name":"A5","midi":81,"time":125.862499999999,"velocity":0.6220472440944882,"duration":0.07499999999998863},{"name":"C#6","midi":85,"time":125.868749999999,"velocity":0.7322834645669292,"duration":0.10625000000000284},{"name":"C#5","midi":73,"time":125.87395833333233,"velocity":0.7244094488188977,"duration":0.07187500000000568},{"name":"A3","midi":57,"time":125.98854166666567,"velocity":0.49606299212598426,"duration":0.19687500000000568},{"name":"A5","midi":81,"time":126.19270833333233,"velocity":0.7874015748031497,"duration":0.7593749999999062},{"name":"C#5","midi":73,"time":126.19479166666567,"velocity":0.7716535433070866,"duration":0.8291666666665805},{"name":"A4","midi":69,"time":126.196874999999,"velocity":0.6850393700787402,"duration":0.8229166666665861},{"name":"D4","midi":62,"time":126.20520833333234,"velocity":0.4015748031496063,"duration":0.011458333333337123},{"name":"A1","midi":33,"time":126.66562499999898,"velocity":0.6535433070866141,"duration":0.19895833333326607},{"name":"A2","midi":45,"time":126.94270833333225,"velocity":0.2992125984251969,"duration":0.020833333333328596},{"name":"A2","midi":45,"time":127.13124999999891,"velocity":0.2677165354330709,"duration":0.9802083333333371},{"name":"E3","midi":52,"time":127.36354166666558,"velocity":0.3937007874015748,"duration":0.7322916666666686},{"name":"A4","midi":69,"time":127.58541666666558,"velocity":0.7322834645669292,"duration":0.09375},{"name":"A3","midi":57,"time":127.59791666666558,"velocity":0.5118110236220472,"duration":0.06041666666666856},{"name":"A4","midi":69,"time":127.95833333333225,"velocity":0.6929133858267716,"duration":0.18437500000000284},{"name":"A3","midi":57,"time":127.98124999999891,"velocity":0.48031496062992124,"duration":0.05104166666666288},{"name":"E1","midi":28,"time":128.58437499999908,"velocity":0.6692913385826772,"duration":0.2260416666667595},{"name":"E2","midi":40,"time":128.86354166666587,"velocity":0.25984251968503935,"duration":0.01770833333333144},{"name":"E2","midi":40,"time":129.0874999999992,"velocity":0.4094488188976378,"duration":1.0177083333333314},{"name":"B2","midi":47,"time":129.23749999999922,"velocity":0.4330708661417323,"duration":0.47083333333333144},{"name":"C#4","midi":61,"time":129.42916666666588,"velocity":0.3464566929133858,"duration":0.01458333333332007},{"name":"E3","midi":52,"time":129.44791666666586,"velocity":0.2677165354330709,"duration":0.5677083333333428},{"name":"F#4","midi":66,"time":129.48645833333254,"velocity":0.5433070866141733,"duration":0.14375000000001137},{"name":"A4","midi":69,"time":129.54895833333254,"velocity":0.5196850393700787,"duration":0.8531250000000057},{"name":"E5","midi":76,"time":129.64791666666588,"velocity":0.6456692913385826,"duration":0.43645833333332007},{"name":"C#5","midi":73,"time":130.42604166666587,"velocity":0.5590551181102362,"duration":0.05833333333333712},{"name":"F#2","midi":42,"time":130.66041666666587,"velocity":0.4251968503937008,"duration":0.28020833333357587},{"name":"C#5","midi":73,"time":130.67916666666588,"velocity":0.6220472440944882,"duration":3.321875000000489},{"name":"F#4","midi":66,"time":130.6979166666659,"velocity":0.4015748031496063,"duration":1.7197916666669641},{"name":"D4","midi":62,"time":130.732291666666,"velocity":0.3228346456692913,"duration":1.605208333333536},{"name":"F#1","midi":30,"time":130.92395833333276,"velocity":0.3937007874015748,"duration":0.1958333333333826},{"name":"F#2","midi":42,"time":131.15208333333283,"velocity":0.3700787401574803,"duration":0.038541666666674246},{"name":"F#2","midi":42,"time":131.40416666666616,"velocity":0.28346456692913385,"duration":0.6510416666666856},{"name":"C#3","midi":49,"time":131.67708333333283,"velocity":0.25196850393700787,"duration":0.3687500000000057},{"name":"F#3","midi":54,"time":131.9343749999995,"velocity":0.2755905511811024,"duration":0.16249999999999432},{"name":"D3","midi":50,"time":132.79166666666617,"velocity":0.36220472440944884,"duration":0.8843750000002046},{"name":"A3","midi":57,"time":133.061458333333,"velocity":0.2283464566929134,"duration":0.25729166666670267},{"name":"D4","midi":62,"time":133.31145833333304,"velocity":0.2047244094488189,"duration":0.13854166666666856},{"name":"D4","midi":62,"time":133.61145833333305,"velocity":0.28346456692913385,"duration":0.1875},{"name":"E4","midi":64,"time":135.3822916666664,"velocity":0.23622047244094488,"duration":3.4239583333335872},{"name":"A6","midi":93,"time":135.39374999999973,"velocity":0.4330708661417323,"duration":1.5260416666667709},{"name":"A5","midi":81,"time":135.40520833333306,"velocity":0.36220472440944884,"duration":1.4677083333334338},{"name":"G#6","midi":92,"time":137.59895833333317,"velocity":0.4645669291338583,"duration":1.038541666666788},{"name":"E3","midi":52,"time":137.59999999999985,"velocity":0.2125984251968504,"duration":1.1072916666667822},{"name":"G#5","midi":80,"time":137.6114583333332,"velocity":0.3228346456692913,"duration":1.0750000000001023},{"name":"E6","midi":88,"time":139.77187499999997,"velocity":0.33858267716535434,"duration":2.7635416666668107},{"name":"C#4","midi":61,"time":139.78541666666663,"velocity":0.2204724409448819,"duration":2.6010416666668164},{"name":"E5","midi":76,"time":139.81354166666665,"velocity":0.23622047244094488,"duration":2.437500000000142}],"controlChanges":{"64":[{"number":64,"time":105.22708333333333,"value":0.12598425196850394},{"number":64,"time":105.22812499999999,"value":0.12598425196850394},{"number":64,"time":105.23541666666665,"value":0.2755905511811024},{"number":64,"time":105.23645833333332,"value":0.2755905511811024},{"number":64,"time":105.24374999999998,"value":0.4015748031496063},{"number":64,"time":105.24374999999998,"value":0.4015748031496063},{"number":64,"time":105.25104166666664,"value":0.48031496062992124},{"number":64,"time":105.2520833333333,"value":0.48031496062992124},{"number":64,"time":105.26249999999997,"value":0.5118110236220472},{"number":64,"time":105.26354166666664,"value":0.5118110236220472},{"number":64,"time":105.33958333333331,"value":0.5433070866141733},{"number":64,"time":105.34062499999997,"value":0.5433070866141733},{"number":64,"time":105.36354166666663,"value":0.5748031496062992},{"number":64,"time":105.36354166666663,"value":0.5748031496062992},{"number":64,"time":105.40312499999996,"value":0.6062992125984252},{"number":64,"time":105.40416666666663,"value":0.6062992125984252},{"number":64,"time":105.4427083333333,"value":0.6377952755905512},{"number":64,"time":105.44374999999997,"value":0.6377952755905512},{"number":64,"time":106.19479166666666,"value":0.7322834645669292},{"number":64,"time":106.19583333333333,"value":0.7322834645669292},{"number":64,"time":107.01458333333333,"value":0.6535433070866141},{"number":64,"time":107.015625,"value":0.6535433070866141},{"number":64,"time":107.03020833333333,"value":0.6220472440944882},{"number":64,"time":107.03125,"value":0.6220472440944882},{"number":64,"time":107.04166666666667,"value":0.5905511811023622},{"number":64,"time":107.04270833333334,"value":0.5905511811023622},{"number":64,"time":107.05416666666667,"value":0.5590551181102362},{"number":64,"time":107.05520833333334,"value":0.5590551181102362},{"number":64,"time":107.06145833333333,"value":0.5275590551181102},{"number":64,"time":107.0625,"value":0.5275590551181102},{"number":64,"time":107.07083333333334,"value":0.49606299212598426},{"number":64,"time":107.071875,"value":0.49606299212598426},{"number":64,"time":107.08958333333334,"value":0.4015748031496063},{"number":64,"time":107.090625,"value":0.4015748031496063},{"number":64,"time":107.178125,"value":0.47244094488188976},{"number":64,"time":107.17916666666666,"value":0.47244094488188976},{"number":64,"time":107.21041666666666,"value":0.5039370078740157},{"number":64,"time":107.21041666666666,"value":0.5039370078740157},{"number":64,"time":107.234375,"value":0.5354330708661418},{"number":64,"time":107.234375,"value":0.5354330708661418},{"number":64,"time":107.25833333333334,"value":0.5669291338582677},{"number":64,"time":107.259375,"value":0.5669291338582677},{"number":64,"time":107.30625,"value":0.6062992125984252},{"number":64,"time":107.30729166666667,"value":0.6062992125984252},{"number":64,"time":107.40208333333335,"value":0.6377952755905512},{"number":64,"time":107.40208333333335,"value":0.6377952755905512},{"number":64,"time":108.80625000000002,"value":0.6062992125984252},{"number":64,"time":108.80625000000002,"value":0.6062992125984252},{"number":64,"time":108.82187500000002,"value":0.5669291338582677},{"number":64,"time":108.82187500000002,"value":0.5669291338582677},{"number":64,"time":108.83437500000002,"value":0.5196850393700787},{"number":64,"time":108.83541666666669,"value":0.5196850393700787},{"number":64,"time":108.84270833333335,"value":0.48031496062992124},{"number":64,"time":108.84375000000001,"value":0.48031496062992124},{"number":64,"time":108.85416666666669,"value":0.3543307086614173},{"number":64,"time":108.85520833333335,"value":0.3543307086614173},{"number":64,"time":108.87395833333335,"value":0.25196850393700787},{"number":64,"time":108.87500000000001,"value":0.25196850393700787},{"number":64,"time":108.96145833333334,"value":0.3543307086614173},{"number":64,"time":108.9625,"value":0.3543307086614173},{"number":64,"time":108.98541666666667,"value":0.48031496062992124},{"number":64,"time":108.9875,"value":0.48031496062992124},{"number":64,"time":109.00104166666667,"value":0.5118110236220472},{"number":64,"time":109.00208333333333,"value":0.5118110236220472},{"number":64,"time":109.02604166666666,"value":0.5433070866141733},{"number":64,"time":109.02708333333332,"value":0.5433070866141733},{"number":64,"time":109.06979166666666,"value":0.5748031496062992},{"number":64,"time":109.06979166666666,"value":0.5748031496062992},{"number":64,"time":109.10208333333333,"value":0.6062992125984252},{"number":64,"time":109.10312499999999,"value":0.6062992125984252},{"number":64,"time":109.12604166666665,"value":0.6377952755905512},{"number":64,"time":109.12708333333332,"value":0.6377952755905512},{"number":64,"time":109.22187499999997,"value":0.7322834645669292},{"number":64,"time":109.22291666666663,"value":0.7322834645669292},{"number":64,"time":109.32916666666662,"value":0.8267716535433071},{"number":64,"time":109.33020833333329,"value":0.8267716535433071},{"number":64,"time":110.5927083333333,"value":0.7322834645669292},{"number":64,"time":110.59374999999997,"value":0.7322834645669292},{"number":64,"time":110.61666666666663,"value":0.6456692913385826},{"number":64,"time":110.6177083333333,"value":0.6456692913385826},{"number":64,"time":110.62499999999996,"value":0.6141732283464567},{"number":64,"time":110.62604166666662,"value":0.6141732283464567},{"number":64,"time":110.63229166666662,"value":0.5826771653543307},{"number":64,"time":110.63333333333328,"value":0.5826771653543307},{"number":64,"time":110.64062499999994,"value":0.5354330708661418},{"number":64,"time":110.64166666666661,"value":0.5354330708661418},{"number":64,"time":110.6447916666666,"value":0.5039370078740157},{"number":64,"time":110.64583333333327,"value":0.5039370078740157},{"number":64,"time":110.64999999999993,"value":0.47244094488188976},{"number":64,"time":110.6510416666666,"value":0.47244094488188976},{"number":64,"time":110.65520833333326,"value":0.3779527559055118},{"number":64,"time":110.65624999999993,"value":0.3779527559055118},{"number":64,"time":110.66249999999992,"value":0.2283464566929134},{"number":64,"time":110.66249999999992,"value":0.2283464566929134},{"number":64,"time":110.66458333333325,"value":0.12598425196850394},{"number":64,"time":110.66562499999992,"value":0.12598425196850394},{"number":64,"time":110.67291666666658,"value":0},{"number":64,"time":110.67395833333325,"value":0},{"number":64,"time":110.78437499999991,"value":0.10236220472440945},{"number":64,"time":110.78541666666658,"value":0.10236220472440945},{"number":64,"time":110.79270833333324,"value":0.25196850393700787},{"number":64,"time":110.79270833333324,"value":0.25196850393700787},{"number":64,"time":110.80104166666658,"value":0.3779527559055118},{"number":64,"time":110.80208333333324,"value":0.3779527559055118},{"number":64,"time":110.8093749999999,"value":0.4881889763779528},{"number":64,"time":110.8093749999999,"value":0.4881889763779528},{"number":64,"time":110.81666666666656,"value":0.5196850393700787},{"number":64,"time":110.81770833333323,"value":0.5196850393700787},{"number":64,"time":110.82916666666657,"value":0.5511811023622047},{"number":64,"time":110.83020833333323,"value":0.5511811023622047},{"number":64,"time":110.88437499999989,"value":0.5826771653543307},{"number":64,"time":110.88541666666656,"value":0.5826771653543307},{"number":64,"time":110.92083333333322,"value":0.6141732283464567},{"number":64,"time":110.92187499999989,"value":0.6141732283464567},{"number":64,"time":110.95729166666655,"value":0.6456692913385826},{"number":64,"time":110.95729166666655,"value":0.6456692913385826},{"number":64,"time":111.30833333333322,"value":0.7559055118110236},{"number":64,"time":111.30937499999989,"value":0.7559055118110236},{"number":64,"time":112.43124999999985,"value":0.6614173228346457},{"number":64,"time":112.43229166666652,"value":0.6614173228346457},{"number":64,"time":112.44062499999986,"value":0.6299212598425197},{"number":64,"time":112.44166666666652,"value":0.6299212598425197},{"number":64,"time":112.45104166666653,"value":0.5905511811023622},{"number":64,"time":112.45208333333319,"value":0.5905511811023622},{"number":64,"time":112.46041666666653,"value":0.5511811023622047},{"number":64,"time":112.4614583333332,"value":0.5511811023622047},{"number":64,"time":112.4645833333332,"value":0.5196850393700787},{"number":64,"time":112.46562499999986,"value":0.5196850393700787},{"number":64,"time":112.46979166666652,"value":0.4881889763779528},{"number":64,"time":112.47083333333319,"value":0.4881889763779528},{"number":64,"time":112.47708333333318,"value":0.3543307086614173},{"number":64,"time":112.47812499999985,"value":0.3543307086614173},{"number":64,"time":112.48333333333318,"value":0.2047244094488189},{"number":64,"time":112.48437499999984,"value":0.2047244094488189},{"number":64,"time":112.4916666666665,"value":0.07874015748031496},{"number":64,"time":112.4916666666665,"value":0.07874015748031496},{"number":64,"time":112.49895833333316,"value":0},{"number":64,"time":112.49999999999983,"value":0},{"number":64,"time":112.59270833333316,"value":0.12598425196850394},{"number":64,"time":112.59270833333316,"value":0.12598425196850394},{"number":64,"time":112.59999999999982,"value":0.2755905511811024},{"number":64,"time":112.60104166666649,"value":0.2755905511811024},{"number":64,"time":112.60833333333315,"value":0.4015748031496063},{"number":64,"time":112.60937499999982,"value":0.4015748031496063},{"number":64,"time":112.61145833333315,"value":0.47244094488188976},{"number":64,"time":112.61249999999981,"value":0.47244094488188976},{"number":64,"time":112.61979166666647,"value":0.5039370078740157},{"number":64,"time":112.62083333333314,"value":0.5039370078740157},{"number":64,"time":112.62708333333313,"value":0.5354330708661418},{"number":64,"time":112.6281249999998,"value":0.5354330708661418},{"number":64,"time":112.65208333333314,"value":0.5669291338582677},{"number":64,"time":112.6531249999998,"value":0.5669291338582677},{"number":64,"time":112.7062499999998,"value":0.5984251968503937},{"number":64,"time":112.70729166666646,"value":0.5984251968503937},{"number":64,"time":112.73541666666647,"value":0.6377952755905512},{"number":64,"time":112.73645833333313,"value":0.6377952755905512},{"number":64,"time":112.80833333333314,"value":0.7322834645669292},{"number":64,"time":112.8093749999998,"value":0.7322834645669292},{"number":64,"time":112.93541666666647,"value":0.8267716535433071},{"number":64,"time":112.93645833333314,"value":0.8267716535433071},{"number":64,"time":114.26249999999979,"value":0.7322834645669292},{"number":64,"time":114.26354166666646,"value":0.7322834645669292},{"number":64,"time":114.27499999999979,"value":0.6456692913385826},{"number":64,"time":114.27604166666646,"value":0.6456692913385826},{"number":64,"time":114.28229166666645,"value":0.6062992125984252},{"number":64,"time":114.28333333333312,"value":0.6062992125984252},{"number":64,"time":114.29062499999978,"value":0.5669291338582677},{"number":64,"time":114.29166666666644,"value":0.5669291338582677},{"number":64,"time":114.2989583333331,"value":0.5118110236220472},{"number":64,"time":114.29999999999977,"value":0.5118110236220472},{"number":64,"time":114.30312499999977,"value":0.47244094488188976},{"number":64,"time":114.30416666666643,"value":0.47244094488188976},{"number":64,"time":114.31041666666643,"value":0.33070866141732286},{"number":64,"time":114.31145833333309,"value":0.33070866141732286},{"number":64,"time":114.31874999999975,"value":0.18110236220472442},{"number":64,"time":114.31979166666642,"value":0.18110236220472442},{"number":64,"time":114.32708333333308,"value":0.07874015748031496},{"number":64,"time":114.32812499999974,"value":0.07874015748031496},{"number":64,"time":114.33854166666642,"value":0},{"number":64,"time":114.33854166666642,"value":0},{"number":64,"time":114.41874999999975,"value":0.14960629921259844},{"number":64,"time":114.41979166666641,"value":0.14960629921259844},{"number":64,"time":114.42708333333307,"value":0.2755905511811024},{"number":64,"time":114.42708333333307,"value":0.2755905511811024},{"number":64,"time":114.43437499999973,"value":0.4015748031496063},{"number":64,"time":114.4354166666664,"value":0.4015748031496063},{"number":64,"time":114.4385416666664,"value":0.47244094488188976},{"number":64,"time":114.43958333333306,"value":0.47244094488188976},{"number":64,"time":114.44687499999972,"value":0.5039370078740157},{"number":64,"time":114.44791666666639,"value":0.5039370078740157},{"number":64,"time":114.45416666666638,"value":0.5354330708661418},{"number":64,"time":114.45520833333305,"value":0.5354330708661418},{"number":64,"time":114.48229166666638,"value":0.5748031496062992},{"number":64,"time":114.48333333333305,"value":0.5748031496062992},{"number":64,"time":114.52708333333305,"value":0.6062992125984252},{"number":64,"time":114.52708333333305,"value":0.6062992125984252},{"number":64,"time":114.57916666666638,"value":0.6377952755905512},{"number":64,"time":114.57916666666638,"value":0.6377952755905512},{"number":64,"time":114.69895833333304,"value":0.7322834645669292},{"number":64,"time":114.6999999999997,"value":0.7322834645669292},{"number":64,"time":115.317708333333,"value":0.8267716535433071},{"number":64,"time":115.31874999999967,"value":0.8267716535433071},{"number":64,"time":115.96979166666632,"value":0.7322834645669292},{"number":64,"time":115.97083333333299,"value":0.7322834645669292},{"number":64,"time":115.98124999999966,"value":0.6456692913385826},{"number":64,"time":115.98229166666633,"value":0.6456692913385826},{"number":64,"time":115.98958333333299,"value":0.6062992125984252},{"number":64,"time":115.99062499999965,"value":0.6062992125984252},{"number":64,"time":115.99791666666631,"value":0.5748031496062992},{"number":64,"time":115.99895833333298,"value":0.5748031496062992},{"number":64,"time":116.00520833333297,"value":0.5275590551181102},{"number":64,"time":116.00624999999964,"value":0.5275590551181102},{"number":64,"time":116.0104166666663,"value":0.49606299212598426},{"number":64,"time":116.0104166666663,"value":0.49606299212598426},{"number":64,"time":116.01770833333296,"value":0.3779527559055118},{"number":64,"time":116.01874999999963,"value":0.3779527559055118},{"number":64,"time":116.02604166666629,"value":0.25196850393700787},{"number":64,"time":116.02708333333295,"value":0.25196850393700787},{"number":64,"time":116.03749999999962,"value":0.14960629921259844},{"number":64,"time":116.03749999999962,"value":0.14960629921259844},{"number":64,"time":116.1104166666663,"value":0.25196850393700787},{"number":64,"time":116.11145833333296,"value":0.25196850393700787},{"number":64,"time":116.11770833333296,"value":0.3543307086614173},{"number":64,"time":116.11874999999962,"value":0.3543307086614173},{"number":64,"time":116.1291666666663,"value":0.48031496062992124},{"number":64,"time":116.13020833333296,"value":0.48031496062992124},{"number":64,"time":116.13749999999962,"value":0.5118110236220472},{"number":64,"time":116.13749999999962,"value":0.5118110236220472},{"number":64,"time":116.14999999999962,"value":0.5433070866141733},{"number":64,"time":116.14999999999962,"value":0.5433070866141733},{"number":64,"time":116.17395833333296,"value":0.5748031496062992},{"number":64,"time":116.17499999999963,"value":0.5748031496062992},{"number":64,"time":116.20208333333295,"value":0.6141732283464567},{"number":64,"time":116.20312499999962,"value":0.6141732283464567},{"number":64,"time":116.24583333333295,"value":0.6456692913385826},{"number":64,"time":116.24583333333295,"value":0.6456692913385826},{"number":64,"time":116.32916666666627,"value":0.7559055118110236},{"number":64,"time":116.33020833333293,"value":0.7559055118110236},{"number":64,"time":117.24583333333288,"value":0.8503937007874016},{"number":64,"time":117.24687499999955,"value":0.8503937007874016},{"number":64,"time":117.6708333333329,"value":0.7322834645669292},{"number":64,"time":117.67187499999956,"value":0.7322834645669292},{"number":64,"time":117.68333333333288,"value":0.6377952755905512},{"number":64,"time":117.68437499999955,"value":0.6377952755905512},{"number":64,"time":117.69062499999954,"value":0.5984251968503937},{"number":64,"time":117.69062499999954,"value":0.5984251968503937},{"number":64,"time":117.6979166666662,"value":0.5511811023622047},{"number":64,"time":117.69895833333287,"value":0.5511811023622047},{"number":64,"time":117.70208333333287,"value":0.5118110236220472},{"number":64,"time":117.70208333333287,"value":0.5118110236220472},{"number":64,"time":117.70624999999953,"value":0.47244094488188976},{"number":64,"time":117.7072916666662,"value":0.47244094488188976},{"number":64,"time":117.71145833333286,"value":0.3779527559055118},{"number":64,"time":117.71145833333286,"value":0.3779527559055118},{"number":64,"time":117.71562499999952,"value":0.2755905511811024},{"number":64,"time":117.71562499999952,"value":0.2755905511811024},{"number":64,"time":117.72083333333285,"value":0.14960629921259844},{"number":64,"time":117.72187499999951,"value":0.14960629921259844},{"number":64,"time":117.72395833333285,"value":0.05511811023622047},{"number":64,"time":117.72499999999951,"value":0.05511811023622047},{"number":64,"time":117.72812499999951,"value":0},{"number":64,"time":117.72916666666617,"value":0},{"number":64,"time":117.88020833333285,"value":0.10236220472440945},{"number":64,"time":117.88124999999951,"value":0.10236220472440945},{"number":64,"time":117.88958333333285,"value":0.25196850393700787},{"number":64,"time":117.89062499999952,"value":0.25196850393700787},{"number":64,"time":117.89791666666618,"value":0.3779527559055118},{"number":64,"time":117.89791666666618,"value":0.3779527559055118},{"number":64,"time":117.90520833333284,"value":0.48031496062992124},{"number":64,"time":117.9062499999995,"value":0.48031496062992124},{"number":64,"time":117.9124999999995,"value":0.5118110236220472},{"number":64,"time":117.91354166666616,"value":0.5118110236220472},{"number":64,"time":117.9406249999995,"value":0.5433070866141733},{"number":64,"time":117.94166666666617,"value":0.5433070866141733},{"number":64,"time":117.97291666666617,"value":0.5748031496062992},{"number":64,"time":117.97395833333283,"value":0.5748031496062992},{"number":64,"time":118.00104166666615,"value":0.6062992125984252},{"number":64,"time":118.00208333333282,"value":0.6062992125984252},{"number":64,"time":118.01666666666615,"value":0.6377952755905512},{"number":64,"time":118.01770833333282,"value":0.6377952755905512},{"number":64,"time":118.04895833333282,"value":0.7322834645669292},{"number":64,"time":118.04999999999949,"value":0.7322834645669292},{"number":64,"time":118.16145833333282,"value":0.8267716535433071},{"number":64,"time":118.16145833333282,"value":0.8267716535433071},{"number":64,"time":119.49270833333279,"value":0.7086614173228346},{"number":64,"time":119.49374999999945,"value":0.7086614173228346},{"number":64,"time":119.49687499999945,"value":0.6535433070866141},{"number":64,"time":119.49791666666611,"value":0.6535433070866141},{"number":64,"time":119.50208333333278,"value":0.6220472440944882},{"number":64,"time":119.50312499999944,"value":0.6220472440944882},{"number":64,"time":119.50937499999944,"value":0.5748031496062992},{"number":64,"time":119.5104166666661,"value":0.5748031496062992},{"number":64,"time":119.51249999999943,"value":0.5354330708661418},{"number":64,"time":119.51249999999943,"value":0.5354330708661418},{"number":64,"time":119.51770833333276,"value":0.4881889763779528},{"number":64,"time":119.51874999999943,"value":0.4881889763779528},{"number":64,"time":119.52291666666609,"value":0.4015748031496063},{"number":64,"time":119.52395833333276,"value":0.4015748031496063},{"number":64,"time":119.52708333333275,"value":0.2755905511811024},{"number":64,"time":119.52812499999942,"value":0.2755905511811024},{"number":64,"time":119.53124999999942,"value":0.12598425196850394},{"number":64,"time":119.53229166666608,"value":0.12598425196850394},{"number":64,"time":119.53541666666608,"value":0},{"number":64,"time":119.53541666666608,"value":0},{"number":64,"time":119.6562499999994,"value":0.10236220472440945},{"number":64,"time":119.65729166666607,"value":0.10236220472440945},{"number":64,"time":119.66145833333273,"value":0.2047244094488189},{"number":64,"time":119.66145833333273,"value":0.2047244094488189},{"number":64,"time":119.66874999999939,"value":0.3543307086614173},{"number":64,"time":119.66979166666606,"value":0.3543307086614173},{"number":64,"time":119.67604166666605,"value":0.48031496062992124},{"number":64,"time":119.67708333333272,"value":0.48031496062992124},{"number":64,"time":119.68437499999938,"value":0.5196850393700787},{"number":64,"time":119.68437499999938,"value":0.5196850393700787},{"number":64,"time":119.69687499999938,"value":0.5511811023622047},{"number":64,"time":119.69791666666605,"value":0.5511811023622047},{"number":64,"time":119.7208333333327,"value":0.5826771653543307},{"number":64,"time":119.7208333333327,"value":0.5826771653543307},{"number":64,"time":119.74791666666604,"value":0.6141732283464567},{"number":64,"time":119.74895833333271,"value":0.6141732283464567},{"number":64,"time":119.77291666666603,"value":0.6535433070866141},{"number":64,"time":119.77291666666603,"value":0.6535433070866141},{"number":64,"time":119.79687499999936,"value":0.7559055118110236},{"number":64,"time":119.79687499999936,"value":0.7559055118110236},{"number":64,"time":119.86458333333267,"value":0.8503937007874016},{"number":64,"time":119.86562499999934,"value":0.8503937007874016},{"number":64,"time":121.21145833333266,"value":0.7322834645669292},{"number":64,"time":121.21145833333266,"value":0.7322834645669292},{"number":64,"time":121.22083333333266,"value":0.6377952755905512},{"number":64,"time":121.22187499999933,"value":0.6377952755905512},{"number":64,"time":121.22708333333266,"value":0.5905511811023622},{"number":64,"time":121.22812499999932,"value":0.5905511811023622},{"number":64,"time":121.23645833333266,"value":0.5354330708661418},{"number":64,"time":121.23645833333266,"value":0.5354330708661418},{"number":64,"time":121.24062499999933,"value":0.49606299212598426},{"number":64,"time":121.24166666666599,"value":0.49606299212598426},{"number":64,"time":121.24687499999932,"value":0.3543307086614173},{"number":64,"time":121.24791666666599,"value":0.3543307086614173},{"number":64,"time":121.25520833333265,"value":0.2047244094488189},{"number":64,"time":121.25624999999931,"value":0.2047244094488189},{"number":64,"time":121.26354166666597,"value":0.07874015748031496},{"number":64,"time":121.26458333333264,"value":0.07874015748031496},{"number":64,"time":121.3156249999993,"value":0},{"number":64,"time":121.31666666666597,"value":0},{"number":64,"time":121.32708333333264,"value":0.10236220472440945},{"number":64,"time":121.3281249999993,"value":0.10236220472440945},{"number":64,"time":121.33541666666596,"value":0.2047244094488189},{"number":64,"time":121.33645833333263,"value":0.2047244094488189},{"number":64,"time":121.34374999999929,"value":0.33070866141732286},{"number":64,"time":121.34479166666596,"value":0.33070866141732286},{"number":64,"time":121.35104166666595,"value":0.44881889763779526},{"number":64,"time":121.35312499999928,"value":0.44881889763779526},{"number":64,"time":121.35520833333261,"value":0.4881889763779528},{"number":64,"time":121.35624999999928,"value":0.4881889763779528},{"number":64,"time":121.36354166666594,"value":0.5196850393700787},{"number":64,"time":121.3645833333326,"value":0.5196850393700787},{"number":64,"time":121.37187499999926,"value":0.5511811023622047},{"number":64,"time":121.37187499999926,"value":0.5511811023622047},{"number":64,"time":121.39166666666593,"value":0.5826771653543307},{"number":64,"time":121.39270833333259,"value":0.5826771653543307},{"number":64,"time":121.41145833333259,"value":0.6141732283464567},{"number":64,"time":121.41145833333259,"value":0.6141732283464567},{"number":64,"time":121.42812499999926,"value":0.6535433070866141},{"number":64,"time":121.42916666666592,"value":0.6535433070866141},{"number":64,"time":121.45208333333258,"value":0.7795275590551181},{"number":64,"time":121.45312499999925,"value":0.7795275590551181},{"number":64,"time":122.13541666666589,"value":0.889763779527559},{"number":64,"time":122.13645833333256,"value":0.889763779527559},{"number":64,"time":122.95833333333255,"value":0.7559055118110236},{"number":64,"time":122.95833333333255,"value":0.7559055118110236},{"number":64,"time":122.96770833333255,"value":0.6535433070866141},{"number":64,"time":122.96874999999922,"value":0.6535433070866141},{"number":64,"time":122.97187499999922,"value":0.6220472440944882},{"number":64,"time":122.97291666666588,"value":0.6220472440944882},{"number":64,"time":122.97916666666588,"value":0.5669291338582677},{"number":64,"time":122.98020833333254,"value":0.5669291338582677},{"number":64,"time":122.98333333333254,"value":0.5275590551181102},{"number":64,"time":122.98333333333254,"value":0.5275590551181102},{"number":64,"time":122.98854166666587,"value":0.4881889763779528},{"number":64,"time":122.98958333333253,"value":0.4881889763779528},{"number":64,"time":122.9937499999992,"value":0.4015748031496063},{"number":64,"time":122.9937499999992,"value":0.4015748031496063},{"number":64,"time":122.99687499999919,"value":0.2755905511811024},{"number":64,"time":122.99791666666586,"value":0.2755905511811024},{"number":64,"time":123.00104166666586,"value":0.12598425196850394},{"number":64,"time":123.00208333333252,"value":0.12598425196850394},{"number":64,"time":123.00624999999918,"value":0},{"number":64,"time":123.00729166666585,"value":0},{"number":64,"time":123.13958333333251,"value":0.14960629921259844},{"number":64,"time":123.14062499999918,"value":0.14960629921259844},{"number":64,"time":123.14687499999917,"value":0.33070866141732286},{"number":64,"time":123.14791666666584,"value":0.33070866141732286},{"number":64,"time":123.1552083333325,"value":0.48031496062992124},{"number":64,"time":123.1552083333325,"value":0.48031496062992124},{"number":64,"time":123.16354166666584,"value":0.5275590551181102},{"number":64,"time":123.1645833333325,"value":0.5275590551181102},{"number":64,"time":123.17499999999917,"value":0.5590551181102362},{"number":64,"time":123.17604166666584,"value":0.5590551181102362},{"number":64,"time":123.19479166666584,"value":0.5905511811023622},{"number":64,"time":123.1958333333325,"value":0.5905511811023622},{"number":64,"time":123.2114583333325,"value":0.6220472440944882},{"number":64,"time":123.2114583333325,"value":0.6220472440944882},{"number":64,"time":123.2302083333325,"value":0.6535433070866141},{"number":64,"time":123.23124999999916,"value":0.6535433070866141},{"number":64,"time":123.2520833333325,"value":0.7559055118110236},{"number":64,"time":123.25312499999916,"value":0.7559055118110236},{"number":64,"time":123.30416666666582,"value":0.8503937007874016},{"number":64,"time":123.30520833333249,"value":0.8503937007874016},{"number":64,"time":124.72499999999911,"value":1},{"number":64,"time":124.72604166666578,"value":1},{"number":64,"time":124.80520833333244,"value":0.8661417322834646},{"number":64,"time":124.80624999999911,"value":0.8661417322834646},{"number":64,"time":124.81770833333245,"value":0.7559055118110236},{"number":64,"time":124.81874999999911,"value":0.7559055118110236},{"number":64,"time":124.82604166666577,"value":0.6377952755905512},{"number":64,"time":124.82708333333244,"value":0.6377952755905512},{"number":64,"time":124.82916666666577,"value":0.6062992125984252},{"number":64,"time":124.83020833333244,"value":0.6062992125984252},{"number":64,"time":124.83541666666576,"value":0.5748031496062992},{"number":64,"time":124.83645833333243,"value":0.5748031496062992},{"number":64,"time":124.83854166666576,"value":0.5354330708661418},{"number":64,"time":124.83958333333243,"value":0.5354330708661418},{"number":64,"time":124.84479166666576,"value":0.4881889763779528},{"number":64,"time":124.84479166666576,"value":0.4881889763779528},{"number":64,"time":124.84895833333242,"value":0.3779527559055118},{"number":64,"time":124.84895833333242,"value":0.3779527559055118},{"number":64,"time":124.85312499999908,"value":0.25196850393700787},{"number":64,"time":124.85416666666575,"value":0.25196850393700787},{"number":64,"time":124.85729166666574,"value":0.10236220472440945},{"number":64,"time":124.85833333333241,"value":0.10236220472440945},{"number":64,"time":124.86249999999907,"value":0},{"number":64,"time":124.86354166666574,"value":0},{"number":64,"time":124.96145833333242,"value":0.18110236220472442},{"number":64,"time":124.96249999999908,"value":0.18110236220472442},{"number":64,"time":124.96874999999908,"value":0.3779527559055118},{"number":64,"time":124.96979166666574,"value":0.3779527559055118},{"number":64,"time":124.97291666666574,"value":0.48031496062992124},{"number":64,"time":124.9739583333324,"value":0.48031496062992124},{"number":64,"time":124.97916666666573,"value":0.5118110236220472},{"number":64,"time":124.97916666666573,"value":0.5118110236220472},{"number":64,"time":124.98229166666573,"value":0.5433070866141733},{"number":64,"time":124.9833333333324,"value":0.5433070866141733},{"number":64,"time":124.99374999999907,"value":0.5826771653543307},{"number":64,"time":124.99374999999907,"value":0.5826771653543307},{"number":64,"time":125.01354166666573,"value":0.6220472440944882},{"number":64,"time":125.0145833333324,"value":0.6220472440944882},{"number":64,"time":125.03749999999906,"value":0.6535433070866141},{"number":64,"time":125.03854166666572,"value":0.6535433070866141},{"number":64,"time":125.09479166666571,"value":0.7795275590551181},{"number":64,"time":125.09583333333238,"value":0.7795275590551181},{"number":64,"time":125.82499999999901,"value":0.889763779527559},{"number":64,"time":125.82604166666567,"value":0.889763779527559},{"number":64,"time":126.63229166666568,"value":0.7795275590551181},{"number":64,"time":126.63333333333235,"value":0.7795275590551181},{"number":64,"time":126.640624999999,"value":0.6614173228346457},{"number":64,"time":126.640624999999,"value":0.6614173228346457},{"number":64,"time":126.64791666666567,"value":0.6141732283464567},{"number":64,"time":126.64895833333233,"value":0.6141732283464567},{"number":64,"time":126.65624999999899,"value":0.5748031496062992},{"number":64,"time":126.65729166666566,"value":0.5748031496062992},{"number":64,"time":126.66354166666565,"value":0.5433070866141733},{"number":64,"time":126.66354166666565,"value":0.5433070866141733},{"number":64,"time":126.66874999999898,"value":0.5118110236220472},{"number":64,"time":126.66979166666565,"value":0.5118110236220472},{"number":64,"time":126.67291666666564,"value":0.47244094488188976},{"number":64,"time":126.67395833333231,"value":0.47244094488188976},{"number":64,"time":126.67812499999897,"value":0.3779527559055118},{"number":64,"time":126.67812499999897,"value":0.3779527559055118},{"number":64,"time":126.6833333333323,"value":0.2283464566929134},{"number":64,"time":126.6833333333323,"value":0.2283464566929134},{"number":64,"time":126.6895833333323,"value":0.10236220472440945},{"number":64,"time":126.69062499999896,"value":0.10236220472440945},{"number":64,"time":126.70833333333229,"value":0},{"number":64,"time":126.70833333333229,"value":0},{"number":64,"time":126.75624999999896,"value":0.10236220472440945},{"number":64,"time":126.75729166666562,"value":0.10236220472440945},{"number":64,"time":126.76458333333228,"value":0.2283464566929134},{"number":64,"time":126.76562499999895,"value":0.2283464566929134},{"number":64,"time":126.77187499999894,"value":0.3543307086614173},{"number":64,"time":126.77291666666561,"value":0.3543307086614173},{"number":64,"time":126.78020833333227,"value":0.47244094488188976},{"number":64,"time":126.78124999999893,"value":0.47244094488188976},{"number":64,"time":126.7885416666656,"value":0.5196850393700787},{"number":64,"time":126.78958333333226,"value":0.5196850393700787},{"number":64,"time":126.79999999999893,"value":0.5511811023622047},{"number":64,"time":126.8010416666656,"value":0.5511811023622047},{"number":64,"time":126.82395833333226,"value":0.5826771653543307},{"number":64,"time":126.82499999999892,"value":0.5826771653543307},{"number":64,"time":126.86145833333225,"value":0.6141732283464567},{"number":64,"time":126.86249999999892,"value":0.6141732283464567},{"number":64,"time":126.88854166666559,"value":0.6535433070866141},{"number":64,"time":126.88958333333225,"value":0.6535433070866141},{"number":64,"time":126.94895833333224,"value":0.7559055118110236},{"number":64,"time":126.94999999999891,"value":0.7559055118110236},{"number":64,"time":127.52395833333225,"value":0.8503937007874016},{"number":64,"time":127.52395833333225,"value":0.8503937007874016},{"number":64,"time":128.50833333333225,"value":0.7559055118110236},{"number":64,"time":128.50937499999893,"value":0.7559055118110236},{"number":64,"time":128.5166666666656,"value":0.6535433070866141},{"number":64,"time":128.5166666666656,"value":0.6535433070866141},{"number":64,"time":128.52395833333227,"value":0.6062992125984252},{"number":64,"time":128.52499999999895,"value":0.6062992125984252},{"number":64,"time":128.53229166666563,"value":0.5590551181102362},{"number":64,"time":128.5333333333323,"value":0.5590551181102362},{"number":64,"time":128.53645833333232,"value":0.5196850393700787},{"number":64,"time":128.537499999999,"value":0.5196850393700787},{"number":64,"time":128.540624999999,"value":0.48031496062992124},{"number":64,"time":128.5416666666657,"value":0.48031496062992124},{"number":64,"time":128.54583333333235,"value":0.3779527559055118},{"number":64,"time":128.54687499999903,"value":0.3779527559055118},{"number":64,"time":128.5510416666657,"value":0.25196850393700787},{"number":64,"time":128.55208333333238,"value":0.25196850393700787},{"number":64,"time":128.5552083333324,"value":0.10236220472440945},{"number":64,"time":128.55624999999907,"value":0.10236220472440945},{"number":64,"time":128.5583333333324,"value":0},{"number":64,"time":128.55937499999908,"value":0},{"number":64,"time":128.68437499999908,"value":0.10236220472440945},{"number":64,"time":128.68541666666576,"value":0.10236220472440945},{"number":64,"time":128.68854166666577,"value":0.2047244094488189},{"number":64,"time":128.68854166666577,"value":0.2047244094488189},{"number":64,"time":128.69583333333244,"value":0.3779527559055118},{"number":64,"time":128.69687499999912,"value":0.3779527559055118},{"number":64,"time":128.69999999999914,"value":0.47244094488188976},{"number":64,"time":128.69999999999914,"value":0.47244094488188976},{"number":64,"time":128.70833333333246,"value":0.5275590551181102},{"number":64,"time":128.70937499999914,"value":0.5275590551181102},{"number":64,"time":128.72395833333246,"value":0.5590551181102362},{"number":64,"time":128.72499999999914,"value":0.5590551181102362},{"number":64,"time":128.7604166666658,"value":0.5905511811023622},{"number":64,"time":128.76145833333248,"value":0.5905511811023622},{"number":64,"time":128.80416666666582,"value":0.6220472440944882},{"number":64,"time":128.8052083333325,"value":0.6220472440944882},{"number":64,"time":128.82812499999918,"value":0.6535433070866141},{"number":64,"time":128.82916666666586,"value":0.6535433070866141},{"number":64,"time":128.95208333333252,"value":0.7559055118110236},{"number":64,"time":128.9531249999992,"value":0.7559055118110236},{"number":64,"time":129.11458333333255,"value":0.8503937007874016},{"number":64,"time":129.11666666666588,"value":0.8503937007874016},{"number":64,"time":130.69479166666588,"value":0.7322834645669292},{"number":64,"time":130.69583333333256,"value":0.7322834645669292},{"number":64,"time":130.70312499999923,"value":0.6456692913385826},{"number":64,"time":130.7041666666659,"value":0.6456692913385826},{"number":64,"time":130.7114583333326,"value":0.6062992125984252},{"number":64,"time":130.71249999999927,"value":0.6062992125984252},{"number":64,"time":130.71874999999926,"value":0.5669291338582677},{"number":64,"time":130.71979166666594,"value":0.5669291338582677},{"number":64,"time":130.72291666666595,"value":0.5354330708661418},{"number":64,"time":130.72395833333263,"value":0.5354330708661418},{"number":64,"time":130.73020833333263,"value":0.49606299212598426},{"number":64,"time":130.7312499999993,"value":0.49606299212598426},{"number":64,"time":130.73645833333265,"value":0.3543307086614173},{"number":64,"time":130.73645833333265,"value":0.3543307086614173},{"number":64,"time":130.74270833333264,"value":0.18110236220472442},{"number":64,"time":130.74374999999932,"value":0.18110236220472442},{"number":64,"time":130.751041666666,"value":0.031496062992125984},{"number":64,"time":130.751041666666,"value":0.031496062992125984},{"number":64,"time":130.75520833333266,"value":0},{"number":64,"time":130.75624999999934,"value":0},{"number":64,"time":130.85520833333268,"value":0.12598425196850394},{"number":64,"time":130.85624999999936,"value":0.12598425196850394},{"number":64,"time":130.86249999999936,"value":0.2992125984251969},{"number":64,"time":130.86354166666604,"value":0.2992125984251969},{"number":64,"time":130.8708333333327,"value":0.44881889763779526},{"number":64,"time":130.8708333333327,"value":0.44881889763779526},{"number":64,"time":130.87604166666605,"value":0.4881889763779528},{"number":64,"time":130.87604166666605,"value":0.4881889763779528},{"number":64,"time":130.88333333333273,"value":0.5354330708661418},{"number":64,"time":130.8843749999994,"value":0.5354330708661418},{"number":64,"time":130.90312499999942,"value":0.5669291338582677},{"number":64,"time":130.9041666666661,"value":0.5669291338582677},{"number":64,"time":130.93124999999944,"value":0.5984251968503937},{"number":64,"time":130.93229166666612,"value":0.5984251968503937},{"number":64,"time":130.99062499999945,"value":0.6299212598425197},{"number":64,"time":130.99166666666613,"value":0.6299212598425197},{"number":64,"time":131.13541666666615,"value":0.7322834645669292},{"number":64,"time":131.13541666666615,"value":0.7322834645669292},{"number":64,"time":132.8062499999995,"value":0.6456692913385826},{"number":64,"time":132.80729166666617,"value":0.6456692913385826},{"number":64,"time":132.81354166666617,"value":0.6141732283464567},{"number":64,"time":132.81458333333285,"value":0.6141732283464567},{"number":64,"time":132.82187499999952,"value":0.5826771653543307},{"number":64,"time":132.8229166666662,"value":0.5826771653543307},{"number":64,"time":132.83020833333288,"value":0.5511811023622047},{"number":64,"time":132.83124999999956,"value":0.5511811023622047},{"number":64,"time":132.8333333333329,"value":0.5196850393700787},{"number":64,"time":132.83541666666622,"value":0.5196850393700787},{"number":64,"time":132.83854166666623,"value":0.4881889763779528},{"number":64,"time":132.8395833333329,"value":0.4881889763779528},{"number":64,"time":132.8458333333329,"value":0.3543307086614173},{"number":64,"time":132.8458333333329,"value":0.3543307086614173},{"number":64,"time":132.85416666666623,"value":0.2283464566929134},{"number":64,"time":132.8552083333329,"value":0.2283464566929134},{"number":64,"time":132.8614583333329,"value":0.12598425196850394},{"number":64,"time":132.86249999999959,"value":0.12598425196850394},{"number":64,"time":132.87395833333292,"value":0.031496062992125984},{"number":64,"time":132.8749999999996,"value":0.031496062992125984},{"number":64,"time":132.88229166666628,"value":0},{"number":64,"time":132.88333333333296,"value":0},{"number":64,"time":132.96145833333296,"value":0.14960629921259844},{"number":64,"time":132.96249999999964,"value":0.14960629921259844},{"number":64,"time":132.9697916666663,"value":0.25196850393700787},{"number":64,"time":132.970833333333,"value":0.25196850393700787},{"number":64,"time":132.97812499999966,"value":0.3779527559055118},{"number":64,"time":132.97812499999966,"value":0.3779527559055118},{"number":64,"time":132.986458333333,"value":0.47244094488188976},{"number":64,"time":132.98749999999967,"value":0.47244094488188976},{"number":64,"time":132.99374999999966,"value":0.5039370078740157},{"number":64,"time":132.99479166666634,"value":0.5039370078740157},{"number":64,"time":133.00937499999966,"value":0.5433070866141733},{"number":64,"time":133.011458333333,"value":0.5433070866141733},{"number":64,"time":133.0937499999997,"value":0.5748031496062992},{"number":64,"time":133.09479166666637,"value":0.5748031496062992},{"number":64,"time":133.13020833333303,"value":0.6062992125984252},{"number":64,"time":133.1312499999997,"value":0.6062992125984252},{"number":64,"time":133.52604166666637,"value":0.6377952755905512},{"number":64,"time":133.52708333333305,"value":0.6377952755905512},{"number":64,"time":135.1281249999997,"value":0.6062992125984252},{"number":64,"time":135.12916666666638,"value":0.6062992125984252},{"number":64,"time":135.2687499999997,"value":0.5748031496062992},{"number":64,"time":135.26979166666638,"value":0.5748031496062992},{"number":64,"time":135.29583333333304,"value":0.5433070866141733},{"number":64,"time":135.29687499999972,"value":0.5433070866141733},{"number":64,"time":135.31145833333304,"value":0.5118110236220472},{"number":64,"time":135.31249999999972,"value":0.5118110236220472},{"number":64,"time":135.32395833333305,"value":0.48031496062992124},{"number":64,"time":135.32499999999973,"value":0.48031496062992124},{"number":64,"time":135.34895833333306,"value":0.3779527559055118},{"number":64,"time":135.34999999999974,"value":0.3779527559055118},{"number":64,"time":135.36770833333307,"value":0.2755905511811024},{"number":64,"time":135.36770833333307,"value":0.2755905511811024},{"number":64,"time":135.3854166666664,"value":0.18110236220472442},{"number":64,"time":135.3854166666664,"value":0.18110236220472442},{"number":64,"time":135.39374999999973,"value":0.07874015748031496},{"number":64,"time":135.39583333333306,"value":0.07874015748031496},{"number":64,"time":135.40312499999973,"value":0},{"number":64,"time":135.40312499999973,"value":0},{"number":64,"time":136.5322916666664,"value":0.10236220472440945},{"number":64,"time":136.5322916666664,"value":0.10236220472440945},{"number":64,"time":136.54374999999973,"value":0.2047244094488189},{"number":64,"time":136.54374999999973,"value":0.2047244094488189},{"number":64,"time":136.56458333333308,"value":0.3543307086614173},{"number":64,"time":136.56562499999976,"value":0.3543307086614173},{"number":64,"time":136.6083333333331,"value":0.48031496062992124},{"number":64,"time":136.60937499999977,"value":0.48031496062992124},{"number":64,"time":136.6364583333331,"value":0.5118110236220472},{"number":64,"time":136.6374999999998,"value":0.5118110236220472},{"number":64,"time":136.6718749999998,"value":0.5433070866141733},{"number":64,"time":136.67291666666648,"value":0.5433070866141733},{"number":64,"time":136.7437499999998,"value":0.5748031496062992},{"number":64,"time":136.7437499999998,"value":0.5748031496062992},{"number":64,"time":136.86041666666648,"value":0.6062992125984252},{"number":64,"time":136.86145833333316,"value":0.6062992125984252},{"number":64,"time":137.63124999999985,"value":0.5748031496062992},{"number":64,"time":137.63229166666653,"value":0.5748031496062992},{"number":64,"time":137.64791666666653,"value":0.5433070866141733},{"number":64,"time":137.6489583333332,"value":0.5433070866141733},{"number":64,"time":137.65416666666655,"value":0.5118110236220472},{"number":64,"time":137.6562499999999,"value":0.5118110236220472},{"number":64,"time":137.66249999999988,"value":0.48031496062992124},{"number":64,"time":137.66354166666656,"value":0.48031496062992124},{"number":64,"time":137.67916666666656,"value":0.3543307086614173},{"number":64,"time":137.68020833333324,"value":0.3543307086614173},{"number":64,"time":137.7999999999999,"value":0.47244094488188976},{"number":64,"time":137.80104166666658,"value":0.47244094488188976},{"number":64,"time":137.85416666666657,"value":0.5039370078740157},{"number":64,"time":137.85520833333325,"value":0.5039370078740157},{"number":64,"time":137.90624999999991,"value":0.5354330708661418},{"number":64,"time":137.9072916666666,"value":0.5354330708661418},{"number":64,"time":137.97083333333327,"value":0.5669291338582677},{"number":64,"time":137.97187499999995,"value":0.5669291338582677},{"number":64,"time":138.08749999999995,"value":0.5984251968503937},{"number":64,"time":138.08749999999995,"value":0.5984251968503937},{"number":64,"time":138.3114583333333,"value":0.6299212598425197},{"number":64,"time":138.31249999999997,"value":0.6299212598425197},{"number":64,"time":139.80624999999998,"value":0.5984251968503937},{"number":64,"time":139.80729166666666,"value":0.5984251968503937},{"number":64,"time":139.83020833333333,"value":0.5669291338582677},{"number":64,"time":139.83125,"value":0.5669291338582677},{"number":64,"time":139.84270833333335,"value":0.5354330708661418},{"number":64,"time":139.84270833333335,"value":0.5354330708661418},{"number":64,"time":139.85104166666667,"value":0.5039370078740157},{"number":64,"time":139.85104166666667,"value":0.5039370078740157},{"number":64,"time":139.85833333333335,"value":0.47244094488188976},{"number":64,"time":139.85937500000003,"value":0.47244094488188976},{"number":64,"time":139.87083333333337,"value":0.3779527559055118},{"number":64,"time":139.87187500000005,"value":0.3779527559055118},{"number":64,"time":139.89062500000006,"value":0.2755905511811024},{"number":64,"time":139.89166666666674,"value":0.2755905511811024},{"number":64,"time":139.9145833333334,"value":0.18110236220472442},{"number":64,"time":139.9145833333334,"value":0.18110236220472442},{"number":64,"time":139.9312500000001,"value":0.07874015748031496},{"number":64,"time":139.93229166666677,"value":0.07874015748031496},{"number":64,"time":139.93958333333345,"value":0},{"number":64,"time":139.93958333333345,"value":0}]},"id":3,"name":"MIDI from piano","channelNumber":0,"isPercussion":false},{"startTime":144.19479166666667,"duration":168.02083333333474,"length":77,"notes":[{"name":"E6","midi":88,"time":144.19479166666667,"velocity":0.5118110236220472,"duration":0.9750000000000512},{"name":"E5","midi":76,"time":144.20729166666666,"velocity":0.3858267716535433,"duration":1.0093750000000625},{"name":"A3","midi":57,"time":144.22916666666666,"velocity":0.2440944881889764,"duration":3.082291666666862},{"name":"A4","midi":69,"time":146.26354166666673,"velocity":0.2440944881889764,"duration":0.8812500000001364},{"name":"D6","midi":86,"time":146.2677083333334,"velocity":0.49606299212598426,"duration":0.641666666666822},{"name":"B3","midi":59,"time":146.27812500000005,"velocity":0.31496062992125984,"duration":1.1239583333334622},{"name":"D5","midi":74,"time":146.2833333333334,"velocity":0.4015748031496063,"duration":0.6875000000001421},{"name":"C#4","midi":61,"time":148.2218750000002,"velocity":0.5905511811023622,"duration":0.1572916666667652},{"name":"C#5","midi":73,"time":148.22916666666688,"velocity":0.6377952755905512,"duration":0.3177083333334565},{"name":"F#3","midi":54,"time":148.23437500000023,"velocity":0.5354330708661418,"duration":0.9302083333334394},{"name":"B3","midi":59,"time":148.56875000000034,"velocity":0.4251968503937008,"duration":0.6583333333333314},{"name":"E5","midi":76,"time":148.57500000000033,"velocity":0.5196850393700787,"duration":0.08333333333334281},{"name":"E4","midi":64,"time":148.591666666667,"velocity":0.36220472440944884,"duration":0.020833333333342807},{"name":"C#4","midi":61,"time":148.869791666667,"velocity":0.3937007874015748,"duration":0.4333333333333371},{"name":"F#5","midi":78,"time":148.87187500000033,"velocity":0.5196850393700787,"duration":0.09166666666666856},{"name":"F#4","midi":66,"time":148.901041666667,"velocity":0.29133858267716534,"duration":0.012499999999988631},{"name":"F#5","midi":78,"time":149.135416666667,"velocity":0.4881889763779528,"duration":0.054166666666674246},{"name":"F#4","midi":66,"time":149.144791666667,"velocity":0.44881889763779526,"duration":0.24687499999998863},{"name":"E6","midi":88,"time":149.45520833333367,"velocity":0.4094488188976378,"duration":0.2395833333333428},{"name":"C#6","midi":85,"time":149.6958333333337,"velocity":0.3543307086614173,"duration":0.02812499999998863},{"name":"B5","midi":83,"time":149.99375000000038,"velocity":0.36220472440944884,"duration":0.7125000000000057},{"name":"F#5","midi":78,"time":149.9968750000004,"velocity":0.3543307086614173,"duration":0.8354166666666742},{"name":"G#5","midi":80,"time":150.0218750000004,"velocity":0.3937007874015748,"duration":0.7479166666666686},{"name":"C#7","midi":97,"time":150.06041666666707,"velocity":0.5118110236220472,"duration":0.3031249999999943},{"name":"G#6","midi":92,"time":150.39895833333372,"velocity":0.3779527559055118,"duration":0.05104166666666288},{"name":"G#6","midi":92,"time":150.5906250000004,"velocity":0.4094488188976378,"duration":0.08750000000000568},{"name":"G#6","midi":92,"time":150.85520833333374,"velocity":0.4409448818897638,"duration":0.6468749999999943},{"name":"E6","midi":88,"time":151.40729166666708,"velocity":0.2204724409448819,"duration":0.08854166666665719},{"name":"A3","midi":57,"time":151.90520833333372,"velocity":0.33070866141732286,"duration":1.1197916666667709},{"name":"E4","midi":64,"time":151.91458333333372,"velocity":0.2677165354330709,"duration":1.1395833333334053},{"name":"B4","midi":71,"time":151.91979166666707,"velocity":0.2440944881889764,"duration":1.1239583333334053},{"name":"A4","midi":69,"time":152.00000000000045,"velocity":0.31496062992125984,"duration":0.3791666666667197},{"name":"A5","midi":81,"time":152.0052083333338,"velocity":0.30708661417322836,"duration":0.5052083333333712},{"name":"E6","midi":88,"time":152.98541666666716,"velocity":0.33070866141732286,"duration":0.19062499999998295},{"name":"E5","midi":76,"time":153.03125000000048,"velocity":0.2125984251968504,"duration":0.09062499999998863},{"name":"F#5","midi":78,"time":153.9468750000005,"velocity":0.3858267716535433,"duration":1.3041666666668448},{"name":"E6","midi":88,"time":153.94895833333382,"velocity":0.5275590551181102,"duration":0.42500000000012506},{"name":"B4","midi":71,"time":153.95833333333385,"velocity":0.4015748031496063,"duration":1.2208333333334735},{"name":"E5","midi":76,"time":153.9604166666672,"velocity":0.4251968503937008,"duration":0.28541666666674814},{"name":"E4","midi":64,"time":153.9697916666672,"velocity":0.28346456692913385,"duration":1.1614583333334565},{"name":"B6","midi":95,"time":155.03854166666727,"velocity":0.31496062992125984,"duration":0.056250000000034106},{"name":"B5","midi":83,"time":155.05729166666728,"velocity":0.2755905511811024,"duration":0.01666666666667993},{"name":"C#5","midi":73,"time":156.0864583333341,"velocity":0.4409448818897638,"duration":0.6166666666666458},{"name":"F#4","midi":66,"time":156.0895833333341,"velocity":0.4881889763779528,"duration":2.0322916666666515},{"name":"G#7","midi":104,"time":156.0895833333341,"velocity":0.6771653543307087,"duration":0.22708333333335418},{"name":"G#5","midi":80,"time":156.0958333333341,"velocity":0.4251968503937008,"duration":0.28125},{"name":"G#6","midi":92,"time":156.10104166666744,"velocity":0.5118110236220472,"duration":0.25312500000001137},{"name":"G#5","midi":80,"time":156.59479166666742,"velocity":0.25196850393700787,"duration":0.17604166666666288},{"name":"C#7","midi":97,"time":156.6072916666674,"velocity":0.5354330708661418,"duration":0.040625000000005684},{"name":"C#6","midi":85,"time":156.63645833333408,"velocity":0.18110236220472442,"duration":0.05729166666665719},{"name":"C#5","midi":73,"time":157.14270833333407,"velocity":0.33070866141732286,"duration":0.03645833333334281},{"name":"D2","midi":38,"time":160.5281250000008,"velocity":0.2677165354330709,"duration":1.025000000000091},{"name":"E5","midi":76,"time":160.53854166666747,"velocity":0.6141732283464567,"duration":1.1406250000000853},{"name":"D3","midi":50,"time":160.55104166666746,"velocity":0.2204724409448819,"duration":1.0197916666667766},{"name":"B4","midi":71,"time":160.5562500000008,"velocity":0.49606299212598426,"duration":1.2072916666667766},{"name":"E4","midi":64,"time":160.5687500000008,"velocity":0.4251968503937008,"duration":1.1760416666667766},{"name":"A4","midi":69,"time":160.56979166666747,"velocity":0.44881889763779526,"duration":1.2333333333334338},{"name":"D5","midi":74,"time":162.5572916666676,"velocity":0.6062992125984252,"duration":0.7281250000001478},{"name":"B4","midi":71,"time":162.57500000000093,"velocity":0.48031496062992124,"duration":0.7375000000001535},{"name":"A3","midi":57,"time":162.58958333333425,"velocity":0.2204724409448819,"duration":0.7687500000001819},{"name":"D4","midi":62,"time":162.59166666666758,"velocity":0.2677165354330709,"duration":0.6375000000001592},{"name":"A4","midi":69,"time":162.59270833333426,"velocity":0.4015748031496063,"duration":0.7531250000001535},{"name":"B3","midi":59,"time":162.6010416666676,"velocity":0.28346456692913385,"duration":0.7062500000001251},{"name":"E4","midi":64,"time":162.60625000000095,"velocity":0.3700787401574803,"duration":0.6427083333334451},{"name":"D3","midi":50,"time":162.6114583333343,"velocity":0.2677165354330709,"duration":0.7395833333334565},{"name":"C#5","midi":73,"time":164.60833333333446,"velocity":0.7007874015748031,"duration":0.9093750000002103},{"name":"E2","midi":40,"time":164.6291666666678,"velocity":0.29133858267716534,"duration":1.0437500000001876},{"name":"E1","midi":28,"time":164.6291666666678,"velocity":0.3543307086614173,"duration":0.9750000000001933},{"name":"B4","midi":71,"time":164.64687500000113,"velocity":0.4330708661417323,"duration":0.8177083333335418},{"name":"C#4","midi":61,"time":164.6541666666678,"velocity":0.4566929133858268,"duration":0.9260416666668618},{"name":"A4","midi":69,"time":164.68125000000114,"velocity":0.3464566929133858,"duration":0.8343750000001933},{"name":"B4","midi":71,"time":166.5625000000013,"velocity":0.5826771653543307,"duration":1.3895833333334053},{"name":"E3","midi":52,"time":166.5875000000013,"velocity":0.2755905511811024,"duration":1.2541666666667197},{"name":"B2","midi":47,"time":166.5937500000013,"velocity":0.29133858267716534,"duration":1.3760416666667368},{"name":"A4","midi":69,"time":166.60208333333463,"velocity":0.3937007874015748,"duration":1.4531250000001137},{"name":"B3","midi":59,"time":166.61041666666796,"velocity":0.3779527559055118,"duration":1.3781250000000966},{"name":"E4","midi":64,"time":166.6312500000013,"velocity":0.3228346456692913,"duration":1.3895833333334338}],"controlChanges":{"64":[{"number":64,"time":144.50312499999998,"value":0.10236220472440945},{"number":64,"time":144.50416666666666,"value":0.10236220472440945},{"number":64,"time":144.51145833333334,"value":0.2047244094488189},{"number":64,"time":144.51145833333334,"value":0.2047244094488189},{"number":64,"time":144.52395833333333,"value":0.33070866141732286},{"number":64,"time":144.52395833333333,"value":0.33070866141732286},{"number":64,"time":144.54375,"value":0.44881889763779526},{"number":64,"time":144.54479166666667,"value":0.44881889763779526},{"number":64,"time":144.59479166666668,"value":0.48031496062992124},{"number":64,"time":144.59479166666668,"value":0.48031496062992124},{"number":64,"time":144.63125000000002,"value":0.5118110236220472},{"number":64,"time":144.63125000000002,"value":0.5118110236220472},{"number":64,"time":144.6635416666667,"value":0.5433070866141733},{"number":64,"time":144.66458333333338,"value":0.5433070866141733},{"number":64,"time":144.7197916666667,"value":0.5748031496062992},{"number":64,"time":144.7197916666667,"value":0.5748031496062992},{"number":64,"time":144.7833333333334,"value":0.6062992125984252},{"number":64,"time":144.7833333333334,"value":0.6062992125984252},{"number":64,"time":144.86354166666672,"value":0.6377952755905512},{"number":64,"time":144.8645833333334,"value":0.6377952755905512},{"number":64,"time":145.01979166666672,"value":0.7322834645669292},{"number":64,"time":145.01979166666672,"value":0.7322834645669292},{"number":64,"time":146.30520833333338,"value":0.6535433070866141},{"number":64,"time":146.30625000000006,"value":0.6535433070866141},{"number":64,"time":146.3177083333334,"value":0.6220472440944882},{"number":64,"time":146.31875000000008,"value":0.6220472440944882},{"number":64,"time":146.32916666666674,"value":0.5905511811023622},{"number":64,"time":146.33020833333342,"value":0.5905511811023622},{"number":64,"time":146.34166666666675,"value":0.5590551181102362},{"number":64,"time":146.34270833333343,"value":0.5590551181102362},{"number":64,"time":146.34895833333343,"value":0.5196850393700787},{"number":64,"time":146.3500000000001,"value":0.5196850393700787},{"number":64,"time":146.35729166666678,"value":0.4881889763779528},{"number":64,"time":146.35729166666678,"value":0.4881889763779528},{"number":64,"time":146.39375000000013,"value":0.4015748031496063},{"number":64,"time":146.3947916666668,"value":0.4015748031496063},{"number":64,"time":146.42187500000014,"value":0.48031496062992124},{"number":64,"time":146.42291666666682,"value":0.48031496062992124},{"number":64,"time":146.45000000000016,"value":0.5118110236220472},{"number":64,"time":146.45104166666684,"value":0.5118110236220472},{"number":64,"time":146.48229166666684,"value":0.5433070866141733},{"number":64,"time":146.48333333333352,"value":0.5433070866141733},{"number":64,"time":146.5218750000002,"value":0.5748031496062992},{"number":64,"time":146.52291666666687,"value":0.5748031496062992},{"number":64,"time":146.5531250000002,"value":0.6062992125984252},{"number":64,"time":146.55416666666687,"value":0.6062992125984252},{"number":64,"time":146.64583333333354,"value":0.6377952755905512},{"number":64,"time":146.64583333333354,"value":0.6377952755905512},{"number":64,"time":146.87708333333353,"value":0.7322834645669292},{"number":64,"time":146.8781250000002,"value":0.7322834645669292},{"number":64,"time":148.18541666666684,"value":0.6535433070866141},{"number":64,"time":148.18645833333352,"value":0.6535433070866141},{"number":64,"time":148.19687500000018,"value":0.6220472440944882},{"number":64,"time":148.19791666666686,"value":0.6220472440944882},{"number":64,"time":148.2093750000002,"value":0.5905511811023622},{"number":64,"time":148.2093750000002,"value":0.5905511811023622},{"number":64,"time":148.21770833333352,"value":0.5590551181102362},{"number":64,"time":148.2187500000002,"value":0.5590551181102362},{"number":64,"time":148.22604166666687,"value":0.5196850393700787},{"number":64,"time":148.22708333333355,"value":0.5196850393700787},{"number":64,"time":148.2354166666669,"value":0.47244094488188976},{"number":64,"time":148.2364583333336,"value":0.47244094488188976},{"number":64,"time":148.2458333333336,"value":0.3779527559055118},{"number":64,"time":148.2458333333336,"value":0.3779527559055118},{"number":64,"time":148.32916666666694,"value":0.48031496062992124},{"number":64,"time":148.33020833333362,"value":0.48031496062992124},{"number":64,"time":148.3531250000003,"value":0.5196850393700787},{"number":64,"time":148.35416666666697,"value":0.5196850393700787},{"number":64,"time":148.3812500000003,"value":0.5511811023622047},{"number":64,"time":148.382291666667,"value":0.5511811023622047},{"number":64,"time":148.429166666667,"value":0.5826771653543307},{"number":64,"time":148.43020833333367,"value":0.5826771653543307},{"number":64,"time":148.47708333333367,"value":0.6141732283464567},{"number":64,"time":148.47708333333367,"value":0.6141732283464567},{"number":64,"time":148.64583333333368,"value":0.6456692913385826},{"number":64,"time":148.64583333333368,"value":0.6456692913385826},{"number":64,"time":149.97187500000035,"value":0.7559055118110236},{"number":64,"time":149.97291666666703,"value":0.7559055118110236},{"number":64,"time":151.92708333333374,"value":0.6535433070866141},{"number":64,"time":151.92812500000042,"value":0.6535433070866141},{"number":64,"time":151.9447916666671,"value":0.6141732283464567},{"number":64,"time":151.9447916666671,"value":0.6141732283464567},{"number":64,"time":151.95520833333376,"value":0.5826771653543307},{"number":64,"time":151.95625000000044,"value":0.5826771653543307},{"number":64,"time":151.9666666666671,"value":0.5433070866141733},{"number":64,"time":151.96770833333377,"value":0.5433070866141733},{"number":64,"time":151.9791666666671,"value":0.5039370078740157},{"number":64,"time":151.9802083333338,"value":0.5039370078740157},{"number":64,"time":151.9947916666671,"value":0.47244094488188976},{"number":64,"time":151.9958333333338,"value":0.47244094488188976},{"number":64,"time":152.04791666666713,"value":0.5039370078740157},{"number":64,"time":152.04895833333381,"value":0.5039370078740157},{"number":64,"time":152.07500000000047,"value":0.5354330708661418},{"number":64,"time":152.07604166666715,"value":0.5354330708661418},{"number":64,"time":152.11145833333381,"value":0.5669291338582677},{"number":64,"time":152.1125000000005,"value":0.5669291338582677},{"number":64,"time":152.1750000000005,"value":0.5984251968503937},{"number":64,"time":152.17604166666717,"value":0.5984251968503937},{"number":64,"time":152.31458333333384,"value":0.6299212598425197},{"number":64,"time":152.31562500000052,"value":0.6299212598425197},{"number":64,"time":153.95208333333383,"value":0.5984251968503937},{"number":64,"time":153.9531250000005,"value":0.5984251968503937},{"number":64,"time":153.96666666666718,"value":0.5669291338582677},{"number":64,"time":153.96770833333386,"value":0.5669291338582677},{"number":64,"time":153.99062500000053,"value":0.5354330708661418},{"number":64,"time":153.99166666666721,"value":0.5354330708661418},{"number":64,"time":154.07500000000056,"value":0.5669291338582677},{"number":64,"time":154.07604166666724,"value":0.5669291338582677},{"number":64,"time":154.13125000000056,"value":0.5984251968503937},{"number":64,"time":154.13229166666724,"value":0.5984251968503937},{"number":64,"time":154.21145833333392,"value":0.6299212598425197},{"number":64,"time":154.21145833333392,"value":0.6299212598425197},{"number":64,"time":155.920833333334,"value":0.7322834645669292},{"number":64,"time":155.920833333334,"value":0.7322834645669292},{"number":64,"time":155.989583333334,"value":0.6535433070866141},{"number":64,"time":155.99062500000068,"value":0.6535433070866141},{"number":64,"time":156.005208333334,"value":0.6141732283464567},{"number":64,"time":156.00625000000068,"value":0.6141732283464567},{"number":64,"time":156.01666666666733,"value":0.5748031496062992},{"number":64,"time":156.01666666666733,"value":0.5748031496062992},{"number":64,"time":156.02500000000066,"value":0.5433070866141733},{"number":64,"time":156.02604166666734,"value":0.5433070866141733},{"number":64,"time":156.03229166666733,"value":0.4881889763779528},{"number":64,"time":156.033333333334,"value":0.4881889763779528},{"number":64,"time":156.0406250000007,"value":0.4015748031496063},{"number":64,"time":156.04166666666737,"value":0.4015748031496063},{"number":64,"time":156.04895833333404,"value":0.2992125984251969},{"number":64,"time":156.05000000000072,"value":0.2992125984251969},{"number":64,"time":156.06875000000073,"value":0.2047244094488189},{"number":64,"time":156.0697916666674,"value":0.2047244094488189},{"number":64,"time":156.14479166666743,"value":0.33070866141732286},{"number":64,"time":156.14479166666743,"value":0.33070866141732286},{"number":64,"time":156.15729166666742,"value":0.44881889763779526},{"number":64,"time":156.15729166666742,"value":0.44881889763779526},{"number":64,"time":156.16145833333408,"value":0.48031496062992124},{"number":64,"time":156.16145833333408,"value":0.48031496062992124},{"number":64,"time":156.17291666666742,"value":0.5118110236220472},{"number":64,"time":156.1739583333341,"value":0.5118110236220472},{"number":64,"time":156.1927083333341,"value":0.5511811023622047},{"number":64,"time":156.1937500000008,"value":0.5511811023622047},{"number":64,"time":156.24479166666745,"value":0.5826771653543307},{"number":64,"time":156.24479166666745,"value":0.5826771653543307},{"number":64,"time":156.2812500000008,"value":0.6141732283464567},{"number":64,"time":156.2812500000008,"value":0.6141732283464567},{"number":64,"time":156.36875000000077,"value":0.6456692913385826},{"number":64,"time":156.36875000000077,"value":0.6456692913385826},{"number":64,"time":159.56770833333408,"value":0.6141732283464567},{"number":64,"time":159.56875000000076,"value":0.6141732283464567},{"number":64,"time":159.6833333333341,"value":0.5826771653543307},{"number":64,"time":159.68437500000078,"value":0.5826771653543307},{"number":64,"time":159.7395833333341,"value":0.5511811023622047},{"number":64,"time":159.7406250000008,"value":0.5511811023622047},{"number":64,"time":159.7875000000008,"value":0.5196850393700787},{"number":64,"time":159.78854166666747,"value":0.5196850393700787},{"number":64,"time":159.80833333333413,"value":0.4881889763779528},{"number":64,"time":159.80833333333413,"value":0.4881889763779528},{"number":64,"time":159.8437500000008,"value":0.4015748031496063},{"number":64,"time":159.8437500000008,"value":0.4015748031496063},{"number":64,"time":159.89270833333413,"value":0.2755905511811024},{"number":64,"time":159.89270833333413,"value":0.2755905511811024},{"number":64,"time":159.91979166666746,"value":0.18110236220472442},{"number":64,"time":159.92083333333414,"value":0.18110236220472442},{"number":64,"time":159.93541666666746,"value":0.07874015748031496},{"number":64,"time":159.93645833333414,"value":0.07874015748031496},{"number":64,"time":159.95208333333414,"value":0},{"number":64,"time":159.95312500000082,"value":0},{"number":64,"time":161.05104166666746,"value":0.12598425196850394},{"number":64,"time":161.05208333333414,"value":0.12598425196850394},{"number":64,"time":161.05833333333413,"value":0.2283464566929134},{"number":64,"time":161.0593750000008,"value":0.2283464566929134},{"number":64,"time":161.0750000000008,"value":0.3543307086614173},{"number":64,"time":161.0760416666675,"value":0.3543307086614173},{"number":64,"time":161.15104166666748,"value":0.47244094488188976},{"number":64,"time":161.15208333333416,"value":0.47244094488188976},{"number":64,"time":161.18229166666748,"value":0.5118110236220472},{"number":64,"time":161.18333333333416,"value":0.5118110236220472},{"number":64,"time":161.23020833333416,"value":0.5433070866141733},{"number":64,"time":161.23125000000084,"value":0.5433070866141733},{"number":64,"time":161.2822916666675,"value":0.5748031496062992},{"number":64,"time":161.28333333333418,"value":0.5748031496062992},{"number":64,"time":161.3229166666675,"value":0.6062992125984252},{"number":64,"time":161.3239583333342,"value":0.6062992125984252},{"number":64,"time":161.38229166666753,"value":0.6377952755905512},{"number":64,"time":161.3833333333342,"value":0.6377952755905512},{"number":64,"time":161.45104166666755,"value":0.7322834645669292},{"number":64,"time":161.45208333333423,"value":0.7322834645669292},{"number":64,"time":162.03854166666758,"value":0.8267716535433071},{"number":64,"time":162.03854166666758,"value":0.8267716535433071},{"number":64,"time":162.59687500000092,"value":0.7322834645669292},{"number":64,"time":162.5979166666676,"value":0.7322834645669292},{"number":64,"time":162.6145833333343,"value":0.6456692913385826},{"number":64,"time":162.615625000001,"value":0.6456692913385826},{"number":64,"time":162.62708333333433,"value":0.6141732283464567},{"number":64,"time":162.62708333333433,"value":0.6141732283464567},{"number":64,"time":162.63854166666766,"value":0.5748031496062992},{"number":64,"time":162.63854166666766,"value":0.5748031496062992},{"number":64,"time":162.65104166666765,"value":0.5433070866141733},{"number":64,"time":162.65208333333433,"value":0.5433070866141733},{"number":64,"time":162.65833333333433,"value":0.5118110236220472},{"number":64,"time":162.659375000001,"value":0.5118110236220472},{"number":64,"time":162.67083333333434,"value":0.48031496062992124},{"number":64,"time":162.67187500000102,"value":0.48031496062992124},{"number":64,"time":162.77083333333437,"value":0.5118110236220472},{"number":64,"time":162.77187500000105,"value":0.5118110236220472},{"number":64,"time":162.81458333333438,"value":0.5433070866141733},{"number":64,"time":162.81458333333438,"value":0.5433070866141733},{"number":64,"time":162.87500000000105,"value":0.5748031496062992},{"number":64,"time":162.87604166666773,"value":0.5748031496062992},{"number":64,"time":162.9270833333344,"value":0.6062992125984252},{"number":64,"time":162.9270833333344,"value":0.6062992125984252},{"number":64,"time":163.02291666666773,"value":0.6377952755905512},{"number":64,"time":163.0239583333344,"value":0.6377952755905512},{"number":64,"time":163.72916666666777,"value":0.7322834645669292},{"number":64,"time":163.73020833333445,"value":0.7322834645669292},{"number":64,"time":164.65833333333447,"value":0.6535433070866141},{"number":64,"time":164.65937500000115,"value":0.6535433070866141},{"number":64,"time":164.68333333333447,"value":0.6141732283464567},{"number":64,"time":164.68437500000115,"value":0.6141732283464567},{"number":64,"time":164.69791666666782,"value":0.5748031496062992},{"number":64,"time":164.69791666666782,"value":0.5748031496062992},{"number":64,"time":164.70937500000116,"value":0.5354330708661418},{"number":64,"time":164.71041666666784,"value":0.5354330708661418},{"number":64,"time":164.7177083333345,"value":0.4881889763779528},{"number":64,"time":164.7187500000012,"value":0.4881889763779528},{"number":64,"time":164.72916666666785,"value":0.4015748031496063},{"number":64,"time":164.73020833333453,"value":0.4015748031496063},{"number":64,"time":164.8375000000012,"value":0.2992125984251969},{"number":64,"time":164.83854166666788,"value":0.2992125984251969},{"number":64,"time":164.88125000000122,"value":0.4015748031496063},{"number":64,"time":164.8822916666679,"value":0.4015748031496063},{"number":64,"time":164.90520833333457,"value":0.48031496062992124},{"number":64,"time":164.90625000000125,"value":0.48031496062992124},{"number":64,"time":164.9333333333346,"value":0.5118110236220472},{"number":64,"time":164.93437500000127,"value":0.5118110236220472},{"number":64,"time":164.96979166666793,"value":0.5433070866141733},{"number":64,"time":164.9708333333346,"value":0.5433070866141733},{"number":64,"time":165.00520833333462,"value":0.5748031496062992},{"number":64,"time":165.0062500000013,"value":0.5748031496062992},{"number":64,"time":165.0375000000013,"value":0.6141732283464567},{"number":64,"time":165.0375000000013,"value":0.6141732283464567},{"number":64,"time":165.06979166666798,"value":0.6456692913385826},{"number":64,"time":165.07083333333466,"value":0.6456692913385826},{"number":64,"time":165.197916666668,"value":0.7559055118110236},{"number":64,"time":165.197916666668,"value":0.7559055118110236},{"number":64,"time":165.3375000000013,"value":0.8503937007874016},{"number":64,"time":165.338541666668,"value":0.8503937007874016},{"number":64,"time":166.61979166666796,"value":0.7322834645669292},{"number":64,"time":166.62083333333464,"value":0.7322834645669292},{"number":64,"time":166.63333333333463,"value":0.6535433070866141},{"number":64,"time":166.63333333333463,"value":0.6535433070866141},{"number":64,"time":166.6437500000013,"value":0.6141732283464567},{"number":64,"time":166.64479166666797,"value":0.6141732283464567},{"number":64,"time":166.6562500000013,"value":0.5748031496062992},{"number":64,"time":166.6562500000013,"value":0.5748031496062992},{"number":64,"time":166.66354166666798,"value":0.5433070866141733},{"number":64,"time":166.66458333333466,"value":0.5433070866141733},{"number":64,"time":166.67187500000134,"value":0.5039370078740157},{"number":64,"time":166.67187500000134,"value":0.5039370078740157},{"number":64,"time":166.679166666668,"value":0.47244094488188976},{"number":64,"time":166.6802083333347,"value":0.47244094488188976},{"number":64,"time":166.69270833333468,"value":0.3779527559055118},{"number":64,"time":166.69375000000136,"value":0.3779527559055118},{"number":64,"time":166.77083333333468,"value":0.47244094488188976},{"number":64,"time":166.77187500000136,"value":0.47244094488188976},{"number":64,"time":166.79583333333468,"value":0.5039370078740157},{"number":64,"time":166.79583333333468,"value":0.5039370078740157},{"number":64,"time":166.84687500000135,"value":0.5354330708661418},{"number":64,"time":166.84791666666803,"value":0.5354330708661418},{"number":64,"time":166.89166666666802,"value":0.5669291338582677},{"number":64,"time":166.8927083333347,"value":0.5669291338582677},{"number":64,"time":166.94375000000136,"value":0.5984251968503937},{"number":64,"time":166.94375000000136,"value":0.5984251968503937},{"number":64,"time":167.01562500000136,"value":0.6299212598425197},{"number":64,"time":167.01666666666804,"value":0.6299212598425197},{"number":64,"time":168.36354166666808,"value":0.5984251968503937},{"number":64,"time":168.36458333333476,"value":0.5984251968503937},{"number":64,"time":168.41562500000143,"value":0.5669291338582677},{"number":64,"time":168.4166666666681,"value":0.5669291338582677},{"number":64,"time":168.47500000000144,"value":0.5354330708661418},{"number":64,"time":168.47604166666812,"value":0.5354330708661418},{"number":64,"time":168.50729166666812,"value":0.5039370078740157},{"number":64,"time":168.5083333333348,"value":0.5039370078740157},{"number":64,"time":168.53125000000148,"value":0.47244094488188976},{"number":64,"time":168.53125000000148,"value":0.47244094488188976},{"number":64,"time":168.55937500000147,"value":0.3779527559055118},{"number":64,"time":168.56041666666815,"value":0.3779527559055118},{"number":64,"time":168.59479166666816,"value":0.2755905511811024},{"number":64,"time":168.59583333333484,"value":0.2755905511811024},{"number":64,"time":168.6156250000015,"value":0.18110236220472442},{"number":64,"time":168.61666666666818,"value":0.18110236220472442},{"number":64,"time":168.62708333333484,"value":0.07874015748031496},{"number":64,"time":168.62812500000152,"value":0.07874015748031496},{"number":64,"time":168.63958333333485,"value":0},{"number":64,"time":168.64062500000153,"value":0}]},"id":4,"name":"MIDI from piano","channelNumber":0,"isPercussion":false},{"startTime":169.090625,"duration":214.30208333333852,"length":503,"notes":[{"name":"F#3","midi":54,"time":169.090625,"velocity":0.3779527559055118,"duration":0.5562500000000057},{"name":"D2","midi":38,"time":169.11874999999998,"velocity":0.13385826771653545,"duration":0.6156250000000227},{"name":"D3","midi":50,"time":169.13437499999998,"velocity":0.12598425196850394,"duration":0.3125},{"name":"A2","midi":45,"time":169.19479166666665,"velocity":0.14173228346456693,"duration":1.503125000000125},{"name":"D3","midi":50,"time":169.64166666666665,"velocity":0.2204724409448819,"duration":0.8104166666667538},{"name":"A3","midi":57,"time":169.65,"velocity":0.28346456692913385,"duration":0.15937499999998295},{"name":"G#3","midi":56,"time":169.8875,"velocity":0.3700787401574803,"duration":0.11979166666665719},{"name":"D2","midi":38,"time":170.14895833333333,"velocity":0.2440944881889764,"duration":0.32708333333343376},{"name":"F#3","midi":54,"time":170.15416666666667,"velocity":0.3464566929133858,"duration":0.5604166666667822},{"name":"D2","midi":38,"time":170.69479166666676,"velocity":0.2047244094488189,"duration":0.2750000000000341},{"name":"E3","midi":52,"time":170.9791666666668,"velocity":0.1968503937007874,"duration":0.027083333333337123},{"name":"F#3","midi":54,"time":171.0510416666668,"velocity":0.36220472440944884,"duration":0.05208333333334281},{"name":"E3","midi":52,"time":171.15416666666684,"velocity":0.3779527559055118,"duration":0.5604166666668107},{"name":"A2","midi":45,"time":171.17395833333353,"velocity":0.2677165354330709,"duration":0.2552083333334281},{"name":"A2","midi":45,"time":171.726041666667,"velocity":0.2283464566929134,"duration":0.06979166666667425},{"name":"A2","midi":45,"time":172.20833333333366,"velocity":0.1968503937007874,"duration":0.3791666666666629},{"name":"C#4","midi":61,"time":172.21666666666698,"velocity":0.48031496062992124,"duration":0.5906249999999886},{"name":"E3","midi":52,"time":172.23854166666698,"velocity":0.15748031496062992,"duration":0.48541666666667993},{"name":"F#3","midi":54,"time":172.24270833333364,"velocity":0.33070866141732286,"duration":0.22187500000001137},{"name":"F#3","midi":54,"time":172.75208333333364,"velocity":0.2440944881889764,"duration":0.265625},{"name":"E4","midi":64,"time":172.7625000000003,"velocity":0.4015748031496063,"duration":0.27812500000001705},{"name":"F#4","midi":66,"time":172.98854166666698,"velocity":0.4645669291338583,"duration":0.10104166666667425},{"name":"F#3","midi":54,"time":173.24895833333375,"velocity":0.31496062992125984,"duration":0.17083333333340533},{"name":"F#4","midi":66,"time":173.25625000000045,"velocity":0.4566929133858268,"duration":0.25625000000005116},{"name":"F#2","midi":42,"time":173.26250000000044,"velocity":0.2204724409448819,"duration":0.5979166666667197},{"name":"C#3","midi":49,"time":173.26458333333377,"velocity":0.33070866141732286,"duration":0.6697916666667254},{"name":"C#4","midi":61,"time":173.4781250000005,"velocity":0.4409448818897638,"duration":0.234375},{"name":"B3","midi":59,"time":173.7427083333338,"velocity":0.4015748031496063,"duration":0.2739583333333542},{"name":"F#3","midi":54,"time":173.76562500000048,"velocity":0.2755905511811024,"duration":0.20416666666667993},{"name":"C#3","midi":49,"time":174.2458333333339,"velocity":0.1889763779527559,"duration":0.5760416666668107},{"name":"F#3","midi":54,"time":174.25104166666725,"velocity":0.1889763779527559,"duration":0.4947916666667993},{"name":"B2","midi":47,"time":174.26250000000059,"velocity":0.25984251968503935,"duration":0.2666666666667652},{"name":"C#4","midi":61,"time":174.26458333333392,"velocity":0.44881889763779526,"duration":0.3385416666667993},{"name":"C#4","midi":61,"time":174.7656250000007,"velocity":0.5354330708661418,"duration":0.9718750000001819},{"name":"B2","midi":47,"time":174.77395833333404,"velocity":0.2677165354330709,"duration":0.1447916666666913},{"name":"E2","midi":40,"time":175.28437500000075,"velocity":0.4094488188976378,"duration":0.46979166666682204},{"name":"E3","midi":52,"time":175.28541666666743,"velocity":0.3700787401574803,"duration":0.35312500000011937},{"name":"B2","midi":47,"time":175.29479166666744,"velocity":0.3779527559055118,"duration":0.5291666666668107},{"name":"B3","midi":59,"time":175.77083333333425,"velocity":0.4094488188976378,"duration":0.23229166666666856},{"name":"C#4","midi":61,"time":176.02083333333425,"velocity":0.49606299212598426,"duration":0.08645833333332575},{"name":"E3","midi":52,"time":176.25312500000095,"velocity":0.2440944881889764,"duration":0.5208333333333997},{"name":"B2","midi":47,"time":176.25937500000094,"velocity":0.25984251968503935,"duration":0.5218750000000796},{"name":"C#4","midi":61,"time":176.26666666666762,"velocity":0.5905511811023622,"duration":0.22500000000007958},{"name":"F#3","midi":54,"time":176.2791666666676,"velocity":0.33070866141732286,"duration":0.1895833333334167},{"name":"B3","midi":59,"time":176.4854166666677,"velocity":0.4409448818897638,"duration":0.23229166666666856},{"name":"F#3","midi":54,"time":176.7322916666677,"velocity":0.3543307086614173,"duration":0.06562500000001137},{"name":"A3","midi":57,"time":176.74270833333435,"velocity":0.36220472440944884,"duration":0.13854166666669698},{"name":"G#3","midi":56,"time":176.96145833333438,"velocity":0.3464566929133858,"duration":0.07604166666666856},{"name":"F#4","midi":66,"time":177.25312500000112,"velocity":0.3779527559055118,"duration":0.19270833333339965},{"name":"A2","midi":45,"time":177.2604166666678,"velocity":0.25196850393700787,"duration":0.28750000000005116},{"name":"D3","midi":50,"time":177.2635416666678,"velocity":0.2047244094488189,"duration":0.2625000000000455},{"name":"F#3","midi":54,"time":177.26458333333449,"velocity":0.3543307086614173,"duration":0.08020833333335986},{"name":"D2","midi":38,"time":177.2677083333345,"velocity":0.23622047244094488,"duration":0.4114583333333428},{"name":"D4","midi":62,"time":177.2677083333345,"velocity":0.3700787401574803,"duration":0.11250000000001137},{"name":"C#4","midi":61,"time":177.27604166666782,"velocity":0.3464566929133858,"duration":0.08333333333334281},{"name":"A4","midi":69,"time":177.76041666666785,"velocity":0.4094488188976378,"duration":0.10312500000000568},{"name":"D5","midi":74,"time":177.76145833333453,"velocity":0.48031496062992124,"duration":0.09166666666666856},{"name":"A2","midi":45,"time":177.77708333333453,"velocity":0.25984251968503935,"duration":0.056250000000005684},{"name":"D4","midi":62,"time":177.78229166666787,"velocity":0.28346456692913385,"duration":0.04791666666665151},{"name":"D3","midi":50,"time":177.7906250000012,"velocity":0.2677165354330709,"duration":0.09062499999998863},{"name":"G#4","midi":68,"time":178.00833333333452,"velocity":0.5590551181102362,"duration":0.08333333333337123},{"name":"D5","midi":74,"time":178.0156250000012,"velocity":0.5039370078740157,"duration":0.07708333333337691},{"name":"D4","midi":62,"time":178.03645833333454,"velocity":0.2283464566929134,"duration":0.05000000000001137},{"name":"D3","midi":50,"time":178.25312500000123,"velocity":0.25984251968503935,"duration":0.5645833333333599},{"name":"D5","midi":74,"time":178.2541666666679,"velocity":0.5433070866141733,"duration":0.27604166666671404},{"name":"D4","midi":62,"time":178.2614583333346,"velocity":0.4015748031496063,"duration":0.3281250000000284},{"name":"E3","midi":52,"time":178.2645833333346,"velocity":0.2677165354330709,"duration":0.2802083333333485},{"name":"A2","midi":45,"time":178.2739583333346,"velocity":0.25196850393700787,"duration":0.4739583333333144},{"name":"F#4","midi":66,"time":178.2802083333346,"velocity":0.4881889763779528,"duration":0.4114583333333428},{"name":"E3","midi":52,"time":178.73541666666793,"velocity":0.3700787401574803,"duration":0.15000000000000568},{"name":"E4","midi":64,"time":178.99375000000126,"velocity":0.3228346456692913,"duration":0.08541666666664582},{"name":"C#5","midi":73,"time":179.00625000000124,"velocity":0.47244094488188976,"duration":0.17916666666664582},{"name":"F#4","midi":66,"time":179.1260416666679,"velocity":0.44881889763779526,"duration":0.12395833333340533},{"name":"E3","midi":52,"time":179.2343750000013,"velocity":0.18110236220472442,"duration":0.6031250000000625},{"name":"F#3","midi":54,"time":179.25416666666797,"velocity":0.4566929133858268,"duration":0.29791666666670835},{"name":"A2","midi":45,"time":179.26041666666796,"velocity":0.28346456692913385,"duration":0.5281250000000739},{"name":"C#4","midi":61,"time":179.2656250000013,"velocity":0.4330708661417323,"duration":0.41562500000006253},{"name":"A4","midi":69,"time":179.26979166666797,"velocity":0.4094488188976378,"duration":0.3885416666667254},{"name":"F#3","midi":54,"time":179.7520833333347,"velocity":0.2992125984251969,"duration":0.09687500000001137},{"name":"C#4","midi":61,"time":180.23854166666808,"velocity":0.3858267716535433,"duration":0.10312500000006253},{"name":"C#5","midi":73,"time":180.23958333333476,"velocity":0.47244094488188976,"duration":0.1229166666667254},{"name":"F#4","midi":66,"time":180.24687500000144,"velocity":0.4094488188976378,"duration":0.10625000000004547},{"name":"E3","midi":52,"time":180.25520833333476,"velocity":0.3543307086614173,"duration":0.09375000000005684},{"name":"A3","midi":57,"time":180.25625000000144,"velocity":0.30708661417322836,"duration":0.13645833333336554},{"name":"E4","midi":64,"time":180.2697916666681,"velocity":0.2440944881889764,"duration":0.04375000000001705},{"name":"A2","midi":45,"time":180.27187500000144,"velocity":0.2992125984251969,"duration":0.04375000000001705},{"name":"E5","midi":76,"time":180.7156250000015,"velocity":0.5118110236220472,"duration":0.0708333333333826},{"name":"A3","midi":57,"time":180.71770833333483,"velocity":0.29133858267716534,"duration":0.043750000000045475},{"name":"C#5","midi":73,"time":180.7250000000015,"velocity":0.5039370078740157,"duration":0.10625000000004547},{"name":"B3","midi":59,"time":180.7468750000015,"velocity":0.29133858267716534,"duration":0.029166666666725405},{"name":"E4","midi":64,"time":180.75104166666816,"velocity":0.30708661417322836,"duration":0.016666666666708352},{"name":"E3","midi":52,"time":180.75833333333486,"velocity":0.16535433070866143,"duration":0.01666666666667993},{"name":"B4","midi":71,"time":180.79583333333488,"velocity":0.1889763779527559,"duration":0.01770833333333144},{"name":"F#5","midi":78,"time":180.92708333333488,"velocity":0.6141732283464567,"duration":0.10312500000000568},{"name":"B4","midi":71,"time":180.95000000000155,"velocity":0.1889763779527559,"duration":0.07395833333333712},{"name":"F#4","midi":66,"time":180.96979166666821,"velocity":0.33858267716535434,"duration":0.021874999999994316},{"name":"F#4","midi":66,"time":181.18333333333493,"velocity":0.5196850393700787,"duration":0.06770833333337123},{"name":"F#5","midi":78,"time":181.1843750000016,"velocity":0.5748031496062992,"duration":0.13958333333340533},{"name":"F#3","midi":54,"time":181.19166666666828,"velocity":0.48031496062992124,"duration":0.21875000000002842},{"name":"C#5","midi":73,"time":181.19583333333495,"velocity":0.5590551181102362,"duration":0.11354166666674814},{"name":"E4","midi":64,"time":181.19687500000163,"velocity":0.3937007874015748,"duration":0.16979166666669698},{"name":"C#4","midi":61,"time":181.19687500000163,"velocity":0.47244094488188976,"duration":0.20937500000002274},{"name":"B4","midi":71,"time":181.20000000000164,"velocity":0.3779527559055118,"duration":0.06041666666669698},{"name":"C#6","midi":85,"time":181.67083333333497,"velocity":0.6299212598425197,"duration":0.15416666666664014},{"name":"F#4","midi":66,"time":181.67708333333496,"velocity":0.4094488188976378,"duration":0.14583333333331439},{"name":"C#4","midi":61,"time":181.68125000000163,"velocity":0.4645669291338583,"duration":0.05729166666665719},{"name":"C#5","midi":73,"time":181.69062500000163,"velocity":0.48031496062992124,"duration":0.16354166666664582},{"name":"F#3","midi":54,"time":181.70312500000162,"velocity":0.29133858267716534,"duration":0.02916666666666856},{"name":"F#5","midi":78,"time":181.70520833333495,"velocity":0.47244094488188976,"duration":0.11354166666666288},{"name":"E5","midi":76,"time":181.7479166666683,"velocity":0.2677165354330709,"duration":0.01770833333333144},{"name":"B5","midi":83,"time":182.1531250000016,"velocity":0.6614173228346457,"duration":0.3291666666667936},{"name":"G#4","midi":68,"time":182.15520833333494,"velocity":0.5433070866141733,"duration":0.49166666666678793},{"name":"F#5","midi":78,"time":182.16458333333495,"velocity":0.5826771653543307,"duration":0.3135416666667936},{"name":"B4","midi":71,"time":182.17083333333494,"velocity":0.5039370078740157,"duration":0.26250000000013074},{"name":"C#4","midi":61,"time":182.1791666666683,"velocity":0.5826771653543307,"duration":0.15416666666675383},{"name":"F#4","midi":66,"time":182.18020833333497,"velocity":0.4645669291338583,"duration":0.5260416666667993},{"name":"E5","midi":76,"time":182.20937500000167,"velocity":0.33070866141732286,"duration":0.24895833333340533},{"name":"A4","midi":69,"time":182.64062500000173,"velocity":0.2677165354330709,"duration":0.04479166666669698},{"name":"F#5","midi":78,"time":182.64895833333506,"velocity":0.5590551181102362,"duration":0.9250000000001535},{"name":"B5","midi":83,"time":182.65208333333507,"velocity":0.5826771653543307,"duration":0.8177083333334849},{"name":"C#4","midi":61,"time":182.6541666666684,"velocity":0.5196850393700787,"duration":0.07395833333336554},{"name":"G#5","midi":80,"time":182.6572916666684,"velocity":0.6377952755905512,"duration":0.9041666666668107},{"name":"B4","midi":71,"time":182.66666666666842,"velocity":0.44881889763779526,"duration":0.8916666666667936},{"name":"E5","midi":76,"time":182.6739583333351,"velocity":0.44881889763779526,"duration":0.8875000000001307},{"name":"B2","midi":47,"time":183.1635416666685,"velocity":0.5118110236220472,"duration":0.21354166666671404},{"name":"E3","midi":52,"time":183.17395833333515,"velocity":0.47244094488188976,"duration":0.2375000000000682},{"name":"E2","midi":40,"time":183.18020833333514,"velocity":0.5196850393700787,"duration":0.1635416666667311},{"name":"E3","midi":52,"time":183.68750000000188,"velocity":0.3464566929133858,"duration":0.09999999999999432},{"name":"B2","midi":47,"time":183.69375000000187,"velocity":0.2677165354330709,"duration":0.06874999999999432},{"name":"B3","midi":59,"time":183.71979166666853,"velocity":0.28346456692913385,"duration":0.027083333333337123},{"name":"A5","midi":81,"time":183.8958333333352,"velocity":0.4094488188976378,"duration":0.08125000000001137},{"name":"A4","midi":69,"time":183.91666666666853,"velocity":0.3228346456692913,"duration":0.03229166666667993},{"name":"B3","midi":59,"time":184.14166666666853,"velocity":0.3700787401574803,"duration":0.15937499999998295},{"name":"E3","midi":52,"time":184.1458333333352,"velocity":0.33858267716535434,"duration":0.5427083333333087},{"name":"G#5","midi":80,"time":184.1489583333352,"velocity":0.5826771653543307,"duration":0.12395833333332007},{"name":"F#5","midi":78,"time":184.16354166666852,"velocity":0.4645669291338583,"duration":0.07187500000000568},{"name":"G#4","midi":68,"time":184.16875000000186,"velocity":0.3779527559055118,"duration":0.015625},{"name":"B2","midi":47,"time":184.17500000000186,"velocity":0.2755905511811024,"duration":0.06041666666666856},{"name":"E5","midi":76,"time":184.19375000000187,"velocity":0.2755905511811024,"duration":0.015625},{"name":"A5","midi":81,"time":184.3604166666685,"velocity":0.5354330708661418,"duration":0.04583333333332007},{"name":"A4","midi":69,"time":184.3916666666685,"velocity":0.36220472440944884,"duration":0.012499999999988631},{"name":"B2","midi":47,"time":184.60937500000182,"velocity":0.3464566929133858,"duration":0.0625},{"name":"E5","midi":76,"time":184.63958333333514,"velocity":0.4881889763779528,"duration":0.013541666666668561},{"name":"E4","midi":64,"time":184.65208333333513,"velocity":0.2283464566929134,"duration":0.03125000000002842},{"name":"F#4","midi":66,"time":185.09791666666857,"velocity":0.4409448818897638,"duration":0.16666666666682772},{"name":"A2","midi":45,"time":185.10104166666858,"velocity":0.44881889763779526,"duration":0.11770833333343944},{"name":"D3","midi":50,"time":185.11041666666858,"velocity":0.48031496062992124,"duration":0.14166666666679362},{"name":"B3","midi":59,"time":185.11250000000192,"velocity":0.4094488188976378,"duration":0.08541666666675951},{"name":"D2","midi":38,"time":185.11562500000193,"velocity":0.5039370078740157,"duration":0.07916666666673677},{"name":"E4","midi":64,"time":185.13333333333526,"velocity":0.44881889763779526,"duration":0.1145833333334565},{"name":"D4","midi":62,"time":185.14270833333526,"velocity":0.4251968503937008,"duration":0.08645833333343944},{"name":"A3","midi":57,"time":185.18437500000198,"velocity":0.23622047244094488,"duration":0.026041666666714036},{"name":"D3","midi":50,"time":185.59687500000206,"velocity":0.25984251968503935,"duration":0.09270833333340533},{"name":"D4","midi":62,"time":185.60520833333538,"velocity":0.48031496062992124,"duration":0.060416666666725405},{"name":"D5","midi":74,"time":185.6083333333354,"velocity":0.5905511811023622,"duration":0.07812500000005684},{"name":"A4","midi":69,"time":185.60937500000207,"velocity":0.5118110236220472,"duration":0.08020833333338828},{"name":"A3","midi":57,"time":185.6125000000021,"velocity":0.3464566929133858,"duration":0.09583333333338828},{"name":"C#4","midi":61,"time":185.61770833333543,"velocity":0.44881889763779526,"duration":0.07708333333337691},{"name":"D5","midi":74,"time":185.82187500000214,"velocity":0.5984251968503937,"duration":0.09270833333332007},{"name":"D4","midi":62,"time":185.8322916666688,"velocity":0.41732283464566927,"duration":0.07916666666665151},{"name":"G#4","midi":68,"time":185.84687500000211,"velocity":0.6062992125984252,"duration":0.08020833333335986},{"name":"A3","midi":57,"time":185.8593750000021,"velocity":0.36220472440944884,"duration":0.0666666666666913},{"name":"C#4","midi":61,"time":185.86666666666878,"velocity":0.3464566929133858,"duration":0.040625000000005684},{"name":"D3","midi":50,"time":185.8854166666688,"velocity":0.28346456692913385,"duration":0.03020833333334849},{"name":"D5","midi":74,"time":186.08854166666882,"velocity":0.6614173228346457,"duration":0.2333333333333485},{"name":"A3","midi":57,"time":186.0958333333355,"velocity":0.4330708661417323,"duration":0.4416666666666913},{"name":"D4","midi":62,"time":186.09791666666882,"velocity":0.4566929133858268,"duration":0.22708333333335418},{"name":"C#4","midi":61,"time":186.10000000000215,"velocity":0.3858267716535433,"duration":0.30208333333337123},{"name":"F#4","midi":66,"time":186.1052083333355,"velocity":0.5984251968503937,"duration":0.2541666666666913},{"name":"D3","midi":50,"time":186.11250000000217,"velocity":0.3464566929133858,"duration":0.1979166666666572},{"name":"A3","midi":57,"time":186.53750000000218,"velocity":0.14173228346456693,"duration":0.05104166666666288},{"name":"D3","midi":50,"time":186.56041666666886,"velocity":0.5118110236220472,"duration":0.05624999999997726},{"name":"E4","midi":64,"time":186.80937500000218,"velocity":0.3937007874015748,"duration":0.08333333333334281},{"name":"C#5","midi":73,"time":186.8114583333355,"velocity":0.5905511811023622,"duration":0.18854166666670835},{"name":"F#4","midi":66,"time":186.9375000000022,"velocity":0.5039370078740157,"duration":0.14583333333339965},{"name":"A4","midi":69,"time":187.04895833333558,"velocity":0.5039370078740157,"duration":0.12291666666683909},{"name":"E2","midi":40,"time":187.0520833333356,"velocity":0.4409448818897638,"duration":0.08541666666678793},{"name":"C#4","midi":61,"time":187.06250000000225,"velocity":0.5748031496062992,"duration":0.05729166666677088},{"name":"A1","midi":33,"time":187.06562500000226,"velocity":0.48031496062992124,"duration":0.048958333333416704},{"name":"A2","midi":45,"time":187.0708333333356,"velocity":0.4251968503937008,"duration":0.09583333333347355},{"name":"E3","midi":52,"time":187.5385416666691,"velocity":0.3700787401574803,"duration":0.1656250000000341},{"name":"F#5","midi":78,"time":187.5416666666691,"velocity":0.6456692913385826,"duration":0.7458333333333371},{"name":"A3","midi":57,"time":187.54687500000244,"velocity":0.4330708661417323,"duration":0.056250000000034106},{"name":"A4","midi":69,"time":187.54687500000244,"velocity":0.47244094488188976,"duration":0.7593750000000057},{"name":"F#4","midi":66,"time":187.54687500000244,"velocity":0.5433070866141733,"duration":0.7385416666666629},{"name":"A2","midi":45,"time":187.55416666666912,"velocity":0.4015748031496063,"duration":0.07708333333334849},{"name":"C#5","midi":73,"time":187.5552083333358,"velocity":0.5669291338582677,"duration":0.7802083333333201},{"name":"E3","midi":52,"time":187.98437500000244,"velocity":0.4645669291338583,"duration":0.5104166666666572},{"name":"A3","midi":57,"time":187.98645833333578,"velocity":0.5826771653543307,"duration":0.359375},{"name":"B3","midi":59,"time":187.98645833333578,"velocity":0.5511811023622047,"duration":0.36145833333333144},{"name":"A2","midi":45,"time":187.99687500000243,"velocity":0.5354330708661418,"duration":0.28333333333333144},{"name":"A2","midi":45,"time":188.46250000000245,"velocity":0.47244094488188976,"duration":0.08645833333332575},{"name":"F#5","midi":78,"time":188.4822916666691,"velocity":0.6062992125984252,"duration":0.08958333333333712},{"name":"F#4","midi":66,"time":188.48437500000244,"velocity":0.5118110236220472,"duration":0.06874999999999432},{"name":"F#4","midi":66,"time":188.69791666666913,"velocity":0.5905511811023622,"duration":0.13958333333332007},{"name":"F#5","midi":78,"time":188.70937500000247,"velocity":0.5905511811023622,"duration":0.11354166666666288},{"name":"F#2","midi":42,"time":188.94375000000255,"velocity":0.6141732283464567,"duration":0.10833333333334849},{"name":"F#4","midi":66,"time":188.94791666666922,"velocity":0.5905511811023622,"duration":0.10104166666667425},{"name":"F#5","midi":78,"time":188.9541666666692,"velocity":0.6692913385826772,"duration":0.15625000000005684},{"name":"F#1","midi":30,"time":188.95625000000254,"velocity":0.5826771653543307,"duration":0.05833333333333712},{"name":"C#5","midi":73,"time":188.96458333333587,"velocity":0.6456692913385826,"duration":0.16041666666671972},{"name":"A4","midi":69,"time":189.00000000000253,"velocity":0.18110236220472442,"duration":0.10208333333341102},{"name":"C#6","midi":85,"time":189.42916666666926,"velocity":0.7007874015748031,"duration":0.13333333333332575},{"name":"C#5","midi":73,"time":189.4343750000026,"velocity":0.6062992125984252,"duration":0.11249999999998295},{"name":"F#3","midi":54,"time":189.44791666666927,"velocity":0.4409448818897638,"duration":0.05624999999997726},{"name":"C#3","midi":49,"time":189.4500000000026,"velocity":0.5118110236220472,"duration":0.04791666666665151},{"name":"F#2","midi":42,"time":189.47604166666926,"velocity":0.29133858267716534,"duration":0.03020833333332007},{"name":"B5","midi":83,"time":189.8895833333359,"velocity":0.6535433070866141,"duration":0.13333333333335418},{"name":"C#3","midi":49,"time":189.90000000000256,"velocity":0.4881889763779528,"duration":0.0510416666666913},{"name":"F#3","midi":54,"time":189.90416666666923,"velocity":0.3858267716535433,"duration":0.04687500000002842},{"name":"B4","midi":71,"time":189.9052083333359,"velocity":0.5984251968503937,"duration":0.07083333333335418},{"name":"F#5","midi":78,"time":189.91041666666925,"velocity":0.6220472440944882,"duration":0.15937500000001137},{"name":"B3","midi":59,"time":189.94479166666926,"velocity":0.3543307086614173,"duration":0.01770833333333144},{"name":"A3","midi":57,"time":189.95520833333592,"velocity":0.2992125984251969,"duration":0.026041666666685614},{"name":"E5","midi":76,"time":189.9562500000026,"velocity":0.36220472440944884,"duration":0.09166666666666856},{"name":"A3","midi":57,"time":190.3781250000026,"velocity":0.25196850393700787,"duration":0.06041666666664014},{"name":"C#4","midi":61,"time":190.38020833333593,"velocity":0.25984251968503935,"duration":0.04999999999998295},{"name":"C#6","midi":85,"time":190.38333333333594,"velocity":0.7480314960629921,"duration":0.6291666666667766},{"name":"C#5","midi":73,"time":190.39583333333593,"velocity":0.5905511811023622,"duration":0.672916666666822},{"name":"F#3","midi":54,"time":190.40416666666925,"velocity":0.3937007874015748,"duration":0.01770833333333144},{"name":"F#5","midi":78,"time":190.4062500000026,"velocity":0.5590551181102362,"duration":0.6489583333334963},{"name":"E5","midi":76,"time":190.41041666666925,"velocity":0.5039370078740157,"duration":0.6291666666668334},{"name":"E1","midi":28,"time":190.8447916666693,"velocity":0.6299212598425197,"duration":0.11979166666674246},{"name":"E2","midi":40,"time":190.85625000000263,"velocity":0.48031496062992124,"duration":0.18020833333343944},{"name":"B5","midi":83,"time":191.3083333333361,"velocity":0.5826771653543307,"duration":0.09583333333333144},{"name":"B2","midi":47,"time":191.32187500000276,"velocity":0.3858267716535433,"duration":0.06458333333333144},{"name":"E2","midi":40,"time":191.32500000000277,"velocity":0.2204724409448819,"duration":0.05937499999998863},{"name":"B4","midi":71,"time":191.33229166666945,"velocity":0.4015748031496063,"duration":0.018749999999982947},{"name":"F#5","midi":78,"time":191.33437500000278,"velocity":0.4015748031496063,"duration":0.04166666666665719},{"name":"E3","midi":52,"time":191.3489583333361,"velocity":0.33858267716535434,"duration":0.03125},{"name":"E5","midi":76,"time":191.3583333333361,"velocity":0.18110236220472442,"duration":0.055208333333325754},{"name":"B5","midi":83,"time":191.53229166666944,"velocity":0.49606299212598426,"duration":0.06354166666665151},{"name":"F#5","midi":78,"time":191.54687500000276,"velocity":0.5039370078740157,"duration":0.11458333333334281},{"name":"E5","midi":76,"time":191.55625000000276,"velocity":0.3858267716535433,"duration":0.08854166666665719},{"name":"B4","midi":71,"time":191.5583333333361,"velocity":0.3228346456692913,"duration":0.03020833333332007},{"name":"E3","midi":52,"time":191.76666666666944,"velocity":0.4409448818897638,"duration":0.04895833333333144},{"name":"B2","midi":47,"time":191.77500000000276,"velocity":0.3937007874015748,"duration":0.037499999999994316},{"name":"C#6","midi":85,"time":191.77812500000277,"velocity":0.6614173228346457,"duration":0.11979166666668561},{"name":"F#5","midi":78,"time":191.78854166666943,"velocity":0.5275590551181102,"duration":0.1135416666666913},{"name":"E5","midi":76,"time":191.78854166666943,"velocity":0.4251968503937008,"duration":0.07708333333334849},{"name":"B3","midi":59,"time":191.7927083333361,"velocity":0.3779527559055118,"duration":0.05833333333333712},{"name":"C#5","midi":73,"time":191.8020833333361,"velocity":0.5196850393700787,"duration":0.0625},{"name":"B5","midi":83,"time":192.0125000000028,"velocity":0.5905511811023622,"duration":0.0510416666666913},{"name":"B4","midi":71,"time":192.0281250000028,"velocity":0.4409448818897638,"duration":0.0031250000000113687},{"name":"A5","midi":81,"time":192.2197916666695,"velocity":0.6850393700787402,"duration":0.07083333333335418},{"name":"B3","midi":59,"time":192.22708333333617,"velocity":0.4330708661417323,"duration":0.04895833333335986},{"name":"E4","midi":64,"time":192.24270833333617,"velocity":0.4409448818897638,"duration":0.011458333333365545},{"name":"E3","midi":52,"time":192.24375000000285,"velocity":0.44881889763779526,"duration":0.10104166666667425},{"name":"A4","midi":69,"time":192.24687500000286,"velocity":0.4881889763779528,"duration":0.007291666666674246},{"name":"G#5","midi":80,"time":192.43437500000286,"velocity":0.6299212598425197,"duration":0.06145833333334849},{"name":"G#4","midi":68,"time":192.47500000000286,"velocity":0.1968503937007874,"duration":0.028125000000017053},{"name":"D1","midi":26,"time":192.678125000003,"velocity":0.6535433070866141,"duration":0.07395833333333712},{"name":"F#5","midi":78,"time":192.678125000003,"velocity":0.6850393700787402,"duration":0.1895833333334167},{"name":"D2","midi":38,"time":192.687500000003,"velocity":0.6377952755905512,"duration":0.052083333333314386},{"name":"D5","midi":74,"time":192.68958333333634,"velocity":0.5196850393700787,"duration":0.15520833333340533},{"name":"A4","midi":69,"time":192.693750000003,"velocity":0.47244094488188976,"duration":0.04895833333333144},{"name":"E5","midi":76,"time":192.69583333333634,"velocity":0.5196850393700787,"duration":0.16041666666674814},{"name":"A2","midi":45,"time":193.1343750000031,"velocity":0.2992125984251969,"duration":0.06354166666667993},{"name":"D6","midi":86,"time":193.15312500000312,"velocity":0.6692913385826772,"duration":0.08437499999999432},{"name":"D2","midi":38,"time":193.1656250000031,"velocity":0.4330708661417323,"duration":0.026041666666685614},{"name":"A5","midi":81,"time":193.17083333333645,"velocity":0.5039370078740157,"duration":0.05208333333334281},{"name":"D3","midi":50,"time":193.17395833333646,"velocity":0.41732283464566927,"duration":0.03541666666666288},{"name":"D5","midi":74,"time":193.18437500000312,"velocity":0.4645669291338583,"duration":0.009375000000005684},{"name":"F#5","midi":78,"time":193.20416666666978,"velocity":0.1968503937007874,"duration":0.05729166666665719},{"name":"D6","midi":86,"time":193.34479166666978,"velocity":0.6141732283464567,"duration":0.10625000000001705},{"name":"D5","midi":74,"time":193.35416666666978,"velocity":0.4015748031496063,"duration":0.06562500000001137},{"name":"F#5","midi":78,"time":193.3635416666698,"velocity":0.5275590551181102,"duration":0.07916666666667993},{"name":"A5","midi":81,"time":193.36562500000312,"velocity":0.5039370078740157,"duration":0.09375},{"name":"A3","midi":57,"time":193.59062500000312,"velocity":0.5275590551181102,"duration":0.3218750000000341},{"name":"D6","midi":86,"time":193.59479166666978,"velocity":0.6535433070866141,"duration":0.3312500000000398},{"name":"E4","midi":64,"time":193.5979166666698,"velocity":0.5669291338582677,"duration":0.15104166666668561},{"name":"D3","midi":50,"time":193.59895833333647,"velocity":0.5196850393700787,"duration":0.1770833333333428},{"name":"F#5","midi":78,"time":193.60208333333648,"velocity":0.6377952755905512,"duration":0.4375},{"name":"A5","midi":81,"time":193.60625000000314,"velocity":0.6220472440944882,"duration":0.45416666666667993},{"name":"D5","midi":74,"time":193.61250000000314,"velocity":0.5984251968503937,"duration":0.3802083333333428},{"name":"C#6","midi":85,"time":193.61770833333648,"velocity":0.6062992125984252,"duration":0.3812499999999943},{"name":"E3","midi":52,"time":193.67812500000315,"velocity":0.2047244094488189,"duration":0.006249999999994316},{"name":"A3","midi":57,"time":194.06979166666983,"velocity":0.5275590551181102,"duration":0.04583333333332007},{"name":"D4","midi":62,"time":194.0802083333365,"velocity":0.5196850393700787,"duration":0.025000000000005684},{"name":"D3","midi":50,"time":194.0885416666698,"velocity":0.49606299212598426,"duration":0.08333333333334281},{"name":"C#1","midi":25,"time":194.51979166666987,"velocity":0.7322834645669292,"duration":0.07291666666674246},{"name":"C#2","midi":37,"time":194.52500000000325,"velocity":0.7480314960629921,"duration":0.10104166666675951},{"name":"C#6","midi":85,"time":194.5364583333366,"velocity":0.6850393700787402,"duration":0.5166666666667936},{"name":"C#5","midi":73,"time":194.5364583333366,"velocity":0.7086614173228346,"duration":0.5385416666667879},{"name":"B5","midi":83,"time":194.5364583333366,"velocity":0.6299212598425197,"duration":0.5104166666667993},{"name":"A5","midi":81,"time":194.54062500000327,"velocity":0.5590551181102362,"duration":0.4739583333334565},{"name":"G#5","midi":80,"time":194.5531250000033,"velocity":0.5354330708661418,"duration":0.4656250000001023},{"name":"C#3","midi":49,"time":194.98854166667007,"velocity":0.6850393700787402,"duration":0.04062499999997726},{"name":"G#2","midi":44,"time":195.0062500000034,"velocity":0.48031496062992124,"duration":0.03541666666666288},{"name":"C#2","midi":37,"time":195.0343750000034,"velocity":0.33070866141732286,"duration":0.025000000000005684},{"name":"G#3","midi":56,"time":195.45833333333672,"velocity":0.6850393700787402,"duration":0.04479166666669698},{"name":"C#5","midi":73,"time":195.4718750000034,"velocity":0.7244094488188977,"duration":0.10416666666671404},{"name":"C#6","midi":85,"time":195.47395833333672,"velocity":0.6614173228346457,"duration":0.13541666666671404},{"name":"C#3","midi":49,"time":195.4812500000034,"velocity":0.47244094488188976,"duration":0.021875000000022737},{"name":"G#2","midi":44,"time":195.48541666667006,"velocity":0.3937007874015748,"duration":0.027083333333365545},{"name":"A5","midi":81,"time":195.48645833333674,"velocity":0.5748031496062992,"duration":0.11562500000002274},{"name":"B5","midi":83,"time":195.48750000000342,"velocity":0.5511811023622047,"duration":0.12708333333335986},{"name":"G#5","midi":80,"time":195.48958333333675,"velocity":0.5433070866141733,"duration":0.054166666666674246},{"name":"G#3","midi":56,"time":195.89583333333678,"velocity":0.5511811023622047,"duration":0.05937500000001705},{"name":"C#3","midi":49,"time":195.89687500000346,"velocity":0.5039370078740157,"duration":0.08958333333333712},{"name":"C#5","midi":73,"time":195.9020833333368,"velocity":0.6614173228346457,"duration":0.06562500000001137},{"name":"C#6","midi":85,"time":195.90625000000347,"velocity":0.6771653543307087,"duration":0.09999999999999432},{"name":"C#4","midi":61,"time":195.92604166667013,"velocity":0.36220472440944884,"duration":0.013541666666668561},{"name":"G#5","midi":80,"time":195.94791666667012,"velocity":0.3779527559055118,"duration":0.012500000000017053},{"name":"A5","midi":81,"time":195.95625000000348,"velocity":0.3937007874015748,"duration":0.013541666666668561},{"name":"B5","midi":83,"time":195.98229166667014,"velocity":0.2755905511811024,"duration":0.010416666666657193},{"name":"E6","midi":88,"time":196.13229166667014,"velocity":0.6141732283464567,"duration":0.026041666666657193},{"name":"E5","midi":76,"time":196.16354166667014,"velocity":0.3464566929133858,"duration":0.0010416666666799301},{"name":"F#2","midi":42,"time":196.3583333333369,"velocity":0.7165354330708661,"duration":0.040625000000034106},{"name":"F#6","midi":90,"time":196.36562500000358,"velocity":0.6614173228346457,"duration":0.22708333333343944},{"name":"F#5","midi":78,"time":196.37083333333692,"velocity":0.7086614173228346,"duration":0.10625000000010232},{"name":"D6","midi":86,"time":196.37604166667026,"velocity":0.5590551181102362,"duration":0.16145833333342807},{"name":"C#6","midi":85,"time":196.39062500000358,"velocity":0.4881889763779528,"duration":0.1250000000001137},{"name":"F#1","midi":30,"time":196.3937500000036,"velocity":0.4015748031496063,"duration":0.01562500000002842},{"name":"E6","midi":88,"time":196.41250000000363,"velocity":0.49606299212598426,"duration":0.13437500000006253},{"name":"F#3","midi":54,"time":196.82291666667035,"velocity":0.5984251968503937,"duration":0.04374999999998863},{"name":"C#7","midi":97,"time":196.83645833333702,"velocity":0.8031496062992126,"duration":0.0583333333333087},{"name":"C#6","midi":85,"time":196.84270833333701,"velocity":0.6456692913385826,"duration":0.03020833333332007},{"name":"C#3","midi":49,"time":196.85104166667034,"velocity":0.4330708661417323,"duration":0.021874999999994316},{"name":"F#2","midi":42,"time":196.86875000000367,"velocity":0.33070866141732286,"duration":0.010416666666657193},{"name":"B6","midi":95,"time":197.29166666667032,"velocity":0.6692913385826772,"duration":0.1802083333333826},{"name":"C#4","midi":61,"time":197.29375000000366,"velocity":0.6456692913385826,"duration":0.041666666666714036},{"name":"B5","midi":83,"time":197.29479166667033,"velocity":0.6614173228346457,"duration":0.15208333333336554},{"name":"A6","midi":93,"time":197.30000000000368,"velocity":0.6062992125984252,"duration":0.13854166666669698},{"name":"F#6","midi":90,"time":197.317708333337,"velocity":0.6062992125984252,"duration":0.11041666666670835},{"name":"F#3","midi":54,"time":197.32291666667035,"velocity":0.4251968503937008,"duration":0.021875000000022737},{"name":"C#3","midi":49,"time":197.33229166667036,"velocity":0.1968503937007874,"duration":0.041666666666685614},{"name":"G#6","midi":92,"time":197.33541666667037,"velocity":0.4409448818897638,"duration":0.022916666666674246},{"name":"F#3","midi":54,"time":197.7500000000037,"velocity":0.5590551181102362,"duration":0.042708333333365545},{"name":"C#4","midi":61,"time":197.75520833333704,"velocity":0.47244094488188976,"duration":0.015625},{"name":"B6","midi":95,"time":197.7593750000037,"velocity":0.7559055118110236,"duration":0.9500000000001307},{"name":"A6","midi":93,"time":197.7625000000037,"velocity":0.6771653543307087,"duration":0.9333333333334508},{"name":"B5","midi":83,"time":197.76458333333704,"velocity":0.6771653543307087,"duration":0.9979166666667822},{"name":"F#4","midi":66,"time":197.7812500000037,"velocity":0.29133858267716534,"duration":0.0031250000000113687},{"name":"F#6","midi":90,"time":197.78958333333705,"velocity":0.48031496062992124,"duration":0.9375000000001137},{"name":"G#6","midi":92,"time":197.78958333333705,"velocity":0.5590551181102362,"duration":0.9666666666667822},{"name":"E1","midi":28,"time":198.2375000000038,"velocity":0.7244094488188977,"duration":0.07083333333335418},{"name":"E2","midi":40,"time":198.2375000000038,"velocity":0.6692913385826772,"duration":0.10625000000001705},{"name":"E3","midi":52,"time":198.73750000000382,"velocity":0.5748031496062992,"duration":0.04270833333333712},{"name":"B2","midi":47,"time":198.7510416666705,"velocity":0.3937007874015748,"duration":0.03541666666666288},{"name":"E2","midi":40,"time":198.76875000000382,"velocity":0.36220472440944884,"duration":0.021874999999994316},{"name":"E3","midi":52,"time":199.23333333333716,"velocity":0.4094488188976378,"duration":0.03020833333332007},{"name":"C#6","midi":85,"time":199.2354166666705,"velocity":0.7952755905511811,"duration":0.34687499999998295},{"name":"E5","midi":76,"time":199.24062500000383,"velocity":0.6456692913385826,"duration":0.7020833333333201},{"name":"B2","midi":47,"time":199.2447916666705,"velocity":0.3779527559055118,"duration":0.019791666666662877},{"name":"B3","midi":59,"time":199.25729166667048,"velocity":0.36220472440944884,"duration":0.013541666666668561},{"name":"B3","midi":59,"time":199.7031250000038,"velocity":0.44881889763779526,"duration":0.028125000000017053},{"name":"E3","midi":52,"time":199.70520833333714,"velocity":0.28346456692913385,"duration":0.03437500000001137},{"name":"E4","midi":64,"time":199.72604166667048,"velocity":0.3937007874015748,"duration":0.011458333333337123},{"name":"B5","midi":83,"time":199.95625000000382,"velocity":0.5354330708661418,"duration":0.03020833333332007},{"name":"A5","midi":81,"time":200.19375000000386,"velocity":0.5196850393700787,"duration":0.033333333333416704},{"name":"E4","midi":64,"time":200.20000000000388,"velocity":0.3937007874015748,"duration":0.02083333333337123},{"name":"B4","midi":71,"time":200.21041666667057,"velocity":0.2677165354330709,"duration":0.0416666666667993},{"name":"A4","midi":69,"time":200.21354166667058,"velocity":0.33858267716535434,"duration":0.02083333333337123},{"name":"A3","midi":57,"time":200.2364583333373,"velocity":0.25984251968503935,"duration":0.009375000000034106},{"name":"A5","midi":81,"time":200.63125000000406,"velocity":0.5590551181102362,"duration":0.0552083333333826},{"name":"E4","midi":64,"time":200.6364583333374,"velocity":0.4566929133858268,"duration":0.04583333333334849},{"name":"A4","midi":69,"time":200.65729166667074,"velocity":0.3937007874015748,"duration":0.01666666666667993},{"name":"A3","midi":57,"time":200.6625000000041,"velocity":0.3700787401574803,"duration":0.022916666666674246},{"name":"B4","midi":71,"time":200.66875000000408,"velocity":0.3543307086614173,"duration":0.011458333333337123},{"name":"A5","midi":81,"time":201.07916666667077,"velocity":0.5433070866141733,"duration":0.040625000000005684},{"name":"B4","midi":71,"time":201.08437500000412,"velocity":0.4566929133858268,"duration":0.037499999999994316},{"name":"A4","midi":69,"time":201.08958333333746,"velocity":0.4015748031496063,"duration":0.019791666666662877},{"name":"E4","midi":64,"time":201.10416666667078,"velocity":0.3700787401574803,"duration":0.019791666666662877},{"name":"A3","midi":57,"time":201.1281250000041,"velocity":0.2204724409448819,"duration":0.015625},{"name":"A5","midi":81,"time":201.54270833333743,"velocity":0.5039370078740157,"duration":0.04687499999997158},{"name":"A4","midi":69,"time":201.55104166667076,"velocity":0.15748031496062992,"duration":0.08645833333329733},{"name":"E4","midi":64,"time":201.5531250000041,"velocity":0.3543307086614173,"duration":0.03229166666665151},{"name":"A3","midi":57,"time":201.57291666667075,"velocity":0.31496062992125984,"duration":0.0270833333333087},{"name":"B4","midi":71,"time":201.57500000000408,"velocity":0.3543307086614173,"duration":0.008333333333325754},{"name":"E4","midi":64,"time":202.00937500000404,"velocity":0.31496062992125984,"duration":1.0229166666667027},{"name":"E3","midi":52,"time":202.01458333333738,"velocity":0.31496062992125984,"duration":0.9770833333333542},{"name":"G#5","midi":80,"time":202.01979166667073,"velocity":0.5748031496062992,"duration":0.08333333333331439},{"name":"B3","midi":59,"time":202.02187500000406,"velocity":0.2755905511811024,"duration":1.0072916666666742},{"name":"B4","midi":71,"time":202.06562500000405,"velocity":0.25984251968503935,"duration":0.9229166666666799},{"name":"E5","midi":76,"time":202.08750000000404,"velocity":0.06299212598425197,"duration":0.9552083333333599},{"name":"G#5","midi":80,"time":202.23125000000405,"velocity":0.4251968503937008,"duration":0.06041666666666856},{"name":"G#5","midi":80,"time":202.46250000000404,"velocity":0.4409448818897638,"duration":0.07395833333333712},{"name":"G#5","midi":80,"time":202.71562500000405,"velocity":0.3779527559055118,"duration":0.026041666666657193},{"name":"G#5","midi":80,"time":202.93645833333738,"velocity":0.33070866141732286,"duration":0.07812500000002842},{"name":"F#5","midi":78,"time":203.9489583333374,"velocity":0.4251968503937008,"duration":0.06562500000003979},{"name":"F#4","midi":66,"time":203.96979166667074,"velocity":0.2440944881889764,"duration":0.0666666666666913},{"name":"A4","midi":69,"time":203.98229166667073,"velocity":0.2677165354330709,"duration":0.029166666666696983},{"name":"C#5","midi":73,"time":203.9833333333374,"velocity":0.3228346456692913,"duration":0.01875000000001137},{"name":"F#3","midi":54,"time":203.9958333333374,"velocity":0.2204724409448819,"duration":0.042708333333365545},{"name":"C#4","midi":61,"time":203.99687500000408,"velocity":0.2992125984251969,"duration":0.01770833333335986},{"name":"F#4","midi":66,"time":204.42395833333742,"velocity":0.2283464566929134,"duration":0.06041666666669698},{"name":"F#5","midi":78,"time":204.42395833333742,"velocity":0.47244094488188976,"duration":0.055208333333354176},{"name":"C#4","midi":61,"time":204.42916666667077,"velocity":0.29133858267716534,"duration":0.04791666666667993},{"name":"A4","midi":69,"time":204.4468750000041,"velocity":0.3228346456692913,"duration":0.03229166666667993},{"name":"C#5","midi":73,"time":204.4500000000041,"velocity":0.36220472440944884,"duration":0.01770833333333144},{"name":"F#3","midi":54,"time":204.4625000000041,"velocity":0.1889763779527559,"duration":0.04687500000002842},{"name":"F#3","midi":54,"time":204.89895833333745,"velocity":0.3858267716535433,"duration":0.12395833333337691},{"name":"F#5","midi":78,"time":204.9041666666708,"velocity":0.5433070866141733,"duration":0.08437500000002274},{"name":"A4","midi":69,"time":204.92187500000412,"velocity":0.3779527559055118,"duration":0.05208333333337123},{"name":"C#4","midi":61,"time":204.92708333333746,"velocity":0.3700787401574803,"duration":0.06354166666667993},{"name":"F#4","midi":66,"time":204.93020833333748,"velocity":0.29133858267716534,"duration":0.06979166666667425},{"name":"C#5","midi":73,"time":204.9416666666708,"velocity":0.3937007874015748,"duration":0.022916666666674246},{"name":"G#4","midi":68,"time":204.95104166667082,"velocity":0.30708661417322836,"duration":0.039583333333325754},{"name":"F#3","midi":54,"time":205.3427083333375,"velocity":0.4251968503937008,"duration":0.09270833333332007},{"name":"G#4","midi":68,"time":205.3520833333375,"velocity":0.36220472440944884,"duration":0.03437500000001137},{"name":"F#5","midi":78,"time":205.35416666667084,"velocity":0.5275590551181102,"duration":0.08333333333331439},{"name":"C#5","midi":73,"time":205.35520833333752,"velocity":0.49606299212598426,"duration":0.0583333333333087},{"name":"A4","midi":69,"time":205.36041666667086,"velocity":0.4015748031496063,"duration":0.05729166666662877},{"name":"C#4","midi":61,"time":205.3656250000042,"velocity":0.3464566929133858,"duration":0.04583333333329165},{"name":"F#4","midi":66,"time":205.37395833333753,"velocity":0.2440944881889764,"duration":0.024999999999977263},{"name":"E5","midi":76,"time":205.8072916666708,"velocity":0.48031496062992124,"duration":0.07083333333332575},{"name":"A4","midi":69,"time":205.81770833333746,"velocity":0.2677165354330709,"duration":0.9645833333334792},{"name":"D5","midi":74,"time":205.82083333333748,"velocity":0.44881889763779526,"duration":0.04895833333333144},{"name":"A3","midi":57,"time":205.83125000000413,"velocity":0.33070866141732286,"duration":0.9166666666667993},{"name":"E4","midi":64,"time":205.83333333333746,"velocity":0.3464566929133858,"duration":0.5281250000000739},{"name":"D3","midi":50,"time":205.83750000000413,"velocity":0.33070866141732286,"duration":0.8479166666667197},{"name":"D4","midi":62,"time":205.8385416666708,"velocity":0.36220472440944884,"duration":0.47500000000005116},{"name":"D5","midi":74,"time":206.00833333333748,"velocity":0.33858267716535434,"duration":0.06875000000002274},{"name":"E5","midi":76,"time":206.03229166667083,"velocity":0.31496062992125984,"duration":0.04791666666667993},{"name":"E5","midi":76,"time":206.2656250000042,"velocity":0.36220472440944884,"duration":0.05104166666666288},{"name":"D5","midi":74,"time":206.28958333333753,"velocity":0.2677165354330709,"duration":0.028125000000017053},{"name":"D5","midi":74,"time":206.48541666667086,"velocity":0.23622047244094488,"duration":0.06041666666666856},{"name":"E5","midi":76,"time":206.48958333333752,"velocity":0.33070866141732286,"duration":0.0625},{"name":"E4","midi":64,"time":206.7197916666709,"velocity":0.4251968503937008,"duration":0.09895833333337123},{"name":"D5","midi":74,"time":206.72395833333755,"velocity":0.3779527559055118,"duration":0.06666666666671972},{"name":"E5","midi":76,"time":206.72500000000423,"velocity":0.4409448818897638,"duration":0.10729166666669698},{"name":"E4","midi":64,"time":206.93125000000427,"velocity":0.25984251968503935,"duration":0.09687500000001137},{"name":"E4","midi":64,"time":207.18020833333762,"velocity":0.33070866141732286,"duration":0.053124999999994316},{"name":"E4","midi":64,"time":207.40937500000427,"velocity":0.2755905511811024,"duration":0.06458333333333144},{"name":"E4","midi":64,"time":207.62604166667094,"velocity":0.30708661417322836,"duration":1.4552083333333314},{"name":"A5","midi":81,"time":207.62708333333762,"velocity":0.4881889763779528,"duration":0.13333333333335418},{"name":"E5","midi":76,"time":207.65104166667095,"velocity":0.3779527559055118,"duration":1.632291666666731},{"name":"A4","midi":69,"time":207.66041666667095,"velocity":0.29133858267716534,"duration":0.03750000000002274},{"name":"B4","midi":71,"time":207.6656250000043,"velocity":0.29133858267716534,"duration":0.041666666666685614},{"name":"A3","midi":57,"time":207.67083333333764,"velocity":0.2992125984251969,"duration":1.4291666666666458},{"name":"A5","midi":81,"time":208.08958333333766,"velocity":0.44881889763779526,"duration":0.09791666666663446},{"name":"A4","midi":69,"time":208.116666666671,"velocity":0.31496062992125984,"duration":0.053124999999965894},{"name":"B4","midi":71,"time":208.13125000000431,"velocity":0.2992125984251969,"duration":0.03020833333332007},{"name":"A5","midi":81,"time":208.56458333333762,"velocity":0.5511811023622047,"duration":0.1208333333333087},{"name":"A4","midi":69,"time":208.58020833333762,"velocity":0.36220472440944884,"duration":0.06145833333332007},{"name":"B4","midi":71,"time":208.61354166667095,"velocity":0.2992125984251969,"duration":0.015625},{"name":"A4","midi":69,"time":209.01562500000426,"velocity":0.4409448818897638,"duration":0.05000000000001137},{"name":"A5","midi":81,"time":209.01562500000426,"velocity":0.5905511811023622,"duration":0.26041666666674246},{"name":"B4","midi":71,"time":209.04166666667092,"velocity":0.4094488188976378,"duration":0.09166666666669698},{"name":"B5","midi":83,"time":209.23020833333766,"velocity":0.5590551181102362,"duration":0.13541666666668561},{"name":"B3","midi":59,"time":209.47812500000438,"velocity":0.36220472440944884,"duration":0.06145833333334849},{"name":"E4","midi":64,"time":209.4802083333377,"velocity":0.4094488188976378,"duration":0.07187500000000568},{"name":"G#5","midi":80,"time":209.48541666667106,"velocity":0.5275590551181102,"duration":0.08020833333335986},{"name":"E3","midi":52,"time":209.48958333333772,"velocity":0.3543307086614173,"duration":0.0625},{"name":"E5","midi":76,"time":209.50416666667107,"velocity":0.3464566929133858,"duration":0.055208333333354176},{"name":"B4","midi":71,"time":209.5062500000044,"velocity":0.3779527559055118,"duration":0.03541666666666288},{"name":"B3","midi":59,"time":209.70937500000443,"velocity":0.28346456692913385,"duration":0.06562500000003979},{"name":"E4","midi":64,"time":209.71145833333776,"velocity":0.33858267716535434,"duration":0.06250000000002842},{"name":"G#5","midi":80,"time":209.71562500000442,"velocity":0.47244094488188976,"duration":0.06250000000005684},{"name":"E3","midi":52,"time":209.7322916666711,"velocity":0.25196850393700787,"duration":0.039583333333354176},{"name":"B4","midi":71,"time":209.73750000000445,"velocity":0.28346456692913385,"duration":0.015625},{"name":"E5","midi":76,"time":209.74479166667112,"velocity":0.2440944881889764,"duration":0.03333333333335986},{"name":"B4","midi":71,"time":209.92604166667115,"velocity":0.3700787401574803,"duration":0.05312500000002274},{"name":"G#5","midi":80,"time":209.92708333333783,"velocity":0.5118110236220472,"duration":0.07708333333334849},{"name":"E5","midi":76,"time":209.93229166667118,"velocity":0.3779527559055118,"duration":0.06562500000001137},{"name":"E4","midi":64,"time":209.94791666667118,"velocity":0.2677165354330709,"duration":0.03333333333333144},{"name":"B3","midi":59,"time":209.9593750000045,"velocity":0.30708661417322836,"duration":0.027083333333337123},{"name":"E3","midi":52,"time":209.96979166667117,"velocity":0.25984251968503935,"duration":0.025000000000005684},{"name":"B3","midi":59,"time":210.12500000000452,"velocity":0.4015748031496063,"duration":0.05312500000002274},{"name":"E4","midi":64,"time":210.15208333333786,"velocity":0.30708661417322836,"duration":0.043750000000045475},{"name":"E5","midi":76,"time":210.1541666666712,"velocity":0.3937007874015748,"duration":0.0552083333333826},{"name":"G#5","midi":80,"time":210.15625000000452,"velocity":0.5511811023622047,"duration":0.058333333333393966},{"name":"B4","midi":71,"time":210.1697916666712,"velocity":0.3937007874015748,"duration":0.029166666666725405},{"name":"B3","midi":59,"time":210.37083333333797,"velocity":0.5275590551181102,"duration":0.0666666666666913},{"name":"G#4","midi":68,"time":210.37395833333798,"velocity":0.5590551181102362,"duration":0.05312500000002274},{"name":"G#5","midi":80,"time":210.380208333338,"velocity":0.5275590551181102,"duration":0.1052083333333087},{"name":"E5","midi":76,"time":210.389583333338,"velocity":0.4330708661417323,"duration":0.10312499999997726},{"name":"B4","midi":71,"time":210.402083333338,"velocity":0.3700787401574803,"duration":0.04791666666665151},{"name":"G#4","midi":68,"time":210.595833333338,"velocity":0.49606299212598426,"duration":0.04791666666667993},{"name":"G#4","midi":68,"time":210.84791666667135,"velocity":0.4881889763779528,"duration":0.23125000000001705},{"name":"A4","midi":69,"time":211.0625000000047,"velocity":0.4566929133858268,"duration":0.20000000000001705},{"name":"F#4","midi":66,"time":211.30104166667138,"velocity":0.3228346456692913,"duration":0.09687500000001137},{"name":"F#5","midi":78,"time":211.3041666666714,"velocity":0.49606299212598426,"duration":0.09583333333333144},{"name":"C#5","midi":73,"time":211.30625000000472,"velocity":0.5039370078740157,"duration":1.4729166666668334},{"name":"F#3","midi":54,"time":211.30937500000474,"velocity":0.31496062992125984,"duration":1.4645833333334792},{"name":"C#4","midi":61,"time":211.3197916666714,"velocity":0.3779527559055118,"duration":1.4354166666668107},{"name":"F#4","midi":66,"time":211.76979166667138,"velocity":0.33070866141732286,"duration":0.08229166666666288},{"name":"F#5","midi":78,"time":211.77604166667138,"velocity":0.3779527559055118,"duration":0.07395833333333712},{"name":"A4","midi":69,"time":211.78541666667138,"velocity":0.29133858267716534,"duration":0.06666666666666288},{"name":"F#4","midi":66,"time":212.24270833333804,"velocity":0.33070866141732286,"duration":0.08229166666671972},{"name":"A4","midi":69,"time":212.25000000000472,"velocity":0.2992125984251969,"duration":0.06875000000002274},{"name":"F#5","midi":78,"time":212.25520833333806,"velocity":0.3543307086614173,"duration":0.06875000000002274},{"name":"F#4","midi":66,"time":212.70104166667147,"velocity":0.33070866141732286,"duration":0.06770833333339965},{"name":"F#5","midi":78,"time":212.7125000000048,"velocity":0.4409448818897638,"duration":0.08750000000009095},{"name":"A4","midi":69,"time":212.7125000000048,"velocity":0.3464566929133858,"duration":0.1614583333334565},{"name":"A4","midi":69,"time":213.18229166667163,"velocity":0.33070866141732286,"duration":1.1281250000002103},{"name":"D3","midi":50,"time":213.20833333333835,"velocity":0.30708661417322836,"duration":1.0875000000001762},{"name":"A3","midi":57,"time":213.21562500000502,"velocity":0.36220472440944884,"duration":1.0843750000001648},{"name":"E5","midi":76,"time":213.2197916666717,"velocity":0.3228346456692913,"duration":0.06875000000005116},{"name":"D5","midi":74,"time":213.22291666667172,"velocity":0.33858267716535434,"duration":0.04687500000002842},{"name":"E4","midi":64,"time":213.22812500000506,"velocity":0.2204724409448819,"duration":0.17708333333337123},{"name":"D4","midi":62,"time":213.2333333333384,"velocity":0.2440944881889764,"duration":0.18854166666670835},{"name":"E5","midi":76,"time":213.6635416666718,"velocity":0.30708661417322836,"duration":0.06874999999999432},{"name":"D5","midi":74,"time":213.68333333333845,"velocity":0.29133858267716534,"duration":0.05208333333334281},{"name":"E5","midi":76,"time":213.89375000000513,"velocity":0.3543307086614173,"duration":0.08541666666670267},{"name":"D5","midi":74,"time":213.89583333333846,"velocity":0.30708661417322836,"duration":0.0822916666666913},{"name":"D4","midi":62,"time":213.93645833333846,"velocity":0.1889763779527559,"duration":0.06666666666671972},{"name":"E4","midi":64,"time":213.93958333333848,"velocity":0.2047244094488189,"duration":0.056250000000034106},{"name":"E5","midi":76,"time":214.18229166667186,"velocity":0.25984251968503935,"duration":0.14791666666664582},{"name":"D4","midi":62,"time":214.19166666667186,"velocity":0.09448818897637795,"duration":0.11666666666664582},{"name":"D5","midi":74,"time":214.21354166667186,"velocity":0.23622047244094488,"duration":0.053124999999994316},{"name":"E4","midi":64,"time":214.2156250000052,"velocity":0.11811023622047244,"duration":0.08645833333332575}],"controlChanges":{"64":[{"number":64,"time":169.24374999999998,"value":0.12598425196850394},{"number":64,"time":169.24479166666666,"value":0.12598425196850394},{"number":64,"time":169.25312499999998,"value":0.25196850393700787},{"number":64,"time":169.25312499999998,"value":0.25196850393700787},{"number":64,"time":169.26354166666664,"value":0.3779527559055118},{"number":64,"time":169.26354166666664,"value":0.3779527559055118},{"number":64,"time":169.29687499999997,"value":0.47244094488188976},{"number":64,"time":169.29791666666665,"value":0.47244094488188976},{"number":64,"time":169.34374999999997,"value":0.5118110236220472},{"number":64,"time":169.34479166666665,"value":0.5118110236220472},{"number":64,"time":169.37499999999997,"value":0.5433070866141733},{"number":64,"time":169.37604166666665,"value":0.5433070866141733},{"number":64,"time":169.7875,"value":0.5118110236220472},{"number":64,"time":169.7875,"value":0.5118110236220472},{"number":64,"time":169.8239583333333,"value":0.48031496062992124},{"number":64,"time":169.825,"value":0.48031496062992124},{"number":64,"time":169.871875,"value":0.3779527559055118},{"number":64,"time":169.87291666666667,"value":0.3779527559055118},{"number":64,"time":169.95208333333332,"value":0.2755905511811024},{"number":64,"time":169.95208333333332,"value":0.2755905511811024},{"number":64,"time":169.9958333333333,"value":0.18110236220472442},{"number":64,"time":169.996875,"value":0.18110236220472442},{"number":64,"time":170.02395833333333,"value":0.07874015748031496},{"number":64,"time":170.02395833333333,"value":0.07874015748031496},{"number":64,"time":170.03958333333333,"value":0},{"number":64,"time":170.040625,"value":0},{"number":64,"time":170.21979166666668,"value":0.10236220472440945},{"number":64,"time":170.22083333333336,"value":0.10236220472440945},{"number":64,"time":170.22708333333335,"value":0.2283464566929134},{"number":64,"time":170.22812500000003,"value":0.2283464566929134},{"number":64,"time":170.23958333333337,"value":0.3543307086614173},{"number":64,"time":170.24062500000005,"value":0.3543307086614173},{"number":64,"time":170.25520833333337,"value":0.48031496062992124},{"number":64,"time":170.25625000000005,"value":0.48031496062992124},{"number":64,"time":170.31562500000004,"value":0.5118110236220472},{"number":64,"time":170.31666666666672,"value":0.5118110236220472},{"number":64,"time":170.36770833333338,"value":0.5433070866141733},{"number":64,"time":170.36875000000006,"value":0.5433070866141733},{"number":64,"time":170.47187500000007,"value":0.5748031496062992},{"number":64,"time":170.47291666666675,"value":0.5748031496062992},{"number":64,"time":171.13125000000014,"value":0.5433070866141733},{"number":64,"time":171.13229166666682,"value":0.5433070866141733},{"number":64,"time":171.14375000000015,"value":0.5118110236220472},{"number":64,"time":171.14479166666683,"value":0.5118110236220472},{"number":64,"time":171.15625000000017,"value":0.47244094488188976},{"number":64,"time":171.15729166666685,"value":0.47244094488188976},{"number":64,"time":171.1677083333335,"value":0.3779527559055118},{"number":64,"time":171.1687500000002,"value":0.3779527559055118},{"number":64,"time":171.17916666666687,"value":0.2755905511811024},{"number":64,"time":171.18020833333355,"value":0.2755905511811024},{"number":64,"time":171.21562500000022,"value":0.18110236220472442},{"number":64,"time":171.2166666666669,"value":0.18110236220472442},{"number":64,"time":171.30729166666688,"value":0.2992125984251969},{"number":64,"time":171.30833333333356,"value":0.2992125984251969},{"number":64,"time":171.32395833333356,"value":0.4015748031496063},{"number":64,"time":171.32395833333356,"value":0.4015748031496063},{"number":64,"time":171.3354166666669,"value":0.47244094488188976},{"number":64,"time":171.33645833333358,"value":0.47244094488188976},{"number":64,"time":171.35937500000026,"value":0.5118110236220472},{"number":64,"time":171.35937500000026,"value":0.5118110236220472},{"number":64,"time":171.4114583333336,"value":0.5433070866141733},{"number":64,"time":171.41250000000028,"value":0.5433070866141733},{"number":64,"time":171.45208333333363,"value":0.5748031496062992},{"number":64,"time":171.45208333333363,"value":0.5748031496062992},{"number":64,"time":171.49583333333362,"value":0.6062992125984252},{"number":64,"time":171.4968750000003,"value":0.6062992125984252},{"number":64,"time":171.6187500000003,"value":0.6377952755905512},{"number":64,"time":171.61979166666697,"value":0.6377952755905512},{"number":64,"time":173.16979166666698,"value":0.6062992125984252},{"number":64,"time":173.17083333333366,"value":0.6062992125984252},{"number":64,"time":173.18958333333367,"value":0.5669291338582677},{"number":64,"time":173.19062500000035,"value":0.5669291338582677},{"number":64,"time":173.201041666667,"value":0.5196850393700787},{"number":64,"time":173.2020833333337,"value":0.5196850393700787},{"number":64,"time":173.20937500000036,"value":0.48031496062992124},{"number":64,"time":173.21041666666704,"value":0.48031496062992124},{"number":64,"time":173.21770833333372,"value":0.3779527559055118},{"number":64,"time":173.2187500000004,"value":0.3779527559055118},{"number":64,"time":173.2250000000004,"value":0.2755905511811024},{"number":64,"time":173.22604166666707,"value":0.2755905511811024},{"number":64,"time":173.2375000000004,"value":0.18110236220472442},{"number":64,"time":173.2385416666671,"value":0.18110236220472442},{"number":64,"time":173.2541666666671,"value":0.07874015748031496},{"number":64,"time":173.25520833333377,"value":0.07874015748031496},{"number":64,"time":173.28125000000045,"value":0},{"number":64,"time":173.28229166666713,"value":0},{"number":64,"time":173.35729166666712,"value":0.10236220472440945},{"number":64,"time":173.35729166666712,"value":0.10236220472440945},{"number":64,"time":173.3697916666671,"value":0.2283464566929134},{"number":64,"time":173.3708333333338,"value":0.2283464566929134},{"number":64,"time":173.38125000000045,"value":0.33070866141732286},{"number":64,"time":173.38229166666713,"value":0.33070866141732286},{"number":64,"time":173.39791666666713,"value":0.44881889763779526},{"number":64,"time":173.39791666666713,"value":0.44881889763779526},{"number":64,"time":173.40937500000047,"value":0.48031496062992124},{"number":64,"time":173.41041666666715,"value":0.48031496062992124},{"number":64,"time":173.46979166666716,"value":0.5118110236220472},{"number":64,"time":173.46979166666716,"value":0.5118110236220472},{"number":64,"time":173.50520833333383,"value":0.5433070866141733},{"number":64,"time":173.5062500000005,"value":0.5433070866141733},{"number":64,"time":173.8937500000005,"value":0.5118110236220472},{"number":64,"time":173.8937500000005,"value":0.5118110236220472},{"number":64,"time":173.93333333333382,"value":0.48031496062992124},{"number":64,"time":173.9343750000005,"value":0.48031496062992124},{"number":64,"time":173.99791666666715,"value":0.3779527559055118},{"number":64,"time":173.99791666666715,"value":0.3779527559055118},{"number":64,"time":174.04895833333384,"value":0.2755905511811024},{"number":64,"time":174.05000000000052,"value":0.2755905511811024},{"number":64,"time":174.1250000000005,"value":0.18110236220472442},{"number":64,"time":174.1260416666672,"value":0.18110236220472442},{"number":64,"time":174.14895833333387,"value":0.07874015748031496},{"number":64,"time":174.15000000000055,"value":0.07874015748031496},{"number":64,"time":174.16562500000055,"value":0},{"number":64,"time":174.16666666666723,"value":0},{"number":64,"time":174.3645833333339,"value":0.12598425196850394},{"number":64,"time":174.3656250000006,"value":0.12598425196850394},{"number":64,"time":174.37291666666727,"value":0.25196850393700787},{"number":64,"time":174.37395833333395,"value":0.25196850393700787},{"number":64,"time":174.38125000000062,"value":0.3543307086614173},{"number":64,"time":174.3822916666673,"value":0.3543307086614173},{"number":64,"time":174.39270833333396,"value":0.47244094488188976},{"number":64,"time":174.39375000000064,"value":0.47244094488188976},{"number":64,"time":174.41250000000065,"value":0.5039370078740157},{"number":64,"time":174.41354166666733,"value":0.5039370078740157},{"number":64,"time":174.47291666666732,"value":0.5354330708661418},{"number":64,"time":174.47291666666732,"value":0.5354330708661418},{"number":64,"time":174.505208333334,"value":0.5669291338582677},{"number":64,"time":174.50625000000068,"value":0.5669291338582677},{"number":64,"time":174.5968750000007,"value":0.5984251968503937},{"number":64,"time":174.59791666666737,"value":0.5984251968503937},{"number":64,"time":175.28125000000074,"value":0.5669291338582677},{"number":64,"time":175.28229166666742,"value":0.5669291338582677},{"number":64,"time":175.30000000000078,"value":0.5275590551181102},{"number":64,"time":175.30104166666746,"value":0.5275590551181102},{"number":64,"time":175.3125000000008,"value":0.4881889763779528},{"number":64,"time":175.31354166666748,"value":0.4881889763779528},{"number":64,"time":175.3281250000008,"value":0.4015748031496063},{"number":64,"time":175.32916666666748,"value":0.4015748031496063},{"number":64,"time":175.3479166666675,"value":0.2992125984251969},{"number":64,"time":175.34895833333417,"value":0.2992125984251969},{"number":64,"time":175.45625000000084,"value":0.4015748031496063},{"number":64,"time":175.45625000000084,"value":0.4015748031496063},{"number":64,"time":175.47291666666752,"value":0.47244094488188976},{"number":64,"time":175.47291666666752,"value":0.47244094488188976},{"number":64,"time":175.4958333333342,"value":0.5039370078740157},{"number":64,"time":175.49687500000087,"value":0.5039370078740157},{"number":64,"time":175.5364583333342,"value":0.5354330708661418},{"number":64,"time":175.53750000000088,"value":0.5354330708661418},{"number":64,"time":175.58437500000088,"value":0.5669291338582677},{"number":64,"time":175.58541666666756,"value":0.5669291338582677},{"number":64,"time":175.6645833333342,"value":0.5984251968503937},{"number":64,"time":175.6656250000009,"value":0.5984251968503937},{"number":64,"time":176.22812500000092,"value":0.5590551181102362},{"number":64,"time":176.22812500000092,"value":0.5590551181102362},{"number":64,"time":176.24895833333426,"value":0.5275590551181102},{"number":64,"time":176.25000000000094,"value":0.5275590551181102},{"number":64,"time":176.26145833333428,"value":0.4881889763779528},{"number":64,"time":176.26250000000095,"value":0.4881889763779528},{"number":64,"time":176.27708333333428,"value":0.4015748031496063},{"number":64,"time":176.27708333333428,"value":0.4015748031496063},{"number":64,"time":176.2958333333343,"value":0.2992125984251969},{"number":64,"time":176.29687500000097,"value":0.2992125984251969},{"number":64,"time":176.3239583333343,"value":0.2047244094488189},{"number":64,"time":176.32500000000098,"value":0.2047244094488189},{"number":64,"time":176.42395833333433,"value":0.3543307086614173},{"number":64,"time":176.425000000001,"value":0.3543307086614173},{"number":64,"time":176.46458333333433,"value":0.47244094488188976},{"number":64,"time":176.465625000001,"value":0.47244094488188976},{"number":64,"time":176.5041666666677,"value":0.5039370078740157},{"number":64,"time":176.5041666666677,"value":0.5039370078740157},{"number":64,"time":176.57291666666768,"value":0.5354330708661418},{"number":64,"time":176.57395833333436,"value":0.5354330708661418},{"number":64,"time":176.9322916666677,"value":0.5669291338582677},{"number":64,"time":176.9333333333344,"value":0.5669291338582677},{"number":64,"time":177.0635416666677,"value":0.5984251968503937},{"number":64,"time":177.06458333333438,"value":0.5984251968503937},{"number":64,"time":177.19479166666773,"value":0.5669291338582677},{"number":64,"time":177.1958333333344,"value":0.5669291338582677},{"number":64,"time":177.20729166666774,"value":0.5354330708661418},{"number":64,"time":177.20833333333442,"value":0.5354330708661418},{"number":64,"time":177.2156250000011,"value":0.5039370078740157},{"number":64,"time":177.21666666666778,"value":0.5039370078740157},{"number":64,"time":177.22708333333443,"value":0.47244094488188976},{"number":64,"time":177.2281250000011,"value":0.47244094488188976},{"number":64,"time":177.31145833333449,"value":0.5039370078740157},{"number":64,"time":177.31250000000117,"value":0.5039370078740157},{"number":64,"time":177.33125000000118,"value":0.5354330708661418},{"number":64,"time":177.33229166666786,"value":0.5354330708661418},{"number":64,"time":177.3614583333345,"value":0.5669291338582677},{"number":64,"time":177.36250000000118,"value":0.5669291338582677},{"number":64,"time":177.3958333333345,"value":0.5984251968503937},{"number":64,"time":177.3968750000012,"value":0.5984251968503937},{"number":64,"time":178.2197916666679,"value":0.5669291338582677},{"number":64,"time":178.2197916666679,"value":0.5669291338582677},{"number":64,"time":178.2354166666679,"value":0.5275590551181102},{"number":64,"time":178.2354166666679,"value":0.5275590551181102},{"number":64,"time":178.24375000000123,"value":0.49606299212598426},{"number":64,"time":178.2447916666679,"value":0.49606299212598426},{"number":64,"time":178.2708333333346,"value":0.4015748031496063},{"number":64,"time":178.27187500000127,"value":0.4015748031496063},{"number":64,"time":178.33541666666792,"value":0.47244094488188976},{"number":64,"time":178.3364583333346,"value":0.47244094488188976},{"number":64,"time":178.36354166666794,"value":0.5039370078740157},{"number":64,"time":178.36458333333462,"value":0.5039370078740157},{"number":64,"time":178.39895833333463,"value":0.5354330708661418},{"number":64,"time":178.4000000000013,"value":0.5354330708661418},{"number":64,"time":178.43958333333464,"value":0.5669291338582677},{"number":64,"time":178.43958333333464,"value":0.5669291338582677},{"number":64,"time":178.49895833333463,"value":0.5984251968503937},{"number":64,"time":178.5000000000013,"value":0.5984251968503937},{"number":64,"time":179.1947916666679,"value":0.5669291338582677},{"number":64,"time":179.19583333333458,"value":0.5669291338582677},{"number":64,"time":179.20312500000125,"value":0.5354330708661418},{"number":64,"time":179.20416666666793,"value":0.5354330708661418},{"number":64,"time":179.2114583333346,"value":0.5039370078740157},{"number":64,"time":179.21250000000128,"value":0.5039370078740157},{"number":64,"time":179.21875000000128,"value":0.47244094488188976},{"number":64,"time":179.21979166666796,"value":0.47244094488188976},{"number":64,"time":179.2312500000013,"value":0.3543307086614173},{"number":64,"time":179.23229166666798,"value":0.3543307086614173},{"number":64,"time":179.36354166666797,"value":0.47244094488188976},{"number":64,"time":179.36354166666797,"value":0.47244094488188976},{"number":64,"time":179.39895833333463,"value":0.5039370078740157},{"number":64,"time":179.4000000000013,"value":0.5039370078740157},{"number":64,"time":179.4312500000013,"value":0.5354330708661418},{"number":64,"time":179.432291666668,"value":0.5354330708661418},{"number":64,"time":179.45937500000133,"value":0.5669291338582677},{"number":64,"time":179.460416666668,"value":0.5669291338582677},{"number":64,"time":179.50312500000135,"value":0.5984251968503937},{"number":64,"time":179.50312500000135,"value":0.5984251968503937},{"number":64,"time":179.60000000000136,"value":0.6299212598425197},{"number":64,"time":179.60104166666804,"value":0.6299212598425197},{"number":64,"time":180.0427083333347,"value":0.7322834645669292},{"number":64,"time":180.0427083333347,"value":0.7322834645669292},{"number":64,"time":180.1302083333347,"value":0.6535433070866141},{"number":64,"time":180.1312500000014,"value":0.6535433070866141},{"number":64,"time":180.1458333333347,"value":0.6220472440944882},{"number":64,"time":180.1468750000014,"value":0.6220472440944882},{"number":64,"time":180.1625000000014,"value":0.5826771653543307},{"number":64,"time":180.1625000000014,"value":0.5826771653543307},{"number":64,"time":180.17916666666807,"value":0.5433070866141733},{"number":64,"time":180.17916666666807,"value":0.5433070866141733},{"number":64,"time":180.18645833333474,"value":0.5118110236220472},{"number":64,"time":180.18750000000142,"value":0.5118110236220472},{"number":64,"time":180.19791666666808,"value":0.48031496062992124},{"number":64,"time":180.19895833333476,"value":0.48031496062992124},{"number":64,"time":180.27500000000146,"value":0.5118110236220472},{"number":64,"time":180.27604166666814,"value":0.5118110236220472},{"number":64,"time":180.3020833333348,"value":0.5511811023622047},{"number":64,"time":180.3020833333348,"value":0.5511811023622047},{"number":64,"time":180.33541666666812,"value":0.5826771653543307},{"number":64,"time":180.3364583333348,"value":0.5826771653543307},{"number":64,"time":180.52291666666815,"value":0.6141732283464567},{"number":64,"time":180.52291666666815,"value":0.6141732283464567},{"number":64,"time":180.7562500000015,"value":0.6456692913385826},{"number":64,"time":180.75729166666818,"value":0.6456692913385826},{"number":64,"time":181.12604166666821,"value":0.6141732283464567},{"number":64,"time":181.1270833333349,"value":0.6141732283464567},{"number":64,"time":181.13854166666823,"value":0.5826771653543307},{"number":64,"time":181.1395833333349,"value":0.5826771653543307},{"number":64,"time":181.15416666666823,"value":0.5433070866141733},{"number":64,"time":181.1552083333349,"value":0.5433070866141733},{"number":64,"time":181.1614583333349,"value":0.5118110236220472},{"number":64,"time":181.1625000000016,"value":0.5118110236220472},{"number":64,"time":181.16979166666826,"value":0.48031496062992124},{"number":64,"time":181.17083333333494,"value":0.48031496062992124},{"number":64,"time":181.2541666666683,"value":0.5118110236220472},{"number":64,"time":181.255208333335,"value":0.5118110236220472},{"number":64,"time":181.27812500000167,"value":0.5433070866141733},{"number":64,"time":181.27916666666835,"value":0.5433070866141733},{"number":64,"time":181.30208333333502,"value":0.5748031496062992},{"number":64,"time":181.30208333333502,"value":0.5748031496062992},{"number":64,"time":181.33854166666833,"value":0.6062992125984252},{"number":64,"time":181.33854166666833,"value":0.6062992125984252},{"number":64,"time":181.60208333333497,"value":0.6377952755905512},{"number":64,"time":181.60208333333497,"value":0.6377952755905512},{"number":64,"time":182.1500000000016,"value":0.6062992125984252},{"number":64,"time":182.1500000000016,"value":0.6062992125984252},{"number":64,"time":182.16250000000161,"value":0.5669291338582677},{"number":64,"time":182.16250000000161,"value":0.5669291338582677},{"number":64,"time":182.1750000000016,"value":0.5275590551181102},{"number":64,"time":182.17604166666828,"value":0.5275590551181102},{"number":64,"time":182.18437500000164,"value":0.49606299212598426},{"number":64,"time":182.18541666666832,"value":0.49606299212598426},{"number":64,"time":182.20625000000166,"value":0.4015748031496063},{"number":64,"time":182.20729166666834,"value":0.4015748031496063},{"number":64,"time":182.26562500000168,"value":0.48031496062992124},{"number":64,"time":182.26666666666836,"value":0.48031496062992124},{"number":64,"time":182.28958333333503,"value":0.5196850393700787},{"number":64,"time":182.2906250000017,"value":0.5196850393700787},{"number":64,"time":182.31458333333504,"value":0.5511811023622047},{"number":64,"time":182.31562500000172,"value":0.5511811023622047},{"number":64,"time":182.34583333333504,"value":0.5826771653543307},{"number":64,"time":182.34687500000172,"value":0.5826771653543307},{"number":64,"time":182.37812500000172,"value":0.6141732283464567},{"number":64,"time":182.37812500000172,"value":0.6141732283464567},{"number":64,"time":182.4260416666684,"value":0.6456692913385826},{"number":64,"time":182.42708333333508,"value":0.6456692913385826},{"number":64,"time":183.0802083333351,"value":0.6141732283464567},{"number":64,"time":183.08125000000177,"value":0.6141732283464567},{"number":64,"time":183.0958333333351,"value":0.5748031496062992},{"number":64,"time":183.09687500000177,"value":0.5748031496062992},{"number":64,"time":183.10416666666845,"value":0.5433070866141733},{"number":64,"time":183.10520833333513,"value":0.5433070866141733},{"number":64,"time":183.1125000000018,"value":0.5039370078740157},{"number":64,"time":183.11354166666848,"value":0.5039370078740157},{"number":64,"time":183.12395833333514,"value":0.4015748031496063},{"number":64,"time":183.12395833333514,"value":0.4015748031496063},{"number":64,"time":183.14166666666847,"value":0.2992125984251969},{"number":64,"time":183.14270833333515,"value":0.2992125984251969},{"number":64,"time":183.21354166666848,"value":0.4015748031496063},{"number":64,"time":183.21458333333516,"value":0.4015748031496063},{"number":64,"time":183.2250000000018,"value":0.47244094488188976},{"number":64,"time":183.2260416666685,"value":0.47244094488188976},{"number":64,"time":183.23645833333515,"value":0.5039370078740157},{"number":64,"time":183.23645833333515,"value":0.5039370078740157},{"number":64,"time":183.25208333333515,"value":0.5354330708661418},{"number":64,"time":183.25312500000183,"value":0.5354330708661418},{"number":64,"time":183.28437500000183,"value":0.5748031496062992},{"number":64,"time":183.2854166666685,"value":0.5748031496062992},{"number":64,"time":183.34166666666852,"value":0.6062992125984252},{"number":64,"time":183.3427083333352,"value":0.6062992125984252},{"number":64,"time":183.72187500000186,"value":0.6377952755905512},{"number":64,"time":183.72291666666854,"value":0.6377952755905512},{"number":64,"time":185.03958333333517,"value":0.6062992125984252},{"number":64,"time":185.04062500000185,"value":0.6062992125984252},{"number":64,"time":185.0520833333352,"value":0.5669291338582677},{"number":64,"time":185.05312500000187,"value":0.5669291338582677},{"number":64,"time":185.05937500000186,"value":0.5354330708661418},{"number":64,"time":185.06041666666854,"value":0.5354330708661418},{"number":64,"time":185.06770833333522,"value":0.4881889763779528},{"number":64,"time":185.0687500000019,"value":0.4881889763779528},{"number":64,"time":185.07604166666857,"value":0.4015748031496063},{"number":64,"time":185.07604166666857,"value":0.4015748031496063},{"number":64,"time":185.0843750000019,"value":0.2992125984251969},{"number":64,"time":185.0843750000019,"value":0.2992125984251969},{"number":64,"time":185.17187500000193,"value":0.4015748031496063},{"number":64,"time":185.1729166666686,"value":0.4015748031496063},{"number":64,"time":185.1802083333353,"value":0.48031496062992124},{"number":64,"time":185.18125000000197,"value":0.48031496062992124},{"number":64,"time":185.19166666666865,"value":0.5196850393700787},{"number":64,"time":185.19270833333533,"value":0.5196850393700787},{"number":64,"time":185.20416666666867,"value":0.5511811023622047},{"number":64,"time":185.20520833333535,"value":0.5511811023622047},{"number":64,"time":185.22395833333536,"value":0.5826771653543307},{"number":64,"time":185.22500000000204,"value":0.5826771653543307},{"number":64,"time":185.25625000000204,"value":0.6141732283464567},{"number":64,"time":185.25729166666872,"value":0.6141732283464567},{"number":64,"time":185.32395833333538,"value":0.6456692913385826},{"number":64,"time":185.32500000000206,"value":0.6456692913385826},{"number":64,"time":186.94270833333553,"value":0.6141732283464567},{"number":64,"time":186.94270833333553,"value":0.6141732283464567},{"number":64,"time":186.95520833333552,"value":0.5826771653543307},{"number":64,"time":186.9562500000022,"value":0.5826771653543307},{"number":64,"time":186.9625000000022,"value":0.5511811023622047},{"number":64,"time":186.96354166666887,"value":0.5511811023622047},{"number":64,"time":186.97083333333555,"value":0.5039370078740157},{"number":64,"time":186.97083333333555,"value":0.5039370078740157},{"number":64,"time":186.98333333333554,"value":0.3543307086614173},{"number":64,"time":186.98333333333554,"value":0.3543307086614173},{"number":64,"time":186.9906250000022,"value":0.2283464566929134},{"number":64,"time":186.9916666666689,"value":0.2283464566929134},{"number":64,"time":187.0010416666689,"value":0.12598425196850394},{"number":64,"time":187.00208333333558,"value":0.12598425196850394},{"number":64,"time":187.01458333333557,"value":0.031496062992125984},{"number":64,"time":187.01562500000225,"value":0.031496062992125984},{"number":64,"time":187.0864583333356,"value":0.18110236220472442},{"number":64,"time":187.08750000000228,"value":0.18110236220472442},{"number":64,"time":187.09479166666895,"value":0.2992125984251969},{"number":64,"time":187.09583333333563,"value":0.2992125984251969},{"number":64,"time":187.1031250000023,"value":0.4251968503937008},{"number":64,"time":187.104166666669,"value":0.4251968503937008},{"number":64,"time":187.107291666669,"value":0.48031496062992124},{"number":64,"time":187.10833333333568,"value":0.48031496062992124},{"number":64,"time":187.116666666669,"value":0.5196850393700787},{"number":64,"time":187.11770833333568,"value":0.5196850393700787},{"number":64,"time":187.12500000000236,"value":0.5511811023622047},{"number":64,"time":187.12604166666904,"value":0.5511811023622047},{"number":64,"time":187.14270833333572,"value":0.5826771653543307},{"number":64,"time":187.1437500000024,"value":0.5826771653543307},{"number":64,"time":187.18333333333575,"value":0.6141732283464567},{"number":64,"time":187.18333333333575,"value":0.6141732283464567},{"number":64,"time":187.23854166666908,"value":0.6535433070866141},{"number":64,"time":187.23958333333576,"value":0.6535433070866141},{"number":64,"time":188.8739583333358,"value":0.6220472440944882},{"number":64,"time":188.87500000000247,"value":0.6220472440944882},{"number":64,"time":188.8864583333358,"value":0.5826771653543307},{"number":64,"time":188.8875000000025,"value":0.5826771653543307},{"number":64,"time":188.89375000000248,"value":0.5511811023622047},{"number":64,"time":188.89479166666916,"value":0.5511811023622047},{"number":64,"time":188.90208333333584,"value":0.5039370078740157},{"number":64,"time":188.90312500000252,"value":0.5039370078740157},{"number":64,"time":188.91354166666918,"value":0.3779527559055118},{"number":64,"time":188.91458333333586,"value":0.3779527559055118},{"number":64,"time":188.9260416666692,"value":0.2755905511811024},{"number":64,"time":188.92708333333587,"value":0.2755905511811024},{"number":64,"time":189.0072916666692,"value":0.3779527559055118},{"number":64,"time":189.0072916666692,"value":0.3779527559055118},{"number":64,"time":189.01875000000254,"value":0.47244094488188976},{"number":64,"time":189.01979166666922,"value":0.47244094488188976},{"number":64,"time":189.02604166666922,"value":0.5039370078740157},{"number":64,"time":189.0270833333359,"value":0.5039370078740157},{"number":64,"time":189.03750000000255,"value":0.5354330708661418},{"number":64,"time":189.03854166666923,"value":0.5354330708661418},{"number":64,"time":189.05625000000256,"value":0.5669291338582677},{"number":64,"time":189.05625000000256,"value":0.5669291338582677},{"number":64,"time":189.07916666666924,"value":0.5984251968503937},{"number":64,"time":189.08020833333592,"value":0.5984251968503937},{"number":64,"time":189.09791666666925,"value":0.6299212598425197},{"number":64,"time":189.09895833333593,"value":0.6299212598425197},{"number":64,"time":190.7458333333359,"value":0.5984251968503937},{"number":64,"time":190.74687500000258,"value":0.5984251968503937},{"number":64,"time":190.75312500000257,"value":0.5669291338582677},{"number":64,"time":190.75416666666925,"value":0.5669291338582677},{"number":64,"time":190.76145833333592,"value":0.5275590551181102},{"number":64,"time":190.7625000000026,"value":0.5275590551181102},{"number":64,"time":190.76562500000261,"value":0.49606299212598426},{"number":64,"time":190.76562500000261,"value":0.49606299212598426},{"number":64,"time":190.77395833333594,"value":0.3779527559055118},{"number":64,"time":190.77500000000262,"value":0.3779527559055118},{"number":64,"time":190.78125000000261,"value":0.25196850393700787},{"number":64,"time":190.7822916666693,"value":0.25196850393700787},{"number":64,"time":190.78958333333597,"value":0.14960629921259844},{"number":64,"time":190.78958333333597,"value":0.14960629921259844},{"number":64,"time":190.80208333333596,"value":0.05511811023622047},{"number":64,"time":190.80208333333596,"value":0.05511811023622047},{"number":64,"time":190.8135416666693,"value":0},{"number":64,"time":190.81458333333597,"value":0},{"number":64,"time":190.88958333333596,"value":0.14960629921259844},{"number":64,"time":190.88958333333596,"value":0.14960629921259844},{"number":64,"time":190.8979166666693,"value":0.2755905511811024},{"number":64,"time":190.89895833333597,"value":0.2755905511811024},{"number":64,"time":190.90520833333596,"value":0.4015748031496063},{"number":64,"time":190.90625000000264,"value":0.4015748031496063},{"number":64,"time":190.90937500000265,"value":0.47244094488188976},{"number":64,"time":190.91041666666933,"value":0.47244094488188976},{"number":64,"time":190.917708333336,"value":0.5118110236220472},{"number":64,"time":190.9187500000027,"value":0.5118110236220472},{"number":64,"time":190.93020833333603,"value":0.5511811023622047},{"number":64,"time":190.93020833333603,"value":0.5511811023622047},{"number":64,"time":190.96145833333603,"value":0.5826771653543307},{"number":64,"time":190.9625000000027,"value":0.5826771653543307},{"number":64,"time":191.0093750000027,"value":0.6141732283464567},{"number":64,"time":191.01041666666939,"value":0.6141732283464567},{"number":64,"time":191.03333333333606,"value":0.6456692913385826},{"number":64,"time":191.03437500000274,"value":0.6456692913385826},{"number":64,"time":192.56041666666954,"value":0.7559055118110236},{"number":64,"time":192.56145833333622,"value":0.7559055118110236},{"number":64,"time":192.60833333333622,"value":0.6614173228346457},{"number":64,"time":192.6093750000029,"value":0.6614173228346457},{"number":64,"time":192.61770833333622,"value":0.6299212598425197},{"number":64,"time":192.6187500000029,"value":0.6299212598425197},{"number":64,"time":192.6250000000029,"value":0.5905511811023622},{"number":64,"time":192.6250000000029,"value":0.5905511811023622},{"number":64,"time":192.63229166666957,"value":0.5511811023622047},{"number":64,"time":192.63333333333625,"value":0.5511811023622047},{"number":64,"time":192.64062500000293,"value":0.49606299212598426},{"number":64,"time":192.6416666666696,"value":0.49606299212598426},{"number":64,"time":192.64895833333628,"value":0.3543307086614173},{"number":64,"time":192.65000000000296,"value":0.3543307086614173},{"number":64,"time":192.65312500000297,"value":0.25196850393700787},{"number":64,"time":192.65312500000297,"value":0.25196850393700787},{"number":64,"time":192.66041666666965,"value":0.10236220472440945},{"number":64,"time":192.66145833333633,"value":0.10236220472440945},{"number":64,"time":192.668750000003,"value":0},{"number":64,"time":192.66979166666968,"value":0},{"number":64,"time":192.76875000000302,"value":0.18110236220472442},{"number":64,"time":192.76875000000302,"value":0.18110236220472442},{"number":64,"time":192.77708333333635,"value":0.3543307086614173},{"number":64,"time":192.77812500000303,"value":0.3543307086614173},{"number":64,"time":192.78437500000302,"value":0.4881889763779528},{"number":64,"time":192.7854166666697,"value":0.4881889763779528},{"number":64,"time":192.78854166666972,"value":0.5196850393700787},{"number":64,"time":192.78854166666972,"value":0.5196850393700787},{"number":64,"time":192.79687500000304,"value":0.5511811023622047},{"number":64,"time":192.79791666666972,"value":0.5511811023622047},{"number":64,"time":192.83229166666973,"value":0.5826771653543307},{"number":64,"time":192.8333333333364,"value":0.5826771653543307},{"number":64,"time":192.8645833333364,"value":0.6141732283464567},{"number":64,"time":192.8656250000031,"value":0.6141732283464567},{"number":64,"time":192.88854166666977,"value":0.6456692913385826},{"number":64,"time":192.88854166666977,"value":0.6456692913385826},{"number":64,"time":194.47812500000316,"value":0.6141732283464567},{"number":64,"time":194.47916666666984,"value":0.6141732283464567},{"number":64,"time":194.48750000000317,"value":0.5826771653543307},{"number":64,"time":194.48750000000317,"value":0.5826771653543307},{"number":64,"time":194.49479166666984,"value":0.5433070866141733},{"number":64,"time":194.49583333333652,"value":0.5433070866141733},{"number":64,"time":194.50104166666986,"value":0.5118110236220472},{"number":64,"time":194.50104166666986,"value":0.5118110236220472},{"number":64,"time":194.5031250000032,"value":0.48031496062992124},{"number":64,"time":194.50520833333653,"value":0.48031496062992124},{"number":64,"time":194.51145833333652,"value":0.33070866141732286},{"number":64,"time":194.5125000000032,"value":0.33070866141732286},{"number":64,"time":194.5229166666699,"value":0.2047244094488189},{"number":64,"time":194.52395833333657,"value":0.2047244094488189},{"number":64,"time":194.52812500000326,"value":0.07874015748031496},{"number":64,"time":194.52916666666994,"value":0.07874015748031496},{"number":64,"time":194.55104166666993,"value":0},{"number":64,"time":194.5520833333366,"value":0},{"number":64,"time":194.5989583333366,"value":0.12598425196850394},{"number":64,"time":194.6000000000033,"value":0.12598425196850394},{"number":64,"time":194.60625000000329,"value":0.25196850393700787},{"number":64,"time":194.60729166666997,"value":0.25196850393700787},{"number":64,"time":194.61458333333664,"value":0.3779527559055118},{"number":64,"time":194.61562500000332,"value":0.3779527559055118},{"number":64,"time":194.62395833333665,"value":0.48031496062992124},{"number":64,"time":194.62500000000333,"value":0.48031496062992124},{"number":64,"time":194.62916666667002,"value":0.5118110236220472},{"number":64,"time":194.6302083333367,"value":0.5118110236220472},{"number":64,"time":194.6364583333367,"value":0.5433070866141733},{"number":64,"time":194.63750000000337,"value":0.5433070866141733},{"number":64,"time":194.64687500000338,"value":0.5748031496062992},{"number":64,"time":194.64791666667006,"value":0.5748031496062992},{"number":64,"time":194.66666666667007,"value":0.6062992125984252},{"number":64,"time":194.66770833333675,"value":0.6062992125984252},{"number":64,"time":194.69895833333675,"value":0.6377952755905512},{"number":64,"time":194.69895833333675,"value":0.6377952755905512},{"number":64,"time":194.75833333333674,"value":0.7322834645669292},{"number":64,"time":194.75937500000342,"value":0.7322834645669292},{"number":64,"time":196.21770833333682,"value":0.8267716535433071},{"number":64,"time":196.2187500000035,"value":0.8267716535433071},{"number":64,"time":196.28541666667016,"value":0.7322834645669292},{"number":64,"time":196.28541666667016,"value":0.7322834645669292},{"number":64,"time":196.29791666667015,"value":0.6456692913385826},{"number":64,"time":196.29791666667015,"value":0.6456692913385826},{"number":64,"time":196.30520833333682,"value":0.6141732283464567},{"number":64,"time":196.3062500000035,"value":0.6141732283464567},{"number":64,"time":196.31354166667018,"value":0.5826771653543307},{"number":64,"time":196.31458333333686,"value":0.5826771653543307},{"number":64,"time":196.32083333333685,"value":0.5433070866141733},{"number":64,"time":196.32187500000353,"value":0.5433070866141733},{"number":64,"time":196.3291666666702,"value":0.5039370078740157},{"number":64,"time":196.33020833333688,"value":0.5039370078740157},{"number":64,"time":196.34166666667022,"value":0.4015748031496063},{"number":64,"time":196.3427083333369,"value":0.4015748031496063},{"number":64,"time":196.40520833333693,"value":0.47244094488188976},{"number":64,"time":196.4062500000036,"value":0.47244094488188976},{"number":64,"time":196.41770833333698,"value":0.5039370078740157},{"number":64,"time":196.41875000000366,"value":0.5039370078740157},{"number":64,"time":196.42500000000365,"value":0.5354330708661418},{"number":64,"time":196.42604166667033,"value":0.5354330708661418},{"number":64,"time":196.44166666667033,"value":0.5669291338582677},{"number":64,"time":196.442708333337,"value":0.5669291338582677},{"number":64,"time":196.45312500000367,"value":0.5984251968503937},{"number":64,"time":196.45416666667035,"value":0.5984251968503937},{"number":64,"time":196.46562500000368,"value":0.6299212598425197},{"number":64,"time":196.46666666667036,"value":0.6299212598425197},{"number":64,"time":196.489583333337,"value":0.7322834645669292},{"number":64,"time":196.4906250000037,"value":0.7322834645669292},{"number":64,"time":196.6093750000037,"value":0.8267716535433071},{"number":64,"time":196.6093750000037,"value":0.8267716535433071},{"number":64,"time":198.16458333333705,"value":0.7322834645669292},{"number":64,"time":198.16562500000373,"value":0.7322834645669292},{"number":64,"time":198.1729166666704,"value":0.6456692913385826},{"number":64,"time":198.1729166666704,"value":0.6456692913385826},{"number":64,"time":198.18020833333708,"value":0.6062992125984252},{"number":64,"time":198.18125000000376,"value":0.6062992125984252},{"number":64,"time":198.18854166667043,"value":0.5748031496062992},{"number":64,"time":198.1895833333371,"value":0.5748031496062992},{"number":64,"time":198.1958333333371,"value":0.5275590551181102},{"number":64,"time":198.19687500000379,"value":0.5275590551181102},{"number":64,"time":198.2052083333371,"value":0.47244094488188976},{"number":64,"time":198.2052083333371,"value":0.47244094488188976},{"number":64,"time":198.21250000000379,"value":0.3779527559055118},{"number":64,"time":198.21354166667047,"value":0.3779527559055118},{"number":64,"time":198.28854166667045,"value":0.47244094488188976},{"number":64,"time":198.28958333333713,"value":0.47244094488188976},{"number":64,"time":198.3000000000038,"value":0.5118110236220472},{"number":64,"time":198.30104166667047,"value":0.5118110236220472},{"number":64,"time":198.3125000000038,"value":0.5511811023622047},{"number":64,"time":198.3135416666705,"value":0.5511811023622047},{"number":64,"time":198.3281250000038,"value":0.5826771653543307},{"number":64,"time":198.3281250000038,"value":0.5826771653543307},{"number":64,"time":198.34791666667047,"value":0.6141732283464567},{"number":64,"time":198.34895833333715,"value":0.6141732283464567},{"number":64,"time":198.3687500000038,"value":0.6535433070866141},{"number":64,"time":198.3697916666705,"value":0.6535433070866141},{"number":64,"time":198.4041666666705,"value":0.7559055118110236},{"number":64,"time":198.4041666666705,"value":0.7559055118110236},{"number":64,"time":198.4572916666705,"value":0.8503937007874016},{"number":64,"time":198.4572916666705,"value":0.8503937007874016},{"number":64,"time":200.17500000000382,"value":0.7322834645669292},{"number":64,"time":200.1760416666705,"value":0.7322834645669292},{"number":64,"time":200.18750000000384,"value":0.6535433070866141},{"number":64,"time":200.18854166667052,"value":0.6535433070866141},{"number":64,"time":200.19687500000387,"value":0.6220472440944882},{"number":64,"time":200.19791666667055,"value":0.6220472440944882},{"number":64,"time":200.20520833333723,"value":0.5905511811023622},{"number":64,"time":200.20520833333723,"value":0.5905511811023622},{"number":64,"time":200.2156250000039,"value":0.5590551181102362},{"number":64,"time":200.2156250000039,"value":0.5590551181102362},{"number":64,"time":200.2260416666706,"value":0.5118110236220472},{"number":64,"time":200.22708333333728,"value":0.5118110236220472},{"number":64,"time":200.23437500000395,"value":0.48031496062992124},{"number":64,"time":200.23541666667063,"value":0.48031496062992124},{"number":64,"time":200.23958333333732,"value":0.3779527559055118},{"number":64,"time":200.240625000004,"value":0.3779527559055118},{"number":64,"time":200.24687500000402,"value":0.2755905511811024},{"number":64,"time":200.2479166666707,"value":0.2755905511811024},{"number":64,"time":200.25520833333738,"value":0.18110236220472442},{"number":64,"time":200.25520833333738,"value":0.18110236220472442},{"number":64,"time":200.2635416666707,"value":0.07874015748031496},{"number":64,"time":200.26458333333738,"value":0.07874015748031496},{"number":64,"time":200.27083333333738,"value":0},{"number":64,"time":200.27187500000406,"value":0},{"number":64,"time":205.90833333333745,"value":0.12598425196850394},{"number":64,"time":205.90937500000413,"value":0.12598425196850394},{"number":64,"time":205.91562500000413,"value":0.2283464566929134},{"number":64,"time":205.9166666666708,"value":0.2283464566929134},{"number":64,"time":206.02395833333748,"value":0.33070866141732286},{"number":64,"time":206.02500000000416,"value":0.33070866141732286},{"number":64,"time":206.1281250000042,"value":0.44881889763779526},{"number":64,"time":206.12916666667087,"value":0.44881889763779526},{"number":64,"time":206.69166666667084,"value":0.3543307086614173},{"number":64,"time":206.69270833333752,"value":0.3543307086614173},{"number":64,"time":206.7156250000042,"value":0.25196850393700787},{"number":64,"time":206.71666666667087,"value":0.25196850393700787},{"number":64,"time":206.7291666666709,"value":0.14960629921259844},{"number":64,"time":206.73020833333757,"value":0.14960629921259844},{"number":64,"time":206.73958333333758,"value":0.031496062992125984},{"number":64,"time":206.74062500000426,"value":0.031496062992125984},{"number":64,"time":206.74479166667092,"value":0},{"number":64,"time":206.7458333333376,"value":0},{"number":64,"time":209.04375000000425,"value":0.12598425196850394},{"number":64,"time":209.04479166667093,"value":0.12598425196850394},{"number":64,"time":209.05104166667093,"value":0.2755905511811024},{"number":64,"time":209.0520833333376,"value":0.2755905511811024},{"number":64,"time":209.0583333333376,"value":0.3779527559055118},{"number":64,"time":209.05937500000428,"value":0.3779527559055118},{"number":64,"time":209.07083333333762,"value":0.47244094488188976},{"number":64,"time":209.07083333333762,"value":0.47244094488188976},{"number":64,"time":209.10729166667096,"value":0.5039370078740157},{"number":64,"time":209.10729166667096,"value":0.5039370078740157},{"number":64,"time":209.15104166667095,"value":0.5354330708661418},{"number":64,"time":209.15208333333763,"value":0.5354330708661418},{"number":64,"time":209.18645833333764,"value":0.5669291338582677},{"number":64,"time":209.18750000000432,"value":0.5669291338582677},{"number":64,"time":209.24687500000434,"value":0.5984251968503937},{"number":64,"time":209.24687500000434,"value":0.5984251968503937},{"number":64,"time":209.44687500000435,"value":0.5669291338582677},{"number":64,"time":209.44791666667103,"value":0.5669291338582677},{"number":64,"time":209.46250000000435,"value":0.5275590551181102},{"number":64,"time":209.46354166667103,"value":0.5275590551181102},{"number":64,"time":209.47500000000437,"value":0.4881889763779528},{"number":64,"time":209.47604166667105,"value":0.4881889763779528},{"number":64,"time":209.49479166667106,"value":0.4015748031496063},{"number":64,"time":209.49583333333774,"value":0.4015748031496063},{"number":64,"time":209.5343750000044,"value":0.2992125984251969},{"number":64,"time":209.53645833333772,"value":0.2992125984251969},{"number":64,"time":209.55729166667106,"value":0.2047244094488189},{"number":64,"time":209.55833333333774,"value":0.2047244094488189},{"number":64,"time":209.57500000000442,"value":0.10236220472440945},{"number":64,"time":209.5760416666711,"value":0.10236220472440945},{"number":64,"time":209.60312500000444,"value":0},{"number":64,"time":209.60312500000444,"value":0},{"number":64,"time":210.1625000000045,"value":0.14960629921259844},{"number":64,"time":210.1635416666712,"value":0.14960629921259844},{"number":64,"time":210.17187500000452,"value":0.2755905511811024},{"number":64,"time":210.1729166666712,"value":0.2755905511811024},{"number":64,"time":210.18020833333787,"value":0.3779527559055118},{"number":64,"time":210.18125000000455,"value":0.3779527559055118},{"number":64,"time":210.19062500000456,"value":0.48031496062992124},{"number":64,"time":210.19166666667124,"value":0.48031496062992124},{"number":64,"time":210.32708333333792,"value":0.3779527559055118},{"number":64,"time":210.3281250000046,"value":0.3779527559055118},{"number":64,"time":210.34687500000462,"value":0.2755905511811024},{"number":64,"time":210.34687500000462,"value":0.2755905511811024},{"number":64,"time":210.3635416666713,"value":0.18110236220472442},{"number":64,"time":210.36458333333798,"value":0.18110236220472442},{"number":64,"time":210.377083333338,"value":0.07874015748031496},{"number":64,"time":210.37812500000467,"value":0.07874015748031496},{"number":64,"time":210.386458333338,"value":0},{"number":64,"time":210.38750000000468,"value":0},{"number":64,"time":212.6895833333381,"value":0.10236220472440945},{"number":64,"time":212.6906250000048,"value":0.10236220472440945},{"number":64,"time":212.69791666667146,"value":0.2755905511811024},{"number":64,"time":212.69895833333814,"value":0.2755905511811024},{"number":64,"time":212.70729166667147,"value":0.4015748031496063},{"number":64,"time":212.70833333333815,"value":0.4015748031496063},{"number":64,"time":212.71458333333814,"value":0.47244094488188976},{"number":64,"time":212.71562500000482,"value":0.47244094488188976},{"number":64,"time":212.72083333333816,"value":0.5039370078740157},{"number":64,"time":212.72187500000484,"value":0.5039370078740157},{"number":64,"time":212.72916666667152,"value":0.5354330708661418},{"number":64,"time":212.7302083333382,"value":0.5354330708661418},{"number":64,"time":212.76562500000486,"value":0.5669291338582677},{"number":64,"time":212.76666666667154,"value":0.5669291338582677},{"number":64,"time":212.8031250000049,"value":0.5984251968503937},{"number":64,"time":212.8041666666716,"value":0.5984251968503937},{"number":64,"time":212.82604166667159,"value":0.6299212598425197},{"number":64,"time":212.82604166667159,"value":0.6299212598425197},{"number":64,"time":212.93020833333827,"value":0.7322834645669292},{"number":64,"time":212.93020833333827,"value":0.7322834645669292},{"number":64,"time":213.1541666666716,"value":0.6535433070866141},{"number":64,"time":213.1541666666716,"value":0.6535433070866141},{"number":64,"time":213.16562500000495,"value":0.6220472440944882},{"number":64,"time":213.16562500000495,"value":0.6220472440944882},{"number":64,"time":213.17812500000494,"value":0.5905511811023622},{"number":64,"time":213.17916666667162,"value":0.5905511811023622},{"number":64,"time":213.1895833333383,"value":0.5511811023622047},{"number":64,"time":213.19062500000499,"value":0.5511811023622047},{"number":64,"time":213.19791666667166,"value":0.5039370078740157},{"number":64,"time":213.19895833333834,"value":0.5039370078740157},{"number":64,"time":213.206250000005,"value":0.47244094488188976},{"number":64,"time":213.206250000005,"value":0.47244094488188976},{"number":64,"time":213.2166666666717,"value":0.3779527559055118},{"number":64,"time":213.21770833333838,"value":0.3779527559055118},{"number":64,"time":213.22916666667174,"value":0.2755905511811024},{"number":64,"time":213.22916666667174,"value":0.2755905511811024},{"number":64,"time":213.2458333333384,"value":0.18110236220472442},{"number":64,"time":213.24687500000508,"value":0.18110236220472442},{"number":64,"time":213.25416666667175,"value":0.07874015748031496},{"number":64,"time":213.25416666667175,"value":0.07874015748031496},{"number":64,"time":213.2656250000051,"value":0},{"number":64,"time":213.2656250000051,"value":0}]},"id":5,"name":"MIDI from piano","channelNumber":0,"isPercussion":false},{"startTime":215.14479166666666,"duration":264.934375000005,"length":452,"notes":[{"name":"A5","midi":81,"time":215.14479166666666,"velocity":0.48031496062992124,"duration":0.15416666666678225},{"name":"A3","midi":57,"time":215.15,"velocity":0.36220472440944884,"duration":0.6062500000001876},{"name":"E4","midi":64,"time":215.15833333333333,"velocity":0.3700787401574803,"duration":0.6020833333335247},{"name":"E5","midi":76,"time":215.16354166666667,"velocity":0.31496062992125984,"duration":0.6218750000001876},{"name":"A4","midi":69,"time":215.16666666666669,"velocity":0.25984251968503935,"duration":0.25312500000009663},{"name":"B4","midi":71,"time":215.18437500000002,"velocity":0.25196850393700787,"duration":0.23645833333344513},{"name":"A5","midi":81,"time":215.63750000000016,"velocity":0.3543307086614173,"duration":0.04895833333333144},{"name":"B4","midi":71,"time":215.7052083333335,"velocity":0.13385826771653545,"duration":0.10729166666669698},{"name":"A4","midi":69,"time":215.70625000000018,"velocity":0.14173228346456693,"duration":0.10937500000002842},{"name":"E4","midi":64,"time":216.1447916666669,"velocity":0.30708661417322836,"duration":0.21145833333335418},{"name":"A3","midi":57,"time":216.15000000000023,"velocity":0.3228346456692913,"duration":0.5364583333333428},{"name":"E6","midi":88,"time":216.1510416666669,"velocity":0.5590551181102362,"duration":0.4947916666666572},{"name":"B4","midi":71,"time":216.16562500000023,"velocity":0.2677165354330709,"duration":0.4739583333333428},{"name":"A4","midi":69,"time":216.1666666666669,"velocity":0.25984251968503935,"duration":0.484375},{"name":"A5","midi":81,"time":216.18125000000023,"velocity":0.31496062992125984,"duration":0.07187500000000568},{"name":"E5","midi":76,"time":216.18437500000024,"velocity":0.33070866141732286,"duration":0.5229166666666742},{"name":"A5","midi":81,"time":216.62395833333358,"velocity":0.4330708661417323,"duration":0.056250000000005684},{"name":"E4","midi":64,"time":216.62395833333358,"velocity":0.2047244094488189,"duration":0.037499999999994316},{"name":"E4","midi":64,"time":217.09375000000026,"velocity":0.33858267716535434,"duration":0.3520833333334963},{"name":"B3","midi":59,"time":217.10104166666696,"velocity":0.33858267716535434,"duration":0.1677083333334224},{"name":"G#5","midi":80,"time":217.11250000000032,"velocity":0.5511811023622047,"duration":0.13020833333339965},{"name":"E3","midi":52,"time":217.11458333333366,"velocity":0.2992125984251969,"duration":0.3552083333334224},{"name":"E5","midi":76,"time":217.12500000000034,"velocity":0.3858267716535433,"duration":0.42708333333339965},{"name":"G#5","midi":80,"time":217.33958333333374,"velocity":0.44881889763779526,"duration":0.06458333333335986},{"name":"G#5","midi":80,"time":217.55937500000041,"velocity":0.5039370078740157,"duration":0.06666666666666288},{"name":"E4","midi":64,"time":217.61041666666708,"velocity":0.09448818897637795,"duration":0.07187500000000568},{"name":"B3","midi":59,"time":217.62291666666707,"velocity":0.2677165354330709,"duration":0.025000000000005684},{"name":"G#5","midi":80,"time":217.79583333333375,"velocity":0.3543307086614173,"duration":0.012499999999988631},{"name":"E6","midi":88,"time":218.03958333333372,"velocity":0.5275590551181102,"duration":0.3645833333333428},{"name":"B3","midi":59,"time":218.0437500000004,"velocity":0.2677165354330709,"duration":0.08645833333335418},{"name":"E4","midi":64,"time":218.04895833333373,"velocity":0.23622047244094488,"duration":0.49687500000001705},{"name":"G#5","midi":80,"time":218.06770833333374,"velocity":0.3464566929133858,"duration":0.08020833333333144},{"name":"E5","midi":76,"time":218.0968750000004,"velocity":0.1889763779527559,"duration":0.03541666666666288},{"name":"G#5","midi":80,"time":218.36354166666706,"velocity":0.07874015748031496,"duration":0.12291666666666856},{"name":"E3","midi":52,"time":218.52083333333374,"velocity":0.2677165354330709,"duration":0.01666666666667993},{"name":"E5","midi":76,"time":218.55208333333374,"velocity":0.2283464566929134,"duration":0.006249999999994316},{"name":"C#6","midi":85,"time":218.9791666666671,"velocity":0.5826771653543307,"duration":0.5406250000001194},{"name":"F#3","midi":54,"time":218.9791666666671,"velocity":0.4881889763779528,"duration":0.5343750000001251},{"name":"F#4","midi":66,"time":218.98854166666712,"velocity":0.3700787401574803,"duration":0.6072916666668107},{"name":"G#4","midi":68,"time":218.99375000000046,"velocity":0.4251968503937008,"duration":0.5677083333334565},{"name":"C#5","midi":73,"time":219.00104166666716,"velocity":0.48031496062992124,"duration":0.5604166666667538},{"name":"F#5","midi":78,"time":219.0031250000005,"velocity":0.41732283464566927,"duration":0.2177083333333769},{"name":"C#4","midi":61,"time":219.03645833333383,"velocity":0.2677165354330709,"duration":0.046875},{"name":"C#4","midi":61,"time":219.4489583333339,"velocity":0.33070866141732286,"duration":0.078125},{"name":"F#5","midi":78,"time":219.46875000000057,"velocity":0.4094488188976378,"duration":0.08958333333333712},{"name":"F#4","midi":66,"time":219.9000000000006,"velocity":0.33858267716535434,"duration":0.5302083333333485},{"name":"F#5","midi":78,"time":219.9093750000006,"velocity":0.4881889763779528,"duration":0.14166666666667993},{"name":"C#5","midi":73,"time":219.9156250000006,"velocity":0.3858267716535433,"duration":0.5468750000000284},{"name":"G#4","midi":68,"time":219.93229166666728,"velocity":0.3937007874015748,"duration":0.43958333333333144},{"name":"F#3","midi":54,"time":219.93750000000063,"velocity":0.3464566929133858,"duration":0.4906249999999943},{"name":"F#5","midi":78,"time":220.3687500000006,"velocity":0.4015748031496063,"duration":0.05208333333334281},{"name":"C#4","midi":61,"time":220.39583333333394,"velocity":0.2992125984251969,"duration":0.011458333333337123},{"name":"E5","midi":76,"time":220.8385416666673,"velocity":0.4645669291338583,"duration":0.08645833333341102},{"name":"A4","midi":69,"time":220.84791666666734,"velocity":0.36220472440944884,"duration":0.5552083333334394},{"name":"D3","midi":50,"time":220.84791666666734,"velocity":0.3464566929133858,"duration":0.48125000000013074},{"name":"D4","midi":62,"time":220.85104166666736,"velocity":0.3700787401574803,"duration":0.5322916666667652},{"name":"E4","midi":64,"time":220.85208333333404,"velocity":0.33858267716535434,"duration":0.4895833333334281},{"name":"A3","midi":57,"time":220.87291666666738,"velocity":0.23622047244094488,"duration":0.057291666666685614},{"name":"E5","midi":76,"time":221.0562500000008,"velocity":0.4015748031496063,"duration":0.05729166666665719},{"name":"A3","midi":57,"time":221.27708333333413,"velocity":0.30708661417322836,"duration":0.08645833333332575},{"name":"E5","midi":76,"time":221.31770833333414,"velocity":0.30708661417322836,"duration":0.03020833333332007},{"name":"E5","midi":76,"time":221.50937500000077,"velocity":0.3779527559055118,"duration":0.05833333333333712},{"name":"E5","midi":76,"time":221.72812500000077,"velocity":0.4330708661417323,"duration":0.18437500000001705},{"name":"A3","midi":57,"time":221.73125000000078,"velocity":0.33070866141732286,"duration":0.5072916666667595},{"name":"E4","midi":64,"time":221.74166666666744,"velocity":0.30708661417322836,"duration":0.5427083333334224},{"name":"D4","midi":62,"time":221.74479166666745,"velocity":0.2992125984251969,"duration":0.5354166666667481},{"name":"A4","midi":69,"time":221.76354166666746,"velocity":0.29133858267716534,"duration":0.652083333333394},{"name":"D5","midi":74,"time":221.95625000000078,"velocity":0.3937007874015748,"duration":0.1479166666667311},{"name":"C#5","midi":73,"time":222.16562500000086,"velocity":0.44881889763779526,"duration":0.2177083333333485},{"name":"D3","midi":50,"time":222.19062500000086,"velocity":0.3700787401574803,"duration":0.015625},{"name":"D5","midi":74,"time":222.3895833333342,"velocity":0.4409448818897638,"duration":0.05104166666666288},{"name":"A5","midi":81,"time":222.63854166666758,"velocity":0.5275590551181102,"duration":0.21145833333341102},{"name":"E4","midi":64,"time":222.64687500000093,"velocity":0.3543307086614173,"duration":0.6239583333334053},{"name":"A4","midi":69,"time":222.65208333333428,"velocity":0.3228346456692913,"duration":0.3312500000000682},{"name":"B4","midi":71,"time":222.65937500000095,"velocity":0.4409448818897638,"duration":0.46250000000006253},{"name":"E5","midi":76,"time":222.65937500000095,"velocity":0.4566929133858268,"duration":0.5708333333333826},{"name":"A3","midi":57,"time":222.6708333333343,"velocity":0.3700787401574803,"duration":0.5010416666667084},{"name":"B4","midi":71,"time":223.121875000001,"velocity":0.11023622047244094,"duration":0.21250000000000568},{"name":"A5","midi":81,"time":223.12395833333434,"velocity":0.4094488188976378,"duration":0.09687499999998295},{"name":"A4","midi":69,"time":223.15416666666766,"velocity":0.18110236220472442,"duration":0.18437500000001705},{"name":"A5","midi":81,"time":223.57395833333442,"velocity":0.4015748031496063,"duration":0.06979166666673109},{"name":"E6","midi":88,"time":223.5802083333344,"velocity":0.6141732283464567,"duration":0.4156250000001478},{"name":"A3","midi":57,"time":223.58854166666777,"velocity":0.3937007874015748,"duration":0.43437500000013074},{"name":"A4","midi":69,"time":223.59166666666778,"velocity":0.2755905511811024,"duration":0.5000000000001421},{"name":"B4","midi":71,"time":223.59270833333446,"velocity":0.2677165354330709,"duration":0.443750000000108},{"name":"E5","midi":76,"time":223.60000000000113,"velocity":0.3937007874015748,"duration":0.5250000000001194},{"name":"A5","midi":81,"time":223.79270833333453,"velocity":0.47244094488188976,"duration":0.24479166666671404},{"name":"B5","midi":83,"time":224.04895833333458,"velocity":0.41732283464566927,"duration":0.06354166666667993},{"name":"E4","midi":64,"time":224.06041666666792,"velocity":0.23622047244094488,"duration":0.03229166666667993},{"name":"E4","midi":64,"time":224.49270833333458,"velocity":0.3937007874015748,"duration":0.3583333333334622},{"name":"G#5","midi":80,"time":224.5041666666679,"velocity":0.5669291338582677,"duration":0.11562500000007958},{"name":"B3","midi":59,"time":224.51250000000127,"velocity":0.3779527559055118,"duration":0.1791666666667595},{"name":"E3","midi":52,"time":224.53229166666796,"velocity":0.31496062992125984,"duration":0.459375000000108},{"name":"E5","midi":76,"time":224.5343750000013,"velocity":0.2992125984251969,"duration":0.3697916666667709},{"name":"G#5","midi":80,"time":224.72187500000138,"velocity":0.3779527559055118,"duration":0.08958333333333712},{"name":"B3","midi":59,"time":224.94166666666806,"velocity":0.2677165354330709,"duration":0.09375000000002842},{"name":"G#5","midi":80,"time":224.9687500000014,"velocity":0.4330708661417323,"duration":0.055208333333354176},{"name":"G#5","midi":80,"time":225.18229166666808,"velocity":0.4094488188976378,"duration":0.05937499999998863},{"name":"E4","midi":64,"time":225.40729166666807,"velocity":0.30708661417322836,"duration":0.1708333333333485},{"name":"B3","midi":59,"time":225.41458333333475,"velocity":0.23622047244094488,"duration":0.09479166666667993},{"name":"E6","midi":88,"time":225.43125000000143,"velocity":0.47244094488188976,"duration":0.1979166666666572},{"name":"E5","midi":76,"time":225.47083333333475,"velocity":0.29133858267716534,"duration":0.06666666666666288},{"name":"G#5","midi":80,"time":225.47291666666808,"velocity":0.29133858267716534,"duration":0.07187500000000568},{"name":"E3","midi":52,"time":225.87395833333474,"velocity":0.1968503937007874,"duration":0.0583333333333087},{"name":"E5","midi":76,"time":225.8843750000014,"velocity":0.3228346456692913,"duration":0.01770833333333144},{"name":"B3","midi":59,"time":225.91770833333473,"velocity":0.2283464566929134,"duration":0.020833333333314386},{"name":"F#3","midi":54,"time":226.34166666666806,"velocity":0.3700787401574803,"duration":0.6010416666668164},{"name":"C#6","midi":85,"time":226.34270833333474,"velocity":0.5905511811023622,"duration":0.5458333333334338},{"name":"C#5","midi":73,"time":226.35312500000143,"velocity":0.4881889763779528,"duration":0.5760416666667822},{"name":"F#4","midi":66,"time":226.35312500000143,"velocity":0.33070866141732286,"duration":0.6187500000001194},{"name":"G#4","midi":68,"time":226.35625000000144,"velocity":0.5196850393700787,"duration":0.571875000000091},{"name":"F#5","midi":78,"time":226.3635416666681,"velocity":0.4645669291338583,"duration":0.21041666666670267},{"name":"C#4","midi":61,"time":226.3791666666681,"velocity":0.33070866141732286,"duration":0.09687500000001137},{"name":"F#5","midi":78,"time":226.81770833333482,"velocity":0.3464566929133858,"duration":0.1031250000000341},{"name":"C#4","midi":61,"time":226.82395833333482,"velocity":0.31496062992125984,"duration":0.12916666666671972},{"name":"F#4","midi":66,"time":227.25104166666821,"velocity":0.30708661417322836,"duration":0.49270833333346786},{"name":"C#5","midi":73,"time":227.2677083333349,"velocity":0.48031496062992124,"duration":0.5583333333334792},{"name":"F#3","midi":54,"time":227.28020833333488,"velocity":0.4251968503937008,"duration":0.4833333333334622},{"name":"F#5","midi":78,"time":227.28125000000156,"velocity":0.48031496062992124,"duration":0.1906250000000682},{"name":"G#4","midi":68,"time":227.29687500000156,"velocity":0.3858267716535433,"duration":0.428125000000108},{"name":"C#4","midi":61,"time":227.730208333335,"velocity":0.3228346456692913,"duration":0.027083333333337123},{"name":"F#5","midi":78,"time":227.73333333333503,"velocity":0.41732283464566927,"duration":0.055208333333325754},{"name":"D3","midi":50,"time":228.17395833333507,"velocity":0.4330708661417323,"duration":0.4552083333335588},{"name":"E5","midi":76,"time":228.1791666666684,"velocity":0.47244094488188976,"duration":0.07395833333345081},{"name":"D4","midi":62,"time":228.1791666666684,"velocity":0.3937007874015748,"duration":0.5041666666668903},{"name":"E4","midi":64,"time":228.1791666666684,"velocity":0.3937007874015748,"duration":0.4760416666668732},{"name":"A4","midi":69,"time":228.18750000000176,"velocity":0.25196850393700787,"duration":0.5260416666668561},{"name":"A3","midi":57,"time":228.2489583333352,"velocity":0.08661417322834646,"duration":0.04583333333334849},{"name":"E5","midi":76,"time":228.3843750000019,"velocity":0.3464566929133858,"duration":0.0510416666666913},{"name":"A3","midi":57,"time":228.60416666666862,"velocity":0.28346456692913385,"duration":0.056250000000005684},{"name":"E5","midi":76,"time":228.6177083333353,"velocity":0.4094488188976378,"duration":0.056250000000005684},{"name":"E5","midi":76,"time":228.82708333333528,"velocity":0.4094488188976378,"duration":0.04999999999998295},{"name":"E5","midi":76,"time":229.0604166666686,"velocity":0.49606299212598426,"duration":0.2302083333334508},{"name":"D3","midi":50,"time":229.07083333333526,"velocity":0.3779527559055118,"duration":0.1718750000001137},{"name":"A3","midi":57,"time":229.0729166666686,"velocity":0.3543307086614173,"duration":0.23541666666682204},{"name":"E4","midi":64,"time":229.08541666666858,"velocity":0.2992125984251969,"duration":0.1520833333334508},{"name":"D4","midi":62,"time":229.0875000000019,"velocity":0.29133858267716534,"duration":0.17500000000012506},{"name":"A4","midi":69,"time":229.10312500000194,"velocity":0.3464566929133858,"duration":0.254166666666805},{"name":"D5","midi":74,"time":229.30729166666873,"velocity":0.4409448818897638,"duration":0.17291666666667993},{"name":"C#5","midi":73,"time":229.53229166666875,"velocity":0.4251968503937008,"duration":0.22916666666668561},{"name":"D5","midi":74,"time":229.75833333333543,"velocity":0.4094488188976378,"duration":0.07187500000000568},{"name":"A5","midi":81,"time":229.97395833333545,"velocity":0.6377952755905512,"duration":0.4958333333334508},{"name":"A3","midi":57,"time":229.97708333333546,"velocity":0.5039370078740157,"duration":0.21875000000008527},{"name":"E5","midi":76,"time":229.99166666666878,"velocity":0.48031496062992124,"duration":0.41041666666677656},{"name":"A2","midi":45,"time":229.99270833333546,"velocity":0.4330708661417323,"duration":0.5000000000001137},{"name":"A4","midi":69,"time":230.0135416666688,"velocity":0.3543307086614173,"duration":0.025000000000005684},{"name":"E3","midi":52,"time":230.25416666666888,"velocity":0.23622047244094488,"duration":0.15000000000000568},{"name":"A4","midi":69,"time":230.47083333333558,"velocity":0.14960629921259844,"duration":0.08229166666666288},{"name":"A3","midi":57,"time":230.49270833333557,"velocity":0.1732283464566929,"duration":0.12812500000001137},{"name":"E3","midi":52,"time":230.62500000000225,"velocity":0.1968503937007874,"duration":0.022916666666674246},{"name":"A5","midi":81,"time":230.70520833333558,"velocity":0.4094488188976378,"duration":0.10520833333333712},{"name":"B5","midi":83,"time":230.7697916666689,"velocity":0.49606299212598426,"duration":0.11770833333335418},{"name":"C#6","midi":85,"time":230.81562500000226,"velocity":0.5511811023622047,"duration":0.10520833333333712},{"name":"D6","midi":86,"time":230.88229166666892,"velocity":0.5275590551181102,"duration":0.05000000000001137},{"name":"A3","midi":57,"time":230.91250000000227,"velocity":0.4409448818897638,"duration":0.11770833333332575},{"name":"A4","midi":69,"time":230.91250000000227,"velocity":0.44881889763779526,"duration":0.07291666666665719},{"name":"E6","midi":88,"time":230.91875000000226,"velocity":0.6377952755905512,"duration":0.05833333333333712},{"name":"A4","midi":69,"time":231.12500000000227,"velocity":0.4645669291338583,"duration":0.04270833333333712},{"name":"B4","midi":71,"time":231.3406250000023,"velocity":0.5433070866141733,"duration":0.48125000000013074},{"name":"G#5","midi":80,"time":231.77291666666898,"velocity":0.6456692913385826,"duration":0.6979166666668561},{"name":"E3","midi":52,"time":231.776041666669,"velocity":0.5354330708661418,"duration":0.2479166666668391},{"name":"E2","midi":40,"time":231.78437500000234,"velocity":0.48031496062992124,"duration":0.5468750000001705},{"name":"G#4","midi":68,"time":231.8229166666691,"velocity":0.4015748031496063,"duration":0.03750000000002274},{"name":"B2","midi":47,"time":231.98958333333582,"velocity":0.4015748031496063,"duration":0.11562499999999432},{"name":"G#4","midi":68,"time":231.99166666666915,"velocity":0.5039370078740157,"duration":0.08333333333334281},{"name":"G#4","midi":68,"time":232.21354166666916,"velocity":0.4409448818897638,"duration":0.03229166666667993},{"name":"E3","midi":52,"time":232.2656250000025,"velocity":0.2677165354330709,"duration":0.1510416666666572},{"name":"G#4","midi":68,"time":232.40833333333583,"velocity":0.1968503937007874,"duration":0.021874999999994316},{"name":"D3","midi":50,"time":232.59791666666916,"velocity":0.4015748031496063,"duration":0.04791666666665151},{"name":"A3","midi":57,"time":232.61979166666916,"velocity":0.5354330708661418,"duration":0.10625000000001705},{"name":"A5","midi":81,"time":232.68854166666915,"velocity":0.4330708661417323,"duration":0.06770833333334281},{"name":"E6","midi":88,"time":232.70625000000248,"velocity":0.6141732283464567,"duration":0.11770833333335418},{"name":"G#5","midi":80,"time":232.7093750000025,"velocity":0.3464566929133858,"duration":0.009375000000005684},{"name":"E4","midi":64,"time":232.7093750000025,"velocity":0.5511811023622047,"duration":0.2239583333333428},{"name":"B5","midi":83,"time":232.71666666666917,"velocity":0.4251968503937008,"duration":0.08750000000000568},{"name":"D4","midi":62,"time":232.8937500000025,"velocity":0.5196850393700787,"duration":0.22083333333333144},{"name":"C#4","midi":61,"time":233.12395833333585,"velocity":0.5433070866141733,"duration":0.20729166666666288},{"name":"D4","midi":62,"time":233.3156250000025,"velocity":0.4251968503937008,"duration":0.03333333333333144},{"name":"F#3","midi":54,"time":233.56770833333587,"velocity":0.5826771653543307,"duration":0.22916666666685614},{"name":"F#5","midi":78,"time":233.5885416666693,"velocity":0.6692913385826772,"duration":0.5187500000001251},{"name":"F#2","midi":42,"time":233.59687500000263,"velocity":0.4566929133858268,"duration":0.5593750000001307},{"name":"C#5","midi":73,"time":233.60833333333596,"velocity":0.4881889763779528,"duration":0.4583333333334565},{"name":"F#4","midi":66,"time":233.65937500000263,"velocity":0.28346456692913385,"duration":0.021874999999994316},{"name":"C#3","midi":49,"time":233.80208333333607,"velocity":0.4094488188976378,"duration":0.18229166666668561},{"name":"F#3","midi":54,"time":234.0208333333361,"velocity":0.4015748031496063,"duration":0.19687500000000568},{"name":"F#4","midi":66,"time":234.0270833333361,"velocity":0.48031496062992124,"duration":0.025000000000005684},{"name":"C#3","midi":49,"time":234.17291666666944,"velocity":0.3464566929133858,"duration":0.04791666666667993},{"name":"F#5","midi":78,"time":234.33437500000278,"velocity":0.2677165354330709,"duration":0.09270833333332007},{"name":"G#5","midi":80,"time":234.35625000000277,"velocity":0.48031496062992124,"duration":0.1458333333333428},{"name":"A5","midi":81,"time":234.40000000000276,"velocity":0.4015748031496063,"duration":0.11979166666671404},{"name":"C#6","midi":85,"time":234.4739583333361,"velocity":0.6141732283464567,"duration":0.07916666666670835},{"name":"F#3","midi":54,"time":234.4927083333361,"velocity":0.5118110236220472,"duration":0.1395833333333769},{"name":"F#4","midi":66,"time":234.5093750000028,"velocity":0.5590551181102362,"duration":0.10208333333335418},{"name":"B5","midi":83,"time":234.51458333333613,"velocity":0.1968503937007874,"duration":0.01666666666667993},{"name":"F#4","midi":66,"time":234.67500000000283,"velocity":0.33070866141732286,"duration":0.11666666666667425},{"name":"C#5","midi":73,"time":234.9291666666695,"velocity":0.5275590551181102,"duration":0.23645833333330302},{"name":"F#4","midi":66,"time":234.9750000000028,"velocity":0.31496062992125984,"duration":0.08229166666666288},{"name":"D5","midi":74,"time":235.37187500000286,"velocity":0.6141732283464567,"duration":0.7260416666667595},{"name":"D3","midi":50,"time":235.37187500000286,"velocity":0.4330708661417323,"duration":0.22500000000013642},{"name":"A4","midi":69,"time":235.38020833333618,"velocity":0.4566929133858268,"duration":0.6500000000001194},{"name":"D2","midi":38,"time":235.3864583333362,"velocity":0.4409448818897638,"duration":0.4895833333334281},{"name":"D4","midi":62,"time":235.39270833333623,"velocity":0.4881889763779528,"duration":0.07291666666668561},{"name":"D4","midi":62,"time":235.57604166666962,"velocity":0.49606299212598426,"duration":0.09687500000001137},{"name":"A2","midi":45,"time":235.58958333333632,"velocity":0.3937007874015748,"duration":0.1364583333333087},{"name":"D4","midi":62,"time":235.78750000000295,"velocity":0.5511811023622047,"duration":0.06770833333334281},{"name":"D3","midi":50,"time":235.81666666666962,"velocity":0.23622047244094488,"duration":0.15937500000001137},{"name":"D4","midi":62,"time":235.9958333333363,"velocity":0.5826771653543307,"duration":0.046875},{"name":"D3","midi":50,"time":236.1354166666696,"velocity":0.5511811023622047,"duration":0.08333333333334281},{"name":"A3","midi":57,"time":236.1666666666696,"velocity":0.5748031496062992,"duration":0.10520833333333712},{"name":"A5","midi":81,"time":236.2520833333363,"velocity":0.5590551181102362,"duration":0.2593750000000057},{"name":"E4","midi":64,"time":236.2760416666696,"velocity":0.5590551181102362,"duration":0.24062500000002274},{"name":"E5","midi":76,"time":236.31666666666962,"velocity":0.29133858267716534,"duration":0.01875000000001137},{"name":"D4","midi":62,"time":236.4395833333363,"velocity":0.5118110236220472,"duration":0.24479166666668561},{"name":"C#4","midi":61,"time":236.6708333333363,"velocity":0.5511811023622047,"duration":0.1916666666666913},{"name":"A4","midi":69,"time":236.67604166666965,"velocity":0.5039370078740157,"duration":0.009375000000005684},{"name":"D4","midi":62,"time":236.87604166666966,"velocity":0.3700787401574803,"duration":0.027083333333337123},{"name":"A3","midi":57,"time":237.08229166666968,"velocity":0.5669291338582677,"duration":0.2604166666668277},{"name":"A2","midi":45,"time":237.09791666666968,"velocity":0.5196850393700787,"duration":0.5114583333335077},{"name":"A5","midi":81,"time":237.11041666666972,"velocity":0.6929133858267716,"duration":0.5760416666667822},{"name":"E5","midi":76,"time":237.12812500000308,"velocity":0.5748031496062992,"duration":0.4010416666667709},{"name":"E3","midi":52,"time":237.3302083333365,"velocity":0.44881889763779526,"duration":0.19375000000002274},{"name":"A4","midi":69,"time":237.56250000000318,"velocity":0.4409448818897638,"duration":0.013541666666668561},{"name":"A3","midi":57,"time":237.5708333333365,"velocity":0.4015748031496063,"duration":0.14687499999999432},{"name":"E3","midi":52,"time":237.7114583333365,"velocity":0.16535433070866143,"duration":0.06979166666667425},{"name":"A5","midi":81,"time":237.81250000000318,"velocity":0.4881889763779528,"duration":0.14791666666667425},{"name":"B5","midi":83,"time":237.89270833333651,"velocity":0.3779527559055118,"duration":0.125},{"name":"C#6","midi":85,"time":237.91250000000318,"velocity":0.5196850393700787,"duration":0.11145833333335986},{"name":"D6","midi":86,"time":237.98645833333651,"velocity":0.5433070866141733,"duration":0.05208333333334281},{"name":"A3","midi":57,"time":237.98854166666985,"velocity":0.5669291338582677,"duration":0.3166666666666629},{"name":"A4","midi":69,"time":238.0093750000032,"velocity":0.5669291338582677,"duration":0.10208333333332575},{"name":"E6","midi":88,"time":238.02083333333653,"velocity":0.6220472440944882,"duration":0.04479166666666856},{"name":"A4","midi":69,"time":238.19166666666985,"velocity":0.5275590551181102,"duration":0.13333333333332575},{"name":"B4","midi":71,"time":238.45312500000318,"velocity":0.5905511811023622,"duration":0.49895833333340533},{"name":"G#5","midi":80,"time":238.9062500000032,"velocity":0.6456692913385826,"duration":0.6770833333334565},{"name":"E3","midi":52,"time":238.9062500000032,"velocity":0.49606299212598426,"duration":0.22083333333347355},{"name":"E2","midi":40,"time":238.9197916666699,"velocity":0.48031496062992124,"duration":0.4791666666667709},{"name":"G#4","midi":68,"time":238.9208333333366,"velocity":0.4881889763779528,"duration":0.057291666666685614},{"name":"B2","midi":47,"time":239.12187500000334,"velocity":0.4015748031496063,"duration":0.18020833333335418},{"name":"G#4","midi":68,"time":239.12395833333667,"velocity":0.6299212598425197,"duration":0.07291666666668561},{"name":"G#4","midi":68,"time":239.3333333333367,"velocity":0.5748031496062992,"duration":0.053124999999994316},{"name":"E3","midi":52,"time":239.33541666667003,"velocity":0.3464566929133858,"duration":0.17708333333331439},{"name":"B2","midi":47,"time":239.48229166667002,"velocity":0.18110236220472442,"duration":0.0583333333333087},{"name":"G#4","midi":68,"time":239.54687500000333,"velocity":0.5118110236220472,"duration":0.03437500000001137},{"name":"D3","midi":50,"time":239.68750000000333,"velocity":0.5275590551181102,"duration":0.053124999999994316},{"name":"A3","midi":57,"time":239.72604166667,"velocity":0.5826771653543307,"duration":0.09583333333330302},{"name":"D#6","midi":87,"time":239.79270833333666,"velocity":0.31496062992125984,"duration":0.035416666666634455},{"name":"A5","midi":81,"time":239.79895833333666,"velocity":0.4645669291338583,"duration":0.07291666666662877},{"name":"E4","midi":64,"time":239.8093750000033,"velocity":0.6062992125984252,"duration":0.2093749999999659},{"name":"E6","midi":88,"time":239.82395833333663,"velocity":0.5984251968503937,"duration":0.07291666666665719},{"name":"B5","midi":83,"time":239.82395833333663,"velocity":0.3937007874015748,"duration":0.06562499999998295},{"name":"G#5","midi":80,"time":239.83541666666997,"velocity":0.07086614173228346,"duration":0.026041666666657193},{"name":"D4","midi":62,"time":239.97187500000328,"velocity":0.5511811023622047,"duration":0.23333333333332007},{"name":"C#4","midi":61,"time":240.19479166666994,"velocity":0.6614173228346457,"duration":0.21145833333332575},{"name":"D4","midi":62,"time":240.3958333333366,"velocity":0.5118110236220472,"duration":0.03229166666665151},{"name":"F#3","midi":54,"time":240.62604166666992,"velocity":0.5826771653543307,"duration":0.23229166666689594},{"name":"F#2","midi":42,"time":240.66145833333667,"velocity":0.4330708661417323,"duration":0.5729166666668277},{"name":"F#5","midi":78,"time":240.66458333333668,"velocity":0.6692913385826772,"duration":0.49583333333347923},{"name":"C#5","midi":73,"time":240.67812500000338,"velocity":0.5590551181102362,"duration":0.41979166666678225},{"name":"F#4","midi":66,"time":240.71770833333673,"velocity":0.3228346456692913,"duration":0.01875000000001137},{"name":"C#3","midi":49,"time":240.8656250000035,"velocity":0.4566929133858268,"duration":0.18437500000001705},{"name":"F#4","midi":66,"time":241.08958333333683,"velocity":0.47244094488188976,"duration":0.03333333333333144},{"name":"F#3","midi":54,"time":241.09583333333683,"velocity":0.44881889763779526,"duration":0.21562500000001705},{"name":"C#3","midi":49,"time":241.2687500000035,"velocity":0.3543307086614173,"duration":0.04270833333333712},{"name":"F#5","midi":78,"time":241.3791666666702,"velocity":0.3543307086614173,"duration":0.13958333333332007},{"name":"G#5","midi":80,"time":241.4343750000035,"velocity":0.5118110236220472,"duration":0.16874999999998863},{"name":"A5","midi":81,"time":241.51041666667018,"velocity":0.4015748031496063,"duration":0.09375},{"name":"F#3","midi":54,"time":241.55416666667017,"velocity":0.5354330708661418,"duration":0.21250000000000568},{"name":"B5","midi":83,"time":241.55729166667018,"velocity":0.3700787401574803,"duration":0.03333333333333144},{"name":"F#4","midi":66,"time":241.56145833333684,"velocity":0.6141732283464567,"duration":0.07395833333333712},{"name":"C#6","midi":85,"time":241.56875000000352,"velocity":0.5984251968503937,"duration":0.053124999999994316},{"name":"F#4","midi":66,"time":241.74270833333685,"velocity":0.4015748031496063,"duration":0.11770833333332575},{"name":"C#5","midi":73,"time":242.01770833333686,"velocity":0.4015748031496063,"duration":0.2333333333333485},{"name":"F#4","midi":66,"time":242.0760416666702,"velocity":0.1889763779527559,"duration":0.05000000000001137},{"name":"D3","midi":50,"time":242.41145833333687,"velocity":0.5590551181102362,"duration":0.21041666666681635},{"name":"D2","midi":38,"time":242.41875000000354,"velocity":0.5354330708661418,"duration":0.43125000000020464},{"name":"D4","midi":62,"time":242.42083333333687,"velocity":0.5905511811023622,"duration":0.08229166666677656},{"name":"D5","midi":74,"time":242.42395833333688,"velocity":0.6062992125984252,"duration":0.7312500000001307},{"name":"A4","midi":69,"time":242.4697916666703,"velocity":0.3464566929133858,"duration":0.5760416666667538},{"name":"A2","midi":45,"time":242.6250000000037,"velocity":0.3700787401574803,"duration":0.12291666666669698},{"name":"D4","midi":62,"time":242.63854166667036,"velocity":0.5354330708661418,"duration":0.0822916666666913},{"name":"D3","midi":50,"time":242.86250000000373,"velocity":0.33070866141732286,"duration":0.053124999999994316},{"name":"D4","midi":62,"time":242.86458333333707,"velocity":0.5748031496062992,"duration":0.05729166666665719},{"name":"D4","midi":62,"time":243.0718750000037,"velocity":0.44881889763779526,"duration":0.03020833333332007},{"name":"D3","midi":50,"time":243.16666666667035,"velocity":0.3937007874015748,"duration":0.08333333333334281},{"name":"A3","midi":57,"time":243.22708333333702,"velocity":0.5039370078740157,"duration":0.08333333333334281},{"name":"E4","midi":64,"time":243.30104166667036,"velocity":0.6299212598425197,"duration":0.2562499999999943},{"name":"A5","midi":81,"time":243.32916666667037,"velocity":0.5905511811023622,"duration":0.13124999999999432},{"name":"E5","midi":76,"time":243.33854166667038,"velocity":0.5433070866141733,"duration":0.21041666666664582},{"name":"D4","midi":62,"time":243.50416666667036,"velocity":0.5984251968503937,"duration":0.23645833333333144},{"name":"C#4","midi":61,"time":243.72708333333702,"velocity":0.5511811023622047,"duration":0.2072916666666913},{"name":"A4","midi":69,"time":243.73854166667036,"velocity":0.6614173228346457,"duration":0.04895833333333144},{"name":"D4","midi":62,"time":243.93333333333703,"velocity":0.4330708661417323,"duration":0.03437500000001137},{"name":"A2","midi":45,"time":244.16145833333712,"velocity":0.6771653543307087,"duration":0.26666666666682204},{"name":"A1","midi":33,"time":244.17500000000385,"velocity":0.6850393700787402,"duration":0.193750000000108},{"name":"A5","midi":81,"time":244.17708333333718,"velocity":0.6614173228346457,"duration":0.634375000000091},{"name":"E5","midi":76,"time":244.1802083333372,"velocity":0.5905511811023622,"duration":0.5000000000000853},{"name":"A3","midi":57,"time":244.63333333333728,"velocity":0.6062992125984252,"duration":0.21666666666666856},{"name":"A2","midi":45,"time":244.63854166667062,"velocity":0.47244094488188976,"duration":0.1520833333333087},{"name":"A4","midi":69,"time":244.64270833333728,"velocity":0.6220472440944882,"duration":0.052083333333314386},{"name":"E3","midi":52,"time":244.79375000000394,"velocity":0.3700787401574803,"duration":0.06354166666667993},{"name":"A5","midi":81,"time":244.93958333333728,"velocity":0.49606299212598426,"duration":0.13437499999997726},{"name":"B5","midi":83,"time":245.04583333333727,"velocity":0.4881889763779528,"duration":0.07083333333329733},{"name":"C#6","midi":85,"time":245.0635416666706,"velocity":0.44881889763779526,"duration":0.07187499999997726},{"name":"E6","midi":88,"time":245.09583333333725,"velocity":0.6535433070866141,"duration":0.0739583333333087},{"name":"A3","midi":57,"time":245.10833333333724,"velocity":0.6062992125984252,"duration":0.2041666666666515},{"name":"A4","midi":69,"time":245.11041666667057,"velocity":0.7086614173228346,"duration":0.09895833333331439},{"name":"D6","midi":86,"time":245.1437500000039,"velocity":0.2677165354330709,"duration":0.012499999999988631},{"name":"A4","midi":69,"time":245.3062500000039,"velocity":0.5748031496062992,"duration":0.08437499999999432},{"name":"B4","midi":71,"time":245.53541666667056,"velocity":0.6771653543307087,"duration":0.5364583333334849},{"name":"G#5","midi":80,"time":245.9791666666706,"velocity":0.6929133858267716,"duration":0.7156250000002444},{"name":"E1","midi":28,"time":245.98541666667063,"velocity":0.6220472440944882,"duration":0.14270833333347355},{"name":"E2","midi":40,"time":245.99375000000398,"velocity":0.5354330708661418,"duration":0.20000000000013074},{"name":"G#4","midi":68,"time":246.009375000004,"velocity":0.4881889763779528,"duration":0.03333333333335986},{"name":"B1","midi":35,"time":246.0260416666707,"velocity":0.11811023622047244,"duration":0.04791666666667993},{"name":"B1","midi":35,"time":246.1843750000041,"velocity":0.13385826771653545,"duration":0.055208333333354176},{"name":"G#4","midi":68,"time":246.20520833333745,"velocity":0.4881889763779528,"duration":0.0822916666666913},{"name":"E3","midi":52,"time":246.43750000000418,"velocity":0.4566929133858268,"duration":0.13333333333335418},{"name":"G#4","midi":68,"time":246.44479166667085,"velocity":0.5511811023622047,"duration":0.05833333333333712},{"name":"E2","midi":40,"time":246.4718750000042,"velocity":0.29133858267716534,"duration":0.025000000000005684},{"name":"G#4","midi":68,"time":246.63020833333752,"velocity":0.6299212598425197,"duration":0.039583333333325754},{"name":"D3","midi":50,"time":246.81145833333753,"velocity":0.4881889763779528,"duration":0.03541666666666288},{"name":"A3","midi":57,"time":246.8343750000042,"velocity":0.5748031496062992,"duration":0.10416666666668561},{"name":"G#5","midi":80,"time":246.89166666667086,"velocity":0.4881889763779528,"duration":0.03645833333337123},{"name":"A5","midi":81,"time":246.8937500000042,"velocity":0.5511811023622047,"duration":0.06250000000002842},{"name":"E4","midi":64,"time":246.89479166667087,"velocity":0.6929133858267716,"duration":0.2593750000000057},{"name":"B5","midi":83,"time":246.9156250000042,"velocity":0.47244094488188976,"duration":0.04791666666667993},{"name":"E6","midi":88,"time":246.91875000000422,"velocity":0.4881889763779528,"duration":0.046875},{"name":"D4","midi":62,"time":247.08541666667088,"velocity":0.5905511811023622,"duration":0.24583333333333712},{"name":"C#4","midi":61,"time":247.33645833333756,"velocity":0.5275590551181102,"duration":0.21041666666667425},{"name":"D4","midi":62,"time":247.53958333333756,"velocity":0.23622047244094488,"duration":0.040625000000005684},{"name":"F#2","midi":42,"time":247.8114583333377,"velocity":0.7480314960629921,"duration":0.26250000000013074},{"name":"F#5","midi":78,"time":247.8177083333377,"velocity":0.6535433070866141,"duration":0.5062500000002217},{"name":"F#1","midi":30,"time":247.82604166667102,"velocity":0.6692913385826772,"duration":0.16354166666681635},{"name":"C#5","midi":73,"time":247.83437500000434,"velocity":0.5433070866141733,"duration":0.45312500000019895},{"name":"F#4","midi":66,"time":247.83750000000435,"velocity":0.49606299212598426,"duration":0.05937500000010232},{"name":"C#2","midi":37,"time":248.02916666667116,"velocity":0.33858267716535434,"duration":0.02812499999998863},{"name":"F#4","midi":66,"time":248.24895833333784,"velocity":0.5590551181102362,"duration":0.03333333333335986},{"name":"F#3","midi":54,"time":248.2562500000045,"velocity":0.6220472440944882,"duration":0.22395833333339965},{"name":"F#2","midi":42,"time":248.2791666666712,"velocity":0.33858267716535434,"duration":0.10937500000005684},{"name":"C#3","midi":49,"time":248.42083333333792,"velocity":0.44881889763779526,"duration":0.037499999999994316},{"name":"F#5","midi":78,"time":248.53645833333792,"velocity":0.4251968503937008,"duration":0.12812499999998295},{"name":"G#5","midi":80,"time":248.59375000000458,"velocity":0.47244094488188976,"duration":0.15625},{"name":"A5","midi":81,"time":248.63750000000456,"velocity":0.3937007874015748,"duration":0.11666666666667425},{"name":"C#6","midi":85,"time":248.7052083333379,"velocity":0.6456692913385826,"duration":0.06458333333333144},{"name":"F#3","midi":54,"time":248.73958333333792,"velocity":0.5984251968503937,"duration":0.12187499999998863},{"name":"F#4","midi":66,"time":248.7520833333379,"velocity":0.6614173228346457,"duration":0.08541666666667425},{"name":"F#4","midi":66,"time":248.9302083333379,"velocity":0.5826771653543307,"duration":0.06562500000001137},{"name":"C#5","midi":73,"time":249.1739583333379,"velocity":0.5748031496062992,"duration":0.26354166666666856},{"name":"F#4","midi":66,"time":249.17604166667124,"velocity":0.44881889763779526,"duration":0.10312500000000568},{"name":"D2","midi":38,"time":249.60625000000465,"velocity":0.5590551181102362,"duration":0.2343750000002558},{"name":"D1","midi":26,"time":249.611458333338,"velocity":0.6062992125984252,"duration":0.15104166666688457},{"name":"D5","midi":74,"time":249.63020833333806,"velocity":0.6614173228346457,"duration":0.6916666666668334},{"name":"D4","midi":62,"time":249.63854166667141,"velocity":0.5669291338582677,"duration":0.08541666666673109},{"name":"A4","midi":69,"time":249.6427083333381,"velocity":0.48031496062992124,"duration":0.5968750000001535},{"name":"A1","midi":33,"time":249.82604166667156,"velocity":0.2204724409448819,"duration":0.008333333333325754},{"name":"D4","midi":62,"time":249.86041666667157,"velocity":0.48031496062992124,"duration":0.05208333333334281},{"name":"D4","midi":62,"time":250.05520833333824,"velocity":0.5354330708661418,"duration":0.07395833333333712},{"name":"D2","midi":38,"time":250.05520833333824,"velocity":0.4251968503937008,"duration":0.10416666666668561},{"name":"D3","midi":50,"time":250.06250000000492,"velocity":0.4015748031496063,"duration":0.1614583333333428},{"name":"D4","midi":62,"time":250.29895833333825,"velocity":0.3700787401574803,"duration":0.012499999999988631},{"name":"A3","midi":57,"time":250.43541666667156,"velocity":0.6062992125984252,"duration":0.10520833333333712},{"name":"C3","midi":48,"time":250.45833333333823,"velocity":0.2204724409448819,"duration":0.021874999999994316},{"name":"D3","midi":50,"time":250.47291666667155,"velocity":0.2204724409448819,"duration":0.01770833333333144},{"name":"A5","midi":81,"time":250.51770833333822,"velocity":0.5984251968503937,"duration":0.037499999999994316},{"name":"E4","midi":64,"time":250.5343750000049,"velocity":0.5984251968503937,"duration":0.22291666666663446},{"name":"E5","midi":76,"time":250.55104166667155,"velocity":0.4330708661417323,"duration":0.008333333333325754},{"name":"D4","midi":62,"time":250.71250000000487,"velocity":0.5590551181102362,"duration":0.2552083333333428},{"name":"C#4","midi":61,"time":250.9427083333382,"velocity":0.6141732283464567,"duration":0.2041666666666515},{"name":"A4","midi":69,"time":250.97083333333822,"velocity":0.6299212598425197,"duration":0.02812499999998863},{"name":"D4","midi":62,"time":251.13437500000487,"velocity":0.4881889763779528,"duration":0.04062499999997726},{"name":"A1","midi":33,"time":251.38854166667156,"velocity":0.6614173228346457,"duration":0.1968750000001478},{"name":"A2","midi":45,"time":251.40520833333827,"velocity":0.4645669291338583,"duration":0.24375000000011937},{"name":"A5","midi":81,"time":251.40520833333827,"velocity":0.7322834645669292,"duration":0.5520833333334849},{"name":"E5","midi":76,"time":251.41354166667162,"velocity":0.6062992125984252,"duration":0.459375000000108},{"name":"E2","midi":40,"time":251.42812500000494,"velocity":0.11811023622047244,"duration":0.09375000000008527},{"name":"E2","midi":40,"time":251.61145833333836,"velocity":0.23622047244094488,"duration":0.03854166666670267},{"name":"A2","midi":45,"time":251.84791666667172,"velocity":0.4645669291338583,"duration":0.13750000000001705},{"name":"A3","midi":57,"time":251.85312500000506,"velocity":0.5511811023622047,"duration":0.18333333333333712},{"name":"A4","midi":69,"time":251.8552083333384,"velocity":0.6220472440944882,"duration":0.03333333333333144},{"name":"E3","midi":52,"time":251.9927083333384,"velocity":0.3779527559055118,"duration":0.055208333333325754},{"name":"A5","midi":81,"time":252.14479166667175,"velocity":0.48031496062992124,"duration":0.13854166666666856},{"name":"B5","midi":83,"time":252.23125000000508,"velocity":0.47244094488188976,"duration":0.10416666666668561},{"name":"C#6","midi":85,"time":252.23229166667176,"velocity":0.49606299212598426,"duration":0.11562500000002274},{"name":"E6","midi":88,"time":252.31666666667175,"velocity":0.6377952755905512,"duration":0.06250000000002842},{"name":"D6","midi":86,"time":252.32395833333842,"velocity":0.3464566929133858,"duration":0.01875000000001137},{"name":"A4","midi":69,"time":252.3312500000051,"velocity":0.7322834645669292,"duration":0.2760416666666572},{"name":"A3","midi":57,"time":252.33541666667176,"velocity":0.5354330708661418,"duration":0.15208333333333712},{"name":"B3","midi":59,"time":252.37395833333844,"velocity":0.25984251968503935,"duration":0.03645833333334281},{"name":"B4","midi":71,"time":252.74166666667176,"velocity":0.6220472440944882,"duration":0.5281250000001307},{"name":"E1","midi":28,"time":253.21875000000517,"velocity":0.5590551181102362,"duration":0.08541666666675951},{"name":"G#5","midi":80,"time":253.21875000000517,"velocity":0.6850393700787402,"duration":0.6552083333334622},{"name":"E2","midi":40,"time":253.22604166667185,"velocity":0.5669291338582677,"duration":0.1812500000001478},{"name":"G#4","midi":68,"time":253.22812500000518,"velocity":0.5984251968503937,"duration":0.03854166666670267},{"name":"B1","midi":35,"time":253.22812500000518,"velocity":0.25196850393700787,"duration":0.029166666666696983},{"name":"B1","midi":35,"time":253.397916666672,"velocity":0.18110236220472442,"duration":0.05937499999998863},{"name":"G#4","midi":68,"time":253.41770833333865,"velocity":0.5669291338582677,"duration":0.08541666666664582},{"name":"G#4","midi":68,"time":253.66145833333863,"velocity":0.49606299212598426,"duration":0.036458333333314386},{"name":"E3","midi":52,"time":253.6656250000053,"velocity":0.33858267716535434,"duration":0.12083333333333712},{"name":"E2","midi":40,"time":253.66979166667195,"velocity":0.33858267716535434,"duration":0.053124999999994316},{"name":"B2","midi":47,"time":253.7937500000053,"velocity":0.1968503937007874,"duration":0.05729166666665719},{"name":"G#4","midi":68,"time":253.85833333333863,"velocity":0.3937007874015748,"duration":0.012499999999988631},{"name":"D3","midi":50,"time":254.02708333333862,"velocity":0.4566929133858268,"duration":0.053124999999994316},{"name":"A3","midi":57,"time":254.04895833333862,"velocity":0.5590551181102362,"duration":0.10416666666665719},{"name":"E4","midi":64,"time":254.1177083333386,"velocity":0.6929133858267716,"duration":0.24583333333333712},{"name":"G#5","midi":80,"time":254.11979166667194,"velocity":0.5590551181102362,"duration":0.04479166666666856},{"name":"A5","midi":81,"time":254.12812500000527,"velocity":0.5354330708661418,"duration":0.07500000000001705},{"name":"E6","midi":88,"time":254.1395833333386,"velocity":0.47244094488188976,"duration":0.11458333333334281},{"name":"B5","midi":83,"time":254.15937500000527,"velocity":0.4251968503937008,"duration":0.07500000000001705},{"name":"D4","midi":62,"time":254.30729166667194,"velocity":0.6535433070866141,"duration":0.2510416666666515},{"name":"C#4","midi":61,"time":254.54375000000528,"velocity":0.6220472440944882,"duration":0.1885416666666515},{"name":"D4","midi":62,"time":254.7614583333386,"velocity":0.3464566929133858,"duration":0.005208333333342807},{"name":"F#2","midi":42,"time":254.98541666667194,"velocity":0.6456692913385826,"duration":0.2531250000001535},{"name":"F#1","midi":30,"time":255.0083333333386,"velocity":0.4645669291338583,"duration":0.14895833333343944},{"name":"F#5","midi":78,"time":255.01354166667195,"velocity":0.6299212598425197,"duration":0.5416666666667993},{"name":"F#4","midi":66,"time":255.01666666667197,"velocity":0.5826771653543307,"duration":0.0864583333333826},{"name":"C#5","midi":73,"time":255.0218750000053,"velocity":0.5433070866141733,"duration":0.49270833333343944},{"name":"C#2","midi":37,"time":255.17083333333872,"velocity":0.3779527559055118,"duration":0.05416666666670267},{"name":"F#3","midi":54,"time":255.43437500000542,"velocity":0.6771653543307087,"duration":0.2239583333333428},{"name":"F#2","midi":42,"time":255.43437500000542,"velocity":0.49606299212598426,"duration":0.13854166666666856},{"name":"F#4","midi":66,"time":255.45208333333875,"velocity":0.6377952755905512,"duration":0.04270833333333712},{"name":"C#3","midi":49,"time":255.62708333333876,"velocity":0.48031496062992124,"duration":0.03541666666666288},{"name":"D3","midi":50,"time":255.8729166666721,"velocity":0.4881889763779528,"duration":0.07500000000001705},{"name":"F#5","midi":78,"time":255.88333333333875,"velocity":0.5669291338582677,"duration":0.10000000000005116},{"name":"A3","midi":57,"time":255.88750000000542,"velocity":0.49606299212598426,"duration":0.12187500000001705},{"name":"G#5","midi":80,"time":255.92812500000542,"velocity":0.4251968503937008,"duration":0.1031250000000341},{"name":"E3","midi":52,"time":255.93125000000543,"velocity":0.14960629921259844,"duration":0.043750000000045475},{"name":"A5","midi":81,"time":255.95520833333882,"velocity":0.4094488188976378,"duration":0.09791666666666288},{"name":"C#6","midi":85,"time":255.96354166667214,"velocity":0.6614173228346457,"duration":0.9916666666667311},{"name":"E4","midi":64,"time":255.9895833333388,"velocity":0.6062992125984252,"duration":0.24375000000000568},{"name":"D4","midi":62,"time":256.18437500000545,"velocity":0.6377952755905512,"duration":0.26145833333339397},{"name":"C#4","midi":61,"time":256.41666666667214,"velocity":0.6220472440944882,"duration":0.20000000000004547},{"name":"F#5","midi":78,"time":256.4239583333388,"velocity":0.5275590551181102,"duration":0.5124999999999886},{"name":"D4","midi":62,"time":256.6281250000055,"velocity":0.49606299212598426,"duration":0.024999999999977263},{"name":"C#4","midi":61,"time":256.88854166667215,"velocity":0.5905511811023622,"duration":0.5624999999999432},{"name":"A5","midi":81,"time":256.92291666667217,"velocity":0.5118110236220472,"duration":0.4947916666665719},{"name":"D3","midi":50,"time":256.9281250000055,"velocity":0.3700787401574803,"duration":0.533333333333303},{"name":"C#5","midi":73,"time":257.45520833333876,"velocity":0.5590551181102362,"duration":0.07708333333334849},{"name":"A3","midi":57,"time":257.4989583333388,"velocity":0.25984251968503935,"duration":0.02916666666664014},{"name":"D3","midi":50,"time":257.8937500000054,"velocity":0.3779527559055118,"duration":0.15416666666664014},{"name":"A3","midi":57,"time":257.9906250000054,"velocity":0.4566929133858268,"duration":0.14166666666653782},{"name":"A5","midi":81,"time":258.03750000000537,"velocity":0.47244094488188976,"duration":0.7781249999998181},{"name":"E5","midi":76,"time":258.0614583333387,"velocity":0.36220472440944884,"duration":0.7437499999998067},{"name":"E4","midi":64,"time":258.10625000000533,"velocity":0.5354330708661418,"duration":0.3874999999999318},{"name":"D4","midi":62,"time":258.4083333333386,"velocity":0.4251968503937008,"duration":0.34895833333325754},{"name":"C#4","midi":61,"time":258.7739583333385,"velocity":0.4566929133858268,"duration":0.3187499999999659},{"name":"A4","midi":69,"time":258.79062500000515,"velocity":0.33858267716535434,"duration":0.203125},{"name":"D4","midi":62,"time":259.17812500000514,"velocity":0.25984251968503935,"duration":0.024999999999977263},{"name":"A2","midi":45,"time":259.81875000000514,"velocity":0.2125984251968504,"duration":4.940624999999841},{"name":"C#4","midi":61,"time":259.82395833333845,"velocity":0.2440944881889764,"duration":5.135416666666515},{"name":"B3","midi":59,"time":259.8302083333385,"velocity":0.14173228346456693,"duration":4.965624999999818},{"name":"A3","midi":57,"time":259.84062500000516,"velocity":0.14960629921259844,"duration":4.96666666666647},{"name":"E3","midi":52,"time":259.8750000000052,"velocity":0.11811023622047244,"duration":5.059374999999818}],"controlChanges":{"64":[{"number":64,"time":215.21354166666669,"value":0.14960629921259844},{"number":64,"time":215.21458333333337,"value":0.14960629921259844},{"number":64,"time":215.22187500000004,"value":0.2755905511811024},{"number":64,"time":215.22291666666672,"value":0.2755905511811024},{"number":64,"time":215.2302083333334,"value":0.4015748031496063},{"number":64,"time":215.2302083333334,"value":0.4015748031496063},{"number":64,"time":215.23750000000007,"value":0.47244094488188976},{"number":64,"time":215.23854166666675,"value":0.47244094488188976},{"number":64,"time":215.25000000000009,"value":0.5039370078740157},{"number":64,"time":215.25104166666677,"value":0.5039370078740157},{"number":64,"time":215.28541666666678,"value":0.5354330708661418},{"number":64,"time":215.28645833333346,"value":0.5354330708661418},{"number":64,"time":215.33020833333345,"value":0.5669291338582677},{"number":64,"time":215.33020833333345,"value":0.5669291338582677},{"number":64,"time":215.3500000000001,"value":0.5984251968503937},{"number":64,"time":215.3510416666668,"value":0.5984251968503937},{"number":64,"time":215.37812500000013,"value":0.6377952755905512},{"number":64,"time":215.37812500000013,"value":0.6377952755905512},{"number":64,"time":215.46145833333347,"value":0.7322834645669292},{"number":64,"time":215.46250000000015,"value":0.7322834645669292},{"number":64,"time":216.59687500000024,"value":0.8267716535433071},{"number":64,"time":216.59791666666692,"value":0.8267716535433071},{"number":64,"time":217.0729166666669,"value":0.7322834645669292},{"number":64,"time":217.0739583333336,"value":0.7322834645669292},{"number":64,"time":217.08437500000025,"value":0.6456692913385826},{"number":64,"time":217.08541666666693,"value":0.6456692913385826},{"number":64,"time":217.0989583333336,"value":0.6062992125984252},{"number":64,"time":217.10000000000028,"value":0.6062992125984252},{"number":64,"time":217.10833333333363,"value":0.5748031496062992},{"number":64,"time":217.1093750000003,"value":0.5748031496062992},{"number":64,"time":217.11875000000032,"value":0.5433070866141733},{"number":64,"time":217.119791666667,"value":0.5433070866141733},{"number":64,"time":217.12708333333367,"value":0.5118110236220472},{"number":64,"time":217.12812500000035,"value":0.5118110236220472},{"number":64,"time":217.13645833333368,"value":0.47244094488188976},{"number":64,"time":217.13750000000036,"value":0.47244094488188976},{"number":64,"time":217.23229166666704,"value":0.5039370078740157},{"number":64,"time":217.23333333333372,"value":0.5039370078740157},{"number":64,"time":217.2927083333337,"value":0.5354330708661418},{"number":64,"time":217.2937500000004,"value":0.5354330708661418},{"number":64,"time":217.3250000000004,"value":0.5669291338582677},{"number":64,"time":217.32604166666707,"value":0.5669291338582677},{"number":64,"time":217.3531250000004,"value":0.5984251968503937},{"number":64,"time":217.35416666666708,"value":0.5984251968503937},{"number":64,"time":217.41666666666708,"value":0.6299212598425197},{"number":64,"time":217.41770833333376,"value":0.6299212598425197},{"number":64,"time":218.79166666666706,"value":0.7322834645669292},{"number":64,"time":218.79166666666706,"value":0.7322834645669292},{"number":64,"time":218.9375000000004,"value":0.6535433070866141},{"number":64,"time":218.93854166666708,"value":0.6535433070866141},{"number":64,"time":218.94791666666708,"value":0.6141732283464567},{"number":64,"time":218.94895833333376,"value":0.6141732283464567},{"number":64,"time":218.95520833333376,"value":0.5826771653543307},{"number":64,"time":218.95625000000044,"value":0.5826771653543307},{"number":64,"time":218.9635416666671,"value":0.5511811023622047},{"number":64,"time":218.9635416666671,"value":0.5511811023622047},{"number":64,"time":218.97187500000044,"value":0.5039370078740157},{"number":64,"time":218.97291666666712,"value":0.5039370078740157},{"number":64,"time":218.9854166666671,"value":0.4015748031496063},{"number":64,"time":218.9864583333338,"value":0.4015748031496063},{"number":64,"time":218.99687500000047,"value":0.2992125984251969},{"number":64,"time":218.99791666666715,"value":0.2992125984251969},{"number":64,"time":219.1031250000005,"value":0.4015748031496063},{"number":64,"time":219.10416666666717,"value":0.4015748031496063},{"number":64,"time":219.1250000000005,"value":0.48031496062992124},{"number":64,"time":219.1260416666672,"value":0.48031496062992124},{"number":64,"time":219.15937500000052,"value":0.5118110236220472},{"number":64,"time":219.1604166666672,"value":0.5118110236220472},{"number":64,"time":219.2072916666672,"value":0.5433070866141733},{"number":64,"time":219.20833333333388,"value":0.5433070866141733},{"number":64,"time":219.2354166666672,"value":0.5748031496062992},{"number":64,"time":219.23645833333387,"value":0.5748031496062992},{"number":64,"time":219.28750000000053,"value":0.6141732283464567},{"number":64,"time":219.28854166666721,"value":0.6141732283464567},{"number":64,"time":219.3677083333339,"value":0.6456692913385826},{"number":64,"time":219.36875000000057,"value":0.6456692913385826},{"number":64,"time":220.7916666666673,"value":0.6141732283464567},{"number":64,"time":220.792708333334,"value":0.6141732283464567},{"number":64,"time":220.80312500000065,"value":0.5748031496062992},{"number":64,"time":220.80416666666733,"value":0.5748031496062992},{"number":64,"time":220.81562500000067,"value":0.5354330708661418},{"number":64,"time":220.81562500000067,"value":0.5354330708661418},{"number":64,"time":220.823958333334,"value":0.49606299212598426},{"number":64,"time":220.823958333334,"value":0.49606299212598426},{"number":64,"time":220.84166666666732,"value":0.3779527559055118},{"number":64,"time":220.842708333334,"value":0.3779527559055118},{"number":64,"time":220.91145833333405,"value":0.48031496062992124},{"number":64,"time":220.91250000000073,"value":0.48031496062992124},{"number":64,"time":220.9354166666674,"value":0.5196850393700787},{"number":64,"time":220.9364583333341,"value":0.5196850393700787},{"number":64,"time":220.95937500000076,"value":0.5511811023622047},{"number":64,"time":220.96041666666744,"value":0.5511811023622047},{"number":64,"time":221.00729166666744,"value":0.5826771653543307},{"number":64,"time":221.00833333333412,"value":0.5826771653543307},{"number":64,"time":221.12291666666746,"value":0.6141732283464567},{"number":64,"time":221.12395833333414,"value":0.6141732283464567},{"number":64,"time":221.66562500000077,"value":0.6456692913385826},{"number":64,"time":221.66666666666745,"value":0.6456692913385826},{"number":64,"time":222.04687500000077,"value":0.6062992125984252},{"number":64,"time":222.04791666666745,"value":0.6062992125984252},{"number":64,"time":222.05729166666745,"value":0.5748031496062992},{"number":64,"time":222.05833333333413,"value":0.5748031496062992},{"number":64,"time":222.06666666666746,"value":0.5433070866141733},{"number":64,"time":222.06770833333414,"value":0.5433070866141733},{"number":64,"time":222.07291666666748,"value":0.5118110236220472},{"number":64,"time":222.07395833333416,"value":0.5118110236220472},{"number":64,"time":222.08125000000084,"value":0.48031496062992124},{"number":64,"time":222.08229166666752,"value":0.48031496062992124},{"number":64,"time":222.13333333333418,"value":0.5118110236220472},{"number":64,"time":222.13333333333418,"value":0.5118110236220472},{"number":64,"time":222.15000000000086,"value":0.5433070866141733},{"number":64,"time":222.15104166666754,"value":0.5433070866141733},{"number":64,"time":222.16979166666752,"value":0.5748031496062992},{"number":64,"time":222.1708333333342,"value":0.5748031496062992},{"number":64,"time":222.18541666666752,"value":0.6062992125984252},{"number":64,"time":222.1864583333342,"value":0.6062992125984252},{"number":64,"time":222.27812500000087,"value":0.6377952755905512},{"number":64,"time":222.27812500000087,"value":0.6377952755905512},{"number":64,"time":222.56562500000086,"value":0.7322834645669292},{"number":64,"time":222.56666666666754,"value":0.7322834645669292},{"number":64,"time":222.61354166666754,"value":0.6535433070866141},{"number":64,"time":222.61354166666754,"value":0.6535433070866141},{"number":64,"time":222.63020833333422,"value":0.6141732283464567},{"number":64,"time":222.6312500000009,"value":0.6141732283464567},{"number":64,"time":222.6416666666676,"value":0.5826771653543307},{"number":64,"time":222.64270833333427,"value":0.5826771653543307},{"number":64,"time":222.65312500000095,"value":0.5511811023622047},{"number":64,"time":222.65312500000095,"value":0.5511811023622047},{"number":64,"time":222.66145833333428,"value":0.5118110236220472},{"number":64,"time":222.66145833333428,"value":0.5118110236220472},{"number":64,"time":222.66770833333428,"value":0.47244094488188976},{"number":64,"time":222.66875000000095,"value":0.47244094488188976},{"number":64,"time":222.67500000000095,"value":0.3779527559055118},{"number":64,"time":222.67604166666763,"value":0.3779527559055118},{"number":64,"time":222.69791666666762,"value":0.2755905511811024},{"number":64,"time":222.69791666666762,"value":0.2755905511811024},{"number":64,"time":222.7572916666676,"value":0.3779527559055118},{"number":64,"time":222.7583333333343,"value":0.3779527559055118},{"number":64,"time":222.7729166666676,"value":0.47244094488188976},{"number":64,"time":222.7739583333343,"value":0.47244094488188976},{"number":64,"time":222.78541666666763,"value":0.5039370078740157},{"number":64,"time":222.7864583333343,"value":0.5039370078740157},{"number":64,"time":222.80104166666763,"value":0.5354330708661418},{"number":64,"time":222.8020833333343,"value":0.5354330708661418},{"number":64,"time":222.84166666666763,"value":0.5669291338582677},{"number":64,"time":222.84270833333431,"value":0.5669291338582677},{"number":64,"time":222.88541666666765,"value":0.5984251968503937},{"number":64,"time":222.88645833333433,"value":0.5984251968503937},{"number":64,"time":222.94166666666766,"value":0.6299212598425197},{"number":64,"time":222.94270833333434,"value":0.6299212598425197},{"number":64,"time":223.45312500000102,"value":0.7322834645669292},{"number":64,"time":223.4541666666677,"value":0.7322834645669292},{"number":64,"time":223.55312500000105,"value":0.6535433070866141},{"number":64,"time":223.55416666666773,"value":0.6535433070866141},{"number":64,"time":223.56979166666773,"value":0.6141732283464567},{"number":64,"time":223.5708333333344,"value":0.6141732283464567},{"number":64,"time":223.58333333333442,"value":0.5826771653543307},{"number":64,"time":223.58333333333442,"value":0.5826771653543307},{"number":64,"time":223.59687500000112,"value":0.5511811023622047},{"number":64,"time":223.5979166666678,"value":0.5511811023622047},{"number":64,"time":223.6135416666678,"value":0.5118110236220472},{"number":64,"time":223.61458333333448,"value":0.5118110236220472},{"number":64,"time":223.70937500000116,"value":0.5433070866141733},{"number":64,"time":223.70937500000116,"value":0.5433070866141733},{"number":64,"time":223.7458333333345,"value":0.5748031496062992},{"number":64,"time":223.74687500000118,"value":0.5748031496062992},{"number":64,"time":223.78958333333452,"value":0.6141732283464567},{"number":64,"time":223.7906250000012,"value":0.6141732283464567},{"number":64,"time":223.8687500000012,"value":0.6456692913385826},{"number":64,"time":223.86979166666788,"value":0.6456692913385826},{"number":64,"time":224.4729166666679,"value":0.6141732283464567},{"number":64,"time":224.4739583333346,"value":0.6141732283464567},{"number":64,"time":224.48437500000125,"value":0.5826771653543307},{"number":64,"time":224.48437500000125,"value":0.5826771653543307},{"number":64,"time":224.49687500000124,"value":0.5433070866141733},{"number":64,"time":224.49791666666792,"value":0.5433070866141733},{"number":64,"time":224.50625000000124,"value":0.5118110236220472},{"number":64,"time":224.50729166666792,"value":0.5118110236220472},{"number":64,"time":224.5145833333346,"value":0.47244094488188976},{"number":64,"time":224.51562500000128,"value":0.47244094488188976},{"number":64,"time":224.5239583333346,"value":0.3779527559055118},{"number":64,"time":224.52500000000128,"value":0.3779527559055118},{"number":64,"time":224.5958333333346,"value":0.47244094488188976},{"number":64,"time":224.5968750000013,"value":0.47244094488188976},{"number":64,"time":224.61770833333463,"value":0.5039370078740157},{"number":64,"time":224.6187500000013,"value":0.5039370078740157},{"number":64,"time":224.65625000000134,"value":0.5354330708661418},{"number":64,"time":224.65729166666802,"value":0.5354330708661418},{"number":64,"time":224.69375000000136,"value":0.5669291338582677},{"number":64,"time":224.69479166666804,"value":0.5669291338582677},{"number":64,"time":224.7364583333347,"value":0.5984251968503937},{"number":64,"time":224.73750000000138,"value":0.5984251968503937},{"number":64,"time":224.80937500000138,"value":0.6299212598425197},{"number":64,"time":224.80937500000138,"value":0.6299212598425197},{"number":64,"time":225.01666666666807,"value":0.7322834645669292},{"number":64,"time":225.01770833333475,"value":0.7322834645669292},{"number":64,"time":226.3083333333347,"value":0.6535433070866141},{"number":64,"time":226.3083333333347,"value":0.6535433070866141},{"number":64,"time":226.31666666666803,"value":0.6220472440944882},{"number":64,"time":226.3177083333347,"value":0.6220472440944882},{"number":64,"time":226.32812500000136,"value":0.5826771653543307},{"number":64,"time":226.32916666666804,"value":0.5826771653543307},{"number":64,"time":226.33645833333472,"value":0.5511811023622047},{"number":64,"time":226.3375000000014,"value":0.5511811023622047},{"number":64,"time":226.3468750000014,"value":0.5039370078740157},{"number":64,"time":226.34791666666808,"value":0.5039370078740157},{"number":64,"time":226.3604166666681,"value":0.4015748031496063},{"number":64,"time":226.36145833333478,"value":0.4015748031496063},{"number":64,"time":226.3760416666681,"value":0.2755905511811024},{"number":64,"time":226.37708333333478,"value":0.2755905511811024},{"number":64,"time":226.45208333333477,"value":0.3779527559055118},{"number":64,"time":226.45312500000145,"value":0.3779527559055118},{"number":64,"time":226.46875000000145,"value":0.47244094488188976},{"number":64,"time":226.46875000000145,"value":0.47244094488188976},{"number":64,"time":226.48437500000145,"value":0.5039370078740157},{"number":64,"time":226.48437500000145,"value":0.5039370078740157},{"number":64,"time":226.50937500000146,"value":0.5354330708661418},{"number":64,"time":226.50937500000146,"value":0.5354330708661418},{"number":64,"time":226.54479166666812,"value":0.5669291338582677},{"number":64,"time":226.54479166666812,"value":0.5669291338582677},{"number":64,"time":226.56354166666813,"value":0.5984251968503937},{"number":64,"time":226.5645833333348,"value":0.5984251968503937},{"number":64,"time":226.58750000000148,"value":0.6377952755905512},{"number":64,"time":226.58854166666816,"value":0.6377952755905512},{"number":64,"time":226.6843750000015,"value":0.7322834645669292},{"number":64,"time":226.6843750000015,"value":0.7322834645669292},{"number":64,"time":226.85104166666815,"value":0.8267716535433071},{"number":64,"time":226.85208333333483,"value":0.8267716535433071},{"number":64,"time":227.28750000000156,"value":0.7322834645669292},{"number":64,"time":227.28750000000156,"value":0.7322834645669292},{"number":64,"time":227.30104166666823,"value":0.6456692913385826},{"number":64,"time":227.3020833333349,"value":0.6456692913385826},{"number":64,"time":227.30729166666825,"value":0.6141732283464567},{"number":64,"time":227.30833333333493,"value":0.6141732283464567},{"number":64,"time":227.3187500000016,"value":0.5826771653543307},{"number":64,"time":227.31979166666827,"value":0.5826771653543307},{"number":64,"time":227.33541666666827,"value":0.5511811023622047},{"number":64,"time":227.33645833333495,"value":0.5511811023622047},{"number":64,"time":227.35208333333495,"value":0.5196850393700787},{"number":64,"time":227.35312500000163,"value":0.5196850393700787},{"number":64,"time":227.3916666666683,"value":0.5511811023622047},{"number":64,"time":227.39270833333498,"value":0.5511811023622047},{"number":64,"time":227.41875000000164,"value":0.5826771653543307},{"number":64,"time":227.41979166666832,"value":0.5826771653543307},{"number":64,"time":227.44375000000164,"value":0.6141732283464567},{"number":64,"time":227.44375000000164,"value":0.6141732283464567},{"number":64,"time":227.47500000000164,"value":0.6535433070866141},{"number":64,"time":227.47604166666832,"value":0.6535433070866141},{"number":64,"time":227.54687500000165,"value":0.7559055118110236},{"number":64,"time":227.54791666666833,"value":0.7559055118110236},{"number":64,"time":227.81145833333503,"value":0.8503937007874016},{"number":64,"time":227.8125000000017,"value":0.8503937007874016},{"number":64,"time":228.15104166666836,"value":0.7559055118110236},{"number":64,"time":228.15208333333504,"value":0.7559055118110236},{"number":64,"time":228.15937500000172,"value":0.6614173228346457},{"number":64,"time":228.1604166666684,"value":0.6614173228346457},{"number":64,"time":228.16770833333507,"value":0.6141732283464567},{"number":64,"time":228.16770833333507,"value":0.6141732283464567},{"number":64,"time":228.1854166666684,"value":0.5748031496062992},{"number":64,"time":228.18645833333508,"value":0.5748031496062992},{"number":64,"time":228.1927083333351,"value":0.5354330708661418},{"number":64,"time":228.19375000000178,"value":0.5354330708661418},{"number":64,"time":228.19583333333512,"value":0.5039370078740157},{"number":64,"time":228.1968750000018,"value":0.5039370078740157},{"number":64,"time":228.19791666666848,"value":0.47244094488188976},{"number":64,"time":228.19895833333516,"value":0.47244094488188976},{"number":64,"time":228.2041666666685,"value":0.3779527559055118},{"number":64,"time":228.20520833333518,"value":0.3779527559055118},{"number":64,"time":228.21145833333517,"value":0.2755905511811024},{"number":64,"time":228.21250000000185,"value":0.2755905511811024},{"number":64,"time":228.27500000000185,"value":0.3779527559055118},{"number":64,"time":228.27604166666853,"value":0.3779527559055118},{"number":64,"time":228.29166666666853,"value":0.47244094488188976},{"number":64,"time":228.2927083333352,"value":0.47244094488188976},{"number":64,"time":228.30312500000187,"value":0.5039370078740157},{"number":64,"time":228.30312500000187,"value":0.5039370078740157},{"number":64,"time":228.31979166666855,"value":0.5354330708661418},{"number":64,"time":228.32083333333523,"value":0.5354330708661418},{"number":64,"time":228.35208333333523,"value":0.5669291338582677},{"number":64,"time":228.3531250000019,"value":0.5669291338582677},{"number":64,"time":228.41145833333525,"value":0.5984251968503937},{"number":64,"time":228.41250000000193,"value":0.5984251968503937},{"number":64,"time":228.45520833333526,"value":0.6299212598425197},{"number":64,"time":228.45625000000194,"value":0.6299212598425197},{"number":64,"time":228.8510416666686,"value":0.7322834645669292},{"number":64,"time":228.8510416666686,"value":0.7322834645669292},{"number":64,"time":229.09895833333525,"value":0.6535433070866141},{"number":64,"time":229.10000000000193,"value":0.6535433070866141},{"number":64,"time":229.1229166666686,"value":0.6220472440944882},{"number":64,"time":229.12395833333528,"value":0.6220472440944882},{"number":64,"time":229.14687500000196,"value":0.5905511811023622},{"number":64,"time":229.14791666666864,"value":0.5905511811023622},{"number":64,"time":229.1708333333353,"value":0.5590551181102362},{"number":64,"time":229.171875000002,"value":0.5590551181102362},{"number":64,"time":229.187500000002,"value":0.5275590551181102},{"number":64,"time":229.18854166666867,"value":0.5275590551181102},{"number":64,"time":229.19895833333533,"value":0.49606299212598426},{"number":64,"time":229.200000000002,"value":0.49606299212598426},{"number":64,"time":229.22291666666868,"value":0.4015748031496063},{"number":64,"time":229.22395833333536,"value":0.4015748031496063},{"number":64,"time":229.24687500000203,"value":0.2992125984251969},{"number":64,"time":229.24791666666871,"value":0.2992125984251969},{"number":64,"time":229.27083333333536,"value":0.2047244094488189},{"number":64,"time":229.27187500000204,"value":0.2047244094488189},{"number":64,"time":229.28750000000204,"value":0.10236220472440945},{"number":64,"time":229.28854166666872,"value":0.10236220472440945},{"number":64,"time":229.29895833333538,"value":0},{"number":64,"time":229.30000000000206,"value":0},{"number":64,"time":230.0354166666688,"value":0.10236220472440945},{"number":64,"time":230.03645833333547,"value":0.10236220472440945},{"number":64,"time":230.04166666666882,"value":0.2047244094488189},{"number":64,"time":230.04166666666882,"value":0.2047244094488189},{"number":64,"time":230.0479166666688,"value":0.3543307086614173},{"number":64,"time":230.0489583333355,"value":0.3543307086614173},{"number":64,"time":230.0552083333355,"value":0.47244094488188976},{"number":64,"time":230.05625000000217,"value":0.47244094488188976},{"number":64,"time":230.06250000000216,"value":0.5039370078740157},{"number":64,"time":230.06354166666884,"value":0.5039370078740157},{"number":64,"time":230.07812500000216,"value":0.5354330708661418},{"number":64,"time":230.07916666666884,"value":0.5354330708661418},{"number":64,"time":230.12604166666884,"value":0.5669291338582677},{"number":64,"time":230.12708333333552,"value":0.5669291338582677},{"number":64,"time":230.1500000000022,"value":0.5984251968503937},{"number":64,"time":230.1500000000022,"value":0.5984251968503937},{"number":64,"time":230.17083333333554,"value":0.6377952755905512},{"number":64,"time":230.17187500000222,"value":0.6377952755905512},{"number":64,"time":230.20312500000222,"value":0.7322834645669292},{"number":64,"time":230.20312500000222,"value":0.7322834645669292},{"number":64,"time":230.28229166666887,"value":0.8267716535433071},{"number":64,"time":230.28333333333555,"value":0.8267716535433071},{"number":64,"time":231.7656250000023,"value":0.7322834645669292},{"number":64,"time":231.7656250000023,"value":0.7322834645669292},{"number":64,"time":231.77708333333567,"value":0.6456692913385826},{"number":64,"time":231.77708333333567,"value":0.6456692913385826},{"number":64,"time":231.78541666666902,"value":0.6062992125984252},{"number":64,"time":231.78541666666902,"value":0.6062992125984252},{"number":64,"time":231.79062500000236,"value":0.5748031496062992},{"number":64,"time":231.79166666666904,"value":0.5748031496062992},{"number":64,"time":231.7968750000024,"value":0.5433070866141733},{"number":64,"time":231.79791666666907,"value":0.5433070866141733},{"number":64,"time":231.8062500000024,"value":0.49606299212598426},{"number":64,"time":231.80729166666907,"value":0.49606299212598426},{"number":64,"time":231.8187500000024,"value":0.3779527559055118},{"number":64,"time":231.8197916666691,"value":0.3779527559055118},{"number":64,"time":231.8416666666691,"value":0.2755905511811024},{"number":64,"time":231.8427083333358,"value":0.2755905511811024},{"number":64,"time":231.90937500000246,"value":0.3779527559055118},{"number":64,"time":231.91041666666914,"value":0.3779527559055118},{"number":64,"time":231.92916666666915,"value":0.47244094488188976},{"number":64,"time":231.92916666666915,"value":0.47244094488188976},{"number":64,"time":231.94166666666914,"value":0.5039370078740157},{"number":64,"time":231.94270833333582,"value":0.5039370078740157},{"number":64,"time":231.95729166666914,"value":0.5354330708661418},{"number":64,"time":231.95833333333582,"value":0.5354330708661418},{"number":64,"time":231.98229166666914,"value":0.5669291338582677},{"number":64,"time":231.98333333333582,"value":0.5669291338582677},{"number":64,"time":232.0020833333358,"value":0.5984251968503937},{"number":64,"time":232.0020833333358,"value":0.5984251968503937},{"number":64,"time":232.02187500000247,"value":0.6377952755905512},{"number":64,"time":232.02291666666915,"value":0.6377952755905512},{"number":64,"time":232.0531250000025,"value":0.7322834645669292},{"number":64,"time":232.0531250000025,"value":0.7322834645669292},{"number":64,"time":232.12500000000247,"value":0.8267716535433071},{"number":64,"time":232.12604166666915,"value":0.8267716535433071},{"number":64,"time":233.55208333333584,"value":0.7322834645669292},{"number":64,"time":233.55312500000252,"value":0.7322834645669292},{"number":64,"time":233.5604166666692,"value":0.6456692913385826},{"number":64,"time":233.5604166666692,"value":0.6456692913385826},{"number":64,"time":233.5697916666692,"value":0.5984251968503937},{"number":64,"time":233.57083333333588,"value":0.5984251968503937},{"number":64,"time":233.57604166666923,"value":0.5590551181102362},{"number":64,"time":233.5770833333359,"value":0.5590551181102362},{"number":64,"time":233.58020833333592,"value":0.5275590551181102},{"number":64,"time":233.5812500000026,"value":0.5275590551181102},{"number":64,"time":233.58645833333594,"value":0.49606299212598426},{"number":64,"time":233.58750000000262,"value":0.49606299212598426},{"number":64,"time":233.5947916666693,"value":0.3779527559055118},{"number":64,"time":233.5947916666693,"value":0.3779527559055118},{"number":64,"time":233.6010416666693,"value":0.25196850393700787},{"number":64,"time":233.60208333333597,"value":0.25196850393700787},{"number":64,"time":233.61250000000263,"value":0.14960629921259844},{"number":64,"time":233.61250000000263,"value":0.14960629921259844},{"number":64,"time":233.62812500000263,"value":0.05511811023622047},{"number":64,"time":233.62812500000263,"value":0.05511811023622047},{"number":64,"time":233.64895833333597,"value":0},{"number":64,"time":233.64895833333597,"value":0},{"number":64,"time":233.7041666666693,"value":0.12598425196850394},{"number":64,"time":233.70520833333597,"value":0.12598425196850394},{"number":64,"time":233.71250000000265,"value":0.2283464566929134},{"number":64,"time":233.71250000000265,"value":0.2283464566929134},{"number":64,"time":233.71979166666932,"value":0.33070866141732286},{"number":64,"time":233.71979166666932,"value":0.33070866141732286},{"number":64,"time":233.72916666666933,"value":0.44881889763779526},{"number":64,"time":233.72916666666933,"value":0.44881889763779526},{"number":64,"time":233.73229166666934,"value":0.48031496062992124},{"number":64,"time":233.73333333333602,"value":0.48031496062992124},{"number":64,"time":233.73958333333601,"value":0.5196850393700787},{"number":64,"time":233.7406250000027,"value":0.5196850393700787},{"number":64,"time":233.75208333333603,"value":0.5511811023622047},{"number":64,"time":233.7531250000027,"value":0.5511811023622047},{"number":64,"time":233.78020833333605,"value":0.5826771653543307},{"number":64,"time":233.78125000000273,"value":0.5826771653543307},{"number":64,"time":233.80833333333607,"value":0.6141732283464567},{"number":64,"time":233.80937500000275,"value":0.6141732283464567},{"number":64,"time":233.83645833333608,"value":0.6456692913385826},{"number":64,"time":233.83645833333608,"value":0.6456692913385826},{"number":64,"time":233.8760416666694,"value":0.7559055118110236},{"number":64,"time":233.8770833333361,"value":0.7559055118110236},{"number":64,"time":233.96770833333608,"value":0.8503937007874016},{"number":64,"time":233.96875000000276,"value":0.8503937007874016},{"number":64,"time":235.34270833333613,"value":0.7559055118110236},{"number":64,"time":235.3437500000028,"value":0.7559055118110236},{"number":64,"time":235.3510416666695,"value":0.6614173228346457},{"number":64,"time":235.35208333333617,"value":0.6614173228346457},{"number":64,"time":235.35937500000284,"value":0.6141732283464567},{"number":64,"time":235.36041666666952,"value":0.6141732283464567},{"number":64,"time":235.36875000000285,"value":0.5748031496062992},{"number":64,"time":235.36979166666953,"value":0.5748031496062992},{"number":64,"time":235.38125000000286,"value":0.5275590551181102},{"number":64,"time":235.38229166666954,"value":0.5275590551181102},{"number":64,"time":235.3875000000029,"value":0.49606299212598426},{"number":64,"time":235.38854166666957,"value":0.49606299212598426},{"number":64,"time":235.39479166666956,"value":0.3779527559055118},{"number":64,"time":235.39479166666956,"value":0.3779527559055118},{"number":64,"time":235.4000000000029,"value":0.25196850393700787},{"number":64,"time":235.40104166666958,"value":0.25196850393700787},{"number":64,"time":235.48645833333626,"value":0.3779527559055118},{"number":64,"time":235.48750000000294,"value":0.3779527559055118},{"number":64,"time":235.49895833333628,"value":0.47244094488188976},{"number":64,"time":235.49895833333628,"value":0.47244094488188976},{"number":64,"time":235.5072916666696,"value":0.5039370078740157},{"number":64,"time":235.50833333333628,"value":0.5039370078740157},{"number":64,"time":235.5229166666696,"value":0.5354330708661418},{"number":64,"time":235.5229166666696,"value":0.5354330708661418},{"number":64,"time":235.54895833333626,"value":0.5669291338582677},{"number":64,"time":235.54895833333626,"value":0.5669291338582677},{"number":64,"time":235.57187500000293,"value":0.5984251968503937},{"number":64,"time":235.5729166666696,"value":0.5984251968503937},{"number":64,"time":235.58750000000296,"value":0.6299212598425197},{"number":64,"time":235.58854166666964,"value":0.6299212598425197},{"number":64,"time":235.62708333333632,"value":0.7322834645669292},{"number":64,"time":235.62708333333632,"value":0.7322834645669292},{"number":64,"time":235.7239583333363,"value":0.8267716535433071},{"number":64,"time":235.7239583333363,"value":0.8267716535433071},{"number":64,"time":237.09479166666966,"value":0.7086614173228346},{"number":64,"time":237.09583333333634,"value":0.7086614173228346},{"number":64,"time":237.1010416666697,"value":0.6535433070866141},{"number":64,"time":237.10208333333637,"value":0.6535433070866141},{"number":64,"time":237.10833333333636,"value":0.6141732283464567},{"number":64,"time":237.10937500000304,"value":0.6141732283464567},{"number":64,"time":237.11562500000306,"value":0.5748031496062992},{"number":64,"time":237.11666666666974,"value":0.5748031496062992},{"number":64,"time":237.12291666666974,"value":0.5275590551181102},{"number":64,"time":237.12395833333642,"value":0.5275590551181102},{"number":64,"time":237.12916666666976,"value":0.49606299212598426},{"number":64,"time":237.13020833333644,"value":0.49606299212598426},{"number":64,"time":237.13645833333644,"value":0.4015748031496063},{"number":64,"time":237.13645833333644,"value":0.4015748031496063},{"number":64,"time":237.14270833333643,"value":0.2992125984251969},{"number":64,"time":237.1437500000031,"value":0.2992125984251969},{"number":64,"time":237.15520833333645,"value":0.2047244094488189},{"number":64,"time":237.15625000000313,"value":0.2047244094488189},{"number":64,"time":237.24687500000312,"value":0.3543307086614173},{"number":64,"time":237.2479166666698,"value":0.3543307086614173},{"number":64,"time":237.25833333333645,"value":0.47244094488188976},{"number":64,"time":237.26041666666978,"value":0.47244094488188976},{"number":64,"time":237.27083333333644,"value":0.5118110236220472},{"number":64,"time":237.27187500000312,"value":0.5118110236220472},{"number":64,"time":237.28333333333646,"value":0.5433070866141733},{"number":64,"time":237.28333333333646,"value":0.5433070866141733},{"number":64,"time":237.30312500000312,"value":0.5748031496062992},{"number":64,"time":237.3041666666698,"value":0.5748031496062992},{"number":64,"time":237.3229166666698,"value":0.6062992125984252},{"number":64,"time":237.3239583333365,"value":0.6062992125984252},{"number":64,"time":237.33541666666983,"value":0.6377952755905512},{"number":64,"time":237.3364583333365,"value":0.6377952755905512},{"number":64,"time":237.36250000000317,"value":0.7322834645669292},{"number":64,"time":237.36354166666985,"value":0.7322834645669292},{"number":64,"time":237.4312500000032,"value":0.8267716535433071},{"number":64,"time":237.4312500000032,"value":0.8267716535433071},{"number":64,"time":238.8937500000032,"value":0.7086614173228346},{"number":64,"time":238.8937500000032,"value":0.7086614173228346},{"number":64,"time":238.89791666666986,"value":0.6535433070866141},{"number":64,"time":238.89895833333654,"value":0.6535433070866141},{"number":64,"time":238.90833333333654,"value":0.6062992125984252},{"number":64,"time":238.90937500000322,"value":0.6062992125984252},{"number":64,"time":238.91458333333657,"value":0.5669291338582677},{"number":64,"time":238.91562500000325,"value":0.5669291338582677},{"number":64,"time":238.92500000000325,"value":0.5118110236220472},{"number":64,"time":238.92500000000325,"value":0.5118110236220472},{"number":64,"time":238.92916666666991,"value":0.48031496062992124},{"number":64,"time":238.9302083333366,"value":0.48031496062992124},{"number":64,"time":238.93437500000326,"value":0.3543307086614173},{"number":64,"time":238.93541666666994,"value":0.3543307086614173},{"number":64,"time":238.94166666666993,"value":0.25196850393700787},{"number":64,"time":238.94166666666993,"value":0.25196850393700787},{"number":64,"time":238.95833333333658,"value":0.14960629921259844},{"number":64,"time":238.95937500000326,"value":0.14960629921259844},{"number":64,"time":239.03020833333662,"value":0.25196850393700787},{"number":64,"time":239.0312500000033,"value":0.25196850393700787},{"number":64,"time":239.04166666666995,"value":0.3779527559055118},{"number":64,"time":239.04166666666995,"value":0.3779527559055118},{"number":64,"time":239.05000000000328,"value":0.47244094488188976},{"number":64,"time":239.05104166666996,"value":0.47244094488188976},{"number":64,"time":239.0625000000033,"value":0.5039370078740157},{"number":64,"time":239.0625000000033,"value":0.5039370078740157},{"number":64,"time":239.0781250000033,"value":0.5354330708661418},{"number":64,"time":239.07916666666998,"value":0.5354330708661418},{"number":64,"time":239.11354166667,"value":0.5669291338582677},{"number":64,"time":239.11458333333667,"value":0.5669291338582677},{"number":64,"time":239.13750000000334,"value":0.5984251968503937},{"number":64,"time":239.13854166667002,"value":0.5984251968503937},{"number":64,"time":239.15416666667002,"value":0.6299212598425197},{"number":64,"time":239.15416666667002,"value":0.6299212598425197},{"number":64,"time":239.18958333333669,"value":0.7322834645669292},{"number":64,"time":239.19062500000337,"value":0.7322834645669292},{"number":64,"time":239.26979166667002,"value":0.8267716535433071},{"number":64,"time":239.26979166667002,"value":0.8267716535433071},{"number":64,"time":240.63229166666991,"value":0.7322834645669292},{"number":64,"time":240.6333333333366,"value":0.7322834645669292},{"number":64,"time":240.64062500000327,"value":0.6456692913385826},{"number":64,"time":240.64166666666995,"value":0.6456692913385826},{"number":64,"time":240.64895833333662,"value":0.5984251968503937},{"number":64,"time":240.6500000000033,"value":0.5984251968503937},{"number":64,"time":240.65729166666998,"value":0.5590551181102362},{"number":64,"time":240.65833333333666,"value":0.5590551181102362},{"number":64,"time":240.6677083333367,"value":0.5039370078740157},{"number":64,"time":240.66875000000337,"value":0.5039370078740157},{"number":64,"time":240.67500000000337,"value":0.4015748031496063},{"number":64,"time":240.67604166667005,"value":0.4015748031496063},{"number":64,"time":240.6812500000034,"value":0.2992125984251969},{"number":64,"time":240.68229166667007,"value":0.2992125984251969},{"number":64,"time":240.76145833333675,"value":0.4015748031496063},{"number":64,"time":240.76250000000343,"value":0.4015748031496063},{"number":64,"time":240.76875000000342,"value":0.47244094488188976},{"number":64,"time":240.76875000000342,"value":0.47244094488188976},{"number":64,"time":240.77708333333675,"value":0.5039370078740157},{"number":64,"time":240.77812500000343,"value":0.5039370078740157},{"number":64,"time":240.78958333333676,"value":0.5354330708661418},{"number":64,"time":240.78958333333676,"value":0.5354330708661418},{"number":64,"time":240.80520833333676,"value":0.5669291338582677},{"number":64,"time":240.80625000000344,"value":0.5669291338582677},{"number":64,"time":240.82083333333676,"value":0.5984251968503937},{"number":64,"time":240.82187500000344,"value":0.5984251968503937},{"number":64,"time":240.84062500000346,"value":0.6377952755905512},{"number":64,"time":240.84166666667014,"value":0.6377952755905512},{"number":64,"time":240.86979166667015,"value":0.7322834645669292},{"number":64,"time":240.87083333333683,"value":0.7322834645669292},{"number":64,"time":240.94479166667017,"value":0.8267716535433071},{"number":64,"time":240.94583333333685,"value":0.8267716535433071},{"number":64,"time":242.42916666667023,"value":0.7086614173228346},{"number":64,"time":242.42916666667023,"value":0.7086614173228346},{"number":64,"time":242.43229166667024,"value":0.6535433070866141},{"number":64,"time":242.43333333333692,"value":0.6535433070866141},{"number":64,"time":242.4406250000036,"value":0.6062992125984252},{"number":64,"time":242.4406250000036,"value":0.6062992125984252},{"number":64,"time":242.44791666667027,"value":0.5669291338582677},{"number":64,"time":242.44895833333695,"value":0.5669291338582677},{"number":64,"time":242.4531250000036,"value":0.5354330708661418},{"number":64,"time":242.4531250000036,"value":0.5354330708661418},{"number":64,"time":242.45729166667027,"value":0.5039370078740157},{"number":64,"time":242.45833333333695,"value":0.5039370078740157},{"number":64,"time":242.46250000000362,"value":0.47244094488188976},{"number":64,"time":242.4635416666703,"value":0.47244094488188976},{"number":64,"time":242.46770833333696,"value":0.3779527559055118},{"number":64,"time":242.46770833333696,"value":0.3779527559055118},{"number":64,"time":242.47395833333695,"value":0.25196850393700787},{"number":64,"time":242.47500000000363,"value":0.25196850393700787},{"number":64,"time":242.48020833333698,"value":0.14960629921259844},{"number":64,"time":242.48125000000366,"value":0.14960629921259844},{"number":64,"time":242.49583333333698,"value":0.05511811023622047},{"number":64,"time":242.49687500000366,"value":0.05511811023622047},{"number":64,"time":242.55625000000364,"value":0.18110236220472442},{"number":64,"time":242.55729166667032,"value":0.18110236220472442},{"number":64,"time":242.56875000000366,"value":0.33070866141732286},{"number":64,"time":242.56979166667034,"value":0.33070866141732286},{"number":64,"time":242.580208333337,"value":0.48031496062992124},{"number":64,"time":242.58125000000368,"value":0.48031496062992124},{"number":64,"time":242.58854166667035,"value":0.5118110236220472},{"number":64,"time":242.58854166667035,"value":0.5118110236220472},{"number":64,"time":242.60104166667034,"value":0.5511811023622047},{"number":64,"time":242.60208333333702,"value":0.5511811023622047},{"number":64,"time":242.6281250000037,"value":0.5905511811023622},{"number":64,"time":242.6281250000037,"value":0.5905511811023622},{"number":64,"time":242.65312500000368,"value":0.6220472440944882},{"number":64,"time":242.65312500000368,"value":0.6220472440944882},{"number":64,"time":242.6718750000037,"value":0.6535433070866141},{"number":64,"time":242.67291666667037,"value":0.6535433070866141},{"number":64,"time":242.7125000000037,"value":0.7795275590551181},{"number":64,"time":242.71354166667038,"value":0.7795275590551181},{"number":64,"time":242.8479166666704,"value":0.889763779527559},{"number":64,"time":242.84895833333707,"value":0.889763779527559},{"number":64,"time":244.1187500000037,"value":0.7559055118110236},{"number":64,"time":244.11979166667038,"value":0.7559055118110236},{"number":64,"time":244.1281250000037,"value":0.6377952755905512},{"number":64,"time":244.1281250000037,"value":0.6377952755905512},{"number":64,"time":244.13125000000372,"value":0.6062992125984252},{"number":64,"time":244.1322916666704,"value":0.6062992125984252},{"number":64,"time":244.13750000000374,"value":0.5748031496062992},{"number":64,"time":244.13750000000374,"value":0.5748031496062992},{"number":64,"time":244.14062500000375,"value":0.5433070866141733},{"number":64,"time":244.14166666667043,"value":0.5433070866141733},{"number":64,"time":244.1458333333371,"value":0.49606299212598426},{"number":64,"time":244.14687500000377,"value":0.49606299212598426},{"number":64,"time":244.15104166667044,"value":0.4015748031496063},{"number":64,"time":244.15208333333712,"value":0.4015748031496063},{"number":64,"time":244.15416666667045,"value":0.2992125984251969},{"number":64,"time":244.15520833333713,"value":0.2992125984251969},{"number":64,"time":244.1625000000038,"value":0.14960629921259844},{"number":64,"time":244.1625000000038,"value":0.14960629921259844},{"number":64,"time":244.1687500000038,"value":0.031496062992125984},{"number":64,"time":244.16979166667048,"value":0.031496062992125984},{"number":64,"time":244.17083333333716,"value":0},{"number":64,"time":244.17187500000384,"value":0},{"number":64,"time":244.25416666667053,"value":0.18110236220472442},{"number":64,"time":244.2552083333372,"value":0.18110236220472442},{"number":64,"time":244.26250000000388,"value":0.3779527559055118},{"number":64,"time":244.26250000000388,"value":0.3779527559055118},{"number":64,"time":244.26666666667055,"value":0.48031496062992124},{"number":64,"time":244.26770833333723,"value":0.48031496062992124},{"number":64,"time":244.2718750000039,"value":0.5196850393700787},{"number":64,"time":244.27291666667057,"value":0.5196850393700787},{"number":64,"time":244.2781250000039,"value":0.5669291338582677},{"number":64,"time":244.2791666666706,"value":0.5669291338582677},{"number":64,"time":244.2947916666706,"value":0.5984251968503937},{"number":64,"time":244.2947916666706,"value":0.5984251968503937},{"number":64,"time":244.30312500000392,"value":0.6299212598425197},{"number":64,"time":244.30312500000392,"value":0.6299212598425197},{"number":64,"time":244.32291666667058,"value":0.7322834645669292},{"number":64,"time":244.32395833333726,"value":0.7322834645669292},{"number":64,"time":244.35833333333727,"value":0.8267716535433071},{"number":64,"time":244.35937500000395,"value":0.8267716535433071},{"number":64,"time":244.69062500000393,"value":0.937007874015748},{"number":64,"time":244.69062500000393,"value":0.937007874015748},{"number":64,"time":244.70729166667059,"value":1},{"number":64,"time":244.70833333333727,"value":1},{"number":64,"time":245.94166666667056,"value":0.8503937007874016},{"number":64,"time":245.94270833333724,"value":0.8503937007874016},{"number":64,"time":245.9531250000039,"value":0.7086614173228346},{"number":64,"time":245.95416666667057,"value":0.7086614173228346},{"number":64,"time":245.96041666667057,"value":0.6535433070866141},{"number":64,"time":245.96041666667057,"value":0.6535433070866141},{"number":64,"time":245.96354166667058,"value":0.6220472440944882},{"number":64,"time":245.96354166667058,"value":0.6220472440944882},{"number":64,"time":245.97083333333725,"value":0.5748031496062992},{"number":64,"time":245.97187500000393,"value":0.5748031496062992},{"number":64,"time":245.9760416666706,"value":0.5433070866141733},{"number":64,"time":245.97708333333728,"value":0.5433070866141733},{"number":64,"time":245.98333333333727,"value":0.5039370078740157},{"number":64,"time":245.98437500000395,"value":0.5039370078740157},{"number":64,"time":245.99166666667062,"value":0.3543307086614173},{"number":64,"time":245.9927083333373,"value":0.3543307086614173},{"number":64,"time":245.996875000004,"value":0.25196850393700787},{"number":64,"time":245.99791666667068,"value":0.25196850393700787},{"number":64,"time":246.00208333333734,"value":0.14960629921259844},{"number":64,"time":246.00208333333734,"value":0.14960629921259844},{"number":64,"time":246.00833333333733,"value":0.031496062992125984},{"number":64,"time":246.009375000004,"value":0.031496062992125984},{"number":64,"time":246.01145833333734,"value":0},{"number":64,"time":246.01250000000402,"value":0},{"number":64,"time":246.06250000000404,"value":0.10236220472440945},{"number":64,"time":246.06250000000404,"value":0.10236220472440945},{"number":64,"time":246.0666666666707,"value":0.2047244094488189},{"number":64,"time":246.06770833333738,"value":0.2047244094488189},{"number":64,"time":246.0760416666707,"value":0.3779527559055118},{"number":64,"time":246.07708333333738,"value":0.3779527559055118},{"number":64,"time":246.08333333333738,"value":0.5039370078740157},{"number":64,"time":246.08437500000406,"value":0.5039370078740157},{"number":64,"time":246.0864583333374,"value":0.5354330708661418},{"number":64,"time":246.0864583333374,"value":0.5354330708661418},{"number":64,"time":246.09375000000406,"value":0.5748031496062992},{"number":64,"time":246.09479166667074,"value":0.5748031496062992},{"number":64,"time":246.1052083333374,"value":0.6062992125984252},{"number":64,"time":246.10625000000408,"value":0.6062992125984252},{"number":64,"time":246.11354166667076,"value":0.6377952755905512},{"number":64,"time":246.11458333333744,"value":0.6377952755905512},{"number":64,"time":246.12708333333742,"value":0.7322834645669292},{"number":64,"time":246.12708333333742,"value":0.7322834645669292},{"number":64,"time":246.14166666667077,"value":0.8267716535433071},{"number":64,"time":246.14270833333745,"value":0.8267716535433071},{"number":64,"time":246.35312500000416,"value":0.937007874015748},{"number":64,"time":246.35416666667084,"value":0.937007874015748},{"number":64,"time":246.4395833333375,"value":1},{"number":64,"time":246.4406250000042,"value":1},{"number":64,"time":247.7479166666709,"value":0.8661417322834646},{"number":64,"time":247.74895833333758,"value":0.8661417322834646},{"number":64,"time":247.76041666667092,"value":0.7559055118110236},{"number":64,"time":247.7614583333376,"value":0.7559055118110236},{"number":64,"time":247.76875000000427,"value":0.6456692913385826},{"number":64,"time":247.76979166667095,"value":0.6456692913385826},{"number":64,"time":247.77291666667097,"value":0.6141732283464567},{"number":64,"time":247.77395833333765,"value":0.6141732283464567},{"number":64,"time":247.78020833333764,"value":0.5669291338582677},{"number":64,"time":247.78125000000432,"value":0.5669291338582677},{"number":64,"time":247.78437500000433,"value":0.5354330708661418},{"number":64,"time":247.78437500000433,"value":0.5354330708661418},{"number":64,"time":247.79062500000433,"value":0.49606299212598426},{"number":64,"time":247.79062500000433,"value":0.49606299212598426},{"number":64,"time":247.79687500000432,"value":0.3543307086614173},{"number":64,"time":247.797916666671,"value":0.3543307086614173},{"number":64,"time":247.80000000000433,"value":0.25196850393700787},{"number":64,"time":247.801041666671,"value":0.25196850393700787},{"number":64,"time":247.80833333333769,"value":0.10236220472440945},{"number":64,"time":247.80937500000437,"value":0.10236220472440945},{"number":64,"time":247.847916666671,"value":0},{"number":64,"time":247.8489583333377,"value":0},{"number":64,"time":247.8645833333377,"value":0.10236220472440945},{"number":64,"time":247.86562500000437,"value":0.10236220472440945},{"number":64,"time":247.87291666667105,"value":0.2283464566929134},{"number":64,"time":247.87291666667105,"value":0.2283464566929134},{"number":64,"time":247.88020833333772,"value":0.3543307086614173},{"number":64,"time":247.8812500000044,"value":0.3543307086614173},{"number":64,"time":247.88854166667107,"value":0.48031496062992124},{"number":64,"time":247.88958333333775,"value":0.48031496062992124},{"number":64,"time":247.89270833333777,"value":0.5118110236220472},{"number":64,"time":247.89375000000445,"value":0.5118110236220472},{"number":64,"time":247.90104166667112,"value":0.5511811023622047},{"number":64,"time":247.90104166667112,"value":0.5511811023622047},{"number":64,"time":247.91250000000446,"value":0.5905511811023622},{"number":64,"time":247.91354166667114,"value":0.5905511811023622},{"number":64,"time":247.92500000000447,"value":0.6220472440944882},{"number":64,"time":247.92604166667115,"value":0.6220472440944882},{"number":64,"time":247.94479166667116,"value":0.7322834645669292},{"number":64,"time":247.94479166667116,"value":0.7322834645669292},{"number":64,"time":247.9843750000045,"value":0.8267716535433071},{"number":64,"time":247.9843750000045,"value":0.8267716535433071},{"number":64,"time":248.26458333333784,"value":0.937007874015748},{"number":64,"time":248.26562500000452,"value":0.937007874015748},{"number":64,"time":248.30416666667122,"value":1},{"number":64,"time":248.3052083333379,"value":1},{"number":64,"time":249.57500000000456,"value":0.8503937007874016},{"number":64,"time":249.57604166667124,"value":0.8503937007874016},{"number":64,"time":249.58750000000458,"value":0.7086614173228346},{"number":64,"time":249.58854166667126,"value":0.7086614173228346},{"number":64,"time":249.59166666667127,"value":0.6535433070866141},{"number":64,"time":249.59270833333795,"value":0.6535433070866141},{"number":64,"time":249.59687500000462,"value":0.6220472440944882},{"number":64,"time":249.5979166666713,"value":0.6220472440944882},{"number":64,"time":249.60208333333796,"value":0.5905511811023622},{"number":64,"time":249.60312500000464,"value":0.5905511811023622},{"number":64,"time":249.611458333338,"value":0.5275590551181102},{"number":64,"time":249.61250000000467,"value":0.5275590551181102},{"number":64,"time":249.61875000000467,"value":0.4881889763779528},{"number":64,"time":249.61875000000467,"value":0.4881889763779528},{"number":64,"time":249.61979166667135,"value":0.4015748031496063},{"number":64,"time":249.62083333333803,"value":0.4015748031496063},{"number":64,"time":249.6281250000047,"value":0.2992125984251969},{"number":64,"time":249.62916666667138,"value":0.2992125984251969},{"number":64,"time":249.63125000000474,"value":0.18110236220472442},{"number":64,"time":249.63125000000474,"value":0.18110236220472442},{"number":64,"time":249.6395833333381,"value":0},{"number":64,"time":249.64062500000477,"value":0},{"number":64,"time":249.71562500000476,"value":0.14960629921259844},{"number":64,"time":249.71666666667144,"value":0.14960629921259844},{"number":64,"time":249.7218750000048,"value":0.25196850393700787},{"number":64,"time":249.72291666667147,"value":0.25196850393700787},{"number":64,"time":249.7281250000048,"value":0.4251968503937008},{"number":64,"time":249.7291666666715,"value":0.4251968503937008},{"number":64,"time":249.73333333333815,"value":0.49606299212598426},{"number":64,"time":249.73437500000483,"value":0.49606299212598426},{"number":64,"time":249.73750000000484,"value":0.5275590551181102},{"number":64,"time":249.73854166667152,"value":0.5275590551181102},{"number":64,"time":249.74375000000487,"value":0.5669291338582677},{"number":64,"time":249.74479166667155,"value":0.5669291338582677},{"number":64,"time":249.75937500000487,"value":0.5984251968503937},{"number":64,"time":249.75937500000487,"value":0.5984251968503937},{"number":64,"time":249.7708333333382,"value":0.6299212598425197},{"number":64,"time":249.77187500000488,"value":0.6299212598425197},{"number":64,"time":249.79895833333822,"value":0.7322834645669292},{"number":64,"time":249.8000000000049,"value":0.7322834645669292},{"number":64,"time":249.83645833333821,"value":0.8267716535433071},{"number":64,"time":249.8375000000049,"value":0.8267716535433071},{"number":64,"time":250.10416666667157,"value":0.937007874015748},{"number":64,"time":250.10520833333825,"value":0.937007874015748},{"number":64,"time":250.15208333333825,"value":1},{"number":64,"time":250.15312500000493,"value":1},{"number":64,"time":251.34583333333816,"value":0.8661417322834646},{"number":64,"time":251.34687500000484,"value":0.8661417322834646},{"number":64,"time":251.35833333333818,"value":0.7559055118110236},{"number":64,"time":251.35937500000486,"value":0.7559055118110236},{"number":64,"time":251.3677083333382,"value":0.6377952755905512},{"number":64,"time":251.3677083333382,"value":0.6377952755905512},{"number":64,"time":251.37187500000485,"value":0.6062992125984252},{"number":64,"time":251.37291666667153,"value":0.6062992125984252},{"number":64,"time":251.37916666667152,"value":0.5511811023622047},{"number":64,"time":251.3802083333382,"value":0.5511811023622047},{"number":64,"time":251.38333333333821,"value":0.5039370078740157},{"number":64,"time":251.3843750000049,"value":0.5039370078740157},{"number":64,"time":251.39166666667157,"value":0.3543307086614173},{"number":64,"time":251.39270833333825,"value":0.3543307086614173},{"number":64,"time":251.3968750000049,"value":0.2283464566929134},{"number":64,"time":251.3979166666716,"value":0.2283464566929134},{"number":64,"time":251.4072916666716,"value":0.10236220472440945},{"number":64,"time":251.4072916666716,"value":0.10236220472440945},{"number":64,"time":251.41145833333826,"value":0},{"number":64,"time":251.41250000000494,"value":0},{"number":64,"time":251.49062500000494,"value":0.14960629921259844},{"number":64,"time":251.49166666667162,"value":0.14960629921259844},{"number":64,"time":251.49479166667163,"value":0.25196850393700787},{"number":64,"time":251.4958333333383,"value":0.25196850393700787},{"number":64,"time":251.5020833333383,"value":0.4015748031496063},{"number":64,"time":251.50312500000499,"value":0.4015748031496063},{"number":64,"time":251.50729166667165,"value":0.48031496062992124},{"number":64,"time":251.50729166667165,"value":0.48031496062992124},{"number":64,"time":251.512500000005,"value":0.5118110236220472},{"number":64,"time":251.51354166667167,"value":0.5118110236220472},{"number":64,"time":251.51979166667167,"value":0.5433070866141733},{"number":64,"time":251.52083333333835,"value":0.5433070866141733},{"number":64,"time":251.534375000005,"value":0.5748031496062992},{"number":64,"time":251.5354166666717,"value":0.5748031496062992},{"number":64,"time":251.5541666666717,"value":0.6062992125984252},{"number":64,"time":251.55520833333838,"value":0.6062992125984252},{"number":64,"time":251.5697916666717,"value":0.6377952755905512},{"number":64,"time":251.57083333333838,"value":0.6377952755905512},{"number":64,"time":251.5979166666717,"value":0.7559055118110236},{"number":64,"time":251.59895833333837,"value":0.7559055118110236},{"number":64,"time":251.63020833333837,"value":0.8503937007874016},{"number":64,"time":251.63020833333837,"value":0.8503937007874016},{"number":64,"time":251.9177083333384,"value":1},{"number":64,"time":251.91875000000508,"value":1},{"number":64,"time":253.16979166667176,"value":0.8503937007874016},{"number":64,"time":253.17083333333844,"value":0.8503937007874016},{"number":64,"time":253.18229166667177,"value":0.7559055118110236},{"number":64,"time":253.18229166667177,"value":0.7559055118110236},{"number":64,"time":253.1906250000051,"value":0.6456692913385826},{"number":64,"time":253.19166666667178,"value":0.6456692913385826},{"number":64,"time":253.19791666667177,"value":0.5984251968503937},{"number":64,"time":253.19895833333845,"value":0.5984251968503937},{"number":64,"time":253.20625000000513,"value":0.5590551181102362},{"number":64,"time":253.2072916666718,"value":0.5590551181102362},{"number":64,"time":253.21250000000515,"value":0.5275590551181102},{"number":64,"time":253.21354166667183,"value":0.5275590551181102},{"number":64,"time":253.22500000000517,"value":0.49606299212598426},{"number":64,"time":253.22604166667185,"value":0.49606299212598426},{"number":64,"time":253.23229166667184,"value":0.3779527559055118},{"number":64,"time":253.23333333333852,"value":0.3779527559055118},{"number":64,"time":253.23750000000518,"value":0.2755905511811024},{"number":64,"time":253.23854166667186,"value":0.2755905511811024},{"number":64,"time":253.28645833333857,"value":0.3779527559055118},{"number":64,"time":253.28750000000525,"value":0.3779527559055118},{"number":64,"time":253.2979166666719,"value":0.4881889763779528},{"number":64,"time":253.2989583333386,"value":0.4881889763779528},{"number":64,"time":253.30625000000526,"value":0.5275590551181102},{"number":64,"time":253.30729166667194,"value":0.5275590551181102},{"number":64,"time":253.31458333333862,"value":0.5590551181102362},{"number":64,"time":253.31458333333862,"value":0.5590551181102362},{"number":64,"time":253.33020833333862,"value":0.5984251968503937},{"number":64,"time":253.3312500000053,"value":0.5984251968503937},{"number":64,"time":253.34166666667195,"value":0.6299212598425197},{"number":64,"time":253.34270833333863,"value":0.6299212598425197},{"number":64,"time":253.35729166667195,"value":0.7559055118110236},{"number":64,"time":253.35833333333863,"value":0.7559055118110236},{"number":64,"time":253.38541666667197,"value":0.8503937007874016},{"number":64,"time":253.38645833333865,"value":0.8503937007874016},{"number":64,"time":253.68229166667194,"value":1},{"number":64,"time":253.68333333333862,"value":1},{"number":64,"time":254.9520833333386,"value":0.8503937007874016},{"number":64,"time":254.9520833333386,"value":0.8503937007874016},{"number":64,"time":254.9645833333386,"value":0.7322834645669292},{"number":64,"time":254.9645833333386,"value":0.7322834645669292},{"number":64,"time":254.97291666667192,"value":0.6299212598425197},{"number":64,"time":254.9739583333386,"value":0.6299212598425197},{"number":64,"time":254.9802083333386,"value":0.5826771653543307},{"number":64,"time":254.9802083333386,"value":0.5826771653543307},{"number":64,"time":254.98750000000527,"value":0.5196850393700787},{"number":64,"time":254.98854166667195,"value":0.5196850393700787},{"number":64,"time":254.9927083333386,"value":0.4881889763779528},{"number":64,"time":254.9937500000053,"value":0.4881889763779528},{"number":64,"time":255.0000000000053,"value":0.3543307086614173},{"number":64,"time":255.0000000000053,"value":0.3543307086614173},{"number":64,"time":255.01041666667194,"value":0.2283464566929134},{"number":64,"time":255.01145833333862,"value":0.2283464566929134},{"number":64,"time":255.06770833333863,"value":0.3543307086614173},{"number":64,"time":255.0687500000053,"value":0.3543307086614173},{"number":64,"time":255.08020833333865,"value":0.48031496062992124},{"number":64,"time":255.08125000000533,"value":0.48031496062992124},{"number":64,"time":255.08750000000532,"value":0.5196850393700787},{"number":64,"time":255.088541666672,"value":0.5196850393700787},{"number":64,"time":255.09583333333867,"value":0.5511811023622047},{"number":64,"time":255.09687500000535,"value":0.5511811023622047},{"number":64,"time":255.1083333333387,"value":0.5826771653543307},{"number":64,"time":255.10937500000537,"value":0.5826771653543307},{"number":64,"time":255.11979166667203,"value":0.6141732283464567},{"number":64,"time":255.1208333333387,"value":0.6141732283464567},{"number":64,"time":255.12812500000538,"value":0.6456692913385826},{"number":64,"time":255.12916666667206,"value":0.6456692913385826},{"number":64,"time":255.14375000000538,"value":0.7559055118110236},{"number":64,"time":255.14479166667206,"value":0.7559055118110236},{"number":64,"time":255.17604166667206,"value":0.8503937007874016},{"number":64,"time":255.17708333333874,"value":0.8503937007874016},{"number":64,"time":255.49166666667207,"value":1},{"number":64,"time":255.49270833333875,"value":1},{"number":64,"time":255.9000000000054,"value":0.8661417322834646},{"number":64,"time":255.9000000000054,"value":0.8661417322834646},{"number":64,"time":255.9250000000054,"value":0.7322834645669292},{"number":64,"time":255.9250000000054,"value":0.7322834645669292},{"number":64,"time":255.93645833333878,"value":0.6535433070866141},{"number":64,"time":255.93750000000546,"value":0.6535433070866141},{"number":64,"time":255.95312500000546,"value":0.6141732283464567},{"number":64,"time":255.95416666667214,"value":0.6141732283464567},{"number":64,"time":256.0041666666721,"value":0.6535433070866141},{"number":64,"time":256.00520833333877,"value":0.6535433070866141},{"number":64,"time":256.0239583333388,"value":0.7559055118110236},{"number":64,"time":256.0239583333388,"value":0.7559055118110236},{"number":64,"time":256.11250000000547,"value":0.8503937007874016},{"number":64,"time":256.11250000000547,"value":0.8503937007874016},{"number":64,"time":256.9114583333388,"value":0.7559055118110236},{"number":64,"time":256.9125000000055,"value":0.7559055118110236},{"number":64,"time":256.91979166667215,"value":0.6535433070866141},{"number":64,"time":256.9208333333388,"value":0.6535433070866141},{"number":64,"time":256.9312500000055,"value":0.6141732283464567},{"number":64,"time":256.93229166667214,"value":0.6141732283464567},{"number":64,"time":256.93854166667217,"value":0.5748031496062992},{"number":64,"time":256.93854166667217,"value":0.5748031496062992},{"number":64,"time":256.9447916666722,"value":0.5354330708661418},{"number":64,"time":256.94583333333884,"value":0.5354330708661418},{"number":64,"time":256.95208333333886,"value":0.4881889763779528},{"number":64,"time":256.9531250000055,"value":0.4881889763779528},{"number":64,"time":256.9604166666722,"value":0.4015748031496063},{"number":64,"time":256.9604166666722,"value":0.4015748031496063},{"number":64,"time":257.0156250000055,"value":0.47244094488188976},{"number":64,"time":257.0156250000055,"value":0.47244094488188976},{"number":64,"time":257.0281250000055,"value":0.5039370078740157},{"number":64,"time":257.02916666667215,"value":0.5039370078740157},{"number":64,"time":257.03854166667213,"value":0.5354330708661418},{"number":64,"time":257.0395833333388,"value":0.5354330708661418},{"number":64,"time":257.0552083333388,"value":0.5669291338582677},{"number":64,"time":257.05625000000543,"value":0.5669291338582677},{"number":64,"time":257.0791666666721,"value":0.5984251968503937},{"number":64,"time":257.08020833333876,"value":0.5984251968503937},{"number":64,"time":257.09895833333877,"value":0.6377952755905512},{"number":64,"time":257.1000000000054,"value":0.6377952755905512},{"number":64,"time":257.1437500000054,"value":0.7322834645669292},{"number":64,"time":257.14479166667206,"value":0.7322834645669292},{"number":64,"time":257.6989583333388,"value":0.8267716535433071},{"number":64,"time":257.70000000000545,"value":0.8267716535433071},{"number":64,"time":257.87500000000546,"value":0.937007874015748},{"number":64,"time":257.87500000000546,"value":0.937007874015748},{"number":64,"time":257.88750000000545,"value":1},{"number":64,"time":257.8885416666721,"value":1},{"number":64,"time":257.95520833333876,"value":0.8503937007874016},{"number":64,"time":257.9562500000054,"value":0.8503937007874016},{"number":64,"time":257.9750000000054,"value":0.7322834645669292},{"number":64,"time":257.9760416666721,"value":0.7322834645669292},{"number":64,"time":257.9875000000054,"value":0.6377952755905512},{"number":64,"time":257.98854166667206,"value":0.6377952755905512},{"number":64,"time":257.99583333333874,"value":0.6062992125984252},{"number":64,"time":257.99583333333874,"value":0.6062992125984252},{"number":64,"time":258.0031250000054,"value":0.5748031496062992},{"number":64,"time":258.00416666667206,"value":0.5748031496062992},{"number":64,"time":258.0156250000054,"value":0.5354330708661418},{"number":64,"time":258.0156250000054,"value":0.5354330708661418},{"number":64,"time":258.02708333333874,"value":0.5039370078740157},{"number":64,"time":258.0281250000054,"value":0.5039370078740157},{"number":64,"time":258.07500000000533,"value":0.5354330708661418},{"number":64,"time":258.076041666672,"value":0.5354330708661418},{"number":64,"time":258.09895833333866,"value":0.5669291338582677},{"number":64,"time":258.1000000000053,"value":0.5669291338582677},{"number":64,"time":258.122916666672,"value":0.5984251968503937},{"number":64,"time":258.122916666672,"value":0.5984251968503937},{"number":64,"time":258.15520833333863,"value":0.6299212598425197},{"number":64,"time":258.1562500000053,"value":0.6299212598425197},{"number":64,"time":258.2187500000053,"value":0.7322834645669292},{"number":64,"time":258.21979166667194,"value":0.7322834645669292},{"number":64,"time":258.5385416666719,"value":0.8267716535433071},{"number":64,"time":258.53958333333856,"value":0.8267716535433071},{"number":64,"time":258.7312500000052,"value":0.7322834645669292},{"number":64,"time":258.73229166667187,"value":0.7322834645669292},{"number":64,"time":258.74270833333856,"value":0.6456692913385826},{"number":64,"time":258.7437500000052,"value":0.6456692913385826},{"number":64,"time":258.7510416666719,"value":0.6062992125984252},{"number":64,"time":258.75208333333853,"value":0.6062992125984252},{"number":64,"time":258.76250000000516,"value":0.5748031496062992},{"number":64,"time":258.7635416666718,"value":0.5748031496062992},{"number":64,"time":258.77604166667186,"value":0.5433070866141733},{"number":64,"time":258.7770833333385,"value":0.5433070866141733},{"number":64,"time":258.8468750000052,"value":0.5826771653543307},{"number":64,"time":258.8468750000052,"value":0.5826771653543307},{"number":64,"time":258.8750000000052,"value":0.6220472440944882},{"number":64,"time":258.8760416666718,"value":0.6220472440944882},{"number":64,"time":258.9072916666718,"value":0.6535433070866141},{"number":64,"time":258.9083333333385,"value":0.6535433070866141},{"number":64,"time":258.9864583333385,"value":0.7559055118110236},{"number":64,"time":258.9875000000051,"value":0.7559055118110236},{"number":64,"time":259.9697916666718,"value":0.6614173228346457},{"number":64,"time":259.9697916666718,"value":0.6614173228346457},{"number":64,"time":259.9947916666718,"value":0.6299212598425197},{"number":64,"time":259.9947916666718,"value":0.6299212598425197},{"number":64,"time":260.0229166666718,"value":0.5984251968503937},{"number":64,"time":260.0229166666718,"value":0.5984251968503937},{"number":64,"time":260.0656250000051,"value":0.5669291338582677},{"number":64,"time":260.0666666666718,"value":0.5669291338582677},{"number":64,"time":260.0937500000051,"value":0.5354330708661418},{"number":64,"time":260.0937500000051,"value":0.5354330708661418},{"number":64,"time":260.1187500000051,"value":0.49606299212598426},{"number":64,"time":260.1187500000051,"value":0.49606299212598426},{"number":64,"time":260.2020833333384,"value":0.4015748031496063},{"number":64,"time":260.20312500000506,"value":0.4015748031496063},{"number":64,"time":260.3135416666717,"value":0.2992125984251969},{"number":64,"time":260.31458333333836,"value":0.2992125984251969},{"number":64,"time":260.37395833333835,"value":0.2047244094488189},{"number":64,"time":260.375000000005,"value":0.2047244094488189},{"number":64,"time":260.42604166667167,"value":0.10236220472440945},{"number":64,"time":260.4270833333383,"value":0.10236220472440945},{"number":64,"time":260.45416666667165,"value":0},{"number":64,"time":260.4552083333383,"value":0}]},"id":6,"name":"MIDI from piano","channelNumber":0,"isPercussion":false}]}