{"header":{"PPQ":480,"timeSignature":[4,4],"bpm":120,"name":""},"startTime":14.636458333333334,"duration":233.98750000000652,"tracks":[{"startTime":14.636458333333334,"duration":233.98750000000652,"length":632,"notes":[{"name":"F3","midi":53,"time":14.636458333333334,"velocity":0.2283464566929134,"duration":1.1760416666666806},{"name":"F5","midi":77,"time":14.661458333333334,"velocity":0.2677165354330709,"duration":0.3031250000000103},{"name":"A#4","midi":70,"time":14.670833333333336,"velocity":0.2283464566929134,"duration":0.30937500000000817},{"name":"C#5","midi":73,"time":14.681250000000004,"velocity":0.1889763779527559,"duration":0.28854166666667425},{"name":"A#4","midi":70,"time":15.691666666666679,"velocity":0.2992125984251969,"duration":0.4114583333333375},{"name":"C#5","midi":73,"time":15.723958333333346,"velocity":0.2992125984251969,"duration":0.41979166666666856},{"name":"C4","midi":60,"time":15.723958333333346,"velocity":0.33070866141732286,"duration":1.0822916666666735},{"name":"F5","midi":77,"time":15.753125000000013,"velocity":0.2204724409448819,"duration":0.3354166666666689},{"name":"A#4","midi":70,"time":16.747916666666683,"velocity":0.2755905511811024,"duration":0.23437500000000355},{"name":"C#5","midi":73,"time":16.769791666666684,"velocity":0.23622047244094488,"duration":0.21875000000000355},{"name":"F5","midi":77,"time":16.776041666666686,"velocity":0.2047244094488189,"duration":0.1927083333333357},{"name":"A#3","midi":58,"time":17.511458333333355,"velocity":0.3779527559055118,"duration":0.26041666666666785},{"name":"G#4","midi":68,"time":17.758333333333354,"velocity":0.28346456692913385,"duration":0.4427083333333286},{"name":"C4","midi":60,"time":17.758333333333354,"velocity":0.36220472440944884,"duration":1.9874999999999972},{"name":"F5","midi":77,"time":17.769791666666688,"velocity":0.2755905511811024,"duration":0.41354166666666003},{"name":"D#5","midi":75,"time":17.769791666666688,"velocity":0.3464566929133858,"duration":0.3874999999999922},{"name":"D#5","midi":75,"time":18.77395833333335,"velocity":0.2440944881889764,"duration":0.18333333333333357},{"name":"F5","midi":77,"time":18.77708333333335,"velocity":0.2047244094488189,"duration":0.169791666666665},{"name":"G#4","midi":68,"time":18.790625000000016,"velocity":0.2047244094488189,"duration":0.16979166666666856},{"name":"D#5","midi":75,"time":19.747916666666686,"velocity":0.2755905511811024,"duration":0.2562500000000014},{"name":"F5","midi":77,"time":19.770833333333353,"velocity":0.1968503937007874,"duration":0.1906250000000007},{"name":"G#4","midi":68,"time":19.77500000000002,"velocity":0.1732283464566929,"duration":0.22604166666666714},{"name":"F3","midi":53,"time":20.80937500000002,"velocity":0.3464566929133858,"duration":1.0447916666666615},{"name":"F#4","midi":66,"time":20.831250000000022,"velocity":0.2755905511811024,"duration":0.36458333333332504},{"name":"F5","midi":77,"time":20.860416666666687,"velocity":0.28346456692913385,"duration":0.31041666666666146},{"name":"A#4","midi":70,"time":20.861458333333353,"velocity":0.2677165354330709,"duration":0.306249999999995},{"name":"C#5","midi":73,"time":20.883333333333354,"velocity":0.2755905511811024,"duration":0.2968749999999929},{"name":"C4","midi":60,"time":21.806250000000013,"velocity":0.4015748031496063,"duration":1.0239583333333364},{"name":"F#4","midi":66,"time":21.846875000000015,"velocity":0.25984251968503935,"duration":0.4281250000000014},{"name":"A#4","midi":70,"time":21.863541666666684,"velocity":0.2755905511811024,"duration":0.41458333333333286},{"name":"C#5","midi":73,"time":21.879166666666684,"velocity":0.29133858267716534,"duration":0.39895833333333286},{"name":"F5","midi":77,"time":21.88125000000002,"velocity":0.23622047244094488,"duration":0.40208333333333},{"name":"F#4","midi":66,"time":22.839583333333348,"velocity":0.2047244094488189,"duration":0.3833333333333364},{"name":"F5","midi":77,"time":22.88229166666668,"velocity":0.2047244094488189,"duration":0.3489583333333357},{"name":"C#5","midi":73,"time":22.88958333333335,"velocity":0.23622047244094488,"duration":0.35104166666666714},{"name":"A#4","midi":70,"time":22.89270833333335,"velocity":0.2204724409448819,"duration":0.30416666666666714},{"name":"C#4","midi":61,"time":23.65520833333335,"velocity":0.3779527559055118,"duration":0.24374999999999858},{"name":"G#4","midi":68,"time":23.892708333333346,"velocity":0.33070866141732286,"duration":0.4354166666666579},{"name":"D#5","midi":75,"time":23.89479166666668,"velocity":0.3779527559055118,"duration":0.3854166666666572},{"name":"F5","midi":77,"time":23.905208333333345,"velocity":0.31496062992125984,"duration":0.3874999999999922},{"name":"C4","midi":60,"time":23.90625000000001,"velocity":0.2992125984251969,"duration":1.8812499999999979},{"name":"F5","midi":77,"time":24.88541666666667,"velocity":0.23622047244094488,"duration":0.252083333333335},{"name":"D#5","midi":75,"time":24.902083333333337,"velocity":0.2440944881889764,"duration":0.23229166666666856},{"name":"G#4","midi":68,"time":24.906250000000004,"velocity":0.1732283464566929,"duration":0.23750000000000426},{"name":"C5","midi":72,"time":24.91666666666667,"velocity":0.2440944881889764,"duration":0.21145833333333286},{"name":"G#4","midi":68,"time":25.892708333333342,"velocity":0.14173228346456693,"duration":0.30104166666666643},{"name":"C5","midi":72,"time":25.909375000000008,"velocity":0.2204724409448819,"duration":0.24062500000000142},{"name":"F5","midi":77,"time":25.923958333333342,"velocity":0.14173228346456693,"duration":0.24166666666666714},{"name":"D#5","midi":75,"time":25.951041666666676,"velocity":0.1889763779527559,"duration":0.20729166666666643},{"name":"F3","midi":53,"time":26.96458333333334,"velocity":0.3228346456692913,"duration":1.0041666666666629},{"name":"F5","midi":77,"time":26.971875000000008,"velocity":0.30708661417322836,"duration":0.34583333333333144},{"name":"C#5","midi":73,"time":26.97812500000001,"velocity":0.29133858267716534,"duration":0.3489583333333286},{"name":"A#4","midi":70,"time":26.982291666666676,"velocity":0.30708661417322836,"duration":0.40729166666666217},{"name":"C4","midi":60,"time":27.946875000000006,"velocity":0.4409448818897638,"duration":0.9989583333333272},{"name":"A#4","midi":70,"time":27.96041666666667,"velocity":0.2992125984251969,"duration":0.41770833333333},{"name":"C#5","midi":73,"time":27.965625000000003,"velocity":0.3937007874015748,"duration":0.4156249999999986},{"name":"F5","midi":77,"time":27.97916666666667,"velocity":0.2677165354330709,"duration":0.40208333333333},{"name":"F5","midi":77,"time":28.996875,"velocity":0.30708661417322836,"duration":0.361458333333335},{"name":"C#5","midi":73,"time":29.0125,"velocity":0.3464566929133858,"duration":0.35104166666666714},{"name":"A#4","midi":70,"time":29.01875,"velocity":0.2755905511811024,"duration":0.404166666666665},{"name":"C#4","midi":61,"time":29.454166666666666,"velocity":0.44881889763779526,"duration":0.6406249999999929},{"name":"D#4","midi":63,"time":30.015624999999996,"velocity":0.47244094488188976,"duration":1.39479166666667},{"name":"F#5","midi":78,"time":30.015624999999996,"velocity":0.3543307086614173,"duration":0.372916666666665},{"name":"A#4","midi":70,"time":30.030208333333327,"velocity":0.2677165354330709,"duration":0.3802083333333357},{"name":"D#5","midi":75,"time":30.034374999999994,"velocity":0.33858267716535434,"duration":0.3479166666666629},{"name":"C5","midi":72,"time":30.09791666666666,"velocity":0.1732283464566929,"duration":0.31562500000000426},{"name":"F#5","midi":78,"time":31.03333333333333,"velocity":0.2283464566929134,"duration":0.4145833333333364},{"name":"D#5","midi":75,"time":31.04583333333333,"velocity":0.2992125984251969,"duration":0.35312500000000213},{"name":"A#4","midi":70,"time":31.060416666666665,"velocity":0.2204724409448819,"duration":0.37291666666666856},{"name":"C5","midi":72,"time":31.083333333333332,"velocity":0.2047244094488189,"duration":0.3114583333333343},{"name":"C#4","midi":61,"time":31.50625,"velocity":0.3700787401574803,"duration":0.4875000000000007},{"name":"C4","midi":60,"time":31.96666666666667,"velocity":0.3228346456692913,"duration":0.46562499999999574},{"name":"D#5","midi":75,"time":31.98229166666667,"velocity":0.3779527559055118,"duration":0.3958333333333286},{"name":"F#5","midi":78,"time":32,"velocity":0.2755905511811024,"duration":0.40208333333333},{"name":"A#4","midi":70,"time":32.001041666666666,"velocity":0.29133858267716534,"duration":0.41874999999999574},{"name":"C5","midi":72,"time":32.010416666666664,"velocity":0.30708661417322836,"duration":0.3427083333333343},{"name":"A#3","midi":58,"time":32.41145833333333,"velocity":0.4409448818897638,"duration":0.5177083333333385},{"name":"C4","midi":60,"time":32.90208333333333,"velocity":0.33858267716535434,"duration":1.9468749999999986},{"name":"F#5","midi":78,"time":32.90833333333333,"velocity":0.31496062992125984,"duration":0.49166666666666003},{"name":"D#5","midi":75,"time":32.916666666666664,"velocity":0.36220472440944884,"duration":0.44895833333333},{"name":"C#5","midi":73,"time":32.920833333333334,"velocity":0.31496062992125984,"duration":0.4958333333333229},{"name":"A#4","midi":70,"time":32.928125,"velocity":0.2992125984251969,"duration":0.45624999999999005},{"name":"F#5","midi":78,"time":33.88124999999999,"velocity":0.2204724409448819,"duration":0.25312500000001137},{"name":"C#5","midi":73,"time":33.89583333333332,"velocity":0.2677165354330709,"duration":0.2187500000000071},{"name":"D#5","midi":75,"time":33.89687499999999,"velocity":0.28346456692913385,"duration":0.1822916666666714},{"name":"A#4","midi":70,"time":33.90312499999999,"velocity":0.2283464566929134,"duration":0.2177083333333414},{"name":"F#5","midi":78,"time":34.8375,"velocity":0.15748031496062992,"duration":0.3125},{"name":"A#4","midi":70,"time":34.84583333333333,"velocity":0.2755905511811024,"duration":0.34166666666666856},{"name":"D#5","midi":75,"time":34.853125,"velocity":0.28346456692913385,"duration":0.29479166666666856},{"name":"C#5","midi":73,"time":34.85520833333333,"velocity":0.25196850393700787,"duration":0.28854166666666714},{"name":"C#4","midi":61,"time":35.63125,"velocity":0.31496062992125984,"duration":0.18854166666666572},{"name":"F#5","midi":78,"time":35.86666666666667,"velocity":0.2992125984251969,"duration":0.28958333333333997},{"name":"D#5","midi":75,"time":35.87083333333334,"velocity":0.2992125984251969,"duration":0.29479166666666856},{"name":"C4","midi":60,"time":35.88020833333334,"velocity":0.2677165354330709,"duration":2.4322916666666643},{"name":"A4","midi":69,"time":35.913541666666674,"velocity":0.1732283464566929,"duration":0.30520833333333286},{"name":"C5","midi":72,"time":35.929166666666674,"velocity":0.1732283464566929,"duration":0.26145833333333},{"name":"F#5","midi":78,"time":36.89166666666667,"velocity":0.1968503937007874,"duration":0.16979166666666146},{"name":"D#5","midi":75,"time":36.90104166666667,"velocity":0.2755905511811024,"duration":0.16354166666666003},{"name":"A4","midi":69,"time":36.92604166666667,"velocity":0.1889763779527559,"duration":0.1979166666666643},{"name":"C5","midi":72,"time":36.98020833333334,"velocity":0.14960629921259844,"duration":0.06354166666666572},{"name":"D#5","midi":75,"time":38.02291666666667,"velocity":0.2440944881889764,"duration":0.25208333333333854},{"name":"F5","midi":77,"time":38.034375,"velocity":0.1732283464566929,"duration":0.22187500000000426},{"name":"A4","midi":69,"time":38.03854166666667,"velocity":0.07874015748031496,"duration":0.2239583333333357},{"name":"C5","midi":72,"time":38.053125,"velocity":0.18110236220472442,"duration":0.19687499999999858},{"name":"F4","midi":65,"time":39.34375000000001,"velocity":0.3228346456692913,"duration":1.9072916666666586},{"name":"F5","midi":77,"time":39.34583333333334,"velocity":0.3464566929133858,"duration":0.41458333333333286},{"name":"C#5","midi":73,"time":39.348958333333336,"velocity":0.36220472440944884,"duration":0.4583333333333357},{"name":"A#4","midi":70,"time":39.35729166666667,"velocity":0.3228346456692913,"duration":0.4281250000000014},{"name":"A#4","midi":70,"time":40.33958333333334,"velocity":0.2755905511811024,"duration":0.21562499999999574},{"name":"C#5","midi":73,"time":40.365625,"velocity":0.2755905511811024,"duration":0.15520833333333428},{"name":"F5","midi":77,"time":40.36979166666667,"velocity":0.2125984251968504,"duration":0.1666666666666643},{"name":"C#5","midi":73,"time":41.25,"velocity":0.33858267716535434,"duration":0.28854166666667425},{"name":"A#4","midi":70,"time":41.25625,"velocity":0.28346456692913385,"duration":0.26979166666667},{"name":"F5","midi":77,"time":41.270833333333336,"velocity":0.23622047244094488,"duration":0.2864583333333357},{"name":"C#4","midi":61,"time":41.94166666666667,"velocity":0.3543307086614173,"duration":0.24687499999999574},{"name":"C4","midi":60,"time":42.16770833333334,"velocity":0.3700787401574803,"duration":2.6187499999999986},{"name":"D#5","midi":75,"time":42.20104166666666,"velocity":0.33858267716535434,"duration":0.4208333333333272},{"name":"A#4","midi":70,"time":42.20625,"velocity":0.28346456692913385,"duration":0.4624999999999986},{"name":"F#5","midi":78,"time":42.209374999999994,"velocity":0.3464566929133858,"duration":0.4375},{"name":"C5","midi":72,"time":42.25937499999999,"velocity":0.1889763779527559,"duration":0.375},{"name":"F#5","midi":78,"time":43.12291666666666,"velocity":0.2204724409448819,"duration":0.24583333333333002},{"name":"D#5","midi":75,"time":43.133333333333326,"velocity":0.25196850393700787,"duration":0.20416666666666572},{"name":"A#4","midi":70,"time":43.13958333333333,"velocity":0.2440944881889764,"duration":0.25729166666666714},{"name":"C5","midi":72,"time":43.15104166666666,"velocity":0.2283464566929134,"duration":0.2083333333333357},{"name":"A#4","midi":70,"time":44.10520833333333,"velocity":0.2440944881889764,"duration":0.2927083333333371},{"name":"F#5","midi":78,"time":44.128125,"velocity":0.15748031496062992,"duration":0.23854166666666998},{"name":"D#5","midi":75,"time":44.13333333333333,"velocity":0.2204724409448819,"duration":0.24895833333333428},{"name":"C5","midi":72,"time":44.153125,"velocity":0.1968503937007874,"duration":0.22187499999999716},{"name":"F4","midi":65,"time":45.121875,"velocity":0.41732283464566927,"duration":1.9593750000000014},{"name":"A#4","midi":70,"time":45.134375,"velocity":0.33070866141732286,"duration":0.5770833333333343},{"name":"F5","midi":77,"time":45.141666666666666,"velocity":0.33070866141732286,"duration":0.5166666666666657},{"name":"C#5","midi":73,"time":45.145833333333336,"velocity":0.3858267716535433,"duration":0.5437499999999957},{"name":"C5","midi":72,"time":45.165625,"velocity":0.2992125984251969,"duration":0.51145833333333},{"name":"C#5","midi":73,"time":46.135416666666664,"velocity":0.36220472440944884,"duration":0.2656250000000071},{"name":"A#4","midi":70,"time":46.16458333333333,"velocity":0.2755905511811024,"duration":0.24791666666666856},{"name":"F5","midi":77,"time":46.192708333333336,"velocity":0.1968503937007874,"duration":0.19583333333333286},{"name":"F5","midi":77,"time":47.12291666666667,"velocity":0.23622047244094488,"duration":0.2645833333333343},{"name":"C#5","midi":73,"time":47.126041666666666,"velocity":0.2677165354330709,"duration":0.2614583333333371},{"name":"A#4","midi":70,"time":47.13125,"velocity":0.23622047244094488,"duration":0.26770833333333144},{"name":"C#4","midi":61,"time":47.903125,"velocity":0.31496062992125984,"duration":0.21249999999999858},{"name":"C4","midi":60,"time":48.14062499999999,"velocity":0.3464566929133858,"duration":2.2114583333333258},{"name":"F5","midi":77,"time":48.16145833333332,"velocity":0.25984251968503935,"duration":0.3489583333333286},{"name":"D#5","midi":75,"time":48.185416666666654,"velocity":0.29133858267716534,"duration":0.36249999999999716},{"name":"G#4","midi":68,"time":48.196874999999984,"velocity":0.2047244094488189,"duration":0.3916666666666657},{"name":"C5","midi":72,"time":48.20937499999999,"velocity":0.2204724409448819,"duration":0.32499999999999574},{"name":"D#5","midi":75,"time":49.14895833333332,"velocity":0.2992125984251969,"duration":0.18854166666666572},{"name":"F5","midi":77,"time":49.15312499999999,"velocity":0.1968503937007874,"duration":0.21458333333333002},{"name":"G#4","midi":68,"time":49.15520833333332,"velocity":0.2204724409448819,"duration":0.24687499999999574},{"name":"C5","midi":72,"time":49.169791666666654,"velocity":0.18110236220472442,"duration":0.1875},{"name":"D#5","midi":75,"time":50.156249999999986,"velocity":0.2125984251968504,"duration":0.29999999999999716},{"name":"F5","midi":77,"time":50.15729166666665,"velocity":0.18110236220472442,"duration":0.32395833333333},{"name":"G#4","midi":68,"time":50.15937499999998,"velocity":0.1732283464566929,"duration":0.27812500000000284},{"name":"C5","midi":72,"time":50.19166666666665,"velocity":0.18110236220472442,"duration":0.21145833333333997},{"name":"A#4","midi":70,"time":51.16458333333331,"velocity":0.3779527559055118,"duration":0.46145833333331154},{"name":"C#4","midi":61,"time":51.16770833333331,"velocity":0.4409448818897638,"duration":2.6989583333333087},{"name":"C#5","midi":73,"time":51.18020833333331,"velocity":0.3937007874015748,"duration":0.4802083333333087},{"name":"F4","midi":65,"time":51.190624999999976,"velocity":0.28346456692913385,"duration":0.4802083333333087},{"name":"A#4","midi":70,"time":52.14791666666662,"velocity":0.29133858267716534,"duration":0.22083333333333854},{"name":"C#5","midi":73,"time":52.16041666666662,"velocity":0.31496062992125984,"duration":0.23020833333333712},{"name":"F4","midi":65,"time":52.16874999999995,"velocity":0.1889763779527559,"duration":0.23750000000000426},{"name":"F4","midi":65,"time":53.174999999999955,"velocity":0.23622047244094488,"duration":0.25312499999999716},{"name":"C#5","midi":73,"time":53.18541666666662,"velocity":0.25984251968503935,"duration":0.27708333333333},{"name":"A#4","midi":70,"time":53.19374999999995,"velocity":0.23622047244094488,"duration":0.23645833333333144},{"name":"C4","midi":60,"time":53.969791666666616,"velocity":0.3228346456692913,"duration":0.3093749999999815},{"name":"D#5","midi":75,"time":54.21041666666661,"velocity":0.3700787401574803,"duration":0.39479166666664867},{"name":"F#4","midi":66,"time":54.21249999999994,"velocity":0.28346456692913385,"duration":0.4645833333333229},{"name":"C#4","midi":61,"time":54.21354166666661,"velocity":0.47244094488188976,"duration":2.7708333333333},{"name":"A#4","midi":70,"time":54.21562499999994,"velocity":0.31496062992125984,"duration":0.4468749999999915},{"name":"C#5","midi":73,"time":54.22187499999993,"velocity":0.33858267716535434,"duration":0.41874999999999574},{"name":"F#4","midi":66,"time":55.183333333333266,"velocity":0.2047244094488189,"duration":0.2614583333333229},{"name":"A#4","midi":70,"time":55.210416666666596,"velocity":0.2125984251968504,"duration":0.2187499999999929},{"name":"C#5","midi":73,"time":55.21249999999993,"velocity":0.25196850393700787,"duration":0.2354166666666586},{"name":"D#5","midi":75,"time":55.21458333333326,"velocity":0.2440944881889764,"duration":0.21666666666666146},{"name":"C#5","midi":73,"time":56.182291666666586,"velocity":0.2677165354330709,"duration":0.23645833333332433},{"name":"F#4","midi":66,"time":56.191666666666585,"velocity":0.2125984251968504,"duration":0.2302083333333229},{"name":"D#5","midi":75,"time":56.20104166666658,"velocity":0.29133858267716534,"duration":0.20729166666666288},{"name":"A#4","midi":70,"time":56.22604166666658,"velocity":0.2047244094488189,"duration":0.17291666666666572},{"name":"C4","midi":60,"time":56.95833333333324,"velocity":0.3937007874015748,"duration":0.27395833333331865},{"name":"A#4","midi":70,"time":57.22604166666656,"velocity":0.2755905511811024,"duration":0.37291666666666146},{"name":"A#3","midi":58,"time":57.227083333333226,"velocity":0.44881889763779526,"duration":2.0979166666666558},{"name":"D#5","midi":75,"time":57.23437499999989,"velocity":0.3464566929133858,"duration":0.37083333333333},{"name":"F5","midi":77,"time":57.236458333333225,"velocity":0.2755905511811024,"duration":0.3343749999999943},{"name":"C5","midi":72,"time":57.28437499999989,"velocity":0.2125984251968504,"duration":0.30833333333333},{"name":"D#5","midi":75,"time":58.22395833333322,"velocity":0.25984251968503935,"duration":0.23854166666666288},{"name":"A#4","midi":70,"time":58.23333333333322,"velocity":0.23622047244094488,"duration":0.19687499999999858},{"name":"C5","midi":72,"time":58.234374999999886,"velocity":0.2440944881889764,"duration":0.21145833333333286},{"name":"F5","midi":77,"time":58.23749999999988,"velocity":0.2047244094488189,"duration":0.21562500000000284},{"name":"A#4","midi":70,"time":59.20416666666655,"velocity":0.25196850393700787,"duration":0.30104166666667},{"name":"D#5","midi":75,"time":59.22083333333322,"velocity":0.2204724409448819,"duration":0.234375},{"name":"F5","midi":77,"time":59.23229166666655,"velocity":0.13385826771653545,"duration":0.25833333333333997},{"name":"C5","midi":72,"time":59.23854166666655,"velocity":0.1732283464566929,"duration":0.19479166666666714},{"name":"C4","midi":60,"time":59.90208333333322,"velocity":0.2440944881889764,"duration":0.2604166666666572},{"name":"A3","midi":57,"time":60.16458333333321,"velocity":0.29133858267716534,"duration":1.77187499999998},{"name":"D#5","midi":75,"time":60.16979166666654,"velocity":0.2755905511811024,"duration":0.33541666666665293},{"name":"A4","midi":69,"time":60.17291666666654,"velocity":0.2125984251968504,"duration":0.3187499999999872},{"name":"C5","midi":72,"time":60.197916666666536,"velocity":0.2204724409448819,"duration":0.27916666666666146},{"name":"F5","midi":77,"time":60.20312499999987,"velocity":0.1968503937007874,"duration":0.2770833333333229},{"name":"D#5","midi":75,"time":61.069791666666525,"velocity":0.25196850393700787,"duration":0.23229166666666146},{"name":"F5","midi":77,"time":61.10208333333319,"velocity":0.14960629921259844,"duration":0.1875},{"name":"A4","midi":69,"time":61.10937499999986,"velocity":0.13385826771653545,"duration":0.20520833333333144},{"name":"C5","midi":72,"time":61.11979166666652,"velocity":0.1732283464566929,"duration":0.171875},{"name":"D#5","midi":75,"time":62.04166666666652,"velocity":0.2755905511811024,"duration":0.28958333333333286},{"name":"A4","midi":69,"time":62.04895833333319,"velocity":0.1732283464566929,"duration":0.3187500000000014},{"name":"C5","midi":72,"time":62.07083333333319,"velocity":0.1732283464566929,"duration":0.22812499999999858},{"name":"F5","midi":77,"time":62.07812499999986,"velocity":0.18110236220472442,"duration":0.25},{"name":"A#3","midi":58,"time":62.53541666666652,"velocity":0.3858267716535433,"duration":0.25},{"name":"C4","midi":60,"time":62.731249999999854,"velocity":0.4015748031496063,"duration":0.298958333333303},{"name":"C#4","midi":61,"time":62.9729166666665,"velocity":0.48031496062992124,"duration":2.1593749999999474},{"name":"F5","midi":77,"time":62.983333333333164,"velocity":0.4251968503937008,"duration":0.41562499999997016},{"name":"F4","midi":65,"time":62.985416666666495,"velocity":0.3228346456692913,"duration":0.4322916666666359},{"name":"A#4","midi":70,"time":62.99166666666649,"velocity":0.4094488188976378,"duration":0.41458333333331154},{"name":"C#5","midi":73,"time":62.992708333333155,"velocity":0.47244094488188976,"duration":0.41041666666664867},{"name":"F5","midi":77,"time":63.93854166666647,"velocity":0.2755905511811024,"duration":0.24166666666666003},{"name":"A#4","midi":70,"time":63.94479166666647,"velocity":0.31496062992125984,"duration":0.22708333333333286},{"name":"F4","midi":65,"time":63.947916666666465,"velocity":0.1889763779527559,"duration":0.26249999999999574},{"name":"C#5","midi":73,"time":63.95104166666646,"velocity":0.33858267716535434,"duration":0.22500000000000142},{"name":"F4","midi":65,"time":64.87291666666646,"velocity":0.25196850393700787,"duration":0.26249999999998863},{"name":"A#4","midi":70,"time":64.87499999999979,"velocity":0.30708661417322836,"duration":0.2666666666666515},{"name":"F5","midi":77,"time":64.88437499999979,"velocity":0.29133858267716534,"duration":0.26458333333330586},{"name":"C#5","midi":73,"time":64.89062499999979,"velocity":0.3700787401574803,"duration":0.30520833333331154},{"name":"C4","midi":60,"time":65.6458333333331,"velocity":0.4015748031496063,"duration":0.27395833333332575},{"name":"C#4","midi":61,"time":65.8458333333331,"velocity":0.5905511811023622,"duration":2.4895833333332575},{"name":"D#5","midi":75,"time":65.89166666666644,"velocity":0.4566929133858268,"duration":0.46770833333332007},{"name":"F5","midi":77,"time":65.8927083333331,"velocity":0.3543307086614173,"duration":0.4593749999999943},{"name":"F#4","midi":66,"time":65.89479166666644,"velocity":0.33858267716535434,"duration":0.49270833333331154},{"name":"C#5","midi":73,"time":65.9083333333331,"velocity":0.4015748031496063,"duration":0.4854166666666373},{"name":"A#4","midi":70,"time":65.90937499999977,"velocity":0.3543307086614173,"duration":0.45624999999998295},{"name":"F#4","midi":66,"time":66.89895833333307,"velocity":0.2440944881889764,"duration":0.28437499999998295},{"name":"D#5","midi":75,"time":66.93437499999973,"velocity":0.2677165354330709,"duration":0.1989583333333229},{"name":"A#4","midi":70,"time":66.93749999999973,"velocity":0.2677165354330709,"duration":0.18541666666666856},{"name":"F5","midi":77,"time":66.9385416666664,"velocity":0.2204724409448819,"duration":0.19166666666666288},{"name":"C#5","midi":73,"time":66.98124999999973,"velocity":0.23622047244094488,"duration":0.04270833333333712},{"name":"F#4","midi":66,"time":67.95104166666638,"velocity":0.2677165354330709,"duration":0.33229166666664867},{"name":"A#4","midi":70,"time":67.97083333333305,"velocity":0.30708661417322836,"duration":0.23645833333331723},{"name":"D#5","midi":75,"time":67.99062499999971,"velocity":0.31496062992125984,"duration":0.24791666666665435},{"name":"C#5","midi":73,"time":67.9968749999997,"velocity":0.2755905511811024,"duration":0.25208333333333144},{"name":"F5","midi":77,"time":67.9999999999997,"velocity":0.1889763779527559,"duration":0.21562500000000284},{"name":"C4","midi":60,"time":68.69791666666636,"velocity":0.4251968503937008,"duration":0.2708333333333286},{"name":"A#3","midi":58,"time":68.9249999999997,"velocity":0.5039370078740157,"duration":2.29374999999996},{"name":"G#4","midi":68,"time":68.96666666666636,"velocity":0.44881889763779526,"duration":0.4270833333333144},{"name":"D#5","midi":75,"time":68.96979166666635,"velocity":0.4094488188976378,"duration":0.43541666666665435},{"name":"F5","midi":77,"time":68.97708333333301,"velocity":0.3543307086614173,"duration":0.45208333333332007},{"name":"A#4","midi":70,"time":68.97916666666634,"velocity":0.3543307086614173,"duration":0.45208333333332007},{"name":"C5","midi":72,"time":68.989583333333,"velocity":0.3700787401574803,"duration":0.4385416666666657},{"name":"G#4","midi":68,"time":69.92187499999966,"velocity":0.29133858267716534,"duration":0.2697916666666629},{"name":"A#4","midi":70,"time":69.93958333333299,"velocity":0.2992125984251969,"duration":0.23333333333333428},{"name":"C5","midi":72,"time":69.94583333333298,"velocity":0.2992125984251969,"duration":0.2229166666666771},{"name":"D#5","midi":75,"time":69.94895833333298,"velocity":0.2992125984251969,"duration":0.2083333333333428},{"name":"F5","midi":77,"time":69.96145833333298,"velocity":0.1889763779527559,"duration":0.19687500000000568},{"name":"G#4","midi":68,"time":70.89374999999966,"velocity":0.3779527559055118,"duration":0.27916666666666856},{"name":"A#4","midi":70,"time":70.90937499999966,"velocity":0.33070866141732286,"duration":0.20000000000000284},{"name":"D#5","midi":75,"time":70.91979166666633,"velocity":0.3464566929133858,"duration":0.21875},{"name":"C5","midi":72,"time":70.930208333333,"velocity":0.30708661417322836,"duration":0.19166666666666288},{"name":"F5","midi":77,"time":70.952083333333,"velocity":0.2204724409448819,"duration":0.1822916666666714},{"name":"C4","midi":60,"time":71.88020833333299,"velocity":0.4645669291338583,"duration":2.18437499999996},{"name":"D#5","midi":75,"time":71.90520833333298,"velocity":0.4094488188976378,"duration":0.4114583333333144},{"name":"F5","midi":77,"time":71.90624999999964,"velocity":0.3779527559055118,"duration":0.4177083333333087},{"name":"A4","midi":69,"time":71.90833333333298,"velocity":0.3228346456692913,"duration":0.4531249999999716},{"name":"F4","midi":65,"time":71.91979166666631,"velocity":0.23622047244094488,"duration":0.439583333333303},{"name":"C5","midi":72,"time":71.92187499999964,"velocity":0.44881889763779526,"duration":0.369791666666643},{"name":"F4","midi":65,"time":72.92083333333295,"velocity":0.2125984251968504,"duration":0.20729166666666288},{"name":"D#5","midi":75,"time":72.93541666666628,"velocity":0.2677165354330709,"duration":0.21249999999999147},{"name":"A4","midi":69,"time":72.94270833333294,"velocity":0.2440944881889764,"duration":0.203125},{"name":"C5","midi":72,"time":72.95520833333295,"velocity":0.2677165354330709,"duration":0.11875000000000568},{"name":"F5","midi":77,"time":72.96770833333295,"velocity":0.1889763779527559,"duration":0.12916666666666288},{"name":"D#5","midi":75,"time":74.01041666666627,"velocity":0.2440944881889764,"duration":0.25312499999999716},{"name":"F4","midi":65,"time":74.01354166666627,"velocity":0.18110236220472442,"duration":0.21458333333333712},{"name":"F5","midi":77,"time":74.03749999999961,"velocity":0.2047244094488189,"duration":0.16041666666666288},{"name":"A4","midi":69,"time":74.04062499999961,"velocity":0.1968503937007874,"duration":0.20937499999999432},{"name":"C5","midi":72,"time":74.05416666666628,"velocity":0.23622047244094488,"duration":0.12291666666666856},{"name":"A#3","midi":58,"time":75.36770833333294,"velocity":0.33070866141732286,"duration":2.011458333333323},{"name":"C#5","midi":73,"time":75.39270833333295,"velocity":0.36220472440944884,"duration":0.423958333333303},{"name":"F#4","midi":66,"time":75.43333333333295,"velocity":0.1889763779527559,"duration":0.38333333333329733},{"name":"C#5","midi":73,"time":76.40937499999959,"velocity":0.23622047244094488,"duration":0.1510416666666714},{"name":"F#4","midi":66,"time":76.43333333333293,"velocity":0.13385826771653545,"duration":0.18958333333333144},{"name":"C#5","midi":73,"time":77.37083333333293,"velocity":0.28346456692913385,"duration":0.2239583333333286},{"name":"F#4","midi":66,"time":77.38541666666626,"velocity":0.2047244094488189,"duration":0.22499999999999432},{"name":"G#3","midi":56,"time":78.1499999999996,"velocity":0.2755905511811024,"duration":0.2135416666666572},{"name":"A#3","midi":58,"time":78.32812499999959,"velocity":0.31496062992125984,"duration":2.1406249999999574},{"name":"A#4","midi":70,"time":78.38541666666623,"velocity":0.28346456692913385,"duration":0.3802083333333002},{"name":"C#5","midi":73,"time":78.41145833333289,"velocity":0.2677165354330709,"duration":0.37291666666664014},{"name":"F4","midi":65,"time":78.41979166666623,"velocity":0.1732283464566929,"duration":0.37395833333330586},{"name":"A#4","midi":70,"time":79.32499999999953,"velocity":0.2125984251968504,"duration":0.20520833333334565},{"name":"C#5","midi":73,"time":79.33749999999954,"velocity":0.2283464566929134,"duration":0.20625000000001137},{"name":"F4","midi":65,"time":79.36458333333287,"velocity":0.14173228346456693,"duration":0.17916666666667425},{"name":"A#4","midi":70,"time":80.32187499999955,"velocity":0.23622047244094488,"duration":0.23125000000000284},{"name":"C#5","midi":73,"time":80.32604166666621,"velocity":0.23622047244094488,"duration":0.24583333333333712},{"name":"F4","midi":65,"time":80.33749999999955,"velocity":0.14960629921259844,"duration":0.19062499999999716},{"name":"A#3","midi":58,"time":81.29895833333289,"velocity":0.3858267716535433,"duration":2.134374999999949},{"name":"F#5","midi":78,"time":81.3239583333329,"velocity":0.4094488188976378,"duration":0.4447916666666316},{"name":"A#4","midi":70,"time":81.35208333333289,"velocity":0.33070866141732286,"duration":0.432291666666643},{"name":"F#4","midi":66,"time":81.36249999999956,"velocity":0.25196850393700787,"duration":0.4687499999999716},{"name":"C#5","midi":73,"time":81.36562499999955,"velocity":0.36220472440944884,"duration":0.4343749999999744},{"name":"F#4","midi":66,"time":82.34895833333286,"velocity":0.2204724409448819,"duration":0.2406249999999801},{"name":"C#5","midi":73,"time":82.40312499999952,"velocity":0.2204724409448819,"duration":0.05937499999998863},{"name":"A#4","midi":70,"time":82.40937499999951,"velocity":0.2047244094488189,"duration":0.04791666666666572},{"name":"F#4","midi":66,"time":83.30520833333284,"velocity":0.2755905511811024,"duration":0.2604166666666572},{"name":"C#5","midi":73,"time":83.32395833333284,"velocity":0.25984251968503935,"duration":0.24374999999999147},{"name":"A#4","midi":70,"time":83.34895833333285,"velocity":0.2440944881889764,"duration":0.22604166666664582},{"name":"G#3","midi":56,"time":84.07499999999949,"velocity":0.3464566929133858,"duration":0.2593749999999915},{"name":"F3","midi":53,"time":84.3218749999995,"velocity":0.3464566929133858,"duration":2.99791666666664},{"name":"F5","midi":77,"time":84.32708333333282,"velocity":0.3543307086614173,"duration":0.33645833333331154},{"name":"C#5","midi":73,"time":84.33958333333281,"velocity":0.3700787401574803,"duration":0.3854166666666572},{"name":"A#4","midi":70,"time":84.36249999999947,"velocity":0.28346456692913385,"duration":0.36666666666666003},{"name":"C#5","midi":73,"time":85.29999999999947,"velocity":0.30708661417322836,"duration":0.16875000000000284},{"name":"A#4","midi":70,"time":85.31145833333281,"velocity":0.2125984251968504,"duration":0.22812500000000568},{"name":"A#4","midi":70,"time":86.26666666666615,"velocity":0.2125984251968504,"duration":0.171875},{"name":"C#5","midi":73,"time":86.26770833333282,"velocity":0.28346456692913385,"duration":0.17291666666666572},{"name":"F#3","midi":54,"time":87.26770833333282,"velocity":0.30708661417322836,"duration":2.0135416666666117},{"name":"A#4","midi":70,"time":87.26874999999949,"velocity":0.28346456692913385,"duration":0.3749999999999716},{"name":"D#5","midi":75,"time":87.28541666666615,"velocity":0.3779527559055118,"duration":0.377083333333303},{"name":"A#4","midi":70,"time":88.24583333333278,"velocity":0.23622047244094488,"duration":0.20729166666666288},{"name":"D#5","midi":75,"time":88.27291666666612,"velocity":0.2755905511811024,"duration":0.12708333333333144},{"name":"D#5","midi":75,"time":89.2572916666661,"velocity":0.3228346456692913,"duration":0.1562499999999858},{"name":"A#4","midi":70,"time":89.2604166666661,"velocity":0.23622047244094488,"duration":0.19374999999999432},{"name":"F3","midi":53,"time":90.0604166666661,"velocity":0.2755905511811024,"duration":0.1822916666666714},{"name":"F#3","midi":54,"time":90.24999999999943,"velocity":0.4094488188976378,"duration":1.9770833333333115},{"name":"D#5","midi":75,"time":90.2854166666661,"velocity":0.33858267716535434,"duration":0.3697916666666572},{"name":"C#5","midi":73,"time":90.28854166666609,"velocity":0.28346456692913385,"duration":0.3697916666666572},{"name":"A#4","midi":70,"time":90.31874999999943,"velocity":0.25984251968503935,"duration":0.3124999999999858},{"name":"A#4","midi":70,"time":91.21249999999941,"velocity":0.2283464566929134,"duration":0.21041666666667425},{"name":"C#5","midi":73,"time":91.22187499999941,"velocity":0.29133858267716534,"duration":0.14166666666666572},{"name":"D#5","midi":75,"time":91.23229166666609,"velocity":0.2992125984251969,"duration":0.125},{"name":"A#4","midi":70,"time":92.22916666666607,"velocity":0.2047244094488189,"duration":0.24791666666666856},{"name":"C#5","midi":73,"time":92.23333333333274,"velocity":0.28346456692913385,"duration":0.2447916666666714},{"name":"D#5","midi":75,"time":92.23645833333273,"velocity":0.25984251968503935,"duration":0.23020833333333712},{"name":"F3","midi":53,"time":93.00208333333275,"velocity":0.2755905511811024,"duration":0.2302083333333229},{"name":"D#3","midi":51,"time":93.2406249999994,"velocity":0.4094488188976378,"duration":2.9708333333332604},{"name":"D#5","midi":75,"time":93.24270833333273,"velocity":0.2992125984251969,"duration":0.35624999999998863},{"name":"C5","midi":72,"time":93.2593749999994,"velocity":0.25196850393700787,"duration":0.33541666666666003},{"name":"F#4","midi":66,"time":93.26041666666606,"velocity":0.2047244094488189,"duration":0.34687499999999716},{"name":"A#4","midi":70,"time":93.28541666666605,"velocity":0.2283464566929134,"duration":0.3291666666666657},{"name":"D#5","midi":75,"time":94.16770833333271,"velocity":0.2440944881889764,"duration":0.23333333333332007},{"name":"C5","midi":72,"time":94.18854166666604,"velocity":0.2125984251968504,"duration":0.171875},{"name":"A#4","midi":70,"time":94.1927083333327,"velocity":0.23622047244094488,"duration":0.18541666666666856},{"name":"F#4","midi":66,"time":94.1958333333327,"velocity":0.2047244094488189,"duration":0.20208333333333428},{"name":"A#4","midi":70,"time":95.1364583333327,"velocity":0.28346456692913385,"duration":0.22187499999999716},{"name":"C5","midi":72,"time":95.1489583333327,"velocity":0.25984251968503935,"duration":0.24062499999999432},{"name":"D#5","midi":75,"time":95.15312499999936,"velocity":0.25984251968503935,"duration":0.2708333333333286},{"name":"F#4","midi":66,"time":95.1708333333327,"velocity":0.2204724409448819,"duration":0.2718749999999943},{"name":"D#5","midi":75,"time":96.13020833333269,"velocity":0.29133858267716534,"duration":0.4177083333333087},{"name":"F3","midi":53,"time":96.14270833333268,"velocity":0.3779527559055118,"duration":2.0510416666666345},{"name":"C5","midi":72,"time":96.14687499999934,"velocity":0.3228346456692913,"duration":0.375},{"name":"F4","midi":65,"time":96.14999999999934,"velocity":0.2204724409448819,"duration":0.4166666666666572},{"name":"A4","midi":69,"time":96.14999999999934,"velocity":0.2440944881889764,"duration":0.3916666666666657},{"name":"C5","midi":72,"time":97.08645833333266,"velocity":0.29133858267716534,"duration":0.17916666666666003},{"name":"D#5","midi":75,"time":97.08854166666599,"velocity":0.30708661417322836,"duration":0.19999999999998863},{"name":"A4","midi":69,"time":97.09999999999933,"velocity":0.2204724409448819,"duration":0.21770833333332007},{"name":"F4","midi":65,"time":97.10729166666599,"velocity":0.2125984251968504,"duration":0.2708333333333286},{"name":"F4","midi":65,"time":98.10833333333265,"velocity":0.25196850393700787,"duration":0.2395833333333286},{"name":"D#5","midi":75,"time":98.11145833333265,"velocity":0.30708661417322836,"duration":0.24895833333333428},{"name":"A4","midi":69,"time":98.11562499999931,"velocity":0.2440944881889764,"duration":0.2802083333333343},{"name":"C5","midi":72,"time":98.11666666666598,"velocity":0.31496062992125984,"duration":0.4166666666666714},{"name":"F#4","midi":66,"time":99.17708333333265,"velocity":0.3700787401574803,"duration":0.5604166666666259},{"name":"A#4","midi":70,"time":99.18333333333264,"velocity":0.4094488188976378,"duration":0.49895833333329165},{"name":"F#3","midi":54,"time":99.18541666666597,"velocity":0.4881889763779528,"duration":2.23124999999996},{"name":"D#5","midi":75,"time":99.1874999999993,"velocity":0.4251968503937008,"duration":0.5354166666666345},{"name":"A#4","midi":70,"time":100.19166666666594,"velocity":0.30708661417322836,"duration":0.2145833333333229},{"name":"D#5","midi":75,"time":100.19374999999927,"velocity":0.30708661417322836,"duration":0.27291666666666003},{"name":"F#4","midi":66,"time":100.1958333333326,"velocity":0.28346456692913385,"duration":0.25729166666666003},{"name":"A#4","midi":70,"time":101.18437499999926,"velocity":0.2992125984251969,"duration":0.2979166666666657},{"name":"F#4","midi":66,"time":101.1864583333326,"velocity":0.2755905511811024,"duration":0.30937500000000284},{"name":"D#5","midi":75,"time":101.18854166666593,"velocity":0.29133858267716534,"duration":0.3500000000000085},{"name":"F3","midi":53,"time":102.03229166666594,"velocity":0.4409448818897638,"duration":0.2718749999999801},{"name":"F#3","midi":54,"time":102.25104166666593,"velocity":0.5433070866141733,"duration":2.0927083333333343},{"name":"C#5","midi":73,"time":102.29166666666593,"velocity":0.4645669291338583,"duration":0.4239583333333172},{"name":"D#5","midi":75,"time":102.2927083333326,"velocity":0.4015748031496063,"duration":0.44166666666664867},{"name":"F#4","midi":66,"time":102.29374999999926,"velocity":0.3543307086614173,"duration":0.46562499999998863},{"name":"A#4","midi":70,"time":102.30104166666592,"velocity":0.4015748031496063,"duration":0.4124999999999943},{"name":"D#5","midi":75,"time":103.26249999999925,"velocity":0.33858267716535434,"duration":0.2593750000000057},{"name":"F#4","midi":66,"time":103.27708333333258,"velocity":0.2755905511811024,"duration":0.2604166666666714},{"name":"A#4","midi":70,"time":103.28541666666592,"velocity":0.30708661417322836,"duration":0.22708333333332575},{"name":"C#5","midi":73,"time":103.28645833333259,"velocity":0.3464566929133858,"duration":0.21875},{"name":"F#4","midi":66,"time":104.29374999999925,"velocity":0.2755905511811024,"duration":0.23750000000001137},{"name":"D#5","midi":75,"time":104.29687499999925,"velocity":0.33070866141732286,"duration":0.16979166666668277},{"name":"C#5","midi":73,"time":104.30520833333259,"velocity":0.33858267716535434,"duration":0.2385416666666771},{"name":"A#4","midi":70,"time":104.31354166666593,"velocity":0.30708661417322836,"duration":0.08020833333333144},{"name":"F3","midi":53,"time":105.0770833333326,"velocity":0.4330708661417323,"duration":0.31145833333332007},{"name":"D#3","midi":51,"time":105.33749999999927,"velocity":0.5590551181102362,"duration":2.593749999999929},{"name":"D#5","midi":75,"time":105.3552083333326,"velocity":0.5275590551181102,"duration":0.4093749999999403},{"name":"F#4","midi":66,"time":105.36354166666592,"velocity":0.4330708661417323,"duration":0.4510416666666117},{"name":"A#4","midi":70,"time":105.37083333333258,"velocity":0.41732283464566927,"duration":0.35937499999995737},{"name":"C5","midi":72,"time":105.37812499999924,"velocity":0.41732283464566927,"duration":0.345833333333303},{"name":"F#4","midi":66,"time":106.33333333333253,"velocity":0.31496062992125984,"duration":0.23333333333333428},{"name":"A#4","midi":70,"time":106.33645833333253,"velocity":0.3700787401574803,"duration":0.1614583333333286},{"name":"D#5","midi":75,"time":106.34062499999919,"velocity":0.3464566929133858,"duration":0.21770833333333428},{"name":"C5","midi":72,"time":106.35104166666586,"velocity":0.3464566929133858,"duration":0.19374999999999432},{"name":"F#4","midi":66,"time":107.28645833333253,"velocity":0.36220472440944884,"duration":0.12395833333333428},{"name":"C5","midi":72,"time":107.29166666666586,"velocity":0.4015748031496063,"duration":0.09270833333333428},{"name":"D#5","midi":75,"time":107.30937499999919,"velocity":0.28346456692913385,"duration":0.06458333333333144},{"name":"A#4","midi":70,"time":107.31666666666585,"velocity":0.31496062992125984,"duration":0.039583333333339965},{"name":"F3","midi":53,"time":107.99166666666586,"velocity":0.44881889763779526,"duration":0.2447916666666714},{"name":"C3","midi":48,"time":108.26458333333254,"velocity":0.4645669291338583,"duration":2.1322916666665606},{"name":"D#5","midi":75,"time":108.30104166666587,"velocity":0.4330708661417323,"duration":0.3874999999999176},{"name":"C5","midi":72,"time":108.30416666666586,"velocity":0.5354330708661418,"duration":0.34479166666659467},{"name":"D#4","midi":63,"time":108.30937499999919,"velocity":0.25984251968503935,"duration":0.3874999999999176},{"name":"A4","midi":69,"time":108.31666666666585,"velocity":0.44881889763779526,"duration":0.3510416666666032},{"name":"F4","midi":65,"time":108.32187499999918,"velocity":0.44881889763779526,"duration":0.3718749999999318},{"name":"D#5","midi":75,"time":109.28749999999911,"velocity":0.44881889763779526,"duration":0.33124999999999716},{"name":"A4","midi":69,"time":109.29791666666578,"velocity":0.3937007874015748,"duration":0.33020833333333144},{"name":"D#4","midi":63,"time":109.31354166666578,"velocity":0.3700787401574803,"duration":0.26770833333333144},{"name":"C5","midi":72,"time":109.31562499999912,"velocity":0.4409448818897638,"duration":0.265625},{"name":"F4","midi":65,"time":109.34166666666579,"velocity":0.29133858267716534,"duration":0.2562499999999943},{"name":"D#5","midi":75,"time":110.30729166666578,"velocity":0.5039370078740157,"duration":0.5552083333333258},{"name":"A4","midi":69,"time":110.33541666666578,"velocity":0.4015748031496063,"duration":0.61666666666666},{"name":"D#4","midi":63,"time":110.33749999999911,"velocity":0.3700787401574803,"duration":0.48333333333332007},{"name":"C5","midi":72,"time":110.3437499999991,"velocity":0.48031496062992124,"duration":0.6229166666666686},{"name":"F4","midi":65,"time":110.3468749999991,"velocity":0.3543307086614173,"duration":0.484375},{"name":"A#3","midi":58,"time":111.6437499999991,"velocity":0.29133858267716534,"duration":3.3927083333332604},{"name":"F4","midi":65,"time":111.64895833333243,"velocity":0.33070866141732286,"duration":0.5718749999999773},{"name":"C#4","midi":61,"time":112.74479166666575,"velocity":0.30708661417322836,"duration":2.0635416666666515},{"name":"C5","midi":72,"time":112.77395833333242,"velocity":0.29133858267716534,"duration":1.058333333333323},{"name":"F4","midi":65,"time":112.79791666666574,"velocity":0.18110236220472442,"duration":1.8770833333333314},{"name":"A#4","midi":70,"time":114.71562499999906,"velocity":0.30708661417322836,"duration":0.16874999999998863},{"name":"G#3","midi":56,"time":114.92083333333238,"velocity":0.29133858267716534,"duration":2.071874999999949},{"name":"C5","midi":72,"time":114.97812499999904,"velocity":0.28346456692913385,"duration":2.2020833333332916},{"name":"D#4","midi":63,"time":115.806249999999,"velocity":0.1889763779527559,"duration":1.4385416666666657},{"name":"C4","midi":60,"time":115.80729166666566,"velocity":0.2677165354330709,"duration":1.3572916666666686},{"name":"F#3","midi":54,"time":117.868749999999,"velocity":0.29133858267716534,"duration":1.640625},{"name":"F4","midi":65,"time":117.87604166666566,"velocity":0.3779527559055118,"duration":0.8947916666666629},{"name":"C#4","midi":61,"time":118.73958333333232,"velocity":0.28346456692913385,"duration":1.78958333333334},{"name":"A#3","midi":58,"time":118.74270833333232,"velocity":0.3543307086614173,"duration":1.0802083333333456},{"name":"C5","midi":72,"time":118.74479166666565,"velocity":0.4881889763779528,"duration":0.9208333333333485},{"name":"C#5","midi":73,"time":120.37395833333233,"velocity":0.3937007874015748,"duration":0.17291666666666572},{"name":"G#3","midi":56,"time":120.56874999999899,"velocity":0.30708661417322836,"duration":2.0249999999999915},{"name":"C5","midi":72,"time":120.61874999999898,"velocity":0.31496062992125984,"duration":2.019791666666663},{"name":"D#4","midi":63,"time":121.46874999999898,"velocity":0.2440944881889764,"duration":1.7468750000000028},{"name":"C4","midi":60,"time":121.49999999999898,"velocity":0.1889763779527559,"duration":1.2093750000000085},{"name":"F4","midi":65,"time":123.5895833333323,"velocity":0.30708661417322836,"duration":2.4864583333333314},{"name":"A#3","midi":58,"time":123.6145833333323,"velocity":0.23622047244094488,"duration":1.703125},{"name":"C5","midi":72,"time":124.4333333333323,"velocity":0.5118110236220472,"duration":0.9375},{"name":"C#4","midi":61,"time":124.45520833333231,"velocity":0.3228346456692913,"duration":0.8958333333333286},{"name":"C#5","midi":73,"time":125.78437499999896,"velocity":0.4566929133858268,"duration":0.5281250000000028},{"name":"C4","midi":60,"time":126.24687499999897,"velocity":0.25984251968503935,"duration":2.03229166666668},{"name":"D#5","midi":75,"time":126.26562499999896,"velocity":0.5826771653543307,"duration":1.4906249999999943},{"name":"F#4","midi":66,"time":127.20104166666562,"velocity":0.25984251968503935,"duration":0.9802083333333371},{"name":"D#4","midi":63,"time":127.21041666666562,"velocity":0.33070866141732286,"duration":0.9749999999999943},{"name":"C#5","midi":73,"time":127.64791666666562,"velocity":0.4015748031496063,"duration":0.5354166666666629},{"name":"C5","midi":72,"time":128.0458333333323,"velocity":0.44881889763779526,"duration":0.3395833333333371},{"name":"A#4","midi":70,"time":128.4020833333323,"velocity":0.4645669291338583,"duration":0.4718750000000398},{"name":"F#3","midi":54,"time":128.82708333333235,"velocity":0.29133858267716534,"duration":1.6520833333334508},{"name":"C5","midi":72,"time":128.84583333333237,"velocity":0.4409448818897638,"duration":1.5156250000001137},{"name":"D#4","midi":63,"time":129.68854166666577,"velocity":0.28346456692913385,"duration":1.7604166666666856},{"name":"C4","midi":60,"time":129.69791666666578,"velocity":0.2992125984251969,"duration":0.950000000000017},{"name":"C#5","midi":73,"time":131.40833333333245,"velocity":0.33070866141732286,"duration":0.18645833333340533},{"name":"A3","midi":57,"time":131.60520833333254,"velocity":0.2755905511811024,"duration":2.0125000000001307},{"name":"C5","midi":72,"time":131.64270833333254,"velocity":0.33070866141732286,"duration":2.040625000000148},{"name":"D#4","midi":63,"time":132.5197916666659,"velocity":0.1889763779527559,"duration":1.1895833333334451},{"name":"F#4","midi":66,"time":132.54999999999922,"velocity":0.15748031496062992,"duration":1.3291666666667936},{"name":"C4","midi":60,"time":132.58020833333256,"velocity":0.12598425196850394,"duration":1.490625000000108},{"name":"A#3","midi":58,"time":134.8145833333327,"velocity":0.2440944881889764,"duration":1.779166666666839},{"name":"F5","midi":77,"time":134.83541666666605,"velocity":0.4330708661417323,"duration":2.6104166666668505},{"name":"F4","midi":65,"time":135.68749999999952,"velocity":0.23622047244094488,"duration":1.671875},{"name":"C#4","midi":61,"time":135.68958333333285,"velocity":0.30708661417322836,"duration":1.1250000000000284},{"name":"C#5","midi":73,"time":137.24687499999953,"velocity":0.3937007874015748,"duration":0.24895833333340533},{"name":"C4","midi":60,"time":137.4874999999996,"velocity":0.2440944881889764,"duration":1.8177083333335418},{"name":"C5","midi":72,"time":137.4937499999996,"velocity":0.3858267716535433,"duration":2.557291666666913},{"name":"G#4","midi":68,"time":138.3187499999998,"velocity":0.3464566929133858,"duration":0.26875000000001137},{"name":"D#4","midi":63,"time":138.3281249999998,"velocity":0.2992125984251969,"duration":0.9770833333333542},{"name":"F#4","midi":66,"time":139.21562499999982,"velocity":0.16535433070866143,"duration":0.15312500000001705},{"name":"F3","midi":53,"time":140.00833333333318,"velocity":0.2677165354330709,"duration":1.8239583333334792},{"name":"F5","midi":77,"time":140.02395833333318,"velocity":0.4645669291338583,"duration":2.675000000000182},{"name":"C#4","midi":61,"time":140.89583333333331,"velocity":0.2755905511811024,"duration":0.27812500000001705},{"name":"A#3","midi":58,"time":140.91145833333331,"velocity":0.33858267716535434,"duration":0.34583333333335986},{"name":"C#5","midi":73,"time":142.5,"velocity":0.4094488188976378,"duration":0.24062500000007958},{"name":"G#3","midi":56,"time":142.7145833333334,"velocity":0.2677165354330709,"duration":2.1593750000001535},{"name":"C5","midi":72,"time":142.73854166666675,"velocity":0.3779527559055118,"duration":2.698958333333536},{"name":"G#4","midi":68,"time":143.62187500000022,"velocity":0.2992125984251969,"duration":0.37187500000001705},{"name":"C4","midi":60,"time":143.62500000000023,"velocity":0.2755905511811024,"duration":1.8010416666667197},{"name":"F#4","midi":66,"time":144.49375000000023,"velocity":0.2283464566929134,"duration":0.37187499999998863},{"name":"A#3","midi":58,"time":145.37291666666692,"velocity":0.2992125984251969,"duration":2.685416666666839},{"name":"C#5","midi":73,"time":145.38437500000026,"velocity":0.4409448818897638,"duration":2.7083333333335133},{"name":"C#4","midi":61,"time":146.30625000000043,"velocity":0.28346456692913385,"duration":0.37187500000001705},{"name":"F4","midi":65,"time":146.32500000000044,"velocity":0.1732283464566929,"duration":0.27916666666666856},{"name":"C5","midi":72,"time":148.1072916666671,"velocity":0.3228346456692913,"duration":0.23125000000010232},{"name":"F#3","midi":54,"time":148.30520833333384,"velocity":0.3228346456692913,"duration":1.5416666666668561},{"name":"C#5","midi":73,"time":148.3447916666672,"velocity":0.3700787401574803,"duration":2.5270833333335077},{"name":"C#4","midi":61,"time":149.223958333334,"velocity":0.28346456692913385,"duration":0.4687500000000284},{"name":"A#3","midi":58,"time":149.23125000000067,"velocity":0.2755905511811024,"duration":0.779166666666697},{"name":"D#4","midi":63,"time":149.24479166666734,"velocity":0.23622047244094488,"duration":0.42291666666667993},{"name":"C5","midi":72,"time":150.82708333333403,"velocity":0.33858267716535434,"duration":0.27708333333339397},{"name":"F3","midi":53,"time":151.07812500000074,"velocity":0.2440944881889764,"duration":1.6479166666668732},{"name":"A#4","midi":70,"time":151.0864583333341,"velocity":0.4015748031496063,"duration":2.1114583333335304},{"name":"A#3","midi":58,"time":151.94687500000094,"velocity":0.23622047244094488,"duration":1.0343750000000114},{"name":"D#4","midi":63,"time":151.96250000000094,"velocity":0.29133858267716534,"duration":0.23958333333331439},{"name":"C4","midi":60,"time":151.99270833333426,"velocity":0.2283464566929134,"duration":0.31979166666667425},{"name":"C5","midi":72,"time":153.6208333333343,"velocity":0.36220472440944884,"duration":0.2781250000000455},{"name":"A4","midi":69,"time":153.881250000001,"velocity":0.4645669291338583,"duration":1.5750000000001023},{"name":"F3","midi":53,"time":153.893750000001,"velocity":0.30708661417322836,"duration":1.4281250000000796},{"name":"C4","midi":60,"time":154.76458333333443,"velocity":0.31496062992125984,"duration":0.7104166666666458},{"name":"D#4","midi":63,"time":154.7687500000011,"velocity":0.2204724409448819,"duration":0.4010416666666572},{"name":"A3","midi":57,"time":154.78125000000108,"velocity":0.2677165354330709,"duration":1.5374999999999943},{"name":"F#3","midi":54,"time":156.83333333333445,"velocity":0.3228346456692913,"duration":1.9406250000002103},{"name":"C#5","midi":73,"time":156.84895833333445,"velocity":0.5590551181102362,"duration":2.414583333333553},{"name":"C#4","midi":61,"time":157.772916666668,"velocity":0.4015748031496063,"duration":0.18020833333332575},{"name":"A#3","midi":58,"time":157.785416666668,"velocity":0.30708661417322836,"duration":0.26458333333332007},{"name":"C5","midi":72,"time":159.24687500000132,"velocity":0.4251968503937008,"duration":0.25416666666674814},{"name":"A#3","midi":58,"time":159.4343750000014,"velocity":0.3779527559055118,"duration":1.737500000000125},{"name":"C#5","midi":73,"time":159.46770833333474,"velocity":0.4645669291338583,"duration":2.4979166666667822},{"name":"D#4","midi":63,"time":160.37395833333488,"velocity":0.2992125984251969,"duration":0.10208333333332575},{"name":"C#4","midi":61,"time":160.38958333333488,"velocity":0.23622047244094488,"duration":0.24062499999999432},{"name":"C5","midi":72,"time":161.8260416666682,"velocity":0.4094488188976378,"duration":0.34375000000008527},{"name":"A#4","midi":70,"time":162.0989583333349,"velocity":0.4645669291338583,"duration":2.9083333333336157},{"name":"F3","midi":53,"time":162.11145833333492,"velocity":0.28346456692913385,"duration":1.3062500000001762},{"name":"A#3","midi":58,"time":162.9291666666684,"velocity":0.2283464566929134,"duration":0.8614583333333599},{"name":"D#4","midi":63,"time":162.95000000000175,"velocity":0.2125984251968504,"duration":0.42395833333335986},{"name":"C4","midi":60,"time":162.95937500000176,"velocity":0.2047244094488189,"duration":0.41354166666667425},{"name":"C5","midi":72,"time":164.95937500000178,"velocity":0.3700787401574803,"duration":2.1281250000002387},{"name":"F3","midi":53,"time":164.96979166666847,"velocity":0.18110236220472442,"duration":1.8843750000002046},{"name":"C4","midi":60,"time":165.8114583333353,"velocity":0.2204724409448819,"duration":0.31979166666670267},{"name":"A3","midi":57,"time":165.86354166666865,"velocity":0.1732283464566929,"duration":1.0666666666666913},{"name":"D#4","midi":63,"time":165.86666666666866,"velocity":0.1732283464566929,"duration":0.19062500000001137},{"name":"F#3","midi":54,"time":168.1947916666687,"velocity":0.23622047244094488,"duration":1.9197916666668675},{"name":"A#4","midi":70,"time":168.20312500000202,"velocity":0.3937007874015748,"duration":2.404166666666896},{"name":"A#3","midi":58,"time":169.12812500000214,"velocity":0.25984251968503935,"duration":1.005208333333428},{"name":"C#4","midi":61,"time":169.1333333333355,"velocity":0.28346456692913385,"duration":0.5479166666667084},{"name":"G#4","midi":68,"time":170.64270833333558,"velocity":0.3543307086614173,"duration":0.17291666666667993},{"name":"A#4","midi":70,"time":170.86354166666894,"velocity":0.29133858267716534,"duration":2.138541666666839},{"name":"A#3","midi":58,"time":170.88437500000228,"velocity":0.2755905511811024,"duration":1.8125000000001705},{"name":"F4","midi":65,"time":171.72604166666912,"velocity":0.25984251968503935,"duration":0.3062500000000057},{"name":"C#4","midi":61,"time":171.73645833333578,"velocity":0.1732283464566929,"duration":0.3958333333333428},{"name":"A#4","midi":70,"time":173.73020833333578,"velocity":0.4409448818897638,"duration":2.542708333333678},{"name":"F#3","midi":54,"time":173.7333333333358,"velocity":0.2440944881889764,"duration":1.2906250000001762},{"name":"A#3","midi":58,"time":174.55625000000262,"velocity":0.28346456692913385,"duration":0.5739583333333655},{"name":"C#4","midi":61,"time":174.55937500000263,"velocity":0.2755905511811024,"duration":0.32916666666667993},{"name":"G#4","midi":68,"time":175.96354166666933,"velocity":0.3543307086614173,"duration":0.24166666666670267},{"name":"A#3","midi":58,"time":176.2229166666694,"velocity":0.2677165354330709,"duration":1.5583333333336213},{"name":"F4","midi":65,"time":176.25312500000277,"velocity":0.3543307086614173,"duration":2.2479166666669244},{"name":"C#4","midi":61,"time":177.05000000000297,"velocity":0.2283464566929134,"duration":0.2177083333333485},{"name":"C4","midi":60,"time":177.08854166666964,"velocity":0.18110236220472442,"duration":0.18125000000000568},{"name":"F#4","midi":66,"time":179.28854166666972,"velocity":0.41732283464566927,"duration":2.3072916666669414},{"name":"D#3","midi":51,"time":179.2895833333364,"velocity":0.2440944881889764,"duration":2.551041666667004},{"name":"A#3","midi":58,"time":180.10833333333667,"velocity":0.3228346456692913,"duration":0.17499999999998295},{"name":"F#3","midi":54,"time":180.11666666667,"velocity":0.2283464566929134,"duration":0.16249999999999432},{"name":"F4","midi":65,"time":181.57395833333666,"velocity":0.28346456692913385,"duration":0.2322916666667254},{"name":"C#3","midi":49,"time":181.79895833333669,"velocity":0.25984251968503935,"duration":1.5687500000001648},{"name":"F#4","midi":66,"time":181.8052083333367,"velocity":0.3937007874015748,"duration":2.460416666666788},{"name":"F#3","midi":54,"time":182.64791666667017,"velocity":0.23622047244094488,"duration":0.47604166666667425},{"name":"A#3","midi":58,"time":182.6500000000035,"velocity":0.25984251968503935,"duration":0.2395833333333428},{"name":"F4","midi":65,"time":184.17916666667017,"velocity":0.2677165354330709,"duration":0.30312500000002274},{"name":"D#4","midi":63,"time":184.4656250000035,"velocity":0.4015748031496063,"duration":2.4375000000001705},{"name":"C3","midi":48,"time":184.47708333333685,"velocity":0.1889763779527559,"duration":1.4875000000001535},{"name":"F#3","midi":54,"time":185.25729166667034,"velocity":0.18110236220472442,"duration":0.3020833333333428},{"name":"A#3","midi":58,"time":185.27604166667035,"velocity":0.2440944881889764,"duration":0.171875},{"name":"F4","midi":65,"time":186.792708333337,"velocity":0.2677165354330709,"duration":0.21979166666679362},{"name":"C4","midi":60,"time":187.03854166667045,"velocity":0.33858267716535434,"duration":2.294791666666839},{"name":"F3","midi":53,"time":187.05000000000382,"velocity":0.2125984251968504,"duration":1.3614583333334735},{"name":"D#4","midi":63,"time":187.83125000000396,"velocity":0.28346456692913385,"duration":0.13437500000000568},{"name":"A3","midi":57,"time":187.83229166667064,"velocity":0.2047244094488189,"duration":0.22604166666664582},{"name":"D#4","midi":63,"time":189.11562500000397,"velocity":0.4409448818897638,"duration":0.26874999999998295},{"name":"F4","midi":65,"time":189.3364583333373,"velocity":0.4409448818897638,"duration":0.30312500000005116},{"name":"D#3","midi":51,"time":189.54479166667068,"velocity":0.33070866141732286,"duration":2.6854166666669244},{"name":"F#4","midi":66,"time":189.60520833333734,"velocity":0.5118110236220472,"duration":2.3531250000002046},{"name":"A#3","midi":58,"time":190.41145833333755,"velocity":0.2125984251968504,"duration":0.21041666666667425},{"name":"F#3","midi":54,"time":190.45833333333755,"velocity":0.2440944881889764,"duration":0.234375},{"name":"F4","midi":65,"time":191.9625000000042,"velocity":0.3464566929133858,"duration":0.18333333333333712},{"name":"C#3","midi":49,"time":192.1343750000042,"velocity":0.3464566929133858,"duration":1.305208333333411},{"name":"F#4","midi":66,"time":192.1541666666709,"velocity":0.4409448818897638,"duration":2.5364583333333712},{"name":"A#3","midi":58,"time":192.98854166667095,"velocity":0.2283464566929134,"duration":0.5635416666666515},{"name":"F#3","midi":54,"time":193.01145833333763,"velocity":0.2440944881889764,"duration":0.9718749999999545},{"name":"F4","midi":65,"time":194.50104166667091,"velocity":0.3228346456692913,"duration":0.258333333333411},{"name":"D#4","midi":63,"time":194.73854166667098,"velocity":0.5275590551181102,"duration":1.8447916666667652},{"name":"C3","midi":48,"time":194.76666666667103,"velocity":0.2204724409448819,"duration":1.1302083333333997},{"name":"F#3","midi":54,"time":195.5572916666711,"velocity":0.33070866141732286,"duration":0.46666666666666856},{"name":"A#3","midi":58,"time":195.5604166666711,"velocity":0.33070866141732286,"duration":1.1145833333333144},{"name":"F4","midi":65,"time":197.4302083333378,"velocity":0.48031496062992124,"duration":1.7291666666667993},{"name":"F3","midi":53,"time":197.44166666667113,"velocity":0.3464566929133858,"duration":1.1875000000001137},{"name":"C4","midi":60,"time":198.26562500000458,"velocity":0.25984251968503935,"duration":0.3864583333333371},{"name":"D#4","midi":63,"time":198.2739583333379,"velocity":0.28346456692913385,"duration":0.09791666666666288},{"name":"A3","midi":57,"time":198.28854166667122,"velocity":0.23622047244094488,"duration":0.45520833333335986},{"name":"A#2","midi":46,"time":200.28854166667134,"velocity":0.44881889763779526,"duration":1.1989583333334224},{"name":"C5","midi":72,"time":200.30104166667132,"velocity":0.6299212598425197,"duration":2.618750000000091},{"name":"C#3","midi":49,"time":201.10625000000476,"velocity":0.30708661417322836,"duration":0.43437499999998863},{"name":"C4","midi":60,"time":201.1458333333381,"velocity":0.2047244094488189,"duration":0.20416666666667993},{"name":"F3","midi":53,"time":201.1552083333381,"velocity":0.1889763779527559,"duration":0.0625},{"name":"D#3","midi":51,"time":202.84166666667141,"velocity":0.3858267716535433,"duration":1.6000000000000796},{"name":"C#5","midi":73,"time":202.85208333333807,"velocity":0.6377952755905512,"duration":1.8479166666667481},{"name":"A#3","midi":58,"time":203.59375000000483,"velocity":0.2677165354330709,"duration":0.21145833333335418},{"name":"C#4","midi":61,"time":203.59687500000484,"velocity":0.4251968503937008,"duration":0.26770833333333144},{"name":"F#3","midi":54,"time":203.59791666667152,"velocity":0.2992125984251969,"duration":0.2291666666666572},{"name":"A#2","midi":46,"time":205.40520833333815,"velocity":0.4330708661417323,"duration":1.2666666666668789},{"name":"C5","midi":72,"time":205.40729166667148,"velocity":0.6141732283464567,"duration":1.465625000000216},{"name":"F3","midi":53,"time":206.1822916666717,"velocity":0.3543307086614173,"duration":0.18854166666667993},{"name":"C#3","midi":49,"time":206.18437500000502,"velocity":0.4015748031496063,"duration":0.6604166666666913},{"name":"C4","midi":60,"time":206.1916666666717,"velocity":0.4330708661417323,"duration":0.32500000000001705},{"name":"D#5","midi":75,"time":207.90000000000506,"velocity":0.6456692913385826,"duration":2.5864583333334963},{"name":"C3","midi":48,"time":207.9281250000051,"velocity":0.4094488188976378,"duration":1.5416666666667709},{"name":"A#3","midi":58,"time":208.7031250000052,"velocity":0.31496062992125984,"duration":0.3385416666666856},{"name":"F#3","midi":54,"time":208.71354166667186,"velocity":0.4645669291338583,"duration":0.41770833333336554},{"name":"D#4","midi":63,"time":208.72083333333853,"velocity":0.4645669291338583,"duration":0.26666666666667993},{"name":"C4","midi":60,"time":208.72395833333854,"velocity":0.3228346456692913,"duration":0.26770833333333144},{"name":"C#3","midi":49,"time":210.48020833333857,"velocity":0.4881889763779528,"duration":2.5614583333334906},{"name":"F5","midi":77,"time":210.49479166667192,"velocity":0.5984251968503937,"duration":2.3114583333334338},{"name":"A#3","midi":58,"time":211.3020833333387,"velocity":0.3858267716535433,"duration":0.08229166666666288},{"name":"F3","midi":53,"time":211.31458333333867,"velocity":0.30708661417322836,"duration":0.17291666666667993},{"name":"F4","midi":65,"time":211.31562500000535,"velocity":0.3779527559055118,"duration":0.14479166666666288},{"name":"D#5","midi":75,"time":212.7802083333387,"velocity":0.5826771653543307,"duration":0.2822916666667368},{"name":"D#3","midi":51,"time":212.99583333333868,"velocity":0.44881889763779526,"duration":2.3979166666670153},{"name":"F5","midi":77,"time":213.02604166667203,"velocity":0.5984251968503937,"duration":2.1947916666669585},{"name":"A#3","midi":58,"time":213.7843750000056,"velocity":0.2992125984251969,"duration":0.14166666666667993},{"name":"F#3","midi":54,"time":213.79583333333895,"velocity":0.30708661417322836,"duration":0.24687500000001705},{"name":"F4","midi":65,"time":213.79583333333895,"velocity":0.3779527559055118,"duration":0.27187500000002274},{"name":"D#5","midi":75,"time":215.18020833333898,"velocity":0.6141732283464567,"duration":0.271875000000108},{"name":"C3","midi":48,"time":215.40208333333905,"velocity":0.4094488188976378,"duration":1.769791666666805},{"name":"F5","midi":77,"time":215.42083333333906,"velocity":0.5984251968503937,"duration":4.248958333333576},{"name":"F#3","midi":54,"time":216.2020833333392,"velocity":0.3464566929133858,"duration":0.19479166666667425},{"name":"A#3","midi":58,"time":216.22187500000587,"velocity":0.3543307086614173,"duration":0.19895833333333712},{"name":"D#3","midi":51,"time":216.22291666667255,"velocity":0.3779527559055118,"duration":0.3135416666666515},{"name":"C3","midi":48,"time":218.04791666667253,"velocity":0.23622047244094488,"duration":1.0979166666667766},{"name":"D#3","midi":51,"time":218.84062500000596,"velocity":0.1732283464566929,"duration":0.4625000000000057},{"name":"A3","midi":57,"time":218.84166666667264,"velocity":0.1889763779527559,"duration":0.21666666666666856},{"name":"F3","midi":53,"time":218.9083333333393,"velocity":0.16535433070866143,"duration":0.22812500000000568},{"name":"D#5","midi":75,"time":220.4583333333393,"velocity":0.3464566929133858,"duration":0.1979166666666572},{"name":"C#3","midi":49,"time":220.68541666667267,"velocity":0.3464566929133858,"duration":1.7333333333334622},{"name":"F5","midi":77,"time":220.71041666667267,"velocity":0.3543307086614173,"duration":1.8187500000001364},{"name":"A#3","midi":58,"time":221.62916666667277,"velocity":0.1968503937007874,"duration":0.2281250000000341},{"name":"F4","midi":65,"time":221.64791666667278,"velocity":0.1889763779527559,"duration":0.3541666666666856},{"name":"F3","midi":53,"time":221.68020833333946,"velocity":0.18110236220472442,"duration":0.2614583333333371},{"name":"D#5","midi":75,"time":223.1822916666728,"velocity":0.3858267716535433,"duration":0.22604166666670267},{"name":"D#3","midi":51,"time":223.42916666667284,"velocity":0.3228346456692913,"duration":1.8635416666667481},{"name":"F5","midi":77,"time":223.4437500000062,"velocity":0.3543307086614173,"duration":1.7343750000000568},{"name":"A#3","midi":58,"time":224.28750000000628,"velocity":0.23622047244094488,"duration":0.24791666666666856},{"name":"F#3","midi":54,"time":224.2989583333396,"velocity":0.2440944881889764,"duration":0.31145833333332007},{"name":"F4","midi":65,"time":224.3145833333396,"velocity":0.2204724409448819,"duration":0.33749999999997726},{"name":"D#5","midi":75,"time":226.03437500000626,"velocity":0.3937007874015748,"duration":0.2708333333333428},{"name":"C3","midi":48,"time":226.31875000000628,"velocity":0.2992125984251969,"duration":1.8906250000001705},{"name":"F5","midi":77,"time":226.32395833333962,"velocity":0.3543307086614173,"duration":6.548958333333559},{"name":"A#3","midi":58,"time":227.26458333333974,"velocity":0.29133858267716534,"duration":0.23541666666670835},{"name":"F#3","midi":54,"time":227.28125000000642,"velocity":0.2204724409448819,"duration":0.2593750000000341},{"name":"D#3","midi":51,"time":227.28437500000643,"velocity":0.29133858267716534,"duration":1.2593750000000057},{"name":"A#4","midi":70,"time":227.28541666667311,"velocity":0.2755905511811024,"duration":0.26875000000001137},{"name":"C3","midi":48,"time":229.25625000000645,"velocity":0.2125984251968504,"duration":4.731250000000074}],"controlChanges":{"64":[{"number":64,"time":14.666666666666668,"value":0.10236220472440945},{"number":64,"time":14.667708333333335,"value":0.10236220472440945},{"number":64,"time":14.679166666666669,"value":0.2283464566929134},{"number":64,"time":14.680208333333336,"value":0.2283464566929134},{"number":64,"time":14.69479166666667,"value":0.33070866141732286},{"number":64,"time":14.695833333333338,"value":0.33070866141732286},{"number":64,"time":14.738541666666672,"value":0.44881889763779526},{"number":64,"time":14.73958333333334,"value":0.44881889763779526},{"number":64,"time":14.750000000000005,"value":0.48031496062992124},{"number":64,"time":14.751041666666673,"value":0.48031496062992124},{"number":64,"time":14.778125000000006,"value":0.5118110236220472},{"number":64,"time":14.779166666666674,"value":0.5118110236220472},{"number":64,"time":14.810416666666674,"value":0.5433070866141733},{"number":64,"time":14.811458333333341,"value":0.5433070866141733},{"number":64,"time":14.850000000000009,"value":0.5748031496062992},{"number":64,"time":14.851041666666676,"value":0.5748031496062992},{"number":64,"time":14.914583333333344,"value":0.6062992125984252},{"number":64,"time":14.915625000000011,"value":0.6062992125984252},{"number":64,"time":15.034375000000011,"value":0.6377952755905512},{"number":64,"time":15.034375000000011,"value":0.6377952755905512},{"number":64,"time":15.71041666666668,"value":0.5984251968503937},{"number":64,"time":15.71041666666668,"value":0.5984251968503937},{"number":64,"time":15.734375000000012,"value":0.5669291338582677},{"number":64,"time":15.734375000000012,"value":0.5669291338582677},{"number":64,"time":15.746875000000012,"value":0.5275590551181102},{"number":64,"time":15.74791666666668,"value":0.5275590551181102},{"number":64,"time":15.758333333333347,"value":0.49606299212598426},{"number":64,"time":15.759375000000015,"value":0.49606299212598426},{"number":64,"time":15.886458333333348,"value":0.5275590551181102},{"number":64,"time":15.886458333333348,"value":0.5275590551181102},{"number":64,"time":15.938541666666682,"value":0.5590551181102362},{"number":64,"time":15.93958333333335,"value":0.5590551181102362},{"number":64,"time":15.994791666666682,"value":0.5905511811023622},{"number":64,"time":15.99583333333335,"value":0.5905511811023622},{"number":64,"time":17.720833333333356,"value":0.5590551181102362},{"number":64,"time":17.721875000000022,"value":0.5590551181102362},{"number":64,"time":17.74166666666669,"value":0.5275590551181102},{"number":64,"time":17.742708333333354,"value":0.5275590551181102},{"number":64,"time":17.748958333333356,"value":0.49606299212598426},{"number":64,"time":17.75000000000002,"value":0.49606299212598426},{"number":64,"time":17.766666666666687,"value":0.4015748031496063},{"number":64,"time":17.767708333333353,"value":0.4015748031496063},{"number":64,"time":17.785416666666688,"value":0.2992125984251969},{"number":64,"time":17.786458333333353,"value":0.2992125984251969},{"number":64,"time":17.92500000000002,"value":0.4015748031496063},{"number":64,"time":17.926041666666684,"value":0.4015748031496063},{"number":64,"time":17.941666666666684,"value":0.48031496062992124},{"number":64,"time":17.94270833333335,"value":0.48031496062992124},{"number":64,"time":17.969791666666683,"value":0.5118110236220472},{"number":64,"time":17.969791666666683,"value":0.5118110236220472},{"number":64,"time":18.013541666666683,"value":0.5433070866141733},{"number":64,"time":18.01458333333335,"value":0.5433070866141733},{"number":64,"time":18.04583333333335,"value":0.5748031496062992},{"number":64,"time":18.04583333333335,"value":0.5748031496062992},{"number":64,"time":18.096875000000015,"value":0.6062992125984252},{"number":64,"time":18.09791666666668,"value":0.6062992125984252},{"number":64,"time":20.82812500000002,"value":0.5748031496062992},{"number":64,"time":20.829166666666687,"value":0.5748031496062992},{"number":64,"time":20.847916666666688,"value":0.5433070866141733},{"number":64,"time":20.848958333333353,"value":0.5433070866141733},{"number":64,"time":20.857291666666686,"value":0.5118110236220472},{"number":64,"time":20.858333333333352,"value":0.5118110236220472},{"number":64,"time":20.864583333333353,"value":0.48031496062992124},{"number":64,"time":20.86562500000002,"value":0.48031496062992124},{"number":64,"time":20.876041666666687,"value":0.3779527559055118},{"number":64,"time":20.877083333333353,"value":0.3779527559055118},{"number":64,"time":20.892708333333353,"value":0.2755905511811024},{"number":64,"time":20.89375000000002,"value":0.2755905511811024},{"number":64,"time":20.99270833333335,"value":0.3779527559055118},{"number":64,"time":20.993750000000016,"value":0.3779527559055118},{"number":64,"time":21.012500000000017,"value":0.47244094488188976},{"number":64,"time":21.013541666666683,"value":0.47244094488188976},{"number":64,"time":21.032291666666683,"value":0.5039370078740157},{"number":64,"time":21.03333333333335,"value":0.5039370078740157},{"number":64,"time":21.060416666666683,"value":0.5354330708661418},{"number":64,"time":21.06145833333335,"value":0.5354330708661418},{"number":64,"time":21.11666666666668,"value":0.5669291338582677},{"number":64,"time":21.117708333333347,"value":0.5669291338582677},{"number":64,"time":21.36041666666668,"value":0.5984251968503937},{"number":64,"time":21.361458333333346,"value":0.5984251968503937},{"number":64,"time":21.843750000000014,"value":0.5590551181102362},{"number":64,"time":21.84479166666668,"value":0.5590551181102362},{"number":64,"time":21.860416666666683,"value":0.5275590551181102},{"number":64,"time":21.86145833333335,"value":0.5275590551181102},{"number":64,"time":21.871875000000017,"value":0.49606299212598426},{"number":64,"time":21.872916666666683,"value":0.49606299212598426},{"number":64,"time":22.022916666666685,"value":0.5275590551181102},{"number":64,"time":22.02395833333335,"value":0.5275590551181102},{"number":64,"time":22.075000000000017,"value":0.5590551181102362},{"number":64,"time":22.076041666666683,"value":0.5590551181102362},{"number":64,"time":22.140625000000018,"value":0.5905511811023622},{"number":64,"time":22.140625000000018,"value":0.5905511811023622},{"number":64,"time":23.86666666666668,"value":0.5511811023622047},{"number":64,"time":23.86666666666668,"value":0.5511811023622047},{"number":64,"time":23.878125000000015,"value":0.5196850393700787},{"number":64,"time":23.878125000000015,"value":0.5196850393700787},{"number":64,"time":23.886458333333348,"value":0.4881889763779528},{"number":64,"time":23.887500000000014,"value":0.4881889763779528},{"number":64,"time":23.903125000000014,"value":0.4015748031496063},{"number":64,"time":23.90416666666668,"value":0.4015748031496063},{"number":64,"time":23.917708333333344,"value":0.2992125984251969},{"number":64,"time":23.91875000000001,"value":0.2992125984251969},{"number":64,"time":24.017708333333342,"value":0.4015748031496063},{"number":64,"time":24.018750000000008,"value":0.4015748031496063},{"number":64,"time":24.034375000000008,"value":0.47244094488188976},{"number":64,"time":24.035416666666674,"value":0.47244094488188976},{"number":64,"time":24.054166666666674,"value":0.5039370078740157},{"number":64,"time":24.05520833333334,"value":0.5039370078740157},{"number":64,"time":24.082291666666674,"value":0.5354330708661418},{"number":64,"time":24.08333333333334,"value":0.5354330708661418},{"number":64,"time":24.13020833333334,"value":0.5669291338582677},{"number":64,"time":24.131250000000005,"value":0.5669291338582677},{"number":64,"time":24.162500000000005,"value":0.5984251968503937},{"number":64,"time":24.162500000000005,"value":0.5984251968503937},{"number":64,"time":24.262500000000006,"value":0.6299212598425197},{"number":64,"time":24.263541666666672,"value":0.6299212598425197},{"number":64,"time":26.91250000000001,"value":0.5984251968503937},{"number":64,"time":26.913541666666674,"value":0.5984251968503937},{"number":64,"time":26.940625000000008,"value":0.5669291338582677},{"number":64,"time":26.941666666666674,"value":0.5669291338582677},{"number":64,"time":26.953125000000007,"value":0.5275590551181102},{"number":64,"time":26.954166666666673,"value":0.5275590551181102},{"number":64,"time":26.96145833333334,"value":0.4881889763779528},{"number":64,"time":26.96145833333334,"value":0.4881889763779528},{"number":64,"time":26.973958333333343,"value":0.4015748031496063},{"number":64,"time":26.97500000000001,"value":0.4015748031496063},{"number":64,"time":26.992708333333344,"value":0.2992125984251969},{"number":64,"time":26.99375000000001,"value":0.2992125984251969},{"number":64,"time":27.105208333333344,"value":0.4015748031496063},{"number":64,"time":27.10625000000001,"value":0.4015748031496063},{"number":64,"time":27.129166666666677,"value":0.48031496062992124},{"number":64,"time":27.130208333333343,"value":0.48031496062992124},{"number":64,"time":27.164583333333344,"value":0.5118110236220472},{"number":64,"time":27.16562500000001,"value":0.5118110236220472},{"number":64,"time":27.220833333333342,"value":0.5433070866141733},{"number":64,"time":27.221875000000008,"value":0.5433070866141733},{"number":64,"time":27.257291666666674,"value":0.5748031496062992},{"number":64,"time":27.25833333333334,"value":0.5748031496062992},{"number":64,"time":27.371875000000003,"value":0.6062992125984252},{"number":64,"time":27.371875000000003,"value":0.6062992125984252},{"number":64,"time":27.987500000000004,"value":0.5748031496062992},{"number":64,"time":27.98854166666667,"value":0.5748031496062992},{"number":64,"time":28.008333333333336,"value":0.5433070866141733},{"number":64,"time":28.008333333333336,"value":0.5433070866141733},{"number":64,"time":28.025000000000002,"value":0.5118110236220472},{"number":64,"time":28.026041666666668,"value":0.5118110236220472},{"number":64,"time":28.043750000000003,"value":0.48031496062992124},{"number":64,"time":28.04479166666667,"value":0.48031496062992124},{"number":64,"time":28.156250000000004,"value":0.5118110236220472},{"number":64,"time":28.15729166666667,"value":0.5118110236220472},{"number":64,"time":28.23229166666667,"value":0.5511811023622047},{"number":64,"time":28.233333333333334,"value":0.5511811023622047},{"number":64,"time":28.2875,"value":0.5826771653543307},{"number":64,"time":28.288541666666667,"value":0.5826771653543307},{"number":64,"time":28.371875,"value":0.6141732283464567},{"number":64,"time":28.371875,"value":0.6141732283464567},{"number":64,"time":28.791666666666668,"value":0.6456692913385826},{"number":64,"time":28.792708333333334,"value":0.6456692913385826},{"number":64,"time":29.96770833333333,"value":0.6141732283464567},{"number":64,"time":29.96770833333333,"value":0.6141732283464567},{"number":64,"time":29.99583333333333,"value":0.5826771653543307},{"number":64,"time":29.996874999999996,"value":0.5826771653543307},{"number":64,"time":30.012499999999996,"value":0.5511811023622047},{"number":64,"time":30.01354166666666,"value":0.5511811023622047},{"number":64,"time":30.019791666666663,"value":0.5196850393700787},{"number":64,"time":30.02083333333333,"value":0.5196850393700787},{"number":64,"time":30.032291666666662,"value":0.48031496062992124},{"number":64,"time":30.033333333333328,"value":0.48031496062992124},{"number":64,"time":30.046874999999993,"value":0.3779527559055118},{"number":64,"time":30.04791666666666,"value":0.3779527559055118},{"number":64,"time":30.074999999999992,"value":0.2755905511811024},{"number":64,"time":30.076041666666658,"value":0.2755905511811024},{"number":64,"time":30.214583333333326,"value":0.3779527559055118},{"number":64,"time":30.215624999999992,"value":0.3779527559055118},{"number":64,"time":30.239583333333325,"value":0.48031496062992124},{"number":64,"time":30.24062499999999,"value":0.48031496062992124},{"number":64,"time":30.26666666666666,"value":0.5196850393700787},{"number":64,"time":30.267708333333324,"value":0.5196850393700787},{"number":64,"time":30.30312499999999,"value":0.5511811023622047},{"number":64,"time":30.304166666666656,"value":0.5511811023622047},{"number":64,"time":30.339583333333323,"value":0.5826771653543307},{"number":64,"time":30.34062499999999,"value":0.5826771653543307},{"number":64,"time":30.38437499999999,"value":0.6141732283464567},{"number":64,"time":30.386458333333326,"value":0.6141732283464567},{"number":64,"time":32.87708333333333,"value":0.5826771653543307},{"number":64,"time":32.878125,"value":0.5826771653543307},{"number":64,"time":32.89895833333333,"value":0.5511811023622047},{"number":64,"time":32.9,"value":0.5511811023622047},{"number":64,"time":32.91041666666666,"value":0.5196850393700787},{"number":64,"time":32.91145833333333,"value":0.5196850393700787},{"number":64,"time":32.92604166666667,"value":0.48031496062992124},{"number":64,"time":32.927083333333336,"value":0.48031496062992124},{"number":64,"time":32.946875,"value":0.3779527559055118},{"number":64,"time":32.946875,"value":0.3779527559055118},{"number":64,"time":33.061458333333334,"value":0.47244094488188976},{"number":64,"time":33.0625,"value":0.47244094488188976},{"number":64,"time":33.09375,"value":0.5039370078740157},{"number":64,"time":33.094791666666666,"value":0.5039370078740157},{"number":64,"time":33.12916666666666,"value":0.5354330708661418},{"number":64,"time":33.13020833333333,"value":0.5354330708661418},{"number":64,"time":33.18541666666666,"value":0.5669291338582677},{"number":64,"time":33.18645833333333,"value":0.5669291338582677},{"number":64,"time":33.253125,"value":0.5984251968503937},{"number":64,"time":33.25416666666666,"value":0.5984251968503937},{"number":64,"time":35.840625,"value":0.5590551181102362},{"number":64,"time":35.84166666666667,"value":0.5590551181102362},{"number":64,"time":35.85520833333334,"value":0.5196850393700787},{"number":64,"time":35.85625,"value":0.5196850393700787},{"number":64,"time":35.864583333333336,"value":0.4881889763779528},{"number":64,"time":35.864583333333336,"value":0.4881889763779528},{"number":64,"time":35.87604166666667,"value":0.4015748031496063},{"number":64,"time":35.87604166666667,"value":0.4015748031496063},{"number":64,"time":35.89583333333334,"value":0.2992125984251969},{"number":64,"time":35.89687500000001,"value":0.2992125984251969},{"number":64,"time":36.01562500000001,"value":0.4015748031496063},{"number":64,"time":36.01666666666667,"value":0.4015748031496063},{"number":64,"time":36.03229166666667,"value":0.47244094488188976},{"number":64,"time":36.03333333333334,"value":0.47244094488188976},{"number":64,"time":36.04791666666667,"value":0.5039370078740157},{"number":64,"time":36.04895833333334,"value":0.5039370078740157},{"number":64,"time":36.07916666666667,"value":0.5354330708661418},{"number":64,"time":36.08020833333334,"value":0.5354330708661418},{"number":64,"time":36.13125000000001,"value":0.5669291338582677},{"number":64,"time":36.132291666666674,"value":0.5669291338582677},{"number":64,"time":36.18333333333334,"value":0.5984251968503937},{"number":64,"time":36.184375,"value":0.5984251968503937},{"number":64,"time":39.33854166666667,"value":0.5669291338582677},{"number":64,"time":39.33958333333334,"value":0.5669291338582677},{"number":64,"time":39.35520833333334,"value":0.5275590551181102},{"number":64,"time":39.35625,"value":0.5275590551181102},{"number":64,"time":39.362500000000004,"value":0.49606299212598426},{"number":64,"time":39.362500000000004,"value":0.49606299212598426},{"number":64,"time":39.37916666666667,"value":0.3779527559055118},{"number":64,"time":39.380208333333336,"value":0.3779527559055118},{"number":64,"time":39.39479166666667,"value":0.2755905511811024},{"number":64,"time":39.395833333333336,"value":0.2755905511811024},{"number":64,"time":39.52291666666667,"value":0.3779527559055118},{"number":64,"time":39.52291666666667,"value":0.3779527559055118},{"number":64,"time":39.53854166666667,"value":0.47244094488188976},{"number":64,"time":39.53958333333333,"value":0.47244094488188976},{"number":64,"time":39.55416666666667,"value":0.5039370078740157},{"number":64,"time":39.55520833333333,"value":0.5039370078740157},{"number":64,"time":39.590625,"value":0.5354330708661418},{"number":64,"time":39.59166666666667,"value":0.5354330708661418},{"number":64,"time":39.646875,"value":0.5669291338582677},{"number":64,"time":39.646875,"value":0.5669291338582677},{"number":64,"time":39.69895833333334,"value":0.5984251968503937},{"number":64,"time":39.69895833333334,"value":0.5984251968503937},{"number":64,"time":39.93854166666667,"value":0.6299212598425197},{"number":64,"time":39.93958333333334,"value":0.6299212598425197},{"number":64,"time":42.14166666666667,"value":0.5984251968503937},{"number":64,"time":42.14270833333334,"value":0.5984251968503937},{"number":64,"time":42.165625000000006,"value":0.5669291338582677},{"number":64,"time":42.16666666666667,"value":0.5669291338582677},{"number":64,"time":42.177083333333336,"value":0.5275590551181102},{"number":64,"time":42.178125,"value":0.5275590551181102},{"number":64,"time":42.18541666666667,"value":0.49606299212598426},{"number":64,"time":42.186458333333334,"value":0.49606299212598426},{"number":64,"time":42.196875,"value":0.4015748031496063},{"number":64,"time":42.197916666666664,"value":0.4015748031496063},{"number":64,"time":42.21770833333333,"value":0.2992125984251969},{"number":64,"time":42.21770833333333,"value":0.2992125984251969},{"number":64,"time":42.34166666666666,"value":0.4015748031496063},{"number":64,"time":42.34270833333333,"value":0.4015748031496063},{"number":64,"time":42.35312499999999,"value":0.47244094488188976},{"number":64,"time":42.35416666666666,"value":0.47244094488188976},{"number":64,"time":42.372916666666654,"value":0.5039370078740157},{"number":64,"time":42.37395833333332,"value":0.5039370078740157},{"number":64,"time":42.41354166666665,"value":0.5354330708661418},{"number":64,"time":42.41458333333332,"value":0.5354330708661418},{"number":64,"time":42.46562499999999,"value":0.5669291338582677},{"number":64,"time":42.466666666666654,"value":0.5669291338582677},{"number":64,"time":42.513541666666654,"value":0.5984251968503937},{"number":64,"time":42.51458333333332,"value":0.5984251968503937},{"number":64,"time":45.123958333333334,"value":0.5590551181102362},{"number":64,"time":45.125,"value":0.5590551181102362},{"number":64,"time":45.139583333333334,"value":0.5196850393700787},{"number":64,"time":45.139583333333334,"value":0.5196850393700787},{"number":64,"time":45.14791666666667,"value":0.4881889763779528},{"number":64,"time":45.14895833333333,"value":0.4881889763779528},{"number":64,"time":45.159375,"value":0.4015748031496063},{"number":64,"time":45.16041666666666,"value":0.4015748031496063},{"number":64,"time":45.17916666666667,"value":0.2755905511811024},{"number":64,"time":45.18020833333333,"value":0.2755905511811024},{"number":64,"time":45.219791666666666,"value":0.18110236220472442},{"number":64,"time":45.219791666666666,"value":0.18110236220472442},{"number":64,"time":45.303125,"value":0.2992125984251969},{"number":64,"time":45.303125,"value":0.2992125984251969},{"number":64,"time":45.31979166666667,"value":0.4015748031496063},{"number":64,"time":45.32083333333333,"value":0.4015748031496063},{"number":64,"time":45.328125,"value":0.47244094488188976},{"number":64,"time":45.329166666666666,"value":0.47244094488188976},{"number":64,"time":45.34375,"value":0.5039370078740157},{"number":64,"time":45.344791666666666,"value":0.5039370078740157},{"number":64,"time":45.376041666666666,"value":0.5354330708661418},{"number":64,"time":45.376041666666666,"value":0.5354330708661418},{"number":64,"time":45.422916666666666,"value":0.5669291338582677},{"number":64,"time":45.42395833333333,"value":0.5669291338582677},{"number":64,"time":45.45520833333333,"value":0.5984251968503937},{"number":64,"time":45.45520833333333,"value":0.5984251968503937},{"number":64,"time":45.49583333333333,"value":0.6299212598425197},{"number":64,"time":45.496874999999996,"value":0.6299212598425197},{"number":64,"time":45.83541666666667,"value":0.7322834645669292},{"number":64,"time":45.83645833333333,"value":0.7322834645669292},{"number":64,"time":48.10625,"value":0.6535433070866141},{"number":64,"time":48.10729166666667,"value":0.6535433070866141},{"number":64,"time":48.126041666666666,"value":0.6141732283464567},{"number":64,"time":48.12708333333333,"value":0.6141732283464567},{"number":64,"time":48.137499999999996,"value":0.5826771653543307},{"number":64,"time":48.13854166666666,"value":0.5826771653543307},{"number":64,"time":48.14999999999999,"value":0.5511811023622047},{"number":64,"time":48.14999999999999,"value":0.5511811023622047},{"number":64,"time":48.158333333333324,"value":0.5196850393700787},{"number":64,"time":48.15937499999999,"value":0.5196850393700787},{"number":64,"time":48.16562499999999,"value":0.4881889763779528},{"number":64,"time":48.16666666666666,"value":0.4881889763779528},{"number":64,"time":48.17812499999999,"value":0.4015748031496063},{"number":64,"time":48.17916666666665,"value":0.4015748031496063},{"number":64,"time":48.31770833333332,"value":0.47244094488188976},{"number":64,"time":48.31874999999999,"value":0.47244094488188976},{"number":64,"time":48.337499999999984,"value":0.5039370078740157},{"number":64,"time":48.33854166666665,"value":0.5039370078740157},{"number":64,"time":48.36145833333332,"value":0.5354330708661418},{"number":64,"time":48.36145833333332,"value":0.5354330708661418},{"number":64,"time":48.39687499999999,"value":0.5669291338582677},{"number":64,"time":48.39687499999999,"value":0.5669291338582677},{"number":64,"time":48.42499999999999,"value":0.5984251968503937},{"number":64,"time":48.426041666666656,"value":0.5984251968503937},{"number":64,"time":48.453124999999986,"value":0.6299212598425197},{"number":64,"time":48.45416666666665,"value":0.6299212598425197},{"number":64,"time":51.18749999999998,"value":0.5984251968503937},{"number":64,"time":51.188541666666644,"value":0.5984251968503937},{"number":64,"time":51.204166666666644,"value":0.5669291338582677},{"number":64,"time":51.20520833333331,"value":0.5669291338582677},{"number":64,"time":51.215624999999974,"value":0.5275590551181102},{"number":64,"time":51.21666666666664,"value":0.5275590551181102},{"number":64,"time":51.22395833333331,"value":0.4881889763779528},{"number":64,"time":51.22499999999997,"value":0.4881889763779528},{"number":64,"time":51.23541666666664,"value":0.4015748031496063},{"number":64,"time":51.2364583333333,"value":0.4015748031496063},{"number":64,"time":51.25624999999997,"value":0.2992125984251969},{"number":64,"time":51.25729166666664,"value":0.2992125984251969},{"number":64,"time":51.38020833333331,"value":0.4015748031496063},{"number":64,"time":51.38124999999997,"value":0.4015748031496063},{"number":64,"time":51.39999999999997,"value":0.47244094488188976},{"number":64,"time":51.401041666666636,"value":0.47244094488188976},{"number":64,"time":51.4239583333333,"value":0.5039370078740157},{"number":64,"time":51.42499999999997,"value":0.5039370078740157},{"number":64,"time":51.4520833333333,"value":0.5354330708661418},{"number":64,"time":51.453124999999964,"value":0.5354330708661418},{"number":64,"time":51.495833333333294,"value":0.5669291338582677},{"number":64,"time":51.49687499999996,"value":0.5669291338582677},{"number":64,"time":51.53541666666663,"value":0.5984251968503937},{"number":64,"time":51.53645833333329,"value":0.5984251968503937},{"number":64,"time":51.60833333333329,"value":0.6299212598425197},{"number":64,"time":51.60833333333329,"value":0.6299212598425197},{"number":64,"time":54.17395833333328,"value":0.5984251968503937},{"number":64,"time":54.17499999999995,"value":0.5984251968503937},{"number":64,"time":54.19062499999995,"value":0.5590551181102362},{"number":64,"time":54.19166666666661,"value":0.5590551181102362},{"number":64,"time":54.19895833333328,"value":0.5275590551181102},{"number":64,"time":54.199999999999946,"value":0.5275590551181102},{"number":64,"time":54.20729166666661,"value":0.49606299212598426},{"number":64,"time":54.20729166666661,"value":0.49606299212598426},{"number":64,"time":54.218749999999936,"value":0.4015748031496063},{"number":64,"time":54.218749999999936,"value":0.4015748031496063},{"number":64,"time":54.2385416666666,"value":0.2992125984251969},{"number":64,"time":54.239583333333265,"value":0.2992125984251969},{"number":64,"time":54.3416666666666,"value":0.4015748031496063},{"number":64,"time":54.3416666666666,"value":0.4015748031496063},{"number":64,"time":54.35833333333326,"value":0.48031496062992124},{"number":64,"time":54.35937499999993,"value":0.48031496062992124},{"number":64,"time":54.38541666666659,"value":0.5196850393700787},{"number":64,"time":54.38645833333326,"value":0.5196850393700787},{"number":64,"time":54.418749999999925,"value":0.5511811023622047},{"number":64,"time":54.418749999999925,"value":0.5511811023622047},{"number":64,"time":54.45937499999992,"value":0.5826771653543307},{"number":64,"time":54.45937499999992,"value":0.5826771653543307},{"number":64,"time":54.48958333333326,"value":0.6141732283464567},{"number":64,"time":54.49062499999992,"value":0.6141732283464567},{"number":64,"time":57.15624999999991,"value":0.5826771653543307},{"number":64,"time":57.15729166666657,"value":0.5826771653543307},{"number":64,"time":57.16770833333324,"value":0.5511811023622047},{"number":64,"time":57.1687499999999,"value":0.5511811023622047},{"number":64,"time":57.17604166666657,"value":0.5196850393700787},{"number":64,"time":57.177083333333236,"value":0.5196850393700787},{"number":64,"time":57.18333333333324,"value":0.48031496062992124},{"number":64,"time":57.1843749999999,"value":0.48031496062992124},{"number":64,"time":57.19583333333323,"value":0.3779527559055118},{"number":64,"time":57.1968749999999,"value":0.3779527559055118},{"number":64,"time":57.215624999999896,"value":0.2755905511811024},{"number":64,"time":57.21666666666656,"value":0.2755905511811024},{"number":64,"time":57.34062499999989,"value":0.3779527559055118},{"number":64,"time":57.341666666666555,"value":0.3779527559055118},{"number":64,"time":57.363541666666556,"value":0.47244094488188976},{"number":64,"time":57.36458333333322,"value":0.47244094488188976},{"number":64,"time":57.38333333333322,"value":0.5039370078740157},{"number":64,"time":57.384374999999885,"value":0.5039370078740157},{"number":64,"time":57.415624999999885,"value":0.5354330708661418},{"number":64,"time":57.41666666666655,"value":0.5354330708661418},{"number":64,"time":57.45624999999988,"value":0.5669291338582677},{"number":64,"time":57.45624999999988,"value":0.5669291338582677},{"number":64,"time":57.48854166666655,"value":0.5984251968503937},{"number":64,"time":57.48854166666655,"value":0.5984251968503937},{"number":64,"time":57.540624999999885,"value":0.6299212598425197},{"number":64,"time":57.54166666666655,"value":0.6299212598425197},{"number":64,"time":60.13020833333322,"value":0.5984251968503937},{"number":64,"time":60.13124999999989,"value":0.5984251968503937},{"number":64,"time":60.149999999999885,"value":0.5669291338582677},{"number":64,"time":60.15104166666655,"value":0.5669291338582677},{"number":64,"time":60.15937499999988,"value":0.5354330708661418},{"number":64,"time":60.16041666666655,"value":0.5354330708661418},{"number":64,"time":60.16770833333321,"value":0.49606299212598426},{"number":64,"time":60.168749999999875,"value":0.49606299212598426},{"number":64,"time":60.17812499999987,"value":0.4015748031496063},{"number":64,"time":60.17916666666654,"value":0.4015748031496063},{"number":64,"time":60.19479166666654,"value":0.2992125984251969},{"number":64,"time":60.195833333333205,"value":0.2992125984251969},{"number":64,"time":60.30208333333321,"value":0.4015748031496063},{"number":64,"time":60.30312499999987,"value":0.4015748031496063},{"number":64,"time":60.3145833333332,"value":0.47244094488188976},{"number":64,"time":60.31562499999987,"value":0.47244094488188976},{"number":64,"time":60.3302083333332,"value":0.5039370078740157},{"number":64,"time":60.33124999999987,"value":0.5039370078740157},{"number":64,"time":60.354166666666536,"value":0.5354330708661418},{"number":64,"time":60.3552083333332,"value":0.5354330708661418},{"number":64,"time":60.394791666666535,"value":0.5669291338582677},{"number":64,"time":60.3958333333332,"value":0.5669291338582677},{"number":64,"time":60.4270833333332,"value":0.5984251968503937},{"number":64,"time":60.4270833333332,"value":0.5984251968503937},{"number":64,"time":60.4583333333332,"value":0.6299212598425197},{"number":64,"time":60.4583333333332,"value":0.6299212598425197},{"number":64,"time":62.80104166666652,"value":0.5984251968503937},{"number":64,"time":62.80208333333319,"value":0.5984251968503937},{"number":64,"time":62.842708333333185,"value":0.5669291338582677},{"number":64,"time":62.84374999999985,"value":0.5669291338582677},{"number":64,"time":62.86145833333318,"value":0.5354330708661418},{"number":64,"time":62.86249999999985,"value":0.5354330708661418},{"number":64,"time":62.88645833333318,"value":0.49606299212598426},{"number":64,"time":62.88749999999985,"value":0.49606299212598426},{"number":64,"time":62.921874999999844,"value":0.4015748031496063},{"number":64,"time":62.92291666666651,"value":0.4015748031496063},{"number":64,"time":62.948958333333174,"value":0.2992125984251969},{"number":64,"time":62.951041666666505,"value":0.2992125984251969},{"number":64,"time":62.9697916666665,"value":0.2047244094488189},{"number":64,"time":62.97083333333317,"value":0.2047244094488189},{"number":64,"time":62.98749999999983,"value":0.10236220472440945},{"number":64,"time":62.98854166666649,"value":0.10236220472440945},{"number":64,"time":63.00520833333316,"value":0},{"number":64,"time":63.006249999999824,"value":0},{"number":64,"time":63.15729166666649,"value":0.12598425196850394},{"number":64,"time":63.15729166666649,"value":0.12598425196850394},{"number":64,"time":63.16562499999982,"value":0.25196850393700787},{"number":64,"time":63.16666666666649,"value":0.25196850393700787},{"number":64,"time":63.17812499999982,"value":0.3779527559055118},{"number":64,"time":63.17916666666648,"value":0.3779527559055118},{"number":64,"time":63.18958333333315,"value":0.47244094488188976},{"number":64,"time":63.19062499999981,"value":0.47244094488188976},{"number":64,"time":63.20208333333314,"value":0.5039370078740157},{"number":64,"time":63.20312499999981,"value":0.5039370078740157},{"number":64,"time":63.253124999999805,"value":0.5354330708661418},{"number":64,"time":63.25416666666647,"value":0.5354330708661418},{"number":64,"time":63.293749999999804,"value":0.5669291338582677},{"number":64,"time":63.29479166666647,"value":0.5669291338582677},{"number":64,"time":63.3374999999998,"value":0.5984251968503937},{"number":64,"time":63.338541666666465,"value":0.5984251968503937},{"number":64,"time":63.43333333333313,"value":0.6299212598425197},{"number":64,"time":63.43333333333313,"value":0.6299212598425197},{"number":64,"time":65.81562499999977,"value":0.5984251968503937},{"number":64,"time":65.81666666666644,"value":0.5984251968503937},{"number":64,"time":65.83124999999977,"value":0.5669291338582677},{"number":64,"time":65.83229166666644,"value":0.5669291338582677},{"number":64,"time":65.8427083333331,"value":0.5275590551181102},{"number":64,"time":65.84374999999977,"value":0.5275590551181102},{"number":64,"time":65.85104166666643,"value":0.4881889763779528},{"number":64,"time":65.8520833333331,"value":0.4881889763779528},{"number":64,"time":65.86354166666644,"value":0.3779527559055118},{"number":64,"time":65.8645833333331,"value":0.3779527559055118},{"number":64,"time":65.87916666666644,"value":0.2755905511811024},{"number":64,"time":65.8802083333331,"value":0.2755905511811024},{"number":64,"time":65.91562499999976,"value":0.18110236220472442},{"number":64,"time":65.91666666666643,"value":0.18110236220472442},{"number":64,"time":65.95520833333309,"value":0.07874015748031496},{"number":64,"time":65.95624999999976,"value":0.07874015748031496},{"number":64,"time":66.05937499999976,"value":0.18110236220472442},{"number":64,"time":66.06041666666643,"value":0.18110236220472442},{"number":64,"time":66.07916666666642,"value":0.2992125984251969},{"number":64,"time":66.07916666666642,"value":0.2992125984251969},{"number":64,"time":66.09166666666643,"value":0.4015748031496063},{"number":64,"time":66.09166666666643,"value":0.4015748031496063},{"number":64,"time":66.09895833333309,"value":0.47244094488188976},{"number":64,"time":66.09999999999975,"value":0.47244094488188976},{"number":64,"time":66.11562499999975,"value":0.5039370078740157},{"number":64,"time":66.11666666666642,"value":0.5039370078740157},{"number":64,"time":66.14270833333309,"value":0.5354330708661418},{"number":64,"time":66.14374999999976,"value":0.5354330708661418},{"number":64,"time":66.18749999999976,"value":0.5669291338582677},{"number":64,"time":66.18854166666642,"value":0.5669291338582677},{"number":64,"time":66.21874999999976,"value":0.5984251968503937},{"number":64,"time":66.21979166666642,"value":0.5984251968503937},{"number":64,"time":66.27499999999976,"value":0.6299212598425197},{"number":64,"time":66.27604166666643,"value":0.6299212598425197},{"number":64,"time":68.93020833333303,"value":0.5984251968503937},{"number":64,"time":68.9312499999997,"value":0.5984251968503937},{"number":64,"time":68.94583333333303,"value":0.5669291338582677},{"number":64,"time":68.9468749999997,"value":0.5669291338582677},{"number":64,"time":68.95416666666635,"value":0.5354330708661418},{"number":64,"time":68.95520833333302,"value":0.5354330708661418},{"number":64,"time":68.96354166666636,"value":0.4881889763779528},{"number":64,"time":68.96458333333302,"value":0.4881889763779528},{"number":64,"time":68.97395833333302,"value":0.3779527559055118},{"number":64,"time":68.97499999999968,"value":0.3779527559055118},{"number":64,"time":68.986458333333,"value":0.2755905511811024},{"number":64,"time":68.98749999999967,"value":0.2755905511811024},{"number":64,"time":69.01041666666633,"value":0.18110236220472442},{"number":64,"time":69.011458333333,"value":0.18110236220472442},{"number":64,"time":69.03437499999966,"value":0.07874015748031496},{"number":64,"time":69.03541666666632,"value":0.07874015748031496},{"number":64,"time":69.05833333333298,"value":0},{"number":64,"time":69.05937499999965,"value":0},{"number":64,"time":69.11770833333298,"value":0.10236220472440945},{"number":64,"time":69.11874999999965,"value":0.10236220472440945},{"number":64,"time":69.13020833333299,"value":0.2047244094488189},{"number":64,"time":69.13124999999965,"value":0.2047244094488189},{"number":64,"time":69.14166666666632,"value":0.33070866141732286},{"number":64,"time":69.14270833333299,"value":0.33070866141732286},{"number":64,"time":69.15833333333299,"value":0.44881889763779526},{"number":64,"time":69.15937499999966,"value":0.44881889763779526},{"number":64,"time":69.16979166666633,"value":0.4881889763779528},{"number":64,"time":69.170833333333,"value":0.4881889763779528},{"number":64,"time":69.19791666666633,"value":0.5275590551181102},{"number":64,"time":69.198958333333,"value":0.5275590551181102},{"number":64,"time":69.23854166666634,"value":0.5590551181102362},{"number":64,"time":69.23854166666634,"value":0.5590551181102362},{"number":64,"time":69.26562499999967,"value":0.5905511811023622},{"number":64,"time":69.26666666666634,"value":0.5905511811023622},{"number":64,"time":69.29791666666634,"value":0.6220472440944882},{"number":64,"time":69.298958333333,"value":0.6220472440944882},{"number":64,"time":69.40729166666634,"value":0.6535433070866141},{"number":64,"time":69.408333333333,"value":0.6535433070866141},{"number":64,"time":71.87291666666633,"value":0.6220472440944882},{"number":64,"time":71.87291666666633,"value":0.6220472440944882},{"number":64,"time":71.90104166666632,"value":0.5905511811023622},{"number":64,"time":71.90104166666632,"value":0.5905511811023622},{"number":64,"time":71.91666666666632,"value":0.5590551181102362},{"number":64,"time":71.91770833333298,"value":0.5590551181102362},{"number":64,"time":71.9291666666663,"value":0.5196850393700787},{"number":64,"time":71.93020833333297,"value":0.5196850393700787},{"number":64,"time":71.93645833333296,"value":0.48031496062992124},{"number":64,"time":71.93749999999963,"value":0.48031496062992124},{"number":64,"time":71.94895833333297,"value":0.3779527559055118},{"number":64,"time":71.94895833333297,"value":0.3779527559055118},{"number":64,"time":71.9697916666663,"value":0.2755905511811024},{"number":64,"time":71.97083333333296,"value":0.2755905511811024},{"number":64,"time":72.00937499999962,"value":0.18110236220472442},{"number":64,"time":72.00937499999962,"value":0.18110236220472442},{"number":64,"time":72.04062499999962,"value":0.07874015748031496},{"number":64,"time":72.04166666666629,"value":0.07874015748031496},{"number":64,"time":72.11666666666629,"value":0.18110236220472442},{"number":64,"time":72.11770833333296,"value":0.18110236220472442},{"number":64,"time":72.13333333333296,"value":0.2992125984251969},{"number":64,"time":72.13437499999962,"value":0.2992125984251969},{"number":64,"time":72.14895833333296,"value":0.4015748031496063},{"number":64,"time":72.14895833333296,"value":0.4015748031496063},{"number":64,"time":72.1572916666663,"value":0.47244094488188976},{"number":64,"time":72.15833333333296,"value":0.47244094488188976},{"number":64,"time":72.1729166666663,"value":0.5039370078740157},{"number":64,"time":72.1729166666663,"value":0.5039370078740157},{"number":64,"time":72.19374999999962,"value":0.5354330708661418},{"number":64,"time":72.19479166666629,"value":0.5354330708661418},{"number":64,"time":72.22916666666629,"value":0.5669291338582677},{"number":64,"time":72.23020833333295,"value":0.5669291338582677},{"number":64,"time":72.25312499999961,"value":0.5984251968503937},{"number":64,"time":72.25416666666628,"value":0.5984251968503937},{"number":64,"time":72.28124999999962,"value":0.6299212598425197},{"number":64,"time":72.28229166666628,"value":0.6299212598425197},{"number":64,"time":75.40416666666628,"value":0.5984251968503937},{"number":64,"time":75.40416666666628,"value":0.5984251968503937},{"number":64,"time":75.41979166666628,"value":0.5669291338582677},{"number":64,"time":75.42083333333295,"value":0.5669291338582677},{"number":64,"time":75.43124999999962,"value":0.5275590551181102},{"number":64,"time":75.43229166666629,"value":0.5275590551181102},{"number":64,"time":75.43958333333295,"value":0.49606299212598426},{"number":64,"time":75.44062499999961,"value":0.49606299212598426},{"number":64,"time":75.45624999999961,"value":0.4015748031496063},{"number":64,"time":75.45729166666628,"value":0.4015748031496063},{"number":64,"time":75.47187499999961,"value":0.2992125984251969},{"number":64,"time":75.47291666666628,"value":0.2992125984251969},{"number":64,"time":75.52708333333294,"value":0.2047244094488189},{"number":64,"time":75.5281249999996,"value":0.2047244094488189},{"number":64,"time":75.6062499999996,"value":0.3543307086614173},{"number":64,"time":75.60729166666627,"value":0.3543307086614173},{"number":64,"time":75.63541666666627,"value":0.48031496062992124},{"number":64,"time":75.63645833333294,"value":0.48031496062992124},{"number":64,"time":75.6593749999996,"value":0.5118110236220472},{"number":64,"time":75.6593749999996,"value":0.5118110236220472},{"number":64,"time":75.69166666666626,"value":0.5511811023622047},{"number":64,"time":75.69270833333293,"value":0.5511811023622047},{"number":64,"time":75.7281249999996,"value":0.5826771653543307},{"number":64,"time":75.72916666666626,"value":0.5826771653543307},{"number":64,"time":75.76354166666626,"value":0.6141732283464567},{"number":64,"time":75.76458333333292,"value":0.6141732283464567},{"number":64,"time":75.99166666666625,"value":0.6456692913385826},{"number":64,"time":75.99270833333291,"value":0.6456692913385826},{"number":64,"time":78.32604166666626,"value":0.6141732283464567},{"number":64,"time":78.32708333333292,"value":0.6141732283464567},{"number":64,"time":78.34583333333292,"value":0.5826771653543307},{"number":64,"time":78.34687499999959,"value":0.5826771653543307},{"number":64,"time":78.35729166666626,"value":0.5433070866141733},{"number":64,"time":78.35833333333292,"value":0.5433070866141733},{"number":64,"time":78.36979166666625,"value":0.5039370078740157},{"number":64,"time":78.37083333333291,"value":0.5039370078740157},{"number":64,"time":78.3770833333329,"value":0.47244094488188976},{"number":64,"time":78.37812499999957,"value":0.47244094488188976},{"number":64,"time":78.3895833333329,"value":0.3779527559055118},{"number":64,"time":78.39062499999956,"value":0.3779527559055118},{"number":64,"time":78.50520833333289,"value":0.47244094488188976},{"number":64,"time":78.50624999999955,"value":0.47244094488188976},{"number":64,"time":78.52083333333289,"value":0.5039370078740157},{"number":64,"time":78.52187499999955,"value":0.5039370078740157},{"number":64,"time":78.5458333333329,"value":0.5354330708661418},{"number":64,"time":78.54687499999956,"value":0.5354330708661418},{"number":64,"time":78.58541666666622,"value":0.5669291338582677},{"number":64,"time":78.58645833333289,"value":0.5669291338582677},{"number":64,"time":78.62083333333288,"value":0.5984251968503937},{"number":64,"time":78.62187499999955,"value":0.5984251968503937},{"number":64,"time":78.65624999999955,"value":0.6299212598425197},{"number":64,"time":78.65729166666621,"value":0.6299212598425197},{"number":64,"time":81.33124999999956,"value":0.5984251968503937},{"number":64,"time":81.33229166666622,"value":0.5984251968503937},{"number":64,"time":81.35312499999955,"value":0.5669291338582677},{"number":64,"time":81.35416666666622,"value":0.5669291338582677},{"number":64,"time":81.36666666666622,"value":0.5354330708661418},{"number":64,"time":81.36770833333289,"value":0.5354330708661418},{"number":64,"time":81.37187499999955,"value":0.5039370078740157},{"number":64,"time":81.37291666666621,"value":0.5039370078740157},{"number":64,"time":81.37916666666621,"value":0.47244094488188976},{"number":64,"time":81.38020833333287,"value":0.47244094488188976},{"number":64,"time":81.39166666666621,"value":0.3779527559055118},{"number":64,"time":81.39270833333288,"value":0.3779527559055118},{"number":64,"time":81.44374999999954,"value":0.2755905511811024},{"number":64,"time":81.4447916666662,"value":0.2755905511811024},{"number":64,"time":81.50312499999954,"value":0.3779527559055118},{"number":64,"time":81.50416666666621,"value":0.3779527559055118},{"number":64,"time":81.52395833333287,"value":0.47244094488188976},{"number":64,"time":81.52499999999954,"value":0.47244094488188976},{"number":64,"time":81.54062499999954,"value":0.5039370078740157},{"number":64,"time":81.5416666666662,"value":0.5039370078740157},{"number":64,"time":81.5604166666662,"value":0.5354330708661418},{"number":64,"time":81.56145833333287,"value":0.5354330708661418},{"number":64,"time":81.59583333333286,"value":0.5669291338582677},{"number":64,"time":81.59687499999953,"value":0.5669291338582677},{"number":64,"time":81.62812499999953,"value":0.5984251968503937},{"number":64,"time":81.6291666666662,"value":0.5984251968503937},{"number":64,"time":81.65624999999953,"value":0.6377952755905512},{"number":64,"time":81.6572916666662,"value":0.6377952755905512},{"number":64,"time":84.31041666666616,"value":0.6062992125984252},{"number":64,"time":84.31145833333282,"value":0.6062992125984252},{"number":64,"time":84.32291666666616,"value":0.5748031496062992},{"number":64,"time":84.32395833333283,"value":0.5748031496062992},{"number":64,"time":84.33749999999948,"value":0.5354330708661418},{"number":64,"time":84.33854166666615,"value":0.5354330708661418},{"number":64,"time":84.34270833333281,"value":0.5039370078740157},{"number":64,"time":84.34374999999947,"value":0.5039370078740157},{"number":64,"time":84.35937499999947,"value":0.4015748031496063},{"number":64,"time":84.36041666666614,"value":0.4015748031496063},{"number":64,"time":84.37187499999948,"value":0.2992125984251969},{"number":64,"time":84.37187499999948,"value":0.2992125984251969},{"number":64,"time":84.49895833333281,"value":0.4015748031496063},{"number":64,"time":84.49999999999947,"value":0.4015748031496063},{"number":64,"time":84.51145833333281,"value":0.47244094488188976},{"number":64,"time":84.51249999999948,"value":0.47244094488188976},{"number":64,"time":84.52604166666615,"value":0.5039370078740157},{"number":64,"time":84.52708333333281,"value":0.5039370078740157},{"number":64,"time":84.54583333333281,"value":0.5354330708661418},{"number":64,"time":84.54687499999947,"value":0.5354330708661418},{"number":64,"time":84.5833333333328,"value":0.5748031496062992},{"number":64,"time":84.5833333333328,"value":0.5748031496062992},{"number":64,"time":84.61562499999947,"value":0.6062992125984252},{"number":64,"time":84.61562499999947,"value":0.6062992125984252},{"number":64,"time":84.63958333333281,"value":0.6377952755905512},{"number":64,"time":84.64062499999947,"value":0.6377952755905512},{"number":64,"time":87.28020833333282,"value":0.6062992125984252},{"number":64,"time":87.28124999999949,"value":0.6062992125984252},{"number":64,"time":87.29687499999949,"value":0.5748031496062992},{"number":64,"time":87.29791666666615,"value":0.5748031496062992},{"number":64,"time":87.30416666666615,"value":0.5433070866141733},{"number":64,"time":87.30520833333281,"value":0.5433070866141733},{"number":64,"time":87.31249999999947,"value":0.5118110236220472},{"number":64,"time":87.31354166666614,"value":0.5118110236220472},{"number":64,"time":87.32187499999947,"value":0.48031496062992124},{"number":64,"time":87.32291666666613,"value":0.48031496062992124},{"number":64,"time":87.33229166666614,"value":0.3779527559055118},{"number":64,"time":87.3333333333328,"value":0.3779527559055118},{"number":64,"time":87.4645833333328,"value":0.48031496062992124},{"number":64,"time":87.46562499999946,"value":0.48031496062992124},{"number":64,"time":87.48854166666612,"value":0.5196850393700787},{"number":64,"time":87.48958333333279,"value":0.5196850393700787},{"number":64,"time":87.51666666666613,"value":0.5511811023622047},{"number":64,"time":87.51770833333279,"value":0.5511811023622047},{"number":64,"time":87.55208333333279,"value":0.5826771653543307},{"number":64,"time":87.55312499999945,"value":0.5826771653543307},{"number":64,"time":87.58020833333279,"value":0.6141732283464567},{"number":64,"time":87.58124999999946,"value":0.6141732283464567},{"number":64,"time":87.69687499999945,"value":0.6456692913385826},{"number":64,"time":87.69687499999945,"value":0.6456692913385826},{"number":64,"time":90.22708333333277,"value":0.6141732283464567},{"number":64,"time":90.22812499999944,"value":0.6141732283464567},{"number":64,"time":90.2479166666661,"value":0.5826771653543307},{"number":64,"time":90.2479166666661,"value":0.5826771653543307},{"number":64,"time":90.25937499999944,"value":0.5511811023622047},{"number":64,"time":90.2604166666661,"value":0.5511811023622047},{"number":64,"time":90.27083333333277,"value":0.5118110236220472},{"number":64,"time":90.27187499999944,"value":0.5118110236220472},{"number":64,"time":90.2791666666661,"value":0.48031496062992124},{"number":64,"time":90.28020833333277,"value":0.48031496062992124},{"number":64,"time":90.29895833333276,"value":0.3779527559055118},{"number":64,"time":90.29999999999943,"value":0.3779527559055118},{"number":64,"time":90.42708333333276,"value":0.47244094488188976},{"number":64,"time":90.42812499999943,"value":0.47244094488188976},{"number":64,"time":90.44687499999942,"value":0.5039370078740157},{"number":64,"time":90.44791666666609,"value":0.5039370078740157},{"number":64,"time":90.46666666666609,"value":0.5354330708661418},{"number":64,"time":90.46770833333275,"value":0.5354330708661418},{"number":64,"time":90.50312499999941,"value":0.5748031496062992},{"number":64,"time":90.50312499999941,"value":0.5748031496062992},{"number":64,"time":90.53541666666608,"value":0.6062992125984252},{"number":64,"time":90.53645833333275,"value":0.6062992125984252},{"number":64,"time":90.5593749999994,"value":0.6377952755905512},{"number":64,"time":90.56041666666607,"value":0.6377952755905512},{"number":64,"time":93.21041666666608,"value":0.5984251968503937},{"number":64,"time":93.21041666666608,"value":0.5984251968503937},{"number":64,"time":93.22604166666608,"value":0.5669291338582677},{"number":64,"time":93.22604166666608,"value":0.5669291338582677},{"number":64,"time":93.2374999999994,"value":0.5275590551181102},{"number":64,"time":93.23854166666607,"value":0.5275590551181102},{"number":64,"time":93.24583333333273,"value":0.49606299212598426},{"number":64,"time":93.24687499999939,"value":0.49606299212598426},{"number":64,"time":93.26354166666606,"value":0.4015748031496063},{"number":64,"time":93.26354166666606,"value":0.4015748031496063},{"number":64,"time":93.28229166666605,"value":0.2992125984251969},{"number":64,"time":93.28333333333272,"value":0.2992125984251969},{"number":64,"time":93.39374999999939,"value":0.4015748031496063},{"number":64,"time":93.39479166666605,"value":0.4015748031496063},{"number":64,"time":93.40624999999939,"value":0.47244094488188976},{"number":64,"time":93.40729166666605,"value":0.47244094488188976},{"number":64,"time":93.42187499999939,"value":0.5039370078740157},{"number":64,"time":93.42291666666605,"value":0.5039370078740157},{"number":64,"time":93.44999999999939,"value":0.5354330708661418},{"number":64,"time":93.44999999999939,"value":0.5354330708661418},{"number":64,"time":93.48645833333272,"value":0.5669291338582677},{"number":64,"time":93.48645833333272,"value":0.5669291338582677},{"number":64,"time":93.51354166666606,"value":0.5984251968503937},{"number":64,"time":93.51562499999939,"value":0.5984251968503937},{"number":64,"time":93.54166666666606,"value":0.6299212598425197},{"number":64,"time":93.54270833333273,"value":0.6299212598425197},{"number":64,"time":96.13645833333268,"value":0.5984251968503937},{"number":64,"time":96.13749999999935,"value":0.5984251968503937},{"number":64,"time":96.15312499999933,"value":0.5669291338582677},{"number":64,"time":96.154166666666,"value":0.5669291338582677},{"number":64,"time":96.16458333333267,"value":0.5354330708661418},{"number":64,"time":96.16562499999934,"value":0.5354330708661418},{"number":64,"time":96.172916666666,"value":0.5039370078740157},{"number":64,"time":96.17395833333266,"value":0.5039370078740157},{"number":64,"time":96.18124999999932,"value":0.47244094488188976},{"number":64,"time":96.18229166666599,"value":0.47244094488188976},{"number":64,"time":96.19270833333266,"value":0.3779527559055118},{"number":64,"time":96.19374999999933,"value":0.3779527559055118},{"number":64,"time":96.24479166666599,"value":0.2755905511811024},{"number":64,"time":96.24583333333266,"value":0.2755905511811024},{"number":64,"time":96.33333333333266,"value":0.3779527559055118},{"number":64,"time":96.33333333333266,"value":0.3779527559055118},{"number":64,"time":96.357291666666,"value":0.47244094488188976},{"number":64,"time":96.357291666666,"value":0.47244094488188976},{"number":64,"time":96.38437499999934,"value":0.5039370078740157},{"number":64,"time":96.385416666666,"value":0.5039370078740157},{"number":64,"time":96.416666666666,"value":0.5354330708661418},{"number":64,"time":96.41770833333267,"value":0.5354330708661418},{"number":64,"time":96.44895833333267,"value":0.5669291338582677},{"number":64,"time":96.44999999999933,"value":0.5669291338582677},{"number":64,"time":96.48124999999933,"value":0.5984251968503937},{"number":64,"time":96.482291666666,"value":0.5984251968503937},{"number":64,"time":96.53645833333267,"value":0.6299212598425197},{"number":64,"time":96.53749999999934,"value":0.6299212598425197},{"number":64,"time":99.19479166666596,"value":0.5984251968503937},{"number":64,"time":99.19479166666596,"value":0.5984251968503937},{"number":64,"time":99.21562499999929,"value":0.5669291338582677},{"number":64,"time":99.21562499999929,"value":0.5669291338582677},{"number":64,"time":99.22291666666595,"value":0.5354330708661418},{"number":64,"time":99.22395833333262,"value":0.5354330708661418},{"number":64,"time":99.23124999999928,"value":0.5039370078740157},{"number":64,"time":99.23124999999928,"value":0.5039370078740157},{"number":64,"time":99.23854166666594,"value":0.47244094488188976},{"number":64,"time":99.2395833333326,"value":0.47244094488188976},{"number":64,"time":99.25104166666594,"value":0.3779527559055118},{"number":64,"time":99.2520833333326,"value":0.3779527559055118},{"number":64,"time":99.27812499999928,"value":0.2755905511811024},{"number":64,"time":99.27916666666594,"value":0.2755905511811024},{"number":64,"time":99.32291666666595,"value":0.18110236220472442},{"number":64,"time":99.32395833333261,"value":0.18110236220472442},{"number":64,"time":99.41458333333262,"value":0.2992125984251969},{"number":64,"time":99.41562499999928,"value":0.2992125984251969},{"number":64,"time":99.43854166666594,"value":0.4015748031496063},{"number":64,"time":99.4395833333326,"value":0.4015748031496063},{"number":64,"time":99.45104166666594,"value":0.47244094488188976},{"number":64,"time":99.45208333333261,"value":0.47244094488188976},{"number":64,"time":99.4708333333326,"value":0.5039370078740157},{"number":64,"time":99.47187499999927,"value":0.5039370078740157},{"number":64,"time":99.49062499999927,"value":0.5354330708661418},{"number":64,"time":99.49166666666594,"value":0.5354330708661418},{"number":64,"time":99.52291666666594,"value":0.5669291338582677},{"number":64,"time":99.5239583333326,"value":0.5669291338582677},{"number":64,"time":99.55104166666594,"value":0.5984251968503937},{"number":64,"time":99.5520833333326,"value":0.5984251968503937},{"number":64,"time":99.5864583333326,"value":0.6299212598425197},{"number":64,"time":99.58749999999927,"value":0.6299212598425197},{"number":64,"time":102.1458333333326,"value":0.5984251968503937},{"number":64,"time":102.14687499999927,"value":0.5984251968503937},{"number":64,"time":102.16562499999927,"value":0.5590551181102362},{"number":64,"time":102.16666666666593,"value":0.5590551181102362},{"number":64,"time":102.17395833333259,"value":0.5275590551181102},{"number":64,"time":102.17499999999926,"value":0.5275590551181102},{"number":64,"time":102.18124999999925,"value":0.49606299212598426},{"number":64,"time":102.18229166666592,"value":0.49606299212598426},{"number":64,"time":102.19791666666592,"value":0.4015748031496063},{"number":64,"time":102.19895833333258,"value":0.4015748031496063},{"number":64,"time":102.21354166666592,"value":0.2992125984251969},{"number":64,"time":102.21458333333258,"value":0.2992125984251969},{"number":64,"time":102.24166666666592,"value":0.2047244094488189},{"number":64,"time":102.24270833333259,"value":0.2047244094488189},{"number":64,"time":102.26562499999926,"value":0.10236220472440945},{"number":64,"time":102.26562499999926,"value":0.10236220472440945},{"number":64,"time":102.34999999999926,"value":0.2283464566929134},{"number":64,"time":102.35104166666592,"value":0.2283464566929134},{"number":64,"time":102.36145833333259,"value":0.3543307086614173},{"number":64,"time":102.36249999999926,"value":0.3543307086614173},{"number":64,"time":102.3739583333326,"value":0.47244094488188976},{"number":64,"time":102.37499999999926,"value":0.47244094488188976},{"number":64,"time":102.38541666666593,"value":0.5039370078740157},{"number":64,"time":102.3864583333326,"value":0.5039370078740157},{"number":64,"time":102.4177083333326,"value":0.5354330708661418},{"number":64,"time":102.41874999999926,"value":0.5354330708661418},{"number":64,"time":102.45416666666593,"value":0.5669291338582677},{"number":64,"time":102.45520833333259,"value":0.5669291338582677},{"number":64,"time":102.47708333333259,"value":0.5984251968503937},{"number":64,"time":102.47812499999925,"value":0.5984251968503937},{"number":64,"time":102.50208333333259,"value":0.6377952755905512},{"number":64,"time":102.50208333333259,"value":0.6377952755905512},{"number":64,"time":102.64583333333259,"value":0.7322834645669292},{"number":64,"time":102.64687499999926,"value":0.7322834645669292},{"number":64,"time":105.3083333333326,"value":0.6535433070866141},{"number":64,"time":105.30937499999926,"value":0.6535433070866141},{"number":64,"time":105.32812499999926,"value":0.6141732283464567},{"number":64,"time":105.32916666666593,"value":0.6141732283464567},{"number":64,"time":105.34062499999926,"value":0.5826771653543307},{"number":64,"time":105.34166666666593,"value":0.5826771653543307},{"number":64,"time":105.3520833333326,"value":0.5354330708661418},{"number":64,"time":105.35312499999927,"value":0.5354330708661418},{"number":64,"time":105.36041666666593,"value":0.4881889763779528},{"number":64,"time":105.36145833333259,"value":0.4881889763779528},{"number":64,"time":105.36874999999925,"value":0.4015748031496063},{"number":64,"time":105.36979166666592,"value":0.4015748031496063},{"number":64,"time":105.37604166666591,"value":0.2992125984251969},{"number":64,"time":105.37708333333258,"value":0.2992125984251969},{"number":64,"time":105.39270833333258,"value":0.2047244094488189},{"number":64,"time":105.39374999999924,"value":0.2047244094488189},{"number":64,"time":105.41249999999924,"value":0.10236220472440945},{"number":64,"time":105.4135416666659,"value":0.10236220472440945},{"number":64,"time":105.43645833333257,"value":0},{"number":64,"time":105.43645833333257,"value":0},{"number":64,"time":105.50833333333257,"value":0.10236220472440945},{"number":64,"time":105.50937499999924,"value":0.10236220472440945},{"number":64,"time":105.51562499999923,"value":0.2047244094488189},{"number":64,"time":105.5166666666659,"value":0.2047244094488189},{"number":64,"time":105.52708333333257,"value":0.33070866141732286},{"number":64,"time":105.52812499999924,"value":0.33070866141732286},{"number":64,"time":105.53958333333257,"value":0.44881889763779526},{"number":64,"time":105.54062499999924,"value":0.44881889763779526},{"number":64,"time":105.54687499999923,"value":0.4881889763779528},{"number":64,"time":105.5479166666659,"value":0.4881889763779528},{"number":64,"time":105.5635416666659,"value":0.5196850393700787},{"number":64,"time":105.56458333333256,"value":0.5196850393700787},{"number":64,"time":105.59895833333256,"value":0.5511811023622047},{"number":64,"time":105.59895833333256,"value":0.5511811023622047},{"number":64,"time":105.63020833333256,"value":0.5826771653543307},{"number":64,"time":105.63124999999923,"value":0.5826771653543307},{"number":64,"time":105.65416666666589,"value":0.6141732283464567},{"number":64,"time":105.65520833333255,"value":0.6141732283464567},{"number":64,"time":105.7499999999992,"value":0.6456692913385826},{"number":64,"time":105.75104166666587,"value":0.6456692913385826},{"number":64,"time":108.28541666666587,"value":0.6141732283464567},{"number":64,"time":108.28645833333253,"value":0.6141732283464567},{"number":64,"time":108.29791666666587,"value":0.5826771653543307},{"number":64,"time":108.29895833333254,"value":0.5826771653543307},{"number":64,"time":108.30729166666586,"value":0.5511811023622047},{"number":64,"time":108.30729166666586,"value":0.5511811023622047},{"number":64,"time":108.31354166666586,"value":0.5039370078740157},{"number":64,"time":108.31458333333252,"value":0.5039370078740157},{"number":64,"time":108.31979166666585,"value":0.47244094488188976},{"number":64,"time":108.31979166666585,"value":0.47244094488188976},{"number":64,"time":108.32395833333251,"value":0.33070866141732286},{"number":64,"time":108.32499999999918,"value":0.33070866141732286},{"number":64,"time":108.33333333333252,"value":0.2283464566929134},{"number":64,"time":108.33437499999918,"value":0.2283464566929134},{"number":64,"time":108.34062499999918,"value":0.12598425196850394},{"number":64,"time":108.34166666666584,"value":0.12598425196850394},{"number":64,"time":108.35729166666584,"value":0.031496062992125984},{"number":64,"time":108.35833333333251,"value":0.031496062992125984},{"number":64,"time":108.3645833333325,"value":0},{"number":64,"time":108.36562499999917,"value":0},{"number":64,"time":108.44479166666584,"value":0.10236220472440945},{"number":64,"time":108.4458333333325,"value":0.10236220472440945},{"number":64,"time":108.4520833333325,"value":0.2283464566929134},{"number":64,"time":108.45312499999916,"value":0.2283464566929134},{"number":64,"time":108.46041666666582,"value":0.3543307086614173},{"number":64,"time":108.46145833333249,"value":0.3543307086614173},{"number":64,"time":108.46770833333248,"value":0.47244094488188976},{"number":64,"time":108.46979166666581,"value":0.47244094488188976},{"number":64,"time":108.47604166666581,"value":0.5039370078740157},{"number":64,"time":108.47708333333247,"value":0.5039370078740157},{"number":64,"time":108.48437499999913,"value":0.5354330708661418},{"number":64,"time":108.4854166666658,"value":0.5354330708661418},{"number":64,"time":108.50937499999914,"value":0.5669291338582677},{"number":64,"time":108.5104166666658,"value":0.5669291338582677},{"number":64,"time":108.5479166666658,"value":0.5984251968503937},{"number":64,"time":108.54895833333246,"value":0.5984251968503937},{"number":64,"time":108.57187499999912,"value":0.6299212598425197},{"number":64,"time":108.57291666666579,"value":0.6299212598425197},{"number":64,"time":108.66562499999912,"value":0.7322834645669292},{"number":64,"time":108.66666666666579,"value":0.7322834645669292},{"number":64,"time":111.6468749999991,"value":0.6535433070866141},{"number":64,"time":111.64791666666576,"value":0.6535433070866141},{"number":64,"time":111.65520833333242,"value":0.6141732283464567},{"number":64,"time":111.65520833333242,"value":0.6141732283464567},{"number":64,"time":111.66770833333243,"value":0.5748031496062992},{"number":64,"time":111.6687499999991,"value":0.5748031496062992},{"number":64,"time":111.67604166666575,"value":0.5433070866141733},{"number":64,"time":111.67708333333242,"value":0.5433070866141733},{"number":64,"time":111.68333333333241,"value":0.4881889763779528},{"number":64,"time":111.68437499999908,"value":0.4881889763779528},{"number":64,"time":111.69166666666574,"value":0.4015748031496063},{"number":64,"time":111.6927083333324,"value":0.4015748031496063},{"number":64,"time":111.6989583333324,"value":0.2992125984251969},{"number":64,"time":111.69999999999906,"value":0.2992125984251969},{"number":64,"time":111.7145833333324,"value":0.2047244094488189},{"number":64,"time":111.71666666666573,"value":0.2047244094488189},{"number":64,"time":111.74374999999907,"value":0.10236220472440945},{"number":64,"time":111.74479166666573,"value":0.10236220472440945},{"number":64,"time":111.77499999999907,"value":0},{"number":64,"time":111.77499999999907,"value":0},{"number":64,"time":111.84374999999906,"value":0.10236220472440945},{"number":64,"time":111.84479166666573,"value":0.10236220472440945},{"number":64,"time":111.8552083333324,"value":0.2283464566929134},{"number":64,"time":111.85624999999906,"value":0.2283464566929134},{"number":64,"time":111.8677083333324,"value":0.33070866141732286},{"number":64,"time":111.8677083333324,"value":0.33070866141732286},{"number":64,"time":111.87916666666574,"value":0.44881889763779526},{"number":64,"time":111.8802083333324,"value":0.44881889763779526},{"number":64,"time":111.89166666666574,"value":0.4881889763779528},{"number":64,"time":111.89166666666574,"value":0.4881889763779528},{"number":64,"time":111.92291666666574,"value":0.5196850393700787},{"number":64,"time":111.92395833333241,"value":0.5196850393700787},{"number":64,"time":111.95104166666574,"value":0.5511811023622047},{"number":64,"time":111.95104166666574,"value":0.5511811023622047},{"number":64,"time":111.98333333333241,"value":0.5826771653543307},{"number":64,"time":111.98437499999908,"value":0.5826771653543307},{"number":64,"time":112.02291666666574,"value":0.6141732283464567},{"number":64,"time":112.0239583333324,"value":0.6141732283464567},{"number":64,"time":112.47916666666575,"value":0.6456692913385826},{"number":64,"time":112.48020833333241,"value":0.6456692913385826},{"number":64,"time":112.77083333333242,"value":0.6141732283464567},{"number":64,"time":112.77187499999908,"value":0.6141732283464567},{"number":64,"time":112.79479166666574,"value":0.5826771653543307},{"number":64,"time":112.79583333333241,"value":0.5826771653543307},{"number":64,"time":112.81145833333241,"value":0.5511811023622047},{"number":64,"time":112.81249999999908,"value":0.5511811023622047},{"number":64,"time":112.82291666666575,"value":0.5118110236220472},{"number":64,"time":112.82395833333241,"value":0.5118110236220472},{"number":64,"time":112.83541666666575,"value":0.48031496062992124},{"number":64,"time":112.83645833333242,"value":0.48031496062992124},{"number":64,"time":113.00729166666575,"value":0.5118110236220472},{"number":64,"time":113.00833333333242,"value":0.5118110236220472},{"number":64,"time":113.04687499999908,"value":0.5433070866141733},{"number":64,"time":113.04791666666574,"value":0.5433070866141733},{"number":64,"time":113.09479166666574,"value":0.5748031496062992},{"number":64,"time":113.09583333333241,"value":0.5748031496062992},{"number":64,"time":113.15937499999907,"value":0.6062992125984252},{"number":64,"time":113.16041666666574,"value":0.6062992125984252},{"number":64,"time":113.30312499999907,"value":0.6377952755905512},{"number":64,"time":113.30312499999907,"value":0.6377952755905512},{"number":64,"time":114.8458333333324,"value":0.6062992125984252},{"number":64,"time":114.84687499999906,"value":0.6062992125984252},{"number":64,"time":114.89374999999906,"value":0.5669291338582677},{"number":64,"time":114.89479166666572,"value":0.5669291338582677},{"number":64,"time":114.91770833333238,"value":0.5354330708661418},{"number":64,"time":114.91874999999905,"value":0.5354330708661418},{"number":64,"time":114.93854166666571,"value":0.5039370078740157},{"number":64,"time":114.93958333333238,"value":0.5039370078740157},{"number":64,"time":114.97604166666571,"value":0.4015748031496063},{"number":64,"time":114.97708333333237,"value":0.4015748031496063},{"number":64,"time":114.9979166666657,"value":0.2992125984251969},{"number":64,"time":114.99895833333237,"value":0.2992125984251969},{"number":64,"time":115.18229166666569,"value":0.4015748031496063},{"number":64,"time":115.18333333333236,"value":0.4015748031496063},{"number":64,"time":115.19791666666569,"value":0.47244094488188976},{"number":64,"time":115.19895833333236,"value":0.47244094488188976},{"number":64,"time":115.22187499999902,"value":0.5039370078740157},{"number":64,"time":115.22291666666568,"value":0.5039370078740157},{"number":64,"time":115.27395833333235,"value":0.5354330708661418},{"number":64,"time":115.27395833333235,"value":0.5354330708661418},{"number":64,"time":115.32291666666568,"value":0.5669291338582677},{"number":64,"time":115.32395833333234,"value":0.5669291338582677},{"number":64,"time":115.406249999999,"value":0.5984251968503937},{"number":64,"time":115.40729166666567,"value":0.5984251968503937},{"number":64,"time":115.63020833333233,"value":0.6299212598425197},{"number":64,"time":115.631249999999,"value":0.6299212598425197},{"number":64,"time":117.87291666666566,"value":0.5984251968503937},{"number":64,"time":117.87395833333233,"value":0.5984251968503937},{"number":64,"time":117.90104166666566,"value":0.5669291338582677},{"number":64,"time":117.90208333333233,"value":0.5669291338582677},{"number":64,"time":117.912499999999,"value":0.5275590551181102},{"number":64,"time":117.91354166666567,"value":0.5275590551181102},{"number":64,"time":117.92083333333233,"value":0.4881889763779528},{"number":64,"time":117.92083333333233,"value":0.4881889763779528},{"number":64,"time":117.93333333333233,"value":0.4015748031496063},{"number":64,"time":117.93333333333233,"value":0.4015748031496063},{"number":64,"time":117.94895833333233,"value":0.2755905511811024},{"number":64,"time":117.949999999999,"value":0.2755905511811024},{"number":64,"time":117.99270833333233,"value":0.18110236220472442},{"number":64,"time":117.993749999999,"value":0.18110236220472442},{"number":64,"time":118.10104166666567,"value":0.2992125984251969},{"number":64,"time":118.10208333333233,"value":0.2992125984251969},{"number":64,"time":118.11979166666566,"value":0.4015748031496063},{"number":64,"time":118.12083333333233,"value":0.4015748031496063},{"number":64,"time":118.13958333333233,"value":0.48031496062992124},{"number":64,"time":118.14062499999899,"value":0.48031496062992124},{"number":64,"time":118.17291666666566,"value":0.5118110236220472},{"number":64,"time":118.17395833333232,"value":0.5118110236220472},{"number":64,"time":118.22083333333232,"value":0.5433070866141733},{"number":64,"time":118.22083333333232,"value":0.5433070866141733},{"number":64,"time":118.26979166666565,"value":0.5748031496062992},{"number":64,"time":118.27083333333232,"value":0.5748031496062992},{"number":64,"time":118.39374999999899,"value":0.6062992125984252},{"number":64,"time":118.39479166666565,"value":0.6062992125984252},{"number":64,"time":118.78124999999899,"value":0.6377952755905512},{"number":64,"time":118.78229166666566,"value":0.6377952755905512},{"number":64,"time":120.50312499999899,"value":0.6062992125984252},{"number":64,"time":120.50416666666565,"value":0.6062992125984252},{"number":64,"time":120.55104166666565,"value":0.5748031496062992},{"number":64,"time":120.55208333333232,"value":0.5748031496062992},{"number":64,"time":120.57499999999898,"value":0.5433070866141733},{"number":64,"time":120.57604166666565,"value":0.5433070866141733},{"number":64,"time":120.59062499999898,"value":0.5118110236220472},{"number":64,"time":120.59166666666565,"value":0.5118110236220472},{"number":64,"time":120.60729166666565,"value":0.48031496062992124},{"number":64,"time":120.60729166666565,"value":0.48031496062992124},{"number":64,"time":120.63854166666565,"value":0.3779527559055118},{"number":64,"time":120.63958333333231,"value":0.3779527559055118},{"number":64,"time":120.67083333333231,"value":0.2755905511811024},{"number":64,"time":120.67187499999898,"value":0.2755905511811024},{"number":64,"time":120.69895833333231,"value":0.18110236220472442},{"number":64,"time":120.69999999999898,"value":0.18110236220472442},{"number":64,"time":120.71874999999898,"value":0.05511811023622047},{"number":64,"time":120.71874999999898,"value":0.05511811023622047},{"number":64,"time":120.73541666666564,"value":0},{"number":64,"time":120.73645833333231,"value":0},{"number":64,"time":121.00312499999897,"value":0.12598425196850394},{"number":64,"time":121.00416666666564,"value":0.12598425196850394},{"number":64,"time":121.01041666666563,"value":0.2283464566929134},{"number":64,"time":121.0114583333323,"value":0.2283464566929134},{"number":64,"time":121.02291666666564,"value":0.33070866141732286},{"number":64,"time":121.0239583333323,"value":0.33070866141732286},{"number":64,"time":121.0989583333323,"value":0.44881889763779526},{"number":64,"time":121.09999999999897,"value":0.44881889763779526},{"number":64,"time":121.11041666666564,"value":0.48031496062992124},{"number":64,"time":121.11145833333231,"value":0.48031496062992124},{"number":64,"time":121.14270833333231,"value":0.5118110236220472},{"number":64,"time":121.14270833333231,"value":0.5118110236220472},{"number":64,"time":121.26354166666565,"value":0.5433070866141733},{"number":64,"time":121.26458333333231,"value":0.5433070866141733},{"number":64,"time":121.3958333333323,"value":0.5748031496062992},{"number":64,"time":121.3958333333323,"value":0.5748031496062992},{"number":64,"time":121.53124999999898,"value":0.6062992125984252},{"number":64,"time":121.53124999999898,"value":0.6062992125984252},{"number":64,"time":122.12187499999898,"value":0.6377952755905512},{"number":64,"time":122.12291666666565,"value":0.6377952755905512},{"number":64,"time":123.53333333333231,"value":0.5984251968503937},{"number":64,"time":123.53437499999897,"value":0.5984251968503937},{"number":64,"time":123.54999999999897,"value":0.5669291338582677},{"number":64,"time":123.55104166666564,"value":0.5669291338582677},{"number":64,"time":123.56145833333231,"value":0.5275590551181102},{"number":64,"time":123.56249999999898,"value":0.5275590551181102},{"number":64,"time":123.56979166666564,"value":0.4881889763779528},{"number":64,"time":123.5708333333323,"value":0.4881889763779528},{"number":64,"time":123.58541666666564,"value":0.3779527559055118},{"number":64,"time":123.5864583333323,"value":0.3779527559055118},{"number":64,"time":123.68541666666565,"value":0.48031496062992124},{"number":64,"time":123.68645833333231,"value":0.48031496062992124},{"number":64,"time":123.70937499999897,"value":0.5118110236220472},{"number":64,"time":123.71041666666564,"value":0.5118110236220472},{"number":64,"time":123.7333333333323,"value":0.5433070866141733},{"number":64,"time":123.73437499999896,"value":0.5433070866141733},{"number":64,"time":123.76979166666563,"value":0.5748031496062992},{"number":64,"time":123.77083333333229,"value":0.5748031496062992},{"number":64,"time":123.82604166666563,"value":0.6062992125984252},{"number":64,"time":123.8270833333323,"value":0.6062992125984252},{"number":64,"time":123.9052083333323,"value":0.6377952755905512},{"number":64,"time":123.90624999999896,"value":0.6377952755905512},{"number":64,"time":124.4458333333323,"value":0.6062992125984252},{"number":64,"time":124.44687499999897,"value":0.6062992125984252},{"number":64,"time":124.46458333333231,"value":0.5748031496062992},{"number":64,"time":124.46562499999898,"value":0.5748031496062992},{"number":64,"time":124.47708333333232,"value":0.5433070866141733},{"number":64,"time":124.47812499999898,"value":0.5433070866141733},{"number":64,"time":124.48437499999898,"value":0.5118110236220472},{"number":64,"time":124.48541666666564,"value":0.5118110236220472},{"number":64,"time":124.4927083333323,"value":0.48031496062992124},{"number":64,"time":124.4927083333323,"value":0.48031496062992124},{"number":64,"time":124.50937499999897,"value":0.3779527559055118},{"number":64,"time":124.51041666666563,"value":0.3779527559055118},{"number":64,"time":124.5614583333323,"value":0.2755905511811024},{"number":64,"time":124.56249999999896,"value":0.2755905511811024},{"number":64,"time":124.8364583333323,"value":0.3779527559055118},{"number":64,"time":124.83749999999897,"value":0.3779527559055118},{"number":64,"time":124.87708333333231,"value":0.47244094488188976},{"number":64,"time":124.87812499999897,"value":0.47244094488188976},{"number":64,"time":124.90208333333231,"value":0.5039370078740157},{"number":64,"time":124.90208333333231,"value":0.5039370078740157},{"number":64,"time":124.92499999999897,"value":0.5354330708661418},{"number":64,"time":124.92604166666564,"value":0.5354330708661418},{"number":64,"time":124.96041666666564,"value":0.5669291338582677},{"number":64,"time":124.9614583333323,"value":0.5669291338582677},{"number":64,"time":125.0052083333323,"value":0.5984251968503937},{"number":64,"time":125.00624999999897,"value":0.5984251968503937},{"number":64,"time":125.06874999999897,"value":0.6299212598425197},{"number":64,"time":125.06979166666564,"value":0.6299212598425197},{"number":64,"time":126.2489583333323,"value":0.5984251968503937},{"number":64,"time":126.2489583333323,"value":0.5984251968503937},{"number":64,"time":126.26874999999896,"value":0.5669291338582677},{"number":64,"time":126.26979166666563,"value":0.5669291338582677},{"number":64,"time":126.28437499999896,"value":0.5354330708661418},{"number":64,"time":126.28541666666563,"value":0.5354330708661418},{"number":64,"time":126.29687499999896,"value":0.5039370078740157},{"number":64,"time":126.29791666666563,"value":0.5039370078740157},{"number":64,"time":126.31666666666563,"value":0.47244094488188976},{"number":64,"time":126.31770833333229,"value":0.47244094488188976},{"number":64,"time":126.34895833333229,"value":0.3779527559055118},{"number":64,"time":126.34895833333229,"value":0.3779527559055118},{"number":64,"time":126.38020833333229,"value":0.2755905511811024},{"number":64,"time":126.38124999999896,"value":0.2755905511811024},{"number":64,"time":126.40104166666562,"value":0.18110236220472442},{"number":64,"time":126.40104166666562,"value":0.18110236220472442},{"number":64,"time":126.42083333333228,"value":0.07874015748031496},{"number":64,"time":126.42187499999895,"value":0.07874015748031496},{"number":64,"time":126.43645833333228,"value":0},{"number":64,"time":126.43645833333228,"value":0},{"number":64,"time":127.42812499999896,"value":0.12598425196850394},{"number":64,"time":127.42812499999896,"value":0.12598425196850394},{"number":64,"time":127.4364583333323,"value":0.2283464566929134},{"number":64,"time":127.4364583333323,"value":0.2283464566929134},{"number":64,"time":127.44687499999897,"value":0.33070866141732286},{"number":64,"time":127.4489583333323,"value":0.33070866141732286},{"number":64,"time":127.47499999999897,"value":0.44881889763779526},{"number":64,"time":127.47604166666564,"value":0.44881889763779526},{"number":64,"time":127.50729166666564,"value":0.48031496062992124},{"number":64,"time":127.5083333333323,"value":0.48031496062992124},{"number":64,"time":127.54374999999897,"value":0.5196850393700787},{"number":64,"time":127.54479166666563,"value":0.5196850393700787},{"number":64,"time":127.57604166666563,"value":0.5511811023622047},{"number":64,"time":127.5770833333323,"value":0.5511811023622047},{"number":64,"time":127.62291666666563,"value":0.5826771653543307},{"number":64,"time":127.62499999999896,"value":0.5826771653543307},{"number":64,"time":127.66354166666562,"value":0.6141732283464567},{"number":64,"time":127.66458333333229,"value":0.6141732283464567},{"number":64,"time":127.73958333333229,"value":0.6456692913385826},{"number":64,"time":127.74062499999896,"value":0.6456692913385826},{"number":64,"time":128.2395833333323,"value":0.7559055118110236},{"number":64,"time":128.24062499999897,"value":0.7559055118110236},{"number":64,"time":128.78749999999897,"value":0.6614173228346457},{"number":64,"time":128.78854166666565,"value":0.6614173228346457},{"number":64,"time":128.80729166666566,"value":0.6299212598425197},{"number":64,"time":128.80729166666566,"value":0.6299212598425197},{"number":64,"time":128.82395833333234,"value":0.5905511811023622},{"number":64,"time":128.82499999999902,"value":0.5905511811023622},{"number":64,"time":128.83541666666568,"value":0.5590551181102362},{"number":64,"time":128.83645833333236,"value":0.5590551181102362},{"number":64,"time":128.84270833333235,"value":0.5275590551181102},{"number":64,"time":128.84374999999903,"value":0.5275590551181102},{"number":64,"time":128.85208333333236,"value":0.49606299212598426},{"number":64,"time":128.85208333333236,"value":0.49606299212598426},{"number":64,"time":128.86249999999902,"value":0.4015748031496063},{"number":64,"time":128.8635416666657,"value":0.4015748031496063},{"number":64,"time":128.88229166666568,"value":0.2992125984251969},{"number":64,"time":128.88229166666568,"value":0.2992125984251969},{"number":64,"time":128.915624999999,"value":0.2047244094488189},{"number":64,"time":128.9166666666657,"value":0.2047244094488189},{"number":64,"time":128.931249999999,"value":0.10236220472440945},{"number":64,"time":128.9322916666657,"value":0.10236220472440945},{"number":64,"time":128.94374999999903,"value":0},{"number":64,"time":128.9447916666657,"value":0},{"number":64,"time":129.35416666666572,"value":0.12598425196850394},{"number":64,"time":129.3552083333324,"value":0.12598425196850394},{"number":64,"time":129.36354166666572,"value":0.2283464566929134},{"number":64,"time":129.3645833333324,"value":0.2283464566929134},{"number":64,"time":129.37812499999907,"value":0.33070866141732286},{"number":64,"time":129.37916666666575,"value":0.33070866141732286},{"number":64,"time":129.43958333333242,"value":0.44881889763779526},{"number":64,"time":129.4406249999991,"value":0.44881889763779526},{"number":64,"time":129.45520833333242,"value":0.48031496062992124},{"number":64,"time":129.4562499999991,"value":0.48031496062992124},{"number":64,"time":129.48229166666576,"value":0.5118110236220472},{"number":64,"time":129.48229166666576,"value":0.5118110236220472},{"number":64,"time":129.53541666666575,"value":0.5433070866141733},{"number":64,"time":129.53645833333243,"value":0.5433070866141733},{"number":64,"time":129.59895833333243,"value":0.5748031496062992},{"number":64,"time":129.5999999999991,"value":0.5748031496062992},{"number":64,"time":129.67083333333244,"value":0.6062992125984252},{"number":64,"time":129.67083333333244,"value":0.6062992125984252},{"number":64,"time":129.79687499999912,"value":0.6377952755905512},{"number":64,"time":129.7979166666658,"value":0.6377952755905512},{"number":64,"time":130.03333333333248,"value":0.7322834645669292},{"number":64,"time":130.03333333333248,"value":0.7322834645669292},{"number":64,"time":131.50937499999912,"value":0.6535433070866141},{"number":64,"time":131.5104166666658,"value":0.6535433070866141},{"number":64,"time":131.52916666666582,"value":0.6220472440944882},{"number":64,"time":131.5302083333325,"value":0.6220472440944882},{"number":64,"time":131.5489583333325,"value":0.5905511811023622},{"number":64,"time":131.5499999999992,"value":0.5905511811023622},{"number":64,"time":131.56979166666585,"value":0.5590551181102362},{"number":64,"time":131.56979166666585,"value":0.5590551181102362},{"number":64,"time":131.58541666666585,"value":0.5275590551181102},{"number":64,"time":131.58541666666585,"value":0.5275590551181102},{"number":64,"time":131.60208333333253,"value":0.49606299212598426},{"number":64,"time":131.6031249999992,"value":0.49606299212598426},{"number":64,"time":131.63333333333253,"value":0.4015748031496063},{"number":64,"time":131.6343749999992,"value":0.4015748031496063},{"number":64,"time":131.65729166666586,"value":0.2992125984251969},{"number":64,"time":131.65729166666586,"value":0.2992125984251969},{"number":64,"time":131.68645833333252,"value":0.2047244094488189},{"number":64,"time":131.68645833333252,"value":0.2047244094488189},{"number":64,"time":131.70520833333254,"value":0.10236220472440945},{"number":64,"time":131.70624999999922,"value":0.10236220472440945},{"number":64,"time":131.72499999999923,"value":0},{"number":64,"time":131.7260416666659,"value":0},{"number":64,"time":132.5729166666659,"value":0.12598425196850394},{"number":64,"time":132.57395833333257,"value":0.12598425196850394},{"number":64,"time":132.5822916666659,"value":0.2283464566929134},{"number":64,"time":132.58333333333258,"value":0.2283464566929134},{"number":64,"time":132.59270833333258,"value":0.33070866141732286},{"number":64,"time":132.59374999999926,"value":0.33070866141732286},{"number":64,"time":132.65624999999926,"value":0.44881889763779526},{"number":64,"time":132.65729166666594,"value":0.44881889763779526},{"number":64,"time":132.66874999999928,"value":0.48031496062992124},{"number":64,"time":132.66874999999928,"value":0.48031496062992124},{"number":64,"time":132.69583333333262,"value":0.5196850393700787},{"number":64,"time":132.6968749999993,"value":0.5196850393700787},{"number":64,"time":132.7281249999993,"value":0.5511811023622047},{"number":64,"time":132.72916666666598,"value":0.5511811023622047},{"number":64,"time":132.7843749999993,"value":0.5826771653543307},{"number":64,"time":132.7843749999993,"value":0.5826771653543307},{"number":64,"time":132.83645833333264,"value":0.6141732283464567},{"number":64,"time":132.83749999999932,"value":0.6141732283464567},{"number":64,"time":132.95312499999932,"value":0.6456692913385826},{"number":64,"time":132.954166666666,"value":0.6456692913385826},{"number":64,"time":133.17187499999932,"value":0.7559055118110236},{"number":64,"time":133.172916666666,"value":0.7559055118110236},{"number":64,"time":134.76770833333268,"value":0.6535433070866141},{"number":64,"time":134.76874999999936,"value":0.6535433070866141},{"number":64,"time":134.78854166666602,"value":0.6220472440944882},{"number":64,"time":134.78854166666602,"value":0.6220472440944882},{"number":64,"time":134.80833333333268,"value":0.5905511811023622},{"number":64,"time":134.80937499999936,"value":0.5905511811023622},{"number":64,"time":134.83229166666604,"value":0.5590551181102362},{"number":64,"time":134.83333333333272,"value":0.5590551181102362},{"number":64,"time":134.84791666666604,"value":0.5275590551181102},{"number":64,"time":134.84895833333272,"value":0.5275590551181102},{"number":64,"time":134.86041666666605,"value":0.49606299212598426},{"number":64,"time":134.86145833333273,"value":0.49606299212598426},{"number":64,"time":134.88854166666607,"value":0.3779527559055118},{"number":64,"time":134.88958333333275,"value":0.3779527559055118},{"number":64,"time":134.9156249999994,"value":0.2755905511811024},{"number":64,"time":134.9166666666661,"value":0.2755905511811024},{"number":64,"time":134.94062499999941,"value":0.18110236220472442},{"number":64,"time":134.94062499999941,"value":0.18110236220472442},{"number":64,"time":134.95624999999941,"value":0.07874015748031496},{"number":64,"time":134.9572916666661,"value":0.07874015748031496},{"number":64,"time":134.97187499999941,"value":0},{"number":64,"time":134.9729166666661,"value":0},{"number":64,"time":135.16458333333276,"value":0.10236220472440945},{"number":64,"time":135.16562499999944,"value":0.10236220472440945},{"number":64,"time":135.1760416666661,"value":0.2283464566929134},{"number":64,"time":135.17708333333277,"value":0.2283464566929134},{"number":64,"time":135.18749999999943,"value":0.33070866141732286},{"number":64,"time":135.1885416666661,"value":0.33070866141732286},{"number":64,"time":135.2479166666661,"value":0.44881889763779526},{"number":64,"time":135.24895833333278,"value":0.44881889763779526},{"number":64,"time":135.2677083333328,"value":0.48031496062992124},{"number":64,"time":135.2677083333328,"value":0.48031496062992124},{"number":64,"time":135.29479166666613,"value":0.5118110236220472},{"number":64,"time":135.2958333333328,"value":0.5118110236220472},{"number":64,"time":135.3281249999995,"value":0.5433070866141733},{"number":64,"time":135.3281249999995,"value":0.5433070866141733},{"number":64,"time":135.4312499999995,"value":0.5748031496062992},{"number":64,"time":135.43229166666617,"value":0.5748031496062992},{"number":64,"time":135.4874999999995,"value":0.6062992125984252},{"number":64,"time":135.48854166666618,"value":0.6062992125984252},{"number":64,"time":135.63541666666617,"value":0.6377952755905512},{"number":64,"time":135.63645833333285,"value":0.6377952755905512},{"number":64,"time":136.33124999999953,"value":0.7322834645669292},{"number":64,"time":136.3322916666662,"value":0.7322834645669292},{"number":64,"time":137.3916666666662,"value":0.6535433070866141},{"number":64,"time":137.3916666666662,"value":0.6535433070866141},{"number":64,"time":137.41874999999953,"value":0.6220472440944882},{"number":64,"time":137.4197916666662,"value":0.6220472440944882},{"number":64,"time":137.4427083333329,"value":0.5905511811023622},{"number":64,"time":137.44374999999957,"value":0.5905511811023622},{"number":64,"time":137.45937499999957,"value":0.5590551181102362},{"number":64,"time":137.46041666666625,"value":0.5590551181102362},{"number":64,"time":137.4708333333329,"value":0.5196850393700787},{"number":64,"time":137.47187499999959,"value":0.5196850393700787},{"number":64,"time":137.48333333333292,"value":0.48031496062992124},{"number":64,"time":137.4843749999996,"value":0.48031496062992124},{"number":64,"time":137.49895833333295,"value":0.3779527559055118},{"number":64,"time":137.49999999999963,"value":0.3779527559055118},{"number":64,"time":137.52708333333297,"value":0.2755905511811024},{"number":64,"time":137.52812499999965,"value":0.2755905511811024},{"number":64,"time":137.55104166666632,"value":0.18110236220472442},{"number":64,"time":137.552083333333,"value":0.18110236220472442},{"number":64,"time":137.56354166666634,"value":0.07874015748031496},{"number":64,"time":137.56354166666634,"value":0.07874015748031496},{"number":64,"time":137.57499999999968,"value":0},{"number":64,"time":137.57499999999968,"value":0},{"number":64,"time":137.83541666666633,"value":0.12598425196850394},{"number":64,"time":137.836458333333,"value":0.12598425196850394},{"number":64,"time":137.84166666666636,"value":0.2283464566929134},{"number":64,"time":137.84270833333304,"value":0.2283464566929134},{"number":64,"time":137.85104166666636,"value":0.33070866141732286},{"number":64,"time":137.85208333333304,"value":0.33070866141732286},{"number":64,"time":137.87395833333304,"value":0.44881889763779526},{"number":64,"time":137.87499999999972,"value":0.44881889763779526},{"number":64,"time":137.91145833333306,"value":0.48031496062992124},{"number":64,"time":137.91249999999974,"value":0.48031496062992124},{"number":64,"time":137.9385416666664,"value":0.5196850393700787},{"number":64,"time":137.93958333333308,"value":0.5196850393700787},{"number":64,"time":137.96249999999975,"value":0.5511811023622047},{"number":64,"time":137.96354166666643,"value":0.5511811023622047},{"number":64,"time":137.99374999999975,"value":0.5826771653543307},{"number":64,"time":137.99479166666643,"value":0.5826771653543307},{"number":64,"time":138.0302083333331,"value":0.6141732283464567},{"number":64,"time":138.03124999999977,"value":0.6141732283464567},{"number":64,"time":138.11041666666645,"value":0.6456692913385826},{"number":64,"time":138.11145833333313,"value":0.6456692913385826},{"number":64,"time":138.63854166666647,"value":0.7559055118110236},{"number":64,"time":138.63958333333315,"value":0.7559055118110236},{"number":64,"time":139.99374999999984,"value":0.6535433070866141},{"number":64,"time":139.99479166666652,"value":0.6535433070866141},{"number":64,"time":140.02083333333317,"value":0.6220472440944882},{"number":64,"time":140.02187499999985,"value":0.6220472440944882},{"number":64,"time":140.04166666666652,"value":0.5905511811023622},{"number":64,"time":140.0427083333332,"value":0.5905511811023622},{"number":64,"time":140.0583333333332,"value":0.5590551181102362},{"number":64,"time":140.0583333333332,"value":0.5590551181102362},{"number":64,"time":140.06874999999985,"value":0.5196850393700787},{"number":64,"time":140.06979166666653,"value":0.5196850393700787},{"number":64,"time":140.07812499999986,"value":0.4881889763779528},{"number":64,"time":140.07916666666654,"value":0.4881889763779528},{"number":64,"time":140.09374999999986,"value":0.4015748031496063},{"number":64,"time":140.09479166666654,"value":0.4015748031496063},{"number":64,"time":140.11666666666653,"value":0.2992125984251969},{"number":64,"time":140.1177083333332,"value":0.2992125984251969},{"number":64,"time":140.14479166666655,"value":0.2047244094488189},{"number":64,"time":140.14583333333323,"value":0.2047244094488189},{"number":64,"time":140.16979166666655,"value":0.10236220472440945},{"number":64,"time":140.17083333333323,"value":0.10236220472440945},{"number":64,"time":140.20104166666655,"value":0},{"number":64,"time":140.20208333333323,"value":0},{"number":64,"time":140.31666666666658,"value":0.10236220472440945},{"number":64,"time":140.31770833333326,"value":0.10236220472440945},{"number":64,"time":140.3291666666666,"value":0.2047244094488189},{"number":64,"time":140.33020833333327,"value":0.2047244094488189},{"number":64,"time":140.3447916666666,"value":0.3543307086614173},{"number":64,"time":140.3447916666666,"value":0.3543307086614173},{"number":64,"time":140.36145833333327,"value":0.47244094488188976},{"number":64,"time":140.36145833333327,"value":0.47244094488188976},{"number":64,"time":140.3729166666666,"value":0.5039370078740157},{"number":64,"time":140.3739583333333,"value":0.5039370078740157},{"number":64,"time":140.4364583333333,"value":0.5354330708661418},{"number":64,"time":140.43749999999997,"value":0.5354330708661418},{"number":64,"time":140.4770833333333,"value":0.5669291338582677},{"number":64,"time":140.47812499999998,"value":0.5669291338582677},{"number":64,"time":140.55208333333331,"value":0.5984251968503937},{"number":64,"time":140.553125,"value":0.5984251968503937},{"number":64,"time":141.1,"value":0.6299212598425197},{"number":64,"time":141.10104166666667,"value":0.6299212598425197},{"number":64,"time":142.63229166666667,"value":0.5984251968503937},{"number":64,"time":142.63229166666667,"value":0.5984251968503937},{"number":64,"time":142.671875,"value":0.5669291338582677},{"number":64,"time":142.67291666666668,"value":0.5669291338582677},{"number":64,"time":142.6916666666667,"value":0.5275590551181102},{"number":64,"time":142.69270833333337,"value":0.5275590551181102},{"number":64,"time":142.7041666666667,"value":0.49606299212598426},{"number":64,"time":142.7052083333334,"value":0.49606299212598426},{"number":64,"time":142.72812500000006,"value":0.4015748031496063},{"number":64,"time":142.72916666666674,"value":0.4015748031496063},{"number":64,"time":142.7593750000001,"value":0.2992125984251969},{"number":64,"time":142.76041666666677,"value":0.2992125984251969},{"number":64,"time":142.77604166666677,"value":0.2047244094488189},{"number":64,"time":142.77708333333345,"value":0.2047244094488189},{"number":64,"time":142.79166666666677,"value":0.10236220472440945},{"number":64,"time":142.79270833333345,"value":0.10236220472440945},{"number":64,"time":142.80833333333345,"value":0},{"number":64,"time":142.80833333333345,"value":0},{"number":64,"time":143.07604166666678,"value":0.12598425196850394},{"number":64,"time":143.07708333333346,"value":0.12598425196850394},{"number":64,"time":143.08437500000014,"value":0.25196850393700787},{"number":64,"time":143.08437500000014,"value":0.25196850393700787},{"number":64,"time":143.09583333333347,"value":0.3779527559055118},{"number":64,"time":143.09583333333347,"value":0.3779527559055118},{"number":64,"time":143.15208333333348,"value":0.47244094488188976},{"number":64,"time":143.15312500000016,"value":0.47244094488188976},{"number":64,"time":143.1802083333335,"value":0.5039370078740157},{"number":64,"time":143.1802083333335,"value":0.5039370078740157},{"number":64,"time":143.20312500000017,"value":0.5354330708661418},{"number":64,"time":143.20416666666685,"value":0.5354330708661418},{"number":64,"time":143.24375000000018,"value":0.5669291338582677},{"number":64,"time":143.24375000000018,"value":0.5669291338582677},{"number":64,"time":143.29166666666686,"value":0.5984251968503937},{"number":64,"time":143.29270833333354,"value":0.5984251968503937},{"number":64,"time":143.36354166666686,"value":0.6299212598425197},{"number":64,"time":143.36458333333354,"value":0.6299212598425197},{"number":64,"time":143.93437500000022,"value":0.7322834645669292},{"number":64,"time":143.9354166666669,"value":0.7322834645669292},{"number":64,"time":145.34270833333355,"value":0.6535433070866141},{"number":64,"time":145.34375000000023,"value":0.6535433070866141},{"number":64,"time":145.37083333333356,"value":0.6220472440944882},{"number":64,"time":145.37187500000024,"value":0.6220472440944882},{"number":64,"time":145.39895833333358,"value":0.5905511811023622},{"number":64,"time":145.40000000000026,"value":0.5905511811023622},{"number":64,"time":145.41875000000027,"value":0.5590551181102362},{"number":64,"time":145.41979166666695,"value":0.5590551181102362},{"number":64,"time":145.43958333333362,"value":0.5275590551181102},{"number":64,"time":145.43958333333362,"value":0.5275590551181102},{"number":64,"time":145.45520833333362,"value":0.49606299212598426},{"number":64,"time":145.4562500000003,"value":0.49606299212598426},{"number":64,"time":145.49479166666697,"value":0.3779527559055118},{"number":64,"time":145.49583333333365,"value":0.3779527559055118},{"number":64,"time":145.53437500000032,"value":0.2755905511811024},{"number":64,"time":145.535416666667,"value":0.2755905511811024},{"number":64,"time":145.579166666667,"value":0.18110236220472442},{"number":64,"time":145.579166666667,"value":0.18110236220472442},{"number":64,"time":145.869791666667,"value":0.2992125984251969},{"number":64,"time":145.87083333333368,"value":0.2992125984251969},{"number":64,"time":145.894791666667,"value":0.4015748031496063},{"number":64,"time":145.89583333333368,"value":0.4015748031496063},{"number":64,"time":145.9145833333337,"value":0.47244094488188976},{"number":64,"time":145.91562500000038,"value":0.47244094488188976},{"number":64,"time":145.9656250000004,"value":0.5039370078740157},{"number":64,"time":145.9656250000004,"value":0.5039370078740157},{"number":64,"time":146.0062500000004,"value":0.5354330708661418},{"number":64,"time":146.00729166666707,"value":0.5354330708661418},{"number":64,"time":146.0625000000004,"value":0.5669291338582677},{"number":64,"time":146.06354166666708,"value":0.5669291338582677},{"number":64,"time":146.1343750000004,"value":0.5984251968503937},{"number":64,"time":146.13541666666708,"value":0.5984251968503937},{"number":64,"time":146.21875000000043,"value":0.6299212598425197},{"number":64,"time":146.21875000000043,"value":0.6299212598425197},{"number":64,"time":146.5260416666671,"value":0.7322834645669292},{"number":64,"time":146.5260416666671,"value":0.7322834645669292},{"number":64,"time":148.23333333333377,"value":0.6535433070866141},{"number":64,"time":148.23437500000045,"value":0.6535433070866141},{"number":64,"time":148.2614583333338,"value":0.6220472440944882},{"number":64,"time":148.2614583333338,"value":0.6220472440944882},{"number":64,"time":148.28229166666713,"value":0.5905511811023622},{"number":64,"time":148.28333333333381,"value":0.5905511811023622},{"number":64,"time":148.30208333333383,"value":0.5590551181102362},{"number":64,"time":148.30208333333383,"value":0.5590551181102362},{"number":64,"time":148.31354166666716,"value":0.5275590551181102},{"number":64,"time":148.31458333333384,"value":0.5275590551181102},{"number":64,"time":148.32187500000052,"value":0.49606299212598426},{"number":64,"time":148.3229166666672,"value":0.49606299212598426},{"number":64,"time":148.35000000000053,"value":0.4015748031496063},{"number":64,"time":148.35104166666721,"value":0.4015748031496063},{"number":64,"time":148.3895833333339,"value":0.2755905511811024},{"number":64,"time":148.39062500000057,"value":0.2755905511811024},{"number":64,"time":148.41354166666724,"value":0.18110236220472442},{"number":64,"time":148.41354166666724,"value":0.18110236220472442},{"number":64,"time":148.4333333333339,"value":0.07874015748031496},{"number":64,"time":148.43437500000059,"value":0.07874015748031496},{"number":64,"time":148.45416666666725,"value":0},{"number":64,"time":148.45416666666725,"value":0},{"number":64,"time":148.70104166666724,"value":0.12598425196850394},{"number":64,"time":148.70104166666724,"value":0.12598425196850394},{"number":64,"time":148.70937500000056,"value":0.2283464566929134},{"number":64,"time":148.70937500000056,"value":0.2283464566929134},{"number":64,"time":148.72187500000055,"value":0.33070866141732286},{"number":64,"time":148.72291666666723,"value":0.33070866141732286},{"number":64,"time":148.7364583333339,"value":0.44881889763779526},{"number":64,"time":148.73750000000058,"value":0.44881889763779526},{"number":64,"time":148.74895833333392,"value":0.48031496062992124},{"number":64,"time":148.7500000000006,"value":0.48031496062992124},{"number":64,"time":148.80104166666726,"value":0.5118110236220472},{"number":64,"time":148.80104166666726,"value":0.5118110236220472},{"number":64,"time":148.84895833333394,"value":0.5511811023622047},{"number":64,"time":148.85000000000062,"value":0.5511811023622047},{"number":64,"time":148.90833333333396,"value":0.5826771653543307},{"number":64,"time":148.90937500000064,"value":0.5826771653543307},{"number":64,"time":148.9854166666673,"value":0.6141732283464567},{"number":64,"time":148.98645833333399,"value":0.6141732283464567},{"number":64,"time":149.18020833333398,"value":0.6456692913385826},{"number":64,"time":149.18125000000066,"value":0.6456692913385826},{"number":64,"time":150.9718750000007,"value":0.6141732283464567},{"number":64,"time":150.9718750000007,"value":0.6141732283464567},{"number":64,"time":150.99583333333402,"value":0.5826771653543307},{"number":64,"time":150.9968750000007,"value":0.5826771653543307},{"number":64,"time":151.0156250000007,"value":0.5511811023622047},{"number":64,"time":151.0166666666674,"value":0.5511811023622047},{"number":64,"time":151.0312500000007,"value":0.5196850393700787},{"number":64,"time":151.0322916666674,"value":0.5196850393700787},{"number":64,"time":151.0479166666674,"value":0.48031496062992124},{"number":64,"time":151.04895833333407,"value":0.48031496062992124},{"number":64,"time":151.08333333333408,"value":0.3779527559055118},{"number":64,"time":151.08437500000076,"value":0.3779527559055118},{"number":64,"time":151.1114583333341,"value":0.2755905511811024},{"number":64,"time":151.1114583333341,"value":0.2755905511811024},{"number":64,"time":151.1364583333341,"value":0.18110236220472442},{"number":64,"time":151.1364583333341,"value":0.18110236220472442},{"number":64,"time":151.15520833333412,"value":0.07874015748031496},{"number":64,"time":151.1562500000008,"value":0.07874015748031496},{"number":64,"time":151.1750000000008,"value":0},{"number":64,"time":151.1760416666675,"value":0},{"number":64,"time":151.3666666666675,"value":0.12598425196850394},{"number":64,"time":151.36770833333418,"value":0.12598425196850394},{"number":64,"time":151.37395833333417,"value":0.2283464566929134},{"number":64,"time":151.37500000000085,"value":0.2283464566929134},{"number":64,"time":151.38229166666753,"value":0.33070866141732286},{"number":64,"time":151.3833333333342,"value":0.33070866141732286},{"number":64,"time":151.39791666666753,"value":0.44881889763779526},{"number":64,"time":151.3989583333342,"value":0.44881889763779526},{"number":64,"time":151.40625000000088,"value":0.48031496062992124},{"number":64,"time":151.40729166666756,"value":0.48031496062992124},{"number":64,"time":151.4625000000009,"value":0.5118110236220472},{"number":64,"time":151.46354166666757,"value":0.5118110236220472},{"number":64,"time":151.49895833333423,"value":0.5511811023622047},{"number":64,"time":151.5000000000009,"value":0.5511811023622047},{"number":64,"time":151.54270833333425,"value":0.5826771653543307},{"number":64,"time":151.54375000000093,"value":0.5826771653543307},{"number":64,"time":151.61458333333425,"value":0.6141732283464567},{"number":64,"time":151.61562500000093,"value":0.6141732283464567},{"number":64,"time":151.73020833333428,"value":0.6456692913385826},{"number":64,"time":151.73125000000095,"value":0.6456692913385826},{"number":64,"time":153.86666666666764,"value":0.6141732283464567},{"number":64,"time":153.86770833333432,"value":0.6141732283464567},{"number":64,"time":153.88958333333431,"value":0.5826771653543307},{"number":64,"time":153.890625000001,"value":0.5826771653543307},{"number":64,"time":153.91458333333435,"value":0.5511811023622047},{"number":64,"time":153.91458333333435,"value":0.5511811023622047},{"number":64,"time":153.93125000000103,"value":0.5118110236220472},{"number":64,"time":153.93125000000103,"value":0.5118110236220472},{"number":64,"time":153.94583333333435,"value":0.48031496062992124},{"number":64,"time":153.94791666666768,"value":0.48031496062992124},{"number":64,"time":153.97083333333435,"value":0.3779527559055118},{"number":64,"time":153.97083333333435,"value":0.3779527559055118},{"number":64,"time":154.00104166666767,"value":0.2755905511811024},{"number":64,"time":154.00208333333435,"value":0.2755905511811024},{"number":64,"time":154.03333333333435,"value":0.18110236220472442},{"number":64,"time":154.03333333333435,"value":0.18110236220472442},{"number":64,"time":154.06145833333434,"value":0.07874015748031496},{"number":64,"time":154.06250000000102,"value":0.07874015748031496},{"number":64,"time":154.08645833333435,"value":0},{"number":64,"time":154.08750000000103,"value":0},{"number":64,"time":154.2416666666677,"value":0.10236220472440945},{"number":64,"time":154.24270833333438,"value":0.10236220472440945},{"number":64,"time":154.2572916666677,"value":0.2047244094488189},{"number":64,"time":154.25833333333438,"value":0.2047244094488189},{"number":64,"time":154.27395833333438,"value":0.33070866141732286},{"number":64,"time":154.27500000000106,"value":0.33070866141732286},{"number":64,"time":154.29479166666772,"value":0.44881889763779526},{"number":64,"time":154.29479166666772,"value":0.44881889763779526},{"number":64,"time":154.30520833333438,"value":0.48031496062992124},{"number":64,"time":154.30625000000106,"value":0.48031496062992124},{"number":64,"time":154.34583333333438,"value":0.5118110236220472},{"number":64,"time":154.34791666666771,"value":0.5118110236220472},{"number":64,"time":154.39062500000105,"value":0.5511811023622047},{"number":64,"time":154.39166666666773,"value":0.5511811023622047},{"number":64,"time":154.43750000000105,"value":0.5826771653543307},{"number":64,"time":154.43854166666773,"value":0.5826771653543307},{"number":64,"time":154.5052083333344,"value":0.6141732283464567},{"number":64,"time":154.50625000000107,"value":0.6141732283464567},{"number":64,"time":154.72916666666774,"value":0.6456692913385826},{"number":64,"time":154.73020833333442,"value":0.6456692913385826},{"number":64,"time":156.78854166666775,"value":0.6062992125984252},{"number":64,"time":156.78958333333443,"value":0.6062992125984252},{"number":64,"time":156.8281250000011,"value":0.5748031496062992},{"number":64,"time":156.8291666666678,"value":0.5748031496062992},{"number":64,"time":156.85625000000113,"value":0.5433070866141733},{"number":64,"time":156.85625000000113,"value":0.5433070866141733},{"number":64,"time":156.87708333333447,"value":0.5118110236220472},{"number":64,"time":156.87812500000115,"value":0.5118110236220472},{"number":64,"time":156.89687500000116,"value":0.48031496062992124},{"number":64,"time":156.89791666666784,"value":0.48031496062992124},{"number":64,"time":156.92500000000118,"value":0.3779527559055118},{"number":64,"time":156.92604166666786,"value":0.3779527559055118},{"number":64,"time":156.94895833333453,"value":0.2755905511811024},{"number":64,"time":156.9500000000012,"value":0.2755905511811024},{"number":64,"time":156.98020833333453,"value":0.18110236220472442},{"number":64,"time":156.98020833333453,"value":0.18110236220472442},{"number":64,"time":157.00520833333454,"value":0.05511811023622047},{"number":64,"time":157.00625000000122,"value":0.05511811023622047},{"number":64,"time":157.02395833333455,"value":0},{"number":64,"time":157.02500000000123,"value":0},{"number":64,"time":157.2916666666679,"value":0.12598425196850394},{"number":64,"time":157.29375000000124,"value":0.12598425196850394},{"number":64,"time":157.30520833333458,"value":0.25196850393700787},{"number":64,"time":157.30625000000126,"value":0.25196850393700787},{"number":64,"time":157.3166666666679,"value":0.3543307086614173},{"number":64,"time":157.3177083333346,"value":0.3543307086614173},{"number":64,"time":157.34062500000127,"value":0.47244094488188976},{"number":64,"time":157.34166666666795,"value":0.47244094488188976},{"number":64,"time":157.38437500000128,"value":0.5039370078740157},{"number":64,"time":157.38541666666796,"value":0.5039370078740157},{"number":64,"time":157.41979166666798,"value":0.5354330708661418},{"number":64,"time":157.42083333333466,"value":0.5354330708661418},{"number":64,"time":157.46770833333466,"value":0.5748031496062992},{"number":64,"time":157.46875000000134,"value":0.5748031496062992},{"number":64,"time":157.52395833333466,"value":0.6062992125984252},{"number":64,"time":157.52500000000134,"value":0.6062992125984252},{"number":64,"time":157.61562500000133,"value":0.6377952755905512},{"number":64,"time":157.616666666668,"value":0.6377952755905512},{"number":64,"time":158.004166666668,"value":0.7322834645669292},{"number":64,"time":158.004166666668,"value":0.7322834645669292},{"number":64,"time":159.363541666668,"value":0.6535433070866141},{"number":64,"time":159.36458333333468,"value":0.6535433070866141},{"number":64,"time":159.39166666666802,"value":0.6220472440944882},{"number":64,"time":159.3927083333347,"value":0.6220472440944882},{"number":64,"time":159.41250000000136,"value":0.5905511811023622},{"number":64,"time":159.41354166666804,"value":0.5905511811023622},{"number":64,"time":159.43229166666805,"value":0.5590551181102362},{"number":64,"time":159.43333333333473,"value":0.5590551181102362},{"number":64,"time":159.4468750000014,"value":0.5275590551181102},{"number":64,"time":159.44791666666808,"value":0.5275590551181102},{"number":64,"time":159.46041666666807,"value":0.49606299212598426},{"number":64,"time":159.46145833333475,"value":0.49606299212598426},{"number":64,"time":159.4875000000014,"value":0.4015748031496063},{"number":64,"time":159.48854166666808,"value":0.4015748031496063},{"number":64,"time":159.51145833333473,"value":0.2992125984251969},{"number":64,"time":159.5125000000014,"value":0.2992125984251969},{"number":64,"time":159.53854166666807,"value":0.2047244094488189},{"number":64,"time":159.53958333333475,"value":0.2047244094488189},{"number":64,"time":159.5593750000014,"value":0.10236220472440945},{"number":64,"time":159.5604166666681,"value":0.10236220472440945},{"number":64,"time":159.58333333333476,"value":0},{"number":64,"time":159.58437500000144,"value":0},{"number":64,"time":159.77916666666812,"value":0.10236220472440945},{"number":64,"time":159.7802083333348,"value":0.10236220472440945},{"number":64,"time":159.79062500000146,"value":0.2283464566929134},{"number":64,"time":159.7927083333348,"value":0.2283464566929134},{"number":64,"time":159.80312500000144,"value":0.33070866141732286},{"number":64,"time":159.80416666666812,"value":0.33070866141732286},{"number":64,"time":159.81979166666812,"value":0.44881889763779526},{"number":64,"time":159.8208333333348,"value":0.44881889763779526},{"number":64,"time":159.82812500000148,"value":0.48031496062992124},{"number":64,"time":159.82812500000148,"value":0.48031496062992124},{"number":64,"time":159.87291666666815,"value":0.5118110236220472},{"number":64,"time":159.87395833333483,"value":0.5118110236220472},{"number":64,"time":159.91145833333482,"value":0.5511811023622047},{"number":64,"time":159.9125000000015,"value":0.5511811023622047},{"number":64,"time":159.95520833333484,"value":0.5826771653543307},{"number":64,"time":159.95625000000152,"value":0.5826771653543307},{"number":64,"time":160.00729166666818,"value":0.6141732283464567},{"number":64,"time":160.00833333333486,"value":0.6141732283464567},{"number":64,"time":160.1354166666682,"value":0.6456692913385826},{"number":64,"time":160.13645833333487,"value":0.6456692913385826},{"number":64,"time":162.03333333333487,"value":0.6141732283464567},{"number":64,"time":162.03437500000155,"value":0.6141732283464567},{"number":64,"time":162.0541666666682,"value":0.5826771653543307},{"number":64,"time":162.0552083333349,"value":0.5826771653543307},{"number":64,"time":162.06875000000156,"value":0.5511811023622047},{"number":64,"time":162.06979166666824,"value":0.5511811023622047},{"number":64,"time":162.08125000000157,"value":0.5118110236220472},{"number":64,"time":162.08125000000157,"value":0.5118110236220472},{"number":64,"time":162.09375000000156,"value":0.47244094488188976},{"number":64,"time":162.09479166666824,"value":0.47244094488188976},{"number":64,"time":162.10937500000156,"value":0.3779527559055118},{"number":64,"time":162.11041666666824,"value":0.3779527559055118},{"number":64,"time":162.13645833333493,"value":0.2755905511811024},{"number":64,"time":162.1375000000016,"value":0.2755905511811024},{"number":64,"time":162.16145833333493,"value":0.18110236220472442},{"number":64,"time":162.16250000000161,"value":0.18110236220472442},{"number":64,"time":162.17708333333496,"value":0.07874015748031496},{"number":64,"time":162.17812500000164,"value":0.07874015748031496},{"number":64,"time":162.19270833333496,"value":0},{"number":64,"time":162.19375000000164,"value":0},{"number":64,"time":162.34583333333498,"value":0.12598425196850394},{"number":64,"time":162.34583333333498,"value":0.12598425196850394},{"number":64,"time":162.35312500000165,"value":0.2283464566929134},{"number":64,"time":162.35416666666833,"value":0.2283464566929134},{"number":64,"time":162.364583333335,"value":0.33070866141732286},{"number":64,"time":162.36562500000167,"value":0.33070866141732286},{"number":64,"time":162.377083333335,"value":0.44881889763779526},{"number":64,"time":162.3781250000017,"value":0.44881889763779526},{"number":64,"time":162.386458333335,"value":0.48031496062992124},{"number":64,"time":162.386458333335,"value":0.48031496062992124},{"number":64,"time":162.40104166666833,"value":0.5118110236220472},{"number":64,"time":162.402083333335,"value":0.5118110236220472},{"number":64,"time":162.477083333335,"value":0.5511811023622047},{"number":64,"time":162.47812500000168,"value":0.5511811023622047},{"number":64,"time":162.52083333333502,"value":0.5826771653543307},{"number":64,"time":162.5218750000017,"value":0.5826771653543307},{"number":64,"time":162.60104166666838,"value":0.6141732283464567},{"number":64,"time":162.60208333333506,"value":0.6141732283464567},{"number":64,"time":162.87708333333507,"value":0.6456692913385826},{"number":64,"time":162.87812500000175,"value":0.6456692913385826},{"number":64,"time":164.9395833333351,"value":0.6141732283464567},{"number":64,"time":164.94062500000177,"value":0.6141732283464567},{"number":64,"time":164.95625000000177,"value":0.5826771653543307},{"number":64,"time":164.95729166666845,"value":0.5826771653543307},{"number":64,"time":164.9687500000018,"value":0.5511811023622047},{"number":64,"time":164.96979166666847,"value":0.5511811023622047},{"number":64,"time":164.98020833333513,"value":0.5118110236220472},{"number":64,"time":164.9812500000018,"value":0.5118110236220472},{"number":64,"time":164.9875000000018,"value":0.48031496062992124},{"number":64,"time":164.98854166666848,"value":0.48031496062992124},{"number":64,"time":165.00520833333516,"value":0.3779527559055118},{"number":64,"time":165.00625000000184,"value":0.3779527559055118},{"number":64,"time":165.03229166666853,"value":0.2755905511811024},{"number":64,"time":165.03229166666853,"value":0.2755905511811024},{"number":64,"time":165.07187500000185,"value":0.18110236220472442},{"number":64,"time":165.07291666666853,"value":0.18110236220472442},{"number":64,"time":165.17604166666854,"value":0.2992125984251969},{"number":64,"time":165.17708333333522,"value":0.2992125984251969},{"number":64,"time":165.20416666666856,"value":0.4015748031496063},{"number":64,"time":165.20520833333524,"value":0.4015748031496063},{"number":64,"time":165.22395833333525,"value":0.47244094488188976},{"number":64,"time":165.22500000000193,"value":0.47244094488188976},{"number":64,"time":165.2479166666686,"value":0.5039370078740157},{"number":64,"time":165.24895833333528,"value":0.5039370078740157},{"number":64,"time":165.27187500000196,"value":0.5354330708661418},{"number":64,"time":165.27291666666864,"value":0.5354330708661418},{"number":64,"time":165.31979166666864,"value":0.5669291338582677},{"number":64,"time":165.31979166666864,"value":0.5669291338582677},{"number":64,"time":165.38437500000197,"value":0.5984251968503937},{"number":64,"time":165.38541666666865,"value":0.5984251968503937},{"number":64,"time":165.47604166666864,"value":0.6299212598425197},{"number":64,"time":165.47708333333532,"value":0.6299212598425197},{"number":64,"time":168.2104166666687,"value":0.5984251968503937},{"number":64,"time":168.21145833333537,"value":0.5984251968503937},{"number":64,"time":168.2385416666687,"value":0.5669291338582677},{"number":64,"time":168.2395833333354,"value":0.5669291338582677},{"number":64,"time":168.25937500000205,"value":0.5275590551181102},{"number":64,"time":168.25937500000205,"value":0.5275590551181102},{"number":64,"time":168.27500000000205,"value":0.49606299212598426},{"number":64,"time":168.27604166666873,"value":0.49606299212598426},{"number":64,"time":168.30312500000207,"value":0.4015748031496063},{"number":64,"time":168.30312500000207,"value":0.4015748031496063},{"number":64,"time":168.3270833333354,"value":0.2992125984251969},{"number":64,"time":168.32812500000207,"value":0.2992125984251969},{"number":64,"time":168.3625000000021,"value":0.2047244094488189},{"number":64,"time":168.36354166666877,"value":0.2047244094488189},{"number":64,"time":168.8625000000021,"value":0.10236220472440945},{"number":64,"time":168.86354166666877,"value":0.10236220472440945},{"number":64,"time":169.07083333333543,"value":0.2047244094488189},{"number":64,"time":169.0718750000021,"value":0.2047244094488189},{"number":64,"time":169.10625000000212,"value":0.33070866141732286},{"number":64,"time":169.1072916666688,"value":0.33070866141732286},{"number":64,"time":169.17083333333548,"value":0.44881889763779526},{"number":64,"time":169.17187500000216,"value":0.44881889763779526},{"number":64,"time":169.1833333333355,"value":0.48031496062992124},{"number":64,"time":169.1833333333355,"value":0.48031496062992124},{"number":64,"time":169.2145833333355,"value":0.5118110236220472},{"number":64,"time":169.2145833333355,"value":0.5118110236220472},{"number":64,"time":169.29166666666882,"value":0.5433070866141733},{"number":64,"time":169.29166666666882,"value":0.5433070866141733},{"number":64,"time":169.32291666666882,"value":0.5748031496062992},{"number":64,"time":169.3239583333355,"value":0.5748031496062992},{"number":64,"time":169.3708333333355,"value":0.6062992125984252},{"number":64,"time":169.37187500000218,"value":0.6062992125984252},{"number":64,"time":169.46666666666886,"value":0.6377952755905512},{"number":64,"time":169.46770833333554,"value":0.6377952755905512},{"number":64,"time":169.7906250000022,"value":0.7322834645669292},{"number":64,"time":169.79166666666887,"value":0.7322834645669292},{"number":64,"time":170.8572916666689,"value":0.6535433070866141},{"number":64,"time":170.8583333333356,"value":0.6535433070866141},{"number":64,"time":170.88958333333562,"value":0.6220472440944882},{"number":64,"time":170.8906250000023,"value":0.6220472440944882},{"number":64,"time":170.91770833333564,"value":0.5905511811023622},{"number":64,"time":170.91875000000232,"value":0.5905511811023622},{"number":64,"time":170.941666666669,"value":0.5590551181102362},{"number":64,"time":170.94270833333567,"value":0.5590551181102362},{"number":64,"time":170.96145833333568,"value":0.5275590551181102},{"number":64,"time":170.96250000000236,"value":0.5275590551181102},{"number":64,"time":170.97708333333568,"value":0.49606299212598426},{"number":64,"time":170.97916666666902,"value":0.49606299212598426},{"number":64,"time":171.02187500000235,"value":0.4015748031496063},{"number":64,"time":171.02291666666903,"value":0.4015748031496063},{"number":64,"time":171.0614583333357,"value":0.2992125984251969},{"number":64,"time":171.0625000000024,"value":0.2992125984251969},{"number":64,"time":171.12187500000238,"value":0.2047244094488189},{"number":64,"time":171.12291666666906,"value":0.2047244094488189},{"number":64,"time":171.19375000000238,"value":0.10236220472440945},{"number":64,"time":171.19479166666906,"value":0.10236220472440945},{"number":64,"time":171.3687500000024,"value":0.2047244094488189},{"number":64,"time":171.36979166666907,"value":0.2047244094488189},{"number":64,"time":171.3937500000024,"value":0.33070866141732286},{"number":64,"time":171.39479166666908,"value":0.33070866141732286},{"number":64,"time":171.4125000000024,"value":0.44881889763779526},{"number":64,"time":171.4135416666691,"value":0.44881889763779526},{"number":64,"time":171.42187500000242,"value":0.48031496062992124},{"number":64,"time":171.4229166666691,"value":0.48031496062992124},{"number":64,"time":171.47395833333576,"value":0.5118110236220472},{"number":64,"time":171.47500000000244,"value":0.5118110236220472},{"number":64,"time":171.53750000000244,"value":0.5433070866141733},{"number":64,"time":171.53750000000244,"value":0.5433070866141733},{"number":64,"time":171.5822916666691,"value":0.5748031496062992},{"number":64,"time":171.5833333333358,"value":0.5748031496062992},{"number":64,"time":171.65312500000246,"value":0.6062992125984252},{"number":64,"time":171.65312500000246,"value":0.6062992125984252},{"number":64,"time":171.79375000000243,"value":0.6377952755905512},{"number":64,"time":171.7947916666691,"value":0.6377952755905512},{"number":64,"time":172.10937500000244,"value":0.7322834645669292},{"number":64,"time":172.10937500000244,"value":0.7322834645669292},{"number":64,"time":173.70000000000243,"value":0.6535433070866141},{"number":64,"time":173.70000000000243,"value":0.6535433070866141},{"number":64,"time":173.72708333333577,"value":0.6220472440944882},{"number":64,"time":173.72812500000245,"value":0.6220472440944882},{"number":64,"time":173.7479166666691,"value":0.5905511811023622},{"number":64,"time":173.7489583333358,"value":0.5905511811023622},{"number":64,"time":173.77187500000247,"value":0.5511811023622047},{"number":64,"time":173.77187500000247,"value":0.5511811023622047},{"number":64,"time":173.78750000000247,"value":0.5118110236220472},{"number":64,"time":173.78854166666915,"value":0.5118110236220472},{"number":64,"time":173.80312500000247,"value":0.48031496062992124},{"number":64,"time":173.80416666666915,"value":0.48031496062992124},{"number":64,"time":173.83125000000248,"value":0.3779527559055118},{"number":64,"time":173.83229166666916,"value":0.3779527559055118},{"number":64,"time":173.86770833333583,"value":0.2755905511811024},{"number":64,"time":173.8687500000025,"value":0.2755905511811024},{"number":64,"time":174.1197916666692,"value":0.3779527559055118},{"number":64,"time":174.12083333333587,"value":0.3779527559055118},{"number":64,"time":174.15520833333588,"value":0.48031496062992124},{"number":64,"time":174.15625000000256,"value":0.48031496062992124},{"number":64,"time":174.19166666666922,"value":0.5118110236220472},{"number":64,"time":174.1927083333359,"value":0.5118110236220472},{"number":64,"time":174.24791666666923,"value":0.5433070866141733},{"number":64,"time":174.2489583333359,"value":0.5433070866141733},{"number":64,"time":174.29166666666924,"value":0.5748031496062992},{"number":64,"time":174.29270833333592,"value":0.5748031496062992},{"number":64,"time":174.3437500000026,"value":0.6062992125984252},{"number":64,"time":174.34479166666927,"value":0.6062992125984252},{"number":64,"time":174.4750000000026,"value":0.6377952755905512},{"number":64,"time":174.4760416666693,"value":0.6377952755905512},{"number":64,"time":175.8260416666693,"value":0.7322834645669292},{"number":64,"time":175.827083333336,"value":0.7322834645669292},{"number":64,"time":176.15416666666934,"value":0.6535433070866141},{"number":64,"time":176.15520833333602,"value":0.6535433070866141},{"number":64,"time":176.19062500000268,"value":0.6220472440944882},{"number":64,"time":176.19166666666936,"value":0.6220472440944882},{"number":64,"time":176.2187500000027,"value":0.5905511811023622},{"number":64,"time":176.21979166666938,"value":0.5905511811023622},{"number":64,"time":176.23437500000273,"value":0.5590551181102362},{"number":64,"time":176.2354166666694,"value":0.5590551181102362},{"number":64,"time":176.2510416666694,"value":0.5275590551181102},{"number":64,"time":176.2520833333361,"value":0.5275590551181102},{"number":64,"time":176.26250000000277,"value":0.49606299212598426},{"number":64,"time":176.26354166666945,"value":0.49606299212598426},{"number":64,"time":176.28645833333613,"value":0.4015748031496063},{"number":64,"time":176.2875000000028,"value":0.4015748031496063},{"number":64,"time":176.31458333333615,"value":0.2992125984251969},{"number":64,"time":176.31458333333615,"value":0.2992125984251969},{"number":64,"time":176.34270833333613,"value":0.2047244094488189},{"number":64,"time":176.3437500000028,"value":0.2047244094488189},{"number":64,"time":176.36250000000283,"value":0.10236220472440945},{"number":64,"time":176.3635416666695,"value":0.10236220472440945},{"number":64,"time":176.39062500000284,"value":0},{"number":64,"time":176.39166666666952,"value":0},{"number":64,"time":176.5020833333362,"value":0.10236220472440945},{"number":64,"time":176.50312500000288,"value":0.10236220472440945},{"number":64,"time":176.51875000000288,"value":0.2047244094488189},{"number":64,"time":176.51979166666956,"value":0.2047244094488189},{"number":64,"time":176.53854166666957,"value":0.33070866141732286},{"number":64,"time":176.53958333333625,"value":0.33070866141732286},{"number":64,"time":176.55833333333626,"value":0.44881889763779526},{"number":64,"time":176.55937500000294,"value":0.44881889763779526},{"number":64,"time":176.5697916666696,"value":0.48031496062992124},{"number":64,"time":176.57083333333628,"value":0.48031496062992124},{"number":64,"time":176.59791666666962,"value":0.5118110236220472},{"number":64,"time":176.5989583333363,"value":0.5118110236220472},{"number":64,"time":176.63854166666962,"value":0.5433070866141733},{"number":64,"time":176.6395833333363,"value":0.5433070866141733},{"number":64,"time":176.68229166666964,"value":0.5748031496062992},{"number":64,"time":176.68229166666964,"value":0.5748031496062992},{"number":64,"time":176.71562500000297,"value":0.6062992125984252},{"number":64,"time":176.71562500000297,"value":0.6062992125984252},{"number":64,"time":176.82187500000296,"value":0.6377952755905512},{"number":64,"time":176.82291666666964,"value":0.6377952755905512},{"number":64,"time":177.56979166666966,"value":0.7322834645669292},{"number":64,"time":177.57083333333634,"value":0.7322834645669292},{"number":64,"time":179.2697916666697,"value":0.6535433070866141},{"number":64,"time":179.2697916666697,"value":0.6535433070866141},{"number":64,"time":179.30104166666973,"value":0.6220472440944882},{"number":64,"time":179.3020833333364,"value":0.6220472440944882},{"number":64,"time":179.3250000000031,"value":0.5905511811023622},{"number":64,"time":179.32604166666977,"value":0.5905511811023622},{"number":64,"time":179.34166666666977,"value":0.5590551181102362},{"number":64,"time":179.34166666666977,"value":0.5590551181102362},{"number":64,"time":179.35729166666977,"value":0.5275590551181102},{"number":64,"time":179.35729166666977,"value":0.5275590551181102},{"number":64,"time":179.37395833333645,"value":0.49606299212598426},{"number":64,"time":179.37500000000313,"value":0.49606299212598426},{"number":64,"time":179.40937500000314,"value":0.4015748031496063},{"number":64,"time":179.41041666666982,"value":0.4015748031496063},{"number":64,"time":179.43750000000315,"value":0.2992125984251969},{"number":64,"time":179.43854166666983,"value":0.2992125984251969},{"number":64,"time":179.47291666666985,"value":0.2047244094488189},{"number":64,"time":179.47395833333653,"value":0.2047244094488189},{"number":64,"time":179.4968750000032,"value":0.10236220472440945},{"number":64,"time":179.49791666666988,"value":0.10236220472440945},{"number":64,"time":179.5375000000032,"value":0},{"number":64,"time":179.5385416666699,"value":0},{"number":64,"time":179.70104166666988,"value":0.10236220472440945},{"number":64,"time":179.70208333333656,"value":0.10236220472440945},{"number":64,"time":179.71770833333656,"value":0.2047244094488189},{"number":64,"time":179.71770833333656,"value":0.2047244094488189},{"number":64,"time":179.73333333333656,"value":0.33070866141732286},{"number":64,"time":179.73437500000324,"value":0.33070866141732286},{"number":64,"time":179.75312500000325,"value":0.44881889763779526},{"number":64,"time":179.75416666666993,"value":0.44881889763779526},{"number":64,"time":179.7614583333366,"value":0.48031496062992124},{"number":64,"time":179.76250000000329,"value":0.48031496062992124},{"number":64,"time":179.80520833333662,"value":0.5118110236220472},{"number":64,"time":179.8062500000033,"value":0.5118110236220472},{"number":64,"time":179.85729166666997,"value":0.5433070866141733},{"number":64,"time":179.85833333333665,"value":0.5433070866141733},{"number":64,"time":179.89687500000332,"value":0.5748031496062992},{"number":64,"time":179.89791666667,"value":0.5748031496062992},{"number":64,"time":179.95729166667,"value":0.6062992125984252},{"number":64,"time":179.95729166667,"value":0.6062992125984252},{"number":64,"time":180.09375000000333,"value":0.6377952755905512},{"number":64,"time":180.09479166667,"value":0.6377952755905512},{"number":64,"time":180.51770833333666,"value":0.7322834645669292},{"number":64,"time":180.51770833333666,"value":0.7322834645669292},{"number":64,"time":181.68854166666998,"value":0.6535433070866141},{"number":64,"time":181.68958333333666,"value":0.6535433070866141},{"number":64,"time":181.71979166666998,"value":0.6220472440944882},{"number":64,"time":181.72083333333666,"value":0.6220472440944882},{"number":64,"time":181.74375000000333,"value":0.5905511811023622},{"number":64,"time":181.74479166667,"value":0.5905511811023622},{"number":64,"time":181.76770833333669,"value":0.5590551181102362},{"number":64,"time":181.76875000000337,"value":0.5590551181102362},{"number":64,"time":181.78333333333669,"value":0.5275590551181102},{"number":64,"time":181.78437500000337,"value":0.5275590551181102},{"number":64,"time":181.8020833333367,"value":0.49606299212598426},{"number":64,"time":181.80312500000338,"value":0.49606299212598426},{"number":64,"time":181.82708333333673,"value":0.4015748031496063},{"number":64,"time":181.82708333333673,"value":0.4015748031496063},{"number":64,"time":181.85520833333672,"value":0.2992125984251969},{"number":64,"time":181.85520833333672,"value":0.2992125984251969},{"number":64,"time":181.8833333333367,"value":0.2047244094488189},{"number":64,"time":181.8843750000034,"value":0.2047244094488189},{"number":64,"time":181.92708333333672,"value":0.10236220472440945},{"number":64,"time":181.9281250000034,"value":0.10236220472440945},{"number":64,"time":182.0593750000034,"value":0.2047244094488189},{"number":64,"time":182.06041666667008,"value":0.2047244094488189},{"number":64,"time":182.08645833333674,"value":0.3543307086614173},{"number":64,"time":182.08750000000342,"value":0.3543307086614173},{"number":64,"time":182.1104166666701,"value":0.47244094488188976},{"number":64,"time":182.1104166666701,"value":0.47244094488188976},{"number":64,"time":182.1510416666701,"value":0.5039370078740157},{"number":64,"time":182.1510416666701,"value":0.5039370078740157},{"number":64,"time":182.20000000000343,"value":0.5354330708661418},{"number":64,"time":182.20000000000343,"value":0.5354330708661418},{"number":64,"time":182.24270833333676,"value":0.5748031496062992},{"number":64,"time":182.24375000000344,"value":0.5748031496062992},{"number":64,"time":182.30729166667012,"value":0.6062992125984252},{"number":64,"time":182.3083333333368,"value":0.6062992125984252},{"number":64,"time":182.42291666667015,"value":0.6377952755905512},{"number":64,"time":182.42395833333683,"value":0.6377952755905512},{"number":64,"time":182.71145833333682,"value":0.7322834645669292},{"number":64,"time":182.7125000000035,"value":0.7322834645669292},{"number":64,"time":184.34062500000348,"value":0.6535433070866141},{"number":64,"time":184.34166666667016,"value":0.6535433070866141},{"number":64,"time":184.3687500000035,"value":0.6220472440944882},{"number":64,"time":184.36979166667018,"value":0.6220472440944882},{"number":64,"time":184.38958333333684,"value":0.5905511811023622},{"number":64,"time":184.39062500000352,"value":0.5905511811023622},{"number":64,"time":184.40937500000354,"value":0.5590551181102362},{"number":64,"time":184.40937500000354,"value":0.5590551181102362},{"number":64,"time":184.42500000000354,"value":0.5275590551181102},{"number":64,"time":184.42500000000354,"value":0.5275590551181102},{"number":64,"time":184.43333333333686,"value":0.49606299212598426},{"number":64,"time":184.43333333333686,"value":0.49606299212598426},{"number":64,"time":184.46145833333685,"value":0.3779527559055118},{"number":64,"time":184.46145833333685,"value":0.3779527559055118},{"number":64,"time":184.49270833333685,"value":0.2755905511811024},{"number":64,"time":184.49375000000353,"value":0.2755905511811024},{"number":64,"time":184.52083333333687,"value":0.18110236220472442},{"number":64,"time":184.52187500000355,"value":0.18110236220472442},{"number":64,"time":184.54062500000356,"value":0.07874015748031496},{"number":64,"time":184.54166666667024,"value":0.07874015748031496},{"number":64,"time":184.5614583333369,"value":0},{"number":64,"time":184.5614583333369,"value":0},{"number":64,"time":184.7052083333369,"value":0.10236220472440945},{"number":64,"time":184.7062500000036,"value":0.10236220472440945},{"number":64,"time":184.7208333333369,"value":0.2283464566929134},{"number":64,"time":184.7218750000036,"value":0.2283464566929134},{"number":64,"time":184.73333333333693,"value":0.33070866141732286},{"number":64,"time":184.7343750000036,"value":0.33070866141732286},{"number":64,"time":184.75312500000362,"value":0.44881889763779526},{"number":64,"time":184.7541666666703,"value":0.44881889763779526},{"number":64,"time":184.7604166666703,"value":0.48031496062992124},{"number":64,"time":184.76145833333698,"value":0.48031496062992124},{"number":64,"time":184.81250000000364,"value":0.5118110236220472},{"number":64,"time":184.81354166667032,"value":0.5118110236220472},{"number":64,"time":184.8572916666703,"value":0.5433070866141733},{"number":64,"time":184.858333333337,"value":0.5433070866141733},{"number":64,"time":184.8885416666703,"value":0.5748031496062992},{"number":64,"time":184.889583333337,"value":0.5748031496062992},{"number":64,"time":184.94062500000365,"value":0.6062992125984252},{"number":64,"time":184.94166666667033,"value":0.6062992125984252},{"number":64,"time":185.04062500000367,"value":0.6377952755905512},{"number":64,"time":185.04166666667035,"value":0.6377952755905512},{"number":64,"time":185.2968750000037,"value":0.7322834645669292},{"number":64,"time":185.2968750000037,"value":0.7322834645669292},{"number":64,"time":186.92395833333703,"value":0.6535433070866141},{"number":64,"time":186.9250000000037,"value":0.6535433070866141},{"number":64,"time":186.94375000000372,"value":0.6220472440944882},{"number":64,"time":186.9447916666704,"value":0.6220472440944882},{"number":64,"time":186.95937500000372,"value":0.5905511811023622},{"number":64,"time":186.9604166666704,"value":0.5905511811023622},{"number":64,"time":186.97708333333708,"value":0.5511811023622047},{"number":64,"time":186.97812500000376,"value":0.5511811023622047},{"number":64,"time":186.98750000000376,"value":0.5118110236220472},{"number":64,"time":186.98854166667044,"value":0.5118110236220472},{"number":64,"time":186.99583333333712,"value":0.48031496062992124},{"number":64,"time":186.99583333333712,"value":0.48031496062992124},{"number":64,"time":187.01458333333713,"value":0.3779527559055118},{"number":64,"time":187.01458333333713,"value":0.3779527559055118},{"number":64,"time":187.0437500000038,"value":0.2755905511811024},{"number":64,"time":187.04479166667048,"value":0.2755905511811024},{"number":64,"time":187.2041666666705,"value":0.3779527559055118},{"number":64,"time":187.20520833333717,"value":0.3779527559055118},{"number":64,"time":187.22395833333718,"value":0.47244094488188976},{"number":64,"time":187.22395833333718,"value":0.47244094488188976},{"number":64,"time":187.24479166667052,"value":0.5039370078740157},{"number":64,"time":187.2458333333372,"value":0.5039370078740157},{"number":64,"time":187.26875000000388,"value":0.5354330708661418},{"number":64,"time":187.26979166667056,"value":0.5354330708661418},{"number":64,"time":187.3125000000039,"value":0.5669291338582677},{"number":64,"time":187.31354166667057,"value":0.5669291338582677},{"number":64,"time":187.34479166667057,"value":0.5984251968503937},{"number":64,"time":187.34479166667057,"value":0.5984251968503937},{"number":64,"time":187.3718750000039,"value":0.6299212598425197},{"number":64,"time":187.3729166666706,"value":0.6299212598425197},{"number":64,"time":187.81145833333727,"value":0.7322834645669292},{"number":64,"time":187.81250000000395,"value":0.7322834645669292},{"number":64,"time":189.34687500000396,"value":0.6535433070866141},{"number":64,"time":189.34687500000396,"value":0.6535433070866141},{"number":64,"time":189.41458333333728,"value":0.6220472440944882},{"number":64,"time":189.41562500000396,"value":0.6220472440944882},{"number":64,"time":189.45416666667063,"value":0.5905511811023622},{"number":64,"time":189.4552083333373,"value":0.5905511811023622},{"number":64,"time":189.4864583333373,"value":0.5590551181102362},{"number":64,"time":189.487500000004,"value":0.5590551181102362},{"number":64,"time":189.518750000004,"value":0.5275590551181102},{"number":64,"time":189.51979166667067,"value":0.5275590551181102},{"number":64,"time":189.55104166667067,"value":0.49606299212598426},{"number":64,"time":189.55208333333735,"value":0.49606299212598426},{"number":64,"time":189.59166666667068,"value":0.4015748031496063},{"number":64,"time":189.59270833333736,"value":0.4015748031496063},{"number":64,"time":189.618750000004,"value":0.2992125984251969},{"number":64,"time":189.6197916666707,"value":0.2992125984251969},{"number":64,"time":189.65833333333737,"value":0.2047244094488189},{"number":64,"time":189.65937500000405,"value":0.2047244094488189},{"number":64,"time":189.68645833333738,"value":0.10236220472440945},{"number":64,"time":189.68750000000406,"value":0.10236220472440945},{"number":64,"time":189.73437500000406,"value":0},{"number":64,"time":189.73541666667074,"value":0},{"number":64,"time":189.88333333333742,"value":0.10236220472440945},{"number":64,"time":189.88333333333742,"value":0.10236220472440945},{"number":64,"time":189.89895833333742,"value":0.2047244094488189},{"number":64,"time":189.9000000000041,"value":0.2047244094488189},{"number":64,"time":189.9187500000041,"value":0.33070866141732286},{"number":64,"time":189.9197916666708,"value":0.33070866141732286},{"number":64,"time":189.9385416666708,"value":0.44881889763779526},{"number":64,"time":189.93958333333748,"value":0.44881889763779526},{"number":64,"time":189.95104166667082,"value":0.48031496062992124},{"number":64,"time":189.9520833333375,"value":0.48031496062992124},{"number":64,"time":189.98229166667082,"value":0.5118110236220472},{"number":64,"time":189.9833333333375,"value":0.5118110236220472},{"number":64,"time":190.02291666667082,"value":0.5433070866141733},{"number":64,"time":190.0239583333375,"value":0.5433070866141733},{"number":64,"time":190.05104166667084,"value":0.5748031496062992},{"number":64,"time":190.05208333333752,"value":0.5748031496062992},{"number":64,"time":190.0906250000042,"value":0.6062992125984252},{"number":64,"time":190.0906250000042,"value":0.6062992125984252},{"number":64,"time":190.13541666667086,"value":0.6377952755905512},{"number":64,"time":190.13645833333754,"value":0.6377952755905512},{"number":64,"time":192.12916666667087,"value":0.5984251968503937},{"number":64,"time":192.13020833333755,"value":0.5984251968503937},{"number":64,"time":192.1500000000042,"value":0.5669291338582677},{"number":64,"time":192.1510416666709,"value":0.5669291338582677},{"number":64,"time":192.1666666666709,"value":0.5275590551181102},{"number":64,"time":192.16770833333757,"value":0.5275590551181102},{"number":64,"time":192.17395833333757,"value":0.49606299212598426},{"number":64,"time":192.17500000000425,"value":0.49606299212598426},{"number":64,"time":192.19791666667092,"value":0.4015748031496063},{"number":64,"time":192.1989583333376,"value":0.4015748031496063},{"number":64,"time":192.23437500000426,"value":0.2992125984251969},{"number":64,"time":192.23541666667094,"value":0.2992125984251969},{"number":64,"time":192.40937500000427,"value":0.4015748031496063},{"number":64,"time":192.41041666667095,"value":0.4015748031496063},{"number":64,"time":192.43020833333762,"value":0.48031496062992124},{"number":64,"time":192.43020833333762,"value":0.48031496062992124},{"number":64,"time":192.45416666667094,"value":0.5118110236220472},{"number":64,"time":192.45416666667094,"value":0.5118110236220472},{"number":64,"time":192.51354166667093,"value":0.5433070866141733},{"number":64,"time":192.5145833333376,"value":0.5433070866141733},{"number":64,"time":192.55729166667095,"value":0.5748031496062992},{"number":64,"time":192.55833333333763,"value":0.5748031496062992},{"number":64,"time":192.61354166667095,"value":0.6062992125984252},{"number":64,"time":192.61354166667095,"value":0.6062992125984252},{"number":64,"time":192.72187500000427,"value":0.6377952755905512},{"number":64,"time":192.72291666667095,"value":0.6377952755905512},{"number":64,"time":194.68437500000425,"value":0.5984251968503937},{"number":64,"time":194.68541666667093,"value":0.5984251968503937},{"number":64,"time":194.70312500000426,"value":0.5669291338582677},{"number":64,"time":194.70416666667094,"value":0.5669291338582677},{"number":64,"time":194.71562500000428,"value":0.5275590551181102},{"number":64,"time":194.71666666667096,"value":0.5275590551181102},{"number":64,"time":194.72395833333763,"value":0.49606299212598426},{"number":64,"time":194.72500000000431,"value":0.49606299212598426},{"number":64,"time":194.74062500000431,"value":0.4015748031496063},{"number":64,"time":194.741666666671,"value":0.4015748031496063},{"number":64,"time":194.76458333333767,"value":0.2992125984251969},{"number":64,"time":194.76562500000435,"value":0.2992125984251969},{"number":64,"time":194.8270833333377,"value":0.2047244094488189},{"number":64,"time":194.82812500000438,"value":0.2047244094488189},{"number":64,"time":194.93229166667103,"value":0.3543307086614173},{"number":64,"time":194.9333333333377,"value":0.3543307086614173},{"number":64,"time":194.96770833333773,"value":0.47244094488188976},{"number":64,"time":194.9687500000044,"value":0.47244094488188976},{"number":64,"time":194.99270833333773,"value":0.5039370078740157},{"number":64,"time":194.99270833333773,"value":0.5039370078740157},{"number":64,"time":195.02395833333773,"value":0.5354330708661418},{"number":64,"time":195.02395833333773,"value":0.5354330708661418},{"number":64,"time":195.0718750000044,"value":0.5669291338582677},{"number":64,"time":195.0718750000044,"value":0.5669291338582677},{"number":64,"time":195.11145833333774,"value":0.5984251968503937},{"number":64,"time":195.11250000000442,"value":0.5984251968503937},{"number":64,"time":195.18437500000442,"value":0.6299212598425197},{"number":64,"time":195.18437500000442,"value":0.6299212598425197},{"number":64,"time":195.88750000000442,"value":0.7322834645669292},{"number":64,"time":195.8885416666711,"value":0.7322834645669292},{"number":64,"time":197.38645833333774,"value":0.6535433070866141},{"number":64,"time":197.38750000000442,"value":0.6535433070866141},{"number":64,"time":197.4104166666711,"value":0.6220472440944882},{"number":64,"time":197.41145833333778,"value":0.6220472440944882},{"number":64,"time":197.42708333333778,"value":0.5826771653543307},{"number":64,"time":197.42812500000446,"value":0.5826771653543307},{"number":64,"time":197.4385416666711,"value":0.5511811023622047},{"number":64,"time":197.4395833333378,"value":0.5511811023622047},{"number":64,"time":197.4458333333378,"value":0.5196850393700787},{"number":64,"time":197.44687500000447,"value":0.5196850393700787},{"number":64,"time":197.45416666667114,"value":0.4881889763779528},{"number":64,"time":197.45520833333782,"value":0.4881889763779528},{"number":64,"time":197.46666666667116,"value":0.4015748031496063},{"number":64,"time":197.46770833333784,"value":0.4015748031496063},{"number":64,"time":197.4875000000045,"value":0.2992125984251969},{"number":64,"time":197.4875000000045,"value":0.2992125984251969},{"number":64,"time":197.54270833333783,"value":0.2047244094488189},{"number":64,"time":197.5437500000045,"value":0.2047244094488189},{"number":64,"time":197.65833333333785,"value":0.3543307086614173},{"number":64,"time":197.65833333333785,"value":0.3543307086614173},{"number":64,"time":197.68750000000452,"value":0.47244094488188976},{"number":64,"time":197.6885416666712,"value":0.47244094488188976},{"number":64,"time":197.70625000000453,"value":0.5039370078740157},{"number":64,"time":197.70625000000453,"value":0.5039370078740157},{"number":64,"time":197.73125000000454,"value":0.5354330708661418},{"number":64,"time":197.73229166667122,"value":0.5354330708661418},{"number":64,"time":197.77500000000455,"value":0.5669291338582677},{"number":64,"time":197.77604166667123,"value":0.5669291338582677},{"number":64,"time":197.80729166667123,"value":0.5984251968503937},{"number":64,"time":197.80729166667123,"value":0.5984251968503937},{"number":64,"time":197.85000000000457,"value":0.6299212598425197},{"number":64,"time":197.85104166667125,"value":0.6299212598425197},{"number":64,"time":198.25416666667124,"value":0.7322834645669292},{"number":64,"time":198.25520833333792,"value":0.7322834645669292},{"number":64,"time":200.1895833333379,"value":0.6535433070866141},{"number":64,"time":200.1906250000046,"value":0.6535433070866141},{"number":64,"time":200.2218750000046,"value":0.6220472440944882},{"number":64,"time":200.22291666667127,"value":0.6220472440944882},{"number":64,"time":200.24166666667128,"value":0.5905511811023622},{"number":64,"time":200.24166666667128,"value":0.5905511811023622},{"number":64,"time":200.26250000000462,"value":0.5511811023622047},{"number":64,"time":200.2635416666713,"value":0.5511811023622047},{"number":64,"time":200.2729166666713,"value":0.5118110236220472},{"number":64,"time":200.273958333338,"value":0.5118110236220472},{"number":64,"time":200.28645833333798,"value":0.48031496062992124},{"number":64,"time":200.28750000000466,"value":0.48031496062992124},{"number":64,"time":200.305208333338,"value":0.3779527559055118},{"number":64,"time":200.30625000000467,"value":0.3779527559055118},{"number":64,"time":200.34166666667133,"value":0.2755905511811024},{"number":64,"time":200.34166666667133,"value":0.2755905511811024},{"number":64,"time":200.36979166667132,"value":0.18110236220472442},{"number":64,"time":200.36979166667132,"value":0.18110236220472442},{"number":64,"time":200.38958333333798,"value":0.07874015748031496},{"number":64,"time":200.39062500000466,"value":0.07874015748031496},{"number":64,"time":200.40937500000467,"value":0},{"number":64,"time":200.40937500000467,"value":0},{"number":64,"time":200.53750000000468,"value":0.10236220472440945},{"number":64,"time":200.53854166667136,"value":0.10236220472440945},{"number":64,"time":200.54895833333802,"value":0.2047244094488189},{"number":64,"time":200.5500000000047,"value":0.2047244094488189},{"number":64,"time":200.5656250000047,"value":0.33070866141732286},{"number":64,"time":200.56666666667138,"value":0.33070866141732286},{"number":64,"time":200.57708333333804,"value":0.44881889763779526},{"number":64,"time":200.57708333333804,"value":0.44881889763779526},{"number":64,"time":200.58541666667136,"value":0.48031496062992124},{"number":64,"time":200.58645833333804,"value":0.48031496062992124},{"number":64,"time":200.60104166667136,"value":0.5118110236220472},{"number":64,"time":200.60208333333804,"value":0.5118110236220472},{"number":64,"time":200.67291666667137,"value":0.5433070866141733},{"number":64,"time":200.67395833333805,"value":0.5433070866141733},{"number":64,"time":200.7010416666714,"value":0.5748031496062992},{"number":64,"time":200.70208333333807,"value":0.5748031496062992},{"number":64,"time":200.74895833333807,"value":0.6062992125984252},{"number":64,"time":200.75000000000475,"value":0.6062992125984252},{"number":64,"time":200.86145833333808,"value":0.6377952755905512},{"number":64,"time":200.86250000000476,"value":0.6377952755905512},{"number":64,"time":202.85625000000474,"value":0.5984251968503937},{"number":64,"time":202.85729166667141,"value":0.5984251968503937},{"number":64,"time":202.87187500000474,"value":0.5669291338582677},{"number":64,"time":202.87291666667141,"value":0.5669291338582677},{"number":64,"time":202.8802083333381,"value":0.5354330708661418},{"number":64,"time":202.8802083333381,"value":0.5354330708661418},{"number":64,"time":202.88854166667141,"value":0.5039370078740157},{"number":64,"time":202.8895833333381,"value":0.5039370078740157},{"number":64,"time":202.90416666667141,"value":0.4015748031496063},{"number":64,"time":202.9052083333381,"value":0.4015748031496063},{"number":64,"time":202.92187500000475,"value":0.2992125984251969},{"number":64,"time":202.92291666667143,"value":0.2992125984251969},{"number":64,"time":203.0520833333381,"value":0.4015748031496063},{"number":64,"time":203.05312500000477,"value":0.4015748031496063},{"number":64,"time":203.0677083333381,"value":0.47244094488188976},{"number":64,"time":203.06875000000477,"value":0.47244094488188976},{"number":64,"time":203.08854166667143,"value":0.5039370078740157},{"number":64,"time":203.0895833333381,"value":0.5039370078740157},{"number":64,"time":203.11666666667145,"value":0.5354330708661418},{"number":64,"time":203.11770833333813,"value":0.5354330708661418},{"number":64,"time":203.16458333333813,"value":0.5669291338582677},{"number":64,"time":203.16458333333813,"value":0.5669291338582677},{"number":64,"time":203.2031250000048,"value":0.5984251968503937},{"number":64,"time":203.20416666667148,"value":0.5984251968503937},{"number":64,"time":203.30833333333814,"value":0.6299212598425197},{"number":64,"time":203.30937500000482,"value":0.6299212598425197},{"number":64,"time":205.4260416666715,"value":0.5984251968503937},{"number":64,"time":205.4260416666715,"value":0.5984251968503937},{"number":64,"time":205.44270833333817,"value":0.5669291338582677},{"number":64,"time":205.44375000000485,"value":0.5669291338582677},{"number":64,"time":205.45104166667153,"value":0.5354330708661418},{"number":64,"time":205.4520833333382,"value":0.5354330708661418},{"number":64,"time":205.4583333333382,"value":0.5039370078740157},{"number":64,"time":205.45937500000488,"value":0.5039370078740157},{"number":64,"time":205.46979166667154,"value":0.4015748031496063},{"number":64,"time":205.47083333333822,"value":0.4015748031496063},{"number":64,"time":205.48645833333822,"value":0.2992125984251969},{"number":64,"time":205.4875000000049,"value":0.2992125984251969},{"number":64,"time":205.5218750000049,"value":0.2047244094488189},{"number":64,"time":205.5229166666716,"value":0.2047244094488189},{"number":64,"time":205.6781250000049,"value":0.33070866141732286},{"number":64,"time":205.6791666666716,"value":0.33070866141732286},{"number":64,"time":205.70208333333827,"value":0.44881889763779526},{"number":64,"time":205.70312500000495,"value":0.44881889763779526},{"number":64,"time":205.71458333333828,"value":0.48031496062992124},{"number":64,"time":205.71458333333828,"value":0.48031496062992124},{"number":64,"time":205.74583333333828,"value":0.5196850393700787},{"number":64,"time":205.74687500000496,"value":0.5196850393700787},{"number":64,"time":205.77812500000496,"value":0.5511811023622047},{"number":64,"time":205.77916666667164,"value":0.5511811023622047},{"number":64,"time":205.82187500000498,"value":0.5826771653543307},{"number":64,"time":205.82291666667166,"value":0.5826771653543307},{"number":64,"time":205.865625000005,"value":0.6141732283464567},{"number":64,"time":205.86666666667168,"value":0.6141732283464567},{"number":64,"time":206.03854166667168,"value":0.6456692913385826},{"number":64,"time":206.03854166667168,"value":0.6456692913385826},{"number":64,"time":207.88958333333838,"value":0.6141732283464567},{"number":64,"time":207.89062500000506,"value":0.6141732283464567},{"number":64,"time":207.9020833333384,"value":0.5826771653543307},{"number":64,"time":207.90312500000508,"value":0.5826771653543307},{"number":64,"time":207.91250000000508,"value":0.5511811023622047},{"number":64,"time":207.91354166667176,"value":0.5511811023622047},{"number":64,"time":207.92083333333844,"value":0.5196850393700787},{"number":64,"time":207.92187500000512,"value":0.5196850393700787},{"number":64,"time":207.93020833333844,"value":0.47244094488188976},{"number":64,"time":207.93125000000512,"value":0.47244094488188976},{"number":64,"time":207.94166666667178,"value":0.3543307086614173},{"number":64,"time":207.94270833333846,"value":0.3543307086614173},{"number":64,"time":207.9604166666718,"value":0.25196850393700787},{"number":64,"time":207.96145833333847,"value":0.25196850393700787},{"number":64,"time":208.06875000000514,"value":0.3779527559055118},{"number":64,"time":208.06979166667182,"value":0.3779527559055118},{"number":64,"time":208.08958333333848,"value":0.47244094488188976},{"number":64,"time":208.09062500000516,"value":0.47244094488188976},{"number":64,"time":208.10520833333848,"value":0.5039370078740157},{"number":64,"time":208.10625000000516,"value":0.5039370078740157},{"number":64,"time":208.12916666667184,"value":0.5354330708661418},{"number":64,"time":208.13020833333852,"value":0.5354330708661418},{"number":64,"time":208.16458333333853,"value":0.5669291338582677},{"number":64,"time":208.1656250000052,"value":0.5669291338582677},{"number":64,"time":208.1937500000052,"value":0.5984251968503937},{"number":64,"time":208.19479166667188,"value":0.5984251968503937},{"number":64,"time":208.23645833333853,"value":0.6299212598425197},{"number":64,"time":208.2375000000052,"value":0.6299212598425197},{"number":64,"time":209.32916666667188,"value":0.7322834645669292},{"number":64,"time":209.33020833333856,"value":0.7322834645669292},{"number":64,"time":210.4729166666719,"value":0.6535433070866141},{"number":64,"time":210.47395833333857,"value":0.6535433070866141},{"number":64,"time":210.49270833333856,"value":0.6220472440944882},{"number":64,"time":210.49375000000524,"value":0.6220472440944882},{"number":64,"time":210.50833333333858,"value":0.5905511811023622},{"number":64,"time":210.50937500000526,"value":0.5905511811023622},{"number":64,"time":210.51979166667192,"value":0.5511811023622047},{"number":64,"time":210.5208333333386,"value":0.5511811023622047},{"number":64,"time":210.52812500000528,"value":0.5118110236220472},{"number":64,"time":210.52916666667195,"value":0.5118110236220472},{"number":64,"time":210.53645833333863,"value":0.47244094488188976},{"number":64,"time":210.5375000000053,"value":0.47244094488188976},{"number":64,"time":210.54791666667197,"value":0.3543307086614173},{"number":64,"time":210.54791666667197,"value":0.3543307086614173},{"number":64,"time":210.57604166667195,"value":0.25196850393700787},{"number":64,"time":210.57708333333863,"value":0.25196850393700787},{"number":64,"time":210.60104166667196,"value":0.14960629921259844},{"number":64,"time":210.60208333333864,"value":0.14960629921259844},{"number":64,"time":210.61666666667196,"value":0.05511811023622047},{"number":64,"time":210.61770833333864,"value":0.05511811023622047},{"number":64,"time":210.6281250000053,"value":0},{"number":64,"time":210.62916666667198,"value":0},{"number":64,"time":210.7156250000053,"value":0.12598425196850394},{"number":64,"time":210.71666666667198,"value":0.12598425196850394},{"number":64,"time":210.72812500000532,"value":0.25196850393700787},{"number":64,"time":210.729166666672,"value":0.25196850393700787},{"number":64,"time":210.73958333333866,"value":0.3543307086614173},{"number":64,"time":210.74062500000534,"value":0.3543307086614173},{"number":64,"time":210.75520833333866,"value":0.47244094488188976},{"number":64,"time":210.757291666672,"value":0.47244094488188976},{"number":64,"time":210.76770833333865,"value":0.5039370078740157},{"number":64,"time":210.76875000000533,"value":0.5039370078740157},{"number":64,"time":210.79687500000531,"value":0.5354330708661418},{"number":64,"time":210.797916666672,"value":0.5354330708661418},{"number":64,"time":210.835416666672,"value":0.5748031496062992},{"number":64,"time":210.83645833333867,"value":0.5748031496062992},{"number":64,"time":210.86770833333867,"value":0.6062992125984252},{"number":64,"time":210.86875000000535,"value":0.6062992125984252},{"number":64,"time":210.904166666672,"value":0.6377952755905512},{"number":64,"time":210.9052083333387,"value":0.6377952755905512},{"number":64,"time":213.010416666672,"value":0.6062992125984252},{"number":64,"time":213.01145833333868,"value":0.6062992125984252},{"number":64,"time":213.02395833333867,"value":0.5748031496062992},{"number":64,"time":213.02500000000535,"value":0.5748031496062992},{"number":64,"time":213.03541666667203,"value":0.5354330708661418},{"number":64,"time":213.03645833333871,"value":0.5354330708661418},{"number":64,"time":213.0437500000054,"value":0.4881889763779528},{"number":64,"time":213.04479166667207,"value":0.4881889763779528},{"number":64,"time":213.05104166667206,"value":0.4015748031496063},{"number":64,"time":213.05208333333874,"value":0.4015748031496063},{"number":64,"time":213.05833333333874,"value":0.2992125984251969},{"number":64,"time":213.05937500000542,"value":0.2992125984251969},{"number":64,"time":213.07083333333875,"value":0.2047244094488189},{"number":64,"time":213.07187500000543,"value":0.2047244094488189},{"number":64,"time":213.08333333333877,"value":0.10236220472440945},{"number":64,"time":213.08437500000545,"value":0.10236220472440945},{"number":64,"time":213.10208333333878,"value":0},{"number":64,"time":213.10312500000546,"value":0},{"number":64,"time":213.21979166667214,"value":0.10236220472440945},{"number":64,"time":213.21979166667214,"value":0.10236220472440945},{"number":64,"time":213.2270833333388,"value":0.2047244094488189},{"number":64,"time":213.2281250000055,"value":0.2047244094488189},{"number":64,"time":213.23437500000549,"value":0.33070866141732286},{"number":64,"time":213.23541666667217,"value":0.33070866141732286},{"number":64,"time":213.2468750000055,"value":0.44881889763779526},{"number":64,"time":213.24791666667218,"value":0.44881889763779526},{"number":64,"time":213.25520833333886,"value":0.4881889763779528},{"number":64,"time":213.25625000000554,"value":0.4881889763779528},{"number":64,"time":213.27500000000555,"value":0.5196850393700787},{"number":64,"time":213.27604166667223,"value":0.5196850393700787},{"number":64,"time":213.3270833333389,"value":0.5511811023622047},{"number":64,"time":213.32812500000557,"value":0.5511811023622047},{"number":64,"time":213.36250000000558,"value":0.5826771653543307},{"number":64,"time":213.36354166667226,"value":0.5826771653543307},{"number":64,"time":213.4343750000056,"value":0.6141732283464567},{"number":64,"time":213.43541666667227,"value":0.6141732283464567},{"number":64,"time":213.63854166667227,"value":0.6456692913385826},{"number":64,"time":213.63854166667227,"value":0.6456692913385826},{"number":64,"time":215.36562500000565,"value":0.6141732283464567},{"number":64,"time":215.36666666667233,"value":0.6141732283464567},{"number":64,"time":215.38541666667234,"value":0.5826771653543307},{"number":64,"time":215.38645833333902,"value":0.5826771653543307},{"number":64,"time":215.39791666667236,"value":0.5433070866141733},{"number":64,"time":215.39895833333904,"value":0.5433070866141733},{"number":64,"time":215.40937500000572,"value":0.49606299212598426},{"number":64,"time":215.4104166666724,"value":0.49606299212598426},{"number":64,"time":215.4229166666724,"value":0.4015748031496063},{"number":64,"time":215.42395833333907,"value":0.4015748031496063},{"number":64,"time":215.43750000000574,"value":0.2992125984251969},{"number":64,"time":215.43854166667242,"value":0.2992125984251969},{"number":64,"time":215.45729166667243,"value":0.2047244094488189},{"number":64,"time":215.4583333333391,"value":0.2047244094488189},{"number":64,"time":215.4739583333391,"value":0.10236220472440945},{"number":64,"time":215.4750000000058,"value":0.10236220472440945},{"number":64,"time":215.50208333333913,"value":0},{"number":64,"time":215.50208333333913,"value":0},{"number":64,"time":215.63645833333914,"value":0.10236220472440945},{"number":64,"time":215.63750000000582,"value":0.10236220472440945},{"number":64,"time":215.6500000000058,"value":0.2283464566929134},{"number":64,"time":215.6500000000058,"value":0.2283464566929134},{"number":64,"time":215.66145833333914,"value":0.33070866141732286},{"number":64,"time":215.66250000000582,"value":0.33070866141732286},{"number":64,"time":215.67708333333914,"value":0.44881889763779526},{"number":64,"time":215.67916666667247,"value":0.44881889763779526},{"number":64,"time":215.68541666667247,"value":0.4881889763779528},{"number":64,"time":215.68541666667247,"value":0.4881889763779528},{"number":64,"time":215.72916666667246,"value":0.5196850393700787},{"number":64,"time":215.73020833333914,"value":0.5196850393700787},{"number":64,"time":215.77291666667247,"value":0.5511811023622047},{"number":64,"time":215.77395833333915,"value":0.5511811023622047},{"number":64,"time":215.82083333333915,"value":0.5826771653543307},{"number":64,"time":215.82187500000583,"value":0.5826771653543307},{"number":64,"time":215.9135416666725,"value":0.6141732283464567},{"number":64,"time":215.91458333333918,"value":0.6141732283464567},{"number":64,"time":216.19687500000586,"value":0.6456692913385826},{"number":64,"time":216.19791666667254,"value":0.6456692913385826},{"number":64,"time":218.04479166667252,"value":0.6141732283464567},{"number":64,"time":218.0458333333392,"value":0.6141732283464567},{"number":64,"time":218.06875000000588,"value":0.5826771653543307},{"number":64,"time":218.06979166667256,"value":0.5826771653543307},{"number":64,"time":218.08020833333921,"value":0.5511811023622047},{"number":64,"time":218.0812500000059,"value":0.5511811023622047},{"number":64,"time":218.09270833333923,"value":0.5196850393700787},{"number":64,"time":218.0937500000059,"value":0.5196850393700787},{"number":64,"time":218.1000000000059,"value":0.4881889763779528},{"number":64,"time":218.1010416666726,"value":0.4881889763779528},{"number":64,"time":218.12812500000592,"value":0.4015748031496063},{"number":64,"time":218.1291666666726,"value":0.4015748031496063},{"number":64,"time":218.2041666666726,"value":0.47244094488188976},{"number":64,"time":218.20520833333927,"value":0.47244094488188976},{"number":64,"time":218.23645833333927,"value":0.5039370078740157},{"number":64,"time":218.23750000000595,"value":0.5039370078740157},{"number":64,"time":218.26770833333927,"value":0.5354330708661418},{"number":64,"time":218.26770833333927,"value":0.5354330708661418},{"number":64,"time":218.31145833333926,"value":0.5669291338582677},{"number":64,"time":218.31250000000594,"value":0.5669291338582677},{"number":64,"time":218.35937500000594,"value":0.5984251968503937},{"number":64,"time":218.36041666667262,"value":0.5984251968503937},{"number":64,"time":218.52291666667261,"value":0.6299212598425197},{"number":64,"time":218.52500000000595,"value":0.6299212598425197},{"number":64,"time":220.67500000000598,"value":0.5984251968503937},{"number":64,"time":220.67604166667266,"value":0.5984251968503937},{"number":64,"time":220.70729166667266,"value":0.5669291338582677},{"number":64,"time":220.70729166667266,"value":0.5669291338582677},{"number":64,"time":220.72291666667266,"value":0.5354330708661418},{"number":64,"time":220.72395833333934,"value":0.5354330708661418},{"number":64,"time":220.73541666667268,"value":0.49606299212598426},{"number":64,"time":220.73645833333936,"value":0.49606299212598426},{"number":64,"time":220.75104166667268,"value":0.4015748031496063},{"number":64,"time":220.75208333333936,"value":0.4015748031496063},{"number":64,"time":220.77500000000603,"value":0.2992125984251969},{"number":64,"time":220.7760416666727,"value":0.2992125984251969},{"number":64,"time":220.8197916666727,"value":0.2047244094488189},{"number":64,"time":220.8197916666727,"value":0.2047244094488189},{"number":64,"time":220.93125000000603,"value":0.33070866141732286},{"number":64,"time":220.93125000000603,"value":0.33070866141732286},{"number":64,"time":220.95625000000604,"value":0.44881889763779526},{"number":64,"time":220.95729166667272,"value":0.44881889763779526},{"number":64,"time":220.96250000000606,"value":0.48031496062992124},{"number":64,"time":220.96354166667274,"value":0.48031496062992124},{"number":64,"time":220.99062500000608,"value":0.5118110236220472},{"number":64,"time":220.99166666667276,"value":0.5118110236220472},{"number":64,"time":221.04687500000608,"value":0.5433070866141733},{"number":64,"time":221.04791666667276,"value":0.5433070866141733},{"number":64,"time":221.1906250000061,"value":0.5748031496062992},{"number":64,"time":221.19166666667277,"value":0.5748031496062992},{"number":64,"time":222.1666666666728,"value":0.6062992125984252},{"number":64,"time":222.1666666666728,"value":0.6062992125984252},{"number":64,"time":223.39062500000614,"value":0.5748031496062992},{"number":64,"time":223.39166666667282,"value":0.5748031496062992},{"number":64,"time":223.42604166667283,"value":0.5433070866141733},{"number":64,"time":223.4270833333395,"value":0.5433070866141733},{"number":64,"time":223.43854166667285,"value":0.5039370078740157},{"number":64,"time":223.43958333333953,"value":0.5039370078740157},{"number":64,"time":223.45000000000618,"value":0.47244094488188976},{"number":64,"time":223.45104166667286,"value":0.47244094488188976},{"number":64,"time":223.4625000000062,"value":0.3779527559055118},{"number":64,"time":223.46354166667288,"value":0.3779527559055118},{"number":64,"time":223.50208333333956,"value":0.2755905511811024},{"number":64,"time":223.50312500000624,"value":0.2755905511811024},{"number":64,"time":223.60520833333956,"value":0.3779527559055118},{"number":64,"time":223.60625000000624,"value":0.3779527559055118},{"number":64,"time":223.64583333333957,"value":0.48031496062992124},{"number":64,"time":223.64687500000625,"value":0.48031496062992124},{"number":64,"time":223.67812500000625,"value":0.5118110236220472},{"number":64,"time":223.67916666667293,"value":0.5118110236220472},{"number":64,"time":223.72500000000625,"value":0.5433070866141733},{"number":64,"time":223.72604166667293,"value":0.5433070866141733},{"number":64,"time":223.7770833333396,"value":0.5748031496062992},{"number":64,"time":223.7770833333396,"value":0.5748031496062992},{"number":64,"time":223.98645833333958,"value":0.6062992125984252},{"number":64,"time":223.98750000000626,"value":0.6062992125984252},{"number":64,"time":226.3208333333396,"value":0.5748031496062992},{"number":64,"time":226.3218750000063,"value":0.5748031496062992},{"number":64,"time":226.34479166667296,"value":0.5433070866141733},{"number":64,"time":226.34479166667296,"value":0.5433070866141733},{"number":64,"time":226.35104166667296,"value":0.5118110236220472},{"number":64,"time":226.35208333333964,"value":0.5118110236220472},{"number":64,"time":226.36458333333962,"value":0.47244094488188976},{"number":64,"time":226.36458333333962,"value":0.47244094488188976},{"number":64,"time":226.38020833333962,"value":0.3779527559055118},{"number":64,"time":226.3812500000063,"value":0.3779527559055118},{"number":64,"time":226.40000000000632,"value":0.2755905511811024},{"number":64,"time":226.40000000000632,"value":0.2755905511811024},{"number":64,"time":226.4437500000063,"value":0.18110236220472442},{"number":64,"time":226.44479166667298,"value":0.18110236220472442},{"number":64,"time":226.58750000000632,"value":0.2992125984251969},{"number":64,"time":226.588541666673,"value":0.2992125984251969},{"number":64,"time":226.607291666673,"value":0.4015748031496063},{"number":64,"time":226.607291666673,"value":0.4015748031496063},{"number":64,"time":226.619791666673,"value":0.47244094488188976},{"number":64,"time":226.62083333333968,"value":0.47244094488188976},{"number":64,"time":226.64375000000635,"value":0.5039370078740157},{"number":64,"time":226.64479166667303,"value":0.5039370078740157},{"number":64,"time":226.69479166667304,"value":0.5354330708661418},{"number":64,"time":226.69583333333972,"value":0.5354330708661418},{"number":64,"time":226.74791666667306,"value":0.5669291338582677},{"number":64,"time":226.74895833333974,"value":0.5669291338582677},{"number":64,"time":226.81979166667307,"value":0.5984251968503937},{"number":64,"time":226.82083333333975,"value":0.5984251968503937},{"number":64,"time":229.2614583333398,"value":0.5669291338582677},{"number":64,"time":229.26250000000647,"value":0.5669291338582677},{"number":64,"time":229.28229166667313,"value":0.5275590551181102},{"number":64,"time":229.2833333333398,"value":0.5275590551181102},{"number":64,"time":229.29479166667315,"value":0.49606299212598426},{"number":64,"time":229.29583333333983,"value":0.49606299212598426},{"number":64,"time":229.45833333333982,"value":0.5275590551181102},{"number":64,"time":229.4593750000065,"value":0.5275590551181102},{"number":64,"time":229.52604166667317,"value":0.5590551181102362},{"number":64,"time":229.52708333333985,"value":0.5590551181102362},{"number":64,"time":229.6104166666732,"value":0.5905511811023622},{"number":64,"time":229.6104166666732,"value":0.5905511811023622}]},"id":0,"name":"MIDI from piano","channelNumber":0,"isPercussion":false}]}