{"header":{"PPQ":480,"timeSignature":[4,4],"bpm":120,"name":""},"startTime":0,"duration":209.29687500000009,"tracks":[{"startTime":0,"duration":0,"length":0,"notes":[],"controlChanges":{},"id":0},{"startTime":2.3208333333333333,"duration":209.29687499999986,"length":275,"notes":[{"name":"A4","midi":69,"time":2.3208333333333333,"velocity":0.31496062992125984,"duration":0.2677083333333332},{"name":"D5","midi":74,"time":2.40625,"velocity":0.3543307086614173,"duration":0.18229166666666652},{"name":"F5","midi":77,"time":2.4739583333333335,"velocity":0.4409448818897638,"duration":0.11458333333333304},{"name":"A5","midi":81,"time":2.5864583333333333,"velocity":0.4881889763779528,"duration":0.5291666666666668},{"name":"G5","midi":79,"time":3.0927083333333334,"velocity":0.48031496062992124,"duration":1.0656249999999998},{"name":"F5","midi":77,"time":3.904166666666667,"velocity":0.3464566929133858,"duration":0.25416666666666643},{"name":"G5","midi":79,"time":4.1812499999999995,"velocity":0.4094488188976378,"duration":0.20833333333333304},{"name":"F5","midi":77,"time":4.412499999999999,"velocity":0.3858267716535433,"duration":0.18541666666666679},{"name":"D5","midi":74,"time":4.620833333333332,"velocity":0.3858267716535433,"duration":2.9854166666666666},{"name":"A4","midi":69,"time":8.530208333333333,"velocity":0.4015748031496063,"duration":0.08958333333333357},{"name":"D5","midi":74,"time":8.638541666666667,"velocity":0.3228346456692913,"duration":0.040625000000000355},{"name":"F5","midi":77,"time":8.6875,"velocity":0.49606299212598426,"duration":0.09375},{"name":"A5","midi":81,"time":8.797916666666667,"velocity":0.5433070866141733,"duration":0.6520833333333336},{"name":"C6","midi":84,"time":9.387500000000001,"velocity":0.5669291338582677,"duration":0.78125},{"name":"G5","midi":79,"time":10.067708333333334,"velocity":0.5196850393700787,"duration":3.2822916666666675},{"name":"A4","midi":69,"time":14.788541666666667,"velocity":0.3464566929133858,"duration":0.07395833333333357},{"name":"D5","midi":74,"time":14.898958333333335,"velocity":0.3700787401574803,"duration":0.048958333333333215},{"name":"F5","midi":77,"time":14.968750000000002,"velocity":0.49606299212598426,"duration":0.08958333333333357},{"name":"A5","midi":81,"time":15.070833333333335,"velocity":0.5826771653543307,"duration":0.6156250000000014},{"name":"G5","midi":79,"time":15.665625000000002,"velocity":0.49606299212598426,"duration":0.486458333333335},{"name":"F5","midi":77,"time":16.185416666666672,"velocity":0.4251968503937008,"duration":0.2666666666666657},{"name":"G5","midi":79,"time":16.47291666666667,"velocity":0.4094488188976378,"duration":0.21249999999999858},{"name":"F5","midi":77,"time":16.681250000000002,"velocity":0.33070866141732286,"duration":0.19687499999999858},{"name":"D5","midi":74,"time":16.901041666666668,"velocity":0.3543307086614173,"duration":1.2510416666666657},{"name":"D5","midi":74,"time":18.710416666666667,"velocity":0.3779527559055118,"duration":0.234375},{"name":"E5","midi":76,"time":18.975,"velocity":0.3779527559055118,"duration":0.27291666666666714},{"name":"D5","midi":74,"time":19.288541666666667,"velocity":0.36220472440944884,"duration":2.5187500000000007},{"name":"D5","midi":74,"time":22.358333333333334,"velocity":0.3779527559055118,"duration":3.2156249999999993},{"name":"A4","midi":69,"time":27.795833333333334,"velocity":0.2992125984251969,"duration":0.05937499999999929},{"name":"D5","midi":74,"time":27.88854166666667,"velocity":0.31496062992125984,"duration":0.16562500000000213},{"name":"F5","midi":77,"time":27.965625000000003,"velocity":0.4645669291338583,"duration":0.09062500000000284},{"name":"A5","midi":81,"time":28.07395833333334,"velocity":0.5196850393700787,"duration":0.439583333333335},{"name":"G5","midi":79,"time":28.49583333333334,"velocity":0.4645669291338583,"duration":0.1750000000000007},{"name":"F5","midi":77,"time":29.06875000000001,"velocity":0.3779527559055118,"duration":0.015625},{"name":"F5","midi":77,"time":29.363541666666674,"velocity":0.4409448818897638,"duration":0.08437500000000142},{"name":"G5","midi":79,"time":29.47500000000001,"velocity":0.4566929133858268,"duration":0.13541666666666785},{"name":"F5","midi":77,"time":29.63958333333334,"velocity":0.3543307086614173,"duration":0.14895833333333286},{"name":"D5","midi":74,"time":29.83437500000001,"velocity":0.3937007874015748,"duration":1.6364583333333336},{"name":"A4","midi":69,"time":33.245833333333344,"velocity":0.2992125984251969,"duration":0.06666666666666998},{"name":"F5","midi":77,"time":33.375000000000014,"velocity":0.4645669291338583,"duration":0.12916666666666288},{"name":"D5","midi":74,"time":33.38333333333335,"velocity":0.1889763779527559,"duration":0.03125},{"name":"A5","midi":81,"time":33.50312500000001,"velocity":0.5826771653543307,"duration":0.4010416666666643},{"name":"G5","midi":79,"time":33.75000000000001,"velocity":0.5511811023622047,"duration":0.6104166666666657},{"name":"C6","midi":84,"time":34.17812500000001,"velocity":0.5826771653543307,"duration":0.9729166666666629},{"name":"G5","midi":79,"time":34.86770833333334,"velocity":0.4881889763779528,"duration":3.0208333333333286},{"name":"A4","midi":69,"time":38.82083333333333,"velocity":0.3464566929133858,"duration":0.1145833333333357},{"name":"D5","midi":74,"time":38.98229166666667,"velocity":0.25984251968503935,"duration":0.020833333333335702},{"name":"F5","midi":77,"time":39.02395833333334,"velocity":0.47244094488188976,"duration":0.1041666666666714},{"name":"A5","midi":81,"time":39.122916666666676,"velocity":0.5511811023622047,"duration":0.6281249999999972},{"name":"G5","midi":79,"time":39.71770833333334,"velocity":0.4645669291338583,"duration":0.45520833333333144},{"name":"F5","midi":77,"time":40.18750000000001,"velocity":0.44881889763779526,"duration":0.22083333333333144},{"name":"G5","midi":79,"time":40.43333333333334,"velocity":0.4251968503937008,"duration":0.18437499999999574},{"name":"F5","midi":77,"time":40.6,"velocity":0.3543307086614173,"duration":0.1875},{"name":"D5","midi":74,"time":40.813541666666666,"velocity":0.4015748031496063,"duration":1.34375},{"name":"D5","midi":74,"time":42.75416666666666,"velocity":0.33858267716535434,"duration":0.09791666666666998},{"name":"E5","midi":76,"time":42.90833333333333,"velocity":0.3700787401574803,"duration":0.08541666666666714},{"name":"D5","midi":74,"time":43.040625,"velocity":0.4094488188976378,"duration":1.8260416666666686},{"name":"D5","midi":74,"time":45.860416666666666,"velocity":0.33858267716535434,"duration":2.7354166666666657},{"name":"A4","midi":69,"time":51.702083333333334,"velocity":0.28346456692913385,"duration":0.0625},{"name":"D5","midi":74,"time":51.829166666666666,"velocity":0.2755905511811024,"duration":0.13125000000000142},{"name":"F5","midi":77,"time":51.86145833333333,"velocity":0.48031496062992124,"duration":0.13437500000000568},{"name":"A5","midi":81,"time":52.01041666666667,"velocity":0.5039370078740157,"duration":0.36145833333333144},{"name":"G5","midi":79,"time":52.31458333333334,"velocity":0.5354330708661418,"duration":0.4260416666666629},{"name":"F5","midi":77,"time":52.73020833333334,"velocity":0.5354330708661418,"duration":0.37708333333333144},{"name":"E5","midi":76,"time":53.115625,"velocity":0.47244094488188976,"duration":0.25729166666666714},{"name":"F5","midi":77,"time":53.380208333333336,"velocity":0.48031496062992124,"duration":0.24062500000000142},{"name":"E5","midi":76,"time":53.58020833333334,"velocity":0.4015748031496063,"duration":0.1979166666666643},{"name":"D5","midi":74,"time":53.800000000000004,"velocity":0.4409448818897638,"duration":1.6489583333333329},{"name":"A4","midi":69,"time":56.96666666666667,"velocity":0.3937007874015748,"duration":0.10000000000000142},{"name":"D5","midi":74,"time":57.081250000000004,"velocity":0.36220472440944884,"duration":0.0833333333333357},{"name":"F5","midi":77,"time":57.118750000000006,"velocity":0.5196850393700787,"duration":0.12916666666666998},{"name":"A5","midi":81,"time":57.23541666666667,"velocity":0.6062992125984252,"duration":0.6729166666666657},{"name":"C6","midi":84,"time":57.82916666666667,"velocity":0.6062992125984252,"duration":0.6822916666666643},{"name":"G5","midi":79,"time":58.52395833333334,"velocity":0.5590551181102362,"duration":2.8729166666666686},{"name":"A4","midi":69,"time":62.42395833333334,"velocity":0.3937007874015748,"duration":0.11666666666666714},{"name":"D5","midi":74,"time":62.57708333333334,"velocity":0.2755905511811024,"duration":0.02187500000000142},{"name":"F5","midi":77,"time":62.60416666666668,"velocity":0.5354330708661418,"duration":0.1822916666666643},{"name":"A5","midi":81,"time":62.76041666666668,"velocity":0.6141732283464567,"duration":0.6729166666666657},{"name":"G5","midi":79,"time":63.15000000000001,"velocity":0.5354330708661418,"duration":0.37291666666666856},{"name":"F5","midi":77,"time":63.46145833333335,"velocity":0.5669291338582677,"duration":0.4281250000000014},{"name":"E5","midi":76,"time":63.877083333333346,"velocity":0.5196850393700787,"duration":0.328125},{"name":"G5","midi":79,"time":64.17395833333335,"velocity":0.5354330708661418,"duration":0.24166666666666003},{"name":"F5","midi":77,"time":64.36875,"velocity":0.5118110236220472,"duration":0.34062500000000284},{"name":"E5","midi":76,"time":64.65416666666667,"velocity":0.44881889763779526,"duration":0.20208333333333428},{"name":"D5","midi":74,"time":64.85833333333333,"velocity":0.48031496062992124,"duration":1.9385416666666657},{"name":"A4","midi":69,"time":67.825,"velocity":0.4645669291338583,"duration":0.21770833333333428},{"name":"D5","midi":74,"time":67.92708333333334,"velocity":0.44881889763779526,"duration":0.11562499999999432},{"name":"F5","midi":77,"time":67.97708333333334,"velocity":0.5669291338582677,"duration":0.15208333333333712},{"name":"A5","midi":81,"time":68.10416666666667,"velocity":0.5984251968503937,"duration":0.3062500000000057},{"name":"G5","midi":79,"time":68.41458333333334,"velocity":0.5748031496062992,"duration":0.3999999999999915},{"name":"A5","midi":81,"time":68.78020833333333,"velocity":0.6299212598425197,"duration":0.37708333333333144},{"name":"C6","midi":84,"time":69.13958333333333,"velocity":0.6141732283464567,"duration":0.7864583333333286},{"name":"G5","midi":79,"time":69.50729166666666,"velocity":0.5511811023622047,"duration":0.3947916666666629},{"name":"A4","midi":69,"time":73.24479166666666,"velocity":0.44881889763779526,"duration":0.1354166666666714},{"name":"D5","midi":74,"time":73.33645833333333,"velocity":0.4409448818897638,"duration":0.125},{"name":"F5","midi":77,"time":73.39166666666667,"velocity":0.5354330708661418,"duration":0.16354166666666003},{"name":"A5","midi":81,"time":73.51249999999999,"velocity":0.7244094488188977,"duration":0.11249999999999716},{"name":"G5","midi":79,"time":77.58437499999998,"velocity":0.5905511811023622,"duration":0.5125000000000028},{"name":"G5","midi":79,"time":78.66666666666664,"velocity":0.4251968503937008,"duration":0.14270833333333144},{"name":"A5","midi":81,"time":78.77395833333331,"velocity":0.48031496062992124,"duration":0.08437500000000853},{"name":"C6","midi":84,"time":78.84999999999998,"velocity":0.6141732283464567,"duration":0.66458333333334},{"name":"A5","midi":81,"time":79.94479166666666,"velocity":0.36220472440944884,"duration":0.06874999999999432},{"name":"C6","midi":84,"time":80.03020833333332,"velocity":0.44881889763779526,"duration":0.08750000000000568},{"name":"D6","midi":86,"time":80.13229166666666,"velocity":0.5905511811023622,"duration":0.5499999999999972},{"name":"D6","midi":86,"time":81.10416666666666,"velocity":0.4566929133858268,"duration":0.21145833333333997},{"name":"E6","midi":88,"time":81.34895833333333,"velocity":0.3543307086614173,"duration":0.3541666666666714},{"name":"F6","midi":89,"time":81.73958333333333,"velocity":0.44881889763779526,"duration":0.4791666666666714},{"name":"E6","midi":88,"time":82.61875,"velocity":0.3858267716535433,"duration":0.4489583333333371},{"name":"A4","midi":69,"time":85.52916666666668,"velocity":0.2283464566929134,"duration":0.23645833333333144},{"name":"D5","midi":74,"time":85.61562500000002,"velocity":0.36220472440944884,"duration":0.14999999999999147},{"name":"F5","midi":77,"time":85.69687500000002,"velocity":0.4645669291338583,"duration":0.1145833333333286},{"name":"A5","midi":81,"time":85.80833333333335,"velocity":0.5905511811023622,"duration":0.5489583333333314},{"name":"G5","midi":79,"time":86.30000000000001,"velocity":0.44881889763779526,"duration":0.3739583333333343},{"name":"F5","midi":77,"time":87.12083333333335,"velocity":0.30708661417322836,"duration":0.022916666666660035},{"name":"G5","midi":79,"time":87.49270833333334,"velocity":0.4251968503937008,"duration":0.14479166666666288},{"name":"F5","midi":77,"time":87.63958333333333,"velocity":0.4015748031496063,"duration":0.14687499999999432},{"name":"D5","midi":74,"time":87.81770833333333,"velocity":0.4409448818897638,"duration":1.7052083333333314},{"name":"A4","midi":69,"time":91.38749999999999,"velocity":0.3779527559055118,"duration":0.08437499999999432},{"name":"D5","midi":74,"time":91.48749999999998,"velocity":0.4566929133858268,"duration":0.07395833333333712},{"name":"F5","midi":77,"time":91.54999999999998,"velocity":0.5511811023622047,"duration":0.13854166666666856},{"name":"A5","midi":81,"time":91.66666666666666,"velocity":0.5433070866141733,"duration":0.6364583333333229},{"name":"C6","midi":84,"time":92.23854166666665,"velocity":0.5511811023622047,"duration":0.7052083333333314},{"name":"G5","midi":79,"time":92.87916666666665,"velocity":0.5196850393700787,"duration":2.5010416666666657},{"name":"A4","midi":69,"time":96.62604166666665,"velocity":0.4330708661417323,"duration":0.07916666666666572},{"name":"D5","midi":74,"time":96.71562499999999,"velocity":0.4566929133858268,"duration":0.09999999999999432},{"name":"F5","midi":77,"time":96.80104166666665,"velocity":0.5511811023622047,"duration":0.14687499999999432},{"name":"A5","midi":81,"time":96.93020833333331,"velocity":0.6220472440944882,"duration":0.5406250000000057},{"name":"G5","midi":79,"time":97.41249999999998,"velocity":0.5354330708661418,"duration":0.6281249999999972},{"name":"F5","midi":77,"time":98.04270833333331,"velocity":0.5433070866141733,"duration":0.3645833333333286},{"name":"G5","midi":79,"time":98.40416666666664,"velocity":0.5196850393700787,"duration":0.22291666666666288},{"name":"F5","midi":77,"time":98.6083333333333,"velocity":0.4251968503937008,"duration":0.2864583333333286},{"name":"D5","midi":74,"time":98.86874999999996,"velocity":0.5354330708661418,"duration":1.3572916666666686},{"name":"D5","midi":74,"time":100.85729166666663,"velocity":0.3858267716535433,"duration":0.17499999999999716},{"name":"E5","midi":76,"time":101.0739583333333,"velocity":0.4330708661417323,"duration":0.2552083333333286},{"name":"D5","midi":74,"time":101.37708333333329,"velocity":0.4015748031496063,"duration":2.7833333333333314},{"name":"E5","midi":76,"time":104.14895833333328,"velocity":0.3779527559055118,"duration":3.518749999999997},{"name":"F4","midi":65,"time":108.77499999999995,"velocity":0.2992125984251969,"duration":0.3458333333333172},{"name":"G#4","midi":68,"time":108.82812499999994,"velocity":0.4094488188976378,"duration":0.2927083333333229},{"name":"C5","midi":72,"time":108.91145833333327,"velocity":0.3779527559055118,"duration":0.20937499999999432},{"name":"F5","midi":77,"time":109.0416666666666,"velocity":0.4881889763779528,"duration":0.07916666666666572},{"name":"G#5","midi":80,"time":109.10833333333326,"velocity":0.5511811023622047,"duration":0.07916666666666572},{"name":"C6","midi":84,"time":109.1885416666666,"velocity":0.5669291338582677,"duration":1.5250000000000057},{"name":"A#5","midi":82,"time":109.71770833333326,"velocity":0.5275590551181102,"duration":0.9958333333333371},{"name":"G#5","midi":80,"time":110.36770833333327,"velocity":0.5275590551181102,"duration":0.34583333333333144},{"name":"A#5","midi":82,"time":110.81770833333327,"velocity":0.5118110236220472,"duration":0.20208333333333428},{"name":"G#5","midi":80,"time":111.0041666666666,"velocity":0.49606299212598426,"duration":1},{"name":"F5","midi":77,"time":111.20624999999994,"velocity":0.4645669291338583,"duration":2.4000000000000057},{"name":"F#4","midi":66,"time":114.32395833333328,"velocity":0.3858267716535433,"duration":0.3343749999999943},{"name":"A#4","midi":70,"time":114.42187499999994,"velocity":0.3228346456692913,"duration":0.23645833333333144},{"name":"C#5","midi":73,"time":114.46874999999994,"velocity":0.4330708661417323,"duration":0.18958333333333144},{"name":"F#5","midi":78,"time":114.59999999999994,"velocity":0.4409448818897638,"duration":0.05833333333333712},{"name":"A#5","midi":82,"time":114.64999999999993,"velocity":0.5196850393700787,"duration":0.08020833333334565},{"name":"C#6","midi":85,"time":114.74687499999995,"velocity":0.6220472440944882,"duration":1.2354166666666657},{"name":"C6","midi":84,"time":115.33437499999995,"velocity":0.5669291338582677,"duration":0.6593749999999972},{"name":"G#5","midi":80,"time":115.99895833333328,"velocity":0.5826771653543307,"duration":0.4947916666666714},{"name":"A5","midi":81,"time":117.21354166666661,"velocity":0.6220472440944882,"duration":1.4958333333333371},{"name":"A#5","midi":82,"time":118.69479166666662,"velocity":0.49606299212598426,"duration":1.5572916666666572},{"name":"G4","midi":67,"time":119.97708333333328,"velocity":0.2992125984251969,"duration":0.2749999999999915},{"name":"A#4","midi":70,"time":120.05833333333328,"velocity":0.3779527559055118,"duration":0.19374999999999432},{"name":"D5","midi":74,"time":120.11041666666661,"velocity":0.4094488188976378,"duration":0.14166666666666572},{"name":"G5","midi":79,"time":120.2854166666666,"velocity":0.4094488188976378,"duration":0.01458333333333428},{"name":"A#5","midi":82,"time":120.34166666666661,"velocity":0.2204724409448819,"duration":0.041666666666671404},{"name":"D6","midi":86,"time":120.35729166666661,"velocity":0.6220472440944882,"duration":1.4052083333333485},{"name":"C6","midi":84,"time":120.79791666666662,"velocity":0.5039370078740157,"duration":0.9645833333333371},{"name":"A#5","midi":82,"time":121.46666666666663,"velocity":0.47244094488188976,"duration":0.2958333333333343},{"name":"C6","midi":84,"time":121.82291666666663,"velocity":0.44881889763779526,"duration":0.17291666666666572},{"name":"A#5","midi":82,"time":122.00104166666662,"velocity":0.3700787401574803,"duration":0.17604166666666288},{"name":"G5","midi":79,"time":122.20416666666662,"velocity":0.4015748031496063,"duration":1.5333333333333314},{"name":"A#5","midi":82,"time":125.39166666666662,"velocity":0.5669291338582677,"duration":0.6437499999999972},{"name":"A5","midi":81,"time":126.01249999999996,"velocity":0.5669291338582677,"duration":0.4781249999999915},{"name":"G5","midi":79,"time":126.47395833333329,"velocity":0.5354330708661418,"duration":0.7166666666666686},{"name":"F5","midi":77,"time":127.23749999999995,"velocity":0.3937007874015748,"duration":0.13229166666666003},{"name":"D5","midi":74,"time":127.41770833333328,"velocity":0.4566929133858268,"duration":3.06354166666668},{"name":"G4","midi":67,"time":131.48749999999995,"velocity":0.28346456692913385,"duration":0.4260416666666629},{"name":"A#4","midi":70,"time":131.54791666666662,"velocity":0.36220472440944884,"duration":0.3656249999999943},{"name":"D5","midi":74,"time":131.6541666666666,"velocity":0.2755905511811024,"duration":0.2593750000000057},{"name":"G5","midi":79,"time":131.77499999999995,"velocity":0.4015748031496063,"duration":0.13854166666666856},{"name":"A#5","midi":82,"time":131.82291666666663,"velocity":0.5433070866141733,"duration":0.09479166666665151},{"name":"D6","midi":86,"time":131.92499999999995,"velocity":0.5275590551181102,"duration":0.37812500000001137},{"name":"C6","midi":84,"time":132.4645833333333,"velocity":0.47244094488188976,"duration":0.054166666666674246},{"name":"A5","midi":81,"time":133.19583333333333,"velocity":0.4251968503937008,"duration":0.07291666666665719},{"name":"A#5","midi":82,"time":133.50729166666665,"velocity":0.5433070866141733,"duration":0.14270833333333144},{"name":"C6","midi":84,"time":133.68124999999998,"velocity":0.47244094488188976,"duration":1.5843749999999943},{"name":"G5","midi":79,"time":133.8864583333333,"velocity":0.4409448818897638,"duration":1.3656249999999943},{"name":"A#5","midi":82,"time":137.28229166666665,"velocity":0.5118110236220472,"duration":0.22499999999999432},{"name":"A5","midi":81,"time":137.5177083333333,"velocity":0.5118110236220472,"duration":0.19583333333332575},{"name":"G5","midi":79,"time":137.69999999999996,"velocity":0.5196850393700787,"duration":0.16458333333332575},{"name":"F5","midi":77,"time":137.8833333333333,"velocity":0.5196850393700787,"duration":0.4416666666666629},{"name":"G5","midi":79,"time":138.37291666666664,"velocity":0.5196850393700787,"duration":0.22291666666666288},{"name":"D5","midi":74,"time":138.55104166666663,"velocity":0.5826771653543307,"duration":2.6468749999999943},{"name":"G4","midi":67,"time":142.22291666666663,"velocity":0.33070866141732286,"duration":0.408333333333303},{"name":"A#4","midi":70,"time":142.26874999999995,"velocity":0.41732283464566927,"duration":0.36249999999998295},{"name":"D5","midi":74,"time":142.34687499999995,"velocity":0.4566929133858268,"duration":0.28437499999998295},{"name":"G5","midi":79,"time":142.50208333333327,"velocity":0.5118110236220472,"duration":0.12916666666666288},{"name":"A#5","midi":82,"time":142.55624999999995,"velocity":0.5511811023622047,"duration":0.10104166666664582},{"name":"D6","midi":86,"time":142.6729166666666,"velocity":0.5669291338582677,"duration":0.47708333333332575},{"name":"C6","midi":84,"time":143.16145833333326,"velocity":0.5039370078740157,"duration":0.07395833333333712},{"name":"A#5","midi":82,"time":143.8854166666666,"velocity":0.47244094488188976,"duration":0.05937499999998863},{"name":"C6","midi":84,"time":144.09270833333326,"velocity":0.4330708661417323,"duration":0.14895833333332575},{"name":"D6","midi":86,"time":144.2718749999999,"velocity":0.3858267716535433,"duration":1.06145833333332},{"name":"G5","midi":79,"time":144.45833333333323,"velocity":0.4409448818897638,"duration":0.9854166666666799},{"name":"A#5","midi":82,"time":145.84166666666658,"velocity":0.5196850393700787,"duration":0.040625000000005684},{"name":"A5","midi":81,"time":146.50312499999993,"velocity":0.6062992125984252,"duration":0.43645833333332007},{"name":"G5","midi":79,"time":147.16979166666658,"velocity":0.47244094488188976,"duration":0.11145833333333144},{"name":"F5","midi":77,"time":147.78541666666658,"velocity":0.5275590551181102,"duration":0.3656249999999943},{"name":"D5","midi":74,"time":148.47604166666656,"velocity":0.4645669291338583,"duration":0.0625},{"name":"A5","midi":81,"time":148.97708333333324,"velocity":0.5984251968503937,"duration":0.40625},{"name":"G5","midi":79,"time":149.60520833333325,"velocity":0.5196850393700787,"duration":0.1458333333333428},{"name":"F5","midi":77,"time":150.14270833333327,"velocity":0.5354330708661418,"duration":0.3395833333333371},{"name":"D5","midi":74,"time":150.7479166666666,"velocity":0.49606299212598426,"duration":0.10208333333332575},{"name":"G5","midi":79,"time":151.25937499999995,"velocity":0.5196850393700787,"duration":0.3635416666666629},{"name":"F5","midi":77,"time":151.86041666666662,"velocity":0.5590551181102362,"duration":0.08958333333333712},{"name":"E5","midi":76,"time":152.43749999999997,"velocity":0.5511811023622047,"duration":0.3322916666666629},{"name":"C5","midi":72,"time":153.0458333333333,"velocity":0.6220472440944882,"duration":0.06874999999999432},{"name":"D5","midi":74,"time":153.6854166666666,"velocity":0.5748031496062992,"duration":0.3968749999999943},{"name":"E5","midi":76,"time":154.37395833333326,"velocity":0.48031496062992124,"duration":0.12812500000001137},{"name":"F5","midi":77,"time":155.1666666666666,"velocity":0.5196850393700787,"duration":0.453125},{"name":"E5","midi":76,"time":156.12499999999994,"velocity":0.3937007874015748,"duration":0.14479166666666288},{"name":"A4","midi":69,"time":158.9385416666666,"velocity":0.30708661417322836,"duration":0.26770833333333144},{"name":"D5","midi":74,"time":159.04999999999993,"velocity":0.2992125984251969,"duration":0.15625},{"name":"F5","midi":77,"time":159.10312499999992,"velocity":0.4566929133858268,"duration":0.12187499999998863},{"name":"A5","midi":81,"time":159.22083333333325,"velocity":0.5118110236220472,"duration":0.40416666666666856},{"name":"G5","midi":79,"time":159.70208333333323,"velocity":0.4330708661417323,"duration":0.07083333333332575},{"name":"F5","midi":77,"time":160.42291666666657,"velocity":0.4409448818897638,"duration":0.2864583333333428},{"name":"G5","midi":79,"time":160.74999999999991,"velocity":0.4094488188976378,"duration":0.19166666666666288},{"name":"F5","midi":77,"time":160.9812499999999,"velocity":0.30708661417322836,"duration":0.22499999999999432},{"name":"D5","midi":74,"time":161.21770833333323,"velocity":0.3779527559055118,"duration":0.05104166666666288},{"name":"A4","midi":69,"time":164.7624999999999,"velocity":0.4330708661417323,"duration":0.10104166666667425},{"name":"D5","midi":74,"time":164.8874999999999,"velocity":0.3464566929133858,"duration":0.01458333333332007},{"name":"F5","midi":77,"time":164.9218749999999,"velocity":0.5196850393700787,"duration":0.10520833333333712},{"name":"A5","midi":81,"time":165.0281249999999,"velocity":0.5590551181102362,"duration":0.7083333333333428},{"name":"C6","midi":84,"time":165.63958333333323,"velocity":0.5669291338582677,"duration":0.7572916666666742},{"name":"G5","midi":79,"time":166.3041666666666,"velocity":0.48031496062992124,"duration":0.3552083333333087},{"name":"A4","midi":69,"time":170.20416666666657,"velocity":0.4251968503937008,"duration":0.09479166666665151},{"name":"D5","midi":74,"time":170.2968749999999,"velocity":0.4645669291338583,"duration":0.06458333333333144},{"name":"F5","midi":77,"time":170.38124999999988,"velocity":0.4881889763779528,"duration":0.10000000000002274},{"name":"A5","midi":81,"time":170.48020833333322,"velocity":0.5748031496062992,"duration":0.546875},{"name":"G5","midi":79,"time":171.0656249999999,"velocity":0.5196850393700787,"duration":0.18854166666667993},{"name":"F5","midi":77,"time":171.51354166666658,"velocity":0.4881889763779528,"duration":0.056250000000005684},{"name":"G5","midi":79,"time":171.82187499999992,"velocity":0.3937007874015748,"duration":0.16979166666666856},{"name":"F5","midi":77,"time":172.01562499999991,"velocity":0.4251968503937008,"duration":0.15937500000001137},{"name":"D5","midi":74,"time":172.22708333333327,"velocity":0.41732283464566927,"duration":0.03125},{"name":"D5","midi":74,"time":174.05833333333328,"velocity":0.5118110236220472,"duration":0.19895833333333712},{"name":"E5","midi":76,"time":174.2864583333333,"velocity":0.4330708661417323,"duration":0.2697916666666629},{"name":"D5","midi":74,"time":174.61041666666662,"velocity":0.3779527559055118,"duration":0.18333333333333712},{"name":"D5","midi":74,"time":177.2583333333333,"velocity":0.44881889763779526,"duration":0.5666666666666629},{"name":"A4","midi":69,"time":181.56979166666662,"velocity":0.29133858267716534,"duration":0.252083333333303},{"name":"D5","midi":74,"time":181.6916666666666,"velocity":0.2755905511811024,"duration":0.13020833333331439},{"name":"F5","midi":77,"time":181.73333333333326,"velocity":0.4645669291338583,"duration":0.10520833333333712},{"name":"A5","midi":81,"time":181.84895833333326,"velocity":0.4881889763779528,"duration":0.36145833333333144},{"name":"G5","midi":79,"time":182.28541666666658,"velocity":0.33858267716535434,"duration":0.09270833333332007},{"name":"F5","midi":77,"time":182.98958333333323,"velocity":0.33858267716535434,"duration":0.2604166666666572},{"name":"G5","midi":79,"time":183.2749999999999,"velocity":0.2992125984251969,"duration":0.20416666666667993},{"name":"F5","midi":77,"time":183.4937499999999,"velocity":0.2755905511811024,"duration":0.21041666666667425},{"name":"D5","midi":74,"time":183.76354166666655,"velocity":0.2992125984251969,"duration":0.012499999999988631},{"name":"A4","midi":69,"time":186.99166666666653,"velocity":0.3937007874015748,"duration":0.056250000000005684},{"name":"D5","midi":74,"time":187.14166666666654,"velocity":0.25984251968503935,"duration":0.01770833333333144},{"name":"F5","midi":77,"time":187.14687499999988,"velocity":0.49606299212598426,"duration":0.125},{"name":"A5","midi":81,"time":187.28333333333322,"velocity":0.4566929133858268,"duration":0.7083333333333428},{"name":"C6","midi":84,"time":187.89270833333322,"velocity":0.48031496062992124,"duration":0.6979166666666572},{"name":"G5","midi":79,"time":188.53333333333322,"velocity":0.3858267716535433,"duration":0.5947916666666515},{"name":"A4","midi":69,"time":192.1083333333332,"velocity":0.31496062992125984,"duration":0.055208333333325754},{"name":"D5","midi":74,"time":192.1989583333332,"velocity":0.31496062992125984,"duration":0.04895833333333144},{"name":"F5","midi":77,"time":192.27916666666653,"velocity":0.44881889763779526,"duration":0.14895833333332575},{"name":"A5","midi":81,"time":192.39479166666652,"velocity":0.5039370078740157,"duration":0.34166666666666856},{"name":"G5","midi":79,"time":192.9802083333332,"velocity":0.3858267716535433,"duration":0.09479166666667993},{"name":"F5","midi":77,"time":193.42604166666655,"velocity":0.3779527559055118,"duration":0.2874999999999943},{"name":"G5","midi":79,"time":193.74166666666653,"velocity":0.4094488188976378,"duration":0.15312499999998863},{"name":"F5","midi":77,"time":193.91874999999985,"velocity":0.31496062992125984,"duration":1.0864583333333258},{"name":"D5","midi":74,"time":194.16874999999985,"velocity":0.36220472440944884,"duration":0.8364583333333258},{"name":"D5","midi":74,"time":196.0822916666665,"velocity":0.3858267716535433,"duration":0.606250000000017},{"name":"E5","midi":76,"time":196.35937499999983,"velocity":0.3228346456692913,"duration":0.32916666666667993},{"name":"D5","midi":74,"time":196.71145833333318,"velocity":0.36220472440944884,"duration":2.6656250000000057},{"name":"C5","midi":72,"time":199.9229166666665,"velocity":0.3228346456692913,"duration":0.12708333333333144},{"name":"D5","midi":74,"time":200.07083333333318,"velocity":0.41732283464566927,"duration":9.226041666666674}],"controlChanges":{},"id":1,"name":"Melody","channelNumber":0,"isPercussion":false},{"startTime":1.4239583333333334,"duration":209.29687500000006,"length":549,"notes":[{"name":"F3","midi":53,"time":1.4239583333333334,"velocity":0.2047244094488189,"duration":1.164583333333333},{"name":"A3","midi":57,"time":1.428125,"velocity":0.1732283464566929,"duration":1.1604166666666664},{"name":"A3","midi":57,"time":2.0322916666666666,"velocity":0.2047244094488189,"duration":0.5562499999999999},{"name":"F3","midi":53,"time":2.0354166666666664,"velocity":0.23622047244094488,"duration":0.5531250000000001},{"name":"F3","midi":53,"time":3.080208333333333,"velocity":0.2755905511811024,"duration":0.18125000000000036},{"name":"A3","midi":57,"time":3.11875,"velocity":0.14173228346456693,"duration":0.12291666666666679},{"name":"F3","midi":53,"time":3.644791666666667,"velocity":0.2047244094488189,"duration":0.545833333333333},{"name":"A3","midi":57,"time":3.6583333333333337,"velocity":0.1889763779527559,"duration":0.49999999999999956},{"name":"D3","midi":50,"time":4.638541666666667,"velocity":0.1968503937007874,"duration":0.15833333333333321},{"name":"F3","midi":53,"time":4.644791666666666,"velocity":0.1732283464566929,"duration":0.16562500000000036},{"name":"F3","midi":53,"time":5.061458333333333,"velocity":0.2677165354330709,"duration":0.5041666666666673},{"name":"D3","midi":50,"time":5.072916666666667,"velocity":0.2440944881889764,"duration":0.49270833333333375},{"name":"F3","midi":53,"time":6.052083333333334,"velocity":0.23622047244094488,"duration":0.17916666666666714},{"name":"D3","midi":50,"time":6.062500000000001,"velocity":0.13385826771653545,"duration":0.1395833333333334},{"name":"F3","midi":53,"time":6.723958333333335,"velocity":0.18110236220472442,"duration":0.40625},{"name":"D3","midi":50,"time":6.743750000000001,"velocity":0.16535433070866143,"duration":0.10520833333333357},{"name":"A3","midi":57,"time":7.958333333333335,"velocity":0.23622047244094488,"duration":0.18020833333333375},{"name":"F3","midi":53,"time":7.975000000000001,"velocity":0.29133858267716534,"duration":0.109375},{"name":"A3","midi":57,"time":8.369791666666668,"velocity":0.25196850393700787,"duration":0.4197916666666668},{"name":"F3","midi":53,"time":8.392708333333335,"velocity":0.1889763779527559,"duration":0.36666666666666714},{"name":"F3","midi":53,"time":9.256250000000001,"velocity":0.2677165354330709,"duration":0.10104166666666536},{"name":"A3","midi":57,"time":9.262500000000001,"velocity":0.18110236220472442,"duration":0.06874999999999964},{"name":"F3","midi":53,"time":9.620833333333334,"velocity":0.2677165354330709,"duration":0.06874999999999964},{"name":"A3","midi":57,"time":9.635416666666666,"velocity":0.3228346456692913,"duration":0.2635416666666668},{"name":"G3","midi":55,"time":10.519791666666666,"velocity":0.2440944881889764,"duration":0.109375},{"name":"E3","midi":52,"time":10.528125,"velocity":0.25196850393700787,"duration":0.10625000000000107},{"name":"E3","midi":52,"time":11.036458333333334,"velocity":0.1732283464566929,"duration":0.26041666666666785},{"name":"G3","midi":55,"time":11.041666666666668,"velocity":0.12598425196850394,"duration":0.22083333333333321},{"name":"G3","midi":55,"time":12.119791666666668,"velocity":0.15748031496062992,"duration":0.10208333333333286},{"name":"E3","midi":52,"time":12.128125,"velocity":0.13385826771653545,"duration":0.10312500000000036},{"name":"E3","midi":52,"time":12.771875000000001,"velocity":0.16535433070866143,"duration":0.10208333333333286},{"name":"G3","midi":55,"time":12.8,"velocity":0.14173228346456693,"duration":0.14687499999999964},{"name":"A3","midi":57,"time":14.247916666666667,"velocity":0.25984251968503935,"duration":0.171875},{"name":"F3","midi":53,"time":14.255208333333334,"velocity":0.2204724409448819,"duration":0.13645833333333357},{"name":"F3","midi":53,"time":14.707291666666666,"velocity":0.2204724409448819,"duration":0.359375},{"name":"A3","midi":57,"time":14.709375,"velocity":0.2440944881889764,"duration":0.4114583333333339},{"name":"F3","midi":53,"time":15.545833333333334,"velocity":0.2047244094488189,"duration":0.10624999999999929},{"name":"A3","midi":57,"time":15.558333333333334,"velocity":0.1889763779527559,"duration":0.08958333333333357},{"name":"F3","midi":53,"time":15.944791666666667,"velocity":0.14173228346456693,"duration":0.5395833333333329},{"name":"A3","midi":57,"time":15.970833333333333,"velocity":0.1732283464566929,"duration":0.41249999999999964},{"name":"F3","midi":53,"time":16.904166666666665,"velocity":0.15748031496062992,"duration":0.12395833333333428},{"name":"D3","midi":50,"time":16.907291666666666,"velocity":0.1889763779527559,"duration":0.08749999999999858},{"name":"F3","midi":53,"time":17.280208333333334,"velocity":0.1889763779527559,"duration":0.40208333333333357},{"name":"D3","midi":50,"time":17.308333333333334,"velocity":0.2125984251968504,"duration":0.44791666666666785},{"name":"F3","midi":53,"time":18.176041666666666,"velocity":0.23622047244094488,"duration":0.11875000000000213},{"name":"D3","midi":50,"time":18.186458333333334,"velocity":0.23622047244094488,"duration":0.15520833333333428},{"name":"F3","midi":53,"time":18.692708333333336,"velocity":0.1889763779527559,"duration":0.26458333333333073},{"name":"D3","midi":50,"time":18.725,"velocity":0.14173228346456693,"duration":0.20833333333333215},{"name":"G3","midi":55,"time":19.808333333333334,"velocity":0.28346456692913385,"duration":0.10625000000000284},{"name":"E3","midi":52,"time":19.81875,"velocity":0.2755905511811024,"duration":0.09270833333333428},{"name":"G3","midi":55,"time":20.26041666666667,"velocity":0.2283464566929134,"duration":0.29375000000000284},{"name":"E3","midi":52,"time":20.306250000000006,"velocity":0.16535433070866143,"duration":0.24479166666666785},{"name":"G3","midi":55,"time":21.25625000000001,"velocity":0.12598425196850394,"duration":0.11979166666666785},{"name":"E3","midi":52,"time":21.258333333333344,"velocity":0.14173228346456693,"duration":0.07291666666666785},{"name":"G3","midi":55,"time":21.779166666666676,"velocity":0.16535433070866143,"duration":0.5927083333333343},{"name":"E3","midi":52,"time":21.813541666666676,"velocity":0.11023622047244094,"duration":0.627083333333335},{"name":"G3","midi":55,"time":22.880208333333346,"velocity":0.25984251968503935,"duration":0.12812499999999716},{"name":"E3","midi":52,"time":22.896875000000012,"velocity":0.11811023622047244,"duration":0.09479166666666572},{"name":"E3","midi":52,"time":23.489583333333343,"velocity":0.13385826771653545,"duration":0.13958333333333428},{"name":"G3","midi":55,"time":23.501041666666676,"velocity":0.1732283464566929,"duration":0.14687500000000142},{"name":"F3","midi":53,"time":27.161458333333343,"velocity":0.2125984251968504,"duration":0.08333333333333215},{"name":"A3","midi":57,"time":27.18125000000001,"velocity":0.1732283464566929,"duration":0.13124999999999787},{"name":"A3","midi":57,"time":27.67708333333334,"velocity":0.1889763779527559,"duration":0.377083333333335},{"name":"F3","midi":53,"time":27.688541666666673,"velocity":0.2440944881889764,"duration":0.3656250000000014},{"name":"F3","midi":53,"time":28.500000000000007,"velocity":0.2992125984251969,"duration":0.07708333333333073},{"name":"A3","midi":57,"time":28.509375000000006,"velocity":0.2204724409448819,"duration":0.09270833333333073},{"name":"A3","midi":57,"time":28.927083333333336,"velocity":0.15748031496062992,"duration":0.345833333333335},{"name":"F3","midi":53,"time":28.92916666666667,"velocity":0.2047244094488189,"duration":0.5208333333333321},{"name":"D3","midi":50,"time":29.852083333333336,"velocity":0.25196850393700787,"duration":0.11041666666666572},{"name":"F3","midi":53,"time":29.855208333333337,"velocity":0.2440944881889764,"duration":0.11145833333333144},{"name":"D3","midi":50,"time":30.217708333333334,"velocity":0.25984251968503935,"duration":0.40833333333333144},{"name":"F3","midi":53,"time":30.238541666666666,"velocity":0.23622047244094488,"duration":0.4072916666666657},{"name":"F3","midi":53,"time":31.10625,"velocity":0.2283464566929134,"duration":0.17083333333333428},{"name":"D3","midi":50,"time":31.114583333333332,"velocity":0.2677165354330709,"duration":0.16562500000000213},{"name":"F3","midi":53,"time":31.58125,"velocity":0.25984251968503935,"duration":0.3135416666666657},{"name":"D3","midi":50,"time":31.594791666666666,"velocity":0.25196850393700787,"duration":0.08541666666666714},{"name":"A3","midi":57,"time":32.64375,"velocity":0.25196850393700787,"duration":0.09791666666666288},{"name":"F3","midi":53,"time":32.65208333333333,"velocity":0.2204724409448819,"duration":0.12187499999999574},{"name":"F3","midi":53,"time":33.08854166666666,"velocity":0.2204724409448819,"duration":0.375},{"name":"A3","midi":57,"time":33.09895833333332,"velocity":0.23622047244094488,"duration":0.375},{"name":"A3","midi":57,"time":33.95416666666665,"velocity":0.3228346456692913,"duration":0.17395833333333854},{"name":"F3","midi":53,"time":33.97083333333332,"velocity":0.29133858267716534,"duration":0.09791666666666998},{"name":"A3","midi":57,"time":34.379166666666656,"velocity":0.31496062992125984,"duration":0.3843750000000057},{"name":"F3","midi":53,"time":34.408333333333324,"velocity":0.2283464566929134,"duration":0.04583333333333428},{"name":"G3","midi":55,"time":35.32708333333333,"velocity":0.2677165354330709,"duration":0.12083333333333002},{"name":"E3","midi":52,"time":35.33854166666666,"velocity":0.33070866141732286,"duration":0.12187500000000284},{"name":"G3","midi":55,"time":35.78020833333333,"velocity":0.29133858267716534,"duration":0.4739583333333286},{"name":"E3","midi":52,"time":35.78229166666666,"velocity":0.2755905511811024,"duration":0.4312499999999986},{"name":"E3","midi":52,"time":36.701041666666654,"velocity":0.3228346456692913,"duration":0.08749999999999858},{"name":"G3","midi":55,"time":36.73333333333332,"velocity":0.2047244094488189,"duration":0.04791666666666572},{"name":"G3","midi":55,"time":37.165624999999984,"velocity":0.23622047244094488,"duration":0.5677083333333357},{"name":"E3","midi":52,"time":37.17083333333332,"velocity":0.30708661417322836,"duration":0.49687500000000284},{"name":"A3","midi":57,"time":38.20624999999999,"velocity":0.2283464566929134,"duration":0.1979166666666643},{"name":"F3","midi":53,"time":38.21354166666666,"velocity":0.1889763779527559,"duration":0.20104166666666146},{"name":"A3","midi":57,"time":38.72604166666665,"velocity":0.14960629921259844,"duration":0.38229166666666714},{"name":"F3","midi":53,"time":38.734374999999986,"velocity":0.08661417322834646,"duration":0.34791666666667},{"name":"F3","midi":53,"time":39.55312499999999,"velocity":0.2755905511811024,"duration":0.20729166666666288},{"name":"A3","midi":57,"time":39.56354166666665,"velocity":0.2125984251968504,"duration":0.1666666666666643},{"name":"A3","midi":57,"time":39.95520833333332,"velocity":0.23622047244094488,"duration":0.39895833333333286},{"name":"F3","midi":53,"time":39.95729166666665,"velocity":0.2440944881889764,"duration":0.50416666666667},{"name":"F3","midi":53,"time":40.808333333333316,"velocity":0.14173228346456693,"duration":0.1875},{"name":"D3","midi":50,"time":40.85208333333332,"velocity":0.2125984251968504,"duration":0.0885416666666643},{"name":"F3","midi":53,"time":41.21666666666665,"velocity":0.28346456692913385,"duration":0.44583333333333286},{"name":"D3","midi":50,"time":41.22812499999998,"velocity":0.29133858267716534,"duration":0.49166666666666714},{"name":"F3","midi":53,"time":42.09999999999998,"velocity":0.3228346456692913,"duration":0.16770833333333002},{"name":"D3","midi":50,"time":42.10208333333331,"velocity":0.2440944881889764,"duration":0.19062499999999716},{"name":"D3","midi":50,"time":42.61770833333331,"velocity":0.15748031496062992,"duration":0.38854166666666856},{"name":"F3","midi":53,"time":42.62395833333331,"velocity":0.2755905511811024,"duration":0.39270833333333144},{"name":"G3","midi":55,"time":43.520833333333314,"velocity":0.2204724409448819,"duration":0.12604166666666572},{"name":"E3","midi":52,"time":43.58229166666665,"velocity":0.2047244094488189,"duration":0.05624999999999858},{"name":"G3","midi":55,"time":43.96770833333331,"velocity":0.1889763779527559,"duration":0.4677083333333272},{"name":"E3","midi":52,"time":43.99479166666664,"velocity":0.2047244094488189,"duration":0.3697916666666643},{"name":"G3","midi":55,"time":44.85416666666664,"velocity":0.2125984251968504,"duration":0.16562499999999858},{"name":"E3","midi":52,"time":44.878124999999976,"velocity":0.2047244094488189,"duration":0.11666666666666714},{"name":"G3","midi":55,"time":45.30312499999997,"velocity":0.1732283464566929,"duration":0.5541666666666671},{"name":"E3","midi":52,"time":45.32604166666664,"velocity":0.1732283464566929,"duration":0.6114583333333314},{"name":"G3","midi":55,"time":46.32812499999997,"velocity":0.2204724409448819,"duration":0.10312499999999858},{"name":"E3","midi":52,"time":46.342708333333306,"velocity":0.1889763779527559,"duration":0.08645833333333286},{"name":"E3","midi":52,"time":46.8864583333333,"velocity":0.1732283464566929,"duration":0.9739583333333286},{"name":"G3","midi":55,"time":46.89999999999997,"velocity":0.14173228346456693,"duration":0.66770833333333},{"name":"A3","midi":57,"time":51.09791666666663,"velocity":0.2677165354330709,"duration":0.16874999999999574},{"name":"F3","midi":53,"time":51.11458333333329,"velocity":0.25984251968503935,"duration":0.12708333333333144},{"name":"F3","midi":53,"time":51.53229166666662,"velocity":0.18110236220472442,"duration":0.4312499999999986},{"name":"A3","midi":57,"time":51.53229166666662,"velocity":0.1889763779527559,"duration":0.46875},{"name":"A3","midi":57,"time":52.51562499999996,"velocity":0.2755905511811024,"duration":0.17083333333332718},{"name":"F3","midi":53,"time":52.53958333333329,"velocity":0.2677165354330709,"duration":0.09687499999999716},{"name":"A3","midi":57,"time":52.924999999999955,"velocity":0.2440944881889764,"duration":0.28333333333333144},{"name":"F3","midi":53,"time":52.95520833333329,"velocity":0.1968503937007874,"duration":0.4124999999999943},{"name":"F3","midi":53,"time":53.78541666666661,"velocity":0.2992125984251969,"duration":0.12187500000000284},{"name":"D3","midi":50,"time":53.793749999999946,"velocity":0.2677165354330709,"duration":0.18854166666667282},{"name":"F3","midi":53,"time":54.18124999999995,"velocity":0.3700787401574803,"duration":0.453125},{"name":"D3","midi":50,"time":54.19166666666661,"velocity":0.2677165354330709,"duration":0.45520833333333854},{"name":"F3","midi":53,"time":55.005208333333286,"velocity":0.3700787401574803,"duration":0.14375000000000426},{"name":"D3","midi":50,"time":55.02708333333329,"velocity":0.33070866141732286,"duration":0.18333333333333712},{"name":"F3","midi":53,"time":55.45312499999996,"velocity":0.33070866141732286,"duration":0.5187500000000043},{"name":"D3","midi":50,"time":55.46145833333329,"velocity":0.2677165354330709,"duration":0.08229166666666998},{"name":"A3","midi":57,"time":56.44270833333329,"velocity":0.33070866141732286,"duration":0.1822916666666714},{"name":"F3","midi":53,"time":56.451041666666626,"velocity":0.31496062992125984,"duration":0.13854166666666856},{"name":"F3","midi":53,"time":56.843749999999964,"velocity":0.25984251968503935,"duration":0.3802083333333357},{"name":"A3","midi":57,"time":56.849999999999966,"velocity":0.2992125984251969,"duration":0.3802083333333357},{"name":"F3","midi":53,"time":57.646874999999966,"velocity":0.3700787401574803,"duration":0.16770833333333002},{"name":"A3","midi":57,"time":57.66562499999996,"velocity":0.2677165354330709,"duration":0.0885416666666643},{"name":"F3","midi":53,"time":58.03645833333329,"velocity":0.2677165354330709,"duration":0.04791666666666572},{"name":"A3","midi":57,"time":58.03958333333329,"velocity":0.3700787401574803,"duration":0.3739583333333343},{"name":"G3","midi":55,"time":58.93437499999996,"velocity":0.33070866141732286,"duration":0.09375},{"name":"E3","midi":52,"time":58.955208333333296,"velocity":0.30708661417322836,"duration":0.08749999999999858},{"name":"E3","midi":52,"time":59.31354166666663,"velocity":0.3937007874015748,"duration":0.24062500000000142},{"name":"G3","midi":55,"time":59.334374999999966,"velocity":0.25984251968503935,"duration":0.5072916666666671},{"name":"G3","midi":55,"time":60.2833333333333,"velocity":0.3543307086614173,"duration":0.10104166666666714},{"name":"E3","midi":52,"time":60.31249999999997,"velocity":0.2677165354330709,"duration":0.08541666666666714},{"name":"E3","midi":52,"time":60.81874999999997,"velocity":0.3228346456692913,"duration":0.5187499999999972},{"name":"G3","midi":55,"time":60.84166666666664,"velocity":0.23622047244094488,"duration":0.5},{"name":"F3","midi":53,"time":61.87083333333331,"velocity":0.3464566929133858,"duration":0.1458333333333286},{"name":"A3","midi":57,"time":61.88229166666664,"velocity":0.31496062992125984,"duration":0.125},{"name":"A3","midi":57,"time":62.28124999999997,"velocity":0.33070866141732286,"duration":0.45729166666667},{"name":"F3","midi":53,"time":62.28749999999997,"velocity":0.23622047244094488,"duration":0.4583333333333357},{"name":"A3","midi":57,"time":63.19687499999998,"velocity":0.23622047244094488,"duration":0.15312499999999574},{"name":"F3","midi":53,"time":63.21458333333331,"velocity":0.23622047244094488,"duration":0.15208333333333002},{"name":"A3","midi":57,"time":63.65416666666664,"velocity":0.31496062992125984,"duration":0.2447916666666714},{"name":"F3","midi":53,"time":63.66041666666664,"velocity":0.33858267716535434,"duration":0.49687500000000995},{"name":"F3","midi":53,"time":64.54999999999998,"velocity":0.30708661417322836,"duration":0.17604166666666288},{"name":"D3","midi":50,"time":64.58229166666665,"velocity":0.29133858267716534,"duration":0.19479166666666003},{"name":"F3","midi":53,"time":65.0489583333333,"velocity":0.2677165354330709,"duration":0.43541666666666856},{"name":"D3","midi":50,"time":65.06354166666664,"velocity":0.25984251968503935,"duration":0.39374999999999716},{"name":"F3","midi":53,"time":65.87083333333331,"velocity":0.28346456692913385,"duration":0.1510416666666714},{"name":"D3","midi":50,"time":65.89166666666664,"velocity":0.2992125984251969,"duration":0.10520833333333712},{"name":"F3","midi":53,"time":66.30416666666665,"velocity":0.2755905511811024,"duration":0.5583333333333229},{"name":"D3","midi":50,"time":66.30833333333331,"velocity":0.31496062992125984,"duration":0.46041666666666003},{"name":"G3","midi":55,"time":67.27812499999997,"velocity":0.4015748031496063,"duration":0.15520833333332007},{"name":"E3","midi":52,"time":67.29479166666664,"velocity":0.3937007874015748,"duration":0.13124999999999432},{"name":"E3","midi":52,"time":67.66354166666663,"velocity":0.3779527559055118,"duration":0.18020833333332575},{"name":"G3","midi":55,"time":67.66666666666663,"velocity":0.3543307086614173,"duration":0.390625},{"name":"G3","midi":55,"time":68.57708333333329,"velocity":0.41732283464566927,"duration":0.1510416666666572},{"name":"C4","midi":60,"time":68.5895833333333,"velocity":0.4094488188976378,"duration":0.11249999999999716},{"name":"E3","midi":52,"time":68.61249999999995,"velocity":0.3464566929133858,"duration":0.10833333333333428},{"name":"G3","midi":55,"time":68.97812499999995,"velocity":0.4094488188976378,"duration":0.09895833333334281},{"name":"C4","midi":60,"time":68.98854166666662,"velocity":0.48031496062992124,"duration":0.0885416666666714},{"name":"E3","midi":52,"time":69.01666666666662,"velocity":0.3779527559055118,"duration":0.12395833333333428},{"name":"E3","midi":52,"time":70.05208333333329,"velocity":0.4330708661417323,"duration":0.17604166666666288},{"name":"G3","midi":55,"time":70.06249999999996,"velocity":0.3543307086614173,"duration":0.09687499999999716},{"name":"E3","midi":52,"time":70.41874999999995,"velocity":0.4094488188976378,"duration":0.43958333333333144},{"name":"G3","midi":55,"time":70.43229166666661,"velocity":0.3937007874015748,"duration":0.4260416666666629},{"name":"G3","midi":55,"time":71.36770833333328,"velocity":0.4881889763779528,"duration":0.15729166666666572},{"name":"E3","midi":52,"time":71.37812499999995,"velocity":0.4881889763779528,"duration":0.16354166666666003},{"name":"G3","midi":55,"time":71.77708333333328,"velocity":0.4094488188976378,"duration":0.26354166666666856},{"name":"E3","midi":52,"time":71.78229166666661,"velocity":0.4251968503937008,"duration":0.06041666666666856},{"name":"A3","midi":57,"time":72.65937499999995,"velocity":0.3937007874015748,"duration":0.18020833333332575},{"name":"F3","midi":53,"time":72.66458333333328,"velocity":0.4251968503937008,"duration":0.14374999999999716},{"name":"F3","midi":53,"time":73.07187499999995,"velocity":0.3543307086614173,"duration":0.4000000000000057},{"name":"A3","midi":57,"time":73.08749999999995,"velocity":0.3464566929133858,"duration":0.3916666666666657},{"name":"A3","midi":57,"time":74.03333333333327,"velocity":0.4645669291338583,"duration":0.2604166666666572},{"name":"F3","midi":53,"time":74.05208333333327,"velocity":0.4330708661417323,"duration":0.234375},{"name":"F3","midi":53,"time":74.42812499999994,"velocity":0.4094488188976378,"duration":0.3333333333333286},{"name":"A3","midi":57,"time":74.43437499999993,"velocity":0.41732283464566927,"duration":0.35625000000000284},{"name":"F3","midi":53,"time":75.44895833333327,"velocity":0.4015748031496063,"duration":0.1354166666666572},{"name":"D3","midi":50,"time":75.45312499999993,"velocity":0.4251968503937008,"duration":0.1302083333333286},{"name":"F3","midi":53,"time":75.86562499999992,"velocity":0.3779527559055118,"duration":0.43020833333332575},{"name":"D3","midi":50,"time":75.87291666666658,"velocity":0.3779527559055118,"duration":0.4333333333333371},{"name":"F3","midi":53,"time":76.73124999999992,"velocity":0.4015748031496063,"duration":0.18333333333333712},{"name":"D3","midi":50,"time":76.73437499999991,"velocity":0.4015748031496063,"duration":0.18333333333333712},{"name":"F3","midi":53,"time":77.15104166666659,"velocity":0.4094488188976378,"duration":0.40520833333332007},{"name":"D3","midi":50,"time":77.15833333333325,"velocity":0.3700787401574803,"duration":0.28333333333333144},{"name":"G3","midi":55,"time":78.03229166666657,"velocity":0.3543307086614173,"duration":0.13229166666667425},{"name":"E3","midi":52,"time":78.0499999999999,"velocity":0.33070866141732286,"duration":0.10520833333333712},{"name":"G3","midi":55,"time":78.46770833333323,"velocity":0.2283464566929134,"duration":0.39479166666664867},{"name":"E3","midi":52,"time":78.4749999999999,"velocity":0.2755905511811024,"duration":0.3812499999999943},{"name":"E3","midi":52,"time":79.27604166666654,"velocity":0.33070866141732286,"duration":0.09375},{"name":"G3","midi":55,"time":79.28541666666655,"velocity":0.25984251968503935,"duration":0.11770833333332575},{"name":"G3","midi":55,"time":79.72395833333321,"velocity":0.31496062992125984,"duration":0.375},{"name":"E3","midi":52,"time":79.72708333333321,"velocity":0.25984251968503935,"duration":0.47708333333333997},{"name":"G3","midi":55,"time":80.61666666666655,"velocity":0.2283464566929134,"duration":0.09583333333333144},{"name":"E3","midi":52,"time":80.61979166666654,"velocity":0.2440944881889764,"duration":0.10104166666667425},{"name":"G3","midi":55,"time":81.10104166666655,"velocity":0.2047244094488189,"duration":0.6260416666666799},{"name":"E3","midi":52,"time":81.12499999999989,"velocity":0.1732283464566929,"duration":0.6166666666666742},{"name":"G3","midi":55,"time":82.27604166666656,"velocity":0.2204724409448819,"duration":0.20104166666666856},{"name":"E3","midi":52,"time":82.30416666666656,"velocity":0.16535433070866143,"duration":0.13854166666666856},{"name":"E3","midi":52,"time":83.02604166666656,"velocity":0.15748031496062992,"duration":0.06770833333334281},{"name":"G3","midi":55,"time":83.03854166666656,"velocity":0.2047244094488189,"duration":0.06354166666667993},{"name":"F3","midi":53,"time":84.82083333333324,"velocity":0.18110236220472442,"duration":0.9447916666666742},{"name":"A3","midi":57,"time":84.83645833333324,"velocity":0.1889763779527559,"duration":0.9291666666666742},{"name":"F3","midi":53,"time":85.37916666666658,"velocity":0.2440944881889764,"duration":0.4177083333333371},{"name":"A3","midi":57,"time":85.37916666666658,"velocity":0.2204724409448819,"duration":0.40833333333333144},{"name":"A3","midi":57,"time":86.26249999999992,"velocity":0.2440944881889764,"duration":0.10520833333333712},{"name":"F3","midi":53,"time":86.27395833333325,"velocity":0.2992125984251969,"duration":0.08437499999999432},{"name":"F3","midi":53,"time":86.79374999999992,"velocity":0.25984251968503935,"duration":0.6781250000000085},{"name":"A3","midi":57,"time":86.80833333333325,"velocity":0.25984251968503935,"duration":0.5614583333333343},{"name":"F3","midi":53,"time":87.8260416666666,"velocity":0.2125984251968504,"duration":0.14270833333333144},{"name":"A3","midi":57,"time":87.86249999999993,"velocity":0.1732283464566929,"duration":0.06458333333333144},{"name":"F3","midi":53,"time":88.24999999999993,"velocity":0.2047244094488189,"duration":0.47604166666666003},{"name":"A3","midi":57,"time":88.25416666666659,"velocity":0.2755905511811024,"duration":0.42916666666666003},{"name":"A3","midi":57,"time":89.12187499999992,"velocity":0.2283464566929134,"duration":0.10208333333332575},{"name":"F3","midi":53,"time":89.12395833333325,"velocity":0.2204724409448819,"duration":0.10312499999999147},{"name":"F3","midi":53,"time":89.67083333333323,"velocity":0.2677165354330709,"duration":0.08750000000000568},{"name":"A3","midi":57,"time":89.6843749999999,"velocity":0.2440944881889764,"duration":0.09062500000000284},{"name":"F3","midi":53,"time":90.8406249999999,"velocity":0.28346456692913385,"duration":0.078125},{"name":"A3","midi":57,"time":90.85833333333323,"velocity":0.2755905511811024,"duration":0.057291666666671404},{"name":"A3","midi":57,"time":91.23541666666657,"velocity":0.2677165354330709,"duration":0.41458333333333997},{"name":"F3","midi":53,"time":91.24583333333324,"velocity":0.2755905511811024,"duration":0.3864583333333371},{"name":"A3","midi":57,"time":92.06458333333325,"velocity":0.3464566929133858,"duration":0.11145833333333144},{"name":"F3","midi":53,"time":92.06666666666658,"velocity":0.3858267716535433,"duration":0.140625},{"name":"F3","midi":53,"time":92.41979166666658,"velocity":0.33070866141732286,"duration":0.06666666666667709},{"name":"A3","midi":57,"time":92.44374999999992,"velocity":0.3700787401574803,"duration":0.18645833333333428},{"name":"G3","midi":55,"time":93.30937499999992,"velocity":0.2755905511811024,"duration":0.1041666666666714},{"name":"E3","midi":52,"time":93.31874999999992,"velocity":0.2755905511811024,"duration":0.12604166666666572},{"name":"G3","midi":55,"time":93.75624999999992,"velocity":0.33858267716535434,"duration":0.4125000000000085},{"name":"E3","midi":52,"time":93.76562499999993,"velocity":0.2755905511811024,"duration":0.33020833333333144},{"name":"G3","midi":55,"time":94.75520833333327,"velocity":0.29133858267716534,"duration":0.16874999999998863},{"name":"E3","midi":52,"time":94.76249999999993,"velocity":0.2992125984251969,"duration":0.15416666666666856},{"name":"E3","midi":52,"time":95.15937499999993,"velocity":0.36220472440944884,"duration":0.21666666666666856},{"name":"G3","midi":55,"time":95.16874999999993,"velocity":0.2992125984251969,"duration":0.36666666666666003},{"name":"F3","midi":53,"time":96.02187499999992,"velocity":0.3700787401574803,"duration":0.09062500000000284},{"name":"A3","midi":57,"time":96.04687499999993,"velocity":0.29133858267716534,"duration":0.06354166666666572},{"name":"F3","midi":53,"time":96.47499999999992,"velocity":0.3779527559055118,"duration":0.04270833333333712},{"name":"A3","midi":57,"time":96.48749999999993,"velocity":0.33858267716535434,"duration":0.015625},{"name":"A3","midi":57,"time":97.35624999999993,"velocity":0.25196850393700787,"duration":0.05833333333333712},{"name":"F3","midi":53,"time":97.37187499999993,"velocity":0.33070866141732286,"duration":0.012500000000002842},{"name":"F3","midi":53,"time":97.83020833333327,"velocity":0.31496062992125984,"duration":0.03541666666666288},{"name":"A3","midi":57,"time":97.86041666666661,"velocity":0.3228346456692913,"duration":0.01458333333333428},{"name":"A3","midi":57,"time":98.87812499999994,"velocity":0.29133858267716534,"duration":0.07500000000000284},{"name":"F3","midi":53,"time":98.88333333333327,"velocity":0.2440944881889764,"duration":0.056250000000005684},{"name":"A3","midi":57,"time":99.27604166666661,"velocity":0.2755905511811024,"duration":0.46875},{"name":"F3","midi":53,"time":99.27916666666661,"velocity":0.3858267716535433,"duration":0.5208333333333428},{"name":"A3","midi":57,"time":100.24895833333329,"velocity":0.31496062992125984,"duration":0.16562499999999147},{"name":"F3","midi":53,"time":100.25312499999995,"velocity":0.1968503937007874,"duration":0.17916666666666003},{"name":"F3","midi":53,"time":100.71249999999995,"velocity":0.2047244094488189,"duration":0.1875},{"name":"A3","midi":57,"time":100.72187499999995,"velocity":0.2204724409448819,"duration":0.17395833333333144},{"name":"D4","midi":62,"time":101.88958333333328,"velocity":0.29133858267716534,"duration":0.22291666666666288},{"name":"A#3","midi":58,"time":101.94062499999994,"velocity":0.33070866141732286,"duration":0.14374999999999716},{"name":"A#3","midi":58,"time":102.3354166666666,"velocity":0.25196850393700787,"duration":0.45208333333332007},{"name":"D4","midi":62,"time":102.34270833333326,"velocity":0.29133858267716534,"duration":0.4624999999999915},{"name":"D4","midi":62,"time":103.2510416666666,"velocity":0.31496062992125984,"duration":0.9093749999999972},{"name":"A#3","midi":58,"time":103.26874999999993,"velocity":0.29133858267716534,"duration":0.8916666666666657},{"name":"A#3","midi":58,"time":103.71145833333325,"velocity":0.2992125984251969,"duration":0.5250000000000057},{"name":"D4","midi":62,"time":103.71249999999992,"velocity":0.2677165354330709,"duration":0.4479166666666714},{"name":"G3","midi":55,"time":104.67187499999993,"velocity":0.2440944881889764,"duration":1.5072916666666742},{"name":"C4","midi":60,"time":104.67499999999993,"velocity":0.2283464566929134,"duration":1.504166666666677},{"name":"C4","midi":60,"time":105.16770833333327,"velocity":0.2204724409448819,"duration":1.0114583333333371},{"name":"G3","midi":55,"time":105.17083333333326,"velocity":0.2047244094488189,"duration":1.00833333333334},{"name":"G3","midi":55,"time":106.23541666666661,"velocity":0.25984251968503935,"duration":1.4322916666666856},{"name":"C4","midi":60,"time":106.24791666666661,"velocity":0.23622047244094488,"duration":1.4197916666666828},{"name":"G3","midi":55,"time":106.88124999999995,"velocity":0.1889763779527559,"duration":0.7864583333333428},{"name":"C4","midi":60,"time":106.89374999999995,"velocity":0.2125984251968504,"duration":0.8072916666666714},{"name":"C4","midi":60,"time":108.25104166666662,"velocity":0.25984251968503935,"duration":0.8697916666666714},{"name":"G#3","midi":56,"time":108.25416666666662,"velocity":0.3228346456692913,"duration":0.8666666666666742},{"name":"G#3","midi":56,"time":108.63749999999996,"velocity":0.3228346456692913,"duration":0.4833333333333343},{"name":"C4","midi":60,"time":108.65833333333329,"velocity":0.2047244094488189,"duration":0.4625000000000057},{"name":"C4","midi":60,"time":109.63541666666663,"velocity":0.2047244094488189,"duration":1.0781250000000142},{"name":"G#3","midi":56,"time":109.6458333333333,"velocity":0.2755905511811024,"duration":1.0677083333333428},{"name":"G#3","midi":56,"time":110.12812499999997,"velocity":0.2992125984251969,"duration":0.5875000000000057},{"name":"C4","midi":60,"time":110.14166666666664,"velocity":0.2204724409448819,"duration":0.5718750000000057},{"name":"G3","midi":55,"time":111.14166666666664,"velocity":0.1889763779527559,"duration":0.8624999999999972},{"name":"C4","midi":60,"time":111.1427083333333,"velocity":0.11023622047244094,"duration":0.8614583333333314},{"name":"C4","midi":60,"time":111.56354166666664,"velocity":0.2755905511811024,"duration":0.44062499999999716},{"name":"G3","midi":55,"time":111.56666666666663,"velocity":0.2440944881889764,"duration":0.4375},{"name":"C4","midi":60,"time":112.45416666666664,"velocity":0.28346456692913385,"duration":0.9375},{"name":"G3","midi":55,"time":112.4770833333333,"velocity":0.2677165354330709,"duration":0.91458333333334},{"name":"C4","midi":60,"time":112.87916666666663,"velocity":0.31496062992125984,"duration":0.5125000000000028},{"name":"G3","midi":55,"time":112.9208333333333,"velocity":0.25984251968503935,"duration":0.47083333333333144},{"name":"A#3","midi":58,"time":113.8145833333333,"velocity":0.3858267716535433,"duration":0.8437500000000142},{"name":"F#3","midi":54,"time":113.8770833333333,"velocity":0.28346456692913385,"duration":0.7812500000000142},{"name":"F#3","midi":54,"time":114.21458333333331,"velocity":0.3858267716535433,"duration":0.49687500000000284},{"name":"A#3","midi":58,"time":114.24062499999998,"velocity":0.33070866141732286,"duration":0.4177083333333371},{"name":"A#3","midi":58,"time":115.13333333333331,"velocity":0.3228346456692913,"duration":0.8489583333333428},{"name":"F#3","midi":54,"time":115.14166666666665,"velocity":0.33858267716535434,"duration":0.8406250000000028},{"name":"A#3","midi":58,"time":115.51770833333332,"velocity":0.36220472440944884,"duration":0.4645833333333371},{"name":"F#3","midi":54,"time":115.51874999999998,"velocity":0.33858267716535434,"duration":0.4635416666666714},{"name":"G#3","midi":56,"time":116.38229166666666,"velocity":0.3464566929133858,"duration":0.14791666666667425},{"name":"F3","midi":53,"time":116.396875,"velocity":0.3543307086614173,"duration":0.15833333333334565},{"name":"F3","midi":53,"time":116.77916666666667,"velocity":0.3543307086614173,"duration":0.3864583333333371},{"name":"G#3","midi":56,"time":116.784375,"velocity":0.3228346456692913,"duration":0.33645833333333997},{"name":"A3","midi":57,"time":117.60729166666667,"velocity":0.3464566929133858,"duration":1.0604166666666686},{"name":"F3","midi":53,"time":117.61875,"velocity":0.3858267716535433,"duration":1.0489583333333314},{"name":"F3","midi":53,"time":118.09270833333333,"velocity":0.2440944881889764,"duration":0.5750000000000028},{"name":"A3","midi":57,"time":118.10625,"velocity":0.28346456692913385,"duration":0.5614583333333343},{"name":"D4","midi":62,"time":119.20625,"velocity":0.2440944881889764,"duration":1.0458333333333485},{"name":"A#3","midi":58,"time":119.234375,"velocity":0.25984251968503935,"duration":0.12083333333333712},{"name":"A#3","midi":58,"time":119.70833333333334,"velocity":0.2755905511811024,"duration":0.6177083333333258},{"name":"D4","midi":62,"time":119.74375,"velocity":0.1732283464566929,"duration":0.5604166666666686},{"name":"D4","midi":62,"time":120.76458333333333,"velocity":0.31496062992125984,"duration":0.9979166666666686},{"name":"A#3","midi":58,"time":120.778125,"velocity":0.29133858267716534,"duration":0.984375},{"name":"A#3","midi":58,"time":121.20520833333333,"velocity":0.2283464566929134,"duration":0.5854166666666742},{"name":"D4","midi":62,"time":121.21770833333333,"velocity":0.2125984251968504,"duration":0.5447916666666686},{"name":"G3","midi":55,"time":122.19062500000001,"velocity":0.2755905511811024,"duration":0.18437500000000284},{"name":"C4","midi":60,"time":122.19166666666668,"velocity":0.2440944881889764,"duration":0.12187500000000284},{"name":"G3","midi":55,"time":122.60312500000002,"velocity":0.2677165354330709,"duration":0.40416666666666856},{"name":"C4","midi":60,"time":122.60520833333335,"velocity":0.25984251968503935,"duration":0.4125000000000085},{"name":"G3","midi":55,"time":123.45208333333336,"velocity":0.2755905511811024,"duration":0.14374999999999716},{"name":"C4","midi":60,"time":123.45937500000002,"velocity":0.25984251968503935,"duration":0.10833333333333428},{"name":"C4","midi":60,"time":123.99270833333335,"velocity":0.2677165354330709,"duration":0.61770833333334},{"name":"G3","midi":55,"time":124.0010416666667,"velocity":0.2204724409448819,"duration":0.5666666666666629},{"name":"A3","midi":57,"time":125.18645833333336,"velocity":0.2677165354330709,"duration":0.19374999999999432},{"name":"C4","midi":60,"time":125.1885416666667,"velocity":0.2755905511811024,"duration":0.140625},{"name":"A3","midi":57,"time":125.58333333333336,"velocity":0.2440944881889764,"duration":0.4520833333333343},{"name":"C4","midi":60,"time":125.59270833333336,"velocity":0.3228346456692913,"duration":0.4427083333333286},{"name":"A3","midi":57,"time":126.4979166666667,"velocity":0.2047244094488189,"duration":0.08020833333331723},{"name":"C4","midi":60,"time":126.50208333333336,"velocity":0.15748031496062992,"duration":0.038541666666660035},{"name":"C4","midi":60,"time":126.96145833333335,"velocity":0.09448818897637795,"duration":0.3843750000000057},{"name":"A3","midi":57,"time":126.97604166666669,"velocity":0.31496062992125984,"duration":0.4468750000000057},{"name":"C4","midi":60,"time":127.8572916666667,"velocity":0.23622047244094488,"duration":0.09270833333333428},{"name":"A3","midi":57,"time":127.85937500000003,"velocity":0.25984251968503935,"duration":0.11354166666666288},{"name":"A3","midi":57,"time":128.24479166666669,"velocity":0.33858267716535434,"duration":0.4260416666666629},{"name":"C4","midi":60,"time":128.26770833333336,"velocity":0.3543307086614173,"duration":0.42083333333332007},{"name":"A3","midi":57,"time":129.17291666666668,"velocity":0.2755905511811024,"duration":0.11979166666668561},{"name":"D4","midi":62,"time":129.18020833333335,"velocity":0.3779527559055118,"duration":0.10729166666666856},{"name":"A3","midi":57,"time":129.7510416666667,"velocity":0.2992125984251969,"duration":0.6395833333333201},{"name":"D4","midi":62,"time":129.75937500000003,"velocity":0.33070866141732286,"duration":0.6833333333333371},{"name":"D4","midi":62,"time":130.9322916666667,"velocity":0.2677165354330709,"duration":0.16458333333332575},{"name":"A#3","midi":58,"time":130.93750000000006,"velocity":0.3543307086614173,"duration":0.11562499999999432},{"name":"A#3","midi":58,"time":131.39895833333338,"velocity":0.2677165354330709,"duration":0.5145833333333485},{"name":"D4","midi":62,"time":131.40416666666673,"velocity":0.28346456692913385,"duration":0.5093750000000057},{"name":"A#3","midi":58,"time":132.44791666666674,"velocity":0.2204724409448819,"duration":0.08645833333335418},{"name":"D4","midi":62,"time":132.44895833333342,"velocity":0.2047244094488189,"duration":0.08020833333333144},{"name":"A#3","midi":58,"time":132.88541666666677,"velocity":0.3228346456692913,"duration":0.529166666666697},{"name":"D4","midi":62,"time":132.89270833333345,"velocity":0.2755905511811024,"duration":0.3020833333333428},{"name":"G3","midi":55,"time":133.85312500000015,"velocity":0.3543307086614173,"duration":0.13229166666667425},{"name":"C4","midi":60,"time":133.88437500000015,"velocity":0.2047244094488189,"duration":0.08229166666666288},{"name":"G3","midi":55,"time":134.28645833333348,"velocity":0.25984251968503935,"duration":0.44062500000001137},{"name":"C4","midi":60,"time":134.29166666666683,"velocity":0.29133858267716534,"duration":0.421875},{"name":"C4","midi":60,"time":135.14062500000017,"velocity":0.25984251968503935,"duration":0.11458333333331439},{"name":"G3","midi":55,"time":135.16666666666683,"velocity":0.23622047244094488,"duration":0.8874999999999886},{"name":"G3","midi":55,"time":135.57291666666683,"velocity":0.15748031496062992,"duration":0.5218749999999943},{"name":"C4","midi":60,"time":135.60104166666682,"velocity":0.2440944881889764,"duration":0.4625000000000057},{"name":"C4","midi":60,"time":136.63020833333348,"velocity":0.2283464566929134,"duration":0.11770833333332575},{"name":"A3","midi":57,"time":136.63645833333348,"velocity":0.25196850393700787,"duration":0.11458333333334281},{"name":"A3","midi":57,"time":137.08750000000015,"velocity":0.25984251968503935,"duration":0.42916666666667425},{"name":"C4","midi":60,"time":137.16145833333348,"velocity":0.11023622047244094,"duration":0.3854166666666572},{"name":"A3","midi":57,"time":137.88645833333348,"velocity":0.28346456692913385,"duration":0.10208333333332575},{"name":"C4","midi":60,"time":137.9260416666668,"velocity":0.2047244094488189,"duration":0.05729166666665719},{"name":"A3","midi":57,"time":138.27500000000015,"velocity":0.2755905511811024,"duration":0.3854166666666856},{"name":"C4","midi":60,"time":138.30000000000015,"velocity":0.2125984251968504,"duration":0.36041666666667993},{"name":"A3","midi":57,"time":139.14166666666682,"velocity":0.3700787401574803,"duration":0.16458333333332575},{"name":"C4","midi":60,"time":139.14375000000015,"velocity":0.3464566929133858,"duration":0.11562499999999432},{"name":"A3","midi":57,"time":139.50833333333347,"velocity":0.3779527559055118,"duration":0.43437500000001705},{"name":"C4","midi":60,"time":139.52708333333348,"velocity":0.47244094488188976,"duration":0.38333333333332575},{"name":"D4","midi":62,"time":140.32916666666682,"velocity":0.4094488188976378,"duration":0.17083333333332007},{"name":"A3","midi":57,"time":140.3416666666668,"velocity":0.4251968503937008,"duration":0.24583333333333712},{"name":"A3","midi":57,"time":140.79375000000016,"velocity":0.3464566929133858,"duration":0.5020833333333314},{"name":"D4","midi":62,"time":140.81770833333348,"velocity":0.3937007874015748,"duration":0.515625},{"name":"A#3","midi":58,"time":141.7697916666668,"velocity":0.3464566929133858,"duration":0.10312500000000568},{"name":"D4","midi":62,"time":141.78854166666682,"velocity":0.2440944881889764,"duration":0.07604166666666856},{"name":"A#3","midi":58,"time":142.12604166666682,"velocity":0.2992125984251969,"duration":0.5427083333333371},{"name":"D4","midi":62,"time":142.20000000000016,"velocity":0.2047244094488189,"duration":0.4312500000000057},{"name":"A#3","midi":58,"time":143.1583333333335,"velocity":0.25984251968503935,"duration":0.06979166666667425},{"name":"D4","midi":62,"time":143.1739583333335,"velocity":0.14960629921259844,"duration":0.056250000000005684},{"name":"A#3","midi":58,"time":143.5864583333335,"velocity":0.31496062992125984,"duration":0.4760416666666458},{"name":"D4","midi":62,"time":143.60416666666683,"velocity":0.2992125984251969,"duration":0.21770833333332007},{"name":"G3","midi":55,"time":144.47708333333347,"velocity":0.2204724409448819,"duration":0.15000000000000568},{"name":"C4","midi":60,"time":144.48645833333347,"velocity":0.2204724409448819,"duration":0.08541666666667425},{"name":"G3","midi":55,"time":144.83125000000015,"velocity":0.25984251968503935,"duration":0.4291666666666458},{"name":"C4","midi":60,"time":144.84479166666682,"velocity":0.30708661417322836,"duration":0.3854166666666572},{"name":"C4","midi":60,"time":145.66875000000013,"velocity":0.33858267716535434,"duration":0.09583333333333144},{"name":"G3","midi":55,"time":145.67812500000014,"velocity":0.2677165354330709,"duration":0.10833333333332007},{"name":"C4","midi":60,"time":146.06666666666678,"velocity":0.28346456692913385,"duration":0.18229166666668561},{"name":"G3","midi":55,"time":146.07187500000012,"velocity":0.25984251968503935,"duration":0.18854166666667993},{"name":"D4","midi":62,"time":146.95520833333347,"velocity":0.30708661417322836,"duration":0.08541666666667425},{"name":"A3","midi":57,"time":146.96041666666682,"velocity":0.33070866141732286,"duration":0.10104166666667425},{"name":"D4","midi":62,"time":147.33437500000016,"velocity":0.33858267716535434,"duration":0.16041666666666288},{"name":"A3","midi":57,"time":147.3708333333335,"velocity":0.2440944881889764,"duration":0.34270833333332007},{"name":"C4","midi":60,"time":148.26354166666684,"velocity":0.25984251968503935,"duration":0.053124999999994316},{"name":"A3","midi":57,"time":148.2708333333335,"velocity":0.2283464566929134,"duration":0.04895833333333144},{"name":"C4","midi":60,"time":148.61354166666683,"velocity":0.25984251968503935,"duration":0.03645833333334281},{"name":"A3","midi":57,"time":148.6364583333335,"velocity":0.2755905511811024,"duration":0.01666666666667993},{"name":"A3","midi":57,"time":149.40520833333352,"velocity":0.31496062992125984,"duration":0.06250000000002842},{"name":"F3","midi":53,"time":149.43958333333353,"velocity":0.25984251968503935,"duration":0.025000000000005684},{"name":"A3","midi":57,"time":149.7843750000002,"velocity":0.3464566929133858,"duration":0.15000000000000568},{"name":"F3","midi":53,"time":149.8156250000002,"velocity":0.2047244094488189,"duration":0.2541666666666629},{"name":"F3","midi":53,"time":150.5406250000002,"velocity":0.3464566929133858,"duration":0.12291666666664014},{"name":"C4","midi":60,"time":150.55520833333352,"velocity":0.3543307086614173,"duration":0.08645833333332575},{"name":"C4","midi":60,"time":150.87916666666683,"velocity":0.36220472440944884,"duration":0.053124999999994316},{"name":"F3","midi":53,"time":150.88750000000016,"velocity":0.4330708661417323,"duration":0.11666666666667425},{"name":"E3","midi":52,"time":151.6333333333335,"velocity":0.3700787401574803,"duration":0.16041666666666288},{"name":"G3","midi":55,"time":151.64062500000017,"velocity":0.4251968503937008,"duration":0.08854166666665719},{"name":"G3","midi":55,"time":152.02916666666684,"velocity":0.4566929133858268,"duration":0.10520833333336554},{"name":"E3","midi":52,"time":152.05000000000018,"velocity":0.33858267716535434,"duration":0.06770833333334281},{"name":"E3","midi":52,"time":152.82395833333354,"velocity":0.4330708661417323,"duration":0.1458333333333428},{"name":"C4","midi":60,"time":152.83541666666687,"velocity":0.4566929133858268,"duration":0.10312500000000568},{"name":"E3","midi":52,"time":153.24791666666687,"velocity":0.4015748031496063,"duration":0.3906250000000284},{"name":"C4","midi":60,"time":153.26458333333355,"velocity":0.2755905511811024,"duration":0.05208333333334281},{"name":"G3","midi":55,"time":154.10833333333358,"velocity":0.4645669291338583,"duration":0.11458333333331439},{"name":"E3","midi":52,"time":154.1166666666669,"velocity":0.4409448818897638,"duration":0.11770833333332575},{"name":"G3","midi":55,"time":154.63333333333355,"velocity":0.4094488188976378,"duration":0.44062500000001137},{"name":"E3","midi":52,"time":154.63645833333356,"velocity":0.3779527559055118,"duration":0.49791666666666856},{"name":"E3","midi":52,"time":155.72083333333356,"velocity":0.2677165354330709,"duration":0.08645833333332575},{"name":"C4","midi":60,"time":155.77395833333355,"velocity":0.1889763779527559,"duration":0.03020833333332007},{"name":"C4","midi":60,"time":156.5760416666669,"velocity":0.2440944881889764,"duration":0.11041666666665151},{"name":"E3","midi":52,"time":156.60312500000023,"velocity":0.1889763779527559,"duration":0.05729166666665719},{"name":"A3","midi":57,"time":158.27187500000022,"velocity":0.2047244094488189,"duration":0.08437500000002274},{"name":"F3","midi":53,"time":158.27708333333356,"velocity":0.14173228346456693,"duration":0.13750000000001705},{"name":"F3","midi":53,"time":158.80000000000024,"velocity":0.2440944881889764,"duration":0.43645833333332007},{"name":"A3","midi":57,"time":158.8260416666669,"velocity":0.23622047244094488,"duration":0.4427083333333428},{"name":"A3","midi":57,"time":159.70937500000025,"velocity":0.2204724409448819,"duration":0.12500000000002842},{"name":"F3","midi":53,"time":159.7302083333336,"velocity":0.18110236220472442,"duration":0.10104166666667425},{"name":"A3","midi":57,"time":160.2020833333336,"velocity":0.2047244094488189,"duration":0.32604166666666856},{"name":"F3","midi":53,"time":160.2427083333336,"velocity":0.08661417322834646,"duration":0.5010416666666515},{"name":"F3","midi":53,"time":161.20937500000025,"velocity":0.23622047244094488,"duration":0.09375},{"name":"A3","midi":57,"time":161.23333333333358,"velocity":0.2125984251968504,"duration":0.06562500000001137},{"name":"F3","midi":53,"time":161.66250000000025,"velocity":0.1968503937007874,"duration":0.7114583333333258},{"name":"A3","midi":57,"time":161.6822916666669,"velocity":0.18110236220472442,"duration":0.6760416666666629},{"name":"F3","midi":53,"time":162.79062500000023,"velocity":0.2677165354330709,"duration":0.06770833333331439},{"name":"A3","midi":57,"time":162.7947916666669,"velocity":0.2440944881889764,"duration":0.05937499999998863},{"name":"A3","midi":57,"time":163.32708333333355,"velocity":0.1889763779527559,"duration":0.390625},{"name":"F3","midi":53,"time":163.33020833333356,"velocity":0.14960629921259844,"duration":0.3343749999999943},{"name":"A3","midi":57,"time":164.21041666666687,"velocity":0.2283464566929134,"duration":0.11562500000002274},{"name":"F3","midi":53,"time":164.24687500000022,"velocity":0.2204724409448819,"duration":0.054166666666674246},{"name":"F3","midi":53,"time":164.63020833333357,"velocity":0.30708661417322836,"duration":0.31458333333333144},{"name":"A3","midi":57,"time":164.68125000000023,"velocity":0.2204724409448819,"duration":0.3385416666666572},{"name":"F3","midi":53,"time":165.47916666666688,"velocity":0.25984251968503935,"duration":0.10624999999998863},{"name":"A3","midi":57,"time":165.4875000000002,"velocity":0.2440944881889764,"duration":0.06666666666666288},{"name":"A3","midi":57,"time":165.88541666666688,"velocity":0.25984251968503935,"duration":0.11666666666667425},{"name":"F3","midi":53,"time":165.8947916666669,"velocity":0.12598425196850394,"duration":0.05208333333334281},{"name":"E3","midi":52,"time":166.79062500000023,"velocity":0.1968503937007874,"duration":0.29999999999998295},{"name":"G3","midi":55,"time":166.79270833333356,"velocity":0.30708661417322836,"duration":0.12916666666666288},{"name":"G3","midi":55,"time":167.28750000000022,"velocity":0.2283464566929134,"duration":0.5333333333333314},{"name":"G3","midi":55,"time":168.31979166666687,"velocity":0.2283464566929134,"duration":0.08541666666667425},{"name":"E3","midi":52,"time":168.32500000000022,"velocity":0.2125984251968504,"duration":0.11666666666667425},{"name":"E3","midi":52,"time":168.7843750000002,"velocity":0.14960629921259844,"duration":0.03541666666666288},{"name":"G3","midi":55,"time":168.81770833333354,"velocity":0.2204724409448819,"duration":0.24270833333332575},{"name":"A3","midi":57,"time":169.6375000000002,"velocity":0.36220472440944884,"duration":0.21666666666666856},{"name":"F3","midi":53,"time":169.6562500000002,"velocity":0.2047244094488189,"duration":0.18437499999998863},{"name":"F3","midi":53,"time":170.0437500000002,"velocity":0.29133858267716534,"duration":0.3697916666666572},{"name":"A3","midi":57,"time":170.10208333333352,"velocity":0.2677165354330709,"duration":0.10416666666665719},{"name":"F3","midi":53,"time":170.95104166666684,"velocity":0.2755905511811024,"duration":0.08750000000000568},{"name":"A3","midi":57,"time":170.95104166666684,"velocity":0.2755905511811024,"duration":0.0625},{"name":"A3","midi":57,"time":171.32604166666684,"velocity":0.25196850393700787,"duration":0.29583333333332007},{"name":"F3","midi":53,"time":171.3302083333335,"velocity":0.2204724409448819,"duration":0.48645833333333144},{"name":"F3","midi":53,"time":172.2614583333335,"velocity":0.1889763779527559,"duration":0.13437500000000568},{"name":"A3","midi":57,"time":172.2833333333335,"velocity":0.1889763779527559,"duration":0.056250000000005684},{"name":"F3","midi":53,"time":172.6458333333335,"velocity":0.3543307086614173,"duration":0.34583333333333144},{"name":"A3","midi":57,"time":172.69583333333352,"velocity":0.2204724409448819,"duration":0.19374999999999432},{"name":"F3","midi":53,"time":173.64479166666683,"velocity":0.18110236220472442,"duration":0.13229166666664582},{"name":"A3","midi":57,"time":173.67291666666682,"velocity":0.15748031496062992,"duration":0.06041666666666856},{"name":"F3","midi":53,"time":174.08958333333348,"velocity":0.25984251968503935,"duration":0.2510416666666515},{"name":"A3","midi":57,"time":174.1072916666668,"velocity":0.30708661417322836,"duration":0.3479166666666629},{"name":"G3","midi":55,"time":175.08541666666682,"velocity":0.25984251968503935,"duration":0.08333333333334281},{"name":"E3","midi":52,"time":175.12187500000016,"velocity":0.23622047244094488,"duration":0.09375},{"name":"G3","midi":55,"time":175.5020833333335,"velocity":0.3464566929133858,"duration":0.09687500000001137},{"name":"E3","midi":52,"time":175.53541666666683,"velocity":0.1889763779527559,"duration":0.26770833333335986},{"name":"G3","midi":55,"time":176.29270833333354,"velocity":0.3228346456692913,"duration":0.10833333333332007},{"name":"E3","midi":52,"time":176.3031250000002,"velocity":0.31496062992125984,"duration":0.18020833333332575},{"name":"G3","midi":55,"time":176.77291666666684,"velocity":0.09448818897637795,"duration":0.4312500000000057},{"name":"E3","midi":52,"time":176.79687500000017,"velocity":0.09448818897637795,"duration":0.4833333333333485},{"name":"G3","midi":55,"time":177.7458333333335,"velocity":0.23622047244094488,"duration":0.09479166666667993},{"name":"E3","midi":52,"time":177.75104166666685,"velocity":0.2440944881889764,"duration":0.09687500000001137},{"name":"G3","midi":55,"time":178.26041666666686,"velocity":0.2755905511811024,"duration":0.41354166666667425},{"name":"E3","midi":52,"time":178.2812500000002,"velocity":0.1732283464566929,"duration":0.4166666666666572},{"name":"G3","midi":55,"time":179.18645833333352,"velocity":0.29133858267716534,"duration":0.16041666666666288},{"name":"E3","midi":52,"time":179.1989583333335,"velocity":0.2755905511811024,"duration":0.09166666666666856},{"name":"E3","midi":52,"time":179.79791666666685,"velocity":0.1968503937007874,"duration":0.5999999999999943},{"name":"G3","midi":55,"time":179.81562500000018,"velocity":0.14173228346456693,"duration":0.5520833333333428},{"name":"F3","midi":53,"time":180.92604166666683,"velocity":0.28346456692913385,"duration":0.09895833333334281},{"name":"A3","midi":57,"time":180.93541666666684,"velocity":0.2047244094488189,"duration":0.10729166666666856},{"name":"A3","midi":57,"time":181.4187500000002,"velocity":0.2204724409448819,"duration":0.4635416666666572},{"name":"F3","midi":53,"time":181.42291666666685,"velocity":0.1889763779527559,"duration":0.43958333333333144},{"name":"A3","midi":57,"time":182.29687500000017,"velocity":0.1968503937007874,"duration":0.11562499999999432},{"name":"F3","midi":53,"time":182.3239583333335,"velocity":0.15748031496062992,"duration":0.06666666666666288},{"name":"F3","midi":53,"time":182.80312500000016,"velocity":0.1968503937007874,"duration":0.5218749999999943},{"name":"A3","midi":57,"time":182.80625000000018,"velocity":0.15748031496062992,"duration":0.5083333333333258},{"name":"A3","midi":57,"time":183.72812500000015,"velocity":0.23622047244094488,"duration":0.09583333333333144},{"name":"F3","midi":53,"time":183.75104166666682,"velocity":0.1889763779527559,"duration":0.10520833333333712},{"name":"A3","midi":57,"time":184.19791666666683,"velocity":0.23622047244094488,"duration":0.3125},{"name":"F3","midi":53,"time":184.20000000000016,"velocity":0.16535433070866143,"duration":0.39166666666667993},{"name":"F3","midi":53,"time":185.00416666666683,"velocity":0.1889763779527559,"duration":0.125},{"name":"A3","midi":57,"time":185.0520833333335,"velocity":0.1889763779527559,"duration":0.05937499999998863},{"name":"F3","midi":53,"time":185.5614583333335,"velocity":0.11023622047244094,"duration":0.34062499999998863},{"name":"A3","midi":57,"time":185.56354166666682,"velocity":0.1889763779527559,"duration":0.3187499999999943},{"name":"A3","midi":57,"time":186.44062500000015,"velocity":0.2440944881889764,"duration":0.0822916666666913},{"name":"F3","midi":53,"time":186.47500000000016,"velocity":0.1889763779527559,"duration":0.06458333333335986},{"name":"F3","midi":53,"time":186.87916666666686,"velocity":0.15748031496062992,"duration":0.35208333333332575},{"name":"A3","midi":57,"time":186.89166666666685,"velocity":0.1968503937007874,"duration":0.3541666666666572},{"name":"F3","midi":53,"time":187.7052083333335,"velocity":0.2440944881889764,"duration":0.171875},{"name":"A3","midi":57,"time":187.70937500000016,"velocity":0.2204724409448819,"duration":0.09687500000001137},{"name":"A3","midi":57,"time":188.1239583333335,"velocity":0.25196850393700787,"duration":0.16979166666666856},{"name":"E3","midi":52,"time":188.94479166666682,"velocity":0.25196850393700787,"duration":0.27187500000002274},{"name":"G3","midi":55,"time":188.96562500000016,"velocity":0.23622047244094488,"duration":0.10104166666667425},{"name":"G3","midi":55,"time":189.4114583333335,"velocity":0.2047244094488189,"duration":0.36041666666667993},{"name":"E3","midi":52,"time":190.18645833333352,"velocity":0.2440944881889764,"duration":0.06458333333333144},{"name":"G3","midi":55,"time":190.21666666666684,"velocity":0.16535433070866143,"duration":0.046875},{"name":"E3","midi":52,"time":190.67604166666683,"velocity":0.16535433070866143,"duration":0.054166666666645824},{"name":"G3","midi":55,"time":190.6864583333335,"velocity":0.11811023622047244,"duration":0.25},{"name":"A3","midi":57,"time":191.5239583333335,"velocity":0.1889763779527559,"duration":0.16562500000000568},{"name":"F3","midi":53,"time":191.54687500000017,"velocity":0.13385826771653545,"duration":0.21041666666667425},{"name":"F3","midi":53,"time":191.9020833333335,"velocity":0.13385826771653545,"duration":0.46666666666664014},{"name":"A3","midi":57,"time":191.9239583333335,"velocity":0.1889763779527559,"duration":0.39895833333332575},{"name":"F3","midi":53,"time":192.7958333333335,"velocity":0.2204724409448819,"duration":0.2510416666666515},{"name":"A3","midi":57,"time":192.80625000000015,"velocity":0.2755905511811024,"duration":0.10624999999998863},{"name":"F3","midi":53,"time":193.20000000000013,"velocity":0.07874015748031496,"duration":0.5760416666666686},{"name":"A3","midi":57,"time":193.2260416666668,"velocity":0.2204724409448819,"duration":0.48750000000001137},{"name":"A3","midi":57,"time":194.16562500000012,"velocity":0.23622047244094488,"duration":0.8395833333333087},{"name":"F3","midi":53,"time":194.1718750000001,"velocity":0.16535433070866143,"duration":0.8333333333333144},{"name":"F3","midi":53,"time":194.56666666666678,"velocity":0.2283464566929134,"duration":0.4385416666666515},{"name":"A3","midi":57,"time":194.6281250000001,"velocity":0.16535433070866143,"duration":0.37708333333333144},{"name":"A3","midi":57,"time":195.57395833333342,"velocity":0.23622047244094488,"duration":1.1145833333333428},{"name":"F3","midi":53,"time":195.59895833333343,"velocity":0.2047244094488189,"duration":1.0895833333333371},{"name":"A3","midi":57,"time":196.1125000000001,"velocity":0.1889763779527559,"duration":0.5760416666666686},{"name":"F3","midi":53,"time":196.1156250000001,"velocity":0.16535433070866143,"duration":0.5729166666666572},{"name":"G3","midi":55,"time":197.28854166666676,"velocity":0.2047244094488189,"duration":0.11354166666666288},{"name":"E3","midi":52,"time":197.33020833333342,"velocity":0.14173228346456693,"duration":0.04270833333333712},{"name":"G3","midi":55,"time":197.78854166666676,"velocity":0.2204724409448819,"duration":0.055208333333325754},{"name":"E3","midi":52,"time":197.81875000000008,"velocity":0.10236220472440945,"duration":0.0625},{"name":"G3","midi":55,"time":198.76145833333342,"velocity":0.2047244094488189,"duration":0.19270833333331439},{"name":"E3","midi":52,"time":198.78541666666675,"velocity":0.1889763779527559,"duration":0.22604166666664582},{"name":"G3","midi":55,"time":199.36250000000007,"velocity":0.2992125984251969,"duration":0.21041666666667425},{"name":"E3","midi":52,"time":199.3989583333334,"velocity":0.1732283464566929,"duration":0.6583333333333314},{"name":"G3","midi":55,"time":200.79791666666674,"velocity":0.16535433070866143,"duration":0.08541666666667425},{"name":"E3","midi":52,"time":200.81354166666674,"velocity":0.1732283464566929,"duration":0.05208333333334281},{"name":"E3","midi":52,"time":201.56979166666673,"velocity":0.14173228346456693,"duration":0.09687499999998295},{"name":"G3","midi":55,"time":201.57187500000006,"velocity":0.1732283464566929,"duration":0.06666666666666288},{"name":"E3","midi":52,"time":202.5729166666667,"velocity":0.16535433070866143,"duration":6.723958333333343},{"name":"G3","midi":55,"time":202.66979166666673,"velocity":0.14173228346456693,"duration":6.627083333333331}],"controlChanges":{},"id":2,"name":"LH-high","channelNumber":1,"isPercussion":false},{"startTime":0.6541666666666667,"duration":209.296875,"length":141,"notes":[{"name":"D3","midi":50,"time":0.6541666666666667,"velocity":0.1968503937007874,"duration":1.9343750000000002},{"name":"D3","midi":50,"time":2.551041666666667,"velocity":0.2204724409448819,"duration":0.6322916666666667},{"name":"A#2","midi":46,"time":4.152083333333334,"velocity":0.2755905511811024,"duration":1.4135416666666663},{"name":"A#2","midi":46,"time":5.542708333333334,"velocity":0.2755905511811024,"duration":0.6624999999999996},{"name":"D3","midi":50,"time":7.432291666666666,"velocity":0.2283464566929134,"duration":0.7958333333333325},{"name":"D3","midi":50,"time":8.802083333333332,"velocity":0.28346456692913385,"duration":0.4708333333333332},{"name":"A2","midi":45,"time":10.076041666666665,"velocity":0.2440944881889764,"duration":0.6385416666666668},{"name":"D3","midi":50,"time":13.730208333333332,"velocity":0.25984251968503935,"duration":0.49375000000000036},{"name":"D3","midi":50,"time":15.112499999999999,"velocity":0.33858267716535434,"duration":0.4093750000000007},{"name":"A#2","midi":46,"time":16.436458333333334,"velocity":0.2755905511811024,"duration":0.8864583333333336},{"name":"A#2","midi":46,"time":17.715625000000003,"velocity":0.30708661417322836,"duration":0.9375},{"name":"C3","midi":48,"time":19.325000000000003,"velocity":0.1732283464566929,"duration":1.2687500000000007},{"name":"A2","midi":45,"time":22.350000000000005,"velocity":0.23622047244094488,"duration":0.673958333333335},{"name":"D3","midi":50,"time":26.497916666666672,"velocity":0.2440944881889764,"duration":1.1479166666666671},{"name":"D3","midi":50,"time":28.066666666666674,"velocity":0.28346456692913385,"duration":0.3999999999999986},{"name":"A#2","midi":46,"time":29.406250000000007,"velocity":0.23622047244094488,"duration":1.1979166666666679},{"name":"A#2","midi":46,"time":30.62187500000001,"velocity":0.3464566929133858,"duration":0.6510416666666679},{"name":"D3","midi":50,"time":32.20937500000001,"velocity":0.28346456692913385,"duration":0.6416666666666657},{"name":"D3","midi":50,"time":33.478125000000006,"velocity":0.3543307086614173,"duration":0.5458333333333343},{"name":"A2","midi":45,"time":34.87604166666667,"velocity":0.2677165354330709,"duration":0.6583333333333314},{"name":"C3","midi":48,"time":36.25104166666667,"velocity":0.4251968503937008,"duration":0.421875},{"name":"C#3","midi":49,"time":36.897916666666674,"velocity":0.5511811023622047,"duration":0.46875},{"name":"D3","midi":50,"time":37.726041666666674,"velocity":0.3543307086614173,"duration":0.7583333333333329},{"name":"D3","midi":50,"time":39.09895833333334,"velocity":0.31496062992125984,"duration":0.5062500000000014},{"name":"A#2","midi":46,"time":40.38541666666668,"velocity":0.4330708661417323,"duration":0.9041666666666686},{"name":"A#2","midi":46,"time":41.642708333333346,"velocity":0.36220472440944884,"duration":0.9031250000000028},{"name":"C3","midi":48,"time":43.04791666666668,"velocity":0.2755905511811024,"duration":0.9052083333333343},{"name":"C3","midi":48,"time":44.38437500000001,"velocity":0.3858267716535433,"duration":0.54270833333333},{"name":"A2","midi":45,"time":45.84270833333334,"velocity":0.2440944881889764,"duration":0.6312500000000014},{"name":"A2","midi":45,"time":47.57083333333334,"velocity":0.13385826771653545,"duration":0.4010416666666643},{"name":"D3","midi":50,"time":50.446875000000006,"velocity":0.25984251968503935,"duration":0.87916666666667},{"name":"D3","midi":50,"time":51.997916666666676,"velocity":0.2440944881889764,"duration":0.7218749999999972},{"name":"A#2","midi":46,"time":53.34375000000001,"velocity":0.4094488188976378,"duration":0.9500000000000028},{"name":"A#2","midi":46,"time":54.60833333333334,"velocity":0.41732283464566927,"duration":0.8145833333333314},{"name":"D3","midi":50,"time":56.00520833333334,"velocity":0.3543307086614173,"duration":0.7791666666666686},{"name":"D3","midi":50,"time":57.24479166666668,"velocity":0.3543307086614173,"duration":0.6822916666666643},{"name":"A2","midi":45,"time":58.51875000000001,"velocity":0.33070866141732286,"duration":0.78541666666667},{"name":"A2","midi":45,"time":59.812500000000014,"velocity":0.4094488188976378,"duration":1.0010416666666657},{"name":"D3","midi":50,"time":61.37916666666668,"velocity":0.31496062992125984,"duration":0.8187500000000014},{"name":"D3","midi":50,"time":62.747916666666676,"velocity":0.3543307086614173,"duration":0.8562500000000028},{"name":"A#2","midi":46,"time":64.11354166666668,"velocity":0.3464566929133858,"duration":0.9385416666666657},{"name":"A#2","midi":46,"time":65.45104166666668,"velocity":0.4015748031496063,"duration":0.91354166666666},{"name":"C3","midi":48,"time":66.86562500000001,"velocity":0.3858267716535433,"duration":0.7979166666666657},{"name":"C3","midi":48,"time":68.10520833333334,"velocity":0.41732283464566927,"duration":0.9541666666666657},{"name":"A2","midi":45,"time":69.453125,"velocity":0.47244094488188976,"duration":0.9677083333333343},{"name":"A2","midi":45,"time":70.83229166666666,"velocity":0.4645669291338583,"duration":0.9656250000000028},{"name":"D3","midi":50,"time":72.228125,"velocity":0.5196850393700787,"duration":0.8145833333333314},{"name":"D3","midi":50,"time":73.4875,"velocity":0.49606299212598426,"duration":0.91354166666666},{"name":"A#2","midi":46,"time":74.94895833333332,"velocity":0.44881889763779526,"duration":0.9281249999999943},{"name":"A#2","midi":46,"time":76.27187499999998,"velocity":0.4409448818897638,"duration":0.8947916666666629},{"name":"C3","midi":48,"time":77.58333333333331,"velocity":0.44881889763779526,"duration":0.8458333333333314},{"name":"C3","midi":48,"time":78.88020833333331,"velocity":0.29133858267716534,"duration":0.77395833333334},{"name":"A2","midi":45,"time":80.13854166666665,"velocity":0.3228346456692913,"duration":1.1062500000000028},{"name":"A2","midi":45,"time":81.71249999999999,"velocity":0.2677165354330709,"duration":1.2864583333333286},{"name":"D2","midi":38,"time":83.99895833333332,"velocity":0.1732283464566929,"duration":0.2614583333333371},{"name":"D3","midi":50,"time":85.79479166666665,"velocity":0.33070866141732286,"duration":0.6500000000000057},{"name":"A#2","midi":46,"time":87.35729166666665,"velocity":0.33070866141732286,"duration":0.9645833333333371},{"name":"A#2","midi":46,"time":88.67604166666666,"velocity":0.29133858267716534,"duration":0.6812500000000057},{"name":"D2","midi":38,"time":90.29270833333334,"velocity":0.3858267716535433,"duration":0.2239583333333286},{"name":"D3","midi":50,"time":91.65520833333333,"velocity":0.3464566929133858,"duration":0.6604166666666629},{"name":"A2","midi":45,"time":92.87708333333333,"velocity":0.4015748031496063,"duration":0.5989583333333286},{"name":"C3","midi":48,"time":94.265625,"velocity":0.47244094488188976,"duration":0.42499999999999716},{"name":"C#3","midi":49,"time":94.94479166666666,"velocity":0.5826771653543307,"duration":0.3083333333333371},{"name":"D3","midi":50,"time":95.6,"velocity":0.49606299212598426,"duration":0.36249999999999716},{"name":"D2","midi":38,"time":96.91562499999999,"velocity":0.5669291338582677,"duration":0.09999999999999432},{"name":"C2","midi":36,"time":97.61874999999999,"velocity":0.3779527559055118,"duration":0.005208333333328596},{"name":"A#1","midi":34,"time":98.33854166666666,"velocity":0.7007874015748031,"duration":0.2395833333333286},{"name":"A#2","midi":46,"time":99.75729166666665,"velocity":0.4330708661417323,"duration":0.9677083333333343},{"name":"G2","midi":43,"time":101.36249999999998,"velocity":0.3228346456692913,"duration":0.18541666666666856},{"name":"G3","midi":55,"time":102.80729166666666,"velocity":0.3858267716535433,"duration":1.3531250000000057},{"name":"G3","midi":55,"time":102.82395833333332,"velocity":0.30708661417322836,"duration":1.33645833333334},{"name":"E3","midi":52,"time":104.20208333333333,"velocity":0.28346456692913385,"duration":1.97708333333334},{"name":"F3","midi":53,"time":107.68958333333335,"velocity":0.3228346456692913,"duration":0.47187499999999716},{"name":"F3","midi":53,"time":109.17291666666668,"velocity":0.29133858267716534,"duration":1.5406250000000057},{"name":"D#3","midi":51,"time":110.63437500000002,"velocity":0.31496062992125984,"duration":1.3697916666666714},{"name":"D#3","midi":51,"time":111.98958333333336,"velocity":0.4330708661417323,"duration":1.4020833333333371},{"name":"D3","midi":50,"time":113.10625000000003,"velocity":0.4330708661417323,"duration":0.2854166666666629},{"name":"C#3","midi":49,"time":113.37395833333336,"velocity":0.5748031496062992,"duration":1.2843749999999972},{"name":"C#3","midi":49,"time":114.67187500000003,"velocity":0.3779527559055118,"duration":1.3104166666666544},{"name":"C3","midi":48,"time":115.95937500000002,"velocity":0.3779527559055118,"duration":0.7302083333333229},{"name":"C3","midi":48,"time":117.18229166666669,"velocity":0.4094488188976378,"duration":1.4854166666666657},{"name":"G3","midi":55,"time":118.67083333333335,"velocity":0.2755905511811024,"duration":1.5812499999999972},{"name":"G3","midi":55,"time":120.28437500000001,"velocity":0.3464566929133858,"duration":1.4781249999999915},{"name":"D#3","midi":51,"time":121.72916666666667,"velocity":0.3228346456692913,"duration":0.8468749999999972},{"name":"D#3","midi":51,"time":123.01145833333334,"velocity":0.3543307086614173,"duration":0.5583333333333371},{"name":"F3","midi":53,"time":124.6375,"velocity":0.25984251968503935,"duration":0.8697916666666714},{"name":"F3","midi":53,"time":126.01666666666668,"velocity":0.30708661417322836,"duration":0.57083333333334},{"name":"D3","midi":50,"time":127.39583333333336,"velocity":0.3464566929133858,"duration":0.8395833333333229},{"name":"D3","midi":50,"time":128.66979166666667,"velocity":0.3779527559055118,"duration":0.7218750000000114},{"name":"G3","midi":55,"time":130.4260416666667,"velocity":0.2677165354330709,"duration":0.6541666666666686},{"name":"G3","midi":55,"time":131.93750000000003,"velocity":0.3543307086614173,"duration":0.5677083333333428},{"name":"D#3","midi":51,"time":133.47187500000004,"velocity":0.3937007874015748,"duration":1.2156249999999886},{"name":"D#3","midi":51,"time":134.6916666666667,"velocity":0.3937007874015748,"duration":1.3625000000000114},{"name":"F3","midi":53,"time":136.1479166666667,"velocity":0.3464566929133858,"duration":0.9052083333333201},{"name":"F3","midi":53,"time":137.5229166666667,"velocity":0.3543307086614173,"duration":0.7156249999999886},{"name":"D3","midi":50,"time":138.7541666666667,"velocity":0.3779527559055118,"duration":0.8239583333333371},{"name":"D3","midi":50,"time":139.8916666666667,"velocity":0.4566929133858268,"duration":0.9458333333333258},{"name":"G3","midi":55,"time":141.29895833333336,"velocity":0.3543307086614173,"duration":1.3322916666666629},{"name":"G3","midi":55,"time":142.690625,"velocity":0.3779527559055118,"duration":0.8729166666666686},{"name":"D#3","midi":51,"time":144.0875,"velocity":0.3858267716535433,"duration":1.0822916666666629},{"name":"D#3","midi":51,"time":145.21354166666666,"velocity":0.5039370078740157,"duration":0.8177083333333428},{"name":"D3","midi":50,"time":146.509375,"velocity":0.4015748031496063,"duration":0.8031249999999943},{"name":"C3","midi":48,"time":147.74479166666666,"velocity":0.4566929133858268,"duration":0.8552083333333371},{"name":"A#2","midi":46,"time":148.96666666666667,"velocity":0.4645669291338583,"duration":0.8375000000000057},{"name":"A#2","midi":46,"time":150.1125,"velocity":0.48031496062992124,"duration":0.234375},{"name":"A2","midi":45,"time":151.24895833333335,"velocity":0.4645669291338583,"duration":0.7458333333333371},{"name":"A2","midi":45,"time":152.41250000000002,"velocity":0.48031496062992124,"duration":0.24583333333333712},{"name":"A2","midi":45,"time":153.6541666666667,"velocity":0.4409448818897638,"duration":0.9322916666666572},{"name":"A2","midi":45,"time":155.10312500000003,"velocity":0.47244094488188976,"duration":0.3635416666666629},{"name":"D3","midi":50,"time":157.5135416666667,"velocity":0.1732283464566929,"duration":1.6927083333333428},{"name":"D3","midi":50,"time":159.24583333333337,"velocity":0.30708661417322836,"duration":0.8468750000000114},{"name":"A#2","midi":46,"time":160.72708333333338,"velocity":0.36220472440944884,"duration":0.953125},{"name":"A#2","midi":46,"time":162.33645833333338,"velocity":0.3228346456692913,"duration":0.9395833333333314},{"name":"D3","midi":50,"time":163.76354166666673,"velocity":0.2204724409448819,"duration":0.875},{"name":"D3","midi":50,"time":165.02395833333338,"velocity":0.2992125984251969,"duration":0.7552083333333428},{"name":"A2","midi":45,"time":166.31354166666674,"velocity":0.25196850393700787,"duration":1.0729166666666572},{"name":"A2","midi":45,"time":167.88437500000006,"velocity":0.30708661417322836,"duration":0.8208333333333258},{"name":"D3","midi":50,"time":169.23125000000005,"velocity":0.3464566929133858,"duration":0.8270833333333201},{"name":"D3","midi":50,"time":170.45625000000004,"velocity":0.33070866141732286,"duration":0.8000000000000114},{"name":"A#2","midi":46,"time":171.74270833333338,"velocity":0.3858267716535433,"duration":0.9520833333333201},{"name":"A#2","midi":46,"time":173.0291666666667,"velocity":0.3858267716535433,"duration":1.1614583333333428},{"name":"C3","midi":48,"time":174.59583333333336,"velocity":0.3228346456692913,"duration":0.8802083333333428},{"name":"C3","midi":48,"time":175.89062500000003,"velocity":0.3464566929133858,"duration":0.7666666666666799},{"name":"A2","midi":45,"time":177.26145833333337,"velocity":0.25984251968503935,"duration":0.9677083333333201},{"name":"A2","midi":45,"time":178.68854166666668,"velocity":0.28346456692913385,"duration":1.06145833333332},{"name":"D3","midi":50,"time":180.40104166666666,"velocity":0.31496062992125984,"duration":0.9083333333333314},{"name":"D3","midi":50,"time":181.85833333333332,"velocity":0.2992125984251969,"duration":0.5218749999999943},{"name":"A#2","midi":46,"time":183.25729166666665,"velocity":0.2440944881889764,"duration":0.9010416666666572},{"name":"A#2","midi":46,"time":184.5770833333333,"velocity":0.29133858267716534,"duration":0.9927083333333258},{"name":"D3","midi":50,"time":186.0083333333333,"velocity":0.25984251968503935,"duration":0.8322916666666629},{"name":"D3","midi":50,"time":187.26145833333328,"velocity":0.33070866141732286,"duration":0.7937499999999886},{"name":"A2","midi":45,"time":188.5572916666666,"velocity":0.2125984251968504,"duration":0.8156250000000114},{"name":"A2","midi":45,"time":189.77291666666662,"velocity":0.3464566929133858,"duration":0.8312500000000114},{"name":"D3","midi":50,"time":191.0427083333333,"velocity":0.31496062992125984,"duration":0.9343749999999886},{"name":"D3","midi":50,"time":192.37499999999997,"velocity":0.23622047244094488,"duration":0.6885416666666799},{"name":"A#2","midi":46,"time":193.70208333333332,"velocity":0.31496062992125984,"duration":1.3031249999999943},{"name":"A#2","midi":46,"time":195.03020833333332,"velocity":0.30708661417322836,"duration":1.6583333333333314},{"name":"C3","midi":48,"time":196.709375,"velocity":0.2047244094488189,"duration":1.1385416666666686},{"name":"C3","midi":48,"time":198.26354166666667,"velocity":0.31496062992125984,"duration":1.0333333333333314},{"name":"A2","midi":45,"time":200.08854166666666,"velocity":0.1968503937007874,"duration":1.5968750000000114},{"name":"A2","midi":45,"time":202.45833333333334,"velocity":0.16535433070866143,"duration":6.838541666666657}],"controlChanges":{},"id":3,"name":"LH-low","channelNumber":2,"isPercussion":false},{"startTime":59.11145833333333,"duration":156.15208333333334,"length":46,"notes":[{"name":"E6","midi":88,"time":59.11145833333333,"velocity":0.6141732283464567,"duration":0.7645833333333343},{"name":"F6","midi":89,"time":59.821875,"velocity":0.6220472440944882,"duration":0.7760416666666643},{"name":"E6","midi":88,"time":60.52395833333333,"velocity":0.5669291338582677,"duration":0.8697916666666643},{"name":"A5","midi":81,"time":69.871875,"velocity":0.5984251968503937,"duration":0.4104166666666629},{"name":"E6","midi":88,"time":70.234375,"velocity":0.6614173228346457,"duration":0.3385416666666714},{"name":"A5","midi":81,"time":70.590625,"velocity":0.6220472440944882,"duration":0.4947916666666714},{"name":"F6","midi":89,"time":70.94375000000001,"velocity":0.5984251968503937,"duration":0.5062500000000085},{"name":"E6","midi":88,"time":71.18333333333334,"velocity":0.5984251968503937,"duration":0.6197916666666856},{"name":"C6","midi":84,"time":71.44166666666668,"velocity":0.6377952755905512,"duration":0.17812500000000853},{"name":"A5","midi":81,"time":71.60625000000002,"velocity":0.6614173228346457,"duration":0.26874999999999716},{"name":"C6","midi":84,"time":71.81041666666668,"velocity":0.6220472440944882,"duration":0.23229166666666856},{"name":"E6","midi":88,"time":72.01250000000002,"velocity":0.6614173228346457,"duration":0.2666666666666657},{"name":"C6","midi":84,"time":73.83958333333335,"velocity":0.6535433070866141,"duration":0.09687499999999716},{"name":"E6","midi":88,"time":74.21041666666669,"velocity":0.7007874015748031,"duration":0.47083333333333144},{"name":"G6","midi":91,"time":74.63854166666668,"velocity":0.6062992125984252,"duration":0.36666666666667425},{"name":"A6","midi":93,"time":74.96145833333335,"velocity":0.6929133858267716,"duration":0.5906250000000028},{"name":"G6","midi":91,"time":75.27187500000002,"velocity":0.6299212598425197,"duration":0.4364583333333343},{"name":"F6","midi":89,"time":75.66250000000002,"velocity":0.6692913385826772,"duration":0.37708333333333144},{"name":"D6","midi":86,"time":76.01770833333336,"velocity":0.6062992125984252,"duration":0.34062500000000284},{"name":"G6","midi":91,"time":76.31562500000003,"velocity":0.6220472440944882,"duration":0.4833333333333485},{"name":"F6","midi":89,"time":76.5385416666667,"velocity":0.6141732283464567,"duration":0.28333333333333144},{"name":"D6","midi":86,"time":76.75208333333337,"velocity":0.6062992125984252,"duration":0.18958333333333144},{"name":"C6","midi":84,"time":76.95520833333337,"velocity":0.6299212598425197,"duration":0.20520833333333144},{"name":"A#5","midi":82,"time":77.15625000000004,"velocity":0.6299212598425197,"duration":0.1833333333333229},{"name":"A5","midi":81,"time":77.33645833333337,"velocity":0.6299212598425197,"duration":0.23854166666666288},{"name":"F5","midi":77,"time":87.4010416666667,"velocity":0.4409448818897638,"duration":0.06666666666666288},{"name":"D#5","midi":75,"time":104.04375000000003,"velocity":0.4015748031496063,"duration":0.11666666666666003},{"name":"G#5","midi":80,"time":110.74270833333335,"velocity":0.47244094488188976,"duration":0.06145833333333428},{"name":"A#5","midi":82,"time":121.70625000000003,"velocity":0.4409448818897638,"duration":0.08645833333333997},{"name":"G5","midi":79,"time":145.77083333333337,"velocity":0.4251968503937008,"duration":0.06562500000001137},{"name":"C6","midi":84,"time":146.4541666666667,"velocity":0.49606299212598426,"duration":0.23750000000001137},{"name":"C6","midi":84,"time":147.16979166666673,"velocity":0.29133858267716534,"duration":0.027083333333337123},{"name":"C6","midi":84,"time":147.73541666666674,"velocity":0.4881889763779528,"duration":0.3635416666666629},{"name":"C6","midi":84,"time":148.39687500000008,"velocity":0.4251968503937008,"duration":0.07395833333333712},{"name":"C6","midi":84,"time":148.9208333333334,"velocity":0.5511811023622047,"duration":0.17291666666667993},{"name":"C6","midi":84,"time":149.5864583333334,"velocity":0.5275590551181102,"duration":0.10624999999998863},{"name":"C6","midi":84,"time":150.09375000000006,"velocity":0.5905511811023622,"duration":0.3229166666666572},{"name":"C6","midi":84,"time":150.67500000000004,"velocity":0.5354330708661418,"duration":0.10208333333332575},{"name":"C6","midi":84,"time":151.21145833333335,"velocity":0.5905511811023622,"duration":0.2291666666666572},{"name":"C6","midi":84,"time":151.828125,"velocity":0.6062992125984252,"duration":0.05104166666666288},{"name":"C6","midi":84,"time":152.40208333333334,"velocity":0.5905511811023622,"duration":0.30000000000001137},{"name":"C6","midi":84,"time":153.03229166666668,"velocity":0.2992125984251969,"duration":0.06979166666667425},{"name":"C6","midi":84,"time":153.63125000000002,"velocity":0.5748031496062992,"duration":0.4322916666666572},{"name":"C6","midi":84,"time":154.33645833333335,"velocity":0.5354330708661418,"duration":0.11250000000001137},{"name":"C6","midi":84,"time":155.07083333333335,"velocity":0.5354330708661418,"duration":0.5458333333333201},{"name":"C6","midi":84,"time":156.096875,"velocity":0.2992125984251969,"duration":0.055208333333325754}],"controlChanges":{},"id":4,"name":"Grace","channelNumber":3,"isPercussion":false},{"startTime":162.29583333333332,"duration":209.29687500000009,"length":55,"notes":[{"name":"A4","midi":69,"time":162.29583333333332,"velocity":0.4645669291338583,"duration":0.24270833333335418},{"name":"G4","midi":67,"time":162.51979166666666,"velocity":0.4251968503937008,"duration":0.21250000000000568},{"name":"F4","midi":65,"time":162.75833333333333,"velocity":0.4645669291338583,"duration":0.5197916666666629},{"name":"G4","midi":67,"time":163.29791666666665,"velocity":0.4409448818897638,"duration":0.1458333333333428},{"name":"A4","midi":69,"time":163.51458333333332,"velocity":0.4251968503937008,"duration":0.5916666666666686},{"name":"A#4","midi":70,"time":167.29062499999998,"velocity":0.5511811023622047,"duration":0.6072916666666686},{"name":"A4","midi":69,"time":167.86354166666663,"velocity":0.5511811023622047,"duration":0.43437500000001705},{"name":"G4","midi":67,"time":168.07604166666664,"velocity":0.4409448818897638,"duration":0.25104166666667993},{"name":"F4","midi":65,"time":168.32187499999998,"velocity":0.5511811023622047,"duration":0.5052083333333428},{"name":"E4","midi":64,"time":168.81979166666665,"velocity":0.5748031496062992,"duration":0.18229166666668561},{"name":"D4","midi":62,"time":168.99479166666666,"velocity":0.5826771653543307,"duration":0.6822916666666856},{"name":"A#4","midi":70,"time":172.43437500000002,"velocity":0.49606299212598426,"duration":0.07395833333333712},{"name":"A4","midi":69,"time":172.62083333333337,"velocity":0.5196850393700787,"duration":0.09479166666667993},{"name":"F4","midi":65,"time":172.8041666666667,"velocity":0.5118110236220472,"duration":0.053124999999994316},{"name":"G4","midi":67,"time":173.0479166666667,"velocity":0.49606299212598426,"duration":0.32708333333332007},{"name":"A4","midi":69,"time":173.62708333333336,"velocity":0.36220472440944884,"duration":0.05000000000001137},{"name":"A4","midi":69,"time":175.1072916666667,"velocity":0.5196850393700787,"duration":0.18541666666666856},{"name":"G4","midi":67,"time":175.30520833333335,"velocity":0.5039370078740157,"duration":0.15520833333332007},{"name":"F4","midi":65,"time":175.484375,"velocity":0.5275590551181102,"duration":0.1302083333333428},{"name":"E4","midi":64,"time":175.64791666666667,"velocity":0.4409448818897638,"duration":0.1614583333333428},{"name":"C4","midi":60,"time":175.89270833333336,"velocity":0.5196850393700787,"duration":0.4625000000000057},{"name":"A4","midi":69,"time":177.75937500000003,"velocity":0.3779527559055118,"duration":0.39791666666667425},{"name":"G4","midi":67,"time":178.05208333333337,"velocity":0.30708661417322836,"duration":0.1770833333333428},{"name":"C4","midi":60,"time":178.2916666666667,"velocity":0.3937007874015748,"duration":0.14895833333332575},{"name":"F4","midi":65,"time":178.47187500000004,"velocity":0.49606299212598426,"duration":0.23645833333333144},{"name":"E4","midi":64,"time":178.73020833333337,"velocity":0.47244094488188976,"duration":1.1270833333333314},{"name":"A#4","midi":70,"time":184.35416666666669,"velocity":0.3937007874015748,"duration":0.2239583333333428},{"name":"A4","midi":69,"time":184.58958333333337,"velocity":0.4330708661417323,"duration":0.21666666666666856},{"name":"G4","midi":67,"time":184.77187500000002,"velocity":0.4015748031496063,"duration":0.19791666666668561},{"name":"F4","midi":65,"time":185.00625000000005,"velocity":0.3937007874015748,"duration":0.16562500000000568},{"name":"G4","midi":67,"time":185.6145833333334,"velocity":0.2755905511811024,"duration":0.09791666666666288},{"name":"A4","midi":69,"time":185.80729166666674,"velocity":0.2677165354330709,"duration":0.8812499999999943},{"name":"D5","midi":74,"time":189.1520833333334,"velocity":0.48031496062992124,"duration":0.21770833333332007},{"name":"C5","midi":72,"time":189.37812500000004,"velocity":0.47244094488188976,"duration":0.15833333333333144},{"name":"A#4","midi":70,"time":189.55312500000005,"velocity":0.5118110236220472,"duration":0.23229166666666856},{"name":"A4","midi":69,"time":189.74062500000005,"velocity":0.48031496062992124,"duration":0.1770833333333428},{"name":"G4","midi":67,"time":189.9322916666667,"velocity":0.4881889763779528,"duration":0.24687500000001705},{"name":"F4","midi":65,"time":190.14479166666672,"velocity":0.48031496062992124,"duration":0.28229166666667993},{"name":"E4","midi":64,"time":190.63229166666673,"velocity":0.3779527559055118,"duration":0.16979166666666856},{"name":"D4","midi":62,"time":190.82291666666674,"velocity":0.4330708661417323,"duration":0.6739583333333314},{"name":"A#4","midi":70,"time":194.3583333333334,"velocity":0.4330708661417323,"duration":0.6468750000000227},{"name":"A4","midi":69,"time":194.57291666666674,"velocity":0.3700787401574803,"duration":0.4322916666666856},{"name":"F4","midi":65,"time":194.76562500000009,"velocity":0.3543307086614173,"duration":0.2395833333333428},{"name":"G4","midi":67,"time":195.0812500000001,"velocity":0.3228346456692913,"duration":0.14791666666667425},{"name":"A4","midi":69,"time":195.56145833333343,"velocity":0.33858267716535434,"duration":1.1270833333333314},{"name":"G4","midi":67,"time":197.27083333333343,"velocity":0.33070866141732286,"duration":0.20520833333333144},{"name":"A4","midi":69,"time":197.50833333333344,"velocity":0.3700787401574803,"duration":0.15625},{"name":"E4","midi":64,"time":197.75104166666677,"velocity":0.3700787401574803,"duration":0.17500000000001137},{"name":"F4","midi":65,"time":197.98958333333346,"velocity":0.3464566929133858,"duration":0.23854166666666288},{"name":"E4","midi":64,"time":198.26770833333345,"velocity":0.3700787401574803,"duration":1.1531249999999886},{"name":"A4","midi":69,"time":200.7812500000001,"velocity":0.30708661417322836,"duration":0.3916666666666515},{"name":"G4","midi":67,"time":201.15833333333345,"velocity":0.2047244094488189,"duration":0.39479166666663446},{"name":"E4","midi":64,"time":201.54687500000009,"velocity":0.25984251968503935,"duration":0.40312499999998863},{"name":"F4","midi":65,"time":201.97604166666673,"velocity":0.2755905511811024,"duration":0.7062500000000114},{"name":"E4","midi":64,"time":202.68541666666675,"velocity":0.2677165354330709,"duration":6.611458333333331}],"controlChanges":{},"id":5,"name":"End-countermel","channelNumber":4,"isPercussion":false}]}