{"header":{"PPQ":480,"timeSignature":[4,4],"bpm":120,"name":""},"startTime":531.0541666666667,"duration":686.2125000000002,"tracks":[{"startTime":531.0541666666667,"duration":686.2125000000002,"length":98,"notes":[{"name":"A#2","midi":46,"time":531.0541666666667,"velocity":0.30708661417322836,"duration":2.0843750000000227},{"name":"D4","midi":62,"time":531.0645833333333,"velocity":0.4409448818897638,"duration":1.9739583333333712},{"name":"D#2","midi":39,"time":535.36875,"velocity":0.2677165354330709,"duration":2.383333333333212},{"name":"G3","midi":55,"time":535.3697916666666,"velocity":0.2992125984251969,"duration":2.2770833333332803},{"name":"D4","midi":62,"time":539.9802083333332,"velocity":0.4251968503937008,"duration":1.7177083333333485},{"name":"A#2","midi":46,"time":539.9958333333332,"velocity":0.2677165354330709,"duration":4.1218750000000455},{"name":"F3","midi":53,"time":543.4385416666665,"velocity":0.30708661417322836,"duration":0.13020833333337123},{"name":"F3","midi":53,"time":544.0395833333332,"velocity":0.28346456692913385,"duration":0.4718749999999545},{"name":"D#2","midi":39,"time":544.0416666666665,"velocity":0.23622047244094488,"duration":2.4885416666667197},{"name":"G3","midi":55,"time":544.5135416666665,"velocity":0.2283464566929134,"duration":1.7854166666667197},{"name":"D4","midi":62,"time":548.3,"velocity":0.4094488188976378,"duration":1.6822916666666288},{"name":"A#2","midi":46,"time":548.3031249999999,"velocity":0.2992125984251969,"duration":1.6156250000000227},{"name":"G#2","midi":44,"time":549.8906249999999,"velocity":0.29133858267716534,"duration":1.6750000000000682},{"name":"C4","midi":60,"time":549.9052083333332,"velocity":0.4645669291338583,"duration":1.6760416666667197},{"name":"A#3","midi":58,"time":551.4979166666666,"velocity":0.4645669291338583,"duration":1.591666666666697},{"name":"G2","midi":43,"time":551.5052083333333,"velocity":0.29133858267716534,"duration":1.544791666666697},{"name":"F2","midi":41,"time":553.0270833333333,"velocity":0.2992125984251969,"duration":1.9500000000000455},{"name":"A3","midi":57,"time":553.0333333333333,"velocity":0.33070866141732286,"duration":2.171875},{"name":"D#2","midi":39,"time":554.953125,"velocity":0.2677165354330709,"duration":2.4687499999998863},{"name":"G3","midi":55,"time":554.9989583333333,"velocity":0.2992125984251969,"duration":2.4604166666665606},{"name":"D#2","midi":39,"time":558.9187499999999,"velocity":0.2047244094488189,"duration":3.216666666666697},{"name":"G3","midi":55,"time":558.9479166666666,"velocity":0.1889763779527559,"duration":2.9093749999999545},{"name":"D4","midi":62,"time":564.3968749999999,"velocity":0.4251968503937008,"duration":1.818749999999909},{"name":"A#2","midi":46,"time":564.3989583333332,"velocity":0.25984251968503935,"duration":3.809374999999932},{"name":"F3","midi":53,"time":567.7354166666665,"velocity":0.28346456692913385,"duration":0.41249999999990905},{"name":"D#2","midi":39,"time":568.1635416666664,"velocity":0.2204724409448819,"duration":2.6291666666667197},{"name":"G3","midi":55,"time":568.1947916666664,"velocity":0.2992125984251969,"duration":2.3770833333334167},{"name":"A#2","midi":46,"time":572.4739583333333,"velocity":0.2677165354330709,"duration":3.7124999999999773},{"name":"D4","midi":62,"time":572.4885416666666,"velocity":0.4094488188976378,"duration":1.584374999999909},{"name":"A3","midi":57,"time":576.0833333333331,"velocity":0.2755905511811024,"duration":0.5906250000000455},{"name":"D#2","midi":39,"time":576.0885416666665,"velocity":0.2755905511811024,"duration":2.5416666666666288},{"name":"G3","midi":55,"time":576.6645833333332,"velocity":0.1732283464566929,"duration":1.6364583333332803},{"name":"D4","midi":62,"time":580.2322916666665,"velocity":0.3543307086614173,"duration":1.7000000000001592},{"name":"A#2","midi":46,"time":580.2406249999998,"velocity":0.23622047244094488,"duration":1.632291666666788},{"name":"A2","midi":45,"time":581.8072916666665,"velocity":0.28346456692913385,"duration":1.647916666666788},{"name":"F4","midi":65,"time":581.8218749999999,"velocity":0.44881889763779526,"duration":1.667708333333394},{"name":"D#4","midi":63,"time":583.4239583333333,"velocity":0.49606299212598426,"duration":1.7145833333332803},{"name":"G2","midi":43,"time":583.428125,"velocity":0.25984251968503935,"duration":1.7302083333332803},{"name":"D4","midi":62,"time":585.0791666666665,"velocity":0.44881889763779526,"duration":1.971875000000182},{"name":"A#2","midi":46,"time":585.0937499999999,"velocity":0.3228346456692913,"duration":2.086458333333553},{"name":"F3","midi":53,"time":586.9677083333333,"velocity":0.23622047244094488,"duration":5.233333333333462},{"name":"C4","midi":60,"time":586.96875,"velocity":0.31496062992125984,"duration":5.060416666666811},{"name":"A#4","midi":70,"time":594.3843750000002,"velocity":0.3543307086614173,"duration":1.2958333333333485},{"name":"G2","midi":43,"time":594.4166666666669,"velocity":0.18110236220472442,"duration":1.9208333333333485},{"name":"F3","midi":53,"time":596.3395833333335,"velocity":0.2047244094488189,"duration":0.7447916666667425},{"name":"A4","midi":69,"time":596.3458333333335,"velocity":0.33070866141732286,"duration":0.9520833333333485},{"name":"D#2","midi":39,"time":598.2270833333336,"velocity":0.25984251968503935,"duration":3.1645833333333258},{"name":"G4","midi":67,"time":598.2437500000002,"velocity":0.2755905511811024,"duration":2.3802083333333712},{"name":"A#4","midi":70,"time":603.0041666666668,"velocity":0.4251968503937008,"duration":1.0104166666666288},{"name":"G2","midi":43,"time":603.0062500000001,"velocity":0.1732283464566929,"duration":1.8895833333333485},{"name":"F2","midi":41,"time":604.8885416666668,"velocity":0.2047244094488189,"duration":1.9572916666667197},{"name":"D5","midi":74,"time":604.8937500000002,"velocity":0.3858267716535433,"duration":0.953125},{"name":"D#2","midi":39,"time":606.9156250000002,"velocity":0.2440944881889764,"duration":2.2302083333332803},{"name":"G4","midi":67,"time":606.9447916666669,"velocity":0.28346456692913385,"duration":2.1208333333332803},{"name":"A#2","midi":46,"time":611.5895833333335,"velocity":0.25984251968503935,"duration":1.0552083333333258},{"name":"D4","midi":62,"time":611.5927083333335,"velocity":0.3464566929133858,"duration":1.8031250000000227},{"name":"F4","midi":65,"time":613.3635416666668,"velocity":0.4015748031496063,"duration":1.933333333333394},{"name":"A2","midi":45,"time":613.3687500000002,"velocity":0.2283464566929134,"duration":1.9020833333332803},{"name":"A#4","midi":70,"time":615.2489583333335,"velocity":0.44881889763779526,"duration":1.8947916666668334},{"name":"G2","midi":43,"time":615.2541666666668,"velocity":0.2755905511811024,"duration":1.8604166666667652},{"name":"F2","midi":41,"time":617.0385416666669,"velocity":0.3228346456692913,"duration":2.1687500000000455},{"name":"C5","midi":72,"time":617.0552083333336,"velocity":0.5196850393700787,"duration":0.870833333333394},{"name":"D#2","midi":39,"time":619.2208333333336,"velocity":0.31496062992125984,"duration":3.2552083333332575},{"name":"F5","midi":77,"time":619.2427083333337,"velocity":0.33858267716535434,"duration":2.653124999999932},{"name":"D#1","midi":27,"time":623.5729166666669,"velocity":0.2047244094488189,"duration":2.903124999999932},{"name":"F5","midi":77,"time":623.5968750000002,"velocity":0.23622047244094488,"duration":2.7437499999999773},{"name":"A#2","midi":46,"time":630.2031250000001,"velocity":0.2440944881889764,"duration":3.078125},{"name":"D4","midi":62,"time":630.2322916666668,"velocity":0.30708661417322836,"duration":1.752083333333303},{"name":"F3","midi":53,"time":633.4989583333335,"velocity":0.29133858267716534,"duration":0.4645833333332803},{"name":"D#2","midi":39,"time":633.9166666666667,"velocity":0.25984251968503935,"duration":2.7718750000000227},{"name":"G3","midi":55,"time":633.9531250000001,"velocity":0.2677165354330709,"duration":2.6593749999999545},{"name":"A#2","midi":46,"time":638.5208333333335,"velocity":0.28346456692913385,"duration":2.8260416666665833},{"name":"D4","midi":62,"time":638.5312500000001,"velocity":0.44881889763779526,"duration":0.796875},{"name":"F3","midi":53,"time":640.9791666666667,"velocity":0.3779527559055118,"duration":1.3593750000001137},{"name":"D#2","midi":39,"time":642.2645833333335,"velocity":0.23622047244094488,"duration":2.2052083333334167},{"name":"G3","midi":55,"time":642.2843750000002,"velocity":0.2755905511811024,"duration":2.1020833333333258},{"name":"A#2","midi":46,"time":646.2239583333335,"velocity":0.2755905511811024,"duration":1.1645833333333258},{"name":"D4","midi":62,"time":646.2406250000001,"velocity":0.2992125984251969,"duration":1.0229166666666742},{"name":"C4","midi":60,"time":647.9083333333334,"velocity":0.2755905511811024,"duration":0.6531249999999318},{"name":"A2","midi":45,"time":647.9166666666667,"velocity":0.1968503937007874,"duration":1.6770833333332575},{"name":"A#3","midi":58,"time":649.5947916666667,"velocity":0.36220472440944884,"duration":0.722916666666606},{"name":"G2","midi":43,"time":649.5979166666666,"velocity":0.23622047244094488,"duration":1.7624999999999318},{"name":"A3","midi":57,"time":651.3708333333332,"velocity":0.36220472440944884,"duration":0.8427083333333485},{"name":"F2","midi":41,"time":651.3968749999998,"velocity":0.2047244094488189,"duration":0.7802083333333485},{"name":"D#2","midi":39,"time":653.6114583333332,"velocity":0.2283464566929134,"duration":4.8093750000000455},{"name":"G3","midi":55,"time":653.6187499999999,"velocity":0.29133858267716534,"duration":4.763541666666697},{"name":"A#2","midi":46,"time":660.1739583333333,"velocity":0.29133858267716534,"duration":0.8697916666667425},{"name":"D4","midi":62,"time":660.1875,"velocity":0.3464566929133858,"duration":0.810416666666697},{"name":"A2","midi":45,"time":662.0239583333333,"velocity":0.2125984251968504,"duration":0.980208333333394},{"name":"C4","midi":60,"time":662.0239583333333,"velocity":0.2755905511811024,"duration":0.714583333333394},{"name":"A#3","midi":58,"time":663.9229166666668,"velocity":0.30708661417322836,"duration":0.7031250000001137},{"name":"G2","midi":43,"time":663.9583333333335,"velocity":0.14173228346456693,"duration":0.6270833333334167},{"name":"A3","midi":57,"time":665.8864583333335,"velocity":0.2677165354330709,"duration":0.9864583333334167},{"name":"F2","midi":41,"time":665.8937500000002,"velocity":0.14173228346456693,"duration":0.9750000000000227},{"name":"D#2","midi":39,"time":668.0520833333336,"velocity":0.2047244094488189,"duration":2.8281249999998863},{"name":"G3","midi":55,"time":668.0718750000002,"velocity":0.2283464566929134,"duration":2.8468749999999545},{"name":"D#2","midi":39,"time":672.7364583333335,"velocity":0.14960629921259844,"duration":13.476041666666674},{"name":"G3","midi":55,"time":672.7500000000002,"velocity":0.1889763779527559,"duration":13.462499999999977}],"controlChanges":{"64":[{"number":64,"time":531.1625,"value":1},{"number":64,"time":535.3958333333333,"value":0},{"number":64,"time":535.9187499999999,"value":1},{"number":64,"time":539.8937499999998,"value":0},{"number":64,"time":541.0406249999999,"value":1},{"number":64,"time":544.0979166666665,"value":0},{"number":64,"time":545.6854166666665,"value":1},{"number":64,"time":547.8395833333333,"value":0},{"number":64,"time":556.7468749999999,"value":1},{"number":64,"time":558.9333333333333,"value":0},{"number":64,"time":565.5656249999998,"value":1},{"number":64,"time":568.1364583333332,"value":0},{"number":64,"time":569.3874999999998,"value":1},{"number":64,"time":571.9062499999999,"value":0},{"number":64,"time":573.6166666666666,"value":1},{"number":64,"time":576.0874999999999,"value":0},{"number":64,"time":577.9614583333332,"value":1},{"number":64,"time":579.4333333333332,"value":0},{"number":64,"time":589.6468750000001,"value":1},{"number":64,"time":593.3093750000002,"value":0},{"number":64,"time":595.2968750000002,"value":1},{"number":64,"time":596.4000000000002,"value":0},{"number":64,"time":596.9000000000002,"value":1},{"number":64,"time":598.2385416666668,"value":0},{"number":64,"time":599.0937500000002,"value":1},{"number":64,"time":602.8312500000002,"value":0},{"number":64,"time":603.7562500000001,"value":1},{"number":64,"time":604.8947916666668,"value":0},{"number":64,"time":608.3135416666669,"value":1},{"number":64,"time":610.3000000000002,"value":0},{"number":64,"time":612.2458333333335,"value":1},{"number":64,"time":613.4135416666668,"value":0},{"number":64,"time":613.8208333333334,"value":1},{"number":64,"time":615.2760416666669,"value":0},{"number":64,"time":615.9364583333336,"value":1},{"number":64,"time":617.0364583333336,"value":0},{"number":64,"time":617.5906250000003,"value":1},{"number":64,"time":619.2437500000003,"value":0},{"number":64,"time":620.6812500000003,"value":1},{"number":64,"time":623.6156250000001,"value":0},{"number":64,"time":624.0197916666668,"value":1},{"number":64,"time":628.0937500000001,"value":0},{"number":64,"time":631.6385416666668,"value":1},{"number":64,"time":633.9333333333334,"value":0},{"number":64,"time":634.6572916666668,"value":1},{"number":64,"time":638.4916666666668,"value":0},{"number":64,"time":639.1114583333334,"value":1},{"number":64,"time":642.2520833333334,"value":0},{"number":64,"time":644.0906250000002,"value":1},{"number":64,"time":646.1656250000002,"value":0},{"number":64,"time":646.9416666666668,"value":1},{"number":64,"time":647.8979166666668,"value":0},{"number":64,"time":648.3322916666667,"value":1},{"number":64,"time":649.6052083333333,"value":0},{"number":64,"time":650.1010416666666,"value":1},{"number":64,"time":651.3677083333332,"value":0},{"number":64,"time":651.9229166666664,"value":1},{"number":64,"time":653.6656249999999,"value":0},{"number":64,"time":655.1802083333332,"value":1},{"number":64,"time":660.1218749999999,"value":0},{"number":64,"time":660.6625,"value":1},{"number":64,"time":662.0416666666666,"value":0},{"number":64,"time":662.4760416666667,"value":1},{"number":64,"time":663.903125,"value":0},{"number":64,"time":664.2833333333335,"value":1},{"number":64,"time":665.9343750000002,"value":0},{"number":64,"time":666.4020833333335,"value":1},{"number":64,"time":668.0697916666669,"value":0},{"number":64,"time":668.6135416666668,"value":1},{"number":64,"time":685.8937500000002,"value":0}]},"id":0,"name":"MIDI in","channelNumber":0,"isPercussion":false}]}